<?xml version="1.0" encoding="UTF-8" standalone="no"?><!DOCTYPE svg PUBLIC "-//W3C//DTD SVG 1.1//EN" "http://www.w3.org/Graphics/SVG/1.1/DTD/svg11.dtd"><svg width="100%" height="100%" viewBox="0 0 216 210" version="1.1" xmlns="http://www.w3.org/2000/svg" xmlns:xlink="http://www.w3.org/1999/xlink" xml:space="preserve" xmlns:serif="http://www.serif.com/" style="fill-rule:evenodd;clip-rule:evenodd;stroke-linejoin:round;stroke-miterlimit:1.41421;"><g id="Dirt_Block15"><path d="M215.123,58.859l-107.332,-53.666l-107.331,53.666l107.331,53.666l107.332,-53.666Z" style="fill:#c7a664;"/><clipPath id="_clip1"><path d="M215.123,58.859l-107.332,-53.666l-107.331,53.666l107.331,53.666l107.332,-53.666Z"/></clipPath><g clip-path="url(#_clip1)"><path d="M-11.568,25.969c0,0 25.752,7.572 44.227,16.79c10.717,5.347 10.436,12.284 12.302,17.627c6.806,19.49 22.135,14.676 56.519,21.331c14.621,2.829 30.457,10.551 38.511,14.708c16.652,8.595 35.774,8.946 35.774,8.946l-153.846,33.017l-67.966,-77.834l34.479,-34.585Z" style="fill:#b09255;"/><path d="M182.923,74.959c-1.62,-2.35 -41.14,-4.125 -39.943,-23.447c0.693,-11.186 -13.274,-6.449 -46.624,-17.141c-3.266,-1.048 -10.017,-7.713 -20.764,-13.078c-26.494,-13.227 -64.207,-12.397 -64.207,-12.397l153.225,-35.789l73.088,90.564l-54.775,11.288Z" style="fill:#b09255;"/></g><g><g><path d="M215.123,58.859l0,96.598l-107.332,53.666l0,-96.599l107.332,-53.665Z" style="fill:#b09255;"/><clipPath id="_clip2"><path d="M215.123,58.859l0,96.598l-107.332,53.666l0,-96.599l107.332,-53.665Z"/></clipPath><g clip-path="url(#_clip2)"><path d="M113.319,240.013l-7.47,-8.393l0.628,-15.38l4.862,-8.365l7.638,3.248l3.735,6.804l0.66,10.713l-10.053,11.373" style="fill:#e1c080;"/><path d="M136.86,209.729l6.48,-6.062l-3.057,-12.565l-8.623,-2.464l-7.622,-1.443l-2.977,3.95l-3.5,-1.488l-5.378,1.086l-1.634,4.319l5.651,4.448l4.24,3.091l7.816,4.703l8.604,2.425Z" style="fill:#e1c080;"/><path d="M173.847,216.034l7.62,-4.416l4.724,-10.592l-3.045,-9.558l-19.234,-2.963l-6.431,7.696l-1.006,7.709l6.329,7.428l11.043,4.696Z" style="fill:#e1c080;"/><path d="M195.622,179.574l8.069,-10.665l-1.706,-5.942l-8.575,-19.294c0,0 -7.897,5.94 -10.383,6.016c-2.486,0.077 -7.683,4.452 -7.683,4.452l3.152,9.269l8.6,6.112l8.526,10.052Z" style="fill:#e1c080;"/><path d="M147.52,184.246l10.639,-1.857l10.284,-7.606l-2.016,-7.625l-4.769,-5.692l-7.679,1.95l-4.985,5.389l-3.647,6.588l2.173,8.853" style="fill:#e1c080;"/><path d="M206.332,211.76l-9.119,-6.382l-10.415,5.505l-4.461,14.856l14.945,3.037l6.388,-5.87l2.662,-11.146" style="fill:#e1c080;"/><path d="M118.686,153.948l-7.471,-8.393l0.629,-15.38l4.861,-8.365l7.639,3.248l3.734,6.804l0.66,10.713l-10.052,11.373" style="fill:#e1c080;"/><path d="M131.105,172.48l-9.714,-5.466l1.146,-6.212l5.191,-3.008l4.057,1.725l4.47,4.429l-0.085,5.597l-5.065,2.935Z" style="fill:#816b40;"/><path d="M161.388,148.885l-5.042,5.431l-10.806,-0.849l-2.238,-4.698l-1.605,-8.155l10.344,-11.542l3.07,5.211l5.436,0.955l2.99,10.126l-2.149,3.521" style="fill:#816b40;"/><path d="M147.207,125.865l6.48,-6.062l-3.057,-12.565l-8.623,-2.463l-7.622,-1.444l-2.977,3.951l-3.5,-1.489l-5.378,1.086l-1.634,4.319l5.651,4.448l4.24,3.091l7.817,4.704l8.603,2.424Z" style="fill:#e1c080;"/><path d="M175.945,137.48l7.621,-4.416l4.724,-10.593l-3.045,-9.557l-19.234,-2.964l-6.432,7.697l-1.005,7.709l6.328,7.427l11.043,4.697Z" style="fill:#e1c080;"/><path d="M203.63,103.336l8.069,-10.664l-1.707,-5.942l-8.575,-19.295c0,0 -7.897,5.94 -10.382,6.017c-2.486,0.076 -7.683,4.452 -7.683,4.452l3.151,9.269l8.6,6.112l8.527,10.051Z" style="fill:#e1c080;"/><path d="M156.633,107.427l10.639,-1.857l10.285,-7.605l-2.017,-7.626l-4.768,-5.692l-7.68,1.951l-4.984,5.388l-3.648,6.589l2.173,8.852" style="fill:#816b40;"/><path d="M211.699,125.695l-9.12,-6.382l-10.414,5.505l-4.461,14.856l14.945,3.037l6.387,-5.87l2.663,-11.146" style="fill:#816b40;"/><path d="M129.162,177.335l-9.713,-5.467l1.145,-6.211l5.192,-3.009l4.056,1.725l4.47,4.429l-0.084,5.597l-5.066,2.936Zm30.283,-23.595l-5.042,5.43l-10.806,-0.848l-2.237,-4.699l-1.606,-8.155l10.344,-11.541l3.071,5.211l5.435,0.955l2.991,10.126l-2.15,3.521Zm50.311,-23.19l-2.662,11.146l-6.388,5.869l-14.945,-3.036l4.461,-14.856l10.415,-5.505l9.119,6.382Zm-55.066,-18.268l10.639,-1.857l10.285,-7.606l-2.017,-7.625l-4.768,-5.692l-7.679,1.95l-4.985,5.389l-3.648,6.588l2.173,8.853Z" style="fill:#0a0500;fill-opacity:0.3;"/><path d="M133.917,214.435l6.48,-6.062l-3.056,-12.565l-8.624,-2.464l-7.622,-1.443l-2.977,3.95l-3.5,-1.488l-5.378,1.086l-1.634,4.319l5.651,4.448l4.24,3.091l7.817,4.704l8.603,2.424Zm10.66,-25.483l10.639,-1.857l10.285,-7.606l-2.017,-7.625l-4.768,-5.692l-7.679,1.95l-4.985,5.389l-3.648,6.588l2.173,8.853Zm48.103,-4.672l8.069,-10.665l-1.707,-5.942l-8.575,-19.294c0,0 -7.897,5.94 -10.383,6.016c-2.485,0.077 -7.683,4.452 -7.683,4.452l3.152,9.269l8.6,6.112l8.527,10.052Zm-76.937,-25.626l-7.47,-8.393l0.628,-15.38l4.862,-8.365l7.638,3.248l3.735,6.804l0.66,10.713l-10.053,11.373Zm57.26,-16.468l7.62,-4.416l4.724,-10.593l-3.045,-9.557l-19.234,-2.964l-6.431,7.697l-1.006,7.709l6.329,7.427l11.043,4.697Zm-28.738,-11.615l6.479,-6.062l-3.056,-12.565l-8.623,-2.463l-7.623,-1.443l-2.976,3.95l-3.5,-1.489l-5.378,1.086l-1.634,4.319l5.651,4.448l4.24,3.091l7.816,4.704l8.604,2.424Zm56.422,-22.529l8.069,-10.664l-1.707,-5.942l-8.574,-19.295c0,0 -7.897,5.94 -10.383,6.017c-2.486,0.076 -7.683,4.452 -7.683,4.452l3.152,9.269l8.6,6.112l8.526,10.051Z" style="fill:#9b712c;fill-opacity:0.5;"/></g></g><path d="M0.46,58.859l107.331,53.665l0,96.599l-107.331,-53.666l0,-96.598" style="fill:#685632;"/><clipPath id="_clip3"><path d="M0.46,58.859l107.331,53.665l0,96.599l-107.331,-53.666l0,-96.598"/></clipPath><g clip-path="url(#_clip3)"><path d="M5.952,230.835l-7.47,-8.945l0.629,-16.394l4.861,-8.916l7.639,3.463l3.734,7.252l0.66,11.418l-10.053,12.122" style="fill:#816b40;"/><path d="M48.654,225.439l-5.042,5.788l-10.805,-0.905l-2.238,-5.007l-1.605,-8.693l10.343,-12.301l3.071,5.554l5.435,1.018l2.991,10.793l-2.15,3.753" style="fill:#816b40;"/><path d="M29.493,198.556l6.48,-6.461l-3.057,-13.393l-8.623,-2.625l-7.622,-1.539l-2.977,4.211l-3.5,-1.587l-5.378,1.157l-1.634,4.605l5.651,4.74l4.24,3.295l7.816,5.013l8.604,2.584Z" style="fill:#816b40;"/><path d="M66.48,205.277l7.62,-4.707l4.724,-11.29l-3.045,-10.188l-19.234,-3.158l-6.431,8.204l-1.006,8.216l6.329,7.917l11.043,5.006Z" style="fill:#b09255;"/><path d="M88.488,174.061l8.069,-11.366l-1.707,-6.334l-8.575,-20.565c0,0 -7.897,6.331 -10.382,6.413c-2.486,0.081 -7.683,4.745 -7.683,4.745l3.152,9.88l8.599,6.514l8.527,10.713Z" style="fill:#816b40;"/><path d="M40.153,171.395l10.639,-1.98l10.285,-8.106l-2.017,-8.128l-4.768,-6.067l-7.68,2.079l-4.984,5.743l-3.648,7.023l2.173,9.436" style="fill:#816b40;"/><path d="M106.151,188.64l-9.093,-6.35l-10.432,5.55l-4.516,14.885l14.93,2.979l6.408,-5.899l2.703,-11.165" style="fill:#816b40;"/><path d="M11.319,139.101l-7.471,-8.945l0.629,-16.394l4.861,-8.916l7.639,3.463l3.734,7.252l0.661,11.418l-10.053,12.122" style="fill:#b09255;"/><path d="M23.738,158.854l-9.714,-5.827l1.146,-6.62l5.191,-3.207l4.057,1.839l4.47,4.721l-0.085,5.965l-5.065,3.129Z" style="fill:#b09255;"/><path d="M47.47,137.848l-5.042,5.788l-10.806,-0.905l-2.238,-5.007l-1.605,-8.693l10.344,-12.301l3.07,5.554l5.436,1.018l2.99,10.793l-2.149,3.753" style="fill:#816b40;"/><path d="M17.167,101.242l9.014,-1.578l5.175,-12.725l-5.559,-7.096l-5.362,-5.63l-4.853,1.742l-1.958,-3.307l-5.07,-2.136l-3.978,2.836l1.911,7.124l1.585,5.13l3.528,8.59l5.567,7.05Z" style="fill:#816b40;"/><path d="M57.881,119.81l7.62,-4.707l4.724,-11.29l-3.045,-10.187l-19.233,-3.159l-6.432,8.204l-1.006,8.216l6.329,7.917l11.043,5.006Z" style="fill:#b09255;"/><path d="M93.622,74.681l8.069,-11.367l-1.707,-6.334l-8.575,-20.565c0,0 -7.896,6.331 -10.382,6.413c-2.486,0.081 -7.683,4.745 -7.683,4.745l3.152,9.88l8.599,6.514l8.527,10.714Z" style="fill:#816b40;"/><path d="M45.519,79.66l10.639,-1.979l10.285,-8.106l-2.016,-8.128l-4.769,-6.067l-7.679,2.079l-4.985,5.743l-3.648,7.023l2.173,9.435" style="fill:#816b40;"/><path d="M97.058,112.46l-9.119,-6.802l-10.414,5.868l-4.462,15.834l14.946,3.237l6.387,-6.256l2.662,-11.881" style="fill:#816b40;"/><path d="M14.644,251.59l-9.713,-5.827l1.146,-6.621l5.191,-3.206l4.057,1.839l4.47,4.721l-0.085,5.965l-5.066,3.129Zm30.284,-25.149l-5.042,5.788l-10.806,-0.905l-2.238,-5.007l-1.605,-8.693l10.344,-12.302l3.07,5.555l5.436,1.018l2.99,10.793l-2.149,3.753Zm-42.702,5.396l-7.471,-8.946l0.629,-16.393l4.861,-8.916l7.639,3.462l3.734,7.253l0.66,11.418l-10.052,12.122Zm100.199,-42.196l-2.704,11.165l-6.408,5.9l-14.93,-2.979l4.516,-14.885l10.433,-5.55l9.093,6.349Zm-39.672,16.637l7.621,-4.706l4.723,-11.29l-3.045,-10.188l-19.233,-3.158l-6.432,8.204l-1.006,8.216l6.329,7.917l11.043,5.005Zm-36.987,-6.72l6.48,-6.462l-3.056,-13.392l-8.623,-2.626l-7.623,-1.538l-2.976,4.211l-3.5,-1.587l-5.379,1.157l-1.634,4.604l5.651,4.741l4.24,3.294l7.817,5.014l8.603,2.584Zm58.995,-24.495l8.069,-11.367l-1.707,-6.333l-8.574,-20.565c0,0 -7.897,6.331 -10.383,6.413c-2.486,0.081 -7.683,4.745 -7.683,4.745l3.152,9.88l8.6,6.514l8.526,10.713Zm-48.335,-2.667l10.639,-1.979l10.285,-8.106l-2.017,-8.128l-4.768,-6.067l-7.679,2.079l-4.985,5.743l-3.648,7.023l2.173,9.435Zm-16.415,-12.54l-9.713,-5.827l1.145,-6.621l5.192,-3.206l4.056,1.839l4.47,4.72l-0.084,5.966l-5.066,3.129Zm23.732,-21.006l-5.042,5.788l-10.806,-0.905l-2.237,-5.007l-1.606,-8.693l10.344,-12.302l3.07,5.555l5.436,1.018l2.991,10.793l-2.15,3.753Zm-36.151,1.253l-7.47,-8.946l0.628,-16.393l4.862,-8.916l7.638,3.462l3.735,7.253l0.66,11.418l-10.053,12.122Zm85.74,-26.641l-2.663,11.88l-6.387,6.256l-14.945,-3.236l4.461,-15.835l10.414,-5.867l9.12,6.802Zm-39.178,7.35l7.621,-4.707l4.724,-11.29l-3.045,-10.188l-19.234,-3.158l-6.432,8.204l-1.005,8.216l6.328,7.917l11.043,5.006Zm-40.713,-18.568l9.014,-1.578l5.175,-12.725l-5.559,-7.096l-5.363,-5.631l-4.853,1.743l-1.958,-3.307l-5.069,-2.136l-3.979,2.835l1.911,7.125l1.585,5.13l3.529,8.589l5.567,7.051Zm28.352,-21.582l10.639,-1.979l10.284,-8.106l-2.016,-8.128l-4.769,-6.067l-7.679,2.079l-4.984,5.743l-3.648,7.023l2.173,9.435Zm48.102,-4.98l8.069,-11.367l-1.706,-6.333l-8.575,-20.565c0,0 -7.897,6.331 -10.383,6.413c-2.486,0.081 -7.683,4.745 -7.683,4.745l3.152,9.88l8.6,6.514l8.526,10.713Z" style="fill:#0a0500;fill-opacity:0.3;"/></g></g><g><path d="M111.936,106.143l-3.284,3.605l-0.063,-17.267l3.347,13.662Zm-3.405,-13.743l-3.608,11.009l-0.809,6.221l4.538,0.118l-0.121,-17.348Zm31.302,-3.667l-2.066,6.538l-2.815,-5.901l-3.8,3.402l-2.664,-4.383l-7.016,-1.265l4.209,-3.262l0.401,-13.092l5.93,12.033l3.813,-11.087l2.719,6.617l5.758,-5.156l0.521,6.595l-0.59,4.647l6.859,-1.444l-6.797,4.827l6.883,6.345l-7.861,-1.467l-1.164,1.725l-2.32,-5.672Zm-54.292,-18.433l-5.998,16.111l3.886,2.813l5.17,-0.226l5.88,2.94l3.929,-2.587l2.833,-1.705l4.256,-12.303l-3.198,2.719l-3.891,3.763l0.755,-7.017l-3.214,6.135l-1.997,4.629l-1.087,-9.457l1.61,-4.175l-4.98,8.591l-0.72,4.822l-1.624,-0.837l-1.61,-14.216Zm-24.939,16.53l-3.285,3.605l-0.062,-17.268l3.347,13.663Zm-3.405,-13.744l-3.608,11.009l-0.809,6.222l4.537,0.118l-0.12,-17.349Zm1.826,-16.239c0.063,0.088 0.309,0.08 0.943,-0.179c1.641,-0.671 5.24,3.648 5.349,1.74c0.11,-1.909 -3.129,-4.77 -3.017,-5.65c0.113,-0.88 -2.401,-0.171 -2.401,-0.171l2.149,-3.749l4.595,-5.018l-5.372,1.36l-1.134,-3.479l-3.671,1.077l-1.742,5.676l-2.511,4.337l-0.448,-5.935l2.512,-3.516l-1.099,-4.118l0.777,-6.569l-6.087,5.826l-1.977,2.252l1.184,-6.695l-3.375,-1.687l-3.739,3.254l0.052,5.427l-3.02,1.908l-3.208,-5.223c0,0 -0.07,-2.31 -0.839,-0.301c-0.768,2.009 -1.672,7.835 -1.672,7.835l-0.089,2.835l-3.226,-5.045c0,0 -0.975,0.242 -0.789,1.276c0.186,1.034 0.379,8.282 0.379,8.282l-1.8,1.29l-2.149,0.782l-4.337,3.423c0,0 0.849,2.702 2.663,2.714c0.876,0.006 2.531,0.384 4.01,0.773l-0.214,10.964l-2.675,3.262l4.46,1.266l1.693,4.383l2.415,-3.402l1.789,5.901l1.314,-6.539l1.475,5.673l0.739,-1.726l4.996,1.468l-4.374,-6.345l4.32,-4.828l-4.36,1.445l0.375,-4.647l-0.312,-6.216c1.164,-0.339 2.034,-0.616 2.034,-0.616c0,0 2.712,-0.904 4.319,-2.411c1.608,-1.507 0.717,-3.79 2.97,-2.799c2.254,0.991 5.492,4.56 5.492,4.56c0,0 0.758,1.008 3.129,-0.778c2.372,-1.786 3.175,-2.69 3.175,-2.69l0.329,-0.657c-0.101,-0.139 0.26,-0.521 0.26,-0.521l-0.26,0.521Zm99.643,-6.367l-3.107,9.476l-2.63,-3.318l0.451,7.036l-2.881,-8.08l-1.209,5.203l-2.875,-6.17l0,3.704c0,0 -1.254,2.571 -2.126,1.62c-3.613,-3.938 -1.755,1.093 -1.958,1.381c-0.87,1.237 0,1.714 0,1.714l-0.668,1.608c0,0 1.569,-0.935 0.668,0.918c-0.901,1.852 -2.607,3.63 -1.421,3.625c1.185,-0.005 2.695,-1.475 4.521,1.364c0.276,0.429 0.984,0.988 0.984,0.988c0,0 2.106,0.944 3.122,1.062c1.017,0.117 0.687,0.87 2.278,0.157c1.59,-0.714 2.424,-1.892 2.767,-0.882c0.344,1.01 1.607,1.396 1.607,1.396l3.299,0.372l0.499,-0.884c0,0 2.291,-0.488 4.413,0.493c2.121,0.98 3.357,2.833 3.357,0.559c0,-2.273 0.33,-2.192 0.33,-2.192c0,0 -0.002,-1.84 1.212,-1.971c1.214,-0.13 3.731,-0.218 3.731,-0.218l-2.112,-1.596c0,0 3.606,-2.223 4.879,-2.543c1.274,-0.32 3.288,0.438 3.288,0.438l-1.797,1.815c0,0 1.15,-1.041 1.797,-0.796c0.647,0.244 3.118,-0.345 3.118,-0.345l0.966,-1.464c0,0 -0.3,-0.389 -1.251,-1.483c-0.95,-1.095 -1.52,-1.684 -1.52,-1.684l-0.095,-0.926l1.422,-3.782l0.416,-3.433l-5.079,6.778l-0.014,-5.416l-2.828,4.169l-0.665,-6.567l-2.637,7.83c0,0 -0.991,1.74 -1.268,-0.351c-0.277,-2.091 -1.252,-6.68 -1.252,-6.68l-2.337,-3.267l0.773,11.194l-3.164,-1.401l-0.92,-11.26l-1.436,13.834l-1.351,-3.163l-1.297,1.99l0,-10.852Zm-131.959,11.307c1.234,0.341 2.191,0.639 2.191,0.639c0,0 1.081,0.794 2.611,0.984l-1.765,8.074l-3.037,-9.697Zm78.46,-7.107l-6.821,-6.933l1.3,8.667l-5.521,-10.208l-2.166,6.818l-6.032,-8.085l-2.845,11.437l-3.086,-9.506l-2.435,7.421l-9.31,-4.825l5.657,10.375l3.653,6.962c0,0 6.341,-1.878 7.954,-3.004c1.613,-1.126 2.271,-1.062 4.428,-0.661c2.157,0.401 6.031,1.364 9.703,1.846c3.672,0.481 9.628,2.353 9.628,2.353l5.645,-0.428c2.677,-1.925 4.554,-3.424 4.554,-3.424l6.119,-2.311l-6.466,-0.427l-5.243,-3.492l2.327,-12.397l-11.043,9.822Zm-71.271,12.335l-0.947,-3.627c1.148,-0.185 2.861,-0.642 4.263,-1.045l-3.316,4.672Zm159.021,-17.705l-3.608,11.009l-0.809,6.222l4.537,0.118l-0.12,-17.349Zm3.405,13.744l-3.285,3.605l-0.062,-17.268l3.347,13.663Zm-44.824,-25.833l-2.397,1.445l3.522,-13.596l-5.644,9.508l-2.932,-4.831l-1.644,5.572l-3.317,-3.872l-2.242,-1.748l-2.543,10.943l-2.683,-1.343l0.206,8.401l-1.981,4.53c0,0 2.464,1.013 3.112,1.868c0.648,0.854 -1.151,3.263 1.558,2.221c2.709,-1.042 3.738,-0.682 5.063,-2.391c1.324,-1.71 2.564,-3.245 2.564,-3.245l3.788,0.34c0,0 1.408,-3.655 1.882,0.169c0.474,3.823 3.505,-3.318 3.505,-3.318l3.21,-6.687l-3.027,-3.966Zm-58.743,-30.923l-4.083,14.058l-3.457,-4.922l0.593,10.437l-3.786,-11.987l-1.589,7.719l-3.778,-9.153l0,5.495c0,0 -1.647,3.814 -2.793,2.403c-4.748,-5.841 -2.307,1.622 -2.573,2.05c-1.144,1.834 0,2.542 0,2.542l-0.879,2.385c0,0 2.063,-1.386 0.879,1.362c-1.185,2.747 -3.426,5.385 -1.868,5.377c1.558,-0.007 3.542,-2.188 5.941,2.024c0.363,0.637 1.293,1.466 1.293,1.466c0,0 2.767,1.401 4.103,1.575c1.337,0.174 0.903,1.291 2.993,0.233c2.09,-1.058 3.186,-2.807 3.637,-1.308c0.452,1.499 2.112,2.071 2.112,2.071l4.335,0.552l0.656,-1.312c0,0 3.01,-0.723 5.798,0.732c2.788,1.454 4.412,4.202 4.412,0.83c0,-3.373 0.434,-3.253 0.434,-3.253c0,0 -0.003,-2.73 1.592,-2.924c1.596,-0.193 4.903,-0.324 4.903,-0.324l-2.776,-2.367c0,0 4.739,-3.297 6.413,-3.772c1.674,-0.475 4.321,0.649 4.321,0.649l-2.363,2.692c0,0 1.512,-1.543 2.363,-1.181c0.85,0.363 4.097,-0.511 4.097,-0.511l1.269,-2.172c0,0 -0.394,-0.576 -1.643,-2.2c-1.249,-1.623 -1.999,-2.498 -1.999,-2.498l-0.125,-1.374l1.869,-5.61l0.548,-5.093l-6.675,10.055l-0.018,-8.035l-3.717,6.185l-0.874,-9.742l-3.466,11.616c0,0 -1.301,2.581 -1.666,-0.521c-0.364,-3.101 -1.645,-9.91 -1.645,-9.91l-3.07,-4.847l1.015,16.608l-4.158,-2.079l-1.209,-16.704l-1.887,20.522l-1.775,-4.693l-1.704,2.954l0,-16.1Z" style="fill:#0a0500;fill-opacity:0.3;"/><g id="GrassBlank02"><path d="M143.637,85.833l-2.066,6.539l-2.815,-5.901l-3.8,3.402l-2.664,-4.383l-7.016,-1.266l4.209,-3.262l0.401,-13.091l5.93,12.032l3.813,-11.087l2.719,6.618l5.758,-5.157l0.521,6.596l-0.59,4.647l6.859,-1.445l-6.797,4.828l6.883,6.345l-7.861,-1.468l-1.164,1.726l-2.32,-5.673" style="fill:#33653a;"/><clipPath id="_clip4"><path d="M143.637,85.833l-2.066,6.539l-2.815,-5.901l-3.8,3.402l-2.664,-4.383l-7.016,-1.266l4.209,-3.262l0.401,-13.091l5.93,12.032l3.813,-11.087l2.719,6.618l5.758,-5.157l0.521,6.596l-0.59,4.647l6.859,-1.445l-6.797,4.828l6.883,6.345l-7.861,-1.468l-1.164,1.726l-2.32,-5.673"/></clipPath><g clip-path="url(#_clip4)"><path d="M129.886,67.871l2.699,12.399l-1.35,2.21l3.253,2.455l1.521,-4.788l-2.061,-7.098l4.548,-5.153l1.333,-0.518l-1.105,15.654l3.789,-7.761l1.429,-5.437l3.991,0l-3.438,12.4l5.543,-1.13l4.051,-5.412l3.386,1.693l-2.728,3.069l0.375,14.207l-8.38,-2.553l-2.984,3.509l-2.794,-1.9l-0.959,-2.23l-8.458,-1.138l-7.505,-6.293l4.308,-12.749l1.536,-3.436" style="fill:#8fdc5e;"/></g><path d="M155.302,34.321l-2.397,1.446l3.522,-13.597l-5.644,9.509l-2.932,-4.832l-1.644,5.573l-3.317,-3.873l-2.242,-1.748l-2.543,10.944l-2.683,-1.343l0.206,8.401l-1.981,4.529c0,0 2.464,1.014 3.112,1.868c0.648,0.855 -1.151,3.263 1.558,2.221c2.709,-1.041 3.738,-0.681 5.063,-2.391c1.324,-1.709 2.564,-3.245 2.564,-3.245l3.787,0.34c0,0 1.409,-3.654 1.883,0.169c0.474,3.823 3.505,-3.317 3.505,-3.317l3.21,-6.688l-3.027,-3.966Z" style="fill:#33653a;"/><clipPath id="_clip5"><path d="M155.302,34.321l-2.397,1.446l3.522,-13.597l-5.644,9.509l-2.932,-4.832l-1.644,5.573l-3.317,-3.873l-2.242,-1.748l-2.543,10.944l-2.683,-1.343l0.206,8.401l-1.981,4.529c0,0 2.464,1.014 3.112,1.868c0.648,0.855 -1.151,3.263 1.558,2.221c2.709,-1.041 3.738,-0.681 5.063,-2.391c1.324,-1.709 2.564,-3.245 2.564,-3.245l3.787,0.34c0,0 1.409,-3.654 1.883,0.169c0.474,3.823 3.505,-3.317 3.505,-3.317l3.21,-6.688l-3.027,-3.966Z"/></clipPath><g clip-path="url(#_clip5)"><path d="M134.589,34.123l2.316,8.553l4.591,-1.613l-4.449,-6.719l3.344,-8.384l3.401,12.198l3.185,0.13l-0.768,-5.994l2.003,-7.891l0.821,13.298l1.759,-6.524l1.411,-3.662l3.319,-6.103l-3.909,16.099l1.181,-0.207l0.887,0.69l3.573,1.653l3.53,3.147c0,0 -5.698,1.884 -10.227,2.111c-3.358,0.167 -5.756,-1.38 -6.378,-1.062c-0.678,0.346 -0.748,6.145 -2.884,8.954c-2.478,3.26 -7.01,3.564 -7.01,3.564l-2.01,-9.805l2.314,-12.433" style="fill:#8fdc5e;"/></g><g><path d="M112.335,89.5l-3.608,11.009l-0.809,6.222l4.538,0.118l-0.121,-17.349Z" style="fill:#8fdc5e;"/><path d="M115.74,103.244l-3.284,3.605l-0.063,-17.268l3.347,13.663Z" style="fill:#33653a;"/></g><g><path d="M196.721,46.411l-3.608,11.009l-0.809,6.221l4.537,0.118l-0.12,-17.348Z" style="fill:#8fdc5e;"/><path d="M200.126,60.154l-3.285,3.605l-0.062,-17.267l3.347,13.662Z" style="fill:#33653a;"/></g><g><path d="M61.001,70.187l-3.608,11.009l-0.809,6.221l4.537,0.118l-0.12,-17.348Z" style="fill:#8fdc5e;"/><path d="M64.406,83.93l-3.285,3.605l-0.062,-17.267l3.347,13.662Z" style="fill:#33653a;"/></g><path d="M89.345,67.4l-5.998,16.112l3.886,2.813l5.17,-0.226l5.88,2.94l3.929,-2.587l2.833,-1.706l4.256,-12.302l-3.198,2.718l-3.891,3.763l0.755,-7.017l-3.214,6.135l-1.997,4.63l-1.087,-9.457l1.61,-4.175l-4.98,8.591l-0.72,4.821l-1.624,-0.837l-1.61,-14.216Z" style="fill:#33653a;"/><clipPath id="_clip6"><path d="M89.345,67.4l-5.998,16.112l3.886,2.813l5.17,-0.226l5.88,2.94l3.929,-2.587l2.833,-1.706l4.256,-12.302l-3.198,2.718l-3.891,3.763l0.755,-7.017l-3.214,6.135l-1.997,4.63l-1.087,-9.457l1.61,-4.175l-4.98,8.591l-0.72,4.821l-1.624,-0.837l-1.61,-14.216Z"/></clipPath><g clip-path="url(#_clip6)"><path d="M89.42,65.134l-2.216,16.72l4.386,-0.555l1.709,-12.781l5.427,0.299l-3.383,9.991l-0.412,4.351l2.825,-0.486l1.57,-8.128l3.97,-2.472l-3.42,8.452l0.142,3.279l1.44,-2.056c0.255,-1.668 0.941,-3.372 2.055,-5.11l6.623,-5.602l-4.866,7.207l-0.694,3.383l-1.588,2.888l-3.669,1.834l-1.563,1.75c0,0 -2.531,2.881 -3.825,2.999c-1.293,0.117 -7.056,-0.059 -8.408,-0.588c-1.352,-0.529 -6.611,-3.888 -6.611,-3.888l3.184,-11.778l7.324,-9.709Z" style="fill:#8fdc5e;"/></g><path d="M96.559,3.398l-4.083,14.058l-3.457,-4.921l0.593,10.437l-3.786,-11.987l-1.589,7.719l-3.778,-9.154l0,5.496c0,0 -1.647,3.813 -2.793,2.403c-4.748,-5.842 -2.307,1.622 -2.573,2.049c-1.144,1.835 0,2.542 0,2.542l-0.879,2.386c0,0 2.063,-1.387 0.879,1.361c-1.185,2.748 -3.426,5.385 -1.868,5.378c1.558,-0.007 3.542,-2.188 5.941,2.024c0.363,0.637 1.293,1.466 1.293,1.466c0,0 2.767,1.4 4.103,1.574c1.336,0.174 0.903,1.292 2.993,0.233c2.09,-1.058 3.186,-2.806 3.637,-1.308c0.452,1.499 2.112,2.071 2.112,2.071l4.335,0.552l0.656,-1.311c0,0 3.01,-0.723 5.798,0.731c2.788,1.455 4.412,4.202 4.412,0.83c0,-3.372 0.434,-3.253 0.434,-3.253c0,0 -0.003,-2.73 1.592,-2.923c1.596,-0.194 4.903,-0.324 4.903,-0.324l-2.776,-2.368c0,0 4.739,-3.297 6.413,-3.771c1.674,-0.475 4.321,0.649 4.321,0.649l-2.363,2.692c0,0 1.512,-1.544 2.363,-1.181c0.85,0.362 4.097,-0.512 4.097,-0.512l1.269,-2.171c0,0 -0.394,-0.577 -1.643,-2.2c-1.249,-1.624 -1.999,-2.498 -1.999,-2.498l-0.125,-1.374l1.869,-5.611l0.548,-5.092l-6.675,10.054l-0.018,-8.034l-3.717,6.185l-0.874,-9.742l-3.466,11.615c0,0 -1.301,2.581 -1.666,-0.52c-0.364,-3.102 -1.645,-9.911 -1.645,-9.911l-3.07,-4.846l1.015,16.607l-4.158,-2.079l-1.209,-16.704l-1.887,20.523l-1.775,-4.693l-1.704,2.953l0,-16.1Z" style="fill:#33653a;"/><clipPath id="_clip7"><path d="M96.559,3.398l-4.083,14.058l-3.457,-4.921l0.593,10.437l-3.786,-11.987l-1.589,7.719l-3.778,-9.154l0,5.496c0,0 -1.647,3.813 -2.793,2.403c-4.748,-5.842 -2.307,1.622 -2.573,2.049c-1.144,1.835 0,2.542 0,2.542l-0.879,2.386c0,0 2.063,-1.387 0.879,1.361c-1.185,2.748 -3.426,5.385 -1.868,5.378c1.558,-0.007 3.542,-2.188 5.941,2.024c0.363,0.637 1.293,1.466 1.293,1.466c0,0 2.767,1.4 4.103,1.574c1.336,0.174 0.903,1.292 2.993,0.233c2.09,-1.058 3.186,-2.806 3.637,-1.308c0.452,1.499 2.112,2.071 2.112,2.071l4.335,0.552l0.656,-1.311c0,0 3.01,-0.723 5.798,0.731c2.788,1.455 4.412,4.202 4.412,0.83c0,-3.372 0.434,-3.253 0.434,-3.253c0,0 -0.003,-2.73 1.592,-2.923c1.596,-0.194 4.903,-0.324 4.903,-0.324l-2.776,-2.368c0,0 4.739,-3.297 6.413,-3.771c1.674,-0.475 4.321,0.649 4.321,0.649l-2.363,2.692c0,0 1.512,-1.544 2.363,-1.181c0.85,0.362 4.097,-0.512 4.097,-0.512l1.269,-2.171c0,0 -0.394,-0.577 -1.643,-2.2c-1.249,-1.624 -1.999,-2.498 -1.999,-2.498l-0.125,-1.374l1.869,-5.611l0.548,-5.092l-6.675,10.054l-0.018,-8.034l-3.717,6.185l-0.874,-9.742l-3.466,11.615c0,0 -1.301,2.581 -1.666,-0.52c-0.364,-3.102 -1.645,-9.911 -1.645,-9.911l-3.07,-4.846l1.015,16.607l-4.158,-2.079l-1.209,-16.704l-1.887,20.523l-1.775,-4.693l-1.704,2.953l0,-16.1Z"/></clipPath><g clip-path="url(#_clip7)"><path d="M72.649,12.91l4.116,6.541l3.694,0.128l-1.776,-10.36l1.776,-0.703l3.55,15.44l1.817,-3.866l-2.411,-9.4l3.58,-1.34l1.025,17.455l2.358,0.336l-0.423,-15.074l2.541,-2.848l0.039,12.291l8.21,-17.726l-2.813,23.149l-12.106,13.045l-14.931,-7.648l1.754,-19.42Z" style="fill:#8fdc5e;"/><path d="M105.436,7.164l2.494,4.668l1.41,8.69l4.473,0.135l-1.155,-3.069l-1.339,-9.145l3.325,-2.558l1.645,14.481l1.736,-2.331l-0.506,-9.523l1.765,0.882l0.604,10.432l2.046,-1.535l0.907,-11.934l2.802,2.726l-1.663,9.464l2.794,1.943l8.514,6.476c0,0 -11.061,5.503 -12.559,6.28c-1.498,0.776 -8.852,7.427 -8.852,7.427l-13.173,2.364l-4.145,-5.689l8.618,-2.808l1.282,-1.981l-1.669,-1.526l-4.516,-0.891l3.435,-4.561l-5.479,3.814l-0.98,3.796l-0.691,-4.54l3.377,-3.326l1.989,-3.709l-1.669,-13.109l-0.463,-8.858l2.693,0.785l1.25,11.92l-0.475,7.6l1.596,0.761l0.579,-13.551Z" style="fill:#8fdc5e;"/></g><path d="M162.47,47.58l-3.107,9.477l-2.63,-3.318l0.45,7.035l-2.88,-8.08l-1.209,5.203l-2.875,-6.17l0,3.705c0,0 -1.254,2.57 -2.126,1.62c-3.613,-3.938 -1.755,1.093 -1.958,1.381c-0.87,1.237 0,1.713 0,1.713l-0.668,1.608c0,0 1.569,-0.934 0.668,0.918c-0.901,1.852 -2.607,3.63 -1.421,3.625c1.185,-0.005 2.695,-1.475 4.521,1.364c0.276,0.43 0.984,0.989 0.984,0.989c0,0 2.106,0.944 3.122,1.061c1.017,0.117 0.687,0.87 2.278,0.157c1.59,-0.713 2.424,-1.892 2.767,-0.882c0.344,1.011 1.607,1.396 1.607,1.396l3.299,0.372l0.499,-0.884c0,0 2.291,-0.487 4.413,0.493c2.121,0.981 3.357,2.833 3.357,0.56c0,-2.273 0.33,-2.193 0.33,-2.193c0,0 -0.002,-1.84 1.212,-1.97c1.214,-0.131 3.731,-0.219 3.731,-0.219l-2.112,-1.596c0,0 3.606,-2.222 4.879,-2.542c1.274,-0.32 3.288,0.437 3.288,0.437l-1.797,1.815c0,0 1.15,-1.04 1.797,-0.796c0.647,0.244 3.118,-0.345 3.118,-0.345l0.966,-1.464c0,0 -0.3,-0.388 -1.251,-1.483c-0.95,-1.094 -1.52,-1.683 -1.52,-1.683l-0.095,-0.927l1.421,-3.782l0.417,-3.432l-5.079,6.777l-0.014,-5.416l-2.828,4.17l-0.666,-6.567l-2.636,7.829c0,0 -0.991,1.74 -1.268,-0.35c-0.277,-2.091 -1.252,-6.681 -1.252,-6.681l-2.337,-3.267l0.773,11.195l-3.164,-1.402l-0.92,-11.259l-1.436,13.834l-1.351,-3.164l-1.297,1.991l0,-10.853Z" style="fill:#33653a;"/><clipPath id="_clip8"><path d="M162.47,47.58l-3.107,9.477l-2.63,-3.318l0.45,7.035l-2.88,-8.08l-1.209,5.203l-2.875,-6.17l0,3.705c0,0 -1.254,2.57 -2.126,1.62c-3.613,-3.938 -1.755,1.093 -1.958,1.381c-0.87,1.237 0,1.713 0,1.713l-0.668,1.608c0,0 1.569,-0.934 0.668,0.918c-0.901,1.852 -2.607,3.63 -1.421,3.625c1.185,-0.005 2.695,-1.475 4.521,1.364c0.276,0.43 0.984,0.989 0.984,0.989c0,0 2.106,0.944 3.122,1.061c1.017,0.117 0.687,0.87 2.278,0.157c1.59,-0.713 2.424,-1.892 2.767,-0.882c0.344,1.011 1.607,1.396 1.607,1.396l3.299,0.372l0.499,-0.884c0,0 2.291,-0.487 4.413,0.493c2.121,0.981 3.357,2.833 3.357,0.56c0,-2.273 0.33,-2.193 0.33,-2.193c0,0 -0.002,-1.84 1.212,-1.97c1.214,-0.131 3.731,-0.219 3.731,-0.219l-2.112,-1.596c0,0 3.606,-2.222 4.879,-2.542c1.274,-0.32 3.288,0.437 3.288,0.437l-1.797,1.815c0,0 1.15,-1.04 1.797,-0.796c0.647,0.244 3.118,-0.345 3.118,-0.345l0.966,-1.464c0,0 -0.3,-0.388 -1.251,-1.483c-0.95,-1.094 -1.52,-1.683 -1.52,-1.683l-0.095,-0.927l1.421,-3.782l0.417,-3.432l-5.079,6.777l-0.014,-5.416l-2.828,4.17l-0.666,-6.567l-2.636,7.829c0,0 -0.991,1.74 -1.268,-0.35c-0.277,-2.091 -1.252,-6.681 -1.252,-6.681l-2.337,-3.267l0.773,11.195l-3.164,-1.402l-0.92,-11.259l-1.436,13.834l-1.351,-3.164l-1.297,1.991l0,-10.853Z"/></clipPath><g clip-path="url(#_clip8)"><path d="M144.276,53.992l3.132,4.409l2.811,0.086l-1.352,-6.983l1.352,-0.474l2.701,10.408l1.383,-2.606l-1.835,-6.337l2.725,-0.903l0.779,11.766l1.795,0.226l-0.322,-10.161l1.934,-1.919l0.029,8.285l6.248,-11.949l-2.141,15.604l-9.212,8.794l-11.363,-5.155l1.336,-13.091Z" style="fill:#8fdc5e;"/><path d="M169.225,50.119l1.898,3.147l1.073,5.857l3.404,0.091l-0.878,-2.069l-1.02,-6.164l2.531,-1.724l1.251,9.761l1.321,-1.571l-0.384,-6.42l1.343,0.595l0.459,7.032l1.557,-1.035l0.69,-8.044l2.132,1.837l-1.265,6.38l2.126,1.309l6.479,4.366c0,0 -8.417,3.709 -9.557,4.233c-1.14,0.523 -6.736,5.006 -6.736,5.006l-10.024,1.594l-3.155,-3.835l6.558,-1.893l0.976,-1.335l-1.27,-1.029l-3.437,-0.6l2.614,-3.075l-4.169,2.571l-0.746,2.559l-0.526,-3.061l2.57,-2.241l1.514,-2.5l-1.27,-8.837l-0.353,-5.971l2.05,0.529l0.951,8.035l-0.361,5.123l1.214,0.513l0.44,-9.134Z" style="fill:#8fdc5e;"/></g><path d="M56.98,36.322l0.777,-6.569l-6.087,5.826l-1.977,2.253l1.184,-6.695l-3.375,-1.688l-3.739,3.255l0.052,5.426l-3.02,1.909l-3.208,-5.224c0,0 -0.07,-2.31 -0.839,-0.301c-0.768,2.009 -1.672,7.835 -1.672,7.835l-0.089,2.836l-3.226,-5.046c0,0 -0.975,0.243 -0.789,1.277c0.186,1.034 0.379,8.282 0.379,8.282l-1.8,1.29l-2.149,0.782l-4.337,3.422c0,0 0.849,2.703 2.663,2.715c1.814,0.012 6.974,1.619 6.974,1.619c0,0 1.802,1.324 4.046,0.963c2.245,-0.36 6.665,-1.767 6.665,-1.767c0,0 2.712,-0.904 4.319,-2.41c1.607,-1.507 0.717,-3.791 2.97,-2.8c2.254,0.992 5.492,4.561 5.492,4.561c0,0 0.758,1.008 3.129,-0.779c2.372,-1.786 3.175,-2.69 3.175,-2.69l0.589,-1.177c0,0 -0.958,1.013 0.683,0.341c1.641,-0.671 5.24,3.649 5.349,1.74c0.11,-1.908 -3.129,-4.77 -3.017,-5.649c0.113,-0.88 -2.401,-0.171 -2.401,-0.171l2.149,-3.75l4.595,-5.017l-5.372,1.36l-1.134,-3.48l-3.671,1.077l-1.742,5.676l-2.511,4.337l-0.448,-5.935l2.512,-3.515l-1.099,-4.119Z" style="fill:#33653a;"/><clipPath id="_clip9"><path d="M56.98,36.322l0.777,-6.569l-6.087,5.826l-1.977,2.253l1.184,-6.695l-3.375,-1.688l-3.739,3.255l0.052,5.426l-3.02,1.909l-3.208,-5.224c0,0 -0.07,-2.31 -0.839,-0.301c-0.768,2.009 -1.672,7.835 -1.672,7.835l-0.089,2.836l-3.226,-5.046c0,0 -0.975,0.243 -0.789,1.277c0.186,1.034 0.379,8.282 0.379,8.282l-1.8,1.29l-2.149,0.782l-4.337,3.422c0,0 0.849,2.703 2.663,2.715c1.814,0.012 6.974,1.619 6.974,1.619c0,0 1.802,1.324 4.046,0.963c2.245,-0.36 6.665,-1.767 6.665,-1.767c0,0 2.712,-0.904 4.319,-2.41c1.607,-1.507 0.717,-3.791 2.97,-2.8c2.254,0.992 5.492,4.561 5.492,4.561c0,0 0.758,1.008 3.129,-0.779c2.372,-1.786 3.175,-2.69 3.175,-2.69l0.589,-1.177c0,0 -0.958,1.013 0.683,0.341c1.641,-0.671 5.24,3.649 5.349,1.74c0.11,-1.908 -3.129,-4.77 -3.017,-5.649c0.113,-0.88 -2.401,-0.171 -2.401,-0.171l2.149,-3.75l4.595,-5.017l-5.372,1.36l-1.134,-3.48l-3.671,1.077l-1.742,5.676l-2.511,4.337l-0.448,-5.935l2.512,-3.515l-1.099,-4.119Z"/></clipPath><g clip-path="url(#_clip9)"><path d="M31.122,39.024l4.327,15.019c-3.04,-0.207 -5.307,0.493 -6.793,2.112l-5.792,-0.862l1.745,5.338l8.093,-0.402c0,0 2.556,-6.392 2.415,-4.602c-0.142,1.79 -0.613,5.406 1.631,7.314c2.245,1.909 4.542,0.75 4.047,-0.429c-0.496,-1.178 0,-4.046 0,-4.046l0,-1.953l1.86,-3.023l2.186,4.529l0,2.47l1.803,-4.948l-0.375,-2.43l-0.109,-4.101c0,0 -1.911,-5.72 -0.672,-4.383c1.24,1.338 8.107,7.439 8.107,7.439l0.429,4.922l2.956,4.647l0,-7.935l2.505,-3.114l5.588,1.909l4.959,6.629l1.011,-1.719l-1.924,-6.116l-3.564,-10.354l-4.955,8.901l-1.581,-0.482l-2.039,1.019l-1.768,-0.884l-4.142,-8.3l-0.23,4.162l-1.953,-3.07l-2.142,-1.071l2.142,4.622l-6.108,-4.544l-0.103,1.933l-0.87,4.753l-1.011,2.399l-1.928,0.964l-0.806,1.716l0.094,2.687l-1.407,-5.254l-1.718,-7.041l-1.26,-3.306l2.978,-7.974l2.268,15.051l1.779,-10.392l1.011,-4.419l3.794,-4.666l1.94,3.076l-2.699,9.443l7.372,-7.732l2.049,-2.231l2.718,-1.808l-3.112,12.238l0.551,4.322l2.561,1.28l0,-2.411l4.046,-6.796l2.761,1.757l-3.764,10.783l0.577,0.176l19.861,-7.954l-17.918,29.988l-44.628,-1.964l-1.398,-12.489l14.605,-18.393Z" style="fill:#8fdc5e;"/></g><path d="M117.687,54.356l2.327,-12.397l-11.043,9.822l-6.821,-6.933l1.3,8.666l-5.521,-10.207l-2.166,6.817l-6.032,-8.084l-2.845,11.437l-3.086,-9.507l-2.435,7.421l-9.31,-4.825l5.657,10.376l3.653,6.961c0,0 6.341,-1.878 7.954,-3.004c1.613,-1.126 2.271,-1.061 4.428,-0.66c2.157,0.401 6.031,1.364 9.703,1.845c3.672,0.482 9.628,2.354 9.628,2.354l5.645,-0.428c0,0 -2.677,1.926 0,0c2.677,-1.926 4.553,-3.424 4.553,-3.424l6.12,-2.311l-6.466,-0.428l-5.243,-3.491Z" style="fill:#33653a;"/><clipPath id="_clip10"><path d="M117.687,54.356l2.327,-12.397l-11.043,9.822l-6.821,-6.933l1.3,8.666l-5.521,-10.207l-2.166,6.817l-6.032,-8.084l-2.845,11.437l-3.086,-9.507l-2.435,7.421l-9.31,-4.825l5.657,10.376l3.653,6.961c0,0 6.341,-1.878 7.954,-3.004c1.613,-1.126 2.271,-1.061 4.428,-0.66c2.157,0.401 6.031,1.364 9.703,1.845c3.672,0.482 9.628,2.354 9.628,2.354l5.645,-0.428c0,0 -2.677,1.926 0,0c2.677,-1.926 4.553,-3.424 4.553,-3.424l6.12,-2.311l-6.466,-0.428l-5.243,-3.491Z"/></clipPath><g clip-path="url(#_clip10)"><path d="M70.322,45.907l7.731,6.735l3.312,2.92c0,0 0.12,-6.863 0,-6.863c-0.121,0 2.368,-6.543 2.368,-6.543l0.506,12.32l2.647,1.06l0,-7.414l2.966,-8.277l2.555,13.573l4.07,-3.564l-2.53,-7.385l3.982,-0.221l2.541,10.269l2.98,3.045l-3.214,-9.555l1.579,-2.339l4.116,8.66l3.04,2.823l-3.417,-8.725l14.46,-5.461l-6.56,14.989l8.555,-1.724l16.218,3.906l-9.31,8.661l-11.489,0.168l-7.179,-8.835c0,0 0.665,0.149 -3.526,0.366c-4.19,0.218 -11.54,0.188 -11.54,0.188l-0.977,1.728l-8.343,5.19l-13.427,-0.9l-2.114,-18.795Z" style="fill:#8fdc5e;"/></g><path d="M38.52,74.515l-1.314,6.538l-1.789,-5.901l-2.415,3.402l-1.693,-4.383l-4.46,-1.265l2.675,-3.262l0.255,-13.092l3.769,12.033l2.424,-11.087l1.728,6.617l3.66,-5.156l0.331,6.595l-0.375,4.647l4.36,-1.445l-4.32,4.828l4.374,6.345l-4.996,-1.467l-0.739,1.725l-1.475,-5.672" style="fill:#33653a;"/><clipPath id="_clip11"><path d="M38.52,74.515l-1.314,6.538l-1.789,-5.901l-2.415,3.402l-1.693,-4.383l-4.46,-1.265l2.675,-3.262l0.255,-13.092l3.769,12.033l2.424,-11.087l1.728,6.617l3.66,-5.156l0.331,6.595l-0.375,4.647l4.36,-1.445l-4.32,4.828l4.374,6.345l-4.996,-1.467l-0.739,1.725l-1.475,-5.672"/></clipPath><g clip-path="url(#_clip11)"><path d="M29.779,56.552l1.716,12.399l-0.858,2.21l2.068,2.456l0.966,-4.788l-1.31,-7.098l2.891,-5.154l0.847,-0.518l-0.702,15.655l2.408,-7.762l0.909,-5.437l2.536,0l-2.185,12.401l3.523,-1.131l2.575,-5.411l2.152,1.693l-1.734,3.068l0.239,14.208l-5.327,-2.553l-1.896,3.509l-1.776,-1.901l-0.61,-2.23l-5.376,-1.138l-4.77,-6.292l2.738,-12.75l0.976,-3.436" style="fill:#8fdc5e;"/></g></g></g></g></svg>