<?xml version="1.0" encoding="UTF-8" standalone="no"?><!DOCTYPE svg PUBLIC "-//W3C//DTD SVG 1.1//EN" "http://www.w3.org/Graphics/SVG/1.1/DTD/svg11.dtd"><svg width="100%" height="100%" viewBox="0 0 216 205" version="1.1" xmlns="http://www.w3.org/2000/svg" xmlns:xlink="http://www.w3.org/1999/xlink" xml:space="preserve" xmlns:serif="http://www.serif.com/" style="fill-rule:evenodd;clip-rule:evenodd;stroke-linejoin:round;stroke-miterlimit:1.41421;"><g id="Dirt_Block19"><g><g><path d="M215.029,54.073l0,96.598l-107.331,53.665l0,-96.598l107.331,-53.665Z" style="fill:#b09255;"/><clipPath id="_clip1"><path d="M215.029,54.073l0,96.598l-107.331,53.665l0,-96.598l107.331,-53.665Z"/></clipPath><g clip-path="url(#_clip1)"><path d="M113.226,235.227l-7.471,-8.393l0.629,-15.381l4.861,-8.364l7.639,3.248l3.734,6.804l0.66,10.713l-10.052,11.373" style="fill:#e1c080;"/><path d="M136.766,204.943l6.48,-6.063l-3.056,-12.564l-8.623,-2.464l-7.623,-1.443l-2.976,3.95l-3.5,-1.488l-5.379,1.085l-1.633,4.32l5.65,4.448l4.241,3.091l7.816,4.703l8.603,2.425Z" style="fill:#e1c080;"/><path d="M173.753,211.248l7.621,-4.416l4.723,-10.592l-3.045,-9.558l-19.233,-2.964l-6.432,7.697l-1.006,7.709l6.329,7.428l11.043,4.696Z" style="fill:#e1c080;"/><path d="M195.529,174.787l8.069,-10.664l-1.707,-5.942l-8.575,-19.294c0,0 -7.897,5.94 -10.382,6.016c-2.486,0.077 -7.683,4.452 -7.683,4.452l3.152,9.269l8.599,6.112l8.527,10.051Z" style="fill:#e1c080;"/><path d="M147.426,179.46l10.639,-1.857l10.285,-7.606l-2.017,-7.625l-4.768,-5.692l-7.679,1.95l-4.985,5.388l-3.648,6.589l2.173,8.853" style="fill:#e1c080;"/><path d="M206.239,206.974l-9.12,-6.382l-10.414,5.505l-4.461,14.856l14.945,3.037l6.387,-5.87l2.663,-11.146" style="fill:#e1c080;"/><path d="M118.592,149.162l-7.47,-8.393l0.629,-15.381l4.861,-8.364l7.639,3.248l3.734,6.804l0.66,10.713l-10.053,11.373" style="fill:#e1c080;"/><path d="M131.011,167.694l-9.713,-5.467l1.145,-6.211l5.192,-3.009l4.056,1.726l4.47,4.429l-0.084,5.597l-5.066,2.935Z" style="fill:#816b40;"/><path d="M161.294,144.099l-5.042,5.431l-10.806,-0.849l-2.237,-4.698l-1.605,-8.156l10.343,-11.541l3.071,5.211l5.435,0.955l2.991,10.126l-2.15,3.521" style="fill:#816b40;"/><path d="M147.114,121.079l6.48,-6.062l-3.057,-12.565l-8.623,-2.464l-7.622,-1.443l-2.977,3.951l-3.5,-1.489l-5.378,1.086l-1.634,4.319l5.651,4.448l4.24,3.091l7.816,4.704l8.604,2.424Z" style="fill:#e1c080;"/><path d="M175.852,132.694l7.62,-4.416l4.724,-10.593l-3.045,-9.558l-19.233,-2.963l-6.432,7.697l-1.006,7.708l6.329,7.428l11.043,4.697Z" style="fill:#e1c080;"/><path d="M203.536,98.55l8.069,-10.665l-1.706,-5.941l-8.575,-19.295c0,0 -7.897,5.94 -10.383,6.017c-2.486,0.076 -7.683,4.452 -7.683,4.452l3.152,9.269l8.6,6.112l8.526,10.051Z" style="fill:#e1c080;"/><path d="M156.539,102.641l10.639,-1.857l10.285,-7.605l-2.016,-7.626l-4.769,-5.692l-7.679,1.951l-4.985,5.388l-3.648,6.588l2.173,8.853" style="fill:#816b40;"/><path d="M211.605,120.909l-9.119,-6.382l-10.414,5.505l-4.462,14.856l14.946,3.037l6.387,-5.87l2.662,-11.146" style="fill:#816b40;"/><path d="M129.068,172.549l-9.713,-5.467l1.146,-6.212l5.191,-3.008l4.057,1.725l4.47,4.429l-0.085,5.597l-5.066,2.936Zm30.284,-23.595l-5.042,5.43l-10.806,-0.849l-2.238,-4.698l-1.605,-8.155l10.344,-11.542l3.07,5.212l5.436,0.955l2.99,10.126l-2.149,3.521Zm50.311,-23.19l-2.663,11.146l-6.387,5.869l-14.945,-3.036l4.461,-14.856l10.414,-5.505l9.12,6.382Zm-55.066,-18.268l10.639,-1.857l10.285,-7.606l-2.017,-7.625l-4.768,-5.692l-7.68,1.95l-4.984,5.388l-3.648,6.589l2.173,8.853Z" style="fill:#0a0500;fill-opacity:0.3;"/><path d="M133.824,209.649l6.48,-6.063l-3.057,-12.564l-8.623,-2.464l-7.622,-1.443l-2.977,3.95l-3.5,-1.488l-5.378,1.086l-1.634,4.319l5.651,4.448l4.24,3.091l7.816,4.703l8.604,2.425Zm10.66,-25.483l10.639,-1.857l10.284,-7.606l-2.016,-7.625l-4.769,-5.692l-7.679,1.95l-4.985,5.388l-3.648,6.589l2.174,8.853Zm48.102,-4.673l8.069,-10.664l-1.707,-5.942l-8.574,-19.294c0,0 -7.897,5.94 -10.383,6.016c-2.486,0.077 -7.683,4.452 -7.683,4.452l3.152,9.269l8.6,6.112l8.526,10.051Zm-76.936,-25.625l-7.471,-8.393l0.629,-15.381l4.861,-8.364l7.639,3.248l3.734,6.804l0.66,10.713l-10.052,11.373Zm57.259,-16.468l7.621,-4.416l4.724,-10.593l-3.045,-9.558l-19.234,-2.963l-6.432,7.697l-1.006,7.708l6.329,7.428l11.043,4.697Zm-28.738,-11.615l6.48,-6.062l-3.057,-12.565l-8.623,-2.464l-7.622,-1.443l-2.977,3.951l-3.5,-1.489l-5.378,1.086l-1.634,4.319l5.651,4.448l4.24,3.091l7.816,4.704l8.604,2.424Zm56.423,-22.529l8.069,-10.665l-1.707,-5.941l-8.575,-19.295c0,0 -7.897,5.94 -10.383,6.017c-2.485,0.076 -7.683,4.452 -7.683,4.452l3.152,9.269l8.6,6.112l8.527,10.051Z" style="fill:#9b712c;fill-opacity:0.5;"/></g></g><path d="M0.367,54.073l107.331,53.665l0,96.598l-107.331,-53.665l0,-96.598" style="fill:#685632;"/><clipPath id="_clip2"><path d="M0.367,54.073l107.331,53.665l0,96.598l-107.331,-53.665l0,-96.598"/></clipPath><g clip-path="url(#_clip2)"><path d="M5.859,226.049l-7.471,-8.946l0.629,-16.393l4.861,-8.916l7.639,3.463l3.734,7.252l0.661,11.418l-10.053,12.122" style="fill:#816b40;"/><path d="M48.561,220.653l-5.042,5.788l-10.806,-0.905l-2.238,-5.007l-1.605,-8.693l10.344,-12.302l3.07,5.555l5.436,1.018l2.99,10.793l-2.149,3.753" style="fill:#816b40;"/><path d="M29.4,193.77l6.479,-6.461l-3.056,-13.393l-8.623,-2.626l-7.623,-1.538l-2.976,4.211l-3.5,-1.587l-5.379,1.157l-1.633,4.604l5.651,4.741l4.24,3.295l7.816,5.013l8.604,2.584Z" style="fill:#816b40;"/><path d="M66.386,200.491l7.621,-4.707l4.724,-11.29l-3.046,-10.188l-19.233,-3.158l-6.432,8.204l-1.006,8.216l6.329,7.917l11.043,5.006Z" style="fill:#b09255;"/><path d="M88.394,169.275l8.069,-11.367l-1.706,-6.333l-8.575,-20.565c0,0 -7.897,6.331 -10.383,6.413c-2.486,0.081 -7.683,4.745 -7.683,4.745l3.152,9.88l8.6,6.514l8.526,10.713Z" style="fill:#816b40;"/><path d="M40.059,166.608l10.639,-1.979l10.285,-8.106l-2.017,-8.128l-4.768,-6.067l-7.679,2.079l-4.985,5.743l-3.648,7.023l2.173,9.435" style="fill:#816b40;"/><path d="M106.058,183.853l-9.093,-6.349l-10.433,5.55l-4.516,14.885l14.93,2.979l6.408,-5.899l2.704,-11.166" style="fill:#816b40;"/><path d="M11.226,134.315l-7.471,-8.946l0.629,-16.393l4.861,-8.916l7.639,3.462l3.734,7.253l0.66,11.418l-10.052,12.122" style="fill:#b09255;"/><path d="M23.644,154.068l-9.713,-5.827l1.145,-6.621l5.192,-3.206l4.056,1.839l4.471,4.721l-0.085,5.965l-5.066,3.129Z" style="fill:#b09255;"/><path d="M47.376,133.062l-5.042,5.788l-10.806,-0.905l-2.237,-5.007l-1.605,-8.693l10.343,-12.301l3.071,5.554l5.435,1.018l2.991,10.793l-2.15,3.753" style="fill:#816b40;"/><path d="M17.074,96.456l9.014,-1.578l5.175,-12.725l-5.559,-7.096l-5.363,-5.63l-4.853,1.742l-1.957,-3.307l-5.07,-2.136l-3.979,2.836l1.911,7.124l1.585,5.13l3.529,8.589l5.567,7.051Z" style="fill:#816b40;"/><path d="M57.788,115.024l7.62,-4.707l4.724,-11.29l-3.045,-10.188l-19.234,-3.158l-6.431,8.204l-1.006,8.216l6.329,7.917l11.043,5.006Z" style="fill:#b09255;"/><path d="M93.529,69.894l8.068,-11.367l-1.706,-6.333l-8.575,-20.565c0,0 -7.897,6.331 -10.383,6.413c-2.485,0.081 -7.683,4.745 -7.683,4.745l3.152,9.88l8.6,6.514l8.527,10.713Z" style="fill:#816b40;"/><path d="M45.426,74.874l10.639,-1.979l10.285,-8.106l-2.017,-8.128l-4.768,-6.067l-7.68,2.079l-4.984,5.743l-3.648,7.023l2.173,9.435" style="fill:#816b40;"/><path d="M96.965,107.674l-9.12,-6.802l-10.414,5.868l-4.461,15.834l14.945,3.237l6.387,-6.256l2.663,-11.881" style="fill:#816b40;"/><path d="M14.551,246.804l-9.713,-5.827l1.145,-6.621l5.192,-3.206l4.056,1.839l4.47,4.72l-0.084,5.966l-5.066,3.129Zm30.283,-25.149l-5.042,5.788l-10.806,-0.905l-2.237,-5.008l-1.606,-8.692l10.344,-12.302l3.071,5.555l5.435,1.018l2.991,10.793l-2.15,3.753Zm-42.702,5.396l-7.47,-8.946l0.628,-16.393l4.862,-8.916l7.638,3.462l3.735,7.253l0.66,11.418l-10.053,12.122Zm100.199,-42.196l-2.703,11.165l-6.408,5.9l-14.931,-2.979l4.517,-14.885l10.432,-5.551l9.093,6.35Zm-39.671,16.637l7.62,-4.706l4.724,-11.291l-3.045,-10.187l-19.234,-3.158l-6.431,8.203l-1.006,8.217l6.329,7.917l11.043,5.005Zm-36.987,-6.72l6.48,-6.462l-3.057,-13.392l-8.623,-2.626l-7.622,-1.538l-2.977,4.21l-3.5,-1.586l-5.378,1.157l-1.634,4.604l5.651,4.741l4.24,3.294l7.816,5.014l8.604,2.584Zm58.995,-24.495l8.069,-11.367l-1.707,-6.333l-8.575,-20.565c0,0 -7.897,6.331 -10.382,6.413c-2.486,0.081 -7.683,4.745 -7.683,4.745l3.151,9.879l8.6,6.515l8.527,10.713Zm-48.335,-2.667l10.639,-1.979l10.284,-8.106l-2.016,-8.128l-4.769,-6.067l-7.679,2.079l-4.985,5.743l-3.647,7.023l2.173,9.435Zm-16.415,-12.54l-9.714,-5.827l1.146,-6.621l5.191,-3.206l4.057,1.838l4.47,4.721l-0.085,5.966l-5.065,3.129Zm23.732,-21.006l-5.042,5.788l-10.806,-0.905l-2.238,-5.008l-1.605,-8.692l10.343,-12.302l3.071,5.555l5.436,1.018l2.99,10.793l-2.149,3.753Zm-36.151,1.253l-7.471,-8.946l0.629,-16.394l4.861,-8.915l7.639,3.462l3.734,7.252l0.66,11.419l-10.052,12.122Zm85.739,-26.641l-2.662,11.88l-6.388,6.256l-14.945,-3.236l4.461,-15.835l10.415,-5.867l9.119,6.802Zm-39.177,7.349l7.62,-4.706l4.724,-11.29l-3.045,-10.188l-19.233,-3.158l-6.432,8.204l-1.006,8.216l6.329,7.917l11.043,5.005Zm-40.714,-18.567l9.014,-1.578l5.175,-12.725l-5.559,-7.096l-5.362,-5.631l-4.853,1.743l-1.958,-3.307l-5.07,-2.136l-3.978,2.835l1.911,7.125l1.584,5.13l3.529,8.589l5.567,7.051Zm28.352,-21.582l10.639,-1.979l10.285,-8.106l-2.017,-8.128l-4.768,-6.067l-7.679,2.079l-4.985,5.743l-3.648,7.022l2.173,9.436Zm48.103,-4.98l8.069,-11.367l-1.707,-6.333l-8.575,-20.565c0,0 -7.896,6.331 -10.382,6.413c-2.486,0.081 -7.683,4.745 -7.683,4.745l3.152,9.879l8.599,6.515l8.527,10.713Z" style="fill:#0a0500;fill-opacity:0.3;"/></g></g><path d="M215.029,54.073l-107.331,53.665l-107.331,-53.665l107.331,-53.666l107.331,53.666Z" style="fill:#c7a664;"/><clipPath id="_clip3"><path d="M215.029,54.073l-107.331,53.665l-107.331,-53.665l107.331,-53.666l107.331,53.666Z"/></clipPath><g clip-path="url(#_clip3)"><path d="M-11.661,86.962c0,0 25.752,-7.571 44.227,-16.79c10.716,-5.347 10.435,-12.284 12.301,-17.627c6.806,-19.49 22.136,-14.676 56.519,-21.33c14.621,-2.83 30.458,-10.551 38.511,-14.708c16.652,-8.596 35.774,-8.946 35.774,-8.946l-153.846,-33.017l-67.966,77.833l34.48,34.585Z" style="fill:#b09255;"/><path d="M182.83,37.973c-1.62,2.35 -41.14,4.125 -39.943,23.447c0.693,11.186 -13.275,6.448 -46.624,17.141c-3.267,1.047 -10.018,7.712 -20.765,13.078c-26.493,13.227 -64.206,12.397 -64.206,12.397l153.225,35.789l73.087,-90.564l-54.774,-11.288Z" style="fill:#b09255;"/></g></g></svg>