<?xml version="1.0" encoding="UTF-8" standalone="no"?><!DOCTYPE svg PUBLIC "-//W3C//DTD SVG 1.1//EN" "http://www.w3.org/Graphics/SVG/1.1/DTD/svg11.dtd"><svg width="100%" height="100%" viewBox="0 0 216 211" version="1.1" xmlns="http://www.w3.org/2000/svg" xmlns:xlink="http://www.w3.org/1999/xlink" xml:space="preserve" xmlns:serif="http://www.serif.com/" style="fill-rule:evenodd;clip-rule:evenodd;stroke-linejoin:round;stroke-miterlimit:1.41421;"><g id="Dirt_Block12"><g id="Dirt_Block13"><g><path d="M215.226,60.184l0,96.598l-107.331,53.665l0,-96.598l107.331,-53.665Z" style="fill:#b09255;"/><path d="M204.493,108.483l6.94,8.836l-1.574,15.313l-5.366,8.05l-7.425,-3.712l-3.308,-7.021l0,-10.733l10.733,-10.733" style="fill:#e1c080;"/><path d="M193.238,89.222l9.358,6.054l-1.525,6.129l-5.367,2.683l-3.942,-1.971l-4.19,-4.696l0.429,-5.581l5.237,-2.618Z" style="fill:#e1c080;"/><path d="M161.56,110.909l5.367,-5.11l10.733,1.512l1.945,4.827l1.1,8.239l-11.034,10.883l-2.744,-5.39l-5.367,-1.288l-2.362,-10.291l2.362,-3.382" style="fill:#e1c080;"/><path d="M179.134,137.262l-6.841,5.652l2.278,12.729l8.456,2.989l7.519,1.909l3.214,-3.759l3.402,1.701l5.434,-0.753l1.897,-4.211l-5.367,-4.787l-4.042,-3.346l-7.512,-5.175l-8.438,-2.949Z" style="fill:#e1c080;"/><path d="M142.605,128.693l-7.877,3.939l-5.367,10.282l2.451,9.727l19.015,4.141l6.893,-7.287l1.478,-7.632l-5.86,-7.803l-10.733,-5.367Z" style="fill:#e1c080;"/><path d="M118.628,163.745l-8.71,10.148l1.338,6.036l7.372,19.785c0,0 8.247,-5.443 10.733,-5.366c2.486,0.076 7.942,-3.971 7.942,-3.971l-2.575,-9.446l-8.208,-6.629l-7.892,-10.557Z" style="fill:#e1c080;"/><path d="M166.927,162.041l-10.733,1.199l-10.733,6.958l1.543,7.735l4.41,5.975l7.784,-1.474l5.307,-5.072l4.046,-6.352l-1.624,-8.969" style="fill:#e1c080;"/><path d="M109.918,130.961l8.71,6.93l10.733,-4.853l5.367,-14.554l-14.731,-3.95l-6.736,5.465l-3.343,10.962" style="fill:#e1c080;"/><path d="M122.652,166.645l-8.372,9.702l1.286,5.769l7.086,18.915c0,0 7.928,-5.203 10.317,-5.13c2.39,0.073 7.635,-3.797 7.635,-3.797l-2.476,-9.029l-7.89,-6.338l-7.586,-10.092Zm46.427,-1.629l-10.317,1.146l-10.317,6.652l1.484,7.395l4.238,5.711l7.483,-1.409l5.101,-4.848l3.889,-6.072l-1.561,-8.575Zm11.733,-23.688l-6.575,5.403l2.19,12.169l8.127,2.857l7.228,1.826l3.089,-3.594l3.27,1.626l5.224,-0.72l1.823,-4.026l-5.158,-4.576l-3.886,-3.198l-7.22,-4.948l-8.112,-2.819Zm-35.112,-8.191l-7.572,3.765l-5.159,9.829l2.357,9.299l18.277,3.959l6.626,-6.966l1.421,-7.296l-5.633,-7.46l-10.317,-5.13Zm59.488,-19.321l6.671,8.447l-1.512,14.639l-5.159,7.696l-7.136,-3.549l-3.181,-6.712l0,-10.261l10.317,-10.26Zm-90.908,21.488l3.214,-10.479l6.475,-5.224l14.159,3.776l-5.159,13.913l-10.317,4.64l-8.372,-6.626Zm49.64,-19.168l5.159,-4.885l10.317,1.445l1.869,4.614l1.058,7.876l-10.606,10.404l-2.638,-5.152l-5.159,-1.231l-2.27,-9.838l2.27,-3.233Zm30.449,-20.733l8.996,5.787l-1.466,5.86l-5.159,2.565l-3.789,-1.885l-4.027,-4.489l0.412,-5.335l5.033,-2.503Z" style="fill:#9b712c;fill-opacity:0.5;"/></g><path d="M0.563,60.184l107.332,53.665l0,96.598l-107.332,-53.665l0,-96.598" style="fill:#816b40;"/><clipPath id="_clip1"><path d="M0.563,60.184l107.332,53.665l0,96.598l-107.332,-53.665l0,-96.598"/></clipPath><g clip-path="url(#_clip1)"><path d="M90.425,180.246l11.734,-4.08l-0.235,-16.22l-6.989,-11.582l-11.749,-1.319l-5.987,4.725l-1.504,10.627l14.73,17.849" style="fill:#816b40;"/><path d="M86.103,196.594l17.273,-3.671l-1.819,-6.447l-9.043,-3.99l-7.195,0.973l-8.011,3.61l-0.029,5.632l8.824,3.893Z" style="fill:#816b40;"/><path d="M49.162,172.266l4.777,5.837l11.198,0.057l2.667,-4.497l2.28,-7.998l-9.77,-12.374l-3.563,4.939l-5.674,0.498l-3.859,9.848l1.944,3.69" style="fill:#816b40;"/><path d="M74.251,146.399l-6.21,-6.587l4.115,-12.273l9.073,-1.736l7.964,-0.801l2.763,4.187l3.721,-1.191l5.457,1.532l1.352,4.444l-6.164,3.963l-4.606,2.727l-8.414,4.037l-9.051,1.698Z" style="fill:#816b40;"/><path d="M35.101,157.344l-4.294,-4.586l-1.862,-10.647l2.871,-9.418l12.278,-2.445l3.22,7.815l-0.16,7.685l-4.698,7.216l-7.355,4.38Z" style="fill:#816b40;"/><path d="M16.027,111.416l-7.493,-11.309l2.215,-5.783l10.317,-18.523c0,0 7.679,6.584 10.234,6.868c2.555,0.284 7.574,5.082 7.574,5.082l-3.96,8.979l-9.33,5.376l-9.557,9.31Z" style="fill:#816b40;"/><path d="M61.317,125.458l-10.819,-2.741l-10.011,-8.444l2.663,-7.435l5.35,-5.277l7.762,2.587l4.722,5.79l3.252,6.875l-2.919,8.645" style="fill:#816b40;"/><path d="M4.553,131.373l8.581,-9.593l7.679,8.655l1.217,22.863l-12.833,4.345l-4.296,-9.13l-0.348,-17.14" style="fill:#816b40;"/><path d="M82.113,197.037l17.273,-3.67l-1.819,-6.448l-9.043,-3.989l-7.195,0.973l-8.011,3.609l-0.029,5.633l8.824,3.892Zm4.322,-16.347l-14.73,-17.849l1.504,-10.628l5.987,-4.725l11.749,1.32l6.989,11.581l0.235,16.221l-11.734,4.08Zm-41.263,-7.98l-1.944,-3.691l3.859,-9.847l5.674,-0.498l3.564,-4.94l9.769,12.374l-2.28,7.998l-2.667,4.498l-11.198,-0.057l-4.777,-5.837Zm-44.609,-40.894l8.582,-9.592l7.678,8.654l1.217,22.864l-12.833,4.344l-4.295,-9.129l-0.349,-17.141Zm30.548,25.971l-4.294,-4.585l-1.862,-10.648l2.871,-9.418l12.278,-2.445l3.22,7.815l-0.16,7.685l-4.698,7.217l-7.355,4.379Zm39.15,-10.944l-6.21,-6.587l4.115,-12.274l9.073,-1.735l7.964,-0.802l2.763,4.188l3.721,-1.192l5.457,1.532l1.352,4.445l-6.164,3.962l-4.606,2.728l-8.414,4.037l-9.051,1.698Zm-12.934,-20.941l-10.819,-2.742l-10.011,-8.443l2.663,-7.436l5.35,-5.277l7.762,2.587l4.722,5.79l3.252,6.875l-2.919,8.646Zm-45.289,-14.043l-7.494,-11.309l2.215,-5.782l10.317,-18.523c0,0 7.679,6.583 10.234,6.867c2.555,0.285 7.574,5.082 7.574,5.082l-3.96,8.98l-9.329,5.375l-9.557,9.31Z" style="fill:#0a0500;fill-opacity:0.3;"/></g><path d="M215.521,60.263l-107.331,-53.665l-107.332,53.665l107.332,53.666l107.331,-53.666Z" style="fill:#c7a664;"/><clipPath id="_clip2"><path d="M215.521,60.263l-107.331,-53.665l-107.332,53.665l107.332,53.666l107.331,-53.666Z"/></clipPath><g clip-path="url(#_clip2)"><path d="M-11.17,27.374c0,0 25.753,7.572 44.228,16.79c10.716,5.347 10.435,12.284 12.301,17.627c6.806,19.49 22.136,14.676 56.519,21.33c14.621,2.83 30.458,10.551 38.511,14.708c16.652,8.596 35.774,8.946 35.774,8.946l-153.846,33.017l-67.966,-77.833l34.479,-34.585Z" style="fill:#b09255;"/><path d="M183.322,76.363c-1.621,-2.349 -41.14,-4.125 -39.943,-23.447c0.692,-11.186 -13.275,-6.448 -46.624,-17.141c-3.267,-1.047 -10.018,-7.712 -20.765,-13.077c-26.493,-13.227 -64.206,-12.397 -64.206,-12.397l153.225,-35.79l73.087,90.565l-54.774,11.287Z" style="fill:#b09255;"/></g><g><g><path d="M23.163,62.236l-8.162,-4.081l0.518,-8.196l9.044,-3.123l7.159,-4.979l10.548,-2.267l10.545,10.639l-4.089,8.688l-9.463,6.002l-16.1,-2.683Z" style="fill:#b09255;"/><path d="M71.463,34.131l-14.665,1.99l5.999,20.445l12.296,-0.565l9.122,2.542l2.035,-6.384l10.081,-7.005l-3.402,-9.357l-5.367,-4.48l-10.733,0.13l-5.366,2.684Z" style="fill:#b09255;"/><path d="M96.331,25.652l-14.135,-0.172l-9.298,2.591l-3.036,-1.518l-3.766,-1.883l2.822,-3.956l2.545,-4.094l6.615,-0.486l4.118,-2.059l5.366,-0.138l12.169,0.718l0.532,2.273l-0.175,6.846l-3.757,1.878Z" style="fill:#b09255;"/><path d="M127.78,9.928l-10.989,-2.843l-6.619,4.549l-5.099,5.692l3.955,4.218l10.734,3.126l10.733,3.661l7.91,3.117l-0.735,-4.999l3.558,-1.779l1.789,-4.472l-1.789,-2.863l-13.448,-7.407" style="fill:#b09255;"/><path d="M118.682,39.228l8.543,3.192l8.636,7.001l-7.698,7.955l-6.216,1.686l-4.098,5.503l-7.41,-1.624l-1.411,-9.773l-2.455,-7.886l6.251,-5.96l5.858,-0.094Z" style="fill:#b09255;"/><path d="M168.061,32.72l-13.211,1.239l-10.168,8.538l3.293,7.013l5.009,5.187l15.077,-0.511l8.504,4.252l3.968,-8.749l-0.46,-5.596l-3.623,-4.834l-8.389,-6.539Z" style="fill:#b09255;"/><path d="M148.899,69.134l-15.077,0.132l-11.775,7.927l6.219,5.395l6.229,3.114l16.5,-1.517l6.333,2.201l1.975,-6.355l12.428,-4.186l2.784,-6.112l-2.786,-2.98l-5.914,-0.711l-3.121,1.561l-13.795,1.531" style="fill:#b09255;"/><path d="M202.768,50.15c-1.868,0.206 -16.057,6.73 -16.057,6.73l-6.708,10.037l10.733,4.05l6.868,-5.059l9.232,-2.99c0,0 -2.201,-12.973 -4.068,-12.768Z" style="fill:#b09255;"/><path d="M96.502,66.015l8.114,8.245l0.779,11.122l-7.715,2.943l-12.602,-0.499l-7.552,-6.957l-4.781,-8.342l8.836,-3.207l8.82,-2.168l6.101,-1.137" style="fill:#b09255;"/><path d="M54.11,64.167l4.034,4.826l3.813,11.412l-9.176,4.588l-8.151,-4.808l-5.367,-6.651l10.733,-3.248l0,-2.182l1.741,-2.314l2.373,-1.623Z" style="fill:#b09255;"/><path d="M123.276,88.886l4.634,4.875l0,5.89l-9.702,6.295l-10.623,3.867l-3.426,-6.437l0,-10.178l19.117,-4.312Z" style="fill:#b09255;"/></g><g><g opacity="0.5"><path d="M18.789,66.463l-8.162,-4.081l1.352,-7.224l8.21,-4.094l7.158,-4.979l10.548,-2.268l10.546,10.639l-4.09,8.689l-9.462,6.002l-16.1,-2.684Z" style="fill:#9b712c;"/><path d="M67.088,38.358l-14.664,1.99l5.999,20.445l12.295,-0.564l9.123,2.541l2.034,-6.383l10.081,-7.006l-3.402,-9.357l-5.366,-4.479l-10.733,0.13l-5.367,2.683Z" style="fill:#9b712c;"/><path d="M91.956,29.88l-14.135,-0.172l-9.298,2.59l-3.035,-1.517l-3.039,-1.54l6.394,-3.197l-2.747,-1.374l7.608,-4.309l4.117,-2.058l5.367,-0.139l12.168,0.718l0.532,2.274l-0.174,6.845l-3.758,1.879Z" style="fill:#9b712c;"/><path d="M123.406,14.155l-10.99,-2.843l-6.618,4.55l-5.1,5.691l3.956,4.218l10.733,3.126l10.733,3.661l7.91,3.118l4.671,-3.022l-0.684,-5.708l-4.64,-2.677l1.788,-6.261l-11.759,-3.853" style="fill:#9b712c;"/><path d="M114.307,43.456l8.543,3.191l8.637,7.002l-3.32,3.715l-5.923,1.795l-8.769,9.633l-7.41,-1.623l-1.411,-9.774l-2.455,-7.885l6.25,-5.961l5.858,-0.093Z" style="fill:#9b712c;"/><path d="M163.686,36.947l-13.21,1.239l-10.169,8.538l3.294,7.014l5.008,5.187l15.077,-0.511l8.505,4.252l3.967,-8.75l-0.459,-5.596l-3.624,-4.834l-8.389,-6.539Z" style="fill:#9b712c;"/><path d="M144.525,73.361l-15.078,0.132l-11.775,7.927l6.22,5.395l6.228,3.115l16.501,-1.517l6.332,2.2l4.593,-4.118l1.769,-5.968l9.05,-3.08l1.776,-3.487l-2.786,-2.979l-5.915,-0.711l-3.12,1.56l-13.795,1.531" style="fill:#9b712c;"/><path d="M197.775,56.024c-1.867,0.205 -15.438,5.084 -15.438,5.084l-6.709,10.036l10.734,4.051l6.867,-5.059l9.232,-2.991c0,0 -2.818,-11.327 -4.686,-11.121Z" style="fill:#9b712c;"/><path d="M92.127,70.242l8.114,8.245l0.779,11.123l-7.714,2.942l-12.603,-0.498l-7.551,-6.958l-4.782,-8.342l8.836,-3.206l8.821,-2.168l6.1,-1.138" style="fill:#9b712c;"/><path d="M49.735,68.395l4.035,4.826l3.812,11.412l-5.545,1.287l-8.541,-4.27l-4.233,-7.483l4.233,-1.739l2.016,-0.503l4.214,-1.769l0.009,-1.761Z" style="fill:#9b712c;"/><path d="M118.902,93.113l4.634,4.875l0,5.89l-9.973,5.43l-8.784,2.916l-4.995,-4.621l0,-10.177l19.118,-4.313Z" style="fill:#9b712c;"/></g></g></g><g><path d="M89.793,102.987l3.284,3.605l0.063,-17.268l-3.347,13.663Zm3.405,-13.744l3.608,11.009l0.809,6.222l-4.538,0.118l0.121,-17.349Zm-31.302,-3.666l2.066,6.538l2.815,-5.901l3.8,3.402l2.664,-4.383l7.016,-1.265l-4.209,-3.262l-0.401,-13.092l-5.93,12.032l-3.813,-11.087l-2.719,6.618l-5.758,-5.156l-0.521,6.595l0.59,4.647l-6.859,-1.445l6.797,4.828l-6.883,6.345l7.861,-1.467l1.164,1.725l2.32,-5.672Zm54.292,-18.433l5.998,16.111l-3.886,2.813l-5.17,-0.226l-5.88,2.94l-3.929,-2.587l-2.833,-1.705l-4.256,-12.303l3.198,2.718l3.891,3.764l-0.755,-7.017l3.214,6.135l1.997,4.629l1.087,-9.457l-1.61,-4.175l4.98,8.591l0.72,4.822l1.624,-0.837l1.61,-14.216Zm24.939,16.53l3.285,3.605l0.062,-17.268l-3.347,13.663Zm3.405,-13.744l3.608,11.009l0.809,6.222l-4.537,0.118l0.12,-17.349Zm-1.826,-16.239c-0.063,0.088 -0.309,0.08 -0.943,-0.179c-1.641,-0.671 -5.24,3.648 -5.349,1.739c-0.11,-1.908 3.129,-4.769 3.017,-5.649c-0.113,-0.88 2.401,-0.171 2.401,-0.171l-2.149,-3.749l-4.595,-5.018l5.372,1.36l1.134,-3.479l3.671,1.077l1.742,5.676l2.511,4.336l0.448,-5.934l-2.512,-3.516l1.099,-4.118l-0.777,-6.57l6.087,5.827l1.977,2.252l-1.184,-6.695l3.375,-1.687l3.739,3.254l-0.052,5.427l3.02,1.908l3.208,-5.223c0,0 0.07,-2.311 0.839,-0.302c0.768,2.009 1.672,7.836 1.672,7.836l0.089,2.835l3.226,-5.045c0,0 0.975,0.242 0.789,1.276c-0.186,1.034 -0.379,8.282 -0.379,8.282l1.8,1.29l2.149,0.782l4.337,3.422c0,0 -0.849,2.703 -2.663,2.715c-0.876,0.006 -2.531,0.384 -4.01,0.773l0.214,10.964l2.675,3.262l-4.46,1.265l-1.693,4.384l-2.415,-3.402l-1.789,5.901l-1.314,-6.539l-1.475,5.673l-0.739,-1.726l-4.996,1.468l4.374,-6.345l-4.32,-4.828l4.36,1.444l-0.375,-4.646l0.312,-6.216c-1.164,-0.339 -2.034,-0.616 -2.034,-0.616c0,0 -2.712,-0.904 -4.319,-2.411c-1.608,-1.507 -0.717,-3.79 -2.97,-2.799c-2.254,0.991 -5.492,4.56 -5.492,4.56c0,0 -0.758,1.008 -3.129,-0.778c-2.372,-1.787 -3.175,-2.691 -3.175,-2.691l-0.329,-0.656c0.101,-0.139 -0.26,-0.521 -0.26,-0.521l0.26,0.521Zm-99.643,-6.367l3.107,9.476l2.63,-3.318l-0.45,7.036l2.88,-8.08l1.209,5.203l2.875,-6.17l0,3.704c0,0 1.254,2.57 2.126,1.62c3.613,-3.938 1.755,1.093 1.958,1.381c0.87,1.237 0,1.714 0,1.714l0.668,1.608c0,0 -1.569,-0.935 -0.668,0.917c0.901,1.853 2.607,3.63 1.421,3.626c-1.185,-0.005 -2.695,-1.475 -4.521,1.364c-0.276,0.429 -0.984,0.988 -0.984,0.988c0,0 -2.106,0.944 -3.122,1.061c-1.017,0.118 -0.687,0.871 -2.278,0.157c-1.59,-0.713 -2.424,-1.891 -2.767,-0.881c-0.344,1.01 -1.607,1.396 -1.607,1.396l-3.299,0.372l-0.499,-0.884c0,0 -2.291,-0.488 -4.413,0.493c-2.121,0.98 -3.357,2.832 -3.357,0.559c0,-2.273 -0.33,-2.193 -0.33,-2.193c0,0 0.002,-1.84 -1.212,-1.97c-1.214,-0.131 -3.731,-0.219 -3.731,-0.219l2.112,-1.595c0,0 -3.606,-2.223 -4.879,-2.543c-1.274,-0.32 -3.288,0.438 -3.288,0.438l1.797,1.815c0,0 -1.15,-1.041 -1.797,-0.797c-0.647,0.245 -3.118,-0.345 -3.118,-0.345l-0.966,-1.463c0,0 0.3,-0.389 1.251,-1.483c0.95,-1.095 1.52,-1.684 1.52,-1.684l0.095,-0.926l-1.421,-3.782l-0.417,-3.433l5.079,6.777l0.014,-5.415l2.828,4.169l0.665,-6.567l2.637,7.83c0,0 0.991,1.74 1.268,-0.351c0.277,-2.091 1.252,-6.681 1.252,-6.681l2.337,-3.266l-0.773,11.194l3.164,-1.401l0.92,-11.26l1.436,13.834l1.351,-3.164l1.297,1.991l0,-10.852Zm131.959,11.307c-1.234,0.34 -2.191,0.638 -2.191,0.638c0,0 -1.081,0.795 -2.611,0.985l1.765,8.074l3.037,-9.697Zm-78.46,-7.107l6.821,-6.933l-1.3,8.666l5.521,-10.207l2.166,6.817l6.032,-8.084l2.845,11.437l3.086,-9.506l2.435,7.421l9.31,-4.825l-5.657,10.375l-3.653,6.962c0,0 -6.341,-1.879 -7.954,-3.005c-1.613,-1.126 -2.271,-1.061 -4.428,-0.66c-2.157,0.401 -6.031,1.364 -9.703,1.845c-3.672,0.482 -9.628,2.354 -9.628,2.354l-5.645,-0.428c-2.677,-1.926 -4.554,-3.424 -4.554,-3.424l-6.119,-2.311l6.466,-0.427l5.243,-3.492l-2.327,-12.397l11.043,9.822Zm71.271,12.335l0.947,-3.627c-1.148,-0.185 -2.861,-0.642 -4.263,-1.045l3.316,4.672Zm-159.021,-17.705l3.608,11.009l0.809,6.222l-4.537,0.118l0.12,-17.349Zm-3.405,13.744l3.285,3.605l0.062,-17.268l-3.347,13.663Zm44.824,-25.833l2.397,1.445l-3.522,-13.596l5.644,9.508l2.932,-4.832l1.644,5.573l3.317,-3.872l2.242,-1.748l2.543,10.943l2.683,-1.343l-0.206,8.401l1.981,4.53c0,0 -2.464,1.013 -3.112,1.868c-0.648,0.854 1.151,3.262 -1.558,2.221c-2.709,-1.042 -3.738,-0.682 -5.063,-2.391c-1.324,-1.71 -2.564,-3.245 -2.564,-3.245l-3.787,0.339c0,0 -1.409,-3.654 -1.883,0.169c-0.474,3.824 -3.505,-3.317 -3.505,-3.317l-3.21,-6.687l3.027,-3.966Zm58.743,-30.923l4.083,14.058l3.457,-4.922l-0.593,10.437l3.786,-11.987l1.589,7.719l3.778,-9.153l0,5.495c0,0 1.647,3.813 2.793,2.403c4.748,-5.841 2.307,1.622 2.573,2.049c1.144,1.835 0,2.543 0,2.543l0.879,2.385c0,0 -2.063,-1.386 -0.879,1.361c1.185,2.748 3.426,5.385 1.868,5.378c-1.558,-0.007 -3.542,-2.188 -5.941,2.024c-0.363,0.637 -1.293,1.466 -1.293,1.466c0,0 -2.767,1.401 -4.103,1.575c-1.336,0.174 -0.903,1.291 -2.993,0.233c-2.09,-1.058 -3.186,-2.807 -3.637,-1.308c-0.452,1.499 -2.112,2.071 -2.112,2.071l-4.335,0.552l-0.656,-1.312c0,0 -3.01,-0.723 -5.798,0.731c-2.788,1.455 -4.412,4.203 -4.412,0.83c0,-3.372 -0.434,-3.253 -0.434,-3.253c0,0 0.003,-2.729 -1.592,-2.923c-1.596,-0.193 -4.903,-0.324 -4.903,-0.324l2.776,-2.367c0,0 -4.739,-3.297 -6.413,-3.772c-1.674,-0.475 -4.321,0.649 -4.321,0.649l2.363,2.692c0,0 -1.512,-1.543 -2.363,-1.181c-0.85,0.363 -4.097,-0.512 -4.097,-0.512l-1.269,-2.171c0,0 0.394,-0.576 1.643,-2.2c1.249,-1.624 1.999,-2.498 1.999,-2.498l0.125,-1.374l-1.869,-5.61l-0.548,-5.093l6.675,10.054l0.018,-8.034l3.717,6.185l0.874,-9.742l3.466,11.616c0,0 1.301,2.581 1.666,-0.521c0.364,-3.101 1.645,-9.91 1.645,-9.91l3.07,-4.847l-1.015,16.607l4.158,-2.078l1.209,-16.705l1.887,20.523l1.775,-4.693l1.704,2.953l0,-16.099Z" style="fill:#0a0500;fill-opacity:0.3;"/><g id="GrassBlank02"><path d="M66.547,86.088l2.066,6.538l2.815,-5.901l3.799,3.402l2.665,-4.383l7.016,-1.265l-4.209,-3.262l-0.401,-13.092l-5.93,12.033l-3.813,-11.087l-2.719,6.617l-5.758,-5.156l-0.521,6.595l0.59,4.647l-6.859,-1.445l6.797,4.828l-6.883,6.345l7.861,-1.467l1.163,1.725l2.321,-5.672" style="fill:#33653a;"/><clipPath id="_clip3"><path d="M66.547,86.088l2.066,6.538l2.815,-5.901l3.799,3.402l2.665,-4.383l7.016,-1.265l-4.209,-3.262l-0.401,-13.092l-5.93,12.033l-3.813,-11.087l-2.719,6.617l-5.758,-5.156l-0.521,6.595l0.59,4.647l-6.859,-1.445l6.797,4.828l-6.883,6.345l7.861,-1.467l1.163,1.725l2.321,-5.672"/></clipPath><g clip-path="url(#_clip3)"><path d="M80.298,68.125l-2.7,12.399l1.351,2.21l-3.254,2.456l-1.52,-4.788l2.061,-7.098l-4.548,-5.154l-1.334,-0.518l1.105,15.655l-3.788,-7.762l-1.43,-5.437l-3.99,0l3.438,12.401l-5.543,-1.131l-4.051,-5.411l-3.386,1.693l2.728,3.068l-0.375,14.208l8.38,-2.553l2.984,3.509l2.794,-1.901l0.959,-2.23l8.458,-1.138l7.505,-6.292l-4.308,-12.75l-1.536,-3.436" style="fill:#8fdc5e;"/></g><path d="M54.882,34.576l2.397,1.445l-3.522,-13.596l5.644,9.508l2.931,-4.831l1.645,5.572l3.316,-3.872l2.243,-1.748l2.543,10.943l2.683,-1.343l-0.206,8.401l1.981,4.53c0,0 -2.464,1.013 -3.112,1.868c-0.648,0.854 1.15,3.262 -1.559,2.221c-2.709,-1.042 -3.738,-0.682 -5.062,-2.391c-1.324,-1.71 -2.564,-3.245 -2.564,-3.245l-3.788,0.34c0,0 -1.408,-3.655 -1.882,0.169c-0.474,3.823 -3.505,-3.318 -3.505,-3.318l-3.21,-6.687l3.027,-3.966Z" style="fill:#33653a;"/><clipPath id="_clip4"><path d="M54.882,34.576l2.397,1.445l-3.522,-13.596l5.644,9.508l2.931,-4.831l1.645,5.572l3.316,-3.872l2.243,-1.748l2.543,10.943l2.683,-1.343l-0.206,8.401l1.981,4.53c0,0 -2.464,1.013 -3.112,1.868c-0.648,0.854 1.15,3.262 -1.559,2.221c-2.709,-1.042 -3.738,-0.682 -5.062,-2.391c-1.324,-1.71 -2.564,-3.245 -2.564,-3.245l-3.788,0.34c0,0 -1.408,-3.655 -1.882,0.169c-0.474,3.823 -3.505,-3.318 -3.505,-3.318l-3.21,-6.687l3.027,-3.966Z"/></clipPath><g clip-path="url(#_clip4)"><path d="M75.595,34.377l-2.316,8.553l-4.591,-1.612l4.449,-6.72l-3.344,-8.383l-3.401,12.198l-3.185,0.129l0.768,-5.993l-2.003,-7.892l-0.821,13.299l-1.759,-6.524l-1.411,-3.662l-3.319,-6.103l3.909,16.099l-1.181,-0.208l-0.887,0.691l-3.573,1.652l-3.53,3.148c0,0 5.698,1.884 10.227,2.11c3.358,0.168 5.755,-1.38 6.378,-1.062c0.677,0.346 0.748,6.146 2.884,8.955c2.478,3.259 7.01,3.564 7.01,3.564l2.01,-9.805l-2.314,-12.434" style="fill:#8fdc5e;"/></g><g><path d="M97.849,89.754l3.608,11.01l0.809,6.221l-4.538,0.118l0.121,-17.349Z" style="fill:#8fdc5e;"/><path d="M94.443,103.498l3.285,3.605l0.062,-17.268l-3.347,13.663Z" style="fill:#33653a;"/></g><g><path d="M13.463,46.665l3.608,11.009l0.809,6.222l-4.537,0.118l0.12,-17.349Z" style="fill:#8fdc5e;"/><path d="M10.058,60.409l3.285,3.605l0.062,-17.268l-3.347,13.663Z" style="fill:#33653a;"/></g><g><path d="M149.183,70.441l3.608,11.009l0.809,6.222l-4.537,0.118l0.12,-17.349Z" style="fill:#8fdc5e;"/><path d="M145.778,84.185l3.285,3.605l0.062,-17.268l-3.347,13.663Z" style="fill:#33653a;"/></g><path d="M120.839,67.655l5.997,16.111l-3.885,2.813l-5.17,-0.226l-5.88,2.94l-3.93,-2.587l-2.832,-1.705l-4.256,-12.303l3.198,2.719l3.89,3.763l-0.754,-7.017l3.214,6.135l1.997,4.629l1.087,-9.457l-1.611,-4.175l4.981,8.591l0.72,4.822l1.624,-0.837l1.61,-14.216Z" style="fill:#33653a;"/><clipPath id="_clip5"><path d="M120.839,67.655l5.997,16.111l-3.885,2.813l-5.17,-0.226l-5.88,2.94l-3.93,-2.587l-2.832,-1.705l-4.256,-12.303l3.198,2.719l3.89,3.763l-0.754,-7.017l3.214,6.135l1.997,4.629l1.087,-9.457l-1.611,-4.175l4.981,8.591l0.72,4.822l1.624,-0.837l1.61,-14.216Z"/></clipPath><g clip-path="url(#_clip5)"><path d="M120.764,65.389l2.215,16.719l-4.385,-0.555l-1.709,-12.781l-5.427,0.3l3.383,9.99l0.412,4.351l-2.825,-0.486l-1.57,-8.128l-3.97,-2.472l3.42,8.452l-0.142,3.279l-1.44,-2.056c-0.256,-1.668 -0.941,-3.371 -2.055,-5.11l-6.623,-5.602l4.865,7.207l0.695,3.384l1.588,2.887l3.669,1.835l1.563,1.75c0,0 2.531,2.881 3.825,2.998c1.293,0.118 7.056,-0.058 8.408,-0.588c1.352,-0.529 6.611,-3.888 6.611,-3.888l-3.184,-11.778l-7.324,-9.708Z" style="fill:#8fdc5e;"/></g><path d="M113.625,3.653l4.083,14.058l3.456,-4.922l-0.592,10.437l3.786,-11.987l1.589,7.719l3.778,-9.153l0,5.495c0,0 1.647,3.814 2.793,2.403c4.748,-5.841 2.307,1.622 2.573,2.049c1.144,1.835 0,2.543 0,2.543l0.878,2.385c0,0 -2.062,-1.386 -0.878,1.362c1.185,2.747 3.425,5.385 1.868,5.377c-1.558,-0.007 -3.542,-2.188 -5.941,2.024c-0.363,0.637 -1.293,1.466 -1.293,1.466c0,0 -2.768,1.401 -4.104,1.575c-1.336,0.174 -0.902,1.291 -2.992,0.233c-2.091,-1.058 -3.186,-2.807 -3.637,-1.308c-0.452,1.499 -2.112,2.071 -2.112,2.071l-4.335,0.552l-0.656,-1.312c0,0 -3.01,-0.723 -5.798,0.731c-2.788,1.455 -4.412,4.203 -4.412,0.831c0,-3.373 -0.434,-3.254 -0.434,-3.254c0,0 0.003,-2.729 -1.593,-2.923c-1.595,-0.193 -4.902,-0.324 -4.902,-0.324l2.775,-2.367c0,0 -4.739,-3.297 -6.412,-3.772c-1.674,-0.475 -4.321,0.649 -4.321,0.649l2.363,2.692c0,0 -1.512,-1.543 -2.363,-1.181c-0.85,0.363 -4.098,-0.511 -4.098,-0.511l-1.268,-2.172c0,0 0.394,-0.576 1.643,-2.2c1.249,-1.624 1.999,-2.498 1.999,-2.498l0.124,-1.374l-1.868,-5.61l-0.548,-5.093l6.675,10.055l0.018,-8.035l3.717,6.185l0.874,-9.742l3.465,11.616c0,0 1.302,2.581 1.666,-0.521c0.365,-3.101 1.646,-9.91 1.646,-9.91l3.07,-4.847l-1.015,16.607l4.158,-2.078l1.209,-16.705l1.886,20.523l1.776,-4.693l1.704,2.953l0,-16.099Z" style="fill:#33653a;"/><clipPath id="_clip6"><path d="M113.625,3.653l4.083,14.058l3.456,-4.922l-0.592,10.437l3.786,-11.987l1.589,7.719l3.778,-9.153l0,5.495c0,0 1.647,3.814 2.793,2.403c4.748,-5.841 2.307,1.622 2.573,2.049c1.144,1.835 0,2.543 0,2.543l0.878,2.385c0,0 -2.062,-1.386 -0.878,1.362c1.185,2.747 3.425,5.385 1.868,5.377c-1.558,-0.007 -3.542,-2.188 -5.941,2.024c-0.363,0.637 -1.293,1.466 -1.293,1.466c0,0 -2.768,1.401 -4.104,1.575c-1.336,0.174 -0.902,1.291 -2.992,0.233c-2.091,-1.058 -3.186,-2.807 -3.637,-1.308c-0.452,1.499 -2.112,2.071 -2.112,2.071l-4.335,0.552l-0.656,-1.312c0,0 -3.01,-0.723 -5.798,0.731c-2.788,1.455 -4.412,4.203 -4.412,0.831c0,-3.373 -0.434,-3.254 -0.434,-3.254c0,0 0.003,-2.729 -1.593,-2.923c-1.595,-0.193 -4.902,-0.324 -4.902,-0.324l2.775,-2.367c0,0 -4.739,-3.297 -6.412,-3.772c-1.674,-0.475 -4.321,0.649 -4.321,0.649l2.363,2.692c0,0 -1.512,-1.543 -2.363,-1.181c-0.85,0.363 -4.098,-0.511 -4.098,-0.511l-1.268,-2.172c0,0 0.394,-0.576 1.643,-2.2c1.249,-1.624 1.999,-2.498 1.999,-2.498l0.124,-1.374l-1.868,-5.61l-0.548,-5.093l6.675,10.055l0.018,-8.035l3.717,6.185l0.874,-9.742l3.465,11.616c0,0 1.302,2.581 1.666,-0.521c0.365,-3.101 1.646,-9.91 1.646,-9.91l3.07,-4.847l-1.015,16.607l4.158,-2.078l1.209,-16.705l1.886,20.523l1.776,-4.693l1.704,2.953l0,-16.099Z"/></clipPath><g clip-path="url(#_clip6)"><path d="M137.534,13.164l-4.115,6.541l-3.694,0.128l1.775,-10.359l-1.775,-0.704l-3.55,15.44l-1.817,-3.865l2.41,-9.401l-3.579,-1.34l-1.025,17.455l-2.358,0.336l0.423,-15.074l-2.541,-2.847l-0.039,12.291l-8.21,-17.727l2.813,23.149l12.106,13.045l14.931,-7.647l-1.755,-19.421Z" style="fill:#8fdc5e;"/><path d="M104.748,7.419l-2.494,4.668l-1.41,8.69l-4.473,0.135l1.154,-3.07l1.34,-9.144l-3.325,-2.558l-1.645,14.48l-1.736,-2.33l0.506,-9.524l-1.765,0.883l-0.604,10.431l-2.046,-1.534l-0.907,-11.935l-2.802,2.726l1.662,9.464l-2.794,1.943l-8.513,6.477c0,0 11.061,5.503 12.559,6.279c1.498,0.777 8.852,7.427 8.852,7.427l13.172,2.365l4.146,-5.69l-8.618,-2.807l-1.282,-1.981l1.669,-1.527l4.516,-0.891l-3.435,-4.56l5.479,3.814l0.98,3.795l0.691,-4.54l-3.377,-3.325l-1.989,-3.709l1.669,-13.109l0.463,-8.859l-2.694,0.786l-1.249,11.919l0.474,7.6l-1.595,0.762l-0.579,-13.551Z" style="fill:#8fdc5e;"/></g><path d="M47.714,47.835l3.107,9.476l2.63,-3.318l-0.451,7.036l2.881,-8.08l1.209,5.203l2.875,-6.17l0,3.704c0,0 1.254,2.571 2.126,1.62c3.613,-3.938 1.755,1.093 1.958,1.381c0.87,1.237 0,1.714 0,1.714l0.668,1.608c0,0 -1.569,-0.935 -0.668,0.918c0.901,1.852 2.606,3.63 1.421,3.625c-1.185,-0.005 -2.695,-1.475 -4.521,1.364c-0.276,0.429 -0.984,0.988 -0.984,0.988c0,0 -2.106,0.944 -3.122,1.061c-1.017,0.118 -0.687,0.871 -2.278,0.158c-1.59,-0.714 -2.424,-1.892 -2.767,-0.882c-0.344,1.01 -1.607,1.396 -1.607,1.396l-3.299,0.372l-0.499,-0.884c0,0 -2.291,-0.488 -4.413,0.493c-2.121,0.98 -3.357,2.832 -3.357,0.559c0,-2.273 -0.33,-2.193 -0.33,-2.193c0,0 0.002,-1.839 -1.212,-1.97c-1.214,-0.13 -3.731,-0.218 -3.731,-0.218l2.112,-1.596c0,0 -3.606,-2.223 -4.88,-2.543c-1.273,-0.32 -3.287,0.438 -3.287,0.438l1.797,1.815c0,0 -1.15,-1.041 -1.797,-0.797c-0.647,0.245 -3.119,-0.345 -3.119,-0.345l-0.965,-1.463c0,0 0.3,-0.389 1.251,-1.483c0.95,-1.095 1.52,-1.684 1.52,-1.684l0.095,-0.926l-1.422,-3.782l-0.417,-3.433l5.08,6.778l0.014,-5.416l2.828,4.169l0.665,-6.567l2.637,7.83c0,0 0.991,1.74 1.268,-0.351c0.277,-2.091 1.252,-6.68 1.252,-6.68l2.337,-3.267l-0.773,11.194l3.164,-1.401l0.92,-11.26l1.436,13.834l1.351,-3.164l1.297,1.991l0,-10.852Z" style="fill:#33653a;"/><clipPath id="_clip7"><path d="M47.714,47.835l3.107,9.476l2.63,-3.318l-0.451,7.036l2.881,-8.08l1.209,5.203l2.875,-6.17l0,3.704c0,0 1.254,2.571 2.126,1.62c3.613,-3.938 1.755,1.093 1.958,1.381c0.87,1.237 0,1.714 0,1.714l0.668,1.608c0,0 -1.569,-0.935 -0.668,0.918c0.901,1.852 2.606,3.63 1.421,3.625c-1.185,-0.005 -2.695,-1.475 -4.521,1.364c-0.276,0.429 -0.984,0.988 -0.984,0.988c0,0 -2.106,0.944 -3.122,1.061c-1.017,0.118 -0.687,0.871 -2.278,0.158c-1.59,-0.714 -2.424,-1.892 -2.767,-0.882c-0.344,1.01 -1.607,1.396 -1.607,1.396l-3.299,0.372l-0.499,-0.884c0,0 -2.291,-0.488 -4.413,0.493c-2.121,0.98 -3.357,2.832 -3.357,0.559c0,-2.273 -0.33,-2.193 -0.33,-2.193c0,0 0.002,-1.839 -1.212,-1.97c-1.214,-0.13 -3.731,-0.218 -3.731,-0.218l2.112,-1.596c0,0 -3.606,-2.223 -4.88,-2.543c-1.273,-0.32 -3.287,0.438 -3.287,0.438l1.797,1.815c0,0 -1.15,-1.041 -1.797,-0.797c-0.647,0.245 -3.119,-0.345 -3.119,-0.345l-0.965,-1.463c0,0 0.3,-0.389 1.251,-1.483c0.95,-1.095 1.52,-1.684 1.52,-1.684l0.095,-0.926l-1.422,-3.782l-0.417,-3.433l5.08,6.778l0.014,-5.416l2.828,4.169l0.665,-6.567l2.637,7.83c0,0 0.991,1.74 1.268,-0.351c0.277,-2.091 1.252,-6.68 1.252,-6.68l2.337,-3.267l-0.773,11.194l3.164,-1.401l0.92,-11.26l1.436,13.834l1.351,-3.164l1.297,1.991l0,-10.852Z"/></clipPath><g clip-path="url(#_clip7)"><path d="M65.908,54.246l-3.132,4.409l-2.811,0.087l1.351,-6.984l-1.351,-0.474l-2.701,10.408l-1.383,-2.606l1.834,-6.336l-2.724,-0.904l-0.779,11.767l-1.795,0.226l0.322,-10.161l-1.934,-1.92l-0.029,8.286l-6.248,-11.95l2.141,15.605l9.212,8.793l11.362,-5.155l-1.335,-13.091Z" style="fill:#8fdc5e;"/><path d="M40.959,50.373l-1.898,3.147l-1.073,5.858l-3.404,0.091l0.878,-2.069l1.02,-6.165l-2.531,-1.724l-1.251,9.761l-1.321,-1.571l0.384,-6.419l-1.343,0.595l-0.459,7.031l-1.557,-1.034l-0.691,-8.045l-2.132,1.838l1.266,6.379l-2.127,1.31l-6.478,4.365c0,0 8.417,3.71 9.557,4.233c1.14,0.524 6.736,5.007 6.736,5.007l10.024,1.593l3.155,-3.835l-6.558,-1.892l-0.976,-1.336l1.27,-1.029l3.437,-0.6l-2.614,-3.074l4.169,2.571l0.745,2.558l0.527,-3.06l-2.57,-2.242l-1.514,-2.5l1.27,-8.836l0.353,-5.972l-2.05,0.53l-0.951,8.034l0.361,5.123l-1.214,0.514l-0.44,-9.135Z" style="fill:#8fdc5e;"/></g><path d="M153.204,36.577l-0.777,-6.569l6.087,5.826l1.977,2.252l-1.185,-6.695l3.375,-1.687l3.739,3.254l-0.051,5.427l3.02,1.908l3.208,-5.223c0,0 0.07,-2.31 0.838,-0.301c0.769,2.009 1.673,7.835 1.673,7.835l0.089,2.835l3.226,-5.045c0,0 0.975,0.242 0.789,1.276c-0.186,1.034 -0.379,8.282 -0.379,8.282l1.8,1.29l2.149,0.782l4.337,3.423c0,0 -0.849,2.702 -2.663,2.714c-1.814,0.012 -6.974,1.62 -6.974,1.62c0,0 -1.802,1.323 -4.047,0.963c-2.244,-0.361 -6.664,-1.767 -6.664,-1.767c0,0 -2.712,-0.904 -4.319,-2.411c-1.608,-1.507 -0.717,-3.79 -2.97,-2.799c-2.254,0.991 -5.492,4.56 -5.492,4.56c0,0 -0.758,1.008 -3.13,-0.778c-2.371,-1.786 -3.175,-2.691 -3.175,-2.691l-0.588,-1.177c0,0 0.958,1.013 -0.683,0.342c-1.642,-0.671 -5.24,3.648 -5.349,1.74c-0.11,-1.909 3.129,-4.77 3.016,-5.65c-0.112,-0.88 2.402,-0.171 2.402,-0.171l-2.149,-3.749l-4.595,-5.018l5.372,1.36l1.134,-3.479l3.671,1.077l1.742,5.676l2.511,4.337l0.447,-5.935l-2.511,-3.516l1.099,-4.118Z" style="fill:#33653a;"/><clipPath id="_clip8"><path d="M153.204,36.577l-0.777,-6.569l6.087,5.826l1.977,2.252l-1.185,-6.695l3.375,-1.687l3.739,3.254l-0.051,5.427l3.02,1.908l3.208,-5.223c0,0 0.07,-2.31 0.838,-0.301c0.769,2.009 1.673,7.835 1.673,7.835l0.089,2.835l3.226,-5.045c0,0 0.975,0.242 0.789,1.276c-0.186,1.034 -0.379,8.282 -0.379,8.282l1.8,1.29l2.149,0.782l4.337,3.423c0,0 -0.849,2.702 -2.663,2.714c-1.814,0.012 -6.974,1.62 -6.974,1.62c0,0 -1.802,1.323 -4.047,0.963c-2.244,-0.361 -6.664,-1.767 -6.664,-1.767c0,0 -2.712,-0.904 -4.319,-2.411c-1.608,-1.507 -0.717,-3.79 -2.97,-2.799c-2.254,0.991 -5.492,4.56 -5.492,4.56c0,0 -0.758,1.008 -3.13,-0.778c-2.371,-1.786 -3.175,-2.691 -3.175,-2.691l-0.588,-1.177c0,0 0.958,1.013 -0.683,0.342c-1.642,-0.671 -5.24,3.648 -5.349,1.74c-0.11,-1.909 3.129,-4.77 3.016,-5.65c-0.112,-0.88 2.402,-0.171 2.402,-0.171l-2.149,-3.749l-4.595,-5.018l5.372,1.36l1.134,-3.479l3.671,1.077l1.742,5.676l2.511,4.337l0.447,-5.935l-2.511,-3.516l1.099,-4.118Z"/></clipPath><g clip-path="url(#_clip8)"><path d="M179.061,39.279l-4.327,15.019c3.041,-0.208 5.308,0.492 6.794,2.111l5.792,-0.862l-1.746,5.338l-8.092,-0.401c0,0 -2.556,-6.392 -2.415,-4.602c0.142,1.789 0.613,5.405 -1.632,7.314c-2.244,1.908 -4.542,0.749 -4.046,-0.429c0.496,-1.178 0,-4.046 0,-4.046l0,-1.954l-1.86,-3.023l-2.186,4.53l0,2.47l-1.803,-4.948l0.375,-2.431l0.109,-4.101c0,0 1.911,-5.72 0.672,-4.382c-1.24,1.338 -8.107,7.438 -8.107,7.438l-0.429,4.922l-2.956,4.648l0,-7.936l-2.505,-3.114l-5.588,1.909l-4.959,6.63l-1.011,-1.72l1.924,-6.115l3.563,-10.354l4.956,8.901l1.58,-0.483l2.04,1.02l1.768,-0.884l4.142,-8.3l0.23,4.161l1.952,-3.07l2.143,-1.071l-2.143,4.622l6.108,-4.543l0.104,1.933l0.87,4.753l1.011,2.399l1.928,0.964l0.806,1.715l-0.094,2.687l1.406,-5.254l1.719,-7.041l1.26,-3.305l-2.979,-7.975l-2.267,15.052l-1.779,-10.392l-1.011,-4.42l-3.794,-4.666l-1.94,3.077l2.699,9.442l-7.372,-7.732l-2.049,-2.23l-2.718,-1.808l3.112,12.237l-0.552,4.322l-2.56,1.281l0,-2.411l-4.047,-6.796l-2.76,1.757l3.764,10.783l-0.577,0.176l-19.861,-7.954l17.918,29.987l44.627,-1.964l1.399,-12.489l-14.606,-18.392Z" style="fill:#8fdc5e;"/></g><path d="M92.497,54.61l-2.327,-12.397l11.042,9.822l6.821,-6.933l-1.299,8.666l5.521,-10.207l2.166,6.817l6.032,-8.084l2.845,11.437l3.086,-9.506l2.435,7.421l9.31,-4.825l-5.657,10.375l-3.653,6.962c0,0 -6.341,-1.878 -7.954,-3.004c-1.613,-1.126 -2.272,-1.062 -4.428,-0.661c-2.157,0.401 -6.031,1.364 -9.703,1.846c-3.672,0.481 -9.628,2.353 -9.628,2.353l-5.645,-0.428c0,0 2.677,1.926 0,0c-2.677,-1.925 -4.554,-3.424 -4.554,-3.424l-6.119,-2.311l6.466,-0.427l5.243,-3.492Z" style="fill:#33653a;"/><clipPath id="_clip9"><path d="M92.497,54.61l-2.327,-12.397l11.042,9.822l6.821,-6.933l-1.299,8.666l5.521,-10.207l2.166,6.817l6.032,-8.084l2.845,11.437l3.086,-9.506l2.435,7.421l9.31,-4.825l-5.657,10.375l-3.653,6.962c0,0 -6.341,-1.878 -7.954,-3.004c-1.613,-1.126 -2.272,-1.062 -4.428,-0.661c-2.157,0.401 -6.031,1.364 -9.703,1.846c-3.672,0.481 -9.628,2.353 -9.628,2.353l-5.645,-0.428c0,0 2.677,1.926 0,0c-2.677,-1.925 -4.554,-3.424 -4.554,-3.424l-6.119,-2.311l6.466,-0.427l5.243,-3.492Z"/></clipPath><g clip-path="url(#_clip9)"><path d="M139.862,46.161l-7.731,6.736l-3.312,2.92c0,0 -0.121,-6.863 0,-6.863c0.121,0 -2.368,-6.544 -2.368,-6.544l-0.506,12.321l-2.647,1.06l0,-7.415l-2.966,-8.277l-2.555,13.573l-4.07,-3.563l2.53,-7.386l-3.982,-0.221l-2.542,10.269l-2.979,3.046l3.214,-9.556l-1.58,-2.339l-4.115,8.661l-3.041,2.822l3.418,-8.724l-14.46,-5.462l6.56,14.99l-8.555,-1.724l-16.218,3.906l9.309,8.66l11.49,0.169l7.179,-8.835c0,0 -0.665,0.149 3.526,0.366c4.19,0.217 11.54,0.188 11.54,0.188l0.977,1.728l8.343,5.19l13.427,-0.901l2.114,-18.795Z" style="fill:#8fdc5e;"/></g><path d="M171.664,74.769l1.313,6.539l1.79,-5.901l2.415,3.402l1.693,-4.384l4.46,-1.265l-2.676,-3.262l-0.254,-13.091l-3.77,12.032l-2.423,-11.087l-1.728,6.618l-3.66,-5.157l-0.331,6.596l0.375,4.647l-4.36,-1.445l4.32,4.828l-4.375,6.345l4.997,-1.468l0.739,1.726l1.475,-5.673" style="fill:#33653a;"/><clipPath id="_clip10"><path d="M171.664,74.769l1.313,6.539l1.79,-5.901l2.415,3.402l1.693,-4.384l4.46,-1.265l-2.676,-3.262l-0.254,-13.091l-3.77,12.032l-2.423,-11.087l-1.728,6.618l-3.66,-5.157l-0.331,6.596l0.375,4.647l-4.36,-1.445l4.32,4.828l-4.375,6.345l4.997,-1.468l0.739,1.726l1.475,-5.673"/></clipPath><g clip-path="url(#_clip10)"><path d="M180.405,56.807l-1.716,12.399l0.858,2.21l-2.068,2.455l-0.966,-4.788l1.31,-7.098l-2.891,-5.153l-0.848,-0.518l0.703,15.654l-2.408,-7.761l-0.909,-5.437l-2.536,0l2.185,12.4l-3.523,-1.13l-2.575,-5.412l-2.152,1.693l1.734,3.069l-0.239,14.207l5.327,-2.553l1.896,3.509l1.776,-1.9l0.61,-2.23l5.376,-1.138l4.77,-6.293l-2.738,-12.749l-0.976,-3.436" style="fill:#8fdc5e;"/></g></g></g></g></g></svg>