<?xml version="1.0" encoding="UTF-8" standalone="no"?><!DOCTYPE svg PUBLIC "-//W3C//DTD SVG 1.1//EN" "http://www.w3.org/Graphics/SVG/1.1/DTD/svg11.dtd"><svg width="100%" height="100%" viewBox="0 0 216 205" version="1.1" xmlns="http://www.w3.org/2000/svg" xmlns:xlink="http://www.w3.org/1999/xlink" xml:space="preserve" xmlns:serif="http://www.serif.com/" style="fill-rule:evenodd;clip-rule:evenodd;stroke-linejoin:round;stroke-miterlimit:1.41421;"><g id="Dirt_Block08"><path d="M215.583,54.389l-107.332,-53.665l-107.331,53.665l107.331,53.666l107.332,-53.666Z" style="fill:#c7a664;"/><g><g><path d="M215.583,54.389l0,96.599l-107.332,53.665l0,-96.598l107.332,-53.666Z" style="fill:#b09255;"/><clipPath id="_clip1"><path d="M215.583,54.389l0,96.599l-107.332,53.665l0,-96.598l107.332,-53.666Z"/></clipPath><g clip-path="url(#_clip1)"><path d="M113.779,235.544l-7.47,-8.393l0.628,-15.381l4.862,-8.365l7.638,3.249l3.735,6.804l0.66,10.713l-10.053,11.373" style="fill:#e1c080;"/><path d="M137.32,205.259l6.48,-6.062l-3.057,-12.564l-8.623,-2.464l-7.622,-1.443l-2.977,3.95l-3.5,-1.488l-5.378,1.085l-1.634,4.32l5.651,4.448l4.24,3.09l7.816,4.704l8.604,2.424Z" style="fill:#e1c080;"/><path d="M174.307,211.565l7.62,-4.416l4.724,-10.593l-3.045,-9.557l-19.234,-2.964l-6.431,7.697l-1.006,7.709l6.329,7.427l11.043,4.697Z" style="fill:#e1c080;"/><path d="M196.082,175.104l8.069,-10.664l-1.706,-5.942l-8.575,-19.295c0,0 -7.897,5.94 -10.383,6.017c-2.486,0.076 -7.683,4.452 -7.683,4.452l3.152,9.269l8.6,6.112l8.526,10.051Z" style="fill:#e1c080;"/><path d="M147.98,179.776l10.639,-1.857l10.284,-7.605l-2.016,-7.626l-4.769,-5.691l-7.679,1.95l-4.985,5.388l-3.647,6.589l2.173,8.852" style="fill:#e1c080;"/><path d="M206.792,207.291l-9.119,-6.382l-10.414,5.505l-4.462,14.856l14.945,3.036l6.388,-5.869l2.662,-11.146" style="fill:#e1c080;"/><path d="M119.146,149.479l-7.471,-8.393l0.629,-15.381l4.861,-8.365l7.639,3.249l3.734,6.804l0.661,10.713l-10.053,11.373" style="fill:#e1c080;"/><path d="M131.565,168.011l-9.714,-5.467l1.146,-6.211l5.191,-3.009l4.057,1.725l4.47,4.429l-0.085,5.597l-5.065,2.936Z" style="fill:#e1c080;"/><path d="M161.848,144.416l-5.042,5.43l-10.806,-0.848l-2.238,-4.699l-1.605,-8.155l10.344,-11.541l3.07,5.211l5.436,0.955l2.99,10.126l-2.149,3.521" style="fill:#e1c080;"/><path d="M147.667,121.396l6.48,-6.063l-3.057,-12.564l-8.623,-2.464l-7.622,-1.443l-2.977,3.95l-3.5,-1.488l-5.378,1.085l-1.634,4.32l5.651,4.448l4.24,3.091l7.817,4.703l8.603,2.425Z" style="fill:#e1c080;"/><path d="M176.405,133.01l7.621,-4.416l4.724,-10.592l-3.045,-9.558l-19.234,-2.963l-6.431,7.697l-1.006,7.708l6.329,7.428l11.042,4.696Z" style="fill:#e1c080;"/><path d="M204.09,98.867l8.069,-10.665l-1.707,-5.942l-8.575,-19.294c0,0 -7.897,5.94 -10.382,6.016c-2.486,0.077 -7.683,4.453 -7.683,4.453l3.152,9.269l8.599,6.112l8.527,10.051Z" style="fill:#e1c080;"/><path d="M157.093,102.958l10.639,-1.857l10.285,-7.606l-2.017,-7.625l-4.768,-5.692l-7.68,1.95l-4.984,5.389l-3.648,6.588l2.173,8.853" style="fill:#e1c080;"/><path d="M212.159,121.226l-9.12,-6.382l-10.414,5.505l-4.461,14.856l14.945,3.036l6.387,-5.869l2.663,-11.146" style="fill:#e1c080;"/><path d="M124.665,259.347l-9.713,-5.467l1.146,-6.211l5.191,-3.009l4.057,1.725l4.47,4.43l-0.085,5.596l-5.066,2.936Zm30.284,-23.595l-5.042,5.43l-10.806,-0.848l-2.238,-4.699l-1.605,-8.155l10.344,-11.541l3.07,5.211l5.436,0.955l2.99,10.126l-2.149,3.521Zm-42.702,5.063l-7.471,-8.393l0.629,-15.381l4.861,-8.365l7.639,3.249l3.734,6.804l0.66,10.713l-10.052,11.373Zm93.013,-28.253l-2.663,11.146l-6.387,5.869l-14.945,-3.036l4.461,-14.856l10.414,-5.505l9.12,6.382Zm-32.486,4.274l7.621,-4.416l4.723,-10.593l-3.045,-9.558l-19.233,-2.963l-6.432,7.697l-1.006,7.708l6.329,7.428l11.043,4.697Zm-36.987,-6.306l6.48,-6.062l-3.056,-12.564l-8.623,-2.464l-7.623,-1.443l-2.976,3.95l-3.5,-1.488l-5.379,1.085l-1.633,4.32l5.65,4.448l4.241,3.09l7.816,4.704l8.603,2.424Zm10.66,-25.483l10.639,-1.857l10.285,-7.605l-2.017,-7.626l-4.768,-5.691l-7.679,1.95l-4.985,5.388l-3.648,6.589l2.173,8.852Zm48.103,-4.672l8.069,-10.664l-1.707,-5.942l-8.575,-19.295c0,0 -7.897,5.94 -10.382,6.017c-2.486,0.076 -7.683,4.452 -7.683,4.452l3.152,9.269l8.599,6.112l8.527,10.051Zm-64.518,-7.093l-9.713,-5.467l1.145,-6.212l5.192,-3.008l4.056,1.725l4.47,4.429l-0.084,5.597l-5.066,2.936Zm30.283,-23.595l-5.042,5.43l-10.806,-0.849l-2.237,-4.698l-1.605,-8.155l10.343,-11.542l3.071,5.212l5.435,0.955l2.991,10.126l-2.15,3.521Zm-42.702,5.063l-7.47,-8.393l0.628,-15.381l4.862,-8.365l7.639,3.249l3.734,6.804l0.66,10.713l-10.053,11.373Zm93.013,-28.253l-2.662,11.146l-6.387,5.869l-14.946,-3.036l4.462,-14.856l10.414,-5.505l9.119,6.382Zm-35.753,11.784l7.62,-4.416l4.724,-10.592l-3.045,-9.558l-19.233,-2.963l-6.432,7.697l-1.006,7.708l6.329,7.428l11.043,4.696Zm-28.738,-11.615l6.48,-6.062l-3.057,-12.564l-8.623,-2.464l-7.622,-1.443l-2.977,3.95l-3.5,-1.488l-5.378,1.085l-1.634,4.32l5.651,4.448l4.24,3.091l7.816,4.703l8.604,2.424Zm9.425,-18.437l10.639,-1.857l10.285,-7.606l-2.016,-7.625l-4.769,-5.692l-7.679,1.95l-4.985,5.389l-3.648,6.588l2.173,8.853Zm46.997,-4.091l8.069,-10.665l-1.706,-5.942l-8.575,-19.294c0,0 -7.897,5.94 -10.383,6.016c-2.486,0.077 -7.683,4.453 -7.683,4.453l3.152,9.269l8.6,6.111l8.526,10.052Z" style="fill:#9b712c;fill-opacity:0.5;"/></g></g><path d="M0.92,54.389l107.331,53.666l0,96.598l-107.331,-53.665l0,-96.599" style="fill:#685632;"/><clipPath id="_clip2"><path d="M0.92,54.389l107.331,53.666l0,96.598l-107.331,-53.665l0,-96.599"/></clipPath><g clip-path="url(#_clip2)"><path d="M6.412,226.366l-7.47,-8.946l0.629,-16.394l4.861,-8.915l7.639,3.462l3.734,7.252l0.66,11.419l-10.053,12.122" style="fill:#816b40;"/><path d="M49.114,220.97l-5.042,5.788l-10.805,-0.905l-2.238,-5.008l-1.605,-8.692l10.343,-12.302l3.071,5.555l5.435,1.018l2.991,10.793l-2.15,3.753" style="fill:#816b40;"/><path d="M29.953,194.087l6.48,-6.462l-3.057,-13.392l-8.623,-2.626l-7.622,-1.538l-2.977,4.21l-3.5,-1.586l-5.378,1.157l-1.634,4.604l5.651,4.741l4.24,3.294l7.816,5.014l8.604,2.584Z" style="fill:#816b40;"/><path d="M66.94,200.807l7.62,-4.707l4.724,-11.29l-3.045,-10.187l-19.234,-3.158l-6.431,8.203l-1.006,8.217l6.329,7.917l11.043,5.005Z" style="fill:#816b40;"/><path d="M88.948,169.592l8.069,-11.367l-1.707,-6.333l-8.575,-20.566c0,0 -7.897,6.332 -10.382,6.413c-2.486,0.082 -7.683,4.746 -7.683,4.746l3.152,9.879l8.599,6.515l8.527,10.713Z" style="fill:#816b40;"/><path d="M40.613,166.925l10.639,-1.979l10.285,-8.106l-2.017,-8.128l-4.768,-6.067l-7.68,2.079l-4.984,5.743l-3.648,7.022l2.173,9.436" style="fill:#816b40;"/><path d="M106.611,184.17l-9.093,-6.35l-10.432,5.551l-4.516,14.885l14.93,2.979l6.408,-5.9l2.703,-11.165" style="fill:#816b40;"/><path d="M11.779,134.632l-7.471,-8.946l0.629,-16.394l4.861,-8.915l7.639,3.462l3.734,7.252l0.661,11.419l-10.053,12.122" style="fill:#816b40;"/><path d="M24.198,154.385l-9.714,-5.827l1.146,-6.621l5.191,-3.206l4.057,1.838l4.47,4.721l-0.085,5.966l-5.065,3.129Z" style="fill:#816b40;"/><path d="M47.93,133.379l-5.042,5.788l-10.806,-0.905l-2.238,-5.008l-1.605,-8.692l10.344,-12.302l3.07,5.555l5.436,1.018l2.99,10.793l-2.149,3.753" style="fill:#816b40;"/><path d="M17.627,96.773l9.014,-1.578l5.175,-12.725l-5.559,-7.096l-5.362,-5.631l-4.853,1.743l-1.958,-3.307l-5.07,-2.136l-3.978,2.835l1.911,7.125l1.585,5.13l3.528,8.589l5.567,7.051Z" style="fill:#816b40;"/><path d="M58.341,115.34l7.62,-4.706l4.724,-11.29l-3.045,-10.188l-19.233,-3.158l-6.432,8.204l-1.006,8.216l6.329,7.917l11.043,5.005Z" style="fill:#816b40;"/><path d="M94.082,70.211l8.069,-11.367l-1.707,-6.333l-8.574,-20.565c0,0 -7.897,6.331 -10.383,6.412c-2.486,0.082 -7.683,4.746 -7.683,4.746l3.152,9.879l8.599,6.515l8.527,10.713Z" style="fill:#816b40;"/><path d="M45.979,75.191l10.639,-1.979l10.285,-8.106l-2.016,-8.129l-4.769,-6.066l-7.679,2.079l-4.985,5.743l-3.648,7.022l2.173,9.436" style="fill:#816b40;"/><path d="M97.518,107.991l-9.119,-6.802l-10.414,5.867l-4.462,15.835l14.946,3.236l6.387,-6.256l2.662,-11.88" style="fill:#816b40;"/><path d="M15.105,247.12l-9.714,-5.826l1.146,-6.621l5.191,-3.206l4.057,1.838l4.47,4.721l-0.085,5.966l-5.065,3.128Zm30.283,-25.149l-5.042,5.788l-10.806,-0.904l-2.238,-5.008l-1.605,-8.692l10.344,-12.302l3.07,5.554l5.436,1.018l2.99,10.793l-2.149,3.753Zm-42.702,5.397l-7.471,-8.946l0.629,-16.394l4.861,-8.915l7.639,3.462l3.734,7.252l0.66,11.419l-10.052,12.122Zm100.199,-42.196l-2.704,11.165l-6.408,5.899l-14.93,-2.979l4.516,-14.884l10.433,-5.551l9.093,6.35Zm-39.672,16.637l7.621,-4.707l4.723,-11.29l-3.045,-10.187l-19.233,-3.159l-6.432,8.204l-1.006,8.216l6.329,7.918l11.043,5.005Zm-36.987,-6.721l6.48,-6.461l-3.056,-13.392l-8.623,-2.626l-7.623,-1.538l-2.976,4.21l-3.5,-1.586l-5.379,1.157l-1.633,4.604l5.65,4.741l4.241,3.294l7.816,5.014l8.603,2.583Zm58.995,-24.494l8.069,-11.367l-1.707,-6.333l-8.574,-20.566c0,0 -7.897,6.332 -10.383,6.413c-2.486,0.082 -7.683,4.746 -7.683,4.746l3.152,9.879l8.6,6.515l8.526,10.713Zm-48.335,-2.667l10.639,-1.979l10.285,-8.107l-2.017,-8.128l-4.768,-6.066l-7.679,2.078l-4.985,5.744l-3.648,7.022l2.173,9.436Zm-16.415,-12.541l-9.713,-5.826l1.145,-6.621l5.192,-3.207l4.056,1.839l4.47,4.721l-0.084,5.966l-5.066,3.128Zm23.732,-21.006l-5.042,5.789l-10.806,-0.905l-2.237,-5.008l-1.606,-8.692l10.344,-12.302l3.07,5.554l5.436,1.018l2.991,10.794l-2.15,3.752Zm-36.151,1.254l-7.47,-8.946l0.629,-16.394l4.861,-8.916l7.639,3.463l3.734,7.252l0.66,11.419l-10.053,12.122Zm85.74,-26.641l-2.663,11.88l-6.387,6.256l-14.945,-3.237l4.461,-15.834l10.414,-5.867l9.12,6.802Zm-39.178,7.349l7.621,-4.707l4.724,-11.29l-3.045,-10.187l-19.234,-3.159l-6.431,8.204l-1.006,8.217l6.329,7.917l11.042,5.005Zm-40.713,-18.568l9.014,-1.578l5.175,-12.724l-5.559,-7.096l-5.363,-5.631l-4.853,1.743l-1.958,-3.307l-5.069,-2.136l-3.979,2.835l1.911,7.124l1.585,5.131l3.529,8.589l5.567,7.05Zm28.352,-21.581l10.639,-1.979l10.285,-8.107l-2.017,-8.128l-4.768,-6.066l-7.68,2.078l-4.984,5.744l-3.648,7.022l2.173,9.436Zm48.102,-4.98l8.069,-11.367l-1.706,-6.333l-8.575,-20.566c0,0 -7.897,6.332 -10.383,6.413c-2.486,0.082 -7.683,4.746 -7.683,4.746l3.152,9.879l8.6,6.515l8.526,10.713Z" style="fill:#0a0500;fill-opacity:0.3;"/></g></g><path d="M109.643,11.179c0,0 22.197,6.624 42.968,16.081c23.225,10.575 41.514,16.967 42.932,26.833c0.689,4.791 -63.107,40.332 -85.9,42.951c-20.083,2.306 -85.219,-38.894 -85.83,-42.951c-1.172,-7.792 74.909,-45.097 85.83,-42.914Z" style="fill:#816b40;fill-opacity:0.428571;"/><path d="M103.692,25.961c26.612,1.03 30.819,-0.225 41.015,5.822c7.745,4.594 16.418,12.433 15.956,18.382c-1.128,14.521 -25.736,33.177 -42.182,33.929c-7.738,0.354 -23.906,-4.985 -32.666,-7.315c-9.861,-2.622 -20.102,-16.125 -23.281,-20.659c-12.359,-17.628 5.936,-31.521 41.158,-30.159Z" style="fill:#816b40;fill-opacity:0.5;"/></g></svg>