<?xml version="1.0" encoding="UTF-8" standalone="no"?><!DOCTYPE svg PUBLIC "-//W3C//DTD SVG 1.1//EN" "http://www.w3.org/Graphics/SVG/1.1/DTD/svg11.dtd"><svg width="100%" height="100%" viewBox="0 0 216 205" version="1.1" xmlns="http://www.w3.org/2000/svg" xmlns:xlink="http://www.w3.org/1999/xlink" xml:space="preserve" xmlns:serif="http://www.serif.com/" style="fill-rule:evenodd;clip-rule:evenodd;stroke-linejoin:round;stroke-miterlimit:1.41421;"><g id="Dirt_Block04"><g><path d="M215.583,54.129l0,96.598l-107.332,53.666l0,-96.599l107.332,-53.665Z" style="fill:#b09255;"/><path d="M204.849,102.428l6.941,8.837l-1.574,15.312l-5.367,8.05l-7.424,-3.712l-3.309,-7.021l0,-10.733l10.733,-10.733" style="fill:#e1c080;"/><path d="M193.594,83.167l9.359,6.054l-1.526,6.129l-5.366,2.684l-3.943,-1.972l-4.189,-4.696l0.429,-5.581l5.236,-2.618Z" style="fill:#e1c080;"/><path d="M161.917,104.855l5.367,-5.11l10.733,1.511l1.944,4.827l1.101,8.239l-11.034,10.883l-2.744,-5.39l-5.367,-1.287l-2.362,-10.291l2.362,-3.382" style="fill:#e1c080;"/><path d="M179.491,131.207l-6.841,5.652l2.278,12.729l8.455,2.989l7.519,1.909l3.214,-3.759l3.402,1.701l5.435,-0.753l1.896,-4.211l-5.366,-4.787l-4.042,-3.345l-7.512,-5.176l-8.438,-2.949Z" style="fill:#e1c080;"/><path d="M142.962,122.639l-7.878,3.938l-5.366,10.282l2.451,9.727l19.015,4.141l6.893,-7.287l1.478,-7.632l-5.86,-7.803l-10.733,-5.366Z" style="fill:#e1c080;"/><path d="M118.984,157.69l-8.709,10.148l1.338,6.036l7.371,19.785c0,0 8.248,-5.443 10.734,-5.366c2.485,0.076 7.942,-3.971 7.942,-3.971l-2.576,-9.446l-8.207,-6.629l-7.893,-10.557Z" style="fill:#e1c080;"/><path d="M167.284,155.986l-10.734,1.199l-10.733,6.958l1.544,7.736l4.409,5.974l7.785,-1.474l5.307,-5.072l4.046,-6.351l-1.624,-8.97" style="fill:#e1c080;"/><path d="M110.275,124.906l8.709,6.931l10.734,-4.854l5.366,-14.553l-14.73,-3.951l-6.736,5.466l-3.343,10.961" style="fill:#e1c080;"/><path d="M123.009,160.591l-8.372,9.701l1.286,5.77l7.086,18.914c0,0 7.927,-5.203 10.317,-5.13c2.389,0.073 7.634,-3.797 7.634,-3.797l-2.476,-9.029l-7.889,-6.337l-7.586,-10.092Zm46.426,-1.63l-10.317,1.147l-10.317,6.651l1.484,7.395l4.239,5.712l7.482,-1.41l5.101,-4.848l3.89,-6.072l-1.562,-8.575Zm11.734,-23.688l-6.575,5.403l2.19,12.169l8.127,2.858l7.227,1.825l3.09,-3.594l3.27,1.626l5.224,-0.72l1.823,-4.025l-5.159,-4.577l-3.885,-3.198l-7.221,-4.948l-8.111,-2.819Zm-35.112,-8.191l-7.573,3.765l-5.158,9.829l2.356,9.299l18.278,3.959l6.626,-6.966l1.42,-7.296l-5.632,-7.46l-10.317,-5.13Zm59.488,-19.321l6.671,8.448l-1.513,14.638l-5.158,7.696l-7.137,-3.549l-3.18,-6.712l0,-10.26l10.317,-10.261Zm-90.908,21.488l3.213,-10.478l6.475,-5.225l14.159,3.776l-5.158,13.913l-10.317,4.64l-8.372,-6.626Zm49.64,-19.168l5.158,-4.885l10.317,1.445l1.869,4.615l1.058,7.875l-10.606,10.405l-2.638,-5.153l-5.158,-1.231l-2.271,-9.838l2.271,-3.233Zm30.449,-20.733l8.996,5.787l-1.467,5.86l-5.158,2.565l-3.79,-1.884l-4.027,-4.49l0.413,-5.335l5.033,-2.503Z" style="fill:#9b712c;fill-opacity:0.5;"/></g><path d="M0.92,54.129l107.331,53.665l0,96.599l-107.331,-53.666l0,-96.598" style="fill:#816b40;"/><clipPath id="_clip1"><path d="M0.92,54.129l107.331,53.665l0,96.599l-107.331,-53.666l0,-96.598"/></clipPath><g clip-path="url(#_clip1)"><path d="M90.782,174.191l11.734,-4.08l-0.235,-16.22l-6.989,-11.582l-11.749,-1.319l-5.988,4.725l-1.503,10.628l14.73,17.848" style="fill:#816b40;"/><path d="M86.46,190.539l17.273,-3.671l-1.819,-6.447l-9.043,-3.989l-7.196,0.973l-8.01,3.609l-0.029,5.632l8.824,3.893Z" style="fill:#816b40;"/><path d="M49.519,166.212l4.777,5.836l11.198,0.058l2.667,-4.498l2.28,-7.998l-9.77,-12.374l-3.564,4.94l-5.673,0.497l-3.859,9.848l1.944,3.691" style="fill:#816b40;"/><path d="M74.608,140.344l-6.21,-6.587l4.114,-12.273l9.074,-1.736l7.964,-0.801l2.763,4.188l3.72,-1.192l5.458,1.532l1.351,4.444l-6.163,3.963l-4.606,2.727l-8.415,4.037l-9.05,1.698Z" style="fill:#816b40;"/><path d="M35.458,151.289l-4.295,-4.586l-1.861,-10.647l2.87,-9.418l12.278,-2.445l3.22,7.815l-0.159,7.685l-4.698,7.216l-7.355,4.38Z" style="fill:#816b40;"/><path d="M16.384,105.361l-7.493,-11.309l2.214,-5.783l10.317,-18.523c0,0 7.68,6.584 10.235,6.868c2.555,0.284 7.573,5.082 7.573,5.082l-3.959,8.979l-9.33,5.376l-9.557,9.31Z" style="fill:#816b40;"/><path d="M61.673,119.404l-10.818,-2.742l-10.012,-8.444l2.664,-7.435l5.35,-5.277l7.762,2.587l4.721,5.79l3.252,6.875l-2.919,8.646" style="fill:#816b40;"/><path d="M4.91,125.318l8.581,-9.593l7.678,8.655l1.217,22.864l-12.832,4.344l-4.296,-9.13l-0.348,-17.14" style="fill:#816b40;"/><path d="M82.47,190.982l17.273,-3.67l-1.819,-6.448l-9.043,-3.989l-7.196,0.973l-8.01,3.609l-0.029,5.633l8.824,3.892Zm4.322,-16.347l-14.73,-17.849l1.503,-10.627l5.988,-4.726l11.749,1.32l6.989,11.581l0.235,16.221l-11.734,4.08Zm-41.263,-7.98l-1.944,-3.691l3.859,-9.847l5.673,-0.498l3.564,-4.94l9.77,12.374l-2.28,7.998l-2.667,4.498l-11.198,-0.057l-4.777,-5.837Zm-44.609,-40.894l8.581,-9.592l7.678,8.654l1.217,22.864l-12.832,4.344l-4.296,-9.129l-0.348,-17.141Zm30.548,25.971l-4.295,-4.585l-1.861,-10.648l2.87,-9.417l12.278,-2.446l3.22,7.815l-0.159,7.685l-4.698,7.217l-7.355,4.379Zm39.15,-10.944l-6.21,-6.587l4.114,-12.274l9.074,-1.735l7.964,-0.802l2.763,4.188l3.72,-1.192l5.458,1.533l1.351,4.444l-6.163,3.963l-4.606,2.727l-8.415,4.037l-9.05,1.698Zm-12.935,-20.941l-10.818,-2.741l-10.012,-8.444l2.664,-7.436l5.35,-5.277l7.762,2.587l4.721,5.79l3.252,6.875l-2.919,8.646Zm-45.289,-14.043l-7.493,-11.309l2.214,-5.782l10.317,-18.523c0,0 7.68,6.583 10.235,6.868c2.555,0.284 7.573,5.082 7.573,5.082l-3.959,8.979l-9.33,5.375l-9.557,9.31Z" style="fill:#0a0500;fill-opacity:0.3;"/></g><path d="M215.878,54.209l-107.332,-53.666l-107.331,53.666l107.331,53.665l107.332,-53.665Z" style="fill:#c7a664;"/><clipPath id="_clip2"><path d="M215.878,54.209l-107.332,-53.666l-107.331,53.666l107.331,53.665l107.332,-53.665Z"/></clipPath><g clip-path="url(#_clip2)"><path d="M-10.813,21.319c0,0 25.752,7.572 44.227,16.79c10.717,5.347 10.436,12.284 12.302,17.627c6.806,19.49 22.135,14.676 56.519,21.33c14.621,2.83 30.457,10.552 38.511,14.709c16.652,8.595 35.774,8.945 35.774,8.945l-153.846,33.018l-67.966,-77.834l34.479,-34.585Z" style="fill:#b09255;"/><path d="M183.678,70.308c-1.62,-2.349 -41.139,-4.124 -39.943,-23.447c0.693,-11.186 -13.274,-6.448 -46.624,-17.141c-3.266,-1.047 -10.017,-7.712 -20.764,-13.077c-26.494,-13.227 -64.207,-12.397 -64.207,-12.397l153.225,-35.79l73.088,90.565l-54.775,11.287Z" style="fill:#b09255;"/></g></g></svg>