<?xml version="1.0" encoding="UTF-8" standalone="no"?><!DOCTYPE svg PUBLIC "-//W3C//DTD SVG 1.1//EN" "http://www.w3.org/Graphics/SVG/1.1/DTD/svg11.dtd"><svg width="100%" height="100%" viewBox="0 0 216 205" version="1.1" xmlns="http://www.w3.org/2000/svg" xmlns:xlink="http://www.w3.org/1999/xlink" xml:space="preserve" xmlns:serif="http://www.serif.com/" style="fill-rule:evenodd;clip-rule:evenodd;stroke-linejoin:round;stroke-miterlimit:1.41421;"><g id="Dirt_Block06"><g><path d="M215.647,53.759l0,96.598l-107.331,53.666l0,-96.598l107.331,-53.666Z" style="fill:#b09255;"/><path d="M204.914,102.058l6.94,8.837l-1.574,15.313l-5.366,8.05l-7.425,-3.713l-3.308,-7.021l0,-10.733l10.733,-10.733" style="fill:#e1c080;"/><path d="M193.659,82.797l9.358,6.054l-1.525,6.13l-5.367,2.683l-3.942,-1.971l-4.19,-4.696l0.429,-5.581l5.237,-2.619Z" style="fill:#e1c080;"/><path d="M161.981,104.485l5.367,-5.11l10.733,1.512l1.945,4.827l1.1,8.238l-11.034,10.884l-2.744,-5.39l-5.367,-1.288l-2.362,-10.291l2.362,-3.382" style="fill:#e1c080;"/><path d="M179.555,130.837l-6.841,5.652l2.278,12.729l8.456,2.99l7.519,1.909l3.214,-3.76l3.402,1.701l5.434,-0.753l1.897,-4.211l-5.367,-4.787l-4.042,-3.345l-7.512,-5.176l-8.438,-2.949Z" style="fill:#e1c080;"/><path d="M143.026,122.269l-7.877,3.939l-5.367,10.281l2.451,9.727l19.015,4.141l6.893,-7.286l1.478,-7.632l-5.86,-7.804l-10.733,-5.366Z" style="fill:#e1c080;"/><path d="M119.049,157.321l-8.71,10.148l1.338,6.035l7.372,19.786c0,0 8.247,-5.443 10.733,-5.367c2.486,0.077 7.942,-3.971 7.942,-3.971l-2.575,-9.445l-8.208,-6.63l-7.892,-10.556Z" style="fill:#e1c080;"/><path d="M167.348,155.616l-10.733,1.199l-10.733,6.959l1.543,7.735l4.41,5.974l7.784,-1.474l5.307,-5.071l4.046,-6.352l-1.624,-8.97" style="fill:#e1c080;"/><path d="M110.339,124.536l8.71,6.931l10.733,-4.854l5.367,-14.553l-14.73,-3.95l-6.737,5.465l-3.343,10.961" style="fill:#e1c080;"/><path d="M123.073,160.221l-8.372,9.701l1.286,5.77l7.086,18.914c0,0 7.928,-5.203 10.317,-5.13c2.39,0.073 7.635,-3.796 7.635,-3.796l-2.476,-9.03l-7.89,-6.337l-7.586,-10.092Zm46.427,-1.629l-10.317,1.146l-10.317,6.652l1.484,7.395l4.238,5.711l7.483,-1.409l5.101,-4.849l3.889,-6.072l-1.561,-8.574Zm11.733,-23.689l-6.575,5.404l2.19,12.168l8.127,2.858l7.228,1.825l3.089,-3.594l3.27,1.626l5.224,-0.719l1.823,-4.026l-5.158,-4.576l-3.885,-3.199l-7.221,-4.948l-8.112,-2.819Zm-35.112,-8.191l-7.572,3.766l-5.159,9.829l2.357,9.298l18.277,3.959l6.626,-6.966l1.421,-7.296l-5.633,-7.459l-10.317,-5.131Zm59.488,-19.321l6.671,8.448l-1.512,14.639l-5.159,7.695l-7.136,-3.549l-3.181,-6.712l0,-10.26l10.317,-10.261Zm-90.908,21.489l3.214,-10.479l6.475,-5.225l14.159,3.777l-5.159,13.912l-10.317,4.64l-8.372,-6.625Zm49.64,-19.169l5.159,-4.885l10.317,1.445l1.869,4.615l1.058,7.876l-10.606,10.404l-2.638,-5.153l-5.159,-1.231l-2.27,-9.838l2.27,-3.233Zm30.449,-20.733l8.996,5.788l-1.466,5.859l-5.159,2.565l-3.789,-1.884l-4.027,-4.489l0.412,-5.336l5.033,-2.503Z" style="fill:#9b712c;fill-opacity:0.5;"/></g><path d="M0.984,53.759l107.332,53.666l0,96.598l-107.332,-53.666l0,-96.598" style="fill:#816b40;"/><clipPath id="_clip1"><path d="M0.984,53.759l107.332,53.666l0,96.598l-107.332,-53.666l0,-96.598"/></clipPath><g clip-path="url(#_clip1)"><path d="M90.846,173.822l11.734,-4.08l-0.235,-16.221l-6.989,-11.581l-11.749,-1.32l-5.987,4.726l-1.504,10.627l14.73,17.849" style="fill:#816b40;"/><path d="M86.524,190.169l17.273,-3.67l-1.819,-6.448l-9.043,-3.989l-7.195,0.973l-8.011,3.609l-0.029,5.633l8.824,3.892Z" style="fill:#816b40;"/><path d="M49.583,165.842l4.777,5.837l11.198,0.057l2.667,-4.498l2.28,-7.998l-9.769,-12.374l-3.564,4.94l-5.674,0.498l-3.859,9.847l1.944,3.691" style="fill:#816b40;"/><path d="M74.672,139.975l-6.21,-6.587l4.115,-12.274l9.073,-1.735l7.964,-0.802l2.763,4.188l3.721,-1.192l5.457,1.533l1.352,4.444l-6.164,3.963l-4.606,2.727l-8.414,4.037l-9.051,1.698Z" style="fill:#816b40;"/><path d="M35.522,150.919l-4.294,-4.585l-1.862,-10.648l2.871,-9.417l12.278,-2.446l3.22,7.815l-0.16,7.685l-4.698,7.217l-7.355,4.379Z" style="fill:#816b40;"/><path d="M16.449,104.991l-7.494,-11.309l2.215,-5.782l10.317,-18.523c0,0 7.679,6.583 10.234,6.868c2.555,0.284 7.574,5.082 7.574,5.082l-3.96,8.979l-9.329,5.375l-9.557,9.31Z" style="fill:#816b40;"/><path d="M61.738,119.034l-10.819,-2.742l-10.011,-8.443l2.663,-7.436l5.35,-5.277l7.762,2.587l4.722,5.79l3.252,6.875l-2.919,8.646" style="fill:#816b40;"/><path d="M4.974,124.948l8.581,-9.592l7.679,8.654l1.217,22.864l-12.833,4.344l-4.295,-9.129l-0.349,-17.141" style="fill:#816b40;"/><path d="M82.534,190.613l17.273,-3.671l-1.819,-6.447l-9.043,-3.99l-7.195,0.973l-8.011,3.61l-0.029,5.632l8.824,3.893Zm4.322,-16.348l-14.73,-17.849l1.504,-10.627l5.987,-4.726l11.749,1.32l6.989,11.582l0.235,16.22l-11.734,4.08Zm-41.263,-7.98l-1.944,-3.69l3.859,-9.848l5.674,-0.498l3.564,-4.939l9.769,12.374l-2.28,7.997l-2.666,4.498l-11.199,-0.057l-4.777,-5.837Zm-44.609,-40.893l8.582,-9.593l7.678,8.654l1.217,22.864l-12.833,4.345l-4.295,-9.13l-0.349,-17.14Zm30.548,25.971l-4.294,-4.586l-1.862,-10.647l2.871,-9.418l12.278,-2.445l3.22,7.814l-0.16,7.686l-4.698,7.216l-7.355,4.38Zm39.15,-10.945l-6.21,-6.587l4.115,-12.273l9.073,-1.736l7.964,-0.801l2.763,4.187l3.721,-1.191l5.457,1.532l1.352,4.444l-6.164,3.963l-4.606,2.727l-8.414,4.037l-9.051,1.698Zm-12.934,-20.941l-10.819,-2.741l-10.011,-8.444l2.663,-7.435l5.35,-5.277l7.762,2.587l4.722,5.789l3.252,6.875l-2.919,8.646Zm-45.289,-14.042l-7.494,-11.31l2.215,-5.782l10.317,-18.523c0,0 7.679,6.584 10.234,6.868c2.555,0.284 7.574,5.082 7.574,5.082l-3.96,8.979l-9.329,5.376l-9.557,9.31Z" style="fill:#0a0500;fill-opacity:0.3;"/></g><path d="M215.942,53.839l-107.331,-53.666l-107.332,53.666l107.332,53.666l107.331,-53.666Z" style="fill:#c7a664;"/><clipPath id="_clip2"><path d="M215.942,53.839l-107.331,-53.666l-107.332,53.666l107.332,53.666l107.331,-53.666Z"/></clipPath><g clip-path="url(#_clip2)"><path d="M-10.749,20.949c0,0 25.753,7.572 44.228,16.79c10.716,5.347 10.435,12.285 12.301,17.627c6.806,19.49 22.136,14.676 56.519,21.331c14.621,2.83 30.458,10.551 38.511,14.708c16.652,8.595 35.774,8.946 35.774,8.946l-153.846,33.017l-67.966,-77.834l34.479,-34.585Z" style="fill:#b09255;"/><path d="M183.743,69.939c-1.621,-2.35 -41.14,-4.125 -39.943,-23.447c0.692,-11.186 -13.275,-6.449 -46.624,-17.141c-3.267,-1.048 -10.018,-7.713 -20.765,-13.078c-26.493,-13.227 -64.206,-12.397 -64.206,-12.397l153.225,-35.789l73.087,90.564l-54.774,11.288Z" style="fill:#b09255;"/><path d="M8.6,76.784l10.733,-18.239l-13.639,0.686l2.436,-4.148l16.57,-9.306l-2.122,-4.937l26.033,2.284l1.431,-10.018l1.491,-8.916l16.099,6.978l-10.733,19.424l26.833,-8.749l-16.1,-5.308l7.726,-6.87l-7.726,-14.596l16.1,-24.15l7.61,30.638l13.856,1.561l23.316,-22.391l-17.949,8.975l-5.367,2.683l-8.794,-4.397l-1.939,-11.702l29.585,-12.041l13.348,17.407l-5.367,8.05l-5.366,8.05l-7.194,12.503l-5.764,4.709l-19.242,-6.479l5.367,9.949l10.733,3.467l-2.544,4.095l-10.294,7.691l-13.995,1.631l-17.754,1.856l-19.812,0.827l-21.466,16.1l5.366,8.05l16.1,-18.783l48.299,-2.684l21.466,-10.733l5.367,-8.05l26.833,-13.416l26.833,-18.783l-29.761,4.147l5.63,7.919l-24.168,12.084l16.099,-21.222l5.367,-16.344l45.484,1.276l-2.552,20.19l-21.466,5.366l2.175,20.379l3.192,6.287l13.334,14.884l21.473,0.004l-7.975,-3.988l-7.731,-1.5l-8.368,-14.767l0,-13.249l45.061,9.669l-28.962,35.947l-28.732,-1.733l-3.467,-3.633l-5.367,-13.417l-1.112,-5.923l-4.254,-7.493l4.254,-13.973l-9.621,11.289l-5.366,2.684l-10.733,2.492l-3.537,4.643l11.143,-3.332l8.111,-1.311l-4.984,16.123l-23.617,1.776l-24.682,3.758l-16.1,-4.443l-5.367,2.683l18.429,14.012l49.471,-14.002l7.232,1.75l16.1,13.417l-19.28,9.64l-20.332,-5.934l-41.537,-0.698l-15.449,13.091l7.197,1.768l33.511,-8.246l18.324,6.808l-18.324,9.291l-3.142,-1.571l-21.466,0l-21.467,5.367l-5.366,-13.417l1.861,-9.802l3.505,-6.306l0,-8.041l-2.251,-4.241l-10.842,0.054l-8.373,4.187l-5.366,8.05l3.606,1.803l4.538,-5.875l2.589,-1.295l5.366,0.924l-3.322,16.198l-39.61,-1.689l-29.257,-19.587l13.157,22.503l62.157,28.829l179.338,-55.228l0,-96.598l-81.962,-57.081l-189.432,80.08l20.237,60.719l20.395,20.93Z" style="fill:#9b712c;fill-opacity:0.5;"/><path d="M11.133,75.426l10.733,-18.239l-13.639,0.686l2.436,-4.149l16.57,-9.305l-2.122,-4.937l26.033,2.284l1.431,-10.018l1.491,-8.916l16.099,6.978l-10.733,19.424l26.833,-8.75l-16.1,-5.307l7.726,-6.871l-7.726,-14.595l16.1,-24.15l7.61,30.638l13.856,1.561l23.316,-22.391l-17.949,8.975l-5.367,2.683l-8.794,-4.397l-1.939,-11.702l29.585,-12.041l13.348,17.407l-5.367,8.05l-5.366,8.05l-7.194,12.503l-5.764,4.709l-19.242,-6.479l5.367,9.949l10.733,3.467l-2.544,4.095l-10.294,7.691l-13.995,1.631l-17.754,1.856l-19.812,0.827l-21.466,16.1l5.366,8.05l16.1,-18.783l48.299,-2.684l21.466,-10.733l5.367,-8.05l26.833,-13.416l26.833,-18.783l-29.761,4.147l5.629,7.919l-24.167,12.084l16.099,-21.222l5.367,-16.344l45.484,1.276l-2.552,20.19l-21.466,5.366l2.175,20.379l3.192,6.287l13.334,14.884l21.473,0.004l-7.975,-3.988l-7.731,-1.5l-8.368,-14.767l0,-13.249l45.061,9.669l-28.962,35.947l-28.732,-1.734l-3.467,-3.633l-5.367,-13.416l-1.112,-5.923l-4.254,-7.493l4.254,-13.973l-9.621,11.289l-5.366,2.684l-10.733,2.492l-3.537,4.643l11.143,-3.332l8.111,-1.311l-4.984,16.123l-23.617,1.776l-24.682,3.758l-16.1,-4.443l-5.367,2.683l18.429,14.012l49.471,-14.002l7.232,1.75l6.682,5.569l9.418,7.848l-19.28,9.64l-20.332,-5.934l-41.537,-0.698l-15.449,13.091l7.197,1.768l33.511,-8.247l18.324,6.808l-18.324,9.292l-3.142,-1.571l-21.466,0l-21.467,5.367l-5.366,-13.417l1.861,-9.802l3.505,-6.306l0,-8.041l-2.251,-4.241l-10.842,0.054l-8.373,4.187l-5.367,8.05l3.607,1.803l4.538,-5.875l2.589,-1.295l5.366,0.923l-3.322,16.199l-39.61,-1.69l-29.257,-19.587l13.157,22.504l62.157,28.829l179.338,-55.228l0,-96.598l-81.962,-57.081l-189.432,80.08l20.237,60.718l20.395,20.931Z" style="fill:#685632;fill-opacity:0.5;"/></g></g></svg>