<?xml version="1.0" encoding="UTF-8" standalone="no"?><!DOCTYPE svg PUBLIC "-//W3C//DTD SVG 1.1//EN" "http://www.w3.org/Graphics/SVG/1.1/DTD/svg11.dtd"><svg width="100%" height="100%" viewBox="0 0 216 211" version="1.1" xmlns="http://www.w3.org/2000/svg" xmlns:xlink="http://www.w3.org/1999/xlink" xml:space="preserve" xmlns:serif="http://www.serif.com/" style="fill-rule:evenodd;clip-rule:evenodd;stroke-linejoin:round;stroke-miterlimit:1.41421;"><g id="Dirt_Block14"><g id="Dirt_Block15"><path d="M215.211,59.855l-107.332,-53.666l-107.331,53.666l107.331,53.665l107.332,-53.665Z" style="fill:#c78664;"/><clipPath id="_clip1"><path d="M215.211,59.855l-107.332,-53.666l-107.331,53.666l107.331,53.665l107.332,-53.665Z"/></clipPath><g clip-path="url(#_clip1)"><path d="M-11.48,26.965c0,0 25.753,7.572 44.228,16.79c10.716,5.347 10.435,12.284 12.301,17.627c6.806,19.49 22.135,14.676 56.519,21.331c14.621,2.829 30.457,10.551 38.511,14.708c16.652,8.595 35.774,8.946 35.774,8.946l-153.846,33.017l-67.966,-77.834l34.479,-34.585Z" style="fill:#b08255;"/><path d="M183.011,75.954c-1.62,-2.349 -41.139,-4.124 -39.943,-23.447c0.693,-11.185 -13.274,-6.448 -46.623,-17.141c-3.267,-1.047 -10.018,-7.712 -20.765,-13.077c-26.493,-13.227 -64.207,-12.397 -64.207,-12.397l153.225,-35.79l73.088,90.565l-54.775,11.287Z" style="fill:#b08255;"/></g><g><g><path d="M215.396,59.762l0,96.598l-107.332,53.666l0,-96.598l107.332,-53.666Z" style="fill:#b08255;"/><clipPath id="_clip2"><path d="M215.396,59.762l0,96.598l-107.332,53.666l0,-96.598l107.332,-53.666Z"/></clipPath><g clip-path="url(#_clip2)"><path d="M113.592,240.917l-7.47,-8.393l0.629,-15.381l4.861,-8.365l7.639,3.249l3.734,6.804l0.66,10.713l-10.053,11.373" style="fill:#e1aa80;"/><path d="M137.133,210.632l6.48,-6.062l-3.057,-12.565l-8.623,-2.463l-7.622,-1.443l-2.977,3.95l-3.5,-1.489l-5.378,1.086l-1.634,4.32l5.651,4.448l4.24,3.09l7.816,4.704l8.604,2.424Z" style="fill:#e1aa80;"/><path d="M174.12,216.937l7.62,-4.416l4.724,-10.592l-3.045,-9.558l-19.234,-2.963l-6.431,7.697l-1.006,7.708l6.329,7.428l11.043,4.696Z" style="fill:#e1aa80;"/><path d="M195.895,180.477l8.069,-10.665l-1.706,-5.941l-8.575,-19.295c0,0 -7.897,5.94 -10.383,6.017c-2.486,0.076 -7.683,4.452 -7.683,4.452l3.152,9.269l8.6,6.112l8.526,10.051Z" style="fill:#e1aa80;"/><path d="M147.793,185.149l10.639,-1.857l10.285,-7.605l-2.017,-7.626l-4.769,-5.692l-7.679,1.951l-4.984,5.388l-3.648,6.589l2.173,8.852" style="fill:#e1aa80;"/><path d="M206.605,212.664l-9.119,-6.382l-10.414,5.505l-4.462,14.855l14.946,3.037l6.387,-5.869l2.662,-11.146" style="fill:#e1aa80;"/><path d="M118.959,154.852l-7.471,-8.393l0.629,-15.381l4.861,-8.365l7.639,3.249l3.734,6.804l0.661,10.713l-10.053,11.373" style="fill:#e1aa80;"/><path d="M131.378,173.384l-9.714,-5.467l1.146,-6.212l5.191,-3.008l4.057,1.725l4.47,4.429l-0.085,5.597l-5.065,2.936Z" style="fill:#815240;"/><path d="M161.661,149.789l-5.042,5.43l-10.806,-0.849l-2.238,-4.698l-1.605,-8.155l10.344,-11.542l3.07,5.211l5.436,0.956l2.99,10.126l-2.149,3.521" style="fill:#815240;"/><path d="M147.48,126.768l6.48,-6.062l-3.056,-12.564l-8.624,-2.464l-7.622,-1.443l-2.977,3.95l-3.5,-1.488l-5.378,1.085l-1.634,4.32l5.651,4.448l4.24,3.09l7.817,4.704l8.603,2.424Z" style="fill:#e1aa80;"/><path d="M176.218,138.383l7.621,-4.416l4.724,-10.592l-3.045,-9.558l-19.234,-2.963l-6.431,7.696l-1.006,7.709l6.329,7.428l11.042,4.696Z" style="fill:#e1aa80;"/><path d="M203.903,104.239l8.069,-10.664l-1.707,-5.942l-8.575,-19.294c0,0 -7.897,5.94 -10.382,6.016c-2.486,0.077 -7.683,4.452 -7.683,4.452l3.152,9.269l8.599,6.112l8.527,10.051Z" style="fill:#e1aa80;"/><path d="M156.906,108.33l10.639,-1.857l10.285,-7.605l-2.017,-7.626l-4.768,-5.691l-7.68,1.95l-4.984,5.388l-3.648,6.589l2.173,8.852" style="fill:#815240;"/><path d="M211.972,126.599l-9.12,-6.382l-10.414,5.505l-4.461,14.855l14.945,3.037l6.387,-5.869l2.663,-11.146" style="fill:#815240;"/><path d="M129.435,178.238l-9.713,-5.466l1.145,-6.212l5.192,-3.008l4.056,1.725l4.47,4.429l-0.084,5.597l-5.066,2.935Zm30.283,-23.595l-5.042,5.431l-10.806,-0.849l-2.237,-4.698l-1.605,-8.155l10.343,-11.542l3.071,5.211l5.435,0.955l2.991,10.126l-2.15,3.521Zm50.311,-23.19l-2.662,11.146l-6.388,5.87l-14.945,-3.037l4.462,-14.856l10.414,-5.505l9.119,6.382Zm-55.066,-18.268l10.639,-1.857l10.285,-7.605l-2.016,-7.626l-4.769,-5.692l-7.679,1.951l-4.985,5.388l-3.648,6.589l2.173,8.852Z" style="fill:#0a0500;fill-opacity:0.3;"/><path d="M134.19,215.338l6.48,-6.062l-3.056,-12.565l-8.623,-2.463l-7.623,-1.443l-2.976,3.95l-3.5,-1.489l-5.379,1.086l-1.634,4.32l5.651,4.448l4.24,3.09l7.817,4.704l8.603,2.424Zm10.66,-25.483l10.639,-1.857l10.285,-7.605l-2.017,-7.626l-4.768,-5.692l-7.679,1.951l-4.985,5.388l-3.648,6.589l2.173,8.852Zm48.103,-4.672l8.069,-10.665l-1.707,-5.941l-8.575,-19.295c0,0 -7.897,5.94 -10.382,6.017c-2.486,0.076 -7.683,4.452 -7.683,4.452l3.151,9.269l8.6,6.112l8.527,10.051Zm-76.937,-25.625l-7.47,-8.393l0.628,-15.381l4.862,-8.365l7.638,3.249l3.735,6.804l0.66,10.713l-10.053,11.373Zm57.26,-16.469l7.62,-4.416l4.724,-10.592l-3.045,-9.558l-19.233,-2.963l-6.432,7.697l-1.006,7.708l6.329,7.428l11.043,4.696Zm-28.738,-11.615l6.48,-6.062l-3.057,-12.564l-8.623,-2.464l-7.622,-1.443l-2.977,3.95l-3.5,-1.488l-5.378,1.085l-1.634,4.32l5.651,4.448l4.24,3.09l7.816,4.704l8.604,2.424Zm56.422,-22.529l8.069,-10.664l-1.707,-5.942l-8.574,-19.294c0,0 -7.897,5.94 -10.383,6.016c-2.486,0.077 -7.683,4.452 -7.683,4.452l3.152,9.269l8.6,6.112l8.526,10.051Z" style="fill:#814f2c;fill-opacity:0.5;"/></g></g><path d="M0.733,59.762l107.331,53.666l0,96.598l-107.331,-53.666l0,-96.598" style="fill:#684f32;"/><clipPath id="_clip3"><path d="M0.733,59.762l107.331,53.666l0,96.598l-107.331,-53.666l0,-96.598"/></clipPath><g clip-path="url(#_clip3)"><path d="M6.226,231.739l-7.471,-8.946l0.629,-16.394l4.861,-8.915l7.639,3.462l3.734,7.252l0.66,11.419l-10.052,12.122" style="fill:#815240;"/><path d="M48.927,226.342l-5.042,5.788l-10.805,-0.904l-2.238,-5.008l-1.605,-8.692l10.343,-12.302l3.071,5.554l5.435,1.018l2.991,10.793l-2.15,3.753" style="fill:#815240;"/><path d="M29.766,199.459l6.48,-6.461l-3.057,-13.392l-8.623,-2.626l-7.622,-1.538l-2.977,4.21l-3.5,-1.586l-5.378,1.157l-1.634,4.604l5.651,4.741l4.24,3.294l7.816,5.014l8.604,2.583Z" style="fill:#815240;"/><path d="M66.753,206.18l7.62,-4.707l4.724,-11.29l-3.045,-10.187l-19.233,-3.159l-6.432,8.204l-1.006,8.216l6.329,7.918l11.043,5.005Z" style="fill:#b08255;"/><path d="M88.761,174.965l8.069,-11.367l-1.707,-6.333l-8.575,-20.566c0,0 -7.896,6.332 -10.382,6.413c-2.486,0.082 -7.683,4.746 -7.683,4.746l3.152,9.879l8.599,6.515l8.527,10.713Z" style="fill:#815240;"/><path d="M40.426,172.298l10.639,-1.979l10.285,-8.107l-2.017,-8.128l-4.768,-6.066l-7.68,2.078l-4.984,5.744l-3.648,7.022l2.173,9.436" style="fill:#815240;"/><path d="M106.424,189.543l-9.093,-6.35l-10.432,5.551l-4.516,14.884l14.93,2.979l6.408,-5.899l2.703,-11.165" style="fill:#815240;"/><path d="M11.592,140.005l-7.471,-8.946l0.629,-16.394l4.861,-8.916l7.639,3.463l3.734,7.252l0.661,11.419l-10.053,12.122" style="fill:#b08255;"/><path d="M24.011,159.757l-9.714,-5.826l1.146,-6.621l5.191,-3.207l4.057,1.839l4.47,4.721l-0.085,5.966l-5.065,3.128Z" style="fill:#b08255;"/><path d="M47.743,138.751l-5.042,5.788l-10.806,-0.904l-2.238,-5.008l-1.605,-8.692l10.344,-12.302l3.07,5.554l5.436,1.018l2.99,10.793l-2.149,3.753" style="fill:#815240;"/><path d="M17.441,102.145l9.013,-1.578l5.175,-12.724l-5.559,-7.096l-5.362,-5.631l-4.853,1.743l-1.958,-3.307l-5.07,-2.136l-3.978,2.835l1.911,7.124l1.585,5.131l3.528,8.589l5.568,7.05Z" style="fill:#815240;"/><path d="M58.154,120.713l7.621,-4.707l4.723,-11.29l-3.045,-10.187l-19.233,-3.159l-6.432,8.204l-1.006,8.217l6.329,7.917l11.043,5.005Z" style="fill:#b08255;"/><path d="M93.895,75.584l8.069,-11.367l-1.707,-6.333l-8.574,-20.566c0,0 -7.897,6.332 -10.383,6.413c-2.486,0.082 -7.683,4.746 -7.683,4.746l3.152,9.879l8.6,6.515l8.526,10.713Z" style="fill:#815240;"/><path d="M45.792,80.564l10.639,-1.98l10.285,-8.106l-2.016,-8.128l-4.769,-6.066l-7.679,2.078l-4.985,5.744l-3.648,7.022l2.173,9.436" style="fill:#815240;"/><path d="M97.331,113.364l-9.119,-6.802l-10.414,5.867l-4.462,15.834l14.946,3.237l6.387,-6.256l2.662,-11.88" style="fill:#815240;"/><path d="M14.918,252.493l-9.714,-5.826l1.146,-6.621l5.191,-3.207l4.057,1.839l4.47,4.721l-0.085,5.965l-5.065,3.129Zm30.283,-25.149l-5.042,5.788l-10.806,-0.904l-2.238,-5.008l-1.605,-8.692l10.344,-12.302l3.07,5.554l5.436,1.018l2.99,10.793l-2.149,3.753Zm-42.702,5.397l-7.471,-8.946l0.629,-16.394l4.861,-8.916l7.639,3.463l3.734,7.252l0.66,11.419l-10.052,12.122Zm100.199,-42.196l-2.704,11.165l-6.408,5.899l-14.93,-2.979l4.516,-14.884l10.433,-5.551l9.093,6.35Zm-39.672,16.637l7.621,-4.707l4.724,-11.29l-3.046,-10.187l-19.233,-3.159l-6.432,8.204l-1.006,8.216l6.329,7.917l11.043,5.006Zm-36.986,-6.721l6.479,-6.461l-3.056,-13.392l-8.623,-2.626l-7.623,-1.538l-2.976,4.21l-3.5,-1.587l-5.379,1.158l-1.633,4.604l5.65,4.741l4.241,3.294l7.816,5.013l8.604,2.584Zm58.994,-24.494l8.069,-11.367l-1.706,-6.333l-8.575,-20.566c0,0 -7.897,6.331 -10.383,6.413c-2.486,0.082 -7.683,4.745 -7.683,4.745l3.152,9.88l8.6,6.514l8.526,10.714Zm-48.335,-2.667l10.639,-1.98l10.285,-8.106l-2.017,-8.128l-4.768,-6.066l-7.679,2.078l-4.985,5.743l-3.648,7.023l2.173,9.436Zm-16.415,-12.541l-9.713,-5.827l1.145,-6.62l5.192,-3.207l4.056,1.839l4.47,4.721l-0.084,5.965l-5.066,3.129Zm23.732,-21.006l-5.042,5.788l-10.806,-0.904l-2.237,-5.008l-1.606,-8.692l10.344,-12.302l3.071,5.554l5.435,1.018l2.991,10.793l-2.15,3.753Zm-36.151,1.254l-7.47,-8.946l0.629,-16.394l4.861,-8.916l7.639,3.463l3.734,7.252l0.66,11.418l-10.053,12.123Zm85.74,-26.641l-2.663,11.88l-6.387,6.256l-14.945,-3.237l4.461,-15.834l10.414,-5.868l9.12,6.803Zm-39.178,7.349l7.621,-4.707l4.724,-11.29l-3.045,-10.187l-19.234,-3.159l-6.431,8.204l-1.006,8.216l6.329,7.917l11.042,5.006Zm-40.713,-18.568l9.014,-1.578l5.175,-12.724l-5.559,-7.096l-5.363,-5.631l-4.853,1.742l-1.958,-3.306l-5.069,-2.136l-3.979,2.835l1.911,7.124l1.585,5.13l3.529,8.59l5.567,7.05Zm28.352,-21.581l10.639,-1.98l10.285,-8.106l-2.017,-8.128l-4.768,-6.067l-7.68,2.079l-4.984,5.743l-3.648,7.023l2.173,9.436Zm48.102,-4.98l8.069,-11.367l-1.706,-6.333l-8.575,-20.566c0,0 -7.897,6.331 -10.383,6.413c-2.486,0.082 -7.683,4.746 -7.683,4.746l3.152,9.879l8.6,6.515l8.526,10.713Z" style="fill:#0a0500;fill-opacity:0.3;"/></g></g><g><g><path d="M22.853,61.827l-8.162,-4.081l0.517,-8.196l9.045,-3.123l7.158,-4.978l10.548,-2.268l10.546,10.639l-4.09,8.689l-9.462,6.002l-16.1,-2.684Z" style="fill:#b08255;"/><path d="M71.152,33.722l-14.664,1.99l5.999,20.445l12.296,-0.564l9.122,2.541l2.034,-6.384l10.081,-7.005l-3.401,-9.357l-5.367,-4.479l-10.733,0.13l-5.367,2.683Z" style="fill:#b08255;"/><path d="M96.02,25.244l-14.135,-0.173l-9.297,2.591l-3.036,-1.517l-3.766,-1.884l2.821,-3.955l2.545,-4.094l6.616,-0.487l4.117,-2.059l5.367,-0.138l12.168,0.718l0.533,2.274l-0.175,6.845l-3.758,1.879Z" style="fill:#b08255;"/><path d="M127.47,9.519l-10.99,-2.843l-6.618,4.55l-5.1,5.691l3.956,4.218l10.733,3.126l10.733,3.661l7.91,3.118l-0.734,-5l3.558,-1.779l1.788,-4.472l-1.788,-2.862l-13.448,-7.408" style="fill:#b08255;"/><path d="M118.372,38.82l8.543,3.191l8.636,7.002l-7.698,7.954l-6.216,1.686l-4.098,5.503l-7.41,-1.623l-1.411,-9.774l-2.455,-7.885l6.251,-5.961l5.858,-0.093Z" style="fill:#b08255;"/><path d="M167.75,32.311l-13.21,1.239l-10.168,8.538l3.293,7.013l5.008,5.188l15.077,-0.512l8.505,4.253l3.967,-8.75l-0.459,-5.596l-3.624,-4.834l-8.389,-6.539Z" style="fill:#b08255;"/><path d="M148.589,68.725l-15.078,0.132l-11.774,7.927l6.219,5.395l6.228,3.115l16.501,-1.517l6.332,2.2l1.975,-6.354l12.428,-4.187l2.785,-6.112l-2.786,-2.979l-5.915,-0.711l-3.12,1.56l-13.795,1.531" style="fill:#b08255;"/><path d="M202.457,49.742c-1.867,0.205 -16.056,6.73 -16.056,6.73l-6.708,10.036l10.733,4.051l6.867,-5.059l9.232,-2.991c0,0 -2.2,-12.973 -4.068,-12.767Z" style="fill:#b08255;"/><path d="M96.191,65.606l8.115,8.245l0.779,11.123l-7.715,2.942l-12.603,-0.498l-7.551,-6.958l-4.782,-8.342l8.836,-3.206l8.821,-2.168l6.1,-1.138" style="fill:#b08255;"/><path d="M53.799,63.759l4.035,4.826l3.813,11.412l-9.177,4.588l-8.151,-4.808l-5.366,-6.652l10.733,-3.248l0,-2.182l1.741,-2.314l2.372,-1.622Z" style="fill:#b08255;"/><path d="M122.966,88.477l4.634,4.875l0,5.89l-9.703,6.295l-10.622,3.868l-3.426,-6.438l0,-10.177l19.117,-4.313Z" style="fill:#b08255;"/></g><g><g opacity="0.5"><path d="M18.479,66.055l-8.163,-4.081l1.352,-7.225l8.21,-4.094l7.159,-4.979l10.548,-2.267l10.546,10.639l-4.09,8.688l-9.463,6.002l-16.099,-2.683Z" style="fill:#814f2c;"/><path d="M66.778,37.949l-14.665,1.991l5.999,20.444l12.296,-0.564l9.123,2.542l2.034,-6.384l10.081,-7.005l-3.402,-9.357l-5.366,-4.48l-10.734,0.13l-5.366,2.683Z" style="fill:#814f2c;"/><path d="M91.646,29.471l-14.135,-0.172l-9.298,2.591l-3.035,-1.518l-3.039,-1.54l6.394,-3.197l-2.747,-1.374l7.608,-4.308l4.117,-2.059l5.367,-0.138l12.168,0.717l0.532,2.274l-0.175,6.845l-3.757,1.879Z" style="fill:#814f2c;"/><path d="M123.095,13.746l-10.989,-2.842l-6.619,4.549l-5.099,5.691l3.956,4.218l10.733,3.127l10.733,3.661l7.91,3.117l4.67,-3.022l-0.683,-5.708l-4.641,-2.676l1.789,-6.261l-11.76,-3.854" style="fill:#814f2c;"/><path d="M113.997,43.047l8.543,3.192l8.637,7.001l-3.32,3.715l-5.923,1.795l-8.77,9.634l-7.409,-1.624l-1.411,-9.773l-2.455,-7.886l6.25,-5.96l5.858,-0.094Z" style="fill:#814f2c;"/><path d="M163.376,36.539l-13.21,1.238l-10.169,8.539l3.294,7.013l5.008,5.187l15.077,-0.511l8.504,4.252l3.968,-8.749l-0.46,-5.597l-3.623,-4.834l-8.389,-6.538Z" style="fill:#814f2c;"/><path d="M144.214,72.952l-15.077,0.133l-11.775,7.927l6.219,5.395l6.229,3.114l16.5,-1.517l6.333,2.2l4.593,-4.118l1.769,-5.967l9.05,-3.081l1.775,-3.486l-2.786,-2.98l-5.914,-0.711l-3.121,1.56l-13.795,1.531" style="fill:#814f2c;"/><path d="M197.465,55.615c-1.867,0.206 -15.439,5.084 -15.439,5.084l-6.708,10.037l10.733,4.05l6.868,-5.059l9.232,-2.991c0,0 -2.818,-11.326 -4.686,-11.121Z" style="fill:#814f2c;"/><path d="M91.817,69.834l8.114,8.244l0.779,11.123l-7.714,2.943l-12.603,-0.499l-7.551,-6.957l-4.782,-8.342l8.836,-3.207l8.821,-2.168l6.1,-1.137" style="fill:#814f2c;"/><path d="M49.425,67.986l4.035,4.826l3.812,11.412l-5.545,1.288l-8.541,-4.271l-4.233,-7.483l4.233,-1.738l2.016,-0.504l4.214,-1.768l0.009,-1.762Z" style="fill:#814f2c;"/><path d="M118.591,92.704l4.635,4.876l0,5.89l-9.973,5.429l-8.784,2.916l-4.995,-4.621l0,-10.177l19.117,-4.313Z" style="fill:#814f2c;"/></g></g></g><g><path d="M90.485,102.827l3.285,3.605l0.062,-17.268l-3.347,13.663Zm3.405,-13.744l3.608,11.01l0.81,6.221l-4.538,0.118l0.12,-17.349Zm-31.301,-3.666l2.066,6.538l2.815,-5.901l3.799,3.402l2.664,-4.383l7.017,-1.265l-4.209,-3.262l-0.401,-13.092l-5.93,12.033l-3.813,-11.087l-2.719,6.617l-5.759,-5.156l-0.52,6.595l0.59,4.647l-6.859,-1.445l6.797,4.828l-6.883,6.345l7.861,-1.467l1.163,1.725l2.321,-5.672Zm54.292,-18.433l5.997,16.111l-3.885,2.813l-5.17,-0.226l-5.88,2.94l-3.93,-2.587l-2.832,-1.705l-4.256,-12.303l3.198,2.719l3.89,3.763l-0.754,-7.017l3.214,6.135l1.997,4.629l1.087,-9.457l-1.611,-4.175l4.981,8.591l0.72,4.822l1.624,-0.837l1.61,-14.216Zm24.938,16.53l3.285,3.605l0.063,-17.268l-3.348,13.663Zm3.406,-13.744l3.608,11.009l0.809,6.222l-4.538,0.118l0.121,-17.349Zm-1.826,-16.239c-0.063,0.088 -0.309,0.08 -0.943,-0.179c-1.642,-0.671 -5.24,3.648 -5.349,1.74c-0.11,-1.909 3.129,-4.77 3.016,-5.65c-0.112,-0.88 2.402,-0.171 2.402,-0.171l-2.149,-3.749l-4.595,-5.018l5.372,1.36l1.134,-3.479l3.67,1.077l1.743,5.676l2.51,4.337l0.448,-5.935l-2.511,-3.516l1.099,-4.118l-0.778,-6.569l6.088,5.826l1.977,2.252l-1.185,-6.695l3.375,-1.687l3.739,3.254l-0.051,5.427l3.02,1.908l3.208,-5.223c0,0 0.07,-2.31 0.838,-0.301c0.769,2.009 1.673,7.835 1.673,7.835l0.089,2.835l3.226,-5.045c0,0 0.975,0.242 0.789,1.276c-0.187,1.034 -0.379,8.282 -0.379,8.282l1.8,1.29l2.149,0.782l4.337,3.423c0,0 -0.849,2.702 -2.663,2.714c-0.876,0.006 -2.532,0.384 -4.01,0.773l0.213,10.964l2.676,3.262l-4.46,1.265l-1.694,4.384l-2.415,-3.402l-1.789,5.901l-1.313,-6.539l-1.475,5.673l-0.739,-1.726l-4.997,1.468l4.375,-6.345l-4.32,-4.828l4.36,1.445l-0.376,-4.647l0.312,-6.216c-1.164,-0.339 -2.033,-0.616 -2.033,-0.616c0,0 -2.713,-0.904 -4.32,-2.411c-1.607,-1.507 -0.716,-3.79 -2.97,-2.799c-2.253,0.991 -5.491,4.56 -5.491,4.56c0,0 -0.758,1.008 -3.13,-0.778c-2.371,-1.786 -3.175,-2.691 -3.175,-2.691l-0.328,-0.656c0.101,-0.139 -0.26,-0.521 -0.26,-0.521l0.26,0.521Zm-99.644,-6.367l3.108,9.476l2.63,-3.318l-0.451,7.036l2.881,-8.08l1.209,5.203l2.875,-6.17l0,3.704c0,0 1.253,2.571 2.126,1.62c3.613,-3.938 1.755,1.093 1.958,1.381c0.87,1.237 0,1.714 0,1.714l0.668,1.608c0,0 -1.569,-0.935 -0.668,0.918c0.901,1.852 2.606,3.629 1.421,3.625c-1.185,-0.005 -2.696,-1.475 -4.521,1.364c-0.276,0.429 -0.984,0.988 -0.984,0.988c0,0 -2.106,0.944 -3.123,1.061c-1.016,0.118 -0.686,0.871 -2.277,0.158c-1.591,-0.714 -2.424,-1.892 -2.768,-0.882c-0.343,1.01 -1.606,1.396 -1.606,1.396l-3.299,0.372l-0.499,-0.884c0,0 -2.291,-0.488 -4.413,0.493c-2.122,0.98 -3.357,2.832 -3.357,0.559c0,-2.273 -0.331,-2.193 -0.331,-2.193c0,0 0.003,-1.839 -1.211,-1.97c-1.215,-0.13 -3.731,-0.218 -3.731,-0.218l2.112,-1.596c0,0 -3.606,-2.223 -4.88,-2.543c-1.274,-0.32 -3.288,0.438 -3.288,0.438l1.798,1.815c0,0 -1.15,-1.041 -1.798,-0.797c-0.647,0.245 -3.118,-0.345 -3.118,-0.345l-0.965,-1.463c0,0 0.3,-0.389 1.25,-1.483c0.951,-1.095 1.521,-1.684 1.521,-1.684l0.095,-0.926l-1.422,-3.782l-0.417,-3.433l5.08,6.778l0.013,-5.416l2.829,4.169l0.665,-6.567l2.637,7.83c0,0 0.991,1.74 1.268,-0.351c0.277,-2.091 1.252,-6.68 1.252,-6.68l2.336,-3.267l-0.772,11.194l3.164,-1.401l0.92,-11.26l1.436,13.834l1.35,-3.164l1.297,1.991l0,-10.852Zm131.96,11.307c-1.235,0.34 -2.191,0.638 -2.191,0.638c0,0 -1.081,0.795 -2.612,0.985l1.765,8.074l3.038,-9.697Zm-78.461,-7.107l6.821,-6.933l-1.299,8.666l5.521,-10.207l2.165,6.817l6.032,-8.084l2.846,11.437l3.085,-9.506l2.436,7.421l9.309,-4.825l-5.656,10.375l-3.653,6.962c0,0 -6.341,-1.878 -7.954,-3.004c-1.614,-1.127 -2.272,-1.062 -4.428,-0.661c-2.157,0.401 -6.031,1.364 -9.703,1.846c-3.673,0.481 -9.628,2.353 -9.628,2.353l-5.645,-0.428c-2.677,-1.925 -4.554,-3.424 -4.554,-3.424l-6.119,-2.311l6.466,-0.427l5.243,-3.492l-2.327,-12.397l11.042,9.822Zm71.271,12.335l0.948,-3.627c-1.148,-0.185 -2.862,-0.642 -4.263,-1.045l3.315,4.672Zm-159.02,-17.705l3.608,11.009l0.809,6.222l-4.538,0.118l0.121,-17.349Zm-3.405,13.744l3.284,3.605l0.063,-17.268l-3.347,13.663Zm44.824,-25.833l2.397,1.445l-3.523,-13.596l5.644,9.508l2.932,-4.831l1.645,5.572l3.316,-3.872l2.242,-1.748l2.544,10.943l2.683,-1.343l-0.206,8.401l1.981,4.53c0,0 -2.464,1.013 -3.112,1.868c-0.648,0.854 1.15,3.262 -1.559,2.221c-2.709,-1.042 -3.738,-0.682 -5.062,-2.391c-1.324,-1.71 -2.565,-3.245 -2.565,-3.245l-3.787,0.34c0,0 -1.408,-3.655 -1.882,0.169c-0.474,3.823 -3.506,-3.318 -3.506,-3.318l-3.209,-6.687l3.027,-3.966Zm58.743,-30.923l4.083,14.058l3.456,-4.922l-0.592,10.437l3.786,-11.987l1.589,7.719l3.778,-9.153l0,5.495c0,0 1.647,3.814 2.793,2.403c4.748,-5.841 2.307,1.622 2.573,2.049c1.143,1.835 0,2.543 0,2.543l0.878,2.385c0,0 -2.062,-1.386 -0.878,1.362c1.184,2.747 3.425,5.385 1.868,5.377c-1.558,-0.007 -3.542,-2.188 -5.941,2.024c-0.363,0.637 -1.293,1.466 -1.293,1.466c0,0 -2.768,1.401 -4.104,1.575c-1.336,0.174 -0.902,1.291 -2.992,0.233c-2.091,-1.058 -3.186,-2.807 -3.638,-1.308c-0.451,1.499 -2.111,2.071 -2.111,2.071l-4.335,0.552l-0.656,-1.312c0,0 -3.011,-0.723 -5.799,0.731c-2.788,1.455 -4.411,4.203 -4.411,0.83c0,-3.372 -0.435,-3.253 -0.435,-3.253c0,0 0.004,-2.729 -1.592,-2.923c-1.595,-0.193 -4.902,-0.324 -4.902,-0.324l2.775,-2.367c0,0 -4.739,-3.297 -6.413,-3.772c-1.673,-0.475 -4.32,0.649 -4.32,0.649l2.362,2.692c0,0 -1.512,-1.543 -2.362,-1.181c-0.85,0.363 -4.098,-0.511 -4.098,-0.511l-1.269,-2.172c0,0 0.395,-0.576 1.644,-2.2c1.249,-1.624 1.998,-2.498 1.998,-2.498l0.125,-1.374l-1.868,-5.61l-0.548,-5.093l6.675,10.055l0.018,-8.035l3.717,6.185l0.874,-9.742l3.465,11.616c0,0 1.302,2.581 1.666,-0.521c0.364,-3.101 1.646,-9.91 1.646,-9.91l3.07,-4.847l-1.015,16.607l4.157,-2.078l1.209,-16.705l1.887,20.523l1.775,-4.693l1.705,2.953l0,-16.099Z" style="fill:#0a0500;fill-opacity:0.3;"/><g id="GrassBlank02"><path d="M66.99,86.173l2.066,6.538l2.815,-5.901l3.8,3.402l2.664,-4.383l7.017,-1.265l-4.21,-3.262l-0.401,-13.092l-5.93,12.033l-3.813,-11.087l-2.719,6.617l-5.758,-5.156l-0.521,6.595l0.591,4.647l-6.86,-1.445l6.797,4.828l-6.883,6.345l7.861,-1.467l1.164,1.725l2.32,-5.672" style="fill:#93753c;"/><clipPath id="_clip4"><path d="M66.99,86.173l2.066,6.538l2.815,-5.901l3.8,3.402l2.664,-4.383l7.017,-1.265l-4.21,-3.262l-0.401,-13.092l-5.93,12.033l-3.813,-11.087l-2.719,6.617l-5.758,-5.156l-0.521,6.595l0.591,4.647l-6.86,-1.445l6.797,4.828l-6.883,6.345l7.861,-1.467l1.164,1.725l2.32,-5.672"/></clipPath><g clip-path="url(#_clip4)"><path d="M80.741,68.21l-2.699,12.399l1.35,2.21l-3.253,2.456l-1.521,-4.789l2.062,-7.097l-4.549,-5.154l-1.333,-0.518l1.105,15.655l-3.789,-7.762l-1.429,-5.437l-3.991,0l3.438,12.401l-5.543,-1.131l-4.051,-5.411l-3.386,1.693l2.728,3.068l-0.375,14.208l8.38,-2.553l2.984,3.509l2.794,-1.901l0.959,-2.23l8.458,-1.138l7.506,-6.292l-4.308,-12.75l-1.537,-3.436" style="fill:#c8e856;"/></g><path d="M55.326,34.661l2.396,1.445l-3.522,-13.596l5.644,9.508l2.932,-4.832l1.644,5.573l3.317,-3.872l2.242,-1.748l2.544,10.943l2.682,-1.343l-0.205,8.401l1.98,4.53c0,0 -2.464,1.013 -3.112,1.868c-0.648,0.854 1.151,3.262 -1.558,2.221c-2.709,-1.042 -3.738,-0.682 -5.063,-2.391c-1.324,-1.71 -2.564,-3.245 -2.564,-3.245l-3.787,0.34c0,0 -1.408,-3.655 -1.883,0.168c-0.474,3.824 -3.505,-3.317 -3.505,-3.317l-3.21,-6.687l3.028,-3.966Z" style="fill:#93753c;"/><clipPath id="_clip5"><path d="M55.326,34.661l2.396,1.445l-3.522,-13.596l5.644,9.508l2.932,-4.832l1.644,5.573l3.317,-3.872l2.242,-1.748l2.544,10.943l2.682,-1.343l-0.205,8.401l1.98,4.53c0,0 -2.464,1.013 -3.112,1.868c-0.648,0.854 1.151,3.262 -1.558,2.221c-2.709,-1.042 -3.738,-0.682 -5.063,-2.391c-1.324,-1.71 -2.564,-3.245 -2.564,-3.245l-3.787,0.34c0,0 -1.408,-3.655 -1.883,0.168c-0.474,3.824 -3.505,-3.317 -3.505,-3.317l-3.21,-6.687l3.028,-3.966Z"/></clipPath><g clip-path="url(#_clip5)"><path d="M76.038,34.462l-2.315,8.553l-4.592,-1.612l4.449,-6.72l-3.344,-8.383l-3.401,12.198l-3.185,0.129l0.768,-5.993l-2.002,-7.892l-0.822,13.299l-1.759,-6.524l-1.411,-3.662l-3.319,-6.104l3.91,16.1l-1.182,-0.208l-0.887,0.691l-3.573,1.652l-3.529,3.148c0,0 5.697,1.884 10.226,2.11c3.358,0.168 5.756,-1.38 6.379,-1.062c0.677,0.346 0.747,6.146 2.883,8.955c2.478,3.259 7.01,3.564 7.01,3.564l2.01,-9.805l-2.314,-12.434" style="fill:#c8e856;"/></g><g><path d="M98.292,89.839l3.608,11.01l0.809,6.221l-4.538,0.118l0.121,-17.349Z" style="fill:#c8e856;"/><path d="M94.887,103.583l3.284,3.605l0.063,-17.268l-3.347,13.663Z" style="fill:#93753c;"/></g><g><path d="M13.906,46.75l3.608,11.009l0.81,6.222l-4.538,0.118l0.12,-17.349Z" style="fill:#c8e856;"/><path d="M10.501,60.494l3.285,3.605l0.062,-17.268l-3.347,13.663Z" style="fill:#93753c;"/></g><g><path d="M149.626,70.526l3.608,11.009l0.809,6.222l-4.537,0.118l0.12,-17.349Z" style="fill:#c8e856;"/><path d="M146.221,84.27l3.285,3.605l0.062,-17.268l-3.347,13.663Z" style="fill:#93753c;"/></g><path d="M121.282,67.74l5.998,16.111l-3.886,2.813l-5.169,-0.226l-5.88,2.94l-3.93,-2.587l-2.832,-1.705l-4.257,-12.303l3.198,2.719l3.891,3.763l-0.755,-7.017l3.215,6.135l1.996,4.629l1.088,-9.457l-1.611,-4.175l4.98,8.591l0.72,4.822l1.624,-0.837l1.61,-14.216Z" style="fill:#93753c;"/><clipPath id="_clip6"><path d="M121.282,67.74l5.998,16.111l-3.886,2.813l-5.169,-0.226l-5.88,2.94l-3.93,-2.587l-2.832,-1.705l-4.257,-12.303l3.198,2.719l3.891,3.763l-0.755,-7.017l3.215,6.135l1.996,4.629l1.088,-9.457l-1.611,-4.175l4.98,8.591l0.72,4.822l1.624,-0.837l1.61,-14.216Z"/></clipPath><g clip-path="url(#_clip6)"><path d="M121.208,65.474l2.215,16.719l-4.386,-0.555l-1.709,-12.781l-5.427,0.3l3.384,9.99l0.411,4.351l-2.825,-0.486l-1.57,-8.128l-3.97,-2.472l3.42,8.452l-0.142,3.279l-1.44,-2.056c-0.255,-1.668 -0.94,-3.371 -2.055,-5.11l-6.623,-5.602l4.866,7.207l0.694,3.384l1.588,2.887l3.67,1.835l1.562,1.749c0,0 2.531,2.882 3.825,2.999c1.293,0.118 7.056,-0.059 8.408,-0.588c1.353,-0.529 6.612,-3.888 6.612,-3.888l-3.185,-11.778l-7.323,-9.708Z" style="fill:#c8e856;"/></g><path d="M114.068,3.738l4.084,14.058l3.456,-4.922l-0.592,10.437l3.785,-11.987l1.589,7.719l3.778,-9.153l0,5.495c0,0 1.647,3.814 2.793,2.403c4.748,-5.841 2.307,1.622 2.574,2.049c1.143,1.835 0,2.543 0,2.543l0.878,2.385c0,0 -2.063,-1.386 -0.878,1.362c1.184,2.747 3.425,5.385 1.867,5.377c-1.557,-0.007 -3.542,-2.188 -5.941,2.024c-0.363,0.637 -1.293,1.466 -1.293,1.466c0,0 -2.767,1.401 -4.103,1.575c-1.336,0.174 -0.903,1.291 -2.993,0.233c-2.09,-1.058 -3.185,-2.807 -3.637,-1.308c-0.452,1.499 -2.112,2.071 -2.112,2.071l-4.335,0.552l-0.656,-1.312c0,0 -3.01,-0.723 -5.798,0.731c-2.788,1.455 -4.412,4.203 -4.412,0.83c0,-3.372 -0.434,-3.253 -0.434,-3.253c0,0 0.003,-2.729 -1.592,-2.923c-1.596,-0.193 -4.903,-0.324 -4.903,-0.324l2.776,-2.367c0,0 -4.739,-3.297 -6.413,-3.772c-1.674,-0.475 -4.32,0.649 -4.32,0.649l2.362,2.692c0,0 -1.512,-1.543 -2.362,-1.181c-0.851,0.363 -4.098,-0.512 -4.098,-0.512l-1.269,-2.171c0,0 0.394,-0.576 1.643,-2.2c1.249,-1.624 1.999,-2.498 1.999,-2.498l0.125,-1.374l-1.869,-5.61l-0.548,-5.093l6.675,10.055l0.018,-8.035l3.717,6.185l0.874,-9.742l3.466,11.616c0,0 1.302,2.581 1.666,-0.521c0.364,-3.101 1.645,-9.91 1.645,-9.91l3.07,-4.847l-1.015,16.607l4.158,-2.078l1.209,-16.705l1.887,20.523l1.775,-4.693l1.704,2.953l0,-16.099Z" style="fill:#93753c;"/><clipPath id="_clip7"><path d="M114.068,3.738l4.084,14.058l3.456,-4.922l-0.592,10.437l3.785,-11.987l1.589,7.719l3.778,-9.153l0,5.495c0,0 1.647,3.814 2.793,2.403c4.748,-5.841 2.307,1.622 2.574,2.049c1.143,1.835 0,2.543 0,2.543l0.878,2.385c0,0 -2.063,-1.386 -0.878,1.362c1.184,2.747 3.425,5.385 1.867,5.377c-1.557,-0.007 -3.542,-2.188 -5.941,2.024c-0.363,0.637 -1.293,1.466 -1.293,1.466c0,0 -2.767,1.401 -4.103,1.575c-1.336,0.174 -0.903,1.291 -2.993,0.233c-2.09,-1.058 -3.185,-2.807 -3.637,-1.308c-0.452,1.499 -2.112,2.071 -2.112,2.071l-4.335,0.552l-0.656,-1.312c0,0 -3.01,-0.723 -5.798,0.731c-2.788,1.455 -4.412,4.203 -4.412,0.83c0,-3.372 -0.434,-3.253 -0.434,-3.253c0,0 0.003,-2.729 -1.592,-2.923c-1.596,-0.193 -4.903,-0.324 -4.903,-0.324l2.776,-2.367c0,0 -4.739,-3.297 -6.413,-3.772c-1.674,-0.475 -4.32,0.649 -4.32,0.649l2.362,2.692c0,0 -1.512,-1.543 -2.362,-1.181c-0.851,0.363 -4.098,-0.512 -4.098,-0.512l-1.269,-2.171c0,0 0.394,-0.576 1.643,-2.2c1.249,-1.624 1.999,-2.498 1.999,-2.498l0.125,-1.374l-1.869,-5.61l-0.548,-5.093l6.675,10.055l0.018,-8.035l3.717,6.185l0.874,-9.742l3.466,11.616c0,0 1.302,2.581 1.666,-0.521c0.364,-3.101 1.645,-9.91 1.645,-9.91l3.07,-4.847l-1.015,16.607l4.158,-2.078l1.209,-16.705l1.887,20.523l1.775,-4.693l1.704,2.953l0,-16.099Z"/></clipPath><g clip-path="url(#_clip7)"><path d="M137.978,13.249l-4.116,6.541l-3.694,0.128l1.776,-10.359l-1.776,-0.704l-3.549,15.44l-1.818,-3.865l2.411,-9.401l-3.58,-1.34l-1.025,17.455l-2.358,0.336l0.423,-15.074l-2.541,-2.847l-0.038,12.291l-8.211,-17.727l2.814,23.149l12.105,13.045l14.931,-7.648l-1.754,-19.42Z" style="fill:#c8e856;"/><path d="M105.192,7.504l-2.494,4.668l-1.411,8.69l-4.473,0.135l1.155,-3.07l1.339,-9.144l-3.325,-2.558l-1.645,14.48l-1.736,-2.33l0.506,-9.524l-1.765,0.883l-0.604,10.431l-2.046,-1.534l-0.907,-11.935l-2.802,2.726l1.663,9.464l-2.794,1.943l-8.514,6.477c0,0 11.061,5.503 12.559,6.279c1.498,0.777 8.852,7.427 8.852,7.427l13.173,2.364l4.145,-5.689l-8.618,-2.807l-1.282,-1.981l1.669,-1.527l4.516,-0.891l-3.435,-4.56l5.479,3.814l0.98,3.795l0.691,-4.54l-3.377,-3.325l-1.989,-3.709l1.669,-13.109l0.463,-8.859l-2.693,0.786l-1.25,11.919l0.475,7.6l-1.596,0.762l-0.578,-13.551Z" style="fill:#c8e856;"/></g><path d="M48.157,47.92l3.107,9.476l2.63,-3.318l-0.45,7.036l2.881,-8.08l1.209,5.203l2.874,-6.17l0,3.704c0,0 1.254,2.571 2.126,1.62c3.613,-3.938 1.756,1.093 1.958,1.381c0.87,1.237 0,1.714 0,1.714l0.668,1.608c0,0 -1.569,-0.935 -0.668,0.918c0.901,1.852 2.607,3.629 1.421,3.625c-1.185,-0.005 -2.695,-1.475 -4.52,1.364c-0.277,0.429 -0.985,0.988 -0.985,0.988c0,0 -2.105,0.944 -3.122,1.061c-1.017,0.118 -0.687,0.871 -2.277,0.158c-1.591,-0.714 -2.425,-1.892 -2.768,-0.882c-0.344,1.01 -1.607,1.396 -1.607,1.396l-3.299,0.372l-0.499,-0.884c0,0 -2.291,-0.488 -4.413,0.493c-2.121,0.98 -3.357,2.832 -3.357,0.559c0,-2.273 -0.33,-2.193 -0.33,-2.193c0,0 0.002,-1.839 -1.212,-1.97c-1.214,-0.13 -3.73,-0.219 -3.73,-0.219l2.112,-1.595c0,0 -3.607,-2.223 -4.88,-2.543c-1.274,-0.32 -3.288,0.438 -3.288,0.438l1.798,1.815c0,0 -1.151,-1.041 -1.798,-0.797c-0.647,0.245 -3.118,-0.345 -3.118,-0.345l-0.966,-1.463c0,0 0.3,-0.389 1.251,-1.483c0.95,-1.095 1.52,-1.684 1.52,-1.684l0.096,-0.926l-1.422,-3.782l-0.417,-3.433l5.079,6.778l0.014,-5.416l2.828,4.169l0.666,-6.567l2.637,7.83c0,0 0.99,1.74 1.267,-0.351c0.278,-2.091 1.253,-6.68 1.253,-6.68l2.336,-3.267l-0.773,11.194l3.164,-1.401l0.92,-11.26l1.436,13.834l1.351,-3.164l1.297,1.991l0,-10.852Z" style="fill:#93753c;"/><clipPath id="_clip8"><path d="M48.157,47.92l3.107,9.476l2.63,-3.318l-0.45,7.036l2.881,-8.08l1.209,5.203l2.874,-6.17l0,3.704c0,0 1.254,2.571 2.126,1.62c3.613,-3.938 1.756,1.093 1.958,1.381c0.87,1.237 0,1.714 0,1.714l0.668,1.608c0,0 -1.569,-0.935 -0.668,0.918c0.901,1.852 2.607,3.629 1.421,3.625c-1.185,-0.005 -2.695,-1.475 -4.52,1.364c-0.277,0.429 -0.985,0.988 -0.985,0.988c0,0 -2.105,0.944 -3.122,1.061c-1.017,0.118 -0.687,0.871 -2.277,0.158c-1.591,-0.714 -2.425,-1.892 -2.768,-0.882c-0.344,1.01 -1.607,1.396 -1.607,1.396l-3.299,0.372l-0.499,-0.884c0,0 -2.291,-0.488 -4.413,0.493c-2.121,0.98 -3.357,2.832 -3.357,0.559c0,-2.273 -0.33,-2.193 -0.33,-2.193c0,0 0.002,-1.839 -1.212,-1.97c-1.214,-0.13 -3.73,-0.219 -3.73,-0.219l2.112,-1.595c0,0 -3.607,-2.223 -4.88,-2.543c-1.274,-0.32 -3.288,0.438 -3.288,0.438l1.798,1.815c0,0 -1.151,-1.041 -1.798,-0.797c-0.647,0.245 -3.118,-0.345 -3.118,-0.345l-0.966,-1.463c0,0 0.3,-0.389 1.251,-1.483c0.95,-1.095 1.52,-1.684 1.52,-1.684l0.096,-0.926l-1.422,-3.782l-0.417,-3.433l5.079,6.778l0.014,-5.416l2.828,4.169l0.666,-6.567l2.637,7.83c0,0 0.99,1.74 1.267,-0.351c0.278,-2.091 1.253,-6.68 1.253,-6.68l2.336,-3.267l-0.773,11.194l3.164,-1.401l0.92,-11.26l1.436,13.834l1.351,-3.164l1.297,1.991l0,-10.852Z"/></clipPath><g clip-path="url(#_clip8)"><path d="M66.351,54.331l-3.131,4.409l-2.812,0.087l1.352,-6.984l-1.352,-0.474l-2.701,10.408l-1.382,-2.606l1.834,-6.336l-2.724,-0.904l-0.78,11.767l-1.794,0.226l0.321,-10.161l-1.933,-1.92l-0.03,8.286l-6.248,-11.95l2.141,15.605l9.213,8.793l11.362,-5.155l-1.336,-13.091Z" style="fill:#c8e856;"/><path d="M41.402,50.458l-1.898,3.147l-1.073,5.858l-3.404,0.091l0.879,-2.069l1.019,-6.165l-2.53,-1.724l-1.252,9.761l-1.321,-1.571l0.385,-6.419l-1.343,0.595l-0.46,7.031l-1.557,-1.034l-0.69,-8.045l-2.132,1.837l1.265,6.38l-2.126,1.31l-6.479,4.365c0,0 8.417,3.71 9.557,4.233c1.14,0.524 6.737,5.007 6.737,5.007l10.023,1.593l3.155,-3.835l-6.558,-1.892l-0.976,-1.336l1.27,-1.029l3.437,-0.6l-2.614,-3.074l4.169,2.571l0.746,2.558l0.526,-3.06l-2.57,-2.242l-1.514,-2.5l1.271,-8.836l0.352,-5.972l-2.05,0.53l-0.951,8.034l0.361,5.123l-1.214,0.514l-0.44,-9.135Z" style="fill:#c8e856;"/></g><path d="M153.647,36.662l-0.777,-6.569l6.087,5.826l1.978,2.252l-1.185,-6.695l3.375,-1.687l3.739,3.254l-0.052,5.427l3.02,1.908l3.208,-5.223c0,0 0.07,-2.31 0.839,-0.301c0.768,2.009 1.672,7.835 1.672,7.835l0.089,2.835l3.226,-5.045c0,0 0.975,0.242 0.789,1.276c-0.186,1.034 -0.379,8.282 -0.379,8.282l1.8,1.29l2.149,0.782l4.337,3.423c0,0 -0.849,2.702 -2.663,2.714c-1.814,0.012 -6.974,1.619 -6.974,1.619c0,0 -1.801,1.324 -4.046,0.964c-2.245,-0.361 -6.665,-1.767 -6.665,-1.767c0,0 -2.712,-0.904 -4.319,-2.411c-1.607,-1.507 -0.717,-3.79 -2.97,-2.799c-2.254,0.991 -5.491,4.56 -5.491,4.56c0,0 -0.759,1.008 -3.13,-0.778c-2.372,-1.787 -3.175,-2.691 -3.175,-2.691l-0.589,-1.177c0,0 0.959,1.013 -0.683,0.342c-1.641,-0.671 -5.239,3.648 -5.349,1.739c-0.109,-1.908 3.129,-4.769 3.017,-5.649c-0.113,-0.88 2.401,-0.171 2.401,-0.171l-2.149,-3.749l-4.595,-5.018l5.372,1.36l1.134,-3.479l3.671,1.077l1.742,5.676l2.511,4.336l0.448,-5.934l-2.511,-3.516l1.098,-4.118Z" style="fill:#93753c;"/><clipPath id="_clip9"><path d="M153.647,36.662l-0.777,-6.569l6.087,5.826l1.978,2.252l-1.185,-6.695l3.375,-1.687l3.739,3.254l-0.052,5.427l3.02,1.908l3.208,-5.223c0,0 0.07,-2.31 0.839,-0.301c0.768,2.009 1.672,7.835 1.672,7.835l0.089,2.835l3.226,-5.045c0,0 0.975,0.242 0.789,1.276c-0.186,1.034 -0.379,8.282 -0.379,8.282l1.8,1.29l2.149,0.782l4.337,3.423c0,0 -0.849,2.702 -2.663,2.714c-1.814,0.012 -6.974,1.619 -6.974,1.619c0,0 -1.801,1.324 -4.046,0.964c-2.245,-0.361 -6.665,-1.767 -6.665,-1.767c0,0 -2.712,-0.904 -4.319,-2.411c-1.607,-1.507 -0.717,-3.79 -2.97,-2.799c-2.254,0.991 -5.491,4.56 -5.491,4.56c0,0 -0.759,1.008 -3.13,-0.778c-2.372,-1.787 -3.175,-2.691 -3.175,-2.691l-0.589,-1.177c0,0 0.959,1.013 -0.683,0.342c-1.641,-0.671 -5.239,3.648 -5.349,1.739c-0.109,-1.908 3.129,-4.769 3.017,-5.649c-0.113,-0.88 2.401,-0.171 2.401,-0.171l-2.149,-3.749l-4.595,-5.018l5.372,1.36l1.134,-3.479l3.671,1.077l1.742,5.676l2.511,4.336l0.448,-5.934l-2.511,-3.516l1.098,-4.118Z"/></clipPath><g clip-path="url(#_clip9)"><path d="M179.505,39.364l-4.327,15.019c3.04,-0.208 5.308,0.492 6.793,2.111l5.792,-0.862l-1.745,5.338l-8.093,-0.401c0,0 -2.556,-6.392 -2.414,-4.603c0.141,1.79 0.613,5.406 -1.632,7.315c-2.245,1.908 -4.542,0.749 -4.047,-0.429c0.496,-1.178 0,-4.046 0,-4.046l0,-1.954l-1.86,-3.023l-2.186,4.53l0,2.47l-1.803,-4.948l0.375,-2.431l0.109,-4.101c0,0 1.912,-5.72 0.672,-4.382c-1.24,1.338 -8.107,7.438 -8.107,7.438l-0.429,4.922l-2.956,4.648l0,-7.936l-2.505,-3.114l-5.588,1.909l-4.959,6.63l-1.01,-1.72l1.923,-6.115l3.564,-10.354l4.955,8.901l1.581,-0.483l2.039,1.02l1.768,-0.884l4.142,-8.3l0.23,4.161l1.953,-3.07l2.142,-1.071l-2.142,4.622l6.108,-4.543l0.104,1.933l0.869,4.753l1.011,2.399l1.928,0.964l0.806,1.715l-0.094,2.687l1.407,-5.254l1.718,-7.041l1.26,-3.305l-2.978,-7.975l-2.268,15.052l-1.779,-10.392l-1.011,-4.42l-3.794,-4.666l-1.94,3.077l2.699,9.442l-7.371,-7.732l-2.049,-2.23l-2.719,-1.808l3.112,12.237l-0.551,4.322l-2.561,1.281l0,-2.411l-4.046,-6.796l-2.761,1.757l3.764,10.782l-0.577,0.177l-19.861,-7.954l17.918,29.987l44.628,-1.964l1.398,-12.489l-14.605,-18.392Z" style="fill:#c8e856;"/></g><path d="M92.941,54.695l-2.328,-12.397l11.043,9.822l6.821,-6.933l-1.3,8.666l5.521,-10.207l2.166,6.817l6.032,-8.084l2.845,11.437l3.086,-9.506l2.436,7.421l9.309,-4.825l-5.657,10.375l-3.652,6.962c0,0 -6.342,-1.878 -7.955,-3.005c-1.613,-1.126 -2.271,-1.061 -4.428,-0.66c-2.157,0.401 -6.031,1.364 -9.703,1.846c-3.672,0.481 -9.628,2.353 -9.628,2.353l-5.645,-0.428c0,0 2.677,1.926 0,0c-2.677,-1.925 -4.553,-3.424 -4.553,-3.424l-6.119,-2.311l6.465,-0.427l5.244,-3.492Z" style="fill:#93753c;"/><clipPath id="_clip10"><path d="M92.941,54.695l-2.328,-12.397l11.043,9.822l6.821,-6.933l-1.3,8.666l5.521,-10.207l2.166,6.817l6.032,-8.084l2.845,11.437l3.086,-9.506l2.436,7.421l9.309,-4.825l-5.657,10.375l-3.652,6.962c0,0 -6.342,-1.878 -7.955,-3.005c-1.613,-1.126 -2.271,-1.061 -4.428,-0.66c-2.157,0.401 -6.031,1.364 -9.703,1.846c-3.672,0.481 -9.628,2.353 -9.628,2.353l-5.645,-0.428c0,0 2.677,1.926 0,0c-2.677,-1.925 -4.553,-3.424 -4.553,-3.424l-6.119,-2.311l6.465,-0.427l5.244,-3.492Z"/></clipPath><g clip-path="url(#_clip10)"><path d="M140.305,46.246l-7.731,6.736l-3.311,2.92c0,0 -0.121,-6.863 0,-6.863c0.121,0 -2.368,-6.544 -2.368,-6.544l-0.507,12.321l-2.647,1.06l0,-7.415l-2.965,-8.277l-2.556,13.573l-4.07,-3.563l2.53,-7.386l-3.982,-0.221l-2.541,10.269l-2.98,3.046l3.214,-9.556l-1.579,-2.339l-4.116,8.661l-3.04,2.822l3.417,-8.724l-14.46,-5.462l6.56,14.99l-8.555,-1.724l-16.218,3.905l9.31,8.661l11.489,0.169l7.179,-8.835c0,0 -0.665,0.149 3.526,0.366c4.19,0.217 11.54,0.188 11.54,0.188l0.977,1.728l8.344,5.19l13.426,-0.901l2.114,-18.795Z" style="fill:#c8e856;"/></g><path d="M172.108,74.854l1.313,6.539l1.789,-5.901l2.415,3.402l1.693,-4.384l4.46,-1.265l-2.675,-3.262l-0.255,-13.091l-3.769,12.032l-2.424,-11.087l-1.728,6.618l-3.66,-5.157l-0.331,6.596l0.375,4.647l-4.36,-1.445l4.321,4.828l-4.375,6.345l4.996,-1.468l0.74,1.726l1.475,-5.673" style="fill:#93753c;"/><clipPath id="_clip11"><path d="M172.108,74.854l1.313,6.539l1.789,-5.901l2.415,3.402l1.693,-4.384l4.46,-1.265l-2.675,-3.262l-0.255,-13.091l-3.769,12.032l-2.424,-11.087l-1.728,6.618l-3.66,-5.157l-0.331,6.596l0.375,4.647l-4.36,-1.445l4.321,4.828l-4.375,6.345l4.996,-1.468l0.74,1.726l1.475,-5.673"/></clipPath><g clip-path="url(#_clip11)"><path d="M180.848,56.892l-1.716,12.399l0.858,2.21l-2.068,2.455l-0.966,-4.788l1.31,-7.098l-2.891,-5.153l-0.847,-0.518l0.702,15.654l-2.408,-7.761l-0.909,-5.438l-2.536,0l2.185,12.401l-3.523,-1.131l-2.575,-5.411l-2.152,1.693l1.734,3.069l-0.239,14.207l5.327,-2.553l1.896,3.509l1.777,-1.9l0.609,-2.23l5.376,-1.138l4.771,-6.293l-2.739,-12.749l-0.976,-3.436" style="fill:#c8e856;"/></g></g></g></g></g></svg>