<?xml version="1.0" encoding="UTF-8" standalone="no"?><!DOCTYPE svg PUBLIC "-//W3C//DTD SVG 1.1//EN" "http://www.w3.org/Graphics/SVG/1.1/DTD/svg11.dtd"><svg width="100%" height="100%" viewBox="0 0 197 106" version="1.1" xmlns="http://www.w3.org/2000/svg" xmlns:xlink="http://www.w3.org/1999/xlink" xml:space="preserve" xmlns:serif="http://www.serif.com/" style="fill-rule:evenodd;clip-rule:evenodd;stroke-linejoin:round;stroke-miterlimit:1.41421;"><g id="Dirt_Block_Overlay02"><g><path d="M13.242,55.367l-8.163,-4.082l0.518,-8.196l9.044,-3.122l7.159,-4.979l10.548,-2.268l10.545,10.64l-4.089,8.688l-9.463,6.002l-16.099,-2.683Z" style="fill:#b08255;"/><path d="M61.541,27.261l-14.665,1.99l5.999,20.445l12.296,-0.564l9.122,2.541l2.035,-6.383l10.081,-7.005l-3.402,-9.358l-5.367,-4.479l-10.733,0.13l-5.366,2.683Z" style="fill:#b08255;"/><path d="M86.409,18.783l-14.135,-0.172l-9.298,2.591l-3.036,-1.518l-3.766,-1.883l2.822,-3.956l2.545,-4.094l6.616,-0.487l4.117,-2.058l5.366,-0.138l12.169,0.717l0.532,2.274l-0.175,6.845l-3.757,1.879Z" style="fill:#b08255;"/><path d="M117.858,3.058l-10.989,-2.843l-6.619,4.55l-5.099,5.691l3.956,4.218l10.733,3.127l10.733,3.66l7.91,3.118l-0.735,-4.999l3.558,-1.779l1.789,-4.473l-1.789,-2.862l-13.448,-7.408" style="fill:#b08255;"/><path d="M108.76,32.359l8.543,3.192l8.636,7.001l-7.698,7.954l-6.216,1.686l-4.098,5.503l-7.41,-1.623l-1.41,-9.774l-2.455,-7.885l6.25,-5.961l5.858,-0.093Z" style="fill:#b08255;"/><path d="M158.139,25.851l-13.211,1.238l-10.168,8.538l3.294,7.014l5.008,5.187l15.077,-0.511l8.504,4.252l3.968,-8.749l-0.46,-5.597l-3.623,-4.834l-8.389,-6.538Z" style="fill:#b08255;"/><path d="M138.977,62.264l-15.077,0.133l-11.775,7.927l6.219,5.395l6.229,3.114l16.5,-1.517l6.333,2.2l1.975,-6.354l12.428,-4.187l2.784,-6.111l-2.786,-2.98l-5.914,-0.711l-3.121,1.56l-13.795,1.531" style="fill:#b08255;"/><path d="M192.846,43.281c-1.868,0.206 -16.057,6.73 -16.057,6.73l-6.708,10.036l10.733,4.051l6.868,-5.059l9.232,-2.991c0,0 -2.201,-12.972 -4.068,-12.767Z" style="fill:#b08255;"/><path d="M86.58,59.145l8.114,8.245l0.779,11.123l-7.714,2.942l-12.603,-0.498l-7.551,-6.957l-4.782,-8.343l8.836,-3.206l8.82,-2.168l6.101,-1.138" style="fill:#b08255;"/><path d="M44.188,57.298l4.035,4.826l3.812,11.412l-9.176,4.588l-8.151,-4.808l-5.367,-6.652l10.733,-3.248l0,-2.181l1.741,-2.315l2.373,-1.622Z" style="fill:#b08255;"/><path d="M113.354,82.016l4.635,4.876l0,5.889l-9.703,6.295l-10.623,3.868l-3.426,-6.438l0,-10.177l19.117,-4.313Z" style="fill:#b08255;"/></g><g><g opacity="0.5"><path d="M8.867,59.594l-8.162,-4.081l1.352,-7.224l8.21,-4.095l7.158,-4.979l10.548,-2.267l10.546,10.639l-4.09,8.688l-9.462,6.002l-16.1,-2.683Z" style="fill:#814f2c;"/><path d="M57.166,31.489l-14.664,1.99l5.999,20.445l12.295,-0.565l9.123,2.542l2.034,-6.384l10.081,-7.005l-3.402,-9.357l-5.366,-4.48l-10.733,0.13l-5.367,2.684Z" style="fill:#814f2c;"/><path d="M82.034,23.01l-14.135,-0.172l-9.298,2.591l-3.035,-1.518l-3.039,-1.54l6.394,-3.197l-2.747,-1.373l7.608,-4.309l4.117,-2.059l5.367,-0.138l12.168,0.718l0.532,2.273l-0.174,6.846l-3.758,1.878Z" style="fill:#814f2c;"/><path d="M113.484,7.286l-10.99,-2.843l-6.618,4.549l-5.1,5.692l3.956,4.218l10.733,3.126l10.733,3.661l7.91,3.117l4.671,-3.021l-0.684,-5.709l-4.64,-2.676l1.788,-6.261l-11.759,-3.853" style="fill:#814f2c;"/><path d="M104.386,36.586l8.542,3.192l8.637,7.002l-3.32,3.714l-5.923,1.795l-8.769,9.634l-7.41,-1.624l-1.411,-9.773l-2.455,-7.886l6.25,-5.96l5.859,-0.094Z" style="fill:#814f2c;"/><path d="M153.764,30.078l-13.21,1.239l-10.168,8.538l3.293,7.013l5.008,5.187l15.077,-0.511l8.505,4.252l3.967,-8.749l-0.459,-5.596l-3.624,-4.834l-8.389,-6.539Z" style="fill:#814f2c;"/><path d="M134.603,66.492l-15.078,0.132l-11.774,7.927l6.219,5.395l6.228,3.114l16.501,-1.517l6.332,2.201l4.593,-4.119l1.769,-5.967l9.05,-3.08l1.776,-3.487l-2.786,-2.98l-5.915,-0.711l-3.12,1.561l-13.795,1.531" style="fill:#814f2c;"/><path d="M187.854,49.154c-1.868,0.206 -15.439,5.084 -15.439,5.084l-6.708,10.037l10.733,4.051l6.867,-5.06l9.232,-2.99c0,0 -2.818,-11.327 -4.685,-11.122Z" style="fill:#814f2c;"/><path d="M82.205,63.373l8.115,8.245l0.779,11.122l-7.715,2.943l-12.603,-0.498l-7.551,-6.958l-4.782,-8.342l8.836,-3.206l8.821,-2.169l6.1,-1.137" style="fill:#814f2c;"/><path d="M39.813,61.525l4.035,4.826l3.813,11.412l-5.546,1.288l-8.541,-4.271l-4.233,-7.482l4.233,-1.739l2.016,-0.503l4.214,-1.769l0.009,-1.762Z" style="fill:#814f2c;"/><path d="M108.98,86.244l4.634,4.875l0,5.89l-9.972,5.429l-8.784,2.917l-4.995,-4.621l0,-10.178l19.117,-4.312Z" style="fill:#814f2c;"/></g></g></g></svg>