<?xml version="1.0" encoding="UTF-8" standalone="no"?><!DOCTYPE svg PUBLIC "-//W3C//DTD SVG 1.1//EN" "http://www.w3.org/Graphics/SVG/1.1/DTD/svg11.dtd"><svg width="100%" height="100%" viewBox="0 0 215 205" version="1.1" xmlns="http://www.w3.org/2000/svg" xmlns:xlink="http://www.w3.org/1999/xlink" xml:space="preserve" xmlns:serif="http://www.serif.com/" style="fill-rule:evenodd;clip-rule:evenodd;stroke-linejoin:round;stroke-miterlimit:1.41421;"><g id="Dirt_Block02"><g><g><path d="M214.914,54.132l0,96.598l-107.331,53.666l0,-96.598l107.331,-53.666Z" style="fill:#b08255;"/><clipPath id="_clip1"><path d="M214.914,54.132l0,96.598l-107.331,53.666l0,-96.598l107.331,-53.666Z"/></clipPath><g clip-path="url(#_clip1)"><path d="M113.111,235.286l-7.471,-8.393l0.629,-15.38l4.861,-8.365l7.639,3.248l3.734,6.805l0.66,10.712l-10.052,11.373" style="fill:#e1aa80;"/><path d="M136.651,205.002l6.48,-6.062l-3.057,-12.565l-8.623,-2.464l-7.622,-1.443l-2.977,3.951l-3.5,-1.489l-5.378,1.086l-1.634,4.319l5.651,4.448l4.24,3.091l7.817,4.704l8.603,2.424Z" style="fill:#e1aa80;"/><path d="M173.638,211.307l7.62,-4.416l4.724,-10.592l-3.045,-9.558l-19.233,-2.963l-6.432,7.696l-1.006,7.709l6.329,7.428l11.043,4.696Z" style="fill:#e1aa80;"/><path d="M195.414,174.847l8.068,-10.665l-1.706,-5.942l-8.575,-19.294c0,0 -7.897,5.94 -10.383,6.016c-2.485,0.077 -7.683,4.453 -7.683,4.453l3.152,9.268l8.6,6.112l8.527,10.052Z" style="fill:#e1aa80;"/><path d="M147.311,179.519l10.639,-1.857l10.285,-7.606l-2.017,-7.625l-4.768,-5.692l-7.68,1.95l-4.984,5.389l-3.648,6.588l2.173,8.853" style="fill:#e1aa80;"/><path d="M206.123,207.033l-9.119,-6.381l-10.414,5.504l-4.461,14.856l14.945,3.037l6.387,-5.87l2.662,-11.146" style="fill:#e1aa80;"/><path d="M118.477,149.221l-7.47,-8.393l0.628,-15.38l4.862,-8.365l7.638,3.248l3.735,6.804l0.66,10.713l-10.053,11.373" style="fill:#e1aa80;"/><path d="M130.896,167.753l-9.714,-5.466l1.146,-6.212l5.191,-3.008l4.057,1.725l4.47,4.429l-0.085,5.597l-5.065,2.935Z" style="fill:#e1aa80;"/><path d="M161.179,144.158l-5.042,5.431l-10.806,-0.849l-2.237,-4.698l-1.606,-8.155l10.344,-11.542l3.07,5.211l5.436,0.955l2.991,10.126l-2.15,3.521" style="fill:#e1aa80;"/><path d="M146.999,121.138l6.479,-6.062l-3.056,-12.565l-8.623,-2.463l-7.623,-1.443l-2.976,3.95l-3.5,-1.489l-5.379,1.086l-1.633,4.32l5.65,4.447l4.241,3.091l7.816,4.704l8.604,2.424Z" style="fill:#e1aa80;"/><path d="M175.737,132.753l7.62,-4.416l4.724,-10.593l-3.045,-9.557l-19.234,-2.964l-6.431,7.697l-1.006,7.709l6.329,7.427l11.043,4.697Z" style="fill:#e1aa80;"/><path d="M203.421,98.609l8.069,-10.664l-1.707,-5.942l-8.574,-19.295c0,0 -7.897,5.94 -10.383,6.017c-2.486,0.076 -7.683,4.452 -7.683,4.452l3.152,9.269l8.6,6.112l8.526,10.051Z" style="fill:#e1aa80;"/><path d="M156.424,102.7l10.639,-1.857l10.285,-7.605l-2.017,-7.626l-4.768,-5.692l-7.679,1.951l-4.985,5.388l-3.648,6.589l2.173,8.852" style="fill:#e1aa80;"/><path d="M211.49,120.968l-9.119,-6.382l-10.415,5.505l-4.461,14.856l14.945,3.037l6.388,-5.87l2.662,-11.146" style="fill:#e1aa80;"/><path d="M123.997,259.089l-9.714,-5.466l1.146,-6.212l5.191,-3.008l4.057,1.725l4.47,4.429l-0.085,5.597l-5.065,2.935Zm30.283,-23.595l-5.042,5.431l-10.806,-0.849l-2.238,-4.698l-1.605,-8.155l10.344,-11.542l3.07,5.211l5.436,0.955l2.991,10.126l-2.15,3.521Zm-42.702,5.063l-7.471,-8.393l0.629,-15.38l4.861,-8.365l7.639,3.248l3.734,6.804l0.661,10.713l-10.053,11.373Zm93.013,-28.253l-2.663,11.146l-6.387,5.87l-14.945,-3.037l4.461,-14.856l10.414,-5.504l9.12,6.381Zm-32.486,4.274l7.621,-4.416l4.724,-10.592l-3.045,-9.558l-19.234,-2.963l-6.432,7.696l-1.005,7.709l6.328,7.428l11.043,4.696Zm-36.986,-6.305l6.48,-6.062l-3.057,-12.565l-8.623,-2.464l-7.622,-1.443l-2.977,3.95l-3.5,-1.488l-5.378,1.086l-1.634,4.319l5.651,4.448l4.24,3.091l7.816,4.704l8.604,2.424Zm10.659,-25.483l10.639,-1.857l10.285,-7.606l-2.016,-7.625l-4.769,-5.692l-7.679,1.95l-4.985,5.389l-3.648,6.588l2.173,8.853Zm48.103,-4.672l8.069,-10.665l-1.707,-5.942l-8.574,-19.294c0,0 -7.897,5.94 -10.383,6.016c-2.486,0.077 -7.683,4.453 -7.683,4.453l3.152,9.268l8.6,6.112l8.526,10.052Zm-64.518,-7.094l-9.713,-5.466l1.146,-6.212l5.191,-3.008l4.056,1.725l4.471,4.429l-0.085,5.597l-5.066,2.935Zm30.284,-23.595l-5.042,5.431l-10.806,-0.849l-2.238,-4.698l-1.605,-8.155l10.343,-11.542l3.071,5.211l5.436,0.955l2.99,10.126l-2.149,3.521Zm-42.702,5.063l-7.471,-8.393l0.629,-15.38l4.861,-8.365l7.639,3.248l3.734,6.804l0.66,10.713l-10.052,11.373Zm93.012,-28.253l-2.662,11.146l-6.387,5.87l-14.945,-3.037l4.461,-14.856l10.414,-5.505l9.119,6.382Zm-35.753,11.785l7.621,-4.416l4.724,-10.593l-3.046,-9.557l-19.233,-2.964l-6.432,7.697l-1.006,7.709l6.329,7.427l11.043,4.697Zm-28.738,-11.615l6.48,-6.062l-3.057,-12.565l-8.623,-2.463l-7.622,-1.443l-2.977,3.95l-3.5,-1.489l-5.378,1.086l-1.634,4.319l5.651,4.448l4.24,3.091l7.816,4.704l8.604,2.424Zm9.426,-18.438l10.639,-1.857l10.284,-7.605l-2.016,-7.626l-4.769,-5.692l-7.679,1.951l-4.985,5.388l-3.648,6.589l2.174,8.852Zm46.997,-4.091l8.068,-10.664l-1.706,-5.942l-8.575,-19.295c0,0 -7.897,5.94 -10.383,6.017c-2.485,0.076 -7.683,4.452 -7.683,4.452l3.152,9.269l8.6,6.112l8.527,10.051Z" style="fill:#814f2c;fill-opacity:0.5;"/></g></g><path d="M0.251,54.132l107.332,53.666l0,96.598l-107.332,-53.666l0,-96.598" style="fill:#684f32;"/><clipPath id="_clip2"><path d="M0.251,54.132l107.332,53.666l0,96.598l-107.332,-53.666l0,-96.598"/></clipPath><g clip-path="url(#_clip2)"><path d="M5.744,226.109l-7.471,-8.946l0.629,-16.394l4.861,-8.916l7.639,3.463l3.734,7.252l0.66,11.418l-10.052,12.123" style="fill:#815240;"/><path d="M48.446,220.712l-5.042,5.788l-10.806,-0.904l-2.238,-5.008l-1.605,-8.692l10.343,-12.302l3.071,5.554l5.436,1.018l2.99,10.793l-2.149,3.753" style="fill:#815240;"/><path d="M29.284,193.829l6.48,-6.461l-3.056,-13.393l-8.623,-2.625l-7.623,-1.538l-2.976,4.21l-3.5,-1.587l-5.379,1.157l-1.634,4.605l5.651,4.741l4.24,3.294l7.817,5.013l8.603,2.584Z" style="fill:#815240;"/><path d="M66.271,200.55l7.62,-4.707l4.724,-11.29l-3.045,-10.187l-19.233,-3.159l-6.432,8.204l-1.006,8.216l6.329,7.917l11.043,5.006Z" style="fill:#815240;"/><path d="M88.279,169.335l8.069,-11.367l-1.707,-6.334l-8.574,-20.565c0,0 -7.897,6.331 -10.383,6.413c-2.486,0.081 -7.683,4.745 -7.683,4.745l3.152,9.88l8.6,6.514l8.526,10.714Z" style="fill:#815240;"/><path d="M39.944,166.668l10.639,-1.98l10.285,-8.106l-2.017,-8.128l-4.768,-6.067l-7.679,2.079l-4.985,5.743l-3.648,7.023l2.173,9.436" style="fill:#815240;"/><path d="M105.943,183.913l-9.094,-6.35l-10.432,5.551l-4.516,14.884l14.93,2.979l6.408,-5.899l2.704,-11.165" style="fill:#815240;"/><path d="M11.11,134.374l-7.47,-8.945l0.628,-16.394l4.862,-8.916l7.638,3.463l3.735,7.252l0.66,11.418l-10.053,12.122" style="fill:#815240;"/><path d="M23.529,154.127l-9.713,-5.827l1.145,-6.62l5.192,-3.207l4.056,1.839l4.47,4.721l-0.084,5.965l-5.066,3.129Z" style="fill:#815240;"/><path d="M47.261,133.121l-5.042,5.788l-10.806,-0.904l-2.238,-5.008l-1.605,-8.692l10.344,-12.302l3.07,5.554l5.436,1.018l2.991,10.793l-2.15,3.753" style="fill:#815240;"/><path d="M16.959,96.515l9.013,-1.578l5.176,-12.725l-5.559,-7.095l-5.363,-5.631l-4.853,1.742l-1.958,-3.306l-5.069,-2.136l-3.979,2.835l1.911,7.124l1.585,5.13l3.529,8.59l5.567,7.05Z" style="fill:#815240;"/><path d="M57.672,115.083l7.621,-4.707l4.724,-11.29l-3.045,-10.187l-19.234,-3.159l-6.432,8.204l-1.006,8.216l6.329,7.917l11.043,5.006Z" style="fill:#815240;"/><path d="M93.413,69.954l8.069,-11.367l-1.706,-6.334l-8.575,-20.565c0,0 -7.897,6.331 -10.383,6.413c-2.486,0.082 -7.683,4.745 -7.683,4.745l3.152,9.88l8.6,6.514l8.526,10.714Z" style="fill:#815240;"/><path d="M45.311,74.934l10.639,-1.98l10.284,-8.106l-2.016,-8.128l-4.769,-6.067l-7.679,2.079l-4.985,5.743l-3.648,7.023l2.174,9.436" style="fill:#815240;"/><path d="M96.849,107.733l-9.119,-6.802l-10.414,5.868l-4.461,15.834l14.945,3.237l6.387,-6.256l2.662,-11.881" style="fill:#815240;"/><path d="M14.436,246.863l-9.714,-5.827l1.146,-6.621l5.191,-3.206l4.057,1.839l4.47,4.721l-0.085,5.965l-5.065,3.129Zm30.283,-25.149l-5.042,5.788l-10.806,-0.905l-2.238,-5.007l-1.605,-8.693l10.344,-12.302l3.07,5.555l5.436,1.018l2.991,10.793l-2.15,3.753Zm-42.702,5.396l-7.471,-8.946l0.629,-16.393l4.861,-8.916l7.639,3.462l3.734,7.253l0.661,11.418l-10.053,12.122Zm100.199,-42.196l-2.704,11.165l-6.408,5.9l-14.93,-2.979l4.516,-14.885l10.433,-5.55l9.093,6.349Zm-39.672,16.637l7.621,-4.706l4.724,-11.29l-3.045,-10.188l-19.234,-3.158l-6.432,8.204l-1.005,8.216l6.328,7.917l11.043,5.005Zm-36.986,-6.72l6.48,-6.461l-3.057,-13.393l-8.623,-2.626l-7.622,-1.538l-2.977,4.211l-3.5,-1.587l-5.378,1.157l-1.634,4.604l5.651,4.741l4.24,3.294l7.816,5.014l8.604,2.584Zm58.995,-24.495l8.068,-11.367l-1.706,-6.333l-8.575,-20.565c0,0 -7.897,6.331 -10.383,6.413c-2.486,0.081 -7.683,4.745 -7.683,4.745l3.152,9.88l8.6,6.514l8.527,10.713Zm-48.336,-2.667l10.639,-1.979l10.285,-8.106l-2.016,-8.128l-4.769,-6.067l-7.679,2.079l-4.985,5.743l-3.648,7.023l2.173,9.435Zm-16.415,-12.54l-9.713,-5.827l1.146,-6.621l5.191,-3.206l4.056,1.839l4.471,4.721l-0.085,5.965l-5.066,3.129Zm23.732,-21.006l-5.042,5.788l-10.805,-0.905l-2.238,-5.007l-1.605,-8.693l10.343,-12.302l3.071,5.555l5.435,1.018l2.991,10.793l-2.15,3.753Zm-36.15,1.253l-7.471,-8.946l0.629,-16.393l4.861,-8.916l7.639,3.462l3.734,7.253l0.66,11.418l-10.052,12.122Zm85.739,-26.641l-2.663,11.881l-6.387,6.256l-14.945,-3.237l4.461,-15.834l10.415,-5.868l9.119,6.802Zm-39.177,7.35l7.62,-4.707l4.724,-11.29l-3.045,-10.188l-19.234,-3.158l-6.431,8.204l-1.006,8.216l6.329,7.917l11.043,5.006Zm-40.714,-18.568l9.014,-1.578l5.175,-12.725l-5.559,-7.096l-5.363,-5.63l-4.853,1.742l-1.957,-3.307l-5.07,-2.136l-3.979,2.836l1.911,7.124l1.585,5.13l3.529,8.589l5.567,7.051Zm28.352,-21.582l10.639,-1.979l10.285,-8.106l-2.017,-8.128l-4.768,-6.067l-7.679,2.079l-4.985,5.743l-3.648,7.023l2.173,9.435Zm48.103,-4.98l8.069,-11.367l-1.707,-6.333l-8.575,-20.565c0,0 -7.897,6.331 -10.383,6.413c-2.485,0.081 -7.683,4.745 -7.683,4.745l3.152,9.88l8.6,6.514l8.527,10.713Z" style="fill:#0a0500;fill-opacity:0.3;"/></g></g><path d="M214.914,54.064l-107.331,-53.665l-107.332,53.665l107.332,53.666l107.331,-53.666Z" style="fill:#c78664;"/><clipPath id="_clip3"><path d="M214.914,54.064l-107.331,-53.665l-107.332,53.665l107.332,53.666l107.331,-53.666Z"/></clipPath><g clip-path="url(#_clip3)"><path d="M-11.777,21.174c0,0 25.753,7.572 44.228,16.791c10.716,5.347 10.435,12.284 12.301,17.627c6.806,19.49 22.136,14.676 56.519,21.33c14.621,2.83 30.458,10.551 38.511,14.708c16.652,8.596 35.774,8.946 35.774,8.946l-153.846,33.017l-67.966,-77.833l34.479,-34.586Z" style="fill:#b08255;"/><path d="M182.714,70.164c-1.62,-2.35 -41.139,-4.125 -39.942,-23.447c0.692,-11.186 -13.275,-6.448 -46.624,-17.141c-3.267,-1.048 -10.018,-7.712 -20.765,-13.078c-26.493,-13.227 -64.206,-12.397 -64.206,-12.397l153.224,-35.789l73.088,90.564l-54.775,11.288Z" style="fill:#b08255;"/></g><g><g><path d="M22.556,56.037l-8.162,-4.081l0.518,-8.197l9.044,-3.122l7.158,-4.979l10.549,-2.267l10.545,10.639l-4.09,8.688l-9.462,6.002l-16.1,-2.683Z" style="fill:#b08255;"/><path d="M70.855,27.931l-14.664,1.991l5.999,20.444l12.296,-0.564l9.122,2.542l2.035,-6.384l10.081,-7.005l-3.402,-9.357l-5.367,-4.48l-10.733,0.13l-5.367,2.683Z" style="fill:#b08255;"/><path d="M95.724,19.453l-14.135,-0.172l-9.298,2.591l-3.036,-1.518l-3.766,-1.883l2.821,-3.956l2.545,-4.094l6.616,-0.486l4.118,-2.059l5.366,-0.138l12.169,0.717l0.532,2.274l-0.175,6.845l-3.757,1.879Z" style="fill:#b08255;"/><path d="M127.173,3.728l-10.989,-2.842l-6.619,4.549l-5.099,5.691l3.955,4.218l10.734,3.127l10.733,3.661l7.91,3.117l-0.735,-4.999l3.558,-1.779l1.788,-4.472l-1.788,-2.863l-13.448,-7.408" style="fill:#b08255;"/><path d="M118.075,33.029l8.543,3.192l8.636,7.001l-7.698,7.955l-6.216,1.686l-4.098,5.503l-7.41,-1.624l-1.411,-9.773l-2.455,-7.886l6.251,-5.96l5.858,-0.094Z" style="fill:#b08255;"/><path d="M167.454,26.521l-13.211,1.238l-10.168,8.539l3.293,7.013l5.008,5.187l15.078,-0.511l8.504,4.252l3.968,-8.749l-0.46,-5.597l-3.623,-4.834l-8.389,-6.538Z" style="fill:#b08255;"/><path d="M148.292,62.934l-15.078,0.133l-11.774,7.927l6.219,5.395l6.229,3.114l16.5,-1.517l6.332,2.2l1.976,-6.354l12.428,-4.186l2.784,-6.112l-2.786,-2.98l-5.914,-0.711l-3.121,1.56l-13.795,1.531" style="fill:#b08255;"/><path d="M202.161,43.951c-1.868,0.206 -16.057,6.73 -16.057,6.73l-6.708,10.037l10.733,4.05l6.868,-5.059l9.232,-2.991c0,0 -2.201,-12.972 -4.068,-12.767Z" style="fill:#b08255;"/><path d="M95.895,59.815l8.114,8.245l0.779,11.123l-7.715,2.943l-12.603,-0.499l-7.551,-6.957l-4.782,-8.342l8.837,-3.207l8.82,-2.168l6.101,-1.138" style="fill:#b08255;"/><path d="M53.502,57.968l4.035,4.826l3.813,11.412l-9.177,4.588l-8.15,-4.808l-5.367,-6.651l10.733,-3.248l0,-2.182l1.741,-2.314l2.372,-1.623Z" style="fill:#b08255;"/><path d="M122.669,82.686l4.634,4.876l0,5.89l-9.703,6.294l-10.622,3.868l-3.426,-6.438l0,-10.177l19.117,-4.313Z" style="fill:#b08255;"/></g><g><g opacity="0.5"><path d="M18.182,60.264l-8.163,-4.081l1.353,-7.224l8.209,-4.095l7.159,-4.979l10.548,-2.267l10.546,10.639l-4.09,8.689l-9.462,6.002l-16.1,-2.684Z" style="fill:#814f2c;"/><path d="M66.481,32.159l-14.664,1.99l5.999,20.445l12.295,-0.564l9.123,2.541l2.034,-6.384l10.081,-7.005l-3.402,-9.357l-5.366,-4.48l-10.733,0.131l-5.367,2.683Z" style="fill:#814f2c;"/><path d="M91.349,23.681l-14.135,-0.173l-9.298,2.591l-3.035,-1.518l-3.039,-1.539l6.394,-3.198l-2.747,-1.373l7.608,-4.309l4.117,-2.059l5.367,-0.138l12.168,0.718l0.532,2.273l-0.174,6.846l-3.758,1.879Z" style="fill:#814f2c;"/><path d="M122.799,7.956l-10.99,-2.843l-6.618,4.549l-5.1,5.692l3.956,4.218l10.733,3.126l10.733,3.661l7.91,3.117l4.671,-3.021l-0.684,-5.709l-4.64,-2.676l1.788,-6.261l-11.759,-3.853" style="fill:#814f2c;"/><path d="M113.7,37.256l8.543,3.192l8.637,7.002l-3.32,3.714l-5.923,1.796l-8.77,9.633l-7.409,-1.623l-1.411,-9.774l-2.455,-7.885l6.25,-5.961l5.858,-0.094Z" style="fill:#814f2c;"/><path d="M163.079,30.748l-13.21,1.239l-10.169,8.538l3.294,7.013l5.008,5.188l15.077,-0.512l8.505,4.253l3.967,-8.75l-0.46,-5.596l-3.623,-4.834l-8.389,-6.539Z" style="fill:#814f2c;"/><path d="M143.917,67.162l-15.077,0.132l-11.775,7.927l6.22,5.395l6.228,3.114l16.5,-1.517l6.333,2.201l4.593,-4.118l1.769,-5.968l9.05,-3.08l1.776,-3.487l-2.787,-2.979l-5.914,-0.712l-3.12,1.561l-13.796,1.531" style="fill:#814f2c;"/><path d="M197.168,49.824c-1.867,0.206 -15.438,5.084 -15.438,5.084l-6.709,10.037l10.733,4.051l6.868,-5.06l9.232,-2.99c0,0 -2.818,-11.327 -4.686,-11.122Z" style="fill:#814f2c;"/><path d="M91.52,64.043l8.114,8.245l0.779,11.123l-7.714,2.942l-12.603,-0.498l-7.551,-6.958l-4.782,-8.342l8.836,-3.206l8.821,-2.168l6.1,-1.138" style="fill:#814f2c;"/><path d="M49.128,62.196l4.035,4.826l3.812,11.411l-5.545,1.288l-8.541,-4.27l-4.233,-7.483l4.233,-1.739l2.016,-0.503l4.214,-1.769l0.009,-1.761Z" style="fill:#814f2c;"/><path d="M118.294,86.914l4.635,4.875l0,5.89l-9.973,5.43l-8.784,2.916l-4.995,-4.621l0,-10.178l19.117,-4.312Z" style="fill:#814f2c;"/></g></g></g></g></svg>