<?xml version="1.0" encoding="UTF-8" standalone="no"?><!DOCTYPE svg PUBLIC "-//W3C//DTD SVG 1.1//EN" "http://www.w3.org/Graphics/SVG/1.1/DTD/svg11.dtd"><svg width="100%" height="100%" viewBox="0 0 216 205" version="1.1" xmlns="http://www.w3.org/2000/svg" xmlns:xlink="http://www.w3.org/1999/xlink" xml:space="preserve" xmlns:serif="http://www.serif.com/" style="fill-rule:evenodd;clip-rule:evenodd;stroke-linejoin:round;stroke-miterlimit:1.41421;"><g id="Dirt_Block20"><g><g><path d="M215.058,54.123l0,96.598l-107.331,53.665l0,-96.598l107.331,-53.665Z" style="fill:#559eb0;"/><clipPath id="_clip1"><path d="M215.058,54.123l0,96.598l-107.331,53.665l0,-96.598l107.331,-53.665Z"/></clipPath><g clip-path="url(#_clip1)"><path d="M113.255,235.277l-7.471,-8.393l0.629,-15.381l4.861,-8.364l7.639,3.248l3.734,6.804l0.661,10.713l-10.053,11.373" style="fill:#80e1e0;"/><path d="M136.796,204.992l6.479,-6.062l-3.056,-12.564l-8.623,-2.464l-7.623,-1.443l-2.976,3.95l-3.5,-1.488l-5.379,1.085l-1.633,4.32l5.65,4.448l4.241,3.091l7.816,4.703l8.604,2.424Z" style="fill:#80e1e0;"/><path d="M173.782,211.298l7.621,-4.416l4.724,-10.593l-3.046,-9.557l-19.233,-2.964l-6.432,7.697l-1.006,7.709l6.329,7.427l11.043,4.697Z" style="fill:#80e1e0;"/><path d="M195.558,174.837l8.069,-10.664l-1.707,-5.942l-8.575,-19.295c0,0 -7.896,5.94 -10.382,6.017c-2.486,0.077 -7.683,4.452 -7.683,4.452l3.152,9.269l8.599,6.112l8.527,10.051Z" style="fill:#80e1e0;"/><path d="M147.455,179.509l10.639,-1.857l10.285,-7.605l-2.017,-7.626l-4.768,-5.691l-7.679,1.95l-4.985,5.388l-3.648,6.589l2.173,8.852" style="fill:#80e1e0;"/><path d="M206.268,207.024l-9.12,-6.382l-10.414,5.505l-4.461,14.856l14.945,3.037l6.387,-5.87l2.663,-11.146" style="fill:#80e1e0;"/><path d="M118.622,149.212l-7.471,-8.393l0.629,-15.381l4.861,-8.364l7.639,3.248l3.734,6.804l0.66,10.713l-10.052,11.373" style="fill:#80e1e0;"/><path d="M131.04,167.744l-9.713,-5.467l1.145,-6.211l5.192,-3.009l4.056,1.725l4.471,4.43l-0.085,5.596l-5.066,2.936Z" style="fill:#405a81;"/><path d="M161.323,144.149l-5.042,5.43l-10.805,-0.848l-2.238,-4.699l-1.605,-8.155l10.343,-11.541l3.071,5.211l5.435,0.955l2.991,10.126l-2.15,3.521" style="fill:#405a81;"/><path d="M147.143,121.129l6.48,-6.062l-3.057,-12.565l-8.623,-2.464l-7.622,-1.443l-2.977,3.95l-3.5,-1.488l-5.378,1.086l-1.634,4.319l5.651,4.448l4.24,3.091l7.816,4.703l8.604,2.425Z" style="fill:#80e1e0;"/><path d="M175.881,132.743l7.62,-4.416l4.724,-10.592l-3.045,-9.558l-19.233,-2.963l-6.432,7.697l-1.006,7.708l6.329,7.428l11.043,4.696Z" style="fill:#80e1e0;"/><path d="M203.565,98.6l8.069,-10.665l-1.706,-5.941l-8.575,-19.295c0,0 -7.897,5.94 -10.383,6.017c-2.486,0.076 -7.683,4.452 -7.683,4.452l3.152,9.269l8.6,6.112l8.526,10.051Z" style="fill:#80e1e0;"/><path d="M156.568,102.691l10.639,-1.857l10.285,-7.605l-2.016,-7.626l-4.769,-5.692l-7.679,1.95l-4.985,5.389l-3.648,6.588l2.173,8.853" style="fill:#405a81;"/><path d="M211.634,120.959l-9.119,-6.382l-10.414,5.505l-4.462,14.856l14.946,3.036l6.387,-5.869l2.662,-11.146" style="fill:#405a81;"/><path d="M129.098,172.599l-9.714,-5.467l1.146,-6.212l5.191,-3.008l4.057,1.725l4.47,4.429l-0.085,5.597l-5.065,2.936Zm30.283,-23.595l-5.042,5.43l-10.806,-0.849l-2.238,-4.698l-1.605,-8.155l10.344,-11.542l3.07,5.211l5.436,0.955l2.99,10.127l-2.149,3.521Zm50.311,-23.19l-2.663,11.146l-6.387,5.869l-14.945,-3.037l4.461,-14.855l10.414,-5.505l9.12,6.382Zm-55.066,-18.269l10.639,-1.857l10.285,-7.605l-2.017,-7.626l-4.768,-5.691l-7.68,1.95l-4.984,5.388l-3.648,6.589l2.173,8.852Z" style="fill:#0a0500;fill-opacity:0.3;"/><path d="M133.853,209.698l6.48,-6.062l-3.057,-12.564l-8.623,-2.464l-7.622,-1.443l-2.977,3.95l-3.5,-1.488l-5.378,1.085l-1.634,4.32l5.651,4.448l4.24,3.091l7.816,4.703l8.604,2.424Zm10.66,-25.483l10.639,-1.857l10.284,-7.605l-2.016,-7.626l-4.769,-5.691l-7.679,1.95l-4.985,5.388l-3.647,6.589l2.173,8.852Zm48.102,-4.672l8.069,-10.664l-1.706,-5.942l-8.575,-19.295c0,0 -7.897,5.94 -10.383,6.017c-2.486,0.077 -7.683,4.452 -7.683,4.452l3.152,9.269l8.6,6.112l8.526,10.051Zm-76.936,-25.625l-7.471,-8.393l0.629,-15.381l4.861,-8.364l7.639,3.248l3.734,6.804l0.66,10.713l-10.052,11.373Zm57.259,-16.469l7.621,-4.416l4.724,-10.592l-3.045,-9.558l-19.234,-2.963l-6.432,7.697l-1.005,7.708l6.328,7.428l11.043,4.696Zm-28.738,-11.614l6.48,-6.062l-3.057,-12.565l-8.623,-2.464l-7.622,-1.443l-2.977,3.95l-3.5,-1.488l-5.378,1.086l-1.634,4.319l5.651,4.448l4.24,3.091l7.817,4.703l8.603,2.425Zm56.423,-22.529l8.069,-10.665l-1.707,-5.941l-8.575,-19.295c0,0 -7.897,5.94 -10.382,6.017c-2.486,0.076 -7.683,4.452 -7.683,4.452l3.151,9.269l8.6,6.112l8.527,10.051Z" style="fill:#5ca3c4;fill-opacity:0.5;"/></g></g><path d="M0.396,54.123l107.331,53.665l0,96.598l-107.331,-53.665l0,-96.598" style="fill:#325568;"/><clipPath id="_clip2"><path d="M0.396,54.123l107.331,53.665l0,96.598l-107.331,-53.665l0,-96.598"/></clipPath><g clip-path="url(#_clip2)"><path d="M5.888,226.099l-7.471,-8.946l0.629,-16.393l4.861,-8.916l7.639,3.462l3.734,7.253l0.661,11.418l-10.053,12.122" style="fill:#405a81;"/><path d="M48.59,220.703l-5.042,5.788l-10.806,-0.905l-2.238,-5.008l-1.605,-8.692l10.344,-12.302l3.07,5.555l5.436,1.018l2.991,10.793l-2.15,3.753" style="fill:#405a81;"/><path d="M29.429,193.82l6.479,-6.462l-3.056,-13.392l-8.623,-2.626l-7.622,-1.538l-2.977,4.211l-3.5,-1.587l-5.378,1.157l-1.634,4.604l5.651,4.741l4.24,3.294l7.816,5.014l8.604,2.584Z" style="fill:#405a81;"/><path d="M66.415,200.54l7.621,-4.706l4.724,-11.29l-3.045,-10.188l-19.234,-3.158l-6.432,8.204l-1.005,8.216l6.328,7.917l11.043,5.005Z" style="fill:#559eb0;"/><path d="M88.423,169.325l8.069,-11.367l-1.706,-6.333l-8.575,-20.565c0,0 -7.897,6.331 -10.383,6.413c-2.486,0.081 -7.683,4.745 -7.683,4.745l3.152,9.879l8.6,6.515l8.526,10.713Z" style="fill:#405a81;"/><path d="M40.088,166.658l10.639,-1.979l10.285,-8.106l-2.016,-8.128l-4.769,-6.067l-7.679,2.079l-4.985,5.743l-3.648,7.023l2.173,9.435" style="fill:#405a81;"/><path d="M106.087,183.903l-9.093,-6.349l-10.433,5.55l-4.516,14.885l14.93,2.979l6.408,-5.9l2.704,-11.165" style="fill:#405a81;"/><path d="M11.255,134.365l-7.471,-8.946l0.629,-16.394l4.861,-8.915l7.639,3.462l3.734,7.253l0.66,11.418l-10.052,12.122" style="fill:#559eb0;"/><path d="M23.673,154.118l-9.713,-5.827l1.146,-6.621l5.191,-3.206l4.056,1.839l4.471,4.72l-0.085,5.966l-5.066,3.129Z" style="fill:#559eb0;"/><path d="M47.405,133.112l-5.042,5.788l-10.805,-0.905l-2.238,-5.007l-1.605,-8.693l10.343,-12.302l3.071,5.555l5.435,1.018l2.991,10.793l-2.15,3.753" style="fill:#405a81;"/><path d="M17.103,96.506l9.014,-1.578l5.175,-12.725l-5.559,-7.096l-5.363,-5.631l-4.853,1.743l-1.957,-3.307l-5.07,-2.136l-3.979,2.835l1.911,7.125l1.585,5.13l3.529,8.589l5.567,7.051Z" style="fill:#405a81;"/><path d="M57.817,115.073l7.62,-4.706l4.724,-11.29l-3.045,-10.188l-19.234,-3.158l-6.431,8.204l-1.006,8.216l6.329,7.917l11.043,5.005Z" style="fill:#559eb0;"/><path d="M93.558,69.944l8.068,-11.367l-1.706,-6.333l-8.575,-20.565c0,0 -7.897,6.331 -10.383,6.413c-2.485,0.081 -7.683,4.745 -7.683,4.745l3.152,9.88l8.6,6.514l8.527,10.713Z" style="fill:#405a81;"/><path d="M45.455,74.924l10.639,-1.979l10.285,-8.106l-2.017,-8.128l-4.768,-6.067l-7.68,2.079l-4.984,5.743l-3.648,7.023l2.173,9.435" style="fill:#405a81;"/><path d="M96.994,107.724l-9.12,-6.802l-10.414,5.867l-4.461,15.835l14.945,3.236l6.387,-6.256l2.663,-11.88" style="fill:#405a81;"/><path d="M14.58,246.854l-9.713,-5.827l1.145,-6.621l5.192,-3.206l4.056,1.838l4.47,4.721l-0.084,5.966l-5.066,3.129Zm30.283,-25.149l-5.042,5.788l-10.806,-0.905l-2.237,-5.008l-1.605,-8.692l10.343,-12.302l3.071,5.554l5.435,1.018l2.991,10.794l-2.15,3.753Zm-42.702,5.396l-7.47,-8.946l0.629,-16.394l4.861,-8.915l7.639,3.462l3.734,7.252l0.66,11.419l-10.053,12.122Zm100.199,-42.196l-2.703,11.165l-6.408,5.899l-14.93,-2.979l4.516,-14.884l10.432,-5.551l9.093,6.35Zm-39.671,16.637l7.62,-4.707l4.724,-11.29l-3.045,-10.187l-19.234,-3.159l-6.431,8.204l-1.006,8.217l6.329,7.917l11.043,5.005Zm-36.987,-6.72l6.48,-6.462l-3.057,-13.392l-8.623,-2.626l-7.622,-1.538l-2.977,4.21l-3.5,-1.586l-5.378,1.157l-1.634,4.604l5.651,4.741l4.24,3.294l7.816,5.014l8.604,2.584Zm58.995,-24.495l8.069,-11.367l-1.707,-6.333l-8.575,-20.566c0,0 -7.897,6.332 -10.382,6.413c-2.486,0.082 -7.683,4.746 -7.683,4.746l3.152,9.879l8.599,6.515l8.527,10.713Zm-48.335,-2.667l10.639,-1.979l10.285,-8.106l-2.017,-8.129l-4.768,-6.066l-7.68,2.079l-4.984,5.743l-3.648,7.022l2.173,9.436Zm-16.415,-12.54l-9.714,-5.827l1.146,-6.621l5.191,-3.206l4.057,1.838l4.47,4.721l-0.085,5.966l-5.065,3.129Zm23.732,-21.006l-5.042,5.788l-10.806,-0.905l-2.238,-5.008l-1.605,-8.692l10.344,-12.302l3.07,5.554l5.436,1.019l2.99,10.793l-2.149,3.753Zm-36.151,1.253l-7.471,-8.946l0.629,-16.394l4.861,-8.915l7.639,3.462l3.734,7.252l0.661,11.419l-10.053,12.122Zm85.739,-26.641l-2.662,11.88l-6.387,6.256l-14.946,-3.237l4.462,-15.834l10.414,-5.867l9.119,6.802Zm-39.177,7.349l7.62,-4.706l4.724,-11.291l-3.045,-10.187l-19.233,-3.158l-6.432,8.203l-1.006,8.217l6.329,7.917l11.043,5.005Zm-40.714,-18.568l9.014,-1.578l5.175,-12.724l-5.559,-7.096l-5.362,-5.631l-4.853,1.743l-1.958,-3.307l-5.07,-2.136l-3.978,2.835l1.911,7.125l1.585,5.13l3.528,8.589l5.567,7.05Zm28.352,-21.581l10.639,-1.979l10.285,-8.107l-2.017,-8.128l-4.768,-6.066l-7.679,2.079l-4.985,5.743l-3.648,7.022l2.173,9.436Zm48.103,-4.98l8.069,-11.367l-1.707,-6.333l-8.575,-20.566c0,0 -7.896,6.332 -10.382,6.413c-2.486,0.082 -7.683,4.746 -7.683,4.746l3.152,9.879l8.599,6.515l8.527,10.713Z" style="fill:#0a0500;fill-opacity:0.3;"/></g></g><path d="M215.058,54.123l-107.331,53.665l-107.331,-53.665l107.331,-53.666l107.331,53.666Z" style="fill:#64b8c7;"/><clipPath id="_clip3"><path d="M215.058,54.123l-107.331,53.665l-107.331,-53.665l107.331,-53.666l107.331,53.666Z"/></clipPath><g clip-path="url(#_clip3)"><path d="M-11.632,87.012c0,0 25.752,-7.572 44.227,-16.79c10.716,-5.347 10.435,-12.284 12.301,-17.627c6.806,-19.49 22.136,-14.676 56.519,-21.33c14.621,-2.83 30.458,-10.551 38.511,-14.708c16.652,-8.596 35.774,-8.946 35.774,-8.946l-153.846,-33.017l-67.966,77.833l34.48,34.585Z" style="fill:#559eb0;"/><path d="M182.859,38.023c-1.62,2.35 -41.14,4.125 -39.943,23.447c0.693,11.186 -13.275,6.448 -46.624,17.141c-3.267,1.047 -10.018,7.712 -20.764,13.078c-26.494,13.226 -64.207,12.396 -64.207,12.396l153.225,35.79l73.087,-90.565l-54.774,-11.287Z" style="fill:#559eb0;"/><path d="M204.325,32.656l-10.733,18.239l13.64,-0.686l-2.436,4.149l-16.571,9.305l2.123,4.937l-26.034,-2.284l-1.43,10.018l-1.491,8.917l-16.1,-6.979l10.733,-19.423l-26.833,8.749l16.1,5.308l-7.726,6.87l7.726,14.596l-16.1,24.149l-7.61,-30.638l-13.856,-1.561l-23.316,22.391l17.949,-8.975l5.367,-2.683l8.795,4.397l1.938,11.703l-29.585,12.04l-13.347,-17.407l5.366,-8.05l5.367,-8.049l7.193,-12.504l5.764,-4.708l19.242,6.478l-5.367,-9.949l-10.733,-3.467l2.544,-4.095l10.294,-7.691l13.995,-1.63l17.754,-1.856l19.812,-0.828l21.466,-16.099l-5.366,-8.05l-16.1,18.783l-48.299,2.683l-21.466,10.733l-5.367,8.05l-26.833,13.416l-26.832,18.783l29.761,-4.147l-5.63,-7.918l24.168,-12.084l-16.1,21.221l-5.367,16.345l-45.484,-1.276l2.552,-20.19l21.466,-5.367l-2.175,-20.379l-3.191,-6.286l-13.335,-14.885l-21.473,-0.004l7.975,3.988l7.731,1.501l8.368,14.766l0,13.249l-45.061,-9.669l28.962,-35.947l28.732,1.734l3.467,3.633l5.367,13.416l1.112,5.923l4.254,7.494l-4.254,13.972l9.621,-11.289l5.366,-2.683l10.734,-2.493l3.536,-4.642l-11.143,3.332l-8.111,1.31l4.984,-16.123l23.617,-1.775l24.682,-3.759l16.1,4.443l5.367,-2.683l-18.429,-14.012l-49.471,14.003l-7.232,-1.751l-16.1,-13.416l19.28,-9.64l20.333,5.933l41.536,0.698l15.449,-13.091l-7.197,-1.768l-33.511,8.247l-18.324,-6.808l18.324,-9.292l3.142,1.571l21.467,0l21.466,-5.366l5.366,13.416l-1.861,9.802l-3.505,6.307l0,8.041l2.251,4.241l10.842,-0.055l8.373,-4.186l5.367,-8.05l-3.607,-1.804l-4.537,5.876l-2.589,1.294l-5.367,-0.923l3.322,-16.199l39.61,1.69l29.257,19.587l-13.157,-22.503l-62.157,-28.83l-179.338,55.228l0,96.598l81.962,57.081l189.432,-80.08l-20.237,-60.718l-20.395,-20.931Z" style="fill:#325568;fill-opacity:0.6;"/><path d="M201.792,34.014l-10.733,18.239l13.64,-0.686l-2.436,4.149l-16.571,9.306l2.123,4.936l-26.034,-2.284l-1.43,10.018l-1.491,8.917l-16.1,-6.979l10.733,-19.423l-26.833,8.749l16.1,5.308l-7.726,6.87l7.726,14.596l-16.1,24.149l-7.61,-30.638l-13.856,-1.561l-23.316,22.391l17.949,-8.975l5.367,-2.683l8.795,4.397l1.938,11.703l-29.585,12.04l-13.347,-17.407l5.366,-8.05l5.367,-8.049l7.193,-12.504l5.764,-4.708l19.242,6.478l-5.366,-9.949l-10.734,-3.467l2.544,-4.095l10.294,-7.691l13.995,-1.63l17.754,-1.856l19.812,-0.828l21.466,-16.099l-5.366,-8.05l-16.1,18.783l-48.299,2.683l-21.466,10.733l-5.367,8.05l-26.833,13.416l-26.832,18.783l29.761,-4.147l-5.63,-7.918l24.168,-12.084l-16.1,21.221l-5.367,16.345l-45.484,-1.276l2.552,-20.19l21.466,-5.367l-2.175,-20.379l-3.191,-6.286l-13.335,-14.885l-21.473,-0.003l7.975,3.987l7.731,1.501l8.368,14.766l0,13.249l-45.061,-9.668l28.962,-35.948l28.732,1.734l3.467,3.633l5.367,13.416l1.112,5.923l4.254,7.494l-4.254,13.972l9.621,-11.289l5.366,-2.683l10.734,-2.492l3.536,-4.643l-11.143,3.332l-8.111,1.311l4.984,-16.124l23.617,-1.775l24.683,-3.759l16.099,4.443l5.367,-2.683l-18.429,-14.012l-49.471,14.003l-7.232,-1.751l-16.1,-13.416l19.28,-9.64l20.333,5.933l41.536,0.698l15.449,-13.091l-7.197,-1.768l-33.511,8.247l-18.324,-6.808l18.324,-9.292l3.142,1.571l21.467,0l21.466,-5.366l5.366,13.416l-1.861,9.802l-3.505,6.307l0,8.041l2.251,4.241l10.842,-0.055l8.373,-4.186l5.367,-8.05l-3.607,-1.804l-4.537,5.876l-2.589,1.294l-5.367,-0.923l3.322,-16.199l39.611,1.69l29.256,19.587l-13.157,-22.503l-62.157,-28.83l-179.338,55.228l0,96.598l81.962,57.081l189.432,-80.08l-20.237,-60.718l-20.395,-20.931Z" style="fill:#325568;fill-opacity:0.6;"/></g></g></svg>