<?xml version="1.0" encoding="UTF-8" standalone="no"?><!DOCTYPE svg PUBLIC "-//W3C//DTD SVG 1.1//EN" "http://www.w3.org/Graphics/SVG/1.1/DTD/svg11.dtd"><svg width="100%" height="100%" viewBox="0 0 216 205" version="1.1" xmlns="http://www.w3.org/2000/svg" xmlns:xlink="http://www.w3.org/1999/xlink" xml:space="preserve" xmlns:serif="http://www.serif.com/" style="fill-rule:evenodd;clip-rule:evenodd;stroke-linejoin:round;stroke-miterlimit:1.41421;"><g id="Dirt_Block11"><g><path d="M215.187,54.489l0,96.598l-107.331,53.666l0,-96.598l107.331,-53.666Z" style="fill:#559eb0;"/><clipPath id="_clip1"><path d="M215.187,54.489l0,96.598l-107.331,53.666l0,-96.598l107.331,-53.666Z"/></clipPath><g clip-path="url(#_clip1)"><path d="M225.92,81.322c0,0 -0.413,0.222 -10.733,5.367c-10.32,5.144 -14.753,-1.584 -36.187,16.43c-12.668,10.647 -32.324,14.249 -42.702,17.648c-10.379,3.398 -20.246,15.679 -28.442,19.587c-1.063,0.507 -17.841,-16.236 -35.586,-25.139c-13.158,-6.603 -25.581,-4.453 -39.181,-11.104c-13.876,-6.785 -26.048,-15.178 -32.565,-17.422c-30.354,-10.454 -10.672,-5.44 -14.521,-5.559c-61.465,-1.896 -65.578,60.674 46.721,60.773c17.511,0.016 64.04,57.512 75.132,52.117c11.091,-5.395 20.968,-25.25 56.522,-36.757c32.41,-10.49 38.333,-10.121 50.809,-16.909c12.476,-6.788 10.733,-59.032 10.733,-59.032Z" style="fill:#80e1e0;fill-opacity:0.75;"/></g></g><path d="M0.524,54.489l107.332,53.666l0,96.598l-107.332,-53.666l0,-96.598" style="fill:#405a81;"/><clipPath id="_clip2"><path d="M0.524,54.489l107.332,53.666l0,96.598l-107.332,-53.666l0,-96.598"/></clipPath><g clip-path="url(#_clip2)"><path d="M68.191,113.421c1.354,0.517 2.712,1.108 4.079,1.794c17.745,8.904 34.523,25.646 35.586,25.139c8.196,-3.908 18.063,-16.189 28.442,-19.587c10.379,-3.399 30.035,-7.001 42.702,-17.648c21.434,-18.014 25.868,-11.285 36.187,-16.43c10.32,-5.145 10.733,-5.367 10.733,-5.367c0,0 1.743,52.244 -10.733,59.032c-12.475,6.788 -18.399,6.419 -50.808,16.909c-35.555,11.507 -45.431,31.362 -56.523,36.757c-6.784,3.299 -26.824,-16.927 -45.374,-33.139c1.69,-4.532 3.193,-9.326 4.306,-14.228c2.51,-11.048 1.437,-23.122 1.403,-33.232Zm-100.612,-30.677c5.162,-1.182 11.068,-1.78 17.642,-1.634l0.782,0.021c3.849,0.118 -15.832,-4.896 14.522,5.558c5.656,1.948 15.571,8.527 27.164,14.667c-0.085,13.035 -0.524,26.734 -5.698,33.632c-1.515,2.019 -2.761,4.21 -3.771,6.531c-5.039,-0.445 -9.748,-3.468 -17.295,-1.245c-3.564,1.05 -4.763,-1.021 -8.028,-1.617l-25.318,-55.913Zm32.946,3.945c-30.354,-10.454 -10.673,-5.44 -14.522,-5.558c-0.261,-0.008 -0.522,-0.015 -0.782,-0.021l15.304,5.579Z" style="fill:#80e1e0;fill-opacity:0.2;"/><path d="M24.653,208.789c-0.06,-0.151 -20.928,-49.451 -2.662,-73.801c10.94,-14.586 0.71,-59.579 10.733,-64.399c10.793,-5.191 10.435,-12.284 12.301,-17.627c6.806,-19.49 22.136,-14.676 56.519,-21.331c14.621,-2.829 30.458,-10.551 38.511,-14.708c16.652,-8.595 35.774,-8.946 35.774,-8.946l-153.846,-33.017l-67.966,77.834l70.636,155.995Z" style="fill:#0a0500;fill-opacity:0.3;"/><path d="M182.988,38.389c-1.621,2.35 -41.14,4.125 -39.943,23.447c0.692,11.186 -13.275,6.449 -46.624,17.142c-3.267,1.047 -10.018,7.712 -20.765,13.077c-13.079,6.53 -3.871,32.597 -8.868,54.598c-1.653,7.278 -4.164,14.319 -6.872,20.613c-6.349,14.757 -13.78,25.414 -13.78,25.414c-20.826,124.084 114.656,18.405 169.051,-22.849l22.575,-120.154l-54.774,-11.288Z" style="fill:#0a0500;fill-opacity:0.3;"/></g><path d="M215.187,54.489l-107.331,53.666l-55.749,-27.874l-51.583,-25.792l107.332,-53.666l107.331,53.666Z" style="fill:#64b8c7;"/><clipPath id="_clip3"><path d="M215.187,54.489l-107.331,53.666l-55.749,-27.874l-51.583,-25.792l107.332,-53.666l107.331,53.666Z"/></clipPath><g clip-path="url(#_clip3)"><path d="M24.653,208.789c-0.06,-0.151 -20.928,-49.451 -2.662,-73.801c10.94,-14.586 0.71,-59.579 10.733,-64.399c10.793,-5.191 10.435,-12.284 12.301,-17.627c6.806,-19.49 22.136,-14.676 56.519,-21.331c14.621,-2.829 30.458,-10.551 38.511,-14.708c16.652,-8.595 35.774,-8.946 35.774,-8.946l-153.846,-33.017l-67.966,77.834l70.636,155.995Z" style="fill:#559eb0;"/><path d="M182.988,38.389c-1.621,2.35 -41.14,4.125 -39.943,23.447c0.692,11.186 -13.275,6.449 -46.624,17.142c-3.267,1.047 -10.018,7.712 -20.765,13.077c-13.079,6.53 -3.871,32.597 -8.868,54.598c-5.529,24.34 -20.652,46.027 -20.652,46.027c-20.826,124.084 114.656,18.405 169.051,-22.849l22.575,-120.154l-54.774,-11.288Z" style="fill:#559eb0;"/></g></g></svg>