<?xml version="1.0" encoding="UTF-8" standalone="no"?><!DOCTYPE svg PUBLIC "-//W3C//DTD SVG 1.1//EN" "http://www.w3.org/Graphics/SVG/1.1/DTD/svg11.dtd"><svg width="100%" height="100%" viewBox="0 0 108 151" version="1.1" xmlns="http://www.w3.org/2000/svg" xmlns:xlink="http://www.w3.org/1999/xlink" xml:space="preserve" xmlns:serif="http://www.serif.com/" style="fill-rule:evenodd;clip-rule:evenodd;stroke-linejoin:round;stroke-miterlimit:1.41421;"><g id="Dirt_Block_Wall02"><path d="M0.078,0.304l107.331,53.666l0,96.598l-107.331,-53.666l0,-96.598" style="fill:#325568;"/><clipPath id="_clip1"><path d="M0.078,0.304l107.331,53.666l0,96.598l-107.331,-53.666l0,-96.598"/></clipPath><g clip-path="url(#_clip1)"><path d="M5.57,172.281l-7.47,-8.946l0.628,-16.394l4.862,-8.915l7.638,3.462l3.735,7.252l0.66,11.419l-10.053,12.122" style="fill:#405a81;"/><path d="M48.272,166.884l-5.042,5.789l-10.806,-0.905l-2.237,-5.008l-1.605,-8.692l10.343,-12.302l3.071,5.554l5.435,1.018l2.991,10.794l-2.15,3.752" style="fill:#405a81;"/><path d="M29.111,140.002l6.48,-6.462l-3.057,-13.392l-8.623,-2.626l-7.622,-1.538l-2.977,4.21l-3.5,-1.586l-5.378,1.157l-1.634,4.604l5.651,4.741l4.24,3.294l7.816,5.014l8.604,2.584Z" style="fill:#405a81;"/><path d="M66.098,146.722l7.62,-4.707l4.724,-11.29l-3.045,-10.187l-19.234,-3.159l-6.431,8.204l-1.006,8.216l6.329,7.918l11.043,5.005Z" style="fill:#559eb0;"/><path d="M88.106,115.507l8.069,-11.367l-1.707,-6.333l-8.575,-20.566c0,0 -7.897,6.332 -10.382,6.413c-2.486,0.082 -7.683,4.746 -7.683,4.746l3.151,9.879l8.6,6.515l8.527,10.713Z" style="fill:#405a81;"/><path d="M39.771,112.84l10.639,-1.979l10.284,-8.107l-2.016,-8.128l-4.769,-6.066l-7.679,2.079l-4.985,5.743l-3.647,7.022l2.173,9.436" style="fill:#405a81;"/><path d="M105.769,130.085l-9.093,-6.35l-10.432,5.551l-4.517,14.884l14.931,2.979l6.408,-5.899l2.703,-11.165" style="fill:#405a81;"/><path d="M10.937,80.547l-7.471,-8.946l0.629,-16.394l4.861,-8.915l7.639,3.462l3.734,7.252l0.66,11.419l-10.052,12.122" style="fill:#559eb0;"/><path d="M23.356,100.299l-9.714,-5.826l1.146,-6.621l5.191,-3.206l4.057,1.838l4.47,4.721l-0.085,5.966l-5.065,3.128Z" style="fill:#559eb0;"/><path d="M47.088,79.293l-5.042,5.789l-10.806,-0.905l-2.238,-5.008l-1.605,-8.692l10.343,-12.302l3.071,5.554l5.436,1.018l2.99,10.794l-2.149,3.752" style="fill:#405a81;"/><path d="M16.785,42.687l9.014,-1.578l5.175,-12.724l-5.559,-7.096l-5.362,-5.631l-4.853,1.743l-1.958,-3.307l-5.07,-2.136l-3.978,2.835l1.911,7.124l1.584,5.131l3.529,8.589l5.567,7.05Z" style="fill:#405a81;"/><path d="M57.499,61.255l7.62,-4.707l4.724,-11.29l-3.045,-10.187l-19.233,-3.158l-6.432,8.203l-1.006,8.217l6.329,7.917l11.043,5.005Z" style="fill:#559eb0;"/><path d="M93.24,16.126l8.069,-11.367l-1.707,-6.333l-8.575,-20.566c0,0 -7.896,6.332 -10.382,6.413c-2.486,0.082 -7.683,4.746 -7.683,4.746l3.152,9.879l8.599,6.515l8.527,10.713Z" style="fill:#405a81;"/><path d="M45.137,21.106l10.639,-1.979l10.285,-8.107l-2.017,-8.128l-4.768,-6.066l-7.679,2.078l-4.985,5.744l-3.648,7.022l2.173,9.436" style="fill:#405a81;"/><path d="M96.676,53.906l-9.119,-6.802l-10.414,5.867l-4.462,15.834l14.945,3.237l6.388,-6.256l2.662,-11.88" style="fill:#405a81;"/><path d="M14.262,193.035l-9.713,-5.826l1.146,-6.621l5.191,-3.207l4.057,1.839l4.47,4.721l-0.085,5.966l-5.066,3.128Zm30.284,-25.149l-5.042,5.788l-10.806,-0.904l-2.238,-5.008l-1.605,-8.692l10.343,-12.302l3.071,5.554l5.436,1.018l2.99,10.793l-2.149,3.753Zm-42.702,5.397l-7.471,-8.946l0.629,-16.394l4.861,-8.916l7.639,3.463l3.734,7.252l0.66,11.419l-10.052,12.122Zm100.199,-42.196l-2.704,11.165l-6.408,5.899l-14.93,-2.979l4.516,-14.884l10.432,-5.551l9.094,6.35Zm-39.672,16.637l7.62,-4.707l4.724,-11.29l-3.045,-10.187l-19.233,-3.159l-6.432,8.204l-1.006,8.216l6.329,7.917l11.043,5.006Zm-36.987,-6.721l6.48,-6.461l-3.056,-13.392l-8.624,-2.626l-7.622,-1.538l-2.976,4.21l-3.501,-1.586l-5.378,1.157l-1.634,4.604l5.651,4.741l4.24,3.294l7.817,5.013l8.603,2.584Zm58.995,-24.494l8.069,-11.367l-1.707,-6.333l-8.574,-20.566c0,0 -7.897,6.331 -10.383,6.413c-2.486,0.082 -7.683,4.746 -7.683,4.746l3.152,9.879l8.6,6.515l8.526,10.713Zm-48.335,-2.667l10.639,-1.98l10.285,-8.106l-2.017,-8.128l-4.768,-6.066l-7.679,2.078l-4.985,5.744l-3.648,7.022l2.173,9.436Zm-16.415,-12.541l-9.713,-5.826l1.145,-6.621l5.192,-3.207l4.056,1.839l4.47,4.721l-0.084,5.965l-5.066,3.129Zm23.732,-21.006l-5.042,5.788l-10.806,-0.904l-2.238,-5.008l-1.605,-8.692l10.344,-12.302l3.07,5.554l5.436,1.018l2.991,10.793l-2.15,3.753Zm-36.151,1.254l-7.47,-8.946l0.628,-16.394l4.862,-8.916l7.638,3.463l3.735,7.252l0.66,11.419l-10.053,12.122Zm85.739,-26.641l-2.662,11.88l-6.387,6.256l-14.945,-3.237l4.461,-15.834l10.414,-5.868l9.119,6.803Zm-39.177,7.349l7.621,-4.707l4.724,-11.29l-3.045,-10.187l-19.234,-3.159l-6.432,8.204l-1.006,8.216l6.329,7.918l11.043,5.005Zm-40.713,-18.568l9.013,-1.578l5.176,-12.724l-5.559,-7.096l-5.363,-5.631l-4.853,1.742l-1.958,-3.306l-5.069,-2.136l-3.979,2.835l1.911,7.124l1.585,5.13l3.529,8.59l5.567,7.05Zm28.352,-21.581l10.639,-1.98l10.284,-8.106l-2.016,-8.128l-4.769,-6.066l-7.679,2.078l-4.985,5.744l-3.648,7.022l2.174,9.436Zm48.102,-4.98l8.069,-11.367l-1.707,-6.333l-8.574,-20.566c0,0 -7.897,6.332 -10.383,6.413c-2.486,0.082 -7.683,4.746 -7.683,4.746l3.152,9.879l8.6,6.515l8.526,10.713Z" style="fill:#0a0500;fill-opacity:0.3;"/></g></g></svg>