<?xml version="1.0" encoding="UTF-8" standalone="no"?><!DOCTYPE svg PUBLIC "-//W3C//DTD SVG 1.1//EN" "http://www.w3.org/Graphics/SVG/1.1/DTD/svg11.dtd"><svg width="100%" height="100%" viewBox="0 0 216 205" version="1.1" xmlns="http://www.w3.org/2000/svg" xmlns:xlink="http://www.w3.org/1999/xlink" xml:space="preserve" xmlns:serif="http://www.serif.com/" style="fill-rule:evenodd;clip-rule:evenodd;stroke-linejoin:round;stroke-miterlimit:1.41421;"><g id="Dirt_Block17"><g><g><path d="M215.425,54.445l0,96.599l-107.332,53.665l0,-96.598l107.332,-53.666Z" style="fill:#559eb0;"/><clipPath id="_clip1"><path d="M215.425,54.445l0,96.599l-107.332,53.665l0,-96.598l107.332,-53.666Z"/></clipPath><g clip-path="url(#_clip1)"><path d="M113.622,235.6l-7.471,-8.393l0.629,-15.381l4.861,-8.364l7.639,3.248l3.734,6.804l0.66,10.713l-10.052,11.373" style="fill:#80e1e0;"/><path d="M137.162,205.315l6.48,-6.062l-3.057,-12.564l-8.623,-2.464l-7.622,-1.443l-2.977,3.95l-3.5,-1.488l-5.378,1.085l-1.634,4.32l5.651,4.448l4.24,3.09l7.816,4.704l8.604,2.424Z" style="fill:#80e1e0;"/><path d="M174.149,211.621l7.62,-4.416l4.724,-10.593l-3.045,-9.557l-19.234,-2.964l-6.431,7.697l-1.006,7.709l6.329,7.427l11.043,4.697Z" style="fill:#80e1e0;"/><path d="M195.925,175.16l8.068,-10.664l-1.706,-5.942l-8.575,-19.295c0,0 -7.897,5.94 -10.383,6.017c-2.486,0.077 -7.683,4.452 -7.683,4.452l3.152,9.269l8.6,6.112l8.527,10.051Z" style="fill:#80e1e0;"/><path d="M147.822,179.832l10.639,-1.857l10.285,-7.605l-2.017,-7.626l-4.768,-5.691l-7.68,1.95l-4.984,5.388l-3.648,6.589l2.173,8.852" style="fill:#80e1e0;"/><path d="M206.634,207.347l-9.119,-6.382l-10.414,5.505l-4.462,14.856l14.946,3.036l6.387,-5.869l2.662,-11.146" style="fill:#80e1e0;"/><path d="M118.988,149.535l-7.471,-8.393l0.629,-15.381l4.861,-8.365l7.639,3.249l3.734,6.804l0.661,10.713l-10.053,11.373" style="fill:#80e1e0;"/><path d="M131.407,168.067l-9.714,-5.467l1.146,-6.211l5.191,-3.009l4.057,1.725l4.47,4.43l-0.085,5.596l-5.065,2.936Z" style="fill:#405a81;"/><path d="M161.69,144.472l-5.042,5.43l-10.806,-0.848l-2.238,-4.699l-1.605,-8.155l10.344,-11.541l3.07,5.211l5.436,0.955l2.991,10.126l-2.15,3.521" style="fill:#405a81;"/><path d="M147.509,121.452l6.48,-6.063l-3.056,-12.564l-8.623,-2.464l-7.623,-1.443l-2.976,3.95l-3.5,-1.488l-5.379,1.085l-1.634,4.32l5.651,4.448l4.24,3.091l7.817,4.703l8.603,2.425Z" style="fill:#80e1e0;"/><path d="M176.248,133.066l7.62,-4.416l4.724,-10.592l-3.045,-9.558l-19.234,-2.963l-6.431,7.697l-1.006,7.708l6.329,7.428l11.043,4.696Z" style="fill:#80e1e0;"/><path d="M203.932,98.923l8.069,-10.665l-1.707,-5.942l-8.575,-19.294c0,0 -7.896,5.94 -10.382,6.017c-2.486,0.076 -7.683,4.452 -7.683,4.452l3.152,9.269l8.599,6.112l8.527,10.051Z" style="fill:#80e1e0;"/><path d="M156.935,103.014l10.639,-1.857l10.285,-7.606l-2.017,-7.625l-4.768,-5.692l-7.679,1.95l-4.985,5.389l-3.648,6.588l2.173,8.853" style="fill:#405a81;"/><path d="M212.001,121.282l-9.12,-6.382l-10.414,5.505l-4.461,14.856l14.945,3.036l6.387,-5.869l2.663,-11.146" style="fill:#405a81;"/><path d="M129.464,172.921l-9.713,-5.466l1.145,-6.212l5.192,-3.008l4.056,1.725l4.47,4.429l-0.084,5.597l-5.066,2.935Zm30.283,-23.594l-5.042,5.43l-10.805,-0.849l-2.238,-4.698l-1.605,-8.155l10.343,-11.542l3.071,5.211l5.435,0.955l2.991,10.127l-2.15,3.521Zm50.311,-23.191l-2.662,11.147l-6.387,5.869l-14.946,-3.037l4.462,-14.855l10.414,-5.505l9.119,6.381Zm-55.066,-18.268l10.639,-1.857l10.285,-7.605l-2.016,-7.626l-4.769,-5.691l-7.679,1.95l-4.985,5.388l-3.648,6.589l2.173,8.852Z" style="fill:#0a0500;fill-opacity:0.3;"/><path d="M134.22,210.021l6.479,-6.062l-3.056,-12.564l-8.623,-2.464l-7.623,-1.443l-2.976,3.95l-3.5,-1.488l-5.379,1.085l-1.633,4.32l5.65,4.448l4.241,3.09l7.816,4.704l8.604,2.424Zm10.659,-25.483l10.639,-1.857l10.285,-7.605l-2.017,-7.626l-4.768,-5.691l-7.679,1.95l-4.985,5.388l-3.648,6.589l2.173,8.852Zm48.103,-4.672l8.069,-10.664l-1.707,-5.942l-8.575,-19.295c0,0 -7.897,5.94 -10.382,6.017c-2.486,0.077 -7.683,4.452 -7.683,4.452l3.152,9.269l8.599,6.112l8.527,10.051Zm-76.937,-25.625l-7.47,-8.393l0.629,-15.381l4.861,-8.364l7.639,3.248l3.734,6.804l0.66,10.713l-10.053,11.373Zm57.26,-16.469l7.62,-4.416l4.724,-10.592l-3.045,-9.558l-19.233,-2.963l-6.432,7.697l-1.006,7.708l6.329,7.428l11.043,4.696Zm-28.738,-11.614l6.48,-6.063l-3.057,-12.564l-8.623,-2.464l-7.622,-1.443l-2.977,3.95l-3.5,-1.488l-5.378,1.085l-1.634,4.32l5.651,4.448l4.24,3.091l7.816,4.703l8.604,2.425Zm56.422,-22.529l8.069,-10.665l-1.706,-5.942l-8.575,-19.294c0,0 -7.897,5.94 -10.383,6.017c-2.486,0.076 -7.683,4.452 -7.683,4.452l3.152,9.269l8.6,6.112l8.526,10.051Z" style="fill:#5ca3c4;fill-opacity:0.5;"/></g></g><path d="M0.762,54.445l107.331,53.666l0,96.598l-107.331,-53.665l0,-96.599" style="fill:#325568;"/><clipPath id="_clip2"><path d="M0.762,54.445l107.331,53.666l0,96.598l-107.331,-53.665l0,-96.599"/></clipPath><g clip-path="url(#_clip2)"><path d="M6.255,226.422l-7.471,-8.946l0.629,-16.394l4.861,-8.915l7.639,3.462l3.734,7.253l0.66,11.418l-10.052,12.122" style="fill:#405a81;"/><path d="M48.957,221.026l-5.043,5.788l-10.805,-0.905l-2.238,-5.008l-1.605,-8.692l10.343,-12.302l3.071,5.555l5.435,1.018l2.991,10.793l-2.149,3.753" style="fill:#405a81;"/><path d="M29.795,194.143l6.48,-6.462l-3.057,-13.392l-8.623,-2.626l-7.622,-1.538l-2.977,4.21l-3.5,-1.586l-5.378,1.157l-1.634,4.604l5.651,4.741l4.24,3.294l7.817,5.014l8.603,2.584Z" style="fill:#405a81;"/><path d="M66.782,200.863l7.62,-4.707l4.724,-11.29l-3.045,-10.187l-19.233,-3.158l-6.432,8.203l-1.006,8.217l6.329,7.917l11.043,5.005Z" style="fill:#559eb0;"/><path d="M88.79,169.648l8.069,-11.367l-1.707,-6.333l-8.575,-20.565c0,0 -7.896,6.331 -10.382,6.412c-2.486,0.082 -7.683,4.746 -7.683,4.746l3.152,9.879l8.599,6.515l8.527,10.713Z" style="fill:#405a81;"/><path d="M40.455,166.981l10.639,-1.979l10.285,-8.106l-2.017,-8.128l-4.768,-6.067l-7.68,2.079l-4.984,5.743l-3.648,7.023l2.173,9.435" style="fill:#405a81;"/><path d="M106.454,184.226l-9.094,-6.35l-10.432,5.551l-4.516,14.885l14.93,2.979l6.408,-5.9l2.704,-11.165" style="fill:#405a81;"/><path d="M11.621,134.688l-7.47,-8.946l0.628,-16.394l4.861,-8.915l7.639,3.462l3.735,7.252l0.66,11.419l-10.053,12.122" style="fill:#559eb0;"/><path d="M24.04,154.441l-9.714,-5.827l1.146,-6.621l5.191,-3.206l4.057,1.838l4.47,4.721l-0.085,5.966l-5.065,3.129Z" style="fill:#559eb0;"/><path d="M47.772,133.435l-5.042,5.788l-10.806,-0.905l-2.238,-5.008l-1.605,-8.692l10.344,-12.302l3.07,5.555l5.436,1.018l2.99,10.793l-2.149,3.753" style="fill:#405a81;"/><path d="M17.47,96.829l9.013,-1.578l5.175,-12.725l-5.558,-7.096l-5.363,-5.631l-4.853,1.743l-1.958,-3.307l-5.07,-2.136l-3.978,2.835l1.911,7.125l1.585,5.13l3.528,8.589l5.568,7.051Z" style="fill:#405a81;"/><path d="M58.183,115.396l7.621,-4.706l4.724,-11.29l-3.046,-10.188l-19.233,-3.158l-6.432,8.204l-1.006,8.216l6.329,7.917l11.043,5.005Z" style="fill:#559eb0;"/><path d="M93.924,70.267l8.069,-11.367l-1.707,-6.333l-8.574,-20.565c0,0 -7.897,6.331 -10.383,6.413c-2.486,0.081 -7.683,4.745 -7.683,4.745l3.152,9.879l8.6,6.515l8.526,10.713Z" style="fill:#405a81;"/><path d="M45.821,75.247l10.639,-1.979l10.285,-8.106l-2.016,-8.128l-4.769,-6.067l-7.679,2.079l-4.985,5.743l-3.648,7.022l2.173,9.436" style="fill:#405a81;"/><path d="M97.36,108.047l-9.119,-6.802l-10.414,5.867l-4.461,15.835l14.945,3.236l6.387,-6.256l2.662,-11.88" style="fill:#405a81;"/><path d="M14.947,247.177l-9.714,-5.827l1.146,-6.621l5.191,-3.206l4.057,1.838l4.47,4.721l-0.085,5.966l-5.065,3.129Zm30.283,-25.15l-5.042,5.789l-10.806,-0.905l-2.238,-5.008l-1.605,-8.692l10.344,-12.302l3.07,5.554l5.436,1.018l2.99,10.794l-2.149,3.752Zm-42.702,5.397l-7.471,-8.946l0.629,-16.394l4.861,-8.915l7.639,3.462l3.734,7.252l0.661,11.419l-10.053,12.122Zm100.199,-42.196l-2.704,11.165l-6.408,5.899l-14.93,-2.979l4.516,-14.884l10.433,-5.551l9.093,6.35Zm-39.672,16.637l7.621,-4.707l4.724,-11.29l-3.045,-10.187l-19.234,-3.159l-6.432,8.204l-1.006,8.216l6.329,7.918l11.043,5.005Zm-36.986,-6.72l6.479,-6.462l-3.056,-13.392l-8.623,-2.626l-7.623,-1.538l-2.976,4.21l-3.5,-1.586l-5.378,1.157l-1.634,4.604l5.651,4.741l4.24,3.294l7.816,5.014l8.604,2.584Zm58.994,-24.495l8.069,-11.367l-1.706,-6.333l-8.575,-20.566c0,0 -7.897,6.332 -10.383,6.413c-2.486,0.082 -7.683,4.746 -7.683,4.746l3.152,9.879l8.6,6.515l8.526,10.713Zm-48.335,-2.667l10.639,-1.979l10.285,-8.107l-2.017,-8.128l-4.768,-6.066l-7.679,2.079l-4.985,5.743l-3.648,7.022l2.173,9.436Zm-16.415,-12.541l-9.713,-5.826l1.146,-6.621l5.191,-3.206l4.056,1.838l4.471,4.721l-0.085,5.966l-5.066,3.128Zm23.732,-21.005l-5.042,5.788l-10.806,-0.905l-2.237,-5.008l-1.605,-8.692l10.343,-12.302l3.071,5.554l5.435,1.018l2.991,10.794l-2.15,3.753Zm-36.15,1.253l-7.471,-8.946l0.629,-16.394l4.861,-8.915l7.639,3.462l3.734,7.252l0.66,11.419l-10.052,12.122Zm85.739,-26.641l-2.663,11.88l-6.387,6.256l-14.945,-3.237l4.461,-15.834l10.414,-5.867l9.12,6.802Zm-39.177,7.349l7.62,-4.707l4.724,-11.29l-3.045,-10.187l-19.234,-3.158l-6.431,8.203l-1.006,8.217l6.329,7.917l11.043,5.005Zm-40.714,-18.568l9.014,-1.578l5.175,-12.724l-5.559,-7.096l-5.363,-5.631l-4.853,1.743l-1.957,-3.307l-5.07,-2.136l-3.979,2.835l1.911,7.124l1.585,5.131l3.529,8.589l5.567,7.05Zm28.352,-21.581l10.639,-1.979l10.285,-8.107l-2.017,-8.128l-4.768,-6.066l-7.68,2.078l-4.984,5.744l-3.648,7.022l2.173,9.436Zm48.103,-4.98l8.068,-11.367l-1.706,-6.333l-8.575,-20.566c0,0 -7.897,6.332 -10.383,6.413c-2.485,0.082 -7.683,4.746 -7.683,4.746l3.152,9.879l8.6,6.515l8.527,10.713Z" style="fill:#0a0500;fill-opacity:0.3;"/></g></g><path d="M215.425,54.445l-107.332,-53.665l-107.331,53.665l107.331,53.666l107.332,-53.666Z" style="fill:#64b8c7;"/><path d="M109.485,11.235c0,0 22.197,6.624 42.968,16.081c23.225,10.575 41.514,16.967 42.932,26.833c0.689,4.791 -63.107,40.333 -85.9,42.951c-20.083,2.306 -85.219,-38.894 -85.83,-42.951c-1.172,-7.792 74.91,-45.097 85.83,-42.914Z" style="fill:#405a81;fill-opacity:0.428571;"/><path d="M103.534,26.017c26.612,1.03 30.819,-0.225 41.015,5.822c7.746,4.594 16.418,12.433 15.956,18.382c-1.128,14.521 -25.736,33.177 -42.182,33.929c-7.737,0.354 -23.906,-4.985 -32.666,-7.315c-9.861,-2.622 -20.102,-16.125 -23.281,-20.659c-12.359,-17.627 5.936,-31.521 41.158,-30.159Z" style="fill:#405a81;fill-opacity:0.5;"/><g id="GrassBlank04"><path d="M105.985,96.112l3.65,3.111l-2.942,-14.901l-0.708,11.79Zm5.98,-2.359l1.826,5.369l-4.156,0.101l-2.902,-14.971l5.232,9.501Zm-25.855,-19.882l8.319,13.904l-3.088,2.427l-4.798,-0.195l-4.901,2.537l-4.067,-2.232l-2.902,-1.472l-6.054,-10.617l3.415,2.346l4.234,3.248l-1.913,-6.056l4.024,5.295l2.642,3.995l-0.641,-8.162l-2.208,-3.602l6.076,7.413l1.5,4.161l1.349,-0.722l-0.987,-12.268Zm70.788,3.887c-0.219,0.114 -0.569,0.4 -1.128,1.001c-1.683,1.812 -4.257,3.187 -5.651,3.951c-1.394,0.764 -0.785,0.928 -3.91,0.999c-3.125,0.07 -2.295,0.147 -6.628,0.07c-4.333,-0.076 -1.992,3.055 -6.807,-0.229c-4.816,-3.284 -0.862,-6.568 -4.708,-3.284c-3.846,3.284 -4.7,3.895 -5.819,4.812c-1.119,0.916 -2.153,0.229 -2.153,0.229c0,0 -0.923,-0.535 -2.039,-1.222c-1.115,-0.688 -1.364,-0.306 -2.104,-1.146c-0.739,-0.84 -0.819,-1.825 -0.819,-1.825c0,0 -1.469,-0.735 1.423,-2.51c2.891,-1.775 2.627,-1.469 -0.591,-2.08c-3.219,-0.612 -4.416,-1.177 -4.416,-1.177l2.671,-1.42l-1.595,-5.499l-6.04,-5.117l7.589,2.291l2.431,6.797l2.387,-5.284l-1.718,-4.224l5.142,2.453l-0.142,5.186l3.681,2.525l1.159,-5.03l-1.583,-0.361l4.417,-2.597l1.677,1.952l1.021,6.984l2.702,-6.645l-0.307,-1.527l4.094,2.367l0.475,3.586l0.911,3.279l3.424,-6.998l0.422,6.37l3.839,-0.313l0.196,-4.147l-3.144,-2.464l4.136,1.069l2.125,5.499l5.38,3.679Zm0,0c0.44,-0.231 0.348,0.238 0.348,0.238l-0.348,-0.238Zm-120.169,-31.382c-0.043,0.076 -0.271,0.069 -0.9,-0.155c-1.627,-0.579 -4.189,3.149 -4.621,1.502c-0.432,-1.647 2.052,-4.116 1.796,-4.876c-0.257,-0.759 2.18,-0.147 2.18,-0.147l-2.629,-3.236l-5.101,-4.33l5.181,1.174l0.44,-3.003l3.565,0.93l2.59,4.898l3.064,3.742l-0.619,-5.121l-2.922,-3.034l0.296,-3.554l-1.856,-5.669l6.615,5.028l2.211,1.944l-2.253,-5.778l2.813,-1.456l4.007,2.808l0.895,4.683l3.111,1.647l2.045,-4.507c0,0 -0.337,-1.994 0.72,-0.26c1.056,1.733 2.9,6.761 2.9,6.761l0.574,2.447l2.093,-4.354c0,0 0.94,0.209 0.948,1.101c0.008,0.893 1.089,7.148 1.089,7.148l1.881,1.113l2.114,0.675l4.586,2.953c0,0 -0.312,2.333 -1.979,2.343c-1.668,0.01 -6.138,1.397 -6.138,1.397c0,0 -0.497,0.397 -1.34,0.659l9.457,8.543l4.552,-7.699l0.774,9.624l2.659,-11.335l3.46,7.57l3.59,-8.977l5.101,12.7l0.636,-10.556l3.838,8.241l7.25,-5.358l-2.742,11.521l-1.712,7.73c0,0 -6.093,-2.085 -7.788,-3.336c-1.694,-1.25 -2.269,-1.178 -4.109,-0.733c-1.84,0.445 -5.09,1.515 -8.268,2.049c-3.177,0.535 -8.087,2.614 -8.087,2.614l-5.145,-0.475c-2.826,-2.139 -4.839,-3.802 -4.839,-3.802l-5.991,-2.567l5.689,-0.475l3.91,-3.876l-3.941,-11.182c-0.166,-0.007 -0.336,-0.023 -0.511,-0.049c-2.129,-0.311 -6.441,-1.524 -6.441,-1.524c0,0 -2.654,-0.78 -4.395,-2.081c-1.741,-1.3 -1.317,-3.271 -3.219,-2.415c-1.902,0.855 -4.263,3.935 -4.263,3.935c0,0 -0.523,0.87 -3.016,-0.672c-2.492,-1.541 -3.389,-2.321 -3.389,-2.321l-0.416,-0.567c0.068,-0.12 -0.33,-0.449 -0.33,-0.449l0.33,0.449Zm135.472,20.94l3.037,5.643l1.566,-5.093l4.088,2.936l1.691,-3.782l6.238,-1.092l-4.44,-2.815l-2.643,-11.298l-3.368,10.384l-5.436,-9.568l-1.353,5.711l-6.195,-4.45l0.666,5.692l1.35,4.01l-6.564,-1.247l7.094,4.166l-5.233,5.476l6.981,-1.267l1.37,1.489l1.151,-4.895Zm-155.468,-11.294l2.457,1.247l-5.603,-11.733l6.846,8.205l1.859,-4.169l2.482,4.809l2.38,-3.342l1.76,-1.509l4.242,9.444l2.236,-1.159l1.269,7.25l2.61,3.909c0,0 -2.092,0.875 -2.54,1.612c-0.448,0.738 1.626,2.816 -1.049,1.917c-2.674,-0.899 -3.559,-0.588 -5.074,-2.064c-1.516,-1.475 -2.924,-2.8 -2.924,-2.8l-3.427,0.293c0,0 -1.931,-3.153 -1.703,0.146c0.227,3.299 -3.803,-2.863 -3.803,-2.863l-4.115,-5.771l2.097,-3.422Zm96.618,-20.038c0,0 3.675,-0.458 -1.116,0.863c-4.792,1.321 -4.004,0.118 -8.468,0.605c-4.463,0.486 -1.178,2.041 -6.929,1.263c-5.75,-0.777 -4.396,-3.191 -6.363,-0.777c-1.967,2.414 -0.687,2.069 -2.501,4.024c-1.814,1.954 -3.176,-0.818 -5.669,-3.628c-2.493,-2.81 -6.467,-6.354 -7.201,-4.697c-0.734,1.657 4.027,1.542 -1.384,1.772c-5.412,0.23 -7.766,5.843 -6.663,-0.988c1.103,-6.83 0.289,-6.14 0.289,-6.14l-10.298,-7.555l14.034,1.576l-2.706,-7.439l12.169,5.37l2.857,-10.347l9.608,10.261l2.729,-7.294l2.174,4.161l0.585,-5.749l3.507,6.645l2.109,5.542l-0.121,-9.427l1.515,3.012l3.748,-1.403l0.663,3.293l1.86,-7.667l2.156,9.387l3.123,3.15c0,0 2.325,4.667 1.252,6.127c-0.597,0.812 -2.062,2.593 -3.246,4.015l5.714,6.284l-1.378,-6.933l4.495,5.337l-0.887,-8.407l5.206,10.024c0,0 1.647,2.227 1.443,-0.449c-0.203,-2.677 -0.206,-8.553 -0.206,-8.553l1.984,-4.182l1.95,14.332l3.466,-1.794l-1.789,-14.416l5.301,17.711l0.819,-4.05l2.082,2.549l-2.796,-13.894l6.199,12.132l2.327,-4.248l1.267,9.007l1.403,-10.344l2.803,6.661l1.888,-7.899l0.954,4.743c0,0 2.178,3.29 2.988,2.073c3.356,-5.041 2.405,1.4 2.725,1.769c1.371,1.583 0.441,2.193 0.441,2.193l1.223,2.059c0,0 -2.139,-1.196 -0.572,1.175c1.567,2.371 4.087,4.647 2.653,4.641c-1.435,-0.006 -3.641,-1.888 -5.117,1.746c-0.223,0.55 -0.936,1.265 -0.936,1.265c0,0 -2.304,1.209 -3.503,1.359c-1.2,0.15 -0.606,1.115 -2.714,0.201c-2.108,-0.913 -3.42,-2.422 -3.575,-1.128c-0.155,1.293 -1.584,1.787 -1.584,1.787l-3.894,0.476l-0.831,-1.132c0,0 -2.897,-0.624 -5.21,0.631c-2.314,1.256 -3.331,3.627 -3.917,0.717c-0.586,-2.911 -0.965,-2.808 -0.965,-2.808c0,0 -0.47,-2.355 -1.973,-2.522c-1.502,-0.167 -4.568,-0.28 -4.568,-0.28l2.143,-2.043c0,0 -4.934,-2.845 -6.557,-3.255c-1.623,-0.41 -3.864,0.56 -3.864,0.56l2.642,2.324c0,0 -1.66,-1.332 -2.38,-1.02c-0.719,0.313 -3.86,-0.441 -3.86,-0.441l-1.545,-1.874c0,0 0.263,-0.498 1.131,-1.899c0.867,-1.401 1.405,-2.155 1.405,-2.155l-0.124,-1.186l-2.568,-4.616l-1.052,-0.183Zm0.683,-0.812c-0.415,0.494 -0.683,0.812 -0.683,0.812c0,0 0.522,-0.065 0.916,-0.076l-0.233,-0.736Z" style="fill:#0a0500;fill-opacity:0.3;"/><path d="M179.922,65.822l1.901,6.018l2.591,-5.431l3.497,3.131l2.453,-4.034l6.458,-1.165l-3.875,-3.002l-0.368,-12.05l-5.459,11.075l-3.509,-10.205l-2.503,6.091l-5.3,-4.746l-0.479,6.071l0.543,4.277l-6.313,-1.33l6.256,4.443l-6.335,5.841l7.235,-1.351l1.071,1.588l2.136,-5.221" style="fill:#3c9353;"/><clipPath id="_clip3"><path d="M179.922,65.822l1.901,6.018l2.591,-5.431l3.497,3.131l2.453,-4.034l6.458,-1.165l-3.875,-3.002l-0.368,-12.05l-5.459,11.075l-3.509,-10.205l-2.503,6.091l-5.3,-4.746l-0.479,6.071l0.543,4.277l-6.313,-1.33l6.256,4.443l-6.335,5.841l7.235,-1.351l1.071,1.588l2.136,-5.221"/></clipPath><g clip-path="url(#_clip3)"><path d="M192.579,49.289l-2.485,11.412l1.243,2.034l-2.995,2.261l-1.399,-4.408l1.897,-6.533l-4.187,-4.743l-1.227,-0.477l1.017,14.409l-3.487,-7.144l-1.315,-5.004l-3.673,0l3.164,11.413l-5.102,-1.04l-3.729,-4.981l-3.116,1.558l2.511,2.825l-0.346,13.076l7.714,-2.349l2.746,3.229l2.572,-1.749l0.883,-2.053l7.784,-1.047l6.909,-5.792l-3.965,-11.734l-1.414,-3.163" style="fill:#56e8bc;"/></g><path d="M26.727,53.776l2.206,1.33l-3.242,-12.514l5.195,8.751l2.698,-4.447l1.514,5.13l3.052,-3.565l2.064,-1.609l2.341,10.073l2.469,-1.236l-0.189,7.732l1.823,4.169c0,0 -2.268,0.933 -2.864,1.72c-0.596,0.786 1.059,3.003 -1.435,2.044c-2.493,-0.959 -3.44,-0.627 -4.659,-2.201c-1.219,-1.574 -2.36,-2.987 -2.36,-2.987l-3.486,0.313c0,0 -1.296,-3.363 -1.733,0.156c-0.436,3.518 -3.226,-3.054 -3.226,-3.054l-2.954,-6.155l2.786,-3.65Z" style="fill:#3c9353;"/><clipPath id="_clip4"><path d="M26.727,53.776l2.206,1.33l-3.242,-12.514l5.195,8.751l2.698,-4.447l1.514,5.13l3.052,-3.565l2.064,-1.609l2.341,10.073l2.469,-1.236l-0.189,7.732l1.823,4.169c0,0 -2.268,0.933 -2.864,1.72c-0.596,0.786 1.059,3.003 -1.435,2.044c-2.493,-0.959 -3.44,-0.627 -4.659,-2.201c-1.219,-1.574 -2.36,-2.987 -2.36,-2.987l-3.486,0.313c0,0 -1.296,-3.363 -1.733,0.156c-0.436,3.518 -3.226,-3.054 -3.226,-3.054l-2.954,-6.155l2.786,-3.65Z"/></clipPath><g clip-path="url(#_clip4)"><path d="M45.791,53.593l-2.131,7.872l-4.226,-1.484l4.095,-6.185l-3.078,-7.716l-3.13,11.227l-2.932,0.12l0.707,-5.517l-1.843,-7.264l-0.756,12.24l-1.619,-6.004l-1.299,-3.371l-3.055,-5.617l3.598,14.818l-1.087,-0.191l-0.816,0.635l-3.289,1.521l-3.249,2.897c0,0 5.245,1.735 9.413,1.943c3.091,0.154 5.297,-1.27 5.871,-0.977c0.623,0.318 0.688,5.656 2.654,8.241c2.281,3 6.452,3.281 6.452,3.281l1.85,-9.025l-2.13,-11.444" style="fill:#56e8bc;"/></g><path d="M82.922,24.188l-8.777,-8.057l13.717,1.681l-1.21,-7.935l11.088,5.728l4.94,-11.036l7.543,10.944l4.197,-7.78l1.337,4.438l1.741,-6.131l2.17,7.087l0.994,5.911l1.776,-10.055l0.909,3.213l4.03,-1.496l0,3.512l3.404,-8.178l0.266,10.013l2.49,3.359c0,0 1.385,4.977 0.018,6.535c-1.367,1.558 -6.178,6.463 -6.178,6.463c0,0 3.768,-0.489 -1.29,0.92c-5.057,1.409 -4.027,0.127 -8.589,0.645c-4.561,0.519 -1.589,2.177 -7.183,1.348c-5.594,-0.829 -3.755,-3.404 -6.207,-0.829c-2.452,2.575 -1.104,2.207 -3.311,4.292c-2.207,2.084 -3.011,-0.872 -4.939,-3.869c-1.928,-2.998 -5.188,-6.778 -6.255,-5.01c-1.068,1.767 3.716,1.644 -1.741,1.89c-5.458,0.245 -8.942,6.232 -6.464,-1.054c2.477,-7.285 1.524,-6.549 1.524,-6.549Z" style="fill:#61933c;"/><clipPath id="_clip5"><path d="M82.922,24.188l-8.777,-8.057l13.717,1.681l-1.21,-7.935l11.088,5.728l4.94,-11.036l7.543,10.944l4.197,-7.78l1.337,4.438l1.741,-6.131l2.17,7.087l0.994,5.911l1.776,-10.055l0.909,3.213l4.03,-1.496l0,3.512l3.404,-8.178l0.266,10.013l2.49,3.359c0,0 1.385,4.977 0.018,6.535c-1.367,1.558 -6.178,6.463 -6.178,6.463c0,0 3.768,-0.489 -1.29,0.92c-5.057,1.409 -4.027,0.127 -8.589,0.645c-4.561,0.519 -1.589,2.177 -7.183,1.348c-5.594,-0.829 -3.755,-3.404 -6.207,-0.829c-2.452,2.575 -1.104,2.207 -3.311,4.292c-2.207,2.084 -3.011,-0.872 -4.939,-3.869c-1.928,-2.998 -5.188,-6.778 -6.255,-5.01c-1.068,1.767 3.716,1.644 -1.741,1.89c-5.458,0.245 -8.942,6.232 -6.464,-1.054c2.477,-7.285 1.524,-6.549 1.524,-6.549Z"/></clipPath><g clip-path="url(#_clip5)"><path d="M132.317,6.802l-4.94,10.348l2.064,4.904l-2.064,2.037l-2.252,-14.691l-2.687,-2.598l0.95,15.294l1.32,5.599l-4.238,-2.119c0,0 0.633,-4.993 -1.329,-3.227c-1.962,1.765 1.766,-12.459 1.766,-12.459l-4.278,-5.123l-2.17,10.964l-1.9,12.602l0,-8.535l-3.233,0.207l1.613,-12.393l-8.259,-5.749l0,9.879l-1.943,0.971l0.899,3.446l1.044,7.759l-8.161,-14.714l0.942,8.807l-5.989,-7.934l-2.433,-1.216l3.948,15.744l-13.825,-10.804l8.136,10.313l-2.376,2.446c0,0 -8.317,3.833 -6.159,5.5c2.159,1.668 -1.004,5.737 -1.004,5.737c0,0 4.787,-1.001 7.163,-1.358c2.376,-0.357 1.658,2.648 7.069,-1.405c5.411,-4.053 0.999,-4.343 6.982,-5.62c5.982,-1.278 6.963,-0.002 6.963,-0.002c0,0 0.393,5.395 2.551,1.765c2.158,-3.629 -0.824,-8.064 -0.824,-8.064c0,0 2.786,1.884 4.453,3.748c1.668,1.864 -1.393,3.237 2.443,3.335c3.836,0.099 1.531,0.393 4.939,0.589c3.409,0.196 -0.494,-0.14 4.94,0.715c5.434,0.855 2.949,0.103 4.241,-2.121c1.291,-2.224 -0.18,-1.929 1.782,-2.812c1.961,-0.883 1.434,-0.21 3.856,-0.007c2.422,0.203 4.808,-0.728 4.939,-2.469c0.131,-1.742 0,-7.726 0,-7.726l-4.939,-9.563Z" style="fill:#56e8bc;"/></g><g><path d="M111.046,83.885l3.32,10.133l0.745,5.726l-4.176,0.109l0.111,-15.968Z" style="fill:#56e8bc;"/><path d="M107.911,96.535l3.024,3.318l0.057,-15.893l-3.081,12.575Z" style="fill:#3c9353;"/></g><path d="M92.512,72.813l5.521,14.829l-3.577,2.589l-4.758,-0.207l-5.412,2.706l-3.617,-2.382l-2.607,-1.569l-3.917,-11.324l2.943,2.502l3.581,3.464l-0.695,-6.459l2.959,5.647l1.838,4.261l1.001,-8.704l-1.483,-3.843l4.584,7.907l0.663,4.438l1.494,-0.77l1.482,-13.085Z" style="fill:#3c9353;"/><clipPath id="_clip6"><path d="M92.512,72.813l5.521,14.829l-3.577,2.589l-4.758,-0.207l-5.412,2.706l-3.617,-2.382l-2.607,-1.569l-3.917,-11.324l2.943,2.502l3.581,3.464l-0.695,-6.459l2.959,5.647l1.838,4.261l1.001,-8.704l-1.483,-3.843l4.584,7.907l0.663,4.438l1.494,-0.77l1.482,-13.085Z"/></clipPath><g clip-path="url(#_clip6)"><path d="M92.444,70.728l2.038,15.388l-4.036,-0.511l-1.573,-11.763l-4.995,0.275l3.114,9.196l0.379,4.004l-2.6,-0.447l-1.446,-7.481l-3.654,-2.275l3.148,7.779l-0.13,3.018l-1.325,-1.892c-0.236,-1.536 -0.866,-3.103 -1.892,-4.704l-6.096,-5.156l4.478,6.634l0.639,3.114l1.462,2.657l3.377,1.689l1.439,1.611c0,0 2.329,2.651 3.52,2.76c1.191,0.108 6.494,-0.054 7.739,-0.541c1.245,-0.488 6.085,-3.579 6.085,-3.579l-2.93,-10.841l-6.741,-8.935Z" style="fill:#56e8bc;"/></g><path d="M156.202,23.353l3.758,12.94l3.181,-4.531l-0.545,9.607l3.485,-11.033l1.462,7.105l3.477,-8.425l0,5.058c0,0 1.516,3.51 2.571,2.212c4.37,-5.377 2.123,1.492 2.369,1.886c1.052,1.688 0,2.34 0,2.34l0.808,2.195c0,0 -1.898,-1.276 -0.808,1.253c1.089,2.529 3.152,4.957 1.718,4.95c-1.433,-0.007 -3.26,-2.014 -5.468,1.863c-0.334,0.586 -1.19,1.349 -1.19,1.349c0,0 -2.547,1.289 -3.777,1.449c-1.229,0.161 -0.83,1.189 -2.754,0.215c-1.924,-0.974 -2.932,-2.583 -3.348,-1.204c-0.415,1.38 -1.943,1.906 -1.943,1.906l-3.99,0.508l-0.604,-1.207c0,0 -2.771,-0.666 -5.337,0.673c-2.566,1.339 -4.061,3.868 -4.061,0.764c0,-3.104 -0.399,-2.994 -0.399,-2.994c0,0 0.003,-2.512 -1.466,-2.691c-1.469,-0.178 -4.512,-0.298 -4.512,-0.298l2.554,-2.179c0,0 -4.362,-3.034 -5.902,-3.471c-1.541,-0.437 -3.977,0.597 -3.977,0.597l2.175,2.478c0,0 -1.392,-1.421 -2.175,-1.087c-0.782,0.334 -3.771,-0.471 -3.771,-0.471l-1.168,-1.999c0,0 0.363,-0.53 1.513,-2.025c1.149,-1.494 1.839,-2.299 1.839,-2.299l0.115,-1.264l-1.72,-5.164l-0.504,-4.688l6.144,9.255l0.016,-7.395l3.421,5.692l0.805,-8.966l3.189,10.691c0,0 1.199,2.375 1.534,-0.479c0.335,-2.855 1.514,-9.122 1.514,-9.122l2.826,-4.461l-0.934,15.286l3.827,-1.914l1.112,-15.374l1.737,18.889l1.634,-4.32l1.569,2.719l0,-14.819Z" style="fill:#3c9353;"/><clipPath id="_clip7"><path d="M156.202,23.353l3.758,12.94l3.181,-4.531l-0.545,9.607l3.485,-11.033l1.462,7.105l3.477,-8.425l0,5.058c0,0 1.516,3.51 2.571,2.212c4.37,-5.377 2.123,1.492 2.369,1.886c1.052,1.688 0,2.34 0,2.34l0.808,2.195c0,0 -1.898,-1.276 -0.808,1.253c1.089,2.529 3.152,4.957 1.718,4.95c-1.433,-0.007 -3.26,-2.014 -5.468,1.863c-0.334,0.586 -1.19,1.349 -1.19,1.349c0,0 -2.547,1.289 -3.777,1.449c-1.229,0.161 -0.83,1.189 -2.754,0.215c-1.924,-0.974 -2.932,-2.583 -3.348,-1.204c-0.415,1.38 -1.943,1.906 -1.943,1.906l-3.99,0.508l-0.604,-1.207c0,0 -2.771,-0.666 -5.337,0.673c-2.566,1.339 -4.061,3.868 -4.061,0.764c0,-3.104 -0.399,-2.994 -0.399,-2.994c0,0 0.003,-2.512 -1.466,-2.691c-1.469,-0.178 -4.512,-0.298 -4.512,-0.298l2.554,-2.179c0,0 -4.362,-3.034 -5.902,-3.471c-1.541,-0.437 -3.977,0.597 -3.977,0.597l2.175,2.478c0,0 -1.392,-1.421 -2.175,-1.087c-0.782,0.334 -3.771,-0.471 -3.771,-0.471l-1.168,-1.999c0,0 0.363,-0.53 1.513,-2.025c1.149,-1.494 1.839,-2.299 1.839,-2.299l0.115,-1.264l-1.72,-5.164l-0.504,-4.688l6.144,9.255l0.016,-7.395l3.421,5.692l0.805,-8.966l3.189,10.691c0,0 1.199,2.375 1.534,-0.479c0.335,-2.855 1.514,-9.122 1.514,-9.122l2.826,-4.461l-0.934,15.286l3.827,-1.914l1.112,-15.374l1.737,18.889l1.634,-4.32l1.569,2.719l0,-14.819Z"/></clipPath><g clip-path="url(#_clip7)"><path d="M178.208,32.108l-3.788,6.02l-3.4,0.118l1.634,-9.535l-1.634,-0.648l-3.267,14.212l-1.672,-3.558l2.218,-8.652l-3.295,-1.234l-0.943,16.066l-2.17,0.309l0.389,-13.874l-2.339,-2.621l-0.035,11.313l-7.558,-16.316l2.59,21.307l11.143,12.007l13.742,-7.04l-1.615,-17.874Z" style="fill:#56e8bc;"/><path d="M148.031,26.82l-2.295,4.296l-1.298,7.998l-4.117,0.125l1.062,-2.826l1.233,-8.416l-3.06,-2.355l-1.514,13.329l-1.598,-2.146l0.465,-8.765l-1.624,0.812l-0.556,9.601l-1.883,-1.412l-0.835,-10.985l-2.579,2.509l1.53,8.711l-2.571,1.789l-7.836,5.96c0,0 10.18,5.066 11.559,5.78c1.379,0.715 8.148,6.836 8.148,6.836l12.124,2.176l3.816,-5.236l-7.932,-2.584l-1.18,-1.824l1.536,-1.405l4.156,-0.82l-3.162,-4.197l5.043,3.51l0.902,3.494l0.637,-4.179l-3.109,-3.061l-1.831,-3.413l1.537,-12.066l0.426,-8.154l-2.479,0.723l-1.151,10.971l0.438,6.995l-1.469,0.701l-0.533,-12.472Z" style="fill:#56e8bc;"/></g><path d="M54.045,27.265l-0.715,-6.046l5.603,5.363l1.819,2.073l-1.09,-6.162l3.106,-1.554l3.442,2.996l-0.048,4.995l2.78,1.756l2.953,-4.807c0,0 0.064,-2.127 0.771,-0.278c0.708,1.849 1.54,7.212 1.54,7.212l0.082,2.61l2.969,-4.644c0,0 0.898,0.223 0.726,1.174c-0.171,0.952 -0.349,7.624 -0.349,7.624l1.657,1.187l1.978,0.72l3.992,3.15c0,0 -0.781,2.487 -2.451,2.498c-1.67,0.011 -6.419,1.49 -6.419,1.49c0,0 -1.658,1.219 -3.725,0.887c-2.066,-0.332 -6.134,-1.626 -6.134,-1.626c0,0 -2.496,-0.832 -3.975,-2.219c-1.48,-1.387 -0.66,-3.489 -2.734,-2.577c-2.074,0.913 -5.054,4.198 -5.054,4.198c0,0 -0.698,0.928 -2.881,-0.716c-2.183,-1.645 -2.922,-2.477 -2.922,-2.477l-0.542,-1.083c0,0 0.882,0.932 -0.629,0.314c-1.51,-0.618 -4.822,3.358 -4.923,1.601c-0.101,-1.756 2.88,-4.39 2.777,-5.2c-0.104,-0.809 2.21,-0.157 2.21,-0.157l-1.978,-3.451l-4.229,-4.618l4.944,1.252l1.044,-3.203l3.378,0.992l1.604,5.224l2.311,3.991l0.412,-5.462l-2.311,-3.236l1.011,-3.791Z" style="fill:#3c9353;"/><clipPath id="_clip8"><path d="M54.045,27.265l-0.715,-6.046l5.603,5.363l1.819,2.073l-1.09,-6.162l3.106,-1.554l3.442,2.996l-0.048,4.995l2.78,1.756l2.953,-4.807c0,0 0.064,-2.127 0.771,-0.278c0.708,1.849 1.54,7.212 1.54,7.212l0.082,2.61l2.969,-4.644c0,0 0.898,0.223 0.726,1.174c-0.171,0.952 -0.349,7.624 -0.349,7.624l1.657,1.187l1.978,0.72l3.992,3.15c0,0 -0.781,2.487 -2.451,2.498c-1.67,0.011 -6.419,1.49 -6.419,1.49c0,0 -1.658,1.219 -3.725,0.887c-2.066,-0.332 -6.134,-1.626 -6.134,-1.626c0,0 -2.496,-0.832 -3.975,-2.219c-1.48,-1.387 -0.66,-3.489 -2.734,-2.577c-2.074,0.913 -5.054,4.198 -5.054,4.198c0,0 -0.698,0.928 -2.881,-0.716c-2.183,-1.645 -2.922,-2.477 -2.922,-2.477l-0.542,-1.083c0,0 0.882,0.932 -0.629,0.314c-1.51,-0.618 -4.822,3.358 -4.923,1.601c-0.101,-1.756 2.88,-4.39 2.777,-5.2c-0.104,-0.809 2.21,-0.157 2.21,-0.157l-1.978,-3.451l-4.229,-4.618l4.944,1.252l1.044,-3.203l3.378,0.992l1.604,5.224l2.311,3.991l0.412,-5.462l-2.311,-3.236l1.011,-3.791Z"/></clipPath><g clip-path="url(#_clip8)"><path d="M77.845,29.752l-3.983,13.824c2.798,-0.191 4.885,0.454 6.253,1.943l5.331,-0.793l-1.607,4.914l-7.448,-0.37c0,0 -2.353,-5.883 -2.223,-4.236c0.13,1.647 0.565,4.975 -1.502,6.732c-2.066,1.757 -4.18,0.69 -3.724,-0.395c0.456,-1.084 0,-3.724 0,-3.724l0,-1.798l-1.712,-2.782l-2.012,4.169l0,2.273l-1.66,-4.554l0.345,-2.237l0.101,-3.775c0,0 1.759,-5.265 0.618,-4.033c-1.141,1.231 -7.462,6.846 -7.462,6.846l-0.394,4.53l-2.721,4.278l0,-7.304l-2.306,-2.866l-5.143,1.757l-4.564,6.102l-0.93,-1.583l1.77,-5.629l3.28,-9.53l4.561,8.193l1.455,-0.444l1.877,0.938l1.628,-0.814l3.812,-7.639l0.211,3.83l1.798,-2.825l1.971,-0.986l-1.971,4.254l5.621,-4.182l0.096,1.779l0.801,4.375l0.93,2.208l1.775,0.888l0.741,1.579l-0.086,2.473l1.294,-4.836l1.582,-6.481l1.16,-3.042l-2.742,-7.34l-2.087,13.854l-1.637,-9.565l-0.93,-4.068l-3.493,-4.295l-1.786,2.832l2.485,8.691l-6.785,-7.117l-1.886,-2.053l-2.502,-1.664l2.864,11.264l-0.507,3.978l-2.357,1.178l0,-2.219l-3.724,-6.255l-2.541,1.617l3.464,9.925l-0.531,0.162l-18.28,-7.321l16.492,27.601l41.076,-1.808l1.287,-11.495l-13.443,-16.929Z" style="fill:#56e8bc;"/></g><path d="M74.859,61.487l-2.082,-14.683l9.879,11.633l6.102,-8.211l-1.163,10.264l4.94,-12.089l1.937,8.074l5.396,-9.575l2.546,13.546l2.76,-11.259l2.179,8.789l8.328,-5.715l-5.06,12.288l-3.268,8.245c0,0 -5.673,-2.224 -7.116,-3.558c-1.443,-1.333 -2.032,-1.257 -3.961,-0.782c-1.93,0.475 -5.396,1.615 -8.681,2.186c-3.285,0.57 -8.613,2.787 -8.613,2.787l-5.05,-0.506c0,0 2.395,2.28 0,0c-2.395,-2.281 -4.074,-4.056 -4.074,-4.056l-5.474,-2.737l5.785,-0.506l4.69,-4.135Z" style="fill:#3c9353;"/><clipPath id="_clip9"><path d="M74.859,61.487l-2.082,-14.683l9.879,11.633l6.102,-8.211l-1.163,10.264l4.94,-12.089l1.937,8.074l5.396,-9.575l2.546,13.546l2.76,-11.259l2.179,8.789l8.328,-5.715l-5.06,12.288l-3.268,8.245c0,0 -5.673,-2.224 -7.116,-3.558c-1.443,-1.333 -2.032,-1.257 -3.961,-0.782c-1.93,0.475 -5.396,1.615 -8.681,2.186c-3.285,0.57 -8.613,2.787 -8.613,2.787l-5.05,-0.506c0,0 2.395,2.28 0,0c-2.395,-2.281 -4.074,-4.056 -4.074,-4.056l-5.474,-2.737l5.785,-0.506l4.69,-4.135Z"/></clipPath><g clip-path="url(#_clip9)"><path d="M117.232,51.48l-6.916,7.977l-2.963,3.458c0,0 -0.108,-8.128 0,-8.128c0.108,0 -2.118,-7.749 -2.118,-7.749l-0.453,14.592l-2.368,1.255l0,-8.782l-2.653,-9.802l-2.287,16.075l-3.641,-4.221l2.264,-8.747l-3.562,-0.262l-2.274,12.163l-2.666,3.606l2.876,-11.316l-1.413,-2.771l-3.682,10.258l-2.72,3.342l3.057,-10.333l-12.936,-6.468l5.868,17.753l-7.653,-2.042l-14.509,4.626l8.329,10.257l10.278,0.2l6.423,-10.464c0,0 -0.595,0.176 3.154,0.434c3.749,0.257 10.324,0.222 10.324,0.222l0.874,2.046l7.464,6.147l12.012,-1.066l1.891,-22.26Z" style="fill:#56e8bc;"/></g><path d="M115.111,61.55l7.128,2.443l1.063,7.25l3.451,-5.635l-0.868,-4.506l4.648,2.616l-1.185,5.532l3.172,2.692l2.171,-5.364l-1.51,-0.385l4.939,-2.77l1.284,2.082l-0.384,7.449l4.04,-7.087l0,-1.629l3.617,2.525l-0.246,3.824l0.251,3.497l4.832,-7.463l-0.859,6.794l3.901,-0.334l1.031,-4.424l-2.648,-2.627l3.921,1.14l1.018,5.865l4.94,4.177c0,0 0.418,-1.118 -1.63,0.815c-2.047,1.933 -4.898,3.399 -6.446,4.213c-1.548,0.815 -0.972,0.99 -4.111,1.066c-3.139,0.075 -2.325,0.156 -6.642,0.075c-4.317,-0.082 -2.607,3.258 -6.761,-0.244c-4.155,-3.503 0.46,-7.006 -4.047,-3.503c-4.507,3.503 -5.484,4.154 -6.787,5.132c-1.304,0.977 -2.2,0.244 -2.2,0.244c0,0 -0.815,-0.57 -1.792,-1.303c-0.978,-0.733 -1.303,-0.326 -1.874,-1.222c-0.57,-0.896 -0.452,-1.946 -0.452,-1.946c0,0 -1.32,-0.785 1.928,-2.678c3.249,-1.893 2.923,-1.567 -0.172,-2.219c-3.096,-0.652 -4.179,-1.254 -4.179,-1.254l2.957,-1.515l-0.489,-5.866l-5.01,-5.457Z" style="fill:#3c9353;"/><clipPath id="_clip10"><path d="M115.111,61.55l7.128,2.443l1.063,7.25l3.451,-5.635l-0.868,-4.506l4.648,2.616l-1.185,5.532l3.172,2.692l2.171,-5.364l-1.51,-0.385l4.939,-2.77l1.284,2.082l-0.384,7.449l4.04,-7.087l0,-1.629l3.617,2.525l-0.246,3.824l0.251,3.497l4.832,-7.463l-0.859,6.794l3.901,-0.334l1.031,-4.424l-2.648,-2.627l3.921,1.14l1.018,5.865l4.94,4.177c0,0 0.418,-1.118 -1.63,0.815c-2.047,1.933 -4.898,3.399 -6.446,4.213c-1.548,0.815 -0.972,0.99 -4.111,1.066c-3.139,0.075 -2.325,0.156 -6.642,0.075c-4.317,-0.082 -2.607,3.258 -6.761,-0.244c-4.155,-3.503 0.46,-7.006 -4.047,-3.503c-4.507,3.503 -5.484,4.154 -6.787,5.132c-1.304,0.977 -2.2,0.244 -2.2,0.244c0,0 -0.815,-0.57 -1.792,-1.303c-0.978,-0.733 -1.303,-0.326 -1.874,-1.222c-0.57,-0.896 -0.452,-1.946 -0.452,-1.946c0,0 -1.32,-0.785 1.928,-2.678c3.249,-1.893 2.923,-1.567 -0.172,-2.219c-3.096,-0.652 -4.179,-1.254 -4.179,-1.254l2.957,-1.515l-0.489,-5.866l-5.01,-5.457Z"/></clipPath><g clip-path="url(#_clip10)"><path d="M157.878,64.864l-2.291,3.793l0.597,5.238l-0.543,3.953l-2.702,-5.575l-1.745,-5.812l-2.265,7.817l0.404,2.267l-3.128,1.616l0.886,-4.484l0.908,-7.142l-4.939,-0.313l0.367,1.716l-3.111,7.069l1.614,2.111l-1.304,0.522l-2.506,-0.73l0.735,-3.698l1.406,-5.478l-0.948,-2.274l-5.091,1.353l-1.676,5.142l1.824,3.443l-4.363,0.227l-0.581,-6.414l2.82,-6.35l-5.658,2.83l0.486,7.941l-3.772,-2.168l0,-6.858l-1.027,-0.678l-2.086,3.389l2.678,7.001l-1.374,1.288c0,0 -4.971,7.805 -4.649,8.256c0.322,0.451 -0.1,4.3 3.891,4.513c3.99,0.213 9.456,-1.335 10.659,-2.177c1.204,-0.842 2.09,-7.046 4.592,-6.525c2.503,0.521 5.232,0.365 7.074,0.417c1.841,0.052 4.939,0.104 4.939,0.104c0,0 -5.183,2.503 -0.439,1.46c4.745,-1.043 5.379,-1.616 5.379,-1.616l0,-0.939l4.939,0.583l7.617,-0.061l-0.057,-6.038l-7.56,-8.719" style="fill:#56e8bc;"/></g></g></g></svg>