<?xml version="1.0" encoding="UTF-8" standalone="no"?><!DOCTYPE svg PUBLIC "-//W3C//DTD SVG 1.1//EN" "http://www.w3.org/Graphics/SVG/1.1/DTD/svg11.dtd"><svg width="100%" height="100%" viewBox="0 0 215 205" version="1.1" xmlns="http://www.w3.org/2000/svg" xmlns:xlink="http://www.w3.org/1999/xlink" xml:space="preserve" xmlns:serif="http://www.serif.com/" style="fill-rule:evenodd;clip-rule:evenodd;stroke-linejoin:round;stroke-miterlimit:1.41421;"><g id="Dirt_Block05"><g><path d="M214.776,53.759l0,96.598l-107.331,53.666l0,-96.598l107.331,-53.666Z" style="fill:#b3a890;"/><path d="M204.043,102.058l6.94,8.837l-1.574,15.313l-5.366,8.05l-7.425,-3.713l-3.308,-7.021l0,-10.733l10.733,-10.733" style="fill:#ccc3b0;"/><path d="M192.787,82.797l9.359,6.054l-1.525,6.13l-5.367,2.683l-3.943,-1.971l-4.189,-4.696l0.429,-5.581l5.236,-2.619Z" style="fill:#ccc3b0;"/><path d="M161.11,104.485l5.367,-5.11l10.733,1.512l1.944,4.827l1.101,8.238l-11.034,10.884l-2.744,-5.39l-5.367,-1.288l-2.362,-10.291l2.362,-3.382" style="fill:#ccc3b0;"/><path d="M178.684,130.837l-6.841,5.652l2.278,12.729l8.455,2.99l7.519,1.909l3.215,-3.76l3.401,1.701l5.435,-0.753l1.897,-4.211l-5.367,-4.787l-4.042,-3.345l-7.512,-5.176l-8.438,-2.949Z" style="fill:#ccc3b0;"/><path d="M142.155,122.269l-7.878,3.939l-5.366,10.281l2.451,9.727l19.015,4.141l6.893,-7.286l1.478,-7.632l-5.86,-7.804l-10.733,-5.366Z" style="fill:#ccc3b0;"/><path d="M118.178,157.321l-8.71,10.148l1.338,6.035l7.372,19.786c0,0 8.247,-5.443 10.733,-5.367c2.486,0.077 7.942,-3.971 7.942,-3.971l-2.576,-9.445l-8.207,-6.63l-7.892,-10.556Z" style="fill:#ccc3b0;"/><path d="M166.477,155.616l-10.733,1.199l-10.734,6.959l1.544,7.735l4.409,5.974l7.785,-1.474l5.307,-5.071l4.046,-6.352l-1.624,-8.97" style="fill:#ccc3b0;"/><path d="M109.468,124.536l8.71,6.931l10.733,-4.854l5.366,-14.553l-14.73,-3.95l-6.736,5.465l-3.343,10.961" style="fill:#ccc3b0;"/><path d="M122.202,160.221l-8.372,9.701l1.286,5.77l7.086,18.914c0,0 7.928,-5.203 10.317,-5.13c2.389,0.073 7.634,-3.796 7.634,-3.796l-2.475,-9.03l-7.89,-6.337l-7.586,-10.092Zm46.427,-1.629l-10.317,1.146l-10.317,6.652l1.483,7.395l4.239,5.711l7.483,-1.409l5.101,-4.849l3.889,-6.072l-1.561,-8.574Zm11.733,-23.689l-6.575,5.404l2.19,12.168l8.127,2.858l7.228,1.825l3.089,-3.594l3.27,1.626l5.224,-0.719l1.823,-4.026l-5.158,-4.576l-3.886,-3.199l-7.221,-4.948l-8.111,-2.819Zm-35.112,-8.191l-7.572,3.766l-5.159,9.829l2.356,9.298l18.278,3.959l6.626,-6.966l1.421,-7.296l-5.633,-7.459l-10.317,-5.131Zm59.488,-19.321l6.671,8.448l-1.512,14.639l-5.159,7.695l-7.137,-3.549l-3.18,-6.712l0,-10.26l10.317,-10.261Zm-90.908,21.489l3.214,-10.479l6.475,-5.225l14.159,3.777l-5.159,13.912l-10.317,4.64l-8.372,-6.625Zm49.64,-19.169l5.159,-4.885l10.317,1.445l1.869,4.615l1.057,7.876l-10.606,10.404l-2.637,-5.153l-5.159,-1.231l-2.27,-9.838l2.27,-3.233Zm30.449,-20.733l8.996,5.788l-1.466,5.859l-5.159,2.565l-3.79,-1.884l-4.027,-4.489l0.413,-5.336l5.033,-2.503Z" style="fill:#968269;fill-opacity:0.5;"/></g><path d="M0.113,53.759l107.332,53.666l0,96.598l-107.332,-53.666l0,-96.598" style="fill:#7e7260;"/><clipPath id="_clip1"><path d="M0.113,53.759l107.332,53.666l0,96.598l-107.332,-53.666l0,-96.598"/></clipPath><g clip-path="url(#_clip1)"><path d="M89.975,173.822l11.734,-4.08l-0.235,-16.221l-6.989,-11.581l-11.749,-1.32l-5.988,4.726l-1.503,10.627l14.73,17.849" style="fill:#7e7260;"/><path d="M85.653,190.169l17.273,-3.67l-1.819,-6.448l-9.043,-3.989l-7.196,0.973l-8.01,3.609l-0.029,5.633l8.824,3.892Z" style="fill:#7e7260;"/><path d="M48.712,165.842l4.777,5.837l11.198,0.057l2.667,-4.498l2.28,-7.998l-9.77,-12.374l-3.564,4.94l-5.673,0.498l-3.859,9.847l1.944,3.691" style="fill:#7e7260;"/><path d="M73.801,139.975l-6.21,-6.587l4.115,-12.274l9.073,-1.735l7.964,-0.802l2.763,4.188l3.72,-1.192l5.458,1.533l1.351,4.444l-6.163,3.963l-4.606,2.727l-8.414,4.037l-9.051,1.698Z" style="fill:#7e7260;"/><path d="M34.651,150.919l-4.295,-4.585l-1.861,-10.648l2.871,-9.417l12.277,-2.446l3.22,7.815l-0.159,7.685l-4.698,7.217l-7.355,4.379Z" style="fill:#7e7260;"/><path d="M15.577,104.991l-7.493,-11.309l2.215,-5.782l10.316,-18.523c0,0 7.68,6.583 10.235,6.868c2.555,0.284 7.573,5.082 7.573,5.082l-3.959,8.979l-9.33,5.375l-9.557,9.31Z" style="fill:#7e7260;"/><path d="M60.866,119.034l-10.818,-2.742l-10.012,-8.443l2.664,-7.436l5.35,-5.277l7.762,2.587l4.721,5.79l3.252,6.875l-2.919,8.646" style="fill:#7e7260;"/><path d="M4.103,124.948l8.581,-9.592l7.679,8.654l1.217,22.864l-12.833,4.344l-4.296,-9.129l-0.348,-17.141" style="fill:#7e7260;"/><path d="M81.663,190.613l17.273,-3.671l-1.819,-6.447l-9.043,-3.99l-7.196,0.973l-8.01,3.61l-0.029,5.632l8.824,3.893Zm4.322,-16.348l-14.73,-17.849l1.504,-10.627l5.987,-4.726l11.749,1.32l6.989,11.582l0.235,16.22l-11.734,4.08Zm-41.263,-7.98l-1.944,-3.69l3.859,-9.848l5.673,-0.498l3.564,-4.939l9.77,12.374l-2.28,7.997l-2.667,4.498l-11.198,-0.057l-4.777,-5.837Zm-44.609,-40.893l8.581,-9.593l7.679,8.654l1.217,22.864l-12.833,4.345l-4.296,-9.13l-0.348,-17.14Zm30.548,25.971l-4.295,-4.586l-1.861,-10.647l2.871,-9.418l12.278,-2.445l3.219,7.814l-0.159,7.686l-4.698,7.216l-7.355,4.38Zm39.15,-10.945l-6.21,-6.587l4.115,-12.273l9.073,-1.736l7.964,-0.801l2.763,4.187l3.72,-1.191l5.458,1.532l1.351,4.444l-6.163,3.963l-4.606,2.727l-8.414,4.037l-9.051,1.698Zm-12.935,-20.941l-10.818,-2.741l-10.012,-8.444l2.664,-7.435l5.35,-5.277l7.762,2.587l4.721,5.789l3.253,6.875l-2.92,8.646Zm-45.289,-14.042l-7.493,-11.31l2.215,-5.782l10.316,-18.523c0,0 7.68,6.584 10.235,6.868c2.555,0.284 7.573,5.082 7.573,5.082l-3.959,8.979l-9.33,5.376l-9.557,9.31Z" style="fill:#0a0500;fill-opacity:0.3;"/></g><path d="M214.776,53.759l-107.331,53.666l-107.332,-53.666l107.332,-53.666l107.331,53.666Z" style="fill:#9f937d;"/><clipPath id="_clip2"><path d="M214.776,53.759l-107.331,53.666l-107.332,-53.666l107.332,-53.666l107.331,53.666Z"/></clipPath><g clip-path="url(#_clip2)"><path d="M-11.915,86.649c0,0 25.753,-7.572 44.228,-16.79c10.716,-5.347 10.435,-12.284 12.301,-17.627c6.806,-19.49 22.135,-14.676 56.519,-21.331c14.621,-2.829 30.458,-10.551 38.511,-14.708c16.652,-8.595 35.774,-8.946 35.774,-8.946l-153.846,-33.017l-67.966,77.834l34.479,34.585Z" style="fill:#b3a890;"/><path d="M182.576,37.659c-1.62,2.35 -41.139,4.125 -39.943,23.447c0.693,11.186 -13.274,6.449 -46.623,17.141c-3.267,1.048 -10.018,7.713 -20.765,13.078c-26.493,13.227 -64.207,12.397 -64.207,12.397l153.225,35.789l73.088,-90.564l-54.775,-11.288Z" style="fill:#b3a890;"/><path d="M204.043,32.293l-10.733,18.238l13.639,-0.685l-2.436,4.148l-16.57,9.306l2.122,4.937l-26.033,-2.284l-1.431,10.018l-1.491,8.916l-16.1,-6.978l10.734,-19.424l-26.833,8.749l16.099,5.308l-7.725,6.87l7.725,14.596l-16.099,24.15l-7.611,-30.638l-13.855,-1.562l-23.316,22.392l17.949,-8.975l5.367,-2.683l8.794,4.397l1.939,11.702l-29.585,12.041l-13.348,-17.407l5.367,-8.05l5.366,-8.05l7.193,-12.503l5.765,-4.709l19.242,6.479l-5.367,-9.949l-10.733,-3.467l2.543,-4.095l10.295,-7.691l13.995,-1.631l17.754,-1.856l19.812,-0.827l21.466,-16.1l-5.367,-8.05l-16.099,18.783l-48.299,2.684l-21.467,10.733l-5.366,8.05l-26.833,13.416l-26.833,18.783l29.761,-4.147l-5.63,-7.919l24.168,-12.084l-16.099,21.222l-5.367,16.344l-45.485,-1.276l2.553,-20.19l21.466,-5.367l-2.175,-20.378l-3.192,-6.287l-13.334,-14.884l-21.474,-0.004l7.975,3.988l7.732,1.5l8.368,14.767l0,13.249l-45.061,-9.669l28.961,-35.947l28.733,1.733l3.467,3.633l5.366,13.417l1.113,5.923l4.254,7.493l-4.254,13.973l9.62,-11.289l5.367,-2.684l10.733,-2.492l3.537,-4.643l-11.143,3.332l-8.111,1.311l4.984,-16.123l23.617,-1.776l24.682,-3.758l16.1,4.443l5.366,-2.683l-18.429,-14.012l-49.47,14.002l-7.233,-1.75l-16.099,-13.417l19.28,-9.64l20.332,5.934l41.537,0.698l15.449,-13.091l-7.197,-1.769l-33.511,8.247l-18.324,-6.808l18.324,-9.291l3.142,1.571l21.466,0l21.466,-5.367l5.367,13.417l-1.862,9.802l-3.505,6.306l0,8.041l2.251,4.241l10.843,-0.055l8.373,-4.186l5.366,-8.05l-3.606,-1.803l-4.538,5.875l-2.589,1.295l-5.366,-0.924l3.322,-16.198l39.61,1.689l29.257,19.587l-13.157,-22.503l-62.157,-28.829l-179.339,55.228l0,96.598l81.963,57.081l189.432,-80.08l-20.238,-60.719l-20.394,-20.93Z" style="fill:#625443;fill-opacity:0.5;"/><path d="M201.51,33.651l-10.733,18.239l13.639,-0.686l-2.436,4.148l-16.57,9.306l2.122,4.937l-26.033,-2.284l-1.431,10.018l-1.491,8.916l-16.1,-6.978l10.734,-19.424l-26.833,8.749l16.099,5.308l-7.725,6.87l7.725,14.596l-16.099,24.15l-7.611,-30.638l-13.855,-1.561l-23.316,22.391l17.949,-8.975l5.367,-2.683l8.794,4.397l1.939,11.702l-29.585,12.041l-13.348,-17.407l5.367,-8.05l5.366,-8.05l7.193,-12.503l5.765,-4.709l19.242,6.479l-5.367,-9.949l-10.733,-3.467l2.543,-4.095l10.295,-7.691l13.995,-1.631l17.754,-1.856l19.812,-0.827l21.466,-16.1l-5.367,-8.05l-16.099,18.783l-48.299,2.684l-21.467,10.733l-5.366,8.05l-26.833,13.416l-26.833,18.783l29.761,-4.147l-5.63,-7.919l24.168,-12.084l-16.099,21.222l-5.367,16.344l-45.485,-1.276l2.553,-20.19l21.466,-5.366l-2.175,-20.379l-3.192,-6.287l-13.334,-14.884l-21.474,-0.004l7.975,3.988l7.732,1.5l8.368,14.767l0,13.249l-45.061,-9.669l28.961,-35.947l28.733,1.734l3.467,3.632l5.366,13.417l1.113,5.923l4.254,7.493l-4.254,13.973l9.62,-11.289l5.367,-2.684l10.733,-2.492l3.537,-4.643l-11.143,3.332l-8.111,1.311l4.984,-16.123l23.617,-1.776l24.682,-3.758l16.1,4.443l5.366,-2.683l-18.429,-14.012l-49.47,14.002l-7.233,-1.75l-16.099,-13.417l19.28,-9.64l20.332,5.934l41.537,0.698l15.449,-13.091l-7.197,-1.768l-33.511,8.247l-18.324,-6.809l18.324,-9.291l3.142,1.571l21.466,0l21.466,-5.367l5.367,13.417l-1.862,9.802l-3.505,6.306l0,8.041l2.251,4.241l10.843,-0.054l8.373,-4.187l5.366,-8.05l-3.606,-1.803l-4.538,5.875l-2.589,1.295l-5.366,-0.924l3.322,-16.198l39.61,1.69l29.257,19.586l-13.157,-22.503l-62.157,-28.829l-179.339,55.228l0,96.598l81.963,57.081l189.432,-80.08l-20.237,-60.719l-20.395,-20.93Z" style="fill:#968269;fill-opacity:0.5;"/></g></g></svg>