<?xml version="1.0" encoding="UTF-8" standalone="no"?><!DOCTYPE svg PUBLIC "-//W3C//DTD SVG 1.1//EN" "http://www.w3.org/Graphics/SVG/1.1/DTD/svg11.dtd"><svg width="100%" height="100%" viewBox="0 0 216 207" version="1.1" xmlns="http://www.w3.org/2000/svg" xmlns:xlink="http://www.w3.org/1999/xlink" xml:space="preserve" xmlns:serif="http://www.serif.com/" style="fill-rule:evenodd;clip-rule:evenodd;stroke-linejoin:round;stroke-miterlimit:1.41421;"><g id="Dirt_Block01"><g><path d="M215.043,56.132l0,96.598l-107.332,53.666l0,-96.598l107.332,-53.666Z" style="fill:#b3a890;"/><path d="M204.31,104.431l6.94,8.837l-1.574,15.312l-5.366,8.05l-7.425,-3.712l-3.309,-7.021l0,-10.733l10.734,-10.733" style="fill:#ccc3b0;"/><path d="M193.054,85.17l9.359,6.054l-1.526,6.129l-5.366,2.684l-3.943,-1.972l-4.189,-4.695l0.429,-5.581l5.236,-2.619Z" style="fill:#ccc3b0;"/><path d="M161.377,106.858l5.367,-5.11l10.733,1.511l1.944,4.827l1.101,8.239l-11.034,10.883l-2.744,-5.39l-5.367,-1.287l-2.362,-10.291l2.362,-3.382" style="fill:#ccc3b0;"/><path d="M178.951,133.21l-6.841,5.652l2.278,12.729l8.455,2.989l7.519,1.91l3.214,-3.76l3.402,1.701l5.435,-0.753l1.897,-4.211l-5.367,-4.787l-4.042,-3.345l-7.512,-5.176l-8.438,-2.949Z" style="fill:#ccc3b0;"/><path d="M142.422,124.642l-7.878,3.938l-5.366,10.282l2.451,9.727l19.015,4.141l6.893,-7.287l1.478,-7.632l-5.86,-7.803l-10.733,-5.366Z" style="fill:#ccc3b0;"/><path d="M118.445,159.694l-8.71,10.148l1.338,6.035l7.372,19.786c0,0 8.247,-5.444 10.733,-5.367c2.485,0.076 7.942,-3.971 7.942,-3.971l-2.576,-9.445l-8.207,-6.63l-7.892,-10.556Z" style="fill:#ccc3b0;"/><path d="M166.744,157.989l-10.734,1.199l-10.733,6.958l1.544,7.736l4.409,5.974l7.785,-1.474l5.307,-5.072l4.046,-6.351l-1.624,-8.97" style="fill:#ccc3b0;"/><path d="M109.735,126.909l8.71,6.931l10.733,-4.854l5.366,-14.553l-14.73,-3.951l-6.736,5.466l-3.343,10.961" style="fill:#ccc3b0;"/><path d="M122.469,162.594l-8.372,9.701l1.286,5.77l7.086,18.914c0,0 7.927,-5.203 10.317,-5.13c2.389,0.073 7.634,-3.796 7.634,-3.796l-2.476,-9.03l-7.889,-6.337l-7.586,-10.092Zm46.426,-1.63l-10.317,1.147l-10.317,6.652l1.484,7.394l4.239,5.712l7.482,-1.41l5.101,-4.848l3.89,-6.072l-1.562,-8.575Zm11.734,-23.688l-6.575,5.403l2.19,12.169l8.127,2.858l7.227,1.825l3.09,-3.594l3.27,1.626l5.224,-0.72l1.823,-4.025l-5.159,-4.577l-3.885,-3.198l-7.221,-4.948l-8.111,-2.819Zm-35.112,-8.191l-7.573,3.765l-5.158,9.829l2.356,9.299l18.278,3.959l6.626,-6.966l1.42,-7.296l-5.632,-7.46l-10.317,-5.13Zm59.488,-19.321l6.671,8.448l-1.513,14.638l-5.158,7.696l-7.137,-3.549l-3.18,-6.712l0,-10.26l10.317,-10.261Zm-90.908,21.489l3.213,-10.479l6.475,-5.225l14.159,3.776l-5.158,13.913l-10.317,4.64l-8.372,-6.625Zm49.64,-19.169l5.158,-4.885l10.317,1.445l1.87,4.615l1.057,7.875l-10.606,10.405l-2.638,-5.153l-5.158,-1.231l-2.271,-9.838l2.271,-3.233Zm30.449,-20.733l8.996,5.787l-1.466,5.86l-5.159,2.565l-3.79,-1.884l-4.027,-4.489l0.413,-5.336l5.033,-2.503Z" style="fill:#968269;fill-opacity:0.5;"/></g><path d="M0.38,56.132l107.331,53.666l0,96.598l-107.331,-53.666l0,-96.598" style="fill:#7e7260;"/><clipPath id="_clip1"><path d="M0.38,56.132l107.331,53.666l0,96.598l-107.331,-53.666l0,-96.598"/></clipPath><g clip-path="url(#_clip1)"><path d="M90.242,176.195l11.734,-4.08l-0.235,-16.221l-6.989,-11.581l-11.749,-1.32l-5.988,4.725l-1.503,10.628l14.73,17.849" style="fill:#7e7260;"/><path d="M85.92,192.542l17.273,-3.67l-1.819,-6.448l-9.043,-3.989l-7.196,0.973l-8.01,3.609l-0.029,5.633l8.824,3.892Z" style="fill:#7e7260;"/><path d="M48.979,168.215l4.777,5.836l11.198,0.058l2.667,-4.498l2.28,-7.998l-9.77,-12.374l-3.564,4.94l-5.673,0.498l-3.859,9.847l1.944,3.691" style="fill:#7e7260;"/><path d="M74.068,142.347l-6.21,-6.586l4.114,-12.274l9.074,-1.736l7.964,-0.801l2.763,4.188l3.72,-1.192l5.458,1.532l1.351,4.444l-6.163,3.963l-4.606,2.728l-8.415,4.036l-9.05,1.698Z" style="fill:#7e7260;"/><path d="M34.918,153.292l-4.295,-4.586l-1.861,-10.647l2.87,-9.418l12.278,-2.445l3.22,7.815l-0.159,7.685l-4.698,7.216l-7.355,4.38Z" style="fill:#7e7260;"/><path d="M15.844,107.364l-7.493,-11.309l2.214,-5.782l10.317,-18.524c0,0 7.68,6.584 10.235,6.868c2.555,0.284 7.573,5.082 7.573,5.082l-3.959,8.98l-9.33,5.375l-9.557,9.31Z" style="fill:#7e7260;"/><path d="M61.133,121.407l-10.818,-2.742l-10.012,-8.443l2.664,-7.436l5.35,-5.277l7.762,2.587l4.721,5.79l3.252,6.875l-2.919,8.646" style="fill:#7e7260;"/><path d="M4.37,127.321l8.581,-9.593l7.678,8.655l1.217,22.864l-12.832,4.344l-4.296,-9.129l-0.348,-17.141" style="fill:#7e7260;"/><path d="M81.93,192.986l17.273,-3.671l-1.819,-6.448l-9.043,-3.989l-7.196,0.973l-8.01,3.61l-0.029,5.632l8.824,3.893Zm4.322,-16.348l-14.73,-17.849l1.503,-10.627l5.988,-4.726l11.749,1.32l6.989,11.581l0.235,16.221l-11.734,4.08Zm-41.263,-7.98l-1.944,-3.691l3.859,-9.847l5.673,-0.498l3.564,-4.94l9.77,12.374l-2.28,7.998l-2.667,4.498l-11.198,-0.057l-4.777,-5.837Zm-44.609,-40.894l8.581,-9.592l7.679,8.654l1.216,22.864l-12.832,4.344l-4.296,-9.129l-0.348,-17.141Zm30.548,25.971l-4.295,-4.585l-1.861,-10.648l2.87,-9.417l12.278,-2.446l3.22,7.815l-0.159,7.686l-4.698,7.216l-7.355,4.379Zm39.15,-10.944l-6.21,-6.587l4.115,-12.274l9.073,-1.735l7.964,-0.802l2.763,4.188l3.72,-1.191l5.458,1.532l1.351,4.444l-6.163,3.963l-4.606,2.727l-8.415,4.037l-9.05,1.698Zm-12.935,-20.941l-10.818,-2.741l-10.012,-8.444l2.664,-7.436l5.35,-5.277l7.762,2.587l4.721,5.79l3.252,6.875l-2.919,8.646Zm-45.289,-14.043l-7.493,-11.309l2.214,-5.782l10.317,-18.523c0,0 7.68,6.584 10.235,6.868c2.555,0.284 7.573,5.082 7.573,5.082l-3.959,8.979l-9.33,5.376l-9.557,9.309Z" style="fill:#0a0500;fill-opacity:0.3;"/></g><path d="M215.043,56.132l-107.332,53.666l-107.331,-53.666l107.331,-53.666l107.332,53.666Z" style="fill:#9f937d;"/><clipPath id="_clip2"><path d="M215.043,56.132l-107.332,53.666l-107.331,-53.666l107.331,-53.666l107.332,53.666Z"/></clipPath><g clip-path="url(#_clip2)"><path d="M-11.648,89.022c0,0 25.753,-7.572 44.228,-16.79c10.716,-5.347 10.435,-12.285 12.301,-17.627c6.806,-19.49 22.135,-14.676 56.519,-21.331c14.621,-2.83 30.457,-10.551 38.511,-14.708c16.652,-8.595 35.774,-8.946 35.774,-8.946l-153.846,-33.017l-67.966,77.833l34.479,34.586Z" style="fill:#b3a890;"/><path d="M182.843,40.032c-1.62,2.35 -41.139,4.125 -39.943,23.447c0.693,11.186 -13.274,6.448 -46.623,17.141c-3.267,1.048 -10.018,7.712 -20.765,13.078c-26.494,13.227 -64.207,12.397 -64.207,12.397l153.225,35.789l73.088,-90.564l-54.775,-11.288Z" style="fill:#b3a890;"/></g><g><g><path d="M193.576,56.132l8.163,-4.081l-0.518,-8.196l-9.044,-3.123l-7.159,-4.979l-10.548,-2.267l-10.545,10.639l4.089,8.688l9.463,6.002l16.099,-2.683Z" style="fill:#b3a890;"/><path d="M145.277,28.027l14.665,1.99l-5.999,20.445l-12.296,-0.565l-9.122,2.542l-2.035,-6.384l-10.081,-7.005l3.402,-9.357l5.367,-4.48l10.733,0.13l5.366,2.684Z" style="fill:#b3a890;"/><path d="M120.409,19.548l14.135,-0.172l9.298,2.591l3.036,-1.518l3.766,-1.883l-2.822,-3.956l-2.545,-4.094l-6.616,-0.486l-4.117,-2.059l-5.366,-0.138l-12.169,0.717l-0.532,2.274l0.175,6.846l3.757,1.878Z" style="fill:#b3a890;"/><path d="M88.96,3.824l10.989,-2.843l6.619,4.549l5.099,5.691l-3.956,4.218l-10.733,3.127l-10.733,3.661l-7.91,3.117l0.735,-4.999l-3.558,-1.779l-1.789,-4.472l1.789,-2.863l13.448,-7.407" style="fill:#b3a890;"/><path d="M98.058,33.124l-8.543,3.192l-8.636,7.001l7.698,7.955l6.216,1.686l4.098,5.503l7.41,-1.624l1.41,-9.773l2.455,-7.886l-6.25,-5.96l-5.858,-0.094Z" style="fill:#b3a890;"/><path d="M48.679,26.616l13.211,1.238l10.168,8.539l-3.294,7.013l-5.008,5.187l-15.077,-0.511l-8.504,4.252l-3.968,-8.749l0.46,-5.596l3.623,-4.835l8.389,-6.538Z" style="fill:#b3a890;"/><path d="M67.841,63.029l15.077,0.133l11.775,7.927l-6.219,5.395l-6.229,3.114l-16.5,-1.517l-6.333,2.2l-1.975,-6.354l-12.428,-4.186l-2.784,-6.112l2.786,-2.98l5.914,-0.711l3.121,1.56l13.795,1.531" style="fill:#b3a890;"/><path d="M13.972,44.046c1.868,0.206 16.057,6.73 16.057,6.73l6.708,10.037l-10.733,4.05l-6.868,-5.059l-9.232,-2.991c0,0 2.201,-12.972 4.068,-12.767Z" style="fill:#b3a890;"/><path d="M120.238,59.911l-8.114,8.245l-0.779,11.122l7.714,2.943l12.603,-0.499l7.551,-6.957l4.782,-8.342l-8.836,-3.207l-8.82,-2.168l-6.101,-1.137" style="fill:#b3a890;"/><path d="M162.63,58.063l-4.035,4.826l-3.812,11.412l9.176,4.588l8.151,-4.808l5.367,-6.651l-10.733,-3.248l0,-2.182l-1.741,-2.314l-2.373,-1.623Z" style="fill:#b3a890;"/><path d="M93.464,82.782l-4.635,4.875l0,5.89l9.703,6.294l10.623,3.868l3.426,-6.437l0,-10.178l-19.117,-4.312Z" style="fill:#b3a890;"/></g><g><g opacity="0.5"><path d="M190.1,60.76l8.162,-4.081l-0.517,-8.196l-9.045,-3.123l-7.158,-4.979l-10.549,-2.267l-10.545,10.639l4.09,8.688l9.462,6.002l16.1,-2.683Z" style="fill:#968269;"/><path d="M141.801,32.655l14.664,1.99l-5.999,20.445l-12.296,-0.565l-9.122,2.542l-2.034,-6.384l-10.082,-7.005l3.402,-9.357l5.367,-4.48l10.733,0.13l5.367,2.684Z" style="fill:#968269;"/><path d="M116.932,24.176l14.136,-0.172l9.297,2.591l3.036,-1.518l3.766,-1.883l-2.821,-3.956l-2.545,-4.094l-6.616,-0.486l-4.117,-2.059l-5.367,-0.138l-12.168,0.718l-0.533,2.273l0.175,6.846l3.757,1.878Z" style="fill:#968269;"/><path d="M85.483,8.452l10.99,-2.843l6.618,4.549l5.1,5.692l-3.956,4.218l-10.733,3.126l-10.734,3.661l-7.909,3.117l0.734,-4.999l-5.448,-3.724l5.367,-2.683l-1.789,-6.261l11.76,-3.853" style="fill:#968269;"/><path d="M94.581,37.752l-8.543,3.192l-8.636,7.002l7.698,7.954l6.216,1.686l4.098,5.503l7.41,-1.624l1.411,-9.773l2.455,-7.885l-6.251,-5.961l-5.858,-0.094Z" style="fill:#968269;"/><path d="M45.203,31.244l13.21,1.239l10.168,8.538l-3.293,7.013l-5.008,5.188l-15.077,-0.512l-8.505,4.253l-3.967,-8.75l0.459,-5.596l3.624,-4.834l8.389,-6.539Z" style="fill:#968269;"/><path d="M64.364,67.658l15.078,0.132l11.774,7.927l-6.219,5.395l-6.229,3.114l-16.5,-1.517l-6.332,2.201l-1.975,-6.354l-12.429,-4.187l-2.784,-6.112l2.786,-2.979l5.914,-0.712l3.121,1.561l13.795,1.531" style="fill:#968269;"/><path d="M11.113,50.32c1.868,0.206 15.439,5.084 15.439,5.084l6.708,10.037l-10.733,4.051l-6.868,-5.06l-9.232,-2.99c0,0 2.819,-11.327 4.686,-11.122Z" style="fill:#968269;"/><path d="M116.761,64.539l-8.114,8.245l-0.779,11.122l7.715,2.943l12.603,-0.498l7.551,-6.958l4.782,-8.342l-8.836,-3.206l-8.821,-2.168l-6.101,-1.138" style="fill:#968269;"/><path d="M159.154,62.692l-4.035,4.825l-3.813,11.412l9.177,4.589l8.15,-4.809l5.367,-6.651l-10.733,-3.248l0,-2.182l-1.741,-2.314l-2.372,-1.622Z" style="fill:#968269;"/><path d="M89.987,87.41l-4.634,4.875l0,5.89l9.972,5.429l10.353,4.733l3.426,-6.437l0,-10.178l-19.117,-4.312Z" style="fill:#968269;"/></g></g></g></g></svg>