<?xml version="1.0" encoding="UTF-8" standalone="no"?><!DOCTYPE svg PUBLIC "-//W3C//DTD SVG 1.1//EN" "http://www.w3.org/Graphics/SVG/1.1/DTD/svg11.dtd"><svg width="100%" height="100%" viewBox="0 0 215 205" version="1.1" xmlns="http://www.w3.org/2000/svg" xmlns:xlink="http://www.w3.org/1999/xlink" xml:space="preserve" xmlns:serif="http://www.serif.com/" style="fill-rule:evenodd;clip-rule:evenodd;stroke-linejoin:round;stroke-miterlimit:1.41421;"><g id="Dirt_Block07"><g><path d="M214.711,54.389l0,96.599l-107.331,53.665l0,-96.598l107.331,-53.666Z" style="fill:#bfac80;"/><path d="M203.978,102.689l6.94,8.836l-1.573,15.313l-5.367,8.05l-7.424,-3.712l-3.309,-7.021l0,-10.733l10.733,-10.733" style="fill:#b2a386;"/><path d="M192.723,83.428l9.359,6.054l-1.526,6.129l-5.366,2.683l-3.943,-1.971l-4.189,-4.696l0.428,-5.581l5.237,-2.618Z" style="fill:#b2a386;"/><path d="M161.046,105.115l5.366,-5.11l10.733,1.512l1.945,4.827l1.1,8.238l-11.034,10.884l-2.744,-5.39l-5.366,-1.288l-2.362,-10.291l2.362,-3.382" style="fill:#b2a386;"/><path d="M178.619,131.468l-6.84,5.652l2.278,12.729l8.455,2.989l7.519,1.909l3.214,-3.759l3.402,1.7l5.435,-0.752l1.896,-4.211l-5.366,-4.787l-4.042,-3.346l-7.512,-5.175l-8.439,-2.949Z" style="fill:#b2a386;"/><path d="M142.091,122.899l-7.878,3.939l-5.367,10.282l2.452,9.727l19.015,4.141l6.893,-7.287l1.478,-7.632l-5.86,-7.803l-10.733,-5.367Z" style="fill:#b2a386;"/><path d="M118.113,157.951l-8.709,10.148l1.338,6.036l7.371,19.785c0,0 8.248,-5.443 10.733,-5.366c2.486,0.076 7.943,-3.972 7.943,-3.972l-2.576,-9.445l-8.208,-6.629l-7.892,-10.557Z" style="fill:#b2a386;"/><path d="M166.412,156.247l-10.733,1.199l-10.733,6.958l1.544,7.735l4.409,5.975l7.785,-1.475l5.306,-5.071l4.047,-6.352l-1.625,-8.969" style="fill:#b2a386;"/><path d="M109.404,125.167l8.709,6.93l10.733,-4.854l5.367,-14.553l-14.73,-3.95l-6.736,5.465l-3.343,10.962" style="fill:#b2a386;"/><path d="M122.138,160.851l-8.372,9.702l1.286,5.769l7.086,18.915c0,0 7.927,-5.204 10.317,-5.131c2.389,0.074 7.634,-3.796 7.634,-3.796l-2.476,-9.029l-7.889,-6.338l-7.586,-10.092Zm46.426,-1.629l-10.317,1.146l-10.317,6.652l1.484,7.395l4.238,5.711l7.483,-1.409l5.101,-4.848l3.89,-6.072l-1.562,-8.575Zm11.734,-23.688l-6.575,5.403l2.189,12.169l8.128,2.857l7.227,1.825l3.09,-3.594l3.27,1.626l5.224,-0.719l1.823,-4.026l-5.159,-4.576l-3.885,-3.198l-7.221,-4.948l-8.111,-2.819Zm-35.113,-8.191l-7.572,3.765l-5.158,9.829l2.356,9.299l18.278,3.958l6.625,-6.966l1.421,-7.296l-5.633,-7.459l-10.317,-5.13Zm59.489,-19.321l6.671,8.447l-1.513,14.639l-5.158,7.695l-7.137,-3.548l-3.18,-6.712l0,-10.261l10.317,-10.26Zm-90.908,21.488l3.213,-10.479l6.475,-5.224l14.159,3.776l-5.158,13.912l-10.317,4.641l-8.372,-6.626Zm49.64,-19.169l5.158,-4.885l10.317,1.446l1.869,4.614l1.058,7.876l-10.606,10.404l-2.638,-5.152l-5.158,-1.231l-2.271,-9.838l2.271,-3.234Zm30.449,-20.732l8.996,5.787l-1.467,5.86l-5.158,2.565l-3.79,-1.885l-4.027,-4.489l0.412,-5.335l5.034,-2.503Z" style="fill:#6d5735;fill-opacity:0.5;"/></g><path d="M0.049,54.389l107.331,53.666l0,96.598l-107.331,-53.665l0,-96.599" style="fill:#68583f;"/><clipPath id="_clip1"><path d="M0.049,54.389l107.331,53.666l0,96.598l-107.331,-53.665l0,-96.599"/></clipPath><g clip-path="url(#_clip1)"><path d="M89.91,174.452l11.735,-4.08l-0.236,-16.221l-6.989,-11.581l-11.748,-1.32l-5.988,4.726l-1.503,10.627l14.729,17.849" style="fill:#68583f;"/><path d="M85.589,190.8l17.272,-3.671l-1.819,-6.448l-9.042,-3.989l-7.196,0.973l-8.01,3.61l-0.029,5.632l8.824,3.893Z" style="fill:#68583f;"/><path d="M48.647,166.472l4.778,5.837l11.198,0.057l2.666,-4.498l2.281,-7.997l-9.77,-12.374l-3.564,4.939l-5.673,0.498l-3.86,9.848l1.944,3.69" style="fill:#68583f;"/><path d="M73.737,140.605l-6.21,-6.587l4.114,-12.273l9.074,-1.736l7.963,-0.802l2.764,4.188l3.72,-1.191l5.458,1.532l1.351,4.444l-6.164,3.963l-4.606,2.727l-8.414,4.037l-9.05,1.698Z" style="fill:#68583f;"/><path d="M34.587,151.55l-4.295,-4.586l-1.861,-10.647l2.87,-9.418l12.278,-2.445l3.22,7.814l-0.16,7.686l-4.698,7.216l-7.354,4.38Z" style="fill:#68583f;"/><path d="M15.513,105.621l-7.494,-11.309l2.215,-5.782l10.317,-18.523c0,0 7.679,6.584 10.235,6.868c2.555,0.284 7.573,5.082 7.573,5.082l-3.959,8.979l-9.33,5.376l-9.557,9.309Z" style="fill:#68583f;"/><path d="M60.802,119.664l-10.818,-2.741l-10.012,-8.444l2.664,-7.436l5.35,-5.276l7.761,2.586l4.722,5.79l3.252,6.875l-2.919,8.646" style="fill:#68583f;"/><path d="M4.039,125.579l8.581,-9.593l7.678,8.654l1.217,22.864l-12.832,4.345l-4.296,-9.13l-0.348,-17.14" style="fill:#68583f;"/><path d="M81.599,191.243l17.273,-3.67l-1.819,-6.448l-9.043,-3.989l-7.196,0.973l-8.01,3.609l-0.029,5.633l8.824,3.892Zm4.321,-16.347l-14.729,-17.849l1.503,-10.628l5.988,-4.725l11.749,1.32l6.989,11.581l0.235,16.221l-11.735,4.08Zm-41.263,-7.98l-1.944,-3.691l3.86,-9.847l5.673,-0.498l3.564,-4.94l9.77,12.374l-2.281,7.998l-2.666,4.498l-11.198,-0.058l-4.778,-5.836Zm-44.608,-40.894l8.581,-9.593l7.678,8.655l1.217,22.864l-12.832,4.344l-4.296,-9.13l-0.348,-17.14Zm30.548,25.971l-4.295,-4.586l-1.861,-10.647l2.87,-9.418l12.278,-2.445l3.22,7.815l-0.16,7.685l-4.698,7.216l-7.354,4.38Zm39.15,-10.945l-6.21,-6.586l4.114,-12.274l9.074,-1.736l7.963,-0.801l2.764,4.188l3.72,-1.192l5.458,1.532l1.351,4.444l-6.164,3.963l-4.606,2.728l-8.414,4.036l-9.05,1.698Zm-12.935,-20.94l-10.818,-2.742l-10.012,-8.444l2.664,-7.435l5.35,-5.277l7.761,2.587l4.722,5.79l3.252,6.875l-2.919,8.646Zm-45.289,-14.043l-7.494,-11.309l2.215,-5.782l10.317,-18.524c0,0 7.679,6.584 10.235,6.868c2.555,0.284 7.573,5.082 7.573,5.082l-3.959,8.979l-9.33,5.376l-9.557,9.31Z" style="fill:#0a0500;fill-opacity:0.3;"/></g><path d="M214.711,54.389l-107.331,53.666l-107.331,-53.666l107.331,-53.665l107.331,53.665Z" style="fill:#84775b;"/><path d="M107.339,10.395c0,0 22.197,6.624 42.968,16.082c23.225,10.575 41.515,16.966 42.933,26.832c0.688,4.791 -63.108,40.333 -85.901,42.951c-20.083,2.306 -85.219,-38.894 -85.829,-42.951c-1.173,-7.792 74.909,-45.097 85.829,-42.914Z" style="fill:#68583f;fill-opacity:0.428571;"/><path d="M101.388,25.178c26.612,1.029 30.819,-0.226 41.015,5.821c7.746,4.594 16.418,12.433 15.956,18.382c-1.128,14.521 -25.735,33.177 -42.182,33.929c-7.737,0.354 -23.906,-4.985 -32.666,-7.315c-9.86,-2.622 -20.102,-16.125 -23.281,-20.659c-12.359,-17.627 5.936,-31.521 41.158,-30.158Z" style="fill:#68583f;fill-opacity:0.5;"/></g></svg>