<?xml version="1.0" encoding="UTF-8" standalone="no"?><!DOCTYPE svg PUBLIC "-//W3C//DTD SVG 1.1//EN" "http://www.w3.org/Graphics/SVG/1.1/DTD/svg11.dtd"><svg width="100%" height="100%" viewBox="0 0 216 209" version="1.1" xmlns="http://www.w3.org/2000/svg" xmlns:xlink="http://www.w3.org/1999/xlink" xml:space="preserve" xmlns:serif="http://www.serif.com/" style="fill-rule:evenodd;clip-rule:evenodd;stroke-linejoin:round;stroke-miterlimit:1.41421;"><g id="Dirt_Block13"><g><path d="M214.837,58.362l0,96.599l-107.331,53.665l0,-96.598l107.331,-53.666Z" style="fill:#bfac80;"/><path d="M204.104,106.662l6.94,8.836l-1.573,15.313l-5.367,8.05l-7.424,-3.712l-3.309,-7.021l0,-10.733l10.733,-10.733" style="fill:#b2a386;"/><path d="M192.849,87.401l9.359,6.054l-1.526,6.129l-5.367,2.683l-3.942,-1.971l-4.19,-4.696l0.429,-5.581l5.237,-2.618Z" style="fill:#b2a386;"/><path d="M161.172,109.088l5.366,-5.11l10.733,1.512l1.945,4.827l1.1,8.238l-11.034,10.884l-2.744,-5.39l-5.366,-1.288l-2.362,-10.291l2.362,-3.382" style="fill:#b2a386;"/><path d="M178.745,135.441l-6.84,5.652l2.278,12.729l8.455,2.989l7.519,1.909l3.214,-3.759l3.402,1.701l5.435,-0.753l1.896,-4.211l-5.366,-4.787l-4.042,-3.346l-7.513,-5.175l-8.438,-2.949Z" style="fill:#b2a386;"/><path d="M142.216,126.872l-7.877,3.939l-5.367,10.282l2.452,9.727l19.014,4.141l6.893,-7.287l1.479,-7.632l-5.86,-7.803l-10.734,-5.367Z" style="fill:#b2a386;"/><path d="M118.239,161.924l-8.709,10.148l1.337,6.036l7.372,19.785c0,0 8.247,-5.443 10.733,-5.366c2.486,0.076 7.943,-3.972 7.943,-3.972l-2.576,-9.445l-8.208,-6.629l-7.892,-10.557Z" style="fill:#b2a386;"/><path d="M166.538,160.22l-10.733,1.199l-10.733,6.958l1.544,7.735l4.409,5.975l7.785,-1.475l5.306,-5.071l4.047,-6.352l-1.625,-8.969" style="fill:#b2a386;"/><path d="M109.53,129.14l8.709,6.93l10.733,-4.854l5.367,-14.553l-14.73,-3.95l-6.736,5.465l-3.343,10.962" style="fill:#b2a386;"/><path d="M122.263,164.824l-8.371,9.702l1.286,5.769l7.085,18.915c0,0 7.928,-5.204 10.317,-5.13c2.39,0.073 7.635,-3.797 7.635,-3.797l-2.476,-9.029l-7.889,-6.338l-7.587,-10.092Zm46.427,-1.629l-10.317,1.146l-10.317,6.652l1.484,7.395l4.238,5.711l7.483,-1.409l5.101,-4.848l3.889,-6.072l-1.561,-8.575Zm11.734,-23.688l-6.576,5.403l2.19,12.169l8.127,2.857l7.228,1.825l3.089,-3.594l3.27,1.626l5.225,-0.719l1.822,-4.026l-5.158,-4.576l-3.885,-3.198l-7.221,-4.948l-8.111,-2.819Zm-35.113,-8.191l-7.572,3.765l-5.159,9.829l2.357,9.299l18.277,3.958l6.626,-6.966l1.421,-7.295l-5.633,-7.46l-10.317,-5.13Zm59.488,-19.321l6.672,8.447l-1.513,14.639l-5.159,7.695l-7.136,-3.548l-3.181,-6.712l0,-10.261l10.317,-10.26Zm-90.907,21.488l3.213,-10.479l6.475,-5.224l14.159,3.776l-5.159,13.913l-10.317,4.64l-8.371,-6.626Zm49.639,-19.169l5.159,-4.885l10.317,1.446l1.869,4.614l1.058,7.876l-10.606,10.404l-2.638,-5.152l-5.159,-1.231l-2.27,-9.838l2.27,-3.234Zm30.45,-20.732l8.996,5.787l-1.467,5.86l-5.158,2.565l-3.79,-1.885l-4.027,-4.489l0.412,-5.335l5.034,-2.503Z" style="fill:#6d5735;fill-opacity:0.5;"/></g><path d="M0.175,58.362l107.331,53.666l0,96.598l-107.331,-53.665l0,-96.599" style="fill:#68583f;"/><clipPath id="_clip1"><path d="M0.175,58.362l107.331,53.666l0,96.598l-107.331,-53.665l0,-96.599"/></clipPath><g clip-path="url(#_clip1)"><path d="M90.036,178.425l11.734,-4.08l-0.235,-16.221l-6.989,-11.581l-11.749,-1.32l-5.987,4.726l-1.503,10.627l14.729,17.849" style="fill:#68583f;"/><path d="M85.714,194.773l17.273,-3.671l-1.819,-6.448l-9.042,-3.989l-7.196,0.973l-8.01,3.61l-0.029,5.632l8.823,3.893Z" style="fill:#68583f;"/><path d="M48.773,170.445l4.778,5.837l11.198,0.057l2.666,-4.498l2.281,-7.997l-9.77,-12.374l-3.564,4.939l-5.674,0.498l-3.859,9.848l1.944,3.69" style="fill:#68583f;"/><path d="M73.863,144.578l-6.211,-6.587l4.115,-12.273l9.073,-1.736l7.964,-0.802l2.763,4.188l3.721,-1.191l5.457,1.532l1.352,4.444l-6.164,3.963l-4.606,2.727l-8.414,4.037l-9.05,1.698Z" style="fill:#68583f;"/><path d="M34.712,155.523l-4.294,-4.586l-1.862,-10.647l2.871,-9.418l12.278,-2.445l3.22,7.814l-0.16,7.686l-4.698,7.216l-7.355,4.38Z" style="fill:#68583f;"/><path d="M15.639,109.594l-7.494,-11.309l2.215,-5.782l10.317,-18.523c0,0 7.679,6.584 10.234,6.868c2.556,0.284 7.574,5.082 7.574,5.082l-3.96,8.979l-9.329,5.376l-9.557,9.309Z" style="fill:#68583f;"/><path d="M60.928,123.637l-10.819,-2.741l-10.011,-8.444l2.663,-7.435l5.35,-5.277l7.762,2.587l4.722,5.789l3.252,6.875l-2.919,8.646" style="fill:#68583f;"/><path d="M4.165,129.552l8.581,-9.593l7.678,8.654l1.217,22.864l-12.832,4.345l-4.296,-9.13l-0.348,-17.14" style="fill:#68583f;"/><path d="M81.724,195.216l17.273,-3.67l-1.819,-6.448l-9.042,-3.989l-7.196,0.973l-8.01,3.609l-0.029,5.633l8.823,3.892Zm4.322,-16.347l-14.729,-17.849l1.503,-10.628l5.987,-4.725l11.749,1.32l6.989,11.581l0.236,16.221l-11.735,4.08Zm-41.263,-7.98l-1.944,-3.691l3.859,-9.847l5.674,-0.498l3.564,-4.94l9.77,12.374l-2.281,7.998l-2.666,4.498l-11.198,-0.058l-4.778,-5.836Zm-44.608,-40.894l8.581,-9.593l7.678,8.655l1.217,22.864l-12.832,4.344l-4.296,-9.129l-0.348,-17.141Zm30.547,25.971l-4.294,-4.586l-1.862,-10.647l2.871,-9.418l12.278,-2.445l3.22,7.815l-0.16,7.685l-4.698,7.216l-7.355,4.38Zm39.151,-10.945l-6.21,-6.586l4.114,-12.274l9.073,-1.736l7.964,-0.801l2.764,4.188l3.72,-1.192l5.457,1.532l1.352,4.444l-6.164,3.963l-4.606,2.728l-8.414,4.036l-9.05,1.698Zm-12.935,-20.94l-10.818,-2.742l-10.012,-8.443l2.663,-7.436l5.35,-5.277l7.762,2.587l4.722,5.79l3.252,6.875l-2.919,8.646Zm-45.289,-14.043l-7.494,-11.309l2.215,-5.782l10.317,-18.524c0,0 7.679,6.584 10.234,6.868c2.556,0.284 7.574,5.082 7.574,5.082l-3.96,8.98l-9.329,5.375l-9.557,9.31Z" style="fill:#0a0500;fill-opacity:0.3;"/></g><path d="M215.132,58.442l-107.331,-53.665l-107.331,53.665l107.331,53.666l107.331,-53.666Z" style="fill:#84775b;"/><clipPath id="_clip2"><path d="M215.132,58.442l-107.331,-53.665l-107.331,53.665l107.331,53.666l107.331,-53.666Z"/></clipPath><g clip-path="url(#_clip2)"><path d="M-11.558,25.553c0,0 25.752,7.572 44.227,16.79c10.717,5.347 10.436,12.284 12.301,17.627c6.806,19.49 22.136,14.676 56.519,21.33c14.621,2.83 30.458,10.551 38.511,14.708c16.652,8.596 35.774,8.946 35.774,8.946l-153.846,33.017l-67.965,-77.833l34.479,-34.585Z" style="fill:#bfac80;"/><path d="M182.933,74.542c-1.62,-2.35 -41.14,-4.125 -39.943,-23.447c0.693,-11.186 -13.275,-6.448 -46.624,-17.141c-3.267,-1.047 -10.017,-7.712 -20.764,-13.078c-26.494,-13.227 -64.207,-12.397 -64.207,-12.397l153.225,-35.789l73.087,90.565l-54.774,11.287Z" style="fill:#bfac80;"/></g><g><path d="M111.933,105.856l-3.284,3.605l-0.063,-17.267l3.347,13.662Zm-3.405,-13.743l-3.608,11.009l-0.809,6.221l4.538,0.118l-0.121,-17.348Zm31.302,-3.667l-2.066,6.538l-2.815,-5.901l-3.8,3.402l-2.664,-4.383l-7.016,-1.265l4.209,-3.262l0.401,-13.092l5.93,12.033l3.813,-11.087l2.719,6.617l5.758,-5.156l0.521,6.595l-0.591,4.647l6.86,-1.444l-6.797,4.827l6.883,6.345l-7.861,-1.467l-1.164,1.725l-2.32,-5.672Zm-54.292,-18.433l-5.998,16.111l3.886,2.813l5.169,-0.226l5.88,2.94l3.93,-2.587l2.832,-1.705l4.257,-12.303l-3.198,2.719l-3.891,3.763l0.755,-7.017l-3.215,6.135l-1.996,4.629l-1.088,-9.457l1.611,-4.175l-4.98,8.591l-0.72,4.822l-1.624,-0.837l-1.61,-14.216Zm-24.939,16.53l-3.285,3.605l-0.062,-17.268l3.347,13.663Zm-3.405,-13.744l-3.608,11.009l-0.809,6.222l4.537,0.118l-0.12,-17.349Zm1.825,-16.239c0.064,0.088 0.31,0.08 0.944,-0.179c1.641,-0.671 5.24,3.648 5.349,1.74c0.109,-1.909 -3.129,-4.77 -3.017,-5.65c0.113,-0.88 -2.401,-0.171 -2.401,-0.171l2.149,-3.749l4.595,-5.018l-5.372,1.36l-1.134,-3.479l-3.671,1.077l-1.742,5.676l-2.511,4.337l-0.448,-5.935l2.512,-3.516l-1.099,-4.118l0.777,-6.569l-6.087,5.826l-1.978,2.252l1.185,-6.695l-3.375,-1.687l-3.739,3.254l0.052,5.427l-3.02,1.908l-3.208,-5.223c0,0 -0.07,-2.31 -0.839,-0.301c-0.768,2.009 -1.672,7.835 -1.672,7.835l-0.089,2.835l-3.226,-5.045c0,0 -0.975,0.242 -0.789,1.276c0.186,1.034 0.379,8.282 0.379,8.282l-1.8,1.29l-2.149,0.782l-4.337,3.423c0,0 0.849,2.702 2.663,2.714c0.876,0.006 2.531,0.384 4.01,0.773l-0.214,10.964l-2.675,3.262l4.46,1.266l1.693,4.383l2.415,-3.402l1.789,5.901l1.313,-6.539l1.475,5.673l0.74,-1.726l4.996,1.468l-4.375,-6.345l4.321,-4.828l-4.36,1.445l0.375,-4.647l-0.312,-6.216c1.164,-0.339 2.034,-0.616 2.034,-0.616c0,0 2.712,-0.904 4.319,-2.411c1.607,-1.507 0.717,-3.79 2.97,-2.799c2.254,0.991 5.491,4.56 5.491,4.56c0,0 0.759,1.008 3.13,-0.778c2.372,-1.786 3.175,-2.69 3.175,-2.69l0.328,-0.657c-0.1,-0.139 0.261,-0.521 0.261,-0.521l-0.261,0.521Zm99.644,-6.367l-3.107,9.476l-2.63,-3.318l0.45,7.036l-2.881,-8.08l-1.208,5.203l-2.875,-6.17l0,3.704c0,0 -1.254,2.571 -2.126,1.62c-3.613,-3.938 -1.756,1.093 -1.958,1.381c-0.87,1.237 0,1.714 0,1.714l-0.668,1.608c0,0 1.569,-0.935 0.668,0.918c-0.901,1.852 -2.607,3.63 -1.421,3.625c1.185,-0.005 2.695,-1.475 4.521,1.364c0.276,0.429 0.984,0.988 0.984,0.988c0,0 2.106,0.944 3.122,1.062c1.017,0.117 0.687,0.87 2.277,0.157c1.591,-0.714 2.425,-1.892 2.768,-0.882c0.344,1.01 1.607,1.396 1.607,1.396l3.299,0.372l0.499,-0.884c0,0 2.291,-0.488 4.413,0.493c2.121,0.98 3.357,2.833 3.357,0.559c0,-2.273 0.33,-2.192 0.33,-2.192c0,0 -0.002,-1.84 1.212,-1.971c1.214,-0.13 3.731,-0.218 3.731,-0.218l-2.113,-1.596c0,0 3.607,-2.223 4.88,-2.543c1.274,-0.32 3.288,0.438 3.288,0.438l-1.798,1.815c0,0 1.151,-1.041 1.798,-0.796c0.647,0.244 3.118,-0.345 3.118,-0.345l0.966,-1.464c0,0 -0.3,-0.389 -1.251,-1.483c-0.95,-1.095 -1.52,-1.684 -1.52,-1.684l-0.095,-0.926l1.421,-3.782l0.417,-3.433l-5.079,6.778l-0.014,-5.416l-2.828,4.169l-0.666,-6.567l-2.637,7.83c0,0 -0.99,1.74 -1.267,-0.351c-0.277,-2.091 -1.252,-6.68 -1.252,-6.68l-2.337,-3.267l0.773,11.194l-3.164,-1.401l-0.92,-11.26l-1.436,13.834l-1.351,-3.163l-1.297,1.99l0,-10.852Zm-131.959,11.307c1.234,0.341 2.191,0.639 2.191,0.639c0,0 1.081,0.794 2.611,0.984l-1.765,8.074l-3.037,-9.697Zm78.46,-7.107l-6.821,-6.933l1.3,8.667l-5.521,-10.208l-2.166,6.818l-6.032,-8.085l-2.845,11.437l-3.086,-9.506l-2.436,7.421l-9.309,-4.825l5.657,10.375l3.652,6.962c0,0 6.342,-1.878 7.955,-3.004c1.613,-1.126 2.271,-1.062 4.428,-0.661c2.157,0.401 6.031,1.364 9.703,1.846c3.672,0.481 9.628,2.353 9.628,2.353l5.645,-0.428c2.677,-1.925 4.553,-3.424 4.553,-3.424l6.119,-2.311l-6.465,-0.427l-5.243,-3.492l2.327,-12.397l-11.043,9.822Zm-71.271,12.335l-0.947,-3.627c1.148,-0.185 2.861,-0.642 4.263,-1.045l-3.316,4.672Zm159.021,-17.705l-3.608,11.009l-0.81,6.222l4.538,0.118l-0.12,-17.349Zm3.405,13.744l-3.285,3.605l-0.062,-17.268l3.347,13.663Zm-44.825,-25.833l-2.396,1.445l3.522,-13.596l-5.644,9.508l-2.932,-4.831l-1.644,5.572l-3.317,-3.872l-2.242,-1.748l-2.543,10.943l-2.683,-1.343l0.205,8.402l-1.98,4.529c0,0 2.464,1.013 3.112,1.868c0.648,0.854 -1.151,3.263 1.558,2.221c2.709,-1.042 3.738,-0.682 5.063,-2.391c1.324,-1.71 2.564,-3.245 2.564,-3.245l3.787,0.34c0,0 1.409,-3.655 1.883,0.169c0.474,3.823 3.505,-3.318 3.505,-3.318l3.21,-6.687l-3.028,-3.966Zm-58.742,-30.923l-4.084,14.058l-3.456,-4.922l0.592,10.437l-3.785,-11.987l-1.589,7.719l-3.778,-9.153l0,5.495c0,0 -1.647,3.814 -2.793,2.403c-4.748,-5.841 -2.307,1.622 -2.574,2.05c-1.143,1.834 0,2.542 0,2.542l-0.878,2.385c0,0 2.063,-1.386 0.878,1.362c-1.184,2.747 -3.425,5.385 -1.867,5.377c1.558,-0.007 3.542,-2.188 5.941,2.024c0.363,0.637 1.293,1.466 1.293,1.466c0,0 2.767,1.401 4.103,1.575c1.336,0.174 0.903,1.291 2.993,0.233c2.09,-1.058 3.186,-2.807 3.637,-1.308c0.452,1.499 2.112,2.071 2.112,2.071l4.335,0.552l0.656,-1.312c0,0 3.01,-0.723 5.798,0.732c2.788,1.454 4.412,4.202 4.412,0.83c0,-3.373 0.434,-3.253 0.434,-3.253c0,0 -0.003,-2.73 1.592,-2.924c1.596,-0.193 4.903,-0.324 4.903,-0.324l-2.776,-2.367c0,0 4.739,-3.297 6.413,-3.772c1.674,-0.475 4.321,0.649 4.321,0.649l-2.363,2.692c0,0 1.512,-1.543 2.363,-1.181c0.85,0.363 4.097,-0.511 4.097,-0.511l1.269,-2.172c0,0 -0.394,-0.576 -1.643,-2.2c-1.249,-1.623 -1.999,-2.498 -1.999,-2.498l-0.125,-1.374l1.869,-5.61l0.548,-5.093l-6.675,10.055l-0.018,-8.035l-3.717,6.185l-0.874,-9.742l-3.466,11.616c0,0 -1.301,2.581 -1.666,-0.521c-0.364,-3.101 -1.645,-9.91 -1.645,-9.91l-3.07,-4.847l1.015,16.608l-4.158,-2.079l-1.209,-16.704l-1.887,20.522l-1.775,-4.693l-1.704,2.954l0,-16.1Z" style="fill:#0a0500;fill-opacity:0.3;"/><g id="GrassBlank02"><path d="M143.634,85.546l-2.066,6.539l-2.815,-5.901l-3.8,3.402l-2.664,-4.383l-7.016,-1.266l4.209,-3.262l0.401,-13.091l5.93,12.032l3.813,-11.087l2.719,6.618l5.758,-5.157l0.521,6.596l-0.591,4.647l6.86,-1.445l-6.797,4.828l6.883,6.345l-7.861,-1.468l-1.164,1.726l-2.32,-5.673" style="fill:#33653a;"/><clipPath id="_clip3"><path d="M143.634,85.546l-2.066,6.539l-2.815,-5.901l-3.8,3.402l-2.664,-4.383l-7.016,-1.266l4.209,-3.262l0.401,-13.091l5.93,12.032l3.813,-11.087l2.719,6.618l5.758,-5.157l0.521,6.596l-0.591,4.647l6.86,-1.445l-6.797,4.828l6.883,6.345l-7.861,-1.468l-1.164,1.726l-2.32,-5.673"/></clipPath><g clip-path="url(#_clip3)"><path d="M129.883,67.584l2.699,12.399l-1.35,2.21l3.253,2.455l1.521,-4.788l-2.062,-7.098l4.549,-5.153l1.333,-0.518l-1.105,15.654l3.789,-7.761l1.429,-5.437l3.991,0l-3.438,12.4l5.543,-1.13l4.051,-5.412l3.386,1.693l-2.728,3.069l0.375,14.207l-8.38,-2.553l-2.984,3.509l-2.794,-1.9l-0.959,-2.23l-8.458,-1.138l-7.506,-6.293l4.308,-12.749l1.537,-3.436" style="fill:#8fdc5e;"/></g><path d="M155.298,34.034l-2.396,1.446l3.522,-13.597l-5.644,9.509l-2.932,-4.832l-1.644,5.573l-3.317,-3.873l-2.242,-1.748l-2.543,10.944l-2.683,-1.343l0.205,8.401l-1.98,4.529c0,0 2.464,1.014 3.112,1.868c0.648,0.855 -1.151,3.263 1.558,2.221c2.709,-1.041 3.738,-0.681 5.063,-2.391c1.324,-1.709 2.564,-3.245 2.564,-3.245l3.787,0.34c0,0 1.408,-3.654 1.883,0.169c0.474,3.823 3.505,-3.317 3.505,-3.317l3.21,-6.688l-3.028,-3.966Z" style="fill:#33653a;"/><clipPath id="_clip4"><path d="M155.298,34.034l-2.396,1.446l3.522,-13.597l-5.644,9.509l-2.932,-4.832l-1.644,5.573l-3.317,-3.873l-2.242,-1.748l-2.543,10.944l-2.683,-1.343l0.205,8.401l-1.98,4.529c0,0 2.464,1.014 3.112,1.868c0.648,0.855 -1.151,3.263 1.558,2.221c2.709,-1.041 3.738,-0.681 5.063,-2.391c1.324,-1.709 2.564,-3.245 2.564,-3.245l3.787,0.34c0,0 1.408,-3.654 1.883,0.169c0.474,3.823 3.505,-3.317 3.505,-3.317l3.21,-6.688l-3.028,-3.966Z"/></clipPath><g clip-path="url(#_clip4)"><path d="M134.586,33.836l2.315,8.553l4.592,-1.613l-4.449,-6.719l3.344,-8.384l3.401,12.198l3.185,0.13l-0.768,-5.994l2.002,-7.891l0.822,13.298l1.759,-6.524l1.411,-3.662l3.319,-6.103l-3.91,16.099l1.182,-0.207l0.887,0.69l3.573,1.653l3.529,3.147c0,0 -5.697,1.884 -10.226,2.111c-3.358,0.167 -5.756,-1.38 -6.379,-1.062c-0.677,0.346 -0.747,6.145 -2.883,8.954c-2.478,3.26 -7.01,3.564 -7.01,3.564l-2.01,-9.805l2.314,-12.433" style="fill:#8fdc5e;"/></g><g><path d="M112.332,89.213l-3.608,11.009l-0.809,6.222l4.538,0.118l-0.121,-17.349Z" style="fill:#8fdc5e;"/><path d="M115.737,102.957l-3.284,3.605l-0.063,-17.268l3.347,13.663Z" style="fill:#33653a;"/></g><g><path d="M196.718,46.124l-3.608,11.009l-0.81,6.221l4.538,0.118l-0.12,-17.348Z" style="fill:#8fdc5e;"/><path d="M200.123,59.867l-3.285,3.605l-0.062,-17.267l3.347,13.662Z" style="fill:#33653a;"/></g><g><path d="M60.998,69.9l-3.608,11.009l-0.809,6.221l4.537,0.118l-0.12,-17.348Z" style="fill:#8fdc5e;"/><path d="M64.403,83.643l-3.285,3.605l-0.062,-17.267l3.347,13.662Z" style="fill:#33653a;"/></g><path d="M89.342,67.113l-5.998,16.112l3.886,2.813l5.169,-0.226l5.88,2.94l3.93,-2.587l2.832,-1.706l4.257,-12.302l-3.198,2.718l-3.891,3.763l0.755,-7.017l-3.215,6.135l-1.996,4.63l-1.088,-9.457l1.611,-4.175l-4.98,8.591l-0.72,4.821l-1.624,-0.837l-1.61,-14.216Z" style="fill:#33653a;"/><clipPath id="_clip5"><path d="M89.342,67.113l-5.998,16.112l3.886,2.813l5.169,-0.226l5.88,2.94l3.93,-2.587l2.832,-1.706l4.257,-12.302l-3.198,2.718l-3.891,3.763l0.755,-7.017l-3.215,6.135l-1.996,4.63l-1.088,-9.457l1.611,-4.175l-4.98,8.591l-0.72,4.821l-1.624,-0.837l-1.61,-14.216Z"/></clipPath><g clip-path="url(#_clip5)"><path d="M89.416,64.847l-2.215,16.72l4.386,-0.555l1.709,-12.781l5.427,0.299l-3.384,9.991l-0.411,4.351l2.825,-0.486l1.57,-8.128l3.97,-2.472l-3.42,8.452l0.142,3.279l1.44,-2.056c0.255,-1.668 0.94,-3.372 2.055,-5.11l6.623,-5.602l-4.866,7.207l-0.694,3.383l-1.588,2.888l-3.67,1.834l-1.562,1.75c0,0 -2.531,2.881 -3.825,2.999c-1.293,0.117 -7.056,-0.059 -8.408,-0.588c-1.353,-0.529 -6.612,-3.888 -6.612,-3.888l3.185,-11.778l7.323,-9.709Z" style="fill:#8fdc5e;"/></g><path d="M96.556,3.111l-4.084,14.058l-3.456,-4.921l0.592,10.437l-3.785,-11.987l-1.589,7.719l-3.778,-9.154l0,5.496c0,0 -1.647,3.813 -2.793,2.403c-4.748,-5.842 -2.307,1.622 -2.574,2.049c-1.143,1.835 0,2.542 0,2.542l-0.878,2.386c0,0 2.063,-1.387 0.878,1.361c-1.184,2.748 -3.425,5.385 -1.867,5.378c1.557,-0.007 3.542,-2.188 5.941,2.024c0.363,0.637 1.293,1.466 1.293,1.466c0,0 2.767,1.4 4.103,1.574c1.336,0.174 0.903,1.292 2.993,0.233c2.09,-1.058 3.186,-2.806 3.637,-1.308c0.452,1.499 2.112,2.071 2.112,2.071l4.335,0.552l0.656,-1.311c0,0 3.01,-0.723 5.798,0.731c2.788,1.455 4.412,4.202 4.412,0.83c0,-3.372 0.434,-3.253 0.434,-3.253c0,0 -0.003,-2.73 1.592,-2.923c1.596,-0.194 4.903,-0.324 4.903,-0.324l-2.776,-2.368c0,0 4.739,-3.297 6.413,-3.771c1.674,-0.475 4.32,0.649 4.32,0.649l-2.362,2.692c0,0 1.512,-1.544 2.362,-1.181c0.851,0.362 4.098,-0.512 4.098,-0.512l1.269,-2.171c0,0 -0.394,-0.577 -1.643,-2.2c-1.249,-1.624 -1.999,-2.498 -1.999,-2.498l-0.125,-1.374l1.869,-5.611l0.548,-5.092l-6.675,10.054l-0.018,-8.034l-3.717,6.185l-0.874,-9.742l-3.466,11.615c0,0 -1.302,2.581 -1.666,-0.52c-0.364,-3.102 -1.645,-9.911 -1.645,-9.911l-3.07,-4.846l1.015,16.607l-4.158,-2.079l-1.209,-16.704l-1.887,20.523l-1.775,-4.693l-1.704,2.953l0,-16.1Z" style="fill:#33653a;"/><clipPath id="_clip6"><path d="M96.556,3.111l-4.084,14.058l-3.456,-4.921l0.592,10.437l-3.785,-11.987l-1.589,7.719l-3.778,-9.154l0,5.496c0,0 -1.647,3.813 -2.793,2.403c-4.748,-5.842 -2.307,1.622 -2.574,2.049c-1.143,1.835 0,2.542 0,2.542l-0.878,2.386c0,0 2.063,-1.387 0.878,1.361c-1.184,2.748 -3.425,5.385 -1.867,5.378c1.557,-0.007 3.542,-2.188 5.941,2.024c0.363,0.637 1.293,1.466 1.293,1.466c0,0 2.767,1.4 4.103,1.574c1.336,0.174 0.903,1.292 2.993,0.233c2.09,-1.058 3.186,-2.806 3.637,-1.308c0.452,1.499 2.112,2.071 2.112,2.071l4.335,0.552l0.656,-1.311c0,0 3.01,-0.723 5.798,0.731c2.788,1.455 4.412,4.202 4.412,0.83c0,-3.372 0.434,-3.253 0.434,-3.253c0,0 -0.003,-2.73 1.592,-2.923c1.596,-0.194 4.903,-0.324 4.903,-0.324l-2.776,-2.368c0,0 4.739,-3.297 6.413,-3.771c1.674,-0.475 4.32,0.649 4.32,0.649l-2.362,2.692c0,0 1.512,-1.544 2.362,-1.181c0.851,0.362 4.098,-0.512 4.098,-0.512l1.269,-2.171c0,0 -0.394,-0.577 -1.643,-2.2c-1.249,-1.624 -1.999,-2.498 -1.999,-2.498l-0.125,-1.374l1.869,-5.611l0.548,-5.092l-6.675,10.054l-0.018,-8.034l-3.717,6.185l-0.874,-9.742l-3.466,11.615c0,0 -1.302,2.581 -1.666,-0.52c-0.364,-3.102 -1.645,-9.911 -1.645,-9.911l-3.07,-4.846l1.015,16.607l-4.158,-2.079l-1.209,-16.704l-1.887,20.523l-1.775,-4.693l-1.704,2.953l0,-16.1Z"/></clipPath><g clip-path="url(#_clip6)"><path d="M72.646,12.623l4.116,6.541l3.694,0.128l-1.776,-10.36l1.776,-0.703l3.549,15.44l1.818,-3.866l-2.411,-9.4l3.58,-1.34l1.025,17.455l2.358,0.336l-0.423,-15.074l2.541,-2.848l0.038,12.291l8.211,-17.726l-2.814,23.149l-12.105,13.045l-14.931,-7.648l1.754,-19.42Z" style="fill:#8fdc5e;"/><path d="M105.432,6.877l2.494,4.668l1.411,8.69l4.473,0.135l-1.155,-3.069l-1.339,-9.145l3.325,-2.558l1.645,14.481l1.736,-2.331l-0.506,-9.523l1.765,0.882l0.604,10.432l2.046,-1.535l0.907,-11.934l2.802,2.726l-1.663,9.464l2.794,1.943l8.514,6.476c0,0 -11.061,5.503 -12.559,6.28c-1.498,0.776 -8.852,7.427 -8.852,7.427l-13.173,2.364l-4.145,-5.689l8.618,-2.808l1.282,-1.981l-1.669,-1.526l-4.516,-0.891l3.435,-4.561l-5.479,3.814l-0.98,3.796l-0.691,-4.54l3.377,-3.326l1.989,-3.709l-1.669,-13.109l-0.463,-8.858l2.693,0.785l1.25,11.92l-0.475,7.6l1.596,0.761l0.578,-13.551Z" style="fill:#8fdc5e;"/></g><path d="M162.467,47.293l-3.107,9.477l-2.63,-3.318l0.45,7.035l-2.881,-8.08l-1.208,5.203l-2.875,-6.17l0,3.705c0,0 -1.254,2.57 -2.126,1.62c-3.613,-3.938 -1.756,1.093 -1.958,1.381c-0.87,1.237 0,1.713 0,1.713l-0.668,1.608c0,0 1.569,-0.934 0.668,0.918c-0.901,1.852 -2.607,3.63 -1.421,3.625c1.185,-0.005 2.695,-1.475 4.521,1.364c0.276,0.43 0.984,0.989 0.984,0.989c0,0 2.105,0.944 3.122,1.061c1.017,0.117 0.687,0.87 2.277,0.157c1.591,-0.713 2.425,-1.892 2.768,-0.882c0.344,1.011 1.607,1.396 1.607,1.396l3.299,0.372l0.499,-0.884c0,0 2.291,-0.487 4.413,0.493c2.121,0.981 3.357,2.833 3.357,0.56c0,-2.273 0.33,-2.193 0.33,-2.193c0,0 -0.002,-1.84 1.212,-1.97c1.214,-0.131 3.73,-0.219 3.73,-0.219l-2.112,-1.596c0,0 3.607,-2.222 4.88,-2.542c1.274,-0.32 3.288,0.437 3.288,0.437l-1.798,1.815c0,0 1.151,-1.04 1.798,-0.796c0.647,0.244 3.118,-0.345 3.118,-0.345l0.966,-1.464c0,0 -0.3,-0.388 -1.251,-1.483c-0.95,-1.094 -1.52,-1.683 -1.52,-1.683l-0.096,-0.927l1.422,-3.782l0.417,-3.432l-5.079,6.777l-0.014,-5.416l-2.828,4.17l-0.666,-6.567l-2.637,7.829c0,0 -0.99,1.74 -1.267,-0.35c-0.278,-2.091 -1.253,-6.681 -1.253,-6.681l-2.336,-3.267l0.773,11.195l-3.164,-1.402l-0.92,-11.259l-1.436,13.834l-1.351,-3.164l-1.297,1.991l0,-10.853Z" style="fill:#33653a;"/><clipPath id="_clip7"><path d="M162.467,47.293l-3.107,9.477l-2.63,-3.318l0.45,7.035l-2.881,-8.08l-1.208,5.203l-2.875,-6.17l0,3.705c0,0 -1.254,2.57 -2.126,1.62c-3.613,-3.938 -1.756,1.093 -1.958,1.381c-0.87,1.237 0,1.713 0,1.713l-0.668,1.608c0,0 1.569,-0.934 0.668,0.918c-0.901,1.852 -2.607,3.63 -1.421,3.625c1.185,-0.005 2.695,-1.475 4.521,1.364c0.276,0.43 0.984,0.989 0.984,0.989c0,0 2.105,0.944 3.122,1.061c1.017,0.117 0.687,0.87 2.277,0.157c1.591,-0.713 2.425,-1.892 2.768,-0.882c0.344,1.011 1.607,1.396 1.607,1.396l3.299,0.372l0.499,-0.884c0,0 2.291,-0.487 4.413,0.493c2.121,0.981 3.357,2.833 3.357,0.56c0,-2.273 0.33,-2.193 0.33,-2.193c0,0 -0.002,-1.84 1.212,-1.97c1.214,-0.131 3.73,-0.219 3.73,-0.219l-2.112,-1.596c0,0 3.607,-2.222 4.88,-2.542c1.274,-0.32 3.288,0.437 3.288,0.437l-1.798,1.815c0,0 1.151,-1.04 1.798,-0.796c0.647,0.244 3.118,-0.345 3.118,-0.345l0.966,-1.464c0,0 -0.3,-0.388 -1.251,-1.483c-0.95,-1.094 -1.52,-1.683 -1.52,-1.683l-0.096,-0.927l1.422,-3.782l0.417,-3.432l-5.079,6.777l-0.014,-5.416l-2.828,4.17l-0.666,-6.567l-2.637,7.829c0,0 -0.99,1.74 -1.267,-0.35c-0.278,-2.091 -1.253,-6.681 -1.253,-6.681l-2.336,-3.267l0.773,11.195l-3.164,-1.402l-0.92,-11.259l-1.436,13.834l-1.351,-3.164l-1.297,1.991l0,-10.853Z"/></clipPath><g clip-path="url(#_clip7)"><path d="M144.273,53.705l3.131,4.409l2.812,0.086l-1.352,-6.983l1.352,-0.474l2.701,10.408l1.382,-2.606l-1.834,-6.337l2.724,-0.903l0.78,11.766l1.794,0.226l-0.321,-10.161l1.933,-1.919l0.03,8.285l6.248,-11.949l-2.141,15.604l-9.213,8.794l-11.362,-5.155l1.336,-13.091Z" style="fill:#8fdc5e;"/><path d="M169.222,49.832l1.898,3.147l1.073,5.857l3.404,0.091l-0.879,-2.069l-1.019,-6.164l2.53,-1.724l1.252,9.761l1.321,-1.571l-0.385,-6.42l1.343,0.595l0.46,7.032l1.557,-1.035l0.69,-8.044l2.132,1.837l-1.265,6.38l2.126,1.309l6.479,4.366c0,0 -8.417,3.709 -9.557,4.233c-1.14,0.523 -6.737,5.006 -6.737,5.006l-10.023,1.594l-3.155,-3.835l6.558,-1.893l0.976,-1.335l-1.27,-1.029l-3.437,-0.6l2.614,-3.075l-4.169,2.571l-0.746,2.559l-0.526,-3.061l2.57,-2.241l1.514,-2.5l-1.271,-8.837l-0.352,-5.971l2.05,0.529l0.951,8.035l-0.361,5.123l1.214,0.513l0.44,-9.134Z" style="fill:#8fdc5e;"/></g><path d="M56.977,36.035l0.777,-6.569l-6.087,5.826l-1.978,2.253l1.185,-6.695l-3.375,-1.688l-3.739,3.255l0.052,5.426l-3.02,1.909l-3.208,-5.224c0,0 -0.07,-2.31 -0.839,-0.301c-0.768,2.009 -1.672,7.835 -1.672,7.835l-0.089,2.836l-3.226,-5.046c0,0 -0.975,0.243 -0.789,1.277c0.186,1.034 0.379,8.282 0.379,8.282l-1.8,1.29l-2.149,0.782l-4.337,3.422c0,0 0.849,2.703 2.663,2.715c1.814,0.012 6.974,1.619 6.974,1.619c0,0 1.801,1.324 4.046,0.963c2.245,-0.36 6.665,-1.767 6.665,-1.767c0,0 2.712,-0.904 4.319,-2.41c1.607,-1.507 0.717,-3.791 2.97,-2.8c2.254,0.992 5.491,4.561 5.491,4.561c0,0 0.759,1.008 3.13,-0.779c2.372,-1.786 3.175,-2.69 3.175,-2.69l0.589,-1.177c0,0 -0.959,1.013 0.683,0.341c1.641,-0.671 5.24,3.649 5.349,1.74c0.109,-1.908 -3.129,-4.77 -3.017,-5.649c0.113,-0.88 -2.401,-0.171 -2.401,-0.171l2.149,-3.75l4.595,-5.017l-5.372,1.36l-1.134,-3.48l-3.671,1.077l-1.742,5.676l-2.511,4.337l-0.448,-5.935l2.511,-3.515l-1.098,-4.119Z" style="fill:#33653a;"/><clipPath id="_clip8"><path d="M56.977,36.035l0.777,-6.569l-6.087,5.826l-1.978,2.253l1.185,-6.695l-3.375,-1.688l-3.739,3.255l0.052,5.426l-3.02,1.909l-3.208,-5.224c0,0 -0.07,-2.31 -0.839,-0.301c-0.768,2.009 -1.672,7.835 -1.672,7.835l-0.089,2.836l-3.226,-5.046c0,0 -0.975,0.243 -0.789,1.277c0.186,1.034 0.379,8.282 0.379,8.282l-1.8,1.29l-2.149,0.782l-4.337,3.422c0,0 0.849,2.703 2.663,2.715c1.814,0.012 6.974,1.619 6.974,1.619c0,0 1.801,1.324 4.046,0.963c2.245,-0.36 6.665,-1.767 6.665,-1.767c0,0 2.712,-0.904 4.319,-2.41c1.607,-1.507 0.717,-3.791 2.97,-2.8c2.254,0.992 5.491,4.561 5.491,4.561c0,0 0.759,1.008 3.13,-0.779c2.372,-1.786 3.175,-2.69 3.175,-2.69l0.589,-1.177c0,0 -0.959,1.013 0.683,0.341c1.641,-0.671 5.24,3.649 5.349,1.74c0.109,-1.908 -3.129,-4.77 -3.017,-5.649c0.113,-0.88 -2.401,-0.171 -2.401,-0.171l2.149,-3.75l4.595,-5.017l-5.372,1.36l-1.134,-3.48l-3.671,1.077l-1.742,5.676l-2.511,4.337l-0.448,-5.935l2.511,-3.515l-1.098,-4.119Z"/></clipPath><g clip-path="url(#_clip8)"><path d="M31.119,38.737l4.327,15.019c-3.04,-0.207 -5.308,0.493 -6.793,2.112l-5.792,-0.862l1.745,5.338l8.093,-0.402c0,0 2.556,-6.392 2.414,-4.602c-0.141,1.79 -0.613,5.406 1.632,7.314c2.245,1.909 4.542,0.75 4.047,-0.429c-0.496,-1.178 0,-4.046 0,-4.046l0,-1.953l1.86,-3.023l2.186,4.529l0,2.47l1.803,-4.948l-0.375,-2.43l-0.109,-4.101c0,0 -1.912,-5.72 -0.672,-4.383c1.24,1.338 8.107,7.439 8.107,7.439l0.429,4.922l2.956,4.647l0,-7.935l2.505,-3.114l5.588,1.909l4.959,6.629l1.01,-1.719l-1.923,-6.116l-3.564,-10.354l-4.955,8.901l-1.581,-0.482l-2.039,1.019l-1.768,-0.884l-4.142,-8.3l-0.23,4.162l-1.953,-3.07l-2.142,-1.071l2.142,4.622l-6.108,-4.544l-0.104,1.933l-0.869,4.753l-1.011,2.399l-1.928,0.964l-0.806,1.716l0.094,2.687l-1.407,-5.254l-1.718,-7.041l-1.26,-3.306l2.978,-7.974l2.268,15.051l1.779,-10.392l1.011,-4.419l3.794,-4.666l1.94,3.076l-2.699,9.443l7.371,-7.732l2.049,-2.231l2.719,-1.808l-3.112,12.238l0.551,4.322l2.561,1.28l0,-2.411l4.046,-6.796l2.761,1.757l-3.764,10.783l0.577,0.176l19.861,-7.954l-17.918,29.988l-44.628,-1.964l-1.398,-12.489l14.605,-18.393Z" style="fill:#8fdc5e;"/></g><path d="M117.683,54.069l2.328,-12.397l-11.043,9.822l-6.821,-6.933l1.3,8.666l-5.521,-10.207l-2.166,6.817l-6.032,-8.084l-2.845,11.437l-3.086,-9.507l-2.436,7.421l-9.309,-4.825l5.657,10.376l3.652,6.961c0,0 6.342,-1.878 7.955,-3.004c1.613,-1.126 2.271,-1.061 4.428,-0.66c2.157,0.401 6.031,1.364 9.703,1.845c3.672,0.482 9.628,2.354 9.628,2.354l5.645,-0.428c0,0 -2.677,1.926 0,0c2.677,-1.926 4.553,-3.424 4.553,-3.424l6.119,-2.311l-6.465,-0.428l-5.244,-3.491Z" style="fill:#33653a;"/><clipPath id="_clip9"><path d="M117.683,54.069l2.328,-12.397l-11.043,9.822l-6.821,-6.933l1.3,8.666l-5.521,-10.207l-2.166,6.817l-6.032,-8.084l-2.845,11.437l-3.086,-9.507l-2.436,7.421l-9.309,-4.825l5.657,10.376l3.652,6.961c0,0 6.342,-1.878 7.955,-3.004c1.613,-1.126 2.271,-1.061 4.428,-0.66c2.157,0.401 6.031,1.364 9.703,1.845c3.672,0.482 9.628,2.354 9.628,2.354l5.645,-0.428c0,0 -2.677,1.926 0,0c2.677,-1.926 4.553,-3.424 4.553,-3.424l6.119,-2.311l-6.465,-0.428l-5.244,-3.491Z"/></clipPath><g clip-path="url(#_clip9)"><path d="M70.319,45.62l7.731,6.735l3.311,2.92c0,0 0.121,-6.863 0,-6.863c-0.121,0 2.368,-6.543 2.368,-6.543l0.507,12.32l2.647,1.06l0,-7.414l2.965,-8.277l2.556,13.573l4.07,-3.564l-2.53,-7.385l3.982,-0.221l2.541,10.269l2.98,3.045l-3.214,-9.555l1.579,-2.339l4.116,8.66l3.04,2.823l-3.417,-8.725l14.46,-5.461l-6.56,14.989l8.555,-1.724l16.218,3.906l-9.31,8.661l-11.489,0.168l-7.179,-8.835c0,0 0.665,0.149 -3.526,0.366c-4.19,0.218 -11.54,0.188 -11.54,0.188l-0.977,1.728l-8.344,5.19l-13.426,-0.9l-2.114,-18.795Z" style="fill:#8fdc5e;"/></g><path d="M38.516,74.228l-1.313,6.538l-1.789,-5.901l-2.415,3.402l-1.693,-4.383l-4.46,-1.265l2.675,-3.262l0.255,-13.092l3.769,12.033l2.424,-11.087l1.728,6.617l3.66,-5.156l0.331,6.595l-0.375,4.647l4.36,-1.445l-4.321,4.828l4.375,6.345l-4.996,-1.467l-0.74,1.725l-1.475,-5.672" style="fill:#33653a;"/><clipPath id="_clip10"><path d="M38.516,74.228l-1.313,6.538l-1.789,-5.901l-2.415,3.402l-1.693,-4.383l-4.46,-1.265l2.675,-3.262l0.255,-13.092l3.769,12.033l2.424,-11.087l1.728,6.617l3.66,-5.156l0.331,6.595l-0.375,4.647l4.36,-1.445l-4.321,4.828l4.375,6.345l-4.996,-1.467l-0.74,1.725l-1.475,-5.672"/></clipPath><g clip-path="url(#_clip10)"><path d="M29.776,56.265l1.716,12.399l-0.858,2.21l2.068,2.456l0.966,-4.788l-1.31,-7.098l2.891,-5.154l0.847,-0.518l-0.702,15.655l2.408,-7.762l0.909,-5.437l2.536,0l-2.185,12.401l3.523,-1.131l2.575,-5.411l2.152,1.693l-1.734,3.068l0.239,14.208l-5.327,-2.553l-1.896,3.509l-1.777,-1.901l-0.609,-2.23l-5.376,-1.138l-4.771,-6.292l2.739,-12.75l0.976,-3.436" style="fill:#8fdc5e;"/></g></g></g></g></svg>