<?xml version="1.0" encoding="UTF-8" standalone="no"?><!DOCTYPE svg PUBLIC "-//W3C//DTD SVG 1.1//EN" "http://www.w3.org/Graphics/SVG/1.1/DTD/svg11.dtd"><svg width="100%" height="100%" viewBox="0 0 173 87" version="1.1" xmlns="http://www.w3.org/2000/svg" xmlns:xlink="http://www.w3.org/1999/xlink" xml:space="preserve" xmlns:serif="http://www.serif.com/" style="fill-rule:evenodd;clip-rule:evenodd;stroke-linejoin:round;stroke-miterlimit:1.41421;"><g id="Dirt_Block_Overlay01"><path d="M86.111,0.771c0,0 22.197,6.625 42.968,16.082c23.225,10.575 41.515,16.966 42.933,26.833c0.688,4.791 -63.108,40.332 -85.901,42.95c-20.082,2.307 -85.219,-38.894 -85.829,-42.95c-1.173,-7.792 74.909,-45.097 85.829,-42.915Z" style="fill:#68583f;fill-opacity:0.428571;"/><path d="M80.161,15.554c26.611,1.03 30.818,-0.225 41.014,5.822c7.746,4.594 16.419,12.432 15.956,18.381c-1.128,14.522 -25.735,33.178 -42.182,33.93c-7.737,0.354 -23.906,-4.985 -32.666,-7.315c-9.86,-2.622 -20.102,-16.125 -23.281,-20.659c-12.359,-17.628 5.936,-31.521 41.159,-30.159Z" style="fill:#68583f;fill-opacity:0.5;"/></g></svg>