<?xml version="1.0" encoding="UTF-8" standalone="no"?><!DOCTYPE svg PUBLIC "-//W3C//DTD SVG 1.1//EN" "http://www.w3.org/Graphics/SVG/1.1/DTD/svg11.dtd"><svg width="100%" height="100%" viewBox="0 0 108 151" version="1.1" xmlns="http://www.w3.org/2000/svg" xmlns:xlink="http://www.w3.org/1999/xlink" xml:space="preserve" xmlns:serif="http://www.serif.com/" style="fill-rule:evenodd;clip-rule:evenodd;stroke-linejoin:round;stroke-miterlimit:1.41421;"><g id="Dirt_Block_Wall01"><g><path d="M107.875,0.041l0,96.598l-107.331,53.665l0,-96.598l107.331,-53.665Z" style="fill:#bfac80;"/><clipPath id="_clip1"><path d="M107.875,0.041l0,96.598l-107.331,53.665l0,-96.598l107.331,-53.665Z"/></clipPath><g clip-path="url(#_clip1)"><path d="M6.072,181.195l-7.47,-8.393l0.628,-15.381l4.862,-8.364l7.638,3.248l3.735,6.804l0.66,10.713l-10.053,11.373" style="fill:#b2a386;"/><path d="M29.613,150.91l6.48,-6.062l-3.057,-12.564l-8.623,-2.464l-7.622,-1.443l-2.977,3.95l-3.5,-1.488l-5.378,1.085l-1.634,4.32l5.651,4.448l4.24,3.09l7.816,4.704l8.604,2.424Z" style="fill:#b2a386;"/><path d="M66.6,157.216l7.62,-4.416l4.724,-10.593l-3.045,-9.557l-19.234,-2.964l-6.431,7.697l-1.006,7.709l6.329,7.427l11.043,4.697Z" style="fill:#b2a386;"/><path d="M88.375,120.755l8.069,-10.664l-1.707,-5.942l-8.574,-19.295c0,0 -7.897,5.94 -10.383,6.017c-2.486,0.077 -7.683,4.452 -7.683,4.452l3.152,9.269l8.6,6.112l8.526,10.051Z" style="fill:#b2a386;"/><path d="M40.273,125.427l10.639,-1.857l10.284,-7.605l-2.016,-7.626l-4.769,-5.691l-7.679,1.95l-4.985,5.388l-3.648,6.589l2.174,8.852" style="fill:#b2a386;"/><path d="M99.085,152.942l-9.119,-6.382l-10.415,5.505l-4.461,14.856l14.945,3.036l6.388,-5.869l2.662,-11.146" style="fill:#b2a386;"/><path d="M11.439,95.13l-7.471,-8.393l0.629,-15.381l4.861,-8.364l7.639,3.248l3.734,6.804l0.66,10.713l-10.052,11.373" style="fill:#b2a386;"/><path d="M23.857,113.662l-9.713,-5.467l1.146,-6.211l5.191,-3.009l4.057,1.725l4.47,4.43l-0.085,5.596l-5.066,2.936Z" style="fill:#68583f;"/><path d="M54.141,90.067l-5.042,5.43l-10.806,-0.848l-2.238,-4.699l-1.605,-8.155l10.344,-11.541l3.07,5.211l5.436,0.955l2.99,10.126l-2.149,3.521" style="fill:#68583f;"/><path d="M39.96,67.047l6.48,-6.063l-3.057,-12.564l-8.623,-2.464l-7.622,-1.443l-2.977,3.95l-3.5,-1.488l-5.378,1.085l-1.634,4.32l5.651,4.448l4.24,3.091l7.816,4.703l8.604,2.425Z" style="fill:#b2a386;"/><path d="M68.698,78.661l7.621,-4.416l4.724,-10.592l-3.045,-9.558l-19.234,-2.963l-6.432,7.697l-1.006,7.708l6.329,7.428l11.043,4.696Z" style="fill:#b2a386;"/><path d="M96.383,44.518l8.069,-10.665l-1.707,-5.942l-8.575,-19.294c0,0 -7.897,5.94 -10.383,6.017c-2.485,0.076 -7.683,4.452 -7.683,4.452l3.152,9.269l8.6,6.112l8.527,10.051Z" style="fill:#b2a386;"/><path d="M49.386,48.609l10.639,-1.857l10.285,-7.605l-2.017,-7.626l-4.768,-5.692l-7.68,1.95l-4.984,5.389l-3.648,6.588l2.173,8.853" style="fill:#68583f;"/><path d="M104.452,66.877l-9.12,-6.382l-10.414,5.505l-4.461,14.856l14.945,3.036l6.387,-5.869l2.663,-11.146" style="fill:#68583f;"/><path d="M21.915,118.516l-9.714,-5.466l1.146,-6.212l5.191,-3.008l4.057,1.725l4.47,4.429l-0.085,5.597l-5.065,2.935Zm30.283,-23.594l-5.042,5.43l-10.806,-0.849l-2.237,-4.698l-1.606,-8.155l10.344,-11.542l3.07,5.211l5.436,0.955l2.991,10.127l-2.15,3.521Zm50.311,-23.19l-2.662,11.146l-6.388,5.869l-14.945,-3.037l4.461,-14.855l10.415,-5.505l9.119,6.382Zm-55.066,-18.269l10.639,-1.857l10.285,-7.605l-2.017,-7.626l-4.768,-5.691l-7.679,1.95l-4.985,5.388l-3.648,6.589l2.173,8.852Z" style="fill:#0a0500;fill-opacity:0.3;"/><path d="M26.67,155.616l6.48,-6.062l-3.057,-12.564l-8.623,-2.464l-7.622,-1.443l-2.977,3.95l-3.5,-1.488l-5.378,1.085l-1.634,4.32l5.651,4.448l4.24,3.09l7.817,4.704l8.603,2.424Zm10.66,-25.483l10.639,-1.857l10.285,-7.605l-2.017,-7.626l-4.768,-5.691l-7.68,1.95l-4.984,5.388l-3.648,6.589l2.173,8.852Zm48.103,-4.672l8.068,-10.664l-1.706,-5.942l-8.575,-19.295c0,0 -7.897,5.94 -10.383,6.017c-2.485,0.077 -7.683,4.452 -7.683,4.452l3.152,9.269l8.6,6.112l8.527,10.051Zm-76.937,-25.625l-7.47,-8.393l0.628,-15.381l4.861,-8.364l7.639,3.248l3.735,6.804l0.66,10.713l-10.053,11.373Zm57.26,-16.469l7.62,-4.416l4.724,-10.592l-3.045,-9.558l-19.234,-2.963l-6.431,7.697l-1.006,7.708l6.329,7.428l11.043,4.696Zm-28.738,-11.614l6.479,-6.063l-3.056,-12.564l-8.623,-2.464l-7.623,-1.443l-2.976,3.95l-3.5,-1.488l-5.379,1.085l-1.633,4.32l5.65,4.448l4.241,3.091l7.816,4.703l8.604,2.425Zm56.422,-22.529l8.069,-10.665l-1.707,-5.941l-8.574,-19.295c0,0 -7.897,5.94 -10.383,6.017c-2.486,0.076 -7.683,4.452 -7.683,4.452l3.152,9.269l8.599,6.112l8.527,10.051Z" style="fill:#6d5735;fill-opacity:0.5;"/></g></g></g></svg>