<?xml version="1.0" encoding="UTF-8" standalone="no"?><!DOCTYPE svg PUBLIC "-//W3C//DTD SVG 1.1//EN" "http://www.w3.org/Graphics/SVG/1.1/DTD/svg11.dtd"><svg width="100%" height="100%" viewBox="0 0 72 98" version="1.1" xmlns="http://www.w3.org/2000/svg" xmlns:xlink="http://www.w3.org/1999/xlink" xml:space="preserve" xmlns:serif="http://www.serif.com/" style="fill-rule:evenodd;clip-rule:evenodd;stroke-linejoin:round;stroke-miterlimit:1.41421;"><g id="F_Runestone_runes_1"><g><g><g><path d="M51.57,0.226l20.434,10.218l-20.434,10.217l-20.434,-10.217l20.434,-10.218Z" style="fill:#9da8c9;"/><clipPath id="_clip1"><path d="M51.57,0.226l20.434,10.218l-20.434,10.217l-20.434,-10.217l20.434,-10.218Z"/></clipPath><g clip-path="url(#_clip1)"><path d="M74.635,69.096l-10.719,-7.911l-2.055,-16.353l-2.977,16.814l10.72,12.6l-15.707,10.328l-3.668,-13.492l1.415,-10.925l-5.109,4.654l0,13.226l-13.317,3.559l10.939,2.739l-11.143,12.484l-6.913,-10.649l-5.108,-3.656l-18.08,9.472l15.264,0.231l12.413,0.867l-4.489,7.709l-30.651,0.962l-2.387,-27.633l7.496,6.47l6.793,1.712l3.424,-1.712l-7.428,-3.715l-4.457,-12.445l-0.848,-23.451l12.733,8.959l1.983,4.117l1.42,-5.818l-3.403,-3.407l-11.817,-14.526l4.26,-17.456l17.774,16.656l-5.109,-17.88l11.545,-5.772l8.889,-4.445l7.848,9.033l4.367,5.294l3.111,-1.555l5.109,-4.978l-5.109,-3.078l0,2.947l-5.109,-2.554l2.564,-3.827l12.762,4.011l7.677,1.1l7.649,10.83l-1.661,12.598l1.661,31.482l7.734,-67.653l-72.439,-2.166l-40.256,53.098l18.116,65.252l76.628,-0.637l7.665,-41.51" style="fill:#303880;fill-opacity:0.7;"/><path d="M72.004,10.444l-20.434,7.206l-20.434,-7.206l16.528,11.037l-2.016,4.234l-4.295,0.054l-20.434,-10.217l15.326,9.861l-14.488,7.762l-21.272,-7.406l18.954,12.849l-0.446,18.765l-18.508,-6.071l5.108,2.554l15.326,10.054l2.854,-2.621l-2.854,7.762l-20.434,-7.532l18.752,12.069l1.682,23.69l1.936,-24.574l4.713,-14.51l-4.299,0.676l0.404,-5.141l-1.311,-16.129l18.225,-7.115l8.697,-0.761l5.175,-7.629l17.545,-11.661Z" style="fill:#cadaf3;fill-opacity:0.9;"/></g><path d="M20.919,15.552l-20.434,10.217l20.434,10.217l20.434,-10.217l-20.434,-10.217" style="fill:#9da8c9;"/><clipPath id="_clip2"><path d="M20.919,15.552l-20.434,10.217l20.434,10.217l20.434,-10.217l-20.434,-10.217"/></clipPath><g clip-path="url(#_clip2)"><path d="M74.635,69.096l-10.719,-7.911l-2.055,-16.353l-2.977,16.814l10.72,12.6l-15.707,10.328l-3.668,-13.492l1.415,-10.925l-5.109,4.654l0,13.226l-13.317,3.559l10.939,2.739l-11.143,12.484l-6.913,-10.649l-5.108,-3.656l-18.08,9.472l15.264,0.231l12.413,0.867l-4.489,7.709l-30.651,0.962l-2.387,-27.633l7.496,6.47l6.793,1.712l3.424,-1.712l-7.428,-3.715l-4.457,-12.445l-0.848,-23.451l12.733,8.959l1.983,4.117l1.42,-5.818l-3.403,-3.407l-11.817,-14.526l4.26,-17.456l17.774,16.656l-5.109,-17.88l11.545,-5.772l8.889,-4.445l7.848,9.033l4.367,5.294l3.111,-1.555l5.109,-4.978l-5.109,-3.078l0,2.947l-5.109,-2.554l2.564,-3.827l12.762,4.011l7.677,1.1l7.649,10.83l-1.661,12.598l1.661,31.482l7.734,-67.653l-72.439,-2.166l-40.256,53.098l18.116,65.252l76.628,-0.637l7.665,-41.51" style="fill:#303880;fill-opacity:0.7;"/><path d="M72.004,10.444l-20.434,7.206l-20.434,-7.206l16.528,11.037l-2.016,4.234l-4.295,0.054l-20.434,-10.217l15.326,9.861l-14.488,7.762l-21.272,-7.406l18.954,12.849l-0.446,18.765l-18.508,-6.071l5.108,2.554l15.326,10.054l2.854,-2.621l-2.854,7.762l-20.434,-7.532l18.752,12.069l1.682,23.69l1.936,-24.574l4.713,-14.51l-4.299,0.676l0.404,-5.141l-1.311,-16.129l18.225,-7.115l8.697,-0.761l5.175,-7.629l17.545,-11.661Z" style="fill:#cadaf3;fill-opacity:0.9;"/></g><path d="M31.136,10.444l-5.109,7.662l20.435,10.217l5.108,-7.662l-20.434,-10.217Z" style="fill:#6c7157;"/><clipPath id="_clip3"><path d="M31.136,10.444l-5.109,7.662l20.435,10.217l5.108,-7.662l-20.434,-10.217Z"/></clipPath><g clip-path="url(#_clip3)"><path d="M74.635,69.096l-10.719,-7.911l-2.055,-16.353l-2.977,16.814l10.72,12.6l-15.707,10.328l-3.668,-13.492l1.415,-10.925l-5.109,4.654l0,13.226l-13.317,3.559l10.939,2.739l-11.143,12.484l-6.913,-10.649l-5.108,-3.656l-18.08,9.472l15.264,0.231l12.413,0.867l-4.489,7.709l-30.651,0.962l-2.387,-27.633l7.496,6.47l6.793,1.712l3.424,-1.712l-7.428,-3.715l-4.457,-12.445l-0.848,-23.451l12.733,8.959l1.983,4.117l1.42,-5.818l-3.403,-3.407l-11.817,-14.526l4.26,-17.456l17.774,16.656l-5.109,-17.88l11.545,-5.772l8.889,-4.445l7.848,9.033l4.367,5.294l3.111,-1.555l5.109,-4.978l-5.109,-3.078l0,2.947l-5.109,-2.554l2.564,-3.827l12.762,4.011l7.677,1.1l7.649,10.83l-1.661,12.598l1.661,31.482l7.734,-67.653l-72.439,-2.166l-40.256,53.098l18.116,65.252l76.628,-0.637l7.665,-41.51" style="fill:#303880;fill-opacity:0.7;"/><path d="M72.004,10.444l-20.434,7.206l-20.434,-7.206l16.528,11.037l-2.016,4.234l-4.295,0.054l-20.434,-10.217l15.326,9.861l-14.488,7.762l-21.272,-7.406l18.954,12.849l-0.446,18.765l-18.508,-6.071l5.108,2.554l15.326,10.054l2.854,-2.621l-2.854,7.762l-20.434,-7.532l18.752,12.069l1.682,23.69l1.936,-24.574l4.713,-14.51l-4.299,0.676l0.404,-5.141l-1.311,-16.129l18.225,-7.115l8.697,-0.761l5.175,-7.629l17.545,-11.661Z" style="fill:#cadaf3;fill-opacity:0.9;"/></g><path d="M72.004,10.444l-20.434,10.217l-5.108,7.662l-5.109,-2.554l-20.434,10.217l0,25.543l5.108,-2.554l-5.108,12.771l0,25.542l20.434,-10.217l0,-5.108l5.109,-2.554l5.108,2.554l20.434,-10.217l0,-30.651l-5.108,2.554l5.108,-12.771l0,-20.434" style="fill:#bac1d8;"/><clipPath id="_clip4"><path d="M72.004,10.444l-20.434,10.217l-5.108,7.662l-5.109,-2.554l-20.434,10.217l0,25.543l5.108,-2.554l-5.108,12.771l0,25.542l20.434,-10.217l0,-5.108l5.109,-2.554l5.108,2.554l20.434,-10.217l0,-30.651l-5.108,2.554l5.108,-12.771l0,-20.434"/></clipPath><g clip-path="url(#_clip4)"><path d="M74.635,69.096l-10.719,-7.911l-2.055,-16.353l-2.977,16.814l10.72,12.6l-15.707,10.328l-3.668,-13.492l1.415,-10.925l-5.109,4.654l0,13.226l-13.317,3.559l10.939,2.739l-11.143,12.484l-6.913,-10.649l-5.108,-3.656l-18.08,9.472l15.264,0.231l12.413,0.867l-4.489,7.709l-30.651,0.962l-2.387,-27.633l7.496,6.47l6.793,1.712l3.424,-1.712l-7.428,-3.715l-4.457,-12.445l-0.848,-23.451l12.733,8.959l1.983,4.117l1.42,-5.818l-3.403,-3.407l-11.817,-14.526l4.26,-17.456l17.774,16.656l-5.109,-17.88l11.545,-5.772l8.889,-4.445l7.848,9.033l4.367,5.294l3.111,-1.555l5.109,-4.978l-5.109,-3.078l0,2.947l-5.109,-2.554l2.564,-3.827l12.762,4.011l7.677,1.1l7.649,10.83l-1.661,12.598l1.661,31.482l7.734,-67.653l-72.439,-2.166l-40.256,53.098l18.116,65.252l76.628,-0.637l7.665,-41.51" style="fill:#303880;fill-opacity:0.7;"/><path d="M72.004,10.444l-20.434,7.206l-20.434,-7.206l16.528,11.037l-2.016,4.234l-4.295,0.054l-20.434,-10.217l15.326,9.861l-14.488,7.762l-21.272,-7.406l18.954,12.849l-0.446,18.765l-18.508,-6.071l5.108,2.554l15.326,10.054l2.854,-2.621l-2.854,7.762l-20.434,-7.532l18.752,12.069l1.682,23.69l1.936,-24.574l4.713,-14.51l-4.299,0.676l0.404,-5.141l-1.311,-16.129l18.225,-7.115l8.697,-0.761l5.175,-7.629l17.545,-11.661Z" style="fill:#cadaf3;fill-opacity:0.9;"/></g><path d="M0.485,25.769l20.434,10.217l0,25.543l-20.434,-10.217l0,-25.543Z" style="fill:#6c7157;"/><clipPath id="_clip5"><path d="M0.485,25.769l20.434,10.217l0,25.543l-20.434,-10.217l0,-25.543Z"/></clipPath><g clip-path="url(#_clip5)"><path d="M74.635,69.096l-10.719,-7.911l-2.055,-16.353l-2.977,16.814l10.72,12.6l-15.707,10.328l-3.668,-13.492l1.415,-10.925l-5.109,4.654l0,13.226l-13.317,3.559l10.939,2.739l-11.143,12.484l-6.913,-10.649l-5.108,-3.656l-18.08,9.472l15.264,0.231l12.413,0.867l-4.489,7.709l-30.651,0.962l-2.387,-27.633l7.496,6.47l6.793,1.712l3.424,-1.712l-7.428,-3.715l-4.457,-12.445l-0.848,-23.451l12.733,8.959l1.983,4.117l1.42,-5.818l-3.403,-3.407l-11.817,-14.526l4.26,-17.456l17.774,16.656l-5.109,-17.88l11.545,-5.772l8.889,-4.445l7.848,9.033l4.367,5.294l3.111,-1.555l5.109,-4.978l-5.109,-3.078l0,2.947l-5.109,-2.554l2.564,-3.827l12.762,4.011l7.677,1.1l7.649,10.83l-1.661,12.598l1.661,31.482l7.734,-67.653l-72.439,-2.166l-40.256,53.098l18.116,65.252l76.628,-0.637l7.665,-41.51" style="fill:#303880;fill-opacity:0.7;"/><path d="M72.004,10.444l-20.434,7.206l-20.434,-7.206l16.528,11.037l-2.016,4.234l-4.295,0.054l-20.434,-10.217l15.326,9.861l-14.488,7.762l-21.272,-7.406l18.954,12.849l-0.446,18.765l-18.508,-6.071l5.108,2.554l15.326,10.054l2.854,-2.621l-2.854,7.762l-20.434,-7.532l18.752,12.069l1.682,23.69l1.936,-24.574l4.713,-14.51l-4.299,0.676l0.404,-5.141l-1.311,-16.129l18.225,-7.115l8.697,-0.761l5.175,-7.629l17.545,-11.661Z" style="fill:#cadaf3;fill-opacity:0.4;"/></g><path d="M20.919,97.288l-20.434,-10.217l0,-25.542l20.434,10.217l0,25.542" style="fill:#6c7157;"/><clipPath id="_clip6"><path d="M20.919,97.288l-20.434,-10.217l0,-25.542l20.434,10.217l0,25.542"/></clipPath><g clip-path="url(#_clip6)"><path d="M74.635,69.096l-10.719,-7.911l-2.055,-16.353l-2.977,16.814l10.72,12.6l-15.707,10.328l-3.668,-13.492l1.415,-10.925l-5.109,4.654l0,13.226l-13.317,3.559l10.939,2.739l-11.143,12.484l-6.913,-10.649l-5.108,-3.656l-18.08,9.472l15.264,0.231l12.413,0.867l-4.489,7.709l-30.651,0.962l-2.387,-27.633l7.496,6.47l6.793,1.712l3.424,-1.712l-7.428,-3.715l-4.457,-12.445l-0.848,-23.451l12.733,8.959l1.983,4.117l1.42,-5.818l-3.403,-3.407l-11.817,-14.526l4.26,-17.456l17.774,16.656l-5.109,-17.88l11.545,-5.772l8.889,-4.445l7.848,9.033l4.367,5.294l3.111,-1.555l5.109,-4.978l-5.109,-3.078l0,2.947l-5.109,-2.554l2.564,-3.827l12.762,4.011l7.677,1.1l7.649,10.83l-1.661,12.598l1.661,31.482l7.734,-67.653l-72.439,-2.166l-40.256,53.098l18.116,65.252l76.628,-0.637l7.665,-41.51" style="fill:#303880;fill-opacity:0.7;"/><path d="M72.004,10.444l-20.434,7.206l-20.434,-7.206l16.528,11.037l-2.016,4.234l-4.295,0.054l-20.434,-10.217l15.326,9.861l-14.488,7.762l-21.272,-7.406l18.954,12.849l-0.446,18.765l-18.508,-6.071l5.108,2.554l15.326,10.054l2.854,-2.621l-2.854,7.762l-20.434,-7.532l18.752,12.069l1.682,23.69l1.936,-24.574l4.713,-14.51l-4.299,0.676l0.404,-5.141l-1.311,-16.129l18.225,-7.115l8.697,-0.761l5.175,-7.629l17.545,-11.661Z" style="fill:#cadaf3;fill-opacity:0.4;"/></g><path d="M0.485,51.312l5.108,2.554l-5.108,7.663l20.434,10.217l5.108,-12.771l-5.108,2.554l-20.434,-10.217Z" style="fill:#393f53;"/><clipPath id="_clip7"><path d="M0.485,51.312l5.108,2.554l-5.108,7.663l20.434,10.217l5.108,-12.771l-5.108,2.554l-20.434,-10.217Z"/></clipPath><g clip-path="url(#_clip7)"><path d="M72.004,10.444l-20.434,7.206l-20.434,-7.206l16.528,11.037l-2.016,4.234l-4.295,0.054l-20.434,-10.217l15.326,9.861l-14.488,7.762l-21.272,-7.406l18.954,12.849l-0.446,18.765l-18.508,-6.071l5.108,2.554l15.326,10.054l2.854,-2.621l-2.854,7.762l-20.434,-7.532l18.752,12.069l1.682,23.69l1.936,-24.574l4.713,-14.51l-4.299,0.676l0.404,-5.141l-1.311,-16.129l18.225,-7.115l8.697,-0.761l5.175,-7.629l17.545,-11.661Z" style="fill:#cadaf3;fill-opacity:0.4;"/></g></g><g><path d="M31.136,43.608l0,36.821l4.606,-2.31l0.503,-11.192l30.651,-41.23l-6.338,3.076l-25.142,30.616l0.326,-8.885l13.817,-16.134l-6.672,3.346l-7.145,8.513l0,-4.931l-4.606,2.31Z" style="fill:#78fff8;"/><path d="M31.136,80.429l4.606,0.759l4.606,-2.31l-4.606,-0.759l-4.606,2.31Z" style="fill:#cadaf3;"/><path d="M40.348,78.878l0.223,-13.993l-4.829,-0.018l0,13.252l4.606,0.759Z" style="fill:#6c7157;"/><path d="M35.742,64.745l31.154,-39.021l0,4.76l-26.548,34.375l-4.606,-0.114Z" style="fill:#6c7157;"/><path d="M40.356,48.87l9.161,-10.723l0.213,-3.853l-13.988,16.21l4.614,-1.634Z" style="fill:#6c7157;"/><path d="M35.794,41.267l-0.056,4.973l4.05,-4.801l0.013,-2.182l-4.007,2.01Z" style="fill:#393f53;"/><path d="M35.742,50.546l4.562,-1.591l-0.258,4.834l-4.615,5.592l0.311,-8.835Z" style="fill:#6c7157;"/></g></g></g></g></svg>