<?xml version="1.0" encoding="UTF-8" standalone="no"?><!DOCTYPE svg PUBLIC "-//W3C//DTD SVG 1.1//EN" "http://www.w3.org/Graphics/SVG/1.1/DTD/svg11.dtd"><svg width="100%" height="100%" viewBox="0 0 73 86" version="1.1" xmlns="http://www.w3.org/2000/svg" xmlns:xlink="http://www.w3.org/1999/xlink" xml:space="preserve" xmlns:serif="http://www.serif.com/" style="fill-rule:evenodd;clip-rule:evenodd;stroke-linejoin:round;stroke-miterlimit:1.41421;"><g id="Runestone_2"><g><g><path d="M51.834,0.945l20.434,5.109l-20.434,5.108l-20.434,-10.217l20.434,0Z" style="fill:#9da8c9;"/><clipPath id="_clip1"><path d="M51.834,0.945l20.434,5.109l-20.434,5.108l-20.434,-10.217l20.434,0Z"/></clipPath><g clip-path="url(#_clip1)"><path d="M72.268,6.054l-18.482,6.9l-1.278,3.654l-0.674,5.443l-9.596,1.806l0.581,-4.774l-16.528,14.129l-5.108,1.548l2.539,16.645l4.645,15.226l-5.301,-0.216l1.043,11.184l2.182,7.637l-6.117,-5.766l-19.426,-12.114l18.168,6.242l-0.629,-9.902l-17.539,-10.033l0,-1.632l7.619,2.277l13.807,5.033l-4.452,-7.484l-4.129,-1.871l2.481,-0.51l-15.326,-7.662l15.326,4.688l-1.191,-14.839l-14.135,-15.392l20.435,12.102l12.281,-9.613l4.129,-2.322l-16.41,-10.384l26.546,13.273l-1.004,-5.61l0.61,-2.118l-15.935,-10.654l20.434,7.815l7.307,-2.387l13.127,-0.319Z" style="fill:#cadaf3;fill-opacity:0.9;"/></g><path d="M21.183,6.054l-5.109,7.663l-15.326,2.554l17.853,14.035l6.39,1.254l11.517,-12.735l5.109,-2.554l-20.434,-10.217" style="fill:#9da8c9;"/><clipPath id="_clip2"><path d="M21.183,6.054l-5.109,7.663l-15.326,2.554l17.853,14.035l6.39,1.254l11.517,-12.735l5.109,-2.554l-20.434,-10.217"/></clipPath><g clip-path="url(#_clip2)"><path d="M72.268,6.054l-18.482,6.9l-1.278,3.654l-0.674,5.443l-9.596,1.806l0.581,-4.774l-16.528,14.129l-5.108,1.548l2.539,16.645l4.645,15.226l-5.301,-0.216l1.043,11.184l2.182,7.637l-6.117,-5.766l-19.426,-12.114l18.168,6.242l-0.629,-9.902l-17.539,-10.033l0,-1.632l7.619,2.277l13.807,5.033l-4.452,-7.484l-4.129,-1.871l2.481,-0.51l-15.326,-7.662l15.326,4.688l-1.191,-14.839l-14.135,-15.392l20.435,12.102l12.281,-9.613l4.129,-2.322l-16.41,-10.384l26.546,13.273l-1.004,-5.61l0.61,-2.118l-15.935,-10.654l20.434,7.815l7.307,-2.387l13.127,-0.319Z" style="fill:#cadaf3;fill-opacity:0.9;"/></g><path d="M72.268,6.054l-20.434,5.108l-5.109,7.663l-5.108,-2.554l-5.109,2.554l-11.468,12.687l-6.441,-1.207l2.584,21.726l5.108,12.771l-5.108,-2.554l0,15.325l5.108,7.663l15.326,-7.663l0,-5.108l5.108,-2.554l5.109,2.554l17.456,-8.728l1.11,-22.857l1.868,-9.283l-5.109,2.554l5.109,-12.771l0,-15.326Z" style="fill:#bac1d8;"/><clipPath id="_clip3"><path d="M72.268,6.054l-20.434,5.108l-5.109,7.663l-5.108,-2.554l-5.109,2.554l-11.468,12.687l-6.441,-1.207l2.584,21.726l5.108,12.771l-5.108,-2.554l0,15.325l5.108,7.663l15.326,-7.663l0,-5.108l5.108,-2.554l5.109,2.554l17.456,-8.728l1.11,-22.857l1.868,-9.283l-5.109,2.554l5.109,-12.771l0,-15.326Z"/></clipPath><g clip-path="url(#_clip3)"><path d="M72.268,6.054l-18.482,6.9l-1.278,3.654l-0.674,5.443l-9.596,1.806l0.581,-4.774l-16.528,14.129l-5.108,1.548l2.539,16.645l4.645,15.226l-5.301,-0.216l1.043,11.184l2.182,7.637l-6.117,-5.766l-19.426,-12.114l18.168,6.242l-0.629,-9.902l-17.539,-10.033l0,-1.632l7.619,2.277l13.807,5.033l-4.452,-7.484l-4.129,-1.871l2.481,-0.51l-15.326,-7.662l15.326,4.688l-1.191,-14.839l-14.135,-15.392l20.435,12.102l12.281,-9.613l4.129,-2.322l-16.41,-10.384l26.546,13.273l-1.004,-5.61l0.61,-2.118l-15.935,-10.654l20.434,7.815l7.307,-2.387l13.127,-0.319Z" style="fill:#cadaf3;fill-opacity:0.9;"/></g><path d="M0.748,16.271l17.853,14.035l2.582,21.725l-20.435,-10.217l1.888,-9.274l-1.888,-16.269Z" style="fill:#6c7157;"/><clipPath id="_clip4"><path d="M0.748,16.271l17.853,14.035l2.582,21.725l-20.435,-10.217l1.888,-9.274l-1.888,-16.269Z"/></clipPath><g clip-path="url(#_clip4)"><path d="M72.268,6.054l-18.482,6.9l-1.278,3.654l-0.674,5.443l-9.596,1.806l0.581,-4.774l-16.528,14.129l-5.108,1.548l2.539,16.645l4.645,15.226l-5.301,-0.216l1.043,11.184l2.182,7.637l-6.117,-5.766l-19.426,-12.114l18.168,6.242l-0.629,-9.902l-17.539,-10.033l0,-1.632l7.619,2.277l13.807,5.033l-4.452,-7.484l-4.129,-1.871l2.481,-0.51l-15.326,-7.662l15.326,4.688l-1.191,-14.839l-14.135,-15.392l20.435,12.102l12.281,-9.613l4.129,-2.322l-16.41,-10.384l26.546,13.273l-1.004,-5.61l0.61,-2.118l-15.935,-10.654l20.434,7.815l7.307,-2.387l13.127,-0.319Z" style="fill:#cadaf3;fill-opacity:0.4;"/></g><path d="M26.291,85.236l-20.434,-10.217l-5.109,-7.663l0,-15.325l20.435,10.217l0,15.325l5.108,7.663Z" style="fill:#6c7157;"/><clipPath id="_clip5"><path d="M26.291,85.236l-20.434,-10.217l-5.109,-7.663l0,-15.325l20.435,10.217l0,15.325l5.108,7.663Z"/></clipPath><g clip-path="url(#_clip5)"><path d="M72.268,6.054l-18.482,6.9l-1.278,3.654l-0.674,5.443l-9.596,1.806l0.581,-4.774l-16.528,14.129l-5.108,1.548l2.539,16.645l4.645,15.226l-5.301,-0.216l1.043,11.184l2.182,7.637l-6.117,-5.766l-19.426,-12.114l18.168,6.242l-0.629,-9.902l-17.539,-10.033l0,-1.632l7.619,2.277l13.807,5.033l-4.452,-7.484l-4.129,-1.871l2.481,-0.51l-15.326,-7.662l15.326,4.688l-1.191,-14.839l-14.135,-15.392l20.435,12.102l12.281,-9.613l4.129,-2.322l-16.41,-10.384l26.546,13.273l-1.004,-5.61l0.61,-2.118l-15.935,-10.654l20.434,7.815l7.307,-2.387l13.127,-0.319Z" style="fill:#cadaf3;fill-opacity:0.4;"/></g><path d="M0.748,41.814l15.326,7.662l-15.326,2.555l25.543,12.771l-5.108,-12.771l-20.435,-10.217Z" style="fill:#393f53;"/><clipPath id="_clip6"><path d="M0.748,41.814l15.326,7.662l-15.326,2.555l25.543,12.771l-5.108,-12.771l-20.435,-10.217Z"/></clipPath><g clip-path="url(#_clip6)"><path d="M72.268,6.054l-18.482,6.9l-1.278,3.654l-0.674,5.443l-9.596,1.806l0.581,-4.774l-16.528,14.129l-5.108,1.548l2.539,16.645l4.645,15.226l-5.301,-0.216l1.043,11.184l2.182,7.637l-6.117,-5.766l-19.426,-12.114l18.168,6.242l-0.629,-9.902l-17.539,-10.033l0,-1.632l7.619,2.277l13.807,5.033l-4.452,-7.484l-4.129,-1.871l2.481,-0.51l-15.326,-7.662l15.326,4.688l-1.191,-14.839l-14.135,-15.392l20.435,12.102l12.281,-9.613l4.129,-2.322l-16.41,-10.384l26.546,13.273l-1.004,-5.61l0.61,-2.118l-15.935,-10.654l20.434,7.815l7.307,-2.387l13.127,-0.319Z" style="fill:#cadaf3;fill-opacity:0.4;"/></g><path d="M0.748,67.356l20.435,10.217l5.108,7.663l-20.434,-10.217l-5.109,-7.663Z" style="fill:#393f53;"/><clipPath id="_clip7"><path d="M0.748,67.356l20.435,10.217l5.108,7.663l-20.434,-10.217l-5.109,-7.663Z"/></clipPath><g clip-path="url(#_clip7)"><path d="M72.268,6.054l-18.482,6.9l-1.278,3.654l-0.674,5.443l-9.596,1.806l0.581,-4.774l-16.528,14.129l-5.108,1.548l2.539,16.645l4.645,15.226l-5.301,-0.216l1.043,11.184l2.182,7.637l-6.117,-5.766l-19.426,-12.114l18.168,6.242l-0.629,-9.902l-17.539,-10.033l0,-1.632l7.619,2.277l13.807,5.033l-4.452,-7.484l-4.129,-1.871l2.481,-0.51l-15.326,-7.662l15.326,4.688l-1.191,-14.839l-14.135,-15.392l20.435,12.102l12.281,-9.613l4.129,-2.322l-16.41,-10.384l26.546,13.273l-1.004,-5.61l0.61,-2.118l-15.935,-10.654l20.434,7.815l7.307,-2.387l13.127,-0.319Z" style="fill:#cadaf3;fill-opacity:0.9;"/></g><path d="M31.4,0.945l-5.109,7.663l20.434,10.217l-2.438,3.89l5.527,-2.345l-0.435,-5.327l2.455,-3.881l-20.434,-10.217Z" style="fill:#6c7157;"/><clipPath id="_clip8"><path d="M31.4,0.945l-5.109,7.663l20.434,10.217l-2.438,3.89l5.527,-2.345l-0.435,-5.327l2.455,-3.881l-20.434,-10.217Z"/></clipPath><g clip-path="url(#_clip8)"><path d="M72.268,6.054l-18.482,6.9l-1.278,3.654l-0.674,5.443l-9.596,1.806l0.581,-4.774l-16.528,14.129l-5.108,1.548l2.539,16.645l4.645,15.226l-5.301,-0.216l1.043,11.184l2.182,7.637l-6.117,-5.766l-19.426,-12.114l18.168,6.242l-0.629,-9.902l-17.539,-10.033l0,-1.632l7.619,2.277l13.807,5.033l-4.452,-7.484l-4.129,-1.871l2.481,-0.51l-15.326,-7.662l15.326,4.688l-1.191,-14.839l-14.135,-15.392l20.435,12.102l12.281,-9.613l4.129,-2.322l-16.41,-10.384l26.546,13.273l-1.004,-5.61l0.61,-2.118l-15.935,-10.654l20.434,7.815l7.307,-2.387l13.127,-0.319Z" style="fill:#cadaf3;fill-opacity:0.9;"/></g></g></g></g></svg>