<?xml version="1.0" encoding="UTF-8" standalone="no"?><!DOCTYPE svg PUBLIC "-//W3C//DTD SVG 1.1//EN" "http://www.w3.org/Graphics/SVG/1.1/DTD/svg11.dtd"><svg width="100%" height="100%" viewBox="0 0 91 85" version="1.1" xmlns="http://www.w3.org/2000/svg" xmlns:xlink="http://www.w3.org/1999/xlink" xml:space="preserve" xmlns:serif="http://www.serif.com/" style="fill-rule:evenodd;clip-rule:evenodd;stroke-linejoin:round;stroke-miterlimit:1.41421;"><g id="Runestone_grass_runes_4"><g id="F_Runestone_runes_4"><g><g><path d="M70.401,1.709l19.823,0.306l-20.435,5.108l-23.435,-6.609l24.047,1.195Z" style="fill:#9da8c9;"/><clipPath id="_clip1"><path d="M70.401,1.709l19.823,0.306l-20.435,5.108l-23.435,-6.609l24.047,1.195Z"/></clipPath><g clip-path="url(#_clip1)"><path d="M46.428,0.551l23.361,4.147l20.435,-2.683l-18.32,6.165l-2.115,2.453l2.953,2.237l-5.594,0.683l-2.467,2.241l-5.109,-3.562l-0.889,5.553l-17.597,-3.367l5.247,17.548l-3.954,9.296l0.944,6.876l6.032,20.288l-2.081,4.067l0.64,5.429l-24.101,-6.942l20.434,3.567l-1.613,-1.807l-23.93,-19.64l24.705,14.651l1.548,-0.258l-26.253,-19.501l25.543,15.028l-5.109,-7.14l-1.407,-6.28l-13.918,-9.271l12.442,3.996l-1.19,-2.552l-13.152,-7.503l1.9,-0.497l13.918,6.967l0.344,-1.118l-13.931,-5.683l14.501,3.589l3.571,-6.401l-33.729,-8.678l32.759,4.054l-2.108,-2.33l-5.108,-1.238l0,-5.23l5.108,-1.514l1.699,1.999l-0.177,1.401l-3.876,-0.07l4.298,3.277l0.67,0.493l-1.11,-3.583l0.151,-1.17l-0.431,-0.908l-1.725,-2.127l-0.595,-2.723l-4.012,-3.102l7.516,1.812l12.133,1.516l0.088,-1.718l-9.52,-6.719l17.295,6.678l0.505,-1.104l3.947,1.145l0.78,-2.657l-20.346,-8.08Z" style="fill:#cadaf3;fill-opacity:0.9;"/></g><path d="M69.789,68.426l-5.108,-2.555l10.217,-15.325l5.87,4.799l-3.315,6.695l-7.664,6.386Z" style="fill:#6c7157;"/><clipPath id="_clip2"><path d="M69.789,68.426l-5.108,-2.555l10.217,-15.325l5.87,4.799l-3.315,6.695l-7.664,6.386Z"/></clipPath><g clip-path="url(#_clip2)"><path d="M46.428,0.551l23.361,4.147l20.435,-2.683l-18.32,6.165l-2.115,2.453l2.953,2.237l-5.594,0.683l-2.467,2.241l-5.109,-3.562l-0.889,5.553l-17.597,-3.367l5.247,17.548l-3.954,9.296l0.944,6.876l6.032,20.288l-2.081,4.067l0.64,5.429l-24.101,-6.942l20.434,3.567l-1.613,-1.807l-23.93,-19.64l24.705,14.651l1.548,-0.258l-26.253,-19.501l25.543,15.028l-5.109,-7.14l-1.407,-6.28l-13.918,-9.271l12.442,3.996l-1.19,-2.552l-13.152,-7.503l1.9,-0.497l13.918,6.967l0.344,-1.118l-13.931,-5.683l14.501,3.589l3.571,-6.401l-33.729,-8.678l32.759,4.054l-2.108,-2.33l-5.108,-1.238l0,-5.23l5.108,-1.514l1.699,1.999l-0.177,1.401l-3.876,-0.07l4.298,3.277l0.67,0.493l-1.11,-3.583l0.151,-1.17l-0.431,-0.908l-1.725,-2.127l-0.595,-2.723l-4.012,-3.102l7.516,1.812l12.133,1.516l0.088,-1.718l-9.52,-6.719l17.295,6.678l0.505,-1.104l3.947,1.145l0.78,-2.657l-20.346,-8.08Z" style="fill:#cadaf3;fill-opacity:0.9;"/></g><path d="M85.115,38.388l-7.795,-4.379l-8.181,4.091l10.868,8.417l5.108,-8.129Z" style="fill:#9da8c9;"/><clipPath id="_clip3"><path d="M85.115,38.388l-7.795,-4.379l-8.181,4.091l10.868,8.417l5.108,-8.129Z"/></clipPath><g clip-path="url(#_clip3)"><path d="M46.428,0.551l23.361,4.147l20.435,-2.683l-18.32,6.165l-2.115,2.453l2.953,2.237l-5.594,0.683l-2.467,2.241l-5.109,-3.562l-0.889,5.553l-17.597,-3.367l5.247,17.548l-3.954,9.296l0.944,6.876l6.032,20.288l-2.081,4.067l0.64,5.429l-24.101,-6.942l20.434,3.567l-1.613,-1.807l-23.93,-19.64l24.705,14.651l1.548,-0.258l-26.253,-19.501l25.543,15.028l-5.109,-7.14l-1.407,-6.28l-13.918,-9.271l12.442,3.996l-1.19,-2.552l-13.152,-7.503l1.9,-0.497l13.918,6.967l0.344,-1.118l-13.931,-5.683l14.501,3.589l3.571,-6.401l-33.729,-8.678l32.759,4.054l-2.108,-2.33l-5.108,-1.238l0,-5.23l5.108,-1.514l1.699,1.999l-0.177,1.401l-3.876,-0.07l4.298,3.277l0.67,0.493l-1.11,-3.583l0.151,-1.17l-0.431,-0.908l-1.725,-2.127l-0.595,-2.723l-4.012,-3.102l7.516,1.812l12.133,1.516l0.088,-1.718l-9.52,-6.719l17.295,6.678l0.505,-1.104l3.947,1.145l0.78,-2.657l-20.346,-8.08Z" style="fill:#cadaf3;fill-opacity:0.9;"/></g><path d="M44.247,4.569l-10.217,5.109l-25.543,12.771l28.07,3.818l6.39,1.254l11.517,-12.735l5.108,-2.554l-15.325,-7.663Z" style="fill:#9da8c9;"/><clipPath id="_clip4"><path d="M44.247,4.569l-10.217,5.109l-25.543,12.771l28.07,3.818l6.39,1.254l11.517,-12.735l5.108,-2.554l-15.325,-7.663Z"/></clipPath><g clip-path="url(#_clip4)"><path d="M68.484,76.582l-1.96,-9.996l5.98,-11.069l7.576,-3.788l-6.122,-2.047l-2.104,3.042l-0.404,-14.339l13.739,-12.437l-5.109,2.955l-5.108,2.34l-13.167,16.457l2.95,6.583l1.444,4.387l-1.444,7.793l-11.562,8.927l-13.981,3.141l-20.434,-3.325l20.434,-3.043l-10.217,-1.636l0,-6.158l-2.863,2.709l-7.354,-9.236l-3.729,-15.762l17.401,11.376l4.122,4.701l-0.319,-4.949l-2.149,-4.034l-13.6,-6.799l-4.271,-4.699l5.058,-5.125l11.418,1.995l-2.774,-2.782l-6.048,-1.383l-5.109,-3.079l0,1.847l-6.385,0.23l-7.388,-6.524l12.023,-7.761l10.29,6.822l0.045,-3.48l4.17,-1.198l-6.633,-7.176l14.312,-0.985l10.217,3.448l0,2.093l-2.754,7.837l-2.354,22.703l1.723,4.878l1.082,-9.676l2.303,-14.174l13.722,-6.861l-8.613,-4.461l-13.525,-10.013l8.416,-9.316l19.412,4.597l29.873,-0.389l-25.294,11.673l-1.724,6.773l3.276,0.334l0,-5.108l15.325,-5.2l19.256,-12.091l-80.558,-4.781l-32.159,44.306l19.563,50.65l52.085,-9.717" style="fill:#303880;fill-opacity:0.7;"/><path d="M46.428,0.551l23.361,4.147l20.435,-2.683l-18.32,6.165l-2.115,2.453l2.953,2.237l-5.594,0.683l-2.467,2.241l-5.109,-3.562l-0.889,5.553l-17.597,-3.367l5.247,17.548l-3.954,9.296l0.944,6.876l6.032,20.288l-2.081,4.067l0.64,5.429l-24.101,-6.942l20.434,3.567l-1.613,-1.807l-23.93,-19.64l24.705,14.651l1.548,-0.258l-26.253,-19.501l25.543,15.028l-5.109,-7.14l-1.407,-6.28l-13.918,-9.271l12.442,3.996l-1.19,-2.552l-13.152,-7.503l1.9,-0.497l13.918,6.967l0.344,-1.118l-13.931,-5.683l14.501,3.589l3.571,-6.401l-33.729,-8.678l32.759,4.054l-2.108,-2.33l-5.108,-1.238l0,-5.23l5.108,-1.514l1.699,1.999l-0.177,1.401l-3.876,-0.07l4.298,3.277l0.67,0.493l-1.11,-3.583l0.151,-1.17l-0.431,-0.908l-1.725,-2.127l-0.595,-2.723l-4.012,-3.102l7.516,1.812l12.133,1.516l0.088,-1.718l-9.52,-6.719l17.295,6.678l0.505,-1.104l3.947,1.145l0.78,-2.657l-20.346,-8.08Z" style="fill:#cadaf3;fill-opacity:0.9;"/></g><path d="M90.224,2.015l-20.435,5.108l-10.217,5.109l-5.108,2.554l-15.326,-2.554l-8.821,6.915l6.238,7.119l-14.466,7.033l17.049,14.693l5.109,12.771l-5.109,-2.554l5.109,12.771l3.753,6.985l2.172,-2.84l9.4,-1.591l7.326,-3.662l5.179,-7.699l7.93,-6.634l-5.109,7.345l-5.109,5.542l13.113,-6.557l3.926,-10.467l-3.918,-3.41l2.205,-2.555l2.02,-4.098l-2.02,-3.012l-3.515,3.759l-3.025,1.513l-0.411,-3.678l3.174,-4.803l5.941,-2.04l2.945,-5.521l0,-10.217l-4.124,-9.84l4.124,-5.485Z" style="fill:#bac1d8;"/><clipPath id="_clip5"><path d="M90.224,2.015l-20.435,5.108l-10.217,5.109l-5.108,2.554l-15.326,-2.554l-8.821,6.915l6.238,7.119l-14.466,7.033l17.049,14.693l5.109,12.771l-5.109,-2.554l5.109,12.771l3.753,6.985l2.172,-2.84l9.4,-1.591l7.326,-3.662l5.179,-7.699l7.93,-6.634l-5.109,7.345l-5.109,5.542l13.113,-6.557l3.926,-10.467l-3.918,-3.41l2.205,-2.555l2.02,-4.098l-2.02,-3.012l-3.515,3.759l-3.025,1.513l-0.411,-3.678l3.174,-4.803l5.941,-2.04l2.945,-5.521l0,-10.217l-4.124,-9.84l4.124,-5.485Z"/></clipPath><g clip-path="url(#_clip5)"><path d="M68.484,76.582l-1.96,-9.996l5.98,-11.069l7.576,-3.788l-6.122,-2.047l-2.104,3.042l-0.404,-14.339l13.739,-12.437l-5.109,2.955l-5.108,2.34l-13.167,16.457l2.95,6.583l1.444,4.387l-1.444,7.793l-11.562,8.927l-13.981,3.141l-20.434,-3.325l20.434,-3.043l-10.217,-1.636l0,-6.158l-2.863,2.709l-7.354,-9.236l-3.729,-15.762l17.401,11.376l4.122,4.701l-0.319,-4.949l-2.149,-4.034l-13.6,-6.799l-4.271,-4.699l5.058,-5.125l11.418,1.995l-2.774,-2.782l-6.048,-1.383l-5.109,-3.079l0,1.847l-6.385,0.23l-7.388,-6.524l12.023,-7.761l10.29,6.822l0.045,-3.48l4.17,-1.198l-6.633,-7.176l14.312,-0.985l10.217,3.448l0,2.093l-2.754,7.837l-2.354,22.703l1.723,4.878l1.082,-9.676l2.303,-14.174l13.722,-6.861l-8.613,-4.461l-13.525,-10.013l8.416,-9.316l19.412,4.597l29.873,-0.389l-25.294,11.673l-1.724,6.773l3.276,0.334l0,-5.108l15.325,-5.2l19.256,-12.091l-80.558,-4.781l-32.159,44.306l19.563,50.65l52.085,-9.717" style="fill:#303880;fill-opacity:0.7;"/><path d="M46.428,0.551l23.361,4.147l20.435,-2.683l-18.32,6.165l-2.115,2.453l2.953,2.237l-5.594,0.683l-2.467,2.241l-5.109,-3.562l-0.889,5.553l-17.597,-3.367l5.247,17.548l-3.954,9.296l0.944,6.876l6.032,20.288l-2.081,4.067l0.64,5.429l-24.101,-6.942l20.434,3.567l-1.613,-1.807l-23.93,-19.64l24.705,14.651l1.548,-0.258l-26.253,-19.501l25.543,15.028l-5.109,-7.14l-1.407,-6.28l-13.918,-9.271l12.442,3.996l-1.19,-2.552l-13.152,-7.503l1.9,-0.497l13.918,6.967l0.344,-1.118l-13.931,-5.683l14.501,3.589l3.571,-6.401l-33.729,-8.678l32.759,4.054l-2.108,-2.33l-5.108,-1.238l0,-5.23l5.108,-1.514l1.699,1.999l-0.177,1.401l-3.876,-0.07l4.298,3.277l0.67,0.493l-1.11,-3.583l0.151,-1.17l-0.431,-0.908l-1.725,-2.127l-0.595,-2.723l-4.012,-3.102l7.516,1.812l12.133,1.516l0.088,-1.718l-9.52,-6.719l17.295,6.678l0.505,-1.104l3.947,1.145l0.78,-2.657l-20.346,-8.08Z" style="fill:#cadaf3;fill-opacity:0.9;"/></g><path d="M40.74,18.141l1.208,5.713l-13.027,0.651l1.895,-9.161l6.491,1.081l3.433,1.716Z" style="fill:#9da8c9;"/><clipPath id="_clip6"><path d="M40.74,18.141l1.208,5.713l-13.027,0.651l1.895,-9.161l6.491,1.081l3.433,1.716Z"/></clipPath><g clip-path="url(#_clip6)"><path d="M46.428,0.551l23.361,4.147l20.435,-2.683l-18.32,6.165l-2.115,2.453l2.953,2.237l-5.594,0.683l-2.467,2.241l-5.109,-3.562l-0.889,5.553l-17.597,-3.367l5.247,17.548l-3.954,9.296l0.944,6.876l6.032,20.288l-2.081,4.067l0.64,5.429l-24.101,-6.942l20.434,3.567l-1.613,-1.807l-23.93,-19.64l24.705,14.651l1.548,-0.258l-26.253,-19.501l25.543,15.028l-5.109,-7.14l-1.407,-6.28l-13.918,-9.271l12.442,3.996l-1.19,-2.552l-13.152,-7.503l1.9,-0.497l13.918,6.967l0.344,-1.118l-13.931,-5.683l14.501,3.589l3.571,-6.401l-33.729,-8.678l32.759,4.054l-2.108,-2.33l-5.108,-1.238l0,-5.23l5.108,-1.514l1.699,1.999l-0.177,1.401l-3.876,-0.07l4.298,3.277l0.67,0.493l-1.11,-3.583l0.151,-1.17l-0.431,-0.908l-1.725,-2.127l-0.595,-2.723l-4.012,-3.102l7.516,1.812l12.133,1.516l0.088,-1.718l-9.52,-6.719l17.295,6.678l0.505,-1.104l3.947,1.145l0.78,-2.657l-20.346,-8.08Z" style="fill:#cadaf3;fill-opacity:0.9;"/></g><path d="M39.138,38.799l0,4.084l-18.261,-6.195l-0.81,-9.812l19.071,11.923Z" style="fill:#6c7157;"/><clipPath id="_clip7"><path d="M39.138,38.799l0,4.084l-18.261,-6.195l-0.81,-9.812l19.071,11.923Z"/></clipPath><g clip-path="url(#_clip7)"><path d="M46.428,0.551l23.361,4.147l20.435,-2.683l-18.32,6.165l-2.115,2.453l2.953,2.237l-5.594,0.683l-2.467,2.241l-5.109,-3.562l-0.889,5.553l-17.597,-3.367l5.247,17.548l-3.954,9.296l0.944,6.876l6.032,20.288l-2.081,4.067l0.64,5.429l-24.101,-6.942l20.434,3.567l-1.613,-1.807l-23.93,-19.64l24.705,14.651l1.548,-0.258l-26.253,-19.501l25.543,15.028l-5.109,-7.14l-1.407,-6.28l-13.918,-9.271l12.442,3.996l-1.19,-2.552l-13.152,-7.503l1.9,-0.497l13.918,6.967l0.344,-1.118l-13.931,-5.683l14.501,3.589l3.571,-6.401l-33.729,-8.678l32.759,4.054l-2.108,-2.33l-5.108,-1.238l0,-5.23l5.108,-1.514l1.699,1.999l-0.177,1.401l-3.876,-0.07l4.298,3.277l0.67,0.493l-1.11,-3.583l0.151,-1.17l-0.431,-0.908l-1.725,-2.127l-0.595,-2.723l-4.012,-3.102l7.516,1.812l12.133,1.516l0.088,-1.718l-9.52,-6.719l17.295,6.678l0.505,-1.104l3.947,1.145l0.78,-2.657l-20.346,-8.08Z" style="fill:#cadaf3;fill-opacity:0.4;"/></g><path d="M34.03,9.678l5.108,2.554l1.644,5.93l-5.669,0.256l0.752,3.208l6.135,2.254l2.247,6.232l-35.76,-7.663l25.543,-12.771Z" style="fill:#6c7157;"/><clipPath id="_clip8"><path d="M34.03,9.678l5.108,2.554l1.644,5.93l-5.669,0.256l0.752,3.208l6.135,2.254l2.247,6.232l-35.76,-7.663l25.543,-12.771Z"/></clipPath><g clip-path="url(#_clip8)"><path d="M68.484,76.582l-1.96,-9.996l5.98,-11.069l7.576,-3.788l-6.122,-2.047l-2.104,3.042l-0.404,-14.339l13.739,-12.437l-5.109,2.955l-5.108,2.34l-13.167,16.457l2.95,6.583l1.444,4.387l-1.444,7.793l-11.562,8.927l-13.981,3.141l-20.434,-3.325l20.434,-3.043l-10.217,-1.636l0,-6.158l-2.863,2.709l-7.354,-9.236l-3.729,-15.762l17.401,11.376l4.122,4.701l-0.319,-4.949l-2.149,-4.034l-13.6,-6.799l-4.271,-4.699l5.058,-5.125l11.418,1.995l-2.774,-2.782l-6.048,-1.383l-5.109,-3.079l0,1.847l-6.385,0.23l-7.388,-6.524l12.023,-7.761l10.29,6.822l0.045,-3.48l4.17,-1.198l-6.633,-7.176l14.312,-0.985l10.217,3.448l0,2.093l-2.754,7.837l-2.354,22.703l1.723,4.878l1.082,-9.676l2.303,-14.174l13.722,-6.861l-8.613,-4.461l-13.525,-10.013l8.416,-9.316l19.412,4.597l29.873,-0.389l-25.294,11.673l-1.724,6.773l3.276,0.334l0,-5.108l15.325,-5.2l19.256,-12.091l-80.558,-4.781l-32.159,44.306l19.563,50.65l52.085,-9.717" style="fill:#303880;fill-opacity:0.7;"/><path d="M46.428,0.551l23.361,4.147l20.435,-2.683l-18.32,6.165l-2.115,2.453l2.953,2.237l-5.594,0.683l-2.467,2.241l-5.109,-3.562l-0.889,5.553l-17.597,-3.367l5.247,17.548l-3.954,9.296l0.944,6.876l6.032,20.288l-2.081,4.067l0.64,5.429l-24.101,-6.942l20.434,3.567l-1.613,-1.807l-23.93,-19.64l24.705,14.651l1.548,-0.258l-26.253,-19.501l25.543,15.028l-5.109,-7.14l-1.407,-6.28l-13.918,-9.271l12.442,3.996l-1.19,-2.552l-13.152,-7.503l1.9,-0.497l13.918,6.967l0.344,-1.118l-13.931,-5.683l14.501,3.589l3.571,-6.401l-33.729,-8.678l32.759,4.054l-2.108,-2.33l-5.108,-1.238l0,-5.23l5.108,-1.514l1.699,1.999l-0.177,1.401l-3.876,-0.07l4.298,3.277l0.67,0.493l-1.11,-3.583l0.151,-1.17l-0.431,-0.908l-1.725,-2.127l-0.595,-2.723l-4.012,-3.102l7.516,1.812l12.133,1.516l0.088,-1.718l-9.52,-6.719l17.295,6.678l0.505,-1.104l3.947,1.145l0.78,-2.657l-20.346,-8.08Z" style="fill:#cadaf3;fill-opacity:0.4;"/></g><path d="M8.487,22.449l35.76,7.663l-5.109,8.757l-15.325,-4.866l15.325,8.88l0,5.109l-20.434,-10.218l-5.108,-7.662l-5.109,-7.663Z" style="fill:#393f53;"/><clipPath id="_clip9"><path d="M8.487,22.449l35.76,7.663l-5.109,8.757l-15.325,-4.866l15.325,8.88l0,5.109l-20.434,-10.218l-5.108,-7.662l-5.109,-7.663Z"/></clipPath><g clip-path="url(#_clip9)"><path d="M68.484,76.582l-1.96,-9.996l5.98,-11.069l7.576,-3.788l-6.122,-2.047l-2.104,3.042l-0.404,-14.339l13.739,-12.437l-5.109,2.955l-5.108,2.34l-13.167,16.457l2.95,6.583l1.444,4.387l-1.444,7.793l-11.562,8.927l-13.981,3.141l-20.434,-3.325l20.434,-3.043l-10.217,-1.636l0,-6.158l-2.863,2.709l-7.354,-9.236l-3.729,-15.762l17.401,11.376l4.122,4.701l-0.319,-4.949l-2.149,-4.034l-13.6,-6.799l-4.271,-4.699l5.058,-5.125l11.418,1.995l-2.774,-2.782l-6.048,-1.383l-5.109,-3.079l0,1.847l-6.385,0.23l-7.388,-6.524l12.023,-7.761l10.29,6.822l0.045,-3.48l4.17,-1.198l-6.633,-7.176l14.312,-0.985l10.217,3.448l0,2.093l-2.754,7.837l-2.354,22.703l1.723,4.878l1.082,-9.676l2.303,-14.174l13.722,-6.861l-8.613,-4.461l-13.525,-10.013l8.416,-9.316l19.412,4.597l29.873,-0.389l-25.294,11.673l-1.724,6.773l3.276,0.334l0,-5.108l15.325,-5.2l19.256,-12.091l-80.558,-4.781l-32.159,44.306l19.563,50.65l52.085,-9.717" style="fill:#303880;fill-opacity:0.7;"/><path d="M46.428,0.551l23.361,4.147l20.435,-2.683l-18.32,6.165l-2.115,2.453l2.953,2.237l-5.594,0.683l-2.467,2.241l-5.109,-3.562l-0.889,5.553l-17.597,-3.367l5.247,17.548l-3.954,9.296l0.944,6.876l6.032,20.288l-2.081,4.067l0.64,5.429l-24.101,-6.942l20.434,3.567l-1.613,-1.807l-23.93,-19.64l24.705,14.651l1.548,-0.258l-26.253,-19.501l25.543,15.028l-5.109,-7.14l-1.407,-6.28l-13.918,-9.271l12.442,3.996l-1.19,-2.552l-13.152,-7.503l1.9,-0.497l13.918,6.967l0.344,-1.118l-13.931,-5.683l14.501,3.589l3.571,-6.401l-33.729,-8.678l32.759,4.054l-2.108,-2.33l-5.108,-1.238l0,-5.23l5.108,-1.514l1.699,1.999l-0.177,1.401l-3.876,-0.07l4.298,3.277l0.67,0.493l-1.11,-3.583l0.151,-1.17l-0.431,-0.908l-1.725,-2.127l-0.595,-2.723l-4.012,-3.102l7.516,1.812l12.133,1.516l0.088,-1.718l-9.52,-6.719l17.295,6.678l0.505,-1.104l3.947,1.145l0.78,-2.657l-20.346,-8.08Z" style="fill:#cadaf3;fill-opacity:0.4;"/></g><path d="M47.871,77.9l-24.058,-6.92l-5.109,-17.88l0,-5.108l30.651,20.434l-5.108,2.554l3.624,6.92Z" style="fill:#6c7157;"/><clipPath id="_clip10"><path d="M47.871,77.9l-24.058,-6.92l-5.109,-17.88l0,-5.108l30.651,20.434l-5.108,2.554l3.624,6.92Z"/></clipPath><g clip-path="url(#_clip10)"><path d="M46.428,0.551l23.361,4.147l20.435,-2.683l-18.32,6.165l-2.115,2.453l2.953,2.237l-5.594,0.683l-2.467,2.241l-5.109,-3.562l-0.889,5.553l-17.597,-3.367l5.247,17.548l-3.954,9.296l0.944,6.876l6.032,20.288l-2.081,4.067l0.64,5.429l-24.101,-6.942l20.434,3.567l-1.613,-1.807l-23.93,-19.64l24.705,14.651l1.548,-0.258l-26.253,-19.501l25.543,15.028l-5.109,-7.14l-1.407,-6.28l-13.918,-9.271l12.442,3.996l-1.19,-2.552l-13.152,-7.503l1.9,-0.497l13.918,6.967l0.344,-1.118l-13.931,-5.683l14.501,3.589l3.571,-6.401l-33.729,-8.678l32.759,4.054l-2.108,-2.33l-5.108,-1.238l0,-5.23l5.108,-1.514l1.699,1.999l-0.177,1.401l-3.876,-0.07l4.298,3.277l0.67,0.493l-1.11,-3.583l0.151,-1.17l-0.431,-0.908l-1.725,-2.127l-0.595,-2.723l-4.012,-3.102l7.516,1.812l12.133,1.516l0.088,-1.718l-9.52,-6.719l17.295,6.678l0.505,-1.104l3.947,1.145l0.78,-2.657l-20.346,-8.08Z" style="fill:#cadaf3;fill-opacity:0.4;"/></g><path d="M18.704,37.774l5.109,2.555l-5.109,7.663l30.651,20.434l-10.217,-20.434l-20.434,-10.218Z" style="fill:#393f53;"/><clipPath id="_clip11"><path d="M18.704,37.774l5.109,2.555l-5.109,7.663l30.651,20.434l-10.217,-20.434l-20.434,-10.218Z"/></clipPath><g clip-path="url(#_clip11)"><path d="M68.484,76.582l-1.96,-9.996l5.98,-11.069l7.576,-3.788l-6.122,-2.047l-2.104,3.042l-0.404,-14.339l13.739,-12.437l-5.109,2.955l-5.108,2.34l-13.167,16.457l2.95,6.583l1.444,4.387l-1.444,7.793l-11.562,8.927l-13.981,3.141l-20.434,-3.325l20.434,-3.043l-10.217,-1.636l0,-6.158l-2.863,2.709l-7.354,-9.236l-3.729,-15.762l17.401,11.376l4.122,4.701l-0.319,-4.949l-2.149,-4.034l-13.6,-6.799l-4.271,-4.699l5.058,-5.125l11.418,1.995l-2.774,-2.782l-6.048,-1.383l-5.109,-3.079l0,1.847l-6.385,0.23l-7.388,-6.524l12.023,-7.761l10.29,6.822l0.045,-3.48l4.17,-1.198l-6.633,-7.176l14.312,-0.985l10.217,3.448l0,2.093l-2.754,7.837l-2.354,22.703l1.723,4.878l1.082,-9.676l2.303,-14.174l13.722,-6.861l-8.613,-4.461l-13.525,-10.013l8.416,-9.316l19.412,4.597l29.873,-0.389l-25.294,11.673l-1.724,6.773l3.276,0.334l0,-5.108l15.325,-5.2l19.256,-12.091l-80.558,-4.781l-32.159,44.306l19.563,50.65l52.085,-9.717" style="fill:#303880;fill-opacity:0.7;"/><path d="M46.428,0.551l23.361,4.147l20.435,-2.683l-18.32,6.165l-2.115,2.453l2.953,2.237l-5.594,0.683l-2.467,2.241l-5.109,-3.562l-0.889,5.553l-17.597,-3.367l5.247,17.548l-3.954,9.296l0.944,6.876l6.032,20.288l-2.081,4.067l0.64,5.429l-24.101,-6.942l20.434,3.567l-1.613,-1.807l-23.93,-19.64l24.705,14.651l1.548,-0.258l-26.253,-19.501l25.543,15.028l-5.109,-7.14l-1.407,-6.28l-13.918,-9.271l12.442,3.996l-1.19,-2.552l-13.152,-7.503l1.9,-0.497l13.918,6.967l0.344,-1.118l-13.931,-5.683l14.501,3.589l3.571,-6.401l-33.729,-8.678l32.759,4.054l-2.108,-2.33l-5.108,-1.238l0,-5.23l5.108,-1.514l1.699,1.999l-0.177,1.401l-3.876,-0.07l4.298,3.277l0.67,0.493l-1.11,-3.583l0.151,-1.17l-0.431,-0.908l-1.725,-2.127l-0.595,-2.723l-4.012,-3.102l7.516,1.812l12.133,1.516l0.088,-1.718l-9.52,-6.719l17.295,6.678l0.505,-1.104l3.947,1.145l0.78,-2.657l-20.346,-8.08Z" style="fill:#cadaf3;fill-opacity:0.4;"/></g><path d="M18.704,53.1l25.543,17.88l3.205,6.711l-23.639,-6.711l-5.109,-17.88Z" style="fill:#393f53;"/><clipPath id="_clip12"><path d="M18.704,53.1l25.543,17.88l3.205,6.711l-23.639,-6.711l-5.109,-17.88Z"/></clipPath><g clip-path="url(#_clip12)"><path d="M68.484,76.582l-1.96,-9.996l5.98,-11.069l7.576,-3.788l-6.122,-2.047l-2.104,3.042l-0.404,-14.339l13.739,-12.437l-5.109,2.955l-5.108,2.34l-13.167,16.457l2.95,6.583l1.444,4.387l-1.444,7.793l-11.562,8.927l-13.981,3.141l-20.434,-3.325l20.434,-3.043l-10.217,-1.636l0,-6.158l-2.863,2.709l-7.354,-9.236l-3.729,-15.762l17.401,11.376l4.122,4.701l-0.319,-4.949l-2.149,-4.034l-13.6,-6.799l-4.271,-4.699l5.058,-5.125l11.418,1.995l-2.774,-2.782l-6.048,-1.383l-5.109,-3.079l0,1.847l-6.385,0.23l-7.388,-6.524l12.023,-7.761l10.29,6.822l0.045,-3.48l4.17,-1.198l-6.633,-7.176l14.312,-0.985l10.217,3.448l0,2.093l-2.754,7.837l-2.354,22.703l1.723,4.878l1.082,-9.676l2.303,-14.174l13.722,-6.861l-8.613,-4.461l-13.525,-10.013l8.416,-9.316l19.412,4.597l29.873,-0.389l-25.294,11.673l-1.724,6.773l3.276,0.334l0,-5.108l15.325,-5.2l19.256,-12.091l-80.558,-4.781l-32.159,44.306l19.563,50.65l52.085,-9.717" style="fill:#303880;fill-opacity:0.7;"/><path d="M46.428,0.551l23.361,4.147l20.435,-2.683l-18.32,6.165l-2.115,2.453l2.953,2.237l-5.594,0.683l-2.467,2.241l-5.109,-3.562l-0.889,5.553l-17.597,-3.367l5.247,17.548l-3.954,9.296l0.944,6.876l6.032,20.288l-2.081,4.067l0.64,5.429l-24.101,-6.942l20.434,3.567l-1.613,-1.807l-23.93,-19.64l24.705,14.651l1.548,-0.258l-26.253,-19.501l25.543,15.028l-5.109,-7.14l-1.407,-6.28l-13.918,-9.271l12.442,3.996l-1.19,-2.552l-13.152,-7.503l1.9,-0.497l13.918,6.967l0.344,-1.118l-13.931,-5.683l14.501,3.589l3.571,-6.401l-33.729,-8.678l32.759,4.054l-2.108,-2.33l-5.108,-1.238l0,-5.23l5.108,-1.514l1.699,1.999l-0.177,1.401l-3.876,-0.07l4.298,3.277l0.67,0.493l-1.11,-3.583l0.151,-1.17l-0.431,-0.908l-1.725,-2.127l-0.595,-2.723l-4.012,-3.102l7.516,1.812l12.133,1.516l0.088,-1.718l-9.52,-6.719l17.295,6.678l0.505,-1.104l3.947,1.145l0.78,-2.657l-20.346,-8.08Z" style="fill:#cadaf3;fill-opacity:0.4;"/></g><path d="M46.375,0.525l-2.128,4.044l20.434,10.217l0,-2.296l5.974,0.175l-3.321,-1.661l2.455,-3.881l-23.414,-6.598Z" style="fill:#6c7157;"/><clipPath id="_clip13"><path d="M46.375,0.525l-2.128,4.044l20.434,10.217l0,-2.296l5.974,0.175l-3.321,-1.661l2.455,-3.881l-23.414,-6.598Z"/></clipPath><g clip-path="url(#_clip13)"><path d="M46.428,0.551l23.361,4.147l20.435,-2.683l-18.32,6.165l-2.115,2.453l2.953,2.237l-5.594,0.683l-2.467,2.241l-5.109,-3.562l-0.889,5.553l-17.597,-3.367l5.247,17.548l-3.954,9.296l0.944,6.876l6.032,20.288l-2.081,4.067l0.64,5.429l-24.101,-6.942l20.434,3.567l-1.613,-1.807l-23.93,-19.64l24.705,14.651l1.548,-0.258l-26.253,-19.501l25.543,15.028l-5.109,-7.14l-1.407,-6.28l-13.918,-9.271l12.442,3.996l-1.19,-2.552l-13.152,-7.503l1.9,-0.497l13.918,6.967l0.344,-1.118l-13.931,-5.683l14.501,3.589l3.571,-6.401l-33.729,-8.678l32.759,4.054l-2.108,-2.33l-5.108,-1.238l0,-5.23l5.108,-1.514l1.699,1.999l-0.177,1.401l-3.876,-0.07l4.298,3.277l0.67,0.493l-1.11,-3.583l0.151,-1.17l-0.431,-0.908l-1.725,-2.127l-0.595,-2.723l-4.012,-3.102l7.516,1.812l12.133,1.516l0.088,-1.718l-9.52,-6.719l17.295,6.678l0.505,-1.104l3.947,1.145l0.78,-2.657l-20.346,-8.08Z" style="fill:#cadaf3;fill-opacity:0.9;"/></g></g></g></g><path d="M86.606,41.93c0,0 2.482,1.152 2.212,3.309c-0.269,2.157 -0.855,2.424 -1.146,8.671c-0.292,6.246 1.599,1.94 1.103,9.665c-0.496,7.725 6.064,5.029 -1.485,12.308c-7.548,7.279 -14.018,11.143 -20.219,7.279c-6.201,-3.865 -8.178,-2.517 -14.288,-0.629c-6.111,1.887 -7.81,1.527 -13.656,1.887c-5.845,0.359 -7.93,-0.772 -16.368,-4.206c-8.438,-3.433 -4.574,-0.917 -10.685,-6.668c-6.111,-5.751 1.342,-7.119 -3.598,-5.581c-4.939,1.537 -11.478,8.726 -5.108,0.549c6.369,-8.178 0.8,-8.902 6.506,-10.068c5.705,-1.165 3.719,-4.114 5.745,-2.235c2.027,1.878 4.472,0.838 4.472,0.838l2.857,11.644l2.857,-3.082c0,0 -0.046,-2.024 2.025,1.197c2.07,3.22 2.672,2.385 4.096,2.665c1.425,0.279 -1.198,1.384 1.425,0.279c2.623,-1.104 1.69,-0.76 3.33,-0.564c1.639,0.196 0.079,-1.736 2.446,0.61c2.368,2.347 2.092,2.991 3.242,2.991c1.15,0 1.38,-0.23 1.38,-0.23l0.487,-1.15l0,-0.89l-7.388,-4.954l0.368,-1.242c0,0 -2.071,-1.104 0.644,0.046c2.715,1.15 2.978,2 4.342,2.058c1.363,0.059 1.547,-0.401 2.606,0.427c1.058,0.828 1.38,1.104 1.38,1.104l2.635,-0.254l0.521,0.261l-1.454,2.294c0,0 0.046,0.368 0.736,0.828c0.691,0.46 -0.68,0.552 0.718,0.598c1.399,0.046 3.344,2.438 5.109,-0.276c1.765,-2.715 1.029,-2.163 2.179,-2.853c1.151,-0.69 -0.322,0.874 1.611,-0.828c1.932,-1.702 1.15,-1.702 2.162,-2.025c1.012,-0.322 1.979,-0.736 1.979,-0.736c0,0 5.153,-1.702 5.015,-4.049c-0.138,-2.346 -1.289,-1.012 -0.138,-2.392c1.15,-1.38 0.388,-2.025 2.518,-2.301c2.129,-0.276 4.659,-0.138 4.659,-0.138l-0.368,2.853c0,0 -1.84,0.736 -2.254,1.196c-0.414,0.46 -1.058,1.196 -1.058,1.196l-2.301,1.427l0.092,1.288l0.23,2.163l0.437,1.473c0,0 1.993,0.533 2.158,-0.516c0.166,-1.049 -0.018,-1.049 0.442,-1.786c0.46,-0.736 0.874,-0.782 1.426,-1.932c0.552,-1.15 1.058,-1.886 1.058,-1.886c0,0 -1.725,0.966 0.587,-0.737c2.312,-1.702 2.588,-0.966 2.588,-2.668c0,-1.703 -0.23,-1.841 0,-2.853c0.23,-1.012 1.131,-1.971 1.131,-1.971l1.39,0.269l0.654,1.242l0.23,2.899l0,2.208l0.598,0.276l1.104,-2.898l0.534,-1.142l1.988,-0.995l1.93,-4.143l-3.992,-3.475l2.062,-2.599l1.502,-3.046" style="fill:#33643d;"/><clipPath id="_clip14"><path d="M86.606,41.93c0,0 2.482,1.152 2.212,3.309c-0.269,2.157 -0.855,2.424 -1.146,8.671c-0.292,6.246 1.599,1.94 1.103,9.665c-0.496,7.725 6.064,5.029 -1.485,12.308c-7.548,7.279 -14.018,11.143 -20.219,7.279c-6.201,-3.865 -8.178,-2.517 -14.288,-0.629c-6.111,1.887 -7.81,1.527 -13.656,1.887c-5.845,0.359 -7.93,-0.772 -16.368,-4.206c-8.438,-3.433 -4.574,-0.917 -10.685,-6.668c-6.111,-5.751 1.342,-7.119 -3.598,-5.581c-4.939,1.537 -11.478,8.726 -5.108,0.549c6.369,-8.178 0.8,-8.902 6.506,-10.068c5.705,-1.165 3.719,-4.114 5.745,-2.235c2.027,1.878 4.472,0.838 4.472,0.838l2.857,11.644l2.857,-3.082c0,0 -0.046,-2.024 2.025,1.197c2.07,3.22 2.672,2.385 4.096,2.665c1.425,0.279 -1.198,1.384 1.425,0.279c2.623,-1.104 1.69,-0.76 3.33,-0.564c1.639,0.196 0.079,-1.736 2.446,0.61c2.368,2.347 2.092,2.991 3.242,2.991c1.15,0 1.38,-0.23 1.38,-0.23l0.487,-1.15l0,-0.89l-7.388,-4.954l0.368,-1.242c0,0 -2.071,-1.104 0.644,0.046c2.715,1.15 2.978,2 4.342,2.058c1.363,0.059 1.547,-0.401 2.606,0.427c1.058,0.828 1.38,1.104 1.38,1.104l2.635,-0.254l0.521,0.261l-1.454,2.294c0,0 0.046,0.368 0.736,0.828c0.691,0.46 -0.68,0.552 0.718,0.598c1.399,0.046 3.344,2.438 5.109,-0.276c1.765,-2.715 1.029,-2.163 2.179,-2.853c1.151,-0.69 -0.322,0.874 1.611,-0.828c1.932,-1.702 1.15,-1.702 2.162,-2.025c1.012,-0.322 1.979,-0.736 1.979,-0.736c0,0 5.153,-1.702 5.015,-4.049c-0.138,-2.346 -1.289,-1.012 -0.138,-2.392c1.15,-1.38 0.388,-2.025 2.518,-2.301c2.129,-0.276 4.659,-0.138 4.659,-0.138l-0.368,2.853c0,0 -1.84,0.736 -2.254,1.196c-0.414,0.46 -1.058,1.196 -1.058,1.196l-2.301,1.427l0.092,1.288l0.23,2.163l0.437,1.473c0,0 1.993,0.533 2.158,-0.516c0.166,-1.049 -0.018,-1.049 0.442,-1.786c0.46,-0.736 0.874,-0.782 1.426,-1.932c0.552,-1.15 1.058,-1.886 1.058,-1.886c0,0 -1.725,0.966 0.587,-0.737c2.312,-1.702 2.588,-0.966 2.588,-2.668c0,-1.703 -0.23,-1.841 0,-2.853c0.23,-1.012 1.131,-1.971 1.131,-1.971l1.39,0.269l0.654,1.242l0.23,2.899l0,2.208l0.598,0.276l1.104,-2.898l0.534,-1.142l1.988,-0.995l1.93,-4.143l-3.992,-3.475l2.062,-2.599l1.502,-3.046"/></clipPath><g clip-path="url(#_clip14)"><path d="M94.507,37.483l0,61.302l-56.194,-5.637l27.944,-41.54l28.25,-14.125Z" style="fill:#c4e783;fill-opacity:0.5;"/><path d="M91.833,46.72l0.117,-3.429l-4.21,-0.761c0,0 -1.795,2.623 -2.128,6.077c-0.073,0.756 1.676,1.716 1.562,2.513c-0.676,4.749 -2.055,9.842 -2.07,11.178c-0.029,2.584 1.714,5.617 0,6.965c-1.714,1.348 0.196,2.92 -2.051,3.594c-2.246,0.674 -3.274,6.594 -3.94,0.657c-0.665,-5.936 -1.254,-5.095 -0.511,-6.246c0.744,-1.151 1.394,-1.937 1.394,-1.937l0,-2.475l0,-1.569c0,0 -2.37,1.278 -3.082,3.11c-0.713,1.833 -2.855,6.536 -2.855,6.536c0,0 0.95,1.05 -2.554,3.004c-3.504,1.953 -5.728,2.244 -5.728,2.244c0,0 0.585,1.751 0,0c-0.584,-1.751 2.38,-9.027 2.38,-9.027c0,0 0.919,-1.278 -1.079,-0.539c-1.998,0.738 -3.269,3.925 -5.441,5.421c-2.173,1.495 -3.858,3.293 -3.858,3.293l-1.818,1.052l-0.024,-5.12c0,0 0.43,0.826 -3.526,3.345c-3.956,2.52 -4.694,2.762 -4.694,2.762c0,0 -0.582,1.837 -1.438,-0.719c-0.857,-2.556 -0.48,-1.803 -0.48,-1.803l0.747,-4.348l-2.31,-1.797l0,8.986l-6.929,1.405l-2.331,-0.057l2.092,-6.992c0,0 -0.074,0.14 -3.049,0.14c-2.975,0 -6.004,0.442 -6.004,0.442l-0.501,1.147c0,0 0.273,-0.465 -1.974,-0.241c-2.247,0.225 2.696,3.37 -2.808,-0.224c-5.505,-3.595 -5.777,2.825 -6.539,-4.092c-0.763,-6.917 -1.364,-6.95 -0.558,-7.888c0.806,-0.938 4.401,-0.152 1.031,-1.163c-3.37,-1.011 -3.081,-1.011 -3.081,-1.011c0,0 -1.616,-3.035 -5.109,-1.405c-3.493,1.63 -1.531,0.514 -3.691,3.262c-2.161,2.748 -1.905,-3.105 -6.526,6.955c-4.621,10.059 -12.467,11.148 -4.275,13.188c8.191,2.039 3.939,3.387 19.601,3.387c15.662,0 74.69,4.827 74.69,4.827l6.278,-14.123l-2.72,-28.524Z" style="fill:#66b36a;"/><clipPath id="_clip15"><path d="M91.833,46.72l0.117,-3.429l-4.21,-0.761c0,0 -1.795,2.623 -2.128,6.077c-0.073,0.756 1.676,1.716 1.562,2.513c-0.676,4.749 -2.055,9.842 -2.07,11.178c-0.029,2.584 1.714,5.617 0,6.965c-1.714,1.348 0.196,2.92 -2.051,3.594c-2.246,0.674 -3.274,6.594 -3.94,0.657c-0.665,-5.936 -1.254,-5.095 -0.511,-6.246c0.744,-1.151 1.394,-1.937 1.394,-1.937l0,-2.475l0,-1.569c0,0 -2.37,1.278 -3.082,3.11c-0.713,1.833 -2.855,6.536 -2.855,6.536c0,0 0.95,1.05 -2.554,3.004c-3.504,1.953 -5.728,2.244 -5.728,2.244c0,0 0.585,1.751 0,0c-0.584,-1.751 2.38,-9.027 2.38,-9.027c0,0 0.919,-1.278 -1.079,-0.539c-1.998,0.738 -3.269,3.925 -5.441,5.421c-2.173,1.495 -3.858,3.293 -3.858,3.293l-1.818,1.052l-0.024,-5.12c0,0 0.43,0.826 -3.526,3.345c-3.956,2.52 -4.694,2.762 -4.694,2.762c0,0 -0.582,1.837 -1.438,-0.719c-0.857,-2.556 -0.48,-1.803 -0.48,-1.803l0.747,-4.348l-2.31,-1.797l0,8.986l-6.929,1.405l-2.331,-0.057l2.092,-6.992c0,0 -0.074,0.14 -3.049,0.14c-2.975,0 -6.004,0.442 -6.004,0.442l-0.501,1.147c0,0 0.273,-0.465 -1.974,-0.241c-2.247,0.225 2.696,3.37 -2.808,-0.224c-5.505,-3.595 -5.777,2.825 -6.539,-4.092c-0.763,-6.917 -1.364,-6.95 -0.558,-7.888c0.806,-0.938 4.401,-0.152 1.031,-1.163c-3.37,-1.011 -3.081,-1.011 -3.081,-1.011c0,0 -1.616,-3.035 -5.109,-1.405c-3.493,1.63 -1.531,0.514 -3.691,3.262c-2.161,2.748 -1.905,-3.105 -6.526,6.955c-4.621,10.059 -12.467,11.148 -4.275,13.188c8.191,2.039 3.939,3.387 19.601,3.387c15.662,0 74.69,4.827 74.69,4.827l6.278,-14.123l-2.72,-28.524Z"/></clipPath><g clip-path="url(#_clip15)"><path d="M94.507,37.483l0,61.302l-56.194,-5.637l27.944,-41.54l28.25,-14.125Z" style="fill:#c4e783;fill-opacity:0.5;"/></g><path d="M45.778,61.847l-38.116,19.058l-10.217,-10.217l17.381,-24.016l30.952,15.175Z" style="fill-opacity:0.5;"/></g></g></svg>