<?xml version="1.0" encoding="UTF-8" standalone="no"?><!DOCTYPE svg PUBLIC "-//W3C//DTD SVG 1.1//EN" "http://www.w3.org/Graphics/SVG/1.1/DTD/svg11.dtd"><svg width="100%" height="100%" viewBox="0 0 84 96" version="1.1" xmlns="http://www.w3.org/2000/svg" xmlns:xlink="http://www.w3.org/1999/xlink" xml:space="preserve" xmlns:serif="http://www.serif.com/" style="fill-rule:evenodd;clip-rule:evenodd;stroke-linejoin:round;stroke-miterlimit:1.41421;"><g id="X_Runestone_mossy_2"><g id="F_Runestone_grass_runes_2"><g id="F_Runestone_runes_2"><g><g><path d="M60.807,2.499l20.434,5.108l-20.434,5.109l-20.434,-10.217l20.434,0Z" style="fill:#9da8c9;"/><clipPath id="_clip1"><path d="M60.807,2.499l20.434,5.108l-20.434,5.109l-20.434,-10.217l20.434,0Z"/></clipPath><g clip-path="url(#_clip1)"><path d="M81.241,7.607l-18.481,6.9l-1.279,3.654l-0.674,5.443l-9.595,1.806l0.58,-4.774l-16.527,14.129l-5.109,1.549l2.54,16.645l4.645,15.225l-5.302,-0.216l1.044,11.184l2.182,7.638l-6.118,-5.767l-19.425,-12.113l18.167,6.242l-0.629,-9.903l-17.538,-10.032l0,-1.633l7.619,2.278l13.806,5.032l-4.451,-7.484l-4.129,-1.871l2.481,-0.509l-15.326,-7.663l15.326,4.688l-1.191,-14.838l-14.135,-15.393l20.434,12.102l12.282,-9.612l4.129,-2.323l-16.411,-10.384l26.546,13.274l-1.003,-5.611l0.609,-2.118l-15.935,-10.653l20.434,7.815l7.308,-2.387l13.126,-0.32Z" style="fill:#cadaf3;fill-opacity:0.9;"/></g><path d="M30.156,7.607l-5.108,7.663l-15.326,2.554l17.852,14.035l6.39,1.254l11.518,-12.734l5.108,-2.555l-20.434,-10.217" style="fill:#9da8c9;"/><clipPath id="_clip2"><path d="M30.156,7.607l-5.108,7.663l-15.326,2.554l17.852,14.035l6.39,1.254l11.518,-12.734l5.108,-2.555l-20.434,-10.217"/></clipPath><g clip-path="url(#_clip2)"><path d="M81.241,7.607l-18.481,6.9l-1.279,3.654l-0.674,5.443l-9.595,1.806l0.58,-4.774l-16.527,14.129l-5.109,1.549l2.54,16.645l4.645,15.225l-5.302,-0.216l1.044,11.184l2.182,7.638l-6.118,-5.767l-19.425,-12.113l18.167,6.242l-0.629,-9.903l-17.538,-10.032l0,-1.633l7.619,2.278l13.806,5.032l-4.451,-7.484l-4.129,-1.871l2.481,-0.509l-15.326,-7.663l15.326,4.688l-1.191,-14.838l-14.135,-15.393l20.434,12.102l12.282,-9.612l4.129,-2.323l-16.411,-10.384l26.546,13.274l-1.003,-5.611l0.609,-2.118l-15.935,-10.653l20.434,7.815l7.308,-2.387l13.126,-0.32Z" style="fill:#cadaf3;fill-opacity:0.9;"/></g><path d="M81.241,7.607l-20.434,5.109l-5.108,7.663l-5.109,-2.555l-5.108,2.555l-11.469,12.686l-6.44,-1.207l2.583,21.726l5.109,12.771l-5.109,-2.554l0,15.326l5.109,7.663l15.325,-7.663l0,-5.109l5.109,-2.554l5.108,2.554l17.456,-8.728l1.11,-22.857l1.868,-9.283l-5.108,2.554l5.108,-12.771l0,-15.326Z" style="fill:#bac1d8;"/><clipPath id="_clip3"><path d="M81.241,7.607l-20.434,5.109l-5.108,7.663l-5.109,-2.555l-5.108,2.555l-11.469,12.686l-6.44,-1.207l2.583,21.726l5.109,12.771l-5.109,-2.554l0,15.326l5.109,7.663l15.325,-7.663l0,-5.109l5.109,-2.554l5.108,2.554l17.456,-8.728l1.11,-22.857l1.868,-9.283l-5.108,2.554l5.108,-12.771l0,-15.326Z"/></clipPath><g clip-path="url(#_clip3)"><path d="M81.241,7.607l-18.481,6.9l-1.279,3.654l-0.674,5.443l-9.595,1.806l0.58,-4.774l-16.527,14.129l-5.109,1.549l2.54,16.645l4.645,15.225l-5.302,-0.216l1.044,11.184l2.182,7.638l-6.118,-5.767l-19.425,-12.113l18.167,6.242l-0.629,-9.903l-17.538,-10.032l0,-1.633l7.619,2.278l13.806,5.032l-4.451,-7.484l-4.129,-1.871l2.481,-0.509l-15.326,-7.663l15.326,4.688l-1.191,-14.838l-14.135,-15.393l20.434,12.102l12.282,-9.612l4.129,-2.323l-16.411,-10.384l26.546,13.274l-1.003,-5.611l0.609,-2.118l-15.935,-10.653l20.434,7.815l7.308,-2.387l13.126,-0.32Z" style="fill:#cadaf3;fill-opacity:0.9;"/></g><path d="M9.722,17.824l17.852,14.035l2.582,21.725l-20.434,-10.217l1.887,-9.273l-1.887,-16.27Z" style="fill:#6c7157;"/><clipPath id="_clip4"><path d="M9.722,17.824l17.852,14.035l2.582,21.725l-20.434,-10.217l1.887,-9.273l-1.887,-16.27Z"/></clipPath><g clip-path="url(#_clip4)"><path d="M81.241,7.607l-18.481,6.9l-1.279,3.654l-0.674,5.443l-9.595,1.806l0.58,-4.774l-16.527,14.129l-5.109,1.549l2.54,16.645l4.645,15.225l-5.302,-0.216l1.044,11.184l2.182,7.638l-6.118,-5.767l-19.425,-12.113l18.167,6.242l-0.629,-9.903l-17.538,-10.032l0,-1.633l7.619,2.278l13.806,5.032l-4.451,-7.484l-4.129,-1.871l2.481,-0.509l-15.326,-7.663l15.326,4.688l-1.191,-14.838l-14.135,-15.393l20.434,12.102l12.282,-9.612l4.129,-2.323l-16.411,-10.384l26.546,13.274l-1.003,-5.611l0.609,-2.118l-15.935,-10.653l20.434,7.815l7.308,-2.387l13.126,-0.32Z" style="fill:#cadaf3;fill-opacity:0.4;"/></g><path d="M35.265,86.79l-20.435,-10.217l-5.108,-7.663l0,-15.326l20.434,10.217l0,15.326l5.109,7.663Z" style="fill:#6c7157;"/><clipPath id="_clip5"><path d="M35.265,86.79l-20.435,-10.217l-5.108,-7.663l0,-15.326l20.434,10.217l0,15.326l5.109,7.663Z"/></clipPath><g clip-path="url(#_clip5)"><path d="M81.241,7.607l-18.481,6.9l-1.279,3.654l-0.674,5.443l-9.595,1.806l0.58,-4.774l-16.527,14.129l-5.109,1.549l2.54,16.645l4.645,15.225l-5.302,-0.216l1.044,11.184l2.182,7.638l-6.118,-5.767l-19.425,-12.113l18.167,6.242l-0.629,-9.903l-17.538,-10.032l0,-1.633l7.619,2.278l13.806,5.032l-4.451,-7.484l-4.129,-1.871l2.481,-0.509l-15.326,-7.663l15.326,4.688l-1.191,-14.838l-14.135,-15.393l20.434,12.102l12.282,-9.612l4.129,-2.323l-16.411,-10.384l26.546,13.274l-1.003,-5.611l0.609,-2.118l-15.935,-10.653l20.434,7.815l7.308,-2.387l13.126,-0.32Z" style="fill:#cadaf3;fill-opacity:0.4;"/></g><path d="M9.722,43.367l15.326,7.663l-15.326,2.554l25.543,12.771l-5.109,-12.771l-20.434,-10.217Z" style="fill:#393f53;"/><clipPath id="_clip6"><path d="M9.722,43.367l15.326,7.663l-15.326,2.554l25.543,12.771l-5.109,-12.771l-20.434,-10.217Z"/></clipPath><g clip-path="url(#_clip6)"><path d="M81.241,7.607l-18.481,6.9l-1.279,3.654l-0.674,5.443l-9.595,1.806l0.58,-4.774l-16.527,14.129l-5.109,1.549l2.54,16.645l4.645,15.225l-5.302,-0.216l1.044,11.184l2.182,7.638l-6.118,-5.767l-19.425,-12.113l18.167,6.242l-0.629,-9.903l-17.538,-10.032l0,-1.633l7.619,2.278l13.806,5.032l-4.451,-7.484l-4.129,-1.871l2.481,-0.509l-15.326,-7.663l15.326,4.688l-1.191,-14.838l-14.135,-15.393l20.434,12.102l12.282,-9.612l4.129,-2.323l-16.411,-10.384l26.546,13.274l-1.003,-5.611l0.609,-2.118l-15.935,-10.653l20.434,7.815l7.308,-2.387l13.126,-0.32Z" style="fill:#cadaf3;fill-opacity:0.4;"/></g><path d="M9.722,68.91l20.434,10.217l5.109,7.663l-20.435,-10.217l-5.108,-7.663Z" style="fill:#393f53;"/><clipPath id="_clip7"><path d="M9.722,68.91l20.434,10.217l5.109,7.663l-20.435,-10.217l-5.108,-7.663Z"/></clipPath><g clip-path="url(#_clip7)"><path d="M81.241,7.607l-18.481,6.9l-1.279,3.654l-0.674,5.443l-9.595,1.806l0.58,-4.774l-16.527,14.129l-5.109,1.549l2.54,16.645l4.645,15.225l-5.302,-0.216l1.044,11.184l2.182,7.638l-6.118,-5.767l-19.425,-12.113l18.167,6.242l-0.629,-9.903l-17.538,-10.032l0,-1.633l7.619,2.278l13.806,5.032l-4.451,-7.484l-4.129,-1.871l2.481,-0.509l-15.326,-7.663l15.326,4.688l-1.191,-14.838l-14.135,-15.393l20.434,12.102l12.282,-9.612l4.129,-2.323l-16.411,-10.384l26.546,13.274l-1.003,-5.611l0.609,-2.118l-15.935,-10.653l20.434,7.815l7.308,-2.387l13.126,-0.32Z" style="fill:#cadaf3;fill-opacity:0.9;"/></g><path d="M40.373,2.499l-5.108,7.663l20.434,10.217l-2.438,3.889l5.526,-2.345l-0.435,-5.326l2.455,-3.881l-20.434,-10.217Z" style="fill:#6c7157;"/><clipPath id="_clip8"><path d="M40.373,2.499l-5.108,7.663l20.434,10.217l-2.438,3.889l5.526,-2.345l-0.435,-5.326l2.455,-3.881l-20.434,-10.217Z"/></clipPath><g clip-path="url(#_clip8)"><path d="M81.241,7.607l-18.481,6.9l-1.279,3.654l-0.674,5.443l-9.595,1.806l0.58,-4.774l-16.527,14.129l-5.109,1.549l2.54,16.645l4.645,15.225l-5.302,-0.216l1.044,11.184l2.182,7.638l-6.118,-5.767l-19.425,-12.113l18.167,6.242l-0.629,-9.903l-17.538,-10.032l0,-1.633l7.619,2.278l13.806,5.032l-4.451,-7.484l-4.129,-1.871l2.481,-0.509l-15.326,-7.663l15.326,4.688l-1.191,-14.838l-14.135,-15.393l20.434,12.102l12.282,-9.612l4.129,-2.323l-16.411,-10.384l26.546,13.274l-1.003,-5.611l0.609,-2.118l-15.935,-10.653l20.434,7.815l7.308,-2.387l13.126,-0.32Z" style="fill:#cadaf3;fill-opacity:0.9;"/></g></g></g></g><path d="M79.021,50.072c0,0 6.024,1.536 4.352,7.225c-1.672,5.688 -0.692,6.841 -2.096,11.264c-1.404,4.424 -2.576,0.768 -5.109,5.714c-2.445,4.777 -1.717,6.083 -12.733,10.908c-0.391,0.172 1.248,-3.192 0.821,-3.002c-0.898,0.399 -1.669,0.754 -2.331,1.07c-8.523,4.067 0.852,1.734 -12.241,5.273c-0.883,0.239 3.879,1.316 3.075,1.538c-0.803,0.223 -3.476,-0.207 -4.251,-0.008c-2.579,0.663 -4.884,1.237 -6.919,1.727c-0.37,0.09 1.938,2.016 -1.083,0.259c-5.189,-3.018 -9.235,2.024 -10.314,2.064c-1.717,0.063 -4.565,-3.053 -7.872,-1.172c-3.307,1.881 -2.554,4.569 -5.78,1.343c-1.544,-1.544 -3.353,-0.852 -3.846,-1.639c-0.537,-0.858 0.226,-3.128 -2.108,-3.226c-0.532,-0.023 -1.71,4.028 -2.194,4.011c-3.598,-0.129 -5.277,-4.159 -6.947,-3.473c-1.894,0.779 -2.04,-0.866 0.667,-4.775c2.708,-3.909 3.812,-1.699 3.69,-4.417c-0.122,-2.718 -2.473,-3.872 -2.473,-3.872c0,0 -1.965,1.936 -1.474,-2.057c0.491,-3.993 -0.318,-4.202 0.839,-4.689c1.158,-0.487 1.892,1.664 1.955,-1.239c0.063,-2.903 -0.708,-1.506 0,-3.764c0.708,-2.258 0.201,-0.492 1.315,-3.579c1.114,-3.087 0.451,-5.273 0.46,-6.653c0.008,-1.38 -1.067,-0.413 0.008,-1.703c1.076,-1.29 5.754,-2.798 7.34,-3.066c1.585,-0.267 7.176,1.13 7.176,1.13l-11.19,2.263l0,15.034l5.108,7.663c0,0 0.364,2.442 2.875,1.438c2.512,-1.004 1.961,-1.004 3.007,-1.004c1.046,0 0.881,-0.055 2.808,1.486c1.927,1.542 3.276,2.314 3.276,2.314c0,0 1.568,1.099 2.67,1.705c1.101,0.606 1.716,2.237 1.716,2.237l0.486,-0.751c0,0 0.4,0.25 0.365,-0.701c-0.035,-0.95 0.35,-2.712 0.158,-3.152c-0.193,-0.441 -1.294,-1.266 0.192,-0.551c1.487,0.716 0.969,0.76 2.054,1.674c1.084,0.914 -1.019,1.927 1.96,0.98c2.978,-0.947 2.056,-1.222 3.976,-1.112c1.92,0.11 1.094,1.321 3.021,0.055c1.927,-1.266 1.927,-0.496 2.643,-1.762c0.715,-1.266 0.66,-1.652 0.66,-1.652c0,0 -2.242,1.017 -0.048,-0.62l2.195,-1.637c0,0 -0.569,0.899 0.101,-0.679c0.67,-1.578 0.638,-0.587 1.645,-2.239c1.007,-1.651 0.122,-1.864 1.996,-2.693c1.874,-0.83 -0.108,-2.041 2.204,-0.94c2.312,1.101 0.378,0.481 3.492,1.204c3.114,0.723 3.39,0.503 4.546,0.723c1.156,0.22 -1.377,-1.101 1.266,-2.918c2.643,-1.817 3.065,-0.587 3.019,-2.221c-0.046,-1.633 -2.523,-2.679 0.119,-2.789c2.643,-0.11 -1.705,2.033 2.671,0.273c4.376,-1.759 3.88,-0.438 4.706,-1.869c0.826,-1.432 1.836,-1.487 1.523,-2.698c-0.312,-1.211 -0.404,-2.333 -0.404,-2.333l2.892,2.961l0.365,-8.881Z" style="fill:#33643d;"/><clipPath id="_clip9"><path d="M79.021,50.072c0,0 6.024,1.536 4.352,7.225c-1.672,5.688 -0.692,6.841 -2.096,11.264c-1.404,4.424 -2.576,0.768 -5.109,5.714c-2.445,4.777 -1.717,6.083 -12.733,10.908c-0.391,0.172 1.248,-3.192 0.821,-3.002c-0.898,0.399 -1.669,0.754 -2.331,1.07c-8.523,4.067 0.852,1.734 -12.241,5.273c-0.883,0.239 3.879,1.316 3.075,1.538c-0.803,0.223 -3.476,-0.207 -4.251,-0.008c-2.579,0.663 -4.884,1.237 -6.919,1.727c-0.37,0.09 1.938,2.016 -1.083,0.259c-5.189,-3.018 -9.235,2.024 -10.314,2.064c-1.717,0.063 -4.565,-3.053 -7.872,-1.172c-3.307,1.881 -2.554,4.569 -5.78,1.343c-1.544,-1.544 -3.353,-0.852 -3.846,-1.639c-0.537,-0.858 0.226,-3.128 -2.108,-3.226c-0.532,-0.023 -1.71,4.028 -2.194,4.011c-3.598,-0.129 -5.277,-4.159 -6.947,-3.473c-1.894,0.779 -2.04,-0.866 0.667,-4.775c2.708,-3.909 3.812,-1.699 3.69,-4.417c-0.122,-2.718 -2.473,-3.872 -2.473,-3.872c0,0 -1.965,1.936 -1.474,-2.057c0.491,-3.993 -0.318,-4.202 0.839,-4.689c1.158,-0.487 1.892,1.664 1.955,-1.239c0.063,-2.903 -0.708,-1.506 0,-3.764c0.708,-2.258 0.201,-0.492 1.315,-3.579c1.114,-3.087 0.451,-5.273 0.46,-6.653c0.008,-1.38 -1.067,-0.413 0.008,-1.703c1.076,-1.29 5.754,-2.798 7.34,-3.066c1.585,-0.267 7.176,1.13 7.176,1.13l-11.19,2.263l0,15.034l5.108,7.663c0,0 0.364,2.442 2.875,1.438c2.512,-1.004 1.961,-1.004 3.007,-1.004c1.046,0 0.881,-0.055 2.808,1.486c1.927,1.542 3.276,2.314 3.276,2.314c0,0 1.568,1.099 2.67,1.705c1.101,0.606 1.716,2.237 1.716,2.237l0.486,-0.751c0,0 0.4,0.25 0.365,-0.701c-0.035,-0.95 0.35,-2.712 0.158,-3.152c-0.193,-0.441 -1.294,-1.266 0.192,-0.551c1.487,0.716 0.969,0.76 2.054,1.674c1.084,0.914 -1.019,1.927 1.96,0.98c2.978,-0.947 2.056,-1.222 3.976,-1.112c1.92,0.11 1.094,1.321 3.021,0.055c1.927,-1.266 1.927,-0.496 2.643,-1.762c0.715,-1.266 0.66,-1.652 0.66,-1.652c0,0 -2.242,1.017 -0.048,-0.62l2.195,-1.637c0,0 -0.569,0.899 0.101,-0.679c0.67,-1.578 0.638,-0.587 1.645,-2.239c1.007,-1.651 0.122,-1.864 1.996,-2.693c1.874,-0.83 -0.108,-2.041 2.204,-0.94c2.312,1.101 0.378,0.481 3.492,1.204c3.114,0.723 3.39,0.503 4.546,0.723c1.156,0.22 -1.377,-1.101 1.266,-2.918c2.643,-1.817 3.065,-0.587 3.019,-2.221c-0.046,-1.633 -2.523,-2.679 0.119,-2.789c2.643,-0.11 -1.705,2.033 2.671,0.273c4.376,-1.759 3.88,-0.438 4.706,-1.869c0.826,-1.432 1.836,-1.487 1.523,-2.698c-0.312,-1.211 -0.404,-2.333 -0.404,-2.333l2.892,2.961l0.365,-8.881Z"/></clipPath><g clip-path="url(#_clip9)"><path d="M85.571,38.08l18.329,50.032l-68.039,22.175l-11.592,-5.797l28.829,-46.887l32.473,-19.523" style="fill:#c4e783;fill-opacity:0.5;"/><path d="M87.62,53.824l-4.555,4.581l-1.788,1.225c0,0 0.431,2.914 0,3.823c-0.431,0.909 -2.455,3.881 -2.455,3.881c0,0 -0.557,0.898 -1.632,1.974c-1.076,1.075 -1.874,1.381 -1.874,1.381l-0.688,-0.344l2.562,-6.521l0.645,-1.075l-1.667,-0.538c0,0 -2.419,2.796 -3.172,4.194c-0.753,1.397 -0.901,1.639 -0.901,1.639c0,0 0.147,0.511 -1.035,1.694c-1.182,1.183 -2.522,2.249 -1.959,2.952c0.562,0.704 0.866,1.527 0.866,1.527c0,0 -1.81,1.005 -3.1,0.36c-1.29,-0.646 0.323,-0.968 -1.935,-1.506c-2.258,-0.537 -3.018,-1.061 -5.918,-0.315c-2.899,0.745 -4.082,-6.136 -5.373,0.745c-1.29,6.882 -2.482,7.205 -3.015,8.065c-0.533,0.86 1.737,1.159 -1.656,1.493c-3.393,0.335 -4.683,0.442 -4.683,0.442c0,0 -4.619,2.268 -6.557,1.725c-1.938,-0.542 0.842,-1.187 -2.43,-0.434c-3.271,0.752 -7.808,1.505 -10.217,2.58c-2.409,1.075 -4.448,2.051 -7.461,2.8c-3.013,0.748 -2.275,0.839 -0.785,-0.397c4.038,-3.353 -6.058,-0.789 -4.748,-3.16c1.582,-2.862 2.777,-2.791 2.777,-2.791l-3.037,-4.01l-2.071,0.246c0,0 0.272,1.057 -1.793,-0.385c-2.065,-1.443 -2.731,-1.484 -1.914,-4.152c0.817,-2.667 2.246,-1.225 1.155,-3.129c-1.091,-1.903 -1.736,0.14 -1.091,-3.731c0.645,-3.871 0.753,-4.839 0.753,-4.839c0,0 -1.078,-2.477 -0.754,-3.658c0.324,-1.181 0.431,-2.148 0.431,-2.148l-4.542,1.557l2.646,-6.074l0,-0.86c0,0 -6.599,-2.903 -7.566,0.753c-0.968,3.656 -3.216,4.065 -1.232,13.323c1.984,9.257 2.573,10.123 1.311,15.981c-1.262,5.857 -3.843,9.62 -0.832,10.911c3.011,1.29 0.323,2.258 11.72,2.903c11.398,0.645 59.587,-4.12 59.587,-4.12l22.993,-25.342l-3.01,-13.226" style="fill:#66b36a;"/><clipPath id="_clip10"><path d="M87.62,53.824l-4.555,4.581l-1.788,1.225c0,0 0.431,2.914 0,3.823c-0.431,0.909 -2.455,3.881 -2.455,3.881c0,0 -0.557,0.898 -1.632,1.974c-1.076,1.075 -1.874,1.381 -1.874,1.381l-0.688,-0.344l2.562,-6.521l0.645,-1.075l-1.667,-0.538c0,0 -2.419,2.796 -3.172,4.194c-0.753,1.397 -0.901,1.639 -0.901,1.639c0,0 0.147,0.511 -1.035,1.694c-1.182,1.183 -2.522,2.249 -1.959,2.952c0.562,0.704 0.866,1.527 0.866,1.527c0,0 -1.81,1.005 -3.1,0.36c-1.29,-0.646 0.323,-0.968 -1.935,-1.506c-2.258,-0.537 -3.018,-1.061 -5.918,-0.315c-2.899,0.745 -4.082,-6.136 -5.373,0.745c-1.29,6.882 -2.482,7.205 -3.015,8.065c-0.533,0.86 1.737,1.159 -1.656,1.493c-3.393,0.335 -4.683,0.442 -4.683,0.442c0,0 -4.619,2.268 -6.557,1.725c-1.938,-0.542 0.842,-1.187 -2.43,-0.434c-3.271,0.752 -7.808,1.505 -10.217,2.58c-2.409,1.075 -4.448,2.051 -7.461,2.8c-3.013,0.748 -2.275,0.839 -0.785,-0.397c4.038,-3.353 -6.058,-0.789 -4.748,-3.16c1.582,-2.862 2.777,-2.791 2.777,-2.791l-3.037,-4.01l-2.071,0.246c0,0 0.272,1.057 -1.793,-0.385c-2.065,-1.443 -2.731,-1.484 -1.914,-4.152c0.817,-2.667 2.246,-1.225 1.155,-3.129c-1.091,-1.903 -1.736,0.14 -1.091,-3.731c0.645,-3.871 0.753,-4.839 0.753,-4.839c0,0 -1.078,-2.477 -0.754,-3.658c0.324,-1.181 0.431,-2.148 0.431,-2.148l-4.542,1.557l2.646,-6.074l0,-0.86c0,0 -6.599,-2.903 -7.566,0.753c-0.968,3.656 -3.216,4.065 -1.232,13.323c1.984,9.257 2.573,10.123 1.311,15.981c-1.262,5.857 -3.843,9.62 -0.832,10.911c3.011,1.29 0.323,2.258 11.72,2.903c11.398,0.645 59.587,-4.12 59.587,-4.12l22.993,-25.342l-3.01,-13.226"/></clipPath><g clip-path="url(#_clip10)"><path d="M85.571,38.08l18.329,50.032l-68.039,22.175l-11.592,-5.797l28.829,-46.887l32.473,-19.523" style="fill:#c4e783;fill-opacity:0.5;"/></g><path d="M29.377,71.285l-34.27,22.244l-1.489,-52.229l38.658,5.892l-2.899,24.093" style="fill-opacity:0.5;"/></g></g><g><path d="M60.188,48.899l9.948,12.459l-4.348,-1.275l-12.119,-9.901l6.519,-1.283Z" style="fill:#393f53;"/><path d="M52.1,50.54l13.868,-15.94l6.083,-0.139l-10.988,15.699l-8.963,0.38Z" style="fill:#393f53;"/><path d="M52.136,28.493l1.65,-1.733l18.272,7.657l-7.559,0.789l-12.363,-6.713Z" style="fill:#393f53;"/><path d="M55.328,56.554l-3.645,-2.964l-8.161,10.91l5.189,3.011l6.617,-10.957Z" style="fill:#393f53;"/><path d="M39.083,68.42l6.159,-2.81l3.313,1.936l-4.813,2.65l-4.659,-1.776Z" style="fill:none;"/><path d="M61.625,62.097l4.003,1.649l4.534,-2.321l-4.159,-1.166l-4.378,1.838Z" style="fill:none;"/><path d="M52.103,54.021l9.524,8.068l4.57,-1.935l-9.695,-9.809l10.371,-15.392l-14.79,-6.374l-12.277,15.81l7.562,6.49l-8.293,17.514l6.296,-2.837l6.732,-11.535Z" style="fill:#78fff8;"/><g><path d="M53.987,35.011l6.423,3.896l-4.689,7.106l-6.669,-4.761l4.935,-6.241Z" style="fill:#cadaf3;"/><path d="M54.005,35.002l-3.552,0.145l-5.289,6.24l4.006,-0.218l4.835,-6.167Z" style="fill:#6c7157;"/><path d="M45.186,41.399l3.881,-0.157l6.577,4.769l-4.525,-0.079l-5.933,-4.533Z" style="fill:#393f53;"/></g></g><path d="M76.084,44.969c0,0 -1.332,-0.602 -1.131,-4.875c0.202,-4.273 -1.197,-8.653 -0.849,-8.662c0.347,-0.009 2.185,-0.115 3.025,-1.513c0.84,-1.399 3.767,-1.135 4.063,-2.894c0.296,-1.759 2.055,-2.375 2.143,-4.134c0.088,-1.76 0.176,-14.25 -0.088,-15.218c-0.264,-0.967 -0.44,-1.055 -1.231,-1.583c-0.792,-0.528 1.871,-0.528 -0.824,-0.528c-2.695,0 -2.772,-2.03 -5.108,-0.663c-2.337,1.367 -1.88,1.137 -3.472,1.736c-1.591,0.599 -6.746,2.094 -6.746,2.094c0,0 -0.481,2.739 -1.841,0.358c-1.361,-2.381 2.345,-0.335 -1.443,-2.546c-3.788,-2.21 -3.905,-3.06 -4.506,-2.855c-0.602,0.205 0.014,0.909 -1.657,-0.235c-1.671,-1.143 0.687,-2.145 -3.131,-2.48c-3.818,-0.335 -4.809,-0.991 -6.821,-0.663c-2.011,0.328 -1.083,0.073 -3.174,0.552c-2.091,0.48 -2.969,0.744 -2.969,0.744c0,0 0.162,-0.681 -0.931,0.275c-1.094,0.956 -2.506,0.947 -3.208,2.535c-0.701,1.588 -0.887,1.324 -0.97,2.116c-0.083,0.791 -1.143,0.43 -3.252,-0.005c-2.109,-0.435 -1.937,-0.865 -2.639,0.537c-0.701,1.403 0.091,0.699 -1.229,2.195c-1.319,1.495 2.551,0.967 -2.111,2.463c-4.662,1.495 -1.194,-1.482 -4.687,1.546c-3.493,3.028 -2.089,3.474 0.771,5.494c2.861,2.02 -0.431,0.436 2.93,2.547c3.361,2.111 4.393,2.463 5.109,3.431c0.715,0.967 1.383,1.512 1.445,2.427c0.062,0.915 0.062,3.202 0.062,3.202c0,0 0.088,-1.231 -0.352,0.792c-0.44,2.023 -1.155,2.991 -1.155,2.991c0,0 -0.54,-0.088 0,1.231c0.539,1.32 0.725,0.9 0.852,2.297c0.127,1.398 0.127,1.222 0.127,2.189c0,0.968 0,1.672 0,1.672c0,0 0.591,0.577 0.471,2.399c-0.119,1.823 -0.837,2.322 -0.522,3.92c0.315,1.597 1.106,2.301 1.634,3.092c0.528,0.792 1.293,3.202 1.043,0.678c-0.251,-2.525 0.277,-3.492 0.277,-4.372c0,-0.88 -0.852,0.648 -0.074,-2.139c0.777,-2.787 -1.863,0.12 2.008,-4.104c3.871,-4.224 3.617,-5.699 3.129,-7.381c-0.489,-1.681 0.126,0.078 0.126,-3.353c0,-3.43 1.146,-5.013 1.146,-5.013c0,0 -0.108,-0.74 -0.715,-2.13c-0.607,-1.389 -1.31,-1.301 -0.079,-2.444c1.232,-1.144 1.433,-2.25 2.212,-2.312c0.779,-0.063 0.955,-0.239 1.659,-0.679c0.703,-0.44 1.688,-0.792 2.031,-1.144c0.344,-0.351 2.012,-0.435 2.012,-0.435l-2.012,-3.523l7.117,0.967c0,0 0.703,0.791 1.802,2.199c1.1,1.408 2.6,3.089 3.17,3.524c0.569,0.435 1.499,2.621 1.499,2.621l1.738,3.268c0,0 -0.909,2.902 1.115,0.615c2.023,-2.287 -0.641,0.566 2.406,-4.774c3.047,-5.341 2.08,-6.045 4.279,-6.221c2.199,-0.176 1.935,-0.44 3.166,-0.176c1.232,0.264 -0.088,0.088 1.759,0.528c1.848,0.44 4.673,0.528 2.601,1.583c-2.073,1.056 -3.656,1.144 -3.04,3.695c0.615,2.551 2.638,2.727 0.527,5.102c-2.111,2.374 -3.081,0.703 -2.596,5.365c0.485,4.662 0.13,7.389 0,9.676c-0.13,2.287 -2.772,2.023 0,3.694c2.772,1.672 3.73,0.42 3.911,2.101c0.181,1.682 1.198,-1.397 1.198,-1.397Z" style="fill:#33643d;"/><clipPath id="_clip11"><path d="M76.084,44.969c0,0 -1.332,-0.602 -1.131,-4.875c0.202,-4.273 -1.197,-8.653 -0.849,-8.662c0.347,-0.009 2.185,-0.115 3.025,-1.513c0.84,-1.399 3.767,-1.135 4.063,-2.894c0.296,-1.759 2.055,-2.375 2.143,-4.134c0.088,-1.76 0.176,-14.25 -0.088,-15.218c-0.264,-0.967 -0.44,-1.055 -1.231,-1.583c-0.792,-0.528 1.871,-0.528 -0.824,-0.528c-2.695,0 -2.772,-2.03 -5.108,-0.663c-2.337,1.367 -1.88,1.137 -3.472,1.736c-1.591,0.599 -6.746,2.094 -6.746,2.094c0,0 -0.481,2.739 -1.841,0.358c-1.361,-2.381 2.345,-0.335 -1.443,-2.546c-3.788,-2.21 -3.905,-3.06 -4.506,-2.855c-0.602,0.205 0.014,0.909 -1.657,-0.235c-1.671,-1.143 0.687,-2.145 -3.131,-2.48c-3.818,-0.335 -4.809,-0.991 -6.821,-0.663c-2.011,0.328 -1.083,0.073 -3.174,0.552c-2.091,0.48 -2.969,0.744 -2.969,0.744c0,0 0.162,-0.681 -0.931,0.275c-1.094,0.956 -2.506,0.947 -3.208,2.535c-0.701,1.588 -0.887,1.324 -0.97,2.116c-0.083,0.791 -1.143,0.43 -3.252,-0.005c-2.109,-0.435 -1.937,-0.865 -2.639,0.537c-0.701,1.403 0.091,0.699 -1.229,2.195c-1.319,1.495 2.551,0.967 -2.111,2.463c-4.662,1.495 -1.194,-1.482 -4.687,1.546c-3.493,3.028 -2.089,3.474 0.771,5.494c2.861,2.02 -0.431,0.436 2.93,2.547c3.361,2.111 4.393,2.463 5.109,3.431c0.715,0.967 1.383,1.512 1.445,2.427c0.062,0.915 0.062,3.202 0.062,3.202c0,0 0.088,-1.231 -0.352,0.792c-0.44,2.023 -1.155,2.991 -1.155,2.991c0,0 -0.54,-0.088 0,1.231c0.539,1.32 0.725,0.9 0.852,2.297c0.127,1.398 0.127,1.222 0.127,2.189c0,0.968 0,1.672 0,1.672c0,0 0.591,0.577 0.471,2.399c-0.119,1.823 -0.837,2.322 -0.522,3.92c0.315,1.597 1.106,2.301 1.634,3.092c0.528,0.792 1.293,3.202 1.043,0.678c-0.251,-2.525 0.277,-3.492 0.277,-4.372c0,-0.88 -0.852,0.648 -0.074,-2.139c0.777,-2.787 -1.863,0.12 2.008,-4.104c3.871,-4.224 3.617,-5.699 3.129,-7.381c-0.489,-1.681 0.126,0.078 0.126,-3.353c0,-3.43 1.146,-5.013 1.146,-5.013c0,0 -0.108,-0.74 -0.715,-2.13c-0.607,-1.389 -1.31,-1.301 -0.079,-2.444c1.232,-1.144 1.433,-2.25 2.212,-2.312c0.779,-0.063 0.955,-0.239 1.659,-0.679c0.703,-0.44 1.688,-0.792 2.031,-1.144c0.344,-0.351 2.012,-0.435 2.012,-0.435l-2.012,-3.523l7.117,0.967c0,0 0.703,0.791 1.802,2.199c1.1,1.408 2.6,3.089 3.17,3.524c0.569,0.435 1.499,2.621 1.499,2.621l1.738,3.268c0,0 -0.909,2.902 1.115,0.615c2.023,-2.287 -0.641,0.566 2.406,-4.774c3.047,-5.341 2.08,-6.045 4.279,-6.221c2.199,-0.176 1.935,-0.44 3.166,-0.176c1.232,0.264 -0.088,0.088 1.759,0.528c1.848,0.44 4.673,0.528 2.601,1.583c-2.073,1.056 -3.656,1.144 -3.04,3.695c0.615,2.551 2.638,2.727 0.527,5.102c-2.111,2.374 -3.081,0.703 -2.596,5.365c0.485,4.662 0.13,7.389 0,9.676c-0.13,2.287 -2.772,2.023 0,3.694c2.772,1.672 3.73,0.42 3.911,2.101c0.181,1.682 1.198,-1.397 1.198,-1.397Z"/></clipPath><g clip-path="url(#_clip11)"><path d="M56.873,-3.067l31.039,5.842l-2.786,37.297l-5.656,4.002l-9.704,-10.474l-2.648,-14.001l-13.255,-0.267l-20.451,-15.334l13.397,-13.736l10.064,6.671Z" style="fill:#c4e783;fill-opacity:0.5;"/><path d="M73.1,42.151c-0.026,-1.285 1.481,-2.667 0.595,-5.407c-0.885,-2.739 -2.908,-3.794 -0.797,-5.729c2.111,-1.936 1.182,-2.551 3.186,-3.519c2.003,-0.968 3.147,-1.143 3.499,-2.639c0.352,-1.495 2.075,-1.935 1.609,-3.782c-0.466,-1.847 0.642,-4.222 0,-6.861c-0.642,-2.639 -1.257,-4.486 -1.257,-4.486l-1.222,-1.035c0,0 -0.274,-0.285 -1.681,-0.285c-1.408,0 -0.463,0.486 -2.518,0.815c-2.056,0.329 -0.36,-0.815 -3.539,1.208c-3.179,2.024 -7.489,2.375 -7.489,2.375c0,0 -1.761,5.845 -2.728,-0.244c-0.967,-6.089 3.431,-5.825 -1.846,-7.144c-5.278,-1.32 -9.307,-2.605 -9.307,-2.605c0,0 2.534,-0.034 -1.688,-0.914c-4.223,-0.879 -12.702,-1.231 -12.702,-1.231c0,0 -1.982,-0.253 -2.821,0.533c-0.838,0.786 -2.134,-2.07 -3.378,1.689c-1.243,3.759 -4.064,5.769 -5.028,7.623c-0.965,1.854 -4.169,2.105 -1.247,3.474c2.921,1.37 0.737,-0.859 5.524,2.762c4.786,3.622 3.793,0.053 5.301,4.3c1.508,4.248 1.263,4.248 1.649,5.743c0.387,1.496 -0.669,4.31 -0.757,6.422c-0.088,2.111 -0.318,7.983 -0.318,7.983c0,0 2.499,-2.053 2.244,-5.062c-0.254,-3.009 -1.993,-2.441 -0.068,-6.243c1.925,-3.803 2.696,-4.019 1.827,-6.022c-0.87,-2.004 -1.88,-2.881 -2.255,-3.982c-0.374,-1.1 -2.027,-1.1 -0.673,-3.123c1.354,-2.023 -0.77,0.149 1.832,-2.564c2.601,-2.714 0.346,-3.594 3.277,-2.89c2.931,0.704 3.019,0.704 3.019,0.704l0.446,-2.829c0,0 -3.071,-0.717 0,0c3.072,0.718 -0.309,2.115 4.856,2.428c5.165,0.313 5.765,-0.215 7.004,0.313c1.24,0.528 1.29,-0.075 2.584,1.897c1.294,1.973 1.996,2.465 2.525,3.847c0.529,1.381 -0.175,3.756 1.232,2.172c1.408,-1.583 1.947,-5.717 3.876,-5.893c1.93,-0.176 5.297,0.039 7.132,-0.377c1.835,-0.415 3.783,1.195 3.783,1.195c-3.035,-0.508 -9.962,8.106 -6.522,9.473c0.735,0.293 -1.594,8.775 -1.985,10.105c-0.39,1.33 4.852,9.089 4.826,7.805Z" style="fill:#66b36a;"/><clipPath id="_clip12"><path d="M73.1,42.151c-0.026,-1.285 1.481,-2.667 0.595,-5.407c-0.885,-2.739 -2.908,-3.794 -0.797,-5.729c2.111,-1.936 1.182,-2.551 3.186,-3.519c2.003,-0.968 3.147,-1.143 3.499,-2.639c0.352,-1.495 2.075,-1.935 1.609,-3.782c-0.466,-1.847 0.642,-4.222 0,-6.861c-0.642,-2.639 -1.257,-4.486 -1.257,-4.486l-1.222,-1.035c0,0 -0.274,-0.285 -1.681,-0.285c-1.408,0 -0.463,0.486 -2.518,0.815c-2.056,0.329 -0.36,-0.815 -3.539,1.208c-3.179,2.024 -7.489,2.375 -7.489,2.375c0,0 -1.761,5.845 -2.728,-0.244c-0.967,-6.089 3.431,-5.825 -1.846,-7.144c-5.278,-1.32 -9.307,-2.605 -9.307,-2.605c0,0 2.534,-0.034 -1.688,-0.914c-4.223,-0.879 -12.702,-1.231 -12.702,-1.231c0,0 -1.982,-0.253 -2.821,0.533c-0.838,0.786 -2.134,-2.07 -3.378,1.689c-1.243,3.759 -4.064,5.769 -5.028,7.623c-0.965,1.854 -4.169,2.105 -1.247,3.474c2.921,1.37 0.737,-0.859 5.524,2.762c4.786,3.622 3.793,0.053 5.301,4.3c1.508,4.248 1.263,4.248 1.649,5.743c0.387,1.496 -0.669,4.31 -0.757,6.422c-0.088,2.111 -0.318,7.983 -0.318,7.983c0,0 2.499,-2.053 2.244,-5.062c-0.254,-3.009 -1.993,-2.441 -0.068,-6.243c1.925,-3.803 2.696,-4.019 1.827,-6.022c-0.87,-2.004 -1.88,-2.881 -2.255,-3.982c-0.374,-1.1 -2.027,-1.1 -0.673,-3.123c1.354,-2.023 -0.77,0.149 1.832,-2.564c2.601,-2.714 0.346,-3.594 3.277,-2.89c2.931,0.704 3.019,0.704 3.019,0.704l0.446,-2.829c0,0 -3.071,-0.717 0,0c3.072,0.718 -0.309,2.115 4.856,2.428c5.165,0.313 5.765,-0.215 7.004,0.313c1.24,0.528 1.29,-0.075 2.584,1.897c1.294,1.973 1.996,2.465 2.525,3.847c0.529,1.381 -0.175,3.756 1.232,2.172c1.408,-1.583 1.947,-5.717 3.876,-5.893c1.93,-0.176 5.297,0.039 7.132,-0.377c1.835,-0.415 3.783,1.195 3.783,1.195c-3.035,-0.508 -9.962,8.106 -6.522,9.473c0.735,0.293 -1.594,8.775 -1.985,10.105c-0.39,1.33 4.852,9.089 4.826,7.805Z"/></clipPath><g clip-path="url(#_clip12)"><path d="M56.873,-3.067l31.039,5.842l-2.786,37.297l-5.656,4.002l-9.704,-10.474l-2.648,-14.001l-13.255,-0.267l-20.451,-15.334l13.397,-13.736l10.064,6.671Z" style="fill:#c4e783;fill-opacity:0.5;"/></g></g></g></svg>