<?xml version="1.0" encoding="UTF-8" standalone="no"?><!DOCTYPE svg PUBLIC "-//W3C//DTD SVG 1.1//EN" "http://www.w3.org/Graphics/SVG/1.1/DTD/svg11.dtd"><svg width="100%" height="100%" viewBox="0 0 73 85" version="1.1" xmlns="http://www.w3.org/2000/svg" xmlns:xlink="http://www.w3.org/1999/xlink" xml:space="preserve" xmlns:serif="http://www.serif.com/" style="fill-rule:evenodd;clip-rule:evenodd;stroke-linejoin:round;stroke-miterlimit:1.41421;"><g id="X_Runestone_runes_2"><g><g><path d="M51.594,0.088l20.434,5.109l-20.434,5.108l-20.435,-10.217l20.435,0Z" style="fill:#9da8c9;"/><clipPath id="_clip1"><path d="M51.594,0.088l20.434,5.109l-20.434,5.108l-20.435,-10.217l20.435,0Z"/></clipPath><g clip-path="url(#_clip1)"><path d="M72.101,70.236l-8.122,-11.264l8.122,-14.279l-8.689,5.873l-1.528,-10.981l-5.108,-2.554l1.599,5.908l0.901,8.167l-7.609,3.804l-1.669,-4.274l-3.439,5.298l0,6.639l8.106,-1.055l7.219,6.73l-10.217,12.205l-15.325,-2.554l-10.217,-5.109l-1.553,5.885l1.553,-0.776l7.89,3.945l-38.541,1.163l0,-20.434l18.658,5.997l-18.658,-16.214l0,-15.325l7.231,8.724l10.173,-7.209l-14.22,-18.433l9.123,-17.797l3.018,13.21l5.109,6.179l10.217,-3.292l0,-6.925l-2.676,6.446l-7.541,-1.338l10.217,-11.653l6.839,-10.47l13.595,10.278l10.217,1.628l-5.109,-2.554l-3.673,-8.38l24.107,5.842l-5.108,10.201l3.652,3.283l-6.602,15.676l11.808,-2.954l3.085,-40.685l-80.272,5.841l-16.808,107.384l98.739,-15.333l-8.494,-14.464Z" style="fill:#303880;fill-opacity:0.7;"/><path d="M72.028,5.197l-18.482,6.899l-1.278,3.655l-0.674,5.442l-9.596,1.807l0.581,-4.775l-16.528,14.129l-5.109,1.549l2.54,16.645l4.645,15.225l-5.302,-0.216l1.044,11.184l2.182,7.638l-6.117,-5.767l-19.426,-12.113l18.167,6.242l-0.628,-9.903l-17.539,-10.032l0,-1.633l7.619,2.278l13.807,5.032l-4.452,-7.484l-4.129,-1.871l2.481,-0.509l-15.326,-7.663l15.326,4.689l-1.191,-14.839l-14.135,-15.392l20.434,12.102l12.282,-9.613l4.129,-2.323l-16.411,-10.383l26.547,13.273l-1.004,-5.611l0.61,-2.117l-15.936,-10.654l20.435,7.815l7.307,-2.387l13.127,-0.319Z" style="fill:#cadaf3;fill-opacity:0.9;"/></g><path d="M20.942,5.197l-5.108,7.662l-15.326,2.555l17.853,14.034l6.39,1.254l11.517,-12.734l5.108,-2.554l-20.434,-10.217" style="fill:#9da8c9;"/><clipPath id="_clip2"><path d="M20.942,5.197l-5.108,7.662l-15.326,2.555l17.853,14.034l6.39,1.254l11.517,-12.734l5.108,-2.554l-20.434,-10.217"/></clipPath><g clip-path="url(#_clip2)"><path d="M72.101,70.236l-8.122,-11.264l8.122,-14.279l-8.689,5.873l-1.528,-10.981l-5.108,-2.554l1.599,5.908l0.901,8.167l-7.609,3.804l-1.669,-4.274l-3.439,5.298l0,6.639l8.106,-1.055l7.219,6.73l-10.217,12.205l-15.325,-2.554l-10.217,-5.109l-1.553,5.885l1.553,-0.776l7.89,3.945l-38.541,1.163l0,-20.434l18.658,5.997l-18.658,-16.214l0,-15.325l7.231,8.724l10.173,-7.209l-14.22,-18.433l9.123,-17.797l3.018,13.21l5.109,6.179l10.217,-3.292l0,-6.925l-2.676,6.446l-7.541,-1.338l10.217,-11.653l6.839,-10.47l13.595,10.278l10.217,1.628l-5.109,-2.554l-3.673,-8.38l24.107,5.842l-5.108,10.201l3.652,3.283l-6.602,15.676l11.808,-2.954l3.085,-40.685l-80.272,5.841l-16.808,107.384l98.739,-15.333l-8.494,-14.464Z" style="fill:#303880;fill-opacity:0.7;"/><path d="M72.028,5.197l-18.482,6.899l-1.278,3.655l-0.674,5.442l-9.596,1.807l0.581,-4.775l-16.528,14.129l-5.109,1.549l2.54,16.645l4.645,15.225l-5.302,-0.216l1.044,11.184l2.182,7.638l-6.117,-5.767l-19.426,-12.113l18.167,6.242l-0.628,-9.903l-17.539,-10.032l0,-1.633l7.619,2.278l13.807,5.032l-4.452,-7.484l-4.129,-1.871l2.481,-0.509l-15.326,-7.663l15.326,4.689l-1.191,-14.839l-14.135,-15.392l20.434,12.102l12.282,-9.613l4.129,-2.323l-16.411,-10.383l26.547,13.273l-1.004,-5.611l0.61,-2.117l-15.936,-10.654l20.435,7.815l7.307,-2.387l13.127,-0.319Z" style="fill:#cadaf3;fill-opacity:0.9;"/></g><path d="M72.028,5.197l-20.434,5.108l-5.109,7.663l-5.109,-2.554l-5.108,2.554l-11.468,12.686l-6.441,-1.207l2.583,21.726l5.109,12.772l-5.109,-2.555l0,15.326l5.109,7.663l15.325,-7.663l0,-5.109l5.109,-2.554l5.109,2.554l17.455,-8.728l1.111,-22.857l1.868,-9.283l-5.109,2.554l5.109,-12.771l0,-15.325Z" style="fill:#bac1d8;"/><clipPath id="_clip3"><path d="M72.028,5.197l-20.434,5.108l-5.109,7.663l-5.109,-2.554l-5.108,2.554l-11.468,12.686l-6.441,-1.207l2.583,21.726l5.109,12.772l-5.109,-2.555l0,15.326l5.109,7.663l15.325,-7.663l0,-5.109l5.109,-2.554l5.109,2.554l17.455,-8.728l1.111,-22.857l1.868,-9.283l-5.109,2.554l5.109,-12.771l0,-15.325Z"/></clipPath><g clip-path="url(#_clip3)"><path d="M72.101,70.236l-8.122,-11.264l8.122,-14.279l-8.689,5.873l-1.528,-10.981l-5.108,-2.554l1.599,5.908l0.901,8.167l-7.609,3.804l-1.669,-4.274l-3.439,5.298l0,6.639l8.106,-1.055l7.219,6.73l-10.217,12.205l-15.325,-2.554l-10.217,-5.109l-1.553,5.885l1.553,-0.776l7.89,3.945l-38.541,1.163l0,-20.434l18.658,5.997l-18.658,-16.214l0,-15.325l7.231,8.724l10.173,-7.209l-14.22,-18.433l9.123,-17.797l3.018,13.21l5.109,6.179l10.217,-3.292l0,-6.925l-2.676,6.446l-7.541,-1.338l10.217,-11.653l6.839,-10.47l13.595,10.278l10.217,1.628l-5.109,-2.554l-3.673,-8.38l24.107,5.842l-5.108,10.201l3.652,3.283l-6.602,15.676l11.808,-2.954l3.085,-40.685l-80.272,5.841l-16.808,107.384l98.739,-15.333l-8.494,-14.464Z" style="fill:#303880;fill-opacity:0.7;"/><path d="M72.028,5.197l-18.482,6.899l-1.278,3.655l-0.674,5.442l-9.596,1.807l0.581,-4.775l-16.528,14.129l-5.109,1.549l2.54,16.645l4.645,15.225l-5.302,-0.216l1.044,11.184l2.182,7.638l-6.117,-5.767l-19.426,-12.113l18.167,6.242l-0.628,-9.903l-17.539,-10.032l0,-1.633l7.619,2.278l13.807,5.032l-4.452,-7.484l-4.129,-1.871l2.481,-0.509l-15.326,-7.663l15.326,4.689l-1.191,-14.839l-14.135,-15.392l20.434,12.102l12.282,-9.613l4.129,-2.323l-16.411,-10.383l26.547,13.273l-1.004,-5.611l0.61,-2.117l-15.936,-10.654l20.435,7.815l7.307,-2.387l13.127,-0.319Z" style="fill:#cadaf3;fill-opacity:0.9;"/></g><path d="M0.508,15.414l17.853,14.034l2.581,21.725l-20.434,-10.217l1.887,-9.273l-1.887,-16.269Z" style="fill:#6c7157;"/><clipPath id="_clip4"><path d="M0.508,15.414l17.853,14.034l2.581,21.725l-20.434,-10.217l1.887,-9.273l-1.887,-16.269Z"/></clipPath><g clip-path="url(#_clip4)"><path d="M72.101,70.236l-8.122,-11.264l8.122,-14.279l-8.689,5.873l-1.528,-10.981l-5.108,-2.554l1.599,5.908l0.901,8.167l-7.609,3.804l-1.669,-4.274l-3.439,5.298l0,6.639l8.106,-1.055l7.219,6.73l-10.217,12.205l-15.325,-2.554l-10.217,-5.109l-1.553,5.885l1.553,-0.776l7.89,3.945l-38.541,1.163l0,-20.434l18.658,5.997l-18.658,-16.214l0,-15.325l7.231,8.724l10.173,-7.209l-14.22,-18.433l9.123,-17.797l3.018,13.21l5.109,6.179l10.217,-3.292l0,-6.925l-2.676,6.446l-7.541,-1.338l10.217,-11.653l6.839,-10.47l13.595,10.278l10.217,1.628l-5.109,-2.554l-3.673,-8.38l24.107,5.842l-5.108,10.201l3.652,3.283l-6.602,15.676l11.808,-2.954l3.085,-40.685l-80.272,5.841l-16.808,107.384l98.739,-15.333l-8.494,-14.464Z" style="fill:#303880;fill-opacity:0.7;"/><path d="M72.028,5.197l-18.482,6.899l-1.278,3.655l-0.674,5.442l-9.596,1.807l0.581,-4.775l-16.528,14.129l-5.109,1.549l2.54,16.645l4.645,15.225l-5.302,-0.216l1.044,11.184l2.182,7.638l-6.117,-5.767l-19.426,-12.113l18.167,6.242l-0.628,-9.903l-17.539,-10.032l0,-1.633l7.619,2.278l13.807,5.032l-4.452,-7.484l-4.129,-1.871l2.481,-0.509l-15.326,-7.663l15.326,4.689l-1.191,-14.839l-14.135,-15.392l20.434,12.102l12.282,-9.613l4.129,-2.323l-16.411,-10.383l26.547,13.273l-1.004,-5.611l0.61,-2.117l-15.936,-10.654l20.435,7.815l7.307,-2.387l13.127,-0.319Z" style="fill:#cadaf3;fill-opacity:0.4;"/></g><path d="M26.051,84.379l-20.434,-10.217l-5.109,-7.663l0,-15.326l20.434,10.217l0,15.326l5.109,7.663Z" style="fill:#6c7157;"/><clipPath id="_clip5"><path d="M26.051,84.379l-20.434,-10.217l-5.109,-7.663l0,-15.326l20.434,10.217l0,15.326l5.109,7.663Z"/></clipPath><g clip-path="url(#_clip5)"><path d="M72.101,70.236l-8.122,-11.264l8.122,-14.279l-8.689,5.873l-1.528,-10.981l-5.108,-2.554l1.599,5.908l0.901,8.167l-7.609,3.804l-1.669,-4.274l-3.439,5.298l0,6.639l8.106,-1.055l7.219,6.73l-10.217,12.205l-15.325,-2.554l-10.217,-5.109l-1.553,5.885l1.553,-0.776l7.89,3.945l-38.541,1.163l0,-20.434l18.658,5.997l-18.658,-16.214l0,-15.325l7.231,8.724l10.173,-7.209l-14.22,-18.433l9.123,-17.797l3.018,13.21l5.109,6.179l10.217,-3.292l0,-6.925l-2.676,6.446l-7.541,-1.338l10.217,-11.653l6.839,-10.47l13.595,10.278l10.217,1.628l-5.109,-2.554l-3.673,-8.38l24.107,5.842l-5.108,10.201l3.652,3.283l-6.602,15.676l11.808,-2.954l3.085,-40.685l-80.272,5.841l-16.808,107.384l98.739,-15.333l-8.494,-14.464Z" style="fill:#303880;fill-opacity:0.7;"/><path d="M72.028,5.197l-18.482,6.899l-1.278,3.655l-0.674,5.442l-9.596,1.807l0.581,-4.775l-16.528,14.129l-5.109,1.549l2.54,16.645l4.645,15.225l-5.302,-0.216l1.044,11.184l2.182,7.638l-6.117,-5.767l-19.426,-12.113l18.167,6.242l-0.628,-9.903l-17.539,-10.032l0,-1.633l7.619,2.278l13.807,5.032l-4.452,-7.484l-4.129,-1.871l2.481,-0.509l-15.326,-7.663l15.326,4.689l-1.191,-14.839l-14.135,-15.392l20.434,12.102l12.282,-9.613l4.129,-2.323l-16.411,-10.383l26.547,13.273l-1.004,-5.611l0.61,-2.117l-15.936,-10.654l20.435,7.815l7.307,-2.387l13.127,-0.319Z" style="fill:#cadaf3;fill-opacity:0.4;"/></g><path d="M0.508,40.956l15.326,7.663l-15.326,2.554l25.543,12.772l-5.109,-12.772l-20.434,-10.217Z" style="fill:#393f53;"/><clipPath id="_clip6"><path d="M0.508,40.956l15.326,7.663l-15.326,2.554l25.543,12.772l-5.109,-12.772l-20.434,-10.217Z"/></clipPath><g clip-path="url(#_clip6)"><path d="M72.028,5.197l-18.482,6.899l-1.278,3.655l-0.674,5.442l-9.596,1.807l0.581,-4.775l-16.528,14.129l-5.109,1.549l2.54,16.645l4.645,15.225l-5.302,-0.216l1.044,11.184l2.182,7.638l-6.117,-5.767l-19.426,-12.113l18.167,6.242l-0.628,-9.903l-17.539,-10.032l0,-1.633l7.619,2.278l13.807,5.032l-4.452,-7.484l-4.129,-1.871l2.481,-0.509l-15.326,-7.663l15.326,4.689l-1.191,-14.839l-14.135,-15.392l20.434,12.102l12.282,-9.613l4.129,-2.323l-16.411,-10.383l26.547,13.273l-1.004,-5.611l0.61,-2.117l-15.936,-10.654l20.435,7.815l7.307,-2.387l13.127,-0.319Z" style="fill:#cadaf3;fill-opacity:0.4;"/></g><path d="M0.508,66.499l20.434,10.217l5.109,7.663l-20.434,-10.217l-5.109,-7.663Z" style="fill:#393f53;"/><clipPath id="_clip7"><path d="M0.508,66.499l20.434,10.217l5.109,7.663l-20.434,-10.217l-5.109,-7.663Z"/></clipPath><g clip-path="url(#_clip7)"><path d="M72.028,5.197l-18.482,6.899l-1.278,3.655l-0.674,5.442l-9.596,1.807l0.581,-4.775l-16.528,14.129l-5.109,1.549l2.54,16.645l4.645,15.225l-5.302,-0.216l1.044,11.184l2.182,7.638l-6.117,-5.767l-19.426,-12.113l18.167,6.242l-0.628,-9.903l-17.539,-10.032l0,-1.633l7.619,2.278l13.807,5.032l-4.452,-7.484l-4.129,-1.871l2.481,-0.509l-15.326,-7.663l15.326,4.689l-1.191,-14.839l-14.135,-15.392l20.434,12.102l12.282,-9.613l4.129,-2.323l-16.411,-10.383l26.547,13.273l-1.004,-5.611l0.61,-2.117l-15.936,-10.654l20.435,7.815l7.307,-2.387l13.127,-0.319Z" style="fill:#cadaf3;fill-opacity:0.9;"/></g><path d="M31.159,0.088l-5.108,7.663l20.434,10.217l-2.438,3.889l5.527,-2.345l-0.436,-5.326l2.456,-3.881l-20.435,-10.217Z" style="fill:#6c7157;"/><clipPath id="_clip8"><path d="M31.159,0.088l-5.108,7.663l20.434,10.217l-2.438,3.889l5.527,-2.345l-0.436,-5.326l2.456,-3.881l-20.435,-10.217Z"/></clipPath><g clip-path="url(#_clip8)"><path d="M72.028,5.197l-18.482,6.899l-1.278,3.655l-0.674,5.442l-9.596,1.807l0.581,-4.775l-16.528,14.129l-5.109,1.549l2.54,16.645l4.645,15.225l-5.302,-0.216l1.044,11.184l2.182,7.638l-6.117,-5.767l-19.426,-12.113l18.167,6.242l-0.628,-9.903l-17.539,-10.032l0,-1.633l7.619,2.278l13.807,5.032l-4.452,-7.484l-4.129,-1.871l2.481,-0.509l-15.326,-7.663l15.326,4.689l-1.191,-14.839l-14.135,-15.392l20.434,12.102l12.282,-9.613l4.129,-2.323l-16.411,-10.383l26.547,13.273l-1.004,-5.611l0.61,-2.117l-15.936,-10.654l20.435,7.815l7.307,-2.387l13.127,-0.319Z" style="fill:#cadaf3;fill-opacity:0.9;"/></g></g></g><g><path d="M51.471,46.812l9.947,12.458l-4.347,-1.274l-12.119,-9.902l6.519,-1.282Z" style="fill:#393f53;"/><path d="M43.383,48.453l13.868,-15.941l6.083,-0.138l-10.989,15.699l-8.962,0.38Z" style="fill:#393f53;"/><path d="M43.418,26.405l1.65,-1.732l18.273,7.657l-7.559,0.788l-12.364,-6.713Z" style="fill:#393f53;"/><path d="M46.611,54.467l-3.645,-2.965l-8.162,10.911l5.19,3.011l6.617,-10.957Z" style="fill:#393f53;"/><path d="M30.366,66.332l6.159,-2.81l3.312,1.937l-4.812,2.65l-4.659,-1.777Z" style="fill:none;"/><path d="M52.908,60.01l4.002,1.649l4.535,-2.321l-4.159,-1.166l-4.378,1.838Z" style="fill:none;"/><path d="M43.386,51.934l9.524,8.067l4.57,-1.934l-9.696,-9.81l10.371,-15.392l-14.789,-6.374l-12.277,15.811l7.562,6.49l-8.294,17.514l6.297,-2.837l6.732,-11.535Z" style="fill:#78fff8;"/><g><path d="M45.27,32.924l6.423,3.896l-4.689,7.106l-6.669,-4.761l4.935,-6.241Z" style="fill:#cadaf3;"/><path d="M45.288,32.914l-3.553,0.145l-5.289,6.241l4.006,-0.218l4.836,-6.168Z" style="fill:#6c7157;"/><path d="M36.469,39.311l3.881,-0.156l6.576,4.768l-4.524,-0.078l-5.933,-4.534Z" style="fill:#393f53;"/></g></g></g></svg>