<?xml version="1.0" encoding="UTF-8" standalone="no"?><!DOCTYPE svg PUBLIC "-//W3C//DTD SVG 1.1//EN" "http://www.w3.org/Graphics/SVG/1.1/DTD/svg11.dtd"><svg width="100%" height="100%" viewBox="0 0 55 76" version="1.1" xmlns="http://www.w3.org/2000/svg" xmlns:xlink="http://www.w3.org/1999/xlink" xml:space="preserve" xmlns:serif="http://www.serif.com/" style="fill-rule:evenodd;clip-rule:evenodd;stroke-linejoin:round;stroke-miterlimit:1.41421;"><g id="crystal21"><path d="M48.748,14.091l5.366,13.417l-16.099,24.149l5.366,-24.149l5.367,-13.417Z" style="fill:#f0b38a;"/><path d="M48.748,35.558l5.366,8.05l-5.366,13.416l-10.733,-5.367l10.733,-16.099Z" style="fill:#ed8150;"/><path d="M48.748,57.024l-5.367,13.416l-10.733,5.367l-5.367,-2.683l10.734,-21.467l10.733,5.367Z" style="fill:#8d323a;"/><path d="M32.648,0.675l-10.733,0l-10.733,10.733l16.099,8.05l5.367,-8.05l0,-10.733Z" style="fill:#f0b38a;"/><path d="M32.648,11.408l10.733,16.1l-16.1,8.05l0,-16.1l5.367,-8.05" style="fill:#f0b38a;"/><path d="M43.381,27.508l-5.366,24.149l-10.734,0l-10.733,-10.733l10.733,-5.366l16.1,-8.05" style="fill:#fe663b;"/><path d="M11.182,11.408l16.099,8.05l-16.099,13.416l-10.733,0l10.733,-21.466" style="fill:#ed8150;"/><path d="M27.281,19.458l-16.099,13.416l5.366,8.05l10.733,-5.366l0,-16.1" style="fill:#fe663b;"/><path d="M0.449,32.874l5.366,24.15l10.733,-16.1l-5.366,-8.05l-10.733,0Z" style="fill:#8d323a;"/><path d="M16.548,40.924l0,16.1l-5.366,13.416l-5.367,-13.416l10.733,-16.1Z" style="fill:#fe663b;"/><path d="M11.182,70.44l16.099,2.684l0,-10.733l-10.733,-5.367l-5.366,13.416" style="fill:#8d323a;"/><path d="M27.281,51.657l10.734,0l5.366,2.684l-16.1,18.783l0,-21.467Z" style="fill:#ed8150;"/><path d="M16.548,40.924l10.733,10.733l0,10.734l-10.733,-5.367l0,-16.1Z" style="fill:#f0b38a;"/><path d="M32.648,0.675l16.1,13.416l-5.367,13.417l-10.733,-16.1l0,-10.733Z" style="fill:#ffdace;"/></g></svg>