<?xml version="1.0" encoding="UTF-8" standalone="no"?><!DOCTYPE svg PUBLIC "-//W3C//DTD SVG 1.1//EN" "http://www.w3.org/Graphics/SVG/1.1/DTD/svg11.dtd"><svg width="100%" height="100%" viewBox="0 0 55 60" version="1.1" xmlns="http://www.w3.org/2000/svg" xmlns:xlink="http://www.w3.org/1999/xlink" xml:space="preserve" xmlns:serif="http://www.serif.com/" style="fill-rule:evenodd;clip-rule:evenodd;stroke-linejoin:round;stroke-miterlimit:1.41421;"><g id="crystal08"><path d="M16.929,16.897l-5.366,8.05l16.1,8.05l-10.734,-16.1Z" style="fill:#8d323a;"/><path d="M38.396,0.798l5.366,8.049l-16.099,-8.049l10.733,0" style="fill:#f0b38a;"/><path d="M43.762,8.847l-16.099,8.05l0,-16.099l16.099,8.049Z" style="fill:#f0b38a;"/><path d="M16.929,16.897l10.734,-0.293l0,-15.806l-10.734,16.099Z" style="fill:#ed8150;"/><path d="M27.663,0.798l-10.734,5.366l0,10.733l10.734,-16.099Z" style="fill:#fe663b;"/><path d="M43.762,8.847l0,5.367l-5.366,2.683l-10.733,0l16.099,-8.05Z" style="fill:#ffdace;"/><path d="M16.929,16.897l10.734,16.1l0,-16.1l-10.734,0Z" style="fill:#fe663b;"/><path d="M16.929,6.164l-5.366,18.783l5.366,-8.05l0,-10.733" style="fill:#8d323a;"/><path d="M43.762,14.214l5.367,18.783l-10.733,-16.1l5.366,-2.683" style="fill:#ffdace;"/><path d="M27.663,32.997l21.466,0l-10.733,-16.1l-10.733,16.1" style="fill:#f0b38a;"/><path d="M27.663,16.897l10.733,0l-10.733,16.1l0,-16.1Z" style="fill:#ffdace;"/><path d="M49.129,32.997l-5.367,24.149l-16.099,-24.149l21.466,0Z" style="fill:#ed8150;"/><path d="M49.129,32.997l5.366,13.416l-10.733,10.733l5.367,-24.149Z" style="fill:#f0b38a;"/><path d="M27.663,32.997l-10.734,26.833l26.833,-2.684l-16.099,-24.149" style="fill:#fe663b;"/><path d="M11.563,24.947l-5.367,8.05l10.733,5.366l10.734,-5.366l-16.1,-8.05Z" style="fill:#fe663b;"/><path d="M16.929,38.363l0,21.467l-16.099,-13.417l5.366,-13.416l10.733,5.366Z" style="fill:#8d323a;"/><path d="M27.663,32.997l-10.734,26.833l0,-21.467l10.734,-5.366Z" style="fill:#f0b38a;"/></g></svg>