<?xml version="1.0" encoding="UTF-8" standalone="no"?><!DOCTYPE svg PUBLIC "-//W3C//DTD SVG 1.1//EN" "http://www.w3.org/Graphics/SVG/1.1/DTD/svg11.dtd"><svg width="100%" height="100%" viewBox="0 0 72 86" version="1.1" xmlns="http://www.w3.org/2000/svg" xmlns:xlink="http://www.w3.org/1999/xlink" xml:space="preserve" xmlns:serif="http://www.serif.com/" style="fill-rule:evenodd;clip-rule:evenodd;stroke-linejoin:round;stroke-miterlimit:1.41421;"><g id="F_Runestone_2"><g><g><path d="M51.25,0.737l20.434,5.109l-20.434,5.108l-20.434,-10.217l20.434,0Z" style="fill:#9da8c9;"/><clipPath id="_clip1"><path d="M51.25,0.737l20.434,5.109l-20.434,5.108l-20.434,-10.217l20.434,0Z"/></clipPath><g clip-path="url(#_clip1)"><path d="M71.684,5.846l-18.481,6.9l-1.279,3.654l-0.674,5.442l-9.596,1.807l0.581,-4.774l-16.528,14.129l-5.108,1.548l2.539,16.645l4.645,15.226l-5.301,-0.216l1.043,11.183l2.182,7.638l-6.117,-5.767l-19.425,-12.113l18.167,6.242l-0.629,-9.902l-17.538,-10.033l0,-1.632l7.619,2.277l13.806,5.033l-4.452,-7.484l-4.129,-1.871l2.481,-0.51l-15.325,-7.662l15.325,4.688l-1.19,-14.839l-14.135,-15.392l20.434,12.102l12.281,-9.613l4.129,-2.322l-16.41,-10.384l26.546,13.273l-1.004,-5.61l0.61,-2.118l-15.935,-10.654l20.434,7.815l7.307,-2.387l13.127,-0.319Z" style="fill:#f6d7d0;fill-opacity:0.9;"/></g><path d="M20.599,5.846l-5.109,7.663l-15.325,2.554l17.852,14.035l6.39,1.254l11.517,-12.735l5.109,-2.554l-20.434,-10.217" style="fill:#9da8c9;"/><clipPath id="_clip2"><path d="M20.599,5.846l-5.109,7.663l-15.325,2.554l17.852,14.035l6.39,1.254l11.517,-12.735l5.109,-2.554l-20.434,-10.217"/></clipPath><g clip-path="url(#_clip2)"><path d="M71.684,5.846l-18.481,6.9l-1.279,3.654l-0.674,5.442l-9.596,1.807l0.581,-4.774l-16.528,14.129l-5.108,1.548l2.539,16.645l4.645,15.226l-5.301,-0.216l1.043,11.183l2.182,7.638l-6.117,-5.767l-19.425,-12.113l18.167,6.242l-0.629,-9.902l-17.538,-10.033l0,-1.632l7.619,2.277l13.806,5.033l-4.452,-7.484l-4.129,-1.871l2.481,-0.51l-15.325,-7.662l15.325,4.688l-1.19,-14.839l-14.135,-15.392l20.434,12.102l12.281,-9.613l4.129,-2.322l-16.41,-10.384l26.546,13.273l-1.004,-5.61l0.61,-2.118l-15.935,-10.654l20.434,7.815l7.307,-2.387l13.127,-0.319Z" style="fill:#f6d7d0;fill-opacity:0.9;"/></g><path d="M71.684,5.846l-20.434,5.108l-5.109,7.663l-5.108,-2.554l-5.109,2.554l-11.468,12.687l-6.441,-1.207l2.584,21.726l5.108,12.771l-5.108,-2.554l0,15.325l5.108,7.663l15.326,-7.663l0,-5.108l5.108,-2.555l5.109,2.555l17.456,-8.728l1.11,-22.857l1.868,-9.283l-5.109,2.554l5.109,-12.772l0,-15.325Z" style="fill:#bac1d8;"/><clipPath id="_clip3"><path d="M71.684,5.846l-20.434,5.108l-5.109,7.663l-5.108,-2.554l-5.109,2.554l-11.468,12.687l-6.441,-1.207l2.584,21.726l5.108,12.771l-5.108,-2.554l0,15.325l5.108,7.663l15.326,-7.663l0,-5.108l5.108,-2.555l5.109,2.555l17.456,-8.728l1.11,-22.857l1.868,-9.283l-5.109,2.554l5.109,-12.772l0,-15.325Z"/></clipPath><g clip-path="url(#_clip3)"><path d="M71.684,5.846l-18.481,6.9l-1.279,3.654l-0.674,5.442l-9.596,1.807l0.581,-4.774l-16.528,14.129l-5.108,1.548l2.539,16.645l4.645,15.226l-5.301,-0.216l1.043,11.183l2.182,7.638l-6.117,-5.767l-19.425,-12.113l18.167,6.242l-0.629,-9.902l-17.538,-10.033l0,-1.632l7.619,2.277l13.806,5.033l-4.452,-7.484l-4.129,-1.871l2.481,-0.51l-15.325,-7.662l15.325,4.688l-1.19,-14.839l-14.135,-15.392l20.434,12.102l12.281,-9.613l4.129,-2.322l-16.41,-10.384l26.546,13.273l-1.004,-5.61l0.61,-2.118l-15.935,-10.654l20.434,7.815l7.307,-2.387l13.127,-0.319Z" style="fill:#f6d7d0;fill-opacity:0.9;"/></g><path d="M0.165,16.063l17.852,14.035l2.582,21.725l-20.434,-10.217l1.887,-9.274l-1.887,-16.269Z" style="fill:#6c7157;"/><clipPath id="_clip4"><path d="M0.165,16.063l17.852,14.035l2.582,21.725l-20.434,-10.217l1.887,-9.274l-1.887,-16.269Z"/></clipPath><g clip-path="url(#_clip4)"><path d="M71.684,5.846l-18.481,6.9l-1.279,3.654l-0.674,5.442l-9.596,1.807l0.581,-4.774l-16.528,14.129l-5.108,1.548l2.539,16.645l4.645,15.226l-5.301,-0.216l1.043,11.183l2.182,7.638l-6.117,-5.767l-19.425,-12.113l18.167,6.242l-0.629,-9.902l-17.538,-10.033l0,-1.632l7.619,2.277l13.806,5.033l-4.452,-7.484l-4.129,-1.871l2.481,-0.51l-15.325,-7.662l15.325,4.688l-1.19,-14.839l-14.135,-15.392l20.434,12.102l12.281,-9.613l4.129,-2.322l-16.41,-10.384l26.546,13.273l-1.004,-5.61l0.61,-2.118l-15.935,-10.654l20.434,7.815l7.307,-2.387l13.127,-0.319Z" style="fill:#f6d7d0;fill-opacity:0.4;"/></g><path d="M25.707,85.028l-20.434,-10.217l-5.108,-7.663l0,-15.325l20.434,10.217l0,15.325l5.108,7.663Z" style="fill:#6c7157;"/><clipPath id="_clip5"><path d="M25.707,85.028l-20.434,-10.217l-5.108,-7.663l0,-15.325l20.434,10.217l0,15.325l5.108,7.663Z"/></clipPath><g clip-path="url(#_clip5)"><path d="M71.684,5.846l-18.481,6.9l-1.279,3.654l-0.674,5.442l-9.596,1.807l0.581,-4.774l-16.528,14.129l-5.108,1.548l2.539,16.645l4.645,15.226l-5.301,-0.216l1.043,11.183l2.182,7.638l-6.117,-5.767l-19.425,-12.113l18.167,6.242l-0.629,-9.902l-17.538,-10.033l0,-1.632l7.619,2.277l13.806,5.033l-4.452,-7.484l-4.129,-1.871l2.481,-0.51l-15.325,-7.662l15.325,4.688l-1.19,-14.839l-14.135,-15.392l20.434,12.102l12.281,-9.613l4.129,-2.322l-16.41,-10.384l26.546,13.273l-1.004,-5.61l0.61,-2.118l-15.935,-10.654l20.434,7.815l7.307,-2.387l13.127,-0.319Z" style="fill:#f6d7d0;fill-opacity:0.4;"/></g><path d="M0.165,41.606l15.325,7.662l-15.325,2.555l25.542,12.771l-5.108,-12.771l-20.434,-10.217Z" style="fill:#574052;"/><clipPath id="_clip6"><path d="M0.165,41.606l15.325,7.662l-15.325,2.555l25.542,12.771l-5.108,-12.771l-20.434,-10.217Z"/></clipPath><g clip-path="url(#_clip6)"><path d="M71.684,5.846l-18.481,6.9l-1.279,3.654l-0.674,5.442l-9.596,1.807l0.581,-4.774l-16.528,14.129l-5.108,1.548l2.539,16.645l4.645,15.226l-5.301,-0.216l1.043,11.183l2.182,7.638l-6.117,-5.767l-19.425,-12.113l18.167,6.242l-0.629,-9.902l-17.538,-10.033l0,-1.632l7.619,2.277l13.806,5.033l-4.452,-7.484l-4.129,-1.871l2.481,-0.51l-15.325,-7.662l15.325,4.688l-1.19,-14.839l-14.135,-15.392l20.434,12.102l12.281,-9.613l4.129,-2.322l-16.41,-10.384l26.546,13.273l-1.004,-5.61l0.61,-2.118l-15.935,-10.654l20.434,7.815l7.307,-2.387l13.127,-0.319Z" style="fill:#f6d7d0;fill-opacity:0.4;"/></g><path d="M0.165,67.148l20.434,10.217l5.108,7.663l-20.434,-10.217l-5.108,-7.663Z" style="fill:#574052;"/><clipPath id="_clip7"><path d="M0.165,67.148l20.434,10.217l5.108,7.663l-20.434,-10.217l-5.108,-7.663Z"/></clipPath><g clip-path="url(#_clip7)"><path d="M71.684,5.846l-18.481,6.9l-1.279,3.654l-0.674,5.442l-9.596,1.807l0.581,-4.774l-16.528,14.129l-5.108,1.548l2.539,16.645l4.645,15.226l-5.301,-0.216l1.043,11.183l2.182,7.638l-6.117,-5.767l-19.425,-12.113l18.167,6.242l-0.629,-9.902l-17.538,-10.033l0,-1.632l7.619,2.277l13.806,5.033l-4.452,-7.484l-4.129,-1.871l2.481,-0.51l-15.325,-7.662l15.325,4.688l-1.19,-14.839l-14.135,-15.392l20.434,12.102l12.281,-9.613l4.129,-2.322l-16.41,-10.384l26.546,13.273l-1.004,-5.61l0.61,-2.118l-15.935,-10.654l20.434,7.815l7.307,-2.387l13.127,-0.319Z" style="fill:#f6d7d0;fill-opacity:0.9;"/></g><path d="M30.816,0.737l-5.109,7.663l20.434,10.217l-2.438,3.89l5.527,-2.345l-0.435,-5.327l2.455,-3.881l-20.434,-10.217Z" style="fill:#6c7157;"/><clipPath id="_clip8"><path d="M30.816,0.737l-5.109,7.663l20.434,10.217l-2.438,3.89l5.527,-2.345l-0.435,-5.327l2.455,-3.881l-20.434,-10.217Z"/></clipPath><g clip-path="url(#_clip8)"><path d="M71.684,5.846l-18.481,6.9l-1.279,3.654l-0.674,5.442l-9.596,1.807l0.581,-4.774l-16.528,14.129l-5.108,1.548l2.539,16.645l4.645,15.226l-5.301,-0.216l1.043,11.183l2.182,7.638l-6.117,-5.767l-19.425,-12.113l18.167,6.242l-0.629,-9.902l-17.538,-10.033l0,-1.632l7.619,2.277l13.806,5.033l-4.452,-7.484l-4.129,-1.871l2.481,-0.51l-15.325,-7.662l15.325,4.688l-1.19,-14.839l-14.135,-15.392l20.434,12.102l12.281,-9.613l4.129,-2.322l-16.41,-10.384l26.546,13.273l-1.004,-5.61l0.61,-2.118l-15.935,-10.654l20.434,7.815l7.307,-2.387l13.127,-0.319Z" style="fill:#f6d7d0;fill-opacity:0.9;"/></g><g><path d="M30.899,33.968l0,36.821l4.606,-2.31l0.503,-11.192l30.651,-41.23l-6.337,3.075l-25.143,30.617l0.326,-8.886l13.817,-16.134l-6.672,3.346l-7.145,8.513l0,-4.93l-4.606,2.31Z" style="fill:#c3454a;"/><path d="M30.899,70.789l4.606,0.758l4.606,-2.309l-4.606,-0.759l-4.606,2.31Z" style="fill:#f6d7d0;"/><path d="M40.111,69.238l0.223,-13.993l-4.829,-0.018l0,13.252l4.606,0.759Z" style="fill:#6c7157;"/><path d="M35.505,55.105l31.154,-39.021l0,4.759l-26.548,34.376l-4.606,-0.114Z" style="fill:#6c7157;"/><path d="M40.12,39.23l9.16,-10.723l0.214,-3.853l-13.989,16.209l4.615,-1.633Z" style="fill:#6c7157;"/><path d="M35.557,31.627l-0.055,4.972l4.049,-4.8l0.013,-2.182l-4.007,2.01Z" style="fill:#574052;"/><path d="M35.505,40.906l4.562,-1.591l-0.257,4.834l-4.616,5.592l0.311,-8.835Z" style="fill:#6c7157;"/></g></g></g></g></svg>