<?xml version="1.0" encoding="UTF-8" standalone="no"?><!DOCTYPE svg PUBLIC "-//W3C//DTD SVG 1.1//EN" "http://www.w3.org/Graphics/SVG/1.1/DTD/svg11.dtd"><svg width="100%" height="100%" viewBox="0 0 91 106" version="1.1" xmlns="http://www.w3.org/2000/svg" xmlns:xlink="http://www.w3.org/1999/xlink" xml:space="preserve" xmlns:serif="http://www.serif.com/" style="fill-rule:evenodd;clip-rule:evenodd;stroke-linejoin:round;stroke-miterlimit:1.41421;"><g id="F_Runestone_mossy_1"><g id="F_Runestone_grass_runes_1"><g id="F_Runestone_runes_1"><g><g><g><path d="M61.013,1.535l20.434,10.217l-20.434,10.217l-20.434,-10.217l20.434,-10.217Z" style="fill:#9da8c9;"/><clipPath id="_clip1"><path d="M61.013,1.535l20.434,10.217l-20.434,10.217l-20.434,-10.217l20.434,-10.217Z"/></clipPath><g clip-path="url(#_clip1)"><path d="M81.447,11.752l-20.434,7.207l-20.434,-7.207l16.528,11.037l-2.016,4.234l-4.295,0.054l-20.434,-10.217l15.325,9.861l-14.487,7.762l-21.273,-7.406l18.954,12.849l-0.446,18.766l-18.508,-6.072l5.109,2.554l15.326,10.055l2.854,-2.621l-2.854,7.762l-20.435,-7.533l18.753,12.069l1.682,23.691l1.935,-24.575l4.714,-14.51l-4.299,0.676l0.403,-5.141l-1.31,-16.129l18.225,-7.115l8.696,-0.76l5.176,-7.63l17.545,-11.661Z" style="fill:#f6d7d0;fill-opacity:0.9;"/></g><path d="M30.362,16.86l-20.435,10.217l20.435,10.217l20.434,-10.217l-20.434,-10.217" style="fill:#9da8c9;"/><clipPath id="_clip2"><path d="M30.362,16.86l-20.435,10.217l20.435,10.217l20.434,-10.217l-20.434,-10.217"/></clipPath><g clip-path="url(#_clip2)"><path d="M84.078,70.404l-10.72,-7.911l-2.054,-16.353l-2.977,16.814l10.719,12.6l-15.707,10.328l-3.667,-13.492l1.415,-10.924l-5.109,4.654l0,13.225l-13.317,3.559l10.938,2.739l-11.142,12.485l-6.913,-10.65l-5.109,-3.656l-18.08,9.472l15.264,0.231l12.413,0.867l-4.488,7.709l-30.651,0.962l-2.388,-27.632l7.496,6.469l6.793,1.712l3.424,-1.712l-7.428,-3.714l-4.456,-12.446l-0.849,-23.451l12.733,8.96l1.983,4.117l1.42,-5.819l-3.403,-3.407l-11.817,-14.526l4.261,-17.455l17.773,16.655l-5.108,-17.879l11.544,-5.773l8.89,-4.444l7.848,9.032l4.366,5.294l3.112,-1.555l5.108,-4.978l-5.108,-3.078l0,2.947l-5.109,-2.554l2.564,-3.826l12.762,4.01l7.676,1.1l7.649,10.83l-1.66,12.598l1.66,31.482l7.734,-67.653l-72.438,-2.165l-40.256,53.097l18.115,65.252l76.628,-0.636l7.666,-41.511" style="fill:#8d323a;fill-opacity:0.7;"/><path d="M81.447,11.752l-20.434,7.207l-20.434,-7.207l16.528,11.037l-2.016,4.234l-4.295,0.054l-20.434,-10.217l15.325,9.861l-14.487,7.762l-21.273,-7.406l18.954,12.849l-0.446,18.766l-18.508,-6.072l5.109,2.554l15.326,10.055l2.854,-2.621l-2.854,7.762l-20.435,-7.533l18.753,12.069l1.682,23.691l1.935,-24.575l4.714,-14.51l-4.299,0.676l0.403,-5.141l-1.31,-16.129l18.225,-7.115l8.696,-0.76l5.176,-7.63l17.545,-11.661Z" style="fill:#f6d7d0;fill-opacity:0.9;"/></g><path d="M40.579,11.752l-5.109,7.662l20.434,10.218l5.109,-7.663l-20.434,-10.217Z" style="fill:#6c7157;"/><clipPath id="_clip3"><path d="M40.579,11.752l-5.109,7.662l20.434,10.218l5.109,-7.663l-20.434,-10.217Z"/></clipPath><g clip-path="url(#_clip3)"><path d="M84.078,70.404l-10.72,-7.911l-2.054,-16.353l-2.977,16.814l10.719,12.6l-15.707,10.328l-3.667,-13.492l1.415,-10.924l-5.109,4.654l0,13.225l-13.317,3.559l10.938,2.739l-11.142,12.485l-6.913,-10.65l-5.109,-3.656l-18.08,9.472l15.264,0.231l12.413,0.867l-4.488,7.709l-30.651,0.962l-2.388,-27.632l7.496,6.469l6.793,1.712l3.424,-1.712l-7.428,-3.714l-4.456,-12.446l-0.849,-23.451l12.733,8.96l1.983,4.117l1.42,-5.819l-3.403,-3.407l-11.817,-14.526l4.261,-17.455l17.773,16.655l-5.108,-17.879l11.544,-5.773l8.89,-4.444l7.848,9.032l4.366,5.294l3.112,-1.555l5.108,-4.978l-5.108,-3.078l0,2.947l-5.109,-2.554l2.564,-3.826l12.762,4.01l7.676,1.1l7.649,10.83l-1.66,12.598l1.66,31.482l7.734,-67.653l-72.438,-2.165l-40.256,53.097l18.115,65.252l76.628,-0.636l7.666,-41.511" style="fill:#8d323a;fill-opacity:0.7;"/><path d="M81.447,11.752l-20.434,7.207l-20.434,-7.207l16.528,11.037l-2.016,4.234l-4.295,0.054l-20.434,-10.217l15.325,9.861l-14.487,7.762l-21.273,-7.406l18.954,12.849l-0.446,18.766l-18.508,-6.072l5.109,2.554l15.326,10.055l2.854,-2.621l-2.854,7.762l-20.435,-7.533l18.753,12.069l1.682,23.691l1.935,-24.575l4.714,-14.51l-4.299,0.676l0.403,-5.141l-1.31,-16.129l18.225,-7.115l8.696,-0.76l5.176,-7.63l17.545,-11.661Z" style="fill:#f6d7d0;fill-opacity:0.9;"/></g><path d="M81.447,11.752l-20.434,10.217l-5.109,7.663l-5.108,-2.555l-20.434,10.217l0,25.543l5.108,-2.554l-5.108,12.771l0,25.543l20.434,-10.217l0,-5.109l5.108,-2.554l5.109,2.554l20.434,-10.217l0,-30.651l-5.109,2.554l5.109,-12.771l0,-20.434" style="fill:#bac1d8;"/><clipPath id="_clip4"><path d="M81.447,11.752l-20.434,10.217l-5.109,7.663l-5.108,-2.555l-20.434,10.217l0,25.543l5.108,-2.554l-5.108,12.771l0,25.543l20.434,-10.217l0,-5.109l5.108,-2.554l5.109,2.554l20.434,-10.217l0,-30.651l-5.109,2.554l5.109,-12.771l0,-20.434"/></clipPath><g clip-path="url(#_clip4)"><path d="M81.447,11.752l-20.434,7.207l-20.434,-7.207l16.528,11.037l-2.016,4.234l-4.295,0.054l-20.434,-10.217l15.325,9.861l-14.487,7.762l-21.273,-7.406l18.954,12.849l-0.446,18.766l-18.508,-6.072l5.109,2.554l15.326,10.055l2.854,-2.621l-2.854,7.762l-20.435,-7.533l18.753,12.069l1.682,23.691l1.935,-24.575l4.714,-14.51l-4.299,0.676l0.403,-5.141l-1.31,-16.129l18.225,-7.115l8.696,-0.76l5.176,-7.63l17.545,-11.661Z" style="fill:#f6d7d0;fill-opacity:0.9;"/></g><path d="M9.927,27.077l20.435,10.217l0,25.543l-20.435,-10.217l0,-25.543Z" style="fill:#6c7157;"/><clipPath id="_clip5"><path d="M9.927,27.077l20.435,10.217l0,25.543l-20.435,-10.217l0,-25.543Z"/></clipPath><g clip-path="url(#_clip5)"><path d="M81.447,11.752l-20.434,7.207l-20.434,-7.207l16.528,11.037l-2.016,4.234l-4.295,0.054l-20.434,-10.217l15.325,9.861l-14.487,7.762l-21.273,-7.406l18.954,12.849l-0.446,18.766l-18.508,-6.072l5.109,2.554l15.326,10.055l2.854,-2.621l-2.854,7.762l-20.435,-7.533l18.753,12.069l1.682,23.691l1.935,-24.575l4.714,-14.51l-4.299,0.676l0.403,-5.141l-1.31,-16.129l18.225,-7.115l8.696,-0.76l5.176,-7.63l17.545,-11.661Z" style="fill:#f6d7d0;fill-opacity:0.4;"/></g><path d="M30.362,98.597l-20.435,-10.217l0,-25.543l20.435,10.217l0,25.543" style="fill:#6c7157;"/><clipPath id="_clip6"><path d="M30.362,98.597l-20.435,-10.217l0,-25.543l20.435,10.217l0,25.543"/></clipPath><g clip-path="url(#_clip6)"><path d="M81.447,11.752l-20.434,7.207l-20.434,-7.207l16.528,11.037l-2.016,4.234l-4.295,0.054l-20.434,-10.217l15.325,9.861l-14.487,7.762l-21.273,-7.406l18.954,12.849l-0.446,18.766l-18.508,-6.072l5.109,2.554l15.326,10.055l2.854,-2.621l-2.854,7.762l-20.435,-7.533l18.753,12.069l1.682,23.691l1.935,-24.575l4.714,-14.51l-4.299,0.676l0.403,-5.141l-1.31,-16.129l18.225,-7.115l8.696,-0.76l5.176,-7.63l17.545,-11.661Z" style="fill:#f6d7d0;fill-opacity:0.4;"/></g><path d="M9.927,52.62l5.109,2.554l-5.109,7.663l20.435,10.217l5.108,-12.771l-5.108,2.554l-20.435,-10.217Z" style="fill:#574052;"/><clipPath id="_clip7"><path d="M9.927,52.62l5.109,2.554l-5.109,7.663l20.435,10.217l5.108,-12.771l-5.108,2.554l-20.435,-10.217Z"/></clipPath><g clip-path="url(#_clip7)"><path d="M81.447,11.752l-20.434,7.207l-20.434,-7.207l16.528,11.037l-2.016,4.234l-4.295,0.054l-20.434,-10.217l15.325,9.861l-14.487,7.762l-21.273,-7.406l18.954,12.849l-0.446,18.766l-18.508,-6.072l5.109,2.554l15.326,10.055l2.854,-2.621l-2.854,7.762l-20.435,-7.533l18.753,12.069l1.682,23.691l1.935,-24.575l4.714,-14.51l-4.299,0.676l0.403,-5.141l-1.31,-16.129l18.225,-7.115l8.696,-0.76l5.176,-7.63l17.545,-11.661Z" style="fill:#f6d7d0;fill-opacity:0.4;"/></g></g><g><path d="M40.579,44.916l0,36.821l4.605,-2.31l0.503,-11.192l30.651,-41.23l-6.337,3.076l-25.143,30.616l0.326,-8.885l13.818,-16.134l-6.673,3.346l-7.145,8.513l0,-4.93l-4.605,2.309Z" style="fill:#c3454a;"/><path d="M40.579,81.737l4.605,0.759l4.606,-2.31l-4.606,-0.759l-4.605,2.31Z" style="fill:#f6d7d0;"/><path d="M49.79,80.186l0.223,-13.993l-4.829,-0.018l0,13.252l4.606,0.759Z" style="fill:#6c7157;"/><path d="M45.184,66.053l31.154,-39.021l0,4.76l-26.548,34.375l-4.606,-0.114Z" style="fill:#6c7157;"/><path d="M49.799,50.178l9.16,-10.723l0.214,-3.852l-13.989,16.209l4.615,-1.634Z" style="fill:#6c7157;"/><path d="M45.237,42.575l-0.056,4.973l4.05,-4.801l0.012,-2.182l-4.006,2.01Z" style="fill:#574052;"/><path d="M45.185,51.854l4.562,-1.591l-0.258,4.834l-4.616,5.593l0.312,-8.836Z" style="fill:#6c7157;"/></g></g></g></g><path d="M81.254,52.374c0,0 9.855,8.577 8.776,14.606c-1.078,6.028 -3.229,13.233 -7.853,14.308c-1.72,0.4 0.847,2.21 -2.512,4.143c-0.176,0.102 -0.635,2.32 -0.823,2.423c-1.408,0.769 -16.226,7.243 -18.023,7.836c-5.677,1.875 0.864,-2.886 0,-2.447c-1.867,0.948 -9.278,-1.077 -18.368,4.075c-0.899,0.51 6.362,-0.801 5.508,-0.288c-7.774,4.667 -21.894,10.898 -28.008,8.234c-5.758,-2.509 -13.904,-2.61 -17.243,-6.763c-0.596,-0.741 2.436,-0.007 1.918,-1.167c-3.422,-7.661 -4.632,-9.677 -2.213,-14.113c0.371,-0.68 -2.212,0.031 -1.837,-0.725c2.07,-4.177 7.027,-10.585 7.483,-12.178c0.537,-1.882 1.675,-2.618 1.675,-2.618l0,15.325c1.439,-0.257 2.787,-0.709 5.109,0.915c1.379,0.443 2.569,0.88 3.599,1.313c0.669,0.282 3.818,0.011 4.36,0.291c7.443,3.83 1.155,8.023 7.366,12.807l3.966,-3.126c1.596,-2.547 5.9,-2.495 9.298,-3.506c2.588,-0.77 1.704,-3.862 4.891,-4.725l5.763,-2.227l1.625,-4.296c-0.488,-1.367 -0.424,-2.743 1.91,-4.153c0.587,0.424 1.04,1.66 1.516,1.284c1.151,-0.91 0.484,0.521 0.685,0.783c1.154,1.507 1.415,3.058 0.997,4.64c3.435,-4.107 4.416,-5.117 7.045,-6.694c1.078,-0.647 2.156,0.061 3.776,0.057c0.822,-0.002 1.43,-0.894 2.328,-1.148c0.697,-0.198 1.722,0.251 2.177,0.123c0.902,-0.256 0.306,-1.398 0.877,-1.831c1.052,-0.798 3.03,-0.905 4.232,-0.724c0.004,-0.566 -1.713,-1.455 -1.709,-2.022c0.007,-1.369 1.577,-1.739 1.709,-3.086c0.466,-4.783 0.007,-10.451 0,-15.326Z" style="fill:#426433;"/><clipPath id="_clip8"><path d="M81.254,52.374c0,0 9.855,8.577 8.776,14.606c-1.078,6.028 -3.229,13.233 -7.853,14.308c-1.72,0.4 0.847,2.21 -2.512,4.143c-0.176,0.102 -0.635,2.32 -0.823,2.423c-1.408,0.769 -16.226,7.243 -18.023,7.836c-5.677,1.875 0.864,-2.886 0,-2.447c-1.867,0.948 -9.278,-1.077 -18.368,4.075c-0.899,0.51 6.362,-0.801 5.508,-0.288c-7.774,4.667 -21.894,10.898 -28.008,8.234c-5.758,-2.509 -13.904,-2.61 -17.243,-6.763c-0.596,-0.741 2.436,-0.007 1.918,-1.167c-3.422,-7.661 -4.632,-9.677 -2.213,-14.113c0.371,-0.68 -2.212,0.031 -1.837,-0.725c2.07,-4.177 7.027,-10.585 7.483,-12.178c0.537,-1.882 1.675,-2.618 1.675,-2.618l0,15.325c1.439,-0.257 2.787,-0.709 5.109,0.915c1.379,0.443 2.569,0.88 3.599,1.313c0.669,0.282 3.818,0.011 4.36,0.291c7.443,3.83 1.155,8.023 7.366,12.807l3.966,-3.126c1.596,-2.547 5.9,-2.495 9.298,-3.506c2.588,-0.77 1.704,-3.862 4.891,-4.725l5.763,-2.227l1.625,-4.296c-0.488,-1.367 -0.424,-2.743 1.91,-4.153c0.587,0.424 1.04,1.66 1.516,1.284c1.151,-0.91 0.484,0.521 0.685,0.783c1.154,1.507 1.415,3.058 0.997,4.64c3.435,-4.107 4.416,-5.117 7.045,-6.694c1.078,-0.647 2.156,0.061 3.776,0.057c0.822,-0.002 1.43,-0.894 2.328,-1.148c0.697,-0.198 1.722,0.251 2.177,0.123c0.902,-0.256 0.306,-1.398 0.877,-1.831c1.052,-0.798 3.03,-0.905 4.232,-0.724c0.004,-0.566 -1.713,-1.455 -1.709,-2.022c0.007,-1.369 1.577,-1.739 1.709,-3.086c0.466,-4.783 0.007,-10.451 0,-15.326Z"/></clipPath><g clip-path="url(#_clip8)"><path d="M84.316,46.819l19.321,40.312l-81.441,30.799l53.135,-50.061l3.662,-22.265l5.323,1.215Z" style="fill:#c4e783;fill-opacity:0.5;"/><path d="M91.471,57.483c0.018,-1.108 -5.109,2.554 -5.109,2.554l-1.934,6.075l0.416,3.383l0.242,5.23l-1.006,1.779c0,0 1.051,0.273 -2.826,1.413c-3.878,1.139 -7.244,1.487 -7.244,1.487l-2.973,0.661l-2.363,1.779l-2.746,3.736l-5.109,2.554l-1.609,-0.805l1.609,-4.304l-2.724,-1.362l-0.833,4.692l0.672,0.336l-2.223,2.11l-5.109,1.344l-3.041,-0.49l-2.067,4.018l-5.109,-0.43l-1.762,0.881c0,0 0.221,0.84 -2.102,2.295c-2.324,1.455 -1.596,1.006 -4.396,2.91c-2.8,1.905 -4.664,2.777 -4.664,2.777c0,0 -1.458,6.016 -2.401,0.976c-0.943,-5.04 2.791,-3.36 0,-5.544c-2.791,-2.185 0.323,-2.196 -2.41,-2.946c-2.734,-0.751 -6.329,-0.032 -7.807,1.205c-1.479,1.237 0.072,4.842 -1.879,0.939c-1.952,-3.903 -2.491,-3.903 -3.23,-6.591c-0.738,-2.688 -1.332,-2.677 -1.332,-2.677l-1.209,-0.605l-2.567,-1.283c0,0 -1.178,1.205 0,-1.483c1.178,-2.688 5.374,-1.539 0,-3.626c-5.375,-2.087 -6.55,-2.588 -9.07,-0.573c-2.521,2.015 -4.288,-5.036 -3.404,9.662c0.883,14.698 -12.46,17.358 5.804,23.336c18.264,5.979 13.399,8.656 32.212,5.889c18.814,-2.766 20.48,-2.43 30.651,-7.807c10.172,-5.376 11.476,1.089 21.913,-11.888c10.437,-12.977 10.369,-9.812 13.847,-18.619c3.478,-8.807 7.916,-10.991 5.109,-14.183c-2.807,-3.192 -10.235,-7.698 -10.217,-8.805Z" style="fill:#9fb366;"/><clipPath id="_clip9"><path d="M91.471,57.483c0.018,-1.108 -5.109,2.554 -5.109,2.554l-1.934,6.075l0.416,3.383l0.242,5.23l-1.006,1.779c0,0 1.051,0.273 -2.826,1.413c-3.878,1.139 -7.244,1.487 -7.244,1.487l-2.973,0.661l-2.363,1.779l-2.746,3.736l-5.109,2.554l-1.609,-0.805l1.609,-4.304l-2.724,-1.362l-0.833,4.692l0.672,0.336l-2.223,2.11l-5.109,1.344l-3.041,-0.49l-2.067,4.018l-5.109,-0.43l-1.762,0.881c0,0 0.221,0.84 -2.102,2.295c-2.324,1.455 -1.596,1.006 -4.396,2.91c-2.8,1.905 -4.664,2.777 -4.664,2.777c0,0 -1.458,6.016 -2.401,0.976c-0.943,-5.04 2.791,-3.36 0,-5.544c-2.791,-2.185 0.323,-2.196 -2.41,-2.946c-2.734,-0.751 -6.329,-0.032 -7.807,1.205c-1.479,1.237 0.072,4.842 -1.879,0.939c-1.952,-3.903 -2.491,-3.903 -3.23,-6.591c-0.738,-2.688 -1.332,-2.677 -1.332,-2.677l-1.209,-0.605l-2.567,-1.283c0,0 -1.178,1.205 0,-1.483c1.178,-2.688 5.374,-1.539 0,-3.626c-5.375,-2.087 -6.55,-2.588 -9.07,-0.573c-2.521,2.015 -4.288,-5.036 -3.404,9.662c0.883,14.698 -12.46,17.358 5.804,23.336c18.264,5.979 13.399,8.656 32.212,5.889c18.814,-2.766 20.48,-2.43 30.651,-7.807c10.172,-5.376 11.476,1.089 21.913,-11.888c10.437,-12.977 10.369,-9.812 13.847,-18.619c3.478,-8.807 7.916,-10.991 5.109,-14.183c-2.807,-3.192 -10.235,-7.698 -10.217,-8.805Z"/></clipPath><g clip-path="url(#_clip9)"><path d="M84.316,46.819l19.321,40.312l-81.441,30.799l53.135,-50.061l3.662,-22.265l5.323,1.215Z" style="fill:#c4e783;fill-opacity:0.5;"/></g><path d="M20.837,76.382l-19.492,33.589l-12.859,-32.78c0,0 18.886,-21.303 20.434,-19.585c1.548,1.718 11.917,18.776 11.917,18.776Z" style="fill-opacity:0.5;"/></g></g><path d="M81.778,27.331c0,0 -6.096,-4.753 -7.042,-4.831c-0.946,-0.079 -6.988,-3.389 -8.893,-0.473c-1.905,2.916 -3.56,2.68 -4.072,5.517c-0.512,2.837 0.039,4.886 0.434,6.541c0.394,1.655 -2.601,1.419 -2.601,-0.473c0,-1.891 -4.729,-2.443 -4.729,-2.443c0,0 -1.734,0 -2.049,0.709c-0.316,0.71 -0.71,1.025 -1.655,1.813c-0.946,0.788 -1.025,1.261 -2.286,0.709c-1.261,-0.551 -4.965,-2.364 -5.675,-2.049c-0.709,0.316 -1.879,1.734 -2.91,3.153c-1.03,1.418 -0.465,0.13 -0.984,1.247c-0.519,1.117 -3.12,5.216 -3.12,5.216c0,0 0.435,4.255 -1.004,3.546c-1.439,-0.709 -3.252,-3.074 -3.252,-3.074l-1.857,-2.916c0,0 -2.714,-0.394 -3.187,0.237c-0.473,0.63 -2.677,2.763 -5.319,1.736c-2.641,-1.027 -1.617,0.313 -2.878,-1.815c-1.261,-2.128 -2.918,-4.073 -3.941,-4.992c-1.024,-0.919 -2.7,-1.35 -2.7,-1.35l-2.409,-3.273c0,0 -1.431,-0.313 -1.195,-2.442c0.236,-2.13 -0.052,-2.602 1.195,-3.154c1.248,-0.552 1.798,-1.336 2.744,-1.18c0.947,0.155 0.63,0.392 2.365,-0.633c1.735,-1.024 1.577,-0.552 2.286,-1.34c0.71,-0.788 0,-0.157 1.813,-0.945c1.813,-0.789 1.655,-0.394 2.995,-1.498c1.34,-1.103 1.025,-1.103 1.892,-1.734c0.866,-0.63 -1.715,-0.867 1.231,-1.182c2.946,-0.315 5.108,-0.158 5.108,-0.158c0,0 2.251,0.158 3.749,1.025c1.497,0.867 2.58,1.928 2.58,1.928c0,0 2.07,-0.509 2.543,0.279c0.472,0.788 1.034,2.699 2.369,2.374c1.335,-0.325 1.571,-0.483 3.069,-0.246c1.497,0.236 3.073,0.473 3.073,0.473c0,0 0.284,0.379 0.812,-0.835c0.528,-1.215 0.686,1.229 0.528,-1.687c-0.157,-2.917 -1.34,-2.444 0.394,-4.966c1.734,-2.522 4.655,-0.648 6.426,0.11c1.771,0.757 -2.682,1.86 4.116,2.058c6.797,0.197 6.416,0.33 8.064,-1.077c1.649,-1.406 1.255,-0.066 0.152,-3.297c-1.103,-3.232 -0.21,-1.881 -2.115,-2.793c-1.905,-0.912 1.627,-1.906 -2.897,-1.448c-4.524,0.457 -3.936,1.083 -6.201,0.888c-2.264,-0.194 -2.425,-2 -4.354,-1.058c-1.93,0.943 -2.056,-0.039 -3.742,0.943c-1.772,1.031 -3.497,0.653 -2.337,0.224c1.161,-0.43 3.913,-3.613 6.435,-4.874c2.522,-1.261 3.547,-1.498 4.729,-1.971c1.182,-0.472 3.259,-1.024 3.259,-1.024c0,0 1.785,0.079 2.967,0.867c1.182,0.788 0.105,0.867 2.141,1.576c2.036,0.709 8.656,2.916 9.445,3.074c0.788,0.157 2.315,1.635 2.852,1.763c0.537,0.128 2.415,1.047 3.998,3.11c1.583,2.062 1.999,0.058 1.791,4.213c-0.208,4.154 -0.524,7.859 -0.524,9.041c0,1.182 -1.627,2.861 -1.627,2.861Z" style="fill:#426433;"/><clipPath id="_clip10"><path d="M81.778,27.331c0,0 -6.096,-4.753 -7.042,-4.831c-0.946,-0.079 -6.988,-3.389 -8.893,-0.473c-1.905,2.916 -3.56,2.68 -4.072,5.517c-0.512,2.837 0.039,4.886 0.434,6.541c0.394,1.655 -2.601,1.419 -2.601,-0.473c0,-1.891 -4.729,-2.443 -4.729,-2.443c0,0 -1.734,0 -2.049,0.709c-0.316,0.71 -0.71,1.025 -1.655,1.813c-0.946,0.788 -1.025,1.261 -2.286,0.709c-1.261,-0.551 -4.965,-2.364 -5.675,-2.049c-0.709,0.316 -1.879,1.734 -2.91,3.153c-1.03,1.418 -0.465,0.13 -0.984,1.247c-0.519,1.117 -3.12,5.216 -3.12,5.216c0,0 0.435,4.255 -1.004,3.546c-1.439,-0.709 -3.252,-3.074 -3.252,-3.074l-1.857,-2.916c0,0 -2.714,-0.394 -3.187,0.237c-0.473,0.63 -2.677,2.763 -5.319,1.736c-2.641,-1.027 -1.617,0.313 -2.878,-1.815c-1.261,-2.128 -2.918,-4.073 -3.941,-4.992c-1.024,-0.919 -2.7,-1.35 -2.7,-1.35l-2.409,-3.273c0,0 -1.431,-0.313 -1.195,-2.442c0.236,-2.13 -0.052,-2.602 1.195,-3.154c1.248,-0.552 1.798,-1.336 2.744,-1.18c0.947,0.155 0.63,0.392 2.365,-0.633c1.735,-1.024 1.577,-0.552 2.286,-1.34c0.71,-0.788 0,-0.157 1.813,-0.945c1.813,-0.789 1.655,-0.394 2.995,-1.498c1.34,-1.103 1.025,-1.103 1.892,-1.734c0.866,-0.63 -1.715,-0.867 1.231,-1.182c2.946,-0.315 5.108,-0.158 5.108,-0.158c0,0 2.251,0.158 3.749,1.025c1.497,0.867 2.58,1.928 2.58,1.928c0,0 2.07,-0.509 2.543,0.279c0.472,0.788 1.034,2.699 2.369,2.374c1.335,-0.325 1.571,-0.483 3.069,-0.246c1.497,0.236 3.073,0.473 3.073,0.473c0,0 0.284,0.379 0.812,-0.835c0.528,-1.215 0.686,1.229 0.528,-1.687c-0.157,-2.917 -1.34,-2.444 0.394,-4.966c1.734,-2.522 4.655,-0.648 6.426,0.11c1.771,0.757 -2.682,1.86 4.116,2.058c6.797,0.197 6.416,0.33 8.064,-1.077c1.649,-1.406 1.255,-0.066 0.152,-3.297c-1.103,-3.232 -0.21,-1.881 -2.115,-2.793c-1.905,-0.912 1.627,-1.906 -2.897,-1.448c-4.524,0.457 -3.936,1.083 -6.201,0.888c-2.264,-0.194 -2.425,-2 -4.354,-1.058c-1.93,0.943 -2.056,-0.039 -3.742,0.943c-1.772,1.031 -3.497,0.653 -2.337,0.224c1.161,-0.43 3.913,-3.613 6.435,-4.874c2.522,-1.261 3.547,-1.498 4.729,-1.971c1.182,-0.472 3.259,-1.024 3.259,-1.024c0,0 1.785,0.079 2.967,0.867c1.182,0.788 0.105,0.867 2.141,1.576c2.036,0.709 8.656,2.916 9.445,3.074c0.788,0.157 2.315,1.635 2.852,1.763c0.537,0.128 2.415,1.047 3.998,3.11c1.583,2.062 1.999,0.058 1.791,4.213c-0.208,4.154 -0.524,7.859 -0.524,9.041c0,1.182 -1.627,2.861 -1.627,2.861Z"/></clipPath><g clip-path="url(#_clip10)"><path d="M71.902,42.827l19.484,-20.033c3.401,-19.583 -11.635,-25.793 -37.022,-24.496l-19.172,12.951l38.178,16.986c-2.69,2.679 4.925,-1.859 -8.659,8.962l-37.707,-23.957l-17.355,10.653l32.901,19.583l29.352,-0.649" style="fill:#c4e783;fill-opacity:0.5;"/><path d="M70.952,1.483c0.683,-0.524 0.178,6.742 0,7.604c-0.179,0.862 -0.807,2.832 0,3.818c0.807,0.985 2.777,1.97 3.269,3.448c0.493,1.477 4.509,1.326 -0.146,2.017c-4.656,0.692 -7.128,0.432 -8.232,0.993c-1.104,0.561 1.081,-3.689 -1.797,0.899c-2.878,4.588 -2.403,3.146 -4.673,6.083c-2.269,2.938 0.686,5.503 -3.747,3.235c-4.433,-2.267 -4.809,-2.158 -6.16,-2.028c-1.352,0.13 0.341,-0.056 -1.675,0.837c-2.016,0.894 -0.785,0.525 -5.095,1.387c-4.31,0.862 -4.668,-1.378 -5.166,0.973c-0.499,2.352 3.189,-1.973 -0.625,3.083c-3.814,5.056 -3.258,5.913 -5.629,4.007c-2.372,-1.906 -2.16,-0.975 -3.005,-1.502c-0.845,-0.527 -1.56,0.335 -3.296,-0.527c-1.736,-0.862 -1.672,-0.129 -2.073,-2.158c-0.402,-2.029 0.309,-0.239 -1.217,-2.427c-1.525,-2.188 -1.819,-4.199 -1.819,-4.199c0,0 -3.646,-2.915 1.649,-2.915c5.295,0 4.579,-0.94 5.861,-0.84c1.281,0.101 -1.778,-1.207 2.707,-1.354c4.485,-0.146 4.457,4.846 6.873,1.673c2.415,-3.173 3.344,-4.651 3.344,-4.651c0,0 1.713,-2.083 2.917,-0.672c1.203,1.411 1.087,0.918 2.192,2.396c1.105,1.478 -0.619,1.108 1.351,1.847c1.97,0.739 3.479,-0.432 5.126,0.092c1.647,0.524 4.355,1.509 3.74,-0.461c-0.615,-1.971 0,-2.778 0,-2.778l-2.731,-1.365l2.731,-0.414l3.175,0.192c0,0 -0.191,-0.125 2.935,-0.466c3.126,-0.342 5.34,-3.672 5.34,-3.672c0,0 -0.499,0.868 -1.233,-1.719c-0.734,-2.586 -1.079,-3.744 -3.123,-4.335c-2.045,-0.59 -7.094,-0.59 -7.094,-0.59c0,0 -4.311,-2.957 0,-2.956c4.311,0 7.389,0.123 7.389,0.123c0,0 0.121,-0.004 1.6,0.491c1.479,0.494 4.039,-2.02 4.039,-2.02c0,0 1.614,-0.625 2.298,-1.149Z" style="fill:#9fb366;"/><clipPath id="_clip11"><path d="M70.952,1.483c0.683,-0.524 0.178,6.742 0,7.604c-0.179,0.862 -0.807,2.832 0,3.818c0.807,0.985 2.777,1.97 3.269,3.448c0.493,1.477 4.509,1.326 -0.146,2.017c-4.656,0.692 -7.128,0.432 -8.232,0.993c-1.104,0.561 1.081,-3.689 -1.797,0.899c-2.878,4.588 -2.403,3.146 -4.673,6.083c-2.269,2.938 0.686,5.503 -3.747,3.235c-4.433,-2.267 -4.809,-2.158 -6.16,-2.028c-1.352,0.13 0.341,-0.056 -1.675,0.837c-2.016,0.894 -0.785,0.525 -5.095,1.387c-4.31,0.862 -4.668,-1.378 -5.166,0.973c-0.499,2.352 3.189,-1.973 -0.625,3.083c-3.814,5.056 -3.258,5.913 -5.629,4.007c-2.372,-1.906 -2.16,-0.975 -3.005,-1.502c-0.845,-0.527 -1.56,0.335 -3.296,-0.527c-1.736,-0.862 -1.672,-0.129 -2.073,-2.158c-0.402,-2.029 0.309,-0.239 -1.217,-2.427c-1.525,-2.188 -1.819,-4.199 -1.819,-4.199c0,0 -3.646,-2.915 1.649,-2.915c5.295,0 4.579,-0.94 5.861,-0.84c1.281,0.101 -1.778,-1.207 2.707,-1.354c4.485,-0.146 4.457,4.846 6.873,1.673c2.415,-3.173 3.344,-4.651 3.344,-4.651c0,0 1.713,-2.083 2.917,-0.672c1.203,1.411 1.087,0.918 2.192,2.396c1.105,1.478 -0.619,1.108 1.351,1.847c1.97,0.739 3.479,-0.432 5.126,0.092c1.647,0.524 4.355,1.509 3.74,-0.461c-0.615,-1.971 0,-2.778 0,-2.778l-2.731,-1.365l2.731,-0.414l3.175,0.192c0,0 -0.191,-0.125 2.935,-0.466c3.126,-0.342 5.34,-3.672 5.34,-3.672c0,0 -0.499,0.868 -1.233,-1.719c-0.734,-2.586 -1.079,-3.744 -3.123,-4.335c-2.045,-0.59 -7.094,-0.59 -7.094,-0.59c0,0 -4.311,-2.957 0,-2.956c4.311,0 7.389,0.123 7.389,0.123c0,0 0.121,-0.004 1.6,0.491c1.479,0.494 4.039,-2.02 4.039,-2.02c0,0 1.614,-0.625 2.298,-1.149Z"/></clipPath><g clip-path="url(#_clip11)"><path d="M71.902,42.827l19.484,-20.033c3.401,-19.583 -11.635,-25.793 -37.022,-24.496l-19.172,12.951l38.178,16.986c-2.69,2.679 4.925,-1.859 -8.659,8.962l-37.707,-23.957l-17.355,10.653l32.901,19.583l29.352,-0.649" style="fill:#c4e783;fill-opacity:0.5;"/></g><path d="M35.192,15.623l35.76,15.709l-5.109,3.357l-32.307,-18.634l1.656,-0.432Z" style="fill-opacity:0.5;"/></g></g></svg>