<?xml version="1.0" encoding="UTF-8" standalone="no"?><!DOCTYPE svg PUBLIC "-//W3C//DTD SVG 1.1//EN" "http://www.w3.org/Graphics/SVG/1.1/DTD/svg11.dtd"><svg width="100%" height="100%" viewBox="0 0 91 89" version="1.1" xmlns="http://www.w3.org/2000/svg" xmlns:xlink="http://www.w3.org/1999/xlink" xml:space="preserve" xmlns:serif="http://www.serif.com/" style="fill-rule:evenodd;clip-rule:evenodd;stroke-linejoin:round;stroke-miterlimit:1.41421;"><g id="F_Runestone_mossy_4"><g id="F_Runestone_grass_runes_4"><g id="F_Runestone_runes_4"><g><g><path d="M70.233,5.77l19.822,0.306l-20.434,5.108l-23.436,-6.609l24.048,1.195Z" style="fill:#9da8c9;"/><clipPath id="_clip1"><path d="M70.233,5.77l19.822,0.306l-20.434,5.108l-23.436,-6.609l24.048,1.195Z"/></clipPath><g clip-path="url(#_clip1)"><path d="M46.26,4.612l23.361,4.146l20.434,-2.682l-18.32,6.165l-2.114,2.453l2.952,2.236l-5.594,0.683l-2.466,2.242l-5.109,-3.562l-0.889,5.553l-17.597,-3.367l5.247,17.548l-3.954,9.296l0.943,6.876l6.033,20.287l-2.082,4.068l0.641,5.429l-24.102,-6.942l20.434,3.566l-1.612,-1.806l-23.93,-19.64l24.704,14.651l1.549,-0.258l-26.253,-19.502l25.542,15.028l-5.108,-7.139l-1.407,-6.28l-13.919,-9.272l12.442,3.997l-1.19,-2.553l-13.152,-7.502l1.9,-0.498l13.919,6.968l0.344,-1.118l-13.931,-5.684l14.501,3.59l3.571,-6.401l-33.729,-8.678l32.759,4.054l-2.108,-2.33l-5.109,-1.239l0,-5.23l5.109,-1.514l1.698,1.999l-0.177,1.402l-3.875,-0.07l4.298,3.276l0.67,0.494l-1.11,-3.584l0.15,-1.17l-0.431,-0.907l-1.724,-2.127l-0.595,-2.723l-4.013,-3.103l7.517,1.812l12.132,1.516l0.088,-1.717l-9.52,-6.719l17.295,6.678l0.505,-1.104l3.947,1.145l0.781,-2.657l-20.346,-8.08Z" style="fill:#f6d7d0;fill-opacity:0.9;"/></g><path d="M69.621,72.486l-5.108,-2.554l10.217,-15.325l5.87,4.799l-3.315,6.695l-7.664,6.385Z" style="fill:#6c7157;"/><clipPath id="_clip2"><path d="M69.621,72.486l-5.108,-2.554l10.217,-15.325l5.87,4.799l-3.315,6.695l-7.664,6.385Z"/></clipPath><g clip-path="url(#_clip2)"><path d="M46.26,4.612l23.361,4.146l20.434,-2.682l-18.32,6.165l-2.114,2.453l2.952,2.236l-5.594,0.683l-2.466,2.242l-5.109,-3.562l-0.889,5.553l-17.597,-3.367l5.247,17.548l-3.954,9.296l0.943,6.876l6.033,20.287l-2.082,4.068l0.641,5.429l-24.102,-6.942l20.434,3.566l-1.612,-1.806l-23.93,-19.64l24.704,14.651l1.549,-0.258l-26.253,-19.502l25.542,15.028l-5.108,-7.139l-1.407,-6.28l-13.919,-9.272l12.442,3.997l-1.19,-2.553l-13.152,-7.502l1.9,-0.498l13.919,6.968l0.344,-1.118l-13.931,-5.684l14.501,3.59l3.571,-6.401l-33.729,-8.678l32.759,4.054l-2.108,-2.33l-5.109,-1.239l0,-5.23l5.109,-1.514l1.698,1.999l-0.177,1.402l-3.875,-0.07l4.298,3.276l0.67,0.494l-1.11,-3.584l0.15,-1.17l-0.431,-0.907l-1.724,-2.127l-0.595,-2.723l-4.013,-3.103l7.517,1.812l12.132,1.516l0.088,-1.717l-9.52,-6.719l17.295,6.678l0.505,-1.104l3.947,1.145l0.781,-2.657l-20.346,-8.08Z" style="fill:#f6d7d0;fill-opacity:0.9;"/></g><path d="M84.947,42.449l-7.796,-4.379l-8.18,4.09l10.867,8.418l5.109,-8.129Z" style="fill:#9da8c9;"/><clipPath id="_clip3"><path d="M84.947,42.449l-7.796,-4.379l-8.18,4.09l10.867,8.418l5.109,-8.129Z"/></clipPath><g clip-path="url(#_clip3)"><path d="M46.26,4.612l23.361,4.146l20.434,-2.682l-18.32,6.165l-2.114,2.453l2.952,2.236l-5.594,0.683l-2.466,2.242l-5.109,-3.562l-0.889,5.553l-17.597,-3.367l5.247,17.548l-3.954,9.296l0.943,6.876l6.033,20.287l-2.082,4.068l0.641,5.429l-24.102,-6.942l20.434,3.566l-1.612,-1.806l-23.93,-19.64l24.704,14.651l1.549,-0.258l-26.253,-19.502l25.542,15.028l-5.108,-7.139l-1.407,-6.28l-13.919,-9.272l12.442,3.997l-1.19,-2.553l-13.152,-7.502l1.9,-0.498l13.919,6.968l0.344,-1.118l-13.931,-5.684l14.501,3.59l3.571,-6.401l-33.729,-8.678l32.759,4.054l-2.108,-2.33l-5.109,-1.239l0,-5.23l5.109,-1.514l1.698,1.999l-0.177,1.402l-3.875,-0.07l4.298,3.276l0.67,0.494l-1.11,-3.584l0.15,-1.17l-0.431,-0.907l-1.724,-2.127l-0.595,-2.723l-4.013,-3.103l7.517,1.812l12.132,1.516l0.088,-1.717l-9.52,-6.719l17.295,6.678l0.505,-1.104l3.947,1.145l0.781,-2.657l-20.346,-8.08Z" style="fill:#f6d7d0;fill-opacity:0.9;"/></g><path d="M44.078,8.63l-10.217,5.108l-25.542,12.772l28.069,3.817l6.39,1.254l11.517,-12.734l5.109,-2.554l-15.326,-7.663Z" style="fill:#9da8c9;"/><clipPath id="_clip4"><path d="M44.078,8.63l-10.217,5.108l-25.542,12.772l28.069,3.817l6.39,1.254l11.517,-12.734l5.109,-2.554l-15.326,-7.663Z"/></clipPath><g clip-path="url(#_clip4)"><path d="M68.315,80.642l-1.96,-9.995l5.98,-11.069l7.577,-3.789l-6.123,-2.047l-2.104,3.043l-0.404,-14.339l13.74,-12.438l-5.109,2.956l-5.109,2.34l-13.166,16.456l2.949,6.584l1.444,4.386l-1.444,7.793l-11.562,8.927l-13.98,3.142l-20.434,-3.325l20.434,-3.043l-10.217,-1.637l0,-6.157l-2.864,2.709l-7.353,-9.236l-3.73,-15.763l17.402,11.377l4.122,4.701l-0.32,-4.949l-2.149,-4.034l-13.599,-6.8l-4.271,-4.699l5.057,-5.124l11.419,1.995l-2.775,-2.782l-6.048,-1.383l-5.108,-3.079l0,1.847l-6.386,0.23l-7.387,-6.524l12.022,-7.762l10.29,6.823l0.046,-3.481l4.17,-1.197l-6.633,-7.177l14.312,-0.985l10.217,3.448l0,2.094l-2.755,7.836l-2.354,22.704l1.724,4.878l1.082,-9.676l2.303,-14.174l13.722,-6.861l-8.614,-4.461l-13.524,-10.013l8.416,-9.316l19.412,4.597l29.872,-0.389l-25.293,11.673l-1.724,6.773l3.275,0.334l0,-5.109l15.326,-5.2l19.255,-12.09l-80.557,-4.781l-32.159,44.306l19.562,50.649l52.085,-9.717" style="fill:#8d323a;fill-opacity:0.7;"/><path d="M46.26,4.612l23.361,4.146l20.434,-2.682l-18.32,6.165l-2.114,2.453l2.952,2.236l-5.594,0.683l-2.466,2.242l-5.109,-3.562l-0.889,5.553l-17.597,-3.367l5.247,17.548l-3.954,9.296l0.943,6.876l6.033,20.287l-2.082,4.068l0.641,5.429l-24.102,-6.942l20.434,3.566l-1.612,-1.806l-23.93,-19.64l24.704,14.651l1.549,-0.258l-26.253,-19.502l25.542,15.028l-5.108,-7.139l-1.407,-6.28l-13.919,-9.272l12.442,3.997l-1.19,-2.553l-13.152,-7.502l1.9,-0.498l13.919,6.968l0.344,-1.118l-13.931,-5.684l14.501,3.59l3.571,-6.401l-33.729,-8.678l32.759,4.054l-2.108,-2.33l-5.109,-1.239l0,-5.23l5.109,-1.514l1.698,1.999l-0.177,1.402l-3.875,-0.07l4.298,3.276l0.67,0.494l-1.11,-3.584l0.15,-1.17l-0.431,-0.907l-1.724,-2.127l-0.595,-2.723l-4.013,-3.103l7.517,1.812l12.132,1.516l0.088,-1.717l-9.52,-6.719l17.295,6.678l0.505,-1.104l3.947,1.145l0.781,-2.657l-20.346,-8.08Z" style="fill:#f6d7d0;fill-opacity:0.9;"/></g><path d="M90.055,6.076l-20.434,5.108l-10.217,5.109l-5.109,2.554l-15.325,-2.554l-8.822,6.915l6.238,7.118l-14.466,7.034l17.05,14.692l5.108,12.772l-5.108,-2.555l5.108,12.772l3.754,6.985l2.171,-2.841l9.401,-1.59l7.325,-3.663l5.18,-7.698l7.929,-6.634l-5.108,7.345l-5.109,5.541l13.113,-6.556l3.925,-10.467l-3.918,-3.411l2.206,-2.554l2.02,-4.098l-2.02,-3.013l-3.515,3.76l-3.025,1.512l-0.411,-3.678l3.173,-4.802l5.941,-2.041l2.945,-5.52l0,-10.217l-4.124,-9.84l4.124,-5.485Z" style="fill:#bac1d8;"/><clipPath id="_clip5"><path d="M90.055,6.076l-20.434,5.108l-10.217,5.109l-5.109,2.554l-15.325,-2.554l-8.822,6.915l6.238,7.118l-14.466,7.034l17.05,14.692l5.108,12.772l-5.108,-2.555l5.108,12.772l3.754,6.985l2.171,-2.841l9.401,-1.59l7.325,-3.663l5.18,-7.698l7.929,-6.634l-5.108,7.345l-5.109,5.541l13.113,-6.556l3.925,-10.467l-3.918,-3.411l2.206,-2.554l2.02,-4.098l-2.02,-3.013l-3.515,3.76l-3.025,1.512l-0.411,-3.678l3.173,-4.802l5.941,-2.041l2.945,-5.52l0,-10.217l-4.124,-9.84l4.124,-5.485Z"/></clipPath><g clip-path="url(#_clip5)"><path d="M46.26,4.612l23.361,4.146l20.434,-2.682l-18.32,6.165l-2.114,2.453l2.952,2.236l-5.594,0.683l-2.466,2.242l-5.109,-3.562l-0.889,5.553l-17.597,-3.367l5.247,17.548l-3.954,9.296l0.943,6.876l6.033,20.287l-2.082,4.068l0.641,5.429l-24.102,-6.942l20.434,3.566l-1.612,-1.806l-23.93,-19.64l24.704,14.651l1.549,-0.258l-26.253,-19.502l25.542,15.028l-5.108,-7.139l-1.407,-6.28l-13.919,-9.272l12.442,3.997l-1.19,-2.553l-13.152,-7.502l1.9,-0.498l13.919,6.968l0.344,-1.118l-13.931,-5.684l14.501,3.59l3.571,-6.401l-33.729,-8.678l32.759,4.054l-2.108,-2.33l-5.109,-1.239l0,-5.23l5.109,-1.514l1.698,1.999l-0.177,1.402l-3.875,-0.07l4.298,3.276l0.67,0.494l-1.11,-3.584l0.15,-1.17l-0.431,-0.907l-1.724,-2.127l-0.595,-2.723l-4.013,-3.103l7.517,1.812l12.132,1.516l0.088,-1.717l-9.52,-6.719l17.295,6.678l0.505,-1.104l3.947,1.145l0.781,-2.657l-20.346,-8.08Z" style="fill:#f6d7d0;fill-opacity:0.9;"/></g><path d="M40.571,22.202l1.208,5.712l-13.026,0.652l1.894,-9.162l6.492,1.082l3.432,1.716Z" style="fill:#9da8c9;"/><clipPath id="_clip6"><path d="M40.571,22.202l1.208,5.712l-13.026,0.652l1.894,-9.162l6.492,1.082l3.432,1.716Z"/></clipPath><g clip-path="url(#_clip6)"><path d="M46.26,4.612l23.361,4.146l20.434,-2.682l-18.32,6.165l-2.114,2.453l2.952,2.236l-5.594,0.683l-2.466,2.242l-5.109,-3.562l-0.889,5.553l-17.597,-3.367l5.247,17.548l-3.954,9.296l0.943,6.876l6.033,20.287l-2.082,4.068l0.641,5.429l-24.102,-6.942l20.434,3.566l-1.612,-1.806l-23.93,-19.64l24.704,14.651l1.549,-0.258l-26.253,-19.502l25.542,15.028l-5.108,-7.139l-1.407,-6.28l-13.919,-9.272l12.442,3.997l-1.19,-2.553l-13.152,-7.502l1.9,-0.498l13.919,6.968l0.344,-1.118l-13.931,-5.684l14.501,3.59l3.571,-6.401l-33.729,-8.678l32.759,4.054l-2.108,-2.33l-5.109,-1.239l0,-5.23l5.109,-1.514l1.698,1.999l-0.177,1.402l-3.875,-0.07l4.298,3.276l0.67,0.494l-1.11,-3.584l0.15,-1.17l-0.431,-0.907l-1.724,-2.127l-0.595,-2.723l-4.013,-3.103l7.517,1.812l12.132,1.516l0.088,-1.717l-9.52,-6.719l17.295,6.678l0.505,-1.104l3.947,1.145l0.781,-2.657l-20.346,-8.08Z" style="fill:#f6d7d0;fill-opacity:0.9;"/></g><path d="M38.97,42.859l0,4.085l-18.262,-6.195l-0.809,-9.812l19.071,11.922Z" style="fill:#6c7157;"/><clipPath id="_clip7"><path d="M38.97,42.859l0,4.085l-18.262,-6.195l-0.809,-9.812l19.071,11.922Z"/></clipPath><g clip-path="url(#_clip7)"><path d="M46.26,4.612l23.361,4.146l20.434,-2.682l-18.32,6.165l-2.114,2.453l2.952,2.236l-5.594,0.683l-2.466,2.242l-5.109,-3.562l-0.889,5.553l-17.597,-3.367l5.247,17.548l-3.954,9.296l0.943,6.876l6.033,20.287l-2.082,4.068l0.641,5.429l-24.102,-6.942l20.434,3.566l-1.612,-1.806l-23.93,-19.64l24.704,14.651l1.549,-0.258l-26.253,-19.502l25.542,15.028l-5.108,-7.139l-1.407,-6.28l-13.919,-9.272l12.442,3.997l-1.19,-2.553l-13.152,-7.502l1.9,-0.498l13.919,6.968l0.344,-1.118l-13.931,-5.684l14.501,3.59l3.571,-6.401l-33.729,-8.678l32.759,4.054l-2.108,-2.33l-5.109,-1.239l0,-5.23l5.109,-1.514l1.698,1.999l-0.177,1.402l-3.875,-0.07l4.298,3.276l0.67,0.494l-1.11,-3.584l0.15,-1.17l-0.431,-0.907l-1.724,-2.127l-0.595,-2.723l-4.013,-3.103l7.517,1.812l12.132,1.516l0.088,-1.717l-9.52,-6.719l17.295,6.678l0.505,-1.104l3.947,1.145l0.781,-2.657l-20.346,-8.08Z" style="fill:#f6d7d0;fill-opacity:0.4;"/></g><path d="M33.861,13.738l5.109,2.555l1.643,5.93l-5.668,0.256l0.752,3.207l6.135,2.254l2.246,6.232l-35.759,-7.662l25.542,-12.772Z" style="fill:#6c7157;"/><clipPath id="_clip8"><path d="M33.861,13.738l5.109,2.555l1.643,5.93l-5.668,0.256l0.752,3.207l6.135,2.254l2.246,6.232l-35.759,-7.662l25.542,-12.772Z"/></clipPath><g clip-path="url(#_clip8)"><path d="M68.315,80.642l-1.96,-9.995l5.98,-11.069l7.577,-3.789l-6.123,-2.047l-2.104,3.043l-0.404,-14.339l13.74,-12.438l-5.109,2.956l-5.109,2.34l-13.166,16.456l2.949,6.584l1.444,4.386l-1.444,7.793l-11.562,8.927l-13.98,3.142l-20.434,-3.325l20.434,-3.043l-10.217,-1.637l0,-6.157l-2.864,2.709l-7.353,-9.236l-3.73,-15.763l17.402,11.377l4.122,4.701l-0.32,-4.949l-2.149,-4.034l-13.599,-6.8l-4.271,-4.699l5.057,-5.124l11.419,1.995l-2.775,-2.782l-6.048,-1.383l-5.108,-3.079l0,1.847l-6.386,0.23l-7.387,-6.524l12.022,-7.762l10.29,6.823l0.046,-3.481l4.17,-1.197l-6.633,-7.177l14.312,-0.985l10.217,3.448l0,2.094l-2.755,7.836l-2.354,22.704l1.724,4.878l1.082,-9.676l2.303,-14.174l13.722,-6.861l-8.614,-4.461l-13.524,-10.013l8.416,-9.316l19.412,4.597l29.872,-0.389l-25.293,11.673l-1.724,6.773l3.275,0.334l0,-5.109l15.326,-5.2l19.255,-12.09l-80.557,-4.781l-32.159,44.306l19.562,50.649l52.085,-9.717" style="fill:#8d323a;fill-opacity:0.7;"/><path d="M46.26,4.612l23.361,4.146l20.434,-2.682l-18.32,6.165l-2.114,2.453l2.952,2.236l-5.594,0.683l-2.466,2.242l-5.109,-3.562l-0.889,5.553l-17.597,-3.367l5.247,17.548l-3.954,9.296l0.943,6.876l6.033,20.287l-2.082,4.068l0.641,5.429l-24.102,-6.942l20.434,3.566l-1.612,-1.806l-23.93,-19.64l24.704,14.651l1.549,-0.258l-26.253,-19.502l25.542,15.028l-5.108,-7.139l-1.407,-6.28l-13.919,-9.272l12.442,3.997l-1.19,-2.553l-13.152,-7.502l1.9,-0.498l13.919,6.968l0.344,-1.118l-13.931,-5.684l14.501,3.59l3.571,-6.401l-33.729,-8.678l32.759,4.054l-2.108,-2.33l-5.109,-1.239l0,-5.23l5.109,-1.514l1.698,1.999l-0.177,1.402l-3.875,-0.07l4.298,3.276l0.67,0.494l-1.11,-3.584l0.15,-1.17l-0.431,-0.907l-1.724,-2.127l-0.595,-2.723l-4.013,-3.103l7.517,1.812l12.132,1.516l0.088,-1.717l-9.52,-6.719l17.295,6.678l0.505,-1.104l3.947,1.145l0.781,-2.657l-20.346,-8.08Z" style="fill:#f6d7d0;fill-opacity:0.4;"/></g><path d="M8.319,26.51l35.759,7.662l-5.108,8.758l-15.326,-4.866l15.326,8.88l0,5.108l-20.434,-10.217l-5.109,-7.663l-5.108,-7.662Z" style="fill:#574052;"/><clipPath id="_clip9"><path d="M8.319,26.51l35.759,7.662l-5.108,8.758l-15.326,-4.866l15.326,8.88l0,5.108l-20.434,-10.217l-5.109,-7.663l-5.108,-7.662Z"/></clipPath><g clip-path="url(#_clip9)"><path d="M46.26,4.612l23.361,4.146l20.434,-2.682l-18.32,6.165l-2.114,2.453l2.952,2.236l-5.594,0.683l-2.466,2.242l-5.109,-3.562l-0.889,5.553l-17.597,-3.367l5.247,17.548l-3.954,9.296l0.943,6.876l6.033,20.287l-2.082,4.068l0.641,5.429l-24.102,-6.942l20.434,3.566l-1.612,-1.806l-23.93,-19.64l24.704,14.651l1.549,-0.258l-26.253,-19.502l25.542,15.028l-5.108,-7.139l-1.407,-6.28l-13.919,-9.272l12.442,3.997l-1.19,-2.553l-13.152,-7.502l1.9,-0.498l13.919,6.968l0.344,-1.118l-13.931,-5.684l14.501,3.59l3.571,-6.401l-33.729,-8.678l32.759,4.054l-2.108,-2.33l-5.109,-1.239l0,-5.23l5.109,-1.514l1.698,1.999l-0.177,1.402l-3.875,-0.07l4.298,3.276l0.67,0.494l-1.11,-3.584l0.15,-1.17l-0.431,-0.907l-1.724,-2.127l-0.595,-2.723l-4.013,-3.103l7.517,1.812l12.132,1.516l0.088,-1.717l-9.52,-6.719l17.295,6.678l0.505,-1.104l3.947,1.145l0.781,-2.657l-20.346,-8.08Z" style="fill:#f6d7d0;fill-opacity:0.4;"/></g><path d="M47.702,81.961l-24.058,-6.92l-5.108,-17.88l0,-5.109l30.651,20.434l-5.109,2.555l3.624,6.92Z" style="fill:#6c7157;"/><clipPath id="_clip10"><path d="M47.702,81.961l-24.058,-6.92l-5.108,-17.88l0,-5.109l30.651,20.434l-5.109,2.555l3.624,6.92Z"/></clipPath><g clip-path="url(#_clip10)"><path d="M46.26,4.612l23.361,4.146l20.434,-2.682l-18.32,6.165l-2.114,2.453l2.952,2.236l-5.594,0.683l-2.466,2.242l-5.109,-3.562l-0.889,5.553l-17.597,-3.367l5.247,17.548l-3.954,9.296l0.943,6.876l6.033,20.287l-2.082,4.068l0.641,5.429l-24.102,-6.942l20.434,3.566l-1.612,-1.806l-23.93,-19.64l24.704,14.651l1.549,-0.258l-26.253,-19.502l25.542,15.028l-5.108,-7.139l-1.407,-6.28l-13.919,-9.272l12.442,3.997l-1.19,-2.553l-13.152,-7.502l1.9,-0.498l13.919,6.968l0.344,-1.118l-13.931,-5.684l14.501,3.59l3.571,-6.401l-33.729,-8.678l32.759,4.054l-2.108,-2.33l-5.109,-1.239l0,-5.23l5.109,-1.514l1.698,1.999l-0.177,1.402l-3.875,-0.07l4.298,3.276l0.67,0.494l-1.11,-3.584l0.15,-1.17l-0.431,-0.907l-1.724,-2.127l-0.595,-2.723l-4.013,-3.103l7.517,1.812l12.132,1.516l0.088,-1.717l-9.52,-6.719l17.295,6.678l0.505,-1.104l3.947,1.145l0.781,-2.657l-20.346,-8.08Z" style="fill:#f6d7d0;fill-opacity:0.4;"/></g><path d="M18.536,41.835l5.108,2.554l-5.108,7.663l30.651,20.434l-10.217,-20.434l-20.434,-10.217Z" style="fill:#574052;"/><clipPath id="_clip11"><path d="M18.536,41.835l5.108,2.554l-5.108,7.663l30.651,20.434l-10.217,-20.434l-20.434,-10.217Z"/></clipPath><g clip-path="url(#_clip11)"><path d="M46.26,4.612l23.361,4.146l20.434,-2.682l-18.32,6.165l-2.114,2.453l2.952,2.236l-5.594,0.683l-2.466,2.242l-5.109,-3.562l-0.889,5.553l-17.597,-3.367l5.247,17.548l-3.954,9.296l0.943,6.876l6.033,20.287l-2.082,4.068l0.641,5.429l-24.102,-6.942l20.434,3.566l-1.612,-1.806l-23.93,-19.64l24.704,14.651l1.549,-0.258l-26.253,-19.502l25.542,15.028l-5.108,-7.139l-1.407,-6.28l-13.919,-9.272l12.442,3.997l-1.19,-2.553l-13.152,-7.502l1.9,-0.498l13.919,6.968l0.344,-1.118l-13.931,-5.684l14.501,3.59l3.571,-6.401l-33.729,-8.678l32.759,4.054l-2.108,-2.33l-5.109,-1.239l0,-5.23l5.109,-1.514l1.698,1.999l-0.177,1.402l-3.875,-0.07l4.298,3.276l0.67,0.494l-1.11,-3.584l0.15,-1.17l-0.431,-0.907l-1.724,-2.127l-0.595,-2.723l-4.013,-3.103l7.517,1.812l12.132,1.516l0.088,-1.717l-9.52,-6.719l17.295,6.678l0.505,-1.104l3.947,1.145l0.781,-2.657l-20.346,-8.08Z" style="fill:#f6d7d0;fill-opacity:0.4;"/></g><path d="M18.536,57.161l25.542,17.88l3.205,6.711l-23.639,-6.711l-5.108,-17.88Z" style="fill:#574052;"/><clipPath id="_clip12"><path d="M18.536,57.161l25.542,17.88l3.205,6.711l-23.639,-6.711l-5.108,-17.88Z"/></clipPath><g clip-path="url(#_clip12)"><path d="M46.26,4.612l23.361,4.146l20.434,-2.682l-18.32,6.165l-2.114,2.453l2.952,2.236l-5.594,0.683l-2.466,2.242l-5.109,-3.562l-0.889,5.553l-17.597,-3.367l5.247,17.548l-3.954,9.296l0.943,6.876l6.033,20.287l-2.082,4.068l0.641,5.429l-24.102,-6.942l20.434,3.566l-1.612,-1.806l-23.93,-19.64l24.704,14.651l1.549,-0.258l-26.253,-19.502l25.542,15.028l-5.108,-7.139l-1.407,-6.28l-13.919,-9.272l12.442,3.997l-1.19,-2.553l-13.152,-7.502l1.9,-0.498l13.919,6.968l0.344,-1.118l-13.931,-5.684l14.501,3.59l3.571,-6.401l-33.729,-8.678l32.759,4.054l-2.108,-2.33l-5.109,-1.239l0,-5.23l5.109,-1.514l1.698,1.999l-0.177,1.402l-3.875,-0.07l4.298,3.276l0.67,0.494l-1.11,-3.584l0.15,-1.17l-0.431,-0.907l-1.724,-2.127l-0.595,-2.723l-4.013,-3.103l7.517,1.812l12.132,1.516l0.088,-1.717l-9.52,-6.719l17.295,6.678l0.505,-1.104l3.947,1.145l0.781,-2.657l-20.346,-8.08Z" style="fill:#f6d7d0;fill-opacity:0.4;"/></g><path d="M46.207,4.585l-2.129,4.045l20.435,10.217l0,-2.297l5.974,0.175l-3.321,-1.66l2.455,-3.881l-23.414,-6.599Z" style="fill:#6c7157;"/><clipPath id="_clip13"><path d="M46.207,4.585l-2.129,4.045l20.435,10.217l0,-2.297l5.974,0.175l-3.321,-1.66l2.455,-3.881l-23.414,-6.599Z"/></clipPath><g clip-path="url(#_clip13)"><path d="M46.26,4.612l23.361,4.146l20.434,-2.682l-18.32,6.165l-2.114,2.453l2.952,2.236l-5.594,0.683l-2.466,2.242l-5.109,-3.562l-0.889,5.553l-17.597,-3.367l5.247,17.548l-3.954,9.296l0.943,6.876l6.033,20.287l-2.082,4.068l0.641,5.429l-24.102,-6.942l20.434,3.566l-1.612,-1.806l-23.93,-19.64l24.704,14.651l1.549,-0.258l-26.253,-19.502l25.542,15.028l-5.108,-7.139l-1.407,-6.28l-13.919,-9.272l12.442,3.997l-1.19,-2.553l-13.152,-7.502l1.9,-0.498l13.919,6.968l0.344,-1.118l-13.931,-5.684l14.501,3.59l3.571,-6.401l-33.729,-8.678l32.759,4.054l-2.108,-2.33l-5.109,-1.239l0,-5.23l5.109,-1.514l1.698,1.999l-0.177,1.402l-3.875,-0.07l4.298,3.276l0.67,0.494l-1.11,-3.584l0.15,-1.17l-0.431,-0.907l-1.724,-2.127l-0.595,-2.723l-4.013,-3.103l7.517,1.812l12.132,1.516l0.088,-1.717l-9.52,-6.719l17.295,6.678l0.505,-1.104l3.947,1.145l0.781,-2.657l-20.346,-8.08Z" style="fill:#f6d7d0;fill-opacity:0.9;"/></g><g><g><path d="M49.187,34.131l0,36.821l4.606,-2.309l0.502,-11.192l30.652,-41.231l-6.338,3.076l-25.142,30.616l0.326,-8.885l13.817,-16.134l-6.672,3.346l-7.145,8.513l0,-4.93l-4.606,2.309Z" style="fill:#c3454a;"/><path d="M49.187,70.952l4.606,0.759l4.606,-2.31l-4.606,-0.758l-4.606,2.309Z" style="fill:#f6d7d0;"/><path d="M58.399,69.401l0.223,-13.992l-4.829,-0.018l0,13.252l4.606,0.758Z" style="fill:#6c7157;"/><path d="M53.793,55.268l31.154,-39.021l0,4.76l-26.548,34.376l-4.606,-0.115Z" style="fill:#6c7157;"/><path d="M58.407,39.393l9.161,-10.722l0.213,-3.853l-13.988,16.209l4.614,-1.634Z" style="fill:#6c7157;"/><path d="M53.845,31.791l-0.056,4.972l4.05,-4.801l0.013,-2.181l-4.007,2.01Z" style="fill:#574052;"/><path d="M53.793,41.069l4.562,-1.59l-0.258,4.833l-4.615,5.593l0.311,-8.836Z" style="fill:#6c7157;"/></g></g></g></g></g><path d="M86.438,45.99c0,0 2.481,1.153 2.212,3.31c-0.27,2.156 -0.855,2.424 -1.147,8.67c-0.291,6.247 1.6,1.941 1.104,9.666c-0.496,7.724 6.064,5.028 -1.485,12.307c-7.549,7.279 -14.019,11.144 -20.219,7.279c-6.201,-3.864 -8.178,-2.516 -14.289,-0.629c-6.111,1.887 -7.809,1.528 -13.655,1.887c-5.846,0.36 -7.931,-0.772 -16.369,-4.205c-8.438,-3.433 -4.574,-0.917 -10.685,-6.668c-6.11,-5.751 1.342,-7.119 -3.597,-5.582c-4.94,1.538 -11.478,8.727 -5.109,0.549c6.37,-8.177 0.801,-8.901 6.506,-10.067c5.705,-1.166 3.72,-4.114 5.746,-2.236c2.026,1.879 4.471,0.839 4.471,0.839l2.857,11.644l2.858,-3.082c0,0 -0.046,-2.024 2.024,1.196c2.071,3.221 2.672,2.386 4.097,2.665c1.425,0.28 -1.198,1.384 1.425,0.28c2.622,-1.104 1.69,-0.76 3.329,-0.564c1.64,0.196 0.08,-1.736 2.447,0.61c2.367,2.347 2.091,2.991 3.242,2.991c1.15,0 1.38,-0.23 1.38,-0.23l0.487,-1.15l0,-0.89l-7.389,-4.954l0.368,-1.242c0,0 -2.07,-1.104 0.645,0.046c2.714,1.15 2.978,2 4.341,2.058c1.364,0.058 1.548,-0.402 2.606,0.426c1.058,0.829 1.38,1.105 1.38,1.105l2.635,-0.254l0.522,0.26l-1.454,2.294c0,0 0.046,0.368 0.736,0.828c0.69,0.461 -0.68,0.553 0.718,0.599c1.399,0.046 3.343,2.438 5.109,-0.276c1.765,-2.715 1.029,-2.163 2.179,-2.853c1.15,-0.69 -0.322,0.874 1.61,-0.828c1.933,-1.703 1.151,-1.703 2.163,-2.025c1.012,-0.322 1.978,-0.736 1.978,-0.736c0,0 5.153,-1.702 5.015,-4.049c-0.138,-2.346 -1.288,-1.012 -0.138,-2.392c1.151,-1.381 0.389,-2.025 2.518,-2.301c2.129,-0.276 4.66,-0.138 4.66,-0.138l-0.368,2.853c0,0 -1.841,0.736 -2.255,1.196c-0.414,0.46 -1.058,1.196 -1.058,1.196l-2.3,1.427l0.092,1.288l0.23,2.162l0.436,1.474c0,0 1.993,0.533 2.159,-0.516c0.165,-1.05 -0.019,-1.05 0.441,-1.786c0.46,-0.736 0.875,-0.782 1.427,-1.932c0.552,-1.151 1.058,-1.887 1.058,-1.887c0,0 -1.725,0.967 0.587,-0.736c2.312,-1.702 2.588,-0.966 2.588,-2.669c0,-1.702 -0.23,-1.84 0,-2.852c0.23,-1.012 1.131,-1.971 1.131,-1.971l1.389,0.268l0.654,1.243l0.23,2.898l0,2.209l0.599,0.276l1.104,-2.899l0.533,-1.142l1.989,-0.994l1.929,-4.144l-3.991,-3.474l2.062,-2.599l1.502,-3.047" style="fill:#426433;"/><clipPath id="_clip14"><path d="M86.438,45.99c0,0 2.481,1.153 2.212,3.31c-0.27,2.156 -0.855,2.424 -1.147,8.67c-0.291,6.247 1.6,1.941 1.104,9.666c-0.496,7.724 6.064,5.028 -1.485,12.307c-7.549,7.279 -14.019,11.144 -20.219,7.279c-6.201,-3.864 -8.178,-2.516 -14.289,-0.629c-6.111,1.887 -7.809,1.528 -13.655,1.887c-5.846,0.36 -7.931,-0.772 -16.369,-4.205c-8.438,-3.433 -4.574,-0.917 -10.685,-6.668c-6.11,-5.751 1.342,-7.119 -3.597,-5.582c-4.94,1.538 -11.478,8.727 -5.109,0.549c6.37,-8.177 0.801,-8.901 6.506,-10.067c5.705,-1.166 3.72,-4.114 5.746,-2.236c2.026,1.879 4.471,0.839 4.471,0.839l2.857,11.644l2.858,-3.082c0,0 -0.046,-2.024 2.024,1.196c2.071,3.221 2.672,2.386 4.097,2.665c1.425,0.28 -1.198,1.384 1.425,0.28c2.622,-1.104 1.69,-0.76 3.329,-0.564c1.64,0.196 0.08,-1.736 2.447,0.61c2.367,2.347 2.091,2.991 3.242,2.991c1.15,0 1.38,-0.23 1.38,-0.23l0.487,-1.15l0,-0.89l-7.389,-4.954l0.368,-1.242c0,0 -2.07,-1.104 0.645,0.046c2.714,1.15 2.978,2 4.341,2.058c1.364,0.058 1.548,-0.402 2.606,0.426c1.058,0.829 1.38,1.105 1.38,1.105l2.635,-0.254l0.522,0.26l-1.454,2.294c0,0 0.046,0.368 0.736,0.828c0.69,0.461 -0.68,0.553 0.718,0.599c1.399,0.046 3.343,2.438 5.109,-0.276c1.765,-2.715 1.029,-2.163 2.179,-2.853c1.15,-0.69 -0.322,0.874 1.61,-0.828c1.933,-1.703 1.151,-1.703 2.163,-2.025c1.012,-0.322 1.978,-0.736 1.978,-0.736c0,0 5.153,-1.702 5.015,-4.049c-0.138,-2.346 -1.288,-1.012 -0.138,-2.392c1.151,-1.381 0.389,-2.025 2.518,-2.301c2.129,-0.276 4.66,-0.138 4.66,-0.138l-0.368,2.853c0,0 -1.841,0.736 -2.255,1.196c-0.414,0.46 -1.058,1.196 -1.058,1.196l-2.3,1.427l0.092,1.288l0.23,2.162l0.436,1.474c0,0 1.993,0.533 2.159,-0.516c0.165,-1.05 -0.019,-1.05 0.441,-1.786c0.46,-0.736 0.875,-0.782 1.427,-1.932c0.552,-1.151 1.058,-1.887 1.058,-1.887c0,0 -1.725,0.967 0.587,-0.736c2.312,-1.702 2.588,-0.966 2.588,-2.669c0,-1.702 -0.23,-1.84 0,-2.852c0.23,-1.012 1.131,-1.971 1.131,-1.971l1.389,0.268l0.654,1.243l0.23,2.898l0,2.209l0.599,0.276l1.104,-2.899l0.533,-1.142l1.989,-0.994l1.929,-4.144l-3.991,-3.474l2.062,-2.599l1.502,-3.047"/></clipPath><g clip-path="url(#_clip14)"><path d="M94.338,41.544l0,61.302l-56.193,-5.638l27.943,-41.539l28.25,-14.125Z" style="fill:#c4e783;fill-opacity:0.5;"/><path d="M91.665,50.781l0.117,-3.43l-4.21,-0.76c0,0 -1.796,2.623 -2.129,6.077c-0.073,0.756 1.677,1.716 1.563,2.513c-0.677,4.749 -2.055,9.842 -2.07,11.178c-0.029,2.584 1.714,5.616 0,6.964c-1.714,1.348 0.195,2.921 -2.051,3.595c-2.247,0.674 -3.275,6.594 -3.94,0.657c-0.666,-5.937 -1.255,-5.095 -0.511,-6.246c0.744,-1.151 1.393,-1.937 1.393,-1.937l0,-2.475l0,-1.569c0,0 -2.369,1.277 -3.082,3.11c-0.712,1.832 -2.854,6.536 -2.854,6.536c0,0 0.95,1.05 -2.554,3.003c-3.505,1.954 -5.728,2.245 -5.728,2.245c0,0 0.585,1.751 0,0c-0.585,-1.751 2.379,-9.028 2.379,-9.028c0,0 0.92,-1.277 -1.078,-0.539c-1.998,0.739 -3.269,3.926 -5.442,5.421c-2.173,1.496 -3.858,3.293 -3.858,3.293l-1.818,1.053l-0.023,-5.12c0,0 0.429,0.826 -3.526,3.345c-3.956,2.52 -4.695,2.762 -4.695,2.762c0,0 -0.581,1.837 -1.438,-0.719c-0.856,-2.556 -0.479,-1.803 -0.479,-1.803l0.746,-4.348l-2.309,-1.797l0,8.986l-6.93,1.405l-2.331,-0.057l2.092,-6.992c0,0 -0.074,0.14 -3.049,0.14c-2.974,0 -6.004,0.442 -6.004,0.442l-0.501,1.146c0,0 0.273,-0.465 -1.974,-0.24c-2.246,0.225 2.696,3.37 -2.808,-0.225c-5.504,-3.594 -5.776,2.826 -6.539,-4.091c-0.762,-6.917 -1.364,-6.95 -0.557,-7.888c0.806,-0.939 4.4,-0.152 1.03,-1.163c-3.37,-1.011 -3.081,-1.011 -3.081,-1.011c0,0 -1.615,-3.036 -5.108,-1.406c-3.493,1.63 -1.531,0.515 -3.692,3.263c-2.16,2.748 -1.904,-3.105 -6.525,6.954c-4.621,10.06 -12.467,11.149 -4.276,13.188c8.192,2.039 3.939,3.387 19.601,3.387c15.662,0 74.691,4.828 74.691,4.828l6.278,-14.124l-2.72,-28.523Z" style="fill:#9fb366;"/><clipPath id="_clip15"><path d="M91.665,50.781l0.117,-3.43l-4.21,-0.76c0,0 -1.796,2.623 -2.129,6.077c-0.073,0.756 1.677,1.716 1.563,2.513c-0.677,4.749 -2.055,9.842 -2.07,11.178c-0.029,2.584 1.714,5.616 0,6.964c-1.714,1.348 0.195,2.921 -2.051,3.595c-2.247,0.674 -3.275,6.594 -3.94,0.657c-0.666,-5.937 -1.255,-5.095 -0.511,-6.246c0.744,-1.151 1.393,-1.937 1.393,-1.937l0,-2.475l0,-1.569c0,0 -2.369,1.277 -3.082,3.11c-0.712,1.832 -2.854,6.536 -2.854,6.536c0,0 0.95,1.05 -2.554,3.003c-3.505,1.954 -5.728,2.245 -5.728,2.245c0,0 0.585,1.751 0,0c-0.585,-1.751 2.379,-9.028 2.379,-9.028c0,0 0.92,-1.277 -1.078,-0.539c-1.998,0.739 -3.269,3.926 -5.442,5.421c-2.173,1.496 -3.858,3.293 -3.858,3.293l-1.818,1.053l-0.023,-5.12c0,0 0.429,0.826 -3.526,3.345c-3.956,2.52 -4.695,2.762 -4.695,2.762c0,0 -0.581,1.837 -1.438,-0.719c-0.856,-2.556 -0.479,-1.803 -0.479,-1.803l0.746,-4.348l-2.309,-1.797l0,8.986l-6.93,1.405l-2.331,-0.057l2.092,-6.992c0,0 -0.074,0.14 -3.049,0.14c-2.974,0 -6.004,0.442 -6.004,0.442l-0.501,1.146c0,0 0.273,-0.465 -1.974,-0.24c-2.246,0.225 2.696,3.37 -2.808,-0.225c-5.504,-3.594 -5.776,2.826 -6.539,-4.091c-0.762,-6.917 -1.364,-6.95 -0.557,-7.888c0.806,-0.939 4.4,-0.152 1.03,-1.163c-3.37,-1.011 -3.081,-1.011 -3.081,-1.011c0,0 -1.615,-3.036 -5.108,-1.406c-3.493,1.63 -1.531,0.515 -3.692,3.263c-2.16,2.748 -1.904,-3.105 -6.525,6.954c-4.621,10.06 -12.467,11.149 -4.276,13.188c8.192,2.039 3.939,3.387 19.601,3.387c15.662,0 74.691,4.828 74.691,4.828l6.278,-14.124l-2.72,-28.523Z"/></clipPath><g clip-path="url(#_clip15)"><path d="M94.338,41.544l0,61.302l-56.193,-5.638l27.943,-41.539l28.25,-14.125Z" style="fill:#c4e783;fill-opacity:0.5;"/></g><path d="M45.61,65.908l-38.117,19.058l-10.217,-10.217l17.381,-24.016l30.953,15.175Z" style="fill-opacity:0.5;"/></g></g><path d="M51.596,1.24c0,0 10.588,-0.47 16.907,-0.029c6.32,0.441 9.304,-0.716 10.217,0c0.914,0.716 7.388,3.023 7.45,3.725c0.061,0.702 -2.681,4.138 -2.341,6.2c0.34,2.061 -2.264,-6.539 0,2.847c2.264,9.385 4.792,11.721 5.108,14.333c0.317,2.611 1.022,8.144 1.022,8.144c0,0 -5.233,-1.624 -6.13,-7.152c-0.897,-5.528 1.577,-3.878 -1.996,-7.864c-3.574,-3.986 -1.8,-2.585 -4.268,-5.485c-2.467,-2.899 -1.416,-5.058 -2.835,-2.535c-1.419,2.522 -1.203,0.717 -3.991,4.231c-2.788,3.514 -4.301,5.023 -4.301,5.023c0,0 -3.758,1.555 -6.551,-1.833c-2.794,-3.387 -3.253,-3.482 -3.253,-3.482l-0.365,-3.204c0,0 -3.157,-3.445 -4.946,-1.104c-1.789,2.341 -3.254,3.482 -3.254,3.482c0,0 -4.076,-4.77 0,0c4.077,4.769 5.109,5.869 5.109,5.869c0,0 0.482,0.701 0,1.794c-0.483,1.092 -2.817,3.7 -2.817,3.7c0,0 -5.347,-1.203 -5.767,-4.517c-0.42,-3.314 0.727,-1.697 -1.633,-4.292c-2.36,-2.595 -0.71,-6.224 -5.109,-2.554c-4.398,3.67 -3.435,5.869 0,8.205c3.436,2.337 0.459,3.574 5.109,7.01c4.649,3.436 7.904,6.872 5.108,7.284c-2.795,0.412 -8.705,-0.007 -10.217,-2.065c-1.512,-2.058 1.518,-3.283 -3.914,-3.151c-5.432,0.131 -11.411,0.597 -11.411,0.597l0,5.108c0,0 1.03,-0.077 0,2.947c-1.03,3.024 -1.875,8.207 -1.875,8.207c0,0 -3.327,-0.562 -3.234,-3.491c0.093,-2.929 -0.093,-4.264 0,-5.108c0.093,-0.845 -0.23,-0.433 0,-2.632c0.23,-2.199 0.595,-2.611 0,-4.81c-0.594,-2.199 -5.108,-5.33 -5.108,-5.33l0,-2.916c0,0 -0.804,-0.948 0,-2.192c0.803,-1.244 -0.358,-2.909 2.628,-3.795c2.985,-0.885 0.649,1.589 3.672,-1.16c3.024,-2.749 -1.238,-2.749 3.917,-3.986c5.154,-1.237 7.101,-2.244 8.601,-2.084c1.501,0.16 1.776,-0.665 3.013,-1.902c1.237,-1.237 -2.048,0.111 1.175,-1.113c3.223,-1.223 2.536,-1.361 2.536,-1.361c0,0 -0.463,0.651 2.586,-1.186c3.049,-1.837 0.653,-1.994 4.187,-3.015c3.535,-1.021 6.971,-3.358 6.971,-3.358Z" style="fill:#426433;"/><clipPath id="_clip16"><path d="M51.596,1.24c0,0 10.588,-0.47 16.907,-0.029c6.32,0.441 9.304,-0.716 10.217,0c0.914,0.716 7.388,3.023 7.45,3.725c0.061,0.702 -2.681,4.138 -2.341,6.2c0.34,2.061 -2.264,-6.539 0,2.847c2.264,9.385 4.792,11.721 5.108,14.333c0.317,2.611 1.022,8.144 1.022,8.144c0,0 -5.233,-1.624 -6.13,-7.152c-0.897,-5.528 1.577,-3.878 -1.996,-7.864c-3.574,-3.986 -1.8,-2.585 -4.268,-5.485c-2.467,-2.899 -1.416,-5.058 -2.835,-2.535c-1.419,2.522 -1.203,0.717 -3.991,4.231c-2.788,3.514 -4.301,5.023 -4.301,5.023c0,0 -3.758,1.555 -6.551,-1.833c-2.794,-3.387 -3.253,-3.482 -3.253,-3.482l-0.365,-3.204c0,0 -3.157,-3.445 -4.946,-1.104c-1.789,2.341 -3.254,3.482 -3.254,3.482c0,0 -4.076,-4.77 0,0c4.077,4.769 5.109,5.869 5.109,5.869c0,0 0.482,0.701 0,1.794c-0.483,1.092 -2.817,3.7 -2.817,3.7c0,0 -5.347,-1.203 -5.767,-4.517c-0.42,-3.314 0.727,-1.697 -1.633,-4.292c-2.36,-2.595 -0.71,-6.224 -5.109,-2.554c-4.398,3.67 -3.435,5.869 0,8.205c3.436,2.337 0.459,3.574 5.109,7.01c4.649,3.436 7.904,6.872 5.108,7.284c-2.795,0.412 -8.705,-0.007 -10.217,-2.065c-1.512,-2.058 1.518,-3.283 -3.914,-3.151c-5.432,0.131 -11.411,0.597 -11.411,0.597l0,5.108c0,0 1.03,-0.077 0,2.947c-1.03,3.024 -1.875,8.207 -1.875,8.207c0,0 -3.327,-0.562 -3.234,-3.491c0.093,-2.929 -0.093,-4.264 0,-5.108c0.093,-0.845 -0.23,-0.433 0,-2.632c0.23,-2.199 0.595,-2.611 0,-4.81c-0.594,-2.199 -5.108,-5.33 -5.108,-5.33l0,-2.916c0,0 -0.804,-0.948 0,-2.192c0.803,-1.244 -0.358,-2.909 2.628,-3.795c2.985,-0.885 0.649,1.589 3.672,-1.16c3.024,-2.749 -1.238,-2.749 3.917,-3.986c5.154,-1.237 7.101,-2.244 8.601,-2.084c1.501,0.16 1.776,-0.665 3.013,-1.902c1.237,-1.237 -2.048,0.111 1.175,-1.113c3.223,-1.223 2.536,-1.361 2.536,-1.361c0,0 -0.463,0.651 2.586,-1.186c3.049,-1.837 0.653,-1.994 4.187,-3.015c3.535,-1.021 6.971,-3.358 6.971,-3.358Z"/></clipPath><g clip-path="url(#_clip16)"><path d="M77.316,-10.73l17.752,48.425l-38.834,-12.989l-15.23,-22.941l36.312,-12.495" style="fill:#c4e783;fill-opacity:0.5;"/><path d="M75.472,-2.273c0.176,3.513 2.748,4.888 3.248,6.812c0.501,1.924 -0.638,0.824 0,4.535c0.639,3.711 3.298,9.112 3.298,9.112c0,0 0.325,1.883 -3.298,-4.301c-3.622,-6.185 -1.509,-7.01 -5.108,-6.872c-3.599,0.137 -4.969,1.237 -5.109,3.023c-0.139,1.787 2.477,-2.988 0,1.392c-2.476,4.381 -2.201,5.205 -3.85,5.068c-1.65,-0.137 -7.316,-4.334 -7.988,-5.878c-0.671,-1.544 -3.487,-4.43 -3.487,-4.43c0,0 0.342,-1.374 -1.445,-0.137c-1.786,1.236 -2.243,-0.825 -3.664,2.199c-1.421,3.023 -1.965,1.935 -2.174,4.266c-0.209,2.331 0.327,1.259 0.746,3.307c0.419,2.047 2.579,2.93 3.011,5.031c0.432,2.102 3.038,1.425 0.773,1.969c-2.265,0.545 -4.882,-1.506 -5.223,-2.611c-0.341,-1.105 -0.08,-3.138 -0.485,-5.351c-0.405,-2.213 0.466,-2.626 -1.756,-4.138c-2.223,-1.511 -1.947,-4.26 -5.109,-2.748c-3.161,1.512 -5.131,5.006 -5.108,6.008c0.023,1.001 -3.537,-2.956 -3.131,1.565c0.405,4.521 -0.191,8.782 3.131,10.706c3.321,1.924 5.108,3.024 5.108,3.024c0,0 -7.239,4.261 -10.217,1.512c-2.977,-2.749 -1.603,-3.849 -6.276,-4.261c-4.673,-0.412 -0.107,-2.26 -6.925,-1.267c-6.819,0.992 -12.341,4.046 -12.341,4.046c0,0 -15.31,-21.176 1.703,-24.691c17.013,-3.514 47.804,-13.676 51.857,-12.306c4.052,1.37 19.643,1.903 19.819,5.416Z" style="fill:#9fb366;"/><clipPath id="_clip17"><path d="M75.472,-2.273c0.176,3.513 2.748,4.888 3.248,6.812c0.501,1.924 -0.638,0.824 0,4.535c0.639,3.711 3.298,9.112 3.298,9.112c0,0 0.325,1.883 -3.298,-4.301c-3.622,-6.185 -1.509,-7.01 -5.108,-6.872c-3.599,0.137 -4.969,1.237 -5.109,3.023c-0.139,1.787 2.477,-2.988 0,1.392c-2.476,4.381 -2.201,5.205 -3.85,5.068c-1.65,-0.137 -7.316,-4.334 -7.988,-5.878c-0.671,-1.544 -3.487,-4.43 -3.487,-4.43c0,0 0.342,-1.374 -1.445,-0.137c-1.786,1.236 -2.243,-0.825 -3.664,2.199c-1.421,3.023 -1.965,1.935 -2.174,4.266c-0.209,2.331 0.327,1.259 0.746,3.307c0.419,2.047 2.579,2.93 3.011,5.031c0.432,2.102 3.038,1.425 0.773,1.969c-2.265,0.545 -4.882,-1.506 -5.223,-2.611c-0.341,-1.105 -0.08,-3.138 -0.485,-5.351c-0.405,-2.213 0.466,-2.626 -1.756,-4.138c-2.223,-1.511 -1.947,-4.26 -5.109,-2.748c-3.161,1.512 -5.131,5.006 -5.108,6.008c0.023,1.001 -3.537,-2.956 -3.131,1.565c0.405,4.521 -0.191,8.782 3.131,10.706c3.321,1.924 5.108,3.024 5.108,3.024c0,0 -7.239,4.261 -10.217,1.512c-2.977,-2.749 -1.603,-3.849 -6.276,-4.261c-4.673,-0.412 -0.107,-2.26 -6.925,-1.267c-6.819,0.992 -12.341,4.046 -12.341,4.046c0,0 -15.31,-21.176 1.703,-24.691c17.013,-3.514 47.804,-13.676 51.857,-12.306c4.052,1.37 19.643,1.903 19.819,5.416Z"/></clipPath><g clip-path="url(#_clip17)"><path d="M77.316,-10.73l17.752,48.425l-38.834,-12.989l-15.23,-22.941l36.312,-12.495" style="fill:#c4e783;fill-opacity:0.5;"/></g><path d="M3.114,20.801c3.174,-0.143 45.977,15.659 45.977,15.659l-40.868,20.434l-5.109,-36.093" style="fill-opacity:0.5;"/></g></g></svg>