<?xml version="1.0" encoding="UTF-8" standalone="no"?><!DOCTYPE svg PUBLIC "-//W3C//DTD SVG 1.1//EN" "http://www.w3.org/Graphics/SVG/1.1/DTD/svg11.dtd"><svg width="100%" height="100%" viewBox="0 0 91 105" version="1.1" xmlns="http://www.w3.org/2000/svg" xmlns:xlink="http://www.w3.org/1999/xlink" xml:space="preserve" xmlns:serif="http://www.serif.com/" style="fill-rule:evenodd;clip-rule:evenodd;stroke-linejoin:round;stroke-miterlimit:1.41421;"><g id="F_Runestone_grass_1"><g id="F_Runestone_runes_1"><g><g><g><path d="M61.013,0.56l20.435,10.217l-20.435,10.217l-20.434,-10.217l20.434,-10.217Z" style="fill:#9da8c9;"/><clipPath id="_clip1"><path d="M61.013,0.56l20.435,10.217l-20.435,10.217l-20.434,-10.217l20.434,-10.217Z"/></clipPath><g clip-path="url(#_clip1)"><path d="M81.448,10.777l-20.435,7.207l-20.434,-7.207l16.529,11.037l-2.016,4.234l-4.296,0.054l-20.434,-10.217l15.326,9.861l-14.487,7.762l-21.273,-7.406l18.954,12.849l-0.446,18.766l-18.508,-6.072l5.109,2.554l15.325,10.055l2.855,-2.621l-2.855,7.762l-20.434,-7.533l18.752,12.069l1.682,23.691l1.936,-24.575l4.714,-14.51l-4.299,0.676l0.403,-5.141l-1.311,-16.129l18.225,-7.115l8.697,-0.76l5.176,-7.63l17.545,-11.661Z" style="fill:#f6d7d0;fill-opacity:0.9;"/></g><path d="M30.362,15.885l-20.434,10.217l20.434,10.217l20.434,-10.217l-20.434,-10.217" style="fill:#9da8c9;"/><clipPath id="_clip2"><path d="M30.362,15.885l-20.434,10.217l20.434,10.217l20.434,-10.217l-20.434,-10.217"/></clipPath><g clip-path="url(#_clip2)"><path d="M81.448,10.777l-20.435,7.207l-20.434,-7.207l16.529,11.037l-2.016,4.234l-4.296,0.054l-20.434,-10.217l15.326,9.861l-14.487,7.762l-21.273,-7.406l18.954,12.849l-0.446,18.766l-18.508,-6.072l5.109,2.554l15.325,10.055l2.855,-2.621l-2.855,7.762l-20.434,-7.533l18.752,12.069l1.682,23.691l1.936,-24.575l4.714,-14.51l-4.299,0.676l0.403,-5.141l-1.311,-16.129l18.225,-7.115l8.697,-0.76l5.176,-7.63l17.545,-11.661Z" style="fill:#f6d7d0;fill-opacity:0.9;"/></g><path d="M40.579,10.777l-5.108,7.662l20.434,10.218l5.108,-7.663l-20.434,-10.217Z" style="fill:#6c7157;"/><clipPath id="_clip3"><path d="M40.579,10.777l-5.108,7.662l20.434,10.218l5.108,-7.663l-20.434,-10.217Z"/></clipPath><g clip-path="url(#_clip3)"><path d="M84.079,69.429l-10.72,-7.911l-2.055,-16.353l-2.976,16.814l10.719,12.6l-15.707,10.328l-3.667,-13.492l1.414,-10.924l-5.108,4.654l0,13.225l-13.317,3.559l10.938,2.739l-11.142,12.485l-6.913,-10.65l-5.109,-3.656l-18.08,9.472l15.264,0.231l12.413,0.867l-4.488,7.709l-30.651,0.962l-2.388,-27.632l7.496,6.469l6.793,1.712l3.424,-1.712l-7.428,-3.714l-4.456,-12.446l-0.849,-23.451l12.733,8.96l1.983,4.117l1.42,-5.819l-3.403,-3.407l-11.817,-14.526l4.26,-17.455l17.774,16.655l-5.108,-17.879l11.544,-5.773l8.89,-4.444l7.847,9.032l4.367,5.294l3.111,-1.555l5.109,-4.978l-5.109,-3.078l0,2.947l-5.108,-2.554l2.564,-3.826l12.761,4.01l7.677,1.1l7.649,10.83l-1.661,12.598l1.661,31.482l7.734,-67.653l-72.439,-2.165l-40.256,53.097l18.116,65.252l76.628,-0.636l7.666,-41.511" style="fill:#8d323a;fill-opacity:0.7;"/><path d="M81.448,10.777l-20.435,7.207l-20.434,-7.207l16.529,11.037l-2.016,4.234l-4.296,0.054l-20.434,-10.217l15.326,9.861l-14.487,7.762l-21.273,-7.406l18.954,12.849l-0.446,18.766l-18.508,-6.072l5.109,2.554l15.325,10.055l2.855,-2.621l-2.855,7.762l-20.434,-7.533l18.752,12.069l1.682,23.691l1.936,-24.575l4.714,-14.51l-4.299,0.676l0.403,-5.141l-1.311,-16.129l18.225,-7.115l8.697,-0.76l5.176,-7.63l17.545,-11.661Z" style="fill:#f6d7d0;fill-opacity:0.9;"/></g><path d="M81.448,10.777l-20.435,10.217l-5.108,7.663l-5.109,-2.555l-20.434,10.217l0,25.543l5.109,-2.554l-5.109,12.771l0,25.543l20.434,-10.217l0,-5.109l5.109,-2.554l5.108,2.554l20.435,-10.217l0,-30.651l-5.109,2.554l5.109,-12.771l0,-20.434" style="fill:#bac1d8;"/><clipPath id="_clip4"><path d="M81.448,10.777l-20.435,10.217l-5.108,7.663l-5.109,-2.555l-20.434,10.217l0,25.543l5.109,-2.554l-5.109,12.771l0,25.543l20.434,-10.217l0,-5.109l5.109,-2.554l5.108,2.554l20.435,-10.217l0,-30.651l-5.109,2.554l5.109,-12.771l0,-20.434"/></clipPath><g clip-path="url(#_clip4)"><path d="M81.448,10.777l-20.435,7.207l-20.434,-7.207l16.529,11.037l-2.016,4.234l-4.296,0.054l-20.434,-10.217l15.326,9.861l-14.487,7.762l-21.273,-7.406l18.954,12.849l-0.446,18.766l-18.508,-6.072l5.109,2.554l15.325,10.055l2.855,-2.621l-2.855,7.762l-20.434,-7.533l18.752,12.069l1.682,23.691l1.936,-24.575l4.714,-14.51l-4.299,0.676l0.403,-5.141l-1.311,-16.129l18.225,-7.115l8.697,-0.76l5.176,-7.63l17.545,-11.661Z" style="fill:#f6d7d0;fill-opacity:0.9;"/></g><path d="M9.928,26.102l20.434,10.217l0,25.543l-20.434,-10.217l0,-25.543Z" style="fill:#6c7157;"/><clipPath id="_clip5"><path d="M9.928,26.102l20.434,10.217l0,25.543l-20.434,-10.217l0,-25.543Z"/></clipPath><g clip-path="url(#_clip5)"><path d="M81.448,10.777l-20.435,7.207l-20.434,-7.207l16.529,11.037l-2.016,4.234l-4.296,0.054l-20.434,-10.217l15.326,9.861l-14.487,7.762l-21.273,-7.406l18.954,12.849l-0.446,18.766l-18.508,-6.072l5.109,2.554l15.325,10.055l2.855,-2.621l-2.855,7.762l-20.434,-7.533l18.752,12.069l1.682,23.691l1.936,-24.575l4.714,-14.51l-4.299,0.676l0.403,-5.141l-1.311,-16.129l18.225,-7.115l8.697,-0.76l5.176,-7.63l17.545,-11.661Z" style="fill:#f6d7d0;fill-opacity:0.4;"/></g><path d="M30.362,97.622l-20.434,-10.217l0,-25.543l20.434,10.217l0,25.543" style="fill:#6c7157;"/><clipPath id="_clip6"><path d="M30.362,97.622l-20.434,-10.217l0,-25.543l20.434,10.217l0,25.543"/></clipPath><g clip-path="url(#_clip6)"><path d="M81.448,10.777l-20.435,7.207l-20.434,-7.207l16.529,11.037l-2.016,4.234l-4.296,0.054l-20.434,-10.217l15.326,9.861l-14.487,7.762l-21.273,-7.406l18.954,12.849l-0.446,18.766l-18.508,-6.072l5.109,2.554l15.325,10.055l2.855,-2.621l-2.855,7.762l-20.434,-7.533l18.752,12.069l1.682,23.691l1.936,-24.575l4.714,-14.51l-4.299,0.676l0.403,-5.141l-1.311,-16.129l18.225,-7.115l8.697,-0.76l5.176,-7.63l17.545,-11.661Z" style="fill:#f6d7d0;fill-opacity:0.4;"/></g><path d="M9.928,51.645l5.109,2.554l-5.109,7.663l20.434,10.217l5.109,-12.771l-5.109,2.554l-20.434,-10.217Z" style="fill:#574052;"/><clipPath id="_clip7"><path d="M9.928,51.645l5.109,2.554l-5.109,7.663l20.434,10.217l5.109,-12.771l-5.109,2.554l-20.434,-10.217Z"/></clipPath><g clip-path="url(#_clip7)"><path d="M81.448,10.777l-20.435,7.207l-20.434,-7.207l16.529,11.037l-2.016,4.234l-4.296,0.054l-20.434,-10.217l15.326,9.861l-14.487,7.762l-21.273,-7.406l18.954,12.849l-0.446,18.766l-18.508,-6.072l5.109,2.554l15.325,10.055l2.855,-2.621l-2.855,7.762l-20.434,-7.533l18.752,12.069l1.682,23.691l1.936,-24.575l4.714,-14.51l-4.299,0.676l0.403,-5.141l-1.311,-16.129l18.225,-7.115l8.697,-0.76l5.176,-7.63l17.545,-11.661Z" style="fill:#f6d7d0;fill-opacity:0.4;"/></g></g><g><path d="M40.579,43.941l0,36.821l4.606,-2.31l0.503,-11.192l30.651,-41.23l-6.337,3.076l-25.143,30.616l0.326,-8.885l13.818,-16.134l-6.673,3.346l-7.145,8.513l0,-4.93l-4.606,2.309Z" style="fill:#c3454a;"/><path d="M40.579,80.762l4.606,0.759l4.606,-2.31l-4.606,-0.759l-4.606,2.31Z" style="fill:#f6d7d0;"/><path d="M49.791,79.211l0.223,-13.993l-4.829,-0.018l0,13.252l4.606,0.759Z" style="fill:#6c7157;"/><path d="M45.185,65.078l31.154,-39.021l0,4.76l-26.548,34.375l-4.606,-0.114Z" style="fill:#6c7157;"/><path d="M49.8,49.203l9.16,-10.723l0.214,-3.852l-13.989,16.209l4.615,-1.634Z" style="fill:#6c7157;"/><path d="M45.237,41.6l-0.055,4.973l4.049,-4.801l0.013,-2.182l-4.007,2.01Z" style="fill:#574052;"/><path d="M45.186,50.879l4.561,-1.591l-0.257,4.834l-4.616,5.593l0.312,-8.836Z" style="fill:#6c7157;"/></g></g></g></g><path d="M81.254,51.399c0,0 9.856,8.577 8.777,14.606c-1.079,6.028 -3.229,13.233 -7.853,14.308c-1.72,0.4 0.847,2.21 -2.512,4.143c-0.176,0.102 -0.635,2.32 -0.823,2.423c-1.408,0.769 -16.227,7.243 -18.023,7.836c-5.677,1.875 0.864,-2.886 0,-2.448c-1.867,0.949 -9.278,-1.076 -18.368,4.076c-0.9,0.51 6.362,-0.801 5.508,-0.289c-7.774,4.667 -21.894,10.899 -28.008,8.235c-5.758,-2.509 -13.904,-2.61 -17.243,-6.763c-0.596,-0.741 2.436,-0.007 1.918,-1.167c-3.422,-7.661 -4.632,-9.677 -2.213,-14.113c0.371,-0.68 -2.212,0.031 -1.837,-0.725c2.07,-4.177 7.027,-10.585 7.482,-12.178c0.538,-1.882 1.676,-2.618 1.676,-2.618l0,15.325c1.439,-0.257 2.787,-0.709 5.109,0.915c1.379,0.443 2.569,0.88 3.599,1.313c0.669,0.282 3.818,0.011 4.36,0.291c7.442,3.83 1.155,8.023 7.366,12.807l3.966,-3.126c1.596,-2.547 5.9,-2.495 9.298,-3.506c2.588,-0.77 1.703,-3.862 4.891,-4.725l5.763,-2.227l1.625,-4.296c-0.489,-1.368 -0.424,-2.743 1.91,-4.153c0.587,0.424 1.04,1.66 1.516,1.284c1.151,-0.91 0.484,0.521 0.685,0.783c1.153,1.507 1.415,3.058 0.997,4.64c3.435,-4.107 4.416,-5.117 7.045,-6.694c1.078,-0.647 2.156,0.061 3.776,0.057c0.821,-0.002 1.43,-0.894 2.327,-1.148c0.698,-0.198 1.723,0.251 2.178,0.123c0.902,-0.256 0.306,-1.398 0.877,-1.831c1.052,-0.798 3.03,-0.905 4.231,-0.724c0.005,-0.566 -1.712,-1.455 -1.709,-2.022c0.008,-1.369 1.578,-1.739 1.709,-3.086c0.467,-4.783 0.008,-10.451 0,-15.326Z" style="fill:#426433;"/><clipPath id="_clip8"><path d="M81.254,51.399c0,0 9.856,8.577 8.777,14.606c-1.079,6.028 -3.229,13.233 -7.853,14.308c-1.72,0.4 0.847,2.21 -2.512,4.143c-0.176,0.102 -0.635,2.32 -0.823,2.423c-1.408,0.769 -16.227,7.243 -18.023,7.836c-5.677,1.875 0.864,-2.886 0,-2.448c-1.867,0.949 -9.278,-1.076 -18.368,4.076c-0.9,0.51 6.362,-0.801 5.508,-0.289c-7.774,4.667 -21.894,10.899 -28.008,8.235c-5.758,-2.509 -13.904,-2.61 -17.243,-6.763c-0.596,-0.741 2.436,-0.007 1.918,-1.167c-3.422,-7.661 -4.632,-9.677 -2.213,-14.113c0.371,-0.68 -2.212,0.031 -1.837,-0.725c2.07,-4.177 7.027,-10.585 7.482,-12.178c0.538,-1.882 1.676,-2.618 1.676,-2.618l0,15.325c1.439,-0.257 2.787,-0.709 5.109,0.915c1.379,0.443 2.569,0.88 3.599,1.313c0.669,0.282 3.818,0.011 4.36,0.291c7.442,3.83 1.155,8.023 7.366,12.807l3.966,-3.126c1.596,-2.547 5.9,-2.495 9.298,-3.506c2.588,-0.77 1.703,-3.862 4.891,-4.725l5.763,-2.227l1.625,-4.296c-0.489,-1.368 -0.424,-2.743 1.91,-4.153c0.587,0.424 1.04,1.66 1.516,1.284c1.151,-0.91 0.484,0.521 0.685,0.783c1.153,1.507 1.415,3.058 0.997,4.64c3.435,-4.107 4.416,-5.117 7.045,-6.694c1.078,-0.647 2.156,0.061 3.776,0.057c0.821,-0.002 1.43,-0.894 2.327,-1.148c0.698,-0.198 1.723,0.251 2.178,0.123c0.902,-0.256 0.306,-1.398 0.877,-1.831c1.052,-0.798 3.03,-0.905 4.231,-0.724c0.005,-0.566 -1.712,-1.455 -1.709,-2.022c0.008,-1.369 1.578,-1.739 1.709,-3.086c0.467,-4.783 0.008,-10.451 0,-15.326Z"/></clipPath><g clip-path="url(#_clip8)"><path d="M84.317,45.844l19.321,40.312l-81.441,30.799l53.134,-50.061l3.663,-22.265l5.323,1.215Z" style="fill:#c4e783;fill-opacity:0.5;"/><path d="M91.471,56.508c0.018,-1.108 -5.108,2.554 -5.108,2.554l-1.934,6.075l0.416,3.383l0.242,5.23l-1.006,1.779c0,0 1.051,0.273 -2.827,1.413c-3.877,1.139 -7.243,1.487 -7.243,1.487l-2.974,0.661l-2.363,1.779l-2.745,3.736l-5.109,2.554l-1.609,-0.805l1.609,-4.304l-2.724,-1.362l-0.834,4.692l0.672,0.336l-2.222,2.11l-5.109,1.344l-3.041,-0.49l-2.067,4.018l-5.109,-0.431l-1.762,0.882c0,0 0.221,0.84 -2.102,2.295c-2.324,1.455 -1.596,1.006 -4.396,2.91c-2.8,1.905 -4.664,2.777 -4.664,2.777c0,0 -1.458,6.016 -2.401,0.976c-0.943,-5.04 2.791,-3.36 0,-5.544c-2.792,-2.185 0.322,-2.196 -2.411,-2.946c-2.733,-0.751 -6.328,-0.032 -7.806,1.205c-1.479,1.237 0.072,4.842 -1.88,0.939c-1.951,-3.903 -2.491,-3.903 -3.229,-6.591c-0.738,-2.688 -1.332,-2.677 -1.332,-2.677l-1.21,-0.605l-2.566,-1.283c0,0 -1.178,1.205 0,-1.483c1.177,-2.688 5.374,-1.539 0,-3.626c-5.375,-2.087 -6.55,-2.588 -9.071,-0.573c-2.52,2.015 -4.287,-5.036 -3.404,9.662c0.884,14.698 -12.459,17.358 5.805,23.336c18.264,5.979 13.398,8.656 32.212,5.889c18.814,-2.766 20.479,-2.43 30.651,-7.807c10.172,-5.376 11.476,1.089 21.913,-11.888c10.436,-12.977 10.369,-9.812 13.847,-18.619c3.478,-8.807 7.915,-10.991 5.109,-14.183c-2.807,-3.192 -10.235,-7.698 -10.218,-8.805Z" style="fill:#9fb366;"/><clipPath id="_clip9"><path d="M91.471,56.508c0.018,-1.108 -5.108,2.554 -5.108,2.554l-1.934,6.075l0.416,3.383l0.242,5.23l-1.006,1.779c0,0 1.051,0.273 -2.827,1.413c-3.877,1.139 -7.243,1.487 -7.243,1.487l-2.974,0.661l-2.363,1.779l-2.745,3.736l-5.109,2.554l-1.609,-0.805l1.609,-4.304l-2.724,-1.362l-0.834,4.692l0.672,0.336l-2.222,2.11l-5.109,1.344l-3.041,-0.49l-2.067,4.018l-5.109,-0.431l-1.762,0.882c0,0 0.221,0.84 -2.102,2.295c-2.324,1.455 -1.596,1.006 -4.396,2.91c-2.8,1.905 -4.664,2.777 -4.664,2.777c0,0 -1.458,6.016 -2.401,0.976c-0.943,-5.04 2.791,-3.36 0,-5.544c-2.792,-2.185 0.322,-2.196 -2.411,-2.946c-2.733,-0.751 -6.328,-0.032 -7.806,1.205c-1.479,1.237 0.072,4.842 -1.88,0.939c-1.951,-3.903 -2.491,-3.903 -3.229,-6.591c-0.738,-2.688 -1.332,-2.677 -1.332,-2.677l-1.21,-0.605l-2.566,-1.283c0,0 -1.178,1.205 0,-1.483c1.177,-2.688 5.374,-1.539 0,-3.626c-5.375,-2.087 -6.55,-2.588 -9.071,-0.573c-2.52,2.015 -4.287,-5.036 -3.404,9.662c0.884,14.698 -12.459,17.358 5.805,23.336c18.264,5.979 13.398,8.656 32.212,5.889c18.814,-2.766 20.479,-2.43 30.651,-7.807c10.172,-5.376 11.476,1.089 21.913,-11.888c10.436,-12.977 10.369,-9.812 13.847,-18.619c3.478,-8.807 7.915,-10.991 5.109,-14.183c-2.807,-3.192 -10.235,-7.698 -10.218,-8.805Z"/></clipPath><g clip-path="url(#_clip9)"><path d="M84.317,45.844l19.321,40.312l-81.441,30.799l53.134,-50.061l3.663,-22.265l5.323,1.215Z" style="fill:#c4e783;fill-opacity:0.5;"/></g><path d="M20.838,75.407l-19.492,33.589l-12.86,-32.78c0,0 18.887,-21.303 20.435,-19.585c1.548,1.718 11.917,18.776 11.917,18.776Z" style="fill-opacity:0.5;"/></g></g></svg>