<?xml version="1.0" encoding="UTF-8" standalone="no"?><!DOCTYPE svg PUBLIC "-//W3C//DTD SVG 1.1//EN" "http://www.w3.org/Graphics/SVG/1.1/DTD/svg11.dtd"><svg width="100%" height="100%" viewBox="0 0 72 98" version="1.1" xmlns="http://www.w3.org/2000/svg" xmlns:xlink="http://www.w3.org/1999/xlink" xml:space="preserve" xmlns:serif="http://www.serif.com/" style="fill-rule:evenodd;clip-rule:evenodd;stroke-linejoin:round;stroke-miterlimit:1.41421;"><g id="N_Runestone_runes_1"><g><g><g><path d="M51.154,0.933l20.434,10.217l-20.434,10.217l-20.434,-10.217l20.434,-10.217Z" style="fill:#9da8c9;"/><clipPath id="_clip1"><path d="M51.154,0.933l20.434,10.217l-20.434,10.217l-20.434,-10.217l20.434,-10.217Z"/></clipPath><g clip-path="url(#_clip1)"><path d="M74.219,69.802l-10.719,-7.911l-2.055,-16.353l-2.977,16.814l10.72,12.6l-15.707,10.328l-3.668,-13.492l1.415,-10.924l-5.109,4.654l0,13.225l-13.317,3.559l10.938,2.739l-11.142,12.485l-6.913,-10.65l-5.108,-3.656l-18.08,9.472l15.264,0.231l12.412,0.867l-4.488,7.709l-30.651,0.962l-2.387,-27.632l7.496,6.469l6.792,1.712l3.425,-1.712l-7.429,-3.714l-4.456,-12.446l-0.848,-23.451l12.733,8.96l1.982,4.117l1.421,-5.819l-3.403,-3.407l-11.817,-14.526l4.26,-17.455l17.774,16.655l-5.109,-17.879l11.545,-5.773l8.889,-4.444l7.848,9.032l4.367,5.294l3.111,-1.555l5.108,-4.978l-5.108,-3.078l0,2.947l-5.109,-2.554l2.564,-3.826l12.762,4.01l7.677,1.1l7.648,10.83l-1.66,12.598l1.66,31.482l7.734,-67.653l-72.438,-2.165l-40.256,53.097l18.115,65.252l76.628,-0.636l7.666,-41.511" style="fill:#8d323a;fill-opacity:0.7;"/><path d="M71.588,11.15l-20.434,7.207l-20.434,-7.207l16.528,11.037l-2.016,4.234l-4.295,0.054l-20.434,-10.217l15.325,9.861l-14.487,7.762l-21.272,-7.406l18.954,12.849l-0.446,18.766l-18.508,-6.072l5.108,2.554l15.326,10.055l2.854,-2.621l-2.854,7.762l-20.434,-7.533l18.752,12.069l1.682,23.691l1.935,-24.575l4.714,-14.51l-4.299,0.676l0.403,-5.141l-1.31,-16.129l18.225,-7.115l8.696,-0.76l5.176,-7.63l17.545,-11.661Z" style="fill:#f6d7d0;fill-opacity:0.9;"/></g><path d="M20.503,16.258l-20.434,10.217l20.434,10.217l20.434,-10.217l-20.434,-10.217" style="fill:#9da8c9;"/><clipPath id="_clip2"><path d="M20.503,16.258l-20.434,10.217l20.434,10.217l20.434,-10.217l-20.434,-10.217"/></clipPath><g clip-path="url(#_clip2)"><path d="M74.219,69.802l-10.719,-7.911l-2.055,-16.353l-2.977,16.814l10.72,12.6l-15.707,10.328l-3.668,-13.492l1.415,-10.924l-5.109,4.654l0,13.225l-13.317,3.559l10.938,2.739l-11.142,12.485l-6.913,-10.65l-5.108,-3.656l-18.08,9.472l15.264,0.231l12.412,0.867l-4.488,7.709l-30.651,0.962l-2.387,-27.632l7.496,6.469l6.792,1.712l3.425,-1.712l-7.429,-3.714l-4.456,-12.446l-0.848,-23.451l12.733,8.96l1.982,4.117l1.421,-5.819l-3.403,-3.407l-11.817,-14.526l4.26,-17.455l17.774,16.655l-5.109,-17.879l11.545,-5.773l8.889,-4.444l7.848,9.032l4.367,5.294l3.111,-1.555l5.108,-4.978l-5.108,-3.078l0,2.947l-5.109,-2.554l2.564,-3.826l12.762,4.01l7.677,1.1l7.648,10.83l-1.66,12.598l1.66,31.482l7.734,-67.653l-72.438,-2.165l-40.256,53.097l18.115,65.252l76.628,-0.636l7.666,-41.511" style="fill:#8d323a;fill-opacity:0.7;"/><path d="M71.588,11.15l-20.434,7.207l-20.434,-7.207l16.528,11.037l-2.016,4.234l-4.295,0.054l-20.434,-10.217l15.325,9.861l-14.487,7.762l-21.272,-7.406l18.954,12.849l-0.446,18.766l-18.508,-6.072l5.108,2.554l15.326,10.055l2.854,-2.621l-2.854,7.762l-20.434,-7.533l18.752,12.069l1.682,23.691l1.935,-24.575l4.714,-14.51l-4.299,0.676l0.403,-5.141l-1.31,-16.129l18.225,-7.115l8.696,-0.76l5.176,-7.63l17.545,-11.661Z" style="fill:#f6d7d0;fill-opacity:0.9;"/></g><path d="M30.72,11.15l-5.109,7.662l20.434,10.218l5.109,-7.663l-20.434,-10.217Z" style="fill:#6c7157;"/><clipPath id="_clip3"><path d="M30.72,11.15l-5.109,7.662l20.434,10.218l5.109,-7.663l-20.434,-10.217Z"/></clipPath><g clip-path="url(#_clip3)"><path d="M74.219,69.802l-10.719,-7.911l-2.055,-16.353l-2.977,16.814l10.72,12.6l-15.707,10.328l-3.668,-13.492l1.415,-10.924l-5.109,4.654l0,13.225l-13.317,3.559l10.938,2.739l-11.142,12.485l-6.913,-10.65l-5.108,-3.656l-18.08,9.472l15.264,0.231l12.412,0.867l-4.488,7.709l-30.651,0.962l-2.387,-27.632l7.496,6.469l6.792,1.712l3.425,-1.712l-7.429,-3.714l-4.456,-12.446l-0.848,-23.451l12.733,8.96l1.982,4.117l1.421,-5.819l-3.403,-3.407l-11.817,-14.526l4.26,-17.455l17.774,16.655l-5.109,-17.879l11.545,-5.773l8.889,-4.444l7.848,9.032l4.367,5.294l3.111,-1.555l5.108,-4.978l-5.108,-3.078l0,2.947l-5.109,-2.554l2.564,-3.826l12.762,4.01l7.677,1.1l7.648,10.83l-1.66,12.598l1.66,31.482l7.734,-67.653l-72.438,-2.165l-40.256,53.097l18.115,65.252l76.628,-0.636l7.666,-41.511" style="fill:#8d323a;fill-opacity:0.7;"/><path d="M71.588,11.15l-20.434,7.207l-20.434,-7.207l16.528,11.037l-2.016,4.234l-4.295,0.054l-20.434,-10.217l15.325,9.861l-14.487,7.762l-21.272,-7.406l18.954,12.849l-0.446,18.766l-18.508,-6.072l5.108,2.554l15.326,10.055l2.854,-2.621l-2.854,7.762l-20.434,-7.533l18.752,12.069l1.682,23.691l1.935,-24.575l4.714,-14.51l-4.299,0.676l0.403,-5.141l-1.31,-16.129l18.225,-7.115l8.696,-0.76l5.176,-7.63l17.545,-11.661Z" style="fill:#f6d7d0;fill-opacity:0.9;"/></g><path d="M71.588,11.15l-20.434,10.217l-5.109,7.663l-5.108,-2.555l-20.434,10.217l0,25.543l5.108,-2.554l-5.108,12.771l0,25.543l20.434,-10.217l0,-5.109l5.108,-2.554l5.109,2.554l20.434,-10.217l0,-30.651l-5.108,2.554l5.108,-12.771l0,-20.434" style="fill:#bac1d8;"/><clipPath id="_clip4"><path d="M71.588,11.15l-20.434,10.217l-5.109,7.663l-5.108,-2.555l-20.434,10.217l0,25.543l5.108,-2.554l-5.108,12.771l0,25.543l20.434,-10.217l0,-5.109l5.108,-2.554l5.109,2.554l20.434,-10.217l0,-30.651l-5.108,2.554l5.108,-12.771l0,-20.434"/></clipPath><g clip-path="url(#_clip4)"><path d="M74.219,69.802l-10.719,-7.911l-2.055,-16.353l-2.977,16.814l10.72,12.6l-15.707,10.328l-3.668,-13.492l1.415,-10.924l-5.109,4.654l0,13.225l-13.317,3.559l10.938,2.739l-11.142,12.485l-6.913,-10.65l-5.108,-3.656l-18.08,9.472l15.264,0.231l12.412,0.867l-4.488,7.709l-30.651,0.962l-2.387,-27.632l7.496,6.469l6.792,1.712l3.425,-1.712l-7.429,-3.714l-4.456,-12.446l-0.848,-23.451l12.733,8.96l1.982,4.117l1.421,-5.819l-3.403,-3.407l-11.817,-14.526l4.26,-17.455l17.774,16.655l-5.109,-17.879l11.545,-5.773l8.889,-4.444l7.848,9.032l4.367,5.294l3.111,-1.555l5.108,-4.978l-5.108,-3.078l0,2.947l-5.109,-2.554l2.564,-3.826l12.762,4.01l7.677,1.1l7.648,10.83l-1.66,12.598l1.66,31.482l7.734,-67.653l-72.438,-2.165l-40.256,53.097l18.115,65.252l76.628,-0.636l7.666,-41.511" style="fill:#8d323a;fill-opacity:0.7;"/><path d="M71.588,11.15l-20.434,7.207l-20.434,-7.207l16.528,11.037l-2.016,4.234l-4.295,0.054l-20.434,-10.217l15.325,9.861l-14.487,7.762l-21.272,-7.406l18.954,12.849l-0.446,18.766l-18.508,-6.072l5.108,2.554l15.326,10.055l2.854,-2.621l-2.854,7.762l-20.434,-7.533l18.752,12.069l1.682,23.691l1.935,-24.575l4.714,-14.51l-4.299,0.676l0.403,-5.141l-1.31,-16.129l18.225,-7.115l8.696,-0.76l5.176,-7.63l17.545,-11.661Z" style="fill:#f6d7d0;fill-opacity:0.9;"/></g><path d="M0.069,26.475l20.434,10.217l0,25.543l-20.434,-10.217l0,-25.543Z" style="fill:#6c7157;"/><clipPath id="_clip5"><path d="M0.069,26.475l20.434,10.217l0,25.543l-20.434,-10.217l0,-25.543Z"/></clipPath><g clip-path="url(#_clip5)"><path d="M74.219,69.802l-10.719,-7.911l-2.055,-16.353l-2.977,16.814l10.72,12.6l-15.707,10.328l-3.668,-13.492l1.415,-10.924l-5.109,4.654l0,13.225l-13.317,3.559l10.938,2.739l-11.142,12.485l-6.913,-10.65l-5.108,-3.656l-18.08,9.472l15.264,0.231l12.412,0.867l-4.488,7.709l-30.651,0.962l-2.387,-27.632l7.496,6.469l6.792,1.712l3.425,-1.712l-7.429,-3.714l-4.456,-12.446l-0.848,-23.451l12.733,8.96l1.982,4.117l1.421,-5.819l-3.403,-3.407l-11.817,-14.526l4.26,-17.455l17.774,16.655l-5.109,-17.879l11.545,-5.773l8.889,-4.444l7.848,9.032l4.367,5.294l3.111,-1.555l5.108,-4.978l-5.108,-3.078l0,2.947l-5.109,-2.554l2.564,-3.826l12.762,4.01l7.677,1.1l7.648,10.83l-1.66,12.598l1.66,31.482l7.734,-67.653l-72.438,-2.165l-40.256,53.097l18.115,65.252l76.628,-0.636l7.666,-41.511" style="fill:#8d323a;fill-opacity:0.7;"/><path d="M71.588,11.15l-20.434,7.207l-20.434,-7.207l16.528,11.037l-2.016,4.234l-4.295,0.054l-20.434,-10.217l15.325,9.861l-14.487,7.762l-21.272,-7.406l18.954,12.849l-0.446,18.766l-18.508,-6.072l5.108,2.554l15.326,10.055l2.854,-2.621l-2.854,7.762l-20.434,-7.533l18.752,12.069l1.682,23.691l1.935,-24.575l4.714,-14.51l-4.299,0.676l0.403,-5.141l-1.31,-16.129l18.225,-7.115l8.696,-0.76l5.176,-7.63l17.545,-11.661Z" style="fill:#f6d7d0;fill-opacity:0.4;"/></g><path d="M20.503,97.995l-20.434,-10.217l0,-25.543l20.434,10.217l0,25.543" style="fill:#6c7157;"/><clipPath id="_clip6"><path d="M20.503,97.995l-20.434,-10.217l0,-25.543l20.434,10.217l0,25.543"/></clipPath><g clip-path="url(#_clip6)"><path d="M74.219,69.802l-10.719,-7.911l-2.055,-16.353l-2.977,16.814l10.72,12.6l-15.707,10.328l-3.668,-13.492l1.415,-10.924l-5.109,4.654l0,13.225l-13.317,3.559l10.938,2.739l-11.142,12.485l-6.913,-10.65l-5.108,-3.656l-18.08,9.472l15.264,0.231l12.412,0.867l-4.488,7.709l-30.651,0.962l-2.387,-27.632l7.496,6.469l6.792,1.712l3.425,-1.712l-7.429,-3.714l-4.456,-12.446l-0.848,-23.451l12.733,8.96l1.982,4.117l1.421,-5.819l-3.403,-3.407l-11.817,-14.526l4.26,-17.455l17.774,16.655l-5.109,-17.879l11.545,-5.773l8.889,-4.444l7.848,9.032l4.367,5.294l3.111,-1.555l5.108,-4.978l-5.108,-3.078l0,2.947l-5.109,-2.554l2.564,-3.826l12.762,4.01l7.677,1.1l7.648,10.83l-1.66,12.598l1.66,31.482l7.734,-67.653l-72.438,-2.165l-40.256,53.097l18.115,65.252l76.628,-0.636l7.666,-41.511" style="fill:#8d323a;fill-opacity:0.7;"/><path d="M71.588,11.15l-20.434,7.207l-20.434,-7.207l16.528,11.037l-2.016,4.234l-4.295,0.054l-20.434,-10.217l15.325,9.861l-14.487,7.762l-21.272,-7.406l18.954,12.849l-0.446,18.766l-18.508,-6.072l5.108,2.554l15.326,10.055l2.854,-2.621l-2.854,7.762l-20.434,-7.533l18.752,12.069l1.682,23.691l1.935,-24.575l4.714,-14.51l-4.299,0.676l0.403,-5.141l-1.31,-16.129l18.225,-7.115l8.696,-0.76l5.176,-7.63l17.545,-11.661Z" style="fill:#f6d7d0;fill-opacity:0.4;"/></g><path d="M0.069,52.018l5.108,2.554l-5.108,7.663l20.434,10.217l5.108,-12.771l-5.108,2.554l-20.434,-10.217Z" style="fill:#574052;"/><clipPath id="_clip7"><path d="M0.069,52.018l5.108,2.554l-5.108,7.663l20.434,10.217l5.108,-12.771l-5.108,2.554l-20.434,-10.217Z"/></clipPath><g clip-path="url(#_clip7)"><path d="M71.588,11.15l-20.434,7.207l-20.434,-7.207l16.528,11.037l-2.016,4.234l-4.295,0.054l-20.434,-10.217l15.325,9.861l-14.487,7.762l-21.272,-7.406l18.954,12.849l-0.446,18.766l-18.508,-6.072l5.108,2.554l15.326,10.055l2.854,-2.621l-2.854,7.762l-20.434,-7.533l18.752,12.069l1.682,23.691l1.935,-24.575l4.714,-14.51l-4.299,0.676l0.403,-5.141l-1.31,-16.129l18.225,-7.115l8.696,-0.76l5.176,-7.63l17.545,-11.661Z" style="fill:#f6d7d0;fill-opacity:0.4;"/></g></g></g></g><g><path d="M48.586,39.298l11.758,26.893l4.593,1.906l-13.569,-29.73l-2.782,0.931Z" style="fill:#574052;"/><path d="M48.93,49.83l-8.371,2.554l-3.506,-1.256l11.642,-3.924l0.235,2.626Z" style="fill:none;"/><path d="M54.846,68.962l4.739,1.763l5.349,-2.599l-4.644,-1.827l-5.444,2.663Z" style="fill:none;"/><path d="M31.506,72.856l-0.385,-27.673l17.465,-5.885l11.704,27.001l-5.444,2.663l-8.902,-20.831l-8.891,2.997l0.059,19.065l-5.606,2.663Z" style="fill:#c3454a;"/><path d="M35.932,74.229l-4.426,-1.373l5.659,-2.825l4.157,1.222l-5.39,2.976Z" style="fill:none;"/><path d="M37.053,51.128l3.343,1.384l0.906,18.709l-4.244,-1.136l-0.005,-18.957" style="fill:#574052;"/></g></g></svg>