<?xml version="1.0" encoding="UTF-8" standalone="no"?><!DOCTYPE svg PUBLIC "-//W3C//DTD SVG 1.1//EN" "http://www.w3.org/Graphics/SVG/1.1/DTD/svg11.dtd"><svg width="100%" height="100%" viewBox="0 0 91 89" version="1.1" xmlns="http://www.w3.org/2000/svg" xmlns:xlink="http://www.w3.org/1999/xlink" xml:space="preserve" xmlns:serif="http://www.serif.com/" style="fill-rule:evenodd;clip-rule:evenodd;stroke-linejoin:round;stroke-miterlimit:1.41421;"><g id="N_Runestone_mossy_4"><g id="F_Runestone_grass_runes_4"><g id="F_Runestone_runes_4"><g><g><path d="M69.817,5.476l19.822,0.306l-20.434,5.108l-23.436,-6.609l24.048,1.195Z" style="fill:#9da8c9;"/><clipPath id="_clip1"><path d="M69.817,5.476l19.822,0.306l-20.434,5.108l-23.436,-6.609l24.048,1.195Z"/></clipPath><g clip-path="url(#_clip1)"><path d="M45.843,4.318l23.362,4.146l20.434,-2.682l-18.32,6.165l-2.114,2.453l2.952,2.236l-5.594,0.684l-2.467,2.241l-5.108,-3.562l-0.889,5.553l-17.598,-3.367l5.248,17.548l-3.954,9.296l0.943,6.876l6.033,20.288l-2.082,4.067l0.641,5.429l-24.102,-6.942l20.434,3.566l-1.612,-1.806l-23.93,-19.64l24.704,14.651l1.548,-0.258l-26.252,-19.502l25.542,15.029l-5.108,-7.14l-1.407,-6.28l-13.919,-9.271l12.442,3.996l-1.19,-2.553l-13.152,-7.502l1.9,-0.497l13.919,6.967l0.344,-1.118l-13.931,-5.684l14.501,3.59l3.571,-6.401l-33.729,-8.678l32.759,4.054l-2.108,-2.33l-5.109,-1.238l0,-5.231l5.109,-1.513l1.698,1.998l-0.177,1.402l-3.876,-0.07l4.299,3.276l0.669,0.494l-1.109,-3.583l0.15,-1.171l-0.431,-0.907l-1.724,-2.127l-0.596,-2.723l-4.012,-3.103l7.516,1.812l12.133,1.517l0.088,-1.718l-9.52,-6.719l17.295,6.678l0.505,-1.104l3.947,1.145l0.78,-2.657l-20.346,-8.08Z" style="fill:#f6d7d0;fill-opacity:0.9;"/></g><path d="M69.205,72.193l-5.109,-2.555l10.217,-15.325l5.871,4.799l-3.316,6.695l-7.663,6.386Z" style="fill:#6c7157;"/><clipPath id="_clip2"><path d="M69.205,72.193l-5.109,-2.555l10.217,-15.325l5.871,4.799l-3.316,6.695l-7.663,6.386Z"/></clipPath><g clip-path="url(#_clip2)"><path d="M45.843,4.318l23.362,4.146l20.434,-2.682l-18.32,6.165l-2.114,2.453l2.952,2.236l-5.594,0.684l-2.467,2.241l-5.108,-3.562l-0.889,5.553l-17.598,-3.367l5.248,17.548l-3.954,9.296l0.943,6.876l6.033,20.288l-2.082,4.067l0.641,5.429l-24.102,-6.942l20.434,3.566l-1.612,-1.806l-23.93,-19.64l24.704,14.651l1.548,-0.258l-26.252,-19.502l25.542,15.029l-5.108,-7.14l-1.407,-6.28l-13.919,-9.271l12.442,3.996l-1.19,-2.553l-13.152,-7.502l1.9,-0.497l13.919,6.967l0.344,-1.118l-13.931,-5.684l14.501,3.59l3.571,-6.401l-33.729,-8.678l32.759,4.054l-2.108,-2.33l-5.109,-1.238l0,-5.231l5.109,-1.513l1.698,1.998l-0.177,1.402l-3.876,-0.07l4.299,3.276l0.669,0.494l-1.109,-3.583l0.15,-1.171l-0.431,-0.907l-1.724,-2.127l-0.596,-2.723l-4.012,-3.103l7.516,1.812l12.133,1.517l0.088,-1.718l-9.52,-6.719l17.295,6.678l0.505,-1.104l3.947,1.145l0.78,-2.657l-20.346,-8.08Z" style="fill:#f6d7d0;fill-opacity:0.9;"/></g><path d="M84.53,42.155l-7.795,-4.379l-8.18,4.091l10.867,8.417l5.108,-8.129Z" style="fill:#9da8c9;"/><clipPath id="_clip3"><path d="M84.53,42.155l-7.795,-4.379l-8.18,4.091l10.867,8.417l5.108,-8.129Z"/></clipPath><g clip-path="url(#_clip3)"><path d="M45.843,4.318l23.362,4.146l20.434,-2.682l-18.32,6.165l-2.114,2.453l2.952,2.236l-5.594,0.684l-2.467,2.241l-5.108,-3.562l-0.889,5.553l-17.598,-3.367l5.248,17.548l-3.954,9.296l0.943,6.876l6.033,20.288l-2.082,4.067l0.641,5.429l-24.102,-6.942l20.434,3.566l-1.612,-1.806l-23.93,-19.64l24.704,14.651l1.548,-0.258l-26.252,-19.502l25.542,15.029l-5.108,-7.14l-1.407,-6.28l-13.919,-9.271l12.442,3.996l-1.19,-2.553l-13.152,-7.502l1.9,-0.497l13.919,6.967l0.344,-1.118l-13.931,-5.684l14.501,3.59l3.571,-6.401l-33.729,-8.678l32.759,4.054l-2.108,-2.33l-5.109,-1.238l0,-5.231l5.109,-1.513l1.698,1.998l-0.177,1.402l-3.876,-0.07l4.299,3.276l0.669,0.494l-1.109,-3.583l0.15,-1.171l-0.431,-0.907l-1.724,-2.127l-0.596,-2.723l-4.012,-3.103l7.516,1.812l12.133,1.517l0.088,-1.718l-9.52,-6.719l17.295,6.678l0.505,-1.104l3.947,1.145l0.78,-2.657l-20.346,-8.08Z" style="fill:#f6d7d0;fill-opacity:0.9;"/></g><path d="M43.662,8.336l-10.217,5.108l-25.542,12.772l28.069,3.818l6.39,1.254l11.517,-12.735l5.109,-2.554l-15.326,-7.663Z" style="fill:#9da8c9;"/><clipPath id="_clip4"><path d="M43.662,8.336l-10.217,5.108l-25.542,12.772l28.069,3.818l6.39,1.254l11.517,-12.735l5.109,-2.554l-15.326,-7.663Z"/></clipPath><g clip-path="url(#_clip4)"><path d="M67.899,80.348l-1.96,-9.995l5.98,-11.069l7.577,-3.788l-6.123,-2.048l-2.104,3.043l-0.404,-14.339l13.739,-12.437l-5.108,2.955l-5.109,2.34l-13.166,16.456l2.949,6.584l1.444,4.387l-1.444,7.793l-11.562,8.927l-13.98,3.141l-20.435,-3.325l20.435,-3.043l-10.217,-1.637l0,-6.157l-2.864,2.709l-7.354,-9.236l-3.729,-15.762l17.402,11.376l4.121,4.701l-0.319,-4.949l-2.149,-4.034l-13.599,-6.799l-4.272,-4.7l5.058,-5.124l11.419,1.995l-2.775,-2.782l-6.048,-1.383l-5.109,-3.079l0,1.847l-6.385,0.23l-7.387,-6.524l12.022,-7.761l10.29,6.822l0.046,-3.48l4.17,-1.198l-6.633,-7.176l14.312,-0.986l10.217,3.449l0,2.093l-2.755,7.837l-2.354,22.703l1.723,4.878l1.082,-9.676l2.304,-14.174l13.721,-6.861l-8.613,-4.461l-13.524,-10.013l8.416,-9.316l19.411,4.597l29.873,-0.389l-25.294,11.673l-1.724,6.773l3.276,0.334l0,-5.108l15.326,-5.201l19.255,-12.09l-80.557,-4.781l-32.159,44.306l19.562,50.65l52.085,-9.718" style="fill:#8d323a;fill-opacity:0.7;"/><path d="M45.843,4.318l23.362,4.146l20.434,-2.682l-18.32,6.165l-2.114,2.453l2.952,2.236l-5.594,0.684l-2.467,2.241l-5.108,-3.562l-0.889,5.553l-17.598,-3.367l5.248,17.548l-3.954,9.296l0.943,6.876l6.033,20.288l-2.082,4.067l0.641,5.429l-24.102,-6.942l20.434,3.566l-1.612,-1.806l-23.93,-19.64l24.704,14.651l1.548,-0.258l-26.252,-19.502l25.542,15.029l-5.108,-7.14l-1.407,-6.28l-13.919,-9.271l12.442,3.996l-1.19,-2.553l-13.152,-7.502l1.9,-0.497l13.919,6.967l0.344,-1.118l-13.931,-5.684l14.501,3.59l3.571,-6.401l-33.729,-8.678l32.759,4.054l-2.108,-2.33l-5.109,-1.238l0,-5.231l5.109,-1.513l1.698,1.998l-0.177,1.402l-3.876,-0.07l4.299,3.276l0.669,0.494l-1.109,-3.583l0.15,-1.171l-0.431,-0.907l-1.724,-2.127l-0.596,-2.723l-4.012,-3.103l7.516,1.812l12.133,1.517l0.088,-1.718l-9.52,-6.719l17.295,6.678l0.505,-1.104l3.947,1.145l0.78,-2.657l-20.346,-8.08Z" style="fill:#f6d7d0;fill-opacity:0.9;"/></g><path d="M89.639,5.782l-20.434,5.108l-10.217,5.109l-5.109,2.554l-15.325,-2.554l-8.822,6.915l6.238,7.119l-14.466,7.033l17.05,14.692l5.108,12.772l-5.108,-2.555l5.108,12.772l3.753,6.985l2.172,-2.84l9.401,-1.591l7.325,-3.663l5.18,-7.698l7.929,-6.634l-5.109,7.345l-5.108,5.542l13.112,-6.557l3.926,-10.467l-3.918,-3.411l2.205,-2.554l2.021,-4.098l-2.021,-3.012l-3.514,3.759l-3.025,1.512l-0.411,-3.678l3.173,-4.802l5.941,-2.041l2.945,-5.52l0,-10.217l-4.124,-9.84l4.124,-5.485Z" style="fill:#bac1d8;"/><clipPath id="_clip5"><path d="M89.639,5.782l-20.434,5.108l-10.217,5.109l-5.109,2.554l-15.325,-2.554l-8.822,6.915l6.238,7.119l-14.466,7.033l17.05,14.692l5.108,12.772l-5.108,-2.555l5.108,12.772l3.753,6.985l2.172,-2.84l9.401,-1.591l7.325,-3.663l5.18,-7.698l7.929,-6.634l-5.109,7.345l-5.108,5.542l13.112,-6.557l3.926,-10.467l-3.918,-3.411l2.205,-2.554l2.021,-4.098l-2.021,-3.012l-3.514,3.759l-3.025,1.512l-0.411,-3.678l3.173,-4.802l5.941,-2.041l2.945,-5.52l0,-10.217l-4.124,-9.84l4.124,-5.485Z"/></clipPath><g clip-path="url(#_clip5)"><path d="M45.843,4.318l23.362,4.146l20.434,-2.682l-18.32,6.165l-2.114,2.453l2.952,2.236l-5.594,0.684l-2.467,2.241l-5.108,-3.562l-0.889,5.553l-17.598,-3.367l5.248,17.548l-3.954,9.296l0.943,6.876l6.033,20.288l-2.082,4.067l0.641,5.429l-24.102,-6.942l20.434,3.566l-1.612,-1.806l-23.93,-19.64l24.704,14.651l1.548,-0.258l-26.252,-19.502l25.542,15.029l-5.108,-7.14l-1.407,-6.28l-13.919,-9.271l12.442,3.996l-1.19,-2.553l-13.152,-7.502l1.9,-0.497l13.919,6.967l0.344,-1.118l-13.931,-5.684l14.501,3.59l3.571,-6.401l-33.729,-8.678l32.759,4.054l-2.108,-2.33l-5.109,-1.238l0,-5.231l5.109,-1.513l1.698,1.998l-0.177,1.402l-3.876,-0.07l4.299,3.276l0.669,0.494l-1.109,-3.583l0.15,-1.171l-0.431,-0.907l-1.724,-2.127l-0.596,-2.723l-4.012,-3.103l7.516,1.812l12.133,1.517l0.088,-1.718l-9.52,-6.719l17.295,6.678l0.505,-1.104l3.947,1.145l0.78,-2.657l-20.346,-8.08Z" style="fill:#f6d7d0;fill-opacity:0.9;"/></g><path d="M40.155,21.908l1.208,5.713l-13.026,0.651l1.894,-9.162l6.492,1.082l3.432,1.716Z" style="fill:#9da8c9;"/><clipPath id="_clip6"><path d="M40.155,21.908l1.208,5.713l-13.026,0.651l1.894,-9.162l6.492,1.082l3.432,1.716Z"/></clipPath><g clip-path="url(#_clip6)"><path d="M45.843,4.318l23.362,4.146l20.434,-2.682l-18.32,6.165l-2.114,2.453l2.952,2.236l-5.594,0.684l-2.467,2.241l-5.108,-3.562l-0.889,5.553l-17.598,-3.367l5.248,17.548l-3.954,9.296l0.943,6.876l6.033,20.288l-2.082,4.067l0.641,5.429l-24.102,-6.942l20.434,3.566l-1.612,-1.806l-23.93,-19.64l24.704,14.651l1.548,-0.258l-26.252,-19.502l25.542,15.029l-5.108,-7.14l-1.407,-6.28l-13.919,-9.271l12.442,3.996l-1.19,-2.553l-13.152,-7.502l1.9,-0.497l13.919,6.967l0.344,-1.118l-13.931,-5.684l14.501,3.59l3.571,-6.401l-33.729,-8.678l32.759,4.054l-2.108,-2.33l-5.109,-1.238l0,-5.231l5.109,-1.513l1.698,1.998l-0.177,1.402l-3.876,-0.07l4.299,3.276l0.669,0.494l-1.109,-3.583l0.15,-1.171l-0.431,-0.907l-1.724,-2.127l-0.596,-2.723l-4.012,-3.103l7.516,1.812l12.133,1.517l0.088,-1.718l-9.52,-6.719l17.295,6.678l0.505,-1.104l3.947,1.145l0.78,-2.657l-20.346,-8.08Z" style="fill:#f6d7d0;fill-opacity:0.9;"/></g><path d="M38.554,42.565l0,4.085l-18.262,-6.195l-0.809,-9.812l19.071,11.922Z" style="fill:#6c7157;"/><clipPath id="_clip7"><path d="M38.554,42.565l0,4.085l-18.262,-6.195l-0.809,-9.812l19.071,11.922Z"/></clipPath><g clip-path="url(#_clip7)"><path d="M45.843,4.318l23.362,4.146l20.434,-2.682l-18.32,6.165l-2.114,2.453l2.952,2.236l-5.594,0.684l-2.467,2.241l-5.108,-3.562l-0.889,5.553l-17.598,-3.367l5.248,17.548l-3.954,9.296l0.943,6.876l6.033,20.288l-2.082,4.067l0.641,5.429l-24.102,-6.942l20.434,3.566l-1.612,-1.806l-23.93,-19.64l24.704,14.651l1.548,-0.258l-26.252,-19.502l25.542,15.029l-5.108,-7.14l-1.407,-6.28l-13.919,-9.271l12.442,3.996l-1.19,-2.553l-13.152,-7.502l1.9,-0.497l13.919,6.967l0.344,-1.118l-13.931,-5.684l14.501,3.59l3.571,-6.401l-33.729,-8.678l32.759,4.054l-2.108,-2.33l-5.109,-1.238l0,-5.231l5.109,-1.513l1.698,1.998l-0.177,1.402l-3.876,-0.07l4.299,3.276l0.669,0.494l-1.109,-3.583l0.15,-1.171l-0.431,-0.907l-1.724,-2.127l-0.596,-2.723l-4.012,-3.103l7.516,1.812l12.133,1.517l0.088,-1.718l-9.52,-6.719l17.295,6.678l0.505,-1.104l3.947,1.145l0.78,-2.657l-20.346,-8.08Z" style="fill:#f6d7d0;fill-opacity:0.4;"/></g><path d="M33.445,13.444l5.109,2.555l1.643,5.93l-5.669,0.256l0.752,3.207l6.135,2.255l2.247,6.232l-35.759,-7.663l25.542,-12.772Z" style="fill:#6c7157;"/><clipPath id="_clip8"><path d="M33.445,13.444l5.109,2.555l1.643,5.93l-5.669,0.256l0.752,3.207l6.135,2.255l2.247,6.232l-35.759,-7.663l25.542,-12.772Z"/></clipPath><g clip-path="url(#_clip8)"><path d="M67.899,80.348l-1.96,-9.995l5.98,-11.069l7.577,-3.788l-6.123,-2.048l-2.104,3.043l-0.404,-14.339l13.739,-12.437l-5.108,2.955l-5.109,2.34l-13.166,16.456l2.949,6.584l1.444,4.387l-1.444,7.793l-11.562,8.927l-13.98,3.141l-20.435,-3.325l20.435,-3.043l-10.217,-1.637l0,-6.157l-2.864,2.709l-7.354,-9.236l-3.729,-15.762l17.402,11.376l4.121,4.701l-0.319,-4.949l-2.149,-4.034l-13.599,-6.799l-4.272,-4.7l5.058,-5.124l11.419,1.995l-2.775,-2.782l-6.048,-1.383l-5.109,-3.079l0,1.847l-6.385,0.23l-7.387,-6.524l12.022,-7.761l10.29,6.822l0.046,-3.48l4.17,-1.198l-6.633,-7.176l14.312,-0.986l10.217,3.449l0,2.093l-2.755,7.837l-2.354,22.703l1.723,4.878l1.082,-9.676l2.304,-14.174l13.721,-6.861l-8.613,-4.461l-13.524,-10.013l8.416,-9.316l19.411,4.597l29.873,-0.389l-25.294,11.673l-1.724,6.773l3.276,0.334l0,-5.108l15.326,-5.201l19.255,-12.09l-80.557,-4.781l-32.159,44.306l19.562,50.65l52.085,-9.718" style="fill:#8d323a;fill-opacity:0.7;"/><path d="M45.843,4.318l23.362,4.146l20.434,-2.682l-18.32,6.165l-2.114,2.453l2.952,2.236l-5.594,0.684l-2.467,2.241l-5.108,-3.562l-0.889,5.553l-17.598,-3.367l5.248,17.548l-3.954,9.296l0.943,6.876l6.033,20.288l-2.082,4.067l0.641,5.429l-24.102,-6.942l20.434,3.566l-1.612,-1.806l-23.93,-19.64l24.704,14.651l1.548,-0.258l-26.252,-19.502l25.542,15.029l-5.108,-7.14l-1.407,-6.28l-13.919,-9.271l12.442,3.996l-1.19,-2.553l-13.152,-7.502l1.9,-0.497l13.919,6.967l0.344,-1.118l-13.931,-5.684l14.501,3.59l3.571,-6.401l-33.729,-8.678l32.759,4.054l-2.108,-2.33l-5.109,-1.238l0,-5.231l5.109,-1.513l1.698,1.998l-0.177,1.402l-3.876,-0.07l4.299,3.276l0.669,0.494l-1.109,-3.583l0.15,-1.171l-0.431,-0.907l-1.724,-2.127l-0.596,-2.723l-4.012,-3.103l7.516,1.812l12.133,1.517l0.088,-1.718l-9.52,-6.719l17.295,6.678l0.505,-1.104l3.947,1.145l0.78,-2.657l-20.346,-8.08Z" style="fill:#f6d7d0;fill-opacity:0.4;"/></g><path d="M7.903,26.216l35.759,7.663l-5.108,8.757l-15.326,-4.866l15.326,8.88l0,5.108l-20.434,-10.217l-5.109,-7.662l-5.108,-7.663Z" style="fill:#574052;"/><clipPath id="_clip9"><path d="M7.903,26.216l35.759,7.663l-5.108,8.757l-15.326,-4.866l15.326,8.88l0,5.108l-20.434,-10.217l-5.109,-7.662l-5.108,-7.663Z"/></clipPath><g clip-path="url(#_clip9)"><path d="M45.843,4.318l23.362,4.146l20.434,-2.682l-18.32,6.165l-2.114,2.453l2.952,2.236l-5.594,0.684l-2.467,2.241l-5.108,-3.562l-0.889,5.553l-17.598,-3.367l5.248,17.548l-3.954,9.296l0.943,6.876l6.033,20.288l-2.082,4.067l0.641,5.429l-24.102,-6.942l20.434,3.566l-1.612,-1.806l-23.93,-19.64l24.704,14.651l1.548,-0.258l-26.252,-19.502l25.542,15.029l-5.108,-7.14l-1.407,-6.28l-13.919,-9.271l12.442,3.996l-1.19,-2.553l-13.152,-7.502l1.9,-0.497l13.919,6.967l0.344,-1.118l-13.931,-5.684l14.501,3.59l3.571,-6.401l-33.729,-8.678l32.759,4.054l-2.108,-2.33l-5.109,-1.238l0,-5.231l5.109,-1.513l1.698,1.998l-0.177,1.402l-3.876,-0.07l4.299,3.276l0.669,0.494l-1.109,-3.583l0.15,-1.171l-0.431,-0.907l-1.724,-2.127l-0.596,-2.723l-4.012,-3.103l7.516,1.812l12.133,1.517l0.088,-1.718l-9.52,-6.719l17.295,6.678l0.505,-1.104l3.947,1.145l0.78,-2.657l-20.346,-8.08Z" style="fill:#f6d7d0;fill-opacity:0.4;"/></g><path d="M47.286,81.667l-24.058,-6.92l-5.108,-17.88l0,-5.109l30.651,20.435l-5.109,2.554l3.624,6.92Z" style="fill:#6c7157;"/><clipPath id="_clip10"><path d="M47.286,81.667l-24.058,-6.92l-5.108,-17.88l0,-5.109l30.651,20.435l-5.109,2.554l3.624,6.92Z"/></clipPath><g clip-path="url(#_clip10)"><path d="M45.843,4.318l23.362,4.146l20.434,-2.682l-18.32,6.165l-2.114,2.453l2.952,2.236l-5.594,0.684l-2.467,2.241l-5.108,-3.562l-0.889,5.553l-17.598,-3.367l5.248,17.548l-3.954,9.296l0.943,6.876l6.033,20.288l-2.082,4.067l0.641,5.429l-24.102,-6.942l20.434,3.566l-1.612,-1.806l-23.93,-19.64l24.704,14.651l1.548,-0.258l-26.252,-19.502l25.542,15.029l-5.108,-7.14l-1.407,-6.28l-13.919,-9.271l12.442,3.996l-1.19,-2.553l-13.152,-7.502l1.9,-0.497l13.919,6.967l0.344,-1.118l-13.931,-5.684l14.501,3.59l3.571,-6.401l-33.729,-8.678l32.759,4.054l-2.108,-2.33l-5.109,-1.238l0,-5.231l5.109,-1.513l1.698,1.998l-0.177,1.402l-3.876,-0.07l4.299,3.276l0.669,0.494l-1.109,-3.583l0.15,-1.171l-0.431,-0.907l-1.724,-2.127l-0.596,-2.723l-4.012,-3.103l7.516,1.812l12.133,1.517l0.088,-1.718l-9.52,-6.719l17.295,6.678l0.505,-1.104l3.947,1.145l0.78,-2.657l-20.346,-8.08Z" style="fill:#f6d7d0;fill-opacity:0.4;"/></g><path d="M18.12,41.541l5.108,2.555l-5.108,7.662l30.651,20.435l-10.217,-20.435l-20.434,-10.217Z" style="fill:#574052;"/><clipPath id="_clip11"><path d="M18.12,41.541l5.108,2.555l-5.108,7.662l30.651,20.435l-10.217,-20.435l-20.434,-10.217Z"/></clipPath><g clip-path="url(#_clip11)"><path d="M45.843,4.318l23.362,4.146l20.434,-2.682l-18.32,6.165l-2.114,2.453l2.952,2.236l-5.594,0.684l-2.467,2.241l-5.108,-3.562l-0.889,5.553l-17.598,-3.367l5.248,17.548l-3.954,9.296l0.943,6.876l6.033,20.288l-2.082,4.067l0.641,5.429l-24.102,-6.942l20.434,3.566l-1.612,-1.806l-23.93,-19.64l24.704,14.651l1.548,-0.258l-26.252,-19.502l25.542,15.029l-5.108,-7.14l-1.407,-6.28l-13.919,-9.271l12.442,3.996l-1.19,-2.553l-13.152,-7.502l1.9,-0.497l13.919,6.967l0.344,-1.118l-13.931,-5.684l14.501,3.59l3.571,-6.401l-33.729,-8.678l32.759,4.054l-2.108,-2.33l-5.109,-1.238l0,-5.231l5.109,-1.513l1.698,1.998l-0.177,1.402l-3.876,-0.07l4.299,3.276l0.669,0.494l-1.109,-3.583l0.15,-1.171l-0.431,-0.907l-1.724,-2.127l-0.596,-2.723l-4.012,-3.103l7.516,1.812l12.133,1.517l0.088,-1.718l-9.52,-6.719l17.295,6.678l0.505,-1.104l3.947,1.145l0.78,-2.657l-20.346,-8.08Z" style="fill:#f6d7d0;fill-opacity:0.4;"/></g><path d="M18.12,56.867l25.542,17.88l3.205,6.711l-23.639,-6.711l-5.108,-17.88Z" style="fill:#574052;"/><clipPath id="_clip12"><path d="M18.12,56.867l25.542,17.88l3.205,6.711l-23.639,-6.711l-5.108,-17.88Z"/></clipPath><g clip-path="url(#_clip12)"><path d="M45.843,4.318l23.362,4.146l20.434,-2.682l-18.32,6.165l-2.114,2.453l2.952,2.236l-5.594,0.684l-2.467,2.241l-5.108,-3.562l-0.889,5.553l-17.598,-3.367l5.248,17.548l-3.954,9.296l0.943,6.876l6.033,20.288l-2.082,4.067l0.641,5.429l-24.102,-6.942l20.434,3.566l-1.612,-1.806l-23.93,-19.64l24.704,14.651l1.548,-0.258l-26.252,-19.502l25.542,15.029l-5.108,-7.14l-1.407,-6.28l-13.919,-9.271l12.442,3.996l-1.19,-2.553l-13.152,-7.502l1.9,-0.497l13.919,6.967l0.344,-1.118l-13.931,-5.684l14.501,3.59l3.571,-6.401l-33.729,-8.678l32.759,4.054l-2.108,-2.33l-5.109,-1.238l0,-5.231l5.109,-1.513l1.698,1.998l-0.177,1.402l-3.876,-0.07l4.299,3.276l0.669,0.494l-1.109,-3.583l0.15,-1.171l-0.431,-0.907l-1.724,-2.127l-0.596,-2.723l-4.012,-3.103l7.516,1.812l12.133,1.517l0.088,-1.718l-9.52,-6.719l17.295,6.678l0.505,-1.104l3.947,1.145l0.78,-2.657l-20.346,-8.08Z" style="fill:#f6d7d0;fill-opacity:0.4;"/></g><path d="M45.791,4.292l-2.129,4.044l20.434,10.217l0,-2.296l5.974,0.175l-3.32,-1.661l2.455,-3.881l-23.414,-6.598Z" style="fill:#6c7157;"/><clipPath id="_clip13"><path d="M45.791,4.292l-2.129,4.044l20.434,10.217l0,-2.296l5.974,0.175l-3.32,-1.661l2.455,-3.881l-23.414,-6.598Z"/></clipPath><g clip-path="url(#_clip13)"><path d="M45.843,4.318l23.362,4.146l20.434,-2.682l-18.32,6.165l-2.114,2.453l2.952,2.236l-5.594,0.684l-2.467,2.241l-5.108,-3.562l-0.889,5.553l-17.598,-3.367l5.248,17.548l-3.954,9.296l0.943,6.876l6.033,20.288l-2.082,4.067l0.641,5.429l-24.102,-6.942l20.434,3.566l-1.612,-1.806l-23.93,-19.64l24.704,14.651l1.548,-0.258l-26.252,-19.502l25.542,15.029l-5.108,-7.14l-1.407,-6.28l-13.919,-9.271l12.442,3.996l-1.19,-2.553l-13.152,-7.502l1.9,-0.497l13.919,6.967l0.344,-1.118l-13.931,-5.684l14.501,3.59l3.571,-6.401l-33.729,-8.678l32.759,4.054l-2.108,-2.33l-5.109,-1.238l0,-5.231l5.109,-1.513l1.698,1.998l-0.177,1.402l-3.876,-0.07l4.299,3.276l0.669,0.494l-1.109,-3.583l0.15,-1.171l-0.431,-0.907l-1.724,-2.127l-0.596,-2.723l-4.012,-3.103l7.516,1.812l12.133,1.517l0.088,-1.718l-9.52,-6.719l17.295,6.678l0.505,-1.104l3.947,1.145l0.78,-2.657l-20.346,-8.08Z" style="fill:#f6d7d0;fill-opacity:0.9;"/></g></g></g><g><path d="M64.707,28.55l11.759,26.894l4.592,1.905l-13.569,-29.73l-2.782,0.931Z" style="fill:#574052;"/><path d="M65.051,39.083l-8.37,2.553l-3.507,-1.256l11.643,-3.924l0.234,2.627Z" style="fill:none;"/><path d="M70.968,58.214l4.738,1.764l5.349,-2.6l-4.643,-1.826l-5.444,2.662Z" style="fill:none;"/><path d="M47.627,62.108l-0.384,-27.673l17.464,-5.885l11.705,27.002l-5.444,2.662l-8.903,-20.83l-8.891,2.996l0.059,19.065l-5.606,2.663Z" style="fill:#c3454a;"/><path d="M52.054,63.482l-4.427,-1.374l5.66,-2.825l4.156,1.222l-5.389,2.977Z" style="fill:none;"/><path d="M53.174,40.38l3.344,1.385l0.905,18.708l-4.244,-1.136l-0.005,-18.957" style="fill:#574052;"/></g></g><path d="M86.021,45.697c0,0 2.482,1.152 2.213,3.309c-0.27,2.157 -0.855,2.424 -1.147,8.67c-0.291,6.247 1.6,1.941 1.103,9.666c-0.496,7.724 6.064,5.029 -1.484,12.308c-7.549,7.279 -14.019,11.143 -20.22,7.279c-6.2,-3.865 -8.177,-2.517 -14.288,-0.629c-6.111,1.887 -7.81,1.527 -13.655,1.887c-5.846,0.359 -7.931,-0.773 -16.369,-4.206c-8.438,-3.433 -4.574,-0.917 -10.685,-6.668c-6.11,-5.751 1.342,-7.119 -3.597,-5.581c-4.94,1.537 -11.479,8.726 -5.109,0.549c6.37,-8.178 0.801,-8.902 6.506,-10.068c5.705,-1.165 3.72,-4.114 5.746,-2.235c2.026,1.878 4.471,0.838 4.471,0.838l2.857,11.644l2.858,-3.082c0,0 -0.046,-2.024 2.024,1.197c2.071,3.22 2.672,2.385 4.097,2.665c1.424,0.279 -1.198,1.384 1.424,0.279c2.623,-1.104 1.691,-0.76 3.33,-0.564c1.639,0.196 0.079,-1.736 2.447,0.61c2.367,2.347 2.091,2.991 3.241,2.991c1.151,0 1.381,-0.23 1.381,-0.23l0.486,-1.15l0,-0.89l-7.388,-4.954l0.368,-1.242c0,0 -2.07,-1.104 0.644,0.046c2.715,1.15 2.979,2 4.342,2.058c1.364,0.059 1.548,-0.402 2.606,0.427c1.058,0.828 1.38,1.104 1.38,1.104l2.635,-0.254l0.522,0.261l-1.454,2.293c0,0 0.046,0.369 0.736,0.829c0.69,0.46 -0.681,0.552 0.718,0.598c1.398,0.046 3.343,2.438 5.108,-0.276c1.766,-2.715 1.029,-2.163 2.18,-2.853c1.15,-0.69 -0.322,0.874 1.61,-0.828c1.933,-1.703 1.15,-1.703 2.163,-2.025c1.012,-0.322 1.978,-0.736 1.978,-0.736c0,0 5.153,-1.702 5.015,-4.049c-0.138,-2.346 -1.288,-1.012 -0.138,-2.392c1.15,-1.381 0.389,-2.025 2.518,-2.301c2.129,-0.276 4.66,-0.138 4.66,-0.138l-0.368,2.853c0,0 -1.841,0.736 -2.255,1.196c-0.414,0.46 -1.058,1.196 -1.058,1.196l-2.301,1.427l0.092,1.288l0.23,2.163l0.437,1.473c0,0 1.993,0.533 2.159,-0.516c0.165,-1.049 -0.019,-1.049 0.441,-1.786c0.46,-0.736 0.874,-0.782 1.427,-1.932c0.552,-1.15 1.058,-1.887 1.058,-1.887c0,0 -1.725,0.967 0.587,-0.736c2.311,-1.702 2.587,-0.966 2.587,-2.668c0,-1.703 -0.23,-1.841 0,-2.853c0.231,-1.012 1.131,-1.971 1.131,-1.971l1.39,0.269l0.654,1.242l0.23,2.899l0,2.208l0.598,0.276l1.105,-2.899l0.533,-1.141l1.989,-0.995l1.929,-4.144l-3.991,-3.474l2.062,-2.599l1.501,-3.046" style="fill:#426433;"/><clipPath id="_clip14"><path d="M86.021,45.697c0,0 2.482,1.152 2.213,3.309c-0.27,2.157 -0.855,2.424 -1.147,8.67c-0.291,6.247 1.6,1.941 1.103,9.666c-0.496,7.724 6.064,5.029 -1.484,12.308c-7.549,7.279 -14.019,11.143 -20.22,7.279c-6.2,-3.865 -8.177,-2.517 -14.288,-0.629c-6.111,1.887 -7.81,1.527 -13.655,1.887c-5.846,0.359 -7.931,-0.773 -16.369,-4.206c-8.438,-3.433 -4.574,-0.917 -10.685,-6.668c-6.11,-5.751 1.342,-7.119 -3.597,-5.581c-4.94,1.537 -11.479,8.726 -5.109,0.549c6.37,-8.178 0.801,-8.902 6.506,-10.068c5.705,-1.165 3.72,-4.114 5.746,-2.235c2.026,1.878 4.471,0.838 4.471,0.838l2.857,11.644l2.858,-3.082c0,0 -0.046,-2.024 2.024,1.197c2.071,3.22 2.672,2.385 4.097,2.665c1.424,0.279 -1.198,1.384 1.424,0.279c2.623,-1.104 1.691,-0.76 3.33,-0.564c1.639,0.196 0.079,-1.736 2.447,0.61c2.367,2.347 2.091,2.991 3.241,2.991c1.151,0 1.381,-0.23 1.381,-0.23l0.486,-1.15l0,-0.89l-7.388,-4.954l0.368,-1.242c0,0 -2.07,-1.104 0.644,0.046c2.715,1.15 2.979,2 4.342,2.058c1.364,0.059 1.548,-0.402 2.606,0.427c1.058,0.828 1.38,1.104 1.38,1.104l2.635,-0.254l0.522,0.261l-1.454,2.293c0,0 0.046,0.369 0.736,0.829c0.69,0.46 -0.681,0.552 0.718,0.598c1.398,0.046 3.343,2.438 5.108,-0.276c1.766,-2.715 1.029,-2.163 2.18,-2.853c1.15,-0.69 -0.322,0.874 1.61,-0.828c1.933,-1.703 1.15,-1.703 2.163,-2.025c1.012,-0.322 1.978,-0.736 1.978,-0.736c0,0 5.153,-1.702 5.015,-4.049c-0.138,-2.346 -1.288,-1.012 -0.138,-2.392c1.15,-1.381 0.389,-2.025 2.518,-2.301c2.129,-0.276 4.66,-0.138 4.66,-0.138l-0.368,2.853c0,0 -1.841,0.736 -2.255,1.196c-0.414,0.46 -1.058,1.196 -1.058,1.196l-2.301,1.427l0.092,1.288l0.23,2.163l0.437,1.473c0,0 1.993,0.533 2.159,-0.516c0.165,-1.049 -0.019,-1.049 0.441,-1.786c0.46,-0.736 0.874,-0.782 1.427,-1.932c0.552,-1.15 1.058,-1.887 1.058,-1.887c0,0 -1.725,0.967 0.587,-0.736c2.311,-1.702 2.587,-0.966 2.587,-2.668c0,-1.703 -0.23,-1.841 0,-2.853c0.231,-1.012 1.131,-1.971 1.131,-1.971l1.39,0.269l0.654,1.242l0.23,2.899l0,2.208l0.598,0.276l1.105,-2.899l0.533,-1.141l1.989,-0.995l1.929,-4.144l-3.991,-3.474l2.062,-2.599l1.501,-3.046"/></clipPath><g clip-path="url(#_clip14)"><path d="M93.922,41.25l0,61.302l-56.194,-5.638l27.944,-41.539l28.25,-14.125Z" style="fill:#c4e783;fill-opacity:0.5;"/><path d="M91.248,50.487l0.117,-3.429l-4.209,-0.761c0,0 -1.796,2.623 -2.129,6.077c-0.073,0.756 1.676,1.716 1.563,2.513c-0.677,4.749 -2.055,9.842 -2.07,11.178c-0.029,2.584 1.714,5.617 0,6.965c-1.714,1.348 0.195,2.92 -2.051,3.594c-2.247,0.674 -3.275,6.594 -3.94,0.657c-0.666,-5.936 -1.255,-5.095 -0.511,-6.246c0.744,-1.151 1.393,-1.937 1.393,-1.937l0,-2.475l0,-1.569c0,0 -2.37,1.278 -3.082,3.11c-0.713,1.833 -2.854,6.536 -2.854,6.536c0,0 0.95,1.05 -2.554,3.003c-3.505,1.954 -5.728,2.245 -5.728,2.245c0,0 0.584,1.751 0,0c-0.585,-1.751 2.379,-9.027 2.379,-9.027c0,0 0.92,-1.278 -1.078,-0.54c-1.998,0.739 -3.269,3.926 -5.442,5.422c-2.173,1.495 -3.858,3.292 -3.858,3.292l-1.818,1.053l-0.023,-5.12c0,0 0.429,0.826 -3.527,3.345c-3.955,2.52 -4.694,2.762 -4.694,2.762c0,0 -0.582,1.837 -1.438,-0.719c-0.856,-2.556 -0.48,-1.803 -0.48,-1.803l0.747,-4.348l-2.31,-1.797l0,8.986l-6.929,1.405l-2.331,-0.057l2.092,-6.992c0,0 -0.074,0.14 -3.049,0.14c-2.974,0 -6.004,0.442 -6.004,0.442l-0.501,1.147c0,0 0.273,-0.466 -1.974,-0.241c-2.246,0.225 2.696,3.37 -2.808,-0.225c-5.504,-3.594 -5.776,2.826 -6.539,-4.091c-0.762,-6.917 -1.364,-6.95 -0.558,-7.888c0.807,-0.939 4.401,-0.152 1.031,-1.163c-3.37,-1.011 -3.081,-1.011 -3.081,-1.011c0,0 -1.616,-3.035 -5.108,-1.405c-3.493,1.629 -1.531,0.514 -3.692,3.262c-2.16,2.748 -1.904,-3.105 -6.525,6.955c-4.622,10.059 -12.468,11.148 -4.276,13.187c8.192,2.04 3.939,3.388 19.601,3.388c15.662,0 74.691,4.827 74.691,4.827l6.278,-14.124l-2.721,-28.523Z" style="fill:#9fb366;"/><clipPath id="_clip15"><path d="M91.248,50.487l0.117,-3.429l-4.209,-0.761c0,0 -1.796,2.623 -2.129,6.077c-0.073,0.756 1.676,1.716 1.563,2.513c-0.677,4.749 -2.055,9.842 -2.07,11.178c-0.029,2.584 1.714,5.617 0,6.965c-1.714,1.348 0.195,2.92 -2.051,3.594c-2.247,0.674 -3.275,6.594 -3.94,0.657c-0.666,-5.936 -1.255,-5.095 -0.511,-6.246c0.744,-1.151 1.393,-1.937 1.393,-1.937l0,-2.475l0,-1.569c0,0 -2.37,1.278 -3.082,3.11c-0.713,1.833 -2.854,6.536 -2.854,6.536c0,0 0.95,1.05 -2.554,3.003c-3.505,1.954 -5.728,2.245 -5.728,2.245c0,0 0.584,1.751 0,0c-0.585,-1.751 2.379,-9.027 2.379,-9.027c0,0 0.92,-1.278 -1.078,-0.54c-1.998,0.739 -3.269,3.926 -5.442,5.422c-2.173,1.495 -3.858,3.292 -3.858,3.292l-1.818,1.053l-0.023,-5.12c0,0 0.429,0.826 -3.527,3.345c-3.955,2.52 -4.694,2.762 -4.694,2.762c0,0 -0.582,1.837 -1.438,-0.719c-0.856,-2.556 -0.48,-1.803 -0.48,-1.803l0.747,-4.348l-2.31,-1.797l0,8.986l-6.929,1.405l-2.331,-0.057l2.092,-6.992c0,0 -0.074,0.14 -3.049,0.14c-2.974,0 -6.004,0.442 -6.004,0.442l-0.501,1.147c0,0 0.273,-0.466 -1.974,-0.241c-2.246,0.225 2.696,3.37 -2.808,-0.225c-5.504,-3.594 -5.776,2.826 -6.539,-4.091c-0.762,-6.917 -1.364,-6.95 -0.558,-7.888c0.807,-0.939 4.401,-0.152 1.031,-1.163c-3.37,-1.011 -3.081,-1.011 -3.081,-1.011c0,0 -1.616,-3.035 -5.108,-1.405c-3.493,1.629 -1.531,0.514 -3.692,3.262c-2.16,2.748 -1.904,-3.105 -6.525,6.955c-4.622,10.059 -12.468,11.148 -4.276,13.187c8.192,2.04 3.939,3.388 19.601,3.388c15.662,0 74.691,4.827 74.691,4.827l6.278,-14.124l-2.721,-28.523Z"/></clipPath><g clip-path="url(#_clip15)"><path d="M93.922,41.25l0,61.302l-56.194,-5.638l27.944,-41.539l28.25,-14.125Z" style="fill:#c4e783;fill-opacity:0.5;"/></g><path d="M45.194,65.614l-38.117,19.058l-10.217,-10.217l17.381,-24.016l30.953,15.175Z" style="fill-opacity:0.5;"/></g></g><path d="M51.18,0.946c0,0 10.587,-0.47 16.907,-0.028c6.32,0.441 9.304,-0.716 10.217,0c0.913,0.715 7.388,3.022 7.449,3.724c0.062,0.702 -2.68,4.138 -2.34,6.2c0.34,2.062 -2.265,-6.538 0,2.847c2.264,9.385 4.791,11.722 5.108,14.333c0.317,2.611 1.022,8.144 1.022,8.144c0,0 -5.233,-1.624 -6.13,-7.152c-0.897,-5.528 1.577,-3.878 -1.997,-7.864c-3.573,-3.986 -1.799,-2.585 -4.267,-5.484c-2.467,-2.9 -1.416,-5.059 -2.835,-2.536c-1.419,2.522 -1.203,0.717 -3.991,4.231c-2.788,3.514 -4.301,5.023 -4.301,5.023c0,0 -3.758,1.555 -6.552,-1.833c-2.793,-3.387 -3.252,-3.482 -3.252,-3.482l-0.365,-3.203c0,0 -3.157,-3.445 -4.946,-1.104c-1.789,2.341 -3.254,3.481 -3.254,3.481c0,0 -4.076,-4.769 0,0c4.076,4.77 5.109,5.869 5.109,5.869c0,0 0.482,0.701 0,1.794c-0.483,1.092 -2.817,3.7 -2.817,3.7c0,0 -5.347,-1.203 -5.767,-4.517c-0.42,-3.313 0.727,-1.696 -1.633,-4.292c-2.361,-2.595 -0.711,-6.224 -5.109,-2.554c-4.398,3.67 -3.436,5.869 0,8.206c3.436,2.336 0.459,3.573 5.109,7.009c4.649,3.436 7.904,6.872 5.108,7.284c-2.796,0.413 -8.705,-0.007 -10.217,-2.065c-1.512,-2.058 1.518,-3.282 -3.914,-3.151c-5.432,0.131 -11.412,0.597 -11.412,0.597l0,5.108c0,0 1.031,-0.076 0,2.947c-1.03,3.024 -1.874,8.208 -1.874,8.208c0,0 -3.327,-0.562 -3.234,-3.492c0.093,-2.929 -0.093,-4.264 0,-5.108c0.093,-0.845 -0.23,-0.432 0,-2.631c0.23,-2.199 0.594,-2.612 0,-4.811c-0.595,-2.199 -5.109,-5.33 -5.109,-5.33l0,-2.916c0,0 -0.803,-0.948 0,-2.192c0.803,-1.244 -0.357,-2.909 2.628,-3.795c2.986,-0.885 0.649,1.589 3.673,-1.16c3.024,-2.749 -1.238,-2.749 3.916,-3.986c5.155,-1.237 7.102,-2.244 8.602,-2.084c1.501,0.16 1.776,-0.665 3.013,-1.902c1.237,-1.237 -2.048,0.111 1.175,-1.113c3.223,-1.223 2.536,-1.361 2.536,-1.361c0,0 -0.463,0.651 2.586,-1.186c3.049,-1.837 0.653,-1.993 4.187,-3.015c3.535,-1.021 6.971,-3.358 6.971,-3.358Z" style="fill:#426433;"/><clipPath id="_clip16"><path d="M51.18,0.946c0,0 10.587,-0.47 16.907,-0.028c6.32,0.441 9.304,-0.716 10.217,0c0.913,0.715 7.388,3.022 7.449,3.724c0.062,0.702 -2.68,4.138 -2.34,6.2c0.34,2.062 -2.265,-6.538 0,2.847c2.264,9.385 4.791,11.722 5.108,14.333c0.317,2.611 1.022,8.144 1.022,8.144c0,0 -5.233,-1.624 -6.13,-7.152c-0.897,-5.528 1.577,-3.878 -1.997,-7.864c-3.573,-3.986 -1.799,-2.585 -4.267,-5.484c-2.467,-2.9 -1.416,-5.059 -2.835,-2.536c-1.419,2.522 -1.203,0.717 -3.991,4.231c-2.788,3.514 -4.301,5.023 -4.301,5.023c0,0 -3.758,1.555 -6.552,-1.833c-2.793,-3.387 -3.252,-3.482 -3.252,-3.482l-0.365,-3.203c0,0 -3.157,-3.445 -4.946,-1.104c-1.789,2.341 -3.254,3.481 -3.254,3.481c0,0 -4.076,-4.769 0,0c4.076,4.77 5.109,5.869 5.109,5.869c0,0 0.482,0.701 0,1.794c-0.483,1.092 -2.817,3.7 -2.817,3.7c0,0 -5.347,-1.203 -5.767,-4.517c-0.42,-3.313 0.727,-1.696 -1.633,-4.292c-2.361,-2.595 -0.711,-6.224 -5.109,-2.554c-4.398,3.67 -3.436,5.869 0,8.206c3.436,2.336 0.459,3.573 5.109,7.009c4.649,3.436 7.904,6.872 5.108,7.284c-2.796,0.413 -8.705,-0.007 -10.217,-2.065c-1.512,-2.058 1.518,-3.282 -3.914,-3.151c-5.432,0.131 -11.412,0.597 -11.412,0.597l0,5.108c0,0 1.031,-0.076 0,2.947c-1.03,3.024 -1.874,8.208 -1.874,8.208c0,0 -3.327,-0.562 -3.234,-3.492c0.093,-2.929 -0.093,-4.264 0,-5.108c0.093,-0.845 -0.23,-0.432 0,-2.631c0.23,-2.199 0.594,-2.612 0,-4.811c-0.595,-2.199 -5.109,-5.33 -5.109,-5.33l0,-2.916c0,0 -0.803,-0.948 0,-2.192c0.803,-1.244 -0.357,-2.909 2.628,-3.795c2.986,-0.885 0.649,1.589 3.673,-1.16c3.024,-2.749 -1.238,-2.749 3.916,-3.986c5.155,-1.237 7.102,-2.244 8.602,-2.084c1.501,0.16 1.776,-0.665 3.013,-1.902c1.237,-1.237 -2.048,0.111 1.175,-1.113c3.223,-1.223 2.536,-1.361 2.536,-1.361c0,0 -0.463,0.651 2.586,-1.186c3.049,-1.837 0.653,-1.993 4.187,-3.015c3.535,-1.021 6.971,-3.358 6.971,-3.358Z"/></clipPath><g clip-path="url(#_clip16)"><path d="M76.9,-11.024l17.752,48.425l-38.834,-12.989l-15.231,-22.941l36.313,-12.495" style="fill:#c4e783;fill-opacity:0.5;"/><path d="M75.056,-2.567c0.176,3.513 2.747,4.888 3.248,6.812c0.501,1.924 -0.638,0.824 0,4.535c0.639,3.711 3.298,9.112 3.298,9.112c0,0 0.325,1.884 -3.298,-4.301c-3.622,-6.185 -1.509,-7.01 -5.108,-6.872c-3.599,0.137 -4.969,1.237 -5.109,3.023c-0.14,1.787 2.476,-2.988 0,1.393c-2.476,4.38 -2.201,5.205 -3.851,5.067c-1.649,-0.137 -7.316,-4.334 -7.987,-5.878c-0.671,-1.544 -3.487,-4.43 -3.487,-4.43c0,0 0.342,-1.374 -1.445,-0.137c-1.787,1.237 -2.243,-0.825 -3.664,2.199c-1.421,3.023 -1.965,1.935 -2.174,4.266c-0.209,2.331 0.326,1.259 0.746,3.307c0.419,2.048 2.578,2.93 3.011,5.031c0.432,2.102 3.038,1.425 0.773,1.97c-2.265,0.544 -4.882,-1.507 -5.223,-2.612c-0.341,-1.105 -0.08,-3.138 -0.485,-5.351c-0.406,-2.213 0.466,-2.626 -1.756,-4.137c-2.223,-1.512 -1.948,-4.261 -5.109,-2.749c-3.161,1.512 -5.131,5.006 -5.109,6.008c0.023,1.001 -3.536,-2.956 -3.131,1.565c0.406,4.522 -0.19,8.782 3.131,10.706c3.322,1.925 5.109,3.024 5.109,3.024c0,0 -7.24,4.261 -10.217,1.512c-2.978,-2.749 -1.603,-3.848 -6.276,-4.261c-4.673,-0.412 -0.107,-2.26 -6.926,-1.267c-6.818,0.992 -12.341,4.046 -12.341,4.046c0,0 -15.309,-21.176 1.704,-24.69c17.013,-3.515 47.804,-13.677 51.856,-12.307c4.053,1.37 19.644,1.903 19.82,5.416Z" style="fill:#9fb366;"/><clipPath id="_clip17"><path d="M75.056,-2.567c0.176,3.513 2.747,4.888 3.248,6.812c0.501,1.924 -0.638,0.824 0,4.535c0.639,3.711 3.298,9.112 3.298,9.112c0,0 0.325,1.884 -3.298,-4.301c-3.622,-6.185 -1.509,-7.01 -5.108,-6.872c-3.599,0.137 -4.969,1.237 -5.109,3.023c-0.14,1.787 2.476,-2.988 0,1.393c-2.476,4.38 -2.201,5.205 -3.851,5.067c-1.649,-0.137 -7.316,-4.334 -7.987,-5.878c-0.671,-1.544 -3.487,-4.43 -3.487,-4.43c0,0 0.342,-1.374 -1.445,-0.137c-1.787,1.237 -2.243,-0.825 -3.664,2.199c-1.421,3.023 -1.965,1.935 -2.174,4.266c-0.209,2.331 0.326,1.259 0.746,3.307c0.419,2.048 2.578,2.93 3.011,5.031c0.432,2.102 3.038,1.425 0.773,1.97c-2.265,0.544 -4.882,-1.507 -5.223,-2.612c-0.341,-1.105 -0.08,-3.138 -0.485,-5.351c-0.406,-2.213 0.466,-2.626 -1.756,-4.137c-2.223,-1.512 -1.948,-4.261 -5.109,-2.749c-3.161,1.512 -5.131,5.006 -5.109,6.008c0.023,1.001 -3.536,-2.956 -3.131,1.565c0.406,4.522 -0.19,8.782 3.131,10.706c3.322,1.925 5.109,3.024 5.109,3.024c0,0 -7.24,4.261 -10.217,1.512c-2.978,-2.749 -1.603,-3.848 -6.276,-4.261c-4.673,-0.412 -0.107,-2.26 -6.926,-1.267c-6.818,0.992 -12.341,4.046 -12.341,4.046c0,0 -15.309,-21.176 1.704,-24.69c17.013,-3.515 47.804,-13.677 51.856,-12.307c4.053,1.37 19.644,1.903 19.82,5.416Z"/></clipPath><g clip-path="url(#_clip17)"><path d="M76.9,-11.024l17.752,48.425l-38.834,-12.989l-15.231,-22.941l36.313,-12.495" style="fill:#c4e783;fill-opacity:0.5;"/></g><path d="M2.698,20.507c3.174,-0.143 45.977,15.659 45.977,15.659l-40.868,20.434l-5.109,-36.093" style="fill-opacity:0.5;"/></g></g></svg>