<?xml version="1.0" encoding="UTF-8" standalone="no"?><!DOCTYPE svg PUBLIC "-//W3C//DTD SVG 1.1//EN" "http://www.w3.org/Graphics/SVG/1.1/DTD/svg11.dtd"><svg width="100%" height="100%" viewBox="0 0 72 98" version="1.1" xmlns="http://www.w3.org/2000/svg" xmlns:xlink="http://www.w3.org/1999/xlink" xml:space="preserve" xmlns:serif="http://www.serif.com/" style="fill-rule:evenodd;clip-rule:evenodd;stroke-linejoin:round;stroke-miterlimit:1.41421;"><g id="Runestone_runes_1"><g><g><g><path d="M51.154,0.435l20.434,10.217l-20.434,10.217l-20.434,-10.217l20.434,-10.217Z" style="fill:#9da8c9;"/><clipPath id="_clip1"><path d="M51.154,0.435l20.434,10.217l-20.434,10.217l-20.434,-10.217l20.434,-10.217Z"/></clipPath><g clip-path="url(#_clip1)"><path d="M74.219,69.304l-10.719,-7.911l-2.055,-16.353l-2.977,16.814l10.72,12.6l-15.707,10.328l-3.668,-13.492l1.415,-10.924l-5.109,4.654l0,13.225l-13.317,3.559l10.938,2.739l-11.142,12.484l-6.913,-10.649l-5.108,-3.656l-18.08,9.472l15.264,0.231l12.412,0.867l-4.488,7.709l-30.651,0.962l-2.387,-27.633l7.496,6.47l6.792,1.712l3.425,-1.712l-7.429,-3.714l-4.456,-12.446l-0.848,-23.451l12.733,8.959l1.982,4.118l1.421,-5.819l-3.403,-3.407l-11.817,-14.526l4.26,-17.455l17.774,16.655l-5.109,-17.88l11.545,-5.772l8.889,-4.445l7.848,9.033l4.367,5.294l3.111,-1.555l5.108,-4.978l-5.108,-3.078l0,2.947l-5.109,-2.554l2.564,-3.827l12.762,4.011l7.677,1.1l7.648,10.83l-1.66,12.598l1.66,31.482l7.734,-67.653l-72.438,-2.166l-40.256,53.098l18.115,65.252l76.628,-0.636l7.666,-41.511" style="fill:#8d323a;fill-opacity:0.7;"/><path d="M71.588,10.652l-20.434,7.207l-20.434,-7.207l16.528,11.037l-2.016,4.234l-4.295,0.054l-20.434,-10.217l15.325,9.861l-14.487,7.762l-21.272,-7.406l18.954,12.849l-0.446,18.765l-18.508,-6.071l5.108,2.554l15.326,10.054l2.854,-2.621l-2.854,7.763l-20.434,-7.533l18.752,12.069l1.682,23.691l1.935,-24.575l4.714,-14.51l-4.299,0.676l0.403,-5.141l-1.31,-16.129l18.225,-7.115l8.696,-0.761l5.176,-7.629l17.545,-11.661Z" style="fill:#f6d7d0;fill-opacity:0.9;"/></g><path d="M20.503,15.76l-20.434,10.217l20.434,10.217l20.434,-10.217l-20.434,-10.217" style="fill:#9da8c9;"/><clipPath id="_clip2"><path d="M20.503,15.76l-20.434,10.217l20.434,10.217l20.434,-10.217l-20.434,-10.217"/></clipPath><g clip-path="url(#_clip2)"><path d="M74.219,69.304l-10.719,-7.911l-2.055,-16.353l-2.977,16.814l10.72,12.6l-15.707,10.328l-3.668,-13.492l1.415,-10.924l-5.109,4.654l0,13.225l-13.317,3.559l10.938,2.739l-11.142,12.484l-6.913,-10.649l-5.108,-3.656l-18.08,9.472l15.264,0.231l12.412,0.867l-4.488,7.709l-30.651,0.962l-2.387,-27.633l7.496,6.47l6.792,1.712l3.425,-1.712l-7.429,-3.714l-4.456,-12.446l-0.848,-23.451l12.733,8.959l1.982,4.118l1.421,-5.819l-3.403,-3.407l-11.817,-14.526l4.26,-17.455l17.774,16.655l-5.109,-17.88l11.545,-5.772l8.889,-4.445l7.848,9.033l4.367,5.294l3.111,-1.555l5.108,-4.978l-5.108,-3.078l0,2.947l-5.109,-2.554l2.564,-3.827l12.762,4.011l7.677,1.1l7.648,10.83l-1.66,12.598l1.66,31.482l7.734,-67.653l-72.438,-2.166l-40.256,53.098l18.115,65.252l76.628,-0.636l7.666,-41.511" style="fill:#8d323a;fill-opacity:0.7;"/><path d="M71.588,10.652l-20.434,7.207l-20.434,-7.207l16.528,11.037l-2.016,4.234l-4.295,0.054l-20.434,-10.217l15.325,9.861l-14.487,7.762l-21.272,-7.406l18.954,12.849l-0.446,18.765l-18.508,-6.071l5.108,2.554l15.326,10.054l2.854,-2.621l-2.854,7.763l-20.434,-7.533l18.752,12.069l1.682,23.691l1.935,-24.575l4.714,-14.51l-4.299,0.676l0.403,-5.141l-1.31,-16.129l18.225,-7.115l8.696,-0.761l5.176,-7.629l17.545,-11.661Z" style="fill:#f6d7d0;fill-opacity:0.9;"/></g><path d="M30.72,10.652l-5.109,7.662l20.434,10.217l5.109,-7.662l-20.434,-10.217Z" style="fill:#6c7157;"/><clipPath id="_clip3"><path d="M30.72,10.652l-5.109,7.662l20.434,10.217l5.109,-7.662l-20.434,-10.217Z"/></clipPath><g clip-path="url(#_clip3)"><path d="M74.219,69.304l-10.719,-7.911l-2.055,-16.353l-2.977,16.814l10.72,12.6l-15.707,10.328l-3.668,-13.492l1.415,-10.924l-5.109,4.654l0,13.225l-13.317,3.559l10.938,2.739l-11.142,12.484l-6.913,-10.649l-5.108,-3.656l-18.08,9.472l15.264,0.231l12.412,0.867l-4.488,7.709l-30.651,0.962l-2.387,-27.633l7.496,6.47l6.792,1.712l3.425,-1.712l-7.429,-3.714l-4.456,-12.446l-0.848,-23.451l12.733,8.959l1.982,4.118l1.421,-5.819l-3.403,-3.407l-11.817,-14.526l4.26,-17.455l17.774,16.655l-5.109,-17.88l11.545,-5.772l8.889,-4.445l7.848,9.033l4.367,5.294l3.111,-1.555l5.108,-4.978l-5.108,-3.078l0,2.947l-5.109,-2.554l2.564,-3.827l12.762,4.011l7.677,1.1l7.648,10.83l-1.66,12.598l1.66,31.482l7.734,-67.653l-72.438,-2.166l-40.256,53.098l18.115,65.252l76.628,-0.636l7.666,-41.511" style="fill:#8d323a;fill-opacity:0.7;"/><path d="M71.588,10.652l-20.434,7.207l-20.434,-7.207l16.528,11.037l-2.016,4.234l-4.295,0.054l-20.434,-10.217l15.325,9.861l-14.487,7.762l-21.272,-7.406l18.954,12.849l-0.446,18.765l-18.508,-6.071l5.108,2.554l15.326,10.054l2.854,-2.621l-2.854,7.763l-20.434,-7.533l18.752,12.069l1.682,23.691l1.935,-24.575l4.714,-14.51l-4.299,0.676l0.403,-5.141l-1.31,-16.129l18.225,-7.115l8.696,-0.761l5.176,-7.629l17.545,-11.661Z" style="fill:#f6d7d0;fill-opacity:0.9;"/></g><path d="M71.588,10.652l-20.434,10.217l-5.109,7.662l-5.108,-2.554l-20.434,10.217l0,25.543l5.108,-2.554l-5.108,12.771l0,25.543l20.434,-10.217l0,-5.109l5.108,-2.554l5.109,2.554l20.434,-10.217l0,-30.651l-5.108,2.554l5.108,-12.771l0,-20.434" style="fill:#bac1d8;"/><clipPath id="_clip4"><path d="M71.588,10.652l-20.434,10.217l-5.109,7.662l-5.108,-2.554l-20.434,10.217l0,25.543l5.108,-2.554l-5.108,12.771l0,25.543l20.434,-10.217l0,-5.109l5.108,-2.554l5.109,2.554l20.434,-10.217l0,-30.651l-5.108,2.554l5.108,-12.771l0,-20.434"/></clipPath><g clip-path="url(#_clip4)"><path d="M74.219,69.304l-10.719,-7.911l-2.055,-16.353l-2.977,16.814l10.72,12.6l-15.707,10.328l-3.668,-13.492l1.415,-10.924l-5.109,4.654l0,13.225l-13.317,3.559l10.938,2.739l-11.142,12.484l-6.913,-10.649l-5.108,-3.656l-18.08,9.472l15.264,0.231l12.412,0.867l-4.488,7.709l-30.651,0.962l-2.387,-27.633l7.496,6.47l6.792,1.712l3.425,-1.712l-7.429,-3.714l-4.456,-12.446l-0.848,-23.451l12.733,8.959l1.982,4.118l1.421,-5.819l-3.403,-3.407l-11.817,-14.526l4.26,-17.455l17.774,16.655l-5.109,-17.88l11.545,-5.772l8.889,-4.445l7.848,9.033l4.367,5.294l3.111,-1.555l5.108,-4.978l-5.108,-3.078l0,2.947l-5.109,-2.554l2.564,-3.827l12.762,4.011l7.677,1.1l7.648,10.83l-1.66,12.598l1.66,31.482l7.734,-67.653l-72.438,-2.166l-40.256,53.098l18.115,65.252l76.628,-0.636l7.666,-41.511" style="fill:#8d323a;fill-opacity:0.7;"/><path d="M71.588,10.652l-20.434,7.207l-20.434,-7.207l16.528,11.037l-2.016,4.234l-4.295,0.054l-20.434,-10.217l15.325,9.861l-14.487,7.762l-21.272,-7.406l18.954,12.849l-0.446,18.765l-18.508,-6.071l5.108,2.554l15.326,10.054l2.854,-2.621l-2.854,7.763l-20.434,-7.533l18.752,12.069l1.682,23.691l1.935,-24.575l4.714,-14.51l-4.299,0.676l0.403,-5.141l-1.31,-16.129l18.225,-7.115l8.696,-0.761l5.176,-7.629l17.545,-11.661Z" style="fill:#f6d7d0;fill-opacity:0.9;"/></g><path d="M0.069,25.977l20.434,10.217l0,25.543l-20.434,-10.217l0,-25.543Z" style="fill:#6c7157;"/><clipPath id="_clip5"><path d="M0.069,25.977l20.434,10.217l0,25.543l-20.434,-10.217l0,-25.543Z"/></clipPath><g clip-path="url(#_clip5)"><path d="M74.219,69.304l-10.719,-7.911l-2.055,-16.353l-2.977,16.814l10.72,12.6l-15.707,10.328l-3.668,-13.492l1.415,-10.924l-5.109,4.654l0,13.225l-13.317,3.559l10.938,2.739l-11.142,12.484l-6.913,-10.649l-5.108,-3.656l-18.08,9.472l15.264,0.231l12.412,0.867l-4.488,7.709l-30.651,0.962l-2.387,-27.633l7.496,6.47l6.792,1.712l3.425,-1.712l-7.429,-3.714l-4.456,-12.446l-0.848,-23.451l12.733,8.959l1.982,4.118l1.421,-5.819l-3.403,-3.407l-11.817,-14.526l4.26,-17.455l17.774,16.655l-5.109,-17.88l11.545,-5.772l8.889,-4.445l7.848,9.033l4.367,5.294l3.111,-1.555l5.108,-4.978l-5.108,-3.078l0,2.947l-5.109,-2.554l2.564,-3.827l12.762,4.011l7.677,1.1l7.648,10.83l-1.66,12.598l1.66,31.482l7.734,-67.653l-72.438,-2.166l-40.256,53.098l18.115,65.252l76.628,-0.636l7.666,-41.511" style="fill:#8d323a;fill-opacity:0.7;"/><path d="M71.588,10.652l-20.434,7.207l-20.434,-7.207l16.528,11.037l-2.016,4.234l-4.295,0.054l-20.434,-10.217l15.325,9.861l-14.487,7.762l-21.272,-7.406l18.954,12.849l-0.446,18.765l-18.508,-6.071l5.108,2.554l15.326,10.054l2.854,-2.621l-2.854,7.763l-20.434,-7.533l18.752,12.069l1.682,23.691l1.935,-24.575l4.714,-14.51l-4.299,0.676l0.403,-5.141l-1.31,-16.129l18.225,-7.115l8.696,-0.761l5.176,-7.629l17.545,-11.661Z" style="fill:#f6d7d0;fill-opacity:0.4;"/></g><path d="M20.503,97.497l-20.434,-10.217l0,-25.543l20.434,10.217l0,25.543" style="fill:#6c7157;"/><clipPath id="_clip6"><path d="M20.503,97.497l-20.434,-10.217l0,-25.543l20.434,10.217l0,25.543"/></clipPath><g clip-path="url(#_clip6)"><path d="M74.219,69.304l-10.719,-7.911l-2.055,-16.353l-2.977,16.814l10.72,12.6l-15.707,10.328l-3.668,-13.492l1.415,-10.924l-5.109,4.654l0,13.225l-13.317,3.559l10.938,2.739l-11.142,12.484l-6.913,-10.649l-5.108,-3.656l-18.08,9.472l15.264,0.231l12.412,0.867l-4.488,7.709l-30.651,0.962l-2.387,-27.633l7.496,6.47l6.792,1.712l3.425,-1.712l-7.429,-3.714l-4.456,-12.446l-0.848,-23.451l12.733,8.959l1.982,4.118l1.421,-5.819l-3.403,-3.407l-11.817,-14.526l4.26,-17.455l17.774,16.655l-5.109,-17.88l11.545,-5.772l8.889,-4.445l7.848,9.033l4.367,5.294l3.111,-1.555l5.108,-4.978l-5.108,-3.078l0,2.947l-5.109,-2.554l2.564,-3.827l12.762,4.011l7.677,1.1l7.648,10.83l-1.66,12.598l1.66,31.482l7.734,-67.653l-72.438,-2.166l-40.256,53.098l18.115,65.252l76.628,-0.636l7.666,-41.511" style="fill:#8d323a;fill-opacity:0.7;"/><path d="M71.588,10.652l-20.434,7.207l-20.434,-7.207l16.528,11.037l-2.016,4.234l-4.295,0.054l-20.434,-10.217l15.325,9.861l-14.487,7.762l-21.272,-7.406l18.954,12.849l-0.446,18.765l-18.508,-6.071l5.108,2.554l15.326,10.054l2.854,-2.621l-2.854,7.763l-20.434,-7.533l18.752,12.069l1.682,23.691l1.935,-24.575l4.714,-14.51l-4.299,0.676l0.403,-5.141l-1.31,-16.129l18.225,-7.115l8.696,-0.761l5.176,-7.629l17.545,-11.661Z" style="fill:#f6d7d0;fill-opacity:0.4;"/></g><path d="M0.069,51.52l5.108,2.554l-5.108,7.663l20.434,10.217l5.108,-12.771l-5.108,2.554l-20.434,-10.217Z" style="fill:#574052;"/><clipPath id="_clip7"><path d="M0.069,51.52l5.108,2.554l-5.108,7.663l20.434,10.217l5.108,-12.771l-5.108,2.554l-20.434,-10.217Z"/></clipPath><g clip-path="url(#_clip7)"><path d="M71.588,10.652l-20.434,7.207l-20.434,-7.207l16.528,11.037l-2.016,4.234l-4.295,0.054l-20.434,-10.217l15.325,9.861l-14.487,7.762l-21.272,-7.406l18.954,12.849l-0.446,18.765l-18.508,-6.071l5.108,2.554l15.326,10.054l2.854,-2.621l-2.854,7.763l-20.434,-7.533l18.752,12.069l1.682,23.691l1.935,-24.575l4.714,-14.51l-4.299,0.676l0.403,-5.141l-1.31,-16.129l18.225,-7.115l8.696,-0.761l5.176,-7.629l17.545,-11.661Z" style="fill:#f6d7d0;fill-opacity:0.4;"/></g></g></g></g></g></svg>