<?xml version="1.0" encoding="UTF-8" standalone="no"?><!DOCTYPE svg PUBLIC "-//W3C//DTD SVG 1.1//EN" "http://www.w3.org/Graphics/SVG/1.1/DTD/svg11.dtd"><svg width="100%" height="100%" viewBox="0 0 88 103" version="1.1" xmlns="http://www.w3.org/2000/svg" xmlns:xlink="http://www.w3.org/1999/xlink" xml:space="preserve" xmlns:serif="http://www.serif.com/" style="fill-rule:evenodd;clip-rule:evenodd;stroke-linejoin:round;stroke-miterlimit:1.41421;"><g id="Runestone_mossy_3"><g id="F_Runestone_grass_runes_3"><g id="F_Runestone_runes_3"><g><g><path d="M76.981,0.153l5.109,12.771l-20.434,5.108l-20.434,-10.217l35.759,-7.662Z" style="fill:#9da8c9;"/><clipPath id="_clip1"><path d="M76.981,0.153l5.109,12.771l-20.434,5.108l-20.434,-10.217l35.759,-7.662Z"/></clipPath><g clip-path="url(#_clip1)"><path d="M76.981,0.153l1.535,10.984l-15.906,3.668l-21.388,-6.99l17.839,10.297l-5.126,3.781l-17.822,-6.415l10.217,6.989l0,0.645l-10.217,0.726l-5.108,-0.697l-4.202,9.81l-16.232,-9.81l-0.845,3.678l13.597,10.38l4.045,17.445l-16.797,-5.96l14.66,7.33l0.665,1.775l6.794,9.435l-22.119,-8.323l18.652,12.194l1.782,6.049l-20.434,-13.135l3.249,5.312l17.185,11.371l2.814,3.871l2.294,7.543l2.626,-5.607l0.405,-6.125l-3.031,-5.327l4.077,-4.355l-4.838,-12.016l-2.212,-21.277l4.448,-5.858l3.634,2.78l0.662,-4.274l8.708,-1.374l3.032,-1.516l4.631,0.471l6.606,-0.981l1.903,-2.809l-2.172,-2.165l19.872,-5.577l-2.374,-3.172l-5.109,-12.771Z" style="fill:#f6d7d0;fill-opacity:0.9;"/></g><path d="M36.113,15.478l-10.217,5.109l-15.325,2.554l17.852,14.035l6.39,1.254l11.517,-12.735l5.109,-2.554l-15.326,-7.663Z" style="fill:#9da8c9;"/><clipPath id="_clip2"><path d="M36.113,15.478l-10.217,5.109l-15.325,2.554l17.852,14.035l6.39,1.254l11.517,-12.735l5.109,-2.554l-15.326,-7.663Z"/></clipPath><g clip-path="url(#_clip2)"><path d="M76.981,0.153l1.535,10.984l-15.906,3.668l-21.388,-6.99l17.839,10.297l-5.126,3.781l-17.822,-6.415l10.217,6.989l0,0.645l-10.217,0.726l-5.108,-0.697l-4.202,9.81l-16.232,-9.81l-0.845,3.678l13.597,10.38l4.045,17.445l-16.797,-5.96l14.66,7.33l0.665,1.775l6.794,9.435l-22.119,-8.323l18.652,12.194l1.782,6.049l-20.434,-13.135l3.249,5.312l17.185,11.371l2.814,3.871l2.294,7.543l2.626,-5.607l0.405,-6.125l-3.031,-5.327l4.077,-4.355l-4.838,-12.016l-2.212,-21.277l4.448,-5.858l3.634,2.78l0.662,-4.274l8.708,-1.374l3.032,-1.516l4.631,0.471l6.606,-0.981l1.903,-2.809l-2.172,-2.165l19.872,-5.577l-2.374,-3.172l-5.109,-12.771Z" style="fill:#f6d7d0;fill-opacity:0.9;"/></g><path d="M82.09,12.924l-20.434,5.108l-10.217,5.109l-5.109,2.554l-15.325,-2.554l-2.584,14.034l2.584,21.726l5.108,12.771l-5.108,-2.554l5.108,12.771l0,10.217l5.925,-6.072l9.401,-1.591l7.325,-3.662l-2.217,-4.001l5.109,2.555l13.112,-6.557l-2.895,-8.769l1.834,-0.917l0.404,-1.696l-2.238,-2.495l8.349,-11.152l1.868,-9.283l0,-10.217l5.109,-7.662l-5.109,-7.663Z" style="fill:#bac1d8;"/><clipPath id="_clip3"><path d="M82.09,12.924l-20.434,5.108l-10.217,5.109l-5.109,2.554l-15.325,-2.554l-2.584,14.034l2.584,21.726l5.108,12.771l-5.108,-2.554l5.108,12.771l0,10.217l5.925,-6.072l9.401,-1.591l7.325,-3.662l-2.217,-4.001l5.109,2.555l13.112,-6.557l-2.895,-8.769l1.834,-0.917l0.404,-1.696l-2.238,-2.495l8.349,-11.152l1.868,-9.283l0,-10.217l5.109,-7.662l-5.109,-7.663Z"/></clipPath><g clip-path="url(#_clip3)"><path d="M76.981,0.153l1.535,10.984l-15.906,3.668l-21.388,-6.99l17.839,10.297l-5.126,3.781l-17.822,-6.415l10.217,6.989l0,0.645l-10.217,0.726l-5.108,-0.697l-4.202,9.81l-16.232,-9.81l-0.845,3.678l13.597,10.38l4.045,17.445l-16.797,-5.96l14.66,7.33l0.665,1.775l6.794,9.435l-22.119,-8.323l18.652,12.194l1.782,6.049l-20.434,-13.135l3.249,5.312l17.185,11.371l2.814,3.871l2.294,7.543l2.626,-5.607l0.405,-6.125l-3.031,-5.327l4.077,-4.355l-4.838,-12.016l-2.212,-21.277l4.448,-5.858l3.634,2.78l0.662,-4.274l8.708,-1.374l3.032,-1.516l4.631,0.471l6.606,-0.981l1.903,-2.809l-2.172,-2.165l19.872,-5.577l-2.374,-3.172l-5.109,-12.771Z" style="fill:#f6d7d0;fill-opacity:0.9;"/></g><path d="M25.896,20.587l5.109,2.554l-2.442,14.105l-17.992,-14.105l15.325,-2.554Z" style="fill:#6c7157;"/><clipPath id="_clip4"><path d="M25.896,20.587l5.109,2.554l-2.442,14.105l-17.992,-14.105l15.325,-2.554Z"/></clipPath><g clip-path="url(#_clip4)"><path d="M76.981,0.153l1.535,10.984l-15.906,3.668l-21.388,-6.99l17.839,10.297l-5.126,3.781l-17.822,-6.415l10.217,6.989l0,0.645l-10.217,0.726l-5.108,-0.697l-4.202,9.81l-16.232,-9.81l-0.845,3.678l13.597,10.38l4.045,17.445l-16.797,-5.96l14.66,7.33l0.665,1.775l6.794,9.435l-22.119,-8.323l18.652,12.194l1.782,6.049l-20.434,-13.135l3.249,5.312l17.185,11.371l2.814,3.871l2.294,7.543l2.626,-5.607l0.405,-6.125l-3.031,-5.327l4.077,-4.355l-4.838,-12.016l-2.212,-21.277l4.448,-5.858l3.634,2.78l0.662,-4.274l8.708,-1.374l3.032,-1.516l4.631,0.471l6.606,-0.981l1.903,-2.809l-2.172,-2.165l19.872,-5.577l-2.374,-3.172l-5.109,-12.771Z" style="fill:#f6d7d0;fill-opacity:0.9;"/></g><path d="M10.571,23.141l17.852,14.035l2.582,21.725l-20.434,-10.217l-5.109,-7.663l5.109,-17.88Z" style="fill:#574052;"/><clipPath id="_clip5"><path d="M10.571,23.141l17.852,14.035l2.582,21.725l-20.434,-10.217l-5.109,-7.663l5.109,-17.88Z"/></clipPath><g clip-path="url(#_clip5)"><path d="M76.981,0.153l1.535,10.984l-15.906,3.668l-21.388,-6.99l17.839,10.297l-5.126,3.781l-17.822,-6.415l10.217,6.989l0,0.645l-10.217,0.726l-5.108,-0.697l-4.202,9.81l-16.232,-9.81l-0.845,3.678l13.597,10.38l4.045,17.445l-16.797,-5.96l14.66,7.33l0.665,1.775l6.794,9.435l-22.119,-8.323l18.652,12.194l1.782,6.049l-20.434,-13.135l3.249,5.312l17.185,11.371l2.814,3.871l2.294,7.543l2.626,-5.607l0.405,-6.125l-3.031,-5.327l4.077,-4.355l-4.838,-12.016l-2.212,-21.277l4.448,-5.858l3.634,2.78l0.662,-4.274l8.708,-1.374l3.032,-1.516l4.631,0.471l6.606,-0.981l1.903,-2.809l-2.172,-2.165l19.872,-5.577l-2.374,-3.172l-5.109,-12.771Z" style="fill:#f6d7d0;fill-opacity:0.4;"/></g><path d="M36.113,92.106l-20.434,-10.217l-5.108,-17.88l0,-5.108l20.434,10.217l5.108,12.771l0,10.217Z" style="fill:#6c7157;"/><clipPath id="_clip6"><path d="M36.113,92.106l-20.434,-10.217l-5.108,-17.88l0,-5.108l20.434,10.217l5.108,12.771l0,10.217Z"/></clipPath><g clip-path="url(#_clip6)"><path d="M76.981,0.153l1.535,10.984l-15.906,3.668l-21.388,-6.99l17.839,10.297l-5.126,3.781l-17.822,-6.415l10.217,6.989l0,0.645l-10.217,0.726l-5.108,-0.697l-4.202,9.81l-16.232,-9.81l-0.845,3.678l13.597,10.38l4.045,17.445l-16.797,-5.96l14.66,7.33l0.665,1.775l6.794,9.435l-22.119,-8.323l18.652,12.194l1.782,6.049l-20.434,-13.135l3.249,5.312l17.185,11.371l2.814,3.871l2.294,7.543l2.626,-5.607l0.405,-6.125l-3.031,-5.327l4.077,-4.355l-4.838,-12.016l-2.212,-21.277l4.448,-5.858l3.634,2.78l0.662,-4.274l8.708,-1.374l3.032,-1.516l4.631,0.471l6.606,-0.981l1.903,-2.809l-2.172,-2.165l19.872,-5.577l-2.374,-3.172l-5.109,-12.771Z" style="fill:#f6d7d0;fill-opacity:0.4;"/></g><path d="M10.571,48.684l15.325,7.662l-15.325,2.555l25.542,12.771l-5.108,-12.771l-20.434,-10.217Z" style="fill:#574052;"/><clipPath id="_clip7"><path d="M10.571,48.684l15.325,7.662l-15.325,2.555l25.542,12.771l-5.108,-12.771l-20.434,-10.217Z"/></clipPath><g clip-path="url(#_clip7)"><path d="M76.981,0.153l1.535,10.984l-15.906,3.668l-21.388,-6.99l17.839,10.297l-5.126,3.781l-17.822,-6.415l10.217,6.989l0,0.645l-10.217,0.726l-5.108,-0.697l-4.202,9.81l-16.232,-9.81l-0.845,3.678l13.597,10.38l4.045,17.445l-16.797,-5.96l14.66,7.33l0.665,1.775l6.794,9.435l-22.119,-8.323l18.652,12.194l1.782,6.049l-20.434,-13.135l3.249,5.312l17.185,11.371l2.814,3.871l2.294,7.543l2.626,-5.607l0.405,-6.125l-3.031,-5.327l4.077,-4.355l-4.838,-12.016l-2.212,-21.277l4.448,-5.858l3.634,2.78l0.662,-4.274l8.708,-1.374l3.032,-1.516l4.631,0.471l6.606,-0.981l1.903,-2.809l-2.172,-2.165l19.872,-5.577l-2.374,-3.172l-5.109,-12.771Z" style="fill:#f6d7d0;fill-opacity:0.4;"/></g><path d="M10.571,64.009l25.542,17.88l0,10.217l-20.434,-10.217l-5.108,-17.88Z" style="fill:#574052;"/><clipPath id="_clip8"><path d="M10.571,64.009l25.542,17.88l0,10.217l-20.434,-10.217l-5.108,-17.88Z"/></clipPath><g clip-path="url(#_clip8)"><path d="M76.981,0.153l1.535,10.984l-15.906,3.668l-21.388,-6.99l17.839,10.297l-5.126,3.781l-17.822,-6.415l10.217,6.989l0,0.645l-10.217,0.726l-5.108,-0.697l-4.202,9.81l-16.232,-9.81l-0.845,3.678l13.597,10.38l4.045,17.445l-16.797,-5.96l14.66,7.33l0.665,1.775l6.794,9.435l-22.119,-8.323l18.652,12.194l1.782,6.049l-20.434,-13.135l3.249,5.312l17.185,11.371l2.814,3.871l2.294,7.543l2.626,-5.607l0.405,-6.125l-3.031,-5.327l4.077,-4.355l-4.838,-12.016l-2.212,-21.277l4.448,-5.858l3.634,2.78l0.662,-4.274l8.708,-1.374l3.032,-1.516l4.631,0.471l6.606,-0.981l1.903,-2.809l-2.172,-2.165l19.872,-5.577l-2.374,-3.172l-5.109,-12.771Z" style="fill:#f6d7d0;fill-opacity:0.4;"/></g><path d="M41.222,7.815l-5.109,7.663l20.434,10.217l0,-2.296l5.974,0.175l-3.32,-1.661l2.455,-3.881l-20.434,-10.217Z" style="fill:#6c7157;"/><clipPath id="_clip9"><path d="M41.222,7.815l-5.109,7.663l20.434,10.217l0,-2.296l5.974,0.175l-3.32,-1.661l2.455,-3.881l-20.434,-10.217Z"/></clipPath><g clip-path="url(#_clip9)"><path d="M76.981,0.153l1.535,10.984l-15.906,3.668l-21.388,-6.99l17.839,10.297l-5.126,3.781l-17.822,-6.415l10.217,6.989l0,0.645l-10.217,0.726l-5.108,-0.697l-4.202,9.81l-16.232,-9.81l-0.845,3.678l13.597,10.38l4.045,17.445l-16.797,-5.96l14.66,7.33l0.665,1.775l6.794,9.435l-22.119,-8.323l18.652,12.194l1.782,6.049l-20.434,-13.135l3.249,5.312l17.185,11.371l2.814,3.871l2.294,7.543l2.626,-5.607l0.405,-6.125l-3.031,-5.327l4.077,-4.355l-4.838,-12.016l-2.212,-21.277l4.448,-5.858l3.634,2.78l0.662,-4.274l8.708,-1.374l3.032,-1.516l4.631,0.471l6.606,-0.981l1.903,-2.809l-2.172,-2.165l19.872,-5.577l-2.374,-3.172l-5.109,-12.771Z" style="fill:#f6d7d0;fill-opacity:0.9;"/></g></g></g></g><path d="M69.888,75.255l-7.958,3.979l-5.108,-2.555l11.264,17.534l4.625,-13.884l-2.823,-5.074Z" style="fill:#9fb366;"/><path d="M79.273,49.282c0,0 0.909,4.742 3.092,14.626c2.182,9.883 -2.767,17.028 -5.109,17.88c-2.342,0.852 0.97,-0.254 -3.038,6.627c-4.008,6.882 -1.135,13.3 -8.172,9.195c-7.037,-4.105 -17.509,1.943 -19.441,1.943c-1.932,0 -4.321,1.496 -7.943,1.532c-3.622,0.036 4.459,3.587 -4.958,-0.205c-9.417,-3.791 2.786,3.052 -9.363,-4.682c-12.15,-7.734 -13.496,-6.747 -13.496,-6.747c0,0 2.127,0.021 0,-2.891c-2.127,-2.912 -7.835,-2.36 -6.549,-5.492c1.286,-3.132 3.862,-7.053 3.862,-7.053c0,0 5.893,3.784 0.315,-1.076c-5.579,-4.86 -8.095,-3.628 -7.845,-6.428c0.25,-2.8 0,-3.472 0,-3.472c0,0 2.525,1.638 3.684,-0.973c1.158,-2.611 4.959,-4.053 4.959,-4.053l9.405,-0.407l-7.831,1.193l0,5.109l4.428,15.394c0,0 0.86,0.573 2.724,-0.645c1.864,-1.219 0.932,-1.434 2.079,-1.219c1.147,0.215 1.616,-0.639 2.206,1.186c0.59,1.825 -1.274,0.893 0.948,2.47c2.222,1.577 1.652,1.434 2.941,2.365c1.288,0.932 0.572,1.291 2.292,1.362c1.72,0.072 0.184,-0.922 1.776,0.041c1.593,0.963 0.805,0.82 2.023,1.106c1.219,0.287 3.035,0.383 3.035,0.383l1.091,-0.168c0,0 -0.964,-1.003 0,-1.362c0.964,-0.358 1.752,-0.358 1.752,-0.358c0,0 -0.215,0.932 1.291,0.215c1.505,-0.717 3.154,-2.294 4.229,-2.867c1.075,-0.574 0.298,-1.147 2.945,-1.434c2.646,-0.287 -0.337,-0.161 2.911,-0.045c3.248,0.117 2.667,0.203 4.212,-0.091c1.545,-0.294 2.19,-0.007 2.047,-1.298c-0.144,-1.29 2.437,0.144 3.799,0.359c1.362,0.215 -0.43,1.864 1.218,1.864c1.649,0 3.754,-0.625 3.754,-0.625c0,0 -0.528,0.481 1.336,-0.236c1.864,-0.716 2.366,-1.147 2.366,-1.147c0,0 1.313,-0.691 0.692,-1.528c-0.621,-0.837 -0.722,-1.54 -0.722,-1.54c0,0 -0.902,0.559 -0.042,-1.233c0.86,-1.792 0.686,-2.375 0.686,-2.375c0,0 -2.552,-0.352 -0.651,-1.497c1.9,-1.146 2.329,0.07 2.15,-1.075c-0.178,-1.146 -0.34,-0.751 -0.689,-2.131c-0.349,-1.38 -0.421,-0.448 -0.349,-1.452c0.072,-1.004 0.228,-1.121 0.228,-1.121c0,0 -1.16,-0.528 0.489,-1.03c1.648,-0.501 0.416,-1.397 2.107,-0.268c1.692,1.129 2.265,2.706 2.265,2.706l0.746,6.006l-0.669,-5.388l0.276,-0.549l-1.015,-1.679l-1.027,-0.99l-0.138,-0.325l1.391,-0.695l0.408,-1.802l-2.237,-2.393l7.126,-9.517Z" style="fill:#426433;"/><clipPath id="_clip10"><path d="M79.273,49.282c0,0 0.909,4.742 3.092,14.626c2.182,9.883 -2.767,17.028 -5.109,17.88c-2.342,0.852 0.97,-0.254 -3.038,6.627c-4.008,6.882 -1.135,13.3 -8.172,9.195c-7.037,-4.105 -17.509,1.943 -19.441,1.943c-1.932,0 -4.321,1.496 -7.943,1.532c-3.622,0.036 4.459,3.587 -4.958,-0.205c-9.417,-3.791 2.786,3.052 -9.363,-4.682c-12.15,-7.734 -13.496,-6.747 -13.496,-6.747c0,0 2.127,0.021 0,-2.891c-2.127,-2.912 -7.835,-2.36 -6.549,-5.492c1.286,-3.132 3.862,-7.053 3.862,-7.053c0,0 5.893,3.784 0.315,-1.076c-5.579,-4.86 -8.095,-3.628 -7.845,-6.428c0.25,-2.8 0,-3.472 0,-3.472c0,0 2.525,1.638 3.684,-0.973c1.158,-2.611 4.959,-4.053 4.959,-4.053l9.405,-0.407l-7.831,1.193l0,5.109l4.428,15.394c0,0 0.86,0.573 2.724,-0.645c1.864,-1.219 0.932,-1.434 2.079,-1.219c1.147,0.215 1.616,-0.639 2.206,1.186c0.59,1.825 -1.274,0.893 0.948,2.47c2.222,1.577 1.652,1.434 2.941,2.365c1.288,0.932 0.572,1.291 2.292,1.362c1.72,0.072 0.184,-0.922 1.776,0.041c1.593,0.963 0.805,0.82 2.023,1.106c1.219,0.287 3.035,0.383 3.035,0.383l1.091,-0.168c0,0 -0.964,-1.003 0,-1.362c0.964,-0.358 1.752,-0.358 1.752,-0.358c0,0 -0.215,0.932 1.291,0.215c1.505,-0.717 3.154,-2.294 4.229,-2.867c1.075,-0.574 0.298,-1.147 2.945,-1.434c2.646,-0.287 -0.337,-0.161 2.911,-0.045c3.248,0.117 2.667,0.203 4.212,-0.091c1.545,-0.294 2.19,-0.007 2.047,-1.298c-0.144,-1.29 2.437,0.144 3.799,0.359c1.362,0.215 -0.43,1.864 1.218,1.864c1.649,0 3.754,-0.625 3.754,-0.625c0,0 -0.528,0.481 1.336,-0.236c1.864,-0.716 2.366,-1.147 2.366,-1.147c0,0 1.313,-0.691 0.692,-1.528c-0.621,-0.837 -0.722,-1.54 -0.722,-1.54c0,0 -0.902,0.559 -0.042,-1.233c0.86,-1.792 0.686,-2.375 0.686,-2.375c0,0 -2.552,-0.352 -0.651,-1.497c1.9,-1.146 2.329,0.07 2.15,-1.075c-0.178,-1.146 -0.34,-0.751 -0.689,-2.131c-0.349,-1.38 -0.421,-0.448 -0.349,-1.452c0.072,-1.004 0.228,-1.121 0.228,-1.121c0,0 -1.16,-0.528 0.489,-1.03c1.648,-0.501 0.416,-1.397 2.107,-0.268c1.692,1.129 2.265,2.706 2.265,2.706l0.746,6.006l-0.669,-5.388l0.276,-0.549l-1.015,-1.679l-1.027,-0.99l-0.138,-0.325l1.391,-0.695l0.408,-1.802l-2.237,-2.393l7.126,-9.517Z"/></clipPath><g clip-path="url(#_clip10)"><path d="M88.152,41.194l-32.145,84.186l-40.868,-15.326l66.411,-68.965l6.602,0.105c0,0 -5.476,70.328 -23.955,62.738" style="fill:#c4e783;fill-opacity:0.5;"/><path d="M72.147,76.814l-1.777,1.531l-1.237,2.396l-1.03,1.579l-1.064,-0.532c0,0 -0.694,-2.141 -3.059,1.529c-2.365,3.671 -3.921,5.198 -3.921,5.198c0,0 -1.59,1.273 -3.237,1.74c-1.647,0.466 -2.555,-0.696 -2.848,-1.935c-0.292,-1.239 -0.699,-4.759 -0.699,-4.759l-1.562,-1.24l-3.916,-1.129l-0.32,1.032c0,0 -0.575,4.114 -0.872,4.672c-0.297,0.558 -2.351,2.985 -2.351,2.985l-4.158,0.27l-1.747,-2.274c0,0 0.159,-0.143 -1.961,-0.143c-2.121,0 -5.109,0 -5.109,0c0,0 -4.244,3.361 -5.108,1.774c-0.864,-1.587 -3.291,-7.281 -3.291,-7.281l-0.373,-0.933l-5.22,-0.173l-0.171,1.248c0,0 -0.715,0.045 -1.162,-1.822c-0.448,-1.866 -1.719,-3.008 -1.719,-3.008l-0.863,-2.151c0,0 0.255,1.263 -0.859,-0.429c-1.114,-1.692 1.792,-1.319 -1.668,-3.839c-3.459,-2.52 -3.867,-4.037 -3.867,-4.037c0,0 -1.397,-0.443 -1.241,-2.497c0.155,-2.053 0.249,-4.666 -1.525,-6.16c-1.773,-1.493 -0.373,-6.44 -4.573,-1.96c-4.201,4.48 -6.802,21.817 -7.881,28.549c-1.08,6.733 -23.462,20.095 8.87,19.761c32.332,-0.334 80.775,-1.641 80.775,-1.641l11.179,-42.189l-6.601,-10.555l-2.583,2.783l-2.41,-0.171l-3.732,0.29l1.067,1.493l0.622,2.303l0.821,0.411l-1.157,3.177c0,0 0.918,3.798 0.363,4.927c-0.556,1.129 -0.076,1.316 -1.716,2.063c-1.64,0.746 -1.64,0.933 -1.64,0.933l-1.075,-1.199l0.327,2.976l-1.119,2.05l-1.602,-5.6c0,0 0.359,-0.28 0,1.026c-0.358,1.307 0.732,2.24 0,3.641c-0.731,1.4 0.359,1.156 0,2.631c-0.358,1.475 0,2.689 0,2.689Z" style="fill:#9fb366;"/><clipPath id="_clip11"><path d="M72.147,76.814l-1.777,1.531l-1.237,2.396l-1.03,1.579l-1.064,-0.532c0,0 -0.694,-2.141 -3.059,1.529c-2.365,3.671 -3.921,5.198 -3.921,5.198c0,0 -1.59,1.273 -3.237,1.74c-1.647,0.466 -2.555,-0.696 -2.848,-1.935c-0.292,-1.239 -0.699,-4.759 -0.699,-4.759l-1.562,-1.24l-3.916,-1.129l-0.32,1.032c0,0 -0.575,4.114 -0.872,4.672c-0.297,0.558 -2.351,2.985 -2.351,2.985l-4.158,0.27l-1.747,-2.274c0,0 0.159,-0.143 -1.961,-0.143c-2.121,0 -5.109,0 -5.109,0c0,0 -4.244,3.361 -5.108,1.774c-0.864,-1.587 -3.291,-7.281 -3.291,-7.281l-0.373,-0.933l-5.22,-0.173l-0.171,1.248c0,0 -0.715,0.045 -1.162,-1.822c-0.448,-1.866 -1.719,-3.008 -1.719,-3.008l-0.863,-2.151c0,0 0.255,1.263 -0.859,-0.429c-1.114,-1.692 1.792,-1.319 -1.668,-3.839c-3.459,-2.52 -3.867,-4.037 -3.867,-4.037c0,0 -1.397,-0.443 -1.241,-2.497c0.155,-2.053 0.249,-4.666 -1.525,-6.16c-1.773,-1.493 -0.373,-6.44 -4.573,-1.96c-4.201,4.48 -6.802,21.817 -7.881,28.549c-1.08,6.733 -23.462,20.095 8.87,19.761c32.332,-0.334 80.775,-1.641 80.775,-1.641l11.179,-42.189l-6.601,-10.555l-2.583,2.783l-2.41,-0.171l-3.732,0.29l1.067,1.493l0.622,2.303l0.821,0.411l-1.157,3.177c0,0 0.918,3.798 0.363,4.927c-0.556,1.129 -0.076,1.316 -1.716,2.063c-1.64,0.746 -1.64,0.933 -1.64,0.933l-1.075,-1.199l0.327,2.976l-1.119,2.05l-1.602,-5.6c0,0 0.359,-0.28 0,1.026c-0.358,1.307 0.732,2.24 0,3.641c-0.731,1.4 0.359,1.156 0,2.631c-0.358,1.475 0,2.689 0,2.689Z"/></clipPath><g clip-path="url(#_clip11)"><path d="M88.152,41.194l-32.145,84.186l-40.868,-15.326l66.411,-68.965l6.602,0.105c0,0 -5.476,70.328 -23.955,62.738" style="fill:#c4e783;fill-opacity:0.5;"/></g><path d="M30.465,76.849l-25.543,17.879l-8.953,-35.127l24.279,-13.404l10.217,30.652Z" style="fill-opacity:0.5;"/></g></g><path d="M54.851,8.155c6.459,0.825 5.33,1.512 6.994,0.825c1.664,-0.687 1.132,1.237 5.109,-1.65c3.977,-2.886 -1.146,-2.825 3.546,-3.749c4.692,-0.924 3.592,-2.298 4.967,-0.374c1.374,1.924 0.247,2.199 1.704,3.299c1.457,1.099 2.034,2.94 2.034,2.94c0,0 4.481,-1.761 -2.034,1.017c-6.515,2.777 -3.025,3.572 -7.037,3.519c-4.013,-0.054 -4.889,0.735 -4.889,0.735c0,0 -0.911,-0.24 -2.01,0.585c-1.1,0.825 -2.641,-0.412 -1.39,1.237c1.252,1.649 -2.634,0.764 1.027,2.1c3.661,1.336 2.716,1.234 4.082,2.041c1.366,0.807 2.345,-2.25 2.13,1.065c-0.214,3.315 -2.122,4.14 -2.13,6.064c-0.009,1.924 0.926,5.855 -1.191,3.683c-2.116,-2.171 -3.245,-1.379 -3.918,-3.149c-0.672,-1.771 -0.122,-1.771 -1.222,-2.458c-1.099,-0.687 -1.585,-1.247 -1.585,-1.247c0,0 -1.789,0.697 -2.301,-0.815c-0.512,-1.512 -1.227,-2.53 -1.227,-2.53l-0.784,-1.619l-3.098,-0.111l-2.729,-2.802c0,0 -2.601,-0.645 -2.379,-1.19c0.222,-0.544 -1.459,-1.369 0,-3.705c1.459,-2.337 2.181,-4.881 3.057,-4.983c0.876,-0.102 5.274,1.272 5.274,1.272" style="fill:#426433;"/><clipPath id="_clip12"><path d="M54.851,8.155c6.459,0.825 5.33,1.512 6.994,0.825c1.664,-0.687 1.132,1.237 5.109,-1.65c3.977,-2.886 -1.146,-2.825 3.546,-3.749c4.692,-0.924 3.592,-2.298 4.967,-0.374c1.374,1.924 0.247,2.199 1.704,3.299c1.457,1.099 2.034,2.94 2.034,2.94c0,0 4.481,-1.761 -2.034,1.017c-6.515,2.777 -3.025,3.572 -7.037,3.519c-4.013,-0.054 -4.889,0.735 -4.889,0.735c0,0 -0.911,-0.24 -2.01,0.585c-1.1,0.825 -2.641,-0.412 -1.39,1.237c1.252,1.649 -2.634,0.764 1.027,2.1c3.661,1.336 2.716,1.234 4.082,2.041c1.366,0.807 2.345,-2.25 2.13,1.065c-0.214,3.315 -2.122,4.14 -2.13,6.064c-0.009,1.924 0.926,5.855 -1.191,3.683c-2.116,-2.171 -3.245,-1.379 -3.918,-3.149c-0.672,-1.771 -0.122,-1.771 -1.222,-2.458c-1.099,-0.687 -1.585,-1.247 -1.585,-1.247c0,0 -1.789,0.697 -2.301,-0.815c-0.512,-1.512 -1.227,-2.53 -1.227,-2.53l-0.784,-1.619l-3.098,-0.111l-2.729,-2.802c0,0 -2.601,-0.645 -2.379,-1.19c0.222,-0.544 -1.459,-1.369 0,-3.705c1.459,-2.337 2.181,-4.881 3.057,-4.983c0.876,-0.102 5.274,1.272 5.274,1.272"/></clipPath><g clip-path="url(#_clip12)"><path d="M38.767,4.122l2.644,3.787l30.652,15.325l19.008,-10.93c0,0 -13.028,-15.353 -13.9,-15.353c-0.872,0 -38.404,7.171 -38.404,7.171Z" style="fill:#c4e783;fill-opacity:0.5;"/><path d="M66.954,-2.428l5.109,8.934c0,0 2.697,-0.452 -1.004,1.904c-3.701,2.356 -2.099,2.4 -5.993,2.997c-3.893,0.596 -2.923,-0.656 -4.439,1.001c-1.516,1.657 2.652,3.355 -2.318,3.949c-4.97,0.594 -5.109,0.323 -5.727,2.245c-0.617,1.923 3.108,2.335 -0.954,3.435c-4.062,1.099 -3.787,3.848 -6.398,0.962c-2.611,-2.887 -1.962,-1.864 -4.967,-4.299c-3.005,-2.436 -5.279,-5.748 -7.165,-6.635c-1.887,-0.886 -4.636,-2.398 -5.185,0.626c-0.55,3.023 -1.881,1.425 -0.254,3.667c1.628,2.243 -0.353,1.167 1.874,2.598c2.228,1.431 2.657,-0.459 4.848,2.685c2.19,3.144 -0.386,1.016 3.033,3.592c3.418,2.576 1.828,3.643 3.997,3.11c2.17,-0.534 1.674,-4.412 2.059,-1.03c0.386,3.382 5.642,4.14 0.059,7.197c-5.583,3.057 -8.47,3.607 -8.47,3.607c0,0 -1.246,1.629 -2.685,-0.147c-1.438,-1.777 -1.18,-4.519 -1.18,-4.519c0,0 -0.154,-5.092 0,2.879c0.155,7.972 -1,9.648 1.914,11.49c2.913,1.842 2.926,0.468 3.195,1.842c0.268,1.374 -1.093,-0.51 0,1.669c1.093,2.179 0.516,3.637 1.286,9.574c0.769,5.937 -3.304,-3.373 -5.047,-6.346c-1.743,-2.973 3.034,1.288 -1.348,-3.385c-4.381,-4.673 -5.875,-6.7 -7.396,-8.916c-1.521,-2.217 -1.219,-4.499 -1.219,-4.499c0,0 0.523,0.083 0.523,-1.978c0,-2.062 2.984,-4.884 2.984,-4.884c0,0 3.216,0.18 -1.533,-0.767c-4.749,-0.947 -5.86,0.406 -7.16,0.005c-1.3,-0.402 -5.045,-6.107 -5.045,-6.107c0,0 0.701,0.442 -0.526,-1.325c-1.227,-1.766 -6.028,-2.316 -6.17,-4.515c-0.142,-2.199 6.168,-8.498 8.373,-8.647c2.205,-0.149 12.754,-4.684 17.169,-5.372c4.415,-0.687 35.76,-6.597 35.76,-6.597Z" style="fill:#9fb366;"/><clipPath id="_clip13"><path d="M66.954,-2.428l5.109,8.934c0,0 2.697,-0.452 -1.004,1.904c-3.701,2.356 -2.099,2.4 -5.993,2.997c-3.893,0.596 -2.923,-0.656 -4.439,1.001c-1.516,1.657 2.652,3.355 -2.318,3.949c-4.97,0.594 -5.109,0.323 -5.727,2.245c-0.617,1.923 3.108,2.335 -0.954,3.435c-4.062,1.099 -3.787,3.848 -6.398,0.962c-2.611,-2.887 -1.962,-1.864 -4.967,-4.299c-3.005,-2.436 -5.279,-5.748 -7.165,-6.635c-1.887,-0.886 -4.636,-2.398 -5.185,0.626c-0.55,3.023 -1.881,1.425 -0.254,3.667c1.628,2.243 -0.353,1.167 1.874,2.598c2.228,1.431 2.657,-0.459 4.848,2.685c2.19,3.144 -0.386,1.016 3.033,3.592c3.418,2.576 1.828,3.643 3.997,3.11c2.17,-0.534 1.674,-4.412 2.059,-1.03c0.386,3.382 5.642,4.14 0.059,7.197c-5.583,3.057 -8.47,3.607 -8.47,3.607c0,0 -1.246,1.629 -2.685,-0.147c-1.438,-1.777 -1.18,-4.519 -1.18,-4.519c0,0 -0.154,-5.092 0,2.879c0.155,7.972 -1,9.648 1.914,11.49c2.913,1.842 2.926,0.468 3.195,1.842c0.268,1.374 -1.093,-0.51 0,1.669c1.093,2.179 0.516,3.637 1.286,9.574c0.769,5.937 -3.304,-3.373 -5.047,-6.346c-1.743,-2.973 3.034,1.288 -1.348,-3.385c-4.381,-4.673 -5.875,-6.7 -7.396,-8.916c-1.521,-2.217 -1.219,-4.499 -1.219,-4.499c0,0 0.523,0.083 0.523,-1.978c0,-2.062 2.984,-4.884 2.984,-4.884c0,0 3.216,0.18 -1.533,-0.767c-4.749,-0.947 -5.86,0.406 -7.16,0.005c-1.3,-0.402 -5.045,-6.107 -5.045,-6.107c0,0 0.701,0.442 -0.526,-1.325c-1.227,-1.766 -6.028,-2.316 -6.17,-4.515c-0.142,-2.199 6.168,-8.498 8.373,-8.647c2.205,-0.149 12.754,-4.684 17.169,-5.372c4.415,-0.687 35.76,-6.597 35.76,-6.597Z"/></clipPath><g clip-path="url(#_clip13)"><path d="M38.767,4.122l2.644,3.787l30.652,15.325l19.008,-10.93c0,0 -13.028,-15.353 -13.9,-15.353c-0.872,0 -38.404,7.171 -38.404,7.171Z" style="fill:#c4e783;fill-opacity:0.5;"/></g><path d="M42.829,13.726l19.016,9.508l-5.108,6.359l-13.908,-15.867Z" style="fill-opacity:0.5;"/></g><path d="M33.822,18.188c5.223,3.436 5.695,5.144 7.589,5.046c1.895,-0.098 3.238,1.221 5.109,2.554c1.871,1.334 3.126,-3.029 3.117,3.55c-0.009,6.58 3.928,3.654 -1.545,7.453c-5.473,3.8 -4.864,-0.186 -6.681,4.075c-1.816,4.26 -2.045,-2.795 -1.312,8.567c0.733,11.362 2.854,9.3 1.312,12.461c-1.541,3.161 0.616,1.595 -2.18,6.226c-2.797,4.632 1.614,11.779 -2.928,4.769c-4.542,-7.009 -3.889,-7.541 -5.109,-8.787c-1.22,-1.246 0.411,0.78 -1.366,-4.425c-1.778,-5.205 5.976,2.355 -3.742,-5.342c-9.718,-7.697 -8.792,-6.735 -10.217,-10.308c-1.426,-3.574 -0.126,-2.898 -1.875,-7.084c-1.75,-4.186 -3.234,-5.973 -3.234,-5.973c0,0 2.089,-1.269 0,-2.627c-2.089,-1.359 -3.275,-0.087 -3.369,-1.685c-0.094,-1.598 -0.024,-2.013 1.384,-4.417c1.408,-2.404 5.122,-2.547 5.122,-2.547c0,0 2.945,-1.107 5.457,-0.757c2.511,0.351 6.142,0.763 6.732,-0.062c0.59,-0.824 3.751,-2.886 3.751,-2.886l5.279,3.081c0,0 -6.516,-4.318 -1.294,-0.882Z" style="fill:#426433;"/><clipPath id="_clip14"><path d="M33.822,18.188c5.223,3.436 5.695,5.144 7.589,5.046c1.895,-0.098 3.238,1.221 5.109,2.554c1.871,1.334 3.126,-3.029 3.117,3.55c-0.009,6.58 3.928,3.654 -1.545,7.453c-5.473,3.8 -4.864,-0.186 -6.681,4.075c-1.816,4.26 -2.045,-2.795 -1.312,8.567c0.733,11.362 2.854,9.3 1.312,12.461c-1.541,3.161 0.616,1.595 -2.18,6.226c-2.797,4.632 1.614,11.779 -2.928,4.769c-4.542,-7.009 -3.889,-7.541 -5.109,-8.787c-1.22,-1.246 0.411,0.78 -1.366,-4.425c-1.778,-5.205 5.976,2.355 -3.742,-5.342c-9.718,-7.697 -8.792,-6.735 -10.217,-10.308c-1.426,-3.574 -0.126,-2.898 -1.875,-7.084c-1.75,-4.186 -3.234,-5.973 -3.234,-5.973c0,0 2.089,-1.269 0,-2.627c-2.089,-1.359 -3.275,-0.087 -3.369,-1.685c-0.094,-1.598 -0.024,-2.013 1.384,-4.417c1.408,-2.404 5.122,-2.547 5.122,-2.547c0,0 2.945,-1.107 5.457,-0.757c2.511,0.351 6.142,0.763 6.732,-0.062c0.59,-0.824 3.751,-2.886 3.751,-2.886l5.279,3.081c0,0 -6.516,-4.318 -1.294,-0.882Z"/></clipPath><g clip-path="url(#_clip14)"><path d="M17.998,1.31l-9.055,19.576l29.907,24.063l14.35,4.614l3.537,-18.666l-38.739,-29.587" style="fill:#c4e783;fill-opacity:0.5;"/><path d="M66.954,-2.428l5.109,8.934c0,0 2.697,-0.452 -1.004,1.904c-3.701,2.356 -2.099,2.4 -5.993,2.997c-3.893,0.596 -2.923,-0.656 -4.439,1.001c-1.516,1.657 2.652,3.355 -2.318,3.949c-4.97,0.594 -5.109,0.323 -5.727,2.245c-0.617,1.923 3.108,2.335 -0.954,3.435c-4.062,1.099 -3.787,3.848 -6.398,0.962c-2.611,-2.887 -1.962,-1.864 -4.967,-4.299c-3.005,-2.436 -5.279,-5.748 -7.165,-6.635c-1.887,-0.886 -4.636,-2.398 -5.185,0.626c-0.55,3.023 -1.881,1.425 -0.254,3.667c1.628,2.243 -0.353,1.167 1.874,2.598c2.228,1.431 2.657,-0.459 4.848,2.685c2.19,3.144 -0.386,1.016 3.033,3.592c3.418,2.576 1.828,3.643 3.997,3.11c2.17,-0.534 1.674,-4.412 2.059,-1.03c0.386,3.382 5.642,4.14 0.059,7.197c-5.583,3.057 -8.47,3.607 -8.47,3.607c0,0 -1.246,1.629 -2.685,-0.147c-1.438,-1.777 -1.18,-4.519 -1.18,-4.519c0,0 -0.154,-5.092 0,2.879c0.155,7.972 -1,9.648 1.914,11.49c2.913,1.842 2.926,0.468 3.195,1.842c0.268,1.374 -1.093,-0.51 0,1.669c1.093,2.179 0.516,3.637 1.286,9.574c0.769,5.937 -3.304,-3.373 -5.047,-6.346c-1.743,-2.973 3.034,1.288 -1.348,-3.385c-4.381,-4.673 -5.875,-6.7 -7.396,-8.916c-1.521,-2.217 -1.219,-4.499 -1.219,-4.499c0,0 0.523,0.083 0.523,-1.978c0,-2.062 2.984,-4.884 2.984,-4.884c0,0 3.216,0.18 -1.533,-0.767c-4.749,-0.947 -5.86,0.406 -7.16,0.005c-1.3,-0.402 -5.045,-6.107 -5.045,-6.107c0,0 0.701,0.442 -0.526,-1.325c-1.227,-1.766 -6.028,-2.316 -6.17,-4.515c-0.142,-2.199 6.168,-8.498 8.373,-8.647c2.205,-0.149 12.754,-4.684 17.169,-5.372c4.415,-0.687 35.76,-6.597 35.76,-6.597Z" style="fill:#9fb366;"/><clipPath id="_clip15"><path d="M66.954,-2.428l5.109,8.934c0,0 2.697,-0.452 -1.004,1.904c-3.701,2.356 -2.099,2.4 -5.993,2.997c-3.893,0.596 -2.923,-0.656 -4.439,1.001c-1.516,1.657 2.652,3.355 -2.318,3.949c-4.97,0.594 -5.109,0.323 -5.727,2.245c-0.617,1.923 3.108,2.335 -0.954,3.435c-4.062,1.099 -3.787,3.848 -6.398,0.962c-2.611,-2.887 -1.962,-1.864 -4.967,-4.299c-3.005,-2.436 -5.279,-5.748 -7.165,-6.635c-1.887,-0.886 -4.636,-2.398 -5.185,0.626c-0.55,3.023 -1.881,1.425 -0.254,3.667c1.628,2.243 -0.353,1.167 1.874,2.598c2.228,1.431 2.657,-0.459 4.848,2.685c2.19,3.144 -0.386,1.016 3.033,3.592c3.418,2.576 1.828,3.643 3.997,3.11c2.17,-0.534 1.674,-4.412 2.059,-1.03c0.386,3.382 5.642,4.14 0.059,7.197c-5.583,3.057 -8.47,3.607 -8.47,3.607c0,0 -1.246,1.629 -2.685,-0.147c-1.438,-1.777 -1.18,-4.519 -1.18,-4.519c0,0 -0.154,-5.092 0,2.879c0.155,7.972 -1,9.648 1.914,11.49c2.913,1.842 2.926,0.468 3.195,1.842c0.268,1.374 -1.093,-0.51 0,1.669c1.093,2.179 0.516,3.637 1.286,9.574c0.769,5.937 -3.304,-3.373 -5.047,-6.346c-1.743,-2.973 3.034,1.288 -1.348,-3.385c-4.381,-4.673 -5.875,-6.7 -7.396,-8.916c-1.521,-2.217 -1.219,-4.499 -1.219,-4.499c0,0 0.523,0.083 0.523,-1.978c0,-2.062 2.984,-4.884 2.984,-4.884c0,0 3.216,0.18 -1.533,-0.767c-4.749,-0.947 -5.86,0.406 -7.16,0.005c-1.3,-0.402 -5.045,-6.107 -5.045,-6.107c0,0 0.701,0.442 -0.526,-1.325c-1.227,-1.766 -6.028,-2.316 -6.17,-4.515c-0.142,-2.199 6.168,-8.498 8.373,-8.647c2.205,-0.149 12.754,-4.684 17.169,-5.372c4.415,-0.687 35.76,-6.597 35.76,-6.597Z"/></clipPath><g clip-path="url(#_clip15)"><path d="M17.998,1.31l-9.055,19.576l29.907,24.063l14.35,4.614l3.537,-18.666l-38.739,-29.587" style="fill:#c4e783;fill-opacity:0.5;"/></g><path d="M10.76,30.051l22.36,21.647l4.613,24.46l-37.19,-22.273l10.217,-23.834Z" style="fill-opacity:0.5;"/></g></g></svg>