<?xml version="1.0" encoding="UTF-8" standalone="no"?><!DOCTYPE svg PUBLIC "-//W3C//DTD SVG 1.1//EN" "http://www.w3.org/Graphics/SVG/1.1/DTD/svg11.dtd"><svg width="100%" height="100%" viewBox="0 0 91 106" version="1.1" xmlns="http://www.w3.org/2000/svg" xmlns:xlink="http://www.w3.org/1999/xlink" xml:space="preserve" xmlns:serif="http://www.serif.com/" style="fill-rule:evenodd;clip-rule:evenodd;stroke-linejoin:round;stroke-miterlimit:1.41421;"><g id="Runestone_mossy_runes_1"><g id="F_Runestone_grass_runes_1"><g id="F_Runestone_runes_1"><g><g><g><path d="M61.18,1.449l20.434,10.217l-20.434,10.217l-20.434,-10.217l20.434,-10.217Z" style="fill:#9da8c9;"/><clipPath id="_clip1"><path d="M61.18,1.449l20.434,10.217l-20.434,10.217l-20.434,-10.217l20.434,-10.217Z"/></clipPath><g clip-path="url(#_clip1)"><path d="M84.246,70.318l-10.72,-7.911l-2.055,-16.353l-2.977,16.814l10.72,12.6l-15.707,10.328l-3.667,-13.492l1.414,-10.924l-5.108,4.654l0,13.226l-13.318,3.558l10.939,2.74l-11.142,12.484l-6.913,-10.65l-5.109,-3.656l-18.08,9.472l15.264,0.231l12.413,0.867l-4.488,7.71l-30.652,0.962l-2.387,-27.633l7.496,6.469l6.793,1.712l3.424,-1.712l-7.428,-3.714l-4.457,-12.445l-0.848,-23.451l12.733,8.959l1.983,4.117l1.42,-5.819l-3.403,-3.407l-11.817,-14.525l4.26,-17.456l17.774,16.656l-5.109,-17.88l11.545,-5.772l8.89,-4.445l7.847,9.032l4.367,5.295l3.111,-1.556l5.109,-4.977l-5.109,-3.079l0,2.948l-5.108,-2.555l2.564,-3.826l12.761,4.01l7.677,1.1l7.649,10.83l-1.661,12.599l1.661,31.481l7.734,-67.652l-72.439,-2.166l-40.256,53.098l18.116,65.251l76.628,-0.636l7.666,-41.511" style="fill:#8d323a;fill-opacity:0.7;"/><path d="M81.614,11.666l-20.434,7.207l-20.434,-7.207l16.529,11.038l-2.017,4.233l-4.295,0.055l-20.434,-10.218l15.326,9.861l-14.488,7.762l-21.272,-7.405l18.954,12.849l-0.446,18.765l-18.508,-6.072l5.109,2.554l15.325,10.055l2.855,-2.621l-2.855,7.762l-20.434,-7.533l18.752,12.069l1.682,23.691l1.936,-24.575l4.714,-14.509l-4.299,0.675l0.403,-5.141l-1.311,-16.129l18.225,-7.115l8.697,-0.76l5.175,-7.629l17.545,-11.662Z" style="fill:#f6d7d0;fill-opacity:0.9;"/></g><path d="M30.529,16.774l-20.434,10.218l20.434,10.217l20.434,-10.217l-20.434,-10.218" style="fill:#9da8c9;"/><clipPath id="_clip2"><path d="M30.529,16.774l-20.434,10.218l20.434,10.217l20.434,-10.217l-20.434,-10.218"/></clipPath><g clip-path="url(#_clip2)"><path d="M84.246,70.318l-10.72,-7.911l-2.055,-16.353l-2.977,16.814l10.72,12.6l-15.707,10.328l-3.667,-13.492l1.414,-10.924l-5.108,4.654l0,13.226l-13.318,3.558l10.939,2.74l-11.142,12.484l-6.913,-10.65l-5.109,-3.656l-18.08,9.472l15.264,0.231l12.413,0.867l-4.488,7.71l-30.652,0.962l-2.387,-27.633l7.496,6.469l6.793,1.712l3.424,-1.712l-7.428,-3.714l-4.457,-12.445l-0.848,-23.451l12.733,8.959l1.983,4.117l1.42,-5.819l-3.403,-3.407l-11.817,-14.525l4.26,-17.456l17.774,16.656l-5.109,-17.88l11.545,-5.772l8.89,-4.445l7.847,9.032l4.367,5.295l3.111,-1.556l5.109,-4.977l-5.109,-3.079l0,2.948l-5.108,-2.555l2.564,-3.826l12.761,4.01l7.677,1.1l7.649,10.83l-1.661,12.599l1.661,31.481l7.734,-67.652l-72.439,-2.166l-40.256,53.098l18.116,65.251l76.628,-0.636l7.666,-41.511" style="fill:#8d323a;fill-opacity:0.7;"/><path d="M81.614,11.666l-20.434,7.207l-20.434,-7.207l16.529,11.038l-2.017,4.233l-4.295,0.055l-20.434,-10.218l15.326,9.861l-14.488,7.762l-21.272,-7.405l18.954,12.849l-0.446,18.765l-18.508,-6.072l5.109,2.554l15.325,10.055l2.855,-2.621l-2.855,7.762l-20.434,-7.533l18.752,12.069l1.682,23.691l1.936,-24.575l4.714,-14.509l-4.299,0.675l0.403,-5.141l-1.311,-16.129l18.225,-7.115l8.697,-0.76l5.175,-7.629l17.545,-11.662Z" style="fill:#f6d7d0;fill-opacity:0.9;"/></g><path d="M40.746,11.666l-5.108,7.663l20.434,10.217l5.108,-7.663l-20.434,-10.217Z" style="fill:#6c7157;"/><clipPath id="_clip3"><path d="M40.746,11.666l-5.108,7.663l20.434,10.217l5.108,-7.663l-20.434,-10.217Z"/></clipPath><g clip-path="url(#_clip3)"><path d="M84.246,70.318l-10.72,-7.911l-2.055,-16.353l-2.977,16.814l10.72,12.6l-15.707,10.328l-3.667,-13.492l1.414,-10.924l-5.108,4.654l0,13.226l-13.318,3.558l10.939,2.74l-11.142,12.484l-6.913,-10.65l-5.109,-3.656l-18.08,9.472l15.264,0.231l12.413,0.867l-4.488,7.71l-30.652,0.962l-2.387,-27.633l7.496,6.469l6.793,1.712l3.424,-1.712l-7.428,-3.714l-4.457,-12.445l-0.848,-23.451l12.733,8.959l1.983,4.117l1.42,-5.819l-3.403,-3.407l-11.817,-14.525l4.26,-17.456l17.774,16.656l-5.109,-17.88l11.545,-5.772l8.89,-4.445l7.847,9.032l4.367,5.295l3.111,-1.556l5.109,-4.977l-5.109,-3.079l0,2.948l-5.108,-2.555l2.564,-3.826l12.761,4.01l7.677,1.1l7.649,10.83l-1.661,12.599l1.661,31.481l7.734,-67.652l-72.439,-2.166l-40.256,53.098l18.116,65.251l76.628,-0.636l7.666,-41.511" style="fill:#8d323a;fill-opacity:0.7;"/><path d="M81.614,11.666l-20.434,7.207l-20.434,-7.207l16.529,11.038l-2.017,4.233l-4.295,0.055l-20.434,-10.218l15.326,9.861l-14.488,7.762l-21.272,-7.405l18.954,12.849l-0.446,18.765l-18.508,-6.072l5.109,2.554l15.325,10.055l2.855,-2.621l-2.855,7.762l-20.434,-7.533l18.752,12.069l1.682,23.691l1.936,-24.575l4.714,-14.509l-4.299,0.675l0.403,-5.141l-1.311,-16.129l18.225,-7.115l8.697,-0.76l5.175,-7.629l17.545,-11.662Z" style="fill:#f6d7d0;fill-opacity:0.9;"/></g><path d="M81.614,11.666l-20.434,10.217l-5.108,7.663l-5.109,-2.554l-20.434,10.217l0,25.542l5.109,-2.554l-5.109,12.771l0,25.543l20.434,-10.217l0,-5.109l5.109,-2.554l5.108,2.554l20.434,-10.217l0,-30.651l-5.108,2.554l5.108,-12.771l0,-20.434" style="fill:#bac1d8;"/><clipPath id="_clip4"><path d="M81.614,11.666l-20.434,10.217l-5.108,7.663l-5.109,-2.554l-20.434,10.217l0,25.542l5.109,-2.554l-5.109,12.771l0,25.543l20.434,-10.217l0,-5.109l5.109,-2.554l5.108,2.554l20.434,-10.217l0,-30.651l-5.108,2.554l5.108,-12.771l0,-20.434"/></clipPath><g clip-path="url(#_clip4)"><path d="M84.246,70.318l-10.72,-7.911l-2.055,-16.353l-2.977,16.814l10.72,12.6l-15.707,10.328l-3.667,-13.492l1.414,-10.924l-5.108,4.654l0,13.226l-13.318,3.558l10.939,2.74l-11.142,12.484l-6.913,-10.65l-5.109,-3.656l-18.08,9.472l15.264,0.231l12.413,0.867l-4.488,7.71l-30.652,0.962l-2.387,-27.633l7.496,6.469l6.793,1.712l3.424,-1.712l-7.428,-3.714l-4.457,-12.445l-0.848,-23.451l12.733,8.959l1.983,4.117l1.42,-5.819l-3.403,-3.407l-11.817,-14.525l4.26,-17.456l17.774,16.656l-5.109,-17.88l11.545,-5.772l8.89,-4.445l7.847,9.032l4.367,5.295l3.111,-1.556l5.109,-4.977l-5.109,-3.079l0,2.948l-5.108,-2.555l2.564,-3.826l12.761,4.01l7.677,1.1l7.649,10.83l-1.661,12.599l1.661,31.481l7.734,-67.652l-72.439,-2.166l-40.256,53.098l18.116,65.251l76.628,-0.636l7.666,-41.511" style="fill:#8d323a;fill-opacity:0.7;"/><path d="M81.614,11.666l-20.434,7.207l-20.434,-7.207l16.529,11.038l-2.017,4.233l-4.295,0.055l-20.434,-10.218l15.326,9.861l-14.488,7.762l-21.272,-7.405l18.954,12.849l-0.446,18.765l-18.508,-6.072l5.109,2.554l15.325,10.055l2.855,-2.621l-2.855,7.762l-20.434,-7.533l18.752,12.069l1.682,23.691l1.936,-24.575l4.714,-14.509l-4.299,0.675l0.403,-5.141l-1.311,-16.129l18.225,-7.115l8.697,-0.76l5.175,-7.629l17.545,-11.662Z" style="fill:#f6d7d0;fill-opacity:0.9;"/></g><path d="M10.095,26.992l20.434,10.217l0,25.542l-20.434,-10.217l0,-25.542Z" style="fill:#6c7157;"/><clipPath id="_clip5"><path d="M10.095,26.992l20.434,10.217l0,25.542l-20.434,-10.217l0,-25.542Z"/></clipPath><g clip-path="url(#_clip5)"><path d="M84.246,70.318l-10.72,-7.911l-2.055,-16.353l-2.977,16.814l10.72,12.6l-15.707,10.328l-3.667,-13.492l1.414,-10.924l-5.108,4.654l0,13.226l-13.318,3.558l10.939,2.74l-11.142,12.484l-6.913,-10.65l-5.109,-3.656l-18.08,9.472l15.264,0.231l12.413,0.867l-4.488,7.71l-30.652,0.962l-2.387,-27.633l7.496,6.469l6.793,1.712l3.424,-1.712l-7.428,-3.714l-4.457,-12.445l-0.848,-23.451l12.733,8.959l1.983,4.117l1.42,-5.819l-3.403,-3.407l-11.817,-14.525l4.26,-17.456l17.774,16.656l-5.109,-17.88l11.545,-5.772l8.89,-4.445l7.847,9.032l4.367,5.295l3.111,-1.556l5.109,-4.977l-5.109,-3.079l0,2.948l-5.108,-2.555l2.564,-3.826l12.761,4.01l7.677,1.1l7.649,10.83l-1.661,12.599l1.661,31.481l7.734,-67.652l-72.439,-2.166l-40.256,53.098l18.116,65.251l76.628,-0.636l7.666,-41.511" style="fill:#8d323a;fill-opacity:0.7;"/><path d="M81.614,11.666l-20.434,7.207l-20.434,-7.207l16.529,11.038l-2.017,4.233l-4.295,0.055l-20.434,-10.218l15.326,9.861l-14.488,7.762l-21.272,-7.405l18.954,12.849l-0.446,18.765l-18.508,-6.072l5.109,2.554l15.325,10.055l2.855,-2.621l-2.855,7.762l-20.434,-7.533l18.752,12.069l1.682,23.691l1.936,-24.575l4.714,-14.509l-4.299,0.675l0.403,-5.141l-1.311,-16.129l18.225,-7.115l8.697,-0.76l5.175,-7.629l17.545,-11.662Z" style="fill:#f6d7d0;fill-opacity:0.4;"/></g><path d="M30.529,98.511l-20.434,-10.217l0,-25.543l20.434,10.217l0,25.543" style="fill:#6c7157;"/><clipPath id="_clip6"><path d="M30.529,98.511l-20.434,-10.217l0,-25.543l20.434,10.217l0,25.543"/></clipPath><g clip-path="url(#_clip6)"><path d="M84.246,70.318l-10.72,-7.911l-2.055,-16.353l-2.977,16.814l10.72,12.6l-15.707,10.328l-3.667,-13.492l1.414,-10.924l-5.108,4.654l0,13.226l-13.318,3.558l10.939,2.74l-11.142,12.484l-6.913,-10.65l-5.109,-3.656l-18.08,9.472l15.264,0.231l12.413,0.867l-4.488,7.71l-30.652,0.962l-2.387,-27.633l7.496,6.469l6.793,1.712l3.424,-1.712l-7.428,-3.714l-4.457,-12.445l-0.848,-23.451l12.733,8.959l1.983,4.117l1.42,-5.819l-3.403,-3.407l-11.817,-14.525l4.26,-17.456l17.774,16.656l-5.109,-17.88l11.545,-5.772l8.89,-4.445l7.847,9.032l4.367,5.295l3.111,-1.556l5.109,-4.977l-5.109,-3.079l0,2.948l-5.108,-2.555l2.564,-3.826l12.761,4.01l7.677,1.1l7.649,10.83l-1.661,12.599l1.661,31.481l7.734,-67.652l-72.439,-2.166l-40.256,53.098l18.116,65.251l76.628,-0.636l7.666,-41.511" style="fill:#8d323a;fill-opacity:0.7;"/><path d="M81.614,11.666l-20.434,7.207l-20.434,-7.207l16.529,11.038l-2.017,4.233l-4.295,0.055l-20.434,-10.218l15.326,9.861l-14.488,7.762l-21.272,-7.405l18.954,12.849l-0.446,18.765l-18.508,-6.072l5.109,2.554l15.325,10.055l2.855,-2.621l-2.855,7.762l-20.434,-7.533l18.752,12.069l1.682,23.691l1.936,-24.575l4.714,-14.509l-4.299,0.675l0.403,-5.141l-1.311,-16.129l18.225,-7.115l8.697,-0.76l5.175,-7.629l17.545,-11.662Z" style="fill:#f6d7d0;fill-opacity:0.4;"/></g><path d="M10.095,52.534l5.109,2.554l-5.109,7.663l20.434,10.217l5.109,-12.771l-5.109,2.554l-20.434,-10.217Z" style="fill:#574052;"/><clipPath id="_clip7"><path d="M10.095,52.534l5.109,2.554l-5.109,7.663l20.434,10.217l5.109,-12.771l-5.109,2.554l-20.434,-10.217Z"/></clipPath><g clip-path="url(#_clip7)"><path d="M81.614,11.666l-20.434,7.207l-20.434,-7.207l16.529,11.038l-2.017,4.233l-4.295,0.055l-20.434,-10.218l15.326,9.861l-14.488,7.762l-21.272,-7.405l18.954,12.849l-0.446,18.765l-18.508,-6.072l5.109,2.554l15.325,10.055l2.855,-2.621l-2.855,7.762l-20.434,-7.533l18.752,12.069l1.682,23.691l1.936,-24.575l4.714,-14.509l-4.299,0.675l0.403,-5.141l-1.311,-16.129l18.225,-7.115l8.697,-0.76l5.175,-7.629l17.545,-11.662Z" style="fill:#f6d7d0;fill-opacity:0.4;"/></g></g></g></g></g><path d="M81.421,52.289c0,0 9.856,8.576 8.777,14.605c-1.079,6.029 -3.229,13.233 -7.853,14.308c-1.72,0.4 0.847,2.21 -2.512,4.143c-0.177,0.102 -0.635,2.32 -0.823,2.423c-1.408,0.769 -16.227,7.243 -18.023,7.837c-5.677,1.875 0.863,-2.887 0,-2.448c-1.868,0.948 -9.278,-1.077 -18.368,4.075c-0.9,0.51 6.362,-0.801 5.508,-0.288c-7.774,4.667 -21.894,10.899 -28.008,8.234c-5.758,-2.509 -13.904,-2.61 -17.244,-6.763c-0.595,-0.741 2.436,-0.007 1.918,-1.167c-3.422,-7.661 -4.631,-9.677 -2.212,-14.113c0.371,-0.679 -2.212,0.032 -1.838,-0.725c2.071,-4.177 7.028,-10.584 7.483,-12.178c0.538,-1.881 1.676,-2.618 1.676,-2.618l0,15.326c1.439,-0.258 2.786,-0.71 5.108,0.915c1.38,0.442 2.57,0.879 3.599,1.312c0.67,0.282 3.818,0.012 4.361,0.291c7.442,3.83 1.155,8.023 7.366,12.807l3.965,-3.125c1.597,-2.547 5.901,-2.496 9.298,-3.506c2.588,-0.77 1.704,-3.863 4.892,-4.726l5.763,-2.226l1.625,-4.297c-0.489,-1.367 -0.424,-2.743 1.91,-4.153c0.586,0.424 1.04,1.66 1.516,1.284c1.15,-0.91 0.484,0.521 0.685,0.783c1.153,1.508 1.414,3.058 0.997,4.641c3.435,-4.107 4.415,-5.117 7.045,-6.695c1.078,-0.647 2.155,0.061 3.776,0.057c0.821,-0.002 1.43,-0.894 2.327,-1.148c0.698,-0.197 1.723,0.252 2.178,0.123c0.902,-0.256 0.306,-1.397 0.876,-1.83c1.052,-0.799 3.031,-0.906 4.232,-0.724c0.005,-0.567 -1.712,-1.456 -1.709,-2.023c0.008,-1.369 1.578,-1.739 1.709,-3.086c0.467,-4.782 0.007,-10.451 0,-15.325Z" style="fill:#426433;"/><clipPath id="_clip8"><path d="M81.421,52.289c0,0 9.856,8.576 8.777,14.605c-1.079,6.029 -3.229,13.233 -7.853,14.308c-1.72,0.4 0.847,2.21 -2.512,4.143c-0.177,0.102 -0.635,2.32 -0.823,2.423c-1.408,0.769 -16.227,7.243 -18.023,7.837c-5.677,1.875 0.863,-2.887 0,-2.448c-1.868,0.948 -9.278,-1.077 -18.368,4.075c-0.9,0.51 6.362,-0.801 5.508,-0.288c-7.774,4.667 -21.894,10.899 -28.008,8.234c-5.758,-2.509 -13.904,-2.61 -17.244,-6.763c-0.595,-0.741 2.436,-0.007 1.918,-1.167c-3.422,-7.661 -4.631,-9.677 -2.212,-14.113c0.371,-0.679 -2.212,0.032 -1.838,-0.725c2.071,-4.177 7.028,-10.584 7.483,-12.178c0.538,-1.881 1.676,-2.618 1.676,-2.618l0,15.326c1.439,-0.258 2.786,-0.71 5.108,0.915c1.38,0.442 2.57,0.879 3.599,1.312c0.67,0.282 3.818,0.012 4.361,0.291c7.442,3.83 1.155,8.023 7.366,12.807l3.965,-3.125c1.597,-2.547 5.901,-2.496 9.298,-3.506c2.588,-0.77 1.704,-3.863 4.892,-4.726l5.763,-2.226l1.625,-4.297c-0.489,-1.367 -0.424,-2.743 1.91,-4.153c0.586,0.424 1.04,1.66 1.516,1.284c1.15,-0.91 0.484,0.521 0.685,0.783c1.153,1.508 1.414,3.058 0.997,4.641c3.435,-4.107 4.415,-5.117 7.045,-6.695c1.078,-0.647 2.155,0.061 3.776,0.057c0.821,-0.002 1.43,-0.894 2.327,-1.148c0.698,-0.197 1.723,0.252 2.178,0.123c0.902,-0.256 0.306,-1.397 0.876,-1.83c1.052,-0.799 3.031,-0.906 4.232,-0.724c0.005,-0.567 -1.712,-1.456 -1.709,-2.023c0.008,-1.369 1.578,-1.739 1.709,-3.086c0.467,-4.782 0.007,-10.451 0,-15.325Z"/></clipPath><g clip-path="url(#_clip8)"><path d="M84.484,46.734l19.321,40.311l-81.441,30.799l53.134,-50.061l3.663,-22.265l5.323,1.216Z" style="fill:#c4e783;fill-opacity:0.5;"/><path d="M91.638,57.397c0.018,-1.108 -5.108,2.554 -5.108,2.554l-1.934,6.076l0.416,3.383l0.242,5.229l-1.007,1.779c0,0 1.052,0.274 -2.826,1.413c-3.878,1.14 -7.243,1.487 -7.243,1.487l-2.974,0.661l-2.363,1.779l-2.745,3.736l-5.109,2.554l-1.609,-0.804l1.609,-4.304l-2.724,-1.362l-0.834,4.691l0.672,0.336l-2.222,2.11l-5.109,1.344l-3.042,-0.49l-2.066,4.019l-5.109,-0.431l-1.763,0.881c0,0 0.222,0.84 -2.102,2.295c-2.323,1.455 -1.595,1.007 -4.395,2.911c-2.8,1.904 -4.664,2.776 -4.664,2.776c0,0 -1.458,6.016 -2.402,0.976c-0.943,-5.04 2.792,-3.36 0,-5.544c-2.791,-2.184 0.323,-2.196 -2.41,-2.946c-2.733,-0.75 -6.328,-0.032 -7.807,1.205c-1.478,1.237 0.073,4.843 -1.879,0.94c-1.951,-3.903 -2.491,-3.903 -3.229,-6.592c-0.739,-2.688 -1.332,-2.677 -1.332,-2.677l-1.21,-0.605l-2.567,-1.283c0,0 -1.178,1.205 0,-1.483c1.178,-2.688 5.375,-1.539 0,-3.626c-5.374,-2.086 -6.549,-2.588 -9.07,-0.573c-2.52,2.015 -4.287,-5.036 -3.404,9.662c0.884,14.698 -12.459,17.358 5.805,23.336c18.264,5.979 13.398,8.656 32.212,5.889c18.814,-2.766 20.479,-2.43 30.651,-7.806c10.172,-5.377 11.476,1.089 21.912,-11.889c10.437,-12.977 10.37,-9.811 13.848,-18.619c3.478,-8.807 7.915,-10.991 5.108,-14.183c-2.806,-3.192 -10.235,-7.697 -10.217,-8.805Z" style="fill:#9fb366;"/><clipPath id="_clip9"><path d="M91.638,57.397c0.018,-1.108 -5.108,2.554 -5.108,2.554l-1.934,6.076l0.416,3.383l0.242,5.229l-1.007,1.779c0,0 1.052,0.274 -2.826,1.413c-3.878,1.14 -7.243,1.487 -7.243,1.487l-2.974,0.661l-2.363,1.779l-2.745,3.736l-5.109,2.554l-1.609,-0.804l1.609,-4.304l-2.724,-1.362l-0.834,4.691l0.672,0.336l-2.222,2.11l-5.109,1.344l-3.042,-0.49l-2.066,4.019l-5.109,-0.431l-1.763,0.881c0,0 0.222,0.84 -2.102,2.295c-2.323,1.455 -1.595,1.007 -4.395,2.911c-2.8,1.904 -4.664,2.776 -4.664,2.776c0,0 -1.458,6.016 -2.402,0.976c-0.943,-5.04 2.792,-3.36 0,-5.544c-2.791,-2.184 0.323,-2.196 -2.41,-2.946c-2.733,-0.75 -6.328,-0.032 -7.807,1.205c-1.478,1.237 0.073,4.843 -1.879,0.94c-1.951,-3.903 -2.491,-3.903 -3.229,-6.592c-0.739,-2.688 -1.332,-2.677 -1.332,-2.677l-1.21,-0.605l-2.567,-1.283c0,0 -1.178,1.205 0,-1.483c1.178,-2.688 5.375,-1.539 0,-3.626c-5.374,-2.086 -6.549,-2.588 -9.07,-0.573c-2.52,2.015 -4.287,-5.036 -3.404,9.662c0.884,14.698 -12.459,17.358 5.805,23.336c18.264,5.979 13.398,8.656 32.212,5.889c18.814,-2.766 20.479,-2.43 30.651,-7.806c10.172,-5.377 11.476,1.089 21.912,-11.889c10.437,-12.977 10.37,-9.811 13.848,-18.619c3.478,-8.807 7.915,-10.991 5.108,-14.183c-2.806,-3.192 -10.235,-7.697 -10.217,-8.805Z"/></clipPath><g clip-path="url(#_clip9)"><path d="M84.484,46.734l19.321,40.311l-81.441,30.799l53.134,-50.061l3.663,-22.265l5.323,1.216Z" style="fill:#c4e783;fill-opacity:0.5;"/></g><path d="M21.004,76.296l-19.491,33.589l-12.86,-32.779c0,0 18.886,-21.303 20.434,-19.585c1.548,1.718 11.917,18.775 11.917,18.775Z" style="fill-opacity:0.5;"/></g></g><path d="M81.946,27.245c0,0 -6.097,-4.752 -7.042,-4.831c-0.946,-0.079 -6.989,-3.389 -8.893,-0.473c-1.905,2.916 -3.561,2.681 -4.073,5.517c-0.512,2.837 0.04,4.886 0.434,6.541c0.394,1.656 -2.601,1.419 -2.601,-0.472c0,-1.892 -4.728,-2.444 -4.728,-2.444c0,0 -1.734,0 -2.05,0.71c-0.315,0.709 -0.709,1.024 -1.655,1.812c-0.945,0.788 -1.024,1.261 -2.285,0.71c-1.261,-0.552 -4.966,-2.365 -5.675,-2.049c-0.709,0.315 -1.879,1.733 -2.91,3.152c-1.031,1.419 -0.465,0.13 -0.984,1.247c-0.519,1.117 -3.12,5.216 -3.12,5.216c0,0 0.435,4.256 -1.004,3.546c-1.44,-0.709 -3.252,-3.073 -3.252,-3.073l-1.857,-2.916c0,0 -2.714,-0.395 -3.187,0.236c-0.473,0.631 -2.678,2.763 -5.319,1.736c-2.641,-1.027 -1.617,0.313 -2.878,-1.815c-1.261,-2.128 -2.918,-4.073 -3.942,-4.992c-1.023,-0.919 -2.699,-1.35 -2.699,-1.35l-2.409,-3.273c0,0 -1.431,-0.313 -1.195,-2.442c0.236,-2.129 -0.053,-2.602 1.195,-3.154c1.248,-0.552 1.797,-1.336 2.744,-1.18c0.947,0.156 0.63,0.392 2.364,-0.633c1.735,-1.024 1.578,-0.551 2.287,-1.339c0.709,-0.789 0,-0.158 1.813,-0.946c1.812,-0.788 1.655,-0.394 2.995,-1.498c1.339,-1.103 1.024,-1.103 1.891,-1.734c0.867,-0.63 -1.714,-0.866 1.231,-1.182c2.946,-0.315 5.109,-0.157 5.109,-0.157c0,0 2.251,0.157 3.748,1.024c1.498,0.867 2.58,1.929 2.58,1.929c0,0 2.07,-0.51 2.543,0.278c0.473,0.788 1.034,2.699 2.369,2.374c1.335,-0.325 1.572,-0.482 3.069,-0.246c1.498,0.236 3.074,0.473 3.074,0.473c0,0 0.283,0.379 0.812,-0.835c0.528,-1.214 0.685,1.229 0.528,-1.687c-0.158,-2.916 -1.34,-2.443 0.394,-4.965c1.734,-2.522 4.655,-0.649 6.426,0.109c1.771,0.758 -2.682,1.861 4.115,2.058c6.798,0.197 6.416,0.33 8.065,-1.076c1.649,-1.407 1.255,-0.067 0.152,-3.298c-1.104,-3.232 -0.211,-1.881 -2.115,-2.793c-1.905,-0.911 1.627,-1.906 -2.898,-1.448c-4.524,0.458 -3.935,1.083 -6.2,0.889c-2.265,-0.195 -2.426,-2.001 -4.355,-1.058c-1.929,0.942 -2.055,-0.039 -3.742,0.942c-1.771,1.031 -3.496,0.653 -2.336,0.224c1.16,-0.429 3.913,-3.613 6.435,-4.874c2.522,-1.261 3.546,-1.497 4.728,-1.97c1.183,-0.473 3.259,-1.025 3.259,-1.025c0,0 1.785,0.079 2.968,0.867c1.182,0.788 0.105,0.867 2.141,1.576c2.036,0.71 8.656,2.916 9.444,3.074c0.788,0.158 2.316,1.636 2.852,1.764c0.537,0.128 2.415,1.047 3.998,3.109c1.583,2.063 2,0.058 1.792,4.213c-0.209,4.155 -0.524,7.859 -0.524,9.041c0,1.182 -1.627,2.861 -1.627,2.861Z" style="fill:#426433;"/><clipPath id="_clip10"><path d="M81.946,27.245c0,0 -6.097,-4.752 -7.042,-4.831c-0.946,-0.079 -6.989,-3.389 -8.893,-0.473c-1.905,2.916 -3.561,2.681 -4.073,5.517c-0.512,2.837 0.04,4.886 0.434,6.541c0.394,1.656 -2.601,1.419 -2.601,-0.472c0,-1.892 -4.728,-2.444 -4.728,-2.444c0,0 -1.734,0 -2.05,0.71c-0.315,0.709 -0.709,1.024 -1.655,1.812c-0.945,0.788 -1.024,1.261 -2.285,0.71c-1.261,-0.552 -4.966,-2.365 -5.675,-2.049c-0.709,0.315 -1.879,1.733 -2.91,3.152c-1.031,1.419 -0.465,0.13 -0.984,1.247c-0.519,1.117 -3.12,5.216 -3.12,5.216c0,0 0.435,4.256 -1.004,3.546c-1.44,-0.709 -3.252,-3.073 -3.252,-3.073l-1.857,-2.916c0,0 -2.714,-0.395 -3.187,0.236c-0.473,0.631 -2.678,2.763 -5.319,1.736c-2.641,-1.027 -1.617,0.313 -2.878,-1.815c-1.261,-2.128 -2.918,-4.073 -3.942,-4.992c-1.023,-0.919 -2.699,-1.35 -2.699,-1.35l-2.409,-3.273c0,0 -1.431,-0.313 -1.195,-2.442c0.236,-2.129 -0.053,-2.602 1.195,-3.154c1.248,-0.552 1.797,-1.336 2.744,-1.18c0.947,0.156 0.63,0.392 2.364,-0.633c1.735,-1.024 1.578,-0.551 2.287,-1.339c0.709,-0.789 0,-0.158 1.813,-0.946c1.812,-0.788 1.655,-0.394 2.995,-1.498c1.339,-1.103 1.024,-1.103 1.891,-1.734c0.867,-0.63 -1.714,-0.866 1.231,-1.182c2.946,-0.315 5.109,-0.157 5.109,-0.157c0,0 2.251,0.157 3.748,1.024c1.498,0.867 2.58,1.929 2.58,1.929c0,0 2.07,-0.51 2.543,0.278c0.473,0.788 1.034,2.699 2.369,2.374c1.335,-0.325 1.572,-0.482 3.069,-0.246c1.498,0.236 3.074,0.473 3.074,0.473c0,0 0.283,0.379 0.812,-0.835c0.528,-1.214 0.685,1.229 0.528,-1.687c-0.158,-2.916 -1.34,-2.443 0.394,-4.965c1.734,-2.522 4.655,-0.649 6.426,0.109c1.771,0.758 -2.682,1.861 4.115,2.058c6.798,0.197 6.416,0.33 8.065,-1.076c1.649,-1.407 1.255,-0.067 0.152,-3.298c-1.104,-3.232 -0.211,-1.881 -2.115,-2.793c-1.905,-0.911 1.627,-1.906 -2.898,-1.448c-4.524,0.458 -3.935,1.083 -6.2,0.889c-2.265,-0.195 -2.426,-2.001 -4.355,-1.058c-1.929,0.942 -2.055,-0.039 -3.742,0.942c-1.771,1.031 -3.496,0.653 -2.336,0.224c1.16,-0.429 3.913,-3.613 6.435,-4.874c2.522,-1.261 3.546,-1.497 4.728,-1.97c1.183,-0.473 3.259,-1.025 3.259,-1.025c0,0 1.785,0.079 2.968,0.867c1.182,0.788 0.105,0.867 2.141,1.576c2.036,0.71 8.656,2.916 9.444,3.074c0.788,0.158 2.316,1.636 2.852,1.764c0.537,0.128 2.415,1.047 3.998,3.109c1.583,2.063 2,0.058 1.792,4.213c-0.209,4.155 -0.524,7.859 -0.524,9.041c0,1.182 -1.627,2.861 -1.627,2.861Z"/></clipPath><g clip-path="url(#_clip10)"><path d="M72.07,42.741l19.483,-20.033c3.402,-19.583 -11.634,-25.793 -37.021,-24.496l-19.172,12.951l38.178,16.987c-2.69,2.678 4.925,-1.859 -8.659,8.962l-37.707,-23.958l-17.355,10.653l32.901,19.584l29.352,-0.65" style="fill:#c4e783;fill-opacity:0.5;"/><path d="M71.119,1.398c0.684,-0.524 0.178,6.741 0,7.603c-0.178,0.862 -0.807,2.833 0,3.818c0.807,0.985 2.778,1.97 3.27,3.448c0.493,1.478 4.509,1.326 -0.147,2.018c-4.656,0.691 -7.127,0.432 -8.231,0.992c-1.104,0.561 1.081,-3.689 -1.797,0.899c-2.878,4.588 -2.404,3.146 -4.673,6.084c-2.269,2.937 0.685,5.502 -3.747,3.235c-4.433,-2.268 -4.81,-2.159 -6.161,-2.029c-1.351,0.13 0.341,-0.056 -1.675,0.838c-2.016,0.893 -0.784,0.524 -5.094,1.386c-4.31,0.862 -4.668,-1.378 -5.167,0.973c-0.498,2.352 3.189,-1.972 -0.625,3.084c-3.814,5.056 -3.257,5.913 -5.629,4.006c-2.372,-1.906 -2.16,-0.975 -3.005,-1.502c-0.844,-0.527 -1.56,0.335 -3.296,-0.527c-1.735,-0.862 -1.671,-0.128 -2.073,-2.158c-0.401,-2.029 0.309,-0.239 -1.216,-2.427c-1.525,-2.188 -1.819,-4.199 -1.819,-4.199c0,0 -3.647,-2.915 1.649,-2.915c5.295,0 4.578,-0.94 5.86,-0.839c1.282,0.1 -1.777,-1.208 2.708,-1.354c4.485,-0.147 4.457,4.846 6.872,1.672c2.416,-3.173 3.345,-4.651 3.345,-4.651c0,0 1.713,-2.082 2.916,-0.672c1.204,1.411 1.088,0.918 2.193,2.396c1.104,1.478 -0.62,1.108 1.35,1.847c1.971,0.739 3.48,-0.432 5.127,0.092c1.647,0.524 4.355,1.509 3.74,-0.461c-0.616,-1.97 0,-2.778 0,-2.778l-2.731,-1.365l2.731,-0.414l3.174,0.192c0,0 -0.19,-0.125 2.936,-0.466c3.126,-0.341 5.34,-3.672 5.34,-3.672c0,0 -0.499,0.868 -1.233,-1.718c-0.735,-2.586 -1.079,-3.744 -3.124,-4.335c-2.044,-0.591 -7.093,-0.591 -7.093,-0.591c0,0 -4.311,-2.957 0,-2.956c4.31,0 7.389,0.123 7.389,0.123c0,0 0.121,-0.004 1.6,0.491c1.478,0.495 4.039,-2.02 4.039,-2.02c0,0 1.613,-0.624 2.297,-1.148Z" style="fill:#9fb366;"/><clipPath id="_clip11"><path d="M71.119,1.398c0.684,-0.524 0.178,6.741 0,7.603c-0.178,0.862 -0.807,2.833 0,3.818c0.807,0.985 2.778,1.97 3.27,3.448c0.493,1.478 4.509,1.326 -0.147,2.018c-4.656,0.691 -7.127,0.432 -8.231,0.992c-1.104,0.561 1.081,-3.689 -1.797,0.899c-2.878,4.588 -2.404,3.146 -4.673,6.084c-2.269,2.937 0.685,5.502 -3.747,3.235c-4.433,-2.268 -4.81,-2.159 -6.161,-2.029c-1.351,0.13 0.341,-0.056 -1.675,0.838c-2.016,0.893 -0.784,0.524 -5.094,1.386c-4.31,0.862 -4.668,-1.378 -5.167,0.973c-0.498,2.352 3.189,-1.972 -0.625,3.084c-3.814,5.056 -3.257,5.913 -5.629,4.006c-2.372,-1.906 -2.16,-0.975 -3.005,-1.502c-0.844,-0.527 -1.56,0.335 -3.296,-0.527c-1.735,-0.862 -1.671,-0.128 -2.073,-2.158c-0.401,-2.029 0.309,-0.239 -1.216,-2.427c-1.525,-2.188 -1.819,-4.199 -1.819,-4.199c0,0 -3.647,-2.915 1.649,-2.915c5.295,0 4.578,-0.94 5.86,-0.839c1.282,0.1 -1.777,-1.208 2.708,-1.354c4.485,-0.147 4.457,4.846 6.872,1.672c2.416,-3.173 3.345,-4.651 3.345,-4.651c0,0 1.713,-2.082 2.916,-0.672c1.204,1.411 1.088,0.918 2.193,2.396c1.104,1.478 -0.62,1.108 1.35,1.847c1.971,0.739 3.48,-0.432 5.127,0.092c1.647,0.524 4.355,1.509 3.74,-0.461c-0.616,-1.97 0,-2.778 0,-2.778l-2.731,-1.365l2.731,-0.414l3.174,0.192c0,0 -0.19,-0.125 2.936,-0.466c3.126,-0.341 5.34,-3.672 5.34,-3.672c0,0 -0.499,0.868 -1.233,-1.718c-0.735,-2.586 -1.079,-3.744 -3.124,-4.335c-2.044,-0.591 -7.093,-0.591 -7.093,-0.591c0,0 -4.311,-2.957 0,-2.956c4.31,0 7.389,0.123 7.389,0.123c0,0 0.121,-0.004 1.6,0.491c1.478,0.495 4.039,-2.02 4.039,-2.02c0,0 1.613,-0.624 2.297,-1.148Z"/></clipPath><g clip-path="url(#_clip11)"><path d="M72.07,42.741l19.483,-20.033c3.402,-19.583 -11.634,-25.793 -37.021,-24.496l-19.172,12.951l38.178,16.987c-2.69,2.678 4.925,-1.859 -8.659,8.962l-37.707,-23.958l-17.355,10.653l32.901,19.584l29.352,-0.65" style="fill:#c4e783;fill-opacity:0.5;"/></g><path d="M35.36,15.538l35.759,15.708l-5.108,3.357l-32.308,-18.634l1.657,-0.431Z" style="fill-opacity:0.5;"/></g></g></svg>