<?xml version="1.0" encoding="UTF-8" standalone="no"?><!DOCTYPE svg PUBLIC "-//W3C//DTD SVG 1.1//EN" "http://www.w3.org/Graphics/SVG/1.1/DTD/svg11.dtd"><svg width="100%" height="100%" viewBox="0 0 85 97" version="1.1" xmlns="http://www.w3.org/2000/svg" xmlns:xlink="http://www.w3.org/1999/xlink" xml:space="preserve" xmlns:serif="http://www.serif.com/" style="fill-rule:evenodd;clip-rule:evenodd;stroke-linejoin:round;stroke-miterlimit:1.41421;"><g id="X_Runestone_mossy_runes_2"><g id="F_Runestone_grass_runes_2"><g id="F_Runestone_runes_2"><g><g><path d="M61.391,3.205l20.434,5.109l-20.434,5.108l-20.434,-10.217l20.434,0Z" style="fill:#9da8c9;"/><clipPath id="_clip1"><path d="M61.391,3.205l20.434,5.109l-20.434,5.108l-20.434,-10.217l20.434,0Z"/></clipPath><g clip-path="url(#_clip1)"><path d="M81.899,73.353l-8.122,-11.264l8.122,-14.279l-8.689,5.873l-1.528,-10.981l-5.109,-2.554l1.599,5.908l0.902,8.167l-7.609,3.804l-1.669,-4.274l-3.44,5.298l0,6.639l8.107,-1.055l7.219,6.73l-10.217,12.205l-15.326,-2.554l-10.217,-5.109l-1.552,5.885l1.552,-0.776l7.891,3.945l-38.542,1.163l0,-20.434l18.658,5.997l-18.658,-16.214l0,-15.325l7.232,8.724l10.172,-7.209l-14.219,-18.433l9.122,-17.797l3.019,13.21l5.108,6.179l10.217,-3.293l0,-6.924l-2.675,6.446l-7.542,-1.338l10.217,-11.653l6.839,-10.47l13.595,10.278l10.217,1.628l-5.108,-2.554l-3.674,-8.38l24.108,5.842l-5.109,10.201l3.652,3.283l-6.601,15.676l11.808,-2.954l3.084,-40.685l-80.272,5.841l-16.808,107.384l98.74,-15.333l-8.494,-14.464Z" style="fill:#8d323a;fill-opacity:0.7;"/><path d="M81.825,8.314l-18.481,6.899l-1.279,3.655l-0.674,5.442l-9.596,1.807l0.581,-4.775l-16.528,14.129l-5.108,1.549l2.539,16.645l4.646,15.225l-5.302,-0.216l1.044,11.184l2.181,7.638l-6.117,-5.767l-19.425,-12.113l18.167,6.242l-0.629,-9.903l-17.538,-10.032l0,-1.633l7.619,2.278l13.806,5.032l-4.452,-7.484l-4.129,-1.871l2.481,-0.509l-15.325,-7.663l15.325,4.689l-1.19,-14.839l-14.135,-15.392l20.434,12.102l12.281,-9.613l4.129,-2.323l-16.41,-10.383l26.546,13.273l-1.003,-5.611l0.609,-2.117l-15.935,-10.654l20.434,7.815l7.308,-2.387l13.126,-0.319Z" style="fill:#f6d7d0;fill-opacity:0.9;"/></g><path d="M30.74,8.314l-5.109,7.662l-15.325,2.555l17.852,14.034l6.39,1.254l11.517,-12.734l5.109,-2.554l-20.434,-10.217" style="fill:#9da8c9;"/><clipPath id="_clip2"><path d="M30.74,8.314l-5.109,7.662l-15.325,2.555l17.852,14.034l6.39,1.254l11.517,-12.734l5.109,-2.554l-20.434,-10.217"/></clipPath><g clip-path="url(#_clip2)"><path d="M81.899,73.353l-8.122,-11.264l8.122,-14.279l-8.689,5.873l-1.528,-10.981l-5.109,-2.554l1.599,5.908l0.902,8.167l-7.609,3.804l-1.669,-4.274l-3.44,5.298l0,6.639l8.107,-1.055l7.219,6.73l-10.217,12.205l-15.326,-2.554l-10.217,-5.109l-1.552,5.885l1.552,-0.776l7.891,3.945l-38.542,1.163l0,-20.434l18.658,5.997l-18.658,-16.214l0,-15.325l7.232,8.724l10.172,-7.209l-14.219,-18.433l9.122,-17.797l3.019,13.21l5.108,6.179l10.217,-3.293l0,-6.924l-2.675,6.446l-7.542,-1.338l10.217,-11.653l6.839,-10.47l13.595,10.278l10.217,1.628l-5.108,-2.554l-3.674,-8.38l24.108,5.842l-5.109,10.201l3.652,3.283l-6.601,15.676l11.808,-2.954l3.084,-40.685l-80.272,5.841l-16.808,107.384l98.74,-15.333l-8.494,-14.464Z" style="fill:#8d323a;fill-opacity:0.7;"/><path d="M81.825,8.314l-18.481,6.899l-1.279,3.655l-0.674,5.442l-9.596,1.807l0.581,-4.775l-16.528,14.129l-5.108,1.549l2.539,16.645l4.646,15.225l-5.302,-0.216l1.044,11.184l2.181,7.638l-6.117,-5.767l-19.425,-12.113l18.167,6.242l-0.629,-9.903l-17.538,-10.032l0,-1.633l7.619,2.278l13.806,5.032l-4.452,-7.484l-4.129,-1.871l2.481,-0.509l-15.325,-7.663l15.325,4.689l-1.19,-14.839l-14.135,-15.392l20.434,12.102l12.281,-9.613l4.129,-2.323l-16.41,-10.383l26.546,13.273l-1.003,-5.611l0.609,-2.117l-15.935,-10.654l20.434,7.815l7.308,-2.387l13.126,-0.319Z" style="fill:#f6d7d0;fill-opacity:0.9;"/></g><path d="M81.825,8.314l-20.434,5.108l-5.108,7.663l-5.109,-2.554l-5.109,2.554l-11.468,12.686l-6.441,-1.207l2.584,21.726l5.108,12.772l-5.108,-2.555l0,15.326l5.108,7.663l15.326,-7.663l0,-5.109l5.109,-2.554l5.108,2.554l17.456,-8.728l1.11,-22.857l1.868,-9.283l-5.108,2.554l5.108,-12.771l0,-15.325Z" style="fill:#bac1d8;"/><clipPath id="_clip3"><path d="M81.825,8.314l-20.434,5.108l-5.108,7.663l-5.109,-2.554l-5.109,2.554l-11.468,12.686l-6.441,-1.207l2.584,21.726l5.108,12.772l-5.108,-2.555l0,15.326l5.108,7.663l15.326,-7.663l0,-5.109l5.109,-2.554l5.108,2.554l17.456,-8.728l1.11,-22.857l1.868,-9.283l-5.108,2.554l5.108,-12.771l0,-15.325Z"/></clipPath><g clip-path="url(#_clip3)"><path d="M81.899,73.353l-8.122,-11.264l8.122,-14.279l-8.689,5.873l-1.528,-10.981l-5.109,-2.554l1.599,5.908l0.902,8.167l-7.609,3.804l-1.669,-4.274l-3.44,5.298l0,6.639l8.107,-1.055l7.219,6.73l-10.217,12.205l-15.326,-2.554l-10.217,-5.109l-1.552,5.885l1.552,-0.776l7.891,3.945l-38.542,1.163l0,-20.434l18.658,5.997l-18.658,-16.214l0,-15.325l7.232,8.724l10.172,-7.209l-14.219,-18.433l9.122,-17.797l3.019,13.21l5.108,6.179l10.217,-3.293l0,-6.924l-2.675,6.446l-7.542,-1.338l10.217,-11.653l6.839,-10.47l13.595,10.278l10.217,1.628l-5.108,-2.554l-3.674,-8.38l24.108,5.842l-5.109,10.201l3.652,3.283l-6.601,15.676l11.808,-2.954l3.084,-40.685l-80.272,5.841l-16.808,107.384l98.74,-15.333l-8.494,-14.464Z" style="fill:#8d323a;fill-opacity:0.7;"/><path d="M81.825,8.314l-18.481,6.899l-1.279,3.655l-0.674,5.442l-9.596,1.807l0.581,-4.775l-16.528,14.129l-5.108,1.549l2.539,16.645l4.646,15.225l-5.302,-0.216l1.044,11.184l2.181,7.638l-6.117,-5.767l-19.425,-12.113l18.167,6.242l-0.629,-9.903l-17.538,-10.032l0,-1.633l7.619,2.278l13.806,5.032l-4.452,-7.484l-4.129,-1.871l2.481,-0.509l-15.325,-7.663l15.325,4.689l-1.19,-14.839l-14.135,-15.392l20.434,12.102l12.281,-9.613l4.129,-2.323l-16.41,-10.383l26.546,13.273l-1.003,-5.611l0.609,-2.117l-15.935,-10.654l20.434,7.815l7.308,-2.387l13.126,-0.319Z" style="fill:#f6d7d0;fill-opacity:0.9;"/></g><path d="M10.306,18.531l17.852,14.034l2.582,21.725l-20.434,-10.217l1.887,-9.273l-1.887,-16.269Z" style="fill:#6c7157;"/><clipPath id="_clip4"><path d="M10.306,18.531l17.852,14.034l2.582,21.725l-20.434,-10.217l1.887,-9.273l-1.887,-16.269Z"/></clipPath><g clip-path="url(#_clip4)"><path d="M81.899,73.353l-8.122,-11.264l8.122,-14.279l-8.689,5.873l-1.528,-10.981l-5.109,-2.554l1.599,5.908l0.902,8.167l-7.609,3.804l-1.669,-4.274l-3.44,5.298l0,6.639l8.107,-1.055l7.219,6.73l-10.217,12.205l-15.326,-2.554l-10.217,-5.109l-1.552,5.885l1.552,-0.776l7.891,3.945l-38.542,1.163l0,-20.434l18.658,5.997l-18.658,-16.214l0,-15.325l7.232,8.724l10.172,-7.209l-14.219,-18.433l9.122,-17.797l3.019,13.21l5.108,6.179l10.217,-3.293l0,-6.924l-2.675,6.446l-7.542,-1.338l10.217,-11.653l6.839,-10.47l13.595,10.278l10.217,1.628l-5.108,-2.554l-3.674,-8.38l24.108,5.842l-5.109,10.201l3.652,3.283l-6.601,15.676l11.808,-2.954l3.084,-40.685l-80.272,5.841l-16.808,107.384l98.74,-15.333l-8.494,-14.464Z" style="fill:#8d323a;fill-opacity:0.7;"/><path d="M81.825,8.314l-18.481,6.899l-1.279,3.655l-0.674,5.442l-9.596,1.807l0.581,-4.775l-16.528,14.129l-5.108,1.549l2.539,16.645l4.646,15.225l-5.302,-0.216l1.044,11.184l2.181,7.638l-6.117,-5.767l-19.425,-12.113l18.167,6.242l-0.629,-9.903l-17.538,-10.032l0,-1.633l7.619,2.278l13.806,5.032l-4.452,-7.484l-4.129,-1.871l2.481,-0.509l-15.325,-7.663l15.325,4.689l-1.19,-14.839l-14.135,-15.392l20.434,12.102l12.281,-9.613l4.129,-2.323l-16.41,-10.383l26.546,13.273l-1.003,-5.611l0.609,-2.117l-15.935,-10.654l20.434,7.815l7.308,-2.387l13.126,-0.319Z" style="fill:#f6d7d0;fill-opacity:0.4;"/></g><path d="M35.848,87.496l-20.434,-10.217l-5.108,-7.663l0,-15.326l20.434,10.217l0,15.326l5.108,7.663Z" style="fill:#6c7157;"/><clipPath id="_clip5"><path d="M35.848,87.496l-20.434,-10.217l-5.108,-7.663l0,-15.326l20.434,10.217l0,15.326l5.108,7.663Z"/></clipPath><g clip-path="url(#_clip5)"><path d="M81.899,73.353l-8.122,-11.264l8.122,-14.279l-8.689,5.873l-1.528,-10.981l-5.109,-2.554l1.599,5.908l0.902,8.167l-7.609,3.804l-1.669,-4.274l-3.44,5.298l0,6.639l8.107,-1.055l7.219,6.73l-10.217,12.205l-15.326,-2.554l-10.217,-5.109l-1.552,5.885l1.552,-0.776l7.891,3.945l-38.542,1.163l0,-20.434l18.658,5.997l-18.658,-16.214l0,-15.325l7.232,8.724l10.172,-7.209l-14.219,-18.433l9.122,-17.797l3.019,13.21l5.108,6.179l10.217,-3.293l0,-6.924l-2.675,6.446l-7.542,-1.338l10.217,-11.653l6.839,-10.47l13.595,10.278l10.217,1.628l-5.108,-2.554l-3.674,-8.38l24.108,5.842l-5.109,10.201l3.652,3.283l-6.601,15.676l11.808,-2.954l3.084,-40.685l-80.272,5.841l-16.808,107.384l98.74,-15.333l-8.494,-14.464Z" style="fill:#8d323a;fill-opacity:0.7;"/><path d="M81.825,8.314l-18.481,6.899l-1.279,3.655l-0.674,5.442l-9.596,1.807l0.581,-4.775l-16.528,14.129l-5.108,1.549l2.539,16.645l4.646,15.225l-5.302,-0.216l1.044,11.184l2.181,7.638l-6.117,-5.767l-19.425,-12.113l18.167,6.242l-0.629,-9.903l-17.538,-10.032l0,-1.633l7.619,2.278l13.806,5.032l-4.452,-7.484l-4.129,-1.871l2.481,-0.509l-15.325,-7.663l15.325,4.689l-1.19,-14.839l-14.135,-15.392l20.434,12.102l12.281,-9.613l4.129,-2.323l-16.41,-10.383l26.546,13.273l-1.003,-5.611l0.609,-2.117l-15.935,-10.654l20.434,7.815l7.308,-2.387l13.126,-0.319Z" style="fill:#f6d7d0;fill-opacity:0.4;"/></g><path d="M10.306,44.073l15.325,7.663l-15.325,2.554l25.542,12.772l-5.108,-12.772l-20.434,-10.217Z" style="fill:#574052;"/><clipPath id="_clip6"><path d="M10.306,44.073l15.325,7.663l-15.325,2.554l25.542,12.772l-5.108,-12.772l-20.434,-10.217Z"/></clipPath><g clip-path="url(#_clip6)"><path d="M81.825,8.314l-18.481,6.899l-1.279,3.655l-0.674,5.442l-9.596,1.807l0.581,-4.775l-16.528,14.129l-5.108,1.549l2.539,16.645l4.646,15.225l-5.302,-0.216l1.044,11.184l2.181,7.638l-6.117,-5.767l-19.425,-12.113l18.167,6.242l-0.629,-9.903l-17.538,-10.032l0,-1.633l7.619,2.278l13.806,5.032l-4.452,-7.484l-4.129,-1.871l2.481,-0.509l-15.325,-7.663l15.325,4.689l-1.19,-14.839l-14.135,-15.392l20.434,12.102l12.281,-9.613l4.129,-2.323l-16.41,-10.383l26.546,13.273l-1.003,-5.611l0.609,-2.117l-15.935,-10.654l20.434,7.815l7.308,-2.387l13.126,-0.319Z" style="fill:#f6d7d0;fill-opacity:0.4;"/></g><path d="M10.306,69.616l20.434,10.217l5.108,7.663l-20.434,-10.217l-5.108,-7.663Z" style="fill:#574052;"/><clipPath id="_clip7"><path d="M10.306,69.616l20.434,10.217l5.108,7.663l-20.434,-10.217l-5.108,-7.663Z"/></clipPath><g clip-path="url(#_clip7)"><path d="M81.825,8.314l-18.481,6.899l-1.279,3.655l-0.674,5.442l-9.596,1.807l0.581,-4.775l-16.528,14.129l-5.108,1.549l2.539,16.645l4.646,15.225l-5.302,-0.216l1.044,11.184l2.181,7.638l-6.117,-5.767l-19.425,-12.113l18.167,6.242l-0.629,-9.903l-17.538,-10.032l0,-1.633l7.619,2.278l13.806,5.032l-4.452,-7.484l-4.129,-1.871l2.481,-0.509l-15.325,-7.663l15.325,4.689l-1.19,-14.839l-14.135,-15.392l20.434,12.102l12.281,-9.613l4.129,-2.323l-16.41,-10.383l26.546,13.273l-1.003,-5.611l0.609,-2.117l-15.935,-10.654l20.434,7.815l7.308,-2.387l13.126,-0.319Z" style="fill:#f6d7d0;fill-opacity:0.9;"/></g><path d="M40.957,3.205l-5.109,7.663l20.435,10.217l-2.439,3.889l5.527,-2.345l-0.435,-5.326l2.455,-3.881l-20.434,-10.217Z" style="fill:#6c7157;"/><clipPath id="_clip8"><path d="M40.957,3.205l-5.109,7.663l20.435,10.217l-2.439,3.889l5.527,-2.345l-0.435,-5.326l2.455,-3.881l-20.434,-10.217Z"/></clipPath><g clip-path="url(#_clip8)"><path d="M81.825,8.314l-18.481,6.899l-1.279,3.655l-0.674,5.442l-9.596,1.807l0.581,-4.775l-16.528,14.129l-5.108,1.549l2.539,16.645l4.646,15.225l-5.302,-0.216l1.044,11.184l2.181,7.638l-6.117,-5.767l-19.425,-12.113l18.167,6.242l-0.629,-9.903l-17.538,-10.032l0,-1.633l7.619,2.278l13.806,5.032l-4.452,-7.484l-4.129,-1.871l2.481,-0.509l-15.325,-7.663l15.325,4.689l-1.19,-14.839l-14.135,-15.392l20.434,12.102l12.281,-9.613l4.129,-2.323l-16.41,-10.383l26.546,13.273l-1.003,-5.611l0.609,-2.117l-15.935,-10.654l20.434,7.815l7.308,-2.387l13.126,-0.319Z" style="fill:#f6d7d0;fill-opacity:0.9;"/></g></g></g></g><path d="M79.605,50.778c0,0 6.023,1.536 4.351,7.225c-1.672,5.688 -0.691,6.841 -2.095,11.265c-1.404,4.423 -2.576,0.767 -5.109,5.713c-2.445,4.777 -1.717,6.083 -12.733,10.908c-0.392,0.172 1.248,-3.192 0.821,-3.002c-0.898,0.399 -1.669,0.754 -2.332,1.07c-8.522,4.067 0.853,1.734 -12.241,5.274c-0.883,0.238 3.88,1.315 3.076,1.538c-0.803,0.222 -3.476,-0.208 -4.251,-0.009c-2.579,0.663 -4.884,1.237 -6.919,1.728c-0.37,0.089 1.938,2.015 -1.083,0.259c-5.189,-3.019 -9.236,2.023 -10.314,2.063c-1.717,0.064 -4.566,-3.053 -7.872,-1.172c-3.307,1.881 -2.555,4.569 -5.78,1.343c-1.544,-1.544 -3.353,-0.852 -3.846,-1.639c-0.537,-0.858 0.225,-3.128 -2.109,-3.226c-0.531,-0.023 -1.709,4.029 -2.193,4.011c-3.598,-0.128 -5.277,-4.159 -6.947,-3.473c-1.894,0.779 -2.04,-0.866 0.667,-4.775c2.707,-3.909 3.812,-1.699 3.69,-4.417c-0.122,-2.717 -2.474,-3.871 -2.474,-3.871c0,0 -1.964,1.936 -1.473,-2.058c0.491,-3.993 -0.318,-4.202 0.839,-4.688c1.158,-0.487 1.892,1.663 1.955,-1.24c0.063,-2.903 -0.708,-1.505 0,-3.763c0.708,-2.259 0.201,-0.492 1.315,-3.58c1.113,-3.087 0.451,-5.273 0.459,-6.653c0.009,-1.38 -1.066,-0.413 0.009,-1.703c1.075,-1.29 5.754,-2.798 7.339,-3.065c1.586,-0.268 7.177,1.13 7.177,1.13l-11.191,2.263l0,15.034l5.109,7.662c0,0 0.363,2.442 2.875,1.438c2.511,-1.004 1.961,-1.004 3.007,-1.004c1.046,0 0.881,-0.055 2.808,1.486c1.926,1.542 3.276,2.314 3.276,2.314c0,0 1.568,1.1 2.669,1.705c1.101,0.606 1.717,2.237 1.717,2.237l0.485,-0.75c0,0 0.401,0.249 0.366,-0.701c-0.035,-0.951 0.35,-2.712 0.157,-3.153c-0.192,-0.441 -1.293,-1.266 0.193,-0.551c1.487,0.716 0.969,0.76 2.054,1.674c1.084,0.914 -1.019,1.927 1.959,0.98c2.979,-0.947 2.056,-1.222 3.977,-1.112c1.92,0.11 1.094,1.321 3.021,0.055c1.927,-1.266 1.927,-0.496 2.642,-1.762c0.716,-1.266 0.661,-1.651 0.661,-1.651c0,0 -2.243,1.016 -0.048,-0.621l2.195,-1.637c0,0 -0.569,0.9 0.101,-0.679c0.67,-1.578 0.638,-0.587 1.645,-2.238c1.007,-1.652 0.122,-1.865 1.996,-2.694c1.874,-0.83 -0.108,-2.041 2.204,-0.94c2.312,1.101 0.378,0.481 3.492,1.204c3.114,0.723 3.39,0.503 4.546,0.723c1.156,0.22 -1.377,-1.101 1.266,-2.918c2.642,-1.817 3.064,-0.587 3.019,-2.22c-0.046,-1.634 -2.524,-2.68 0.119,-2.79c2.642,-0.11 -1.705,2.033 2.671,0.274c4.376,-1.76 3.88,-0.439 4.706,-1.87c0.826,-1.432 1.835,-1.487 1.523,-2.698c-0.312,-1.211 -0.404,-2.332 -0.404,-2.332l2.892,2.961l0.365,-8.882Z" style="fill:#426433;"/><clipPath id="_clip9"><path d="M79.605,50.778c0,0 6.023,1.536 4.351,7.225c-1.672,5.688 -0.691,6.841 -2.095,11.265c-1.404,4.423 -2.576,0.767 -5.109,5.713c-2.445,4.777 -1.717,6.083 -12.733,10.908c-0.392,0.172 1.248,-3.192 0.821,-3.002c-0.898,0.399 -1.669,0.754 -2.332,1.07c-8.522,4.067 0.853,1.734 -12.241,5.274c-0.883,0.238 3.88,1.315 3.076,1.538c-0.803,0.222 -3.476,-0.208 -4.251,-0.009c-2.579,0.663 -4.884,1.237 -6.919,1.728c-0.37,0.089 1.938,2.015 -1.083,0.259c-5.189,-3.019 -9.236,2.023 -10.314,2.063c-1.717,0.064 -4.566,-3.053 -7.872,-1.172c-3.307,1.881 -2.555,4.569 -5.78,1.343c-1.544,-1.544 -3.353,-0.852 -3.846,-1.639c-0.537,-0.858 0.225,-3.128 -2.109,-3.226c-0.531,-0.023 -1.709,4.029 -2.193,4.011c-3.598,-0.128 -5.277,-4.159 -6.947,-3.473c-1.894,0.779 -2.04,-0.866 0.667,-4.775c2.707,-3.909 3.812,-1.699 3.69,-4.417c-0.122,-2.717 -2.474,-3.871 -2.474,-3.871c0,0 -1.964,1.936 -1.473,-2.058c0.491,-3.993 -0.318,-4.202 0.839,-4.688c1.158,-0.487 1.892,1.663 1.955,-1.24c0.063,-2.903 -0.708,-1.505 0,-3.763c0.708,-2.259 0.201,-0.492 1.315,-3.58c1.113,-3.087 0.451,-5.273 0.459,-6.653c0.009,-1.38 -1.066,-0.413 0.009,-1.703c1.075,-1.29 5.754,-2.798 7.339,-3.065c1.586,-0.268 7.177,1.13 7.177,1.13l-11.191,2.263l0,15.034l5.109,7.662c0,0 0.363,2.442 2.875,1.438c2.511,-1.004 1.961,-1.004 3.007,-1.004c1.046,0 0.881,-0.055 2.808,1.486c1.926,1.542 3.276,2.314 3.276,2.314c0,0 1.568,1.1 2.669,1.705c1.101,0.606 1.717,2.237 1.717,2.237l0.485,-0.75c0,0 0.401,0.249 0.366,-0.701c-0.035,-0.951 0.35,-2.712 0.157,-3.153c-0.192,-0.441 -1.293,-1.266 0.193,-0.551c1.487,0.716 0.969,0.76 2.054,1.674c1.084,0.914 -1.019,1.927 1.959,0.98c2.979,-0.947 2.056,-1.222 3.977,-1.112c1.92,0.11 1.094,1.321 3.021,0.055c1.927,-1.266 1.927,-0.496 2.642,-1.762c0.716,-1.266 0.661,-1.651 0.661,-1.651c0,0 -2.243,1.016 -0.048,-0.621l2.195,-1.637c0,0 -0.569,0.9 0.101,-0.679c0.67,-1.578 0.638,-0.587 1.645,-2.238c1.007,-1.652 0.122,-1.865 1.996,-2.694c1.874,-0.83 -0.108,-2.041 2.204,-0.94c2.312,1.101 0.378,0.481 3.492,1.204c3.114,0.723 3.39,0.503 4.546,0.723c1.156,0.22 -1.377,-1.101 1.266,-2.918c2.642,-1.817 3.064,-0.587 3.019,-2.22c-0.046,-1.634 -2.524,-2.68 0.119,-2.79c2.642,-0.11 -1.705,2.033 2.671,0.274c4.376,-1.76 3.88,-0.439 4.706,-1.87c0.826,-1.432 1.835,-1.487 1.523,-2.698c-0.312,-1.211 -0.404,-2.332 -0.404,-2.332l2.892,2.961l0.365,-8.882Z"/></clipPath><g clip-path="url(#_clip9)"><path d="M86.155,38.786l18.329,50.032l-68.039,22.175l-11.592,-5.796l28.828,-46.888l32.474,-19.523" style="fill:#c4e783;fill-opacity:0.5;"/><path d="M88.203,54.53l-4.555,4.581l-1.787,1.226c0,0 0.431,2.913 0,3.822c-0.432,0.909 -2.455,3.881 -2.455,3.881c0,0 -0.557,0.899 -1.633,1.974c-1.075,1.075 -1.873,1.382 -1.873,1.382l-0.688,-0.344l2.561,-6.522l0.646,-1.075l-1.667,-0.538c0,0 -2.419,2.796 -3.172,4.194c-0.753,1.398 -0.901,1.639 -0.901,1.639c0,0 0.147,0.511 -1.035,1.694c-1.182,1.183 -2.522,2.249 -1.96,2.952c0.563,0.704 0.867,1.527 0.867,1.527c0,0 -1.81,1.005 -3.1,0.36c-1.29,-0.645 0.323,-0.968 -1.936,-1.506c-2.258,-0.537 -3.017,-1.061 -5.917,-0.315c-2.9,0.745 -4.082,-6.136 -5.373,0.745c-1.29,6.882 -2.483,7.205 -3.015,8.065c-0.533,0.86 1.737,1.159 -1.656,1.493c-3.393,0.335 -4.684,0.442 -4.684,0.442c0,0 -4.618,2.268 -6.556,1.726c-1.938,-0.543 0.842,-1.188 -2.43,-0.435c-3.271,0.752 -7.808,1.505 -10.217,2.58c-2.409,1.076 -4.448,2.051 -7.461,2.8c-3.013,0.749 -2.275,0.84 -0.785,-0.397c4.038,-3.353 -6.058,-0.789 -4.748,-3.16c1.582,-2.862 2.777,-2.791 2.777,-2.791l-3.037,-4.009l-2.072,0.246c0,0 0.273,1.056 -1.792,-0.386c-2.065,-1.442 -2.731,-1.484 -1.914,-4.151c0.816,-2.668 2.246,-1.226 1.155,-3.13c-1.091,-1.903 -1.736,0.14 -1.091,-3.731c0.645,-3.871 0.752,-4.839 0.752,-4.839c0,0 -1.077,-2.477 -0.753,-3.658c0.323,-1.181 0.431,-2.148 0.431,-2.148l-4.543,1.558l2.647,-6.074l0,-0.861c0,0 -6.599,-2.903 -7.566,0.753c-0.968,3.656 -3.216,4.065 -1.232,13.323c1.984,9.258 2.573,10.124 1.311,15.981c-1.262,5.857 -3.843,9.62 -0.832,10.911c3.011,1.29 0.322,2.258 11.72,2.903c11.398,0.645 59.586,-4.119 59.586,-4.119l22.994,-25.343l-3.011,-13.226" style="fill:#9fb366;"/><clipPath id="_clip10"><path d="M88.203,54.53l-4.555,4.581l-1.787,1.226c0,0 0.431,2.913 0,3.822c-0.432,0.909 -2.455,3.881 -2.455,3.881c0,0 -0.557,0.899 -1.633,1.974c-1.075,1.075 -1.873,1.382 -1.873,1.382l-0.688,-0.344l2.561,-6.522l0.646,-1.075l-1.667,-0.538c0,0 -2.419,2.796 -3.172,4.194c-0.753,1.398 -0.901,1.639 -0.901,1.639c0,0 0.147,0.511 -1.035,1.694c-1.182,1.183 -2.522,2.249 -1.96,2.952c0.563,0.704 0.867,1.527 0.867,1.527c0,0 -1.81,1.005 -3.1,0.36c-1.29,-0.645 0.323,-0.968 -1.936,-1.506c-2.258,-0.537 -3.017,-1.061 -5.917,-0.315c-2.9,0.745 -4.082,-6.136 -5.373,0.745c-1.29,6.882 -2.483,7.205 -3.015,8.065c-0.533,0.86 1.737,1.159 -1.656,1.493c-3.393,0.335 -4.684,0.442 -4.684,0.442c0,0 -4.618,2.268 -6.556,1.726c-1.938,-0.543 0.842,-1.188 -2.43,-0.435c-3.271,0.752 -7.808,1.505 -10.217,2.58c-2.409,1.076 -4.448,2.051 -7.461,2.8c-3.013,0.749 -2.275,0.84 -0.785,-0.397c4.038,-3.353 -6.058,-0.789 -4.748,-3.16c1.582,-2.862 2.777,-2.791 2.777,-2.791l-3.037,-4.009l-2.072,0.246c0,0 0.273,1.056 -1.792,-0.386c-2.065,-1.442 -2.731,-1.484 -1.914,-4.151c0.816,-2.668 2.246,-1.226 1.155,-3.13c-1.091,-1.903 -1.736,0.14 -1.091,-3.731c0.645,-3.871 0.752,-4.839 0.752,-4.839c0,0 -1.077,-2.477 -0.753,-3.658c0.323,-1.181 0.431,-2.148 0.431,-2.148l-4.543,1.558l2.647,-6.074l0,-0.861c0,0 -6.599,-2.903 -7.566,0.753c-0.968,3.656 -3.216,4.065 -1.232,13.323c1.984,9.258 2.573,10.124 1.311,15.981c-1.262,5.857 -3.843,9.62 -0.832,10.911c3.011,1.29 0.322,2.258 11.72,2.903c11.398,0.645 59.586,-4.119 59.586,-4.119l22.994,-25.343l-3.011,-13.226"/></clipPath><g clip-path="url(#_clip10)"><path d="M86.155,38.786l18.329,50.032l-68.039,22.175l-11.592,-5.796l28.828,-46.888l32.474,-19.523" style="fill:#c4e783;fill-opacity:0.5;"/></g><path d="M29.961,71.991l-34.27,22.244l-1.49,-52.229l38.658,5.892l-2.898,24.093" style="fill-opacity:0.5;"/></g></g><g><path d="M61.248,49.09l9.948,12.458l-4.348,-1.275l-12.119,-9.901l6.519,-1.282Z" style="fill:#574052;"/><path d="M53.161,50.73l13.867,-15.94l6.084,-0.139l-10.989,15.699l-8.962,0.38Z" style="fill:#574052;"/><path d="M53.196,28.683l1.65,-1.733l18.272,7.657l-7.558,0.789l-12.364,-6.713Z" style="fill:#574052;"/><path d="M56.389,56.744l-3.645,-2.964l-8.162,10.91l5.189,3.011l6.618,-10.957Z" style="fill:#574052;"/><path d="M40.143,68.61l6.159,-2.81l3.313,1.936l-4.812,2.65l-4.66,-1.776Z" style="fill:none;"/><path d="M62.686,62.287l4.002,1.649l4.535,-2.321l-4.159,-1.166l-4.378,1.838Z" style="fill:none;"/><path d="M53.164,54.211l9.523,8.068l4.57,-1.935l-9.695,-9.809l10.371,-15.392l-14.79,-6.374l-12.277,15.81l7.563,6.49l-8.294,17.514l6.297,-2.837l6.732,-11.535Z" style="fill:#c3454a;"/><g><path d="M55.047,35.201l6.423,3.896l-4.689,7.106l-6.668,-4.761l4.934,-6.241Z" style="fill:#f6d7d0;"/><path d="M55.066,35.192l-3.553,0.145l-5.289,6.24l4.006,-0.218l4.836,-6.167Z" style="fill:#6c7157;"/><path d="M46.247,41.589l3.88,-0.157l6.577,4.769l-4.525,-0.078l-5.932,-4.534Z" style="fill:#574052;"/></g></g><path d="M76.667,45.675c0,0 -1.331,-0.602 -1.13,-4.875c0.202,-4.273 -1.197,-8.653 -0.85,-8.662c0.348,-0.009 2.186,-0.114 3.026,-1.513c0.84,-1.399 3.767,-1.135 4.063,-2.894c0.296,-1.759 2.055,-2.375 2.143,-4.134c0.088,-1.759 0.176,-14.25 -0.088,-15.218c-0.264,-0.967 -0.44,-1.055 -1.231,-1.583c-0.792,-0.528 1.871,-0.528 -0.824,-0.528c-2.695,0 -2.773,-2.029 -5.109,-0.663c-2.336,1.367 -1.879,1.137 -3.471,1.736c-1.592,0.599 -6.746,2.094 -6.746,2.094c0,0 -0.481,2.739 -1.842,0.358c-1.36,-2.381 2.346,-0.335 -1.442,-2.545c-3.788,-2.211 -3.905,-3.061 -4.507,-2.856c-0.601,0.205 0.015,0.909 -1.656,-0.235c-1.672,-1.143 0.687,-2.144 -3.131,-2.479c-3.818,-0.335 -4.809,-0.992 -6.821,-0.664c-2.011,0.329 -1.083,0.073 -3.174,0.553c-2.092,0.479 -2.969,0.743 -2.969,0.743c0,0 0.162,-0.681 -0.932,0.275c-1.093,0.957 -2.505,0.947 -3.207,2.535c-0.701,1.588 -0.887,1.324 -0.97,2.116c-0.083,0.792 -1.143,0.431 -3.252,-0.005c-2.109,-0.435 -1.937,-0.865 -2.639,0.537c-0.701,1.403 0.09,0.699 -1.229,2.195c-1.319,1.495 2.551,0.967 -2.111,2.463c-4.662,1.495 -1.194,-1.482 -4.687,1.546c-3.493,3.028 -2.089,3.474 0.771,5.494c2.86,2.02 -0.431,0.436 2.93,2.548c3.361,2.111 4.393,2.462 5.109,3.43c0.715,0.968 1.383,1.512 1.445,2.427c0.062,0.916 0.062,3.203 0.062,3.203c0,0 0.087,-1.232 -0.352,0.791c-0.44,2.023 -1.155,2.991 -1.155,2.991c0,0 -0.54,-0.088 0,1.231c0.539,1.32 0.725,0.9 0.852,2.298c0.127,1.397 0.127,1.221 0.127,2.188c0,0.968 0,1.672 0,1.672c0,0 0.591,0.577 0.471,2.4c-0.119,1.822 -0.837,2.321 -0.522,3.919c0.315,1.597 1.106,2.301 1.634,3.093c0.528,0.791 1.293,3.201 1.042,0.677c-0.25,-2.525 0.277,-3.492 0.277,-4.372c0,-0.879 -0.851,0.648 -0.074,-2.139c0.778,-2.787 -1.863,0.12 2.009,-4.104c3.871,-4.224 3.617,-5.699 3.128,-7.381c-0.489,-1.681 0.127,0.078 0.127,-3.352c0,-3.431 1.146,-5.014 1.146,-5.014c0,0 -0.108,-0.74 -0.715,-2.129c-0.607,-1.39 -1.31,-1.302 -0.079,-2.445c1.232,-1.144 1.433,-2.249 2.212,-2.312c0.779,-0.063 0.955,-0.239 1.658,-0.679c0.704,-0.44 1.689,-0.792 2.032,-1.143c0.343,-0.352 2.012,-0.436 2.012,-0.436l-2.012,-3.523l7.117,0.967c0,0 0.702,0.791 1.802,2.199c1.1,1.408 2.6,3.089 3.17,3.524c0.569,0.435 1.499,2.621 1.499,2.621l1.738,3.268c0,0 -0.909,2.903 1.114,0.616c2.023,-2.287 -0.64,0.565 2.407,-4.775c3.047,-5.341 2.079,-6.045 4.278,-6.221c2.199,-0.176 1.936,-0.439 3.167,-0.176c1.231,0.264 -0.088,0.088 1.759,0.528c1.847,0.44 4.673,0.528 2.6,1.584c-2.072,1.055 -3.655,1.143 -3.04,3.694c0.616,2.551 2.639,2.727 0.528,5.102c-2.111,2.375 -3.082,0.703 -2.596,5.365c0.485,4.662 0.13,7.389 0,9.676c-0.131,2.287 -2.773,2.023 0,3.695c2.772,1.671 3.73,0.419 3.911,2.1c0.181,1.682 1.197,-1.397 1.197,-1.397Z" style="fill:#426433;"/><clipPath id="_clip11"><path d="M76.667,45.675c0,0 -1.331,-0.602 -1.13,-4.875c0.202,-4.273 -1.197,-8.653 -0.85,-8.662c0.348,-0.009 2.186,-0.114 3.026,-1.513c0.84,-1.399 3.767,-1.135 4.063,-2.894c0.296,-1.759 2.055,-2.375 2.143,-4.134c0.088,-1.759 0.176,-14.25 -0.088,-15.218c-0.264,-0.967 -0.44,-1.055 -1.231,-1.583c-0.792,-0.528 1.871,-0.528 -0.824,-0.528c-2.695,0 -2.773,-2.029 -5.109,-0.663c-2.336,1.367 -1.879,1.137 -3.471,1.736c-1.592,0.599 -6.746,2.094 -6.746,2.094c0,0 -0.481,2.739 -1.842,0.358c-1.36,-2.381 2.346,-0.335 -1.442,-2.545c-3.788,-2.211 -3.905,-3.061 -4.507,-2.856c-0.601,0.205 0.015,0.909 -1.656,-0.235c-1.672,-1.143 0.687,-2.144 -3.131,-2.479c-3.818,-0.335 -4.809,-0.992 -6.821,-0.664c-2.011,0.329 -1.083,0.073 -3.174,0.553c-2.092,0.479 -2.969,0.743 -2.969,0.743c0,0 0.162,-0.681 -0.932,0.275c-1.093,0.957 -2.505,0.947 -3.207,2.535c-0.701,1.588 -0.887,1.324 -0.97,2.116c-0.083,0.792 -1.143,0.431 -3.252,-0.005c-2.109,-0.435 -1.937,-0.865 -2.639,0.537c-0.701,1.403 0.09,0.699 -1.229,2.195c-1.319,1.495 2.551,0.967 -2.111,2.463c-4.662,1.495 -1.194,-1.482 -4.687,1.546c-3.493,3.028 -2.089,3.474 0.771,5.494c2.86,2.02 -0.431,0.436 2.93,2.548c3.361,2.111 4.393,2.462 5.109,3.43c0.715,0.968 1.383,1.512 1.445,2.427c0.062,0.916 0.062,3.203 0.062,3.203c0,0 0.087,-1.232 -0.352,0.791c-0.44,2.023 -1.155,2.991 -1.155,2.991c0,0 -0.54,-0.088 0,1.231c0.539,1.32 0.725,0.9 0.852,2.298c0.127,1.397 0.127,1.221 0.127,2.188c0,0.968 0,1.672 0,1.672c0,0 0.591,0.577 0.471,2.4c-0.119,1.822 -0.837,2.321 -0.522,3.919c0.315,1.597 1.106,2.301 1.634,3.093c0.528,0.791 1.293,3.201 1.042,0.677c-0.25,-2.525 0.277,-3.492 0.277,-4.372c0,-0.879 -0.851,0.648 -0.074,-2.139c0.778,-2.787 -1.863,0.12 2.009,-4.104c3.871,-4.224 3.617,-5.699 3.128,-7.381c-0.489,-1.681 0.127,0.078 0.127,-3.352c0,-3.431 1.146,-5.014 1.146,-5.014c0,0 -0.108,-0.74 -0.715,-2.129c-0.607,-1.39 -1.31,-1.302 -0.079,-2.445c1.232,-1.144 1.433,-2.249 2.212,-2.312c0.779,-0.063 0.955,-0.239 1.658,-0.679c0.704,-0.44 1.689,-0.792 2.032,-1.143c0.343,-0.352 2.012,-0.436 2.012,-0.436l-2.012,-3.523l7.117,0.967c0,0 0.702,0.791 1.802,2.199c1.1,1.408 2.6,3.089 3.17,3.524c0.569,0.435 1.499,2.621 1.499,2.621l1.738,3.268c0,0 -0.909,2.903 1.114,0.616c2.023,-2.287 -0.64,0.565 2.407,-4.775c3.047,-5.341 2.079,-6.045 4.278,-6.221c2.199,-0.176 1.936,-0.439 3.167,-0.176c1.231,0.264 -0.088,0.088 1.759,0.528c1.847,0.44 4.673,0.528 2.6,1.584c-2.072,1.055 -3.655,1.143 -3.04,3.694c0.616,2.551 2.639,2.727 0.528,5.102c-2.111,2.375 -3.082,0.703 -2.596,5.365c0.485,4.662 0.13,7.389 0,9.676c-0.131,2.287 -2.773,2.023 0,3.695c2.772,1.671 3.73,0.419 3.911,2.1c0.181,1.682 1.197,-1.397 1.197,-1.397Z"/></clipPath><g clip-path="url(#_clip11)"><path d="M57.457,-2.36l31.039,5.841l-2.786,37.297l-5.656,4.002l-9.704,-10.473l-2.648,-14.002l-13.255,-0.267l-20.451,-15.334l13.397,-13.736l10.064,6.672Z" style="fill:#c4e783;fill-opacity:0.5;"/><path d="M73.684,42.857c-0.027,-1.285 1.481,-2.667 0.595,-5.406c-0.886,-2.74 -2.909,-3.795 -0.798,-5.73c2.111,-1.935 1.182,-2.551 3.186,-3.519c2.004,-0.967 3.148,-1.143 3.5,-2.639c0.351,-1.495 2.075,-1.935 1.609,-3.782c-0.466,-1.847 0.642,-4.222 0,-6.861c-0.642,-2.639 -1.258,-4.486 -1.258,-4.486l-1.221,-1.035c0,0 -0.274,-0.284 -1.681,-0.284c-1.408,0 -0.463,0.485 -2.519,0.814c-2.055,0.329 -0.359,-0.814 -3.538,1.209c-3.179,2.023 -7.489,2.375 -7.489,2.375c0,0 -1.762,5.844 -2.728,-0.245c-0.967,-6.089 3.431,-5.825 -1.846,-7.144c-5.278,-1.32 -9.307,-2.605 -9.307,-2.605c0,0 2.533,-0.034 -1.689,-0.914c-4.222,-0.879 -12.701,-1.231 -12.701,-1.231c0,0 -1.983,-0.253 -2.821,0.533c-0.839,0.786 -2.135,-2.07 -3.378,1.689c-1.243,3.759 -4.064,5.769 -5.028,7.623c-0.965,1.854 -4.169,2.105 -1.247,3.475c2.921,1.37 0.737,-0.86 5.524,2.762c4.786,3.621 3.793,0.052 5.301,4.3c1.508,4.247 1.262,4.247 1.649,5.743c0.387,1.495 -0.669,4.31 -0.757,6.421c-0.088,2.111 -0.318,7.983 -0.318,7.983c0,0 2.499,-2.053 2.244,-5.062c-0.255,-3.009 -1.993,-2.44 -0.068,-6.243c1.925,-3.803 2.696,-4.019 1.827,-6.022c-0.87,-2.003 -1.881,-2.881 -2.255,-3.982c-0.374,-1.1 -2.027,-1.1 -0.673,-3.123c1.354,-2.023 -0.77,0.149 1.831,-2.564c2.602,-2.714 0.347,-3.593 3.278,-2.89c2.93,0.704 3.018,0.704 3.018,0.704l0.447,-2.829c0,0 -3.072,-0.717 0,0c3.072,0.718 -0.31,2.115 4.856,2.428c5.165,0.313 5.765,-0.215 7.004,0.313c1.239,0.528 1.29,-0.075 2.584,1.898c1.294,1.972 1.996,2.464 2.525,3.846c0.528,1.381 -0.175,3.756 1.232,2.173c1.408,-1.584 1.947,-5.718 3.876,-5.894c1.93,-0.176 5.297,0.039 7.132,-0.376c1.835,-0.416 3.783,1.194 3.783,1.194c-3.035,-0.508 -9.962,8.107 -6.522,9.474c0.735,0.292 -1.594,8.775 -1.985,10.105c-0.39,1.33 4.852,9.088 4.826,7.804Z" style="fill:#9fb366;"/><clipPath id="_clip12"><path d="M73.684,42.857c-0.027,-1.285 1.481,-2.667 0.595,-5.406c-0.886,-2.74 -2.909,-3.795 -0.798,-5.73c2.111,-1.935 1.182,-2.551 3.186,-3.519c2.004,-0.967 3.148,-1.143 3.5,-2.639c0.351,-1.495 2.075,-1.935 1.609,-3.782c-0.466,-1.847 0.642,-4.222 0,-6.861c-0.642,-2.639 -1.258,-4.486 -1.258,-4.486l-1.221,-1.035c0,0 -0.274,-0.284 -1.681,-0.284c-1.408,0 -0.463,0.485 -2.519,0.814c-2.055,0.329 -0.359,-0.814 -3.538,1.209c-3.179,2.023 -7.489,2.375 -7.489,2.375c0,0 -1.762,5.844 -2.728,-0.245c-0.967,-6.089 3.431,-5.825 -1.846,-7.144c-5.278,-1.32 -9.307,-2.605 -9.307,-2.605c0,0 2.533,-0.034 -1.689,-0.914c-4.222,-0.879 -12.701,-1.231 -12.701,-1.231c0,0 -1.983,-0.253 -2.821,0.533c-0.839,0.786 -2.135,-2.07 -3.378,1.689c-1.243,3.759 -4.064,5.769 -5.028,7.623c-0.965,1.854 -4.169,2.105 -1.247,3.475c2.921,1.37 0.737,-0.86 5.524,2.762c4.786,3.621 3.793,0.052 5.301,4.3c1.508,4.247 1.262,4.247 1.649,5.743c0.387,1.495 -0.669,4.31 -0.757,6.421c-0.088,2.111 -0.318,7.983 -0.318,7.983c0,0 2.499,-2.053 2.244,-5.062c-0.255,-3.009 -1.993,-2.44 -0.068,-6.243c1.925,-3.803 2.696,-4.019 1.827,-6.022c-0.87,-2.003 -1.881,-2.881 -2.255,-3.982c-0.374,-1.1 -2.027,-1.1 -0.673,-3.123c1.354,-2.023 -0.77,0.149 1.831,-2.564c2.602,-2.714 0.347,-3.593 3.278,-2.89c2.93,0.704 3.018,0.704 3.018,0.704l0.447,-2.829c0,0 -3.072,-0.717 0,0c3.072,0.718 -0.31,2.115 4.856,2.428c5.165,0.313 5.765,-0.215 7.004,0.313c1.239,0.528 1.29,-0.075 2.584,1.898c1.294,1.972 1.996,2.464 2.525,3.846c0.528,1.381 -0.175,3.756 1.232,2.173c1.408,-1.584 1.947,-5.718 3.876,-5.894c1.93,-0.176 5.297,0.039 7.132,-0.376c1.835,-0.416 3.783,1.194 3.783,1.194c-3.035,-0.508 -9.962,8.107 -6.522,9.474c0.735,0.292 -1.594,8.775 -1.985,10.105c-0.39,1.33 4.852,9.088 4.826,7.804Z"/></clipPath><g clip-path="url(#_clip12)"><path d="M57.457,-2.36l31.039,5.841l-2.786,37.297l-5.656,4.002l-9.704,-10.473l-2.648,-14.002l-13.255,-0.267l-20.451,-15.334l13.397,-13.736l10.064,6.672Z" style="fill:#c4e783;fill-opacity:0.5;"/></g></g></g></svg>