<?xml version="1.0" encoding="UTF-8" standalone="no"?><!DOCTYPE svg PUBLIC "-//W3C//DTD SVG 1.1//EN" "http://www.w3.org/Graphics/SVG/1.1/DTD/svg11.dtd"><svg width="100%" height="100%" viewBox="0 0 72 98" version="1.1" xmlns="http://www.w3.org/2000/svg" xmlns:xlink="http://www.w3.org/1999/xlink" xml:space="preserve" xmlns:serif="http://www.serif.com/" style="fill-rule:evenodd;clip-rule:evenodd;stroke-linejoin:round;stroke-miterlimit:1.41421;"><g id="X_Runestone_runes_1"><g><g><g><path d="M51.33,0.871l20.434,10.217l-20.434,10.217l-20.434,-10.217l20.434,-10.217Z" style="fill:#9da8c9;"/><clipPath id="_clip1"><path d="M51.33,0.871l20.434,10.217l-20.434,10.217l-20.434,-10.217l20.434,-10.217Z"/></clipPath><g clip-path="url(#_clip1)"><path d="M74.395,69.74l-10.719,-7.911l-2.055,-16.353l-2.977,16.814l10.72,12.6l-15.707,10.328l-3.668,-13.492l1.415,-10.924l-5.109,4.654l0,13.226l-13.317,3.558l10.938,2.74l-11.142,12.484l-6.913,-10.65l-5.108,-3.656l-18.08,9.472l15.264,0.231l12.412,0.867l-4.488,7.71l-30.651,0.962l-2.387,-27.633l7.496,6.469l6.792,1.712l3.425,-1.712l-7.429,-3.714l-4.456,-12.445l-0.848,-23.451l12.733,8.959l1.982,4.117l1.421,-5.819l-3.403,-3.407l-11.817,-14.525l4.26,-17.456l17.774,16.656l-5.109,-17.88l11.545,-5.772l8.889,-4.445l7.848,9.032l4.367,5.295l3.111,-1.556l5.108,-4.977l-5.108,-3.079l0,2.948l-5.109,-2.555l2.564,-3.826l12.762,4.01l7.677,1.101l7.648,10.829l-1.66,12.599l1.66,31.481l7.734,-67.652l-72.438,-2.166l-40.256,53.098l18.115,65.251l76.628,-0.636l7.666,-41.511" style="fill:#8d323a;fill-opacity:0.7;"/><path d="M71.764,11.088l-20.434,7.207l-20.434,-7.207l16.528,11.038l-2.016,4.233l-4.295,0.055l-20.434,-10.217l15.325,9.86l-14.487,7.762l-21.272,-7.405l18.954,12.849l-0.446,18.765l-18.508,-6.072l5.108,2.555l15.326,10.054l2.854,-2.621l-2.854,7.762l-20.434,-7.533l18.752,12.069l1.682,23.691l1.935,-24.575l4.714,-14.509l-4.299,0.676l0.403,-5.142l-1.31,-16.128l18.225,-7.116l8.696,-0.76l5.176,-7.629l17.545,-11.662Z" style="fill:#f6d7d0;fill-opacity:0.9;"/></g><path d="M20.679,16.197l-20.434,10.217l20.434,10.217l20.434,-10.217l-20.434,-10.217" style="fill:#9da8c9;"/><clipPath id="_clip2"><path d="M20.679,16.197l-20.434,10.217l20.434,10.217l20.434,-10.217l-20.434,-10.217"/></clipPath><g clip-path="url(#_clip2)"><path d="M74.395,69.74l-10.719,-7.911l-2.055,-16.353l-2.977,16.814l10.72,12.6l-15.707,10.328l-3.668,-13.492l1.415,-10.924l-5.109,4.654l0,13.226l-13.317,3.558l10.938,2.74l-11.142,12.484l-6.913,-10.65l-5.108,-3.656l-18.08,9.472l15.264,0.231l12.412,0.867l-4.488,7.71l-30.651,0.962l-2.387,-27.633l7.496,6.469l6.792,1.712l3.425,-1.712l-7.429,-3.714l-4.456,-12.445l-0.848,-23.451l12.733,8.959l1.982,4.117l1.421,-5.819l-3.403,-3.407l-11.817,-14.525l4.26,-17.456l17.774,16.656l-5.109,-17.88l11.545,-5.772l8.889,-4.445l7.848,9.032l4.367,5.295l3.111,-1.556l5.108,-4.977l-5.108,-3.079l0,2.948l-5.109,-2.555l2.564,-3.826l12.762,4.01l7.677,1.101l7.648,10.829l-1.66,12.599l1.66,31.481l7.734,-67.652l-72.438,-2.166l-40.256,53.098l18.115,65.251l76.628,-0.636l7.666,-41.511" style="fill:#8d323a;fill-opacity:0.7;"/><path d="M71.764,11.088l-20.434,7.207l-20.434,-7.207l16.528,11.038l-2.016,4.233l-4.295,0.055l-20.434,-10.217l15.325,9.86l-14.487,7.762l-21.272,-7.405l18.954,12.849l-0.446,18.765l-18.508,-6.072l5.108,2.555l15.326,10.054l2.854,-2.621l-2.854,7.762l-20.434,-7.533l18.752,12.069l1.682,23.691l1.935,-24.575l4.714,-14.509l-4.299,0.676l0.403,-5.142l-1.31,-16.128l18.225,-7.116l8.696,-0.76l5.176,-7.629l17.545,-11.662Z" style="fill:#f6d7d0;fill-opacity:0.9;"/></g><path d="M30.896,11.088l-5.109,7.663l20.434,10.217l5.109,-7.663l-20.434,-10.217Z" style="fill:#6c7157;"/><clipPath id="_clip3"><path d="M30.896,11.088l-5.109,7.663l20.434,10.217l5.109,-7.663l-20.434,-10.217Z"/></clipPath><g clip-path="url(#_clip3)"><path d="M74.395,69.74l-10.719,-7.911l-2.055,-16.353l-2.977,16.814l10.72,12.6l-15.707,10.328l-3.668,-13.492l1.415,-10.924l-5.109,4.654l0,13.226l-13.317,3.558l10.938,2.74l-11.142,12.484l-6.913,-10.65l-5.108,-3.656l-18.08,9.472l15.264,0.231l12.412,0.867l-4.488,7.71l-30.651,0.962l-2.387,-27.633l7.496,6.469l6.792,1.712l3.425,-1.712l-7.429,-3.714l-4.456,-12.445l-0.848,-23.451l12.733,8.959l1.982,4.117l1.421,-5.819l-3.403,-3.407l-11.817,-14.525l4.26,-17.456l17.774,16.656l-5.109,-17.88l11.545,-5.772l8.889,-4.445l7.848,9.032l4.367,5.295l3.111,-1.556l5.108,-4.977l-5.108,-3.079l0,2.948l-5.109,-2.555l2.564,-3.826l12.762,4.01l7.677,1.101l7.648,10.829l-1.66,12.599l1.66,31.481l7.734,-67.652l-72.438,-2.166l-40.256,53.098l18.115,65.251l76.628,-0.636l7.666,-41.511" style="fill:#8d323a;fill-opacity:0.7;"/><path d="M71.764,11.088l-20.434,7.207l-20.434,-7.207l16.528,11.038l-2.016,4.233l-4.295,0.055l-20.434,-10.217l15.325,9.86l-14.487,7.762l-21.272,-7.405l18.954,12.849l-0.446,18.765l-18.508,-6.072l5.108,2.555l15.326,10.054l2.854,-2.621l-2.854,7.762l-20.434,-7.533l18.752,12.069l1.682,23.691l1.935,-24.575l4.714,-14.509l-4.299,0.676l0.403,-5.142l-1.31,-16.128l18.225,-7.116l8.696,-0.76l5.176,-7.629l17.545,-11.662Z" style="fill:#f6d7d0;fill-opacity:0.9;"/></g><path d="M71.764,11.088l-20.434,10.217l-5.109,7.663l-5.108,-2.554l-20.434,10.217l0,25.542l5.108,-2.554l-5.108,12.771l0,25.543l20.434,-10.217l0,-5.109l5.108,-2.554l5.109,2.554l20.434,-10.217l0,-30.651l-5.108,2.554l5.108,-12.771l0,-20.434" style="fill:#bac1d8;"/><clipPath id="_clip4"><path d="M71.764,11.088l-20.434,10.217l-5.109,7.663l-5.108,-2.554l-20.434,10.217l0,25.542l5.108,-2.554l-5.108,12.771l0,25.543l20.434,-10.217l0,-5.109l5.108,-2.554l5.109,2.554l20.434,-10.217l0,-30.651l-5.108,2.554l5.108,-12.771l0,-20.434"/></clipPath><g clip-path="url(#_clip4)"><path d="M74.395,69.74l-10.719,-7.911l-2.055,-16.353l-2.977,16.814l10.72,12.6l-15.707,10.328l-3.668,-13.492l1.415,-10.924l-5.109,4.654l0,13.226l-13.317,3.558l10.938,2.74l-11.142,12.484l-6.913,-10.65l-5.108,-3.656l-18.08,9.472l15.264,0.231l12.412,0.867l-4.488,7.71l-30.651,0.962l-2.387,-27.633l7.496,6.469l6.792,1.712l3.425,-1.712l-7.429,-3.714l-4.456,-12.445l-0.848,-23.451l12.733,8.959l1.982,4.117l1.421,-5.819l-3.403,-3.407l-11.817,-14.525l4.26,-17.456l17.774,16.656l-5.109,-17.88l11.545,-5.772l8.889,-4.445l7.848,9.032l4.367,5.295l3.111,-1.556l5.108,-4.977l-5.108,-3.079l0,2.948l-5.109,-2.555l2.564,-3.826l12.762,4.01l7.677,1.101l7.648,10.829l-1.66,12.599l1.66,31.481l7.734,-67.652l-72.438,-2.166l-40.256,53.098l18.115,65.251l76.628,-0.636l7.666,-41.511" style="fill:#8d323a;fill-opacity:0.7;"/><path d="M71.764,11.088l-20.434,7.207l-20.434,-7.207l16.528,11.038l-2.016,4.233l-4.295,0.055l-20.434,-10.217l15.325,9.86l-14.487,7.762l-21.272,-7.405l18.954,12.849l-0.446,18.765l-18.508,-6.072l5.108,2.555l15.326,10.054l2.854,-2.621l-2.854,7.762l-20.434,-7.533l18.752,12.069l1.682,23.691l1.935,-24.575l4.714,-14.509l-4.299,0.676l0.403,-5.142l-1.31,-16.128l18.225,-7.116l8.696,-0.76l5.176,-7.629l17.545,-11.662Z" style="fill:#f6d7d0;fill-opacity:0.9;"/></g><path d="M0.245,26.414l20.434,10.217l0,25.542l-20.434,-10.217l0,-25.542Z" style="fill:#6c7157;"/><clipPath id="_clip5"><path d="M0.245,26.414l20.434,10.217l0,25.542l-20.434,-10.217l0,-25.542Z"/></clipPath><g clip-path="url(#_clip5)"><path d="M74.395,69.74l-10.719,-7.911l-2.055,-16.353l-2.977,16.814l10.72,12.6l-15.707,10.328l-3.668,-13.492l1.415,-10.924l-5.109,4.654l0,13.226l-13.317,3.558l10.938,2.74l-11.142,12.484l-6.913,-10.65l-5.108,-3.656l-18.08,9.472l15.264,0.231l12.412,0.867l-4.488,7.71l-30.651,0.962l-2.387,-27.633l7.496,6.469l6.792,1.712l3.425,-1.712l-7.429,-3.714l-4.456,-12.445l-0.848,-23.451l12.733,8.959l1.982,4.117l1.421,-5.819l-3.403,-3.407l-11.817,-14.525l4.26,-17.456l17.774,16.656l-5.109,-17.88l11.545,-5.772l8.889,-4.445l7.848,9.032l4.367,5.295l3.111,-1.556l5.108,-4.977l-5.108,-3.079l0,2.948l-5.109,-2.555l2.564,-3.826l12.762,4.01l7.677,1.101l7.648,10.829l-1.66,12.599l1.66,31.481l7.734,-67.652l-72.438,-2.166l-40.256,53.098l18.115,65.251l76.628,-0.636l7.666,-41.511" style="fill:#8d323a;fill-opacity:0.7;"/><path d="M71.764,11.088l-20.434,7.207l-20.434,-7.207l16.528,11.038l-2.016,4.233l-4.295,0.055l-20.434,-10.217l15.325,9.86l-14.487,7.762l-21.272,-7.405l18.954,12.849l-0.446,18.765l-18.508,-6.072l5.108,2.555l15.326,10.054l2.854,-2.621l-2.854,7.762l-20.434,-7.533l18.752,12.069l1.682,23.691l1.935,-24.575l4.714,-14.509l-4.299,0.676l0.403,-5.142l-1.31,-16.128l18.225,-7.116l8.696,-0.76l5.176,-7.629l17.545,-11.662Z" style="fill:#f6d7d0;fill-opacity:0.4;"/></g><path d="M20.679,97.933l-20.434,-10.217l0,-25.543l20.434,10.217l0,25.543" style="fill:#6c7157;"/><clipPath id="_clip6"><path d="M20.679,97.933l-20.434,-10.217l0,-25.543l20.434,10.217l0,25.543"/></clipPath><g clip-path="url(#_clip6)"><path d="M74.395,69.74l-10.719,-7.911l-2.055,-16.353l-2.977,16.814l10.72,12.6l-15.707,10.328l-3.668,-13.492l1.415,-10.924l-5.109,4.654l0,13.226l-13.317,3.558l10.938,2.74l-11.142,12.484l-6.913,-10.65l-5.108,-3.656l-18.08,9.472l15.264,0.231l12.412,0.867l-4.488,7.71l-30.651,0.962l-2.387,-27.633l7.496,6.469l6.792,1.712l3.425,-1.712l-7.429,-3.714l-4.456,-12.445l-0.848,-23.451l12.733,8.959l1.982,4.117l1.421,-5.819l-3.403,-3.407l-11.817,-14.525l4.26,-17.456l17.774,16.656l-5.109,-17.88l11.545,-5.772l8.889,-4.445l7.848,9.032l4.367,5.295l3.111,-1.556l5.108,-4.977l-5.108,-3.079l0,2.948l-5.109,-2.555l2.564,-3.826l12.762,4.01l7.677,1.101l7.648,10.829l-1.66,12.599l1.66,31.481l7.734,-67.652l-72.438,-2.166l-40.256,53.098l18.115,65.251l76.628,-0.636l7.666,-41.511" style="fill:#8d323a;fill-opacity:0.7;"/><path d="M71.764,11.088l-20.434,7.207l-20.434,-7.207l16.528,11.038l-2.016,4.233l-4.295,0.055l-20.434,-10.217l15.325,9.86l-14.487,7.762l-21.272,-7.405l18.954,12.849l-0.446,18.765l-18.508,-6.072l5.108,2.555l15.326,10.054l2.854,-2.621l-2.854,7.762l-20.434,-7.533l18.752,12.069l1.682,23.691l1.935,-24.575l4.714,-14.509l-4.299,0.676l0.403,-5.142l-1.31,-16.128l18.225,-7.116l8.696,-0.76l5.176,-7.629l17.545,-11.662Z" style="fill:#f6d7d0;fill-opacity:0.4;"/></g><path d="M0.245,51.956l5.108,2.555l-5.108,7.662l20.434,10.217l5.108,-12.771l-5.108,2.554l-20.434,-10.217Z" style="fill:#574052;"/><clipPath id="_clip7"><path d="M0.245,51.956l5.108,2.555l-5.108,7.662l20.434,10.217l5.108,-12.771l-5.108,2.554l-20.434,-10.217Z"/></clipPath><g clip-path="url(#_clip7)"><path d="M71.764,11.088l-20.434,7.207l-20.434,-7.207l16.528,11.038l-2.016,4.233l-4.295,0.055l-20.434,-10.217l15.325,9.86l-14.487,7.762l-21.272,-7.405l18.954,12.849l-0.446,18.765l-18.508,-6.072l5.108,2.555l15.326,10.054l2.854,-2.621l-2.854,7.762l-20.434,-7.533l18.752,12.069l1.682,23.691l1.935,-24.575l4.714,-14.509l-4.299,0.676l0.403,-5.142l-1.31,-16.128l18.225,-7.116l8.696,-0.76l5.176,-7.629l17.545,-11.662Z" style="fill:#f6d7d0;fill-opacity:0.4;"/></g></g></g></g><g><path d="M50.471,57.093l9.947,12.458l-4.347,-1.274l-12.119,-9.902l6.519,-1.282Z" style="fill:#574052;"/><path d="M42.383,58.734l13.868,-15.941l6.083,-0.138l-10.989,15.699l-8.962,0.38Z" style="fill:#574052;"/><path d="M42.418,36.686l1.65,-1.732l18.273,7.657l-7.559,0.788l-12.364,-6.713Z" style="fill:#574052;"/><path d="M45.611,64.748l-3.645,-2.965l-8.162,10.911l5.19,3.011l6.617,-10.957Z" style="fill:#574052;"/><path d="M29.366,76.613l6.159,-2.81l3.312,1.937l-4.812,2.65l-4.659,-1.777Z" style="fill:none;"/><path d="M51.908,70.291l4.002,1.649l4.535,-2.321l-4.159,-1.166l-4.378,1.838Z" style="fill:none;"/><path d="M42.386,62.215l9.524,8.067l4.57,-1.934l-9.696,-9.81l10.371,-15.391l-14.789,-6.375l-12.277,15.811l7.562,6.49l-8.294,17.514l6.297,-2.837l6.732,-11.535Z" style="fill:#c3454a;"/><g><path d="M44.27,43.205l6.423,3.896l-4.689,7.106l-6.669,-4.761l4.935,-6.241Z" style="fill:#f6d7d0;"/><path d="M44.288,43.195l-3.553,0.146l-5.289,6.24l4.006,-0.218l4.836,-6.168Z" style="fill:#6c7157;"/><path d="M35.469,49.592l3.881,-0.156l6.576,4.768l-4.524,-0.078l-5.933,-4.534Z" style="fill:#574052;"/></g></g></g></svg>