<?xml version="1.0" encoding="UTF-8" standalone="no"?><!DOCTYPE svg PUBLIC "-//W3C//DTD SVG 1.1//EN" "http://www.w3.org/Graphics/SVG/1.1/DTD/svg11.dtd"><svg width="100%" height="100%" viewBox="0 0 92 89" version="1.1" xmlns="http://www.w3.org/2000/svg" xmlns:xlink="http://www.w3.org/1999/xlink" xml:space="preserve" xmlns:serif="http://www.serif.com/" style="fill-rule:evenodd;clip-rule:evenodd;stroke-linejoin:round;stroke-miterlimit:1.41421;"><g id="X_Runestone_mossy_runes_4"><g id="F_Runestone_grass_runes_4"><g id="F_Runestone_runes_4"><g><g><path d="M70.576,5.12l19.823,0.306l-20.434,5.109l-23.436,-6.61l24.047,1.195Z" style="fill:#9da8c9;"/><clipPath id="_clip1"><path d="M70.576,5.12l19.823,0.306l-20.434,5.109l-23.436,-6.61l24.047,1.195Z"/></clipPath><g clip-path="url(#_clip1)"><path d="M46.603,3.963l23.362,4.146l20.434,-2.683l-18.32,6.166l-2.114,2.452l2.952,2.237l-5.594,0.683l-2.467,2.242l-5.108,-3.563l-0.889,5.553l-17.598,-3.367l5.248,17.549l-3.954,9.296l0.943,6.876l6.033,20.287l-2.082,4.068l0.641,5.429l-24.102,-6.943l20.434,3.567l-1.612,-1.806l-23.931,-19.641l24.705,14.651l1.548,-0.258l-26.253,-19.501l25.543,15.028l-5.108,-7.14l-1.408,-6.279l-13.918,-9.272l12.442,3.996l-1.19,-2.552l-13.152,-7.502l1.9,-0.498l13.918,6.968l0.345,-1.119l-13.932,-5.683l14.502,3.589l3.57,-6.401l-33.729,-8.678l32.76,4.055l-2.108,-2.33l-5.109,-1.239l0,-5.23l5.109,-1.514l1.698,1.999l-0.177,1.402l-3.876,-0.071l4.299,3.277l0.669,0.493l-1.11,-3.583l0.151,-1.17l-0.431,-0.907l-1.725,-2.127l-0.595,-2.724l-4.012,-3.102l7.516,1.812l12.133,1.516l0.088,-1.718l-9.52,-6.719l17.295,6.679l0.505,-1.105l3.947,1.145l0.78,-2.657l-20.346,-8.079Z" style="fill:#f6d7d0;fill-opacity:0.9;"/></g><path d="M69.965,71.837l-5.109,-2.554l10.217,-15.326l5.871,4.8l-3.316,6.695l-7.663,6.385Z" style="fill:#6c7157;"/><clipPath id="_clip2"><path d="M69.965,71.837l-5.109,-2.554l10.217,-15.326l5.871,4.8l-3.316,6.695l-7.663,6.385Z"/></clipPath><g clip-path="url(#_clip2)"><path d="M46.603,3.963l23.362,4.146l20.434,-2.683l-18.32,6.166l-2.114,2.452l2.952,2.237l-5.594,0.683l-2.467,2.242l-5.108,-3.563l-0.889,5.553l-17.598,-3.367l5.248,17.549l-3.954,9.296l0.943,6.876l6.033,20.287l-2.082,4.068l0.641,5.429l-24.102,-6.943l20.434,3.567l-1.612,-1.806l-23.931,-19.641l24.705,14.651l1.548,-0.258l-26.253,-19.501l25.543,15.028l-5.108,-7.14l-1.408,-6.279l-13.918,-9.272l12.442,3.996l-1.19,-2.552l-13.152,-7.502l1.9,-0.498l13.918,6.968l0.345,-1.119l-13.932,-5.683l14.502,3.589l3.57,-6.401l-33.729,-8.678l32.76,4.055l-2.108,-2.33l-5.109,-1.239l0,-5.23l5.109,-1.514l1.698,1.999l-0.177,1.402l-3.876,-0.071l4.299,3.277l0.669,0.493l-1.11,-3.583l0.151,-1.17l-0.431,-0.907l-1.725,-2.127l-0.595,-2.724l-4.012,-3.102l7.516,1.812l12.133,1.516l0.088,-1.718l-9.52,-6.719l17.295,6.679l0.505,-1.105l3.947,1.145l0.78,-2.657l-20.346,-8.079Z" style="fill:#f6d7d0;fill-opacity:0.9;"/></g><path d="M85.29,41.8l-7.795,-4.379l-8.181,4.09l10.868,8.418l5.108,-8.129Z" style="fill:#9da8c9;"/><clipPath id="_clip3"><path d="M85.29,41.8l-7.795,-4.379l-8.181,4.09l10.868,8.418l5.108,-8.129Z"/></clipPath><g clip-path="url(#_clip3)"><path d="M46.603,3.963l23.362,4.146l20.434,-2.683l-18.32,6.166l-2.114,2.452l2.952,2.237l-5.594,0.683l-2.467,2.242l-5.108,-3.563l-0.889,5.553l-17.598,-3.367l5.248,17.549l-3.954,9.296l0.943,6.876l6.033,20.287l-2.082,4.068l0.641,5.429l-24.102,-6.943l20.434,3.567l-1.612,-1.806l-23.931,-19.641l24.705,14.651l1.548,-0.258l-26.253,-19.501l25.543,15.028l-5.108,-7.14l-1.408,-6.279l-13.918,-9.272l12.442,3.996l-1.19,-2.552l-13.152,-7.502l1.9,-0.498l13.918,6.968l0.345,-1.119l-13.932,-5.683l14.502,3.589l3.57,-6.401l-33.729,-8.678l32.76,4.055l-2.108,-2.33l-5.109,-1.239l0,-5.23l5.109,-1.514l1.698,1.999l-0.177,1.402l-3.876,-0.071l4.299,3.277l0.669,0.493l-1.11,-3.583l0.151,-1.17l-0.431,-0.907l-1.725,-2.127l-0.595,-2.724l-4.012,-3.102l7.516,1.812l12.133,1.516l0.088,-1.718l-9.52,-6.719l17.295,6.679l0.505,-1.105l3.947,1.145l0.78,-2.657l-20.346,-8.079Z" style="fill:#f6d7d0;fill-opacity:0.9;"/></g><path d="M44.422,7.98l-10.217,5.109l-25.543,12.771l28.07,3.818l6.39,1.254l11.517,-12.734l5.109,-2.555l-15.326,-7.663Z" style="fill:#9da8c9;"/><clipPath id="_clip4"><path d="M44.422,7.98l-10.217,5.109l-25.543,12.771l28.07,3.818l6.39,1.254l11.517,-12.734l5.109,-2.555l-15.326,-7.663Z"/></clipPath><g clip-path="url(#_clip4)"><path d="M68.659,79.993l-1.96,-9.996l5.98,-11.068l7.577,-3.789l-6.123,-2.047l-2.104,3.042l-0.404,-14.338l13.739,-12.438l-5.108,2.956l-5.109,2.339l-13.167,16.457l2.95,6.583l1.444,4.387l-1.444,7.793l-11.562,8.927l-13.981,3.141l-20.434,-3.324l20.434,-3.044l-10.217,-1.636l0,-6.157l-2.863,2.709l-7.354,-9.236l-3.729,-15.763l17.402,11.377l4.121,4.701l-0.319,-4.949l-2.149,-4.034l-13.599,-6.8l-4.272,-4.699l5.058,-5.125l11.418,1.995l-2.774,-2.781l-6.048,-1.384l-5.109,-3.078l0,1.847l-6.385,0.229l-7.387,-6.523l12.022,-7.762l10.29,6.823l0.046,-3.481l4.17,-1.197l-6.633,-7.177l14.311,-0.985l10.217,3.448l0,2.094l-2.754,7.836l-2.354,22.704l1.723,4.877l1.082,-9.676l2.303,-14.174l13.722,-6.86l-8.613,-4.461l-13.524,-10.013l8.415,-9.317l19.412,4.598l29.873,-0.39l-25.294,11.674l-1.724,6.773l3.276,0.334l0,-5.109l15.326,-5.2l19.255,-12.09l-80.558,-4.781l-32.158,44.306l19.562,50.649l52.085,-9.717" style="fill:#8d323a;fill-opacity:0.7;"/><path d="M46.603,3.963l23.362,4.146l20.434,-2.683l-18.32,6.166l-2.114,2.452l2.952,2.237l-5.594,0.683l-2.467,2.242l-5.108,-3.563l-0.889,5.553l-17.598,-3.367l5.248,17.549l-3.954,9.296l0.943,6.876l6.033,20.287l-2.082,4.068l0.641,5.429l-24.102,-6.943l20.434,3.567l-1.612,-1.806l-23.931,-19.641l24.705,14.651l1.548,-0.258l-26.253,-19.501l25.543,15.028l-5.108,-7.14l-1.408,-6.279l-13.918,-9.272l12.442,3.996l-1.19,-2.552l-13.152,-7.502l1.9,-0.498l13.918,6.968l0.345,-1.119l-13.932,-5.683l14.502,3.589l3.57,-6.401l-33.729,-8.678l32.76,4.055l-2.108,-2.33l-5.109,-1.239l0,-5.23l5.109,-1.514l1.698,1.999l-0.177,1.402l-3.876,-0.071l4.299,3.277l0.669,0.493l-1.11,-3.583l0.151,-1.17l-0.431,-0.907l-1.725,-2.127l-0.595,-2.724l-4.012,-3.102l7.516,1.812l12.133,1.516l0.088,-1.718l-9.52,-6.719l17.295,6.679l0.505,-1.105l3.947,1.145l0.78,-2.657l-20.346,-8.079Z" style="fill:#f6d7d0;fill-opacity:0.9;"/></g><path d="M90.399,5.426l-20.434,5.109l-10.217,5.108l-5.109,2.555l-15.325,-2.555l-8.822,6.915l6.238,7.119l-14.466,7.033l17.05,14.693l5.108,12.771l-5.108,-2.554l5.108,12.771l3.753,6.985l2.172,-2.84l9.401,-1.59l7.325,-3.663l5.18,-7.698l7.929,-6.635l-5.109,7.346l-5.108,5.541l13.112,-6.556l3.926,-10.468l-3.918,-3.41l2.205,-2.554l2.021,-4.099l-2.021,-3.012l-3.514,3.76l-3.025,1.512l-0.412,-3.678l3.174,-4.803l5.941,-2.04l2.945,-5.52l0,-10.217l-4.124,-9.84l4.124,-5.486Z" style="fill:#bac1d8;"/><clipPath id="_clip5"><path d="M90.399,5.426l-20.434,5.109l-10.217,5.108l-5.109,2.555l-15.325,-2.555l-8.822,6.915l6.238,7.119l-14.466,7.033l17.05,14.693l5.108,12.771l-5.108,-2.554l5.108,12.771l3.753,6.985l2.172,-2.84l9.401,-1.59l7.325,-3.663l5.18,-7.698l7.929,-6.635l-5.109,7.346l-5.108,5.541l13.112,-6.556l3.926,-10.468l-3.918,-3.41l2.205,-2.554l2.021,-4.099l-2.021,-3.012l-3.514,3.76l-3.025,1.512l-0.412,-3.678l3.174,-4.803l5.941,-2.04l2.945,-5.52l0,-10.217l-4.124,-9.84l4.124,-5.486Z"/></clipPath><g clip-path="url(#_clip5)"><path d="M68.659,79.993l-1.96,-9.996l5.98,-11.068l7.577,-3.789l-6.123,-2.047l-2.104,3.042l-0.404,-14.338l13.739,-12.438l-5.108,2.956l-5.109,2.339l-13.167,16.457l2.95,6.583l1.444,4.387l-1.444,7.793l-11.562,8.927l-13.981,3.141l-20.434,-3.324l20.434,-3.044l-10.217,-1.636l0,-6.157l-2.863,2.709l-7.354,-9.236l-3.729,-15.763l17.402,11.377l4.121,4.701l-0.319,-4.949l-2.149,-4.034l-13.599,-6.8l-4.272,-4.699l5.058,-5.125l11.418,1.995l-2.774,-2.781l-6.048,-1.384l-5.109,-3.078l0,1.847l-6.385,0.229l-7.387,-6.523l12.022,-7.762l10.29,6.823l0.046,-3.481l4.17,-1.197l-6.633,-7.177l14.311,-0.985l10.217,3.448l0,2.094l-2.754,7.836l-2.354,22.704l1.723,4.877l1.082,-9.676l2.303,-14.174l13.722,-6.86l-8.613,-4.461l-13.524,-10.013l8.415,-9.317l19.412,4.598l29.873,-0.39l-25.294,11.674l-1.724,6.773l3.276,0.334l0,-5.109l15.326,-5.2l19.255,-12.09l-80.558,-4.781l-32.158,44.306l19.562,50.649l52.085,-9.717" style="fill:#8d323a;fill-opacity:0.7;"/><path d="M46.603,3.963l23.362,4.146l20.434,-2.683l-18.32,6.166l-2.114,2.452l2.952,2.237l-5.594,0.683l-2.467,2.242l-5.108,-3.563l-0.889,5.553l-17.598,-3.367l5.248,17.549l-3.954,9.296l0.943,6.876l6.033,20.287l-2.082,4.068l0.641,5.429l-24.102,-6.943l20.434,3.567l-1.612,-1.806l-23.931,-19.641l24.705,14.651l1.548,-0.258l-26.253,-19.501l25.543,15.028l-5.108,-7.14l-1.408,-6.279l-13.918,-9.272l12.442,3.996l-1.19,-2.552l-13.152,-7.502l1.9,-0.498l13.918,6.968l0.345,-1.119l-13.932,-5.683l14.502,3.589l3.57,-6.401l-33.729,-8.678l32.76,4.055l-2.108,-2.33l-5.109,-1.239l0,-5.23l5.109,-1.514l1.698,1.999l-0.177,1.402l-3.876,-0.071l4.299,3.277l0.669,0.493l-1.11,-3.583l0.151,-1.17l-0.431,-0.907l-1.725,-2.127l-0.595,-2.724l-4.012,-3.102l7.516,1.812l12.133,1.516l0.088,-1.718l-9.52,-6.719l17.295,6.679l0.505,-1.105l3.947,1.145l0.78,-2.657l-20.346,-8.079Z" style="fill:#f6d7d0;fill-opacity:0.9;"/></g><path d="M40.915,21.552l1.208,5.713l-13.027,0.651l1.895,-9.161l6.492,1.081l3.432,1.716Z" style="fill:#9da8c9;"/><clipPath id="_clip6"><path d="M40.915,21.552l1.208,5.713l-13.027,0.651l1.895,-9.161l6.492,1.081l3.432,1.716Z"/></clipPath><g clip-path="url(#_clip6)"><path d="M46.603,3.963l23.362,4.146l20.434,-2.683l-18.32,6.166l-2.114,2.452l2.952,2.237l-5.594,0.683l-2.467,2.242l-5.108,-3.563l-0.889,5.553l-17.598,-3.367l5.248,17.549l-3.954,9.296l0.943,6.876l6.033,20.287l-2.082,4.068l0.641,5.429l-24.102,-6.943l20.434,3.567l-1.612,-1.806l-23.931,-19.641l24.705,14.651l1.548,-0.258l-26.253,-19.501l25.543,15.028l-5.108,-7.14l-1.408,-6.279l-13.918,-9.272l12.442,3.996l-1.19,-2.552l-13.152,-7.502l1.9,-0.498l13.918,6.968l0.345,-1.119l-13.932,-5.683l14.502,3.589l3.57,-6.401l-33.729,-8.678l32.76,4.055l-2.108,-2.33l-5.109,-1.239l0,-5.23l5.109,-1.514l1.698,1.999l-0.177,1.402l-3.876,-0.071l4.299,3.277l0.669,0.493l-1.11,-3.583l0.151,-1.17l-0.431,-0.907l-1.725,-2.127l-0.595,-2.724l-4.012,-3.102l7.516,1.812l12.133,1.516l0.088,-1.718l-9.52,-6.719l17.295,6.679l0.505,-1.105l3.947,1.145l0.78,-2.657l-20.346,-8.079Z" style="fill:#f6d7d0;fill-opacity:0.9;"/></g><path d="M39.314,42.21l0,4.084l-18.262,-6.194l-0.81,-9.813l19.072,11.923Z" style="fill:#6c7157;"/><clipPath id="_clip7"><path d="M39.314,42.21l0,4.084l-18.262,-6.194l-0.81,-9.813l19.072,11.923Z"/></clipPath><g clip-path="url(#_clip7)"><path d="M46.603,3.963l23.362,4.146l20.434,-2.683l-18.32,6.166l-2.114,2.452l2.952,2.237l-5.594,0.683l-2.467,2.242l-5.108,-3.563l-0.889,5.553l-17.598,-3.367l5.248,17.549l-3.954,9.296l0.943,6.876l6.033,20.287l-2.082,4.068l0.641,5.429l-24.102,-6.943l20.434,3.567l-1.612,-1.806l-23.931,-19.641l24.705,14.651l1.548,-0.258l-26.253,-19.501l25.543,15.028l-5.108,-7.14l-1.408,-6.279l-13.918,-9.272l12.442,3.996l-1.19,-2.552l-13.152,-7.502l1.9,-0.498l13.918,6.968l0.345,-1.119l-13.932,-5.683l14.502,3.589l3.57,-6.401l-33.729,-8.678l32.76,4.055l-2.108,-2.33l-5.109,-1.239l0,-5.23l5.109,-1.514l1.698,1.999l-0.177,1.402l-3.876,-0.071l4.299,3.277l0.669,0.493l-1.11,-3.583l0.151,-1.17l-0.431,-0.907l-1.725,-2.127l-0.595,-2.724l-4.012,-3.102l7.516,1.812l12.133,1.516l0.088,-1.718l-9.52,-6.719l17.295,6.679l0.505,-1.105l3.947,1.145l0.78,-2.657l-20.346,-8.079Z" style="fill:#f6d7d0;fill-opacity:0.4;"/></g><path d="M34.205,13.089l5.109,2.554l1.643,5.93l-5.669,0.257l0.752,3.207l6.135,2.254l2.247,6.232l-35.76,-7.663l25.543,-12.771Z" style="fill:#6c7157;"/><clipPath id="_clip8"><path d="M34.205,13.089l5.109,2.554l1.643,5.93l-5.669,0.257l0.752,3.207l6.135,2.254l2.247,6.232l-35.76,-7.663l25.543,-12.771Z"/></clipPath><g clip-path="url(#_clip8)"><path d="M68.659,79.993l-1.96,-9.996l5.98,-11.068l7.577,-3.789l-6.123,-2.047l-2.104,3.042l-0.404,-14.338l13.739,-12.438l-5.108,2.956l-5.109,2.339l-13.167,16.457l2.95,6.583l1.444,4.387l-1.444,7.793l-11.562,8.927l-13.981,3.141l-20.434,-3.324l20.434,-3.044l-10.217,-1.636l0,-6.157l-2.863,2.709l-7.354,-9.236l-3.729,-15.763l17.402,11.377l4.121,4.701l-0.319,-4.949l-2.149,-4.034l-13.599,-6.8l-4.272,-4.699l5.058,-5.125l11.418,1.995l-2.774,-2.781l-6.048,-1.384l-5.109,-3.078l0,1.847l-6.385,0.229l-7.387,-6.523l12.022,-7.762l10.29,6.823l0.046,-3.481l4.17,-1.197l-6.633,-7.177l14.311,-0.985l10.217,3.448l0,2.094l-2.754,7.836l-2.354,22.704l1.723,4.877l1.082,-9.676l2.303,-14.174l13.722,-6.86l-8.613,-4.461l-13.524,-10.013l8.415,-9.317l19.412,4.598l29.873,-0.39l-25.294,11.674l-1.724,6.773l3.276,0.334l0,-5.109l15.326,-5.2l19.255,-12.09l-80.558,-4.781l-32.158,44.306l19.562,50.649l52.085,-9.717" style="fill:#8d323a;fill-opacity:0.7;"/><path d="M46.603,3.963l23.362,4.146l20.434,-2.683l-18.32,6.166l-2.114,2.452l2.952,2.237l-5.594,0.683l-2.467,2.242l-5.108,-3.563l-0.889,5.553l-17.598,-3.367l5.248,17.549l-3.954,9.296l0.943,6.876l6.033,20.287l-2.082,4.068l0.641,5.429l-24.102,-6.943l20.434,3.567l-1.612,-1.806l-23.931,-19.641l24.705,14.651l1.548,-0.258l-26.253,-19.501l25.543,15.028l-5.108,-7.14l-1.408,-6.279l-13.918,-9.272l12.442,3.996l-1.19,-2.552l-13.152,-7.502l1.9,-0.498l13.918,6.968l0.345,-1.119l-13.932,-5.683l14.502,3.589l3.57,-6.401l-33.729,-8.678l32.76,4.055l-2.108,-2.33l-5.109,-1.239l0,-5.23l5.109,-1.514l1.698,1.999l-0.177,1.402l-3.876,-0.071l4.299,3.277l0.669,0.493l-1.11,-3.583l0.151,-1.17l-0.431,-0.907l-1.725,-2.127l-0.595,-2.724l-4.012,-3.102l7.516,1.812l12.133,1.516l0.088,-1.718l-9.52,-6.719l17.295,6.679l0.505,-1.105l3.947,1.145l0.78,-2.657l-20.346,-8.079Z" style="fill:#f6d7d0;fill-opacity:0.4;"/></g><path d="M8.662,25.86l35.76,7.663l-5.108,8.758l-15.326,-4.866l15.326,8.879l0,5.109l-20.435,-10.217l-5.108,-7.663l-5.109,-7.663Z" style="fill:#574052;"/><clipPath id="_clip9"><path d="M8.662,25.86l35.76,7.663l-5.108,8.758l-15.326,-4.866l15.326,8.879l0,5.109l-20.435,-10.217l-5.108,-7.663l-5.109,-7.663Z"/></clipPath><g clip-path="url(#_clip9)"><path d="M68.659,79.993l-1.96,-9.996l5.98,-11.068l7.577,-3.789l-6.123,-2.047l-2.104,3.042l-0.404,-14.338l13.739,-12.438l-5.108,2.956l-5.109,2.339l-13.167,16.457l2.95,6.583l1.444,4.387l-1.444,7.793l-11.562,8.927l-13.981,3.141l-20.434,-3.324l20.434,-3.044l-10.217,-1.636l0,-6.157l-2.863,2.709l-7.354,-9.236l-3.729,-15.763l17.402,11.377l4.121,4.701l-0.319,-4.949l-2.149,-4.034l-13.599,-6.8l-4.272,-4.699l5.058,-5.125l11.418,1.995l-2.774,-2.781l-6.048,-1.384l-5.109,-3.078l0,1.847l-6.385,0.229l-7.387,-6.523l12.022,-7.762l10.29,6.823l0.046,-3.481l4.17,-1.197l-6.633,-7.177l14.311,-0.985l10.217,3.448l0,2.094l-2.754,7.836l-2.354,22.704l1.723,4.877l1.082,-9.676l2.303,-14.174l13.722,-6.86l-8.613,-4.461l-13.524,-10.013l8.415,-9.317l19.412,4.598l29.873,-0.39l-25.294,11.674l-1.724,6.773l3.276,0.334l0,-5.109l15.326,-5.2l19.255,-12.09l-80.558,-4.781l-32.158,44.306l19.562,50.649l52.085,-9.717" style="fill:#8d323a;fill-opacity:0.7;"/><path d="M46.603,3.963l23.362,4.146l20.434,-2.683l-18.32,6.166l-2.114,2.452l2.952,2.237l-5.594,0.683l-2.467,2.242l-5.108,-3.563l-0.889,5.553l-17.598,-3.367l5.248,17.549l-3.954,9.296l0.943,6.876l6.033,20.287l-2.082,4.068l0.641,5.429l-24.102,-6.943l20.434,3.567l-1.612,-1.806l-23.931,-19.641l24.705,14.651l1.548,-0.258l-26.253,-19.501l25.543,15.028l-5.108,-7.14l-1.408,-6.279l-13.918,-9.272l12.442,3.996l-1.19,-2.552l-13.152,-7.502l1.9,-0.498l13.918,6.968l0.345,-1.119l-13.932,-5.683l14.502,3.589l3.57,-6.401l-33.729,-8.678l32.76,4.055l-2.108,-2.33l-5.109,-1.239l0,-5.23l5.109,-1.514l1.698,1.999l-0.177,1.402l-3.876,-0.071l4.299,3.277l0.669,0.493l-1.11,-3.583l0.151,-1.17l-0.431,-0.907l-1.725,-2.127l-0.595,-2.724l-4.012,-3.102l7.516,1.812l12.133,1.516l0.088,-1.718l-9.52,-6.719l17.295,6.679l0.505,-1.105l3.947,1.145l0.78,-2.657l-20.346,-8.079Z" style="fill:#f6d7d0;fill-opacity:0.4;"/></g><path d="M48.046,81.312l-24.058,-6.921l-5.109,-17.88l0,-5.108l30.652,20.434l-5.109,2.554l3.624,6.921Z" style="fill:#6c7157;"/><clipPath id="_clip10"><path d="M48.046,81.312l-24.058,-6.921l-5.109,-17.88l0,-5.108l30.652,20.434l-5.109,2.554l3.624,6.921Z"/></clipPath><g clip-path="url(#_clip10)"><path d="M46.603,3.963l23.362,4.146l20.434,-2.683l-18.32,6.166l-2.114,2.452l2.952,2.237l-5.594,0.683l-2.467,2.242l-5.108,-3.563l-0.889,5.553l-17.598,-3.367l5.248,17.549l-3.954,9.296l0.943,6.876l6.033,20.287l-2.082,4.068l0.641,5.429l-24.102,-6.943l20.434,3.567l-1.612,-1.806l-23.931,-19.641l24.705,14.651l1.548,-0.258l-26.253,-19.501l25.543,15.028l-5.108,-7.14l-1.408,-6.279l-13.918,-9.272l12.442,3.996l-1.19,-2.552l-13.152,-7.502l1.9,-0.498l13.918,6.968l0.345,-1.119l-13.932,-5.683l14.502,3.589l3.57,-6.401l-33.729,-8.678l32.76,4.055l-2.108,-2.33l-5.109,-1.239l0,-5.23l5.109,-1.514l1.698,1.999l-0.177,1.402l-3.876,-0.071l4.299,3.277l0.669,0.493l-1.11,-3.583l0.151,-1.17l-0.431,-0.907l-1.725,-2.127l-0.595,-2.724l-4.012,-3.102l7.516,1.812l12.133,1.516l0.088,-1.718l-9.52,-6.719l17.295,6.679l0.505,-1.105l3.947,1.145l0.78,-2.657l-20.346,-8.079Z" style="fill:#f6d7d0;fill-opacity:0.4;"/></g><path d="M18.879,41.186l5.109,2.554l-5.109,7.663l30.652,20.434l-10.217,-20.434l-20.435,-10.217Z" style="fill:#574052;"/><clipPath id="_clip11"><path d="M18.879,41.186l5.109,2.554l-5.109,7.663l30.652,20.434l-10.217,-20.434l-20.435,-10.217Z"/></clipPath><g clip-path="url(#_clip11)"><path d="M68.659,79.993l-1.96,-9.996l5.98,-11.068l7.577,-3.789l-6.123,-2.047l-2.104,3.042l-0.404,-14.338l13.739,-12.438l-5.108,2.956l-5.109,2.339l-13.167,16.457l2.95,6.583l1.444,4.387l-1.444,7.793l-11.562,8.927l-13.981,3.141l-20.434,-3.324l20.434,-3.044l-10.217,-1.636l0,-6.157l-2.863,2.709l-7.354,-9.236l-3.729,-15.763l17.402,11.377l4.121,4.701l-0.319,-4.949l-2.149,-4.034l-13.599,-6.8l-4.272,-4.699l5.058,-5.125l11.418,1.995l-2.774,-2.781l-6.048,-1.384l-5.109,-3.078l0,1.847l-6.385,0.229l-7.387,-6.523l12.022,-7.762l10.29,6.823l0.046,-3.481l4.17,-1.197l-6.633,-7.177l14.311,-0.985l10.217,3.448l0,2.094l-2.754,7.836l-2.354,22.704l1.723,4.877l1.082,-9.676l2.303,-14.174l13.722,-6.86l-8.613,-4.461l-13.524,-10.013l8.415,-9.317l19.412,4.598l29.873,-0.39l-25.294,11.674l-1.724,6.773l3.276,0.334l0,-5.109l15.326,-5.2l19.255,-12.09l-80.558,-4.781l-32.158,44.306l19.562,50.649l52.085,-9.717" style="fill:#8d323a;fill-opacity:0.7;"/><path d="M46.603,3.963l23.362,4.146l20.434,-2.683l-18.32,6.166l-2.114,2.452l2.952,2.237l-5.594,0.683l-2.467,2.242l-5.108,-3.563l-0.889,5.553l-17.598,-3.367l5.248,17.549l-3.954,9.296l0.943,6.876l6.033,20.287l-2.082,4.068l0.641,5.429l-24.102,-6.943l20.434,3.567l-1.612,-1.806l-23.931,-19.641l24.705,14.651l1.548,-0.258l-26.253,-19.501l25.543,15.028l-5.108,-7.14l-1.408,-6.279l-13.918,-9.272l12.442,3.996l-1.19,-2.552l-13.152,-7.502l1.9,-0.498l13.918,6.968l0.345,-1.119l-13.932,-5.683l14.502,3.589l3.57,-6.401l-33.729,-8.678l32.76,4.055l-2.108,-2.33l-5.109,-1.239l0,-5.23l5.109,-1.514l1.698,1.999l-0.177,1.402l-3.876,-0.071l4.299,3.277l0.669,0.493l-1.11,-3.583l0.151,-1.17l-0.431,-0.907l-1.725,-2.127l-0.595,-2.724l-4.012,-3.102l7.516,1.812l12.133,1.516l0.088,-1.718l-9.52,-6.719l17.295,6.679l0.505,-1.105l3.947,1.145l0.78,-2.657l-20.346,-8.079Z" style="fill:#f6d7d0;fill-opacity:0.4;"/></g><path d="M18.879,56.511l25.543,17.88l3.205,6.711l-23.639,-6.711l-5.109,-17.88Z" style="fill:#574052;"/><clipPath id="_clip12"><path d="M18.879,56.511l25.543,17.88l3.205,6.711l-23.639,-6.711l-5.109,-17.88Z"/></clipPath><g clip-path="url(#_clip12)"><path d="M68.659,79.993l-1.96,-9.996l5.98,-11.068l7.577,-3.789l-6.123,-2.047l-2.104,3.042l-0.404,-14.338l13.739,-12.438l-5.108,2.956l-5.109,2.339l-13.167,16.457l2.95,6.583l1.444,4.387l-1.444,7.793l-11.562,8.927l-13.981,3.141l-20.434,-3.324l20.434,-3.044l-10.217,-1.636l0,-6.157l-2.863,2.709l-7.354,-9.236l-3.729,-15.763l17.402,11.377l4.121,4.701l-0.319,-4.949l-2.149,-4.034l-13.599,-6.8l-4.272,-4.699l5.058,-5.125l11.418,1.995l-2.774,-2.781l-6.048,-1.384l-5.109,-3.078l0,1.847l-6.385,0.229l-7.387,-6.523l12.022,-7.762l10.29,6.823l0.046,-3.481l4.17,-1.197l-6.633,-7.177l14.311,-0.985l10.217,3.448l0,2.094l-2.754,7.836l-2.354,22.704l1.723,4.877l1.082,-9.676l2.303,-14.174l13.722,-6.86l-8.613,-4.461l-13.524,-10.013l8.415,-9.317l19.412,4.598l29.873,-0.39l-25.294,11.674l-1.724,6.773l3.276,0.334l0,-5.109l15.326,-5.2l19.255,-12.09l-80.558,-4.781l-32.158,44.306l19.562,50.649l52.085,-9.717" style="fill:#8d323a;fill-opacity:0.7;"/><path d="M46.603,3.963l23.362,4.146l20.434,-2.683l-18.32,6.166l-2.114,2.452l2.952,2.237l-5.594,0.683l-2.467,2.242l-5.108,-3.563l-0.889,5.553l-17.598,-3.367l5.248,17.549l-3.954,9.296l0.943,6.876l6.033,20.287l-2.082,4.068l0.641,5.429l-24.102,-6.943l20.434,3.567l-1.612,-1.806l-23.931,-19.641l24.705,14.651l1.548,-0.258l-26.253,-19.501l25.543,15.028l-5.108,-7.14l-1.408,-6.279l-13.918,-9.272l12.442,3.996l-1.19,-2.552l-13.152,-7.502l1.9,-0.498l13.918,6.968l0.345,-1.119l-13.932,-5.683l14.502,3.589l3.57,-6.401l-33.729,-8.678l32.76,4.055l-2.108,-2.33l-5.109,-1.239l0,-5.23l5.109,-1.514l1.698,1.999l-0.177,1.402l-3.876,-0.071l4.299,3.277l0.669,0.493l-1.11,-3.583l0.151,-1.17l-0.431,-0.907l-1.725,-2.127l-0.595,-2.724l-4.012,-3.102l7.516,1.812l12.133,1.516l0.088,-1.718l-9.52,-6.719l17.295,6.679l0.505,-1.105l3.947,1.145l0.78,-2.657l-20.346,-8.079Z" style="fill:#f6d7d0;fill-opacity:0.4;"/></g><path d="M46.55,3.936l-2.128,4.044l20.434,10.218l0,-2.297l5.974,0.175l-3.32,-1.66l2.455,-3.881l-23.415,-6.599Z" style="fill:#6c7157;"/><clipPath id="_clip13"><path d="M46.55,3.936l-2.128,4.044l20.434,10.218l0,-2.297l5.974,0.175l-3.32,-1.66l2.455,-3.881l-23.415,-6.599Z"/></clipPath><g clip-path="url(#_clip13)"><path d="M46.603,3.963l23.362,4.146l20.434,-2.683l-18.32,6.166l-2.114,2.452l2.952,2.237l-5.594,0.683l-2.467,2.242l-5.108,-3.563l-0.889,5.553l-17.598,-3.367l5.248,17.549l-3.954,9.296l0.943,6.876l6.033,20.287l-2.082,4.068l0.641,5.429l-24.102,-6.943l20.434,3.567l-1.612,-1.806l-23.931,-19.641l24.705,14.651l1.548,-0.258l-26.253,-19.501l25.543,15.028l-5.108,-7.14l-1.408,-6.279l-13.918,-9.272l12.442,3.996l-1.19,-2.552l-13.152,-7.502l1.9,-0.498l13.918,6.968l0.345,-1.119l-13.932,-5.683l14.502,3.589l3.57,-6.401l-33.729,-8.678l32.76,4.055l-2.108,-2.33l-5.109,-1.239l0,-5.23l5.109,-1.514l1.698,1.999l-0.177,1.402l-3.876,-0.071l4.299,3.277l0.669,0.493l-1.11,-3.583l0.151,-1.17l-0.431,-0.907l-1.725,-2.127l-0.595,-2.724l-4.012,-3.102l7.516,1.812l12.133,1.516l0.088,-1.718l-9.52,-6.719l17.295,6.679l0.505,-1.105l3.947,1.145l0.78,-2.657l-20.346,-8.079Z" style="fill:#f6d7d0;fill-opacity:0.9;"/></g></g></g></g><path d="M86.781,45.341c0,0 2.482,1.153 2.212,3.309c-0.269,2.157 -0.855,2.424 -1.146,8.671c-0.291,6.247 1.599,1.941 1.103,9.665c-0.496,7.725 6.064,5.029 -1.484,12.308c-7.549,7.279 -14.019,11.143 -20.22,7.279c-6.2,-3.864 -8.177,-2.516 -14.288,-0.629c-6.111,1.887 -7.81,1.528 -13.655,1.887c-5.846,0.36 -7.931,-0.772 -16.369,-4.205c-8.438,-3.433 -4.574,-0.917 -10.685,-6.668c-6.111,-5.752 1.342,-7.119 -3.598,-5.582c-4.939,1.538 -11.478,8.727 -5.108,0.549c6.37,-8.178 0.801,-8.902 6.506,-10.067c5.705,-1.166 3.719,-4.115 5.746,-2.236c2.026,1.879 4.471,0.838 4.471,0.838l2.857,11.645l2.857,-3.082c0,0 -0.046,-2.025 2.025,1.196c2.07,3.221 2.672,2.385 4.097,2.665c1.424,0.28 -1.198,1.384 1.424,0.28c2.623,-1.104 1.69,-0.761 3.33,-0.564c1.639,0.196 0.079,-1.737 2.447,0.61c2.367,2.346 2.091,2.991 3.241,2.991c1.151,0 1.381,-0.231 1.381,-0.231l0.486,-1.15l0,-0.89l-7.388,-4.953l0.368,-1.242c0,0 -2.07,-1.105 0.644,0.046c2.715,1.15 2.979,2 4.342,2.058c1.364,0.058 1.548,-0.402 2.606,0.426c1.058,0.828 1.38,1.104 1.38,1.104l2.635,-0.254l0.522,0.261l-1.454,2.294c0,0 0.046,0.368 0.736,0.828c0.69,0.46 -0.681,0.552 0.718,0.598c1.398,0.046 3.343,2.439 5.108,-0.276c1.765,-2.714 1.029,-2.162 2.18,-2.852c1.15,-0.691 -0.323,0.874 1.61,-0.829c1.932,-1.702 1.15,-1.702 2.162,-2.024c1.013,-0.322 1.979,-0.736 1.979,-0.736c0,0 5.153,-1.703 5.015,-4.049c-0.138,-2.347 -1.288,-1.012 -0.138,-2.393c1.15,-1.38 0.389,-2.024 2.518,-2.3c2.129,-0.276 4.66,-0.138 4.66,-0.138l-0.368,2.852c0,0 -1.841,0.737 -2.255,1.197c-0.414,0.46 -1.058,1.196 -1.058,1.196l-2.301,1.426l0.092,1.289l0.23,2.162l0.437,1.474c0,0 1.993,0.533 2.158,-0.517c0.166,-1.049 -0.018,-1.049 0.442,-1.785c0.46,-0.736 0.874,-0.782 1.426,-1.933c0.552,-1.15 1.059,-1.886 1.059,-1.886c0,0 -1.726,0.966 0.586,-0.736c2.312,-1.703 2.588,-0.966 2.588,-2.669c0,-1.702 -0.23,-1.84 0,-2.852c0.23,-1.013 1.131,-1.972 1.131,-1.972l1.39,0.269l0.654,1.242l0.23,2.899l0,2.209l0.598,0.276l1.105,-2.899l0.533,-1.142l1.988,-0.994l1.93,-4.144l-3.991,-3.474l2.061,-2.599l1.502,-3.047" style="fill:#426433;"/><clipPath id="_clip14"><path d="M86.781,45.341c0,0 2.482,1.153 2.212,3.309c-0.269,2.157 -0.855,2.424 -1.146,8.671c-0.291,6.247 1.599,1.941 1.103,9.665c-0.496,7.725 6.064,5.029 -1.484,12.308c-7.549,7.279 -14.019,11.143 -20.22,7.279c-6.2,-3.864 -8.177,-2.516 -14.288,-0.629c-6.111,1.887 -7.81,1.528 -13.655,1.887c-5.846,0.36 -7.931,-0.772 -16.369,-4.205c-8.438,-3.433 -4.574,-0.917 -10.685,-6.668c-6.111,-5.752 1.342,-7.119 -3.598,-5.582c-4.939,1.538 -11.478,8.727 -5.108,0.549c6.37,-8.178 0.801,-8.902 6.506,-10.067c5.705,-1.166 3.719,-4.115 5.746,-2.236c2.026,1.879 4.471,0.838 4.471,0.838l2.857,11.645l2.857,-3.082c0,0 -0.046,-2.025 2.025,1.196c2.07,3.221 2.672,2.385 4.097,2.665c1.424,0.28 -1.198,1.384 1.424,0.28c2.623,-1.104 1.69,-0.761 3.33,-0.564c1.639,0.196 0.079,-1.737 2.447,0.61c2.367,2.346 2.091,2.991 3.241,2.991c1.151,0 1.381,-0.231 1.381,-0.231l0.486,-1.15l0,-0.89l-7.388,-4.953l0.368,-1.242c0,0 -2.07,-1.105 0.644,0.046c2.715,1.15 2.979,2 4.342,2.058c1.364,0.058 1.548,-0.402 2.606,0.426c1.058,0.828 1.38,1.104 1.38,1.104l2.635,-0.254l0.522,0.261l-1.454,2.294c0,0 0.046,0.368 0.736,0.828c0.69,0.46 -0.681,0.552 0.718,0.598c1.398,0.046 3.343,2.439 5.108,-0.276c1.765,-2.714 1.029,-2.162 2.18,-2.852c1.15,-0.691 -0.323,0.874 1.61,-0.829c1.932,-1.702 1.15,-1.702 2.162,-2.024c1.013,-0.322 1.979,-0.736 1.979,-0.736c0,0 5.153,-1.703 5.015,-4.049c-0.138,-2.347 -1.288,-1.012 -0.138,-2.393c1.15,-1.38 0.389,-2.024 2.518,-2.3c2.129,-0.276 4.66,-0.138 4.66,-0.138l-0.368,2.852c0,0 -1.841,0.737 -2.255,1.197c-0.414,0.46 -1.058,1.196 -1.058,1.196l-2.301,1.426l0.092,1.289l0.23,2.162l0.437,1.474c0,0 1.993,0.533 2.158,-0.517c0.166,-1.049 -0.018,-1.049 0.442,-1.785c0.46,-0.736 0.874,-0.782 1.426,-1.933c0.552,-1.15 1.059,-1.886 1.059,-1.886c0,0 -1.726,0.966 0.586,-0.736c2.312,-1.703 2.588,-0.966 2.588,-2.669c0,-1.702 -0.23,-1.84 0,-2.852c0.23,-1.013 1.131,-1.972 1.131,-1.972l1.39,0.269l0.654,1.242l0.23,2.899l0,2.209l0.598,0.276l1.105,-2.899l0.533,-1.142l1.988,-0.994l1.93,-4.144l-3.991,-3.474l2.061,-2.599l1.502,-3.047"/></clipPath><g clip-path="url(#_clip14)"><path d="M94.682,40.894l0,61.303l-56.194,-5.638l27.944,-41.54l28.25,-14.125Z" style="fill:#c4e783;fill-opacity:0.5;"/><path d="M92.008,50.132l0.117,-3.43l-4.209,-0.761c0,0 -1.796,2.624 -2.129,6.077c-0.073,0.756 1.676,1.717 1.563,2.513c-0.677,4.75 -2.056,9.843 -2.071,11.179c-0.029,2.583 1.714,5.616 0,6.964c-1.714,1.348 0.196,2.921 -2.051,3.595c-2.246,0.674 -3.274,6.594 -3.94,0.657c-0.665,-5.937 -1.254,-5.096 -0.51,-6.246c0.743,-1.151 1.393,-1.937 1.393,-1.937l0,-2.475l0,-1.569c0,0 -2.37,1.277 -3.082,3.11c-0.713,1.832 -2.854,6.535 -2.854,6.535c0,0 0.95,1.05 -2.555,3.004c-3.504,1.954 -5.727,2.245 -5.727,2.245c0,0 0.584,1.751 0,0c-0.585,-1.752 2.379,-9.028 2.379,-9.028c0,0 0.92,-1.277 -1.078,-0.539c-1.998,0.738 -3.269,3.926 -5.442,5.421c-2.173,1.496 -3.858,3.293 -3.858,3.293l-1.818,1.053l-0.024,-5.121c0,0 0.43,0.827 -3.526,3.346c-3.955,2.519 -4.694,2.761 -4.694,2.761c0,0 -0.582,1.837 -1.438,-0.719c-0.856,-2.556 -0.48,-1.803 -0.48,-1.803l0.747,-4.347l-2.31,-1.798l0,8.987l-6.929,1.405l-2.331,-0.057l2.092,-6.992c0,0 -0.074,0.14 -3.049,0.14c-2.975,0 -6.004,0.442 -6.004,0.442l-0.501,1.146c0,0 0.273,-0.465 -1.974,-0.24c-2.246,0.224 2.696,3.37 -2.808,-0.225c-5.504,-3.595 -5.777,2.825 -6.539,-4.092c-0.763,-6.916 -1.364,-6.949 -0.558,-7.888c0.806,-0.938 4.401,-0.152 1.031,-1.163c-3.37,-1.011 -3.081,-1.011 -3.081,-1.011c0,0 -1.616,-3.035 -5.109,-1.405c-3.492,1.63 -1.531,0.515 -3.691,3.263c-2.16,2.748 -1.904,-3.106 -6.526,6.954c-4.621,10.06 -12.467,11.149 -4.275,13.188c8.191,2.039 3.939,3.387 19.601,3.387c15.662,0 74.691,4.828 74.691,4.828l6.278,-14.124l-2.721,-28.523Z" style="fill:#9fb366;"/><clipPath id="_clip15"><path d="M92.008,50.132l0.117,-3.43l-4.209,-0.761c0,0 -1.796,2.624 -2.129,6.077c-0.073,0.756 1.676,1.717 1.563,2.513c-0.677,4.75 -2.056,9.843 -2.071,11.179c-0.029,2.583 1.714,5.616 0,6.964c-1.714,1.348 0.196,2.921 -2.051,3.595c-2.246,0.674 -3.274,6.594 -3.94,0.657c-0.665,-5.937 -1.254,-5.096 -0.51,-6.246c0.743,-1.151 1.393,-1.937 1.393,-1.937l0,-2.475l0,-1.569c0,0 -2.37,1.277 -3.082,3.11c-0.713,1.832 -2.854,6.535 -2.854,6.535c0,0 0.95,1.05 -2.555,3.004c-3.504,1.954 -5.727,2.245 -5.727,2.245c0,0 0.584,1.751 0,0c-0.585,-1.752 2.379,-9.028 2.379,-9.028c0,0 0.92,-1.277 -1.078,-0.539c-1.998,0.738 -3.269,3.926 -5.442,5.421c-2.173,1.496 -3.858,3.293 -3.858,3.293l-1.818,1.053l-0.024,-5.121c0,0 0.43,0.827 -3.526,3.346c-3.955,2.519 -4.694,2.761 -4.694,2.761c0,0 -0.582,1.837 -1.438,-0.719c-0.856,-2.556 -0.48,-1.803 -0.48,-1.803l0.747,-4.347l-2.31,-1.798l0,8.987l-6.929,1.405l-2.331,-0.057l2.092,-6.992c0,0 -0.074,0.14 -3.049,0.14c-2.975,0 -6.004,0.442 -6.004,0.442l-0.501,1.146c0,0 0.273,-0.465 -1.974,-0.24c-2.246,0.224 2.696,3.37 -2.808,-0.225c-5.504,-3.595 -5.777,2.825 -6.539,-4.092c-0.763,-6.916 -1.364,-6.949 -0.558,-7.888c0.806,-0.938 4.401,-0.152 1.031,-1.163c-3.37,-1.011 -3.081,-1.011 -3.081,-1.011c0,0 -1.616,-3.035 -5.109,-1.405c-3.492,1.63 -1.531,0.515 -3.691,3.263c-2.16,2.748 -1.904,-3.106 -6.526,6.954c-4.621,10.06 -12.467,11.149 -4.275,13.188c8.191,2.039 3.939,3.387 19.601,3.387c15.662,0 74.691,4.828 74.691,4.828l6.278,-14.124l-2.721,-28.523Z"/></clipPath><g clip-path="url(#_clip15)"><path d="M94.682,40.894l0,61.303l-56.194,-5.638l27.944,-41.54l28.25,-14.125Z" style="fill:#c4e783;fill-opacity:0.5;"/></g><path d="M45.953,65.259l-38.116,19.058l-10.217,-10.217l17.381,-24.016l30.952,15.175Z" style="fill-opacity:0.5;"/></g></g><g><path d="M70.58,45.459l9.948,12.458l-4.348,-1.274l-12.119,-9.902l6.519,-1.282Z" style="fill:#574052;"/><path d="M62.493,47.1l13.867,-15.941l6.083,-0.138l-10.988,15.699l-8.962,0.38Z" style="fill:#574052;"/><path d="M62.528,25.052l1.65,-1.733l18.272,7.657l-7.559,0.789l-12.363,-6.713Z" style="fill:#574052;"/><path d="M65.72,53.114l-3.645,-2.965l-8.161,10.911l5.189,3.011l6.617,-10.957Z" style="fill:#574052;"/><path d="M49.475,64.979l6.159,-2.81l3.313,1.937l-4.813,2.65l-4.659,-1.777Z" style="fill:none;"/><path d="M72.017,58.657l4.003,1.649l4.535,-2.321l-4.16,-1.166l-4.378,1.838Z" style="fill:none;"/><path d="M62.496,50.581l9.523,8.067l4.57,-1.934l-9.695,-9.81l10.371,-15.392l-14.79,-6.374l-12.277,15.811l7.563,6.49l-8.294,17.514l6.296,-2.837l6.733,-11.535Z" style="fill:#c3454a;"/><g><path d="M64.379,31.57l6.423,3.896l-4.689,7.107l-6.669,-4.761l4.935,-6.242Z" style="fill:#f6d7d0;"/><path d="M64.398,31.561l-3.553,0.145l-5.289,6.241l4.006,-0.218l4.836,-6.168Z" style="fill:#6c7157;"/><path d="M55.578,37.958l3.881,-0.157l6.577,4.769l-4.525,-0.078l-5.933,-4.534Z" style="fill:#574052;"/></g></g><path d="M51.94,0.591c0,0 10.587,-0.47 16.907,-0.029c6.32,0.441 9.304,-0.716 10.217,0c0.913,0.716 7.388,3.022 7.449,3.725c0.061,0.702 -2.681,4.138 -2.34,6.199c0.34,2.062 -2.265,-6.538 0,2.847c2.264,9.386 4.791,11.722 5.108,14.333c0.317,2.612 1.022,8.145 1.022,8.145c0,0 -5.234,-1.624 -6.13,-7.152c-0.897,-5.528 1.577,-3.879 -1.997,-7.865c-3.573,-3.985 -1.8,-2.584 -4.267,-5.484c-2.467,-2.899 -1.416,-5.058 -2.835,-2.536c-1.419,2.523 -1.203,0.717 -3.991,4.231c-2.788,3.515 -4.301,5.024 -4.301,5.024c0,0 -3.759,1.554 -6.552,-1.833c-2.793,-3.387 -3.253,-3.482 -3.253,-3.482l-0.365,-3.204c0,0 -3.156,-3.445 -4.945,-1.104c-1.789,2.341 -3.254,3.482 -3.254,3.482c0,0 -4.076,-4.77 0,0c4.076,4.769 5.108,5.869 5.108,5.869c0,0 0.483,0.701 0,1.793c-0.482,1.093 -2.817,3.7 -2.817,3.7c0,0 -5.346,-1.203 -5.766,-4.516c-0.42,-3.314 0.726,-1.697 -1.634,-4.292c-2.36,-2.595 -0.71,-6.224 -5.108,-2.554c-4.399,3.67 -3.436,5.869 0,8.205c3.436,2.337 0.459,3.573 5.108,7.009c4.65,3.436 7.905,6.872 5.109,7.285c-2.796,0.412 -8.705,-0.007 -10.217,-2.065c-1.512,-2.058 1.518,-3.283 -3.914,-3.152c-5.432,0.132 -11.412,0.597 -11.412,0.597l0,5.109c0,0 1.03,-0.077 0,2.947c-1.03,3.023 -1.874,8.207 -1.874,8.207c0,0 -3.327,-0.562 -3.234,-3.491c0.092,-2.929 -0.093,-4.264 0,-5.109c0.092,-0.844 -0.23,-0.432 0,-2.631c0.23,-2.199 0.594,-2.611 0,-4.81c-0.595,-2.199 -5.109,-5.33 -5.109,-5.33l0,-2.917c0,0 -0.803,-0.948 0,-2.192c0.803,-1.244 -0.357,-2.909 2.628,-3.794c2.986,-0.886 0.649,1.588 3.673,-1.161c3.024,-2.748 -1.238,-2.748 3.916,-3.985c5.155,-1.237 7.101,-2.244 8.602,-2.084c1.501,0.16 1.776,-0.665 3.013,-1.902c1.237,-1.237 -2.049,0.11 1.175,-1.113c3.223,-1.224 2.536,-1.361 2.536,-1.361c0,0 -0.463,0.651 2.586,-1.187c3.049,-1.837 0.653,-1.993 4.187,-3.014c3.535,-1.022 6.971,-3.358 6.971,-3.358Z" style="fill:#426433;"/><clipPath id="_clip16"><path d="M51.94,0.591c0,0 10.587,-0.47 16.907,-0.029c6.32,0.441 9.304,-0.716 10.217,0c0.913,0.716 7.388,3.022 7.449,3.725c0.061,0.702 -2.681,4.138 -2.34,6.199c0.34,2.062 -2.265,-6.538 0,2.847c2.264,9.386 4.791,11.722 5.108,14.333c0.317,2.612 1.022,8.145 1.022,8.145c0,0 -5.234,-1.624 -6.13,-7.152c-0.897,-5.528 1.577,-3.879 -1.997,-7.865c-3.573,-3.985 -1.8,-2.584 -4.267,-5.484c-2.467,-2.899 -1.416,-5.058 -2.835,-2.536c-1.419,2.523 -1.203,0.717 -3.991,4.231c-2.788,3.515 -4.301,5.024 -4.301,5.024c0,0 -3.759,1.554 -6.552,-1.833c-2.793,-3.387 -3.253,-3.482 -3.253,-3.482l-0.365,-3.204c0,0 -3.156,-3.445 -4.945,-1.104c-1.789,2.341 -3.254,3.482 -3.254,3.482c0,0 -4.076,-4.77 0,0c4.076,4.769 5.108,5.869 5.108,5.869c0,0 0.483,0.701 0,1.793c-0.482,1.093 -2.817,3.7 -2.817,3.7c0,0 -5.346,-1.203 -5.766,-4.516c-0.42,-3.314 0.726,-1.697 -1.634,-4.292c-2.36,-2.595 -0.71,-6.224 -5.108,-2.554c-4.399,3.67 -3.436,5.869 0,8.205c3.436,2.337 0.459,3.573 5.108,7.009c4.65,3.436 7.905,6.872 5.109,7.285c-2.796,0.412 -8.705,-0.007 -10.217,-2.065c-1.512,-2.058 1.518,-3.283 -3.914,-3.152c-5.432,0.132 -11.412,0.597 -11.412,0.597l0,5.109c0,0 1.03,-0.077 0,2.947c-1.03,3.023 -1.874,8.207 -1.874,8.207c0,0 -3.327,-0.562 -3.234,-3.491c0.092,-2.929 -0.093,-4.264 0,-5.109c0.092,-0.844 -0.23,-0.432 0,-2.631c0.23,-2.199 0.594,-2.611 0,-4.81c-0.595,-2.199 -5.109,-5.33 -5.109,-5.33l0,-2.917c0,0 -0.803,-0.948 0,-2.192c0.803,-1.244 -0.357,-2.909 2.628,-3.794c2.986,-0.886 0.649,1.588 3.673,-1.161c3.024,-2.748 -1.238,-2.748 3.916,-3.985c5.155,-1.237 7.101,-2.244 8.602,-2.084c1.501,0.16 1.776,-0.665 3.013,-1.902c1.237,-1.237 -2.049,0.11 1.175,-1.113c3.223,-1.224 2.536,-1.361 2.536,-1.361c0,0 -0.463,0.651 2.586,-1.187c3.049,-1.837 0.653,-1.993 4.187,-3.014c3.535,-1.022 6.971,-3.358 6.971,-3.358Z"/></clipPath><g clip-path="url(#_clip16)"><path d="M77.66,-11.379l17.751,48.425l-38.834,-12.989l-15.23,-22.941l36.313,-12.495" style="fill:#c4e783;fill-opacity:0.5;"/><path d="M75.816,-2.922c0.176,3.513 2.747,4.887 3.248,6.811c0.501,1.925 -0.638,0.825 0,4.536c0.638,3.711 3.298,9.112 3.298,9.112c0,0 0.324,1.883 -3.298,-4.302c-3.622,-6.185 -1.509,-7.009 -5.108,-6.872c-3.6,0.138 -4.969,1.237 -5.109,3.024c-0.14,1.787 2.476,-2.988 0,1.392c-2.476,4.38 -2.201,5.205 -3.851,5.068c-1.649,-0.138 -7.316,-4.335 -7.987,-5.878c-0.671,-1.544 -3.488,-4.43 -3.488,-4.43c0,0 0.343,-1.375 -1.444,-0.138c-1.787,1.237 -2.243,-0.824 -3.664,2.199c-1.421,3.024 -1.966,1.935 -2.175,4.266c-0.208,2.331 0.327,1.26 0.747,3.307c0.419,2.048 2.578,2.93 3.01,5.032c0.433,2.101 3.039,1.424 0.774,1.969c-2.265,0.545 -4.882,-1.507 -5.223,-2.611c-0.341,-1.105 -0.08,-3.139 -0.486,-5.352c-0.405,-2.213 0.467,-2.625 -1.756,-4.137c-2.222,-1.512 -1.947,-4.26 -5.108,-2.749c-3.162,1.512 -5.132,5.007 -5.109,6.008c0.023,1.002 -3.536,-2.955 -3.131,1.566c0.405,4.521 -0.19,8.782 3.131,10.706c3.322,1.924 5.109,3.024 5.109,3.024c0,0 -7.24,4.26 -10.217,1.511c-2.978,-2.748 -1.603,-3.848 -6.276,-4.26c-4.673,-0.413 -0.107,-2.26 -6.926,-1.268c-6.818,0.993 -12.341,4.047 -12.341,4.047c0,0 -15.309,-21.176 1.704,-24.691c17.013,-3.515 47.804,-13.676 51.856,-12.306c4.052,1.37 19.644,1.903 19.82,5.416Z" style="fill:#9fb366;"/><clipPath id="_clip17"><path d="M75.816,-2.922c0.176,3.513 2.747,4.887 3.248,6.811c0.501,1.925 -0.638,0.825 0,4.536c0.638,3.711 3.298,9.112 3.298,9.112c0,0 0.324,1.883 -3.298,-4.302c-3.622,-6.185 -1.509,-7.009 -5.108,-6.872c-3.6,0.138 -4.969,1.237 -5.109,3.024c-0.14,1.787 2.476,-2.988 0,1.392c-2.476,4.38 -2.201,5.205 -3.851,5.068c-1.649,-0.138 -7.316,-4.335 -7.987,-5.878c-0.671,-1.544 -3.488,-4.43 -3.488,-4.43c0,0 0.343,-1.375 -1.444,-0.138c-1.787,1.237 -2.243,-0.824 -3.664,2.199c-1.421,3.024 -1.966,1.935 -2.175,4.266c-0.208,2.331 0.327,1.26 0.747,3.307c0.419,2.048 2.578,2.93 3.01,5.032c0.433,2.101 3.039,1.424 0.774,1.969c-2.265,0.545 -4.882,-1.507 -5.223,-2.611c-0.341,-1.105 -0.08,-3.139 -0.486,-5.352c-0.405,-2.213 0.467,-2.625 -1.756,-4.137c-2.222,-1.512 -1.947,-4.26 -5.108,-2.749c-3.162,1.512 -5.132,5.007 -5.109,6.008c0.023,1.002 -3.536,-2.955 -3.131,1.566c0.405,4.521 -0.19,8.782 3.131,10.706c3.322,1.924 5.109,3.024 5.109,3.024c0,0 -7.24,4.26 -10.217,1.511c-2.978,-2.748 -1.603,-3.848 -6.276,-4.26c-4.673,-0.413 -0.107,-2.26 -6.926,-1.268c-6.818,0.993 -12.341,4.047 -12.341,4.047c0,0 -15.309,-21.176 1.704,-24.691c17.013,-3.515 47.804,-13.676 51.856,-12.306c4.052,1.37 19.644,1.903 19.82,5.416Z"/></clipPath><g clip-path="url(#_clip17)"><path d="M77.66,-11.379l17.751,48.425l-38.834,-12.989l-15.23,-22.941l36.313,-12.495" style="fill:#c4e783;fill-opacity:0.5;"/></g><path d="M3.458,20.152c3.174,-0.143 45.977,15.659 45.977,15.659l-40.868,20.434l-5.109,-36.093" style="fill-opacity:0.5;"/></g></g></svg>