<?xml version="1.0" encoding="UTF-8" standalone="no"?><!DOCTYPE svg PUBLIC "-//W3C//DTD SVG 1.1//EN" "http://www.w3.org/Graphics/SVG/1.1/DTD/svg11.dtd"><svg width="100%" height="100%" viewBox="0 0 91 106" version="1.1" xmlns="http://www.w3.org/2000/svg" xmlns:xlink="http://www.w3.org/1999/xlink" xml:space="preserve" xmlns:serif="http://www.serif.com/" style="fill-rule:evenodd;clip-rule:evenodd;stroke-linejoin:round;stroke-miterlimit:1.41421;"><g id="X_Runestone_mossy_runes_1"><g id="F_Runestone_grass_runes_1"><g id="F_Runestone_runes_1"><g><g><g><path d="M61.356,0.885l20.434,10.217l-20.434,10.217l-20.434,-10.217l20.434,-10.217Z" style="fill:#9da8c9;"/><clipPath id="_clip1"><path d="M61.356,0.885l20.434,10.217l-20.434,10.217l-20.434,-10.217l20.434,-10.217Z"/></clipPath><g clip-path="url(#_clip1)"><path d="M84.422,69.755l-10.72,-7.911l-2.055,-16.353l-2.976,16.814l10.719,12.6l-15.707,10.328l-3.667,-13.492l1.414,-10.925l-5.108,4.654l0,13.226l-13.318,3.559l10.939,2.739l-11.142,12.484l-6.913,-10.65l-5.109,-3.655l-18.08,9.472l15.264,0.231l12.413,0.867l-4.488,7.709l-30.652,0.962l-2.387,-27.633l7.496,6.469l6.793,1.713l3.424,-1.713l-7.428,-3.714l-4.457,-12.445l-0.848,-23.451l12.733,8.959l1.983,4.117l1.42,-5.818l-3.403,-3.407l-11.817,-14.526l4.26,-17.456l17.774,16.656l-5.109,-17.88l11.545,-5.772l8.89,-4.445l7.847,9.033l4.367,5.294l3.111,-1.555l5.109,-4.978l-5.109,-3.079l0,2.948l-5.108,-2.554l2.564,-3.827l12.761,4.011l7.677,1.1l7.649,10.829l-1.661,12.599l1.661,31.482l7.734,-67.653l-72.439,-2.166l-40.256,53.098l18.116,65.252l76.628,-0.637l7.666,-41.51" style="fill:#8d323a;fill-opacity:0.7;"/><path d="M81.79,11.102l-20.434,7.207l-20.434,-7.207l16.529,11.038l-2.017,4.234l-4.295,0.054l-20.434,-10.217l15.326,9.86l-14.488,7.762l-21.272,-7.405l18.954,12.849l-0.446,18.765l-18.508,-6.071l5.109,2.554l15.325,10.054l2.855,-2.621l-2.855,7.762l-20.434,-7.532l18.752,12.069l1.682,23.69l1.936,-24.574l4.714,-14.51l-4.299,0.676l0.403,-5.141l-1.311,-16.129l18.225,-7.116l8.697,-0.76l5.175,-7.629l17.545,-11.662Z" style="fill:#f6d7d0;fill-opacity:0.9;"/></g><path d="M30.705,16.211l-20.434,10.217l20.434,10.217l20.434,-10.217l-20.434,-10.217" style="fill:#9da8c9;"/><clipPath id="_clip2"><path d="M30.705,16.211l-20.434,10.217l20.434,10.217l20.434,-10.217l-20.434,-10.217"/></clipPath><g clip-path="url(#_clip2)"><path d="M84.422,69.755l-10.72,-7.911l-2.055,-16.353l-2.976,16.814l10.719,12.6l-15.707,10.328l-3.667,-13.492l1.414,-10.925l-5.108,4.654l0,13.226l-13.318,3.559l10.939,2.739l-11.142,12.484l-6.913,-10.65l-5.109,-3.655l-18.08,9.472l15.264,0.231l12.413,0.867l-4.488,7.709l-30.652,0.962l-2.387,-27.633l7.496,6.469l6.793,1.713l3.424,-1.713l-7.428,-3.714l-4.457,-12.445l-0.848,-23.451l12.733,8.959l1.983,4.117l1.42,-5.818l-3.403,-3.407l-11.817,-14.526l4.26,-17.456l17.774,16.656l-5.109,-17.88l11.545,-5.772l8.89,-4.445l7.847,9.033l4.367,5.294l3.111,-1.555l5.109,-4.978l-5.109,-3.079l0,2.948l-5.108,-2.554l2.564,-3.827l12.761,4.011l7.677,1.1l7.649,10.829l-1.661,12.599l1.661,31.482l7.734,-67.653l-72.439,-2.166l-40.256,53.098l18.116,65.252l76.628,-0.637l7.666,-41.51" style="fill:#8d323a;fill-opacity:0.7;"/><path d="M81.79,11.102l-20.434,7.207l-20.434,-7.207l16.529,11.038l-2.017,4.234l-4.295,0.054l-20.434,-10.217l15.326,9.86l-14.488,7.762l-21.272,-7.405l18.954,12.849l-0.446,18.765l-18.508,-6.071l5.109,2.554l15.325,10.054l2.855,-2.621l-2.855,7.762l-20.434,-7.532l18.752,12.069l1.682,23.69l1.936,-24.574l4.714,-14.51l-4.299,0.676l0.403,-5.141l-1.311,-16.129l18.225,-7.116l8.697,-0.76l5.175,-7.629l17.545,-11.662Z" style="fill:#f6d7d0;fill-opacity:0.9;"/></g><path d="M40.922,11.102l-5.108,7.663l20.434,10.217l5.108,-7.663l-20.434,-10.217Z" style="fill:#6c7157;"/><clipPath id="_clip3"><path d="M40.922,11.102l-5.108,7.663l20.434,10.217l5.108,-7.663l-20.434,-10.217Z"/></clipPath><g clip-path="url(#_clip3)"><path d="M84.422,69.755l-10.72,-7.911l-2.055,-16.353l-2.976,16.814l10.719,12.6l-15.707,10.328l-3.667,-13.492l1.414,-10.925l-5.108,4.654l0,13.226l-13.318,3.559l10.939,2.739l-11.142,12.484l-6.913,-10.65l-5.109,-3.655l-18.08,9.472l15.264,0.231l12.413,0.867l-4.488,7.709l-30.652,0.962l-2.387,-27.633l7.496,6.469l6.793,1.713l3.424,-1.713l-7.428,-3.714l-4.457,-12.445l-0.848,-23.451l12.733,8.959l1.983,4.117l1.42,-5.818l-3.403,-3.407l-11.817,-14.526l4.26,-17.456l17.774,16.656l-5.109,-17.88l11.545,-5.772l8.89,-4.445l7.847,9.033l4.367,5.294l3.111,-1.555l5.109,-4.978l-5.109,-3.079l0,2.948l-5.108,-2.554l2.564,-3.827l12.761,4.011l7.677,1.1l7.649,10.829l-1.661,12.599l1.661,31.482l7.734,-67.653l-72.439,-2.166l-40.256,53.098l18.116,65.252l76.628,-0.637l7.666,-41.51" style="fill:#8d323a;fill-opacity:0.7;"/><path d="M81.79,11.102l-20.434,7.207l-20.434,-7.207l16.529,11.038l-2.017,4.234l-4.295,0.054l-20.434,-10.217l15.326,9.86l-14.488,7.762l-21.272,-7.405l18.954,12.849l-0.446,18.765l-18.508,-6.071l5.109,2.554l15.325,10.054l2.855,-2.621l-2.855,7.762l-20.434,-7.532l18.752,12.069l1.682,23.69l1.936,-24.574l4.714,-14.51l-4.299,0.676l0.403,-5.141l-1.311,-16.129l18.225,-7.116l8.697,-0.76l5.175,-7.629l17.545,-11.662Z" style="fill:#f6d7d0;fill-opacity:0.9;"/></g><path d="M81.79,11.102l-20.434,10.217l-5.108,7.663l-5.109,-2.554l-20.434,10.217l0,25.543l5.109,-2.555l-5.109,12.772l0,25.542l20.434,-10.217l0,-5.108l5.109,-2.554l5.108,2.554l20.434,-10.217l0,-30.651l-5.108,2.554l5.108,-12.772l0,-20.434" style="fill:#bac1d8;"/><clipPath id="_clip4"><path d="M81.79,11.102l-20.434,10.217l-5.108,7.663l-5.109,-2.554l-20.434,10.217l0,25.543l5.109,-2.555l-5.109,12.772l0,25.542l20.434,-10.217l0,-5.108l5.109,-2.554l5.108,2.554l20.434,-10.217l0,-30.651l-5.108,2.554l5.108,-12.772l0,-20.434"/></clipPath><g clip-path="url(#_clip4)"><path d="M84.422,69.755l-10.72,-7.911l-2.055,-16.353l-2.976,16.814l10.719,12.6l-15.707,10.328l-3.667,-13.492l1.414,-10.925l-5.108,4.654l0,13.226l-13.318,3.559l10.939,2.739l-11.142,12.484l-6.913,-10.65l-5.109,-3.655l-18.08,9.472l15.264,0.231l12.413,0.867l-4.488,7.709l-30.652,0.962l-2.387,-27.633l7.496,6.469l6.793,1.713l3.424,-1.713l-7.428,-3.714l-4.457,-12.445l-0.848,-23.451l12.733,8.959l1.983,4.117l1.42,-5.818l-3.403,-3.407l-11.817,-14.526l4.26,-17.456l17.774,16.656l-5.109,-17.88l11.545,-5.772l8.89,-4.445l7.847,9.033l4.367,5.294l3.111,-1.555l5.109,-4.978l-5.109,-3.079l0,2.948l-5.108,-2.554l2.564,-3.827l12.761,4.011l7.677,1.1l7.649,10.829l-1.661,12.599l1.661,31.482l7.734,-67.653l-72.439,-2.166l-40.256,53.098l18.116,65.252l76.628,-0.637l7.666,-41.51" style="fill:#8d323a;fill-opacity:0.7;"/><path d="M81.79,11.102l-20.434,7.207l-20.434,-7.207l16.529,11.038l-2.017,4.234l-4.295,0.054l-20.434,-10.217l15.326,9.86l-14.488,7.762l-21.272,-7.405l18.954,12.849l-0.446,18.765l-18.508,-6.071l5.109,2.554l15.325,10.054l2.855,-2.621l-2.855,7.762l-20.434,-7.532l18.752,12.069l1.682,23.69l1.936,-24.574l4.714,-14.51l-4.299,0.676l0.403,-5.141l-1.311,-16.129l18.225,-7.116l8.697,-0.76l5.175,-7.629l17.545,-11.662Z" style="fill:#f6d7d0;fill-opacity:0.9;"/></g><path d="M10.271,26.428l20.434,10.217l0,25.543l-20.434,-10.217l0,-25.543Z" style="fill:#6c7157;"/><clipPath id="_clip5"><path d="M10.271,26.428l20.434,10.217l0,25.543l-20.434,-10.217l0,-25.543Z"/></clipPath><g clip-path="url(#_clip5)"><path d="M84.422,69.755l-10.72,-7.911l-2.055,-16.353l-2.976,16.814l10.719,12.6l-15.707,10.328l-3.667,-13.492l1.414,-10.925l-5.108,4.654l0,13.226l-13.318,3.559l10.939,2.739l-11.142,12.484l-6.913,-10.65l-5.109,-3.655l-18.08,9.472l15.264,0.231l12.413,0.867l-4.488,7.709l-30.652,0.962l-2.387,-27.633l7.496,6.469l6.793,1.713l3.424,-1.713l-7.428,-3.714l-4.457,-12.445l-0.848,-23.451l12.733,8.959l1.983,4.117l1.42,-5.818l-3.403,-3.407l-11.817,-14.526l4.26,-17.456l17.774,16.656l-5.109,-17.88l11.545,-5.772l8.89,-4.445l7.847,9.033l4.367,5.294l3.111,-1.555l5.109,-4.978l-5.109,-3.079l0,2.948l-5.108,-2.554l2.564,-3.827l12.761,4.011l7.677,1.1l7.649,10.829l-1.661,12.599l1.661,31.482l7.734,-67.653l-72.439,-2.166l-40.256,53.098l18.116,65.252l76.628,-0.637l7.666,-41.51" style="fill:#8d323a;fill-opacity:0.7;"/><path d="M81.79,11.102l-20.434,7.207l-20.434,-7.207l16.529,11.038l-2.017,4.234l-4.295,0.054l-20.434,-10.217l15.326,9.86l-14.488,7.762l-21.272,-7.405l18.954,12.849l-0.446,18.765l-18.508,-6.071l5.109,2.554l15.325,10.054l2.855,-2.621l-2.855,7.762l-20.434,-7.532l18.752,12.069l1.682,23.69l1.936,-24.574l4.714,-14.51l-4.299,0.676l0.403,-5.141l-1.311,-16.129l18.225,-7.116l8.697,-0.76l5.175,-7.629l17.545,-11.662Z" style="fill:#f6d7d0;fill-opacity:0.4;"/></g><path d="M30.705,97.947l-20.434,-10.217l0,-25.542l20.434,10.217l0,25.542" style="fill:#6c7157;"/><clipPath id="_clip6"><path d="M30.705,97.947l-20.434,-10.217l0,-25.542l20.434,10.217l0,25.542"/></clipPath><g clip-path="url(#_clip6)"><path d="M84.422,69.755l-10.72,-7.911l-2.055,-16.353l-2.976,16.814l10.719,12.6l-15.707,10.328l-3.667,-13.492l1.414,-10.925l-5.108,4.654l0,13.226l-13.318,3.559l10.939,2.739l-11.142,12.484l-6.913,-10.65l-5.109,-3.655l-18.08,9.472l15.264,0.231l12.413,0.867l-4.488,7.709l-30.652,0.962l-2.387,-27.633l7.496,6.469l6.793,1.713l3.424,-1.713l-7.428,-3.714l-4.457,-12.445l-0.848,-23.451l12.733,8.959l1.983,4.117l1.42,-5.818l-3.403,-3.407l-11.817,-14.526l4.26,-17.456l17.774,16.656l-5.109,-17.88l11.545,-5.772l8.89,-4.445l7.847,9.033l4.367,5.294l3.111,-1.555l5.109,-4.978l-5.109,-3.079l0,2.948l-5.108,-2.554l2.564,-3.827l12.761,4.011l7.677,1.1l7.649,10.829l-1.661,12.599l1.661,31.482l7.734,-67.653l-72.439,-2.166l-40.256,53.098l18.116,65.252l76.628,-0.637l7.666,-41.51" style="fill:#8d323a;fill-opacity:0.7;"/><path d="M81.79,11.102l-20.434,7.207l-20.434,-7.207l16.529,11.038l-2.017,4.234l-4.295,0.054l-20.434,-10.217l15.326,9.86l-14.488,7.762l-21.272,-7.405l18.954,12.849l-0.446,18.765l-18.508,-6.071l5.109,2.554l15.325,10.054l2.855,-2.621l-2.855,7.762l-20.434,-7.532l18.752,12.069l1.682,23.69l1.936,-24.574l4.714,-14.51l-4.299,0.676l0.403,-5.141l-1.311,-16.129l18.225,-7.116l8.697,-0.76l5.175,-7.629l17.545,-11.662Z" style="fill:#f6d7d0;fill-opacity:0.4;"/></g><path d="M10.271,51.971l5.109,2.554l-5.109,7.663l20.434,10.217l5.109,-12.772l-5.109,2.555l-20.434,-10.217Z" style="fill:#574052;"/><clipPath id="_clip7"><path d="M10.271,51.971l5.109,2.554l-5.109,7.663l20.434,10.217l5.109,-12.772l-5.109,2.555l-20.434,-10.217Z"/></clipPath><g clip-path="url(#_clip7)"><path d="M81.79,11.102l-20.434,7.207l-20.434,-7.207l16.529,11.038l-2.017,4.234l-4.295,0.054l-20.434,-10.217l15.326,9.86l-14.488,7.762l-21.272,-7.405l18.954,12.849l-0.446,18.765l-18.508,-6.071l5.109,2.554l15.325,10.054l2.855,-2.621l-2.855,7.762l-20.434,-7.532l18.752,12.069l1.682,23.69l1.936,-24.574l4.714,-14.51l-4.299,0.676l0.403,-5.141l-1.311,-16.129l18.225,-7.116l8.697,-0.76l5.175,-7.629l17.545,-11.662Z" style="fill:#f6d7d0;fill-opacity:0.4;"/></g></g></g></g></g><path d="M81.597,51.725c0,0 9.856,8.577 8.777,14.605c-1.079,6.029 -3.229,13.233 -7.853,14.309c-1.72,0.4 0.847,2.21 -2.512,4.143c-0.177,0.101 -0.635,2.32 -0.823,2.422c-1.408,0.769 -16.227,7.244 -18.023,7.837c-5.677,1.875 0.863,-2.886 0,-2.448c-1.868,0.949 -9.278,-1.076 -18.368,4.076c-0.9,0.51 6.362,-0.801 5.508,-0.289c-7.774,4.667 -21.894,10.899 -28.008,8.235c-5.758,-2.51 -13.904,-2.61 -17.244,-6.763c-0.595,-0.741 2.436,-0.007 1.918,-1.167c-3.422,-7.662 -4.631,-9.678 -2.212,-14.113c0.371,-0.68 -2.212,0.031 -1.838,-0.725c2.071,-4.178 7.028,-10.585 7.483,-12.178c0.538,-1.882 1.676,-2.618 1.676,-2.618l0,15.325c1.439,-0.258 2.786,-0.71 5.108,0.915c1.38,0.442 2.57,0.879 3.599,1.313c0.67,0.281 3.818,0.011 4.361,0.29c7.442,3.831 1.155,8.023 7.366,12.808l3.965,-3.126c1.597,-2.547 5.901,-2.495 9.298,-3.506c2.589,-0.77 1.704,-3.863 4.892,-4.725l5.763,-2.227l1.625,-4.296c-0.489,-1.368 -0.424,-2.744 1.91,-4.154c0.586,0.424 1.04,1.66 1.516,1.284c1.15,-0.91 0.484,0.521 0.685,0.784c1.153,1.507 1.414,3.057 0.997,4.64c3.435,-4.107 4.415,-5.117 7.045,-6.695c1.078,-0.647 2.155,0.062 3.776,0.057c0.821,-0.002 1.43,-0.893 2.327,-1.147c0.698,-0.198 1.723,0.251 2.178,0.122c0.902,-0.255 0.306,-1.397 0.876,-1.83c1.052,-0.799 3.031,-0.905 4.232,-0.724c0.005,-0.566 -1.712,-1.456 -1.709,-2.023c0.008,-1.368 1.578,-1.739 1.709,-3.085c0.467,-4.783 0.007,-10.452 0,-15.326Z" style="fill:#426433;"/><clipPath id="_clip8"><path d="M81.597,51.725c0,0 9.856,8.577 8.777,14.605c-1.079,6.029 -3.229,13.233 -7.853,14.309c-1.72,0.4 0.847,2.21 -2.512,4.143c-0.177,0.101 -0.635,2.32 -0.823,2.422c-1.408,0.769 -16.227,7.244 -18.023,7.837c-5.677,1.875 0.863,-2.886 0,-2.448c-1.868,0.949 -9.278,-1.076 -18.368,4.076c-0.9,0.51 6.362,-0.801 5.508,-0.289c-7.774,4.667 -21.894,10.899 -28.008,8.235c-5.758,-2.51 -13.904,-2.61 -17.244,-6.763c-0.595,-0.741 2.436,-0.007 1.918,-1.167c-3.422,-7.662 -4.631,-9.678 -2.212,-14.113c0.371,-0.68 -2.212,0.031 -1.838,-0.725c2.071,-4.178 7.028,-10.585 7.483,-12.178c0.538,-1.882 1.676,-2.618 1.676,-2.618l0,15.325c1.439,-0.258 2.786,-0.71 5.108,0.915c1.38,0.442 2.57,0.879 3.599,1.313c0.67,0.281 3.818,0.011 4.361,0.29c7.442,3.831 1.155,8.023 7.366,12.808l3.965,-3.126c1.597,-2.547 5.901,-2.495 9.298,-3.506c2.589,-0.77 1.704,-3.863 4.892,-4.725l5.763,-2.227l1.625,-4.296c-0.489,-1.368 -0.424,-2.744 1.91,-4.154c0.586,0.424 1.04,1.66 1.516,1.284c1.15,-0.91 0.484,0.521 0.685,0.784c1.153,1.507 1.414,3.057 0.997,4.64c3.435,-4.107 4.415,-5.117 7.045,-6.695c1.078,-0.647 2.155,0.062 3.776,0.057c0.821,-0.002 1.43,-0.893 2.327,-1.147c0.698,-0.198 1.723,0.251 2.178,0.122c0.902,-0.255 0.306,-1.397 0.876,-1.83c1.052,-0.799 3.031,-0.905 4.232,-0.724c0.005,-0.566 -1.712,-1.456 -1.709,-2.023c0.008,-1.368 1.578,-1.739 1.709,-3.085c0.467,-4.783 0.007,-10.452 0,-15.326Z"/></clipPath><g clip-path="url(#_clip8)"><path d="M84.66,46.17l19.321,40.312l-81.441,30.799l53.134,-50.061l3.663,-22.266l5.323,1.216Z" style="fill:#c4e783;fill-opacity:0.5;"/><path d="M91.814,56.833c0.018,-1.107 -5.108,2.555 -5.108,2.555l-1.934,6.075l0.416,3.383l0.242,5.229l-1.007,1.779c0,0 1.052,0.274 -2.826,1.414c-3.878,1.139 -7.243,1.486 -7.243,1.486l-2.974,0.661l-2.363,1.78l-2.745,3.735l-5.109,2.555l-1.609,-0.805l1.609,-4.304l-2.724,-1.362l-0.834,4.692l0.672,0.336l-2.222,2.11l-5.109,1.344l-3.041,-0.491l-2.067,4.019l-5.109,-0.431l-1.763,0.881c0,0 0.222,0.841 -2.102,2.295c-2.323,1.455 -1.595,1.007 -4.395,2.911c-2.8,1.904 -4.664,2.777 -4.664,2.777c0,0 -1.458,6.016 -2.402,0.976c-0.943,-5.041 2.792,-3.361 0,-5.545c-2.791,-2.184 0.323,-2.195 -2.41,-2.946c-2.733,-0.75 -6.328,-0.031 -7.807,1.205c-1.478,1.237 0.073,4.843 -1.879,0.94c-1.951,-3.903 -2.491,-3.903 -3.229,-6.591c-0.738,-2.688 -1.332,-2.677 -1.332,-2.677l-1.21,-0.605l-2.567,-1.284c0,0 -1.178,1.206 0,-1.483c1.178,-2.688 5.375,-1.538 0,-3.625c-5.374,-2.087 -6.549,-2.589 -9.07,-0.574c-2.52,2.015 -4.287,-5.036 -3.404,9.662c0.884,14.699 -12.459,17.358 5.805,23.337c18.264,5.978 13.398,8.655 32.212,5.889c18.814,-2.767 20.479,-2.431 30.651,-7.807c10.172,-5.376 11.476,1.089 21.912,-11.888c10.437,-12.977 10.37,-9.812 13.848,-18.619c3.478,-8.807 7.915,-10.991 5.108,-14.184c-2.806,-3.192 -10.235,-7.697 -10.217,-8.805Z" style="fill:#9fb366;"/><clipPath id="_clip9"><path d="M91.814,56.833c0.018,-1.107 -5.108,2.555 -5.108,2.555l-1.934,6.075l0.416,3.383l0.242,5.229l-1.007,1.779c0,0 1.052,0.274 -2.826,1.414c-3.878,1.139 -7.243,1.486 -7.243,1.486l-2.974,0.661l-2.363,1.78l-2.745,3.735l-5.109,2.555l-1.609,-0.805l1.609,-4.304l-2.724,-1.362l-0.834,4.692l0.672,0.336l-2.222,2.11l-5.109,1.344l-3.041,-0.491l-2.067,4.019l-5.109,-0.431l-1.763,0.881c0,0 0.222,0.841 -2.102,2.295c-2.323,1.455 -1.595,1.007 -4.395,2.911c-2.8,1.904 -4.664,2.777 -4.664,2.777c0,0 -1.458,6.016 -2.402,0.976c-0.943,-5.041 2.792,-3.361 0,-5.545c-2.791,-2.184 0.323,-2.195 -2.41,-2.946c-2.733,-0.75 -6.328,-0.031 -7.807,1.205c-1.478,1.237 0.073,4.843 -1.879,0.94c-1.951,-3.903 -2.491,-3.903 -3.229,-6.591c-0.738,-2.688 -1.332,-2.677 -1.332,-2.677l-1.21,-0.605l-2.567,-1.284c0,0 -1.178,1.206 0,-1.483c1.178,-2.688 5.375,-1.538 0,-3.625c-5.374,-2.087 -6.549,-2.589 -9.07,-0.574c-2.52,2.015 -4.287,-5.036 -3.404,9.662c0.884,14.699 -12.459,17.358 5.805,23.337c18.264,5.978 13.398,8.655 32.212,5.889c18.814,-2.767 20.479,-2.431 30.651,-7.807c10.172,-5.376 11.476,1.089 21.912,-11.888c10.437,-12.977 10.37,-9.812 13.848,-18.619c3.478,-8.807 7.915,-10.991 5.108,-14.184c-2.806,-3.192 -10.235,-7.697 -10.217,-8.805Z"/></clipPath><g clip-path="url(#_clip9)"><path d="M84.66,46.17l19.321,40.312l-81.441,30.799l53.134,-50.061l3.663,-22.266l5.323,1.216Z" style="fill:#c4e783;fill-opacity:0.5;"/></g><path d="M21.181,75.733l-19.492,33.588l-12.86,-32.779c0,0 18.887,-21.303 20.434,-19.585c1.548,1.718 11.918,18.776 11.918,18.776Z" style="fill-opacity:0.5;"/></g></g><g><path d="M62.082,57.018l9.948,12.458l-4.348,-1.274l-12.119,-9.902l6.519,-1.282Z" style="fill:#574052;"/><path d="M53.995,58.659l13.867,-15.941l6.083,-0.138l-10.988,15.699l-8.962,0.38Z" style="fill:#574052;"/><path d="M54.03,36.611l1.65,-1.732l18.272,7.657l-7.559,0.788l-12.363,-6.713Z" style="fill:#574052;"/><path d="M57.222,64.673l-3.645,-2.965l-8.161,10.911l5.189,3.011l6.617,-10.957Z" style="fill:#574052;"/><path d="M40.977,76.538l6.159,-2.81l3.313,1.937l-4.813,2.65l-4.659,-1.777Z" style="fill:none;"/><path d="M63.52,70.216l4.002,1.649l4.535,-2.321l-4.16,-1.166l-4.377,1.838Z" style="fill:none;"/><path d="M53.998,62.14l9.523,8.067l4.57,-1.934l-9.695,-9.81l10.371,-15.391l-14.79,-6.375l-12.277,15.811l7.563,6.49l-8.294,17.514l6.296,-2.837l6.733,-11.535Z" style="fill:#c3454a;"/><g><path d="M55.881,43.13l6.423,3.896l-4.689,7.106l-6.668,-4.761l4.934,-6.241Z" style="fill:#f6d7d0;"/><path d="M55.9,43.12l-3.553,0.146l-5.289,6.24l4.006,-0.218l4.836,-6.168Z" style="fill:#6c7157;"/><path d="M47.081,49.517l3.88,-0.156l6.577,4.768l-4.525,-0.078l-5.932,-4.534Z" style="fill:#574052;"/></g></g><path d="M82.122,26.681c0,0 -6.097,-4.752 -7.042,-4.831c-0.946,-0.079 -6.989,-3.389 -8.893,-0.473c-1.905,2.916 -3.56,2.681 -4.073,5.518c-0.512,2.837 0.04,4.886 0.434,6.541c0.394,1.655 -2.601,1.418 -2.601,-0.473c0,-1.892 -4.728,-2.443 -4.728,-2.443c0,0 -1.734,0 -2.05,0.709c-0.315,0.709 -0.709,1.025 -1.655,1.813c-0.945,0.788 -1.024,1.261 -2.285,0.709c-1.261,-0.552 -4.966,-2.364 -5.675,-2.049c-0.709,0.315 -1.879,1.734 -2.91,3.152c-1.031,1.419 -0.465,0.13 -0.984,1.248c-0.519,1.117 -3.12,5.215 -3.12,5.215c0,0 0.435,4.256 -1.004,3.547c-1.44,-0.71 -3.252,-3.074 -3.252,-3.074l-1.857,-2.916c0,0 -2.714,-0.394 -3.187,0.236c-0.473,0.631 -2.678,2.764 -5.319,1.737c-2.641,-1.027 -1.617,0.313 -2.878,-1.815c-1.261,-2.128 -2.918,-4.074 -3.942,-4.993c-1.023,-0.918 -2.699,-1.349 -2.699,-1.349l-2.409,-3.274c0,0 -1.431,-0.313 -1.195,-2.442c0.236,-2.129 -0.053,-2.602 1.195,-3.153c1.248,-0.552 1.797,-1.337 2.744,-1.181c0.947,0.156 0.63,0.392 2.364,-0.632c1.735,-1.025 1.578,-0.552 2.287,-1.34c0.709,-0.788 0,-0.158 1.813,-0.946c1.812,-0.788 1.655,-0.394 2.995,-1.497c1.339,-1.104 1.024,-1.104 1.891,-1.734c0.867,-0.631 -1.714,-0.867 1.231,-1.182c2.946,-0.316 5.109,-0.158 5.109,-0.158c0,0 2.251,0.158 3.748,1.025c1.498,0.867 2.58,1.928 2.58,1.928c0,0 2.07,-0.51 2.543,0.278c0.473,0.789 1.034,2.699 2.369,2.374c1.335,-0.324 1.572,-0.482 3.069,-0.246c1.498,0.237 3.074,0.473 3.074,0.473c0,0 0.283,0.38 0.812,-0.835c0.528,-1.214 0.686,1.229 0.528,-1.687c-0.158,-2.916 -1.34,-2.443 0.394,-4.965c1.734,-2.522 4.655,-0.648 6.426,0.109c1.771,0.758 -2.682,1.861 4.115,2.058c6.798,0.197 6.416,0.33 8.065,-1.076c1.649,-1.406 1.255,-0.066 0.152,-3.298c-1.104,-3.231 -0.211,-1.88 -2.115,-2.792c-1.905,-0.912 1.627,-1.907 -2.898,-1.449c-4.524,0.458 -3.935,1.084 -6.2,0.889c-2.265,-0.194 -2.426,-2 -4.355,-1.058c-1.929,0.942 -2.055,-0.039 -3.742,0.942c-1.771,1.031 -3.496,0.653 -2.336,0.224c1.16,-0.429 3.913,-3.613 6.435,-4.874c2.522,-1.261 3.546,-1.497 4.728,-1.97c1.183,-0.473 3.259,-1.025 3.259,-1.025c0,0 1.785,0.079 2.968,0.867c1.182,0.789 0.105,0.867 2.141,1.577c2.036,0.709 8.656,2.916 9.444,3.073c0.788,0.158 2.316,1.636 2.852,1.764c0.537,0.128 2.415,1.047 3.998,3.11c1.583,2.062 2,0.058 1.792,4.212c-0.209,4.155 -0.524,7.859 -0.524,9.042c0,1.182 -1.627,2.86 -1.627,2.86Z" style="fill:#426433;"/><clipPath id="_clip10"><path d="M82.122,26.681c0,0 -6.097,-4.752 -7.042,-4.831c-0.946,-0.079 -6.989,-3.389 -8.893,-0.473c-1.905,2.916 -3.56,2.681 -4.073,5.518c-0.512,2.837 0.04,4.886 0.434,6.541c0.394,1.655 -2.601,1.418 -2.601,-0.473c0,-1.892 -4.728,-2.443 -4.728,-2.443c0,0 -1.734,0 -2.05,0.709c-0.315,0.709 -0.709,1.025 -1.655,1.813c-0.945,0.788 -1.024,1.261 -2.285,0.709c-1.261,-0.552 -4.966,-2.364 -5.675,-2.049c-0.709,0.315 -1.879,1.734 -2.91,3.152c-1.031,1.419 -0.465,0.13 -0.984,1.248c-0.519,1.117 -3.12,5.215 -3.12,5.215c0,0 0.435,4.256 -1.004,3.547c-1.44,-0.71 -3.252,-3.074 -3.252,-3.074l-1.857,-2.916c0,0 -2.714,-0.394 -3.187,0.236c-0.473,0.631 -2.678,2.764 -5.319,1.737c-2.641,-1.027 -1.617,0.313 -2.878,-1.815c-1.261,-2.128 -2.918,-4.074 -3.942,-4.993c-1.023,-0.918 -2.699,-1.349 -2.699,-1.349l-2.409,-3.274c0,0 -1.431,-0.313 -1.195,-2.442c0.236,-2.129 -0.053,-2.602 1.195,-3.153c1.248,-0.552 1.797,-1.337 2.744,-1.181c0.947,0.156 0.63,0.392 2.364,-0.632c1.735,-1.025 1.578,-0.552 2.287,-1.34c0.709,-0.788 0,-0.158 1.813,-0.946c1.812,-0.788 1.655,-0.394 2.995,-1.497c1.339,-1.104 1.024,-1.104 1.891,-1.734c0.867,-0.631 -1.714,-0.867 1.231,-1.182c2.946,-0.316 5.109,-0.158 5.109,-0.158c0,0 2.251,0.158 3.748,1.025c1.498,0.867 2.58,1.928 2.58,1.928c0,0 2.07,-0.51 2.543,0.278c0.473,0.789 1.034,2.699 2.369,2.374c1.335,-0.324 1.572,-0.482 3.069,-0.246c1.498,0.237 3.074,0.473 3.074,0.473c0,0 0.283,0.38 0.812,-0.835c0.528,-1.214 0.686,1.229 0.528,-1.687c-0.158,-2.916 -1.34,-2.443 0.394,-4.965c1.734,-2.522 4.655,-0.648 6.426,0.109c1.771,0.758 -2.682,1.861 4.115,2.058c6.798,0.197 6.416,0.33 8.065,-1.076c1.649,-1.406 1.255,-0.066 0.152,-3.298c-1.104,-3.231 -0.211,-1.88 -2.115,-2.792c-1.905,-0.912 1.627,-1.907 -2.898,-1.449c-4.524,0.458 -3.935,1.084 -6.2,0.889c-2.265,-0.194 -2.426,-2 -4.355,-1.058c-1.929,0.942 -2.055,-0.039 -3.742,0.942c-1.771,1.031 -3.496,0.653 -2.336,0.224c1.16,-0.429 3.913,-3.613 6.435,-4.874c2.522,-1.261 3.546,-1.497 4.728,-1.97c1.183,-0.473 3.259,-1.025 3.259,-1.025c0,0 1.785,0.079 2.968,0.867c1.182,0.789 0.105,0.867 2.141,1.577c2.036,0.709 8.656,2.916 9.444,3.073c0.788,0.158 2.316,1.636 2.852,1.764c0.537,0.128 2.415,1.047 3.998,3.11c1.583,2.062 2,0.058 1.792,4.212c-0.209,4.155 -0.524,7.859 -0.524,9.042c0,1.182 -1.627,2.86 -1.627,2.86Z"/></clipPath><g clip-path="url(#_clip10)"><path d="M72.246,42.178l19.483,-20.034c3.402,-19.582 -11.634,-25.792 -37.021,-24.495l-19.172,12.95l38.178,16.987c-2.69,2.678 4.925,-1.859 -8.659,8.962l-37.707,-23.957l-17.355,10.653l32.901,19.583l29.352,-0.649" style="fill:#c4e783;fill-opacity:0.5;"/><path d="M71.295,0.834c0.684,-0.524 0.178,6.742 0,7.604c-0.178,0.862 -0.807,2.832 0,3.817c0.807,0.985 2.778,1.971 3.27,3.448c0.493,1.478 4.509,1.327 -0.147,2.018c-4.656,0.692 -7.127,0.432 -8.231,0.993c-1.104,0.561 1.081,-3.69 -1.797,0.898c-2.878,4.588 -2.404,3.147 -4.673,6.084c-2.269,2.938 0.686,5.502 -3.747,3.235c-4.433,-2.268 -4.81,-2.159 -6.161,-2.028c-1.351,0.13 0.341,-0.057 -1.675,0.837c-2.016,0.894 -0.784,0.524 -5.094,1.386c-4.31,0.862 -4.668,-1.378 -5.167,0.974c-0.498,2.351 3.189,-1.973 -0.625,3.083c-3.814,5.056 -3.257,5.913 -5.629,4.007c-2.372,-1.906 -2.16,-0.976 -3.005,-1.503c-0.844,-0.526 -1.56,0.336 -3.296,-0.526c-1.735,-0.863 -1.671,-0.129 -2.073,-2.158c-0.401,-2.029 0.309,-0.239 -1.216,-2.427c-1.525,-2.189 -1.819,-4.199 -1.819,-4.199c0,0 -3.647,-2.915 1.649,-2.915c5.295,0 4.578,-0.941 5.86,-0.84c1.282,0.101 -1.777,-1.208 2.708,-1.354c4.485,-0.146 4.457,4.846 6.872,1.673c2.416,-3.174 3.345,-4.652 3.345,-4.652c0,0 1.713,-2.082 2.916,-0.671c1.204,1.41 1.088,0.918 2.193,2.396c1.104,1.477 -0.62,1.108 1.351,1.847c1.97,0.739 3.479,-0.432 5.126,0.091c1.647,0.524 4.355,1.51 3.74,-0.461c-0.616,-1.97 0,-2.777 0,-2.777l-2.731,-1.366l2.731,-0.413l3.175,0.191c0,0 -0.191,-0.124 2.935,-0.466c3.126,-0.341 5.34,-3.671 5.34,-3.671c0,0 -0.499,0.867 -1.233,-1.719c-0.735,-2.586 -1.079,-3.744 -3.124,-4.335c-2.044,-0.591 -7.093,-0.591 -7.093,-0.591c0,0 -4.311,-2.956 0,-2.956c4.31,0.001 7.389,0.124 7.389,0.124c0,0 0.121,-0.004 1.6,0.49c1.478,0.495 4.039,-2.019 4.039,-2.019c0,0 1.613,-0.625 2.297,-1.149Z" style="fill:#9fb366;"/><clipPath id="_clip11"><path d="M71.295,0.834c0.684,-0.524 0.178,6.742 0,7.604c-0.178,0.862 -0.807,2.832 0,3.817c0.807,0.985 2.778,1.971 3.27,3.448c0.493,1.478 4.509,1.327 -0.147,2.018c-4.656,0.692 -7.127,0.432 -8.231,0.993c-1.104,0.561 1.081,-3.69 -1.797,0.898c-2.878,4.588 -2.404,3.147 -4.673,6.084c-2.269,2.938 0.686,5.502 -3.747,3.235c-4.433,-2.268 -4.81,-2.159 -6.161,-2.028c-1.351,0.13 0.341,-0.057 -1.675,0.837c-2.016,0.894 -0.784,0.524 -5.094,1.386c-4.31,0.862 -4.668,-1.378 -5.167,0.974c-0.498,2.351 3.189,-1.973 -0.625,3.083c-3.814,5.056 -3.257,5.913 -5.629,4.007c-2.372,-1.906 -2.16,-0.976 -3.005,-1.503c-0.844,-0.526 -1.56,0.336 -3.296,-0.526c-1.735,-0.863 -1.671,-0.129 -2.073,-2.158c-0.401,-2.029 0.309,-0.239 -1.216,-2.427c-1.525,-2.189 -1.819,-4.199 -1.819,-4.199c0,0 -3.647,-2.915 1.649,-2.915c5.295,0 4.578,-0.941 5.86,-0.84c1.282,0.101 -1.777,-1.208 2.708,-1.354c4.485,-0.146 4.457,4.846 6.872,1.673c2.416,-3.174 3.345,-4.652 3.345,-4.652c0,0 1.713,-2.082 2.916,-0.671c1.204,1.41 1.088,0.918 2.193,2.396c1.104,1.477 -0.62,1.108 1.351,1.847c1.97,0.739 3.479,-0.432 5.126,0.091c1.647,0.524 4.355,1.51 3.74,-0.461c-0.616,-1.97 0,-2.777 0,-2.777l-2.731,-1.366l2.731,-0.413l3.175,0.191c0,0 -0.191,-0.124 2.935,-0.466c3.126,-0.341 5.34,-3.671 5.34,-3.671c0,0 -0.499,0.867 -1.233,-1.719c-0.735,-2.586 -1.079,-3.744 -3.124,-4.335c-2.044,-0.591 -7.093,-0.591 -7.093,-0.591c0,0 -4.311,-2.956 0,-2.956c4.31,0.001 7.389,0.124 7.389,0.124c0,0 0.121,-0.004 1.6,0.49c1.478,0.495 4.039,-2.019 4.039,-2.019c0,0 1.613,-0.625 2.297,-1.149Z"/></clipPath><g clip-path="url(#_clip11)"><path d="M72.246,42.178l19.483,-20.034c3.402,-19.582 -11.634,-25.792 -37.021,-24.495l-19.172,12.95l38.178,16.987c-2.69,2.678 4.925,-1.859 -8.659,8.962l-37.707,-23.957l-17.355,10.653l32.901,19.583l29.352,-0.649" style="fill:#c4e783;fill-opacity:0.5;"/></g><path d="M35.536,14.974l35.759,15.709l-5.108,3.356l-32.308,-18.634l1.657,-0.431Z" style="fill-opacity:0.5;"/></g></g></svg>