<?xml version="1.0" encoding="UTF-8" standalone="no"?><!DOCTYPE svg PUBLIC "-//W3C//DTD SVG 1.1//EN" "http://www.w3.org/Graphics/SVG/1.1/DTD/svg11.dtd"><svg width="100%" height="100%" viewBox="0 0 82 79" version="1.1" xmlns="http://www.w3.org/2000/svg" xmlns:xlink="http://www.w3.org/1999/xlink" xml:space="preserve" xmlns:serif="http://www.serif.com/" style="fill-rule:evenodd;clip-rule:evenodd;stroke-linejoin:round;stroke-miterlimit:1.41421;"><g id="X_Runestone_4"><g><g><path d="M62.148,2.185l19.823,0.305l-20.434,5.109l-23.436,-6.609l24.047,1.195Z" style="fill:#9da8c9;"/><clipPath id="_clip1"><path d="M62.148,2.185l19.823,0.305l-20.434,5.109l-23.436,-6.609l24.047,1.195Z"/></clipPath><g clip-path="url(#_clip1)"><path d="M38.175,1.027l23.362,4.146l20.434,-2.683l-18.32,6.166l-2.114,2.453l2.952,2.236l-5.594,0.683l-2.467,2.242l-5.108,-3.563l-0.889,5.553l-17.598,-3.367l5.248,17.549l-3.954,9.296l0.943,6.876l6.033,20.287l-2.082,4.068l0.641,5.429l-24.102,-6.942l20.434,3.566l-1.612,-1.806l-23.93,-19.64l24.704,14.65l1.548,-0.258l-26.252,-19.501l25.542,15.028l-5.108,-7.139l-1.407,-6.28l-13.919,-9.272l12.442,3.996l-1.19,-2.552l-13.152,-7.502l1.9,-0.498l13.919,6.968l0.344,-1.118l-13.931,-5.684l14.501,3.59l3.571,-6.401l-33.729,-8.679l32.759,4.055l-2.108,-2.33l-5.109,-1.239l0,-5.23l5.109,-1.514l1.698,1.999l-0.177,1.402l-3.876,-0.071l4.299,3.277l0.669,0.493l-1.109,-3.583l0.15,-1.17l-0.431,-0.907l-1.725,-2.127l-0.595,-2.723l-4.012,-3.103l7.516,1.812l12.133,1.516l0.088,-1.717l-9.52,-6.719l17.295,6.678l0.505,-1.105l3.947,1.146l0.78,-2.657l-20.346,-8.08Z" style="fill:#f6d7d0;fill-opacity:0.9;"/></g><path d="M61.537,68.901l-5.109,-2.554l10.217,-15.326l5.871,4.8l-3.316,6.695l-7.663,6.385Z" style="fill:#6c7157;"/><clipPath id="_clip2"><path d="M61.537,68.901l-5.109,-2.554l10.217,-15.326l5.871,4.8l-3.316,6.695l-7.663,6.385Z"/></clipPath><g clip-path="url(#_clip2)"><path d="M38.175,1.027l23.362,4.146l20.434,-2.683l-18.32,6.166l-2.114,2.453l2.952,2.236l-5.594,0.683l-2.467,2.242l-5.108,-3.563l-0.889,5.553l-17.598,-3.367l5.248,17.549l-3.954,9.296l0.943,6.876l6.033,20.287l-2.082,4.068l0.641,5.429l-24.102,-6.942l20.434,3.566l-1.612,-1.806l-23.93,-19.64l24.704,14.65l1.548,-0.258l-26.252,-19.501l25.542,15.028l-5.108,-7.139l-1.407,-6.28l-13.919,-9.272l12.442,3.996l-1.19,-2.552l-13.152,-7.502l1.9,-0.498l13.919,6.968l0.344,-1.118l-13.931,-5.684l14.501,3.59l3.571,-6.401l-33.729,-8.679l32.759,4.055l-2.108,-2.33l-5.109,-1.239l0,-5.23l5.109,-1.514l1.698,1.999l-0.177,1.402l-3.876,-0.071l4.299,3.277l0.669,0.493l-1.109,-3.583l0.15,-1.17l-0.431,-0.907l-1.725,-2.127l-0.595,-2.723l-4.012,-3.103l7.516,1.812l12.133,1.516l0.088,-1.717l-9.52,-6.719l17.295,6.678l0.505,-1.105l3.947,1.146l0.78,-2.657l-20.346,-8.08Z" style="fill:#f6d7d0;fill-opacity:0.9;"/></g><path d="M76.862,38.864l-7.795,-4.379l-8.181,4.09l10.868,8.418l5.108,-8.129Z" style="fill:#9da8c9;"/><clipPath id="_clip3"><path d="M76.862,38.864l-7.795,-4.379l-8.181,4.09l10.868,8.418l5.108,-8.129Z"/></clipPath><g clip-path="url(#_clip3)"><path d="M38.175,1.027l23.362,4.146l20.434,-2.683l-18.32,6.166l-2.114,2.453l2.952,2.236l-5.594,0.683l-2.467,2.242l-5.108,-3.563l-0.889,5.553l-17.598,-3.367l5.248,17.549l-3.954,9.296l0.943,6.876l6.033,20.287l-2.082,4.068l0.641,5.429l-24.102,-6.942l20.434,3.566l-1.612,-1.806l-23.93,-19.64l24.704,14.65l1.548,-0.258l-26.252,-19.501l25.542,15.028l-5.108,-7.139l-1.407,-6.28l-13.919,-9.272l12.442,3.996l-1.19,-2.552l-13.152,-7.502l1.9,-0.498l13.919,6.968l0.344,-1.118l-13.931,-5.684l14.501,3.59l3.571,-6.401l-33.729,-8.679l32.759,4.055l-2.108,-2.33l-5.109,-1.239l0,-5.23l5.109,-1.514l1.698,1.999l-0.177,1.402l-3.876,-0.071l4.299,3.277l0.669,0.493l-1.109,-3.583l0.15,-1.17l-0.431,-0.907l-1.725,-2.127l-0.595,-2.723l-4.012,-3.103l7.516,1.812l12.133,1.516l0.088,-1.717l-9.52,-6.719l17.295,6.678l0.505,-1.105l3.947,1.146l0.78,-2.657l-20.346,-8.08Z" style="fill:#f6d7d0;fill-opacity:0.9;"/></g><path d="M35.994,5.045l-10.217,5.108l-25.542,12.771l28.069,3.818l6.39,1.254l11.517,-12.734l5.109,-2.555l-15.326,-7.662Z" style="fill:#9da8c9;"/><clipPath id="_clip4"><path d="M35.994,5.045l-10.217,5.108l-25.542,12.771l28.069,3.818l6.39,1.254l11.517,-12.734l5.109,-2.555l-15.326,-7.662Z"/></clipPath><g clip-path="url(#_clip4)"><path d="M38.175,1.027l23.362,4.146l20.434,-2.683l-18.32,6.166l-2.114,2.453l2.952,2.236l-5.594,0.683l-2.467,2.242l-5.108,-3.563l-0.889,5.553l-17.598,-3.367l5.248,17.549l-3.954,9.296l0.943,6.876l6.033,20.287l-2.082,4.068l0.641,5.429l-24.102,-6.942l20.434,3.566l-1.612,-1.806l-23.93,-19.64l24.704,14.65l1.548,-0.258l-26.252,-19.501l25.542,15.028l-5.108,-7.139l-1.407,-6.28l-13.919,-9.272l12.442,3.996l-1.19,-2.552l-13.152,-7.502l1.9,-0.498l13.919,6.968l0.344,-1.118l-13.931,-5.684l14.501,3.59l3.571,-6.401l-33.729,-8.679l32.759,4.055l-2.108,-2.33l-5.109,-1.239l0,-5.23l5.109,-1.514l1.698,1.999l-0.177,1.402l-3.876,-0.071l4.299,3.277l0.669,0.493l-1.109,-3.583l0.15,-1.17l-0.431,-0.907l-1.725,-2.127l-0.595,-2.723l-4.012,-3.103l7.516,1.812l12.133,1.516l0.088,-1.717l-9.52,-6.719l17.295,6.678l0.505,-1.105l3.947,1.146l0.78,-2.657l-20.346,-8.08Z" style="fill:#f6d7d0;fill-opacity:0.9;"/></g><path d="M81.971,2.49l-20.434,5.109l-10.217,5.108l-5.109,2.555l-15.325,-2.555l-8.822,6.916l6.238,7.118l-14.466,7.033l17.05,14.693l5.108,12.771l-5.108,-2.554l5.108,12.772l3.753,6.985l2.172,-2.841l9.401,-1.59l7.325,-3.663l5.18,-7.698l7.929,-6.635l-5.109,7.346l-5.108,5.541l13.112,-6.556l3.926,-10.467l-3.918,-3.411l2.205,-2.554l2.021,-4.098l-2.021,-3.013l-3.514,3.76l-3.025,1.512l-0.411,-3.678l3.173,-4.803l5.941,-2.04l2.945,-5.52l0,-10.217l-4.124,-9.84l4.124,-5.486Z" style="fill:#bac1d8;"/><clipPath id="_clip5"><path d="M81.971,2.49l-20.434,5.109l-10.217,5.108l-5.109,2.555l-15.325,-2.555l-8.822,6.916l6.238,7.118l-14.466,7.033l17.05,14.693l5.108,12.771l-5.108,-2.554l5.108,12.772l3.753,6.985l2.172,-2.841l9.401,-1.59l7.325,-3.663l5.18,-7.698l7.929,-6.635l-5.109,7.346l-5.108,5.541l13.112,-6.556l3.926,-10.467l-3.918,-3.411l2.205,-2.554l2.021,-4.098l-2.021,-3.013l-3.514,3.76l-3.025,1.512l-0.411,-3.678l3.173,-4.803l5.941,-2.04l2.945,-5.52l0,-10.217l-4.124,-9.84l4.124,-5.486Z"/></clipPath><g clip-path="url(#_clip5)"><path d="M38.175,1.027l23.362,4.146l20.434,-2.683l-18.32,6.166l-2.114,2.453l2.952,2.236l-5.594,0.683l-2.467,2.242l-5.108,-3.563l-0.889,5.553l-17.598,-3.367l5.248,17.549l-3.954,9.296l0.943,6.876l6.033,20.287l-2.082,4.068l0.641,5.429l-24.102,-6.942l20.434,3.566l-1.612,-1.806l-23.93,-19.64l24.704,14.65l1.548,-0.258l-26.252,-19.501l25.542,15.028l-5.108,-7.139l-1.407,-6.28l-13.919,-9.272l12.442,3.996l-1.19,-2.552l-13.152,-7.502l1.9,-0.498l13.919,6.968l0.344,-1.118l-13.931,-5.684l14.501,3.59l3.571,-6.401l-33.729,-8.679l32.759,4.055l-2.108,-2.33l-5.109,-1.239l0,-5.23l5.109,-1.514l1.698,1.999l-0.177,1.402l-3.876,-0.071l4.299,3.277l0.669,0.493l-1.109,-3.583l0.15,-1.17l-0.431,-0.907l-1.725,-2.127l-0.595,-2.723l-4.012,-3.103l7.516,1.812l12.133,1.516l0.088,-1.717l-9.52,-6.719l17.295,6.678l0.505,-1.105l3.947,1.146l0.78,-2.657l-20.346,-8.08Z" style="fill:#f6d7d0;fill-opacity:0.9;"/></g><path d="M32.487,18.617l1.208,5.712l-13.026,0.651l1.894,-9.161l6.492,1.081l3.432,1.717Z" style="fill:#9da8c9;"/><clipPath id="_clip6"><path d="M32.487,18.617l1.208,5.712l-13.026,0.651l1.894,-9.161l6.492,1.081l3.432,1.717Z"/></clipPath><g clip-path="url(#_clip6)"><path d="M38.175,1.027l23.362,4.146l20.434,-2.683l-18.32,6.166l-2.114,2.453l2.952,2.236l-5.594,0.683l-2.467,2.242l-5.108,-3.563l-0.889,5.553l-17.598,-3.367l5.248,17.549l-3.954,9.296l0.943,6.876l6.033,20.287l-2.082,4.068l0.641,5.429l-24.102,-6.942l20.434,3.566l-1.612,-1.806l-23.93,-19.64l24.704,14.65l1.548,-0.258l-26.252,-19.501l25.542,15.028l-5.108,-7.139l-1.407,-6.28l-13.919,-9.272l12.442,3.996l-1.19,-2.552l-13.152,-7.502l1.9,-0.498l13.919,6.968l0.344,-1.118l-13.931,-5.684l14.501,3.59l3.571,-6.401l-33.729,-8.679l32.759,4.055l-2.108,-2.33l-5.109,-1.239l0,-5.23l5.109,-1.514l1.698,1.999l-0.177,1.402l-3.876,-0.071l4.299,3.277l0.669,0.493l-1.109,-3.583l0.15,-1.17l-0.431,-0.907l-1.725,-2.127l-0.595,-2.723l-4.012,-3.103l7.516,1.812l12.133,1.516l0.088,-1.717l-9.52,-6.719l17.295,6.678l0.505,-1.105l3.947,1.146l0.78,-2.657l-20.346,-8.08Z" style="fill:#f6d7d0;fill-opacity:0.9;"/></g><path d="M30.886,39.274l0,4.085l-18.262,-6.195l-0.809,-9.812l19.071,11.922Z" style="fill:#6c7157;"/><clipPath id="_clip7"><path d="M30.886,39.274l0,4.085l-18.262,-6.195l-0.809,-9.812l19.071,11.922Z"/></clipPath><g clip-path="url(#_clip7)"><path d="M38.175,1.027l23.362,4.146l20.434,-2.683l-18.32,6.166l-2.114,2.453l2.952,2.236l-5.594,0.683l-2.467,2.242l-5.108,-3.563l-0.889,5.553l-17.598,-3.367l5.248,17.549l-3.954,9.296l0.943,6.876l6.033,20.287l-2.082,4.068l0.641,5.429l-24.102,-6.942l20.434,3.566l-1.612,-1.806l-23.93,-19.64l24.704,14.65l1.548,-0.258l-26.252,-19.501l25.542,15.028l-5.108,-7.139l-1.407,-6.28l-13.919,-9.272l12.442,3.996l-1.19,-2.552l-13.152,-7.502l1.9,-0.498l13.919,6.968l0.344,-1.118l-13.931,-5.684l14.501,3.59l3.571,-6.401l-33.729,-8.679l32.759,4.055l-2.108,-2.33l-5.109,-1.239l0,-5.23l5.109,-1.514l1.698,1.999l-0.177,1.402l-3.876,-0.071l4.299,3.277l0.669,0.493l-1.109,-3.583l0.15,-1.17l-0.431,-0.907l-1.725,-2.127l-0.595,-2.723l-4.012,-3.103l7.516,1.812l12.133,1.516l0.088,-1.717l-9.52,-6.719l17.295,6.678l0.505,-1.105l3.947,1.146l0.78,-2.657l-20.346,-8.08Z" style="fill:#f6d7d0;fill-opacity:0.4;"/></g><path d="M25.777,10.153l5.109,2.554l1.643,5.931l-5.669,0.256l0.752,3.207l6.135,2.254l2.247,6.232l-35.759,-7.663l25.542,-12.771Z" style="fill:#6c7157;"/><clipPath id="_clip8"><path d="M25.777,10.153l5.109,2.554l1.643,5.931l-5.669,0.256l0.752,3.207l6.135,2.254l2.247,6.232l-35.759,-7.663l25.542,-12.771Z"/></clipPath><g clip-path="url(#_clip8)"><path d="M38.175,1.027l23.362,4.146l20.434,-2.683l-18.32,6.166l-2.114,2.453l2.952,2.236l-5.594,0.683l-2.467,2.242l-5.108,-3.563l-0.889,5.553l-17.598,-3.367l5.248,17.549l-3.954,9.296l0.943,6.876l6.033,20.287l-2.082,4.068l0.641,5.429l-24.102,-6.942l20.434,3.566l-1.612,-1.806l-23.93,-19.64l24.704,14.65l1.548,-0.258l-26.252,-19.501l25.542,15.028l-5.108,-7.139l-1.407,-6.28l-13.919,-9.272l12.442,3.996l-1.19,-2.552l-13.152,-7.502l1.9,-0.498l13.919,6.968l0.344,-1.118l-13.931,-5.684l14.501,3.59l3.571,-6.401l-33.729,-8.679l32.759,4.055l-2.108,-2.33l-5.109,-1.239l0,-5.23l5.109,-1.514l1.698,1.999l-0.177,1.402l-3.876,-0.071l4.299,3.277l0.669,0.493l-1.109,-3.583l0.15,-1.17l-0.431,-0.907l-1.725,-2.127l-0.595,-2.723l-4.012,-3.103l7.516,1.812l12.133,1.516l0.088,-1.717l-9.52,-6.719l17.295,6.678l0.505,-1.105l3.947,1.146l0.78,-2.657l-20.346,-8.08Z" style="fill:#f6d7d0;fill-opacity:0.4;"/></g><path d="M0.235,22.924l35.759,7.663l-5.108,8.758l-15.326,-4.866l15.326,8.88l0,5.108l-20.434,-10.217l-5.109,-7.663l-5.108,-7.663Z" style="fill:#574052;"/><clipPath id="_clip9"><path d="M0.235,22.924l35.759,7.663l-5.108,8.758l-15.326,-4.866l15.326,8.88l0,5.108l-20.434,-10.217l-5.109,-7.663l-5.108,-7.663Z"/></clipPath><g clip-path="url(#_clip9)"><path d="M38.175,1.027l23.362,4.146l20.434,-2.683l-18.32,6.166l-2.114,2.453l2.952,2.236l-5.594,0.683l-2.467,2.242l-5.108,-3.563l-0.889,5.553l-17.598,-3.367l5.248,17.549l-3.954,9.296l0.943,6.876l6.033,20.287l-2.082,4.068l0.641,5.429l-24.102,-6.942l20.434,3.566l-1.612,-1.806l-23.93,-19.64l24.704,14.65l1.548,-0.258l-26.252,-19.501l25.542,15.028l-5.108,-7.139l-1.407,-6.28l-13.919,-9.272l12.442,3.996l-1.19,-2.552l-13.152,-7.502l1.9,-0.498l13.919,6.968l0.344,-1.118l-13.931,-5.684l14.501,3.59l3.571,-6.401l-33.729,-8.679l32.759,4.055l-2.108,-2.33l-5.109,-1.239l0,-5.23l5.109,-1.514l1.698,1.999l-0.177,1.402l-3.876,-0.071l4.299,3.277l0.669,0.493l-1.109,-3.583l0.15,-1.17l-0.431,-0.907l-1.725,-2.127l-0.595,-2.723l-4.012,-3.103l7.516,1.812l12.133,1.516l0.088,-1.717l-9.52,-6.719l17.295,6.678l0.505,-1.105l3.947,1.146l0.78,-2.657l-20.346,-8.08Z" style="fill:#f6d7d0;fill-opacity:0.4;"/></g><path d="M39.618,78.376l-24.058,-6.92l-5.108,-17.88l0,-5.109l30.651,20.434l-5.109,2.555l3.624,6.92Z" style="fill:#6c7157;"/><clipPath id="_clip10"><path d="M39.618,78.376l-24.058,-6.92l-5.108,-17.88l0,-5.109l30.651,20.434l-5.109,2.555l3.624,6.92Z"/></clipPath><g clip-path="url(#_clip10)"><path d="M38.175,1.027l23.362,4.146l20.434,-2.683l-18.32,6.166l-2.114,2.453l2.952,2.236l-5.594,0.683l-2.467,2.242l-5.108,-3.563l-0.889,5.553l-17.598,-3.367l5.248,17.549l-3.954,9.296l0.943,6.876l6.033,20.287l-2.082,4.068l0.641,5.429l-24.102,-6.942l20.434,3.566l-1.612,-1.806l-23.93,-19.64l24.704,14.65l1.548,-0.258l-26.252,-19.501l25.542,15.028l-5.108,-7.139l-1.407,-6.28l-13.919,-9.272l12.442,3.996l-1.19,-2.552l-13.152,-7.502l1.9,-0.498l13.919,6.968l0.344,-1.118l-13.931,-5.684l14.501,3.59l3.571,-6.401l-33.729,-8.679l32.759,4.055l-2.108,-2.33l-5.109,-1.239l0,-5.23l5.109,-1.514l1.698,1.999l-0.177,1.402l-3.876,-0.071l4.299,3.277l0.669,0.493l-1.109,-3.583l0.15,-1.17l-0.431,-0.907l-1.725,-2.127l-0.595,-2.723l-4.012,-3.103l7.516,1.812l12.133,1.516l0.088,-1.717l-9.52,-6.719l17.295,6.678l0.505,-1.105l3.947,1.146l0.78,-2.657l-20.346,-8.08Z" style="fill:#f6d7d0;fill-opacity:0.4;"/></g><path d="M10.452,38.25l5.108,2.554l-5.108,7.663l30.651,20.434l-10.217,-20.434l-20.434,-10.217Z" style="fill:#574052;"/><clipPath id="_clip11"><path d="M10.452,38.25l5.108,2.554l-5.108,7.663l30.651,20.434l-10.217,-20.434l-20.434,-10.217Z"/></clipPath><g clip-path="url(#_clip11)"><path d="M38.175,1.027l23.362,4.146l20.434,-2.683l-18.32,6.166l-2.114,2.453l2.952,2.236l-5.594,0.683l-2.467,2.242l-5.108,-3.563l-0.889,5.553l-17.598,-3.367l5.248,17.549l-3.954,9.296l0.943,6.876l6.033,20.287l-2.082,4.068l0.641,5.429l-24.102,-6.942l20.434,3.566l-1.612,-1.806l-23.93,-19.64l24.704,14.65l1.548,-0.258l-26.252,-19.501l25.542,15.028l-5.108,-7.139l-1.407,-6.28l-13.919,-9.272l12.442,3.996l-1.19,-2.552l-13.152,-7.502l1.9,-0.498l13.919,6.968l0.344,-1.118l-13.931,-5.684l14.501,3.59l3.571,-6.401l-33.729,-8.679l32.759,4.055l-2.108,-2.33l-5.109,-1.239l0,-5.23l5.109,-1.514l1.698,1.999l-0.177,1.402l-3.876,-0.071l4.299,3.277l0.669,0.493l-1.109,-3.583l0.15,-1.17l-0.431,-0.907l-1.725,-2.127l-0.595,-2.723l-4.012,-3.103l7.516,1.812l12.133,1.516l0.088,-1.717l-9.52,-6.719l17.295,6.678l0.505,-1.105l3.947,1.146l0.78,-2.657l-20.346,-8.08Z" style="fill:#f6d7d0;fill-opacity:0.4;"/></g><path d="M10.452,53.576l25.542,17.88l3.205,6.71l-23.639,-6.71l-5.108,-17.88Z" style="fill:#574052;"/><clipPath id="_clip12"><path d="M10.452,53.576l25.542,17.88l3.205,6.71l-23.639,-6.71l-5.108,-17.88Z"/></clipPath><g clip-path="url(#_clip12)"><path d="M38.175,1.027l23.362,4.146l20.434,-2.683l-18.32,6.166l-2.114,2.453l2.952,2.236l-5.594,0.683l-2.467,2.242l-5.108,-3.563l-0.889,5.553l-17.598,-3.367l5.248,17.549l-3.954,9.296l0.943,6.876l6.033,20.287l-2.082,4.068l0.641,5.429l-24.102,-6.942l20.434,3.566l-1.612,-1.806l-23.93,-19.64l24.704,14.65l1.548,-0.258l-26.252,-19.501l25.542,15.028l-5.108,-7.139l-1.407,-6.28l-13.919,-9.272l12.442,3.996l-1.19,-2.552l-13.152,-7.502l1.9,-0.498l13.919,6.968l0.344,-1.118l-13.931,-5.684l14.501,3.59l3.571,-6.401l-33.729,-8.679l32.759,4.055l-2.108,-2.33l-5.109,-1.239l0,-5.23l5.109,-1.514l1.698,1.999l-0.177,1.402l-3.876,-0.071l4.299,3.277l0.669,0.493l-1.109,-3.583l0.15,-1.17l-0.431,-0.907l-1.725,-2.127l-0.595,-2.723l-4.012,-3.103l7.516,1.812l12.133,1.516l0.088,-1.717l-9.52,-6.719l17.295,6.678l0.505,-1.105l3.947,1.146l0.78,-2.657l-20.346,-8.08Z" style="fill:#f6d7d0;fill-opacity:0.4;"/></g><path d="M38.123,1l-2.129,4.045l20.434,10.217l0,-2.297l5.974,0.175l-3.32,-1.66l2.455,-3.881l-23.414,-6.599Z" style="fill:#6c7157;"/><clipPath id="_clip13"><path d="M38.123,1l-2.129,4.045l20.434,10.217l0,-2.297l5.974,0.175l-3.32,-1.66l2.455,-3.881l-23.414,-6.599Z"/></clipPath><g clip-path="url(#_clip13)"><path d="M38.175,1.027l23.362,4.146l20.434,-2.683l-18.32,6.166l-2.114,2.453l2.952,2.236l-5.594,0.683l-2.467,2.242l-5.108,-3.563l-0.889,5.553l-17.598,-3.367l5.248,17.549l-3.954,9.296l0.943,6.876l6.033,20.287l-2.082,4.068l0.641,5.429l-24.102,-6.942l20.434,3.566l-1.612,-1.806l-23.93,-19.64l24.704,14.65l1.548,-0.258l-26.252,-19.501l25.542,15.028l-5.108,-7.139l-1.407,-6.28l-13.919,-9.272l12.442,3.996l-1.19,-2.552l-13.152,-7.502l1.9,-0.498l13.919,6.968l0.344,-1.118l-13.931,-5.684l14.501,3.59l3.571,-6.401l-33.729,-8.679l32.759,4.055l-2.108,-2.33l-5.109,-1.239l0,-5.23l5.109,-1.514l1.698,1.999l-0.177,1.402l-3.876,-0.071l4.299,3.277l0.669,0.493l-1.109,-3.583l0.15,-1.17l-0.431,-0.907l-1.725,-2.127l-0.595,-2.723l-4.012,-3.103l7.516,1.812l12.133,1.516l0.088,-1.717l-9.52,-6.719l17.295,6.678l0.505,-1.105l3.947,1.146l0.78,-2.657l-20.346,-8.08Z" style="fill:#f6d7d0;fill-opacity:0.9;"/></g></g></g><g><path d="M61.972,41.708l9.947,12.458l-4.348,-1.274l-12.118,-9.902l6.519,-1.282Z" style="fill:#574052;"/><path d="M53.884,43.349l13.868,-15.941l6.083,-0.138l-10.989,15.699l-8.962,0.38Z" style="fill:#574052;"/><path d="M53.919,21.301l1.65,-1.733l18.273,7.657l-7.559,0.789l-12.364,-6.713Z" style="fill:#574052;"/><path d="M57.112,49.363l-3.645,-2.965l-8.162,10.911l5.189,3.011l6.618,-10.957Z" style="fill:#574052;"/><path d="M40.867,61.228l6.158,-2.81l3.313,1.937l-4.812,2.65l-4.659,-1.777Z" style="fill:none;"/><path d="M63.409,54.906l4.002,1.649l4.535,-2.322l-4.159,-1.165l-4.378,1.838Z" style="fill:none;"/><path d="M53.887,46.83l9.524,8.067l4.57,-1.934l-9.696,-9.81l10.371,-15.392l-14.789,-6.374l-12.277,15.811l7.562,6.49l-8.294,17.514l6.297,-2.837l6.732,-11.535Z" style="fill:#c3454a;"/><g><path d="M55.771,27.819l6.422,3.896l-4.688,7.107l-6.669,-4.761l4.935,-6.242Z" style="fill:#f6d7d0;"/><path d="M55.789,27.81l-3.553,0.145l-5.289,6.241l4.006,-0.218l4.836,-6.168Z" style="fill:#6c7157;"/><path d="M46.97,34.207l3.881,-0.157l6.576,4.769l-4.525,-0.078l-5.932,-4.534Z" style="fill:#574052;"/></g></g></g></svg>