<?xml version="1.0" encoding="UTF-8" standalone="no"?><!DOCTYPE svg PUBLIC "-//W3C//DTD SVG 1.1//EN" "http://www.w3.org/Graphics/SVG/1.1/DTD/svg11.dtd"><svg width="100%" height="100%" viewBox="0 0 91 89" version="1.1" xmlns="http://www.w3.org/2000/svg" xmlns:xlink="http://www.w3.org/1999/xlink" xml:space="preserve" xmlns:serif="http://www.serif.com/" style="fill-rule:evenodd;clip-rule:evenodd;stroke-linejoin:round;stroke-miterlimit:1.41421;"><g id="X_Runestone_mossy_4"><g id="F_Runestone_grass_runes_4"><g id="F_Runestone_runes_4"><g><g><path d="M69.993,5.414l19.822,0.306l-20.434,5.109l-23.436,-6.61l24.048,1.195Z" style="fill:#9da8c9;"/><clipPath id="_clip1"><path d="M69.993,5.414l19.822,0.306l-20.434,5.109l-23.436,-6.61l24.048,1.195Z"/></clipPath><g clip-path="url(#_clip1)"><path d="M46.019,4.256l23.362,4.147l20.434,-2.683l-18.32,6.166l-2.114,2.452l2.952,2.237l-5.594,0.683l-2.467,2.241l-5.108,-3.562l-0.889,5.553l-17.598,-3.367l5.248,17.548l-3.954,9.297l0.943,6.875l6.033,20.288l-2.082,4.068l0.641,5.428l-24.102,-6.942l20.434,3.567l-1.612,-1.807l-23.93,-19.64l24.704,14.651l1.548,-0.258l-26.252,-19.501l25.542,15.028l-5.108,-7.14l-1.407,-6.279l-13.919,-9.272l12.442,3.996l-1.19,-2.552l-13.152,-7.503l1.9,-0.497l13.919,6.968l0.344,-1.119l-13.931,-5.683l14.501,3.589l3.571,-6.401l-33.729,-8.678l32.759,4.055l-2.108,-2.33l-5.109,-1.239l0,-5.23l5.109,-1.514l1.698,1.999l-0.177,1.402l-3.876,-0.071l4.299,3.277l0.669,0.493l-1.109,-3.583l0.15,-1.17l-0.431,-0.907l-1.724,-2.127l-0.595,-2.724l-4.013,-3.102l7.516,1.812l12.133,1.516l0.088,-1.718l-9.52,-6.719l17.295,6.678l0.505,-1.104l3.947,1.145l0.781,-2.657l-20.347,-8.08Z" style="fill:#f6d7d0;fill-opacity:0.9;"/></g><path d="M69.381,72.131l-5.109,-2.554l10.217,-15.326l5.871,4.8l-3.315,6.695l-7.664,6.385Z" style="fill:#6c7157;"/><clipPath id="_clip2"><path d="M69.381,72.131l-5.109,-2.554l10.217,-15.326l5.871,4.8l-3.315,6.695l-7.664,6.385Z"/></clipPath><g clip-path="url(#_clip2)"><path d="M46.019,4.256l23.362,4.147l20.434,-2.683l-18.32,6.166l-2.114,2.452l2.952,2.237l-5.594,0.683l-2.467,2.241l-5.108,-3.562l-0.889,5.553l-17.598,-3.367l5.248,17.548l-3.954,9.297l0.943,6.875l6.033,20.288l-2.082,4.068l0.641,5.428l-24.102,-6.942l20.434,3.567l-1.612,-1.807l-23.93,-19.64l24.704,14.651l1.548,-0.258l-26.252,-19.501l25.542,15.028l-5.108,-7.14l-1.407,-6.279l-13.919,-9.272l12.442,3.996l-1.19,-2.552l-13.152,-7.503l1.9,-0.497l13.919,6.968l0.344,-1.119l-13.931,-5.683l14.501,3.589l3.571,-6.401l-33.729,-8.678l32.759,4.055l-2.108,-2.33l-5.109,-1.239l0,-5.23l5.109,-1.514l1.698,1.999l-0.177,1.402l-3.876,-0.071l4.299,3.277l0.669,0.493l-1.109,-3.583l0.15,-1.17l-0.431,-0.907l-1.724,-2.127l-0.595,-2.724l-4.013,-3.102l7.516,1.812l12.133,1.516l0.088,-1.718l-9.52,-6.719l17.295,6.678l0.505,-1.104l3.947,1.145l0.781,-2.657l-20.347,-8.08Z" style="fill:#f6d7d0;fill-opacity:0.9;"/></g><path d="M84.706,42.093l-7.795,-4.378l-8.18,4.09l10.867,8.417l5.108,-8.129Z" style="fill:#9da8c9;"/><clipPath id="_clip3"><path d="M84.706,42.093l-7.795,-4.378l-8.18,4.09l10.867,8.417l5.108,-8.129Z"/></clipPath><g clip-path="url(#_clip3)"><path d="M46.019,4.256l23.362,4.147l20.434,-2.683l-18.32,6.166l-2.114,2.452l2.952,2.237l-5.594,0.683l-2.467,2.241l-5.108,-3.562l-0.889,5.553l-17.598,-3.367l5.248,17.548l-3.954,9.297l0.943,6.875l6.033,20.288l-2.082,4.068l0.641,5.428l-24.102,-6.942l20.434,3.567l-1.612,-1.807l-23.93,-19.64l24.704,14.651l1.548,-0.258l-26.252,-19.501l25.542,15.028l-5.108,-7.14l-1.407,-6.279l-13.919,-9.272l12.442,3.996l-1.19,-2.552l-13.152,-7.503l1.9,-0.497l13.919,6.968l0.344,-1.119l-13.931,-5.683l14.501,3.589l3.571,-6.401l-33.729,-8.678l32.759,4.055l-2.108,-2.33l-5.109,-1.239l0,-5.23l5.109,-1.514l1.698,1.999l-0.177,1.402l-3.876,-0.071l4.299,3.277l0.669,0.493l-1.109,-3.583l0.15,-1.17l-0.431,-0.907l-1.724,-2.127l-0.595,-2.724l-4.013,-3.102l7.516,1.812l12.133,1.516l0.088,-1.718l-9.52,-6.719l17.295,6.678l0.505,-1.104l3.947,1.145l0.781,-2.657l-20.347,-8.08Z" style="fill:#f6d7d0;fill-opacity:0.9;"/></g><path d="M43.838,8.274l-10.217,5.109l-25.542,12.771l28.069,3.818l6.39,1.254l11.517,-12.735l5.109,-2.554l-15.326,-7.663Z" style="fill:#9da8c9;"/><clipPath id="_clip4"><path d="M43.838,8.274l-10.217,5.109l-25.542,12.771l28.069,3.818l6.39,1.254l11.517,-12.735l5.109,-2.554l-15.326,-7.663Z"/></clipPath><g clip-path="url(#_clip4)"><path d="M68.075,80.287l-1.96,-9.996l5.98,-11.069l7.577,-3.788l-6.123,-2.047l-2.104,3.042l-0.404,-14.338l13.739,-12.438l-5.108,2.955l-5.109,2.34l-13.166,16.457l2.949,6.583l1.444,4.387l-1.444,7.793l-11.562,8.927l-13.98,3.141l-20.435,-3.325l20.435,-3.043l-10.217,-1.636l0,-6.158l-2.864,2.71l-7.354,-9.236l-3.729,-15.763l17.402,11.377l4.121,4.701l-0.319,-4.949l-2.149,-4.034l-13.599,-6.8l-4.271,-4.699l5.057,-5.125l11.419,1.995l-2.775,-2.781l-6.048,-1.384l-5.109,-3.079l0,1.848l-6.385,0.229l-7.387,-6.523l12.022,-7.762l10.29,6.822l0.046,-3.48l4.17,-1.198l-6.633,-7.176l14.312,-0.985l10.217,3.448l0,2.093l-2.755,7.837l-2.354,22.704l1.723,4.877l1.083,-9.676l2.303,-14.174l13.721,-6.861l-8.613,-4.46l-13.524,-10.013l8.416,-9.317l19.411,4.597l29.873,-0.389l-25.294,11.674l-1.724,6.773l3.276,0.333l0,-5.108l15.326,-5.2l19.255,-12.09l-80.557,-4.781l-32.159,44.306l19.562,50.649l52.085,-9.717" style="fill:#8d323a;fill-opacity:0.7;"/><path d="M46.019,4.256l23.362,4.147l20.434,-2.683l-18.32,6.166l-2.114,2.452l2.952,2.237l-5.594,0.683l-2.467,2.241l-5.108,-3.562l-0.889,5.553l-17.598,-3.367l5.248,17.548l-3.954,9.297l0.943,6.875l6.033,20.288l-2.082,4.068l0.641,5.428l-24.102,-6.942l20.434,3.567l-1.612,-1.807l-23.93,-19.64l24.704,14.651l1.548,-0.258l-26.252,-19.501l25.542,15.028l-5.108,-7.14l-1.407,-6.279l-13.919,-9.272l12.442,3.996l-1.19,-2.552l-13.152,-7.503l1.9,-0.497l13.919,6.968l0.344,-1.119l-13.931,-5.683l14.501,3.589l3.571,-6.401l-33.729,-8.678l32.759,4.055l-2.108,-2.33l-5.109,-1.239l0,-5.23l5.109,-1.514l1.698,1.999l-0.177,1.402l-3.876,-0.071l4.299,3.277l0.669,0.493l-1.109,-3.583l0.15,-1.17l-0.431,-0.907l-1.724,-2.127l-0.595,-2.724l-4.013,-3.102l7.516,1.812l12.133,1.516l0.088,-1.718l-9.52,-6.719l17.295,6.678l0.505,-1.104l3.947,1.145l0.781,-2.657l-20.347,-8.08Z" style="fill:#f6d7d0;fill-opacity:0.9;"/></g><path d="M89.815,5.72l-20.434,5.109l-10.217,5.108l-5.109,2.554l-15.325,-2.554l-8.822,6.915l6.238,7.119l-14.466,7.033l17.05,14.693l5.108,12.771l-5.108,-2.554l5.108,12.771l3.753,6.985l2.172,-2.84l9.401,-1.591l7.325,-3.662l5.18,-7.699l7.929,-6.634l-5.109,7.346l-5.108,5.541l13.112,-6.556l3.926,-10.468l-3.918,-3.41l2.205,-2.554l2.021,-4.099l-2.021,-3.012l-3.514,3.759l-3.025,1.513l-0.411,-3.678l3.173,-4.803l5.941,-2.04l2.945,-5.52l0,-10.217l-4.124,-9.841l4.124,-5.485Z" style="fill:#bac1d8;"/><clipPath id="_clip5"><path d="M89.815,5.72l-20.434,5.109l-10.217,5.108l-5.109,2.554l-15.325,-2.554l-8.822,6.915l6.238,7.119l-14.466,7.033l17.05,14.693l5.108,12.771l-5.108,-2.554l5.108,12.771l3.753,6.985l2.172,-2.84l9.401,-1.591l7.325,-3.662l5.18,-7.699l7.929,-6.634l-5.109,7.346l-5.108,5.541l13.112,-6.556l3.926,-10.468l-3.918,-3.41l2.205,-2.554l2.021,-4.099l-2.021,-3.012l-3.514,3.759l-3.025,1.513l-0.411,-3.678l3.173,-4.803l5.941,-2.04l2.945,-5.52l0,-10.217l-4.124,-9.841l4.124,-5.485Z"/></clipPath><g clip-path="url(#_clip5)"><path d="M46.019,4.256l23.362,4.147l20.434,-2.683l-18.32,6.166l-2.114,2.452l2.952,2.237l-5.594,0.683l-2.467,2.241l-5.108,-3.562l-0.889,5.553l-17.598,-3.367l5.248,17.548l-3.954,9.297l0.943,6.875l6.033,20.288l-2.082,4.068l0.641,5.428l-24.102,-6.942l20.434,3.567l-1.612,-1.807l-23.93,-19.64l24.704,14.651l1.548,-0.258l-26.252,-19.501l25.542,15.028l-5.108,-7.14l-1.407,-6.279l-13.919,-9.272l12.442,3.996l-1.19,-2.552l-13.152,-7.503l1.9,-0.497l13.919,6.968l0.344,-1.119l-13.931,-5.683l14.501,3.589l3.571,-6.401l-33.729,-8.678l32.759,4.055l-2.108,-2.33l-5.109,-1.239l0,-5.23l5.109,-1.514l1.698,1.999l-0.177,1.402l-3.876,-0.071l4.299,3.277l0.669,0.493l-1.109,-3.583l0.15,-1.17l-0.431,-0.907l-1.724,-2.127l-0.595,-2.724l-4.013,-3.102l7.516,1.812l12.133,1.516l0.088,-1.718l-9.52,-6.719l17.295,6.678l0.505,-1.104l3.947,1.145l0.781,-2.657l-20.347,-8.08Z" style="fill:#f6d7d0;fill-opacity:0.9;"/></g><path d="M40.331,21.846l1.208,5.713l-13.026,0.651l1.894,-9.161l6.492,1.081l3.432,1.716Z" style="fill:#9da8c9;"/><clipPath id="_clip6"><path d="M40.331,21.846l1.208,5.713l-13.026,0.651l1.894,-9.161l6.492,1.081l3.432,1.716Z"/></clipPath><g clip-path="url(#_clip6)"><path d="M46.019,4.256l23.362,4.147l20.434,-2.683l-18.32,6.166l-2.114,2.452l2.952,2.237l-5.594,0.683l-2.467,2.241l-5.108,-3.562l-0.889,5.553l-17.598,-3.367l5.248,17.548l-3.954,9.297l0.943,6.875l6.033,20.288l-2.082,4.068l0.641,5.428l-24.102,-6.942l20.434,3.567l-1.612,-1.807l-23.93,-19.64l24.704,14.651l1.548,-0.258l-26.252,-19.501l25.542,15.028l-5.108,-7.14l-1.407,-6.279l-13.919,-9.272l12.442,3.996l-1.19,-2.552l-13.152,-7.503l1.9,-0.497l13.919,6.968l0.344,-1.119l-13.931,-5.683l14.501,3.589l3.571,-6.401l-33.729,-8.678l32.759,4.055l-2.108,-2.33l-5.109,-1.239l0,-5.23l5.109,-1.514l1.698,1.999l-0.177,1.402l-3.876,-0.071l4.299,3.277l0.669,0.493l-1.109,-3.583l0.15,-1.17l-0.431,-0.907l-1.724,-2.127l-0.595,-2.724l-4.013,-3.102l7.516,1.812l12.133,1.516l0.088,-1.718l-9.52,-6.719l17.295,6.678l0.505,-1.104l3.947,1.145l0.781,-2.657l-20.347,-8.08Z" style="fill:#f6d7d0;fill-opacity:0.9;"/></g><path d="M38.73,42.504l0,4.084l-18.262,-6.194l-0.809,-9.813l19.071,11.923Z" style="fill:#6c7157;"/><clipPath id="_clip7"><path d="M38.73,42.504l0,4.084l-18.262,-6.194l-0.809,-9.813l19.071,11.923Z"/></clipPath><g clip-path="url(#_clip7)"><path d="M46.019,4.256l23.362,4.147l20.434,-2.683l-18.32,6.166l-2.114,2.452l2.952,2.237l-5.594,0.683l-2.467,2.241l-5.108,-3.562l-0.889,5.553l-17.598,-3.367l5.248,17.548l-3.954,9.297l0.943,6.875l6.033,20.288l-2.082,4.068l0.641,5.428l-24.102,-6.942l20.434,3.567l-1.612,-1.807l-23.93,-19.64l24.704,14.651l1.548,-0.258l-26.252,-19.501l25.542,15.028l-5.108,-7.14l-1.407,-6.279l-13.919,-9.272l12.442,3.996l-1.19,-2.552l-13.152,-7.503l1.9,-0.497l13.919,6.968l0.344,-1.119l-13.931,-5.683l14.501,3.589l3.571,-6.401l-33.729,-8.678l32.759,4.055l-2.108,-2.33l-5.109,-1.239l0,-5.23l5.109,-1.514l1.698,1.999l-0.177,1.402l-3.876,-0.071l4.299,3.277l0.669,0.493l-1.109,-3.583l0.15,-1.17l-0.431,-0.907l-1.724,-2.127l-0.595,-2.724l-4.013,-3.102l7.516,1.812l12.133,1.516l0.088,-1.718l-9.52,-6.719l17.295,6.678l0.505,-1.104l3.947,1.145l0.781,-2.657l-20.347,-8.08Z" style="fill:#f6d7d0;fill-opacity:0.4;"/></g><path d="M33.621,13.383l5.109,2.554l1.643,5.93l-5.669,0.256l0.752,3.208l6.135,2.254l2.247,6.232l-35.759,-7.663l25.542,-12.771Z" style="fill:#6c7157;"/><clipPath id="_clip8"><path d="M33.621,13.383l5.109,2.554l1.643,5.93l-5.669,0.256l0.752,3.208l6.135,2.254l2.247,6.232l-35.759,-7.663l25.542,-12.771Z"/></clipPath><g clip-path="url(#_clip8)"><path d="M68.075,80.287l-1.96,-9.996l5.98,-11.069l7.577,-3.788l-6.123,-2.047l-2.104,3.042l-0.404,-14.338l13.739,-12.438l-5.108,2.955l-5.109,2.34l-13.166,16.457l2.949,6.583l1.444,4.387l-1.444,7.793l-11.562,8.927l-13.98,3.141l-20.435,-3.325l20.435,-3.043l-10.217,-1.636l0,-6.158l-2.864,2.71l-7.354,-9.236l-3.729,-15.763l17.402,11.377l4.121,4.701l-0.319,-4.949l-2.149,-4.034l-13.599,-6.8l-4.271,-4.699l5.057,-5.125l11.419,1.995l-2.775,-2.781l-6.048,-1.384l-5.109,-3.079l0,1.848l-6.385,0.229l-7.387,-6.523l12.022,-7.762l10.29,6.822l0.046,-3.48l4.17,-1.198l-6.633,-7.176l14.312,-0.985l10.217,3.448l0,2.093l-2.755,7.837l-2.354,22.704l1.723,4.877l1.083,-9.676l2.303,-14.174l13.721,-6.861l-8.613,-4.46l-13.524,-10.013l8.416,-9.317l19.411,4.597l29.873,-0.389l-25.294,11.674l-1.724,6.773l3.276,0.333l0,-5.108l15.326,-5.2l19.255,-12.09l-80.557,-4.781l-32.159,44.306l19.562,50.649l52.085,-9.717" style="fill:#8d323a;fill-opacity:0.7;"/><path d="M46.019,4.256l23.362,4.147l20.434,-2.683l-18.32,6.166l-2.114,2.452l2.952,2.237l-5.594,0.683l-2.467,2.241l-5.108,-3.562l-0.889,5.553l-17.598,-3.367l5.248,17.548l-3.954,9.297l0.943,6.875l6.033,20.288l-2.082,4.068l0.641,5.428l-24.102,-6.942l20.434,3.567l-1.612,-1.807l-23.93,-19.64l24.704,14.651l1.548,-0.258l-26.252,-19.501l25.542,15.028l-5.108,-7.14l-1.407,-6.279l-13.919,-9.272l12.442,3.996l-1.19,-2.552l-13.152,-7.503l1.9,-0.497l13.919,6.968l0.344,-1.119l-13.931,-5.683l14.501,3.589l3.571,-6.401l-33.729,-8.678l32.759,4.055l-2.108,-2.33l-5.109,-1.239l0,-5.23l5.109,-1.514l1.698,1.999l-0.177,1.402l-3.876,-0.071l4.299,3.277l0.669,0.493l-1.109,-3.583l0.15,-1.17l-0.431,-0.907l-1.724,-2.127l-0.595,-2.724l-4.013,-3.102l7.516,1.812l12.133,1.516l0.088,-1.718l-9.52,-6.719l17.295,6.678l0.505,-1.104l3.947,1.145l0.781,-2.657l-20.347,-8.08Z" style="fill:#f6d7d0;fill-opacity:0.4;"/></g><path d="M8.079,26.154l35.759,7.663l-5.108,8.758l-15.326,-4.866l15.326,8.879l0,5.109l-20.434,-10.217l-5.109,-7.663l-5.108,-7.663Z" style="fill:#574052;"/><clipPath id="_clip9"><path d="M8.079,26.154l35.759,7.663l-5.108,8.758l-15.326,-4.866l15.326,8.879l0,5.109l-20.434,-10.217l-5.109,-7.663l-5.108,-7.663Z"/></clipPath><g clip-path="url(#_clip9)"><path d="M46.019,4.256l23.362,4.147l20.434,-2.683l-18.32,6.166l-2.114,2.452l2.952,2.237l-5.594,0.683l-2.467,2.241l-5.108,-3.562l-0.889,5.553l-17.598,-3.367l5.248,17.548l-3.954,9.297l0.943,6.875l6.033,20.288l-2.082,4.068l0.641,5.428l-24.102,-6.942l20.434,3.567l-1.612,-1.807l-23.93,-19.64l24.704,14.651l1.548,-0.258l-26.252,-19.501l25.542,15.028l-5.108,-7.14l-1.407,-6.279l-13.919,-9.272l12.442,3.996l-1.19,-2.552l-13.152,-7.503l1.9,-0.497l13.919,6.968l0.344,-1.119l-13.931,-5.683l14.501,3.589l3.571,-6.401l-33.729,-8.678l32.759,4.055l-2.108,-2.33l-5.109,-1.239l0,-5.23l5.109,-1.514l1.698,1.999l-0.177,1.402l-3.876,-0.071l4.299,3.277l0.669,0.493l-1.109,-3.583l0.15,-1.17l-0.431,-0.907l-1.724,-2.127l-0.595,-2.724l-4.013,-3.102l7.516,1.812l12.133,1.516l0.088,-1.718l-9.52,-6.719l17.295,6.678l0.505,-1.104l3.947,1.145l0.781,-2.657l-20.347,-8.08Z" style="fill:#f6d7d0;fill-opacity:0.4;"/></g><path d="M47.462,81.606l-24.058,-6.921l-5.108,-17.88l0,-5.108l30.651,20.434l-5.109,2.554l3.624,6.921Z" style="fill:#6c7157;"/><clipPath id="_clip10"><path d="M47.462,81.606l-24.058,-6.921l-5.108,-17.88l0,-5.108l30.651,20.434l-5.109,2.554l3.624,6.921Z"/></clipPath><g clip-path="url(#_clip10)"><path d="M46.019,4.256l23.362,4.147l20.434,-2.683l-18.32,6.166l-2.114,2.452l2.952,2.237l-5.594,0.683l-2.467,2.241l-5.108,-3.562l-0.889,5.553l-17.598,-3.367l5.248,17.548l-3.954,9.297l0.943,6.875l6.033,20.288l-2.082,4.068l0.641,5.428l-24.102,-6.942l20.434,3.567l-1.612,-1.807l-23.93,-19.64l24.704,14.651l1.548,-0.258l-26.252,-19.501l25.542,15.028l-5.108,-7.14l-1.407,-6.279l-13.919,-9.272l12.442,3.996l-1.19,-2.552l-13.152,-7.503l1.9,-0.497l13.919,6.968l0.344,-1.119l-13.931,-5.683l14.501,3.589l3.571,-6.401l-33.729,-8.678l32.759,4.055l-2.108,-2.33l-5.109,-1.239l0,-5.23l5.109,-1.514l1.698,1.999l-0.177,1.402l-3.876,-0.071l4.299,3.277l0.669,0.493l-1.109,-3.583l0.15,-1.17l-0.431,-0.907l-1.724,-2.127l-0.595,-2.724l-4.013,-3.102l7.516,1.812l12.133,1.516l0.088,-1.718l-9.52,-6.719l17.295,6.678l0.505,-1.104l3.947,1.145l0.781,-2.657l-20.347,-8.08Z" style="fill:#f6d7d0;fill-opacity:0.4;"/></g><path d="M18.296,41.48l5.108,2.554l-5.108,7.663l30.651,20.434l-10.217,-20.434l-20.434,-10.217Z" style="fill:#574052;"/><clipPath id="_clip11"><path d="M18.296,41.48l5.108,2.554l-5.108,7.663l30.651,20.434l-10.217,-20.434l-20.434,-10.217Z"/></clipPath><g clip-path="url(#_clip11)"><path d="M46.019,4.256l23.362,4.147l20.434,-2.683l-18.32,6.166l-2.114,2.452l2.952,2.237l-5.594,0.683l-2.467,2.241l-5.108,-3.562l-0.889,5.553l-17.598,-3.367l5.248,17.548l-3.954,9.297l0.943,6.875l6.033,20.288l-2.082,4.068l0.641,5.428l-24.102,-6.942l20.434,3.567l-1.612,-1.807l-23.93,-19.64l24.704,14.651l1.548,-0.258l-26.252,-19.501l25.542,15.028l-5.108,-7.14l-1.407,-6.279l-13.919,-9.272l12.442,3.996l-1.19,-2.552l-13.152,-7.503l1.9,-0.497l13.919,6.968l0.344,-1.119l-13.931,-5.683l14.501,3.589l3.571,-6.401l-33.729,-8.678l32.759,4.055l-2.108,-2.33l-5.109,-1.239l0,-5.23l5.109,-1.514l1.698,1.999l-0.177,1.402l-3.876,-0.071l4.299,3.277l0.669,0.493l-1.109,-3.583l0.15,-1.17l-0.431,-0.907l-1.724,-2.127l-0.595,-2.724l-4.013,-3.102l7.516,1.812l12.133,1.516l0.088,-1.718l-9.52,-6.719l17.295,6.678l0.505,-1.104l3.947,1.145l0.781,-2.657l-20.347,-8.08Z" style="fill:#f6d7d0;fill-opacity:0.4;"/></g><path d="M18.296,56.805l25.542,17.88l3.205,6.711l-23.639,-6.711l-5.108,-17.88Z" style="fill:#574052;"/><clipPath id="_clip12"><path d="M18.296,56.805l25.542,17.88l3.205,6.711l-23.639,-6.711l-5.108,-17.88Z"/></clipPath><g clip-path="url(#_clip12)"><path d="M46.019,4.256l23.362,4.147l20.434,-2.683l-18.32,6.166l-2.114,2.452l2.952,2.237l-5.594,0.683l-2.467,2.241l-5.108,-3.562l-0.889,5.553l-17.598,-3.367l5.248,17.548l-3.954,9.297l0.943,6.875l6.033,20.288l-2.082,4.068l0.641,5.428l-24.102,-6.942l20.434,3.567l-1.612,-1.807l-23.93,-19.64l24.704,14.651l1.548,-0.258l-26.252,-19.501l25.542,15.028l-5.108,-7.14l-1.407,-6.279l-13.919,-9.272l12.442,3.996l-1.19,-2.552l-13.152,-7.503l1.9,-0.497l13.919,6.968l0.344,-1.119l-13.931,-5.683l14.501,3.589l3.571,-6.401l-33.729,-8.678l32.759,4.055l-2.108,-2.33l-5.109,-1.239l0,-5.23l5.109,-1.514l1.698,1.999l-0.177,1.402l-3.876,-0.071l4.299,3.277l0.669,0.493l-1.109,-3.583l0.15,-1.17l-0.431,-0.907l-1.724,-2.127l-0.595,-2.724l-4.013,-3.102l7.516,1.812l12.133,1.516l0.088,-1.718l-9.52,-6.719l17.295,6.678l0.505,-1.104l3.947,1.145l0.781,-2.657l-20.347,-8.08Z" style="fill:#f6d7d0;fill-opacity:0.4;"/></g><path d="M45.967,4.23l-2.129,4.044l20.434,10.217l0,-2.296l5.974,0.175l-3.32,-1.66l2.455,-3.881l-23.414,-6.599Z" style="fill:#6c7157;"/><clipPath id="_clip13"><path d="M45.967,4.23l-2.129,4.044l20.434,10.217l0,-2.296l5.974,0.175l-3.32,-1.66l2.455,-3.881l-23.414,-6.599Z"/></clipPath><g clip-path="url(#_clip13)"><path d="M46.019,4.256l23.362,4.147l20.434,-2.683l-18.32,6.166l-2.114,2.452l2.952,2.237l-5.594,0.683l-2.467,2.241l-5.108,-3.562l-0.889,5.553l-17.598,-3.367l5.248,17.548l-3.954,9.297l0.943,6.875l6.033,20.288l-2.082,4.068l0.641,5.428l-24.102,-6.942l20.434,3.567l-1.612,-1.807l-23.93,-19.64l24.704,14.651l1.548,-0.258l-26.252,-19.501l25.542,15.028l-5.108,-7.14l-1.407,-6.279l-13.919,-9.272l12.442,3.996l-1.19,-2.552l-13.152,-7.503l1.9,-0.497l13.919,6.968l0.344,-1.119l-13.931,-5.683l14.501,3.589l3.571,-6.401l-33.729,-8.678l32.759,4.055l-2.108,-2.33l-5.109,-1.239l0,-5.23l5.109,-1.514l1.698,1.999l-0.177,1.402l-3.876,-0.071l4.299,3.277l0.669,0.493l-1.109,-3.583l0.15,-1.17l-0.431,-0.907l-1.724,-2.127l-0.595,-2.724l-4.013,-3.102l7.516,1.812l12.133,1.516l0.088,-1.718l-9.52,-6.719l17.295,6.678l0.505,-1.104l3.947,1.145l0.781,-2.657l-20.347,-8.08Z" style="fill:#f6d7d0;fill-opacity:0.9;"/></g></g></g></g><path d="M86.198,45.635c0,0 2.481,1.152 2.212,3.309c-0.27,2.157 -0.855,2.424 -1.147,8.671c-0.291,6.247 1.6,1.941 1.104,9.665c-0.497,7.725 6.063,5.029 -1.485,12.308c-7.549,7.279 -14.019,11.143 -20.22,7.279c-6.2,-3.864 -8.177,-2.516 -14.288,-0.629c-6.111,1.887 -7.81,1.528 -13.655,1.887c-5.846,0.359 -7.931,-0.772 -16.369,-4.205c-8.438,-3.433 -4.574,-0.917 -10.685,-6.669c-6.11,-5.751 1.342,-7.119 -3.597,-5.581c-4.94,1.537 -11.479,8.727 -5.109,0.549c6.37,-8.178 0.801,-8.902 6.506,-10.067c5.705,-1.166 3.72,-4.115 5.746,-2.236c2.026,1.879 4.471,0.838 4.471,0.838l2.857,11.645l2.858,-3.082c0,0 -0.046,-2.025 2.024,1.196c2.071,3.221 2.672,2.385 4.097,2.665c1.424,0.28 -1.198,1.384 1.424,0.28c2.623,-1.105 1.691,-0.761 3.33,-0.565c1.639,0.197 0.079,-1.736 2.447,0.611c2.367,2.346 2.091,2.99 3.241,2.99c1.151,0 1.381,-0.23 1.381,-0.23l0.486,-1.15l0,-0.89l-7.388,-4.953l0.368,-1.243c0,0 -2.07,-1.104 0.644,0.046c2.715,1.151 2.979,2.001 4.342,2.059c1.364,0.058 1.548,-0.402 2.606,0.426c1.058,0.828 1.38,1.104 1.38,1.104l2.635,-0.254l0.522,0.261l-1.454,2.294c0,0 0.046,0.368 0.736,0.828c0.69,0.46 -0.681,0.552 0.718,0.598c1.398,0.046 3.343,2.439 5.108,-0.276c1.766,-2.715 1.029,-2.162 2.18,-2.853c1.15,-0.69 -0.322,0.875 1.61,-0.828c1.933,-1.702 1.15,-1.702 2.163,-2.024c1.012,-0.322 1.978,-0.736 1.978,-0.736c0,0 5.153,-1.703 5.015,-4.049c-0.138,-2.347 -1.288,-1.013 -0.138,-2.393c1.15,-1.38 0.389,-2.024 2.518,-2.3c2.129,-0.277 4.66,-0.138 4.66,-0.138l-0.368,2.852c0,0 -1.841,0.736 -2.255,1.196c-0.414,0.461 -1.058,1.197 -1.058,1.197l-2.301,1.426l0.092,1.288l0.231,2.163l0.436,1.473c0,0 1.993,0.533 2.159,-0.516c0.165,-1.049 -0.019,-1.049 0.441,-1.785c0.46,-0.736 0.874,-0.783 1.427,-1.933c0.552,-1.15 1.058,-1.886 1.058,-1.886c0,0 -1.725,0.966 0.587,-0.736c2.311,-1.703 2.588,-0.967 2.588,-2.669c0,-1.702 -0.231,-1.84 0,-2.853c0.23,-1.012 1.13,-1.971 1.13,-1.971l1.39,0.269l0.654,1.242l0.23,2.899l0,2.208l0.598,0.276l1.105,-2.898l0.533,-1.142l1.989,-0.994l1.929,-4.144l-3.991,-3.474l2.062,-2.599l1.502,-3.047" style="fill:#426433;"/><clipPath id="_clip14"><path d="M86.198,45.635c0,0 2.481,1.152 2.212,3.309c-0.27,2.157 -0.855,2.424 -1.147,8.671c-0.291,6.247 1.6,1.941 1.104,9.665c-0.497,7.725 6.063,5.029 -1.485,12.308c-7.549,7.279 -14.019,11.143 -20.22,7.279c-6.2,-3.864 -8.177,-2.516 -14.288,-0.629c-6.111,1.887 -7.81,1.528 -13.655,1.887c-5.846,0.359 -7.931,-0.772 -16.369,-4.205c-8.438,-3.433 -4.574,-0.917 -10.685,-6.669c-6.11,-5.751 1.342,-7.119 -3.597,-5.581c-4.94,1.537 -11.479,8.727 -5.109,0.549c6.37,-8.178 0.801,-8.902 6.506,-10.067c5.705,-1.166 3.72,-4.115 5.746,-2.236c2.026,1.879 4.471,0.838 4.471,0.838l2.857,11.645l2.858,-3.082c0,0 -0.046,-2.025 2.024,1.196c2.071,3.221 2.672,2.385 4.097,2.665c1.424,0.28 -1.198,1.384 1.424,0.28c2.623,-1.105 1.691,-0.761 3.33,-0.565c1.639,0.197 0.079,-1.736 2.447,0.611c2.367,2.346 2.091,2.99 3.241,2.99c1.151,0 1.381,-0.23 1.381,-0.23l0.486,-1.15l0,-0.89l-7.388,-4.953l0.368,-1.243c0,0 -2.07,-1.104 0.644,0.046c2.715,1.151 2.979,2.001 4.342,2.059c1.364,0.058 1.548,-0.402 2.606,0.426c1.058,0.828 1.38,1.104 1.38,1.104l2.635,-0.254l0.522,0.261l-1.454,2.294c0,0 0.046,0.368 0.736,0.828c0.69,0.46 -0.681,0.552 0.718,0.598c1.398,0.046 3.343,2.439 5.108,-0.276c1.766,-2.715 1.029,-2.162 2.18,-2.853c1.15,-0.69 -0.322,0.875 1.61,-0.828c1.933,-1.702 1.15,-1.702 2.163,-2.024c1.012,-0.322 1.978,-0.736 1.978,-0.736c0,0 5.153,-1.703 5.015,-4.049c-0.138,-2.347 -1.288,-1.013 -0.138,-2.393c1.15,-1.38 0.389,-2.024 2.518,-2.3c2.129,-0.277 4.66,-0.138 4.66,-0.138l-0.368,2.852c0,0 -1.841,0.736 -2.255,1.196c-0.414,0.461 -1.058,1.197 -1.058,1.197l-2.301,1.426l0.092,1.288l0.231,2.163l0.436,1.473c0,0 1.993,0.533 2.159,-0.516c0.165,-1.049 -0.019,-1.049 0.441,-1.785c0.46,-0.736 0.874,-0.783 1.427,-1.933c0.552,-1.15 1.058,-1.886 1.058,-1.886c0,0 -1.725,0.966 0.587,-0.736c2.311,-1.703 2.588,-0.967 2.588,-2.669c0,-1.702 -0.231,-1.84 0,-2.853c0.23,-1.012 1.13,-1.971 1.13,-1.971l1.39,0.269l0.654,1.242l0.23,2.899l0,2.208l0.598,0.276l1.105,-2.898l0.533,-1.142l1.989,-0.994l1.929,-4.144l-3.991,-3.474l2.062,-2.599l1.502,-3.047"/></clipPath><g clip-path="url(#_clip14)"><path d="M94.098,41.188l0,61.302l-56.194,-5.637l27.944,-41.54l28.25,-14.125Z" style="fill:#c4e783;fill-opacity:0.5;"/><path d="M91.424,50.426l0.117,-3.43l-4.209,-0.761c0,0 -1.796,2.624 -2.129,6.077c-0.073,0.756 1.676,1.717 1.563,2.513c-0.677,4.75 -2.055,9.842 -2.07,11.178c-0.029,2.584 1.714,5.617 0,6.965c-1.714,1.348 0.195,2.921 -2.051,3.594c-2.247,0.674 -3.275,6.594 -3.94,0.658c-0.666,-5.937 -1.255,-5.096 -0.511,-6.247c0.744,-1.15 1.393,-1.937 1.393,-1.937l0,-2.475l0,-1.569c0,0 -2.37,1.278 -3.082,3.11c-0.713,1.833 -2.854,6.536 -2.854,6.536c0,0 0.95,1.05 -2.554,3.004c-3.505,1.953 -5.728,2.244 -5.728,2.244c0,0 0.584,1.752 0,0c-0.585,-1.751 2.379,-9.027 2.379,-9.027c0,0 0.92,-1.278 -1.078,-0.539c-1.998,0.738 -3.269,3.925 -5.442,5.421c-2.173,1.495 -3.858,3.293 -3.858,3.293l-1.818,1.053l-0.023,-5.121c0,0 0.429,0.826 -3.527,3.346c-3.955,2.519 -4.694,2.761 -4.694,2.761c0,0 -0.582,1.837 -1.438,-0.719c-0.856,-2.556 -0.48,-1.803 -0.48,-1.803l0.747,-4.347l-2.31,-1.798l0,8.987l-6.929,1.404l-2.331,-0.056l2.092,-6.992c0,0 -0.074,0.14 -3.049,0.14c-2.974,0 -6.004,0.442 -6.004,0.442l-0.501,1.146c0,0 0.273,-0.465 -1.974,-0.241c-2.246,0.225 2.696,3.37 -2.808,-0.224c-5.504,-3.595 -5.776,2.825 -6.539,-4.092c-0.762,-6.917 -1.364,-6.949 -0.558,-7.888c0.807,-0.938 4.401,-0.152 1.031,-1.163c-3.37,-1.011 -3.081,-1.011 -3.081,-1.011c0,0 -1.615,-3.035 -5.108,-1.405c-3.493,1.63 -1.531,0.515 -3.692,3.263c-2.16,2.748 -1.904,-3.106 -6.525,6.954c-4.622,10.06 -12.467,11.149 -4.276,13.188c8.192,2.039 3.939,3.387 19.601,3.387c15.662,0 74.691,4.828 74.691,4.828l6.278,-14.124l-2.721,-28.523Z" style="fill:#9fb366;"/><clipPath id="_clip15"><path d="M91.424,50.426l0.117,-3.43l-4.209,-0.761c0,0 -1.796,2.624 -2.129,6.077c-0.073,0.756 1.676,1.717 1.563,2.513c-0.677,4.75 -2.055,9.842 -2.07,11.178c-0.029,2.584 1.714,5.617 0,6.965c-1.714,1.348 0.195,2.921 -2.051,3.594c-2.247,0.674 -3.275,6.594 -3.94,0.658c-0.666,-5.937 -1.255,-5.096 -0.511,-6.247c0.744,-1.15 1.393,-1.937 1.393,-1.937l0,-2.475l0,-1.569c0,0 -2.37,1.278 -3.082,3.11c-0.713,1.833 -2.854,6.536 -2.854,6.536c0,0 0.95,1.05 -2.554,3.004c-3.505,1.953 -5.728,2.244 -5.728,2.244c0,0 0.584,1.752 0,0c-0.585,-1.751 2.379,-9.027 2.379,-9.027c0,0 0.92,-1.278 -1.078,-0.539c-1.998,0.738 -3.269,3.925 -5.442,5.421c-2.173,1.495 -3.858,3.293 -3.858,3.293l-1.818,1.053l-0.023,-5.121c0,0 0.429,0.826 -3.527,3.346c-3.955,2.519 -4.694,2.761 -4.694,2.761c0,0 -0.582,1.837 -1.438,-0.719c-0.856,-2.556 -0.48,-1.803 -0.48,-1.803l0.747,-4.347l-2.31,-1.798l0,8.987l-6.929,1.404l-2.331,-0.056l2.092,-6.992c0,0 -0.074,0.14 -3.049,0.14c-2.974,0 -6.004,0.442 -6.004,0.442l-0.501,1.146c0,0 0.273,-0.465 -1.974,-0.241c-2.246,0.225 2.696,3.37 -2.808,-0.224c-5.504,-3.595 -5.776,2.825 -6.539,-4.092c-0.762,-6.917 -1.364,-6.949 -0.558,-7.888c0.807,-0.938 4.401,-0.152 1.031,-1.163c-3.37,-1.011 -3.081,-1.011 -3.081,-1.011c0,0 -1.615,-3.035 -5.108,-1.405c-3.493,1.63 -1.531,0.515 -3.692,3.263c-2.16,2.748 -1.904,-3.106 -6.525,6.954c-4.622,10.06 -12.467,11.149 -4.276,13.188c8.192,2.039 3.939,3.387 19.601,3.387c15.662,0 74.691,4.828 74.691,4.828l6.278,-14.124l-2.721,-28.523Z"/></clipPath><g clip-path="url(#_clip15)"><path d="M94.098,41.188l0,61.302l-56.194,-5.637l27.944,-41.54l28.25,-14.125Z" style="fill:#c4e783;fill-opacity:0.5;"/></g><path d="M45.37,65.552l-38.117,19.059l-10.217,-10.217l17.381,-24.017l30.953,15.175Z" style="fill-opacity:0.5;"/></g></g><g><path d="M69.188,45.681l9.948,12.458l-4.348,-1.274l-12.119,-9.902l6.519,-1.282Z" style="fill:#574052;"/><path d="M61.1,47.322l13.868,-15.941l6.083,-0.138l-10.988,15.699l-8.963,0.38Z" style="fill:#574052;"/><path d="M61.136,25.274l1.65,-1.733l18.272,7.657l-7.559,0.789l-12.363,-6.713Z" style="fill:#574052;"/><path d="M64.328,53.336l-3.645,-2.965l-8.161,10.911l5.189,3.011l6.617,-10.957Z" style="fill:#574052;"/><path d="M48.083,65.201l6.159,-2.81l3.313,1.936l-4.813,2.65l-4.659,-1.776Z" style="fill:none;"/><path d="M70.625,58.879l4.003,1.649l4.534,-2.322l-4.159,-1.166l-4.378,1.839Z" style="fill:none;"/><path d="M61.103,50.803l9.524,8.067l4.57,-1.934l-9.695,-9.81l10.371,-15.392l-14.79,-6.374l-12.277,15.811l7.562,6.49l-8.293,17.514l6.296,-2.838l6.732,-11.534Z" style="fill:#c3454a;"/><g><path d="M62.987,31.792l6.423,3.896l-4.689,7.107l-6.669,-4.761l4.935,-6.242Z" style="fill:#f6d7d0;"/><path d="M63.005,31.783l-3.552,0.145l-5.289,6.241l4.006,-0.218l4.835,-6.168Z" style="fill:#6c7157;"/><path d="M54.186,38.18l3.881,-0.157l6.577,4.769l-4.525,-0.078l-5.933,-4.534Z" style="fill:#574052;"/></g></g><path d="M51.356,0.885c0,0 10.587,-0.47 16.907,-0.029c6.32,0.441 9.304,-0.716 10.217,0c0.913,0.716 7.388,3.022 7.449,3.724c0.062,0.703 -2.68,4.139 -2.34,6.2c0.34,2.062 -2.265,-6.538 0,2.847c2.264,9.385 4.791,11.722 5.108,14.333c0.317,2.612 1.022,8.145 1.022,8.145c0,0 -5.233,-1.624 -6.13,-7.152c-0.897,-5.528 1.577,-3.879 -1.996,-7.865c-3.574,-3.985 -1.8,-2.585 -4.268,-5.484c-2.467,-2.9 -1.416,-5.059 -2.835,-2.536c-1.419,2.523 -1.203,0.717 -3.991,4.231c-2.788,3.514 -4.301,5.024 -4.301,5.024c0,0 -3.758,1.554 -6.552,-1.833c-2.793,-3.387 -3.252,-3.482 -3.252,-3.482l-0.365,-3.204c0,0 -3.157,-3.445 -4.946,-1.104c-1.789,2.341 -3.254,3.481 -3.254,3.481c0,0 -4.076,-4.769 0,0c4.076,4.77 5.109,5.869 5.109,5.869c0,0 0.482,0.702 0,1.794c-0.483,1.093 -2.817,3.7 -2.817,3.7c0,0 -5.347,-1.203 -5.767,-4.516c-0.42,-3.314 0.727,-1.697 -1.633,-4.292c-2.36,-2.596 -0.711,-6.224 -5.109,-2.555c-4.398,3.67 -3.436,5.869 0,8.206c3.436,2.336 0.459,3.573 5.109,7.009c4.649,3.436 7.904,6.872 5.108,7.285c-2.796,0.412 -8.705,-0.007 -10.217,-2.065c-1.512,-2.059 1.518,-3.283 -3.914,-3.152c-5.432,0.131 -11.412,0.597 -11.412,0.597l0,5.109c0,0 1.031,-0.077 0,2.947c-1.03,3.023 -1.874,8.207 -1.874,8.207c0,0 -3.327,-0.562 -3.234,-3.491c0.093,-2.93 -0.093,-4.265 0,-5.109c0.093,-0.844 -0.23,-0.432 0,-2.631c0.23,-2.199 0.594,-2.611 0,-4.81c-0.595,-2.199 -5.109,-5.33 -5.109,-5.33l0,-2.917c0,0 -0.803,-0.948 0,-2.192c0.804,-1.244 -0.357,-2.909 2.628,-3.794c2.986,-0.886 0.649,1.588 3.673,-1.161c3.024,-2.749 -1.238,-2.749 3.916,-3.985c5.155,-1.237 7.102,-2.244 8.602,-2.084c1.501,0.159 1.776,-0.665 3.013,-1.902c1.237,-1.237 -2.048,0.11 1.175,-1.113c3.223,-1.224 2.536,-1.361 2.536,-1.361c0,0 -0.463,0.65 2.586,-1.187c3.049,-1.837 0.653,-1.993 4.187,-3.015c3.535,-1.021 6.971,-3.357 6.971,-3.357Z" style="fill:#426433;"/><clipPath id="_clip16"><path d="M51.356,0.885c0,0 10.587,-0.47 16.907,-0.029c6.32,0.441 9.304,-0.716 10.217,0c0.913,0.716 7.388,3.022 7.449,3.724c0.062,0.703 -2.68,4.139 -2.34,6.2c0.34,2.062 -2.265,-6.538 0,2.847c2.264,9.385 4.791,11.722 5.108,14.333c0.317,2.612 1.022,8.145 1.022,8.145c0,0 -5.233,-1.624 -6.13,-7.152c-0.897,-5.528 1.577,-3.879 -1.996,-7.865c-3.574,-3.985 -1.8,-2.585 -4.268,-5.484c-2.467,-2.9 -1.416,-5.059 -2.835,-2.536c-1.419,2.523 -1.203,0.717 -3.991,4.231c-2.788,3.514 -4.301,5.024 -4.301,5.024c0,0 -3.758,1.554 -6.552,-1.833c-2.793,-3.387 -3.252,-3.482 -3.252,-3.482l-0.365,-3.204c0,0 -3.157,-3.445 -4.946,-1.104c-1.789,2.341 -3.254,3.481 -3.254,3.481c0,0 -4.076,-4.769 0,0c4.076,4.77 5.109,5.869 5.109,5.869c0,0 0.482,0.702 0,1.794c-0.483,1.093 -2.817,3.7 -2.817,3.7c0,0 -5.347,-1.203 -5.767,-4.516c-0.42,-3.314 0.727,-1.697 -1.633,-4.292c-2.36,-2.596 -0.711,-6.224 -5.109,-2.555c-4.398,3.67 -3.436,5.869 0,8.206c3.436,2.336 0.459,3.573 5.109,7.009c4.649,3.436 7.904,6.872 5.108,7.285c-2.796,0.412 -8.705,-0.007 -10.217,-2.065c-1.512,-2.059 1.518,-3.283 -3.914,-3.152c-5.432,0.131 -11.412,0.597 -11.412,0.597l0,5.109c0,0 1.031,-0.077 0,2.947c-1.03,3.023 -1.874,8.207 -1.874,8.207c0,0 -3.327,-0.562 -3.234,-3.491c0.093,-2.93 -0.093,-4.265 0,-5.109c0.093,-0.844 -0.23,-0.432 0,-2.631c0.23,-2.199 0.594,-2.611 0,-4.81c-0.595,-2.199 -5.109,-5.33 -5.109,-5.33l0,-2.917c0,0 -0.803,-0.948 0,-2.192c0.804,-1.244 -0.357,-2.909 2.628,-3.794c2.986,-0.886 0.649,1.588 3.673,-1.161c3.024,-2.749 -1.238,-2.749 3.916,-3.985c5.155,-1.237 7.102,-2.244 8.602,-2.084c1.501,0.159 1.776,-0.665 3.013,-1.902c1.237,-1.237 -2.048,0.11 1.175,-1.113c3.223,-1.224 2.536,-1.361 2.536,-1.361c0,0 -0.463,0.65 2.586,-1.187c3.049,-1.837 0.653,-1.993 4.187,-3.015c3.535,-1.021 6.971,-3.357 6.971,-3.357Z"/></clipPath><g clip-path="url(#_clip16)"><path d="M77.076,-11.085l17.752,48.424l-38.834,-12.989l-15.231,-22.94l36.313,-12.495" style="fill:#c4e783;fill-opacity:0.5;"/><path d="M75.232,-2.628c0.176,3.513 2.747,4.887 3.248,6.811c0.501,1.924 -0.638,0.825 0,4.536c0.639,3.711 3.298,9.111 3.298,9.111c0,0 0.325,1.884 -3.298,-4.301c-3.622,-6.185 -1.509,-7.009 -5.108,-6.872c-3.599,0.138 -4.969,1.237 -5.109,3.024c-0.14,1.787 2.476,-2.988 0,1.392c-2.476,4.38 -2.201,5.205 -3.85,5.067c-1.65,-0.137 -7.317,-4.334 -7.988,-5.878c-0.671,-1.543 -3.487,-4.43 -3.487,-4.43c0,0 0.342,-1.374 -1.445,-0.137c-1.787,1.237 -2.243,-0.825 -3.664,2.199c-1.421,3.024 -1.965,1.935 -2.174,4.266c-0.209,2.331 0.327,1.26 0.746,3.307c0.419,2.048 2.578,2.93 3.011,5.032c0.432,2.101 3.038,1.424 0.773,1.969c-2.265,0.544 -4.882,-1.507 -5.223,-2.612c-0.341,-1.104 -0.08,-3.138 -0.485,-5.351c-0.406,-2.213 0.466,-2.625 -1.756,-4.137c-2.223,-1.512 -1.948,-4.261 -5.109,-2.749c-3.161,1.512 -5.131,5.007 -5.108,6.008c0.022,1.002 -3.537,-2.956 -3.132,1.566c0.406,4.521 -0.19,8.782 3.132,10.706c3.321,1.924 5.108,3.023 5.108,3.023c0,0 -7.24,4.261 -10.217,1.512c-2.978,-2.749 -1.603,-3.848 -6.276,-4.26c-4.673,-0.413 -0.107,-2.26 -6.926,-1.268c-6.818,0.993 -12.341,4.047 -12.341,4.047c0,0 -15.309,-21.176 1.704,-24.691c17.013,-3.515 47.804,-13.676 51.856,-12.306c4.053,1.369 19.644,1.903 19.82,5.416Z" style="fill:#9fb366;"/><clipPath id="_clip17"><path d="M75.232,-2.628c0.176,3.513 2.747,4.887 3.248,6.811c0.501,1.924 -0.638,0.825 0,4.536c0.639,3.711 3.298,9.111 3.298,9.111c0,0 0.325,1.884 -3.298,-4.301c-3.622,-6.185 -1.509,-7.009 -5.108,-6.872c-3.599,0.138 -4.969,1.237 -5.109,3.024c-0.14,1.787 2.476,-2.988 0,1.392c-2.476,4.38 -2.201,5.205 -3.85,5.067c-1.65,-0.137 -7.317,-4.334 -7.988,-5.878c-0.671,-1.543 -3.487,-4.43 -3.487,-4.43c0,0 0.342,-1.374 -1.445,-0.137c-1.787,1.237 -2.243,-0.825 -3.664,2.199c-1.421,3.024 -1.965,1.935 -2.174,4.266c-0.209,2.331 0.327,1.26 0.746,3.307c0.419,2.048 2.578,2.93 3.011,5.032c0.432,2.101 3.038,1.424 0.773,1.969c-2.265,0.544 -4.882,-1.507 -5.223,-2.612c-0.341,-1.104 -0.08,-3.138 -0.485,-5.351c-0.406,-2.213 0.466,-2.625 -1.756,-4.137c-2.223,-1.512 -1.948,-4.261 -5.109,-2.749c-3.161,1.512 -5.131,5.007 -5.108,6.008c0.022,1.002 -3.537,-2.956 -3.132,1.566c0.406,4.521 -0.19,8.782 3.132,10.706c3.321,1.924 5.108,3.023 5.108,3.023c0,0 -7.24,4.261 -10.217,1.512c-2.978,-2.749 -1.603,-3.848 -6.276,-4.26c-4.673,-0.413 -0.107,-2.26 -6.926,-1.268c-6.818,0.993 -12.341,4.047 -12.341,4.047c0,0 -15.309,-21.176 1.704,-24.691c17.013,-3.515 47.804,-13.676 51.856,-12.306c4.053,1.369 19.644,1.903 19.82,5.416Z"/></clipPath><g clip-path="url(#_clip17)"><path d="M77.076,-11.085l17.752,48.424l-38.834,-12.989l-15.231,-22.94l36.313,-12.495" style="fill:#c4e783;fill-opacity:0.5;"/></g><path d="M2.874,20.446c3.174,-0.143 45.977,15.659 45.977,15.659l-40.868,20.434l-5.109,-36.093" style="fill-opacity:0.5;"/></g></g></svg>