<?xml version="1.0" encoding="UTF-8" standalone="no"?><!DOCTYPE svg PUBLIC "-//W3C//DTD SVG 1.1//EN" "http://www.w3.org/Graphics/SVG/1.1/DTD/svg11.dtd"><svg width="100%" height="100%" viewBox="0 0 91 106" version="1.1" xmlns="http://www.w3.org/2000/svg" xmlns:xlink="http://www.w3.org/1999/xlink" xml:space="preserve" xmlns:serif="http://www.serif.com/" style="fill-rule:evenodd;clip-rule:evenodd;stroke-linejoin:round;stroke-miterlimit:1.41421;"><g id="X_Runestone_grass_runes_1"><g id="F_Runestone_runes_1"><g><g><g><path d="M61.357,0.91l20.434,10.217l-20.434,10.217l-20.434,-10.217l20.434,-10.217Z" style="fill:#9da8c9;"/><clipPath id="_clip1"><path d="M61.357,0.91l20.434,10.217l-20.434,10.217l-20.434,-10.217l20.434,-10.217Z"/></clipPath><g clip-path="url(#_clip1)"><path d="M84.422,69.78l-10.719,-7.911l-2.055,-16.353l-2.977,16.814l10.72,12.6l-15.707,10.328l-3.668,-13.492l1.415,-10.925l-5.109,4.654l0,13.226l-13.317,3.559l10.939,2.739l-11.143,12.484l-6.913,-10.65l-5.108,-3.655l-18.08,9.472l15.264,0.231l12.413,0.867l-4.489,7.709l-30.651,0.962l-2.387,-27.633l7.496,6.469l6.792,1.713l3.425,-1.713l-7.428,-3.714l-4.457,-12.445l-0.848,-23.451l12.733,8.959l1.983,4.117l1.42,-5.818l-3.403,-3.407l-11.817,-14.526l4.26,-17.456l17.774,16.656l-5.109,-17.88l11.545,-5.772l8.889,-4.445l7.848,9.033l4.367,5.294l3.111,-1.555l5.109,-4.978l-5.109,-3.079l0,2.948l-5.109,-2.554l2.564,-3.827l12.762,4.011l7.677,1.1l7.649,10.829l-1.661,12.599l1.661,31.482l7.734,-67.653l-72.439,-2.166l-40.256,53.098l18.116,65.252l76.628,-0.637l7.665,-41.51" style="fill:#8d323a;fill-opacity:0.7;"/><path d="M81.791,11.127l-20.434,7.207l-20.434,-7.207l16.528,11.038l-2.016,4.234l-4.295,0.054l-20.434,-10.217l15.326,9.86l-14.488,7.762l-21.272,-7.405l18.954,12.849l-0.446,18.765l-18.508,-6.071l5.108,2.554l15.326,10.054l2.854,-2.621l-2.854,7.762l-20.434,-7.532l18.752,12.069l1.682,23.69l1.936,-24.575l4.713,-14.509l-4.299,0.676l0.404,-5.141l-1.311,-16.129l18.225,-7.116l8.697,-0.76l5.175,-7.629l17.545,-11.662Z" style="fill:#f6d7d0;fill-opacity:0.9;"/></g><path d="M30.706,16.236l-20.434,10.217l20.434,10.217l20.434,-10.217l-20.434,-10.217" style="fill:#9da8c9;"/><clipPath id="_clip2"><path d="M30.706,16.236l-20.434,10.217l20.434,10.217l20.434,-10.217l-20.434,-10.217"/></clipPath><g clip-path="url(#_clip2)"><path d="M84.422,69.78l-10.719,-7.911l-2.055,-16.353l-2.977,16.814l10.72,12.6l-15.707,10.328l-3.668,-13.492l1.415,-10.925l-5.109,4.654l0,13.226l-13.317,3.559l10.939,2.739l-11.143,12.484l-6.913,-10.65l-5.108,-3.655l-18.08,9.472l15.264,0.231l12.413,0.867l-4.489,7.709l-30.651,0.962l-2.387,-27.633l7.496,6.469l6.792,1.713l3.425,-1.713l-7.428,-3.714l-4.457,-12.445l-0.848,-23.451l12.733,8.959l1.983,4.117l1.42,-5.818l-3.403,-3.407l-11.817,-14.526l4.26,-17.456l17.774,16.656l-5.109,-17.88l11.545,-5.772l8.889,-4.445l7.848,9.033l4.367,5.294l3.111,-1.555l5.109,-4.978l-5.109,-3.079l0,2.948l-5.109,-2.554l2.564,-3.827l12.762,4.011l7.677,1.1l7.649,10.829l-1.661,12.599l1.661,31.482l7.734,-67.653l-72.439,-2.166l-40.256,53.098l18.116,65.252l76.628,-0.637l7.665,-41.51" style="fill:#8d323a;fill-opacity:0.7;"/><path d="M81.791,11.127l-20.434,7.207l-20.434,-7.207l16.528,11.038l-2.016,4.234l-4.295,0.054l-20.434,-10.217l15.326,9.86l-14.488,7.762l-21.272,-7.405l18.954,12.849l-0.446,18.765l-18.508,-6.071l5.108,2.554l15.326,10.054l2.854,-2.621l-2.854,7.762l-20.434,-7.532l18.752,12.069l1.682,23.69l1.936,-24.575l4.713,-14.509l-4.299,0.676l0.404,-5.141l-1.311,-16.129l18.225,-7.116l8.697,-0.76l5.175,-7.629l17.545,-11.662Z" style="fill:#f6d7d0;fill-opacity:0.9;"/></g><path d="M40.923,11.127l-5.109,7.663l20.435,10.217l5.108,-7.663l-20.434,-10.217Z" style="fill:#6c7157;"/><clipPath id="_clip3"><path d="M40.923,11.127l-5.109,7.663l20.435,10.217l5.108,-7.663l-20.434,-10.217Z"/></clipPath><g clip-path="url(#_clip3)"><path d="M84.422,69.78l-10.719,-7.911l-2.055,-16.353l-2.977,16.814l10.72,12.6l-15.707,10.328l-3.668,-13.492l1.415,-10.925l-5.109,4.654l0,13.226l-13.317,3.559l10.939,2.739l-11.143,12.484l-6.913,-10.65l-5.108,-3.655l-18.08,9.472l15.264,0.231l12.413,0.867l-4.489,7.709l-30.651,0.962l-2.387,-27.633l7.496,6.469l6.792,1.713l3.425,-1.713l-7.428,-3.714l-4.457,-12.445l-0.848,-23.451l12.733,8.959l1.983,4.117l1.42,-5.818l-3.403,-3.407l-11.817,-14.526l4.26,-17.456l17.774,16.656l-5.109,-17.88l11.545,-5.772l8.889,-4.445l7.848,9.033l4.367,5.294l3.111,-1.555l5.109,-4.978l-5.109,-3.079l0,2.948l-5.109,-2.554l2.564,-3.827l12.762,4.011l7.677,1.1l7.649,10.829l-1.661,12.599l1.661,31.482l7.734,-67.653l-72.439,-2.166l-40.256,53.098l18.116,65.252l76.628,-0.637l7.665,-41.51" style="fill:#8d323a;fill-opacity:0.7;"/><path d="M81.791,11.127l-20.434,7.207l-20.434,-7.207l16.528,11.038l-2.016,4.234l-4.295,0.054l-20.434,-10.217l15.326,9.86l-14.488,7.762l-21.272,-7.405l18.954,12.849l-0.446,18.765l-18.508,-6.071l5.108,2.554l15.326,10.054l2.854,-2.621l-2.854,7.762l-20.434,-7.532l18.752,12.069l1.682,23.69l1.936,-24.575l4.713,-14.509l-4.299,0.676l0.404,-5.141l-1.311,-16.129l18.225,-7.116l8.697,-0.76l5.175,-7.629l17.545,-11.662Z" style="fill:#f6d7d0;fill-opacity:0.9;"/></g><path d="M81.791,11.127l-20.434,10.217l-5.108,7.663l-5.109,-2.554l-20.434,10.217l0,25.543l5.108,-2.555l-5.108,12.772l0,25.542l20.434,-10.217l0,-5.108l5.109,-2.554l5.108,2.554l20.434,-10.217l0,-30.651l-5.108,2.554l5.108,-12.772l0,-20.434" style="fill:#bac1d8;"/><clipPath id="_clip4"><path d="M81.791,11.127l-20.434,10.217l-5.108,7.663l-5.109,-2.554l-20.434,10.217l0,25.543l5.108,-2.555l-5.108,12.772l0,25.542l20.434,-10.217l0,-5.108l5.109,-2.554l5.108,2.554l20.434,-10.217l0,-30.651l-5.108,2.554l5.108,-12.772l0,-20.434"/></clipPath><g clip-path="url(#_clip4)"><path d="M84.422,69.78l-10.719,-7.911l-2.055,-16.353l-2.977,16.814l10.72,12.6l-15.707,10.328l-3.668,-13.492l1.415,-10.925l-5.109,4.654l0,13.226l-13.317,3.559l10.939,2.739l-11.143,12.484l-6.913,-10.65l-5.108,-3.655l-18.08,9.472l15.264,0.231l12.413,0.867l-4.489,7.709l-30.651,0.962l-2.387,-27.633l7.496,6.469l6.792,1.713l3.425,-1.713l-7.428,-3.714l-4.457,-12.445l-0.848,-23.451l12.733,8.959l1.983,4.117l1.42,-5.818l-3.403,-3.407l-11.817,-14.526l4.26,-17.456l17.774,16.656l-5.109,-17.88l11.545,-5.772l8.889,-4.445l7.848,9.033l4.367,5.294l3.111,-1.555l5.109,-4.978l-5.109,-3.079l0,2.948l-5.109,-2.554l2.564,-3.827l12.762,4.011l7.677,1.1l7.649,10.829l-1.661,12.599l1.661,31.482l7.734,-67.653l-72.439,-2.166l-40.256,53.098l18.116,65.252l76.628,-0.637l7.665,-41.51" style="fill:#8d323a;fill-opacity:0.7;"/><path d="M81.791,11.127l-20.434,7.207l-20.434,-7.207l16.528,11.038l-2.016,4.234l-4.295,0.054l-20.434,-10.217l15.326,9.86l-14.488,7.762l-21.272,-7.405l18.954,12.849l-0.446,18.765l-18.508,-6.071l5.108,2.554l15.326,10.054l2.854,-2.621l-2.854,7.762l-20.434,-7.532l18.752,12.069l1.682,23.69l1.936,-24.575l4.713,-14.509l-4.299,0.676l0.404,-5.141l-1.311,-16.129l18.225,-7.116l8.697,-0.76l5.175,-7.629l17.545,-11.662Z" style="fill:#f6d7d0;fill-opacity:0.9;"/></g><path d="M10.272,26.453l20.434,10.217l0,25.543l-20.434,-10.217l0,-25.543Z" style="fill:#6c7157;"/><clipPath id="_clip5"><path d="M10.272,26.453l20.434,10.217l0,25.543l-20.434,-10.217l0,-25.543Z"/></clipPath><g clip-path="url(#_clip5)"><path d="M84.422,69.78l-10.719,-7.911l-2.055,-16.353l-2.977,16.814l10.72,12.6l-15.707,10.328l-3.668,-13.492l1.415,-10.925l-5.109,4.654l0,13.226l-13.317,3.559l10.939,2.739l-11.143,12.484l-6.913,-10.65l-5.108,-3.655l-18.08,9.472l15.264,0.231l12.413,0.867l-4.489,7.709l-30.651,0.962l-2.387,-27.633l7.496,6.469l6.792,1.713l3.425,-1.713l-7.428,-3.714l-4.457,-12.445l-0.848,-23.451l12.733,8.959l1.983,4.117l1.42,-5.818l-3.403,-3.407l-11.817,-14.526l4.26,-17.456l17.774,16.656l-5.109,-17.88l11.545,-5.772l8.889,-4.445l7.848,9.033l4.367,5.294l3.111,-1.555l5.109,-4.978l-5.109,-3.079l0,2.948l-5.109,-2.554l2.564,-3.827l12.762,4.011l7.677,1.1l7.649,10.829l-1.661,12.599l1.661,31.482l7.734,-67.653l-72.439,-2.166l-40.256,53.098l18.116,65.252l76.628,-0.637l7.665,-41.51" style="fill:#8d323a;fill-opacity:0.7;"/><path d="M81.791,11.127l-20.434,7.207l-20.434,-7.207l16.528,11.038l-2.016,4.234l-4.295,0.054l-20.434,-10.217l15.326,9.86l-14.488,7.762l-21.272,-7.405l18.954,12.849l-0.446,18.765l-18.508,-6.071l5.108,2.554l15.326,10.054l2.854,-2.621l-2.854,7.762l-20.434,-7.532l18.752,12.069l1.682,23.69l1.936,-24.575l4.713,-14.509l-4.299,0.676l0.404,-5.141l-1.311,-16.129l18.225,-7.116l8.697,-0.76l5.175,-7.629l17.545,-11.662Z" style="fill:#f6d7d0;fill-opacity:0.4;"/></g><path d="M30.706,97.972l-20.434,-10.217l0,-25.542l20.434,10.217l0,25.542" style="fill:#6c7157;"/><clipPath id="_clip6"><path d="M30.706,97.972l-20.434,-10.217l0,-25.542l20.434,10.217l0,25.542"/></clipPath><g clip-path="url(#_clip6)"><path d="M84.422,69.78l-10.719,-7.911l-2.055,-16.353l-2.977,16.814l10.72,12.6l-15.707,10.328l-3.668,-13.492l1.415,-10.925l-5.109,4.654l0,13.226l-13.317,3.559l10.939,2.739l-11.143,12.484l-6.913,-10.65l-5.108,-3.655l-18.08,9.472l15.264,0.231l12.413,0.867l-4.489,7.709l-30.651,0.962l-2.387,-27.633l7.496,6.469l6.792,1.713l3.425,-1.713l-7.428,-3.714l-4.457,-12.445l-0.848,-23.451l12.733,8.959l1.983,4.117l1.42,-5.818l-3.403,-3.407l-11.817,-14.526l4.26,-17.456l17.774,16.656l-5.109,-17.88l11.545,-5.772l8.889,-4.445l7.848,9.033l4.367,5.294l3.111,-1.555l5.109,-4.978l-5.109,-3.079l0,2.948l-5.109,-2.554l2.564,-3.827l12.762,4.011l7.677,1.1l7.649,10.829l-1.661,12.599l1.661,31.482l7.734,-67.653l-72.439,-2.166l-40.256,53.098l18.116,65.252l76.628,-0.637l7.665,-41.51" style="fill:#8d323a;fill-opacity:0.7;"/><path d="M81.791,11.127l-20.434,7.207l-20.434,-7.207l16.528,11.038l-2.016,4.234l-4.295,0.054l-20.434,-10.217l15.326,9.86l-14.488,7.762l-21.272,-7.405l18.954,12.849l-0.446,18.765l-18.508,-6.071l5.108,2.554l15.326,10.054l2.854,-2.621l-2.854,7.762l-20.434,-7.532l18.752,12.069l1.682,23.69l1.936,-24.575l4.713,-14.509l-4.299,0.676l0.404,-5.141l-1.311,-16.129l18.225,-7.116l8.697,-0.76l5.175,-7.629l17.545,-11.662Z" style="fill:#f6d7d0;fill-opacity:0.4;"/></g><path d="M10.272,51.996l5.108,2.554l-5.108,7.663l20.434,10.217l5.108,-12.772l-5.108,2.555l-20.434,-10.217Z" style="fill:#574052;"/><clipPath id="_clip7"><path d="M10.272,51.996l5.108,2.554l-5.108,7.663l20.434,10.217l5.108,-12.772l-5.108,2.555l-20.434,-10.217Z"/></clipPath><g clip-path="url(#_clip7)"><path d="M81.791,11.127l-20.434,7.207l-20.434,-7.207l16.528,11.038l-2.016,4.234l-4.295,0.054l-20.434,-10.217l15.326,9.86l-14.488,7.762l-21.272,-7.405l18.954,12.849l-0.446,18.765l-18.508,-6.071l5.108,2.554l15.326,10.054l2.854,-2.621l-2.854,7.762l-20.434,-7.532l18.752,12.069l1.682,23.69l1.936,-24.575l4.713,-14.509l-4.299,0.676l0.404,-5.141l-1.311,-16.129l18.225,-7.116l8.697,-0.76l5.175,-7.629l17.545,-11.662Z" style="fill:#f6d7d0;fill-opacity:0.4;"/></g></g></g></g></g><g><path d="M63.041,57.524l9.948,12.458l-4.348,-1.274l-12.119,-9.902l6.519,-1.282Z" style="fill:#574052;"/><path d="M54.953,59.165l13.868,-15.941l6.083,-0.138l-10.989,15.699l-8.962,0.38Z" style="fill:#574052;"/><path d="M54.988,37.117l1.65,-1.732l18.273,7.657l-7.559,0.788l-12.364,-6.713Z" style="fill:#574052;"/><path d="M58.181,65.179l-3.645,-2.965l-8.162,10.911l5.19,3.011l6.617,-10.957Z" style="fill:#574052;"/><path d="M41.936,77.044l6.159,-2.81l3.312,1.937l-4.812,2.65l-4.659,-1.777Z" style="fill:none;"/><path d="M64.478,70.722l4.002,1.649l4.535,-2.321l-4.159,-1.166l-4.378,1.838Z" style="fill:none;"/><path d="M54.956,62.646l9.524,8.067l4.57,-1.934l-9.696,-9.81l10.371,-15.392l-14.789,-6.374l-12.277,15.811l7.562,6.49l-8.294,17.514l6.297,-2.837l6.732,-11.535Z" style="fill:#c3454a;"/><g><path d="M56.84,43.636l6.423,3.896l-4.689,7.106l-6.669,-4.761l4.935,-6.241Z" style="fill:#f6d7d0;"/><path d="M56.858,43.626l-3.553,0.145l-5.289,6.241l4.006,-0.218l4.836,-6.168Z" style="fill:#6c7157;"/><path d="M48.039,50.023l3.881,-0.156l6.576,4.768l-4.524,-0.078l-5.933,-4.534Z" style="fill:#574052;"/></g></g><path d="M81.598,51.75c0,0 9.856,8.577 8.777,14.605c-1.079,6.029 -3.229,13.233 -7.853,14.309c-1.72,0.4 0.847,2.21 -2.513,4.143c-0.176,0.101 -0.634,2.32 -0.822,2.422c-1.408,0.769 -16.227,7.244 -18.023,7.837c-5.677,1.875 0.863,-2.886 0,-2.448c-1.868,0.949 -9.278,-1.076 -18.369,4.076c-0.899,0.51 6.363,-0.801 5.509,-0.289c-7.774,4.667 -21.895,10.899 -28.008,8.235c-5.758,-2.51 -13.905,-2.61 -17.244,-6.763c-0.596,-0.741 2.436,-0.007 1.918,-1.167c-3.422,-7.662 -4.631,-9.678 -2.212,-14.113c0.371,-0.68 -2.212,0.031 -1.838,-0.725c2.07,-4.178 7.028,-10.585 7.483,-12.178c0.538,-1.882 1.676,-2.618 1.676,-2.618l0,15.325c1.438,-0.258 2.786,-0.71 5.108,0.915c1.38,0.442 2.569,0.879 3.599,1.313c0.67,0.281 3.818,0.011 4.361,0.29c7.442,3.83 1.155,8.023 7.366,12.808l3.965,-3.126c1.597,-2.547 5.901,-2.495 9.298,-3.506c2.588,-0.77 1.704,-3.863 4.891,-4.725l5.764,-2.227l1.624,-4.296c-0.488,-1.368 -0.423,-2.744 1.911,-4.154c0.586,0.424 1.04,1.66 1.515,1.284c1.151,-0.91 0.485,0.521 0.685,0.784c1.154,1.507 1.415,3.057 0.998,4.64c3.435,-4.107 4.415,-5.117 7.045,-6.695c1.078,-0.647 2.155,0.062 3.775,0.057c0.822,-0.002 1.431,-0.893 2.328,-1.147c0.698,-0.198 1.723,0.251 2.178,0.122c0.902,-0.255 0.306,-1.397 0.876,-1.83c1.052,-0.799 3.031,-0.905 4.232,-0.724c0.004,-0.566 -1.712,-1.456 -1.709,-2.023c0.008,-1.368 1.578,-1.739 1.709,-3.085c0.467,-4.783 0.007,-10.452 0,-15.326Z" style="fill:#426433;"/><clipPath id="_clip8"><path d="M81.598,51.75c0,0 9.856,8.577 8.777,14.605c-1.079,6.029 -3.229,13.233 -7.853,14.309c-1.72,0.4 0.847,2.21 -2.513,4.143c-0.176,0.101 -0.634,2.32 -0.822,2.422c-1.408,0.769 -16.227,7.244 -18.023,7.837c-5.677,1.875 0.863,-2.886 0,-2.448c-1.868,0.949 -9.278,-1.076 -18.369,4.076c-0.899,0.51 6.363,-0.801 5.509,-0.289c-7.774,4.667 -21.895,10.899 -28.008,8.235c-5.758,-2.51 -13.905,-2.61 -17.244,-6.763c-0.596,-0.741 2.436,-0.007 1.918,-1.167c-3.422,-7.662 -4.631,-9.678 -2.212,-14.113c0.371,-0.68 -2.212,0.031 -1.838,-0.725c2.07,-4.178 7.028,-10.585 7.483,-12.178c0.538,-1.882 1.676,-2.618 1.676,-2.618l0,15.325c1.438,-0.258 2.786,-0.71 5.108,0.915c1.38,0.442 2.569,0.879 3.599,1.313c0.67,0.281 3.818,0.011 4.361,0.29c7.442,3.83 1.155,8.023 7.366,12.808l3.965,-3.126c1.597,-2.547 5.901,-2.495 9.298,-3.506c2.588,-0.77 1.704,-3.863 4.891,-4.725l5.764,-2.227l1.624,-4.296c-0.488,-1.368 -0.423,-2.744 1.911,-4.154c0.586,0.424 1.04,1.66 1.515,1.284c1.151,-0.91 0.485,0.521 0.685,0.784c1.154,1.507 1.415,3.057 0.998,4.64c3.435,-4.107 4.415,-5.117 7.045,-6.695c1.078,-0.647 2.155,0.062 3.775,0.057c0.822,-0.002 1.431,-0.893 2.328,-1.147c0.698,-0.198 1.723,0.251 2.178,0.122c0.902,-0.255 0.306,-1.397 0.876,-1.83c1.052,-0.799 3.031,-0.905 4.232,-0.724c0.004,-0.566 -1.712,-1.456 -1.709,-2.023c0.008,-1.368 1.578,-1.739 1.709,-3.085c0.467,-4.783 0.007,-10.452 0,-15.326Z"/></clipPath><g clip-path="url(#_clip8)"><path d="M84.661,46.195l19.321,40.312l-81.441,30.799l53.134,-50.061l3.663,-22.266l5.323,1.216Z" style="fill:#c4e783;fill-opacity:0.5;"/><path d="M91.815,56.858c0.018,-1.107 -5.108,2.555 -5.108,2.555l-1.934,6.075l0.416,3.383l0.241,5.229l-1.006,1.779c0,0 1.052,0.274 -2.826,1.414c-3.878,1.139 -7.244,1.486 -7.244,1.486l-2.973,0.661l-2.363,1.78l-2.746,3.735l-5.108,2.555l-1.609,-0.805l1.609,-4.304l-2.724,-1.362l-0.834,4.692l0.672,0.336l-2.223,2.11l-5.108,1.344l-3.042,-0.491l-2.067,4.019l-5.108,-0.431l-1.763,0.881c0,0 0.222,0.841 -2.102,2.295c-2.323,1.455 -1.595,1.007 -4.395,2.911c-2.801,1.904 -4.665,2.777 -4.665,2.777c0,0 -1.458,6.016 -2.401,0.976c-0.943,-5.041 2.791,-3.361 0,-5.545c-2.791,-2.184 0.323,-2.195 -2.41,-2.946c-2.733,-0.75 -6.328,-0.031 -7.807,1.205c-1.478,1.237 0.073,4.843 -1.879,0.94c-1.952,-3.903 -2.491,-3.903 -3.229,-6.591c-0.739,-2.688 -1.332,-2.677 -1.332,-2.677l-1.21,-0.605l-2.567,-1.284c0,0 -1.178,1.206 0,-1.483c1.178,-2.688 5.375,-1.538 0,-3.625c-5.374,-2.087 -6.549,-2.589 -9.07,-0.574c-2.521,2.015 -4.287,-5.036 -3.404,9.662c0.883,14.699 -12.459,17.358 5.805,23.337c18.264,5.978 13.398,8.655 32.212,5.889c18.814,-2.767 20.479,-2.431 30.651,-7.807c10.172,-5.376 11.475,1.089 21.912,-11.888c10.437,-12.977 10.37,-9.812 13.848,-18.619c3.477,-8.807 7.915,-10.991 5.108,-14.184c-2.807,-3.192 -10.235,-7.697 -10.217,-8.805Z" style="fill:#9fb366;"/><clipPath id="_clip9"><path d="M91.815,56.858c0.018,-1.107 -5.108,2.555 -5.108,2.555l-1.934,6.075l0.416,3.383l0.241,5.229l-1.006,1.779c0,0 1.052,0.274 -2.826,1.414c-3.878,1.139 -7.244,1.486 -7.244,1.486l-2.973,0.661l-2.363,1.78l-2.746,3.735l-5.108,2.555l-1.609,-0.805l1.609,-4.304l-2.724,-1.362l-0.834,4.692l0.672,0.336l-2.223,2.11l-5.108,1.344l-3.042,-0.491l-2.067,4.019l-5.108,-0.431l-1.763,0.881c0,0 0.222,0.841 -2.102,2.295c-2.323,1.455 -1.595,1.007 -4.395,2.911c-2.801,1.904 -4.665,2.777 -4.665,2.777c0,0 -1.458,6.016 -2.401,0.976c-0.943,-5.041 2.791,-3.361 0,-5.545c-2.791,-2.184 0.323,-2.195 -2.41,-2.946c-2.733,-0.75 -6.328,-0.031 -7.807,1.205c-1.478,1.237 0.073,4.843 -1.879,0.94c-1.952,-3.903 -2.491,-3.903 -3.229,-6.591c-0.739,-2.688 -1.332,-2.677 -1.332,-2.677l-1.21,-0.605l-2.567,-1.284c0,0 -1.178,1.206 0,-1.483c1.178,-2.688 5.375,-1.538 0,-3.625c-5.374,-2.087 -6.549,-2.589 -9.07,-0.574c-2.521,2.015 -4.287,-5.036 -3.404,9.662c0.883,14.699 -12.459,17.358 5.805,23.337c18.264,5.978 13.398,8.655 32.212,5.889c18.814,-2.767 20.479,-2.431 30.651,-7.807c10.172,-5.376 11.475,1.089 21.912,-11.888c10.437,-12.977 10.37,-9.812 13.848,-18.619c3.477,-8.807 7.915,-10.991 5.108,-14.184c-2.807,-3.192 -10.235,-7.697 -10.217,-8.805Z"/></clipPath><g clip-path="url(#_clip9)"><path d="M84.661,46.195l19.321,40.312l-81.441,30.799l53.134,-50.061l3.663,-22.266l5.323,1.216Z" style="fill:#c4e783;fill-opacity:0.5;"/></g><path d="M21.181,75.758l-19.492,33.588l-12.859,-32.779c0,0 18.886,-21.303 20.434,-19.585c1.548,1.718 11.917,18.776 11.917,18.776Z" style="fill-opacity:0.5;"/></g></g></svg>