<?xml version="1.0" encoding="UTF-8" standalone="no"?><!DOCTYPE svg PUBLIC "-//W3C//DTD SVG 1.1//EN" "http://www.w3.org/Graphics/SVG/1.1/DTD/svg11.dtd"><svg width="100%" height="100%" viewBox="0 0 91 85" version="1.1" xmlns="http://www.w3.org/2000/svg" xmlns:xlink="http://www.w3.org/1999/xlink" xml:space="preserve" xmlns:serif="http://www.serif.com/" style="fill-rule:evenodd;clip-rule:evenodd;stroke-linejoin:round;stroke-miterlimit:1.41421;"><g id="F_Runestone_grass_4"><g id="F_Runestone_runes_4"><g><g><path d="M70.234,1.795l19.822,0.306l-20.434,5.108l-23.436,-6.609l24.048,1.195Z" style="fill:#9da8c9;"/><clipPath id="_clip1"><path d="M70.234,1.795l19.822,0.306l-20.434,5.108l-23.436,-6.609l24.048,1.195Z"/></clipPath><g clip-path="url(#_clip1)"><path d="M46.26,0.637l23.362,4.146l20.434,-2.682l-18.32,6.165l-2.114,2.453l2.952,2.236l-5.594,0.683l-2.467,2.242l-5.108,-3.562l-0.889,5.553l-17.598,-3.367l5.248,17.548l-3.954,9.296l0.943,6.876l6.033,20.287l-2.082,4.068l0.641,5.429l-24.102,-6.942l20.434,3.566l-1.612,-1.806l-23.93,-19.64l24.704,14.651l1.548,-0.258l-26.252,-19.502l25.542,15.028l-5.108,-7.139l-1.407,-6.28l-13.919,-9.272l12.442,3.997l-1.19,-2.553l-13.152,-7.502l1.9,-0.498l13.919,6.968l0.344,-1.118l-13.931,-5.684l14.501,3.59l3.571,-6.401l-33.729,-8.678l32.759,4.054l-2.108,-2.33l-5.109,-1.239l0,-5.23l5.109,-1.514l1.698,1.999l-0.177,1.402l-3.876,-0.07l4.299,3.276l0.669,0.494l-1.109,-3.584l0.15,-1.17l-0.431,-0.907l-1.724,-2.127l-0.596,-2.723l-4.012,-3.103l7.516,1.812l12.133,1.516l0.088,-1.717l-9.52,-6.719l17.295,6.678l0.505,-1.104l3.947,1.145l0.78,-2.657l-20.346,-8.08Z" style="fill:#f6d7d0;fill-opacity:0.9;"/></g><path d="M69.622,68.511l-5.109,-2.554l10.217,-15.325l5.871,4.799l-3.316,6.695l-7.663,6.385Z" style="fill:#6c7157;"/><clipPath id="_clip2"><path d="M69.622,68.511l-5.109,-2.554l10.217,-15.325l5.871,4.799l-3.316,6.695l-7.663,6.385Z"/></clipPath><g clip-path="url(#_clip2)"><path d="M46.26,0.637l23.362,4.146l20.434,-2.682l-18.32,6.165l-2.114,2.453l2.952,2.236l-5.594,0.683l-2.467,2.242l-5.108,-3.562l-0.889,5.553l-17.598,-3.367l5.248,17.548l-3.954,9.296l0.943,6.876l6.033,20.287l-2.082,4.068l0.641,5.429l-24.102,-6.942l20.434,3.566l-1.612,-1.806l-23.93,-19.64l24.704,14.651l1.548,-0.258l-26.252,-19.502l25.542,15.028l-5.108,-7.139l-1.407,-6.28l-13.919,-9.272l12.442,3.997l-1.19,-2.553l-13.152,-7.502l1.9,-0.498l13.919,6.968l0.344,-1.118l-13.931,-5.684l14.501,3.59l3.571,-6.401l-33.729,-8.678l32.759,4.054l-2.108,-2.33l-5.109,-1.239l0,-5.23l5.109,-1.514l1.698,1.999l-0.177,1.402l-3.876,-0.07l4.299,3.276l0.669,0.494l-1.109,-3.584l0.15,-1.17l-0.431,-0.907l-1.724,-2.127l-0.596,-2.723l-4.012,-3.103l7.516,1.812l12.133,1.516l0.088,-1.717l-9.52,-6.719l17.295,6.678l0.505,-1.104l3.947,1.145l0.78,-2.657l-20.346,-8.08Z" style="fill:#f6d7d0;fill-opacity:0.9;"/></g><path d="M84.947,38.474l-7.795,-4.379l-8.18,4.09l10.867,8.418l5.108,-8.129Z" style="fill:#9da8c9;"/><clipPath id="_clip3"><path d="M84.947,38.474l-7.795,-4.379l-8.18,4.09l10.867,8.418l5.108,-8.129Z"/></clipPath><g clip-path="url(#_clip3)"><path d="M46.26,0.637l23.362,4.146l20.434,-2.682l-18.32,6.165l-2.114,2.453l2.952,2.236l-5.594,0.683l-2.467,2.242l-5.108,-3.562l-0.889,5.553l-17.598,-3.367l5.248,17.548l-3.954,9.296l0.943,6.876l6.033,20.287l-2.082,4.068l0.641,5.429l-24.102,-6.942l20.434,3.566l-1.612,-1.806l-23.93,-19.64l24.704,14.651l1.548,-0.258l-26.252,-19.502l25.542,15.028l-5.108,-7.139l-1.407,-6.28l-13.919,-9.272l12.442,3.997l-1.19,-2.553l-13.152,-7.502l1.9,-0.498l13.919,6.968l0.344,-1.118l-13.931,-5.684l14.501,3.59l3.571,-6.401l-33.729,-8.678l32.759,4.054l-2.108,-2.33l-5.109,-1.239l0,-5.23l5.109,-1.514l1.698,1.999l-0.177,1.402l-3.876,-0.07l4.299,3.276l0.669,0.494l-1.109,-3.584l0.15,-1.17l-0.431,-0.907l-1.724,-2.127l-0.596,-2.723l-4.012,-3.103l7.516,1.812l12.133,1.516l0.088,-1.717l-9.52,-6.719l17.295,6.678l0.505,-1.104l3.947,1.145l0.78,-2.657l-20.346,-8.08Z" style="fill:#f6d7d0;fill-opacity:0.9;"/></g><path d="M44.079,4.655l-10.217,5.108l-25.542,12.772l28.069,3.817l6.39,1.254l11.517,-12.734l5.109,-2.554l-15.326,-7.663Z" style="fill:#9da8c9;"/><clipPath id="_clip4"><path d="M44.079,4.655l-10.217,5.108l-25.542,12.772l28.069,3.817l6.39,1.254l11.517,-12.734l5.109,-2.554l-15.326,-7.663Z"/></clipPath><g clip-path="url(#_clip4)"><path d="M46.26,0.637l23.362,4.146l20.434,-2.682l-18.32,6.165l-2.114,2.453l2.952,2.236l-5.594,0.683l-2.467,2.242l-5.108,-3.562l-0.889,5.553l-17.598,-3.367l5.248,17.548l-3.954,9.296l0.943,6.876l6.033,20.287l-2.082,4.068l0.641,5.429l-24.102,-6.942l20.434,3.566l-1.612,-1.806l-23.93,-19.64l24.704,14.651l1.548,-0.258l-26.252,-19.502l25.542,15.028l-5.108,-7.139l-1.407,-6.28l-13.919,-9.272l12.442,3.997l-1.19,-2.553l-13.152,-7.502l1.9,-0.498l13.919,6.968l0.344,-1.118l-13.931,-5.684l14.501,3.59l3.571,-6.401l-33.729,-8.678l32.759,4.054l-2.108,-2.33l-5.109,-1.239l0,-5.23l5.109,-1.514l1.698,1.999l-0.177,1.402l-3.876,-0.07l4.299,3.276l0.669,0.494l-1.109,-3.584l0.15,-1.17l-0.431,-0.907l-1.724,-2.127l-0.596,-2.723l-4.012,-3.103l7.516,1.812l12.133,1.516l0.088,-1.717l-9.52,-6.719l17.295,6.678l0.505,-1.104l3.947,1.145l0.78,-2.657l-20.346,-8.08Z" style="fill:#f6d7d0;fill-opacity:0.9;"/></g><path d="M90.056,2.101l-20.434,5.108l-10.217,5.109l-5.109,2.554l-15.325,-2.554l-8.822,6.915l6.238,7.118l-14.466,7.034l17.05,14.692l5.108,12.772l-5.108,-2.555l5.108,12.772l3.753,6.985l2.172,-2.841l9.401,-1.59l7.325,-3.663l5.18,-7.698l7.929,-6.634l-5.109,7.345l-5.108,5.541l13.112,-6.556l3.926,-10.467l-3.918,-3.411l2.205,-2.554l2.021,-4.098l-2.021,-3.013l-3.514,3.76l-3.025,1.512l-0.411,-3.678l3.173,-4.802l5.941,-2.041l2.945,-5.52l0,-10.217l-4.124,-9.84l4.124,-5.485Z" style="fill:#bac1d8;"/><clipPath id="_clip5"><path d="M90.056,2.101l-20.434,5.108l-10.217,5.109l-5.109,2.554l-15.325,-2.554l-8.822,6.915l6.238,7.118l-14.466,7.034l17.05,14.692l5.108,12.772l-5.108,-2.555l5.108,12.772l3.753,6.985l2.172,-2.841l9.401,-1.59l7.325,-3.663l5.18,-7.698l7.929,-6.634l-5.109,7.345l-5.108,5.541l13.112,-6.556l3.926,-10.467l-3.918,-3.411l2.205,-2.554l2.021,-4.098l-2.021,-3.013l-3.514,3.76l-3.025,1.512l-0.411,-3.678l3.173,-4.802l5.941,-2.041l2.945,-5.52l0,-10.217l-4.124,-9.84l4.124,-5.485Z"/></clipPath><g clip-path="url(#_clip5)"><path d="M46.26,0.637l23.362,4.146l20.434,-2.682l-18.32,6.165l-2.114,2.453l2.952,2.236l-5.594,0.683l-2.467,2.242l-5.108,-3.562l-0.889,5.553l-17.598,-3.367l5.248,17.548l-3.954,9.296l0.943,6.876l6.033,20.287l-2.082,4.068l0.641,5.429l-24.102,-6.942l20.434,3.566l-1.612,-1.806l-23.93,-19.64l24.704,14.651l1.548,-0.258l-26.252,-19.502l25.542,15.028l-5.108,-7.139l-1.407,-6.28l-13.919,-9.272l12.442,3.997l-1.19,-2.553l-13.152,-7.502l1.9,-0.498l13.919,6.968l0.344,-1.118l-13.931,-5.684l14.501,3.59l3.571,-6.401l-33.729,-8.678l32.759,4.054l-2.108,-2.33l-5.109,-1.239l0,-5.23l5.109,-1.514l1.698,1.999l-0.177,1.402l-3.876,-0.07l4.299,3.276l0.669,0.494l-1.109,-3.584l0.15,-1.17l-0.431,-0.907l-1.724,-2.127l-0.596,-2.723l-4.012,-3.103l7.516,1.812l12.133,1.516l0.088,-1.717l-9.52,-6.719l17.295,6.678l0.505,-1.104l3.947,1.145l0.78,-2.657l-20.346,-8.08Z" style="fill:#f6d7d0;fill-opacity:0.9;"/></g><path d="M40.572,18.227l1.208,5.712l-13.026,0.652l1.894,-9.162l6.492,1.082l3.432,1.716Z" style="fill:#9da8c9;"/><clipPath id="_clip6"><path d="M40.572,18.227l1.208,5.712l-13.026,0.652l1.894,-9.162l6.492,1.082l3.432,1.716Z"/></clipPath><g clip-path="url(#_clip6)"><path d="M46.26,0.637l23.362,4.146l20.434,-2.682l-18.32,6.165l-2.114,2.453l2.952,2.236l-5.594,0.683l-2.467,2.242l-5.108,-3.562l-0.889,5.553l-17.598,-3.367l5.248,17.548l-3.954,9.296l0.943,6.876l6.033,20.287l-2.082,4.068l0.641,5.429l-24.102,-6.942l20.434,3.566l-1.612,-1.806l-23.93,-19.64l24.704,14.651l1.548,-0.258l-26.252,-19.502l25.542,15.028l-5.108,-7.139l-1.407,-6.28l-13.919,-9.272l12.442,3.997l-1.19,-2.553l-13.152,-7.502l1.9,-0.498l13.919,6.968l0.344,-1.118l-13.931,-5.684l14.501,3.59l3.571,-6.401l-33.729,-8.678l32.759,4.054l-2.108,-2.33l-5.109,-1.239l0,-5.23l5.109,-1.514l1.698,1.999l-0.177,1.402l-3.876,-0.07l4.299,3.276l0.669,0.494l-1.109,-3.584l0.15,-1.17l-0.431,-0.907l-1.724,-2.127l-0.596,-2.723l-4.012,-3.103l7.516,1.812l12.133,1.516l0.088,-1.717l-9.52,-6.719l17.295,6.678l0.505,-1.104l3.947,1.145l0.78,-2.657l-20.346,-8.08Z" style="fill:#f6d7d0;fill-opacity:0.9;"/></g><path d="M38.971,38.884l0,4.085l-18.262,-6.195l-0.809,-9.812l19.071,11.922Z" style="fill:#6c7157;"/><clipPath id="_clip7"><path d="M38.971,38.884l0,4.085l-18.262,-6.195l-0.809,-9.812l19.071,11.922Z"/></clipPath><g clip-path="url(#_clip7)"><path d="M46.26,0.637l23.362,4.146l20.434,-2.682l-18.32,6.165l-2.114,2.453l2.952,2.236l-5.594,0.683l-2.467,2.242l-5.108,-3.562l-0.889,5.553l-17.598,-3.367l5.248,17.548l-3.954,9.296l0.943,6.876l6.033,20.287l-2.082,4.068l0.641,5.429l-24.102,-6.942l20.434,3.566l-1.612,-1.806l-23.93,-19.64l24.704,14.651l1.548,-0.258l-26.252,-19.502l25.542,15.028l-5.108,-7.139l-1.407,-6.28l-13.919,-9.272l12.442,3.997l-1.19,-2.553l-13.152,-7.502l1.9,-0.498l13.919,6.968l0.344,-1.118l-13.931,-5.684l14.501,3.59l3.571,-6.401l-33.729,-8.678l32.759,4.054l-2.108,-2.33l-5.109,-1.239l0,-5.23l5.109,-1.514l1.698,1.999l-0.177,1.402l-3.876,-0.07l4.299,3.276l0.669,0.494l-1.109,-3.584l0.15,-1.17l-0.431,-0.907l-1.724,-2.127l-0.596,-2.723l-4.012,-3.103l7.516,1.812l12.133,1.516l0.088,-1.717l-9.52,-6.719l17.295,6.678l0.505,-1.104l3.947,1.145l0.78,-2.657l-20.346,-8.08Z" style="fill:#f6d7d0;fill-opacity:0.4;"/></g><path d="M33.862,9.763l5.109,2.555l1.643,5.93l-5.669,0.256l0.752,3.207l6.135,2.254l2.247,6.232l-35.759,-7.662l25.542,-12.772Z" style="fill:#6c7157;"/><clipPath id="_clip8"><path d="M33.862,9.763l5.109,2.555l1.643,5.93l-5.669,0.256l0.752,3.207l6.135,2.254l2.247,6.232l-35.759,-7.662l25.542,-12.772Z"/></clipPath><g clip-path="url(#_clip8)"><path d="M46.26,0.637l23.362,4.146l20.434,-2.682l-18.32,6.165l-2.114,2.453l2.952,2.236l-5.594,0.683l-2.467,2.242l-5.108,-3.562l-0.889,5.553l-17.598,-3.367l5.248,17.548l-3.954,9.296l0.943,6.876l6.033,20.287l-2.082,4.068l0.641,5.429l-24.102,-6.942l20.434,3.566l-1.612,-1.806l-23.93,-19.64l24.704,14.651l1.548,-0.258l-26.252,-19.502l25.542,15.028l-5.108,-7.139l-1.407,-6.28l-13.919,-9.272l12.442,3.997l-1.19,-2.553l-13.152,-7.502l1.9,-0.498l13.919,6.968l0.344,-1.118l-13.931,-5.684l14.501,3.59l3.571,-6.401l-33.729,-8.678l32.759,4.054l-2.108,-2.33l-5.109,-1.239l0,-5.23l5.109,-1.514l1.698,1.999l-0.177,1.402l-3.876,-0.07l4.299,3.276l0.669,0.494l-1.109,-3.584l0.15,-1.17l-0.431,-0.907l-1.724,-2.127l-0.596,-2.723l-4.012,-3.103l7.516,1.812l12.133,1.516l0.088,-1.717l-9.52,-6.719l17.295,6.678l0.505,-1.104l3.947,1.145l0.78,-2.657l-20.346,-8.08Z" style="fill:#f6d7d0;fill-opacity:0.4;"/></g><path d="M8.32,22.535l35.759,7.662l-5.108,8.758l-15.326,-4.866l15.326,8.88l0,5.108l-20.434,-10.217l-5.109,-7.663l-5.108,-7.662Z" style="fill:#574052;"/><clipPath id="_clip9"><path d="M8.32,22.535l35.759,7.662l-5.108,8.758l-15.326,-4.866l15.326,8.88l0,5.108l-20.434,-10.217l-5.109,-7.663l-5.108,-7.662Z"/></clipPath><g clip-path="url(#_clip9)"><path d="M46.26,0.637l23.362,4.146l20.434,-2.682l-18.32,6.165l-2.114,2.453l2.952,2.236l-5.594,0.683l-2.467,2.242l-5.108,-3.562l-0.889,5.553l-17.598,-3.367l5.248,17.548l-3.954,9.296l0.943,6.876l6.033,20.287l-2.082,4.068l0.641,5.429l-24.102,-6.942l20.434,3.566l-1.612,-1.806l-23.93,-19.64l24.704,14.651l1.548,-0.258l-26.252,-19.502l25.542,15.028l-5.108,-7.139l-1.407,-6.28l-13.919,-9.272l12.442,3.997l-1.19,-2.553l-13.152,-7.502l1.9,-0.498l13.919,6.968l0.344,-1.118l-13.931,-5.684l14.501,3.59l3.571,-6.401l-33.729,-8.678l32.759,4.054l-2.108,-2.33l-5.109,-1.239l0,-5.23l5.109,-1.514l1.698,1.999l-0.177,1.402l-3.876,-0.07l4.299,3.276l0.669,0.494l-1.109,-3.584l0.15,-1.17l-0.431,-0.907l-1.724,-2.127l-0.596,-2.723l-4.012,-3.103l7.516,1.812l12.133,1.516l0.088,-1.717l-9.52,-6.719l17.295,6.678l0.505,-1.104l3.947,1.145l0.78,-2.657l-20.346,-8.08Z" style="fill:#f6d7d0;fill-opacity:0.4;"/></g><path d="M47.703,77.986l-24.058,-6.92l-5.108,-17.88l0,-5.109l30.651,20.434l-5.109,2.555l3.624,6.92Z" style="fill:#6c7157;"/><clipPath id="_clip10"><path d="M47.703,77.986l-24.058,-6.92l-5.108,-17.88l0,-5.109l30.651,20.434l-5.109,2.555l3.624,6.92Z"/></clipPath><g clip-path="url(#_clip10)"><path d="M46.26,0.637l23.362,4.146l20.434,-2.682l-18.32,6.165l-2.114,2.453l2.952,2.236l-5.594,0.683l-2.467,2.242l-5.108,-3.562l-0.889,5.553l-17.598,-3.367l5.248,17.548l-3.954,9.296l0.943,6.876l6.033,20.287l-2.082,4.068l0.641,5.429l-24.102,-6.942l20.434,3.566l-1.612,-1.806l-23.93,-19.64l24.704,14.651l1.548,-0.258l-26.252,-19.502l25.542,15.028l-5.108,-7.139l-1.407,-6.28l-13.919,-9.272l12.442,3.997l-1.19,-2.553l-13.152,-7.502l1.9,-0.498l13.919,6.968l0.344,-1.118l-13.931,-5.684l14.501,3.59l3.571,-6.401l-33.729,-8.678l32.759,4.054l-2.108,-2.33l-5.109,-1.239l0,-5.23l5.109,-1.514l1.698,1.999l-0.177,1.402l-3.876,-0.07l4.299,3.276l0.669,0.494l-1.109,-3.584l0.15,-1.17l-0.431,-0.907l-1.724,-2.127l-0.596,-2.723l-4.012,-3.103l7.516,1.812l12.133,1.516l0.088,-1.717l-9.52,-6.719l17.295,6.678l0.505,-1.104l3.947,1.145l0.78,-2.657l-20.346,-8.08Z" style="fill:#f6d7d0;fill-opacity:0.4;"/></g><path d="M18.537,37.86l5.108,2.554l-5.108,7.663l30.651,20.434l-10.217,-20.434l-20.434,-10.217Z" style="fill:#574052;"/><clipPath id="_clip11"><path d="M18.537,37.86l5.108,2.554l-5.108,7.663l30.651,20.434l-10.217,-20.434l-20.434,-10.217Z"/></clipPath><g clip-path="url(#_clip11)"><path d="M46.26,0.637l23.362,4.146l20.434,-2.682l-18.32,6.165l-2.114,2.453l2.952,2.236l-5.594,0.683l-2.467,2.242l-5.108,-3.562l-0.889,5.553l-17.598,-3.367l5.248,17.548l-3.954,9.296l0.943,6.876l6.033,20.287l-2.082,4.068l0.641,5.429l-24.102,-6.942l20.434,3.566l-1.612,-1.806l-23.93,-19.64l24.704,14.651l1.548,-0.258l-26.252,-19.502l25.542,15.028l-5.108,-7.139l-1.407,-6.28l-13.919,-9.272l12.442,3.997l-1.19,-2.553l-13.152,-7.502l1.9,-0.498l13.919,6.968l0.344,-1.118l-13.931,-5.684l14.501,3.59l3.571,-6.401l-33.729,-8.678l32.759,4.054l-2.108,-2.33l-5.109,-1.239l0,-5.23l5.109,-1.514l1.698,1.999l-0.177,1.402l-3.876,-0.07l4.299,3.276l0.669,0.494l-1.109,-3.584l0.15,-1.17l-0.431,-0.907l-1.724,-2.127l-0.596,-2.723l-4.012,-3.103l7.516,1.812l12.133,1.516l0.088,-1.717l-9.52,-6.719l17.295,6.678l0.505,-1.104l3.947,1.145l0.78,-2.657l-20.346,-8.08Z" style="fill:#f6d7d0;fill-opacity:0.4;"/></g><path d="M18.537,53.186l25.542,17.88l3.205,6.711l-23.639,-6.711l-5.108,-17.88Z" style="fill:#574052;"/><clipPath id="_clip12"><path d="M18.537,53.186l25.542,17.88l3.205,6.711l-23.639,-6.711l-5.108,-17.88Z"/></clipPath><g clip-path="url(#_clip12)"><path d="M46.26,0.637l23.362,4.146l20.434,-2.682l-18.32,6.165l-2.114,2.453l2.952,2.236l-5.594,0.683l-2.467,2.242l-5.108,-3.562l-0.889,5.553l-17.598,-3.367l5.248,17.548l-3.954,9.296l0.943,6.876l6.033,20.287l-2.082,4.068l0.641,5.429l-24.102,-6.942l20.434,3.566l-1.612,-1.806l-23.93,-19.64l24.704,14.651l1.548,-0.258l-26.252,-19.502l25.542,15.028l-5.108,-7.139l-1.407,-6.28l-13.919,-9.272l12.442,3.997l-1.19,-2.553l-13.152,-7.502l1.9,-0.498l13.919,6.968l0.344,-1.118l-13.931,-5.684l14.501,3.59l3.571,-6.401l-33.729,-8.678l32.759,4.054l-2.108,-2.33l-5.109,-1.239l0,-5.23l5.109,-1.514l1.698,1.999l-0.177,1.402l-3.876,-0.07l4.299,3.276l0.669,0.494l-1.109,-3.584l0.15,-1.17l-0.431,-0.907l-1.724,-2.127l-0.596,-2.723l-4.012,-3.103l7.516,1.812l12.133,1.516l0.088,-1.717l-9.52,-6.719l17.295,6.678l0.505,-1.104l3.947,1.145l0.78,-2.657l-20.346,-8.08Z" style="fill:#f6d7d0;fill-opacity:0.4;"/></g><path d="M46.208,0.61l-2.129,4.045l20.434,10.217l0,-2.297l5.974,0.175l-3.32,-1.66l2.455,-3.881l-23.414,-6.599Z" style="fill:#6c7157;"/><clipPath id="_clip13"><path d="M46.208,0.61l-2.129,4.045l20.434,10.217l0,-2.297l5.974,0.175l-3.32,-1.66l2.455,-3.881l-23.414,-6.599Z"/></clipPath><g clip-path="url(#_clip13)"><path d="M46.26,0.637l23.362,4.146l20.434,-2.682l-18.32,6.165l-2.114,2.453l2.952,2.236l-5.594,0.683l-2.467,2.242l-5.108,-3.562l-0.889,5.553l-17.598,-3.367l5.248,17.548l-3.954,9.296l0.943,6.876l6.033,20.287l-2.082,4.068l0.641,5.429l-24.102,-6.942l20.434,3.566l-1.612,-1.806l-23.93,-19.64l24.704,14.651l1.548,-0.258l-26.252,-19.502l25.542,15.028l-5.108,-7.139l-1.407,-6.28l-13.919,-9.272l12.442,3.997l-1.19,-2.553l-13.152,-7.502l1.9,-0.498l13.919,6.968l0.344,-1.118l-13.931,-5.684l14.501,3.59l3.571,-6.401l-33.729,-8.678l32.759,4.054l-2.108,-2.33l-5.109,-1.239l0,-5.23l5.109,-1.514l1.698,1.999l-0.177,1.402l-3.876,-0.07l4.299,3.276l0.669,0.494l-1.109,-3.584l0.15,-1.17l-0.431,-0.907l-1.724,-2.127l-0.596,-2.723l-4.012,-3.103l7.516,1.812l12.133,1.516l0.088,-1.717l-9.52,-6.719l17.295,6.678l0.505,-1.104l3.947,1.145l0.78,-2.657l-20.346,-8.08Z" style="fill:#f6d7d0;fill-opacity:0.9;"/></g><g><g><path d="M49.188,30.156l0,36.821l4.606,-2.309l0.502,-11.192l30.651,-41.231l-6.337,3.076l-25.142,30.616l0.326,-8.885l13.817,-16.134l-6.673,3.346l-7.144,8.513l0,-4.93l-4.606,2.309Z" style="fill:#f4ec3e;"/><path d="M49.188,66.977l4.606,0.759l4.605,-2.31l-4.605,-0.758l-4.606,2.309Z" style="fill:#f6d7d0;"/><path d="M58.399,65.426l0.224,-13.992l-4.829,-0.018l0,13.252l4.605,0.758Z" style="fill:#6c7157;"/><path d="M53.794,51.293l31.153,-39.021l0,4.76l-26.548,34.376l-4.605,-0.115Z" style="fill:#6c7157;"/><path d="M58.408,35.418l9.16,-10.722l0.214,-3.853l-13.988,16.209l4.614,-1.634Z" style="fill:#6c7157;"/><path d="M53.846,27.816l-0.056,4.972l4.05,-4.801l0.013,-2.181l-4.007,2.01Z" style="fill:#574052;"/><path d="M53.794,37.094l4.562,-1.59l-0.258,4.833l-4.616,5.593l0.312,-8.836Z" style="fill:#6c7157;"/></g></g></g></g></g><path d="M86.438,42.015c0,0 2.482,1.153 2.213,3.31c-0.27,2.156 -0.855,2.424 -1.147,8.67c-0.291,6.247 1.6,1.941 1.103,9.666c-0.496,7.724 6.064,5.028 -1.484,12.307c-7.549,7.279 -14.019,11.144 -20.22,7.279c-6.2,-3.864 -8.177,-2.516 -14.288,-0.629c-6.111,1.887 -7.81,1.528 -13.655,1.887c-5.846,0.36 -7.931,-0.772 -16.369,-4.205c-8.438,-3.433 -4.574,-0.917 -10.685,-6.668c-6.11,-5.751 1.342,-7.119 -3.597,-5.582c-4.94,1.538 -11.479,8.727 -5.109,0.549c6.37,-8.177 0.801,-8.901 6.506,-10.067c5.705,-1.166 3.72,-4.114 5.746,-2.236c2.026,1.879 4.471,0.839 4.471,0.839l2.857,11.644l2.858,-3.082c0,0 -0.046,-2.024 2.024,1.196c2.071,3.221 2.672,2.386 4.097,2.665c1.424,0.28 -1.198,1.384 1.424,0.28c2.623,-1.104 1.691,-0.76 3.33,-0.564c1.639,0.196 0.079,-1.736 2.447,0.61c2.367,2.347 2.091,2.991 3.241,2.991c1.151,0 1.381,-0.23 1.381,-0.23l0.486,-1.15l0,-0.89l-7.388,-4.954l0.368,-1.242c0,0 -2.07,-1.104 0.644,0.046c2.715,1.15 2.979,2 4.342,2.058c1.364,0.058 1.548,-0.402 2.606,0.426c1.058,0.829 1.38,1.105 1.38,1.105l2.635,-0.254l0.522,0.26l-1.454,2.294c0,0 0.046,0.368 0.736,0.828c0.69,0.461 -0.681,0.553 0.718,0.599c1.398,0.046 3.343,2.438 5.108,-0.276c1.766,-2.715 1.029,-2.163 2.18,-2.853c1.15,-0.69 -0.322,0.874 1.61,-0.828c1.933,-1.703 1.15,-1.703 2.163,-2.025c1.012,-0.322 1.978,-0.736 1.978,-0.736c0,0 5.153,-1.702 5.015,-4.049c-0.138,-2.346 -1.288,-1.012 -0.138,-2.392c1.15,-1.381 0.389,-2.025 2.518,-2.301c2.129,-0.276 4.66,-0.138 4.66,-0.138l-0.368,2.853c0,0 -1.841,0.736 -2.255,1.196c-0.414,0.46 -1.058,1.196 -1.058,1.196l-2.301,1.427l0.092,1.288l0.23,2.162l0.437,1.474c0,0 1.993,0.533 2.159,-0.516c0.165,-1.05 -0.019,-1.05 0.441,-1.786c0.46,-0.736 0.874,-0.782 1.427,-1.932c0.552,-1.151 1.058,-1.887 1.058,-1.887c0,0 -1.725,0.966 0.587,-0.736c2.311,-1.702 2.587,-0.966 2.587,-2.669c0,-1.702 -0.23,-1.84 0,-2.852c0.231,-1.012 1.131,-1.971 1.131,-1.971l1.39,0.268l0.654,1.243l0.23,2.898l0,2.209l0.598,0.276l1.105,-2.899l0.533,-1.142l1.989,-0.994l1.929,-4.144l-3.991,-3.474l2.062,-2.599l1.501,-3.047" style="fill:#714639;"/><clipPath id="_clip14"><path d="M86.438,42.015c0,0 2.482,1.153 2.213,3.31c-0.27,2.156 -0.855,2.424 -1.147,8.67c-0.291,6.247 1.6,1.941 1.103,9.666c-0.496,7.724 6.064,5.028 -1.484,12.307c-7.549,7.279 -14.019,11.144 -20.22,7.279c-6.2,-3.864 -8.177,-2.516 -14.288,-0.629c-6.111,1.887 -7.81,1.528 -13.655,1.887c-5.846,0.36 -7.931,-0.772 -16.369,-4.205c-8.438,-3.433 -4.574,-0.917 -10.685,-6.668c-6.11,-5.751 1.342,-7.119 -3.597,-5.582c-4.94,1.538 -11.479,8.727 -5.109,0.549c6.37,-8.177 0.801,-8.901 6.506,-10.067c5.705,-1.166 3.72,-4.114 5.746,-2.236c2.026,1.879 4.471,0.839 4.471,0.839l2.857,11.644l2.858,-3.082c0,0 -0.046,-2.024 2.024,1.196c2.071,3.221 2.672,2.386 4.097,2.665c1.424,0.28 -1.198,1.384 1.424,0.28c2.623,-1.104 1.691,-0.76 3.33,-0.564c1.639,0.196 0.079,-1.736 2.447,0.61c2.367,2.347 2.091,2.991 3.241,2.991c1.151,0 1.381,-0.23 1.381,-0.23l0.486,-1.15l0,-0.89l-7.388,-4.954l0.368,-1.242c0,0 -2.07,-1.104 0.644,0.046c2.715,1.15 2.979,2 4.342,2.058c1.364,0.058 1.548,-0.402 2.606,0.426c1.058,0.829 1.38,1.105 1.38,1.105l2.635,-0.254l0.522,0.26l-1.454,2.294c0,0 0.046,0.368 0.736,0.828c0.69,0.461 -0.681,0.553 0.718,0.599c1.398,0.046 3.343,2.438 5.108,-0.276c1.766,-2.715 1.029,-2.163 2.18,-2.853c1.15,-0.69 -0.322,0.874 1.61,-0.828c1.933,-1.703 1.15,-1.703 2.163,-2.025c1.012,-0.322 1.978,-0.736 1.978,-0.736c0,0 5.153,-1.702 5.015,-4.049c-0.138,-2.346 -1.288,-1.012 -0.138,-2.392c1.15,-1.381 0.389,-2.025 2.518,-2.301c2.129,-0.276 4.66,-0.138 4.66,-0.138l-0.368,2.853c0,0 -1.841,0.736 -2.255,1.196c-0.414,0.46 -1.058,1.196 -1.058,1.196l-2.301,1.427l0.092,1.288l0.23,2.162l0.437,1.474c0,0 1.993,0.533 2.159,-0.516c0.165,-1.05 -0.019,-1.05 0.441,-1.786c0.46,-0.736 0.874,-0.782 1.427,-1.932c0.552,-1.151 1.058,-1.887 1.058,-1.887c0,0 -1.725,0.966 0.587,-0.736c2.311,-1.702 2.587,-0.966 2.587,-2.669c0,-1.702 -0.23,-1.84 0,-2.852c0.231,-1.012 1.131,-1.971 1.131,-1.971l1.39,0.268l0.654,1.243l0.23,2.898l0,2.209l0.598,0.276l1.105,-2.899l0.533,-1.142l1.989,-0.994l1.929,-4.144l-3.991,-3.474l2.062,-2.599l1.501,-3.047"/></clipPath><g clip-path="url(#_clip14)"><path d="M94.339,37.569l0,61.302l-56.194,-5.638l27.944,-41.539l28.25,-14.125Z" style="fill:#c4e783;fill-opacity:0.5;"/><path d="M91.665,46.806l0.117,-3.43l-4.209,-0.76c0,0 -1.796,2.623 -2.129,6.077c-0.073,0.756 1.676,1.716 1.563,2.513c-0.677,4.749 -2.055,9.842 -2.07,11.178c-0.029,2.584 1.714,5.616 0,6.964c-1.714,1.348 0.195,2.921 -2.051,3.595c-2.247,0.674 -3.275,6.594 -3.94,0.657c-0.666,-5.937 -1.255,-5.095 -0.511,-6.246c0.744,-1.151 1.393,-1.937 1.393,-1.937l0,-2.475l0,-1.569c0,0 -2.37,1.277 -3.082,3.11c-0.713,1.832 -2.854,6.536 -2.854,6.536c0,0 0.95,1.05 -2.554,3.003c-3.505,1.954 -5.728,2.245 -5.728,2.245c0,0 0.584,1.751 0,0c-0.585,-1.751 2.379,-9.028 2.379,-9.028c0,0 0.92,-1.277 -1.078,-0.539c-1.998,0.739 -3.269,3.926 -5.442,5.421c-2.173,1.496 -3.858,3.293 -3.858,3.293l-1.818,1.053l-0.023,-5.12c0,0 0.429,0.826 -3.527,3.345c-3.955,2.52 -4.694,2.762 -4.694,2.762c0,0 -0.582,1.837 -1.438,-0.719c-0.856,-2.556 -0.48,-1.803 -0.48,-1.803l0.747,-4.348l-2.31,-1.797l0,8.986l-6.929,1.405l-2.331,-0.057l2.092,-6.992c0,0 -0.074,0.14 -3.049,0.14c-2.974,0 -6.004,0.442 -6.004,0.442l-0.501,1.146c0,0 0.273,-0.465 -1.974,-0.24c-2.246,0.225 2.696,3.37 -2.808,-0.225c-5.504,-3.594 -5.776,2.826 -6.539,-4.091c-0.762,-6.917 -1.364,-6.95 -0.558,-7.888c0.807,-0.939 4.401,-0.152 1.031,-1.163c-3.37,-1.011 -3.081,-1.011 -3.081,-1.011c0,0 -1.616,-3.036 -5.108,-1.406c-3.493,1.63 -1.531,0.515 -3.692,3.263c-2.16,2.748 -1.904,-3.105 -6.525,6.954c-4.622,10.06 -12.468,11.149 -4.276,13.188c8.192,2.039 3.939,3.387 19.601,3.387c15.662,0 74.691,4.828 74.691,4.828l6.278,-14.124l-2.721,-28.523Z" style="fill:#b38b66;"/><clipPath id="_clip15"><path d="M91.665,46.806l0.117,-3.43l-4.209,-0.76c0,0 -1.796,2.623 -2.129,6.077c-0.073,0.756 1.676,1.716 1.563,2.513c-0.677,4.749 -2.055,9.842 -2.07,11.178c-0.029,2.584 1.714,5.616 0,6.964c-1.714,1.348 0.195,2.921 -2.051,3.595c-2.247,0.674 -3.275,6.594 -3.94,0.657c-0.666,-5.937 -1.255,-5.095 -0.511,-6.246c0.744,-1.151 1.393,-1.937 1.393,-1.937l0,-2.475l0,-1.569c0,0 -2.37,1.277 -3.082,3.11c-0.713,1.832 -2.854,6.536 -2.854,6.536c0,0 0.95,1.05 -2.554,3.003c-3.505,1.954 -5.728,2.245 -5.728,2.245c0,0 0.584,1.751 0,0c-0.585,-1.751 2.379,-9.028 2.379,-9.028c0,0 0.92,-1.277 -1.078,-0.539c-1.998,0.739 -3.269,3.926 -5.442,5.421c-2.173,1.496 -3.858,3.293 -3.858,3.293l-1.818,1.053l-0.023,-5.12c0,0 0.429,0.826 -3.527,3.345c-3.955,2.52 -4.694,2.762 -4.694,2.762c0,0 -0.582,1.837 -1.438,-0.719c-0.856,-2.556 -0.48,-1.803 -0.48,-1.803l0.747,-4.348l-2.31,-1.797l0,8.986l-6.929,1.405l-2.331,-0.057l2.092,-6.992c0,0 -0.074,0.14 -3.049,0.14c-2.974,0 -6.004,0.442 -6.004,0.442l-0.501,1.146c0,0 0.273,-0.465 -1.974,-0.24c-2.246,0.225 2.696,3.37 -2.808,-0.225c-5.504,-3.594 -5.776,2.826 -6.539,-4.091c-0.762,-6.917 -1.364,-6.95 -0.558,-7.888c0.807,-0.939 4.401,-0.152 1.031,-1.163c-3.37,-1.011 -3.081,-1.011 -3.081,-1.011c0,0 -1.616,-3.036 -5.108,-1.406c-3.493,1.63 -1.531,0.515 -3.692,3.263c-2.16,2.748 -1.904,-3.105 -6.525,6.954c-4.622,10.06 -12.468,11.149 -4.276,13.188c8.192,2.039 3.939,3.387 19.601,3.387c15.662,0 74.691,4.828 74.691,4.828l6.278,-14.124l-2.721,-28.523Z"/></clipPath><g clip-path="url(#_clip15)"><path d="M94.339,37.569l0,61.302l-56.194,-5.638l27.944,-41.539l28.25,-14.125Z" style="fill:#c4e783;fill-opacity:0.5;"/></g><path d="M45.611,61.933l-38.117,19.058l-10.217,-10.217l17.381,-24.016l30.953,15.175Z" style="fill-opacity:0.5;"/></g></g></svg>