<?xml version="1.0" encoding="UTF-8" standalone="no"?><!DOCTYPE svg PUBLIC "-//W3C//DTD SVG 1.1//EN" "http://www.w3.org/Graphics/SVG/1.1/DTD/svg11.dtd"><svg width="100%" height="100%" viewBox="0 0 91 89" version="1.1" xmlns="http://www.w3.org/2000/svg" xmlns:xlink="http://www.w3.org/1999/xlink" xml:space="preserve" xmlns:serif="http://www.serif.com/" style="fill-rule:evenodd;clip-rule:evenodd;stroke-linejoin:round;stroke-miterlimit:1.41421;"><g id="N_Runestone_mossy_runes_4"><g id="F_Runestone_grass_runes_4"><g id="F_Runestone_runes_4"><g><g><path d="M70.4,5.182l19.823,0.306l-20.434,5.108l-23.436,-6.609l24.047,1.195Z" style="fill:#9da8c9;"/><clipPath id="_clip1"><path d="M70.4,5.182l19.823,0.306l-20.434,5.108l-23.436,-6.609l24.047,1.195Z"/></clipPath><g clip-path="url(#_clip1)"><path d="M46.427,4.024l23.362,4.147l20.434,-2.683l-18.32,6.165l-2.114,2.453l2.952,2.237l-5.594,0.683l-2.467,2.241l-5.108,-3.562l-0.889,5.553l-17.598,-3.367l5.248,17.548l-3.954,9.297l0.943,6.875l6.033,20.288l-2.082,4.068l0.641,5.428l-24.102,-6.942l20.434,3.567l-1.612,-1.807l-23.931,-19.64l24.705,14.651l1.548,-0.258l-26.253,-19.501l25.543,15.028l-5.108,-7.14l-1.408,-6.279l-13.918,-9.272l12.442,3.996l-1.19,-2.552l-13.152,-7.503l1.9,-0.497l13.918,6.967l0.345,-1.118l-13.932,-5.683l14.502,3.589l3.57,-6.401l-33.729,-8.678l32.76,4.054l-2.108,-2.33l-5.109,-1.238l0,-5.23l5.109,-1.514l1.698,1.999l-0.177,1.401l-3.876,-0.07l4.299,3.277l0.669,0.493l-1.11,-3.583l0.151,-1.17l-0.431,-0.907l-1.725,-2.127l-0.595,-2.724l-4.012,-3.102l7.516,1.812l12.133,1.516l0.088,-1.718l-9.52,-6.719l17.295,6.678l0.505,-1.104l3.947,1.145l0.78,-2.657l-20.346,-8.08Z" style="fill:#f6d7d0;fill-opacity:0.9;"/></g><path d="M69.789,71.899l-5.109,-2.555l10.217,-15.325l5.871,4.799l-3.316,6.695l-7.663,6.386Z" style="fill:#6c7157;"/><clipPath id="_clip2"><path d="M69.789,71.899l-5.109,-2.555l10.217,-15.325l5.871,4.799l-3.316,6.695l-7.663,6.386Z"/></clipPath><g clip-path="url(#_clip2)"><path d="M46.427,4.024l23.362,4.147l20.434,-2.683l-18.32,6.165l-2.114,2.453l2.952,2.237l-5.594,0.683l-2.467,2.241l-5.108,-3.562l-0.889,5.553l-17.598,-3.367l5.248,17.548l-3.954,9.297l0.943,6.875l6.033,20.288l-2.082,4.068l0.641,5.428l-24.102,-6.942l20.434,3.567l-1.612,-1.807l-23.931,-19.64l24.705,14.651l1.548,-0.258l-26.253,-19.501l25.543,15.028l-5.108,-7.14l-1.408,-6.279l-13.918,-9.272l12.442,3.996l-1.19,-2.552l-13.152,-7.503l1.9,-0.497l13.918,6.967l0.345,-1.118l-13.932,-5.683l14.502,3.589l3.57,-6.401l-33.729,-8.678l32.76,4.054l-2.108,-2.33l-5.109,-1.238l0,-5.23l5.109,-1.514l1.698,1.999l-0.177,1.401l-3.876,-0.07l4.299,3.277l0.669,0.493l-1.11,-3.583l0.151,-1.17l-0.431,-0.907l-1.725,-2.127l-0.595,-2.724l-4.012,-3.102l7.516,1.812l12.133,1.516l0.088,-1.718l-9.52,-6.719l17.295,6.678l0.505,-1.104l3.947,1.145l0.78,-2.657l-20.346,-8.08Z" style="fill:#f6d7d0;fill-opacity:0.9;"/></g><path d="M85.114,41.861l-7.795,-4.379l-8.181,4.091l10.868,8.417l5.108,-8.129Z" style="fill:#9da8c9;"/><clipPath id="_clip3"><path d="M85.114,41.861l-7.795,-4.379l-8.181,4.091l10.868,8.417l5.108,-8.129Z"/></clipPath><g clip-path="url(#_clip3)"><path d="M46.427,4.024l23.362,4.147l20.434,-2.683l-18.32,6.165l-2.114,2.453l2.952,2.237l-5.594,0.683l-2.467,2.241l-5.108,-3.562l-0.889,5.553l-17.598,-3.367l5.248,17.548l-3.954,9.297l0.943,6.875l6.033,20.288l-2.082,4.068l0.641,5.428l-24.102,-6.942l20.434,3.567l-1.612,-1.807l-23.931,-19.64l24.705,14.651l1.548,-0.258l-26.253,-19.501l25.543,15.028l-5.108,-7.14l-1.408,-6.279l-13.918,-9.272l12.442,3.996l-1.19,-2.552l-13.152,-7.503l1.9,-0.497l13.918,6.967l0.345,-1.118l-13.932,-5.683l14.502,3.589l3.57,-6.401l-33.729,-8.678l32.76,4.054l-2.108,-2.33l-5.109,-1.238l0,-5.23l5.109,-1.514l1.698,1.999l-0.177,1.401l-3.876,-0.07l4.299,3.277l0.669,0.493l-1.11,-3.583l0.151,-1.17l-0.431,-0.907l-1.725,-2.127l-0.595,-2.724l-4.012,-3.102l7.516,1.812l12.133,1.516l0.088,-1.718l-9.52,-6.719l17.295,6.678l0.505,-1.104l3.947,1.145l0.78,-2.657l-20.346,-8.08Z" style="fill:#f6d7d0;fill-opacity:0.9;"/></g><path d="M44.246,8.042l-10.217,5.109l-25.543,12.771l28.07,3.818l6.39,1.254l11.517,-12.735l5.109,-2.554l-15.326,-7.663Z" style="fill:#9da8c9;"/><clipPath id="_clip4"><path d="M44.246,8.042l-10.217,5.109l-25.543,12.771l28.07,3.818l6.39,1.254l11.517,-12.735l5.109,-2.554l-15.326,-7.663Z"/></clipPath><g clip-path="url(#_clip4)"><path d="M68.483,80.055l-1.96,-9.996l5.98,-11.069l7.577,-3.788l-6.123,-2.047l-2.104,3.042l-0.404,-14.339l13.739,-12.437l-5.108,2.955l-5.109,2.34l-13.167,16.457l2.95,6.583l1.444,4.387l-1.444,7.793l-11.562,8.927l-13.981,3.141l-20.434,-3.325l20.434,-3.043l-10.217,-1.636l0,-6.158l-2.863,2.71l-7.354,-9.236l-3.729,-15.763l17.402,11.376l4.121,4.701l-0.319,-4.948l-2.149,-4.035l-13.599,-6.799l-4.272,-4.699l5.058,-5.125l11.418,1.995l-2.774,-2.781l-6.048,-1.384l-5.109,-3.079l0,1.847l-6.385,0.23l-7.387,-6.524l12.022,-7.761l10.29,6.822l0.045,-3.48l4.171,-1.198l-6.633,-7.176l14.311,-0.985l10.217,3.448l0,2.093l-2.754,7.837l-2.354,22.703l1.723,4.878l1.082,-9.676l2.303,-14.174l13.722,-6.861l-8.613,-4.46l-13.524,-10.014l8.415,-9.316l19.412,4.597l29.873,-0.389l-25.294,11.673l-1.724,6.773l3.276,0.334l0,-5.108l15.326,-5.2l19.255,-12.091l-80.558,-4.78l-32.158,44.305l19.562,50.65l52.085,-9.717" style="fill:#135c2e;fill-opacity:0.7;"/><path d="M46.427,4.024l23.362,4.147l20.434,-2.683l-18.32,6.165l-2.114,2.453l2.952,2.237l-5.594,0.683l-2.467,2.241l-5.108,-3.562l-0.889,5.553l-17.598,-3.367l5.248,17.548l-3.954,9.297l0.943,6.875l6.033,20.288l-2.082,4.068l0.641,5.428l-24.102,-6.942l20.434,3.567l-1.612,-1.807l-23.931,-19.64l24.705,14.651l1.548,-0.258l-26.253,-19.501l25.543,15.028l-5.108,-7.14l-1.408,-6.279l-13.918,-9.272l12.442,3.996l-1.19,-2.552l-13.152,-7.503l1.9,-0.497l13.918,6.967l0.345,-1.118l-13.932,-5.683l14.502,3.589l3.57,-6.401l-33.729,-8.678l32.76,4.054l-2.108,-2.33l-5.109,-1.238l0,-5.23l5.109,-1.514l1.698,1.999l-0.177,1.401l-3.876,-0.07l4.299,3.277l0.669,0.493l-1.11,-3.583l0.151,-1.17l-0.431,-0.907l-1.725,-2.127l-0.595,-2.724l-4.012,-3.102l7.516,1.812l12.133,1.516l0.088,-1.718l-9.52,-6.719l17.295,6.678l0.505,-1.104l3.947,1.145l0.78,-2.657l-20.346,-8.08Z" style="fill:#f6d7d0;fill-opacity:0.9;"/></g><path d="M90.223,5.488l-20.434,5.108l-10.217,5.109l-5.109,2.554l-15.325,-2.554l-8.822,6.915l6.238,7.119l-14.466,7.033l17.05,14.693l5.108,12.771l-5.108,-2.554l5.108,12.771l3.753,6.985l2.172,-2.84l9.401,-1.591l7.325,-3.662l5.18,-7.699l7.929,-6.634l-5.109,7.346l-5.108,5.541l13.112,-6.557l3.926,-10.467l-3.918,-3.41l2.205,-2.555l2.021,-4.098l-2.021,-3.012l-3.515,3.759l-3.024,1.513l-0.412,-3.678l3.174,-4.803l5.941,-2.04l2.945,-5.52l0,-10.218l-4.124,-9.84l4.124,-5.485Z" style="fill:#bac1d8;"/><clipPath id="_clip5"><path d="M90.223,5.488l-20.434,5.108l-10.217,5.109l-5.109,2.554l-15.325,-2.554l-8.822,6.915l6.238,7.119l-14.466,7.033l17.05,14.693l5.108,12.771l-5.108,-2.554l5.108,12.771l3.753,6.985l2.172,-2.84l9.401,-1.591l7.325,-3.662l5.18,-7.699l7.929,-6.634l-5.109,7.346l-5.108,5.541l13.112,-6.557l3.926,-10.467l-3.918,-3.41l2.205,-2.555l2.021,-4.098l-2.021,-3.012l-3.515,3.759l-3.024,1.513l-0.412,-3.678l3.174,-4.803l5.941,-2.04l2.945,-5.52l0,-10.218l-4.124,-9.84l4.124,-5.485Z"/></clipPath><g clip-path="url(#_clip5)"><path d="M68.483,80.055l-1.96,-9.996l5.98,-11.069l7.577,-3.788l-6.123,-2.047l-2.104,3.042l-0.404,-14.339l13.739,-12.437l-5.108,2.955l-5.109,2.34l-13.167,16.457l2.95,6.583l1.444,4.387l-1.444,7.793l-11.562,8.927l-13.981,3.141l-20.434,-3.325l20.434,-3.043l-10.217,-1.636l0,-6.158l-2.863,2.71l-7.354,-9.236l-3.729,-15.763l17.402,11.376l4.121,4.701l-0.319,-4.948l-2.149,-4.035l-13.599,-6.799l-4.272,-4.699l5.058,-5.125l11.418,1.995l-2.774,-2.781l-6.048,-1.384l-5.109,-3.079l0,1.847l-6.385,0.23l-7.387,-6.524l12.022,-7.761l10.29,6.822l0.045,-3.48l4.171,-1.198l-6.633,-7.176l14.311,-0.985l10.217,3.448l0,2.093l-2.754,7.837l-2.354,22.703l1.723,4.878l1.082,-9.676l2.303,-14.174l13.722,-6.861l-8.613,-4.46l-13.524,-10.014l8.415,-9.316l19.412,4.597l29.873,-0.389l-25.294,11.673l-1.724,6.773l3.276,0.334l0,-5.108l15.326,-5.2l19.255,-12.091l-80.558,-4.78l-32.158,44.305l19.562,50.65l52.085,-9.717" style="fill:#135c2e;fill-opacity:0.7;"/><path d="M46.427,4.024l23.362,4.147l20.434,-2.683l-18.32,6.165l-2.114,2.453l2.952,2.237l-5.594,0.683l-2.467,2.241l-5.108,-3.562l-0.889,5.553l-17.598,-3.367l5.248,17.548l-3.954,9.297l0.943,6.875l6.033,20.288l-2.082,4.068l0.641,5.428l-24.102,-6.942l20.434,3.567l-1.612,-1.807l-23.931,-19.64l24.705,14.651l1.548,-0.258l-26.253,-19.501l25.543,15.028l-5.108,-7.14l-1.408,-6.279l-13.918,-9.272l12.442,3.996l-1.19,-2.552l-13.152,-7.503l1.9,-0.497l13.918,6.967l0.345,-1.118l-13.932,-5.683l14.502,3.589l3.57,-6.401l-33.729,-8.678l32.76,4.054l-2.108,-2.33l-5.109,-1.238l0,-5.23l5.109,-1.514l1.698,1.999l-0.177,1.401l-3.876,-0.07l4.299,3.277l0.669,0.493l-1.11,-3.583l0.151,-1.17l-0.431,-0.907l-1.725,-2.127l-0.595,-2.724l-4.012,-3.102l7.516,1.812l12.133,1.516l0.088,-1.718l-9.52,-6.719l17.295,6.678l0.505,-1.104l3.947,1.145l0.78,-2.657l-20.346,-8.08Z" style="fill:#f6d7d0;fill-opacity:0.9;"/></g><path d="M40.739,21.614l1.208,5.713l-13.027,0.651l1.895,-9.161l6.492,1.081l3.432,1.716Z" style="fill:#9da8c9;"/><clipPath id="_clip6"><path d="M40.739,21.614l1.208,5.713l-13.027,0.651l1.895,-9.161l6.492,1.081l3.432,1.716Z"/></clipPath><g clip-path="url(#_clip6)"><path d="M46.427,4.024l23.362,4.147l20.434,-2.683l-18.32,6.165l-2.114,2.453l2.952,2.237l-5.594,0.683l-2.467,2.241l-5.108,-3.562l-0.889,5.553l-17.598,-3.367l5.248,17.548l-3.954,9.297l0.943,6.875l6.033,20.288l-2.082,4.068l0.641,5.428l-24.102,-6.942l20.434,3.567l-1.612,-1.807l-23.931,-19.64l24.705,14.651l1.548,-0.258l-26.253,-19.501l25.543,15.028l-5.108,-7.14l-1.408,-6.279l-13.918,-9.272l12.442,3.996l-1.19,-2.552l-13.152,-7.503l1.9,-0.497l13.918,6.967l0.345,-1.118l-13.932,-5.683l14.502,3.589l3.57,-6.401l-33.729,-8.678l32.76,4.054l-2.108,-2.33l-5.109,-1.238l0,-5.23l5.109,-1.514l1.698,1.999l-0.177,1.401l-3.876,-0.07l4.299,3.277l0.669,0.493l-1.11,-3.583l0.151,-1.17l-0.431,-0.907l-1.725,-2.127l-0.595,-2.724l-4.012,-3.102l7.516,1.812l12.133,1.516l0.088,-1.718l-9.52,-6.719l17.295,6.678l0.505,-1.104l3.947,1.145l0.78,-2.657l-20.346,-8.08Z" style="fill:#f6d7d0;fill-opacity:0.9;"/></g><path d="M39.138,42.272l0,4.084l-18.262,-6.195l-0.81,-9.812l19.072,11.923Z" style="fill:#6c7157;"/><clipPath id="_clip7"><path d="M39.138,42.272l0,4.084l-18.262,-6.195l-0.81,-9.812l19.072,11.923Z"/></clipPath><g clip-path="url(#_clip7)"><path d="M46.427,4.024l23.362,4.147l20.434,-2.683l-18.32,6.165l-2.114,2.453l2.952,2.237l-5.594,0.683l-2.467,2.241l-5.108,-3.562l-0.889,5.553l-17.598,-3.367l5.248,17.548l-3.954,9.297l0.943,6.875l6.033,20.288l-2.082,4.068l0.641,5.428l-24.102,-6.942l20.434,3.567l-1.612,-1.807l-23.931,-19.64l24.705,14.651l1.548,-0.258l-26.253,-19.501l25.543,15.028l-5.108,-7.14l-1.408,-6.279l-13.918,-9.272l12.442,3.996l-1.19,-2.552l-13.152,-7.503l1.9,-0.497l13.918,6.967l0.345,-1.118l-13.932,-5.683l14.502,3.589l3.57,-6.401l-33.729,-8.678l32.76,4.054l-2.108,-2.33l-5.109,-1.238l0,-5.23l5.109,-1.514l1.698,1.999l-0.177,1.401l-3.876,-0.07l4.299,3.277l0.669,0.493l-1.11,-3.583l0.151,-1.17l-0.431,-0.907l-1.725,-2.127l-0.595,-2.724l-4.012,-3.102l7.516,1.812l12.133,1.516l0.088,-1.718l-9.52,-6.719l17.295,6.678l0.505,-1.104l3.947,1.145l0.78,-2.657l-20.346,-8.08Z" style="fill:#f6d7d0;fill-opacity:0.4;"/></g><path d="M34.029,13.151l5.109,2.554l1.643,5.93l-5.669,0.256l0.752,3.208l6.135,2.254l2.247,6.232l-35.76,-7.663l25.543,-12.771Z" style="fill:#6c7157;"/><clipPath id="_clip8"><path d="M34.029,13.151l5.109,2.554l1.643,5.93l-5.669,0.256l0.752,3.208l6.135,2.254l2.247,6.232l-35.76,-7.663l25.543,-12.771Z"/></clipPath><g clip-path="url(#_clip8)"><path d="M68.483,80.055l-1.96,-9.996l5.98,-11.069l7.577,-3.788l-6.123,-2.047l-2.104,3.042l-0.404,-14.339l13.739,-12.437l-5.108,2.955l-5.109,2.34l-13.167,16.457l2.95,6.583l1.444,4.387l-1.444,7.793l-11.562,8.927l-13.981,3.141l-20.434,-3.325l20.434,-3.043l-10.217,-1.636l0,-6.158l-2.863,2.71l-7.354,-9.236l-3.729,-15.763l17.402,11.376l4.121,4.701l-0.319,-4.948l-2.149,-4.035l-13.599,-6.799l-4.272,-4.699l5.058,-5.125l11.418,1.995l-2.774,-2.781l-6.048,-1.384l-5.109,-3.079l0,1.847l-6.385,0.23l-7.387,-6.524l12.022,-7.761l10.29,6.822l0.045,-3.48l4.171,-1.198l-6.633,-7.176l14.311,-0.985l10.217,3.448l0,2.093l-2.754,7.837l-2.354,22.703l1.723,4.878l1.082,-9.676l2.303,-14.174l13.722,-6.861l-8.613,-4.46l-13.524,-10.014l8.415,-9.316l19.412,4.597l29.873,-0.389l-25.294,11.673l-1.724,6.773l3.276,0.334l0,-5.108l15.326,-5.2l19.255,-12.091l-80.558,-4.78l-32.158,44.305l19.562,50.65l52.085,-9.717" style="fill:#135c2e;fill-opacity:0.7;"/><path d="M46.427,4.024l23.362,4.147l20.434,-2.683l-18.32,6.165l-2.114,2.453l2.952,2.237l-5.594,0.683l-2.467,2.241l-5.108,-3.562l-0.889,5.553l-17.598,-3.367l5.248,17.548l-3.954,9.297l0.943,6.875l6.033,20.288l-2.082,4.068l0.641,5.428l-24.102,-6.942l20.434,3.567l-1.612,-1.807l-23.931,-19.64l24.705,14.651l1.548,-0.258l-26.253,-19.501l25.543,15.028l-5.108,-7.14l-1.408,-6.279l-13.918,-9.272l12.442,3.996l-1.19,-2.552l-13.152,-7.503l1.9,-0.497l13.918,6.967l0.345,-1.118l-13.932,-5.683l14.502,3.589l3.57,-6.401l-33.729,-8.678l32.76,4.054l-2.108,-2.33l-5.109,-1.238l0,-5.23l5.109,-1.514l1.698,1.999l-0.177,1.401l-3.876,-0.07l4.299,3.277l0.669,0.493l-1.11,-3.583l0.151,-1.17l-0.431,-0.907l-1.725,-2.127l-0.595,-2.724l-4.012,-3.102l7.516,1.812l12.133,1.516l0.088,-1.718l-9.52,-6.719l17.295,6.678l0.505,-1.104l3.947,1.145l0.78,-2.657l-20.346,-8.08Z" style="fill:#f6d7d0;fill-opacity:0.4;"/></g><path d="M8.486,25.922l35.76,7.663l-5.108,8.757l-15.326,-4.866l15.326,8.88l0,5.109l-20.435,-10.217l-5.108,-7.663l-5.109,-7.663Z" style="fill:#574052;"/><clipPath id="_clip9"><path d="M8.486,25.922l35.76,7.663l-5.108,8.757l-15.326,-4.866l15.326,8.88l0,5.109l-20.435,-10.217l-5.108,-7.663l-5.109,-7.663Z"/></clipPath><g clip-path="url(#_clip9)"><path d="M68.483,80.055l-1.96,-9.996l5.98,-11.069l7.577,-3.788l-6.123,-2.047l-2.104,3.042l-0.404,-14.339l13.739,-12.437l-5.108,2.955l-5.109,2.34l-13.167,16.457l2.95,6.583l1.444,4.387l-1.444,7.793l-11.562,8.927l-13.981,3.141l-20.434,-3.325l20.434,-3.043l-10.217,-1.636l0,-6.158l-2.863,2.71l-7.354,-9.236l-3.729,-15.763l17.402,11.376l4.121,4.701l-0.319,-4.948l-2.149,-4.035l-13.599,-6.799l-4.272,-4.699l5.058,-5.125l11.418,1.995l-2.774,-2.781l-6.048,-1.384l-5.109,-3.079l0,1.847l-6.385,0.23l-7.387,-6.524l12.022,-7.761l10.29,6.822l0.045,-3.48l4.171,-1.198l-6.633,-7.176l14.311,-0.985l10.217,3.448l0,2.093l-2.754,7.837l-2.354,22.703l1.723,4.878l1.082,-9.676l2.303,-14.174l13.722,-6.861l-8.613,-4.46l-13.524,-10.014l8.415,-9.316l19.412,4.597l29.873,-0.389l-25.294,11.673l-1.724,6.773l3.276,0.334l0,-5.108l15.326,-5.2l19.255,-12.091l-80.558,-4.78l-32.158,44.305l19.562,50.65l52.085,-9.717" style="fill:#135c2e;fill-opacity:0.7;"/><path d="M46.427,4.024l23.362,4.147l20.434,-2.683l-18.32,6.165l-2.114,2.453l2.952,2.237l-5.594,0.683l-2.467,2.241l-5.108,-3.562l-0.889,5.553l-17.598,-3.367l5.248,17.548l-3.954,9.297l0.943,6.875l6.033,20.288l-2.082,4.068l0.641,5.428l-24.102,-6.942l20.434,3.567l-1.612,-1.807l-23.931,-19.64l24.705,14.651l1.548,-0.258l-26.253,-19.501l25.543,15.028l-5.108,-7.14l-1.408,-6.279l-13.918,-9.272l12.442,3.996l-1.19,-2.552l-13.152,-7.503l1.9,-0.497l13.918,6.967l0.345,-1.118l-13.932,-5.683l14.502,3.589l3.57,-6.401l-33.729,-8.678l32.76,4.054l-2.108,-2.33l-5.109,-1.238l0,-5.23l5.109,-1.514l1.698,1.999l-0.177,1.401l-3.876,-0.07l4.299,3.277l0.669,0.493l-1.11,-3.583l0.151,-1.17l-0.431,-0.907l-1.725,-2.127l-0.595,-2.724l-4.012,-3.102l7.516,1.812l12.133,1.516l0.088,-1.718l-9.52,-6.719l17.295,6.678l0.505,-1.104l3.947,1.145l0.78,-2.657l-20.346,-8.08Z" style="fill:#f6d7d0;fill-opacity:0.4;"/></g><path d="M47.87,81.374l-24.058,-6.921l-5.109,-17.88l0,-5.108l30.652,20.434l-5.109,2.554l3.624,6.921Z" style="fill:#6c7157;"/><clipPath id="_clip10"><path d="M47.87,81.374l-24.058,-6.921l-5.109,-17.88l0,-5.108l30.652,20.434l-5.109,2.554l3.624,6.921Z"/></clipPath><g clip-path="url(#_clip10)"><path d="M46.427,4.024l23.362,4.147l20.434,-2.683l-18.32,6.165l-2.114,2.453l2.952,2.237l-5.594,0.683l-2.467,2.241l-5.108,-3.562l-0.889,5.553l-17.598,-3.367l5.248,17.548l-3.954,9.297l0.943,6.875l6.033,20.288l-2.082,4.068l0.641,5.428l-24.102,-6.942l20.434,3.567l-1.612,-1.807l-23.931,-19.64l24.705,14.651l1.548,-0.258l-26.253,-19.501l25.543,15.028l-5.108,-7.14l-1.408,-6.279l-13.918,-9.272l12.442,3.996l-1.19,-2.552l-13.152,-7.503l1.9,-0.497l13.918,6.967l0.345,-1.118l-13.932,-5.683l14.502,3.589l3.57,-6.401l-33.729,-8.678l32.76,4.054l-2.108,-2.33l-5.109,-1.238l0,-5.23l5.109,-1.514l1.698,1.999l-0.177,1.401l-3.876,-0.07l4.299,3.277l0.669,0.493l-1.11,-3.583l0.151,-1.17l-0.431,-0.907l-1.725,-2.127l-0.595,-2.724l-4.012,-3.102l7.516,1.812l12.133,1.516l0.088,-1.718l-9.52,-6.719l17.295,6.678l0.505,-1.104l3.947,1.145l0.78,-2.657l-20.346,-8.08Z" style="fill:#f6d7d0;fill-opacity:0.4;"/></g><path d="M18.703,41.248l5.109,2.554l-5.109,7.663l30.652,20.434l-10.217,-20.434l-20.435,-10.217Z" style="fill:#574052;"/><clipPath id="_clip11"><path d="M18.703,41.248l5.109,2.554l-5.109,7.663l30.652,20.434l-10.217,-20.434l-20.435,-10.217Z"/></clipPath><g clip-path="url(#_clip11)"><path d="M68.483,80.055l-1.96,-9.996l5.98,-11.069l7.577,-3.788l-6.123,-2.047l-2.104,3.042l-0.404,-14.339l13.739,-12.437l-5.108,2.955l-5.109,2.34l-13.167,16.457l2.95,6.583l1.444,4.387l-1.444,7.793l-11.562,8.927l-13.981,3.141l-20.434,-3.325l20.434,-3.043l-10.217,-1.636l0,-6.158l-2.863,2.71l-7.354,-9.236l-3.729,-15.763l17.402,11.376l4.121,4.701l-0.319,-4.948l-2.149,-4.035l-13.599,-6.799l-4.272,-4.699l5.058,-5.125l11.418,1.995l-2.774,-2.781l-6.048,-1.384l-5.109,-3.079l0,1.847l-6.385,0.23l-7.387,-6.524l12.022,-7.761l10.29,6.822l0.045,-3.48l4.171,-1.198l-6.633,-7.176l14.311,-0.985l10.217,3.448l0,2.093l-2.754,7.837l-2.354,22.703l1.723,4.878l1.082,-9.676l2.303,-14.174l13.722,-6.861l-8.613,-4.46l-13.524,-10.014l8.415,-9.316l19.412,4.597l29.873,-0.389l-25.294,11.673l-1.724,6.773l3.276,0.334l0,-5.108l15.326,-5.2l19.255,-12.091l-80.558,-4.78l-32.158,44.305l19.562,50.65l52.085,-9.717" style="fill:#135c2e;fill-opacity:0.7;"/><path d="M46.427,4.024l23.362,4.147l20.434,-2.683l-18.32,6.165l-2.114,2.453l2.952,2.237l-5.594,0.683l-2.467,2.241l-5.108,-3.562l-0.889,5.553l-17.598,-3.367l5.248,17.548l-3.954,9.297l0.943,6.875l6.033,20.288l-2.082,4.068l0.641,5.428l-24.102,-6.942l20.434,3.567l-1.612,-1.807l-23.931,-19.64l24.705,14.651l1.548,-0.258l-26.253,-19.501l25.543,15.028l-5.108,-7.14l-1.408,-6.279l-13.918,-9.272l12.442,3.996l-1.19,-2.552l-13.152,-7.503l1.9,-0.497l13.918,6.967l0.345,-1.118l-13.932,-5.683l14.502,3.589l3.57,-6.401l-33.729,-8.678l32.76,4.054l-2.108,-2.33l-5.109,-1.238l0,-5.23l5.109,-1.514l1.698,1.999l-0.177,1.401l-3.876,-0.07l4.299,3.277l0.669,0.493l-1.11,-3.583l0.151,-1.17l-0.431,-0.907l-1.725,-2.127l-0.595,-2.724l-4.012,-3.102l7.516,1.812l12.133,1.516l0.088,-1.718l-9.52,-6.719l17.295,6.678l0.505,-1.104l3.947,1.145l0.78,-2.657l-20.346,-8.08Z" style="fill:#f6d7d0;fill-opacity:0.4;"/></g><path d="M18.703,56.573l25.543,17.88l3.205,6.711l-23.639,-6.711l-5.109,-17.88Z" style="fill:#574052;"/><clipPath id="_clip12"><path d="M18.703,56.573l25.543,17.88l3.205,6.711l-23.639,-6.711l-5.109,-17.88Z"/></clipPath><g clip-path="url(#_clip12)"><path d="M68.483,80.055l-1.96,-9.996l5.98,-11.069l7.577,-3.788l-6.123,-2.047l-2.104,3.042l-0.404,-14.339l13.739,-12.437l-5.108,2.955l-5.109,2.34l-13.167,16.457l2.95,6.583l1.444,4.387l-1.444,7.793l-11.562,8.927l-13.981,3.141l-20.434,-3.325l20.434,-3.043l-10.217,-1.636l0,-6.158l-2.863,2.71l-7.354,-9.236l-3.729,-15.763l17.402,11.376l4.121,4.701l-0.319,-4.948l-2.149,-4.035l-13.599,-6.799l-4.272,-4.699l5.058,-5.125l11.418,1.995l-2.774,-2.781l-6.048,-1.384l-5.109,-3.079l0,1.847l-6.385,0.23l-7.387,-6.524l12.022,-7.761l10.29,6.822l0.045,-3.48l4.171,-1.198l-6.633,-7.176l14.311,-0.985l10.217,3.448l0,2.093l-2.754,7.837l-2.354,22.703l1.723,4.878l1.082,-9.676l2.303,-14.174l13.722,-6.861l-8.613,-4.46l-13.524,-10.014l8.415,-9.316l19.412,4.597l29.873,-0.389l-25.294,11.673l-1.724,6.773l3.276,0.334l0,-5.108l15.326,-5.2l19.255,-12.091l-80.558,-4.78l-32.158,44.305l19.562,50.65l52.085,-9.717" style="fill:#135c2e;fill-opacity:0.7;"/><path d="M46.427,4.024l23.362,4.147l20.434,-2.683l-18.32,6.165l-2.114,2.453l2.952,2.237l-5.594,0.683l-2.467,2.241l-5.108,-3.562l-0.889,5.553l-17.598,-3.367l5.248,17.548l-3.954,9.297l0.943,6.875l6.033,20.288l-2.082,4.068l0.641,5.428l-24.102,-6.942l20.434,3.567l-1.612,-1.807l-23.931,-19.64l24.705,14.651l1.548,-0.258l-26.253,-19.501l25.543,15.028l-5.108,-7.14l-1.408,-6.279l-13.918,-9.272l12.442,3.996l-1.19,-2.552l-13.152,-7.503l1.9,-0.497l13.918,6.967l0.345,-1.118l-13.932,-5.683l14.502,3.589l3.57,-6.401l-33.729,-8.678l32.76,4.054l-2.108,-2.33l-5.109,-1.238l0,-5.23l5.109,-1.514l1.698,1.999l-0.177,1.401l-3.876,-0.07l4.299,3.277l0.669,0.493l-1.11,-3.583l0.151,-1.17l-0.431,-0.907l-1.725,-2.127l-0.595,-2.724l-4.012,-3.102l7.516,1.812l12.133,1.516l0.088,-1.718l-9.52,-6.719l17.295,6.678l0.505,-1.104l3.947,1.145l0.78,-2.657l-20.346,-8.08Z" style="fill:#f6d7d0;fill-opacity:0.4;"/></g><path d="M46.374,3.998l-2.128,4.044l20.434,10.217l0,-2.296l5.974,0.175l-3.32,-1.661l2.455,-3.881l-23.415,-6.598Z" style="fill:#6c7157;"/><clipPath id="_clip13"><path d="M46.374,3.998l-2.128,4.044l20.434,10.217l0,-2.296l5.974,0.175l-3.32,-1.661l2.455,-3.881l-23.415,-6.598Z"/></clipPath><g clip-path="url(#_clip13)"><path d="M46.427,4.024l23.362,4.147l20.434,-2.683l-18.32,6.165l-2.114,2.453l2.952,2.237l-5.594,0.683l-2.467,2.241l-5.108,-3.562l-0.889,5.553l-17.598,-3.367l5.248,17.548l-3.954,9.297l0.943,6.875l6.033,20.288l-2.082,4.068l0.641,5.428l-24.102,-6.942l20.434,3.567l-1.612,-1.807l-23.931,-19.64l24.705,14.651l1.548,-0.258l-26.253,-19.501l25.543,15.028l-5.108,-7.14l-1.408,-6.279l-13.918,-9.272l12.442,3.996l-1.19,-2.552l-13.152,-7.503l1.9,-0.497l13.918,6.967l0.345,-1.118l-13.932,-5.683l14.502,3.589l3.57,-6.401l-33.729,-8.678l32.76,4.054l-2.108,-2.33l-5.109,-1.238l0,-5.23l5.109,-1.514l1.698,1.999l-0.177,1.401l-3.876,-0.07l4.299,3.277l0.669,0.493l-1.11,-3.583l0.151,-1.17l-0.431,-0.907l-1.725,-2.127l-0.595,-2.724l-4.012,-3.102l7.516,1.812l12.133,1.516l0.088,-1.718l-9.52,-6.719l17.295,6.678l0.505,-1.104l3.947,1.145l0.78,-2.657l-20.346,-8.08Z" style="fill:#f6d7d0;fill-opacity:0.9;"/></g></g></g></g><path d="M86.605,45.403c0,0 2.482,1.152 2.212,3.309c-0.269,2.157 -0.855,2.424 -1.146,8.671c-0.291,6.246 1.599,1.941 1.103,9.665c-0.496,7.725 6.064,5.029 -1.484,12.308c-7.549,7.279 -14.019,11.143 -20.22,7.279c-6.2,-3.864 -8.178,-2.516 -14.288,-0.629c-6.111,1.887 -7.81,1.527 -13.655,1.887c-5.846,0.359 -7.931,-0.772 -16.369,-4.205c-8.438,-3.434 -4.574,-0.917 -10.685,-6.669c-6.111,-5.751 1.342,-7.119 -3.598,-5.581c-4.939,1.537 -11.478,8.726 -5.108,0.549c6.37,-8.178 0.801,-8.902 6.506,-10.068c5.705,-1.165 3.719,-4.114 5.746,-2.235c2.026,1.879 4.471,0.838 4.471,0.838l2.857,11.645l2.857,-3.082c0,0 -0.046,-2.025 2.025,1.196c2.07,3.221 2.672,2.385 4.097,2.665c1.424,0.28 -1.198,1.384 1.424,0.28c2.623,-1.105 1.69,-0.761 3.33,-0.565c1.639,0.196 0.079,-1.736 2.447,0.611c2.367,2.346 2.091,2.99 3.241,2.99c1.15,0 1.381,-0.23 1.381,-0.23l0.486,-1.15l0,-0.89l-7.388,-4.953l0.368,-1.243c0,0 -2.07,-1.104 0.644,0.046c2.715,1.151 2.979,2 4.342,2.059c1.363,0.058 1.548,-0.402 2.606,0.426c1.058,0.828 1.38,1.104 1.38,1.104l2.635,-0.254l0.522,0.261l-1.455,2.294c0,0 0.046,0.368 0.737,0.828c0.69,0.46 -0.681,0.552 0.718,0.598c1.398,0.046 3.343,2.439 5.108,-0.276c1.765,-2.715 1.029,-2.163 2.179,-2.853c1.151,-0.69 -0.322,0.874 1.611,-0.828c1.932,-1.702 1.15,-1.702 2.162,-2.024c1.013,-0.322 1.979,-0.737 1.979,-0.737c0,0 5.153,-1.702 5.015,-4.049c-0.138,-2.346 -1.288,-1.012 -0.138,-2.392c1.15,-1.38 0.389,-2.025 2.518,-2.301c2.129,-0.276 4.66,-0.138 4.66,-0.138l-0.368,2.853c0,0 -1.841,0.736 -2.255,1.196c-0.414,0.46 -1.058,1.197 -1.058,1.197l-2.301,1.426l0.092,1.288l0.23,2.163l0.437,1.473c0,0 1.993,0.533 2.158,-0.516c0.166,-1.049 -0.018,-1.049 0.442,-1.785c0.46,-0.737 0.874,-0.783 1.426,-1.933c0.552,-1.15 1.059,-1.886 1.059,-1.886c0,0 -1.726,0.966 0.586,-0.737c2.312,-1.702 2.588,-0.966 2.588,-2.668c0,-1.703 -0.23,-1.841 0,-2.853c0.23,-1.012 1.131,-1.971 1.131,-1.971l1.39,0.269l0.654,1.242l0.23,2.899l0,2.208l0.598,0.276l1.104,-2.898l0.534,-1.142l1.988,-0.995l1.93,-4.143l-3.991,-3.475l2.061,-2.599l1.502,-3.046" style="fill:#714639;"/><clipPath id="_clip14"><path d="M86.605,45.403c0,0 2.482,1.152 2.212,3.309c-0.269,2.157 -0.855,2.424 -1.146,8.671c-0.291,6.246 1.599,1.941 1.103,9.665c-0.496,7.725 6.064,5.029 -1.484,12.308c-7.549,7.279 -14.019,11.143 -20.22,7.279c-6.2,-3.864 -8.178,-2.516 -14.288,-0.629c-6.111,1.887 -7.81,1.527 -13.655,1.887c-5.846,0.359 -7.931,-0.772 -16.369,-4.205c-8.438,-3.434 -4.574,-0.917 -10.685,-6.669c-6.111,-5.751 1.342,-7.119 -3.598,-5.581c-4.939,1.537 -11.478,8.726 -5.108,0.549c6.37,-8.178 0.801,-8.902 6.506,-10.068c5.705,-1.165 3.719,-4.114 5.746,-2.235c2.026,1.879 4.471,0.838 4.471,0.838l2.857,11.645l2.857,-3.082c0,0 -0.046,-2.025 2.025,1.196c2.07,3.221 2.672,2.385 4.097,2.665c1.424,0.28 -1.198,1.384 1.424,0.28c2.623,-1.105 1.69,-0.761 3.33,-0.565c1.639,0.196 0.079,-1.736 2.447,0.611c2.367,2.346 2.091,2.99 3.241,2.99c1.15,0 1.381,-0.23 1.381,-0.23l0.486,-1.15l0,-0.89l-7.388,-4.953l0.368,-1.243c0,0 -2.07,-1.104 0.644,0.046c2.715,1.151 2.979,2 4.342,2.059c1.363,0.058 1.548,-0.402 2.606,0.426c1.058,0.828 1.38,1.104 1.38,1.104l2.635,-0.254l0.522,0.261l-1.455,2.294c0,0 0.046,0.368 0.737,0.828c0.69,0.46 -0.681,0.552 0.718,0.598c1.398,0.046 3.343,2.439 5.108,-0.276c1.765,-2.715 1.029,-2.163 2.179,-2.853c1.151,-0.69 -0.322,0.874 1.611,-0.828c1.932,-1.702 1.15,-1.702 2.162,-2.024c1.013,-0.322 1.979,-0.737 1.979,-0.737c0,0 5.153,-1.702 5.015,-4.049c-0.138,-2.346 -1.288,-1.012 -0.138,-2.392c1.15,-1.38 0.389,-2.025 2.518,-2.301c2.129,-0.276 4.66,-0.138 4.66,-0.138l-0.368,2.853c0,0 -1.841,0.736 -2.255,1.196c-0.414,0.46 -1.058,1.197 -1.058,1.197l-2.301,1.426l0.092,1.288l0.23,2.163l0.437,1.473c0,0 1.993,0.533 2.158,-0.516c0.166,-1.049 -0.018,-1.049 0.442,-1.785c0.46,-0.737 0.874,-0.783 1.426,-1.933c0.552,-1.15 1.059,-1.886 1.059,-1.886c0,0 -1.726,0.966 0.586,-0.737c2.312,-1.702 2.588,-0.966 2.588,-2.668c0,-1.703 -0.23,-1.841 0,-2.853c0.23,-1.012 1.131,-1.971 1.131,-1.971l1.39,0.269l0.654,1.242l0.23,2.899l0,2.208l0.598,0.276l1.104,-2.898l0.534,-1.142l1.988,-0.995l1.93,-4.143l-3.991,-3.475l2.061,-2.599l1.502,-3.046"/></clipPath><g clip-path="url(#_clip14)"><path d="M94.506,40.956l0,61.302l-56.194,-5.637l27.944,-41.54l28.25,-14.125Z" style="fill:#c4e783;fill-opacity:0.5;"/><path d="M91.832,50.194l0.117,-3.43l-4.209,-0.761c0,0 -1.796,2.624 -2.129,6.077c-0.073,0.756 1.676,1.716 1.563,2.513c-0.677,4.749 -2.056,9.842 -2.071,11.178c-0.029,2.584 1.714,5.617 0,6.965c-1.714,1.348 0.196,2.92 -2.051,3.594c-2.246,0.674 -3.274,6.594 -3.94,0.658c-0.665,-5.937 -1.254,-5.096 -0.51,-6.247c0.743,-1.151 1.393,-1.937 1.393,-1.937l0,-2.475l0,-1.569c0,0 -2.37,1.278 -3.082,3.11c-0.713,1.833 -2.854,6.536 -2.854,6.536c0,0 0.95,1.05 -2.555,3.004c-3.504,1.953 -5.728,2.244 -5.728,2.244c0,0 0.585,1.751 0,0c-0.584,-1.751 2.38,-9.027 2.38,-9.027c0,0 0.92,-1.278 -1.078,-0.539c-1.999,0.738 -3.269,3.925 -5.442,5.421c-2.173,1.495 -3.858,3.293 -3.858,3.293l-1.818,1.052l-0.024,-5.12c0,0 0.43,0.826 -3.526,3.346c-3.955,2.519 -4.694,2.761 -4.694,2.761c0,0 -0.582,1.837 -1.438,-0.719c-0.856,-2.556 -0.48,-1.803 -0.48,-1.803l0.747,-4.348l-2.31,-1.797l0,8.987l-6.929,1.404l-2.331,-0.056l2.092,-6.993c0,0 -0.074,0.14 -3.049,0.14c-2.975,0 -6.004,0.443 -6.004,0.443l-0.501,1.146c0,0 0.273,-0.465 -1.974,-0.241c-2.246,0.225 2.696,3.37 -2.808,-0.224c-5.504,-3.595 -5.777,2.825 -6.539,-4.092c-0.763,-6.917 -1.364,-6.949 -0.558,-7.888c0.806,-0.938 4.401,-0.152 1.031,-1.163c-3.37,-1.011 -3.081,-1.011 -3.081,-1.011c0,0 -1.616,-3.035 -5.109,-1.405c-3.492,1.63 -1.531,0.515 -3.691,3.263c-2.16,2.748 -1.904,-3.106 -6.526,6.954c-4.621,10.06 -12.467,11.148 -4.275,13.188c8.191,2.039 3.939,3.387 19.601,3.387c15.662,0 74.691,4.828 74.691,4.828l6.278,-14.124l-2.721,-28.523Z" style="fill:#b38b66;"/><clipPath id="_clip15"><path d="M91.832,50.194l0.117,-3.43l-4.209,-0.761c0,0 -1.796,2.624 -2.129,6.077c-0.073,0.756 1.676,1.716 1.563,2.513c-0.677,4.749 -2.056,9.842 -2.071,11.178c-0.029,2.584 1.714,5.617 0,6.965c-1.714,1.348 0.196,2.92 -2.051,3.594c-2.246,0.674 -3.274,6.594 -3.94,0.658c-0.665,-5.937 -1.254,-5.096 -0.51,-6.247c0.743,-1.151 1.393,-1.937 1.393,-1.937l0,-2.475l0,-1.569c0,0 -2.37,1.278 -3.082,3.11c-0.713,1.833 -2.854,6.536 -2.854,6.536c0,0 0.95,1.05 -2.555,3.004c-3.504,1.953 -5.728,2.244 -5.728,2.244c0,0 0.585,1.751 0,0c-0.584,-1.751 2.38,-9.027 2.38,-9.027c0,0 0.92,-1.278 -1.078,-0.539c-1.999,0.738 -3.269,3.925 -5.442,5.421c-2.173,1.495 -3.858,3.293 -3.858,3.293l-1.818,1.052l-0.024,-5.12c0,0 0.43,0.826 -3.526,3.346c-3.955,2.519 -4.694,2.761 -4.694,2.761c0,0 -0.582,1.837 -1.438,-0.719c-0.856,-2.556 -0.48,-1.803 -0.48,-1.803l0.747,-4.348l-2.31,-1.797l0,8.987l-6.929,1.404l-2.331,-0.056l2.092,-6.993c0,0 -0.074,0.14 -3.049,0.14c-2.975,0 -6.004,0.443 -6.004,0.443l-0.501,1.146c0,0 0.273,-0.465 -1.974,-0.241c-2.246,0.225 2.696,3.37 -2.808,-0.224c-5.504,-3.595 -5.777,2.825 -6.539,-4.092c-0.763,-6.917 -1.364,-6.949 -0.558,-7.888c0.806,-0.938 4.401,-0.152 1.031,-1.163c-3.37,-1.011 -3.081,-1.011 -3.081,-1.011c0,0 -1.616,-3.035 -5.109,-1.405c-3.492,1.63 -1.531,0.515 -3.691,3.263c-2.16,2.748 -1.904,-3.106 -6.526,6.954c-4.621,10.06 -12.467,11.148 -4.275,13.188c8.191,2.039 3.939,3.387 19.601,3.387c15.662,0 74.691,4.828 74.691,4.828l6.278,-14.124l-2.721,-28.523Z"/></clipPath><g clip-path="url(#_clip15)"><path d="M94.506,40.956l0,61.302l-56.194,-5.637l27.944,-41.54l28.25,-14.125Z" style="fill:#c4e783;fill-opacity:0.5;"/></g><path d="M45.777,65.32l-38.116,19.058l-10.217,-10.217l17.381,-24.016l30.952,15.175Z" style="fill-opacity:0.5;"/></g></g><g><path d="M62.604,27.166l11.759,26.894l4.592,1.905l-13.569,-29.73l-2.782,0.931Z" style="fill:#574052;"/><path d="M62.948,37.699l-8.37,2.553l-3.507,-1.256l11.643,-3.924l0.234,2.627Z" style="fill:none;"/><path d="M68.865,56.83l4.738,1.763l5.349,-2.599l-4.643,-1.827l-5.444,2.663Z" style="fill:none;"/><path d="M45.524,60.724l-0.384,-27.673l17.464,-5.885l11.705,27.001l-5.444,2.663l-8.903,-20.83l-8.891,2.996l0.059,19.065l-5.606,2.663Z" style="fill:#f4ec3e;"/><path d="M49.951,62.098l-4.427,-1.374l5.66,-2.825l4.156,1.222l-5.389,2.977Z" style="fill:none;"/><path d="M51.071,38.996l3.344,1.385l0.905,18.708l-4.244,-1.136l-0.005,-18.957" style="fill:#574052;"/></g><path d="M51.763,0.652c0,0 10.588,-0.469 16.908,-0.028c6.32,0.441 9.304,-0.716 10.217,0c0.913,0.716 7.388,3.022 7.449,3.724c0.061,0.703 -2.681,4.139 -2.34,6.2c0.34,2.062 -2.265,-6.538 0,2.847c2.264,9.385 4.791,11.722 5.108,14.333c0.317,2.611 1.022,8.144 1.022,8.144c0,0 -5.234,-1.623 -6.13,-7.151c-0.897,-5.528 1.577,-3.879 -1.997,-7.865c-3.573,-3.986 -1.8,-2.585 -4.267,-5.484c-2.467,-2.9 -1.416,-5.059 -2.835,-2.536c-1.419,2.523 -1.203,0.717 -3.991,4.231c-2.788,3.514 -4.301,5.023 -4.301,5.023c0,0 -3.759,1.555 -6.552,-1.832c-2.793,-3.388 -3.253,-3.482 -3.253,-3.482l-0.365,-3.204c0,0 -3.156,-3.445 -4.945,-1.104c-1.789,2.341 -3.254,3.481 -3.254,3.481c0,0 -4.077,-4.769 0,0c4.076,4.77 5.108,5.869 5.108,5.869c0,0 0.483,0.702 0,1.794c-0.482,1.092 -2.817,3.7 -2.817,3.7c0,0 -5.347,-1.203 -5.766,-4.517c-0.42,-3.313 0.726,-1.696 -1.634,-4.291c-2.36,-2.596 -0.71,-6.225 -5.108,-2.555c-4.399,3.67 -3.436,5.869 0,8.206c3.435,2.336 0.459,3.573 5.108,7.009c4.65,3.436 7.904,6.872 5.109,7.284c-2.796,0.413 -8.705,-0.007 -10.217,-2.065c-1.512,-2.058 1.518,-3.282 -3.914,-3.151c-5.432,0.131 -11.412,0.597 -11.412,0.597l0,5.109c0,0 1.03,-0.077 0,2.946c-1.03,3.024 -1.874,8.208 -1.874,8.208c0,0 -3.327,-0.562 -3.234,-3.492c0.092,-2.929 -0.093,-4.264 0,-5.108c0.092,-0.845 -0.23,-0.432 0,-2.631c0.23,-2.199 0.594,-2.612 0,-4.811c-0.595,-2.199 -5.109,-5.329 -5.109,-5.329l0,-2.917c0,0 -0.803,-0.948 0,-2.192c0.803,-1.244 -0.357,-2.909 2.628,-3.794c2.986,-0.886 0.649,1.588 3.673,-1.161c3.024,-2.749 -1.238,-2.749 3.916,-3.986c5.155,-1.237 7.101,-2.243 8.602,-2.084c1.501,0.16 1.776,-0.664 3.013,-1.901c1.237,-1.237 -2.049,0.11 1.175,-1.113c3.223,-1.224 2.536,-1.361 2.536,-1.361c0,0 -0.463,0.65 2.586,-1.187c3.049,-1.837 0.653,-1.993 4.187,-3.015c3.534,-1.021 6.97,-3.358 6.97,-3.358Z" style="fill:#714639;"/><clipPath id="_clip16"><path d="M51.763,0.652c0,0 10.588,-0.469 16.908,-0.028c6.32,0.441 9.304,-0.716 10.217,0c0.913,0.716 7.388,3.022 7.449,3.724c0.061,0.703 -2.681,4.139 -2.34,6.2c0.34,2.062 -2.265,-6.538 0,2.847c2.264,9.385 4.791,11.722 5.108,14.333c0.317,2.611 1.022,8.144 1.022,8.144c0,0 -5.234,-1.623 -6.13,-7.151c-0.897,-5.528 1.577,-3.879 -1.997,-7.865c-3.573,-3.986 -1.8,-2.585 -4.267,-5.484c-2.467,-2.9 -1.416,-5.059 -2.835,-2.536c-1.419,2.523 -1.203,0.717 -3.991,4.231c-2.788,3.514 -4.301,5.023 -4.301,5.023c0,0 -3.759,1.555 -6.552,-1.832c-2.793,-3.388 -3.253,-3.482 -3.253,-3.482l-0.365,-3.204c0,0 -3.156,-3.445 -4.945,-1.104c-1.789,2.341 -3.254,3.481 -3.254,3.481c0,0 -4.077,-4.769 0,0c4.076,4.77 5.108,5.869 5.108,5.869c0,0 0.483,0.702 0,1.794c-0.482,1.092 -2.817,3.7 -2.817,3.7c0,0 -5.347,-1.203 -5.766,-4.517c-0.42,-3.313 0.726,-1.696 -1.634,-4.291c-2.36,-2.596 -0.71,-6.225 -5.108,-2.555c-4.399,3.67 -3.436,5.869 0,8.206c3.435,2.336 0.459,3.573 5.108,7.009c4.65,3.436 7.904,6.872 5.109,7.284c-2.796,0.413 -8.705,-0.007 -10.217,-2.065c-1.512,-2.058 1.518,-3.282 -3.914,-3.151c-5.432,0.131 -11.412,0.597 -11.412,0.597l0,5.109c0,0 1.03,-0.077 0,2.946c-1.03,3.024 -1.874,8.208 -1.874,8.208c0,0 -3.327,-0.562 -3.234,-3.492c0.092,-2.929 -0.093,-4.264 0,-5.108c0.092,-0.845 -0.23,-0.432 0,-2.631c0.23,-2.199 0.594,-2.612 0,-4.811c-0.595,-2.199 -5.109,-5.329 -5.109,-5.329l0,-2.917c0,0 -0.803,-0.948 0,-2.192c0.803,-1.244 -0.357,-2.909 2.628,-3.794c2.986,-0.886 0.649,1.588 3.673,-1.161c3.024,-2.749 -1.238,-2.749 3.916,-3.986c5.155,-1.237 7.101,-2.243 8.602,-2.084c1.501,0.16 1.776,-0.664 3.013,-1.901c1.237,-1.237 -2.049,0.11 1.175,-1.113c3.223,-1.224 2.536,-1.361 2.536,-1.361c0,0 -0.463,0.65 2.586,-1.187c3.049,-1.837 0.653,-1.993 4.187,-3.015c3.534,-1.021 6.97,-3.358 6.97,-3.358Z"/></clipPath><g clip-path="url(#_clip16)"><path d="M77.484,-11.317l17.751,48.424l-38.834,-12.989l-15.23,-22.94l36.313,-12.495" style="fill:#c4e783;fill-opacity:0.5;"/><path d="M75.64,-2.861c0.175,3.513 2.747,4.888 3.248,6.812c0.501,1.924 -0.638,0.825 0,4.536c0.638,3.71 3.298,9.111 3.298,9.111c0,0 0.324,1.884 -3.298,-4.301c-3.622,-6.185 -1.509,-7.01 -5.108,-6.872c-3.6,0.137 -4.969,1.237 -5.109,3.024c-0.14,1.786 2.476,-2.989 0,1.392c-2.476,4.38 -2.201,5.205 -3.851,5.067c-1.649,-0.137 -7.316,-4.334 -7.987,-5.878c-0.671,-1.543 -3.488,-4.43 -3.488,-4.43c0,0 0.343,-1.374 -1.444,-0.137c-1.787,1.237 -2.243,-0.825 -3.664,2.199c-1.421,3.024 -1.966,1.935 -2.175,4.266c-0.208,2.331 0.327,1.26 0.747,3.307c0.419,2.048 2.578,2.93 3.01,5.032c0.433,2.101 3.039,1.424 0.774,1.969c-2.266,0.544 -4.882,-1.507 -5.223,-2.612c-0.341,-1.104 -0.08,-3.138 -0.486,-5.351c-0.405,-2.213 0.467,-2.625 -1.756,-4.137c-2.222,-1.512 -1.947,-4.261 -5.108,-2.749c-3.162,1.512 -5.132,5.007 -5.109,6.008c0.023,1.001 -3.536,-2.956 -3.131,1.566c0.405,4.521 -0.19,8.781 3.131,10.706c3.322,1.924 5.109,3.023 5.109,3.023c0,0 -7.24,4.261 -10.217,1.512c-2.978,-2.749 -1.603,-3.848 -6.276,-4.261c-4.673,-0.412 -0.107,-2.259 -6.926,-1.267c-6.818,0.993 -12.341,4.047 -12.341,4.047c0,0 -15.309,-21.177 1.704,-24.691c17.013,-3.515 47.804,-13.676 51.856,-12.307c4.052,1.37 19.644,1.903 19.82,5.416Z" style="fill:#b38b66;"/><clipPath id="_clip17"><path d="M75.64,-2.861c0.175,3.513 2.747,4.888 3.248,6.812c0.501,1.924 -0.638,0.825 0,4.536c0.638,3.71 3.298,9.111 3.298,9.111c0,0 0.324,1.884 -3.298,-4.301c-3.622,-6.185 -1.509,-7.01 -5.108,-6.872c-3.6,0.137 -4.969,1.237 -5.109,3.024c-0.14,1.786 2.476,-2.989 0,1.392c-2.476,4.38 -2.201,5.205 -3.851,5.067c-1.649,-0.137 -7.316,-4.334 -7.987,-5.878c-0.671,-1.543 -3.488,-4.43 -3.488,-4.43c0,0 0.343,-1.374 -1.444,-0.137c-1.787,1.237 -2.243,-0.825 -3.664,2.199c-1.421,3.024 -1.966,1.935 -2.175,4.266c-0.208,2.331 0.327,1.26 0.747,3.307c0.419,2.048 2.578,2.93 3.01,5.032c0.433,2.101 3.039,1.424 0.774,1.969c-2.266,0.544 -4.882,-1.507 -5.223,-2.612c-0.341,-1.104 -0.08,-3.138 -0.486,-5.351c-0.405,-2.213 0.467,-2.625 -1.756,-4.137c-2.222,-1.512 -1.947,-4.261 -5.108,-2.749c-3.162,1.512 -5.132,5.007 -5.109,6.008c0.023,1.001 -3.536,-2.956 -3.131,1.566c0.405,4.521 -0.19,8.781 3.131,10.706c3.322,1.924 5.109,3.023 5.109,3.023c0,0 -7.24,4.261 -10.217,1.512c-2.978,-2.749 -1.603,-3.848 -6.276,-4.261c-4.673,-0.412 -0.107,-2.259 -6.926,-1.267c-6.818,0.993 -12.341,4.047 -12.341,4.047c0,0 -15.309,-21.177 1.704,-24.691c17.013,-3.515 47.804,-13.676 51.856,-12.307c4.052,1.37 19.644,1.903 19.82,5.416Z"/></clipPath><g clip-path="url(#_clip17)"><path d="M77.484,-11.317l17.751,48.424l-38.834,-12.989l-15.23,-22.94l36.313,-12.495" style="fill:#c4e783;fill-opacity:0.5;"/></g><path d="M3.282,20.214c3.174,-0.144 45.977,15.658 45.977,15.658l-40.869,20.435l-5.108,-36.093" style="fill-opacity:0.5;"/></g></g></svg>