<?xml version="1.0" encoding="UTF-8" standalone="no"?><!DOCTYPE svg PUBLIC "-//W3C//DTD SVG 1.1//EN" "http://www.w3.org/Graphics/SVG/1.1/DTD/svg11.dtd"><svg width="100%" height="100%" viewBox="0 0 91 85" version="1.1" xmlns="http://www.w3.org/2000/svg" xmlns:xlink="http://www.w3.org/1999/xlink" xml:space="preserve" xmlns:serif="http://www.serif.com/" style="fill-rule:evenodd;clip-rule:evenodd;stroke-linejoin:round;stroke-miterlimit:1.41421;"><g id="N_Runestone_grass_4"><g id="F_Runestone_runes_4"><g><g><path d="M69.817,1.501l19.823,0.306l-20.434,5.108l-23.436,-6.609l24.047,1.195Z" style="fill:#9da8c9;"/><clipPath id="_clip1"><path d="M69.817,1.501l19.823,0.306l-20.434,5.108l-23.436,-6.609l24.047,1.195Z"/></clipPath><g clip-path="url(#_clip1)"><path d="M45.844,0.343l23.362,4.146l20.434,-2.682l-18.32,6.165l-2.114,2.453l2.952,2.236l-5.594,0.684l-2.467,2.241l-5.108,-3.562l-0.889,5.553l-17.598,-3.367l5.248,17.548l-3.954,9.296l0.943,6.876l6.033,20.288l-2.082,4.067l0.641,5.429l-24.102,-6.942l20.434,3.566l-1.612,-1.806l-23.931,-19.64l24.705,14.651l1.548,-0.258l-26.253,-19.502l25.543,15.029l-5.108,-7.14l-1.408,-6.28l-13.918,-9.271l12.442,3.996l-1.19,-2.553l-13.152,-7.502l1.9,-0.497l13.918,6.967l0.345,-1.118l-13.932,-5.684l14.502,3.59l3.57,-6.401l-33.729,-8.678l32.76,4.054l-2.108,-2.33l-5.109,-1.238l0,-5.231l5.109,-1.513l1.698,1.998l-0.177,1.402l-3.876,-0.07l4.299,3.276l0.669,0.494l-1.11,-3.583l0.151,-1.171l-0.431,-0.907l-1.725,-2.127l-0.595,-2.723l-4.012,-3.103l7.516,1.812l12.133,1.517l0.088,-1.718l-9.52,-6.719l17.295,6.678l0.505,-1.104l3.947,1.145l0.78,-2.657l-20.346,-8.08Z" style="fill:#f6d7d0;fill-opacity:0.9;"/></g><path d="M69.206,68.218l-5.109,-2.555l10.217,-15.325l5.871,4.799l-3.316,6.695l-7.663,6.386Z" style="fill:#6c7157;"/><clipPath id="_clip2"><path d="M69.206,68.218l-5.109,-2.555l10.217,-15.325l5.871,4.799l-3.316,6.695l-7.663,6.386Z"/></clipPath><g clip-path="url(#_clip2)"><path d="M45.844,0.343l23.362,4.146l20.434,-2.682l-18.32,6.165l-2.114,2.453l2.952,2.236l-5.594,0.684l-2.467,2.241l-5.108,-3.562l-0.889,5.553l-17.598,-3.367l5.248,17.548l-3.954,9.296l0.943,6.876l6.033,20.288l-2.082,4.067l0.641,5.429l-24.102,-6.942l20.434,3.566l-1.612,-1.806l-23.931,-19.64l24.705,14.651l1.548,-0.258l-26.253,-19.502l25.543,15.029l-5.108,-7.14l-1.408,-6.28l-13.918,-9.271l12.442,3.996l-1.19,-2.553l-13.152,-7.502l1.9,-0.497l13.918,6.967l0.345,-1.118l-13.932,-5.684l14.502,3.59l3.57,-6.401l-33.729,-8.678l32.76,4.054l-2.108,-2.33l-5.109,-1.238l0,-5.231l5.109,-1.513l1.698,1.998l-0.177,1.402l-3.876,-0.07l4.299,3.276l0.669,0.494l-1.11,-3.583l0.151,-1.171l-0.431,-0.907l-1.725,-2.127l-0.595,-2.723l-4.012,-3.103l7.516,1.812l12.133,1.517l0.088,-1.718l-9.52,-6.719l17.295,6.678l0.505,-1.104l3.947,1.145l0.78,-2.657l-20.346,-8.08Z" style="fill:#f6d7d0;fill-opacity:0.9;"/></g><path d="M84.531,38.18l-7.795,-4.379l-8.181,4.091l10.868,8.417l5.108,-8.129Z" style="fill:#9da8c9;"/><clipPath id="_clip3"><path d="M84.531,38.18l-7.795,-4.379l-8.181,4.091l10.868,8.417l5.108,-8.129Z"/></clipPath><g clip-path="url(#_clip3)"><path d="M45.844,0.343l23.362,4.146l20.434,-2.682l-18.32,6.165l-2.114,2.453l2.952,2.236l-5.594,0.684l-2.467,2.241l-5.108,-3.562l-0.889,5.553l-17.598,-3.367l5.248,17.548l-3.954,9.296l0.943,6.876l6.033,20.288l-2.082,4.067l0.641,5.429l-24.102,-6.942l20.434,3.566l-1.612,-1.806l-23.931,-19.64l24.705,14.651l1.548,-0.258l-26.253,-19.502l25.543,15.029l-5.108,-7.14l-1.408,-6.28l-13.918,-9.271l12.442,3.996l-1.19,-2.553l-13.152,-7.502l1.9,-0.497l13.918,6.967l0.345,-1.118l-13.932,-5.684l14.502,3.59l3.57,-6.401l-33.729,-8.678l32.76,4.054l-2.108,-2.33l-5.109,-1.238l0,-5.231l5.109,-1.513l1.698,1.998l-0.177,1.402l-3.876,-0.07l4.299,3.276l0.669,0.494l-1.11,-3.583l0.151,-1.171l-0.431,-0.907l-1.725,-2.127l-0.595,-2.723l-4.012,-3.103l7.516,1.812l12.133,1.517l0.088,-1.718l-9.52,-6.719l17.295,6.678l0.505,-1.104l3.947,1.145l0.78,-2.657l-20.346,-8.08Z" style="fill:#f6d7d0;fill-opacity:0.9;"/></g><path d="M43.663,4.361l-10.217,5.108l-25.543,12.772l28.07,3.818l6.39,1.254l11.517,-12.735l5.109,-2.554l-15.326,-7.663Z" style="fill:#9da8c9;"/><clipPath id="_clip4"><path d="M43.663,4.361l-10.217,5.108l-25.543,12.772l28.07,3.818l6.39,1.254l11.517,-12.735l5.109,-2.554l-15.326,-7.663Z"/></clipPath><g clip-path="url(#_clip4)"><path d="M45.844,0.343l23.362,4.146l20.434,-2.682l-18.32,6.165l-2.114,2.453l2.952,2.236l-5.594,0.684l-2.467,2.241l-5.108,-3.562l-0.889,5.553l-17.598,-3.367l5.248,17.548l-3.954,9.296l0.943,6.876l6.033,20.288l-2.082,4.067l0.641,5.429l-24.102,-6.942l20.434,3.566l-1.612,-1.806l-23.931,-19.64l24.705,14.651l1.548,-0.258l-26.253,-19.502l25.543,15.029l-5.108,-7.14l-1.408,-6.28l-13.918,-9.271l12.442,3.996l-1.19,-2.553l-13.152,-7.502l1.9,-0.497l13.918,6.967l0.345,-1.118l-13.932,-5.684l14.502,3.59l3.57,-6.401l-33.729,-8.678l32.76,4.054l-2.108,-2.33l-5.109,-1.238l0,-5.231l5.109,-1.513l1.698,1.998l-0.177,1.402l-3.876,-0.07l4.299,3.276l0.669,0.494l-1.11,-3.583l0.151,-1.171l-0.431,-0.907l-1.725,-2.127l-0.595,-2.723l-4.012,-3.103l7.516,1.812l12.133,1.517l0.088,-1.718l-9.52,-6.719l17.295,6.678l0.505,-1.104l3.947,1.145l0.78,-2.657l-20.346,-8.08Z" style="fill:#f6d7d0;fill-opacity:0.9;"/></g><path d="M89.64,1.807l-20.434,5.108l-10.217,5.109l-5.109,2.554l-15.325,-2.554l-8.822,6.915l6.238,7.119l-14.466,7.033l17.05,14.692l5.108,12.772l-5.108,-2.555l5.108,12.772l3.753,6.985l2.172,-2.84l9.401,-1.591l7.325,-3.663l5.18,-7.698l7.929,-6.634l-5.109,7.345l-5.108,5.542l13.112,-6.557l3.926,-10.467l-3.918,-3.411l2.205,-2.554l2.021,-4.098l-2.021,-3.013l-3.515,3.76l-3.024,1.512l-0.412,-3.678l3.174,-4.802l5.941,-2.041l2.945,-5.52l0,-10.217l-4.124,-9.84l4.124,-5.485Z" style="fill:#bac1d8;"/><clipPath id="_clip5"><path d="M89.64,1.807l-20.434,5.108l-10.217,5.109l-5.109,2.554l-15.325,-2.554l-8.822,6.915l6.238,7.119l-14.466,7.033l17.05,14.692l5.108,12.772l-5.108,-2.555l5.108,12.772l3.753,6.985l2.172,-2.84l9.401,-1.591l7.325,-3.663l5.18,-7.698l7.929,-6.634l-5.109,7.345l-5.108,5.542l13.112,-6.557l3.926,-10.467l-3.918,-3.411l2.205,-2.554l2.021,-4.098l-2.021,-3.013l-3.515,3.76l-3.024,1.512l-0.412,-3.678l3.174,-4.802l5.941,-2.041l2.945,-5.52l0,-10.217l-4.124,-9.84l4.124,-5.485Z"/></clipPath><g clip-path="url(#_clip5)"><path d="M45.844,0.343l23.362,4.146l20.434,-2.682l-18.32,6.165l-2.114,2.453l2.952,2.236l-5.594,0.684l-2.467,2.241l-5.108,-3.562l-0.889,5.553l-17.598,-3.367l5.248,17.548l-3.954,9.296l0.943,6.876l6.033,20.288l-2.082,4.067l0.641,5.429l-24.102,-6.942l20.434,3.566l-1.612,-1.806l-23.931,-19.64l24.705,14.651l1.548,-0.258l-26.253,-19.502l25.543,15.029l-5.108,-7.14l-1.408,-6.28l-13.918,-9.271l12.442,3.996l-1.19,-2.553l-13.152,-7.502l1.9,-0.497l13.918,6.967l0.345,-1.118l-13.932,-5.684l14.502,3.59l3.57,-6.401l-33.729,-8.678l32.76,4.054l-2.108,-2.33l-5.109,-1.238l0,-5.231l5.109,-1.513l1.698,1.998l-0.177,1.402l-3.876,-0.07l4.299,3.276l0.669,0.494l-1.11,-3.583l0.151,-1.171l-0.431,-0.907l-1.725,-2.127l-0.595,-2.723l-4.012,-3.103l7.516,1.812l12.133,1.517l0.088,-1.718l-9.52,-6.719l17.295,6.678l0.505,-1.104l3.947,1.145l0.78,-2.657l-20.346,-8.08Z" style="fill:#f6d7d0;fill-opacity:0.9;"/></g><path d="M40.156,17.933l1.208,5.713l-13.027,0.651l1.895,-9.162l6.491,1.082l3.433,1.716Z" style="fill:#9da8c9;"/><clipPath id="_clip6"><path d="M40.156,17.933l1.208,5.713l-13.027,0.651l1.895,-9.162l6.491,1.082l3.433,1.716Z"/></clipPath><g clip-path="url(#_clip6)"><path d="M45.844,0.343l23.362,4.146l20.434,-2.682l-18.32,6.165l-2.114,2.453l2.952,2.236l-5.594,0.684l-2.467,2.241l-5.108,-3.562l-0.889,5.553l-17.598,-3.367l5.248,17.548l-3.954,9.296l0.943,6.876l6.033,20.288l-2.082,4.067l0.641,5.429l-24.102,-6.942l20.434,3.566l-1.612,-1.806l-23.931,-19.64l24.705,14.651l1.548,-0.258l-26.253,-19.502l25.543,15.029l-5.108,-7.14l-1.408,-6.28l-13.918,-9.271l12.442,3.996l-1.19,-2.553l-13.152,-7.502l1.9,-0.497l13.918,6.967l0.345,-1.118l-13.932,-5.684l14.502,3.59l3.57,-6.401l-33.729,-8.678l32.76,4.054l-2.108,-2.33l-5.109,-1.238l0,-5.231l5.109,-1.513l1.698,1.998l-0.177,1.402l-3.876,-0.07l4.299,3.276l0.669,0.494l-1.11,-3.583l0.151,-1.171l-0.431,-0.907l-1.725,-2.127l-0.595,-2.723l-4.012,-3.103l7.516,1.812l12.133,1.517l0.088,-1.718l-9.52,-6.719l17.295,6.678l0.505,-1.104l3.947,1.145l0.78,-2.657l-20.346,-8.08Z" style="fill:#f6d7d0;fill-opacity:0.9;"/></g><path d="M38.555,38.59l0,4.085l-18.262,-6.195l-0.81,-9.812l19.072,11.922Z" style="fill:#6c7157;"/><clipPath id="_clip7"><path d="M38.555,38.59l0,4.085l-18.262,-6.195l-0.81,-9.812l19.072,11.922Z"/></clipPath><g clip-path="url(#_clip7)"><path d="M45.844,0.343l23.362,4.146l20.434,-2.682l-18.32,6.165l-2.114,2.453l2.952,2.236l-5.594,0.684l-2.467,2.241l-5.108,-3.562l-0.889,5.553l-17.598,-3.367l5.248,17.548l-3.954,9.296l0.943,6.876l6.033,20.288l-2.082,4.067l0.641,5.429l-24.102,-6.942l20.434,3.566l-1.612,-1.806l-23.931,-19.64l24.705,14.651l1.548,-0.258l-26.253,-19.502l25.543,15.029l-5.108,-7.14l-1.408,-6.28l-13.918,-9.271l12.442,3.996l-1.19,-2.553l-13.152,-7.502l1.9,-0.497l13.918,6.967l0.345,-1.118l-13.932,-5.684l14.502,3.59l3.57,-6.401l-33.729,-8.678l32.76,4.054l-2.108,-2.33l-5.109,-1.238l0,-5.231l5.109,-1.513l1.698,1.998l-0.177,1.402l-3.876,-0.07l4.299,3.276l0.669,0.494l-1.11,-3.583l0.151,-1.171l-0.431,-0.907l-1.725,-2.127l-0.595,-2.723l-4.012,-3.103l7.516,1.812l12.133,1.517l0.088,-1.718l-9.52,-6.719l17.295,6.678l0.505,-1.104l3.947,1.145l0.78,-2.657l-20.346,-8.08Z" style="fill:#f6d7d0;fill-opacity:0.4;"/></g><path d="M33.446,9.469l5.109,2.555l1.643,5.93l-5.669,0.256l0.752,3.207l6.135,2.255l2.247,6.232l-35.76,-7.663l25.543,-12.772Z" style="fill:#6c7157;"/><clipPath id="_clip8"><path d="M33.446,9.469l5.109,2.555l1.643,5.93l-5.669,0.256l0.752,3.207l6.135,2.255l2.247,6.232l-35.76,-7.663l25.543,-12.772Z"/></clipPath><g clip-path="url(#_clip8)"><path d="M45.844,0.343l23.362,4.146l20.434,-2.682l-18.32,6.165l-2.114,2.453l2.952,2.236l-5.594,0.684l-2.467,2.241l-5.108,-3.562l-0.889,5.553l-17.598,-3.367l5.248,17.548l-3.954,9.296l0.943,6.876l6.033,20.288l-2.082,4.067l0.641,5.429l-24.102,-6.942l20.434,3.566l-1.612,-1.806l-23.931,-19.64l24.705,14.651l1.548,-0.258l-26.253,-19.502l25.543,15.029l-5.108,-7.14l-1.408,-6.28l-13.918,-9.271l12.442,3.996l-1.19,-2.553l-13.152,-7.502l1.9,-0.497l13.918,6.967l0.345,-1.118l-13.932,-5.684l14.502,3.59l3.57,-6.401l-33.729,-8.678l32.76,4.054l-2.108,-2.33l-5.109,-1.238l0,-5.231l5.109,-1.513l1.698,1.998l-0.177,1.402l-3.876,-0.07l4.299,3.276l0.669,0.494l-1.11,-3.583l0.151,-1.171l-0.431,-0.907l-1.725,-2.127l-0.595,-2.723l-4.012,-3.103l7.516,1.812l12.133,1.517l0.088,-1.718l-9.52,-6.719l17.295,6.678l0.505,-1.104l3.947,1.145l0.78,-2.657l-20.346,-8.08Z" style="fill:#f6d7d0;fill-opacity:0.4;"/></g><path d="M7.903,22.241l35.76,7.663l-5.108,8.757l-15.326,-4.866l15.326,8.88l0,5.108l-20.435,-10.217l-5.108,-7.662l-5.109,-7.663Z" style="fill:#574052;"/><clipPath id="_clip9"><path d="M7.903,22.241l35.76,7.663l-5.108,8.757l-15.326,-4.866l15.326,8.88l0,5.108l-20.435,-10.217l-5.108,-7.662l-5.109,-7.663Z"/></clipPath><g clip-path="url(#_clip9)"><path d="M45.844,0.343l23.362,4.146l20.434,-2.682l-18.32,6.165l-2.114,2.453l2.952,2.236l-5.594,0.684l-2.467,2.241l-5.108,-3.562l-0.889,5.553l-17.598,-3.367l5.248,17.548l-3.954,9.296l0.943,6.876l6.033,20.288l-2.082,4.067l0.641,5.429l-24.102,-6.942l20.434,3.566l-1.612,-1.806l-23.931,-19.64l24.705,14.651l1.548,-0.258l-26.253,-19.502l25.543,15.029l-5.108,-7.14l-1.408,-6.28l-13.918,-9.271l12.442,3.996l-1.19,-2.553l-13.152,-7.502l1.9,-0.497l13.918,6.967l0.345,-1.118l-13.932,-5.684l14.502,3.59l3.57,-6.401l-33.729,-8.678l32.76,4.054l-2.108,-2.33l-5.109,-1.238l0,-5.231l5.109,-1.513l1.698,1.998l-0.177,1.402l-3.876,-0.07l4.299,3.276l0.669,0.494l-1.11,-3.583l0.151,-1.171l-0.431,-0.907l-1.725,-2.127l-0.595,-2.723l-4.012,-3.103l7.516,1.812l12.133,1.517l0.088,-1.718l-9.52,-6.719l17.295,6.678l0.505,-1.104l3.947,1.145l0.78,-2.657l-20.346,-8.08Z" style="fill:#f6d7d0;fill-opacity:0.4;"/></g><path d="M47.287,77.692l-24.058,-6.92l-5.109,-17.88l0,-5.109l30.652,20.435l-5.109,2.554l3.624,6.92Z" style="fill:#6c7157;"/><clipPath id="_clip10"><path d="M47.287,77.692l-24.058,-6.92l-5.109,-17.88l0,-5.109l30.652,20.435l-5.109,2.554l3.624,6.92Z"/></clipPath><g clip-path="url(#_clip10)"><path d="M45.844,0.343l23.362,4.146l20.434,-2.682l-18.32,6.165l-2.114,2.453l2.952,2.236l-5.594,0.684l-2.467,2.241l-5.108,-3.562l-0.889,5.553l-17.598,-3.367l5.248,17.548l-3.954,9.296l0.943,6.876l6.033,20.288l-2.082,4.067l0.641,5.429l-24.102,-6.942l20.434,3.566l-1.612,-1.806l-23.931,-19.64l24.705,14.651l1.548,-0.258l-26.253,-19.502l25.543,15.029l-5.108,-7.14l-1.408,-6.28l-13.918,-9.271l12.442,3.996l-1.19,-2.553l-13.152,-7.502l1.9,-0.497l13.918,6.967l0.345,-1.118l-13.932,-5.684l14.502,3.59l3.57,-6.401l-33.729,-8.678l32.76,4.054l-2.108,-2.33l-5.109,-1.238l0,-5.231l5.109,-1.513l1.698,1.998l-0.177,1.402l-3.876,-0.07l4.299,3.276l0.669,0.494l-1.11,-3.583l0.151,-1.171l-0.431,-0.907l-1.725,-2.127l-0.595,-2.723l-4.012,-3.103l7.516,1.812l12.133,1.517l0.088,-1.718l-9.52,-6.719l17.295,6.678l0.505,-1.104l3.947,1.145l0.78,-2.657l-20.346,-8.08Z" style="fill:#f6d7d0;fill-opacity:0.4;"/></g><path d="M18.12,37.566l5.109,2.555l-5.109,7.662l30.652,20.435l-10.217,-20.435l-20.435,-10.217Z" style="fill:#574052;"/><clipPath id="_clip11"><path d="M18.12,37.566l5.109,2.555l-5.109,7.662l30.652,20.435l-10.217,-20.435l-20.435,-10.217Z"/></clipPath><g clip-path="url(#_clip11)"><path d="M45.844,0.343l23.362,4.146l20.434,-2.682l-18.32,6.165l-2.114,2.453l2.952,2.236l-5.594,0.684l-2.467,2.241l-5.108,-3.562l-0.889,5.553l-17.598,-3.367l5.248,17.548l-3.954,9.296l0.943,6.876l6.033,20.288l-2.082,4.067l0.641,5.429l-24.102,-6.942l20.434,3.566l-1.612,-1.806l-23.931,-19.64l24.705,14.651l1.548,-0.258l-26.253,-19.502l25.543,15.029l-5.108,-7.14l-1.408,-6.28l-13.918,-9.271l12.442,3.996l-1.19,-2.553l-13.152,-7.502l1.9,-0.497l13.918,6.967l0.345,-1.118l-13.932,-5.684l14.502,3.59l3.57,-6.401l-33.729,-8.678l32.76,4.054l-2.108,-2.33l-5.109,-1.238l0,-5.231l5.109,-1.513l1.698,1.998l-0.177,1.402l-3.876,-0.07l4.299,3.276l0.669,0.494l-1.11,-3.583l0.151,-1.171l-0.431,-0.907l-1.725,-2.127l-0.595,-2.723l-4.012,-3.103l7.516,1.812l12.133,1.517l0.088,-1.718l-9.52,-6.719l17.295,6.678l0.505,-1.104l3.947,1.145l0.78,-2.657l-20.346,-8.08Z" style="fill:#f6d7d0;fill-opacity:0.4;"/></g><path d="M18.12,52.892l25.543,17.88l3.205,6.711l-23.639,-6.711l-5.109,-17.88Z" style="fill:#574052;"/><clipPath id="_clip12"><path d="M18.12,52.892l25.543,17.88l3.205,6.711l-23.639,-6.711l-5.109,-17.88Z"/></clipPath><g clip-path="url(#_clip12)"><path d="M45.844,0.343l23.362,4.146l20.434,-2.682l-18.32,6.165l-2.114,2.453l2.952,2.236l-5.594,0.684l-2.467,2.241l-5.108,-3.562l-0.889,5.553l-17.598,-3.367l5.248,17.548l-3.954,9.296l0.943,6.876l6.033,20.288l-2.082,4.067l0.641,5.429l-24.102,-6.942l20.434,3.566l-1.612,-1.806l-23.931,-19.64l24.705,14.651l1.548,-0.258l-26.253,-19.502l25.543,15.029l-5.108,-7.14l-1.408,-6.28l-13.918,-9.271l12.442,3.996l-1.19,-2.553l-13.152,-7.502l1.9,-0.497l13.918,6.967l0.345,-1.118l-13.932,-5.684l14.502,3.59l3.57,-6.401l-33.729,-8.678l32.76,4.054l-2.108,-2.33l-5.109,-1.238l0,-5.231l5.109,-1.513l1.698,1.998l-0.177,1.402l-3.876,-0.07l4.299,3.276l0.669,0.494l-1.11,-3.583l0.151,-1.171l-0.431,-0.907l-1.725,-2.127l-0.595,-2.723l-4.012,-3.103l7.516,1.812l12.133,1.517l0.088,-1.718l-9.52,-6.719l17.295,6.678l0.505,-1.104l3.947,1.145l0.78,-2.657l-20.346,-8.08Z" style="fill:#f6d7d0;fill-opacity:0.4;"/></g><path d="M45.791,0.317l-2.128,4.044l20.434,10.217l0,-2.296l5.974,0.175l-3.32,-1.661l2.455,-3.881l-23.415,-6.598Z" style="fill:#6c7157;"/><clipPath id="_clip13"><path d="M45.791,0.317l-2.128,4.044l20.434,10.217l0,-2.296l5.974,0.175l-3.32,-1.661l2.455,-3.881l-23.415,-6.598Z"/></clipPath><g clip-path="url(#_clip13)"><path d="M45.844,0.343l23.362,4.146l20.434,-2.682l-18.32,6.165l-2.114,2.453l2.952,2.236l-5.594,0.684l-2.467,2.241l-5.108,-3.562l-0.889,5.553l-17.598,-3.367l5.248,17.548l-3.954,9.296l0.943,6.876l6.033,20.288l-2.082,4.067l0.641,5.429l-24.102,-6.942l20.434,3.566l-1.612,-1.806l-23.931,-19.64l24.705,14.651l1.548,-0.258l-26.253,-19.502l25.543,15.029l-5.108,-7.14l-1.408,-6.28l-13.918,-9.271l12.442,3.996l-1.19,-2.553l-13.152,-7.502l1.9,-0.497l13.918,6.967l0.345,-1.118l-13.932,-5.684l14.502,3.59l3.57,-6.401l-33.729,-8.678l32.76,4.054l-2.108,-2.33l-5.109,-1.238l0,-5.231l5.109,-1.513l1.698,1.998l-0.177,1.402l-3.876,-0.07l4.299,3.276l0.669,0.494l-1.11,-3.583l0.151,-1.171l-0.431,-0.907l-1.725,-2.127l-0.595,-2.723l-4.012,-3.103l7.516,1.812l12.133,1.517l0.088,-1.718l-9.52,-6.719l17.295,6.678l0.505,-1.104l3.947,1.145l0.78,-2.657l-20.346,-8.08Z" style="fill:#f6d7d0;fill-opacity:0.9;"/></g></g></g></g><g><path d="M64.145,22.627l11.758,26.894l4.593,1.906l-13.569,-29.731l-2.782,0.931Z" style="fill:#574052;"/><path d="M64.489,33.16l-8.371,2.553l-3.506,-1.256l11.643,-3.923l0.234,2.626Z" style="fill:none;"/><path d="M70.405,52.291l4.739,1.764l5.349,-2.599l-4.644,-1.827l-5.444,2.662Z" style="fill:none;"/><path d="M47.065,56.185l-0.384,-27.673l17.464,-5.885l11.704,27.002l-5.444,2.662l-8.902,-20.83l-8.891,2.996l0.059,19.065l-5.606,2.663Z" style="fill:#f4ec3e;"/><path d="M51.491,57.559l-4.426,-1.374l5.66,-2.824l4.156,1.221l-5.39,2.977Z" style="fill:none;"/><path d="M52.612,34.457l3.343,1.385l0.906,18.708l-4.244,-1.135l-0.005,-18.958" style="fill:#574052;"/></g><path d="M86.022,41.722c0,0 2.482,1.152 2.212,3.309c-0.269,2.156 -0.855,2.424 -1.146,8.67c-0.291,6.247 1.599,1.941 1.103,9.666c-0.496,7.724 6.064,5.029 -1.484,12.308c-7.549,7.279 -14.019,11.143 -20.22,7.279c-6.2,-3.865 -8.178,-2.517 -14.288,-0.629c-6.111,1.887 -7.81,1.527 -13.655,1.887c-5.846,0.359 -7.931,-0.773 -16.369,-4.206c-8.438,-3.433 -4.574,-0.917 -10.685,-6.668c-6.111,-5.751 1.342,-7.119 -3.598,-5.581c-4.939,1.537 -11.478,8.726 -5.108,0.549c6.37,-8.178 0.801,-8.902 6.506,-10.068c5.705,-1.165 3.719,-4.114 5.746,-2.235c2.026,1.878 4.471,0.838 4.471,0.838l2.857,11.644l2.857,-3.082c0,0 -0.046,-2.024 2.025,1.197c2.07,3.22 2.672,2.385 4.097,2.665c1.424,0.279 -1.198,1.384 1.424,0.279c2.623,-1.104 1.69,-0.76 3.33,-0.564c1.639,0.196 0.079,-1.736 2.447,0.61c2.367,2.347 2.091,2.991 3.241,2.991c1.15,0 1.381,-0.23 1.381,-0.23l0.486,-1.15l0,-0.89l-7.388,-4.954l0.368,-1.242c0,0 -2.07,-1.104 0.644,0.046c2.715,1.15 2.979,2 4.342,2.058c1.363,0.059 1.548,-0.402 2.606,0.427c1.058,0.828 1.38,1.104 1.38,1.104l2.635,-0.254l0.522,0.261l-1.455,2.293c0,0 0.046,0.369 0.737,0.829c0.69,0.46 -0.681,0.552 0.718,0.598c1.398,0.046 3.343,2.438 5.108,-0.276c1.765,-2.715 1.029,-2.163 2.179,-2.853c1.151,-0.69 -0.322,0.874 1.611,-0.828c1.932,-1.703 1.15,-1.703 2.162,-2.025c1.013,-0.322 1.979,-0.736 1.979,-0.736c0,0 5.153,-1.702 5.015,-4.049c-0.138,-2.346 -1.288,-1.012 -0.138,-2.392c1.15,-1.381 0.389,-2.025 2.518,-2.301c2.129,-0.276 4.66,-0.138 4.66,-0.138l-0.368,2.853c0,0 -1.841,0.736 -2.255,1.196c-0.414,0.46 -1.058,1.196 -1.058,1.196l-2.301,1.427l0.092,1.288l0.23,2.163l0.437,1.473c0,0 1.993,0.533 2.158,-0.516c0.166,-1.05 -0.018,-1.05 0.442,-1.786c0.46,-0.736 0.874,-0.782 1.426,-1.932c0.552,-1.15 1.059,-1.887 1.059,-1.887c0,0 -1.726,0.967 0.586,-0.736c2.312,-1.702 2.588,-0.966 2.588,-2.668c0,-1.703 -0.23,-1.841 0,-2.853c0.23,-1.012 1.131,-1.971 1.131,-1.971l1.39,0.269l0.654,1.242l0.23,2.899l0,2.208l0.598,0.276l1.104,-2.899l0.534,-1.141l1.988,-0.995l1.93,-4.144l-3.991,-3.474l2.061,-2.599l1.502,-3.046" style="fill:#714639;"/><clipPath id="_clip14"><path d="M86.022,41.722c0,0 2.482,1.152 2.212,3.309c-0.269,2.156 -0.855,2.424 -1.146,8.67c-0.291,6.247 1.599,1.941 1.103,9.666c-0.496,7.724 6.064,5.029 -1.484,12.308c-7.549,7.279 -14.019,11.143 -20.22,7.279c-6.2,-3.865 -8.178,-2.517 -14.288,-0.629c-6.111,1.887 -7.81,1.527 -13.655,1.887c-5.846,0.359 -7.931,-0.773 -16.369,-4.206c-8.438,-3.433 -4.574,-0.917 -10.685,-6.668c-6.111,-5.751 1.342,-7.119 -3.598,-5.581c-4.939,1.537 -11.478,8.726 -5.108,0.549c6.37,-8.178 0.801,-8.902 6.506,-10.068c5.705,-1.165 3.719,-4.114 5.746,-2.235c2.026,1.878 4.471,0.838 4.471,0.838l2.857,11.644l2.857,-3.082c0,0 -0.046,-2.024 2.025,1.197c2.07,3.22 2.672,2.385 4.097,2.665c1.424,0.279 -1.198,1.384 1.424,0.279c2.623,-1.104 1.69,-0.76 3.33,-0.564c1.639,0.196 0.079,-1.736 2.447,0.61c2.367,2.347 2.091,2.991 3.241,2.991c1.15,0 1.381,-0.23 1.381,-0.23l0.486,-1.15l0,-0.89l-7.388,-4.954l0.368,-1.242c0,0 -2.07,-1.104 0.644,0.046c2.715,1.15 2.979,2 4.342,2.058c1.363,0.059 1.548,-0.402 2.606,0.427c1.058,0.828 1.38,1.104 1.38,1.104l2.635,-0.254l0.522,0.261l-1.455,2.293c0,0 0.046,0.369 0.737,0.829c0.69,0.46 -0.681,0.552 0.718,0.598c1.398,0.046 3.343,2.438 5.108,-0.276c1.765,-2.715 1.029,-2.163 2.179,-2.853c1.151,-0.69 -0.322,0.874 1.611,-0.828c1.932,-1.703 1.15,-1.703 2.162,-2.025c1.013,-0.322 1.979,-0.736 1.979,-0.736c0,0 5.153,-1.702 5.015,-4.049c-0.138,-2.346 -1.288,-1.012 -0.138,-2.392c1.15,-1.381 0.389,-2.025 2.518,-2.301c2.129,-0.276 4.66,-0.138 4.66,-0.138l-0.368,2.853c0,0 -1.841,0.736 -2.255,1.196c-0.414,0.46 -1.058,1.196 -1.058,1.196l-2.301,1.427l0.092,1.288l0.23,2.163l0.437,1.473c0,0 1.993,0.533 2.158,-0.516c0.166,-1.05 -0.018,-1.05 0.442,-1.786c0.46,-0.736 0.874,-0.782 1.426,-1.932c0.552,-1.15 1.059,-1.887 1.059,-1.887c0,0 -1.726,0.967 0.586,-0.736c2.312,-1.702 2.588,-0.966 2.588,-2.668c0,-1.703 -0.23,-1.841 0,-2.853c0.23,-1.012 1.131,-1.971 1.131,-1.971l1.39,0.269l0.654,1.242l0.23,2.899l0,2.208l0.598,0.276l1.104,-2.899l0.534,-1.141l1.988,-0.995l1.93,-4.144l-3.991,-3.474l2.061,-2.599l1.502,-3.046"/></clipPath><g clip-path="url(#_clip14)"><path d="M93.923,37.275l0,61.302l-56.194,-5.638l27.944,-41.539l28.25,-14.125Z" style="fill:#c4e783;fill-opacity:0.5;"/><path d="M91.249,46.512l0.117,-3.429l-4.209,-0.761c0,0 -1.796,2.623 -2.129,6.077c-0.073,0.756 1.676,1.716 1.563,2.513c-0.677,4.749 -2.056,9.842 -2.071,11.178c-0.029,2.584 1.714,5.617 0,6.965c-1.714,1.348 0.196,2.92 -2.051,3.594c-2.246,0.674 -3.274,6.594 -3.94,0.657c-0.665,-5.936 -1.254,-5.095 -0.51,-6.246c0.743,-1.151 1.393,-1.937 1.393,-1.937l0,-2.475l0,-1.569c0,0 -2.37,1.278 -3.082,3.11c-0.713,1.833 -2.854,6.536 -2.854,6.536c0,0 0.95,1.05 -2.555,3.003c-3.504,1.954 -5.728,2.245 -5.728,2.245c0,0 0.585,1.751 0,0c-0.584,-1.751 2.38,-9.027 2.38,-9.027c0,0 0.92,-1.278 -1.078,-0.54c-1.999,0.739 -3.269,3.926 -5.442,5.422c-2.173,1.495 -3.858,3.292 -3.858,3.292l-1.818,1.053l-0.024,-5.12c0,0 0.43,0.826 -3.526,3.345c-3.955,2.52 -4.694,2.762 -4.694,2.762c0,0 -0.582,1.837 -1.438,-0.719c-0.856,-2.556 -0.48,-1.803 -0.48,-1.803l0.747,-4.348l-2.31,-1.797l0,8.986l-6.929,1.405l-2.331,-0.057l2.092,-6.992c0,0 -0.074,0.14 -3.049,0.14c-2.975,0 -6.004,0.442 -6.004,0.442l-0.501,1.147c0,0 0.273,-0.466 -1.974,-0.241c-2.246,0.225 2.696,3.37 -2.808,-0.225c-5.504,-3.594 -5.777,2.826 -6.539,-4.091c-0.763,-6.917 -1.364,-6.95 -0.558,-7.888c0.806,-0.939 4.401,-0.152 1.031,-1.163c-3.37,-1.011 -3.081,-1.011 -3.081,-1.011c0,0 -1.616,-3.035 -5.109,-1.405c-3.492,1.629 -1.531,0.514 -3.691,3.262c-2.16,2.748 -1.904,-3.105 -6.526,6.955c-4.621,10.059 -12.467,11.148 -4.275,13.187c8.191,2.04 3.939,3.388 19.601,3.388c15.662,0 74.691,4.827 74.691,4.827l6.278,-14.124l-2.721,-28.523Z" style="fill:#b38b66;"/><clipPath id="_clip15"><path d="M91.249,46.512l0.117,-3.429l-4.209,-0.761c0,0 -1.796,2.623 -2.129,6.077c-0.073,0.756 1.676,1.716 1.563,2.513c-0.677,4.749 -2.056,9.842 -2.071,11.178c-0.029,2.584 1.714,5.617 0,6.965c-1.714,1.348 0.196,2.92 -2.051,3.594c-2.246,0.674 -3.274,6.594 -3.94,0.657c-0.665,-5.936 -1.254,-5.095 -0.51,-6.246c0.743,-1.151 1.393,-1.937 1.393,-1.937l0,-2.475l0,-1.569c0,0 -2.37,1.278 -3.082,3.11c-0.713,1.833 -2.854,6.536 -2.854,6.536c0,0 0.95,1.05 -2.555,3.003c-3.504,1.954 -5.728,2.245 -5.728,2.245c0,0 0.585,1.751 0,0c-0.584,-1.751 2.38,-9.027 2.38,-9.027c0,0 0.92,-1.278 -1.078,-0.54c-1.999,0.739 -3.269,3.926 -5.442,5.422c-2.173,1.495 -3.858,3.292 -3.858,3.292l-1.818,1.053l-0.024,-5.12c0,0 0.43,0.826 -3.526,3.345c-3.955,2.52 -4.694,2.762 -4.694,2.762c0,0 -0.582,1.837 -1.438,-0.719c-0.856,-2.556 -0.48,-1.803 -0.48,-1.803l0.747,-4.348l-2.31,-1.797l0,8.986l-6.929,1.405l-2.331,-0.057l2.092,-6.992c0,0 -0.074,0.14 -3.049,0.14c-2.975,0 -6.004,0.442 -6.004,0.442l-0.501,1.147c0,0 0.273,-0.466 -1.974,-0.241c-2.246,0.225 2.696,3.37 -2.808,-0.225c-5.504,-3.594 -5.777,2.826 -6.539,-4.091c-0.763,-6.917 -1.364,-6.95 -0.558,-7.888c0.806,-0.939 4.401,-0.152 1.031,-1.163c-3.37,-1.011 -3.081,-1.011 -3.081,-1.011c0,0 -1.616,-3.035 -5.109,-1.405c-3.492,1.629 -1.531,0.514 -3.691,3.262c-2.16,2.748 -1.904,-3.105 -6.526,6.955c-4.621,10.059 -12.467,11.148 -4.275,13.187c8.191,2.04 3.939,3.388 19.601,3.388c15.662,0 74.691,4.827 74.691,4.827l6.278,-14.124l-2.721,-28.523Z"/></clipPath><g clip-path="url(#_clip15)"><path d="M93.923,37.275l0,61.302l-56.194,-5.638l27.944,-41.539l28.25,-14.125Z" style="fill:#c4e783;fill-opacity:0.5;"/></g><path d="M45.194,61.639l-38.116,19.058l-10.217,-10.217l17.381,-24.016l30.952,15.175Z" style="fill-opacity:0.5;"/></g></g></svg>