<?xml version="1.0" encoding="UTF-8" standalone="no"?><!DOCTYPE svg PUBLIC "-//W3C//DTD SVG 1.1//EN" "http://www.w3.org/Graphics/SVG/1.1/DTD/svg11.dtd"><svg width="100%" height="100%" viewBox="0 0 85 94" version="1.1" xmlns="http://www.w3.org/2000/svg" xmlns:xlink="http://www.w3.org/1999/xlink" xml:space="preserve" xmlns:serif="http://www.serif.com/" style="fill-rule:evenodd;clip-rule:evenodd;stroke-linejoin:round;stroke-miterlimit:1.41421;"><g id="N_Runestone_grass_2"><g id="F_Runestone_runes_2"><g><g><path d="M61.632,0.586l20.434,5.108l-20.434,5.109l-20.434,-10.217l20.434,0Z" style="fill:#9da8c9;"/><clipPath id="_clip1"><path d="M61.632,0.586l20.434,5.108l-20.434,5.109l-20.434,-10.217l20.434,0Z"/></clipPath><g clip-path="url(#_clip1)"><path d="M82.066,5.694l-18.481,6.9l-1.279,3.654l-0.674,5.443l-9.596,1.806l0.581,-4.774l-16.528,14.129l-5.108,1.548l2.539,16.645l4.646,15.226l-5.302,-0.216l1.044,11.184l2.181,7.637l-6.117,-5.766l-19.425,-12.114l18.167,6.242l-0.629,-9.902l-17.538,-10.033l0,-1.632l7.619,2.277l13.806,5.033l-4.452,-7.484l-4.129,-1.871l2.481,-0.509l-15.325,-7.663l15.325,4.688l-1.19,-14.839l-14.135,-15.392l20.434,12.102l12.281,-9.613l4.129,-2.322l-16.41,-10.384l26.546,13.273l-1.004,-5.61l0.61,-2.118l-15.935,-10.653l20.434,7.814l7.308,-2.387l13.126,-0.319Z" style="fill:#f6d7d0;fill-opacity:0.9;"/></g><path d="M30.981,5.694l-5.109,7.663l-15.325,2.554l17.852,14.035l6.39,1.254l11.517,-12.735l5.109,-2.554l-20.434,-10.217" style="fill:#9da8c9;"/><clipPath id="_clip2"><path d="M30.981,5.694l-5.109,7.663l-15.325,2.554l17.852,14.035l6.39,1.254l11.517,-12.735l5.109,-2.554l-20.434,-10.217"/></clipPath><g clip-path="url(#_clip2)"><path d="M82.066,5.694l-18.481,6.9l-1.279,3.654l-0.674,5.443l-9.596,1.806l0.581,-4.774l-16.528,14.129l-5.108,1.548l2.539,16.645l4.646,15.226l-5.302,-0.216l1.044,11.184l2.181,7.637l-6.117,-5.766l-19.425,-12.114l18.167,6.242l-0.629,-9.902l-17.538,-10.033l0,-1.632l7.619,2.277l13.806,5.033l-4.452,-7.484l-4.129,-1.871l2.481,-0.509l-15.325,-7.663l15.325,4.688l-1.19,-14.839l-14.135,-15.392l20.434,12.102l12.281,-9.613l4.129,-2.322l-16.41,-10.384l26.546,13.273l-1.004,-5.61l0.61,-2.118l-15.935,-10.653l20.434,7.814l7.308,-2.387l13.126,-0.319Z" style="fill:#f6d7d0;fill-opacity:0.9;"/></g><path d="M82.066,5.694l-20.434,5.109l-5.109,7.662l-5.108,-2.554l-5.109,2.554l-11.468,12.687l-6.441,-1.207l2.584,21.726l5.108,12.771l-5.108,-2.554l0,15.325l5.108,7.663l15.326,-7.663l0,-5.108l5.108,-2.554l5.109,2.554l17.456,-8.728l1.11,-22.857l1.868,-9.283l-5.108,2.554l5.108,-12.771l0,-15.326Z" style="fill:#bac1d8;"/><clipPath id="_clip3"><path d="M82.066,5.694l-20.434,5.109l-5.109,7.662l-5.108,-2.554l-5.109,2.554l-11.468,12.687l-6.441,-1.207l2.584,21.726l5.108,12.771l-5.108,-2.554l0,15.325l5.108,7.663l15.326,-7.663l0,-5.108l5.108,-2.554l5.109,2.554l17.456,-8.728l1.11,-22.857l1.868,-9.283l-5.108,2.554l5.108,-12.771l0,-15.326Z"/></clipPath><g clip-path="url(#_clip3)"><path d="M82.066,5.694l-18.481,6.9l-1.279,3.654l-0.674,5.443l-9.596,1.806l0.581,-4.774l-16.528,14.129l-5.108,1.548l2.539,16.645l4.646,15.226l-5.302,-0.216l1.044,11.184l2.181,7.637l-6.117,-5.766l-19.425,-12.114l18.167,6.242l-0.629,-9.902l-17.538,-10.033l0,-1.632l7.619,2.277l13.806,5.033l-4.452,-7.484l-4.129,-1.871l2.481,-0.509l-15.325,-7.663l15.325,4.688l-1.19,-14.839l-14.135,-15.392l20.434,12.102l12.281,-9.613l4.129,-2.322l-16.41,-10.384l26.546,13.273l-1.004,-5.61l0.61,-2.118l-15.935,-10.653l20.434,7.814l7.308,-2.387l13.126,-0.319Z" style="fill:#f6d7d0;fill-opacity:0.9;"/></g><path d="M10.547,15.911l17.852,14.035l2.582,21.725l-20.434,-10.217l1.887,-9.274l-1.887,-16.269Z" style="fill:#6c7157;"/><clipPath id="_clip4"><path d="M10.547,15.911l17.852,14.035l2.582,21.725l-20.434,-10.217l1.887,-9.274l-1.887,-16.269Z"/></clipPath><g clip-path="url(#_clip4)"><path d="M82.066,5.694l-18.481,6.9l-1.279,3.654l-0.674,5.443l-9.596,1.806l0.581,-4.774l-16.528,14.129l-5.108,1.548l2.539,16.645l4.646,15.226l-5.302,-0.216l1.044,11.184l2.181,7.637l-6.117,-5.766l-19.425,-12.114l18.167,6.242l-0.629,-9.902l-17.538,-10.033l0,-1.632l7.619,2.277l13.806,5.033l-4.452,-7.484l-4.129,-1.871l2.481,-0.509l-15.325,-7.663l15.325,4.688l-1.19,-14.839l-14.135,-15.392l20.434,12.102l12.281,-9.613l4.129,-2.322l-16.41,-10.384l26.546,13.273l-1.004,-5.61l0.61,-2.118l-15.935,-10.653l20.434,7.814l7.308,-2.387l13.126,-0.319Z" style="fill:#f6d7d0;fill-opacity:0.4;"/></g><path d="M36.089,84.876l-20.434,-10.217l-5.108,-7.663l0,-15.325l20.434,10.217l0,15.325l5.108,7.663Z" style="fill:#6c7157;"/><clipPath id="_clip5"><path d="M36.089,84.876l-20.434,-10.217l-5.108,-7.663l0,-15.325l20.434,10.217l0,15.325l5.108,7.663Z"/></clipPath><g clip-path="url(#_clip5)"><path d="M82.066,5.694l-18.481,6.9l-1.279,3.654l-0.674,5.443l-9.596,1.806l0.581,-4.774l-16.528,14.129l-5.108,1.548l2.539,16.645l4.646,15.226l-5.302,-0.216l1.044,11.184l2.181,7.637l-6.117,-5.766l-19.425,-12.114l18.167,6.242l-0.629,-9.902l-17.538,-10.033l0,-1.632l7.619,2.277l13.806,5.033l-4.452,-7.484l-4.129,-1.871l2.481,-0.509l-15.325,-7.663l15.325,4.688l-1.19,-14.839l-14.135,-15.392l20.434,12.102l12.281,-9.613l4.129,-2.322l-16.41,-10.384l26.546,13.273l-1.004,-5.61l0.61,-2.118l-15.935,-10.653l20.434,7.814l7.308,-2.387l13.126,-0.319Z" style="fill:#f6d7d0;fill-opacity:0.4;"/></g><path d="M10.547,41.454l15.325,7.663l-15.325,2.554l25.542,12.771l-5.108,-12.771l-20.434,-10.217Z" style="fill:#574052;"/><clipPath id="_clip6"><path d="M10.547,41.454l15.325,7.663l-15.325,2.554l25.542,12.771l-5.108,-12.771l-20.434,-10.217Z"/></clipPath><g clip-path="url(#_clip6)"><path d="M82.066,5.694l-18.481,6.9l-1.279,3.654l-0.674,5.443l-9.596,1.806l0.581,-4.774l-16.528,14.129l-5.108,1.548l2.539,16.645l4.646,15.226l-5.302,-0.216l1.044,11.184l2.181,7.637l-6.117,-5.766l-19.425,-12.114l18.167,6.242l-0.629,-9.902l-17.538,-10.033l0,-1.632l7.619,2.277l13.806,5.033l-4.452,-7.484l-4.129,-1.871l2.481,-0.509l-15.325,-7.663l15.325,4.688l-1.19,-14.839l-14.135,-15.392l20.434,12.102l12.281,-9.613l4.129,-2.322l-16.41,-10.384l26.546,13.273l-1.004,-5.61l0.61,-2.118l-15.935,-10.653l20.434,7.814l7.308,-2.387l13.126,-0.319Z" style="fill:#f6d7d0;fill-opacity:0.4;"/></g><path d="M10.547,66.996l20.434,10.217l5.108,7.663l-20.434,-10.217l-5.108,-7.663Z" style="fill:#574052;"/><clipPath id="_clip7"><path d="M10.547,66.996l20.434,10.217l5.108,7.663l-20.434,-10.217l-5.108,-7.663Z"/></clipPath><g clip-path="url(#_clip7)"><path d="M82.066,5.694l-18.481,6.9l-1.279,3.654l-0.674,5.443l-9.596,1.806l0.581,-4.774l-16.528,14.129l-5.108,1.548l2.539,16.645l4.646,15.226l-5.302,-0.216l1.044,11.184l2.181,7.637l-6.117,-5.766l-19.425,-12.114l18.167,6.242l-0.629,-9.902l-17.538,-10.033l0,-1.632l7.619,2.277l13.806,5.033l-4.452,-7.484l-4.129,-1.871l2.481,-0.509l-15.325,-7.663l15.325,4.688l-1.19,-14.839l-14.135,-15.392l20.434,12.102l12.281,-9.613l4.129,-2.322l-16.41,-10.384l26.546,13.273l-1.004,-5.61l0.61,-2.118l-15.935,-10.653l20.434,7.814l7.308,-2.387l13.126,-0.319Z" style="fill:#f6d7d0;fill-opacity:0.9;"/></g><path d="M41.198,0.586l-5.109,7.662l20.434,10.217l-2.438,3.89l5.527,-2.345l-0.435,-5.326l2.455,-3.881l-20.434,-10.217Z" style="fill:#6c7157;"/><clipPath id="_clip8"><path d="M41.198,0.586l-5.109,7.662l20.434,10.217l-2.438,3.89l5.527,-2.345l-0.435,-5.326l2.455,-3.881l-20.434,-10.217Z"/></clipPath><g clip-path="url(#_clip8)"><path d="M82.066,5.694l-18.481,6.9l-1.279,3.654l-0.674,5.443l-9.596,1.806l0.581,-4.774l-16.528,14.129l-5.108,1.548l2.539,16.645l4.646,15.226l-5.302,-0.216l1.044,11.184l2.181,7.637l-6.117,-5.766l-19.425,-12.114l18.167,6.242l-0.629,-9.902l-17.538,-10.033l0,-1.632l7.619,2.277l13.806,5.033l-4.452,-7.484l-4.129,-1.871l2.481,-0.509l-15.325,-7.663l15.325,4.688l-1.19,-14.839l-14.135,-15.392l20.434,12.102l12.281,-9.613l4.129,-2.322l-16.41,-10.384l26.546,13.273l-1.004,-5.61l0.61,-2.118l-15.935,-10.653l20.434,7.814l7.308,-2.387l13.126,-0.319Z" style="fill:#f6d7d0;fill-opacity:0.9;"/></g></g></g></g><g><path d="M58.575,28.96l11.759,26.893l4.592,1.906l-13.569,-29.73l-2.782,0.931Z" style="fill:#574052;"/><path d="M58.919,39.493l-8.37,2.553l-3.507,-1.256l11.643,-3.924l0.234,2.627Z" style="fill:none;"/><path d="M64.836,58.624l4.738,1.763l5.349,-2.599l-4.643,-1.827l-5.444,2.663Z" style="fill:none;"/><path d="M41.495,62.518l-0.384,-27.673l17.464,-5.885l11.705,27.001l-5.444,2.663l-8.903,-20.83l-8.891,2.996l0.059,19.065l-5.606,2.663Z" style="fill:#f4ec3e;"/><path d="M45.922,63.892l-4.427,-1.374l5.66,-2.825l4.156,1.222l-5.389,2.977Z" style="fill:none;"/><path d="M47.042,40.79l3.344,1.384l0.905,18.709l-4.244,-1.136l-0.005,-18.957" style="fill:#574052;"/></g><path d="M79.846,48.158c0,0 6.023,1.537 4.351,7.225c-1.672,5.688 -0.691,6.842 -2.095,11.265c-1.405,4.423 -2.576,0.768 -5.109,5.714c-2.445,4.776 -1.717,6.082 -12.733,10.908c-0.392,0.171 1.248,-3.193 0.821,-3.003c-0.898,0.4 -1.669,0.754 -2.332,1.07c-8.522,4.067 0.853,1.734 -12.241,5.274c-0.883,0.239 3.88,1.316 3.076,1.538c-0.803,0.222 -3.476,-0.207 -4.251,-0.008c-2.579,0.663 -4.884,1.237 -6.919,1.727c-0.37,0.089 1.938,2.016 -1.083,0.259c-5.189,-3.018 -9.236,2.024 -10.314,2.064c-1.717,0.063 -4.566,-3.054 -7.872,-1.173c-3.307,1.881 -2.555,4.569 -5.78,1.344c-1.544,-1.544 -3.353,-0.852 -3.846,-1.639c-0.537,-0.858 0.225,-3.129 -2.109,-3.227c-0.531,-0.022 -1.709,4.029 -2.193,4.012c-3.598,-0.129 -5.277,-4.16 -6.947,-3.473c-1.894,0.778 -2.04,-0.867 0.667,-4.775c2.707,-3.909 3.812,-1.699 3.69,-4.417c-0.122,-2.718 -2.474,-3.872 -2.474,-3.872c0,0 -1.964,1.936 -1.473,-2.057c0.491,-3.993 -0.318,-4.202 0.839,-4.689c1.158,-0.487 1.892,1.664 1.955,-1.24c0.063,-2.903 -0.708,-1.505 0,-3.763c0.708,-2.258 0.201,-0.492 1.315,-3.579c1.113,-3.088 0.451,-5.273 0.459,-6.654c0.009,-1.38 -1.066,-0.412 0.009,-1.702c1.075,-1.291 5.754,-2.798 7.339,-3.066c1.586,-0.268 7.177,1.13 7.177,1.13l-11.191,2.263l0,15.034l5.109,7.663c0,0 0.363,2.441 2.875,1.437c2.511,-1.004 1.961,-1.004 3.007,-1.004c1.046,0 0.881,-0.055 2.808,1.487c1.926,1.541 3.276,2.314 3.276,2.314c0,0 1.568,1.099 2.669,1.705c1.101,0.605 1.717,2.237 1.717,2.237l0.485,-0.751c0,0 0.4,0.25 0.366,-0.701c-0.035,-0.95 0.35,-2.712 0.157,-3.152c-0.192,-0.441 -1.293,-1.267 0.193,-0.551c1.487,0.716 0.969,0.76 2.054,1.674c1.084,0.913 -1.019,1.927 1.959,0.98c2.979,-0.947 2.056,-1.223 3.977,-1.113c1.92,0.11 1.094,1.322 3.021,0.055c1.927,-1.266 1.927,-0.495 2.642,-1.761c0.716,-1.267 0.661,-1.652 0.661,-1.652c0,0 -2.243,1.017 -0.048,-0.62l2.195,-1.637c0,0 -0.569,0.899 0.101,-0.679c0.67,-1.578 0.638,-0.587 1.645,-2.239c1.007,-1.652 0.122,-1.864 1.996,-2.694c1.873,-0.829 -0.108,-2.04 2.204,-0.939c2.312,1.101 0.378,0.48 3.492,1.203c3.114,0.723 3.389,0.503 4.546,0.723c1.156,0.221 -1.377,-1.101 1.266,-2.917c2.642,-1.817 3.064,-0.588 3.019,-2.221c-0.046,-1.633 -2.524,-2.679 0.119,-2.789c2.642,-0.11 -1.705,2.033 2.671,0.273c4.376,-1.76 3.88,-0.438 4.706,-1.87c0.826,-1.431 1.835,-1.486 1.523,-2.697c-0.312,-1.212 -0.405,-2.333 -0.405,-2.333l2.893,2.961l0.365,-8.882Z" style="fill:#714639;"/><clipPath id="_clip9"><path d="M79.846,48.158c0,0 6.023,1.537 4.351,7.225c-1.672,5.688 -0.691,6.842 -2.095,11.265c-1.405,4.423 -2.576,0.768 -5.109,5.714c-2.445,4.776 -1.717,6.082 -12.733,10.908c-0.392,0.171 1.248,-3.193 0.821,-3.003c-0.898,0.4 -1.669,0.754 -2.332,1.07c-8.522,4.067 0.853,1.734 -12.241,5.274c-0.883,0.239 3.88,1.316 3.076,1.538c-0.803,0.222 -3.476,-0.207 -4.251,-0.008c-2.579,0.663 -4.884,1.237 -6.919,1.727c-0.37,0.089 1.938,2.016 -1.083,0.259c-5.189,-3.018 -9.236,2.024 -10.314,2.064c-1.717,0.063 -4.566,-3.054 -7.872,-1.173c-3.307,1.881 -2.555,4.569 -5.78,1.344c-1.544,-1.544 -3.353,-0.852 -3.846,-1.639c-0.537,-0.858 0.225,-3.129 -2.109,-3.227c-0.531,-0.022 -1.709,4.029 -2.193,4.012c-3.598,-0.129 -5.277,-4.16 -6.947,-3.473c-1.894,0.778 -2.04,-0.867 0.667,-4.775c2.707,-3.909 3.812,-1.699 3.69,-4.417c-0.122,-2.718 -2.474,-3.872 -2.474,-3.872c0,0 -1.964,1.936 -1.473,-2.057c0.491,-3.993 -0.318,-4.202 0.839,-4.689c1.158,-0.487 1.892,1.664 1.955,-1.24c0.063,-2.903 -0.708,-1.505 0,-3.763c0.708,-2.258 0.201,-0.492 1.315,-3.579c1.113,-3.088 0.451,-5.273 0.459,-6.654c0.009,-1.38 -1.066,-0.412 0.009,-1.702c1.075,-1.291 5.754,-2.798 7.339,-3.066c1.586,-0.268 7.177,1.13 7.177,1.13l-11.191,2.263l0,15.034l5.109,7.663c0,0 0.363,2.441 2.875,1.437c2.511,-1.004 1.961,-1.004 3.007,-1.004c1.046,0 0.881,-0.055 2.808,1.487c1.926,1.541 3.276,2.314 3.276,2.314c0,0 1.568,1.099 2.669,1.705c1.101,0.605 1.717,2.237 1.717,2.237l0.485,-0.751c0,0 0.4,0.25 0.366,-0.701c-0.035,-0.95 0.35,-2.712 0.157,-3.152c-0.192,-0.441 -1.293,-1.267 0.193,-0.551c1.487,0.716 0.969,0.76 2.054,1.674c1.084,0.913 -1.019,1.927 1.959,0.98c2.979,-0.947 2.056,-1.223 3.977,-1.113c1.92,0.11 1.094,1.322 3.021,0.055c1.927,-1.266 1.927,-0.495 2.642,-1.761c0.716,-1.267 0.661,-1.652 0.661,-1.652c0,0 -2.243,1.017 -0.048,-0.62l2.195,-1.637c0,0 -0.569,0.899 0.101,-0.679c0.67,-1.578 0.638,-0.587 1.645,-2.239c1.007,-1.652 0.122,-1.864 1.996,-2.694c1.873,-0.829 -0.108,-2.04 2.204,-0.939c2.312,1.101 0.378,0.48 3.492,1.203c3.114,0.723 3.389,0.503 4.546,0.723c1.156,0.221 -1.377,-1.101 1.266,-2.917c2.642,-1.817 3.064,-0.588 3.019,-2.221c-0.046,-1.633 -2.524,-2.679 0.119,-2.789c2.642,-0.11 -1.705,2.033 2.671,0.273c4.376,-1.76 3.88,-0.438 4.706,-1.87c0.826,-1.431 1.835,-1.486 1.523,-2.697c-0.312,-1.212 -0.405,-2.333 -0.405,-2.333l2.893,2.961l0.365,-8.882Z"/></clipPath><g clip-path="url(#_clip9)"><path d="M86.396,36.166l18.329,50.033l-68.039,22.174l-11.592,-5.796l28.828,-46.888l32.474,-19.523" style="fill:#c4e783;fill-opacity:0.5;"/><path d="M88.444,51.911l-4.555,4.581l-1.787,1.225c0,0 0.431,2.914 0,3.823c-0.432,0.908 -2.455,3.88 -2.455,3.88c0,0 -0.557,0.899 -1.633,1.974c-1.075,1.076 -1.873,1.382 -1.873,1.382l-0.688,-0.344l2.561,-6.521l0.646,-1.076l-1.667,-0.537c0,0 -2.419,2.795 -3.172,4.193c-0.753,1.398 -0.901,1.639 -0.901,1.639c0,0 0.147,0.512 -1.035,1.695c-1.182,1.182 -2.522,2.248 -1.96,2.952c0.563,0.703 0.866,1.526 0.866,1.526c0,0 -1.809,1.005 -3.099,0.36c-1.29,-0.645 0.322,-0.968 -1.936,-1.505c-2.258,-0.538 -3.017,-1.061 -5.917,-0.316c-2.9,0.746 -4.082,-6.136 -5.373,0.746c-1.29,6.882 -2.483,7.204 -3.015,8.064c-0.533,0.861 1.737,1.159 -1.656,1.494c-3.393,0.334 -4.684,0.442 -4.684,0.442c0,0 -4.618,2.268 -6.556,1.725c-1.938,-0.542 0.842,-1.188 -2.43,-0.435c-3.272,0.753 -7.808,1.506 -10.217,2.581c-2.409,1.075 -4.448,2.051 -7.461,2.799c-3.013,0.749 -2.275,0.84 -0.785,-0.397c4.038,-3.352 -6.058,-0.789 -4.748,-3.159c1.582,-2.863 2.777,-2.792 2.777,-2.792l-3.037,-4.009l-2.072,0.246c0,0 0.273,1.057 -1.792,-0.386c-2.065,-1.442 -2.731,-1.484 -1.914,-4.151c0.816,-2.667 2.246,-1.225 1.155,-3.129c-1.091,-1.904 -1.736,0.139 -1.091,-3.732c0.645,-3.871 0.752,-4.838 0.752,-4.838c0,0 -1.077,-2.477 -0.753,-3.658c0.323,-1.181 0.431,-2.149 0.431,-2.149l-4.543,1.558l2.647,-6.074l0,-0.86c0,0 -6.599,-2.903 -7.566,0.753c-0.968,3.655 -3.216,4.065 -1.232,13.322c1.984,9.258 2.573,10.124 1.311,15.981c-1.262,5.858 -3.843,9.621 -0.832,10.911c3.011,1.291 0.322,2.258 11.72,2.903c11.398,0.646 59.586,-4.119 59.586,-4.119l22.994,-25.343l-3.011,-13.225" style="fill:#b38b66;"/><clipPath id="_clip10"><path d="M88.444,51.911l-4.555,4.581l-1.787,1.225c0,0 0.431,2.914 0,3.823c-0.432,0.908 -2.455,3.88 -2.455,3.88c0,0 -0.557,0.899 -1.633,1.974c-1.075,1.076 -1.873,1.382 -1.873,1.382l-0.688,-0.344l2.561,-6.521l0.646,-1.076l-1.667,-0.537c0,0 -2.419,2.795 -3.172,4.193c-0.753,1.398 -0.901,1.639 -0.901,1.639c0,0 0.147,0.512 -1.035,1.695c-1.182,1.182 -2.522,2.248 -1.96,2.952c0.563,0.703 0.866,1.526 0.866,1.526c0,0 -1.809,1.005 -3.099,0.36c-1.29,-0.645 0.322,-0.968 -1.936,-1.505c-2.258,-0.538 -3.017,-1.061 -5.917,-0.316c-2.9,0.746 -4.082,-6.136 -5.373,0.746c-1.29,6.882 -2.483,7.204 -3.015,8.064c-0.533,0.861 1.737,1.159 -1.656,1.494c-3.393,0.334 -4.684,0.442 -4.684,0.442c0,0 -4.618,2.268 -6.556,1.725c-1.938,-0.542 0.842,-1.188 -2.43,-0.435c-3.272,0.753 -7.808,1.506 -10.217,2.581c-2.409,1.075 -4.448,2.051 -7.461,2.799c-3.013,0.749 -2.275,0.84 -0.785,-0.397c4.038,-3.352 -6.058,-0.789 -4.748,-3.159c1.582,-2.863 2.777,-2.792 2.777,-2.792l-3.037,-4.009l-2.072,0.246c0,0 0.273,1.057 -1.792,-0.386c-2.065,-1.442 -2.731,-1.484 -1.914,-4.151c0.816,-2.667 2.246,-1.225 1.155,-3.129c-1.091,-1.904 -1.736,0.139 -1.091,-3.732c0.645,-3.871 0.752,-4.838 0.752,-4.838c0,0 -1.077,-2.477 -0.753,-3.658c0.323,-1.181 0.431,-2.149 0.431,-2.149l-4.543,1.558l2.647,-6.074l0,-0.86c0,0 -6.599,-2.903 -7.566,0.753c-0.968,3.655 -3.216,4.065 -1.232,13.322c1.984,9.258 2.573,10.124 1.311,15.981c-1.262,5.858 -3.843,9.621 -0.832,10.911c3.011,1.291 0.322,2.258 11.72,2.903c11.398,0.646 59.586,-4.119 59.586,-4.119l22.994,-25.343l-3.011,-13.225"/></clipPath><g clip-path="url(#_clip10)"><path d="M86.396,36.166l18.329,50.033l-68.039,22.174l-11.592,-5.796l28.828,-46.888l32.474,-19.523" style="fill:#c4e783;fill-opacity:0.5;"/></g><path d="M30.202,69.372l-34.27,22.243l-1.49,-52.229l38.658,5.892l-2.898,24.094" style="fill-opacity:0.5;"/></g></g></svg>