<?xml version="1.0" encoding="UTF-8" standalone="no"?><!DOCTYPE svg PUBLIC "-//W3C//DTD SVG 1.1//EN" "http://www.w3.org/Graphics/SVG/1.1/DTD/svg11.dtd"><svg width="100%" height="100%" viewBox="0 0 82 78" version="1.1" xmlns="http://www.w3.org/2000/svg" xmlns:xlink="http://www.w3.org/1999/xlink" xml:space="preserve" xmlns:serif="http://www.serif.com/" style="fill-rule:evenodd;clip-rule:evenodd;stroke-linejoin:round;stroke-miterlimit:1.41421;"><g id="Runestone_4"><g><g><path d="M61.972,1.748l19.823,0.306l-20.434,5.108l-23.436,-6.609l24.047,1.195Z" style="fill:#9da8c9;"/><clipPath id="_clip1"><path d="M61.972,1.748l19.823,0.306l-20.434,5.108l-23.436,-6.609l24.047,1.195Z"/></clipPath><g clip-path="url(#_clip1)"><path d="M37.999,0.59l23.362,4.147l20.434,-2.683l-18.32,6.166l-2.114,2.452l2.952,2.237l-5.594,0.683l-2.467,2.241l-5.108,-3.562l-0.889,5.553l-17.598,-3.367l5.248,17.548l-3.954,9.297l0.943,6.875l6.033,20.288l-2.082,4.068l0.641,5.428l-24.102,-6.942l20.434,3.567l-1.612,-1.807l-23.93,-19.64l24.704,14.651l1.548,-0.258l-26.252,-19.501l25.542,15.028l-5.108,-7.14l-1.407,-6.279l-13.919,-9.272l12.442,3.996l-1.19,-2.552l-13.152,-7.503l1.9,-0.497l13.919,6.967l0.344,-1.118l-13.932,-5.683l14.502,3.589l3.571,-6.401l-33.73,-8.678l32.76,4.055l-2.108,-2.33l-5.109,-1.239l0,-5.23l5.109,-1.514l1.698,1.999l-0.177,1.401l-3.876,-0.07l4.299,3.277l0.669,0.493l-1.109,-3.583l0.15,-1.17l-0.431,-0.907l-1.725,-2.127l-0.595,-2.724l-4.012,-3.102l7.516,1.812l12.133,1.516l0.088,-1.718l-9.52,-6.719l17.295,6.678l0.505,-1.104l3.947,1.145l0.78,-2.657l-20.346,-8.08Z" style="fill:#f6d7d0;fill-opacity:0.9;"/></g><path d="M61.361,68.465l-5.109,-2.554l10.217,-15.326l5.871,4.799l-3.316,6.696l-7.663,6.385Z" style="fill:#6c7157;"/><clipPath id="_clip2"><path d="M61.361,68.465l-5.109,-2.554l10.217,-15.326l5.871,4.799l-3.316,6.696l-7.663,6.385Z"/></clipPath><g clip-path="url(#_clip2)"><path d="M37.999,0.59l23.362,4.147l20.434,-2.683l-18.32,6.166l-2.114,2.452l2.952,2.237l-5.594,0.683l-2.467,2.241l-5.108,-3.562l-0.889,5.553l-17.598,-3.367l5.248,17.548l-3.954,9.297l0.943,6.875l6.033,20.288l-2.082,4.068l0.641,5.428l-24.102,-6.942l20.434,3.567l-1.612,-1.807l-23.93,-19.64l24.704,14.651l1.548,-0.258l-26.252,-19.501l25.542,15.028l-5.108,-7.14l-1.407,-6.279l-13.919,-9.272l12.442,3.996l-1.19,-2.552l-13.152,-7.503l1.9,-0.497l13.919,6.967l0.344,-1.118l-13.932,-5.683l14.502,3.589l3.571,-6.401l-33.73,-8.678l32.76,4.055l-2.108,-2.33l-5.109,-1.239l0,-5.23l5.109,-1.514l1.698,1.999l-0.177,1.401l-3.876,-0.07l4.299,3.277l0.669,0.493l-1.109,-3.583l0.15,-1.17l-0.431,-0.907l-1.725,-2.127l-0.595,-2.724l-4.012,-3.102l7.516,1.812l12.133,1.516l0.088,-1.718l-9.52,-6.719l17.295,6.678l0.505,-1.104l3.947,1.145l0.78,-2.657l-20.346,-8.08Z" style="fill:#f6d7d0;fill-opacity:0.9;"/></g><path d="M76.686,38.427l-7.795,-4.378l-8.181,4.09l10.868,8.417l5.108,-8.129Z" style="fill:#9da8c9;"/><clipPath id="_clip3"><path d="M76.686,38.427l-7.795,-4.378l-8.181,4.09l10.868,8.417l5.108,-8.129Z"/></clipPath><g clip-path="url(#_clip3)"><path d="M37.999,0.59l23.362,4.147l20.434,-2.683l-18.32,6.166l-2.114,2.452l2.952,2.237l-5.594,0.683l-2.467,2.241l-5.108,-3.562l-0.889,5.553l-17.598,-3.367l5.248,17.548l-3.954,9.297l0.943,6.875l6.033,20.288l-2.082,4.068l0.641,5.428l-24.102,-6.942l20.434,3.567l-1.612,-1.807l-23.93,-19.64l24.704,14.651l1.548,-0.258l-26.252,-19.501l25.542,15.028l-5.108,-7.14l-1.407,-6.279l-13.919,-9.272l12.442,3.996l-1.19,-2.552l-13.152,-7.503l1.9,-0.497l13.919,6.967l0.344,-1.118l-13.932,-5.683l14.502,3.589l3.571,-6.401l-33.73,-8.678l32.76,4.055l-2.108,-2.33l-5.109,-1.239l0,-5.23l5.109,-1.514l1.698,1.999l-0.177,1.401l-3.876,-0.07l4.299,3.277l0.669,0.493l-1.109,-3.583l0.15,-1.17l-0.431,-0.907l-1.725,-2.127l-0.595,-2.724l-4.012,-3.102l7.516,1.812l12.133,1.516l0.088,-1.718l-9.52,-6.719l17.295,6.678l0.505,-1.104l3.947,1.145l0.78,-2.657l-20.346,-8.08Z" style="fill:#f6d7d0;fill-opacity:0.9;"/></g><path d="M35.818,4.608l-10.217,5.109l-25.543,12.771l28.07,3.818l6.39,1.254l11.517,-12.735l5.109,-2.554l-15.326,-7.663Z" style="fill:#9da8c9;"/><clipPath id="_clip4"><path d="M35.818,4.608l-10.217,5.109l-25.543,12.771l28.07,3.818l6.39,1.254l11.517,-12.735l5.109,-2.554l-15.326,-7.663Z"/></clipPath><g clip-path="url(#_clip4)"><path d="M37.999,0.59l23.362,4.147l20.434,-2.683l-18.32,6.166l-2.114,2.452l2.952,2.237l-5.594,0.683l-2.467,2.241l-5.108,-3.562l-0.889,5.553l-17.598,-3.367l5.248,17.548l-3.954,9.297l0.943,6.875l6.033,20.288l-2.082,4.068l0.641,5.428l-24.102,-6.942l20.434,3.567l-1.612,-1.807l-23.93,-19.64l24.704,14.651l1.548,-0.258l-26.252,-19.501l25.542,15.028l-5.108,-7.14l-1.407,-6.279l-13.919,-9.272l12.442,3.996l-1.19,-2.552l-13.152,-7.503l1.9,-0.497l13.919,6.967l0.344,-1.118l-13.932,-5.683l14.502,3.589l3.571,-6.401l-33.73,-8.678l32.76,4.055l-2.108,-2.33l-5.109,-1.239l0,-5.23l5.109,-1.514l1.698,1.999l-0.177,1.401l-3.876,-0.07l4.299,3.277l0.669,0.493l-1.109,-3.583l0.15,-1.17l-0.431,-0.907l-1.725,-2.127l-0.595,-2.724l-4.012,-3.102l7.516,1.812l12.133,1.516l0.088,-1.718l-9.52,-6.719l17.295,6.678l0.505,-1.104l3.947,1.145l0.78,-2.657l-20.346,-8.08Z" style="fill:#f6d7d0;fill-opacity:0.9;"/></g><path d="M81.795,2.054l-20.434,5.108l-10.217,5.109l-5.109,2.554l-15.325,-2.554l-8.822,6.915l6.238,7.119l-14.466,7.033l17.05,14.693l5.108,12.771l-5.108,-2.554l5.108,12.771l3.753,6.985l2.172,-2.84l9.401,-1.591l7.325,-3.662l5.18,-7.699l7.929,-6.634l-5.109,7.346l-5.108,5.541l13.112,-6.556l3.926,-10.468l-3.918,-3.41l2.205,-2.555l2.021,-4.098l-2.021,-3.012l-3.514,3.759l-3.025,1.513l-0.411,-3.678l3.173,-4.803l5.941,-2.04l2.945,-5.52l0,-10.217l-4.124,-9.841l4.124,-5.485Z" style="fill:#bac1d8;"/><clipPath id="_clip5"><path d="M81.795,2.054l-20.434,5.108l-10.217,5.109l-5.109,2.554l-15.325,-2.554l-8.822,6.915l6.238,7.119l-14.466,7.033l17.05,14.693l5.108,12.771l-5.108,-2.554l5.108,12.771l3.753,6.985l2.172,-2.84l9.401,-1.591l7.325,-3.662l5.18,-7.699l7.929,-6.634l-5.109,7.346l-5.108,5.541l13.112,-6.556l3.926,-10.468l-3.918,-3.41l2.205,-2.555l2.021,-4.098l-2.021,-3.012l-3.514,3.759l-3.025,1.513l-0.411,-3.678l3.173,-4.803l5.941,-2.04l2.945,-5.52l0,-10.217l-4.124,-9.841l4.124,-5.485Z"/></clipPath><g clip-path="url(#_clip5)"><path d="M37.999,0.59l23.362,4.147l20.434,-2.683l-18.32,6.166l-2.114,2.452l2.952,2.237l-5.594,0.683l-2.467,2.241l-5.108,-3.562l-0.889,5.553l-17.598,-3.367l5.248,17.548l-3.954,9.297l0.943,6.875l6.033,20.288l-2.082,4.068l0.641,5.428l-24.102,-6.942l20.434,3.567l-1.612,-1.807l-23.93,-19.64l24.704,14.651l1.548,-0.258l-26.252,-19.501l25.542,15.028l-5.108,-7.14l-1.407,-6.279l-13.919,-9.272l12.442,3.996l-1.19,-2.552l-13.152,-7.503l1.9,-0.497l13.919,6.967l0.344,-1.118l-13.932,-5.683l14.502,3.589l3.571,-6.401l-33.73,-8.678l32.76,4.055l-2.108,-2.33l-5.109,-1.239l0,-5.23l5.109,-1.514l1.698,1.999l-0.177,1.401l-3.876,-0.07l4.299,3.277l0.669,0.493l-1.109,-3.583l0.15,-1.17l-0.431,-0.907l-1.725,-2.127l-0.595,-2.724l-4.012,-3.102l7.516,1.812l12.133,1.516l0.088,-1.718l-9.52,-6.719l17.295,6.678l0.505,-1.104l3.947,1.145l0.78,-2.657l-20.346,-8.08Z" style="fill:#f6d7d0;fill-opacity:0.9;"/></g><path d="M32.311,18.18l1.208,5.713l-13.026,0.651l1.894,-9.161l6.492,1.081l3.432,1.716Z" style="fill:#9da8c9;"/><clipPath id="_clip6"><path d="M32.311,18.18l1.208,5.713l-13.026,0.651l1.894,-9.161l6.492,1.081l3.432,1.716Z"/></clipPath><g clip-path="url(#_clip6)"><path d="M37.999,0.59l23.362,4.147l20.434,-2.683l-18.32,6.166l-2.114,2.452l2.952,2.237l-5.594,0.683l-2.467,2.241l-5.108,-3.562l-0.889,5.553l-17.598,-3.367l5.248,17.548l-3.954,9.297l0.943,6.875l6.033,20.288l-2.082,4.068l0.641,5.428l-24.102,-6.942l20.434,3.567l-1.612,-1.807l-23.93,-19.64l24.704,14.651l1.548,-0.258l-26.252,-19.501l25.542,15.028l-5.108,-7.14l-1.407,-6.279l-13.919,-9.272l12.442,3.996l-1.19,-2.552l-13.152,-7.503l1.9,-0.497l13.919,6.967l0.344,-1.118l-13.932,-5.683l14.502,3.589l3.571,-6.401l-33.73,-8.678l32.76,4.055l-2.108,-2.33l-5.109,-1.239l0,-5.23l5.109,-1.514l1.698,1.999l-0.177,1.401l-3.876,-0.07l4.299,3.277l0.669,0.493l-1.109,-3.583l0.15,-1.17l-0.431,-0.907l-1.725,-2.127l-0.595,-2.724l-4.012,-3.102l7.516,1.812l12.133,1.516l0.088,-1.718l-9.52,-6.719l17.295,6.678l0.505,-1.104l3.947,1.145l0.78,-2.657l-20.346,-8.08Z" style="fill:#f6d7d0;fill-opacity:0.9;"/></g><path d="M30.71,38.838l0,4.084l-18.262,-6.195l-0.81,-9.812l19.072,11.923Z" style="fill:#6c7157;"/><clipPath id="_clip7"><path d="M30.71,38.838l0,4.084l-18.262,-6.195l-0.81,-9.812l19.072,11.923Z"/></clipPath><g clip-path="url(#_clip7)"><path d="M37.999,0.59l23.362,4.147l20.434,-2.683l-18.32,6.166l-2.114,2.452l2.952,2.237l-5.594,0.683l-2.467,2.241l-5.108,-3.562l-0.889,5.553l-17.598,-3.367l5.248,17.548l-3.954,9.297l0.943,6.875l6.033,20.288l-2.082,4.068l0.641,5.428l-24.102,-6.942l20.434,3.567l-1.612,-1.807l-23.93,-19.64l24.704,14.651l1.548,-0.258l-26.252,-19.501l25.542,15.028l-5.108,-7.14l-1.407,-6.279l-13.919,-9.272l12.442,3.996l-1.19,-2.552l-13.152,-7.503l1.9,-0.497l13.919,6.967l0.344,-1.118l-13.932,-5.683l14.502,3.589l3.571,-6.401l-33.73,-8.678l32.76,4.055l-2.108,-2.33l-5.109,-1.239l0,-5.23l5.109,-1.514l1.698,1.999l-0.177,1.401l-3.876,-0.07l4.299,3.277l0.669,0.493l-1.109,-3.583l0.15,-1.17l-0.431,-0.907l-1.725,-2.127l-0.595,-2.724l-4.012,-3.102l7.516,1.812l12.133,1.516l0.088,-1.718l-9.52,-6.719l17.295,6.678l0.505,-1.104l3.947,1.145l0.78,-2.657l-20.346,-8.08Z" style="fill:#f6d7d0;fill-opacity:0.4;"/></g><path d="M25.601,9.717l5.109,2.554l1.643,5.93l-5.669,0.256l0.752,3.208l6.135,2.254l2.247,6.232l-35.76,-7.663l25.543,-12.771Z" style="fill:#6c7157;"/><clipPath id="_clip8"><path d="M25.601,9.717l5.109,2.554l1.643,5.93l-5.669,0.256l0.752,3.208l6.135,2.254l2.247,6.232l-35.76,-7.663l25.543,-12.771Z"/></clipPath><g clip-path="url(#_clip8)"><path d="M37.999,0.59l23.362,4.147l20.434,-2.683l-18.32,6.166l-2.114,2.452l2.952,2.237l-5.594,0.683l-2.467,2.241l-5.108,-3.562l-0.889,5.553l-17.598,-3.367l5.248,17.548l-3.954,9.297l0.943,6.875l6.033,20.288l-2.082,4.068l0.641,5.428l-24.102,-6.942l20.434,3.567l-1.612,-1.807l-23.93,-19.64l24.704,14.651l1.548,-0.258l-26.252,-19.501l25.542,15.028l-5.108,-7.14l-1.407,-6.279l-13.919,-9.272l12.442,3.996l-1.19,-2.552l-13.152,-7.503l1.9,-0.497l13.919,6.967l0.344,-1.118l-13.932,-5.683l14.502,3.589l3.571,-6.401l-33.73,-8.678l32.76,4.055l-2.108,-2.33l-5.109,-1.239l0,-5.23l5.109,-1.514l1.698,1.999l-0.177,1.401l-3.876,-0.07l4.299,3.277l0.669,0.493l-1.109,-3.583l0.15,-1.17l-0.431,-0.907l-1.725,-2.127l-0.595,-2.724l-4.012,-3.102l7.516,1.812l12.133,1.516l0.088,-1.718l-9.52,-6.719l17.295,6.678l0.505,-1.104l3.947,1.145l0.78,-2.657l-20.346,-8.08Z" style="fill:#f6d7d0;fill-opacity:0.4;"/></g><path d="M0.058,22.488l35.76,7.663l-5.108,8.758l-15.326,-4.866l15.326,8.879l0,5.109l-20.434,-10.217l-5.109,-7.663l-5.109,-7.663Z" style="fill:#574052;"/><clipPath id="_clip9"><path d="M0.058,22.488l35.76,7.663l-5.108,8.758l-15.326,-4.866l15.326,8.879l0,5.109l-20.434,-10.217l-5.109,-7.663l-5.109,-7.663Z"/></clipPath><g clip-path="url(#_clip9)"><path d="M37.999,0.59l23.362,4.147l20.434,-2.683l-18.32,6.166l-2.114,2.452l2.952,2.237l-5.594,0.683l-2.467,2.241l-5.108,-3.562l-0.889,5.553l-17.598,-3.367l5.248,17.548l-3.954,9.297l0.943,6.875l6.033,20.288l-2.082,4.068l0.641,5.428l-24.102,-6.942l20.434,3.567l-1.612,-1.807l-23.93,-19.64l24.704,14.651l1.548,-0.258l-26.252,-19.501l25.542,15.028l-5.108,-7.14l-1.407,-6.279l-13.919,-9.272l12.442,3.996l-1.19,-2.552l-13.152,-7.503l1.9,-0.497l13.919,6.967l0.344,-1.118l-13.932,-5.683l14.502,3.589l3.571,-6.401l-33.73,-8.678l32.76,4.055l-2.108,-2.33l-5.109,-1.239l0,-5.23l5.109,-1.514l1.698,1.999l-0.177,1.401l-3.876,-0.07l4.299,3.277l0.669,0.493l-1.109,-3.583l0.15,-1.17l-0.431,-0.907l-1.725,-2.127l-0.595,-2.724l-4.012,-3.102l7.516,1.812l12.133,1.516l0.088,-1.718l-9.52,-6.719l17.295,6.678l0.505,-1.104l3.947,1.145l0.78,-2.657l-20.346,-8.08Z" style="fill:#f6d7d0;fill-opacity:0.4;"/></g><path d="M39.442,77.94l-24.058,-6.921l-5.108,-17.88l0,-5.108l30.651,20.434l-5.109,2.554l3.624,6.921Z" style="fill:#6c7157;"/><clipPath id="_clip10"><path d="M39.442,77.94l-24.058,-6.921l-5.108,-17.88l0,-5.108l30.651,20.434l-5.109,2.554l3.624,6.921Z"/></clipPath><g clip-path="url(#_clip10)"><path d="M37.999,0.59l23.362,4.147l20.434,-2.683l-18.32,6.166l-2.114,2.452l2.952,2.237l-5.594,0.683l-2.467,2.241l-5.108,-3.562l-0.889,5.553l-17.598,-3.367l5.248,17.548l-3.954,9.297l0.943,6.875l6.033,20.288l-2.082,4.068l0.641,5.428l-24.102,-6.942l20.434,3.567l-1.612,-1.807l-23.93,-19.64l24.704,14.651l1.548,-0.258l-26.252,-19.501l25.542,15.028l-5.108,-7.14l-1.407,-6.279l-13.919,-9.272l12.442,3.996l-1.19,-2.552l-13.152,-7.503l1.9,-0.497l13.919,6.967l0.344,-1.118l-13.932,-5.683l14.502,3.589l3.571,-6.401l-33.73,-8.678l32.76,4.055l-2.108,-2.33l-5.109,-1.239l0,-5.23l5.109,-1.514l1.698,1.999l-0.177,1.401l-3.876,-0.07l4.299,3.277l0.669,0.493l-1.109,-3.583l0.15,-1.17l-0.431,-0.907l-1.725,-2.127l-0.595,-2.724l-4.012,-3.102l7.516,1.812l12.133,1.516l0.088,-1.718l-9.52,-6.719l17.295,6.678l0.505,-1.104l3.947,1.145l0.78,-2.657l-20.346,-8.08Z" style="fill:#f6d7d0;fill-opacity:0.4;"/></g><path d="M10.276,37.814l5.108,2.554l-5.108,7.663l30.651,20.434l-10.217,-20.434l-20.434,-10.217Z" style="fill:#574052;"/><clipPath id="_clip11"><path d="M10.276,37.814l5.108,2.554l-5.108,7.663l30.651,20.434l-10.217,-20.434l-20.434,-10.217Z"/></clipPath><g clip-path="url(#_clip11)"><path d="M37.999,0.59l23.362,4.147l20.434,-2.683l-18.32,6.166l-2.114,2.452l2.952,2.237l-5.594,0.683l-2.467,2.241l-5.108,-3.562l-0.889,5.553l-17.598,-3.367l5.248,17.548l-3.954,9.297l0.943,6.875l6.033,20.288l-2.082,4.068l0.641,5.428l-24.102,-6.942l20.434,3.567l-1.612,-1.807l-23.93,-19.64l24.704,14.651l1.548,-0.258l-26.252,-19.501l25.542,15.028l-5.108,-7.14l-1.407,-6.279l-13.919,-9.272l12.442,3.996l-1.19,-2.552l-13.152,-7.503l1.9,-0.497l13.919,6.967l0.344,-1.118l-13.932,-5.683l14.502,3.589l3.571,-6.401l-33.73,-8.678l32.76,4.055l-2.108,-2.33l-5.109,-1.239l0,-5.23l5.109,-1.514l1.698,1.999l-0.177,1.401l-3.876,-0.07l4.299,3.277l0.669,0.493l-1.109,-3.583l0.15,-1.17l-0.431,-0.907l-1.725,-2.127l-0.595,-2.724l-4.012,-3.102l7.516,1.812l12.133,1.516l0.088,-1.718l-9.52,-6.719l17.295,6.678l0.505,-1.104l3.947,1.145l0.78,-2.657l-20.346,-8.08Z" style="fill:#f6d7d0;fill-opacity:0.4;"/></g><path d="M10.276,53.139l25.542,17.88l3.205,6.711l-23.639,-6.711l-5.108,-17.88Z" style="fill:#574052;"/><clipPath id="_clip12"><path d="M10.276,53.139l25.542,17.88l3.205,6.711l-23.639,-6.711l-5.108,-17.88Z"/></clipPath><g clip-path="url(#_clip12)"><path d="M37.999,0.59l23.362,4.147l20.434,-2.683l-18.32,6.166l-2.114,2.452l2.952,2.237l-5.594,0.683l-2.467,2.241l-5.108,-3.562l-0.889,5.553l-17.598,-3.367l5.248,17.548l-3.954,9.297l0.943,6.875l6.033,20.288l-2.082,4.068l0.641,5.428l-24.102,-6.942l20.434,3.567l-1.612,-1.807l-23.93,-19.64l24.704,14.651l1.548,-0.258l-26.252,-19.501l25.542,15.028l-5.108,-7.14l-1.407,-6.279l-13.919,-9.272l12.442,3.996l-1.19,-2.552l-13.152,-7.503l1.9,-0.497l13.919,6.967l0.344,-1.118l-13.932,-5.683l14.502,3.589l3.571,-6.401l-33.73,-8.678l32.76,4.055l-2.108,-2.33l-5.109,-1.239l0,-5.23l5.109,-1.514l1.698,1.999l-0.177,1.401l-3.876,-0.07l4.299,3.277l0.669,0.493l-1.109,-3.583l0.15,-1.17l-0.431,-0.907l-1.725,-2.127l-0.595,-2.724l-4.012,-3.102l7.516,1.812l12.133,1.516l0.088,-1.718l-9.52,-6.719l17.295,6.678l0.505,-1.104l3.947,1.145l0.78,-2.657l-20.346,-8.08Z" style="fill:#f6d7d0;fill-opacity:0.4;"/></g><path d="M37.947,0.564l-2.129,4.044l20.434,10.217l0,-2.296l5.974,0.175l-3.32,-1.661l2.455,-3.881l-23.414,-6.598Z" style="fill:#6c7157;"/><clipPath id="_clip13"><path d="M37.947,0.564l-2.129,4.044l20.434,10.217l0,-2.296l5.974,0.175l-3.32,-1.661l2.455,-3.881l-23.414,-6.598Z"/></clipPath><g clip-path="url(#_clip13)"><path d="M37.999,0.59l23.362,4.147l20.434,-2.683l-18.32,6.166l-2.114,2.452l2.952,2.237l-5.594,0.683l-2.467,2.241l-5.108,-3.562l-0.889,5.553l-17.598,-3.367l5.248,17.548l-3.954,9.297l0.943,6.875l6.033,20.288l-2.082,4.068l0.641,5.428l-24.102,-6.942l20.434,3.567l-1.612,-1.807l-23.93,-19.64l24.704,14.651l1.548,-0.258l-26.252,-19.501l25.542,15.028l-5.108,-7.14l-1.407,-6.279l-13.919,-9.272l12.442,3.996l-1.19,-2.552l-13.152,-7.503l1.9,-0.497l13.919,6.967l0.344,-1.118l-13.932,-5.683l14.502,3.589l3.571,-6.401l-33.73,-8.678l32.76,4.055l-2.108,-2.33l-5.109,-1.239l0,-5.23l5.109,-1.514l1.698,1.999l-0.177,1.401l-3.876,-0.07l4.299,3.277l0.669,0.493l-1.109,-3.583l0.15,-1.17l-0.431,-0.907l-1.725,-2.127l-0.595,-2.724l-4.012,-3.102l7.516,1.812l12.133,1.516l0.088,-1.718l-9.52,-6.719l17.295,6.678l0.505,-1.104l3.947,1.145l0.78,-2.657l-20.346,-8.08Z" style="fill:#f6d7d0;fill-opacity:0.9;"/></g></g></g></g></svg>