<?xml version="1.0" encoding="UTF-8" standalone="no"?><!DOCTYPE svg PUBLIC "-//W3C//DTD SVG 1.1//EN" "http://www.w3.org/Graphics/SVG/1.1/DTD/svg11.dtd"><svg width="100%" height="100%" viewBox="0 0 72 98" version="1.1" xmlns="http://www.w3.org/2000/svg" xmlns:xlink="http://www.w3.org/1999/xlink" xml:space="preserve" xmlns:serif="http://www.serif.com/" style="fill-rule:evenodd;clip-rule:evenodd;stroke-linejoin:round;stroke-miterlimit:1.41421;"><g id="Runestone_1"><g><g><g><path d="M51.57,0.728l20.434,10.217l-20.434,10.217l-20.434,-10.217l20.434,-10.217Z" style="fill:#9da8c9;"/><clipPath id="_clip1"><path d="M51.57,0.728l20.434,10.217l-20.434,10.217l-20.434,-10.217l20.434,-10.217Z"/></clipPath><g clip-path="url(#_clip1)"><path d="M72.004,10.945l-20.434,7.207l-20.434,-7.207l16.528,11.038l-2.016,4.234l-4.295,0.054l-20.434,-10.217l15.326,9.86l-14.488,7.762l-21.272,-7.405l18.954,12.849l-0.446,18.765l-18.508,-6.071l5.108,2.554l15.326,10.054l2.854,-2.621l-2.854,7.762l-20.434,-7.532l18.752,12.069l1.682,23.69l1.936,-24.574l4.713,-14.51l-4.299,0.676l0.404,-5.141l-1.311,-16.129l18.225,-7.115l8.697,-0.761l5.175,-7.629l17.545,-11.662Z" style="fill:#f6d7d0;fill-opacity:0.9;"/></g><path d="M20.919,16.054l-20.434,10.217l20.434,10.217l20.434,-10.217l-20.434,-10.217" style="fill:#9da8c9;"/><clipPath id="_clip2"><path d="M20.919,16.054l-20.434,10.217l20.434,10.217l20.434,-10.217l-20.434,-10.217"/></clipPath><g clip-path="url(#_clip2)"><path d="M72.004,10.945l-20.434,7.207l-20.434,-7.207l16.528,11.038l-2.016,4.234l-4.295,0.054l-20.434,-10.217l15.326,9.86l-14.488,7.762l-21.272,-7.405l18.954,12.849l-0.446,18.765l-18.508,-6.071l5.108,2.554l15.326,10.054l2.854,-2.621l-2.854,7.762l-20.434,-7.532l18.752,12.069l1.682,23.69l1.936,-24.574l4.713,-14.51l-4.299,0.676l0.404,-5.141l-1.311,-16.129l18.225,-7.115l8.697,-0.761l5.175,-7.629l17.545,-11.662Z" style="fill:#f6d7d0;fill-opacity:0.9;"/></g><path d="M31.136,10.945l-5.109,7.663l20.435,10.217l5.108,-7.663l-20.434,-10.217Z" style="fill:#6c7157;"/><clipPath id="_clip3"><path d="M31.136,10.945l-5.109,7.663l20.435,10.217l5.108,-7.663l-20.434,-10.217Z"/></clipPath><g clip-path="url(#_clip3)"><path d="M74.635,69.598l-10.719,-7.911l-2.055,-16.353l-2.977,16.814l10.72,12.6l-15.707,10.328l-3.668,-13.492l1.415,-10.925l-5.109,4.654l0,13.226l-13.317,3.559l10.939,2.739l-11.143,12.484l-6.913,-10.649l-5.108,-3.656l-18.08,9.472l15.264,0.231l12.413,0.867l-4.489,7.709l-30.651,0.962l-2.387,-27.633l7.496,6.469l6.793,1.713l3.424,-1.713l-7.428,-3.714l-4.457,-12.445l-0.848,-23.451l12.733,8.959l1.983,4.117l1.42,-5.818l-3.403,-3.407l-11.817,-14.526l4.26,-17.456l17.774,16.656l-5.109,-17.88l11.545,-5.772l8.889,-4.445l7.848,9.033l4.367,5.294l3.111,-1.555l5.109,-4.978l-5.109,-3.079l0,2.948l-5.109,-2.554l2.564,-3.827l12.762,4.011l7.677,1.1l7.649,10.829l-1.661,12.599l1.661,31.482l7.734,-67.653l-72.439,-2.166l-40.256,53.098l18.116,65.252l76.628,-0.637l7.665,-41.51" style="fill:#135c2e;fill-opacity:0.7;"/><path d="M72.004,10.945l-20.434,7.207l-20.434,-7.207l16.528,11.038l-2.016,4.234l-4.295,0.054l-20.434,-10.217l15.326,9.86l-14.488,7.762l-21.272,-7.405l18.954,12.849l-0.446,18.765l-18.508,-6.071l5.108,2.554l15.326,10.054l2.854,-2.621l-2.854,7.762l-20.434,-7.532l18.752,12.069l1.682,23.69l1.936,-24.574l4.713,-14.51l-4.299,0.676l0.404,-5.141l-1.311,-16.129l18.225,-7.115l8.697,-0.761l5.175,-7.629l17.545,-11.662Z" style="fill:#f6d7d0;fill-opacity:0.9;"/></g><path d="M72.004,10.945l-20.434,10.217l-5.108,7.663l-5.109,-2.554l-20.434,10.217l0,25.543l5.108,-2.555l-5.108,12.772l0,25.542l20.434,-10.217l0,-5.108l5.109,-2.554l5.108,2.554l20.434,-10.217l0,-30.651l-5.108,2.554l5.108,-12.771l0,-20.435" style="fill:#bac1d8;"/><clipPath id="_clip4"><path d="M72.004,10.945l-20.434,10.217l-5.108,7.663l-5.109,-2.554l-20.434,10.217l0,25.543l5.108,-2.555l-5.108,12.772l0,25.542l20.434,-10.217l0,-5.108l5.109,-2.554l5.108,2.554l20.434,-10.217l0,-30.651l-5.108,2.554l5.108,-12.771l0,-20.435"/></clipPath><g clip-path="url(#_clip4)"><path d="M72.004,10.945l-20.434,7.207l-20.434,-7.207l16.528,11.038l-2.016,4.234l-4.295,0.054l-20.434,-10.217l15.326,9.86l-14.488,7.762l-21.272,-7.405l18.954,12.849l-0.446,18.765l-18.508,-6.071l5.108,2.554l15.326,10.054l2.854,-2.621l-2.854,7.762l-20.434,-7.532l18.752,12.069l1.682,23.69l1.936,-24.574l4.713,-14.51l-4.299,0.676l0.404,-5.141l-1.311,-16.129l18.225,-7.115l8.697,-0.761l5.175,-7.629l17.545,-11.662Z" style="fill:#f6d7d0;fill-opacity:0.9;"/></g><path d="M0.485,26.271l20.434,10.217l0,25.543l-20.434,-10.217l0,-25.543Z" style="fill:#6c7157;"/><clipPath id="_clip5"><path d="M0.485,26.271l20.434,10.217l0,25.543l-20.434,-10.217l0,-25.543Z"/></clipPath><g clip-path="url(#_clip5)"><path d="M72.004,10.945l-20.434,7.207l-20.434,-7.207l16.528,11.038l-2.016,4.234l-4.295,0.054l-20.434,-10.217l15.326,9.86l-14.488,7.762l-21.272,-7.405l18.954,12.849l-0.446,18.765l-18.508,-6.071l5.108,2.554l15.326,10.054l2.854,-2.621l-2.854,7.762l-20.434,-7.532l18.752,12.069l1.682,23.69l1.936,-24.574l4.713,-14.51l-4.299,0.676l0.404,-5.141l-1.311,-16.129l18.225,-7.115l8.697,-0.761l5.175,-7.629l17.545,-11.662Z" style="fill:#f6d7d0;fill-opacity:0.4;"/></g><path d="M20.919,97.79l-20.434,-10.217l0,-25.542l20.434,10.217l0,25.542" style="fill:#6c7157;"/><clipPath id="_clip6"><path d="M20.919,97.79l-20.434,-10.217l0,-25.542l20.434,10.217l0,25.542"/></clipPath><g clip-path="url(#_clip6)"><path d="M72.004,10.945l-20.434,7.207l-20.434,-7.207l16.528,11.038l-2.016,4.234l-4.295,0.054l-20.434,-10.217l15.326,9.86l-14.488,7.762l-21.272,-7.405l18.954,12.849l-0.446,18.765l-18.508,-6.071l5.108,2.554l15.326,10.054l2.854,-2.621l-2.854,7.762l-20.434,-7.532l18.752,12.069l1.682,23.69l1.936,-24.574l4.713,-14.51l-4.299,0.676l0.404,-5.141l-1.311,-16.129l18.225,-7.115l8.697,-0.761l5.175,-7.629l17.545,-11.662Z" style="fill:#f6d7d0;fill-opacity:0.4;"/></g><path d="M0.485,51.814l5.108,2.554l-5.108,7.663l20.434,10.217l5.108,-12.772l-5.108,2.555l-20.434,-10.217Z" style="fill:#574052;"/><clipPath id="_clip7"><path d="M0.485,51.814l5.108,2.554l-5.108,7.663l20.434,10.217l5.108,-12.772l-5.108,2.555l-20.434,-10.217Z"/></clipPath><g clip-path="url(#_clip7)"><path d="M72.004,10.945l-20.434,7.207l-20.434,-7.207l16.528,11.038l-2.016,4.234l-4.295,0.054l-20.434,-10.217l15.326,9.86l-14.488,7.762l-21.272,-7.405l18.954,12.849l-0.446,18.765l-18.508,-6.071l5.108,2.554l15.326,10.054l2.854,-2.621l-2.854,7.762l-20.434,-7.532l18.752,12.069l1.682,23.69l1.936,-24.574l4.713,-14.51l-4.299,0.676l0.404,-5.141l-1.311,-16.129l18.225,-7.115l8.697,-0.761l5.175,-7.629l17.545,-11.662Z" style="fill:#f6d7d0;fill-opacity:0.4;"/></g></g></g></g></g></svg>