<?xml version="1.0" encoding="UTF-8" standalone="no"?><!DOCTYPE svg PUBLIC "-//W3C//DTD SVG 1.1//EN" "http://www.w3.org/Graphics/SVG/1.1/DTD/svg11.dtd"><svg width="100%" height="100%" viewBox="0 0 83 79" version="1.1" xmlns="http://www.w3.org/2000/svg" xmlns:xlink="http://www.w3.org/1999/xlink" xml:space="preserve" xmlns:serif="http://www.serif.com/" style="fill-rule:evenodd;clip-rule:evenodd;stroke-linejoin:round;stroke-miterlimit:1.41421;"><g id="X_Runestone_runes_4"><g><g><path d="M62.732,1.891l19.823,0.306l-20.434,5.108l-23.436,-6.609l24.047,1.195Z" style="fill:#9da8c9;"/><clipPath id="_clip1"><path d="M62.732,1.891l19.823,0.306l-20.434,5.108l-23.436,-6.609l24.047,1.195Z"/></clipPath><g clip-path="url(#_clip1)"><path d="M38.759,0.733l23.362,4.146l20.434,-2.682l-18.32,6.165l-2.114,2.453l2.952,2.236l-5.594,0.683l-2.467,2.242l-5.108,-3.562l-0.889,5.553l-17.598,-3.367l5.248,17.548l-3.954,9.296l0.943,6.876l6.033,20.287l-2.082,4.068l0.64,5.429l-24.101,-6.942l20.434,3.566l-1.612,-1.806l-23.931,-19.64l24.705,14.651l1.548,-0.258l-26.253,-19.502l25.543,15.028l-5.109,-7.139l-1.407,-6.28l-13.918,-9.271l12.442,3.996l-1.19,-2.553l-13.152,-7.502l1.9,-0.498l13.918,6.968l0.344,-1.118l-13.931,-5.684l14.502,3.59l3.57,-6.401l-33.729,-8.678l32.76,4.054l-2.109,-2.33l-5.108,-1.239l0,-5.23l5.108,-1.514l1.699,1.999l-0.177,1.402l-3.876,-0.07l4.299,3.276l0.669,0.494l-1.11,-3.584l0.151,-1.17l-0.431,-0.907l-1.725,-2.127l-0.595,-2.723l-4.012,-3.103l7.516,1.812l12.133,1.516l0.088,-1.717l-9.52,-6.719l17.295,6.678l0.505,-1.104l3.947,1.145l0.78,-2.657l-20.346,-8.08Z" style="fill:#f6d7d0;fill-opacity:0.9;"/></g><path d="M62.121,68.607l-5.109,-2.554l10.217,-15.325l5.871,4.799l-3.316,6.695l-7.663,6.385Z" style="fill:#6c7157;"/><clipPath id="_clip2"><path d="M62.121,68.607l-5.109,-2.554l10.217,-15.325l5.871,4.799l-3.316,6.695l-7.663,6.385Z"/></clipPath><g clip-path="url(#_clip2)"><path d="M38.759,0.733l23.362,4.146l20.434,-2.682l-18.32,6.165l-2.114,2.453l2.952,2.236l-5.594,0.683l-2.467,2.242l-5.108,-3.562l-0.889,5.553l-17.598,-3.367l5.248,17.548l-3.954,9.296l0.943,6.876l6.033,20.287l-2.082,4.068l0.64,5.429l-24.101,-6.942l20.434,3.566l-1.612,-1.806l-23.931,-19.64l24.705,14.651l1.548,-0.258l-26.253,-19.502l25.543,15.028l-5.109,-7.139l-1.407,-6.28l-13.918,-9.271l12.442,3.996l-1.19,-2.553l-13.152,-7.502l1.9,-0.498l13.918,6.968l0.344,-1.118l-13.931,-5.684l14.502,3.59l3.57,-6.401l-33.729,-8.678l32.76,4.054l-2.109,-2.33l-5.108,-1.239l0,-5.23l5.108,-1.514l1.699,1.999l-0.177,1.402l-3.876,-0.07l4.299,3.276l0.669,0.494l-1.11,-3.584l0.151,-1.17l-0.431,-0.907l-1.725,-2.127l-0.595,-2.723l-4.012,-3.103l7.516,1.812l12.133,1.516l0.088,-1.717l-9.52,-6.719l17.295,6.678l0.505,-1.104l3.947,1.145l0.78,-2.657l-20.346,-8.08Z" style="fill:#f6d7d0;fill-opacity:0.9;"/></g><path d="M77.446,38.57l-7.795,-4.379l-8.181,4.09l10.868,8.418l5.108,-8.129Z" style="fill:#9da8c9;"/><clipPath id="_clip3"><path d="M77.446,38.57l-7.795,-4.379l-8.181,4.09l10.868,8.418l5.108,-8.129Z"/></clipPath><g clip-path="url(#_clip3)"><path d="M38.759,0.733l23.362,4.146l20.434,-2.682l-18.32,6.165l-2.114,2.453l2.952,2.236l-5.594,0.683l-2.467,2.242l-5.108,-3.562l-0.889,5.553l-17.598,-3.367l5.248,17.548l-3.954,9.296l0.943,6.876l6.033,20.287l-2.082,4.068l0.64,5.429l-24.101,-6.942l20.434,3.566l-1.612,-1.806l-23.931,-19.64l24.705,14.651l1.548,-0.258l-26.253,-19.502l25.543,15.028l-5.109,-7.139l-1.407,-6.28l-13.918,-9.271l12.442,3.996l-1.19,-2.553l-13.152,-7.502l1.9,-0.498l13.918,6.968l0.344,-1.118l-13.931,-5.684l14.502,3.59l3.57,-6.401l-33.729,-8.678l32.76,4.054l-2.109,-2.33l-5.108,-1.239l0,-5.23l5.108,-1.514l1.699,1.999l-0.177,1.402l-3.876,-0.07l4.299,3.276l0.669,0.494l-1.11,-3.584l0.151,-1.17l-0.431,-0.907l-1.725,-2.127l-0.595,-2.723l-4.012,-3.103l7.516,1.812l12.133,1.516l0.088,-1.717l-9.52,-6.719l17.295,6.678l0.505,-1.104l3.947,1.145l0.78,-2.657l-20.346,-8.08Z" style="fill:#f6d7d0;fill-opacity:0.9;"/></g><path d="M36.578,4.751l-10.217,5.108l-25.543,12.772l28.07,3.817l6.39,1.254l11.517,-12.734l5.109,-2.554l-15.326,-7.663Z" style="fill:#9da8c9;"/><clipPath id="_clip4"><path d="M36.578,4.751l-10.217,5.108l-25.543,12.772l28.07,3.817l6.39,1.254l11.517,-12.734l5.109,-2.554l-15.326,-7.663Z"/></clipPath><g clip-path="url(#_clip4)"><path d="M60.815,76.763l-1.96,-9.995l5.98,-11.069l7.577,-3.789l-6.123,-2.047l-2.104,3.043l-0.404,-14.339l13.739,-12.438l-5.108,2.956l-5.109,2.34l-13.167,16.456l2.95,6.584l1.444,4.386l-1.444,7.793l-11.562,8.927l-13.981,3.142l-20.434,-3.325l20.434,-3.043l-10.217,-1.637l0,-6.157l-2.863,2.709l-7.354,-9.236l-3.729,-15.762l17.401,11.376l4.122,4.701l-0.319,-4.949l-2.149,-4.034l-13.6,-6.799l-4.271,-4.7l5.058,-5.124l11.418,1.995l-2.774,-2.782l-6.048,-1.383l-5.109,-3.079l0,1.847l-6.385,0.23l-7.387,-6.524l12.022,-7.762l10.29,6.823l0.045,-3.481l4.17,-1.197l-6.632,-7.177l14.311,-0.985l10.217,3.448l0,2.094l-2.754,7.836l-2.354,22.704l1.723,4.878l1.082,-9.676l2.303,-14.174l13.722,-6.861l-8.613,-4.461l-13.524,-10.013l8.415,-9.316l19.412,4.597l29.873,-0.389l-25.294,11.673l-1.724,6.773l3.276,0.334l0,-5.109l15.326,-5.2l19.255,-12.09l-80.558,-4.781l-32.158,44.306l19.562,50.649l52.085,-9.717" style="fill:#135c2e;fill-opacity:0.7;"/><path d="M38.759,0.733l23.362,4.146l20.434,-2.682l-18.32,6.165l-2.114,2.453l2.952,2.236l-5.594,0.683l-2.467,2.242l-5.108,-3.562l-0.889,5.553l-17.598,-3.367l5.248,17.548l-3.954,9.296l0.943,6.876l6.033,20.287l-2.082,4.068l0.64,5.429l-24.101,-6.942l20.434,3.566l-1.612,-1.806l-23.931,-19.64l24.705,14.651l1.548,-0.258l-26.253,-19.502l25.543,15.028l-5.109,-7.139l-1.407,-6.28l-13.918,-9.271l12.442,3.996l-1.19,-2.553l-13.152,-7.502l1.9,-0.498l13.918,6.968l0.344,-1.118l-13.931,-5.684l14.502,3.59l3.57,-6.401l-33.729,-8.678l32.76,4.054l-2.109,-2.33l-5.108,-1.239l0,-5.23l5.108,-1.514l1.699,1.999l-0.177,1.402l-3.876,-0.07l4.299,3.276l0.669,0.494l-1.11,-3.584l0.151,-1.17l-0.431,-0.907l-1.725,-2.127l-0.595,-2.723l-4.012,-3.103l7.516,1.812l12.133,1.516l0.088,-1.717l-9.52,-6.719l17.295,6.678l0.505,-1.104l3.947,1.145l0.78,-2.657l-20.346,-8.08Z" style="fill:#f6d7d0;fill-opacity:0.9;"/></g><path d="M82.555,2.197l-20.434,5.108l-10.217,5.109l-5.109,2.554l-15.326,-2.554l-8.821,6.915l6.238,7.118l-14.466,7.034l17.049,14.692l5.109,12.772l-5.109,-2.555l5.109,12.772l3.753,6.985l2.172,-2.841l9.401,-1.59l7.325,-3.663l5.18,-7.698l7.929,-6.634l-5.109,7.345l-5.108,5.541l13.112,-6.556l3.926,-10.467l-3.918,-3.411l2.205,-2.554l2.021,-4.098l-2.021,-3.013l-3.515,3.76l-3.024,1.512l-0.412,-3.678l3.174,-4.802l5.941,-2.041l2.945,-5.52l0,-10.217l-4.124,-9.84l4.124,-5.485Z" style="fill:#bac1d8;"/><clipPath id="_clip5"><path d="M82.555,2.197l-20.434,5.108l-10.217,5.109l-5.109,2.554l-15.326,-2.554l-8.821,6.915l6.238,7.118l-14.466,7.034l17.049,14.692l5.109,12.772l-5.109,-2.555l5.109,12.772l3.753,6.985l2.172,-2.841l9.401,-1.59l7.325,-3.663l5.18,-7.698l7.929,-6.634l-5.109,7.345l-5.108,5.541l13.112,-6.556l3.926,-10.467l-3.918,-3.411l2.205,-2.554l2.021,-4.098l-2.021,-3.013l-3.515,3.76l-3.024,1.512l-0.412,-3.678l3.174,-4.802l5.941,-2.041l2.945,-5.52l0,-10.217l-4.124,-9.84l4.124,-5.485Z"/></clipPath><g clip-path="url(#_clip5)"><path d="M60.815,76.763l-1.96,-9.995l5.98,-11.069l7.577,-3.789l-6.123,-2.047l-2.104,3.043l-0.404,-14.339l13.739,-12.438l-5.108,2.956l-5.109,2.34l-13.167,16.456l2.95,6.584l1.444,4.386l-1.444,7.793l-11.562,8.927l-13.981,3.142l-20.434,-3.325l20.434,-3.043l-10.217,-1.637l0,-6.157l-2.863,2.709l-7.354,-9.236l-3.729,-15.762l17.401,11.376l4.122,4.701l-0.319,-4.949l-2.149,-4.034l-13.6,-6.799l-4.271,-4.7l5.058,-5.124l11.418,1.995l-2.774,-2.782l-6.048,-1.383l-5.109,-3.079l0,1.847l-6.385,0.23l-7.387,-6.524l12.022,-7.762l10.29,6.823l0.045,-3.481l4.17,-1.197l-6.632,-7.177l14.311,-0.985l10.217,3.448l0,2.094l-2.754,7.836l-2.354,22.704l1.723,4.878l1.082,-9.676l2.303,-14.174l13.722,-6.861l-8.613,-4.461l-13.524,-10.013l8.415,-9.316l19.412,4.597l29.873,-0.389l-25.294,11.673l-1.724,6.773l3.276,0.334l0,-5.109l15.326,-5.2l19.255,-12.09l-80.558,-4.781l-32.158,44.306l19.562,50.649l52.085,-9.717" style="fill:#135c2e;fill-opacity:0.7;"/><path d="M38.759,0.733l23.362,4.146l20.434,-2.682l-18.32,6.165l-2.114,2.453l2.952,2.236l-5.594,0.683l-2.467,2.242l-5.108,-3.562l-0.889,5.553l-17.598,-3.367l5.248,17.548l-3.954,9.296l0.943,6.876l6.033,20.287l-2.082,4.068l0.64,5.429l-24.101,-6.942l20.434,3.566l-1.612,-1.806l-23.931,-19.64l24.705,14.651l1.548,-0.258l-26.253,-19.502l25.543,15.028l-5.109,-7.139l-1.407,-6.28l-13.918,-9.271l12.442,3.996l-1.19,-2.553l-13.152,-7.502l1.9,-0.498l13.918,6.968l0.344,-1.118l-13.931,-5.684l14.502,3.59l3.57,-6.401l-33.729,-8.678l32.76,4.054l-2.109,-2.33l-5.108,-1.239l0,-5.23l5.108,-1.514l1.699,1.999l-0.177,1.402l-3.876,-0.07l4.299,3.276l0.669,0.494l-1.11,-3.584l0.151,-1.17l-0.431,-0.907l-1.725,-2.127l-0.595,-2.723l-4.012,-3.103l7.516,1.812l12.133,1.516l0.088,-1.717l-9.52,-6.719l17.295,6.678l0.505,-1.104l3.947,1.145l0.78,-2.657l-20.346,-8.08Z" style="fill:#f6d7d0;fill-opacity:0.9;"/></g><path d="M33.071,18.323l1.208,5.712l-13.027,0.652l1.895,-9.162l6.491,1.082l3.433,1.716Z" style="fill:#9da8c9;"/><clipPath id="_clip6"><path d="M33.071,18.323l1.208,5.712l-13.027,0.652l1.895,-9.162l6.491,1.082l3.433,1.716Z"/></clipPath><g clip-path="url(#_clip6)"><path d="M38.759,0.733l23.362,4.146l20.434,-2.682l-18.32,6.165l-2.114,2.453l2.952,2.236l-5.594,0.683l-2.467,2.242l-5.108,-3.562l-0.889,5.553l-17.598,-3.367l5.248,17.548l-3.954,9.296l0.943,6.876l6.033,20.287l-2.082,4.068l0.64,5.429l-24.101,-6.942l20.434,3.566l-1.612,-1.806l-23.931,-19.64l24.705,14.651l1.548,-0.258l-26.253,-19.502l25.543,15.028l-5.109,-7.139l-1.407,-6.28l-13.918,-9.271l12.442,3.996l-1.19,-2.553l-13.152,-7.502l1.9,-0.498l13.918,6.968l0.344,-1.118l-13.931,-5.684l14.502,3.59l3.57,-6.401l-33.729,-8.678l32.76,4.054l-2.109,-2.33l-5.108,-1.239l0,-5.23l5.108,-1.514l1.699,1.999l-0.177,1.402l-3.876,-0.07l4.299,3.276l0.669,0.494l-1.11,-3.584l0.151,-1.17l-0.431,-0.907l-1.725,-2.127l-0.595,-2.723l-4.012,-3.103l7.516,1.812l12.133,1.516l0.088,-1.717l-9.52,-6.719l17.295,6.678l0.505,-1.104l3.947,1.145l0.78,-2.657l-20.346,-8.08Z" style="fill:#f6d7d0;fill-opacity:0.9;"/></g><path d="M31.469,38.98l0,4.085l-18.261,-6.195l-0.81,-9.812l19.071,11.922Z" style="fill:#6c7157;"/><clipPath id="_clip7"><path d="M31.469,38.98l0,4.085l-18.261,-6.195l-0.81,-9.812l19.071,11.922Z"/></clipPath><g clip-path="url(#_clip7)"><path d="M38.759,0.733l23.362,4.146l20.434,-2.682l-18.32,6.165l-2.114,2.453l2.952,2.236l-5.594,0.683l-2.467,2.242l-5.108,-3.562l-0.889,5.553l-17.598,-3.367l5.248,17.548l-3.954,9.296l0.943,6.876l6.033,20.287l-2.082,4.068l0.64,5.429l-24.101,-6.942l20.434,3.566l-1.612,-1.806l-23.931,-19.64l24.705,14.651l1.548,-0.258l-26.253,-19.502l25.543,15.028l-5.109,-7.139l-1.407,-6.28l-13.918,-9.271l12.442,3.996l-1.19,-2.553l-13.152,-7.502l1.9,-0.498l13.918,6.968l0.344,-1.118l-13.931,-5.684l14.502,3.59l3.57,-6.401l-33.729,-8.678l32.76,4.054l-2.109,-2.33l-5.108,-1.239l0,-5.23l5.108,-1.514l1.699,1.999l-0.177,1.402l-3.876,-0.07l4.299,3.276l0.669,0.494l-1.11,-3.584l0.151,-1.17l-0.431,-0.907l-1.725,-2.127l-0.595,-2.723l-4.012,-3.103l7.516,1.812l12.133,1.516l0.088,-1.717l-9.52,-6.719l17.295,6.678l0.505,-1.104l3.947,1.145l0.78,-2.657l-20.346,-8.08Z" style="fill:#f6d7d0;fill-opacity:0.4;"/></g><path d="M26.361,9.859l5.108,2.555l1.644,5.93l-5.669,0.256l0.752,3.207l6.135,2.255l2.247,6.231l-35.76,-7.662l25.543,-12.772Z" style="fill:#6c7157;"/><clipPath id="_clip8"><path d="M26.361,9.859l5.108,2.555l1.644,5.93l-5.669,0.256l0.752,3.207l6.135,2.255l2.247,6.231l-35.76,-7.662l25.543,-12.772Z"/></clipPath><g clip-path="url(#_clip8)"><path d="M60.815,76.763l-1.96,-9.995l5.98,-11.069l7.577,-3.789l-6.123,-2.047l-2.104,3.043l-0.404,-14.339l13.739,-12.438l-5.108,2.956l-5.109,2.34l-13.167,16.456l2.95,6.584l1.444,4.386l-1.444,7.793l-11.562,8.927l-13.981,3.142l-20.434,-3.325l20.434,-3.043l-10.217,-1.637l0,-6.157l-2.863,2.709l-7.354,-9.236l-3.729,-15.762l17.401,11.376l4.122,4.701l-0.319,-4.949l-2.149,-4.034l-13.6,-6.799l-4.271,-4.7l5.058,-5.124l11.418,1.995l-2.774,-2.782l-6.048,-1.383l-5.109,-3.079l0,1.847l-6.385,0.23l-7.387,-6.524l12.022,-7.762l10.29,6.823l0.045,-3.481l4.17,-1.197l-6.632,-7.177l14.311,-0.985l10.217,3.448l0,2.094l-2.754,7.836l-2.354,22.704l1.723,4.878l1.082,-9.676l2.303,-14.174l13.722,-6.861l-8.613,-4.461l-13.524,-10.013l8.415,-9.316l19.412,4.597l29.873,-0.389l-25.294,11.673l-1.724,6.773l3.276,0.334l0,-5.109l15.326,-5.2l19.255,-12.09l-80.558,-4.781l-32.158,44.306l19.562,50.649l52.085,-9.717" style="fill:#135c2e;fill-opacity:0.7;"/><path d="M38.759,0.733l23.362,4.146l20.434,-2.682l-18.32,6.165l-2.114,2.453l2.952,2.236l-5.594,0.683l-2.467,2.242l-5.108,-3.562l-0.889,5.553l-17.598,-3.367l5.248,17.548l-3.954,9.296l0.943,6.876l6.033,20.287l-2.082,4.068l0.64,5.429l-24.101,-6.942l20.434,3.566l-1.612,-1.806l-23.931,-19.64l24.705,14.651l1.548,-0.258l-26.253,-19.502l25.543,15.028l-5.109,-7.139l-1.407,-6.28l-13.918,-9.271l12.442,3.996l-1.19,-2.553l-13.152,-7.502l1.9,-0.498l13.918,6.968l0.344,-1.118l-13.931,-5.684l14.502,3.59l3.57,-6.401l-33.729,-8.678l32.76,4.054l-2.109,-2.33l-5.108,-1.239l0,-5.23l5.108,-1.514l1.699,1.999l-0.177,1.402l-3.876,-0.07l4.299,3.276l0.669,0.494l-1.11,-3.584l0.151,-1.17l-0.431,-0.907l-1.725,-2.127l-0.595,-2.723l-4.012,-3.103l7.516,1.812l12.133,1.516l0.088,-1.717l-9.52,-6.719l17.295,6.678l0.505,-1.104l3.947,1.145l0.78,-2.657l-20.346,-8.08Z" style="fill:#f6d7d0;fill-opacity:0.4;"/></g><path d="M0.818,22.631l35.76,7.662l-5.109,8.758l-15.325,-4.866l15.325,8.88l0,5.108l-20.434,-10.217l-5.108,-7.663l-5.109,-7.662Z" style="fill:#574052;"/><clipPath id="_clip9"><path d="M0.818,22.631l35.76,7.662l-5.109,8.758l-15.325,-4.866l15.325,8.88l0,5.108l-20.434,-10.217l-5.108,-7.663l-5.109,-7.662Z"/></clipPath><g clip-path="url(#_clip9)"><path d="M60.815,76.763l-1.96,-9.995l5.98,-11.069l7.577,-3.789l-6.123,-2.047l-2.104,3.043l-0.404,-14.339l13.739,-12.438l-5.108,2.956l-5.109,2.34l-13.167,16.456l2.95,6.584l1.444,4.386l-1.444,7.793l-11.562,8.927l-13.981,3.142l-20.434,-3.325l20.434,-3.043l-10.217,-1.637l0,-6.157l-2.863,2.709l-7.354,-9.236l-3.729,-15.762l17.401,11.376l4.122,4.701l-0.319,-4.949l-2.149,-4.034l-13.6,-6.799l-4.271,-4.7l5.058,-5.124l11.418,1.995l-2.774,-2.782l-6.048,-1.383l-5.109,-3.079l0,1.847l-6.385,0.23l-7.387,-6.524l12.022,-7.762l10.29,6.823l0.045,-3.481l4.17,-1.197l-6.632,-7.177l14.311,-0.985l10.217,3.448l0,2.094l-2.754,7.836l-2.354,22.704l1.723,4.878l1.082,-9.676l2.303,-14.174l13.722,-6.861l-8.613,-4.461l-13.524,-10.013l8.415,-9.316l19.412,4.597l29.873,-0.389l-25.294,11.673l-1.724,6.773l3.276,0.334l0,-5.109l15.326,-5.2l19.255,-12.09l-80.558,-4.781l-32.158,44.306l19.562,50.649l52.085,-9.717" style="fill:#135c2e;fill-opacity:0.7;"/><path d="M38.759,0.733l23.362,4.146l20.434,-2.682l-18.32,6.165l-2.114,2.453l2.952,2.236l-5.594,0.683l-2.467,2.242l-5.108,-3.562l-0.889,5.553l-17.598,-3.367l5.248,17.548l-3.954,9.296l0.943,6.876l6.033,20.287l-2.082,4.068l0.64,5.429l-24.101,-6.942l20.434,3.566l-1.612,-1.806l-23.931,-19.64l24.705,14.651l1.548,-0.258l-26.253,-19.502l25.543,15.028l-5.109,-7.139l-1.407,-6.28l-13.918,-9.271l12.442,3.996l-1.19,-2.553l-13.152,-7.502l1.9,-0.498l13.918,6.968l0.344,-1.118l-13.931,-5.684l14.502,3.59l3.57,-6.401l-33.729,-8.678l32.76,4.054l-2.109,-2.33l-5.108,-1.239l0,-5.23l5.108,-1.514l1.699,1.999l-0.177,1.402l-3.876,-0.07l4.299,3.276l0.669,0.494l-1.11,-3.584l0.151,-1.17l-0.431,-0.907l-1.725,-2.127l-0.595,-2.723l-4.012,-3.103l7.516,1.812l12.133,1.516l0.088,-1.717l-9.52,-6.719l17.295,6.678l0.505,-1.104l3.947,1.145l0.78,-2.657l-20.346,-8.08Z" style="fill:#f6d7d0;fill-opacity:0.4;"/></g><path d="M40.202,78.082l-24.058,-6.92l-5.109,-17.88l0,-5.109l30.652,20.434l-5.109,2.555l3.624,6.92Z" style="fill:#6c7157;"/><clipPath id="_clip10"><path d="M40.202,78.082l-24.058,-6.92l-5.109,-17.88l0,-5.109l30.652,20.434l-5.109,2.555l3.624,6.92Z"/></clipPath><g clip-path="url(#_clip10)"><path d="M38.759,0.733l23.362,4.146l20.434,-2.682l-18.32,6.165l-2.114,2.453l2.952,2.236l-5.594,0.683l-2.467,2.242l-5.108,-3.562l-0.889,5.553l-17.598,-3.367l5.248,17.548l-3.954,9.296l0.943,6.876l6.033,20.287l-2.082,4.068l0.64,5.429l-24.101,-6.942l20.434,3.566l-1.612,-1.806l-23.931,-19.64l24.705,14.651l1.548,-0.258l-26.253,-19.502l25.543,15.028l-5.109,-7.139l-1.407,-6.28l-13.918,-9.271l12.442,3.996l-1.19,-2.553l-13.152,-7.502l1.9,-0.498l13.918,6.968l0.344,-1.118l-13.931,-5.684l14.502,3.59l3.57,-6.401l-33.729,-8.678l32.76,4.054l-2.109,-2.33l-5.108,-1.239l0,-5.23l5.108,-1.514l1.699,1.999l-0.177,1.402l-3.876,-0.07l4.299,3.276l0.669,0.494l-1.11,-3.584l0.151,-1.17l-0.431,-0.907l-1.725,-2.127l-0.595,-2.723l-4.012,-3.103l7.516,1.812l12.133,1.516l0.088,-1.717l-9.52,-6.719l17.295,6.678l0.505,-1.104l3.947,1.145l0.78,-2.657l-20.346,-8.08Z" style="fill:#f6d7d0;fill-opacity:0.4;"/></g><path d="M11.035,37.956l5.109,2.555l-5.109,7.662l30.652,20.434l-10.218,-20.434l-20.434,-10.217Z" style="fill:#574052;"/><clipPath id="_clip11"><path d="M11.035,37.956l5.109,2.555l-5.109,7.662l30.652,20.434l-10.218,-20.434l-20.434,-10.217Z"/></clipPath><g clip-path="url(#_clip11)"><path d="M60.815,76.763l-1.96,-9.995l5.98,-11.069l7.577,-3.789l-6.123,-2.047l-2.104,3.043l-0.404,-14.339l13.739,-12.438l-5.108,2.956l-5.109,2.34l-13.167,16.456l2.95,6.584l1.444,4.386l-1.444,7.793l-11.562,8.927l-13.981,3.142l-20.434,-3.325l20.434,-3.043l-10.217,-1.637l0,-6.157l-2.863,2.709l-7.354,-9.236l-3.729,-15.762l17.401,11.376l4.122,4.701l-0.319,-4.949l-2.149,-4.034l-13.6,-6.799l-4.271,-4.7l5.058,-5.124l11.418,1.995l-2.774,-2.782l-6.048,-1.383l-5.109,-3.079l0,1.847l-6.385,0.23l-7.387,-6.524l12.022,-7.762l10.29,6.823l0.045,-3.481l4.17,-1.197l-6.632,-7.177l14.311,-0.985l10.217,3.448l0,2.094l-2.754,7.836l-2.354,22.704l1.723,4.878l1.082,-9.676l2.303,-14.174l13.722,-6.861l-8.613,-4.461l-13.524,-10.013l8.415,-9.316l19.412,4.597l29.873,-0.389l-25.294,11.673l-1.724,6.773l3.276,0.334l0,-5.109l15.326,-5.2l19.255,-12.09l-80.558,-4.781l-32.158,44.306l19.562,50.649l52.085,-9.717" style="fill:#135c2e;fill-opacity:0.7;"/><path d="M38.759,0.733l23.362,4.146l20.434,-2.682l-18.32,6.165l-2.114,2.453l2.952,2.236l-5.594,0.683l-2.467,2.242l-5.108,-3.562l-0.889,5.553l-17.598,-3.367l5.248,17.548l-3.954,9.296l0.943,6.876l6.033,20.287l-2.082,4.068l0.64,5.429l-24.101,-6.942l20.434,3.566l-1.612,-1.806l-23.931,-19.64l24.705,14.651l1.548,-0.258l-26.253,-19.502l25.543,15.028l-5.109,-7.139l-1.407,-6.28l-13.918,-9.271l12.442,3.996l-1.19,-2.553l-13.152,-7.502l1.9,-0.498l13.918,6.968l0.344,-1.118l-13.931,-5.684l14.502,3.59l3.57,-6.401l-33.729,-8.678l32.76,4.054l-2.109,-2.33l-5.108,-1.239l0,-5.23l5.108,-1.514l1.699,1.999l-0.177,1.402l-3.876,-0.07l4.299,3.276l0.669,0.494l-1.11,-3.584l0.151,-1.17l-0.431,-0.907l-1.725,-2.127l-0.595,-2.723l-4.012,-3.103l7.516,1.812l12.133,1.516l0.088,-1.717l-9.52,-6.719l17.295,6.678l0.505,-1.104l3.947,1.145l0.78,-2.657l-20.346,-8.08Z" style="fill:#f6d7d0;fill-opacity:0.4;"/></g><path d="M11.035,53.282l25.543,17.88l3.205,6.711l-23.639,-6.711l-5.109,-17.88Z" style="fill:#574052;"/><clipPath id="_clip12"><path d="M11.035,53.282l25.543,17.88l3.205,6.711l-23.639,-6.711l-5.109,-17.88Z"/></clipPath><g clip-path="url(#_clip12)"><path d="M60.815,76.763l-1.96,-9.995l5.98,-11.069l7.577,-3.789l-6.123,-2.047l-2.104,3.043l-0.404,-14.339l13.739,-12.438l-5.108,2.956l-5.109,2.34l-13.167,16.456l2.95,6.584l1.444,4.386l-1.444,7.793l-11.562,8.927l-13.981,3.142l-20.434,-3.325l20.434,-3.043l-10.217,-1.637l0,-6.157l-2.863,2.709l-7.354,-9.236l-3.729,-15.762l17.401,11.376l4.122,4.701l-0.319,-4.949l-2.149,-4.034l-13.6,-6.799l-4.271,-4.7l5.058,-5.124l11.418,1.995l-2.774,-2.782l-6.048,-1.383l-5.109,-3.079l0,1.847l-6.385,0.23l-7.387,-6.524l12.022,-7.762l10.29,6.823l0.045,-3.481l4.17,-1.197l-6.632,-7.177l14.311,-0.985l10.217,3.448l0,2.094l-2.754,7.836l-2.354,22.704l1.723,4.878l1.082,-9.676l2.303,-14.174l13.722,-6.861l-8.613,-4.461l-13.524,-10.013l8.415,-9.316l19.412,4.597l29.873,-0.389l-25.294,11.673l-1.724,6.773l3.276,0.334l0,-5.109l15.326,-5.2l19.255,-12.09l-80.558,-4.781l-32.158,44.306l19.562,50.649l52.085,-9.717" style="fill:#135c2e;fill-opacity:0.7;"/><path d="M38.759,0.733l23.362,4.146l20.434,-2.682l-18.32,6.165l-2.114,2.453l2.952,2.236l-5.594,0.683l-2.467,2.242l-5.108,-3.562l-0.889,5.553l-17.598,-3.367l5.248,17.548l-3.954,9.296l0.943,6.876l6.033,20.287l-2.082,4.068l0.64,5.429l-24.101,-6.942l20.434,3.566l-1.612,-1.806l-23.931,-19.64l24.705,14.651l1.548,-0.258l-26.253,-19.502l25.543,15.028l-5.109,-7.139l-1.407,-6.28l-13.918,-9.271l12.442,3.996l-1.19,-2.553l-13.152,-7.502l1.9,-0.498l13.918,6.968l0.344,-1.118l-13.931,-5.684l14.502,3.59l3.57,-6.401l-33.729,-8.678l32.76,4.054l-2.109,-2.33l-5.108,-1.239l0,-5.23l5.108,-1.514l1.699,1.999l-0.177,1.402l-3.876,-0.07l4.299,3.276l0.669,0.494l-1.11,-3.584l0.151,-1.17l-0.431,-0.907l-1.725,-2.127l-0.595,-2.723l-4.012,-3.103l7.516,1.812l12.133,1.516l0.088,-1.717l-9.52,-6.719l17.295,6.678l0.505,-1.104l3.947,1.145l0.78,-2.657l-20.346,-8.08Z" style="fill:#f6d7d0;fill-opacity:0.4;"/></g><path d="M38.706,0.706l-2.128,4.045l20.434,10.217l0,-2.297l5.974,0.175l-3.32,-1.66l2.455,-3.881l-23.415,-6.599Z" style="fill:#6c7157;"/><clipPath id="_clip13"><path d="M38.706,0.706l-2.128,4.045l20.434,10.217l0,-2.297l5.974,0.175l-3.32,-1.66l2.455,-3.881l-23.415,-6.599Z"/></clipPath><g clip-path="url(#_clip13)"><path d="M38.759,0.733l23.362,4.146l20.434,-2.682l-18.32,6.165l-2.114,2.453l2.952,2.236l-5.594,0.683l-2.467,2.242l-5.108,-3.562l-0.889,5.553l-17.598,-3.367l5.248,17.548l-3.954,9.296l0.943,6.876l6.033,20.287l-2.082,4.068l0.64,5.429l-24.101,-6.942l20.434,3.566l-1.612,-1.806l-23.931,-19.64l24.705,14.651l1.548,-0.258l-26.253,-19.502l25.543,15.028l-5.109,-7.139l-1.407,-6.28l-13.918,-9.271l12.442,3.996l-1.19,-2.553l-13.152,-7.502l1.9,-0.498l13.918,6.968l0.344,-1.118l-13.931,-5.684l14.502,3.59l3.57,-6.401l-33.729,-8.678l32.76,4.054l-2.109,-2.33l-5.108,-1.239l0,-5.23l5.108,-1.514l1.699,1.999l-0.177,1.402l-3.876,-0.07l4.299,3.276l0.669,0.494l-1.11,-3.584l0.151,-1.17l-0.431,-0.907l-1.725,-2.127l-0.595,-2.723l-4.012,-3.103l7.516,1.812l12.133,1.516l0.088,-1.717l-9.52,-6.719l17.295,6.678l0.505,-1.104l3.947,1.145l0.78,-2.657l-20.346,-8.08Z" style="fill:#f6d7d0;fill-opacity:0.9;"/></g></g></g><g><path d="M62.94,40.72l9.947,12.458l-4.348,-1.274l-12.118,-9.902l6.519,-1.282Z" style="fill:#574052;"/><path d="M54.852,42.361l13.868,-15.941l6.083,-0.138l-10.989,15.699l-8.962,0.38Z" style="fill:#574052;"/><path d="M54.887,20.313l1.65,-1.732l18.273,7.657l-7.559,0.788l-12.364,-6.713Z" style="fill:#574052;"/><path d="M58.08,48.375l-3.645,-2.965l-8.162,10.911l5.189,3.011l6.618,-10.957Z" style="fill:#574052;"/><path d="M41.835,60.24l6.158,-2.81l3.313,1.937l-4.812,2.65l-4.659,-1.777Z" style="fill:none;"/><path d="M64.377,53.918l4.002,1.649l4.535,-2.321l-4.159,-1.166l-4.378,1.838Z" style="fill:none;"/><path d="M54.855,45.842l9.524,8.067l4.57,-1.934l-9.696,-9.81l10.371,-15.391l-14.79,-6.375l-12.276,15.811l7.562,6.49l-8.294,17.514l6.297,-2.837l6.732,-11.535Z" style="fill:#f4ec3e;"/><g><path d="M56.739,26.832l6.422,3.896l-4.688,7.106l-6.669,-4.761l4.935,-6.241Z" style="fill:#f6d7d0;"/><path d="M56.757,26.822l-3.553,0.146l-5.289,6.24l4.006,-0.218l4.836,-6.168Z" style="fill:#6c7157;"/><path d="M47.938,33.219l3.881,-0.156l6.576,4.768l-4.525,-0.078l-5.932,-4.534Z" style="fill:#574052;"/></g></g></g></svg>