<?xml version="1.0" encoding="UTF-8" standalone="no"?><!DOCTYPE svg PUBLIC "-//W3C//DTD SVG 1.1//EN" "http://www.w3.org/Graphics/SVG/1.1/DTD/svg11.dtd"><svg width="100%" height="100%" viewBox="0 0 73 98" version="1.1" xmlns="http://www.w3.org/2000/svg" xmlns:xlink="http://www.w3.org/1999/xlink" xml:space="preserve" xmlns:serif="http://www.serif.com/" style="fill-rule:evenodd;clip-rule:evenodd;stroke-linejoin:round;stroke-miterlimit:1.41421;"><g id="X_Runestone_1"><g><g><g><path d="M51.746,0.165l20.434,10.217l-20.434,10.217l-20.434,-10.217l20.434,-10.217Z" style="fill:#9da8c9;"/><clipPath id="_clip1"><path d="M51.746,0.165l20.434,10.217l-20.434,10.217l-20.434,-10.217l20.434,-10.217Z"/></clipPath><g clip-path="url(#_clip1)"><path d="M72.18,10.382l-20.434,7.207l-20.434,-7.207l16.528,11.037l-2.016,4.234l-4.295,0.054l-20.434,-10.217l15.326,9.861l-14.488,7.762l-21.272,-7.406l18.954,12.849l-0.446,18.766l-18.508,-6.072l5.108,2.554l15.326,10.055l2.854,-2.621l-2.854,7.762l-20.434,-7.533l18.752,12.069l1.682,23.691l1.936,-24.575l4.713,-14.51l-4.299,0.676l0.404,-5.141l-1.311,-16.129l18.225,-7.115l8.697,-0.76l5.175,-7.63l17.545,-11.661Z" style="fill:#f6d7d0;fill-opacity:0.9;"/></g><path d="M21.095,15.49l-20.434,10.217l20.434,10.217l20.434,-10.217l-20.434,-10.217" style="fill:#9da8c9;"/><clipPath id="_clip2"><path d="M21.095,15.49l-20.434,10.217l20.434,10.217l20.434,-10.217l-20.434,-10.217"/></clipPath><g clip-path="url(#_clip2)"><path d="M72.18,10.382l-20.434,7.207l-20.434,-7.207l16.528,11.037l-2.016,4.234l-4.295,0.054l-20.434,-10.217l15.326,9.861l-14.488,7.762l-21.272,-7.406l18.954,12.849l-0.446,18.766l-18.508,-6.072l5.108,2.554l15.326,10.055l2.854,-2.621l-2.854,7.762l-20.434,-7.533l18.752,12.069l1.682,23.691l1.936,-24.575l4.713,-14.51l-4.299,0.676l0.404,-5.141l-1.311,-16.129l18.225,-7.115l8.697,-0.76l5.175,-7.63l17.545,-11.661Z" style="fill:#f6d7d0;fill-opacity:0.9;"/></g><path d="M31.312,10.382l-5.108,7.663l20.434,10.217l5.108,-7.663l-20.434,-10.217Z" style="fill:#6c7157;"/><clipPath id="_clip3"><path d="M31.312,10.382l-5.108,7.663l20.434,10.217l5.108,-7.663l-20.434,-10.217Z"/></clipPath><g clip-path="url(#_clip3)"><path d="M74.811,69.034l-10.719,-7.911l-2.055,-16.353l-2.977,16.814l10.72,12.6l-15.707,10.328l-3.668,-13.492l1.415,-10.924l-5.109,4.654l0,13.226l-13.317,3.558l10.939,2.74l-11.143,12.484l-6.913,-10.65l-5.108,-3.656l-18.08,9.472l15.264,0.231l12.413,0.867l-4.489,7.71l-30.651,0.962l-2.387,-27.633l7.496,6.469l6.793,1.712l3.424,-1.712l-7.428,-3.714l-4.457,-12.445l-0.848,-23.451l12.733,8.959l1.983,4.117l1.42,-5.819l-3.403,-3.407l-11.817,-14.525l4.26,-17.456l17.774,16.656l-5.109,-17.88l11.545,-5.773l8.889,-4.444l7.848,9.032l4.367,5.295l3.111,-1.556l5.109,-4.977l-5.109,-3.079l0,2.947l-5.109,-2.554l2.564,-3.826l12.762,4.01l7.677,1.1l7.649,10.83l-1.661,12.599l1.661,31.481l7.734,-67.652l-72.439,-2.166l-40.256,53.097l18.116,65.252l76.628,-0.636l7.665,-41.511" style="fill:#135c2e;fill-opacity:0.7;"/><path d="M72.18,10.382l-20.434,7.207l-20.434,-7.207l16.528,11.037l-2.016,4.234l-4.295,0.054l-20.434,-10.217l15.326,9.861l-14.488,7.762l-21.272,-7.406l18.954,12.849l-0.446,18.766l-18.508,-6.072l5.108,2.554l15.326,10.055l2.854,-2.621l-2.854,7.762l-20.434,-7.533l18.752,12.069l1.682,23.691l1.936,-24.575l4.713,-14.51l-4.299,0.676l0.404,-5.141l-1.311,-16.129l18.225,-7.115l8.697,-0.76l5.175,-7.63l17.545,-11.661Z" style="fill:#f6d7d0;fill-opacity:0.9;"/></g><path d="M72.18,10.382l-20.434,10.217l-5.108,7.663l-5.109,-2.555l-20.434,10.217l0,25.543l5.109,-2.554l-5.109,12.771l0,25.543l20.434,-10.217l0,-5.109l5.109,-2.554l5.108,2.554l20.434,-10.217l0,-30.651l-5.108,2.554l5.108,-12.771l0,-20.434" style="fill:#bac1d8;"/><clipPath id="_clip4"><path d="M72.18,10.382l-20.434,10.217l-5.108,7.663l-5.109,-2.555l-20.434,10.217l0,25.543l5.109,-2.554l-5.109,12.771l0,25.543l20.434,-10.217l0,-5.109l5.109,-2.554l5.108,2.554l20.434,-10.217l0,-30.651l-5.108,2.554l5.108,-12.771l0,-20.434"/></clipPath><g clip-path="url(#_clip4)"><path d="M72.18,10.382l-20.434,7.207l-20.434,-7.207l16.528,11.037l-2.016,4.234l-4.295,0.054l-20.434,-10.217l15.326,9.861l-14.488,7.762l-21.272,-7.406l18.954,12.849l-0.446,18.766l-18.508,-6.072l5.108,2.554l15.326,10.055l2.854,-2.621l-2.854,7.762l-20.434,-7.533l18.752,12.069l1.682,23.691l1.936,-24.575l4.713,-14.51l-4.299,0.676l0.404,-5.141l-1.311,-16.129l18.225,-7.115l8.697,-0.76l5.175,-7.63l17.545,-11.661Z" style="fill:#f6d7d0;fill-opacity:0.9;"/></g><path d="M0.661,25.707l20.434,10.217l0,25.543l-20.434,-10.217l0,-25.543Z" style="fill:#6c7157;"/><clipPath id="_clip5"><path d="M0.661,25.707l20.434,10.217l0,25.543l-20.434,-10.217l0,-25.543Z"/></clipPath><g clip-path="url(#_clip5)"><path d="M72.18,10.382l-20.434,7.207l-20.434,-7.207l16.528,11.037l-2.016,4.234l-4.295,0.054l-20.434,-10.217l15.326,9.861l-14.488,7.762l-21.272,-7.406l18.954,12.849l-0.446,18.766l-18.508,-6.072l5.108,2.554l15.326,10.055l2.854,-2.621l-2.854,7.762l-20.434,-7.533l18.752,12.069l1.682,23.691l1.936,-24.575l4.713,-14.51l-4.299,0.676l0.404,-5.141l-1.311,-16.129l18.225,-7.115l8.697,-0.76l5.175,-7.63l17.545,-11.661Z" style="fill:#f6d7d0;fill-opacity:0.4;"/></g><path d="M21.095,97.227l-20.434,-10.217l0,-25.543l20.434,10.217l0,25.543" style="fill:#6c7157;"/><clipPath id="_clip6"><path d="M21.095,97.227l-20.434,-10.217l0,-25.543l20.434,10.217l0,25.543"/></clipPath><g clip-path="url(#_clip6)"><path d="M72.18,10.382l-20.434,7.207l-20.434,-7.207l16.528,11.037l-2.016,4.234l-4.295,0.054l-20.434,-10.217l15.326,9.861l-14.488,7.762l-21.272,-7.406l18.954,12.849l-0.446,18.766l-18.508,-6.072l5.108,2.554l15.326,10.055l2.854,-2.621l-2.854,7.762l-20.434,-7.533l18.752,12.069l1.682,23.691l1.936,-24.575l4.713,-14.51l-4.299,0.676l0.404,-5.141l-1.311,-16.129l18.225,-7.115l8.697,-0.76l5.175,-7.63l17.545,-11.661Z" style="fill:#f6d7d0;fill-opacity:0.4;"/></g><path d="M0.661,51.25l5.108,2.554l-5.108,7.663l20.434,10.217l5.109,-12.771l-5.109,2.554l-20.434,-10.217Z" style="fill:#574052;"/><clipPath id="_clip7"><path d="M0.661,51.25l5.108,2.554l-5.108,7.663l20.434,10.217l5.109,-12.771l-5.109,2.554l-20.434,-10.217Z"/></clipPath><g clip-path="url(#_clip7)"><path d="M72.18,10.382l-20.434,7.207l-20.434,-7.207l16.528,11.037l-2.016,4.234l-4.295,0.054l-20.434,-10.217l15.326,9.861l-14.488,7.762l-21.272,-7.406l18.954,12.849l-0.446,18.766l-18.508,-6.072l5.108,2.554l15.326,10.055l2.854,-2.621l-2.854,7.762l-20.434,-7.533l18.752,12.069l1.682,23.691l1.936,-24.575l4.713,-14.51l-4.299,0.676l0.404,-5.141l-1.311,-16.129l18.225,-7.115l8.697,-0.76l5.175,-7.63l17.545,-11.661Z" style="fill:#f6d7d0;fill-opacity:0.4;"/></g></g></g></g><g><path d="M50.61,57.136l9.948,12.458l-4.348,-1.275l-12.119,-9.901l6.519,-1.282Z" style="fill:#574052;"/><path d="M42.522,58.777l13.868,-15.941l6.083,-0.138l-10.989,15.698l-8.962,0.381Z" style="fill:#574052;"/><path d="M42.557,36.729l1.651,-1.733l18.272,7.657l-7.559,0.789l-12.364,-6.713Z" style="fill:#574052;"/><path d="M45.75,64.79l-3.645,-2.964l-8.161,10.91l5.189,3.012l6.617,-10.958Z" style="fill:#574052;"/><path d="M29.505,76.656l6.159,-2.81l3.312,1.936l-4.812,2.65l-4.659,-1.776Z" style="fill:none;"/><path d="M52.047,70.334l4.003,1.649l4.534,-2.322l-4.159,-1.166l-4.378,1.839Z" style="fill:none;"/><path d="M42.525,62.258l9.524,8.067l4.57,-1.935l-9.696,-9.809l10.372,-15.392l-14.79,-6.374l-12.277,15.811l7.562,6.489l-8.294,17.515l6.297,-2.838l6.732,-11.534Z" style="fill:#f4ec3e;"/><g><path d="M44.409,43.247l6.423,3.896l-4.689,7.107l-6.669,-4.761l4.935,-6.242Z" style="fill:#f6d7d0;"/><path d="M44.427,43.238l-3.552,0.145l-5.29,6.24l4.007,-0.218l4.835,-6.167Z" style="fill:#6c7157;"/><path d="M35.608,49.635l3.881,-0.157l6.577,4.769l-4.525,-0.078l-5.933,-4.534Z" style="fill:#574052;"/></g></g></g></svg>