<?xml version="1.0" encoding="UTF-8" standalone="no"?><!DOCTYPE svg PUBLIC "-//W3C//DTD SVG 1.1//EN" "http://www.w3.org/Graphics/SVG/1.1/DTD/svg11.dtd"><svg width="100%" height="100%" viewBox="0 0 73 85" version="1.1" xmlns="http://www.w3.org/2000/svg" xmlns:xlink="http://www.w3.org/1999/xlink" xml:space="preserve" xmlns:serif="http://www.serif.com/" style="fill-rule:evenodd;clip-rule:evenodd;stroke-linejoin:round;stroke-miterlimit:1.41421;"><g id="X_Runestone_2"><g><g><path d="M52.01,0.382l20.434,5.108l-20.434,5.109l-20.434,-10.217l20.434,0Z" style="fill:#9da8c9;"/><clipPath id="_clip1"><path d="M52.01,0.382l20.434,5.108l-20.434,5.109l-20.434,-10.217l20.434,0Z"/></clipPath><g clip-path="url(#_clip1)"><path d="M72.444,5.49l-18.482,6.9l-1.278,3.654l-0.674,5.443l-9.596,1.806l0.581,-4.774l-16.528,14.129l-5.108,1.549l2.539,16.645l4.645,15.225l-5.301,-0.216l1.043,11.184l2.182,7.638l-6.117,-5.767l-19.426,-12.113l18.168,6.242l-0.629,-9.903l-17.539,-10.032l0,-1.633l7.619,2.278l13.807,5.032l-4.452,-7.484l-4.129,-1.871l2.481,-0.509l-15.326,-7.663l15.326,4.688l-1.191,-14.838l-14.135,-15.393l20.435,12.102l12.281,-9.612l4.129,-2.323l-16.41,-10.384l26.546,13.274l-1.004,-5.611l0.61,-2.118l-15.935,-10.653l20.434,7.815l7.307,-2.387l13.127,-0.32Z" style="fill:#f6d7d0;fill-opacity:0.9;"/></g><path d="M21.359,5.49l-5.109,7.663l-15.326,2.554l17.853,14.035l6.39,1.254l11.517,-12.734l5.109,-2.555l-20.434,-10.217" style="fill:#9da8c9;"/><clipPath id="_clip2"><path d="M21.359,5.49l-5.109,7.663l-15.326,2.554l17.853,14.035l6.39,1.254l11.517,-12.734l5.109,-2.555l-20.434,-10.217"/></clipPath><g clip-path="url(#_clip2)"><path d="M72.444,5.49l-18.482,6.9l-1.278,3.654l-0.674,5.443l-9.596,1.806l0.581,-4.774l-16.528,14.129l-5.108,1.549l2.539,16.645l4.645,15.225l-5.301,-0.216l1.043,11.184l2.182,7.638l-6.117,-5.767l-19.426,-12.113l18.168,6.242l-0.629,-9.903l-17.539,-10.032l0,-1.633l7.619,2.278l13.807,5.032l-4.452,-7.484l-4.129,-1.871l2.481,-0.509l-15.326,-7.663l15.326,4.688l-1.191,-14.838l-14.135,-15.393l20.435,12.102l12.281,-9.612l4.129,-2.323l-16.41,-10.384l26.546,13.274l-1.004,-5.611l0.61,-2.118l-15.935,-10.653l20.434,7.815l7.307,-2.387l13.127,-0.32Z" style="fill:#f6d7d0;fill-opacity:0.9;"/></g><path d="M72.444,5.49l-20.434,5.109l-5.109,7.663l-5.108,-2.555l-5.109,2.555l-11.468,12.686l-6.441,-1.207l2.584,21.726l5.108,12.771l-5.108,-2.554l0,15.326l5.108,7.663l15.326,-7.663l0,-5.109l5.108,-2.554l5.109,2.554l17.456,-8.728l1.11,-22.857l1.868,-9.283l-5.109,2.554l5.109,-12.771l0,-15.326Z" style="fill:#bac1d8;"/><clipPath id="_clip3"><path d="M72.444,5.49l-20.434,5.109l-5.109,7.663l-5.108,-2.555l-5.109,2.555l-11.468,12.686l-6.441,-1.207l2.584,21.726l5.108,12.771l-5.108,-2.554l0,15.326l5.108,7.663l15.326,-7.663l0,-5.109l5.108,-2.554l5.109,2.554l17.456,-8.728l1.11,-22.857l1.868,-9.283l-5.109,2.554l5.109,-12.771l0,-15.326Z"/></clipPath><g clip-path="url(#_clip3)"><path d="M72.444,5.49l-18.482,6.9l-1.278,3.654l-0.674,5.443l-9.596,1.806l0.581,-4.774l-16.528,14.129l-5.108,1.549l2.539,16.645l4.645,15.225l-5.301,-0.216l1.043,11.184l2.182,7.638l-6.117,-5.767l-19.426,-12.113l18.168,6.242l-0.629,-9.903l-17.539,-10.032l0,-1.633l7.619,2.278l13.807,5.032l-4.452,-7.484l-4.129,-1.871l2.481,-0.509l-15.326,-7.663l15.326,4.688l-1.191,-14.838l-14.135,-15.393l20.435,12.102l12.281,-9.612l4.129,-2.323l-16.41,-10.384l26.546,13.274l-1.004,-5.611l0.61,-2.118l-15.935,-10.653l20.434,7.815l7.307,-2.387l13.127,-0.32Z" style="fill:#f6d7d0;fill-opacity:0.9;"/></g><path d="M0.924,15.707l17.853,14.035l2.582,21.725l-20.435,-10.217l1.888,-9.273l-1.888,-16.27Z" style="fill:#6c7157;"/><clipPath id="_clip4"><path d="M0.924,15.707l17.853,14.035l2.582,21.725l-20.435,-10.217l1.888,-9.273l-1.888,-16.27Z"/></clipPath><g clip-path="url(#_clip4)"><path d="M72.444,5.49l-18.482,6.9l-1.278,3.654l-0.674,5.443l-9.596,1.806l0.581,-4.774l-16.528,14.129l-5.108,1.549l2.539,16.645l4.645,15.225l-5.301,-0.216l1.043,11.184l2.182,7.638l-6.117,-5.767l-19.426,-12.113l18.168,6.242l-0.629,-9.903l-17.539,-10.032l0,-1.633l7.619,2.278l13.807,5.032l-4.452,-7.484l-4.129,-1.871l2.481,-0.509l-15.326,-7.663l15.326,4.688l-1.191,-14.838l-14.135,-15.393l20.435,12.102l12.281,-9.612l4.129,-2.323l-16.41,-10.384l26.546,13.274l-1.004,-5.611l0.61,-2.118l-15.935,-10.653l20.434,7.815l7.307,-2.387l13.127,-0.32Z" style="fill:#f6d7d0;fill-opacity:0.4;"/></g><path d="M26.467,84.673l-20.434,-10.217l-5.109,-7.663l0,-15.326l20.435,10.217l0,15.326l5.108,7.663Z" style="fill:#6c7157;"/><clipPath id="_clip5"><path d="M26.467,84.673l-20.434,-10.217l-5.109,-7.663l0,-15.326l20.435,10.217l0,15.326l5.108,7.663Z"/></clipPath><g clip-path="url(#_clip5)"><path d="M72.444,5.49l-18.482,6.9l-1.278,3.654l-0.674,5.443l-9.596,1.806l0.581,-4.774l-16.528,14.129l-5.108,1.549l2.539,16.645l4.645,15.225l-5.301,-0.216l1.043,11.184l2.182,7.638l-6.117,-5.767l-19.426,-12.113l18.168,6.242l-0.629,-9.903l-17.539,-10.032l0,-1.633l7.619,2.278l13.807,5.032l-4.452,-7.484l-4.129,-1.871l2.481,-0.509l-15.326,-7.663l15.326,4.688l-1.191,-14.838l-14.135,-15.393l20.435,12.102l12.281,-9.612l4.129,-2.323l-16.41,-10.384l26.546,13.274l-1.004,-5.611l0.61,-2.118l-15.935,-10.653l20.434,7.815l7.307,-2.387l13.127,-0.32Z" style="fill:#f6d7d0;fill-opacity:0.4;"/></g><path d="M0.924,41.25l15.326,7.663l-15.326,2.554l25.543,12.771l-5.108,-12.771l-20.435,-10.217Z" style="fill:#574052;"/><clipPath id="_clip6"><path d="M0.924,41.25l15.326,7.663l-15.326,2.554l25.543,12.771l-5.108,-12.771l-20.435,-10.217Z"/></clipPath><g clip-path="url(#_clip6)"><path d="M72.444,5.49l-18.482,6.9l-1.278,3.654l-0.674,5.443l-9.596,1.806l0.581,-4.774l-16.528,14.129l-5.108,1.549l2.539,16.645l4.645,15.225l-5.301,-0.216l1.043,11.184l2.182,7.638l-6.117,-5.767l-19.426,-12.113l18.168,6.242l-0.629,-9.903l-17.539,-10.032l0,-1.633l7.619,2.278l13.807,5.032l-4.452,-7.484l-4.129,-1.871l2.481,-0.509l-15.326,-7.663l15.326,4.688l-1.191,-14.838l-14.135,-15.393l20.435,12.102l12.281,-9.612l4.129,-2.323l-16.41,-10.384l26.546,13.274l-1.004,-5.611l0.61,-2.118l-15.935,-10.653l20.434,7.815l7.307,-2.387l13.127,-0.32Z" style="fill:#f6d7d0;fill-opacity:0.4;"/></g><path d="M0.924,66.793l20.435,10.217l5.108,7.663l-20.434,-10.217l-5.109,-7.663Z" style="fill:#574052;"/><clipPath id="_clip7"><path d="M0.924,66.793l20.435,10.217l5.108,7.663l-20.434,-10.217l-5.109,-7.663Z"/></clipPath><g clip-path="url(#_clip7)"><path d="M72.444,5.49l-18.482,6.9l-1.278,3.654l-0.674,5.443l-9.596,1.806l0.581,-4.774l-16.528,14.129l-5.108,1.549l2.539,16.645l4.645,15.225l-5.301,-0.216l1.043,11.184l2.182,7.638l-6.117,-5.767l-19.426,-12.113l18.168,6.242l-0.629,-9.903l-17.539,-10.032l0,-1.633l7.619,2.278l13.807,5.032l-4.452,-7.484l-4.129,-1.871l2.481,-0.509l-15.326,-7.663l15.326,4.688l-1.191,-14.838l-14.135,-15.393l20.435,12.102l12.281,-9.612l4.129,-2.323l-16.41,-10.384l26.546,13.274l-1.004,-5.611l0.61,-2.118l-15.935,-10.653l20.434,7.815l7.307,-2.387l13.127,-0.32Z" style="fill:#f6d7d0;fill-opacity:0.9;"/></g><path d="M31.576,0.382l-5.109,7.663l20.434,10.217l-2.438,3.889l5.527,-2.345l-0.435,-5.326l2.455,-3.881l-20.434,-10.217Z" style="fill:#6c7157;"/><clipPath id="_clip8"><path d="M31.576,0.382l-5.109,7.663l20.434,10.217l-2.438,3.889l5.527,-2.345l-0.435,-5.326l2.455,-3.881l-20.434,-10.217Z"/></clipPath><g clip-path="url(#_clip8)"><path d="M72.444,5.49l-18.482,6.9l-1.278,3.654l-0.674,5.443l-9.596,1.806l0.581,-4.774l-16.528,14.129l-5.108,1.549l2.539,16.645l4.645,15.225l-5.301,-0.216l1.043,11.184l2.182,7.638l-6.117,-5.767l-19.426,-12.113l18.168,6.242l-0.629,-9.903l-17.539,-10.032l0,-1.633l7.619,2.278l13.807,5.032l-4.452,-7.484l-4.129,-1.871l2.481,-0.509l-15.326,-7.663l15.326,4.688l-1.191,-14.838l-14.135,-15.393l20.435,12.102l12.281,-9.612l4.129,-2.323l-16.41,-10.384l26.546,13.274l-1.004,-5.611l0.61,-2.118l-15.935,-10.653l20.434,7.815l7.307,-2.387l13.127,-0.32Z" style="fill:#f6d7d0;fill-opacity:0.9;"/></g></g></g><g><path d="M50.635,47.86l9.948,12.458l-4.348,-1.274l-12.119,-9.902l6.519,-1.282Z" style="fill:#574052;"/><path d="M42.548,49.501l13.867,-15.941l6.084,-0.138l-10.989,15.699l-8.962,0.38Z" style="fill:#574052;"/><path d="M42.583,27.453l1.65,-1.733l18.272,7.657l-7.558,0.789l-12.364,-6.713Z" style="fill:#574052;"/><path d="M45.776,55.515l-3.645,-2.965l-8.162,10.911l5.189,3.011l6.618,-10.957Z" style="fill:#574052;"/><path d="M29.53,67.38l6.159,-2.81l3.313,1.936l-4.812,2.65l-4.66,-1.776Z" style="fill:none;"/><path d="M52.073,61.058l4.002,1.649l4.535,-2.322l-4.159,-1.166l-4.378,1.839Z" style="fill:none;"/><path d="M42.551,52.982l9.523,8.067l4.57,-1.934l-9.695,-9.81l10.371,-15.392l-14.79,-6.374l-12.277,15.811l7.563,6.49l-8.294,17.514l6.297,-2.838l6.732,-11.534Z" style="fill:#f4ec3e;"/><g><path d="M44.434,33.971l6.423,3.896l-4.689,7.107l-6.668,-4.761l4.934,-6.242Z" style="fill:#f6d7d0;"/><path d="M44.453,33.962l-3.553,0.145l-5.289,6.241l4.006,-0.218l4.836,-6.168Z" style="fill:#6c7157;"/><path d="M35.634,40.359l3.88,-0.157l6.577,4.769l-4.525,-0.078l-5.932,-4.534Z" style="fill:#574052;"/></g></g></g></svg>