<?xml version="1.0" encoding="UTF-8" standalone="no"?><!DOCTYPE svg PUBLIC "-//W3C//DTD SVG 1.1//EN" "http://www.w3.org/Graphics/SVG/1.1/DTD/svg11.dtd"><svg width="100%" height="100%" viewBox="0 0 71 60" version="1.1" xmlns="http://www.w3.org/2000/svg" xmlns:xlink="http://www.w3.org/1999/xlink" xml:space="preserve" xmlns:serif="http://www.serif.com/" style="fill-rule:evenodd;clip-rule:evenodd;stroke-linejoin:round;stroke-miterlimit:1.41421;"><g id="crystal16"><path d="M65.246,21.482l5.367,13.416l-10.733,-5.366l-10.734,-10.733l16.1,2.683Z" style="fill:#df8af0;"/><path d="M43.78,0.016l-5.367,13.416l5.367,8.05l5.366,-2.683l-5.366,-18.783Z" style="fill:#df8af0;"/><path d="M43.78,0.016l-10.733,0l0,16.099l5.366,-2.683l5.367,-13.416Z" style="fill:#f0b3d5;"/><path d="M33.047,0.016l-10.733,5.366l0,5.367l10.733,5.366l0,-16.099" style="fill:#df8af0;"/><path d="M22.314,5.382l-10.734,10.733l5.367,8.05l10.733,0l-5.366,-13.416l0,-5.367" style="fill:#d950ed;"/><path d="M27.68,24.165l-5.366,-13.416l10.733,5.366l0,21.467l-5.367,-13.417Z" style="fill:#772da4;"/><path d="M11.58,16.115l-10.733,16.1l10.733,5.367l10.734,-5.367l-10.734,-16.1" style="fill:#772da4;"/><path d="M43.78,0.016l10.733,5.366l10.733,16.1l-16.1,-2.683l-5.366,-18.783Z" style="fill:#f0b3d5;"/><path d="M70.613,34.898l-21.467,16.1l-10.733,-16.1l5.367,-13.416l5.366,-2.683l10.734,10.733l10.733,5.366Z" style="fill:#d950ed;"/><path d="M16.947,24.165l10.733,0l5.367,13.417l-21.467,0l10.734,-5.367l-5.367,-8.05Z" style="fill:#542f7f;"/><path d="M0.847,32.215l5.367,18.783l16.1,8.05l0,-16.1l-10.734,-5.366l-10.733,-5.367" style="fill:#542f7f;"/><path d="M33.047,37.582l-10.733,21.466l0,-16.1l-10.734,-5.366l21.467,0" style="fill:#772da4;"/><path d="M38.413,13.432l-5.366,2.683l0,21.467l16.099,13.416l-10.733,-16.1l5.367,-13.416l-5.367,-8.05Z" style="fill:#542f7f;"/><path d="M49.146,50.998l-5.366,8.05l-21.466,0l10.733,-21.466l16.099,13.416" style="fill:#542f7f;"/><path d="M70.613,34.898l-21.467,21.467l-5.366,2.683l5.366,-8.05l21.467,-16.1Z" style="fill:#772da4;"/><path d="M38.413,34.898l-5.366,2.684l16.099,13.416l-10.733,-16.1" style="fill:#772da4;"/></g></svg>