<?xml version="1.0" encoding="UTF-8" standalone="no"?><!DOCTYPE svg PUBLIC "-//W3C//DTD SVG 1.1//EN" "http://www.w3.org/Graphics/SVG/1.1/DTD/svg11.dtd"><svg width="100%" height="100%" viewBox="0 0 84 95" version="1.1" xmlns="http://www.w3.org/2000/svg" xmlns:xlink="http://www.w3.org/1999/xlink" xml:space="preserve" xmlns:serif="http://www.serif.com/" style="fill-rule:evenodd;clip-rule:evenodd;stroke-linejoin:round;stroke-miterlimit:1.41421;"><g id="F_Runestone_grass_2"><g id="F_Runestone_runes_2"><g><g><path d="M61.048,0.879l20.434,5.109l-20.434,5.108l-20.434,-10.217l20.434,0Z" style="fill:#9da8c9;"/><clipPath id="_clip1"><path d="M61.048,0.879l20.434,5.109l-20.434,5.108l-20.434,-10.217l20.434,0Z"/></clipPath><g clip-path="url(#_clip1)"><path d="M81.482,5.988l-18.481,6.9l-1.279,3.654l-0.674,5.442l-9.595,1.807l0.58,-4.774l-16.527,14.129l-5.109,1.548l2.54,16.645l4.645,15.226l-5.302,-0.216l1.044,11.183l2.182,7.638l-6.118,-5.767l-19.425,-12.113l18.167,6.242l-0.629,-9.902l-17.538,-10.033l0,-1.632l7.619,2.277l13.806,5.033l-4.451,-7.484l-4.129,-1.871l2.481,-0.51l-15.326,-7.662l15.326,4.688l-1.191,-14.839l-14.135,-15.392l20.434,12.102l12.281,-9.613l4.129,-2.322l-16.41,-10.384l26.546,13.273l-1.003,-5.61l0.609,-2.118l-15.935,-10.654l20.434,7.815l7.308,-2.387l13.126,-0.319Z" style="fill:#f6e0f1;fill-opacity:0.9;"/></g><path d="M30.397,5.988l-5.108,7.663l-15.326,2.554l17.852,14.035l6.39,1.254l11.518,-12.735l5.108,-2.554l-20.434,-10.217" style="fill:#9da8c9;"/><clipPath id="_clip2"><path d="M30.397,5.988l-5.108,7.663l-15.326,2.554l17.852,14.035l6.39,1.254l11.518,-12.735l5.108,-2.554l-20.434,-10.217"/></clipPath><g clip-path="url(#_clip2)"><path d="M81.482,5.988l-18.481,6.9l-1.279,3.654l-0.674,5.442l-9.595,1.807l0.58,-4.774l-16.527,14.129l-5.109,1.548l2.54,16.645l4.645,15.226l-5.302,-0.216l1.044,11.183l2.182,7.638l-6.118,-5.767l-19.425,-12.113l18.167,6.242l-0.629,-9.902l-17.538,-10.033l0,-1.632l7.619,2.277l13.806,5.033l-4.451,-7.484l-4.129,-1.871l2.481,-0.51l-15.326,-7.662l15.326,4.688l-1.191,-14.839l-14.135,-15.392l20.434,12.102l12.281,-9.613l4.129,-2.322l-16.41,-10.384l26.546,13.273l-1.003,-5.61l0.609,-2.118l-15.935,-10.654l20.434,7.815l7.308,-2.387l13.126,-0.319Z" style="fill:#f6e0f1;fill-opacity:0.9;"/></g><path d="M81.482,5.988l-20.434,5.108l-5.108,7.663l-5.109,-2.554l-5.108,2.554l-11.469,12.687l-6.441,-1.207l2.584,21.726l5.109,12.771l-5.109,-2.554l0,15.325l5.109,7.663l15.325,-7.663l0,-5.108l5.109,-2.555l5.108,2.555l17.456,-8.728l1.11,-22.858l1.868,-9.282l-5.108,2.554l5.108,-12.772l0,-15.325Z" style="fill:#bac1d8;"/><clipPath id="_clip3"><path d="M81.482,5.988l-20.434,5.108l-5.108,7.663l-5.109,-2.554l-5.108,2.554l-11.469,12.687l-6.441,-1.207l2.584,21.726l5.109,12.771l-5.109,-2.554l0,15.325l5.109,7.663l15.325,-7.663l0,-5.108l5.109,-2.555l5.108,2.555l17.456,-8.728l1.11,-22.858l1.868,-9.282l-5.108,2.554l5.108,-12.772l0,-15.325Z"/></clipPath><g clip-path="url(#_clip3)"><path d="M81.482,5.988l-18.481,6.9l-1.279,3.654l-0.674,5.442l-9.595,1.807l0.58,-4.774l-16.527,14.129l-5.109,1.548l2.54,16.645l4.645,15.226l-5.302,-0.216l1.044,11.183l2.182,7.638l-6.118,-5.767l-19.425,-12.113l18.167,6.242l-0.629,-9.902l-17.538,-10.033l0,-1.632l7.619,2.277l13.806,5.033l-4.451,-7.484l-4.129,-1.871l2.481,-0.51l-15.326,-7.662l15.326,4.688l-1.191,-14.839l-14.135,-15.392l20.434,12.102l12.281,-9.613l4.129,-2.322l-16.41,-10.384l26.546,13.273l-1.003,-5.61l0.609,-2.118l-15.935,-10.654l20.434,7.815l7.308,-2.387l13.126,-0.319Z" style="fill:#f6e0f1;fill-opacity:0.9;"/></g><path d="M9.963,16.205l17.852,14.035l2.582,21.725l-20.434,-10.217l1.887,-9.274l-1.887,-16.269Z" style="fill:#6c7157;"/><clipPath id="_clip4"><path d="M9.963,16.205l17.852,14.035l2.582,21.725l-20.434,-10.217l1.887,-9.274l-1.887,-16.269Z"/></clipPath><g clip-path="url(#_clip4)"><path d="M81.482,5.988l-18.481,6.9l-1.279,3.654l-0.674,5.442l-9.595,1.807l0.58,-4.774l-16.527,14.129l-5.109,1.548l2.54,16.645l4.645,15.226l-5.302,-0.216l1.044,11.183l2.182,7.638l-6.118,-5.767l-19.425,-12.113l18.167,6.242l-0.629,-9.902l-17.538,-10.033l0,-1.632l7.619,2.277l13.806,5.033l-4.451,-7.484l-4.129,-1.871l2.481,-0.51l-15.326,-7.662l15.326,4.688l-1.191,-14.839l-14.135,-15.392l20.434,12.102l12.281,-9.613l4.129,-2.322l-16.41,-10.384l26.546,13.273l-1.003,-5.61l0.609,-2.118l-15.935,-10.654l20.434,7.815l7.308,-2.387l13.126,-0.319Z" style="fill:#f6e0f1;fill-opacity:0.4;"/></g><path d="M35.506,85.17l-20.435,-10.217l-5.108,-7.663l0,-15.325l20.434,10.217l0,15.325l5.109,7.663Z" style="fill:#6c7157;"/><clipPath id="_clip5"><path d="M35.506,85.17l-20.435,-10.217l-5.108,-7.663l0,-15.325l20.434,10.217l0,15.325l5.109,7.663Z"/></clipPath><g clip-path="url(#_clip5)"><path d="M81.482,5.988l-18.481,6.9l-1.279,3.654l-0.674,5.442l-9.595,1.807l0.58,-4.774l-16.527,14.129l-5.109,1.548l2.54,16.645l4.645,15.226l-5.302,-0.216l1.044,11.183l2.182,7.638l-6.118,-5.767l-19.425,-12.113l18.167,6.242l-0.629,-9.902l-17.538,-10.033l0,-1.632l7.619,2.277l13.806,5.033l-4.451,-7.484l-4.129,-1.871l2.481,-0.51l-15.326,-7.662l15.326,4.688l-1.191,-14.839l-14.135,-15.392l20.434,12.102l12.281,-9.613l4.129,-2.322l-16.41,-10.384l26.546,13.273l-1.003,-5.61l0.609,-2.118l-15.935,-10.654l20.434,7.815l7.308,-2.387l13.126,-0.319Z" style="fill:#f6e0f1;fill-opacity:0.4;"/></g><path d="M9.963,41.748l15.326,7.662l-15.326,2.555l25.543,12.771l-5.109,-12.771l-20.434,-10.217Z" style="fill:#395346;"/><clipPath id="_clip6"><path d="M9.963,41.748l15.326,7.662l-15.326,2.555l25.543,12.771l-5.109,-12.771l-20.434,-10.217Z"/></clipPath><g clip-path="url(#_clip6)"><path d="M81.482,5.988l-18.481,6.9l-1.279,3.654l-0.674,5.442l-9.595,1.807l0.58,-4.774l-16.527,14.129l-5.109,1.548l2.54,16.645l4.645,15.226l-5.302,-0.216l1.044,11.183l2.182,7.638l-6.118,-5.767l-19.425,-12.113l18.167,6.242l-0.629,-9.902l-17.538,-10.033l0,-1.632l7.619,2.277l13.806,5.033l-4.451,-7.484l-4.129,-1.871l2.481,-0.51l-15.326,-7.662l15.326,4.688l-1.191,-14.839l-14.135,-15.392l20.434,12.102l12.281,-9.613l4.129,-2.322l-16.41,-10.384l26.546,13.273l-1.003,-5.61l0.609,-2.118l-15.935,-10.654l20.434,7.815l7.308,-2.387l13.126,-0.319Z" style="fill:#f6e0f1;fill-opacity:0.4;"/></g><path d="M9.963,67.29l20.434,10.217l5.109,7.663l-20.435,-10.217l-5.108,-7.663Z" style="fill:#395346;"/><clipPath id="_clip7"><path d="M9.963,67.29l20.434,10.217l5.109,7.663l-20.435,-10.217l-5.108,-7.663Z"/></clipPath><g clip-path="url(#_clip7)"><path d="M81.482,5.988l-18.481,6.9l-1.279,3.654l-0.674,5.442l-9.595,1.807l0.58,-4.774l-16.527,14.129l-5.109,1.548l2.54,16.645l4.645,15.226l-5.302,-0.216l1.044,11.183l2.182,7.638l-6.118,-5.767l-19.425,-12.113l18.167,6.242l-0.629,-9.902l-17.538,-10.033l0,-1.632l7.619,2.277l13.806,5.033l-4.451,-7.484l-4.129,-1.871l2.481,-0.51l-15.326,-7.662l15.326,4.688l-1.191,-14.839l-14.135,-15.392l20.434,12.102l12.281,-9.613l4.129,-2.322l-16.41,-10.384l26.546,13.273l-1.003,-5.61l0.609,-2.118l-15.935,-10.654l20.434,7.815l7.308,-2.387l13.126,-0.319Z" style="fill:#f6e0f1;fill-opacity:0.9;"/></g><path d="M40.614,0.879l-5.108,7.663l20.434,10.217l-2.438,3.89l5.526,-2.346l-0.435,-5.326l2.455,-3.881l-20.434,-10.217Z" style="fill:#6c7157;"/><clipPath id="_clip8"><path d="M40.614,0.879l-5.108,7.663l20.434,10.217l-2.438,3.89l5.526,-2.346l-0.435,-5.326l2.455,-3.881l-20.434,-10.217Z"/></clipPath><g clip-path="url(#_clip8)"><path d="M81.482,5.988l-18.481,6.9l-1.279,3.654l-0.674,5.442l-9.595,1.807l0.58,-4.774l-16.527,14.129l-5.109,1.548l2.54,16.645l4.645,15.226l-5.302,-0.216l1.044,11.183l2.182,7.638l-6.118,-5.767l-19.425,-12.113l18.167,6.242l-0.629,-9.902l-17.538,-10.033l0,-1.632l7.619,2.277l13.806,5.033l-4.451,-7.484l-4.129,-1.871l2.481,-0.51l-15.326,-7.662l15.326,4.688l-1.191,-14.839l-14.135,-15.392l20.434,12.102l12.281,-9.613l4.129,-2.322l-16.41,-10.384l26.546,13.273l-1.003,-5.61l0.609,-2.118l-15.935,-10.654l20.434,7.815l7.308,-2.387l13.126,-0.319Z" style="fill:#f6e0f1;fill-opacity:0.9;"/></g><g><path d="M40.698,34.11l0,36.821l4.605,-2.31l0.503,-11.192l30.651,-41.23l-6.337,3.075l-25.143,30.617l0.326,-8.886l13.818,-16.134l-6.673,3.346l-7.145,8.513l0,-4.93l-4.605,2.31Z" style="fill:#6ee33b;"/><path d="M40.698,70.931l4.605,0.758l4.606,-2.309l-4.606,-0.759l-4.605,2.31Z" style="fill:#f6e0f1;"/><path d="M49.909,69.38l0.223,-13.993l-4.829,-0.018l0,13.252l4.606,0.759Z" style="fill:#6c7157;"/><path d="M45.303,55.247l31.154,-39.021l0,4.759l-26.548,34.376l-4.606,-0.114Z" style="fill:#6c7157;"/><path d="M49.918,39.372l9.16,-10.723l0.214,-3.853l-13.989,16.209l4.615,-1.633Z" style="fill:#6c7157;"/><path d="M45.356,31.769l-0.056,4.972l4.05,-4.8l0.013,-2.182l-4.007,2.01Z" style="fill:#395346;"/><path d="M45.304,41.048l4.562,-1.591l-0.258,4.834l-4.616,5.592l0.312,-8.835Z" style="fill:#6c7157;"/></g></g></g></g><path d="M79.262,48.452c0,0 6.024,1.537 4.352,7.225c-1.672,5.688 -0.692,6.842 -2.096,11.265c-1.404,4.423 -2.576,0.767 -5.109,5.714c-2.445,4.776 -1.717,6.082 -12.733,10.908c-0.391,0.171 1.248,-3.193 0.821,-3.003c-0.898,0.399 -1.669,0.754 -2.331,1.07c-8.523,4.067 0.852,1.734 -12.241,5.274c-0.883,0.239 3.879,1.316 3.075,1.538c-0.803,0.222 -3.476,-0.207 -4.251,-0.008c-2.579,0.663 -4.884,1.237 -6.919,1.727c-0.37,0.089 1.938,2.016 -1.083,0.259c-5.189,-3.018 -9.235,2.024 -10.314,2.064c-1.717,0.063 -4.566,-3.054 -7.872,-1.173c-3.307,1.881 -2.554,4.569 -5.78,1.343c-1.544,-1.543 -3.353,-0.852 -3.846,-1.639c-0.537,-0.857 0.226,-3.128 -2.108,-3.226c-0.532,-0.022 -1.71,4.029 -2.194,4.012c-3.598,-0.129 -5.277,-4.16 -6.947,-3.474c-1.894,0.779 -2.04,-0.866 0.667,-4.775c2.707,-3.908 3.812,-1.698 3.69,-4.416c-0.122,-2.718 -2.473,-3.872 -2.473,-3.872c0,0 -1.965,1.936 -1.474,-2.057c0.491,-3.993 -0.318,-4.202 0.839,-4.689c1.158,-0.487 1.892,1.663 1.955,-1.24c0.063,-2.903 -0.708,-1.505 0,-3.763c0.708,-2.258 0.201,-0.492 1.315,-3.579c1.114,-3.088 0.451,-5.273 0.46,-6.654c0.008,-1.38 -1.067,-0.412 0.008,-1.703c1.076,-1.29 5.754,-2.798 7.34,-3.065c1.585,-0.268 7.176,1.13 7.176,1.13l-11.19,2.263l0,15.034l5.108,7.663c0,0 0.364,2.441 2.875,1.437c2.512,-1.004 1.961,-1.004 3.007,-1.004c1.046,0 0.881,-0.055 2.808,1.487c1.927,1.541 3.276,2.314 3.276,2.314c0,0 1.568,1.099 2.669,1.705c1.102,0.605 1.717,2.237 1.717,2.237l0.486,-0.751c0,0 0.4,0.25 0.365,-0.701c-0.035,-0.951 0.35,-2.712 0.158,-3.153c-0.193,-0.44 -1.294,-1.266 0.192,-0.55c1.487,0.715 0.969,0.76 2.054,1.673c1.084,0.914 -1.019,1.928 1.96,0.98c2.978,-0.947 2.056,-1.222 3.976,-1.112c1.92,0.11 1.094,1.321 3.021,0.055c1.927,-1.266 1.927,-0.495 2.643,-1.761c0.715,-1.267 0.66,-1.652 0.66,-1.652c0,0 -2.242,1.017 -0.048,-0.62l2.195,-1.637c0,0 -0.569,0.899 0.101,-0.679c0.67,-1.578 0.638,-0.587 1.645,-2.239c1.007,-1.652 0.122,-1.864 1.996,-2.694c1.874,-0.829 -0.108,-2.041 2.204,-0.94c2.312,1.101 0.378,0.481 3.492,1.204c3.114,0.723 3.39,0.503 4.546,0.723c1.156,0.22 -1.377,-1.101 1.266,-2.918c2.643,-1.816 3.065,-0.587 3.019,-2.22c-0.046,-1.633 -2.524,-2.679 0.119,-2.789c2.643,-0.111 -1.705,2.033 2.671,0.273c4.376,-1.76 3.88,-0.439 4.706,-1.87c0.826,-1.431 1.836,-1.486 1.523,-2.698c-0.312,-1.211 -0.404,-2.332 -0.404,-2.332l2.892,2.961l0.365,-8.882Z" style="fill:#546c45;"/><clipPath id="_clip9"><path d="M79.262,48.452c0,0 6.024,1.537 4.352,7.225c-1.672,5.688 -0.692,6.842 -2.096,11.265c-1.404,4.423 -2.576,0.767 -5.109,5.714c-2.445,4.776 -1.717,6.082 -12.733,10.908c-0.391,0.171 1.248,-3.193 0.821,-3.003c-0.898,0.399 -1.669,0.754 -2.331,1.07c-8.523,4.067 0.852,1.734 -12.241,5.274c-0.883,0.239 3.879,1.316 3.075,1.538c-0.803,0.222 -3.476,-0.207 -4.251,-0.008c-2.579,0.663 -4.884,1.237 -6.919,1.727c-0.37,0.089 1.938,2.016 -1.083,0.259c-5.189,-3.018 -9.235,2.024 -10.314,2.064c-1.717,0.063 -4.566,-3.054 -7.872,-1.173c-3.307,1.881 -2.554,4.569 -5.78,1.343c-1.544,-1.543 -3.353,-0.852 -3.846,-1.639c-0.537,-0.857 0.226,-3.128 -2.108,-3.226c-0.532,-0.022 -1.71,4.029 -2.194,4.012c-3.598,-0.129 -5.277,-4.16 -6.947,-3.474c-1.894,0.779 -2.04,-0.866 0.667,-4.775c2.707,-3.908 3.812,-1.698 3.69,-4.416c-0.122,-2.718 -2.473,-3.872 -2.473,-3.872c0,0 -1.965,1.936 -1.474,-2.057c0.491,-3.993 -0.318,-4.202 0.839,-4.689c1.158,-0.487 1.892,1.663 1.955,-1.24c0.063,-2.903 -0.708,-1.505 0,-3.763c0.708,-2.258 0.201,-0.492 1.315,-3.579c1.114,-3.088 0.451,-5.273 0.46,-6.654c0.008,-1.38 -1.067,-0.412 0.008,-1.703c1.076,-1.29 5.754,-2.798 7.34,-3.065c1.585,-0.268 7.176,1.13 7.176,1.13l-11.19,2.263l0,15.034l5.108,7.663c0,0 0.364,2.441 2.875,1.437c2.512,-1.004 1.961,-1.004 3.007,-1.004c1.046,0 0.881,-0.055 2.808,1.487c1.927,1.541 3.276,2.314 3.276,2.314c0,0 1.568,1.099 2.669,1.705c1.102,0.605 1.717,2.237 1.717,2.237l0.486,-0.751c0,0 0.4,0.25 0.365,-0.701c-0.035,-0.951 0.35,-2.712 0.158,-3.153c-0.193,-0.44 -1.294,-1.266 0.192,-0.55c1.487,0.715 0.969,0.76 2.054,1.673c1.084,0.914 -1.019,1.928 1.96,0.98c2.978,-0.947 2.056,-1.222 3.976,-1.112c1.92,0.11 1.094,1.321 3.021,0.055c1.927,-1.266 1.927,-0.495 2.643,-1.761c0.715,-1.267 0.66,-1.652 0.66,-1.652c0,0 -2.242,1.017 -0.048,-0.62l2.195,-1.637c0,0 -0.569,0.899 0.101,-0.679c0.67,-1.578 0.638,-0.587 1.645,-2.239c1.007,-1.652 0.122,-1.864 1.996,-2.694c1.874,-0.829 -0.108,-2.041 2.204,-0.94c2.312,1.101 0.378,0.481 3.492,1.204c3.114,0.723 3.39,0.503 4.546,0.723c1.156,0.22 -1.377,-1.101 1.266,-2.918c2.643,-1.816 3.065,-0.587 3.019,-2.22c-0.046,-1.633 -2.524,-2.679 0.119,-2.789c2.643,-0.111 -1.705,2.033 2.671,0.273c4.376,-1.76 3.88,-0.439 4.706,-1.87c0.826,-1.431 1.836,-1.486 1.523,-2.698c-0.312,-1.211 -0.404,-2.332 -0.404,-2.332l2.892,2.961l0.365,-8.882Z"/></clipPath><g clip-path="url(#_clip9)"><path d="M85.812,36.46l18.329,50.033l-68.039,22.174l-11.592,-5.796l28.829,-46.888l32.473,-19.523" style="fill:#c4e783;fill-opacity:0.5;"/><path d="M87.861,52.204l-4.555,4.581l-1.788,1.226c0,0 0.431,2.914 0,3.822c-0.432,0.909 -2.455,3.881 -2.455,3.881c0,0 -0.557,0.899 -1.632,1.974c-1.076,1.076 -1.874,1.382 -1.874,1.382l-0.688,-0.344l2.562,-6.522l0.645,-1.075l-1.667,-0.537c0,0 -2.419,2.795 -3.172,4.193c-0.753,1.398 -0.901,1.639 -0.901,1.639c0,0 0.147,0.512 -1.035,1.694c-1.182,1.183 -2.522,2.249 -1.959,2.953c0.562,0.703 0.866,1.526 0.866,1.526c0,0 -1.81,1.005 -3.1,0.36c-1.29,-0.645 0.323,-0.968 -1.935,-1.505c-2.258,-0.538 -3.018,-1.062 -5.918,-0.316c-2.9,0.746 -4.082,-6.136 -5.373,0.746c-1.29,6.881 -2.482,7.204 -3.015,8.064c-0.533,0.86 1.737,1.159 -1.656,1.494c-3.393,0.334 -4.683,0.442 -4.683,0.442c0,0 -4.619,2.267 -6.557,1.725c-1.938,-0.543 0.842,-1.188 -2.43,-0.435c-3.271,0.753 -7.808,1.505 -10.217,2.581c-2.409,1.075 -4.448,2.051 -7.461,2.799c-3.013,0.749 -2.275,0.84 -0.785,-0.397c4.038,-3.353 -6.058,-0.789 -4.748,-3.159c1.582,-2.863 2.777,-2.792 2.777,-2.792l-3.037,-4.009l-2.071,0.246c0,0 0.272,1.057 -1.793,-0.386c-2.065,-1.442 -2.731,-1.484 -1.914,-4.151c0.817,-2.667 2.246,-1.226 1.155,-3.129c-1.091,-1.904 -1.736,0.139 -1.091,-3.732c0.645,-3.871 0.753,-4.839 0.753,-4.839c0,0 -1.078,-2.476 -0.754,-3.657c0.323,-1.181 0.431,-2.149 0.431,-2.149l-4.542,1.558l2.646,-6.074l0,-0.86c0,0 -6.599,-2.903 -7.566,0.752c-0.968,3.656 -3.216,4.066 -1.232,13.323c1.984,9.258 2.573,10.124 1.311,15.981c-1.262,5.857 -3.843,9.621 -0.832,10.911c3.011,1.29 0.323,2.258 11.72,2.903c11.398,0.645 59.587,-4.119 59.587,-4.119l22.993,-25.343l-3.01,-13.226" style="fill:#97b366;"/><clipPath id="_clip10"><path d="M87.861,52.204l-4.555,4.581l-1.788,1.226c0,0 0.431,2.914 0,3.822c-0.432,0.909 -2.455,3.881 -2.455,3.881c0,0 -0.557,0.899 -1.632,1.974c-1.076,1.076 -1.874,1.382 -1.874,1.382l-0.688,-0.344l2.562,-6.522l0.645,-1.075l-1.667,-0.537c0,0 -2.419,2.795 -3.172,4.193c-0.753,1.398 -0.901,1.639 -0.901,1.639c0,0 0.147,0.512 -1.035,1.694c-1.182,1.183 -2.522,2.249 -1.959,2.953c0.562,0.703 0.866,1.526 0.866,1.526c0,0 -1.81,1.005 -3.1,0.36c-1.29,-0.645 0.323,-0.968 -1.935,-1.505c-2.258,-0.538 -3.018,-1.062 -5.918,-0.316c-2.9,0.746 -4.082,-6.136 -5.373,0.746c-1.29,6.881 -2.482,7.204 -3.015,8.064c-0.533,0.86 1.737,1.159 -1.656,1.494c-3.393,0.334 -4.683,0.442 -4.683,0.442c0,0 -4.619,2.267 -6.557,1.725c-1.938,-0.543 0.842,-1.188 -2.43,-0.435c-3.271,0.753 -7.808,1.505 -10.217,2.581c-2.409,1.075 -4.448,2.051 -7.461,2.799c-3.013,0.749 -2.275,0.84 -0.785,-0.397c4.038,-3.353 -6.058,-0.789 -4.748,-3.159c1.582,-2.863 2.777,-2.792 2.777,-2.792l-3.037,-4.009l-2.071,0.246c0,0 0.272,1.057 -1.793,-0.386c-2.065,-1.442 -2.731,-1.484 -1.914,-4.151c0.817,-2.667 2.246,-1.226 1.155,-3.129c-1.091,-1.904 -1.736,0.139 -1.091,-3.732c0.645,-3.871 0.753,-4.839 0.753,-4.839c0,0 -1.078,-2.476 -0.754,-3.657c0.323,-1.181 0.431,-2.149 0.431,-2.149l-4.542,1.558l2.646,-6.074l0,-0.86c0,0 -6.599,-2.903 -7.566,0.752c-0.968,3.656 -3.216,4.066 -1.232,13.323c1.984,9.258 2.573,10.124 1.311,15.981c-1.262,5.857 -3.843,9.621 -0.832,10.911c3.011,1.29 0.323,2.258 11.72,2.903c11.398,0.645 59.587,-4.119 59.587,-4.119l22.993,-25.343l-3.01,-13.226"/></clipPath><g clip-path="url(#_clip10)"><path d="M85.812,36.46l18.329,50.033l-68.039,22.174l-11.592,-5.796l28.829,-46.888l32.473,-19.523" style="fill:#c4e783;fill-opacity:0.5;"/></g><path d="M29.618,69.666l-34.27,22.243l-1.489,-52.229l38.658,5.892l-2.899,24.094" style="fill-opacity:0.5;"/></g></g></svg>