<?xml version="1.0" encoding="UTF-8" standalone="no"?><!DOCTYPE svg PUBLIC "-//W3C//DTD SVG 1.1//EN" "http://www.w3.org/Graphics/SVG/1.1/DTD/svg11.dtd"><svg width="100%" height="100%" viewBox="0 0 73 98" version="1.1" xmlns="http://www.w3.org/2000/svg" xmlns:xlink="http://www.w3.org/1999/xlink" xml:space="preserve" xmlns:serif="http://www.serif.com/" style="fill-rule:evenodd;clip-rule:evenodd;stroke-linejoin:round;stroke-miterlimit:1.41421;"><g id="F_Runestone_1"><g><g><g><path d="M51.986,0.52l20.434,10.217l-20.434,10.217l-20.434,-10.217l20.434,-10.217Z" style="fill:#9da8c9;"/><clipPath id="_clip1"><path d="M51.986,0.52l20.434,10.217l-20.434,10.217l-20.434,-10.217l20.434,-10.217Z"/></clipPath><g clip-path="url(#_clip1)"><path d="M72.42,10.737l-20.434,7.207l-20.434,-7.207l16.529,11.038l-2.017,4.234l-4.295,0.054l-20.434,-10.217l15.326,9.86l-14.488,7.762l-21.272,-7.405l18.954,12.849l-0.446,18.765l-18.508,-6.071l5.109,2.554l15.325,10.054l2.855,-2.621l-2.855,7.762l-20.434,-7.532l18.752,12.069l1.682,23.69l1.936,-24.575l4.714,-14.509l-4.299,0.676l0.403,-5.141l-1.311,-16.129l18.225,-7.116l8.697,-0.76l5.175,-7.629l17.545,-11.662Z" style="fill:#f6e0f1;fill-opacity:0.9;"/></g><path d="M21.335,15.846l-20.434,10.217l20.434,10.217l20.434,-10.217l-20.434,-10.217" style="fill:#9da8c9;"/><clipPath id="_clip2"><path d="M21.335,15.846l-20.434,10.217l20.434,10.217l20.434,-10.217l-20.434,-10.217"/></clipPath><g clip-path="url(#_clip2)"><path d="M72.42,10.737l-20.434,7.207l-20.434,-7.207l16.529,11.038l-2.017,4.234l-4.295,0.054l-20.434,-10.217l15.326,9.86l-14.488,7.762l-21.272,-7.405l18.954,12.849l-0.446,18.765l-18.508,-6.071l5.109,2.554l15.325,10.054l2.855,-2.621l-2.855,7.762l-20.434,-7.532l18.752,12.069l1.682,23.69l1.936,-24.575l4.714,-14.509l-4.299,0.676l0.403,-5.141l-1.311,-16.129l18.225,-7.116l8.697,-0.76l5.175,-7.629l17.545,-11.662Z" style="fill:#f6e0f1;fill-opacity:0.9;"/></g><path d="M31.552,10.737l-5.108,7.663l20.434,10.217l5.108,-7.663l-20.434,-10.217Z" style="fill:#6c7157;"/><clipPath id="_clip3"><path d="M31.552,10.737l-5.108,7.663l20.434,10.217l5.108,-7.663l-20.434,-10.217Z"/></clipPath><g clip-path="url(#_clip3)"><path d="M75.052,69.39l-10.72,-7.911l-2.055,-16.353l-2.976,16.814l10.719,12.6l-15.707,10.328l-3.667,-13.492l1.414,-10.925l-5.108,4.654l0,13.226l-13.318,3.559l10.939,2.739l-11.142,12.484l-6.913,-10.65l-5.109,-3.655l-18.08,9.472l15.264,0.23l12.413,0.868l-4.488,7.709l-30.652,0.962l-2.387,-27.633l7.496,6.469l6.793,1.712l3.424,-1.712l-7.428,-3.714l-4.457,-12.445l-0.848,-23.451l12.733,8.959l1.983,4.117l1.42,-5.818l-3.403,-3.407l-11.817,-14.526l4.26,-17.456l17.774,16.656l-5.109,-17.88l11.545,-5.772l8.89,-4.445l7.847,9.032l4.367,5.295l3.111,-1.556l5.109,-4.977l-5.109,-3.079l0,2.948l-5.108,-2.554l2.564,-3.827l12.761,4.011l7.677,1.1l7.649,10.829l-1.661,12.599l1.661,31.481l7.734,-67.652l-72.439,-2.166l-40.256,53.098l18.116,65.252l76.628,-0.637l7.666,-41.51" style="fill:#542f7f;fill-opacity:0.7;"/><path d="M72.42,10.737l-20.434,7.207l-20.434,-7.207l16.529,11.038l-2.017,4.234l-4.295,0.054l-20.434,-10.217l15.326,9.86l-14.488,7.762l-21.272,-7.405l18.954,12.849l-0.446,18.765l-18.508,-6.071l5.109,2.554l15.325,10.054l2.855,-2.621l-2.855,7.762l-20.434,-7.532l18.752,12.069l1.682,23.69l1.936,-24.575l4.714,-14.509l-4.299,0.676l0.403,-5.141l-1.311,-16.129l18.225,-7.116l8.697,-0.76l5.175,-7.629l17.545,-11.662Z" style="fill:#f6e0f1;fill-opacity:0.9;"/></g><path d="M72.42,10.737l-20.434,10.217l-5.108,7.663l-5.109,-2.554l-20.434,10.217l0,25.543l5.109,-2.555l-5.109,12.772l0,25.542l20.434,-10.217l0,-5.108l5.109,-2.555l5.108,2.555l20.434,-10.217l0,-30.651l-5.108,2.554l5.108,-12.772l0,-20.434" style="fill:#bac1d8;"/><clipPath id="_clip4"><path d="M72.42,10.737l-20.434,10.217l-5.108,7.663l-5.109,-2.554l-20.434,10.217l0,25.543l5.109,-2.555l-5.109,12.772l0,25.542l20.434,-10.217l0,-5.108l5.109,-2.555l5.108,2.555l20.434,-10.217l0,-30.651l-5.108,2.554l5.108,-12.772l0,-20.434"/></clipPath><g clip-path="url(#_clip4)"><path d="M72.42,10.737l-20.434,7.207l-20.434,-7.207l16.529,11.038l-2.017,4.234l-4.295,0.054l-20.434,-10.217l15.326,9.86l-14.488,7.762l-21.272,-7.405l18.954,12.849l-0.446,18.765l-18.508,-6.071l5.109,2.554l15.325,10.054l2.855,-2.621l-2.855,7.762l-20.434,-7.532l18.752,12.069l1.682,23.69l1.936,-24.575l4.714,-14.509l-4.299,0.676l0.403,-5.141l-1.311,-16.129l18.225,-7.116l8.697,-0.76l5.175,-7.629l17.545,-11.662Z" style="fill:#f6e0f1;fill-opacity:0.9;"/></g><path d="M0.901,26.063l20.434,10.217l0,25.543l-20.434,-10.217l0,-25.543Z" style="fill:#6c7157;"/><clipPath id="_clip5"><path d="M0.901,26.063l20.434,10.217l0,25.543l-20.434,-10.217l0,-25.543Z"/></clipPath><g clip-path="url(#_clip5)"><path d="M72.42,10.737l-20.434,7.207l-20.434,-7.207l16.529,11.038l-2.017,4.234l-4.295,0.054l-20.434,-10.217l15.326,9.86l-14.488,7.762l-21.272,-7.405l18.954,12.849l-0.446,18.765l-18.508,-6.071l5.109,2.554l15.325,10.054l2.855,-2.621l-2.855,7.762l-20.434,-7.532l18.752,12.069l1.682,23.69l1.936,-24.575l4.714,-14.509l-4.299,0.676l0.403,-5.141l-1.311,-16.129l18.225,-7.116l8.697,-0.76l5.175,-7.629l17.545,-11.662Z" style="fill:#f6e0f1;fill-opacity:0.4;"/></g><path d="M21.335,97.582l-20.434,-10.217l0,-25.542l20.434,10.217l0,25.542" style="fill:#6c7157;"/><clipPath id="_clip6"><path d="M21.335,97.582l-20.434,-10.217l0,-25.542l20.434,10.217l0,25.542"/></clipPath><g clip-path="url(#_clip6)"><path d="M72.42,10.737l-20.434,7.207l-20.434,-7.207l16.529,11.038l-2.017,4.234l-4.295,0.054l-20.434,-10.217l15.326,9.86l-14.488,7.762l-21.272,-7.405l18.954,12.849l-0.446,18.765l-18.508,-6.071l5.109,2.554l15.325,10.054l2.855,-2.621l-2.855,7.762l-20.434,-7.532l18.752,12.069l1.682,23.69l1.936,-24.575l4.714,-14.509l-4.299,0.676l0.403,-5.141l-1.311,-16.129l18.225,-7.116l8.697,-0.76l5.175,-7.629l17.545,-11.662Z" style="fill:#f6e0f1;fill-opacity:0.4;"/></g><path d="M0.901,51.606l5.109,2.554l-5.109,7.663l20.434,10.217l5.109,-12.772l-5.109,2.555l-20.434,-10.217Z" style="fill:#395346;"/><clipPath id="_clip7"><path d="M0.901,51.606l5.109,2.554l-5.109,7.663l20.434,10.217l5.109,-12.772l-5.109,2.555l-20.434,-10.217Z"/></clipPath><g clip-path="url(#_clip7)"><path d="M72.42,10.737l-20.434,7.207l-20.434,-7.207l16.529,11.038l-2.017,4.234l-4.295,0.054l-20.434,-10.217l15.326,9.86l-14.488,7.762l-21.272,-7.405l18.954,12.849l-0.446,18.765l-18.508,-6.071l5.109,2.554l15.325,10.054l2.855,-2.621l-2.855,7.762l-20.434,-7.532l18.752,12.069l1.682,23.69l1.936,-24.575l4.714,-14.509l-4.299,0.676l0.403,-5.141l-1.311,-16.129l18.225,-7.116l8.697,-0.76l5.175,-7.629l17.545,-11.662Z" style="fill:#f6e0f1;fill-opacity:0.4;"/></g></g><g><path d="M31.552,43.902l0,36.821l4.606,-2.31l0.503,-11.192l30.651,-41.23l-6.337,3.075l-25.143,30.617l0.326,-8.886l13.817,-16.134l-6.672,3.346l-7.145,8.513l0,-4.93l-4.606,2.31Z" style="fill:#6ee33b;"/><path d="M31.552,80.723l4.606,0.758l4.606,-2.309l-4.606,-0.759l-4.606,2.31Z" style="fill:#f6e0f1;"/><path d="M40.764,79.172l0.223,-13.993l-4.829,-0.018l0,13.252l4.606,0.759Z" style="fill:#6c7157;"/><path d="M36.158,65.039l31.154,-39.021l0,4.759l-26.548,34.376l-4.606,-0.114Z" style="fill:#6c7157;"/><path d="M40.772,49.164l9.161,-10.723l0.214,-3.853l-13.989,16.209l4.614,-1.633Z" style="fill:#6c7157;"/><path d="M36.21,41.561l-0.056,4.972l4.05,-4.8l0.013,-2.182l-4.007,2.01Z" style="fill:#395346;"/><path d="M36.158,50.84l4.562,-1.591l-0.257,4.834l-4.616,5.592l0.311,-8.835Z" style="fill:#6c7157;"/></g></g></g></g></svg>