<?xml version="1.0" encoding="UTF-8" standalone="no"?><!DOCTYPE svg PUBLIC "-//W3C//DTD SVG 1.1//EN" "http://www.w3.org/Graphics/SVG/1.1/DTD/svg11.dtd"><svg width="100%" height="100%" viewBox="0 0 73 85" version="1.1" xmlns="http://www.w3.org/2000/svg" xmlns:xlink="http://www.w3.org/1999/xlink" xml:space="preserve" xmlns:serif="http://www.serif.com/" style="fill-rule:evenodd;clip-rule:evenodd;stroke-linejoin:round;stroke-miterlimit:1.41421;"><g id="F_Runestone_runes_2"><g><g><path d="M51.834,0.444l20.434,5.108l-20.434,5.109l-20.434,-10.217l20.434,0Z" style="fill:#9da8c9;"/><clipPath id="_clip1"><path d="M51.834,0.444l20.434,5.108l-20.434,5.109l-20.434,-10.217l20.434,0Z"/></clipPath><g clip-path="url(#_clip1)"><path d="M72.342,70.592l-8.123,-11.265l8.123,-14.278l-8.69,5.872l-1.527,-10.981l-5.109,-2.554l1.599,5.908l0.902,8.167l-7.609,3.805l-1.67,-4.274l-3.439,5.297l0,6.64l8.106,-1.056l7.22,6.731l-10.217,12.205l-15.326,-2.555l-10.217,-5.108l-1.553,5.885l1.553,-0.777l7.89,3.946l-38.541,1.163l0,-20.434l18.658,5.996l-18.658,-16.213l0,-15.326l7.231,8.724l10.173,-7.209l-14.22,-18.433l9.123,-17.797l3.018,13.211l5.109,6.179l10.217,-3.293l0,-6.925l-2.676,6.447l-7.541,-1.338l10.217,-11.653l6.839,-10.47l13.595,10.277l10.217,1.629l-5.108,-2.554l-3.674,-8.381l24.108,5.843l-5.109,10.2l3.652,3.283l-6.602,15.677l11.809,-2.955l3.084,-40.684l-80.272,5.841l-16.808,107.384l98.739,-15.334l-8.493,-14.463Z" style="fill:#542f7f;fill-opacity:0.7;"/><path d="M72.268,5.552l-18.482,6.9l-1.278,3.654l-0.674,5.443l-9.596,1.806l0.581,-4.774l-16.528,14.129l-5.108,1.548l2.539,16.645l4.645,15.226l-5.301,-0.216l1.043,11.184l2.182,7.637l-6.117,-5.766l-19.426,-12.114l18.168,6.242l-0.629,-9.902l-17.539,-10.033l0,-1.632l7.619,2.277l13.807,5.033l-4.452,-7.484l-4.129,-1.871l2.481,-0.509l-15.326,-7.663l15.326,4.688l-1.191,-14.839l-14.135,-15.392l20.435,12.102l12.281,-9.613l4.129,-2.322l-16.41,-10.384l26.546,13.273l-1.004,-5.61l0.61,-2.118l-15.935,-10.653l20.434,7.814l7.307,-2.387l13.127,-0.319Z" style="fill:#f6e0f1;fill-opacity:0.9;"/></g><path d="M21.183,5.552l-5.109,7.663l-15.326,2.554l17.853,14.035l6.39,1.254l11.517,-12.735l5.109,-2.554l-20.434,-10.217" style="fill:#9da8c9;"/><clipPath id="_clip2"><path d="M21.183,5.552l-5.109,7.663l-15.326,2.554l17.853,14.035l6.39,1.254l11.517,-12.735l5.109,-2.554l-20.434,-10.217"/></clipPath><g clip-path="url(#_clip2)"><path d="M72.342,70.592l-8.123,-11.265l8.123,-14.278l-8.69,5.872l-1.527,-10.981l-5.109,-2.554l1.599,5.908l0.902,8.167l-7.609,3.805l-1.67,-4.274l-3.439,5.297l0,6.64l8.106,-1.056l7.22,6.731l-10.217,12.205l-15.326,-2.555l-10.217,-5.108l-1.553,5.885l1.553,-0.777l7.89,3.946l-38.541,1.163l0,-20.434l18.658,5.996l-18.658,-16.213l0,-15.326l7.231,8.724l10.173,-7.209l-14.22,-18.433l9.123,-17.797l3.018,13.211l5.109,6.179l10.217,-3.293l0,-6.925l-2.676,6.447l-7.541,-1.338l10.217,-11.653l6.839,-10.47l13.595,10.277l10.217,1.629l-5.108,-2.554l-3.674,-8.381l24.108,5.843l-5.109,10.2l3.652,3.283l-6.602,15.677l11.809,-2.955l3.084,-40.684l-80.272,5.841l-16.808,107.384l98.739,-15.334l-8.493,-14.463Z" style="fill:#542f7f;fill-opacity:0.7;"/><path d="M72.268,5.552l-18.482,6.9l-1.278,3.654l-0.674,5.443l-9.596,1.806l0.581,-4.774l-16.528,14.129l-5.108,1.548l2.539,16.645l4.645,15.226l-5.301,-0.216l1.043,11.184l2.182,7.637l-6.117,-5.766l-19.426,-12.114l18.168,6.242l-0.629,-9.902l-17.539,-10.033l0,-1.632l7.619,2.277l13.807,5.033l-4.452,-7.484l-4.129,-1.871l2.481,-0.509l-15.326,-7.663l15.326,4.688l-1.191,-14.839l-14.135,-15.392l20.435,12.102l12.281,-9.613l4.129,-2.322l-16.41,-10.384l26.546,13.273l-1.004,-5.61l0.61,-2.118l-15.935,-10.653l20.434,7.814l7.307,-2.387l13.127,-0.319Z" style="fill:#f6e0f1;fill-opacity:0.9;"/></g><path d="M72.268,5.552l-20.434,5.109l-5.109,7.662l-5.108,-2.554l-5.109,2.554l-11.468,12.687l-6.441,-1.207l2.584,21.726l5.108,12.771l-5.108,-2.554l0,15.325l5.108,7.663l15.326,-7.663l0,-5.108l5.108,-2.554l5.109,2.554l17.456,-8.728l1.11,-22.857l1.868,-9.283l-5.109,2.554l5.109,-12.771l0,-15.326Z" style="fill:#bac1d8;"/><clipPath id="_clip3"><path d="M72.268,5.552l-20.434,5.109l-5.109,7.662l-5.108,-2.554l-5.109,2.554l-11.468,12.687l-6.441,-1.207l2.584,21.726l5.108,12.771l-5.108,-2.554l0,15.325l5.108,7.663l15.326,-7.663l0,-5.108l5.108,-2.554l5.109,2.554l17.456,-8.728l1.11,-22.857l1.868,-9.283l-5.109,2.554l5.109,-12.771l0,-15.326Z"/></clipPath><g clip-path="url(#_clip3)"><path d="M72.342,70.592l-8.123,-11.265l8.123,-14.278l-8.69,5.872l-1.527,-10.981l-5.109,-2.554l1.599,5.908l0.902,8.167l-7.609,3.805l-1.67,-4.274l-3.439,5.297l0,6.64l8.106,-1.056l7.22,6.731l-10.217,12.205l-15.326,-2.555l-10.217,-5.108l-1.553,5.885l1.553,-0.777l7.89,3.946l-38.541,1.163l0,-20.434l18.658,5.996l-18.658,-16.213l0,-15.326l7.231,8.724l10.173,-7.209l-14.22,-18.433l9.123,-17.797l3.018,13.211l5.109,6.179l10.217,-3.293l0,-6.925l-2.676,6.447l-7.541,-1.338l10.217,-11.653l6.839,-10.47l13.595,10.277l10.217,1.629l-5.108,-2.554l-3.674,-8.381l24.108,5.843l-5.109,10.2l3.652,3.283l-6.602,15.677l11.809,-2.955l3.084,-40.684l-80.272,5.841l-16.808,107.384l98.739,-15.334l-8.493,-14.463Z" style="fill:#542f7f;fill-opacity:0.7;"/><path d="M72.268,5.552l-18.482,6.9l-1.278,3.654l-0.674,5.443l-9.596,1.806l0.581,-4.774l-16.528,14.129l-5.108,1.548l2.539,16.645l4.645,15.226l-5.301,-0.216l1.043,11.184l2.182,7.637l-6.117,-5.766l-19.426,-12.114l18.168,6.242l-0.629,-9.902l-17.539,-10.033l0,-1.632l7.619,2.277l13.807,5.033l-4.452,-7.484l-4.129,-1.871l2.481,-0.509l-15.326,-7.663l15.326,4.688l-1.191,-14.839l-14.135,-15.392l20.435,12.102l12.281,-9.613l4.129,-2.322l-16.41,-10.384l26.546,13.273l-1.004,-5.61l0.61,-2.118l-15.935,-10.653l20.434,7.814l7.307,-2.387l13.127,-0.319Z" style="fill:#f6e0f1;fill-opacity:0.9;"/></g><path d="M0.748,15.769l17.853,14.035l2.582,21.725l-20.435,-10.217l1.888,-9.274l-1.888,-16.269Z" style="fill:#6c7157;"/><clipPath id="_clip4"><path d="M0.748,15.769l17.853,14.035l2.582,21.725l-20.435,-10.217l1.888,-9.274l-1.888,-16.269Z"/></clipPath><g clip-path="url(#_clip4)"><path d="M72.342,70.592l-8.123,-11.265l8.123,-14.278l-8.69,5.872l-1.527,-10.981l-5.109,-2.554l1.599,5.908l0.902,8.167l-7.609,3.805l-1.67,-4.274l-3.439,5.297l0,6.64l8.106,-1.056l7.22,6.731l-10.217,12.205l-15.326,-2.555l-10.217,-5.108l-1.553,5.885l1.553,-0.777l7.89,3.946l-38.541,1.163l0,-20.434l18.658,5.996l-18.658,-16.213l0,-15.326l7.231,8.724l10.173,-7.209l-14.22,-18.433l9.123,-17.797l3.018,13.211l5.109,6.179l10.217,-3.293l0,-6.925l-2.676,6.447l-7.541,-1.338l10.217,-11.653l6.839,-10.47l13.595,10.277l10.217,1.629l-5.108,-2.554l-3.674,-8.381l24.108,5.843l-5.109,10.2l3.652,3.283l-6.602,15.677l11.809,-2.955l3.084,-40.684l-80.272,5.841l-16.808,107.384l98.739,-15.334l-8.493,-14.463Z" style="fill:#542f7f;fill-opacity:0.7;"/><path d="M72.268,5.552l-18.482,6.9l-1.278,3.654l-0.674,5.443l-9.596,1.806l0.581,-4.774l-16.528,14.129l-5.108,1.548l2.539,16.645l4.645,15.226l-5.301,-0.216l1.043,11.184l2.182,7.637l-6.117,-5.766l-19.426,-12.114l18.168,6.242l-0.629,-9.902l-17.539,-10.033l0,-1.632l7.619,2.277l13.807,5.033l-4.452,-7.484l-4.129,-1.871l2.481,-0.509l-15.326,-7.663l15.326,4.688l-1.191,-14.839l-14.135,-15.392l20.435,12.102l12.281,-9.613l4.129,-2.322l-16.41,-10.384l26.546,13.273l-1.004,-5.61l0.61,-2.118l-15.935,-10.653l20.434,7.814l7.307,-2.387l13.127,-0.319Z" style="fill:#f6e0f1;fill-opacity:0.4;"/></g><path d="M26.291,84.734l-20.434,-10.217l-5.109,-7.663l0,-15.325l20.435,10.217l0,15.325l5.108,7.663Z" style="fill:#6c7157;"/><clipPath id="_clip5"><path d="M26.291,84.734l-20.434,-10.217l-5.109,-7.663l0,-15.325l20.435,10.217l0,15.325l5.108,7.663Z"/></clipPath><g clip-path="url(#_clip5)"><path d="M72.342,70.592l-8.123,-11.265l8.123,-14.278l-8.69,5.872l-1.527,-10.981l-5.109,-2.554l1.599,5.908l0.902,8.167l-7.609,3.805l-1.67,-4.274l-3.439,5.297l0,6.64l8.106,-1.056l7.22,6.731l-10.217,12.205l-15.326,-2.555l-10.217,-5.108l-1.553,5.885l1.553,-0.777l7.89,3.946l-38.541,1.163l0,-20.434l18.658,5.996l-18.658,-16.213l0,-15.326l7.231,8.724l10.173,-7.209l-14.22,-18.433l9.123,-17.797l3.018,13.211l5.109,6.179l10.217,-3.293l0,-6.925l-2.676,6.447l-7.541,-1.338l10.217,-11.653l6.839,-10.47l13.595,10.277l10.217,1.629l-5.108,-2.554l-3.674,-8.381l24.108,5.843l-5.109,10.2l3.652,3.283l-6.602,15.677l11.809,-2.955l3.084,-40.684l-80.272,5.841l-16.808,107.384l98.739,-15.334l-8.493,-14.463Z" style="fill:#542f7f;fill-opacity:0.7;"/><path d="M72.268,5.552l-18.482,6.9l-1.278,3.654l-0.674,5.443l-9.596,1.806l0.581,-4.774l-16.528,14.129l-5.108,1.548l2.539,16.645l4.645,15.226l-5.301,-0.216l1.043,11.184l2.182,7.637l-6.117,-5.766l-19.426,-12.114l18.168,6.242l-0.629,-9.902l-17.539,-10.033l0,-1.632l7.619,2.277l13.807,5.033l-4.452,-7.484l-4.129,-1.871l2.481,-0.509l-15.326,-7.663l15.326,4.688l-1.191,-14.839l-14.135,-15.392l20.435,12.102l12.281,-9.613l4.129,-2.322l-16.41,-10.384l26.546,13.273l-1.004,-5.61l0.61,-2.118l-15.935,-10.653l20.434,7.814l7.307,-2.387l13.127,-0.319Z" style="fill:#f6e0f1;fill-opacity:0.4;"/></g><path d="M0.748,41.312l15.326,7.663l-15.326,2.554l25.543,12.771l-5.108,-12.771l-20.435,-10.217Z" style="fill:#395346;"/><clipPath id="_clip6"><path d="M0.748,41.312l15.326,7.663l-15.326,2.554l25.543,12.771l-5.108,-12.771l-20.435,-10.217Z"/></clipPath><g clip-path="url(#_clip6)"><path d="M72.268,5.552l-18.482,6.9l-1.278,3.654l-0.674,5.443l-9.596,1.806l0.581,-4.774l-16.528,14.129l-5.108,1.548l2.539,16.645l4.645,15.226l-5.301,-0.216l1.043,11.184l2.182,7.637l-6.117,-5.766l-19.426,-12.114l18.168,6.242l-0.629,-9.902l-17.539,-10.033l0,-1.632l7.619,2.277l13.807,5.033l-4.452,-7.484l-4.129,-1.871l2.481,-0.509l-15.326,-7.663l15.326,4.688l-1.191,-14.839l-14.135,-15.392l20.435,12.102l12.281,-9.613l4.129,-2.322l-16.41,-10.384l26.546,13.273l-1.004,-5.61l0.61,-2.118l-15.935,-10.653l20.434,7.814l7.307,-2.387l13.127,-0.319Z" style="fill:#f6e0f1;fill-opacity:0.4;"/></g><path d="M0.748,66.854l20.435,10.217l5.108,7.663l-20.434,-10.217l-5.109,-7.663Z" style="fill:#395346;"/><clipPath id="_clip7"><path d="M0.748,66.854l20.435,10.217l5.108,7.663l-20.434,-10.217l-5.109,-7.663Z"/></clipPath><g clip-path="url(#_clip7)"><path d="M72.268,5.552l-18.482,6.9l-1.278,3.654l-0.674,5.443l-9.596,1.806l0.581,-4.774l-16.528,14.129l-5.108,1.548l2.539,16.645l4.645,15.226l-5.301,-0.216l1.043,11.184l2.182,7.637l-6.117,-5.766l-19.426,-12.114l18.168,6.242l-0.629,-9.902l-17.539,-10.033l0,-1.632l7.619,2.277l13.807,5.033l-4.452,-7.484l-4.129,-1.871l2.481,-0.509l-15.326,-7.663l15.326,4.688l-1.191,-14.839l-14.135,-15.392l20.435,12.102l12.281,-9.613l4.129,-2.322l-16.41,-10.384l26.546,13.273l-1.004,-5.61l0.61,-2.118l-15.935,-10.653l20.434,7.814l7.307,-2.387l13.127,-0.319Z" style="fill:#f6e0f1;fill-opacity:0.9;"/></g><path d="M31.4,0.444l-5.109,7.662l20.434,10.217l-2.438,3.89l5.527,-2.345l-0.435,-5.326l2.455,-3.881l-20.434,-10.217Z" style="fill:#6c7157;"/><clipPath id="_clip8"><path d="M31.4,0.444l-5.109,7.662l20.434,10.217l-2.438,3.89l5.527,-2.345l-0.435,-5.326l2.455,-3.881l-20.434,-10.217Z"/></clipPath><g clip-path="url(#_clip8)"><path d="M72.268,5.552l-18.482,6.9l-1.278,3.654l-0.674,5.443l-9.596,1.806l0.581,-4.774l-16.528,14.129l-5.108,1.548l2.539,16.645l4.645,15.226l-5.301,-0.216l1.043,11.184l2.182,7.637l-6.117,-5.766l-19.426,-12.114l18.168,6.242l-0.629,-9.902l-17.539,-10.033l0,-1.632l7.619,2.277l13.807,5.033l-4.452,-7.484l-4.129,-1.871l2.481,-0.509l-15.326,-7.663l15.326,4.688l-1.191,-14.839l-14.135,-15.392l20.435,12.102l12.281,-9.613l4.129,-2.322l-16.41,-10.384l26.546,13.273l-1.004,-5.61l0.61,-2.118l-15.935,-10.653l20.434,7.814l7.307,-2.387l13.127,-0.319Z" style="fill:#f6e0f1;fill-opacity:0.9;"/></g><g><path d="M31.483,33.674l0,36.821l4.606,-2.31l0.503,-11.192l30.651,-41.23l-6.337,3.076l-25.143,30.616l0.326,-8.885l13.817,-16.134l-6.672,3.346l-7.145,8.513l0,-4.931l-4.606,2.31Z" style="fill:#6ee33b;"/><path d="M31.483,70.495l4.606,0.759l4.606,-2.31l-4.606,-0.759l-4.606,2.31Z" style="fill:#f6e0f1;"/><path d="M40.695,68.944l0.223,-13.993l-4.829,-0.018l0,13.252l4.606,0.759Z" style="fill:#6c7157;"/><path d="M36.089,54.811l31.154,-39.021l0,4.76l-26.548,34.375l-4.606,-0.114Z" style="fill:#6c7157;"/><path d="M40.703,38.936l9.161,-10.723l0.213,-3.853l-13.988,16.21l4.614,-1.634Z" style="fill:#6c7157;"/><path d="M36.141,31.333l-0.056,4.973l4.05,-4.801l0.013,-2.182l-4.007,2.01Z" style="fill:#395346;"/><path d="M36.089,40.612l4.562,-1.591l-0.258,4.834l-4.615,5.592l0.311,-8.835Z" style="fill:#6c7157;"/></g></g></g></g></svg>