<?xml version="1.0" encoding="UTF-8" standalone="no"?><!DOCTYPE svg PUBLIC "-//W3C//DTD SVG 1.1//EN" "http://www.w3.org/Graphics/SVG/1.1/DTD/svg11.dtd"><svg width="100%" height="100%" viewBox="0 0 85 97" version="1.1" xmlns="http://www.w3.org/2000/svg" xmlns:xlink="http://www.w3.org/1999/xlink" xml:space="preserve" xmlns:serif="http://www.serif.com/" style="fill-rule:evenodd;clip-rule:evenodd;stroke-linejoin:round;stroke-miterlimit:1.41421;"><g id="N_Runestone_mossy_runes_2"><g id="F_Runestone_grass_runes_2"><g id="F_Runestone_runes_2"><g><g><path d="M61.215,3.267l20.434,5.108l-20.434,5.109l-20.434,-10.217l20.434,0Z" style="fill:#9da8c9;"/><clipPath id="_clip1"><path d="M61.215,3.267l20.434,5.108l-20.434,5.109l-20.434,-10.217l20.434,0Z"/></clipPath><g clip-path="url(#_clip1)"><path d="M81.723,73.415l-8.122,-11.265l8.122,-14.278l-8.689,5.872l-1.528,-10.98l-5.109,-2.555l1.599,5.908l0.902,8.168l-7.609,3.804l-1.669,-4.274l-3.44,5.297l0,6.64l8.107,-1.056l7.219,6.731l-10.217,12.205l-15.326,-2.555l-10.217,-5.108l-1.552,5.885l1.552,-0.777l7.891,3.946l-38.542,1.163l0,-20.434l18.658,5.996l-18.658,-16.213l0,-15.326l7.232,8.725l10.172,-7.21l-14.219,-18.433l9.122,-17.796l3.019,13.21l5.108,6.179l10.217,-3.293l0,-6.924l-2.675,6.446l-7.542,-1.338l10.217,-11.653l6.839,-10.47l13.595,10.278l10.217,1.628l-5.108,-2.554l-3.674,-8.38l24.108,5.842l-5.109,10.201l3.652,3.282l-6.601,15.677l11.808,-2.954l3.084,-40.685l-80.272,5.841l-16.808,107.384l98.74,-15.333l-8.494,-14.464Z" style="fill:#542f7f;fill-opacity:0.7;"/><path d="M81.649,8.375l-18.481,6.9l-1.279,3.654l-0.674,5.443l-9.596,1.806l0.581,-4.774l-16.528,14.129l-5.108,1.548l2.539,16.645l4.646,15.226l-5.302,-0.216l1.044,11.184l2.181,7.637l-6.117,-5.766l-19.425,-12.113l18.167,6.242l-0.629,-9.903l-17.538,-10.033l0,-1.632l7.619,2.278l13.806,5.032l-4.452,-7.484l-4.129,-1.871l2.481,-0.509l-15.325,-7.663l15.325,4.688l-1.19,-14.838l-14.135,-15.393l20.434,12.102l12.281,-9.613l4.129,-2.322l-16.41,-10.384l26.546,13.273l-1.004,-5.61l0.61,-2.118l-15.935,-10.653l20.434,7.815l7.308,-2.388l13.126,-0.319Z" style="fill:#f6e0f1;fill-opacity:0.9;"/></g><path d="M30.564,8.375l-5.109,7.663l-15.325,2.554l17.852,14.035l6.39,1.254l11.517,-12.734l5.109,-2.555l-20.434,-10.217" style="fill:#9da8c9;"/><clipPath id="_clip2"><path d="M30.564,8.375l-5.109,7.663l-15.325,2.554l17.852,14.035l6.39,1.254l11.517,-12.734l5.109,-2.555l-20.434,-10.217"/></clipPath><g clip-path="url(#_clip2)"><path d="M81.723,73.415l-8.122,-11.265l8.122,-14.278l-8.689,5.872l-1.528,-10.98l-5.109,-2.555l1.599,5.908l0.902,8.168l-7.609,3.804l-1.669,-4.274l-3.44,5.297l0,6.64l8.107,-1.056l7.219,6.731l-10.217,12.205l-15.326,-2.555l-10.217,-5.108l-1.552,5.885l1.552,-0.777l7.891,3.946l-38.542,1.163l0,-20.434l18.658,5.996l-18.658,-16.213l0,-15.326l7.232,8.725l10.172,-7.21l-14.219,-18.433l9.122,-17.796l3.019,13.21l5.108,6.179l10.217,-3.293l0,-6.924l-2.675,6.446l-7.542,-1.338l10.217,-11.653l6.839,-10.47l13.595,10.278l10.217,1.628l-5.108,-2.554l-3.674,-8.38l24.108,5.842l-5.109,10.201l3.652,3.282l-6.601,15.677l11.808,-2.954l3.084,-40.685l-80.272,5.841l-16.808,107.384l98.74,-15.333l-8.494,-14.464Z" style="fill:#542f7f;fill-opacity:0.7;"/><path d="M81.649,8.375l-18.481,6.9l-1.279,3.654l-0.674,5.443l-9.596,1.806l0.581,-4.774l-16.528,14.129l-5.108,1.548l2.539,16.645l4.646,15.226l-5.302,-0.216l1.044,11.184l2.181,7.637l-6.117,-5.766l-19.425,-12.113l18.167,6.242l-0.629,-9.903l-17.538,-10.033l0,-1.632l7.619,2.278l13.806,5.032l-4.452,-7.484l-4.129,-1.871l2.481,-0.509l-15.325,-7.663l15.325,4.688l-1.19,-14.838l-14.135,-15.393l20.434,12.102l12.281,-9.613l4.129,-2.322l-16.41,-10.384l26.546,13.273l-1.004,-5.61l0.61,-2.118l-15.935,-10.653l20.434,7.815l7.308,-2.388l13.126,-0.319Z" style="fill:#f6e0f1;fill-opacity:0.9;"/></g><path d="M81.649,8.375l-20.434,5.109l-5.109,7.663l-5.108,-2.555l-5.109,2.555l-11.468,12.686l-6.441,-1.207l2.584,21.726l5.108,12.771l-5.108,-2.554l0,15.326l5.108,7.662l15.326,-7.662l0,-5.109l5.108,-2.554l5.109,2.554l17.456,-8.728l1.11,-22.857l1.868,-9.283l-5.108,2.554l5.108,-12.771l0,-15.326Z" style="fill:#bac1d8;"/><clipPath id="_clip3"><path d="M81.649,8.375l-20.434,5.109l-5.109,7.663l-5.108,-2.555l-5.109,2.555l-11.468,12.686l-6.441,-1.207l2.584,21.726l5.108,12.771l-5.108,-2.554l0,15.326l5.108,7.662l15.326,-7.662l0,-5.109l5.108,-2.554l5.109,2.554l17.456,-8.728l1.11,-22.857l1.868,-9.283l-5.108,2.554l5.108,-12.771l0,-15.326Z"/></clipPath><g clip-path="url(#_clip3)"><path d="M81.723,73.415l-8.122,-11.265l8.122,-14.278l-8.689,5.872l-1.528,-10.98l-5.109,-2.555l1.599,5.908l0.902,8.168l-7.609,3.804l-1.669,-4.274l-3.44,5.297l0,6.64l8.107,-1.056l7.219,6.731l-10.217,12.205l-15.326,-2.555l-10.217,-5.108l-1.552,5.885l1.552,-0.777l7.891,3.946l-38.542,1.163l0,-20.434l18.658,5.996l-18.658,-16.213l0,-15.326l7.232,8.725l10.172,-7.21l-14.219,-18.433l9.122,-17.796l3.019,13.21l5.108,6.179l10.217,-3.293l0,-6.924l-2.675,6.446l-7.542,-1.338l10.217,-11.653l6.839,-10.47l13.595,10.278l10.217,1.628l-5.108,-2.554l-3.674,-8.38l24.108,5.842l-5.109,10.201l3.652,3.282l-6.601,15.677l11.808,-2.954l3.084,-40.685l-80.272,5.841l-16.808,107.384l98.74,-15.333l-8.494,-14.464Z" style="fill:#542f7f;fill-opacity:0.7;"/><path d="M81.649,8.375l-18.481,6.9l-1.279,3.654l-0.674,5.443l-9.596,1.806l0.581,-4.774l-16.528,14.129l-5.108,1.548l2.539,16.645l4.646,15.226l-5.302,-0.216l1.044,11.184l2.181,7.637l-6.117,-5.766l-19.425,-12.113l18.167,6.242l-0.629,-9.903l-17.538,-10.033l0,-1.632l7.619,2.278l13.806,5.032l-4.452,-7.484l-4.129,-1.871l2.481,-0.509l-15.325,-7.663l15.325,4.688l-1.19,-14.838l-14.135,-15.393l20.434,12.102l12.281,-9.613l4.129,-2.322l-16.41,-10.384l26.546,13.273l-1.004,-5.61l0.61,-2.118l-15.935,-10.653l20.434,7.815l7.308,-2.388l13.126,-0.319Z" style="fill:#f6e0f1;fill-opacity:0.9;"/></g><path d="M10.13,18.592l17.852,14.035l2.582,21.725l-20.434,-10.217l1.887,-9.274l-1.887,-16.269Z" style="fill:#6c7157;"/><clipPath id="_clip4"><path d="M10.13,18.592l17.852,14.035l2.582,21.725l-20.434,-10.217l1.887,-9.274l-1.887,-16.269Z"/></clipPath><g clip-path="url(#_clip4)"><path d="M81.723,73.415l-8.122,-11.265l8.122,-14.278l-8.689,5.872l-1.528,-10.98l-5.109,-2.555l1.599,5.908l0.902,8.168l-7.609,3.804l-1.669,-4.274l-3.44,5.297l0,6.64l8.107,-1.056l7.219,6.731l-10.217,12.205l-15.326,-2.555l-10.217,-5.108l-1.552,5.885l1.552,-0.777l7.891,3.946l-38.542,1.163l0,-20.434l18.658,5.996l-18.658,-16.213l0,-15.326l7.232,8.725l10.172,-7.21l-14.219,-18.433l9.122,-17.796l3.019,13.21l5.108,6.179l10.217,-3.293l0,-6.924l-2.675,6.446l-7.542,-1.338l10.217,-11.653l6.839,-10.47l13.595,10.278l10.217,1.628l-5.108,-2.554l-3.674,-8.38l24.108,5.842l-5.109,10.201l3.652,3.282l-6.601,15.677l11.808,-2.954l3.084,-40.685l-80.272,5.841l-16.808,107.384l98.74,-15.333l-8.494,-14.464Z" style="fill:#542f7f;fill-opacity:0.7;"/><path d="M81.649,8.375l-18.481,6.9l-1.279,3.654l-0.674,5.443l-9.596,1.806l0.581,-4.774l-16.528,14.129l-5.108,1.548l2.539,16.645l4.646,15.226l-5.302,-0.216l1.044,11.184l2.181,7.637l-6.117,-5.766l-19.425,-12.113l18.167,6.242l-0.629,-9.903l-17.538,-10.033l0,-1.632l7.619,2.278l13.806,5.032l-4.452,-7.484l-4.129,-1.871l2.481,-0.509l-15.325,-7.663l15.325,4.688l-1.19,-14.838l-14.135,-15.393l20.434,12.102l12.281,-9.613l4.129,-2.322l-16.41,-10.384l26.546,13.273l-1.004,-5.61l0.61,-2.118l-15.935,-10.653l20.434,7.815l7.308,-2.388l13.126,-0.319Z" style="fill:#f6e0f1;fill-opacity:0.4;"/></g><path d="M35.672,87.557l-20.434,-10.217l-5.108,-7.662l0,-15.326l20.434,10.217l0,15.326l5.108,7.662Z" style="fill:#6c7157;"/><clipPath id="_clip5"><path d="M35.672,87.557l-20.434,-10.217l-5.108,-7.662l0,-15.326l20.434,10.217l0,15.326l5.108,7.662Z"/></clipPath><g clip-path="url(#_clip5)"><path d="M81.723,73.415l-8.122,-11.265l8.122,-14.278l-8.689,5.872l-1.528,-10.98l-5.109,-2.555l1.599,5.908l0.902,8.168l-7.609,3.804l-1.669,-4.274l-3.44,5.297l0,6.64l8.107,-1.056l7.219,6.731l-10.217,12.205l-15.326,-2.555l-10.217,-5.108l-1.552,5.885l1.552,-0.777l7.891,3.946l-38.542,1.163l0,-20.434l18.658,5.996l-18.658,-16.213l0,-15.326l7.232,8.725l10.172,-7.21l-14.219,-18.433l9.122,-17.796l3.019,13.21l5.108,6.179l10.217,-3.293l0,-6.924l-2.675,6.446l-7.542,-1.338l10.217,-11.653l6.839,-10.47l13.595,10.278l10.217,1.628l-5.108,-2.554l-3.674,-8.38l24.108,5.842l-5.109,10.201l3.652,3.282l-6.601,15.677l11.808,-2.954l3.084,-40.685l-80.272,5.841l-16.808,107.384l98.74,-15.333l-8.494,-14.464Z" style="fill:#542f7f;fill-opacity:0.7;"/><path d="M81.649,8.375l-18.481,6.9l-1.279,3.654l-0.674,5.443l-9.596,1.806l0.581,-4.774l-16.528,14.129l-5.108,1.548l2.539,16.645l4.646,15.226l-5.302,-0.216l1.044,11.184l2.181,7.637l-6.117,-5.766l-19.425,-12.113l18.167,6.242l-0.629,-9.903l-17.538,-10.033l0,-1.632l7.619,2.278l13.806,5.032l-4.452,-7.484l-4.129,-1.871l2.481,-0.509l-15.325,-7.663l15.325,4.688l-1.19,-14.838l-14.135,-15.393l20.434,12.102l12.281,-9.613l4.129,-2.322l-16.41,-10.384l26.546,13.273l-1.004,-5.61l0.61,-2.118l-15.935,-10.653l20.434,7.815l7.308,-2.388l13.126,-0.319Z" style="fill:#f6e0f1;fill-opacity:0.4;"/></g><path d="M10.13,44.135l15.325,7.663l-15.325,2.554l25.542,12.771l-5.108,-12.771l-20.434,-10.217Z" style="fill:#395346;"/><clipPath id="_clip6"><path d="M10.13,44.135l15.325,7.663l-15.325,2.554l25.542,12.771l-5.108,-12.771l-20.434,-10.217Z"/></clipPath><g clip-path="url(#_clip6)"><path d="M81.649,8.375l-18.481,6.9l-1.279,3.654l-0.674,5.443l-9.596,1.806l0.581,-4.774l-16.528,14.129l-5.108,1.548l2.539,16.645l4.646,15.226l-5.302,-0.216l1.044,11.184l2.181,7.637l-6.117,-5.766l-19.425,-12.113l18.167,6.242l-0.629,-9.903l-17.538,-10.033l0,-1.632l7.619,2.278l13.806,5.032l-4.452,-7.484l-4.129,-1.871l2.481,-0.509l-15.325,-7.663l15.325,4.688l-1.19,-14.838l-14.135,-15.393l20.434,12.102l12.281,-9.613l4.129,-2.322l-16.41,-10.384l26.546,13.273l-1.004,-5.61l0.61,-2.118l-15.935,-10.653l20.434,7.815l7.308,-2.388l13.126,-0.319Z" style="fill:#f6e0f1;fill-opacity:0.4;"/></g><path d="M10.13,69.678l20.434,10.217l5.108,7.662l-20.434,-10.217l-5.108,-7.662Z" style="fill:#395346;"/><clipPath id="_clip7"><path d="M10.13,69.678l20.434,10.217l5.108,7.662l-20.434,-10.217l-5.108,-7.662Z"/></clipPath><g clip-path="url(#_clip7)"><path d="M81.649,8.375l-18.481,6.9l-1.279,3.654l-0.674,5.443l-9.596,1.806l0.581,-4.774l-16.528,14.129l-5.108,1.548l2.539,16.645l4.646,15.226l-5.302,-0.216l1.044,11.184l2.181,7.637l-6.117,-5.766l-19.425,-12.113l18.167,6.242l-0.629,-9.903l-17.538,-10.033l0,-1.632l7.619,2.278l13.806,5.032l-4.452,-7.484l-4.129,-1.871l2.481,-0.509l-15.325,-7.663l15.325,4.688l-1.19,-14.838l-14.135,-15.393l20.434,12.102l12.281,-9.613l4.129,-2.322l-16.41,-10.384l26.546,13.273l-1.004,-5.61l0.61,-2.118l-15.935,-10.653l20.434,7.815l7.308,-2.388l13.126,-0.319Z" style="fill:#f6e0f1;fill-opacity:0.9;"/></g><path d="M40.781,3.267l-5.109,7.662l20.434,10.218l-2.438,3.889l5.527,-2.345l-0.435,-5.326l2.455,-3.881l-20.434,-10.217Z" style="fill:#6c7157;"/><clipPath id="_clip8"><path d="M40.781,3.267l-5.109,7.662l20.434,10.218l-2.438,3.889l5.527,-2.345l-0.435,-5.326l2.455,-3.881l-20.434,-10.217Z"/></clipPath><g clip-path="url(#_clip8)"><path d="M81.649,8.375l-18.481,6.9l-1.279,3.654l-0.674,5.443l-9.596,1.806l0.581,-4.774l-16.528,14.129l-5.108,1.548l2.539,16.645l4.646,15.226l-5.302,-0.216l1.044,11.184l2.181,7.637l-6.117,-5.766l-19.425,-12.113l18.167,6.242l-0.629,-9.903l-17.538,-10.033l0,-1.632l7.619,2.278l13.806,5.032l-4.452,-7.484l-4.129,-1.871l2.481,-0.509l-15.325,-7.663l15.325,4.688l-1.19,-14.838l-14.135,-15.393l20.434,12.102l12.281,-9.613l4.129,-2.322l-16.41,-10.384l26.546,13.273l-1.004,-5.61l0.61,-2.118l-15.935,-10.653l20.434,7.815l7.308,-2.388l13.126,-0.319Z" style="fill:#f6e0f1;fill-opacity:0.9;"/></g></g></g></g><path d="M79.429,50.84c0,0 6.023,1.536 4.351,7.224c-1.672,5.689 -0.691,6.842 -2.095,11.265c-1.405,4.424 -2.576,0.768 -5.109,5.714c-2.445,4.776 -1.717,6.082 -12.733,10.908c-0.392,0.171 1.248,-3.193 0.821,-3.003c-0.898,0.4 -1.669,0.755 -2.332,1.071c-8.522,4.066 0.853,1.733 -12.241,5.273c-0.883,0.239 3.88,1.316 3.076,1.538c-0.803,0.222 -3.476,-0.207 -4.251,-0.008c-2.579,0.663 -4.884,1.237 -6.919,1.727c-0.37,0.089 1.938,2.016 -1.083,0.259c-5.189,-3.018 -9.236,2.024 -10.314,2.064c-1.717,0.063 -4.566,-3.054 -7.872,-1.173c-3.307,1.881 -2.555,4.57 -5.78,1.344c-1.544,-1.544 -3.353,-0.852 -3.846,-1.639c-0.537,-0.858 0.225,-3.128 -2.109,-3.227c-0.531,-0.022 -1.709,4.029 -2.193,4.012c-3.598,-0.129 -5.277,-4.159 -6.947,-3.473c-1.894,0.778 -2.04,-0.866 0.667,-4.775c2.707,-3.909 3.812,-1.699 3.69,-4.417c-0.122,-2.718 -2.474,-3.872 -2.474,-3.872c0,0 -1.964,1.936 -1.473,-2.057c0.491,-3.993 -0.318,-4.202 0.839,-4.689c1.158,-0.487 1.892,1.664 1.955,-1.239c0.063,-2.904 -0.708,-1.506 0,-3.764c0.708,-2.258 0.201,-0.492 1.315,-3.579c1.113,-3.087 0.451,-5.273 0.459,-6.653c0.009,-1.381 -1.066,-0.413 0.009,-1.703c1.075,-1.291 5.754,-2.798 7.339,-3.066c1.586,-0.268 7.177,1.13 7.177,1.13l-11.191,2.263l0,15.034l5.109,7.663c0,0 0.363,2.442 2.875,1.438c2.511,-1.004 1.961,-1.004 3.007,-1.004c1.046,0 0.881,-0.056 2.808,1.486c1.926,1.541 3.276,2.314 3.276,2.314c0,0 1.568,1.099 2.669,1.705c1.101,0.605 1.717,2.237 1.717,2.237l0.485,-0.751c0,0 0.4,0.25 0.366,-0.701c-0.035,-0.95 0.35,-2.712 0.157,-3.152c-0.192,-0.441 -1.293,-1.267 0.193,-0.551c1.487,0.716 0.969,0.76 2.054,1.674c1.084,0.914 -1.019,1.927 1.959,0.98c2.979,-0.947 2.056,-1.223 3.977,-1.112c1.92,0.11 1.094,1.321 3.021,0.055c1.927,-1.267 1.927,-0.496 2.642,-1.762c0.716,-1.266 0.661,-1.652 0.661,-1.652c0,0 -2.243,1.017 -0.048,-0.62l2.195,-1.637c0,0 -0.569,0.899 0.101,-0.679c0.67,-1.578 0.638,-0.587 1.645,-2.239c1.007,-1.651 0.122,-1.864 1.996,-2.694c1.873,-0.829 -0.108,-2.04 2.204,-0.939c2.312,1.101 0.378,0.481 3.492,1.204c3.114,0.723 3.389,0.502 4.546,0.723c1.156,0.22 -1.377,-1.101 1.266,-2.918c2.642,-1.817 3.064,-0.587 3.019,-2.221c-0.046,-1.633 -2.524,-2.679 0.119,-2.789c2.642,-0.11 -1.705,2.033 2.671,0.273c4.376,-1.759 3.88,-0.438 4.706,-1.87c0.826,-1.431 1.835,-1.486 1.523,-2.697c-0.312,-1.211 -0.405,-2.333 -0.405,-2.333l2.893,2.961l0.365,-8.881Z" style="fill:#546c45;"/><clipPath id="_clip9"><path d="M79.429,50.84c0,0 6.023,1.536 4.351,7.224c-1.672,5.689 -0.691,6.842 -2.095,11.265c-1.405,4.424 -2.576,0.768 -5.109,5.714c-2.445,4.776 -1.717,6.082 -12.733,10.908c-0.392,0.171 1.248,-3.193 0.821,-3.003c-0.898,0.4 -1.669,0.755 -2.332,1.071c-8.522,4.066 0.853,1.733 -12.241,5.273c-0.883,0.239 3.88,1.316 3.076,1.538c-0.803,0.222 -3.476,-0.207 -4.251,-0.008c-2.579,0.663 -4.884,1.237 -6.919,1.727c-0.37,0.089 1.938,2.016 -1.083,0.259c-5.189,-3.018 -9.236,2.024 -10.314,2.064c-1.717,0.063 -4.566,-3.054 -7.872,-1.173c-3.307,1.881 -2.555,4.57 -5.78,1.344c-1.544,-1.544 -3.353,-0.852 -3.846,-1.639c-0.537,-0.858 0.225,-3.128 -2.109,-3.227c-0.531,-0.022 -1.709,4.029 -2.193,4.012c-3.598,-0.129 -5.277,-4.159 -6.947,-3.473c-1.894,0.778 -2.04,-0.866 0.667,-4.775c2.707,-3.909 3.812,-1.699 3.69,-4.417c-0.122,-2.718 -2.474,-3.872 -2.474,-3.872c0,0 -1.964,1.936 -1.473,-2.057c0.491,-3.993 -0.318,-4.202 0.839,-4.689c1.158,-0.487 1.892,1.664 1.955,-1.239c0.063,-2.904 -0.708,-1.506 0,-3.764c0.708,-2.258 0.201,-0.492 1.315,-3.579c1.113,-3.087 0.451,-5.273 0.459,-6.653c0.009,-1.381 -1.066,-0.413 0.009,-1.703c1.075,-1.291 5.754,-2.798 7.339,-3.066c1.586,-0.268 7.177,1.13 7.177,1.13l-11.191,2.263l0,15.034l5.109,7.663c0,0 0.363,2.442 2.875,1.438c2.511,-1.004 1.961,-1.004 3.007,-1.004c1.046,0 0.881,-0.056 2.808,1.486c1.926,1.541 3.276,2.314 3.276,2.314c0,0 1.568,1.099 2.669,1.705c1.101,0.605 1.717,2.237 1.717,2.237l0.485,-0.751c0,0 0.4,0.25 0.366,-0.701c-0.035,-0.95 0.35,-2.712 0.157,-3.152c-0.192,-0.441 -1.293,-1.267 0.193,-0.551c1.487,0.716 0.969,0.76 2.054,1.674c1.084,0.914 -1.019,1.927 1.959,0.98c2.979,-0.947 2.056,-1.223 3.977,-1.112c1.92,0.11 1.094,1.321 3.021,0.055c1.927,-1.267 1.927,-0.496 2.642,-1.762c0.716,-1.266 0.661,-1.652 0.661,-1.652c0,0 -2.243,1.017 -0.048,-0.62l2.195,-1.637c0,0 -0.569,0.899 0.101,-0.679c0.67,-1.578 0.638,-0.587 1.645,-2.239c1.007,-1.651 0.122,-1.864 1.996,-2.694c1.873,-0.829 -0.108,-2.04 2.204,-0.939c2.312,1.101 0.378,0.481 3.492,1.204c3.114,0.723 3.389,0.502 4.546,0.723c1.156,0.22 -1.377,-1.101 1.266,-2.918c2.642,-1.817 3.064,-0.587 3.019,-2.221c-0.046,-1.633 -2.524,-2.679 0.119,-2.789c2.642,-0.11 -1.705,2.033 2.671,0.273c4.376,-1.759 3.88,-0.438 4.706,-1.87c0.826,-1.431 1.835,-1.486 1.523,-2.697c-0.312,-1.211 -0.405,-2.333 -0.405,-2.333l2.893,2.961l0.365,-8.881Z"/></clipPath><g clip-path="url(#_clip9)"><path d="M85.979,38.847l18.329,50.033l-68.039,22.174l-11.592,-5.796l28.828,-46.888l32.474,-19.523" style="fill:#c4e783;fill-opacity:0.5;"/><path d="M88.027,54.592l-4.555,4.581l-1.787,1.225c0,0 0.431,2.914 0,3.823c-0.432,0.908 -2.455,3.881 -2.455,3.881c0,0 -0.557,0.898 -1.633,1.974c-1.075,1.075 -1.873,1.381 -1.873,1.381l-0.688,-0.344l2.561,-6.521l0.646,-1.075l-1.667,-0.538c0,0 -2.419,2.796 -3.172,4.193c-0.753,1.398 -0.901,1.64 -0.901,1.64c0,0 0.147,0.511 -1.035,1.694c-1.182,1.182 -2.522,2.249 -1.96,2.952c0.563,0.704 0.866,1.526 0.866,1.526c0,0 -1.809,1.006 -3.099,0.36c-1.29,-0.645 0.322,-0.967 -1.936,-1.505c-2.258,-0.538 -3.017,-1.061 -5.917,-0.316c-2.9,0.746 -4.082,-6.136 -5.373,0.746c-1.29,6.882 -2.483,7.204 -3.015,8.065c-0.533,0.86 1.737,1.158 -1.656,1.493c-3.393,0.334 -4.684,0.442 -4.684,0.442c0,0 -4.618,2.268 -6.556,1.725c-1.938,-0.542 0.842,-1.187 -2.43,-0.435c-3.272,0.753 -7.808,1.506 -10.217,2.581c-2.409,1.075 -4.448,2.051 -7.461,2.8c-3.013,0.748 -2.275,0.839 -0.785,-0.398c4.038,-3.352 -6.058,-0.788 -4.748,-3.159c1.582,-2.862 2.777,-2.791 2.777,-2.791l-3.037,-4.01l-2.072,0.246c0,0 0.273,1.057 -1.792,-0.385c-2.065,-1.443 -2.731,-1.484 -1.914,-4.152c0.816,-2.667 2.246,-1.225 1.155,-3.129c-1.091,-1.904 -1.736,0.139 -1.091,-3.732c0.645,-3.871 0.752,-4.838 0.752,-4.838c0,0 -1.077,-2.477 -0.753,-3.658c0.323,-1.181 0.431,-2.149 0.431,-2.149l-4.543,1.558l2.647,-6.074l0,-0.86c0,0 -6.599,-2.903 -7.566,0.753c-0.968,3.656 -3.216,4.065 -1.232,13.323c1.984,9.257 2.573,10.123 1.311,15.981c-1.262,5.857 -3.843,9.62 -0.832,10.91c3.011,1.291 0.322,2.259 11.72,2.904c11.398,0.645 59.586,-4.12 59.586,-4.12l22.994,-25.342l-3.011,-13.226" style="fill:#97b366;"/><clipPath id="_clip10"><path d="M88.027,54.592l-4.555,4.581l-1.787,1.225c0,0 0.431,2.914 0,3.823c-0.432,0.908 -2.455,3.881 -2.455,3.881c0,0 -0.557,0.898 -1.633,1.974c-1.075,1.075 -1.873,1.381 -1.873,1.381l-0.688,-0.344l2.561,-6.521l0.646,-1.075l-1.667,-0.538c0,0 -2.419,2.796 -3.172,4.193c-0.753,1.398 -0.901,1.64 -0.901,1.64c0,0 0.147,0.511 -1.035,1.694c-1.182,1.182 -2.522,2.249 -1.96,2.952c0.563,0.704 0.866,1.526 0.866,1.526c0,0 -1.809,1.006 -3.099,0.36c-1.29,-0.645 0.322,-0.967 -1.936,-1.505c-2.258,-0.538 -3.017,-1.061 -5.917,-0.316c-2.9,0.746 -4.082,-6.136 -5.373,0.746c-1.29,6.882 -2.483,7.204 -3.015,8.065c-0.533,0.86 1.737,1.158 -1.656,1.493c-3.393,0.334 -4.684,0.442 -4.684,0.442c0,0 -4.618,2.268 -6.556,1.725c-1.938,-0.542 0.842,-1.187 -2.43,-0.435c-3.272,0.753 -7.808,1.506 -10.217,2.581c-2.409,1.075 -4.448,2.051 -7.461,2.8c-3.013,0.748 -2.275,0.839 -0.785,-0.398c4.038,-3.352 -6.058,-0.788 -4.748,-3.159c1.582,-2.862 2.777,-2.791 2.777,-2.791l-3.037,-4.01l-2.072,0.246c0,0 0.273,1.057 -1.792,-0.385c-2.065,-1.443 -2.731,-1.484 -1.914,-4.152c0.816,-2.667 2.246,-1.225 1.155,-3.129c-1.091,-1.904 -1.736,0.139 -1.091,-3.732c0.645,-3.871 0.752,-4.838 0.752,-4.838c0,0 -1.077,-2.477 -0.753,-3.658c0.323,-1.181 0.431,-2.149 0.431,-2.149l-4.543,1.558l2.647,-6.074l0,-0.86c0,0 -6.599,-2.903 -7.566,0.753c-0.968,3.656 -3.216,4.065 -1.232,13.323c1.984,9.257 2.573,10.123 1.311,15.981c-1.262,5.857 -3.843,9.62 -0.832,10.91c3.011,1.291 0.322,2.259 11.72,2.904c11.398,0.645 59.586,-4.12 59.586,-4.12l22.994,-25.342l-3.011,-13.226"/></clipPath><g clip-path="url(#_clip10)"><path d="M85.979,38.847l18.329,50.033l-68.039,22.174l-11.592,-5.796l28.828,-46.888l32.474,-19.523" style="fill:#c4e783;fill-opacity:0.5;"/></g><path d="M29.785,72.053l-34.27,22.244l-1.49,-52.229l38.658,5.891l-2.898,24.094" style="fill-opacity:0.5;"/></g></g><g><path d="M56.129,32.451l11.759,26.894l4.592,1.906l-13.569,-29.731l-2.782,0.931Z" style="fill:#395346;"/><path d="M56.473,42.984l-8.37,2.553l-3.507,-1.256l11.643,-3.923l0.234,2.626Z" style="fill:none;"/><path d="M62.39,62.115l4.738,1.764l5.349,-2.599l-4.643,-1.827l-5.444,2.662Z" style="fill:none;"/><path d="M39.049,66.009l-0.384,-27.673l17.464,-5.885l11.705,27.002l-5.444,2.662l-8.903,-20.83l-8.891,2.996l0.059,19.065l-5.606,2.663Z" style="fill:#6ee33b;"/><path d="M43.476,67.383l-4.427,-1.374l5.66,-2.824l4.156,1.221l-5.389,2.977Z" style="fill:none;"/><path d="M44.596,44.281l3.344,1.385l0.905,18.708l-4.244,-1.135l-0.005,-18.958" style="fill:#395346;"/></g><path d="M76.491,45.737c0,0 -1.331,-0.602 -1.13,-4.875c0.202,-4.273 -1.197,-8.654 -0.85,-8.662c0.348,-0.009 2.186,-0.115 3.026,-1.513c0.84,-1.399 3.767,-1.135 4.063,-2.894c0.296,-1.76 2.055,-2.375 2.143,-4.134c0.088,-1.76 0.176,-14.25 -0.088,-15.218c-0.264,-0.967 -0.44,-1.055 -1.231,-1.583c-0.792,-0.528 1.871,-0.528 -0.824,-0.528c-2.695,0 -2.773,-2.03 -5.109,-0.663c-2.336,1.367 -1.879,1.137 -3.471,1.736c-1.592,0.598 -6.746,2.094 -6.746,2.094c0,0 -0.481,2.739 -1.842,0.358c-1.36,-2.381 2.346,-0.335 -1.442,-2.546c-3.788,-2.21 -3.905,-3.06 -4.507,-2.855c-0.601,0.205 0.015,0.909 -1.656,-0.235c-1.672,-1.143 0.687,-2.145 -3.131,-2.48c-3.818,-0.335 -4.81,-0.991 -6.821,-0.663c-2.011,0.328 -1.083,0.073 -3.175,0.552c-2.091,0.48 -2.968,0.744 -2.968,0.744c0,0 0.162,-0.681 -0.932,0.275c-1.093,0.956 -2.505,0.947 -3.207,2.535c-0.701,1.588 -0.887,1.324 -0.97,2.116c-0.083,0.791 -1.143,0.43 -3.252,-0.005c-2.109,-0.435 -1.937,-0.866 -2.639,0.537c-0.701,1.403 0.09,0.699 -1.229,2.194c-1.319,1.496 2.551,0.968 -2.111,2.463c-4.662,1.496 -1.194,-1.482 -4.687,1.546c-3.493,3.028 -2.089,3.475 0.771,5.495c2.86,2.019 -0.431,0.436 2.93,2.547c3.361,2.111 4.393,2.463 5.109,3.431c0.715,0.967 1.383,1.511 1.445,2.427c0.061,0.915 0.061,3.202 0.061,3.202c0,0 0.088,-1.231 -0.351,0.792c-0.44,2.023 -1.155,2.991 -1.155,2.991c0,0 -0.54,-0.088 0,1.231c0.539,1.319 0.725,0.9 0.852,2.297c0.127,1.397 0.127,1.222 0.127,2.189c0,0.968 0,1.671 0,1.671c0,0 0.591,0.578 0.471,2.4c-0.119,1.823 -0.837,2.322 -0.522,3.919c0.315,1.598 1.106,2.302 1.634,3.093c0.528,0.792 1.293,3.202 1.042,0.678c-0.25,-2.525 0.277,-3.492 0.277,-4.372c0,-0.88 -0.851,0.648 -0.074,-2.139c0.778,-2.787 -1.863,0.12 2.009,-4.104c3.871,-4.225 3.617,-5.699 3.128,-7.381c-0.489,-1.681 0.127,0.078 0.127,-3.353c0,-3.43 1.146,-5.014 1.146,-5.014c0,0 -0.108,-0.74 -0.715,-2.129c-0.607,-1.389 -1.31,-1.301 -0.079,-2.445c1.232,-1.143 1.433,-2.249 2.212,-2.312c0.779,-0.062 0.955,-0.238 1.658,-0.678c0.704,-0.44 1.689,-0.792 2.032,-1.144c0.343,-0.352 2.012,-0.435 2.012,-0.435l-2.012,-3.523l7.117,0.967c0,0 0.702,0.791 1.802,2.199c1.1,1.408 2.6,3.089 3.17,3.524c0.569,0.435 1.499,2.621 1.499,2.621l1.738,3.268c0,0 -0.909,2.902 1.114,0.615c2.023,-2.287 -0.64,0.566 2.407,-4.775c3.047,-5.34 2.079,-6.044 4.278,-6.22c2.199,-0.176 1.936,-0.44 3.167,-0.176c1.231,0.264 -0.088,0.088 1.759,0.528c1.847,0.44 4.673,0.528 2.6,1.583c-2.072,1.056 -3.655,1.144 -3.04,3.695c0.616,2.55 2.639,2.726 0.528,5.101c-2.111,2.375 -3.082,0.704 -2.596,5.366c0.485,4.662 0.13,7.389 0,9.676c-0.131,2.287 -2.773,2.023 0,3.694c2.772,1.671 3.73,0.42 3.911,2.101c0.181,1.682 1.197,-1.397 1.197,-1.397Z" style="fill:#546c45;"/><clipPath id="_clip11"><path d="M76.491,45.737c0,0 -1.331,-0.602 -1.13,-4.875c0.202,-4.273 -1.197,-8.654 -0.85,-8.662c0.348,-0.009 2.186,-0.115 3.026,-1.513c0.84,-1.399 3.767,-1.135 4.063,-2.894c0.296,-1.76 2.055,-2.375 2.143,-4.134c0.088,-1.76 0.176,-14.25 -0.088,-15.218c-0.264,-0.967 -0.44,-1.055 -1.231,-1.583c-0.792,-0.528 1.871,-0.528 -0.824,-0.528c-2.695,0 -2.773,-2.03 -5.109,-0.663c-2.336,1.367 -1.879,1.137 -3.471,1.736c-1.592,0.598 -6.746,2.094 -6.746,2.094c0,0 -0.481,2.739 -1.842,0.358c-1.36,-2.381 2.346,-0.335 -1.442,-2.546c-3.788,-2.21 -3.905,-3.06 -4.507,-2.855c-0.601,0.205 0.015,0.909 -1.656,-0.235c-1.672,-1.143 0.687,-2.145 -3.131,-2.48c-3.818,-0.335 -4.81,-0.991 -6.821,-0.663c-2.011,0.328 -1.083,0.073 -3.175,0.552c-2.091,0.48 -2.968,0.744 -2.968,0.744c0,0 0.162,-0.681 -0.932,0.275c-1.093,0.956 -2.505,0.947 -3.207,2.535c-0.701,1.588 -0.887,1.324 -0.97,2.116c-0.083,0.791 -1.143,0.43 -3.252,-0.005c-2.109,-0.435 -1.937,-0.866 -2.639,0.537c-0.701,1.403 0.09,0.699 -1.229,2.194c-1.319,1.496 2.551,0.968 -2.111,2.463c-4.662,1.496 -1.194,-1.482 -4.687,1.546c-3.493,3.028 -2.089,3.475 0.771,5.495c2.86,2.019 -0.431,0.436 2.93,2.547c3.361,2.111 4.393,2.463 5.109,3.431c0.715,0.967 1.383,1.511 1.445,2.427c0.061,0.915 0.061,3.202 0.061,3.202c0,0 0.088,-1.231 -0.351,0.792c-0.44,2.023 -1.155,2.991 -1.155,2.991c0,0 -0.54,-0.088 0,1.231c0.539,1.319 0.725,0.9 0.852,2.297c0.127,1.397 0.127,1.222 0.127,2.189c0,0.968 0,1.671 0,1.671c0,0 0.591,0.578 0.471,2.4c-0.119,1.823 -0.837,2.322 -0.522,3.919c0.315,1.598 1.106,2.302 1.634,3.093c0.528,0.792 1.293,3.202 1.042,0.678c-0.25,-2.525 0.277,-3.492 0.277,-4.372c0,-0.88 -0.851,0.648 -0.074,-2.139c0.778,-2.787 -1.863,0.12 2.009,-4.104c3.871,-4.225 3.617,-5.699 3.128,-7.381c-0.489,-1.681 0.127,0.078 0.127,-3.353c0,-3.43 1.146,-5.014 1.146,-5.014c0,0 -0.108,-0.74 -0.715,-2.129c-0.607,-1.389 -1.31,-1.301 -0.079,-2.445c1.232,-1.143 1.433,-2.249 2.212,-2.312c0.779,-0.062 0.955,-0.238 1.658,-0.678c0.704,-0.44 1.689,-0.792 2.032,-1.144c0.343,-0.352 2.012,-0.435 2.012,-0.435l-2.012,-3.523l7.117,0.967c0,0 0.702,0.791 1.802,2.199c1.1,1.408 2.6,3.089 3.17,3.524c0.569,0.435 1.499,2.621 1.499,2.621l1.738,3.268c0,0 -0.909,2.902 1.114,0.615c2.023,-2.287 -0.64,0.566 2.407,-4.775c3.047,-5.34 2.079,-6.044 4.278,-6.22c2.199,-0.176 1.936,-0.44 3.167,-0.176c1.231,0.264 -0.088,0.088 1.759,0.528c1.847,0.44 4.673,0.528 2.6,1.583c-2.072,1.056 -3.655,1.144 -3.04,3.695c0.616,2.55 2.639,2.726 0.528,5.101c-2.111,2.375 -3.082,0.704 -2.596,5.366c0.485,4.662 0.13,7.389 0,9.676c-0.131,2.287 -2.773,2.023 0,3.694c2.772,1.671 3.73,0.42 3.911,2.101c0.181,1.682 1.197,-1.397 1.197,-1.397Z"/></clipPath><g clip-path="url(#_clip11)"><path d="M57.281,-2.299l31.039,5.841l-2.786,37.298l-5.656,4.002l-9.704,-10.474l-2.648,-14.001l-13.255,-0.267l-20.451,-15.334l13.397,-13.736l10.064,6.671Z" style="fill:#c4e783;fill-opacity:0.5;"/><path d="M73.508,42.918c-0.027,-1.284 1.481,-2.667 0.595,-5.406c-0.886,-2.739 -2.909,-3.795 -0.798,-5.73c2.111,-1.935 1.182,-2.551 3.186,-3.518c2.004,-0.968 3.148,-1.144 3.499,-2.639c0.352,-1.495 2.076,-1.935 1.61,-3.782c-0.466,-1.848 0.642,-4.222 0,-6.861c-0.642,-2.639 -1.258,-4.486 -1.258,-4.486l-1.221,-1.035c0,0 -0.274,-0.285 -1.681,-0.285c-1.408,0 -0.463,0.485 -2.519,0.815c-2.055,0.329 -0.359,-0.815 -3.538,1.208c-3.179,2.023 -7.49,2.375 -7.49,2.375c0,0 -1.761,5.845 -2.727,-0.244c-0.967,-6.089 3.431,-5.825 -1.847,-7.144c-5.277,-1.32 -9.306,-2.605 -9.306,-2.605c0,0 2.533,-0.034 -1.689,-0.914c-4.222,-0.88 -12.701,-1.231 -12.701,-1.231c0,0 -1.983,-0.253 -2.821,0.533c-0.839,0.786 -2.135,-2.07 -3.378,1.689c-1.243,3.759 -4.064,5.769 -5.029,7.623c-0.964,1.853 -4.168,2.104 -1.246,3.474c2.921,1.37 0.737,-0.859 5.523,2.762c4.787,3.622 3.794,0.053 5.302,4.3c1.508,4.248 1.262,4.248 1.649,5.743c0.387,1.496 -0.669,4.31 -0.757,6.421c-0.088,2.111 -0.318,7.983 -0.318,7.983c0,0 2.499,-2.052 2.244,-5.061c-0.255,-3.01 -1.993,-2.441 -0.068,-6.244c1.925,-3.803 2.696,-4.019 1.827,-6.022c-0.87,-2.003 -1.881,-2.88 -2.255,-3.981c-0.374,-1.1 -2.027,-1.1 -0.673,-3.123c1.354,-2.024 -0.77,0.149 1.831,-2.565c2.602,-2.713 0.347,-3.593 3.278,-2.889c2.93,0.704 3.018,0.704 3.018,0.704l0.447,-2.829c0,0 -3.072,-0.718 0,0c3.072,0.718 -0.31,2.115 4.856,2.428c5.165,0.313 5.765,-0.215 7.004,0.313c1.239,0.527 1.29,-0.076 2.584,1.897c1.294,1.973 1.996,2.465 2.525,3.846c0.528,1.382 -0.175,3.757 1.232,2.173c1.408,-1.583 1.947,-5.717 3.876,-5.893c1.93,-0.176 5.297,0.038 7.132,-0.377c1.835,-0.415 3.783,1.194 3.783,1.194c-3.035,-0.507 -9.962,8.107 -6.522,9.474c0.735,0.293 -1.594,8.775 -1.985,10.105c-0.39,1.33 4.852,9.089 4.826,7.804Z" style="fill:#97b366;"/><clipPath id="_clip12"><path d="M73.508,42.918c-0.027,-1.284 1.481,-2.667 0.595,-5.406c-0.886,-2.739 -2.909,-3.795 -0.798,-5.73c2.111,-1.935 1.182,-2.551 3.186,-3.518c2.004,-0.968 3.148,-1.144 3.499,-2.639c0.352,-1.495 2.076,-1.935 1.61,-3.782c-0.466,-1.848 0.642,-4.222 0,-6.861c-0.642,-2.639 -1.258,-4.486 -1.258,-4.486l-1.221,-1.035c0,0 -0.274,-0.285 -1.681,-0.285c-1.408,0 -0.463,0.485 -2.519,0.815c-2.055,0.329 -0.359,-0.815 -3.538,1.208c-3.179,2.023 -7.49,2.375 -7.49,2.375c0,0 -1.761,5.845 -2.727,-0.244c-0.967,-6.089 3.431,-5.825 -1.847,-7.144c-5.277,-1.32 -9.306,-2.605 -9.306,-2.605c0,0 2.533,-0.034 -1.689,-0.914c-4.222,-0.88 -12.701,-1.231 -12.701,-1.231c0,0 -1.983,-0.253 -2.821,0.533c-0.839,0.786 -2.135,-2.07 -3.378,1.689c-1.243,3.759 -4.064,5.769 -5.029,7.623c-0.964,1.853 -4.168,2.104 -1.246,3.474c2.921,1.37 0.737,-0.859 5.523,2.762c4.787,3.622 3.794,0.053 5.302,4.3c1.508,4.248 1.262,4.248 1.649,5.743c0.387,1.496 -0.669,4.31 -0.757,6.421c-0.088,2.111 -0.318,7.983 -0.318,7.983c0,0 2.499,-2.052 2.244,-5.061c-0.255,-3.01 -1.993,-2.441 -0.068,-6.244c1.925,-3.803 2.696,-4.019 1.827,-6.022c-0.87,-2.003 -1.881,-2.88 -2.255,-3.981c-0.374,-1.1 -2.027,-1.1 -0.673,-3.123c1.354,-2.024 -0.77,0.149 1.831,-2.565c2.602,-2.713 0.347,-3.593 3.278,-2.889c2.93,0.704 3.018,0.704 3.018,0.704l0.447,-2.829c0,0 -3.072,-0.718 0,0c3.072,0.718 -0.31,2.115 4.856,2.428c5.165,0.313 5.765,-0.215 7.004,0.313c1.239,0.527 1.29,-0.076 2.584,1.897c1.294,1.973 1.996,2.465 2.525,3.846c0.528,1.382 -0.175,3.757 1.232,2.173c1.408,-1.583 1.947,-5.717 3.876,-5.893c1.93,-0.176 5.297,0.038 7.132,-0.377c1.835,-0.415 3.783,1.194 3.783,1.194c-3.035,-0.507 -9.962,8.107 -6.522,9.474c0.735,0.293 -1.594,8.775 -1.985,10.105c-0.39,1.33 4.852,9.089 4.826,7.804Z"/></clipPath><g clip-path="url(#_clip12)"><path d="M57.281,-2.299l31.039,5.841l-2.786,37.298l-5.656,4.002l-9.704,-10.474l-2.648,-14.001l-13.255,-0.267l-20.451,-15.334l13.397,-13.736l10.064,6.671Z" style="fill:#c4e783;fill-opacity:0.5;"/></g></g></g></svg>