<?xml version="1.0" encoding="UTF-8" standalone="no"?><!DOCTYPE svg PUBLIC "-//W3C//DTD SVG 1.1//EN" "http://www.w3.org/Graphics/SVG/1.1/DTD/svg11.dtd"><svg width="100%" height="100%" viewBox="0 0 85 95" version="1.1" xmlns="http://www.w3.org/2000/svg" xmlns:xlink="http://www.w3.org/1999/xlink" xml:space="preserve" xmlns:serif="http://www.serif.com/" style="fill-rule:evenodd;clip-rule:evenodd;stroke-linejoin:round;stroke-miterlimit:1.41421;"><g id="Runestone_grass_runes_2"><g id="F_Runestone_runes_2"><g><g><path d="M61.216,0.794l20.434,5.108l-20.434,5.109l-20.434,-10.217l20.434,0Z" style="fill:#9da8c9;"/><clipPath id="_clip1"><path d="M61.216,0.794l20.434,5.108l-20.434,5.109l-20.434,-10.217l20.434,0Z"/></clipPath><g clip-path="url(#_clip1)"><path d="M81.724,70.942l-8.123,-11.265l8.123,-14.278l-8.69,5.872l-1.527,-10.981l-5.109,-2.554l1.599,5.908l0.902,8.167l-7.609,3.805l-1.669,-4.274l-3.44,5.297l0,6.64l8.106,-1.056l7.22,6.731l-10.217,12.205l-15.326,-2.555l-10.217,-5.108l-1.552,5.885l1.552,-0.777l7.891,3.946l-38.542,1.163l0,-20.434l18.658,5.996l-18.658,-16.213l0,-15.326l7.231,8.724l10.173,-7.209l-14.219,-18.433l9.122,-17.796l3.018,13.21l5.109,6.179l10.217,-3.293l0,-6.924l-2.676,6.446l-7.541,-1.338l10.217,-11.653l6.839,-10.47l13.595,10.278l10.217,1.628l-5.108,-2.554l-3.674,-8.381l24.108,5.843l-5.109,10.201l3.652,3.282l-6.602,15.677l11.809,-2.955l3.084,-40.684l-80.272,5.841l-16.808,107.384l98.739,-15.334l-8.493,-14.463Z" style="fill:#542f7f;fill-opacity:0.7;"/><path d="M81.65,5.902l-18.481,6.9l-1.279,3.654l-0.674,5.443l-9.596,1.806l0.581,-4.774l-16.528,14.129l-5.108,1.548l2.539,16.645l4.645,15.226l-5.301,-0.216l1.043,11.184l2.182,7.637l-6.117,-5.766l-19.425,-12.114l18.167,6.242l-0.629,-9.902l-17.538,-10.033l0,-1.632l7.618,2.278l13.807,5.032l-4.452,-7.484l-4.129,-1.871l2.481,-0.509l-15.325,-7.663l15.325,4.688l-1.19,-14.838l-14.135,-15.393l20.434,12.102l12.281,-9.613l4.129,-2.322l-16.41,-10.384l26.546,13.273l-1.004,-5.61l0.61,-2.118l-15.935,-10.653l20.434,7.814l7.307,-2.387l13.127,-0.319Z" style="fill:#f6e0f1;fill-opacity:0.9;"/></g><path d="M30.565,5.902l-5.109,7.663l-15.325,2.554l17.852,14.035l6.39,1.254l11.517,-12.735l5.109,-2.554l-20.434,-10.217" style="fill:#9da8c9;"/><clipPath id="_clip2"><path d="M30.565,5.902l-5.109,7.663l-15.325,2.554l17.852,14.035l6.39,1.254l11.517,-12.735l5.109,-2.554l-20.434,-10.217"/></clipPath><g clip-path="url(#_clip2)"><path d="M81.724,70.942l-8.123,-11.265l8.123,-14.278l-8.69,5.872l-1.527,-10.981l-5.109,-2.554l1.599,5.908l0.902,8.167l-7.609,3.805l-1.669,-4.274l-3.44,5.297l0,6.64l8.106,-1.056l7.22,6.731l-10.217,12.205l-15.326,-2.555l-10.217,-5.108l-1.552,5.885l1.552,-0.777l7.891,3.946l-38.542,1.163l0,-20.434l18.658,5.996l-18.658,-16.213l0,-15.326l7.231,8.724l10.173,-7.209l-14.219,-18.433l9.122,-17.796l3.018,13.21l5.109,6.179l10.217,-3.293l0,-6.924l-2.676,6.446l-7.541,-1.338l10.217,-11.653l6.839,-10.47l13.595,10.278l10.217,1.628l-5.108,-2.554l-3.674,-8.381l24.108,5.843l-5.109,10.201l3.652,3.282l-6.602,15.677l11.809,-2.955l3.084,-40.684l-80.272,5.841l-16.808,107.384l98.739,-15.334l-8.493,-14.463Z" style="fill:#542f7f;fill-opacity:0.7;"/><path d="M81.65,5.902l-18.481,6.9l-1.279,3.654l-0.674,5.443l-9.596,1.806l0.581,-4.774l-16.528,14.129l-5.108,1.548l2.539,16.645l4.645,15.226l-5.301,-0.216l1.043,11.184l2.182,7.637l-6.117,-5.766l-19.425,-12.114l18.167,6.242l-0.629,-9.902l-17.538,-10.033l0,-1.632l7.618,2.278l13.807,5.032l-4.452,-7.484l-4.129,-1.871l2.481,-0.509l-15.325,-7.663l15.325,4.688l-1.19,-14.838l-14.135,-15.393l20.434,12.102l12.281,-9.613l4.129,-2.322l-16.41,-10.384l26.546,13.273l-1.004,-5.61l0.61,-2.118l-15.935,-10.653l20.434,7.814l7.307,-2.387l13.127,-0.319Z" style="fill:#f6e0f1;fill-opacity:0.9;"/></g><path d="M81.65,5.902l-20.434,5.109l-5.109,7.662l-5.108,-2.554l-5.109,2.554l-11.468,12.687l-6.441,-1.207l2.584,21.726l5.108,12.771l-5.108,-2.554l0,15.326l5.108,7.662l15.326,-7.662l0,-5.109l5.108,-2.554l5.109,2.554l17.456,-8.728l1.11,-22.857l1.868,-9.283l-5.109,2.554l5.109,-12.771l0,-15.326Z" style="fill:#bac1d8;"/><clipPath id="_clip3"><path d="M81.65,5.902l-20.434,5.109l-5.109,7.662l-5.108,-2.554l-5.109,2.554l-11.468,12.687l-6.441,-1.207l2.584,21.726l5.108,12.771l-5.108,-2.554l0,15.326l5.108,7.662l15.326,-7.662l0,-5.109l5.108,-2.554l5.109,2.554l17.456,-8.728l1.11,-22.857l1.868,-9.283l-5.109,2.554l5.109,-12.771l0,-15.326Z"/></clipPath><g clip-path="url(#_clip3)"><path d="M81.724,70.942l-8.123,-11.265l8.123,-14.278l-8.69,5.872l-1.527,-10.981l-5.109,-2.554l1.599,5.908l0.902,8.167l-7.609,3.805l-1.669,-4.274l-3.44,5.297l0,6.64l8.106,-1.056l7.22,6.731l-10.217,12.205l-15.326,-2.555l-10.217,-5.108l-1.552,5.885l1.552,-0.777l7.891,3.946l-38.542,1.163l0,-20.434l18.658,5.996l-18.658,-16.213l0,-15.326l7.231,8.724l10.173,-7.209l-14.219,-18.433l9.122,-17.796l3.018,13.21l5.109,6.179l10.217,-3.293l0,-6.924l-2.676,6.446l-7.541,-1.338l10.217,-11.653l6.839,-10.47l13.595,10.278l10.217,1.628l-5.108,-2.554l-3.674,-8.381l24.108,5.843l-5.109,10.201l3.652,3.282l-6.602,15.677l11.809,-2.955l3.084,-40.684l-80.272,5.841l-16.808,107.384l98.739,-15.334l-8.493,-14.463Z" style="fill:#542f7f;fill-opacity:0.7;"/><path d="M81.65,5.902l-18.481,6.9l-1.279,3.654l-0.674,5.443l-9.596,1.806l0.581,-4.774l-16.528,14.129l-5.108,1.548l2.539,16.645l4.645,15.226l-5.301,-0.216l1.043,11.184l2.182,7.637l-6.117,-5.766l-19.425,-12.114l18.167,6.242l-0.629,-9.902l-17.538,-10.033l0,-1.632l7.618,2.278l13.807,5.032l-4.452,-7.484l-4.129,-1.871l2.481,-0.509l-15.325,-7.663l15.325,4.688l-1.19,-14.838l-14.135,-15.393l20.434,12.102l12.281,-9.613l4.129,-2.322l-16.41,-10.384l26.546,13.273l-1.004,-5.61l0.61,-2.118l-15.935,-10.653l20.434,7.814l7.307,-2.387l13.127,-0.319Z" style="fill:#f6e0f1;fill-opacity:0.9;"/></g><path d="M10.131,16.119l17.852,14.035l2.582,21.725l-20.434,-10.217l1.887,-9.274l-1.887,-16.269Z" style="fill:#6c7157;"/><clipPath id="_clip4"><path d="M10.131,16.119l17.852,14.035l2.582,21.725l-20.434,-10.217l1.887,-9.274l-1.887,-16.269Z"/></clipPath><g clip-path="url(#_clip4)"><path d="M81.724,70.942l-8.123,-11.265l8.123,-14.278l-8.69,5.872l-1.527,-10.981l-5.109,-2.554l1.599,5.908l0.902,8.167l-7.609,3.805l-1.669,-4.274l-3.44,5.297l0,6.64l8.106,-1.056l7.22,6.731l-10.217,12.205l-15.326,-2.555l-10.217,-5.108l-1.552,5.885l1.552,-0.777l7.891,3.946l-38.542,1.163l0,-20.434l18.658,5.996l-18.658,-16.213l0,-15.326l7.231,8.724l10.173,-7.209l-14.219,-18.433l9.122,-17.796l3.018,13.21l5.109,6.179l10.217,-3.293l0,-6.924l-2.676,6.446l-7.541,-1.338l10.217,-11.653l6.839,-10.47l13.595,10.278l10.217,1.628l-5.108,-2.554l-3.674,-8.381l24.108,5.843l-5.109,10.201l3.652,3.282l-6.602,15.677l11.809,-2.955l3.084,-40.684l-80.272,5.841l-16.808,107.384l98.739,-15.334l-8.493,-14.463Z" style="fill:#542f7f;fill-opacity:0.7;"/><path d="M81.65,5.902l-18.481,6.9l-1.279,3.654l-0.674,5.443l-9.596,1.806l0.581,-4.774l-16.528,14.129l-5.108,1.548l2.539,16.645l4.645,15.226l-5.301,-0.216l1.043,11.184l2.182,7.637l-6.117,-5.766l-19.425,-12.114l18.167,6.242l-0.629,-9.902l-17.538,-10.033l0,-1.632l7.618,2.278l13.807,5.032l-4.452,-7.484l-4.129,-1.871l2.481,-0.509l-15.325,-7.663l15.325,4.688l-1.19,-14.838l-14.135,-15.393l20.434,12.102l12.281,-9.613l4.129,-2.322l-16.41,-10.384l26.546,13.273l-1.004,-5.61l0.61,-2.118l-15.935,-10.653l20.434,7.814l7.307,-2.387l13.127,-0.319Z" style="fill:#f6e0f1;fill-opacity:0.4;"/></g><path d="M35.673,85.084l-20.434,-10.217l-5.108,-7.663l0,-15.325l20.434,10.217l0,15.326l5.108,7.662Z" style="fill:#6c7157;"/><clipPath id="_clip5"><path d="M35.673,85.084l-20.434,-10.217l-5.108,-7.663l0,-15.325l20.434,10.217l0,15.326l5.108,7.662Z"/></clipPath><g clip-path="url(#_clip5)"><path d="M81.724,70.942l-8.123,-11.265l8.123,-14.278l-8.69,5.872l-1.527,-10.981l-5.109,-2.554l1.599,5.908l0.902,8.167l-7.609,3.805l-1.669,-4.274l-3.44,5.297l0,6.64l8.106,-1.056l7.22,6.731l-10.217,12.205l-15.326,-2.555l-10.217,-5.108l-1.552,5.885l1.552,-0.777l7.891,3.946l-38.542,1.163l0,-20.434l18.658,5.996l-18.658,-16.213l0,-15.326l7.231,8.724l10.173,-7.209l-14.219,-18.433l9.122,-17.796l3.018,13.21l5.109,6.179l10.217,-3.293l0,-6.924l-2.676,6.446l-7.541,-1.338l10.217,-11.653l6.839,-10.47l13.595,10.278l10.217,1.628l-5.108,-2.554l-3.674,-8.381l24.108,5.843l-5.109,10.201l3.652,3.282l-6.602,15.677l11.809,-2.955l3.084,-40.684l-80.272,5.841l-16.808,107.384l98.739,-15.334l-8.493,-14.463Z" style="fill:#542f7f;fill-opacity:0.7;"/><path d="M81.65,5.902l-18.481,6.9l-1.279,3.654l-0.674,5.443l-9.596,1.806l0.581,-4.774l-16.528,14.129l-5.108,1.548l2.539,16.645l4.645,15.226l-5.301,-0.216l1.043,11.184l2.182,7.637l-6.117,-5.766l-19.425,-12.114l18.167,6.242l-0.629,-9.902l-17.538,-10.033l0,-1.632l7.618,2.278l13.807,5.032l-4.452,-7.484l-4.129,-1.871l2.481,-0.509l-15.325,-7.663l15.325,4.688l-1.19,-14.838l-14.135,-15.393l20.434,12.102l12.281,-9.613l4.129,-2.322l-16.41,-10.384l26.546,13.273l-1.004,-5.61l0.61,-2.118l-15.935,-10.653l20.434,7.814l7.307,-2.387l13.127,-0.319Z" style="fill:#f6e0f1;fill-opacity:0.4;"/></g><path d="M10.131,41.662l15.325,7.663l-15.325,2.554l25.542,12.771l-5.108,-12.771l-20.434,-10.217Z" style="fill:#395346;"/><clipPath id="_clip6"><path d="M10.131,41.662l15.325,7.663l-15.325,2.554l25.542,12.771l-5.108,-12.771l-20.434,-10.217Z"/></clipPath><g clip-path="url(#_clip6)"><path d="M81.65,5.902l-18.481,6.9l-1.279,3.654l-0.674,5.443l-9.596,1.806l0.581,-4.774l-16.528,14.129l-5.108,1.548l2.539,16.645l4.645,15.226l-5.301,-0.216l1.043,11.184l2.182,7.637l-6.117,-5.766l-19.425,-12.114l18.167,6.242l-0.629,-9.902l-17.538,-10.033l0,-1.632l7.618,2.278l13.807,5.032l-4.452,-7.484l-4.129,-1.871l2.481,-0.509l-15.325,-7.663l15.325,4.688l-1.19,-14.838l-14.135,-15.393l20.434,12.102l12.281,-9.613l4.129,-2.322l-16.41,-10.384l26.546,13.273l-1.004,-5.61l0.61,-2.118l-15.935,-10.653l20.434,7.814l7.307,-2.387l13.127,-0.319Z" style="fill:#f6e0f1;fill-opacity:0.4;"/></g><path d="M10.131,67.204l20.434,10.218l5.108,7.662l-20.434,-10.217l-5.108,-7.663Z" style="fill:#395346;"/><clipPath id="_clip7"><path d="M10.131,67.204l20.434,10.218l5.108,7.662l-20.434,-10.217l-5.108,-7.663Z"/></clipPath><g clip-path="url(#_clip7)"><path d="M81.65,5.902l-18.481,6.9l-1.279,3.654l-0.674,5.443l-9.596,1.806l0.581,-4.774l-16.528,14.129l-5.108,1.548l2.539,16.645l4.645,15.226l-5.301,-0.216l1.043,11.184l2.182,7.637l-6.117,-5.766l-19.425,-12.114l18.167,6.242l-0.629,-9.902l-17.538,-10.033l0,-1.632l7.618,2.278l13.807,5.032l-4.452,-7.484l-4.129,-1.871l2.481,-0.509l-15.325,-7.663l15.325,4.688l-1.19,-14.838l-14.135,-15.393l20.434,12.102l12.281,-9.613l4.129,-2.322l-16.41,-10.384l26.546,13.273l-1.004,-5.61l0.61,-2.118l-15.935,-10.653l20.434,7.814l7.307,-2.387l13.127,-0.319Z" style="fill:#f6e0f1;fill-opacity:0.9;"/></g><path d="M40.782,0.794l-5.109,7.662l20.434,10.217l-2.438,3.89l5.527,-2.345l-0.435,-5.326l2.455,-3.881l-20.434,-10.217Z" style="fill:#6c7157;"/><clipPath id="_clip8"><path d="M40.782,0.794l-5.109,7.662l20.434,10.217l-2.438,3.89l5.527,-2.345l-0.435,-5.326l2.455,-3.881l-20.434,-10.217Z"/></clipPath><g clip-path="url(#_clip8)"><path d="M81.65,5.902l-18.481,6.9l-1.279,3.654l-0.674,5.443l-9.596,1.806l0.581,-4.774l-16.528,14.129l-5.108,1.548l2.539,16.645l4.645,15.226l-5.301,-0.216l1.043,11.184l2.182,7.637l-6.117,-5.766l-19.425,-12.114l18.167,6.242l-0.629,-9.902l-17.538,-10.033l0,-1.632l7.618,2.278l13.807,5.032l-4.452,-7.484l-4.129,-1.871l2.481,-0.509l-15.325,-7.663l15.325,4.688l-1.19,-14.838l-14.135,-15.393l20.434,12.102l12.281,-9.613l4.129,-2.322l-16.41,-10.384l26.546,13.273l-1.004,-5.61l0.61,-2.118l-15.935,-10.653l20.434,7.814l7.307,-2.387l13.127,-0.319Z" style="fill:#f6e0f1;fill-opacity:0.9;"/></g></g></g></g><path d="M79.43,48.366c0,0 6.023,1.537 4.351,7.225c-1.672,5.689 -0.691,6.842 -2.095,11.265c-1.405,4.424 -2.577,0.768 -5.109,5.714c-2.445,4.776 -1.717,6.082 -12.733,10.908c-0.392,0.171 1.247,-3.193 0.82,-3.003c-0.898,0.4 -1.668,0.754 -2.331,1.071c-8.523,4.066 0.853,1.733 -12.241,5.273c-0.883,0.239 3.879,1.316 3.076,1.538c-0.803,0.222 -3.477,-0.207 -4.251,-0.008c-2.579,0.663 -4.884,1.237 -6.919,1.727c-0.37,0.089 1.938,2.016 -1.083,0.259c-5.189,-3.018 -9.236,2.024 -10.315,2.064c-1.716,0.063 -4.565,-3.054 -7.872,-1.173c-3.306,1.881 -2.554,4.569 -5.78,1.344c-1.543,-1.544 -3.353,-0.852 -3.845,-1.639c-0.538,-0.858 0.225,-3.129 -2.109,-3.227c-0.531,-0.022 -1.709,4.029 -2.194,4.012c-3.597,-0.129 -5.276,-4.159 -6.946,-3.473c-1.895,0.778 -2.04,-0.867 0.667,-4.775c2.707,-3.909 3.812,-1.699 3.69,-4.417c-0.123,-2.718 -2.474,-3.872 -2.474,-3.872c0,0 -1.964,1.936 -1.473,-2.057c0.491,-3.993 -0.318,-4.202 0.839,-4.689c1.157,-0.487 1.892,1.664 1.955,-1.239c0.063,-2.904 -0.708,-1.506 0,-3.764c0.708,-2.258 0.201,-0.492 1.315,-3.579c1.113,-3.088 0.45,-5.273 0.459,-6.653c0.009,-1.381 -1.066,-0.413 0.009,-1.703c1.075,-1.291 5.754,-2.798 7.339,-3.066c1.586,-0.268 7.177,1.13 7.177,1.13l-11.191,2.263l0,15.034l5.109,7.663c0,0 0.363,2.441 2.875,1.437c2.511,-1.004 1.961,-1.004 3.007,-1.004c1.046,0 0.88,-0.055 2.807,1.487c1.927,1.541 3.277,2.314 3.277,2.314c0,0 1.568,1.099 2.669,1.705c1.101,0.605 1.717,2.237 1.717,2.237l0.485,-0.751c0,0 0.4,0.25 0.365,-0.701c-0.034,-0.95 0.351,-2.712 0.158,-3.152c-0.192,-0.441 -1.294,-1.267 0.193,-0.551c1.486,0.716 0.969,0.76 2.053,1.674c1.085,0.913 -1.018,1.927 1.96,0.98c2.979,-0.947 2.056,-1.223 3.976,-1.113c1.921,0.111 1.095,1.322 3.022,0.056c1.926,-1.267 1.926,-0.496 2.642,-1.762c0.716,-1.266 0.661,-1.652 0.661,-1.652c0,0 -2.243,1.017 -0.048,-0.62l2.195,-1.637c0,0 -0.569,0.899 0.101,-0.679c0.67,-1.578 0.637,-0.587 1.644,-2.239c1.008,-1.651 0.123,-1.864 1.997,-2.694c1.873,-0.829 -0.109,-2.04 2.204,-0.939c2.312,1.101 0.378,0.48 3.492,1.204c3.114,0.723 3.389,0.502 4.545,0.723c1.157,0.22 -1.376,-1.102 1.267,-2.918c2.642,-1.817 3.064,-0.588 3.018,-2.221c-0.045,-1.633 -2.523,-2.679 0.12,-2.789c2.642,-0.11 -1.705,2.033 2.671,0.273c4.376,-1.76 3.88,-0.438 4.706,-1.87c0.826,-1.431 1.835,-1.486 1.523,-2.697c-0.312,-1.211 -0.405,-2.333 -0.405,-2.333l2.892,2.961l0.366,-8.882Z" style="fill:#546c45;"/><clipPath id="_clip9"><path d="M79.43,48.366c0,0 6.023,1.537 4.351,7.225c-1.672,5.689 -0.691,6.842 -2.095,11.265c-1.405,4.424 -2.577,0.768 -5.109,5.714c-2.445,4.776 -1.717,6.082 -12.733,10.908c-0.392,0.171 1.247,-3.193 0.82,-3.003c-0.898,0.4 -1.668,0.754 -2.331,1.071c-8.523,4.066 0.853,1.733 -12.241,5.273c-0.883,0.239 3.879,1.316 3.076,1.538c-0.803,0.222 -3.477,-0.207 -4.251,-0.008c-2.579,0.663 -4.884,1.237 -6.919,1.727c-0.37,0.089 1.938,2.016 -1.083,0.259c-5.189,-3.018 -9.236,2.024 -10.315,2.064c-1.716,0.063 -4.565,-3.054 -7.872,-1.173c-3.306,1.881 -2.554,4.569 -5.78,1.344c-1.543,-1.544 -3.353,-0.852 -3.845,-1.639c-0.538,-0.858 0.225,-3.129 -2.109,-3.227c-0.531,-0.022 -1.709,4.029 -2.194,4.012c-3.597,-0.129 -5.276,-4.159 -6.946,-3.473c-1.895,0.778 -2.04,-0.867 0.667,-4.775c2.707,-3.909 3.812,-1.699 3.69,-4.417c-0.123,-2.718 -2.474,-3.872 -2.474,-3.872c0,0 -1.964,1.936 -1.473,-2.057c0.491,-3.993 -0.318,-4.202 0.839,-4.689c1.157,-0.487 1.892,1.664 1.955,-1.239c0.063,-2.904 -0.708,-1.506 0,-3.764c0.708,-2.258 0.201,-0.492 1.315,-3.579c1.113,-3.088 0.45,-5.273 0.459,-6.653c0.009,-1.381 -1.066,-0.413 0.009,-1.703c1.075,-1.291 5.754,-2.798 7.339,-3.066c1.586,-0.268 7.177,1.13 7.177,1.13l-11.191,2.263l0,15.034l5.109,7.663c0,0 0.363,2.441 2.875,1.437c2.511,-1.004 1.961,-1.004 3.007,-1.004c1.046,0 0.88,-0.055 2.807,1.487c1.927,1.541 3.277,2.314 3.277,2.314c0,0 1.568,1.099 2.669,1.705c1.101,0.605 1.717,2.237 1.717,2.237l0.485,-0.751c0,0 0.4,0.25 0.365,-0.701c-0.034,-0.95 0.351,-2.712 0.158,-3.152c-0.192,-0.441 -1.294,-1.267 0.193,-0.551c1.486,0.716 0.969,0.76 2.053,1.674c1.085,0.913 -1.018,1.927 1.96,0.98c2.979,-0.947 2.056,-1.223 3.976,-1.113c1.921,0.111 1.095,1.322 3.022,0.056c1.926,-1.267 1.926,-0.496 2.642,-1.762c0.716,-1.266 0.661,-1.652 0.661,-1.652c0,0 -2.243,1.017 -0.048,-0.62l2.195,-1.637c0,0 -0.569,0.899 0.101,-0.679c0.67,-1.578 0.637,-0.587 1.644,-2.239c1.008,-1.651 0.123,-1.864 1.997,-2.694c1.873,-0.829 -0.109,-2.04 2.204,-0.939c2.312,1.101 0.378,0.48 3.492,1.204c3.114,0.723 3.389,0.502 4.545,0.723c1.157,0.22 -1.376,-1.102 1.267,-2.918c2.642,-1.817 3.064,-0.588 3.018,-2.221c-0.045,-1.633 -2.523,-2.679 0.12,-2.789c2.642,-0.11 -1.705,2.033 2.671,0.273c4.376,-1.76 3.88,-0.438 4.706,-1.87c0.826,-1.431 1.835,-1.486 1.523,-2.697c-0.312,-1.211 -0.405,-2.333 -0.405,-2.333l2.892,2.961l0.366,-8.882Z"/></clipPath><g clip-path="url(#_clip9)"><path d="M85.98,36.374l18.329,50.033l-68.039,22.174l-11.593,-5.796l28.829,-46.888l32.474,-19.523" style="fill:#c4e783;fill-opacity:0.5;"/><path d="M88.028,52.119l-4.555,4.581l-1.787,1.225c0,0 0.431,2.914 0,3.823c-0.432,0.908 -2.456,3.881 -2.456,3.881c0,0 -0.557,0.898 -1.632,1.974c-1.075,1.075 -1.873,1.381 -1.873,1.381l-0.689,-0.344l2.562,-6.521l0.645,-1.076l-1.666,-0.537c0,0 -2.42,2.795 -3.172,4.193c-0.753,1.398 -0.901,1.64 -0.901,1.64c0,0 0.147,0.511 -1.035,1.694c-1.183,1.182 -2.522,2.249 -1.96,2.952c0.562,0.703 0.866,1.526 0.866,1.526c0,0 -1.809,1.005 -3.099,0.36c-1.291,-0.645 0.322,-0.967 -1.936,-1.505c-2.258,-0.538 -3.018,-1.061 -5.917,-0.316c-2.9,0.746 -4.083,-6.136 -5.373,0.746c-1.29,6.882 -2.483,7.204 -3.016,8.064c-0.532,0.861 1.738,1.159 -1.655,1.494c-3.393,0.334 -4.684,0.442 -4.684,0.442c0,0 -4.619,2.268 -6.556,1.725c-1.938,-0.542 0.841,-1.187 -2.43,-0.435c-3.272,0.753 -7.808,1.506 -10.217,2.581c-2.409,1.075 -4.448,2.051 -7.461,2.8c-3.013,0.748 -2.275,0.839 -0.786,-0.398c4.039,-3.352 -6.057,-0.788 -4.747,-3.159c1.582,-2.863 2.777,-2.791 2.777,-2.791l-3.037,-4.01l-2.072,0.246c0,0 0.273,1.057 -1.792,-0.386c-2.066,-1.442 -2.732,-1.484 -1.915,-4.151c0.817,-2.667 2.247,-1.225 1.156,-3.129c-1.091,-1.904 -1.737,0.139 -1.091,-3.732c0.645,-3.871 0.752,-4.838 0.752,-4.838c0,0 -1.077,-2.477 -0.753,-3.658c0.323,-1.181 0.431,-2.149 0.431,-2.149l-4.543,1.558l2.647,-6.074l0,-0.86c0,0 -6.599,-2.903 -7.567,0.753c-0.967,3.656 -3.215,4.065 -1.231,13.323c1.984,9.257 2.572,10.123 1.311,15.98c-1.262,5.858 -3.843,9.621 -0.832,10.911c3.01,1.291 0.322,2.258 11.72,2.904c11.398,0.645 59.586,-4.12 59.586,-4.12l22.994,-25.343l-3.011,-13.225" style="fill:#97b366;"/><clipPath id="_clip10"><path d="M88.028,52.119l-4.555,4.581l-1.787,1.225c0,0 0.431,2.914 0,3.823c-0.432,0.908 -2.456,3.881 -2.456,3.881c0,0 -0.557,0.898 -1.632,1.974c-1.075,1.075 -1.873,1.381 -1.873,1.381l-0.689,-0.344l2.562,-6.521l0.645,-1.076l-1.666,-0.537c0,0 -2.42,2.795 -3.172,4.193c-0.753,1.398 -0.901,1.64 -0.901,1.64c0,0 0.147,0.511 -1.035,1.694c-1.183,1.182 -2.522,2.249 -1.96,2.952c0.562,0.703 0.866,1.526 0.866,1.526c0,0 -1.809,1.005 -3.099,0.36c-1.291,-0.645 0.322,-0.967 -1.936,-1.505c-2.258,-0.538 -3.018,-1.061 -5.917,-0.316c-2.9,0.746 -4.083,-6.136 -5.373,0.746c-1.29,6.882 -2.483,7.204 -3.016,8.064c-0.532,0.861 1.738,1.159 -1.655,1.494c-3.393,0.334 -4.684,0.442 -4.684,0.442c0,0 -4.619,2.268 -6.556,1.725c-1.938,-0.542 0.841,-1.187 -2.43,-0.435c-3.272,0.753 -7.808,1.506 -10.217,2.581c-2.409,1.075 -4.448,2.051 -7.461,2.8c-3.013,0.748 -2.275,0.839 -0.786,-0.398c4.039,-3.352 -6.057,-0.788 -4.747,-3.159c1.582,-2.863 2.777,-2.791 2.777,-2.791l-3.037,-4.01l-2.072,0.246c0,0 0.273,1.057 -1.792,-0.386c-2.066,-1.442 -2.732,-1.484 -1.915,-4.151c0.817,-2.667 2.247,-1.225 1.156,-3.129c-1.091,-1.904 -1.737,0.139 -1.091,-3.732c0.645,-3.871 0.752,-4.838 0.752,-4.838c0,0 -1.077,-2.477 -0.753,-3.658c0.323,-1.181 0.431,-2.149 0.431,-2.149l-4.543,1.558l2.647,-6.074l0,-0.86c0,0 -6.599,-2.903 -7.567,0.753c-0.967,3.656 -3.215,4.065 -1.231,13.323c1.984,9.257 2.572,10.123 1.311,15.98c-1.262,5.858 -3.843,9.621 -0.832,10.911c3.01,1.291 0.322,2.258 11.72,2.904c11.398,0.645 59.586,-4.12 59.586,-4.12l22.994,-25.343l-3.011,-13.225"/></clipPath><g clip-path="url(#_clip10)"><path d="M85.98,36.374l18.329,50.033l-68.039,22.174l-11.593,-5.796l28.829,-46.888l32.474,-19.523" style="fill:#c4e783;fill-opacity:0.5;"/></g><path d="M29.786,69.58l-34.27,22.243l-1.49,-52.228l38.658,5.891l-2.898,24.094" style="fill-opacity:0.5;"/></g></g></svg>