<?xml version="1.0" encoding="UTF-8" standalone="no"?><!DOCTYPE svg PUBLIC "-//W3C//DTD SVG 1.1//EN" "http://www.w3.org/Graphics/SVG/1.1/DTD/svg11.dtd"><svg width="100%" height="100%" viewBox="0 0 91 105" version="1.1" xmlns="http://www.w3.org/2000/svg" xmlns:xlink="http://www.w3.org/1999/xlink" xml:space="preserve" xmlns:serif="http://www.serif.com/" style="fill-rule:evenodd;clip-rule:evenodd;stroke-linejoin:round;stroke-miterlimit:1.41421;"><g id="Runestone_grass_runes_1"><g id="F_Runestone_runes_1"><g><g><g><path d="M61.181,0.474l20.434,10.217l-20.434,10.217l-20.434,-10.217l20.434,-10.217Z" style="fill:#9da8c9;"/><clipPath id="_clip1"><path d="M61.181,0.474l20.434,10.217l-20.434,10.217l-20.434,-10.217l20.434,-10.217Z"/></clipPath><g clip-path="url(#_clip1)"><path d="M84.246,69.343l-10.719,-7.911l-2.055,-16.353l-2.977,16.814l10.72,12.6l-15.707,10.328l-3.668,-13.492l1.415,-10.924l-5.109,4.654l0,13.226l-13.317,3.558l10.939,2.74l-11.143,12.484l-6.913,-10.65l-5.108,-3.656l-18.08,9.472l15.264,0.231l12.413,0.867l-4.489,7.71l-30.651,0.962l-2.387,-27.633l7.496,6.469l6.792,1.712l3.425,-1.712l-7.428,-3.714l-4.457,-12.445l-0.848,-23.451l12.733,8.959l1.983,4.117l1.42,-5.819l-3.403,-3.407l-11.817,-14.525l4.26,-17.456l17.774,16.656l-5.109,-17.88l11.545,-5.772l8.889,-4.445l7.848,9.032l4.367,5.295l3.111,-1.556l5.108,-4.977l-5.108,-3.079l0,2.948l-5.109,-2.555l2.564,-3.826l12.762,4.01l7.677,1.1l7.649,10.83l-1.661,12.599l1.661,31.481l7.733,-67.652l-72.438,-2.166l-40.256,53.098l18.116,65.251l76.628,-0.636l7.665,-41.511" style="fill:#542f7f;fill-opacity:0.7;"/><path d="M81.615,10.691l-20.434,7.207l-20.434,-7.207l16.528,11.038l-2.016,4.233l-4.295,0.055l-20.434,-10.218l15.326,9.861l-14.488,7.762l-21.272,-7.405l18.954,12.849l-0.446,18.765l-18.508,-6.072l5.108,2.554l15.326,10.055l2.854,-2.621l-2.854,7.762l-20.434,-7.533l18.752,12.069l1.682,23.691l1.935,-24.575l4.714,-14.509l-4.299,0.675l0.404,-5.141l-1.311,-16.129l18.225,-7.115l8.697,-0.76l5.175,-7.629l17.545,-11.662Z" style="fill:#f6e0f1;fill-opacity:0.9;"/></g><path d="M30.53,15.799l-20.434,10.218l20.434,10.217l20.434,-10.217l-20.434,-10.218" style="fill:#9da8c9;"/><clipPath id="_clip2"><path d="M30.53,15.799l-20.434,10.218l20.434,10.217l20.434,-10.217l-20.434,-10.218"/></clipPath><g clip-path="url(#_clip2)"><path d="M84.246,69.343l-10.719,-7.911l-2.055,-16.353l-2.977,16.814l10.72,12.6l-15.707,10.328l-3.668,-13.492l1.415,-10.924l-5.109,4.654l0,13.226l-13.317,3.558l10.939,2.74l-11.143,12.484l-6.913,-10.65l-5.108,-3.656l-18.08,9.472l15.264,0.231l12.413,0.867l-4.489,7.71l-30.651,0.962l-2.387,-27.633l7.496,6.469l6.792,1.712l3.425,-1.712l-7.428,-3.714l-4.457,-12.445l-0.848,-23.451l12.733,8.959l1.983,4.117l1.42,-5.819l-3.403,-3.407l-11.817,-14.525l4.26,-17.456l17.774,16.656l-5.109,-17.88l11.545,-5.772l8.889,-4.445l7.848,9.032l4.367,5.295l3.111,-1.556l5.108,-4.977l-5.108,-3.079l0,2.948l-5.109,-2.555l2.564,-3.826l12.762,4.01l7.677,1.1l7.649,10.83l-1.661,12.599l1.661,31.481l7.733,-67.652l-72.438,-2.166l-40.256,53.098l18.116,65.251l76.628,-0.636l7.665,-41.511" style="fill:#542f7f;fill-opacity:0.7;"/><path d="M81.615,10.691l-20.434,7.207l-20.434,-7.207l16.528,11.038l-2.016,4.233l-4.295,0.055l-20.434,-10.218l15.326,9.861l-14.488,7.762l-21.272,-7.405l18.954,12.849l-0.446,18.765l-18.508,-6.072l5.108,2.554l15.326,10.055l2.854,-2.621l-2.854,7.762l-20.434,-7.533l18.752,12.069l1.682,23.691l1.935,-24.575l4.714,-14.509l-4.299,0.675l0.404,-5.141l-1.311,-16.129l18.225,-7.115l8.697,-0.76l5.175,-7.629l17.545,-11.662Z" style="fill:#f6e0f1;fill-opacity:0.9;"/></g><path d="M40.747,10.691l-5.109,7.663l20.435,10.217l5.108,-7.663l-20.434,-10.217Z" style="fill:#6c7157;"/><clipPath id="_clip3"><path d="M40.747,10.691l-5.109,7.663l20.435,10.217l5.108,-7.663l-20.434,-10.217Z"/></clipPath><g clip-path="url(#_clip3)"><path d="M84.246,69.343l-10.719,-7.911l-2.055,-16.353l-2.977,16.814l10.72,12.6l-15.707,10.328l-3.668,-13.492l1.415,-10.924l-5.109,4.654l0,13.226l-13.317,3.558l10.939,2.74l-11.143,12.484l-6.913,-10.65l-5.108,-3.656l-18.08,9.472l15.264,0.231l12.413,0.867l-4.489,7.71l-30.651,0.962l-2.387,-27.633l7.496,6.469l6.792,1.712l3.425,-1.712l-7.428,-3.714l-4.457,-12.445l-0.848,-23.451l12.733,8.959l1.983,4.117l1.42,-5.819l-3.403,-3.407l-11.817,-14.525l4.26,-17.456l17.774,16.656l-5.109,-17.88l11.545,-5.772l8.889,-4.445l7.848,9.032l4.367,5.295l3.111,-1.556l5.108,-4.977l-5.108,-3.079l0,2.948l-5.109,-2.555l2.564,-3.826l12.762,4.01l7.677,1.1l7.649,10.83l-1.661,12.599l1.661,31.481l7.733,-67.652l-72.438,-2.166l-40.256,53.098l18.116,65.251l76.628,-0.636l7.665,-41.511" style="fill:#542f7f;fill-opacity:0.7;"/><path d="M81.615,10.691l-20.434,7.207l-20.434,-7.207l16.528,11.038l-2.016,4.233l-4.295,0.055l-20.434,-10.218l15.326,9.861l-14.488,7.762l-21.272,-7.405l18.954,12.849l-0.446,18.765l-18.508,-6.072l5.108,2.554l15.326,10.055l2.854,-2.621l-2.854,7.762l-20.434,-7.533l18.752,12.069l1.682,23.691l1.935,-24.575l4.714,-14.509l-4.299,0.675l0.404,-5.141l-1.311,-16.129l18.225,-7.115l8.697,-0.76l5.175,-7.629l17.545,-11.662Z" style="fill:#f6e0f1;fill-opacity:0.9;"/></g><path d="M81.615,10.691l-20.434,10.217l-5.108,7.663l-5.109,-2.554l-20.434,10.217l0,25.542l5.108,-2.554l-5.108,12.771l0,25.543l20.434,-10.217l0,-5.109l5.109,-2.554l5.108,2.554l20.434,-10.217l0,-30.651l-5.108,2.554l5.108,-12.771l0,-20.434" style="fill:#bac1d8;"/><clipPath id="_clip4"><path d="M81.615,10.691l-20.434,10.217l-5.108,7.663l-5.109,-2.554l-20.434,10.217l0,25.542l5.108,-2.554l-5.108,12.771l0,25.543l20.434,-10.217l0,-5.109l5.109,-2.554l5.108,2.554l20.434,-10.217l0,-30.651l-5.108,2.554l5.108,-12.771l0,-20.434"/></clipPath><g clip-path="url(#_clip4)"><path d="M84.246,69.343l-10.719,-7.911l-2.055,-16.353l-2.977,16.814l10.72,12.6l-15.707,10.328l-3.668,-13.492l1.415,-10.924l-5.109,4.654l0,13.226l-13.317,3.558l10.939,2.74l-11.143,12.484l-6.913,-10.65l-5.108,-3.656l-18.08,9.472l15.264,0.231l12.413,0.867l-4.489,7.71l-30.651,0.962l-2.387,-27.633l7.496,6.469l6.792,1.712l3.425,-1.712l-7.428,-3.714l-4.457,-12.445l-0.848,-23.451l12.733,8.959l1.983,4.117l1.42,-5.819l-3.403,-3.407l-11.817,-14.525l4.26,-17.456l17.774,16.656l-5.109,-17.88l11.545,-5.772l8.889,-4.445l7.848,9.032l4.367,5.295l3.111,-1.556l5.108,-4.977l-5.108,-3.079l0,2.948l-5.109,-2.555l2.564,-3.826l12.762,4.01l7.677,1.1l7.649,10.83l-1.661,12.599l1.661,31.481l7.733,-67.652l-72.438,-2.166l-40.256,53.098l18.116,65.251l76.628,-0.636l7.665,-41.511" style="fill:#542f7f;fill-opacity:0.7;"/><path d="M81.615,10.691l-20.434,7.207l-20.434,-7.207l16.528,11.038l-2.016,4.233l-4.295,0.055l-20.434,-10.218l15.326,9.861l-14.488,7.762l-21.272,-7.405l18.954,12.849l-0.446,18.765l-18.508,-6.072l5.108,2.554l15.326,10.055l2.854,-2.621l-2.854,7.762l-20.434,-7.533l18.752,12.069l1.682,23.691l1.935,-24.575l4.714,-14.509l-4.299,0.675l0.404,-5.141l-1.311,-16.129l18.225,-7.115l8.697,-0.76l5.175,-7.629l17.545,-11.662Z" style="fill:#f6e0f1;fill-opacity:0.9;"/></g><path d="M10.096,26.017l20.434,10.217l0,25.542l-20.434,-10.217l0,-25.542Z" style="fill:#6c7157;"/><clipPath id="_clip5"><path d="M10.096,26.017l20.434,10.217l0,25.542l-20.434,-10.217l0,-25.542Z"/></clipPath><g clip-path="url(#_clip5)"><path d="M84.246,69.343l-10.719,-7.911l-2.055,-16.353l-2.977,16.814l10.72,12.6l-15.707,10.328l-3.668,-13.492l1.415,-10.924l-5.109,4.654l0,13.226l-13.317,3.558l10.939,2.74l-11.143,12.484l-6.913,-10.65l-5.108,-3.656l-18.08,9.472l15.264,0.231l12.413,0.867l-4.489,7.71l-30.651,0.962l-2.387,-27.633l7.496,6.469l6.792,1.712l3.425,-1.712l-7.428,-3.714l-4.457,-12.445l-0.848,-23.451l12.733,8.959l1.983,4.117l1.42,-5.819l-3.403,-3.407l-11.817,-14.525l4.26,-17.456l17.774,16.656l-5.109,-17.88l11.545,-5.772l8.889,-4.445l7.848,9.032l4.367,5.295l3.111,-1.556l5.108,-4.977l-5.108,-3.079l0,2.948l-5.109,-2.555l2.564,-3.826l12.762,4.01l7.677,1.1l7.649,10.83l-1.661,12.599l1.661,31.481l7.733,-67.652l-72.438,-2.166l-40.256,53.098l18.116,65.251l76.628,-0.636l7.665,-41.511" style="fill:#542f7f;fill-opacity:0.7;"/><path d="M81.615,10.691l-20.434,7.207l-20.434,-7.207l16.528,11.038l-2.016,4.233l-4.295,0.055l-20.434,-10.218l15.326,9.861l-14.488,7.762l-21.272,-7.405l18.954,12.849l-0.446,18.765l-18.508,-6.072l5.108,2.554l15.326,10.055l2.854,-2.621l-2.854,7.762l-20.434,-7.533l18.752,12.069l1.682,23.691l1.935,-24.575l4.714,-14.509l-4.299,0.675l0.404,-5.141l-1.311,-16.129l18.225,-7.115l8.697,-0.76l5.175,-7.629l17.545,-11.662Z" style="fill:#f6e0f1;fill-opacity:0.4;"/></g><path d="M30.53,97.536l-20.434,-10.217l0,-25.543l20.434,10.217l0,25.543" style="fill:#6c7157;"/><clipPath id="_clip6"><path d="M30.53,97.536l-20.434,-10.217l0,-25.543l20.434,10.217l0,25.543"/></clipPath><g clip-path="url(#_clip6)"><path d="M84.246,69.343l-10.719,-7.911l-2.055,-16.353l-2.977,16.814l10.72,12.6l-15.707,10.328l-3.668,-13.492l1.415,-10.924l-5.109,4.654l0,13.226l-13.317,3.558l10.939,2.74l-11.143,12.484l-6.913,-10.65l-5.108,-3.656l-18.08,9.472l15.264,0.231l12.413,0.867l-4.489,7.71l-30.651,0.962l-2.387,-27.633l7.496,6.469l6.792,1.712l3.425,-1.712l-7.428,-3.714l-4.457,-12.445l-0.848,-23.451l12.733,8.959l1.983,4.117l1.42,-5.819l-3.403,-3.407l-11.817,-14.525l4.26,-17.456l17.774,16.656l-5.109,-17.88l11.545,-5.772l8.889,-4.445l7.848,9.032l4.367,5.295l3.111,-1.556l5.108,-4.977l-5.108,-3.079l0,2.948l-5.109,-2.555l2.564,-3.826l12.762,4.01l7.677,1.1l7.649,10.83l-1.661,12.599l1.661,31.481l7.733,-67.652l-72.438,-2.166l-40.256,53.098l18.116,65.251l76.628,-0.636l7.665,-41.511" style="fill:#542f7f;fill-opacity:0.7;"/><path d="M81.615,10.691l-20.434,7.207l-20.434,-7.207l16.528,11.038l-2.016,4.233l-4.295,0.055l-20.434,-10.218l15.326,9.861l-14.488,7.762l-21.272,-7.405l18.954,12.849l-0.446,18.765l-18.508,-6.072l5.108,2.554l15.326,10.055l2.854,-2.621l-2.854,7.762l-20.434,-7.533l18.752,12.069l1.682,23.691l1.935,-24.575l4.714,-14.509l-4.299,0.675l0.404,-5.141l-1.311,-16.129l18.225,-7.115l8.697,-0.76l5.175,-7.629l17.545,-11.662Z" style="fill:#f6e0f1;fill-opacity:0.4;"/></g><path d="M10.096,51.559l5.108,2.554l-5.108,7.663l20.434,10.217l5.108,-12.771l-5.108,2.554l-20.434,-10.217Z" style="fill:#395346;"/><clipPath id="_clip7"><path d="M10.096,51.559l5.108,2.554l-5.108,7.663l20.434,10.217l5.108,-12.771l-5.108,2.554l-20.434,-10.217Z"/></clipPath><g clip-path="url(#_clip7)"><path d="M81.615,10.691l-20.434,7.207l-20.434,-7.207l16.528,11.038l-2.016,4.233l-4.295,0.055l-20.434,-10.218l15.326,9.861l-14.488,7.762l-21.272,-7.405l18.954,12.849l-0.446,18.765l-18.508,-6.072l5.108,2.554l15.326,10.055l2.854,-2.621l-2.854,7.762l-20.434,-7.533l18.752,12.069l1.682,23.691l1.935,-24.575l4.714,-14.509l-4.299,0.675l0.404,-5.141l-1.311,-16.129l18.225,-7.115l8.697,-0.76l5.175,-7.629l17.545,-11.662Z" style="fill:#f6e0f1;fill-opacity:0.4;"/></g></g></g></g></g><path d="M81.422,51.314c0,0 9.856,8.576 8.777,14.605c-1.079,6.029 -3.23,13.233 -7.853,14.308c-1.72,0.4 0.847,2.21 -2.513,4.143c-0.176,0.102 -0.634,2.32 -0.822,2.423c-1.408,0.769 -16.227,7.243 -18.023,7.837c-5.677,1.875 0.863,-2.887 0,-2.448c-1.868,0.948 -9.278,-1.077 -18.369,4.075c-0.899,0.51 6.363,-0.801 5.509,-0.288c-7.774,4.667 -21.895,10.899 -28.008,8.234c-5.758,-2.509 -13.905,-2.61 -17.244,-6.763c-0.596,-0.741 2.436,-0.007 1.918,-1.167c-3.422,-7.661 -4.631,-9.677 -2.212,-14.113c0.371,-0.679 -2.212,0.032 -1.838,-0.725c2.07,-4.177 7.028,-10.584 7.483,-12.178c0.538,-1.881 1.676,-2.618 1.676,-2.618l0,15.326c1.438,-0.258 2.786,-0.71 5.108,0.915c1.38,0.442 2.569,0.879 3.599,1.312c0.67,0.282 3.818,0.012 4.361,0.291c7.442,3.83 1.155,8.023 7.366,12.807l3.965,-3.126c1.597,-2.546 5.901,-2.495 9.298,-3.505c2.588,-0.77 1.704,-3.863 4.891,-4.726l5.764,-2.226l1.624,-4.297c-0.488,-1.367 -0.423,-2.743 1.911,-4.153c0.586,0.424 1.04,1.66 1.515,1.284c1.151,-0.91 0.485,0.521 0.685,0.783c1.154,1.508 1.415,3.058 0.998,4.641c3.435,-4.107 4.415,-5.117 7.045,-6.695c1.078,-0.647 2.155,0.061 3.775,0.057c0.822,-0.002 1.431,-0.894 2.328,-1.148c0.698,-0.197 1.723,0.252 2.178,0.123c0.902,-0.256 0.306,-1.397 0.876,-1.83c1.052,-0.799 3.031,-0.906 4.232,-0.724c0.004,-0.567 -1.712,-1.456 -1.709,-2.023c0.008,-1.369 1.578,-1.739 1.709,-3.086c0.467,-4.782 0.007,-10.451 0,-15.325Z" style="fill:#546c45;"/><clipPath id="_clip8"><path d="M81.422,51.314c0,0 9.856,8.576 8.777,14.605c-1.079,6.029 -3.23,13.233 -7.853,14.308c-1.72,0.4 0.847,2.21 -2.513,4.143c-0.176,0.102 -0.634,2.32 -0.822,2.423c-1.408,0.769 -16.227,7.243 -18.023,7.837c-5.677,1.875 0.863,-2.887 0,-2.448c-1.868,0.948 -9.278,-1.077 -18.369,4.075c-0.899,0.51 6.363,-0.801 5.509,-0.288c-7.774,4.667 -21.895,10.899 -28.008,8.234c-5.758,-2.509 -13.905,-2.61 -17.244,-6.763c-0.596,-0.741 2.436,-0.007 1.918,-1.167c-3.422,-7.661 -4.631,-9.677 -2.212,-14.113c0.371,-0.679 -2.212,0.032 -1.838,-0.725c2.07,-4.177 7.028,-10.584 7.483,-12.178c0.538,-1.881 1.676,-2.618 1.676,-2.618l0,15.326c1.438,-0.258 2.786,-0.71 5.108,0.915c1.38,0.442 2.569,0.879 3.599,1.312c0.67,0.282 3.818,0.012 4.361,0.291c7.442,3.83 1.155,8.023 7.366,12.807l3.965,-3.126c1.597,-2.546 5.901,-2.495 9.298,-3.505c2.588,-0.77 1.704,-3.863 4.891,-4.726l5.764,-2.226l1.624,-4.297c-0.488,-1.367 -0.423,-2.743 1.911,-4.153c0.586,0.424 1.04,1.66 1.515,1.284c1.151,-0.91 0.485,0.521 0.685,0.783c1.154,1.508 1.415,3.058 0.998,4.641c3.435,-4.107 4.415,-5.117 7.045,-6.695c1.078,-0.647 2.155,0.061 3.775,0.057c0.822,-0.002 1.431,-0.894 2.328,-1.148c0.698,-0.197 1.723,0.252 2.178,0.123c0.902,-0.256 0.306,-1.397 0.876,-1.83c1.052,-0.799 3.031,-0.906 4.232,-0.724c0.004,-0.567 -1.712,-1.456 -1.709,-2.023c0.008,-1.369 1.578,-1.739 1.709,-3.086c0.467,-4.782 0.007,-10.451 0,-15.325Z"/></clipPath><g clip-path="url(#_clip8)"><path d="M84.485,45.759l19.321,40.311l-81.441,30.799l53.134,-50.061l3.663,-22.265l5.323,1.216Z" style="fill:#c4e783;fill-opacity:0.5;"/><path d="M91.639,56.422c0.018,-1.108 -5.108,2.554 -5.108,2.554l-1.934,6.076l0.416,3.383l0.241,5.229l-1.006,1.779c0,0 1.052,0.274 -2.826,1.413c-3.878,1.14 -7.244,1.487 -7.244,1.487l-2.973,0.661l-2.363,1.779l-2.746,3.736l-5.108,2.554l-1.609,-0.804l1.609,-4.304l-2.724,-1.362l-0.834,4.691l0.672,0.336l-2.223,2.11l-5.108,1.344l-3.042,-0.49l-2.067,4.019l-5.108,-0.431l-1.763,0.881c0,0 0.222,0.84 -2.102,2.295c-2.323,1.455 -1.595,1.006 -4.395,2.911c-2.801,1.904 -4.665,2.776 -4.665,2.776c0,0 -1.458,6.016 -2.401,0.976c-0.943,-5.04 2.791,-3.36 0,-5.544c-2.791,-2.184 0.323,-2.196 -2.41,-2.946c-2.733,-0.75 -6.328,-0.032 -7.807,1.205c-1.478,1.237 0.073,4.843 -1.879,0.94c-1.952,-3.903 -2.491,-3.903 -3.229,-6.592c-0.739,-2.688 -1.332,-2.677 -1.332,-2.677l-1.21,-0.605l-2.567,-1.283c0,0 -1.178,1.205 0,-1.483c1.178,-2.688 5.374,-1.539 0,-3.626c-5.374,-2.086 -6.549,-2.588 -9.07,-0.573c-2.521,2.015 -4.287,-5.036 -3.404,9.662c0.883,14.698 -12.459,17.358 5.805,23.336c18.264,5.979 13.398,8.656 32.212,5.889c18.814,-2.766 20.479,-2.43 30.651,-7.806c10.172,-5.377 11.475,1.089 21.912,-11.889c10.437,-12.977 10.37,-9.811 13.848,-18.619c3.477,-8.807 7.915,-10.991 5.108,-14.183c-2.807,-3.192 -10.235,-7.697 -10.217,-8.805Z" style="fill:#97b366;"/><clipPath id="_clip9"><path d="M91.639,56.422c0.018,-1.108 -5.108,2.554 -5.108,2.554l-1.934,6.076l0.416,3.383l0.241,5.229l-1.006,1.779c0,0 1.052,0.274 -2.826,1.413c-3.878,1.14 -7.244,1.487 -7.244,1.487l-2.973,0.661l-2.363,1.779l-2.746,3.736l-5.108,2.554l-1.609,-0.804l1.609,-4.304l-2.724,-1.362l-0.834,4.691l0.672,0.336l-2.223,2.11l-5.108,1.344l-3.042,-0.49l-2.067,4.019l-5.108,-0.431l-1.763,0.881c0,0 0.222,0.84 -2.102,2.295c-2.323,1.455 -1.595,1.006 -4.395,2.911c-2.801,1.904 -4.665,2.776 -4.665,2.776c0,0 -1.458,6.016 -2.401,0.976c-0.943,-5.04 2.791,-3.36 0,-5.544c-2.791,-2.184 0.323,-2.196 -2.41,-2.946c-2.733,-0.75 -6.328,-0.032 -7.807,1.205c-1.478,1.237 0.073,4.843 -1.879,0.94c-1.952,-3.903 -2.491,-3.903 -3.229,-6.592c-0.739,-2.688 -1.332,-2.677 -1.332,-2.677l-1.21,-0.605l-2.567,-1.283c0,0 -1.178,1.205 0,-1.483c1.178,-2.688 5.374,-1.539 0,-3.626c-5.374,-2.086 -6.549,-2.588 -9.07,-0.573c-2.521,2.015 -4.287,-5.036 -3.404,9.662c0.883,14.698 -12.459,17.358 5.805,23.336c18.264,5.979 13.398,8.656 32.212,5.889c18.814,-2.766 20.479,-2.43 30.651,-7.806c10.172,-5.377 11.475,1.089 21.912,-11.889c10.437,-12.977 10.37,-9.811 13.848,-18.619c3.477,-8.807 7.915,-10.991 5.108,-14.183c-2.807,-3.192 -10.235,-7.697 -10.217,-8.805Z"/></clipPath><g clip-path="url(#_clip9)"><path d="M84.485,45.759l19.321,40.311l-81.441,30.799l53.134,-50.061l3.663,-22.265l5.323,1.216Z" style="fill:#c4e783;fill-opacity:0.5;"/></g><path d="M21.005,75.321l-19.492,33.589l-12.859,-32.779c0,0 18.886,-21.303 20.434,-19.585c1.548,1.718 11.917,18.775 11.917,18.775Z" style="fill-opacity:0.5;"/></g></g></svg>