<?xml version="1.0" encoding="UTF-8" standalone="no"?><!DOCTYPE svg PUBLIC "-//W3C//DTD SVG 1.1//EN" "http://www.w3.org/Graphics/SVG/1.1/DTD/svg11.dtd"><svg width="100%" height="100%" viewBox="0 0 85 94" version="1.1" xmlns="http://www.w3.org/2000/svg" xmlns:xlink="http://www.w3.org/1999/xlink" xml:space="preserve" xmlns:serif="http://www.serif.com/" style="fill-rule:evenodd;clip-rule:evenodd;stroke-linejoin:round;stroke-miterlimit:1.41421;"><g id="X_Runestone_grass_runes_2"><g id="F_Runestone_runes_2"><g><g><path d="M61.392,0.23l20.434,5.109l-20.434,5.108l-20.434,-10.217l20.434,0Z" style="fill:#9da8c9;"/><clipPath id="_clip1"><path d="M61.392,0.23l20.434,5.109l-20.434,5.108l-20.434,-10.217l20.434,0Z"/></clipPath><g clip-path="url(#_clip1)"><path d="M81.9,70.378l-8.123,-11.264l8.123,-14.279l-8.689,5.873l-1.528,-10.981l-5.109,-2.554l1.599,5.908l0.902,8.167l-7.609,3.804l-1.669,-4.274l-3.44,5.298l0,6.639l8.106,-1.055l7.22,6.73l-10.217,12.205l-15.326,-2.554l-10.217,-5.109l-1.552,5.885l1.552,-0.776l7.891,3.945l-38.542,1.163l0,-20.434l18.658,5.997l-18.658,-16.214l0,-15.325l7.231,8.724l10.173,-7.209l-14.219,-18.433l9.122,-17.797l3.018,13.21l5.109,6.179l10.217,-3.293l0,-6.924l-2.676,6.446l-7.541,-1.338l10.217,-11.653l6.839,-10.47l13.595,10.278l10.217,1.628l-5.108,-2.554l-3.674,-8.38l24.108,5.842l-5.109,10.201l3.652,3.283l-6.602,15.676l11.809,-2.954l3.084,-40.685l-80.272,5.841l-16.808,107.384l98.739,-15.333l-8.493,-14.464Z" style="fill:#542f7f;fill-opacity:0.7;"/><path d="M81.826,5.339l-18.481,6.899l-1.279,3.655l-0.674,5.442l-9.596,1.807l0.581,-4.775l-16.528,14.129l-5.108,1.549l2.539,16.645l4.645,15.225l-5.301,-0.216l1.043,11.184l2.182,7.638l-6.117,-5.767l-19.425,-12.113l18.167,6.242l-0.629,-9.903l-17.538,-10.032l0,-1.633l7.619,2.278l13.806,5.032l-4.452,-7.484l-4.129,-1.871l2.481,-0.509l-15.325,-7.663l15.325,4.689l-1.19,-14.839l-14.135,-15.392l20.434,12.102l12.281,-9.613l4.129,-2.323l-16.41,-10.383l26.546,13.273l-1.004,-5.611l0.61,-2.117l-15.935,-10.654l20.434,7.815l7.307,-2.387l13.127,-0.319Z" style="fill:#f6e0f1;fill-opacity:0.9;"/></g><path d="M30.741,5.339l-5.109,7.662l-15.325,2.555l17.852,14.034l6.39,1.254l11.517,-12.734l5.109,-2.554l-20.434,-10.217" style="fill:#9da8c9;"/><clipPath id="_clip2"><path d="M30.741,5.339l-5.109,7.662l-15.325,2.555l17.852,14.034l6.39,1.254l11.517,-12.734l5.109,-2.554l-20.434,-10.217"/></clipPath><g clip-path="url(#_clip2)"><path d="M81.9,70.378l-8.123,-11.264l8.123,-14.279l-8.689,5.873l-1.528,-10.981l-5.109,-2.554l1.599,5.908l0.902,8.167l-7.609,3.804l-1.669,-4.274l-3.44,5.298l0,6.639l8.106,-1.055l7.22,6.73l-10.217,12.205l-15.326,-2.554l-10.217,-5.109l-1.552,5.885l1.552,-0.776l7.891,3.945l-38.542,1.163l0,-20.434l18.658,5.997l-18.658,-16.214l0,-15.325l7.231,8.724l10.173,-7.209l-14.219,-18.433l9.122,-17.797l3.018,13.21l5.109,6.179l10.217,-3.293l0,-6.924l-2.676,6.446l-7.541,-1.338l10.217,-11.653l6.839,-10.47l13.595,10.278l10.217,1.628l-5.108,-2.554l-3.674,-8.38l24.108,5.842l-5.109,10.201l3.652,3.283l-6.602,15.676l11.809,-2.954l3.084,-40.685l-80.272,5.841l-16.808,107.384l98.739,-15.333l-8.493,-14.464Z" style="fill:#542f7f;fill-opacity:0.7;"/><path d="M81.826,5.339l-18.481,6.899l-1.279,3.655l-0.674,5.442l-9.596,1.807l0.581,-4.775l-16.528,14.129l-5.108,1.549l2.539,16.645l4.645,15.225l-5.301,-0.216l1.043,11.184l2.182,7.638l-6.117,-5.767l-19.425,-12.113l18.167,6.242l-0.629,-9.903l-17.538,-10.032l0,-1.633l7.619,2.278l13.806,5.032l-4.452,-7.484l-4.129,-1.871l2.481,-0.509l-15.325,-7.663l15.325,4.689l-1.19,-14.839l-14.135,-15.392l20.434,12.102l12.281,-9.613l4.129,-2.323l-16.41,-10.383l26.546,13.273l-1.004,-5.611l0.61,-2.117l-15.935,-10.654l20.434,7.815l7.307,-2.387l13.127,-0.319Z" style="fill:#f6e0f1;fill-opacity:0.9;"/></g><path d="M81.826,5.339l-20.434,5.108l-5.109,7.663l-5.108,-2.554l-5.109,2.554l-11.468,12.686l-6.441,-1.207l2.584,21.726l5.108,12.772l-5.108,-2.555l0,15.326l5.108,7.663l15.326,-7.663l0,-5.109l5.108,-2.554l5.109,2.554l17.456,-8.728l1.11,-22.857l1.868,-9.283l-5.109,2.554l5.109,-12.771l0,-15.325Z" style="fill:#bac1d8;"/><clipPath id="_clip3"><path d="M81.826,5.339l-20.434,5.108l-5.109,7.663l-5.108,-2.554l-5.109,2.554l-11.468,12.686l-6.441,-1.207l2.584,21.726l5.108,12.772l-5.108,-2.555l0,15.326l5.108,7.663l15.326,-7.663l0,-5.109l5.108,-2.554l5.109,2.554l17.456,-8.728l1.11,-22.857l1.868,-9.283l-5.109,2.554l5.109,-12.771l0,-15.325Z"/></clipPath><g clip-path="url(#_clip3)"><path d="M81.9,70.378l-8.123,-11.264l8.123,-14.279l-8.689,5.873l-1.528,-10.981l-5.109,-2.554l1.599,5.908l0.902,8.167l-7.609,3.804l-1.669,-4.274l-3.44,5.298l0,6.639l8.106,-1.055l7.22,6.73l-10.217,12.205l-15.326,-2.554l-10.217,-5.109l-1.552,5.885l1.552,-0.776l7.891,3.945l-38.542,1.163l0,-20.434l18.658,5.997l-18.658,-16.214l0,-15.325l7.231,8.724l10.173,-7.209l-14.219,-18.433l9.122,-17.797l3.018,13.21l5.109,6.179l10.217,-3.293l0,-6.924l-2.676,6.446l-7.541,-1.338l10.217,-11.653l6.839,-10.47l13.595,10.278l10.217,1.628l-5.108,-2.554l-3.674,-8.38l24.108,5.842l-5.109,10.201l3.652,3.283l-6.602,15.676l11.809,-2.954l3.084,-40.685l-80.272,5.841l-16.808,107.384l98.739,-15.333l-8.493,-14.464Z" style="fill:#542f7f;fill-opacity:0.7;"/><path d="M81.826,5.339l-18.481,6.899l-1.279,3.655l-0.674,5.442l-9.596,1.807l0.581,-4.775l-16.528,14.129l-5.108,1.549l2.539,16.645l4.645,15.225l-5.301,-0.216l1.043,11.184l2.182,7.638l-6.117,-5.767l-19.425,-12.113l18.167,6.242l-0.629,-9.903l-17.538,-10.032l0,-1.633l7.619,2.278l13.806,5.032l-4.452,-7.484l-4.129,-1.871l2.481,-0.509l-15.325,-7.663l15.325,4.689l-1.19,-14.839l-14.135,-15.392l20.434,12.102l12.281,-9.613l4.129,-2.323l-16.41,-10.383l26.546,13.273l-1.004,-5.611l0.61,-2.117l-15.935,-10.654l20.434,7.815l7.307,-2.387l13.127,-0.319Z" style="fill:#f6e0f1;fill-opacity:0.9;"/></g><path d="M10.307,15.556l17.852,14.034l2.582,21.725l-20.434,-10.217l1.887,-9.273l-1.887,-16.269Z" style="fill:#6c7157;"/><clipPath id="_clip4"><path d="M10.307,15.556l17.852,14.034l2.582,21.725l-20.434,-10.217l1.887,-9.273l-1.887,-16.269Z"/></clipPath><g clip-path="url(#_clip4)"><path d="M81.9,70.378l-8.123,-11.264l8.123,-14.279l-8.689,5.873l-1.528,-10.981l-5.109,-2.554l1.599,5.908l0.902,8.167l-7.609,3.804l-1.669,-4.274l-3.44,5.298l0,6.639l8.106,-1.055l7.22,6.73l-10.217,12.205l-15.326,-2.554l-10.217,-5.109l-1.552,5.885l1.552,-0.776l7.891,3.945l-38.542,1.163l0,-20.434l18.658,5.997l-18.658,-16.214l0,-15.325l7.231,8.724l10.173,-7.209l-14.219,-18.433l9.122,-17.797l3.018,13.21l5.109,6.179l10.217,-3.293l0,-6.924l-2.676,6.446l-7.541,-1.338l10.217,-11.653l6.839,-10.47l13.595,10.278l10.217,1.628l-5.108,-2.554l-3.674,-8.38l24.108,5.842l-5.109,10.201l3.652,3.283l-6.602,15.676l11.809,-2.954l3.084,-40.685l-80.272,5.841l-16.808,107.384l98.739,-15.333l-8.493,-14.464Z" style="fill:#542f7f;fill-opacity:0.7;"/><path d="M81.826,5.339l-18.481,6.899l-1.279,3.655l-0.674,5.442l-9.596,1.807l0.581,-4.775l-16.528,14.129l-5.108,1.549l2.539,16.645l4.645,15.225l-5.301,-0.216l1.043,11.184l2.182,7.638l-6.117,-5.767l-19.425,-12.113l18.167,6.242l-0.629,-9.903l-17.538,-10.032l0,-1.633l7.619,2.278l13.806,5.032l-4.452,-7.484l-4.129,-1.871l2.481,-0.509l-15.325,-7.663l15.325,4.689l-1.19,-14.839l-14.135,-15.392l20.434,12.102l12.281,-9.613l4.129,-2.323l-16.41,-10.383l26.546,13.273l-1.004,-5.611l0.61,-2.117l-15.935,-10.654l20.434,7.815l7.307,-2.387l13.127,-0.319Z" style="fill:#f6e0f1;fill-opacity:0.4;"/></g><path d="M35.849,84.521l-20.434,-10.217l-5.108,-7.663l0,-15.326l20.434,10.217l0,15.326l5.108,7.663Z" style="fill:#6c7157;"/><clipPath id="_clip5"><path d="M35.849,84.521l-20.434,-10.217l-5.108,-7.663l0,-15.326l20.434,10.217l0,15.326l5.108,7.663Z"/></clipPath><g clip-path="url(#_clip5)"><path d="M81.9,70.378l-8.123,-11.264l8.123,-14.279l-8.689,5.873l-1.528,-10.981l-5.109,-2.554l1.599,5.908l0.902,8.167l-7.609,3.804l-1.669,-4.274l-3.44,5.298l0,6.639l8.106,-1.055l7.22,6.73l-10.217,12.205l-15.326,-2.554l-10.217,-5.109l-1.552,5.885l1.552,-0.776l7.891,3.945l-38.542,1.163l0,-20.434l18.658,5.997l-18.658,-16.214l0,-15.325l7.231,8.724l10.173,-7.209l-14.219,-18.433l9.122,-17.797l3.018,13.21l5.109,6.179l10.217,-3.293l0,-6.924l-2.676,6.446l-7.541,-1.338l10.217,-11.653l6.839,-10.47l13.595,10.278l10.217,1.628l-5.108,-2.554l-3.674,-8.38l24.108,5.842l-5.109,10.201l3.652,3.283l-6.602,15.676l11.809,-2.954l3.084,-40.685l-80.272,5.841l-16.808,107.384l98.739,-15.333l-8.493,-14.464Z" style="fill:#542f7f;fill-opacity:0.7;"/><path d="M81.826,5.339l-18.481,6.899l-1.279,3.655l-0.674,5.442l-9.596,1.807l0.581,-4.775l-16.528,14.129l-5.108,1.549l2.539,16.645l4.645,15.225l-5.301,-0.216l1.043,11.184l2.182,7.638l-6.117,-5.767l-19.425,-12.113l18.167,6.242l-0.629,-9.903l-17.538,-10.032l0,-1.633l7.619,2.278l13.806,5.032l-4.452,-7.484l-4.129,-1.871l2.481,-0.509l-15.325,-7.663l15.325,4.689l-1.19,-14.839l-14.135,-15.392l20.434,12.102l12.281,-9.613l4.129,-2.323l-16.41,-10.383l26.546,13.273l-1.004,-5.611l0.61,-2.117l-15.935,-10.654l20.434,7.815l7.307,-2.387l13.127,-0.319Z" style="fill:#f6e0f1;fill-opacity:0.4;"/></g><path d="M10.307,41.098l15.325,7.663l-15.325,2.554l25.542,12.772l-5.108,-12.772l-20.434,-10.217Z" style="fill:#395346;"/><clipPath id="_clip6"><path d="M10.307,41.098l15.325,7.663l-15.325,2.554l25.542,12.772l-5.108,-12.772l-20.434,-10.217Z"/></clipPath><g clip-path="url(#_clip6)"><path d="M81.826,5.339l-18.481,6.899l-1.279,3.655l-0.674,5.442l-9.596,1.807l0.581,-4.775l-16.528,14.129l-5.108,1.549l2.539,16.645l4.645,15.225l-5.301,-0.216l1.043,11.184l2.182,7.638l-6.117,-5.767l-19.425,-12.113l18.167,6.242l-0.629,-9.903l-17.538,-10.032l0,-1.633l7.619,2.278l13.806,5.032l-4.452,-7.484l-4.129,-1.871l2.481,-0.509l-15.325,-7.663l15.325,4.689l-1.19,-14.839l-14.135,-15.392l20.434,12.102l12.281,-9.613l4.129,-2.323l-16.41,-10.383l26.546,13.273l-1.004,-5.611l0.61,-2.117l-15.935,-10.654l20.434,7.815l7.307,-2.387l13.127,-0.319Z" style="fill:#f6e0f1;fill-opacity:0.4;"/></g><path d="M10.307,66.641l20.434,10.217l5.108,7.663l-20.434,-10.217l-5.108,-7.663Z" style="fill:#395346;"/><clipPath id="_clip7"><path d="M10.307,66.641l20.434,10.217l5.108,7.663l-20.434,-10.217l-5.108,-7.663Z"/></clipPath><g clip-path="url(#_clip7)"><path d="M81.826,5.339l-18.481,6.899l-1.279,3.655l-0.674,5.442l-9.596,1.807l0.581,-4.775l-16.528,14.129l-5.108,1.549l2.539,16.645l4.645,15.225l-5.301,-0.216l1.043,11.184l2.182,7.638l-6.117,-5.767l-19.425,-12.113l18.167,6.242l-0.629,-9.903l-17.538,-10.032l0,-1.633l7.619,2.278l13.806,5.032l-4.452,-7.484l-4.129,-1.871l2.481,-0.509l-15.325,-7.663l15.325,4.689l-1.19,-14.839l-14.135,-15.392l20.434,12.102l12.281,-9.613l4.129,-2.323l-16.41,-10.383l26.546,13.273l-1.004,-5.611l0.61,-2.117l-15.935,-10.654l20.434,7.815l7.307,-2.387l13.127,-0.319Z" style="fill:#f6e0f1;fill-opacity:0.9;"/></g><path d="M40.958,0.23l-5.109,7.663l20.434,10.217l-2.438,3.889l5.527,-2.345l-0.435,-5.326l2.455,-3.881l-20.434,-10.217Z" style="fill:#6c7157;"/><clipPath id="_clip8"><path d="M40.958,0.23l-5.109,7.663l20.434,10.217l-2.438,3.889l5.527,-2.345l-0.435,-5.326l2.455,-3.881l-20.434,-10.217Z"/></clipPath><g clip-path="url(#_clip8)"><path d="M81.826,5.339l-18.481,6.899l-1.279,3.655l-0.674,5.442l-9.596,1.807l0.581,-4.775l-16.528,14.129l-5.108,1.549l2.539,16.645l4.645,15.225l-5.301,-0.216l1.043,11.184l2.182,7.638l-6.117,-5.767l-19.425,-12.113l18.167,6.242l-0.629,-9.903l-17.538,-10.032l0,-1.633l7.619,2.278l13.806,5.032l-4.452,-7.484l-4.129,-1.871l2.481,-0.509l-15.325,-7.663l15.325,4.689l-1.19,-14.839l-14.135,-15.392l20.434,12.102l12.281,-9.613l4.129,-2.323l-16.41,-10.383l26.546,13.273l-1.004,-5.611l0.61,-2.117l-15.935,-10.654l20.434,7.815l7.307,-2.387l13.127,-0.319Z" style="fill:#f6e0f1;fill-opacity:0.9;"/></g></g></g></g><g><path d="M60.939,46.551l9.948,12.458l-4.348,-1.274l-12.119,-9.902l6.519,-1.282Z" style="fill:#395346;"/><path d="M52.851,48.192l13.868,-15.941l6.083,-0.138l-10.988,15.699l-8.963,0.38Z" style="fill:#395346;"/><path d="M52.887,26.144l1.65,-1.732l18.272,7.657l-7.559,0.788l-12.363,-6.713Z" style="fill:#395346;"/><path d="M56.079,54.206l-3.645,-2.965l-8.161,10.911l5.189,3.011l6.617,-10.957Z" style="fill:#395346;"/><path d="M39.834,66.071l6.159,-2.81l3.313,1.937l-4.813,2.65l-4.659,-1.777Z" style="fill:none;"/><path d="M62.376,59.749l4.003,1.649l4.534,-2.321l-4.159,-1.166l-4.378,1.838Z" style="fill:none;"/><path d="M52.854,51.673l9.524,8.067l4.57,-1.934l-9.695,-9.81l10.371,-15.391l-14.79,-6.374l-12.277,15.81l7.562,6.49l-8.293,17.514l6.296,-2.837l6.732,-11.535Z" style="fill:#6ee33b;"/><g><path d="M54.738,32.663l6.423,3.896l-4.689,7.106l-6.669,-4.761l4.935,-6.241Z" style="fill:#f6e0f1;"/><path d="M54.756,32.653l-3.552,0.146l-5.289,6.24l4.006,-0.218l4.835,-6.168Z" style="fill:#6c7157;"/><path d="M45.937,39.05l3.881,-0.156l6.577,4.768l-4.525,-0.078l-5.933,-4.534Z" style="fill:#395346;"/></g></g><path d="M79.606,47.803c0,0 6.023,1.536 4.351,7.225c-1.672,5.688 -0.691,6.841 -2.095,11.265c-1.405,4.423 -2.577,0.767 -5.109,5.713c-2.445,4.777 -1.717,6.083 -12.733,10.908c-0.392,0.172 1.247,-3.192 0.82,-3.002c-0.897,0.399 -1.668,0.754 -2.331,1.07c-8.523,4.067 0.853,1.734 -12.241,5.274c-0.883,0.238 3.879,1.315 3.076,1.538c-0.803,0.222 -3.477,-0.208 -4.251,-0.009c-2.579,0.663 -4.884,1.237 -6.919,1.728c-0.37,0.089 1.938,2.015 -1.083,0.259c-5.189,-3.019 -9.236,2.023 -10.315,2.063c-1.716,0.064 -4.565,-3.053 -7.872,-1.172c-3.306,1.881 -2.554,4.569 -5.78,1.343c-1.543,-1.544 -3.353,-0.852 -3.845,-1.639c-0.538,-0.858 0.225,-3.128 -2.109,-3.226c-0.531,-0.023 -1.709,4.029 -2.194,4.011c-3.597,-0.128 -5.276,-4.159 -6.946,-3.473c-1.895,0.779 -2.04,-0.866 0.667,-4.775c2.707,-3.909 3.812,-1.699 3.69,-4.417c-0.123,-2.717 -2.474,-3.871 -2.474,-3.871c0,0 -1.964,1.936 -1.473,-2.058c0.491,-3.993 -0.318,-4.202 0.839,-4.688c1.157,-0.487 1.892,1.663 1.955,-1.24c0.063,-2.903 -0.708,-1.505 0,-3.763c0.708,-2.259 0.201,-0.492 1.315,-3.58c1.113,-3.087 0.45,-5.273 0.459,-6.653c0.009,-1.38 -1.066,-0.413 0.009,-1.703c1.075,-1.29 5.754,-2.798 7.339,-3.066c1.586,-0.267 7.177,1.131 7.177,1.131l-11.191,2.263l0,15.034l5.109,7.662c0,0 0.363,2.442 2.875,1.438c2.511,-1.004 1.961,-1.004 3.007,-1.004c1.046,0 0.881,-0.055 2.807,1.486c1.927,1.542 3.277,2.314 3.277,2.314c0,0 1.568,1.1 2.669,1.705c1.101,0.606 1.717,2.237 1.717,2.237l0.485,-0.75c0,0 0.4,0.249 0.365,-0.701c-0.034,-0.951 0.351,-2.712 0.158,-3.153c-0.192,-0.441 -1.293,-1.266 0.193,-0.551c1.486,0.716 0.969,0.76 2.053,1.674c1.085,0.914 -1.018,1.927 1.96,0.98c2.979,-0.947 2.056,-1.222 3.976,-1.112c1.921,0.11 1.095,1.321 3.022,0.055c1.926,-1.266 1.926,-0.496 2.642,-1.762c0.716,-1.266 0.661,-1.651 0.661,-1.651c0,0 -2.243,1.016 -0.048,-0.621l2.195,-1.637c0,0 -0.569,0.9 0.101,-0.679c0.67,-1.578 0.637,-0.587 1.644,-2.238c1.008,-1.652 0.123,-1.865 1.997,-2.694c1.873,-0.83 -0.109,-2.041 2.204,-0.94c2.312,1.101 0.378,0.481 3.492,1.204c3.114,0.723 3.389,0.503 4.545,0.723c1.157,0.22 -1.376,-1.101 1.267,-2.918c2.642,-1.817 3.064,-0.587 3.018,-2.22c-0.045,-1.634 -2.523,-2.68 0.12,-2.79c2.642,-0.11 -1.705,2.033 2.671,0.274c4.376,-1.76 3.88,-0.439 4.706,-1.87c0.826,-1.432 1.835,-1.487 1.523,-2.698c-0.312,-1.211 -0.405,-2.332 -0.405,-2.332l2.892,2.961l0.366,-8.882Z" style="fill:#546c45;"/><clipPath id="_clip9"><path d="M79.606,47.803c0,0 6.023,1.536 4.351,7.225c-1.672,5.688 -0.691,6.841 -2.095,11.265c-1.405,4.423 -2.577,0.767 -5.109,5.713c-2.445,4.777 -1.717,6.083 -12.733,10.908c-0.392,0.172 1.247,-3.192 0.82,-3.002c-0.897,0.399 -1.668,0.754 -2.331,1.07c-8.523,4.067 0.853,1.734 -12.241,5.274c-0.883,0.238 3.879,1.315 3.076,1.538c-0.803,0.222 -3.477,-0.208 -4.251,-0.009c-2.579,0.663 -4.884,1.237 -6.919,1.728c-0.37,0.089 1.938,2.015 -1.083,0.259c-5.189,-3.019 -9.236,2.023 -10.315,2.063c-1.716,0.064 -4.565,-3.053 -7.872,-1.172c-3.306,1.881 -2.554,4.569 -5.78,1.343c-1.543,-1.544 -3.353,-0.852 -3.845,-1.639c-0.538,-0.858 0.225,-3.128 -2.109,-3.226c-0.531,-0.023 -1.709,4.029 -2.194,4.011c-3.597,-0.128 -5.276,-4.159 -6.946,-3.473c-1.895,0.779 -2.04,-0.866 0.667,-4.775c2.707,-3.909 3.812,-1.699 3.69,-4.417c-0.123,-2.717 -2.474,-3.871 -2.474,-3.871c0,0 -1.964,1.936 -1.473,-2.058c0.491,-3.993 -0.318,-4.202 0.839,-4.688c1.157,-0.487 1.892,1.663 1.955,-1.24c0.063,-2.903 -0.708,-1.505 0,-3.763c0.708,-2.259 0.201,-0.492 1.315,-3.58c1.113,-3.087 0.45,-5.273 0.459,-6.653c0.009,-1.38 -1.066,-0.413 0.009,-1.703c1.075,-1.29 5.754,-2.798 7.339,-3.066c1.586,-0.267 7.177,1.131 7.177,1.131l-11.191,2.263l0,15.034l5.109,7.662c0,0 0.363,2.442 2.875,1.438c2.511,-1.004 1.961,-1.004 3.007,-1.004c1.046,0 0.881,-0.055 2.807,1.486c1.927,1.542 3.277,2.314 3.277,2.314c0,0 1.568,1.1 2.669,1.705c1.101,0.606 1.717,2.237 1.717,2.237l0.485,-0.75c0,0 0.4,0.249 0.365,-0.701c-0.034,-0.951 0.351,-2.712 0.158,-3.153c-0.192,-0.441 -1.293,-1.266 0.193,-0.551c1.486,0.716 0.969,0.76 2.053,1.674c1.085,0.914 -1.018,1.927 1.96,0.98c2.979,-0.947 2.056,-1.222 3.976,-1.112c1.921,0.11 1.095,1.321 3.022,0.055c1.926,-1.266 1.926,-0.496 2.642,-1.762c0.716,-1.266 0.661,-1.651 0.661,-1.651c0,0 -2.243,1.016 -0.048,-0.621l2.195,-1.637c0,0 -0.569,0.9 0.101,-0.679c0.67,-1.578 0.637,-0.587 1.644,-2.238c1.008,-1.652 0.123,-1.865 1.997,-2.694c1.873,-0.83 -0.109,-2.041 2.204,-0.94c2.312,1.101 0.378,0.481 3.492,1.204c3.114,0.723 3.389,0.503 4.545,0.723c1.157,0.22 -1.376,-1.101 1.267,-2.918c2.642,-1.817 3.064,-0.587 3.018,-2.22c-0.045,-1.634 -2.523,-2.68 0.12,-2.79c2.642,-0.11 -1.705,2.033 2.671,0.274c4.376,-1.76 3.88,-0.439 4.706,-1.87c0.826,-1.432 1.835,-1.487 1.523,-2.698c-0.312,-1.211 -0.405,-2.332 -0.405,-2.332l2.892,2.961l0.366,-8.882Z"/></clipPath><g clip-path="url(#_clip9)"><path d="M86.156,35.811l18.329,50.032l-68.039,22.175l-11.593,-5.796l28.829,-46.888l32.474,-19.523" style="fill:#c4e783;fill-opacity:0.5;"/><path d="M88.204,51.555l-4.555,4.581l-1.787,1.226c0,0 0.431,2.913 0,3.822c-0.432,0.909 -2.456,3.881 -2.456,3.881c0,0 -0.556,0.899 -1.632,1.974c-1.075,1.075 -1.873,1.382 -1.873,1.382l-0.689,-0.344l2.562,-6.522l0.645,-1.075l-1.666,-0.538c0,0 -2.42,2.796 -3.172,4.194c-0.753,1.398 -0.901,1.639 -0.901,1.639c0,0 0.147,0.511 -1.035,1.694c-1.183,1.183 -2.522,2.249 -1.96,2.952c0.562,0.704 0.866,1.527 0.866,1.527c0,0 -1.809,1.005 -3.099,0.36c-1.291,-0.645 0.322,-0.968 -1.936,-1.506c-2.258,-0.537 -3.017,-1.061 -5.917,-0.315c-2.9,0.745 -4.083,-6.136 -5.373,0.745c-1.29,6.882 -2.483,7.205 -3.016,8.065c-0.532,0.86 1.738,1.159 -1.655,1.493c-3.393,0.335 -4.684,0.442 -4.684,0.442c0,0 -4.619,2.268 -6.556,1.726c-1.938,-0.543 0.841,-1.188 -2.43,-0.435c-3.272,0.752 -7.808,1.505 -10.217,2.58c-2.409,1.076 -4.448,2.051 -7.461,2.8c-3.013,0.749 -2.275,0.839 -0.786,-0.397c4.039,-3.353 -6.057,-0.789 -4.747,-3.16c1.582,-2.862 2.777,-2.791 2.777,-2.791l-3.037,-4.01l-2.072,0.247c0,0 0.273,1.056 -1.792,-0.386c-2.066,-1.442 -2.732,-1.484 -1.915,-4.151c0.817,-2.668 2.247,-1.226 1.156,-3.13c-1.091,-1.903 -1.737,0.14 -1.091,-3.731c0.645,-3.871 0.752,-4.839 0.752,-4.839c0,0 -1.077,-2.477 -0.753,-3.658c0.323,-1.181 0.431,-2.148 0.431,-2.148l-4.543,1.558l2.647,-6.074l0,-0.861c0,0 -6.599,-2.903 -7.567,0.753c-0.967,3.656 -3.215,4.065 -1.231,13.323c1.984,9.258 2.572,10.124 1.311,15.981c-1.262,5.857 -3.843,9.62 -0.832,10.911c3.01,1.29 0.322,2.258 11.72,2.903c11.398,0.645 59.586,-4.119 59.586,-4.119l22.994,-25.343l-3.011,-13.226" style="fill:#97b366;"/><clipPath id="_clip10"><path d="M88.204,51.555l-4.555,4.581l-1.787,1.226c0,0 0.431,2.913 0,3.822c-0.432,0.909 -2.456,3.881 -2.456,3.881c0,0 -0.556,0.899 -1.632,1.974c-1.075,1.075 -1.873,1.382 -1.873,1.382l-0.689,-0.344l2.562,-6.522l0.645,-1.075l-1.666,-0.538c0,0 -2.42,2.796 -3.172,4.194c-0.753,1.398 -0.901,1.639 -0.901,1.639c0,0 0.147,0.511 -1.035,1.694c-1.183,1.183 -2.522,2.249 -1.96,2.952c0.562,0.704 0.866,1.527 0.866,1.527c0,0 -1.809,1.005 -3.099,0.36c-1.291,-0.645 0.322,-0.968 -1.936,-1.506c-2.258,-0.537 -3.017,-1.061 -5.917,-0.315c-2.9,0.745 -4.083,-6.136 -5.373,0.745c-1.29,6.882 -2.483,7.205 -3.016,8.065c-0.532,0.86 1.738,1.159 -1.655,1.493c-3.393,0.335 -4.684,0.442 -4.684,0.442c0,0 -4.619,2.268 -6.556,1.726c-1.938,-0.543 0.841,-1.188 -2.43,-0.435c-3.272,0.752 -7.808,1.505 -10.217,2.58c-2.409,1.076 -4.448,2.051 -7.461,2.8c-3.013,0.749 -2.275,0.839 -0.786,-0.397c4.039,-3.353 -6.057,-0.789 -4.747,-3.16c1.582,-2.862 2.777,-2.791 2.777,-2.791l-3.037,-4.01l-2.072,0.247c0,0 0.273,1.056 -1.792,-0.386c-2.066,-1.442 -2.732,-1.484 -1.915,-4.151c0.817,-2.668 2.247,-1.226 1.156,-3.13c-1.091,-1.903 -1.737,0.14 -1.091,-3.731c0.645,-3.871 0.752,-4.839 0.752,-4.839c0,0 -1.077,-2.477 -0.753,-3.658c0.323,-1.181 0.431,-2.148 0.431,-2.148l-4.543,1.558l2.647,-6.074l0,-0.861c0,0 -6.599,-2.903 -7.567,0.753c-0.967,3.656 -3.215,4.065 -1.231,13.323c1.984,9.258 2.572,10.124 1.311,15.981c-1.262,5.857 -3.843,9.62 -0.832,10.911c3.01,1.29 0.322,2.258 11.72,2.903c11.398,0.645 59.586,-4.119 59.586,-4.119l22.994,-25.343l-3.011,-13.226"/></clipPath><g clip-path="url(#_clip10)"><path d="M86.156,35.811l18.329,50.032l-68.039,22.175l-11.593,-5.796l28.829,-46.888l32.474,-19.523" style="fill:#c4e783;fill-opacity:0.5;"/></g><path d="M29.962,69.016l-34.27,22.244l-1.49,-52.229l38.658,5.892l-2.898,24.093" style="fill-opacity:0.5;"/></g></g></svg>