<?xml version="1.0" encoding="UTF-8" standalone="no"?><!DOCTYPE svg PUBLIC "-//W3C//DTD SVG 1.1//EN" "http://www.w3.org/Graphics/SVG/1.1/DTD/svg11.dtd"><svg width="100%" height="100%" viewBox="0 0 84 94" version="1.1" xmlns="http://www.w3.org/2000/svg" xmlns:xlink="http://www.w3.org/1999/xlink" xml:space="preserve" xmlns:serif="http://www.serif.com/" style="fill-rule:evenodd;clip-rule:evenodd;stroke-linejoin:round;stroke-miterlimit:1.41421;"><g id="X_Runestone_grass_2"><g id="F_Runestone_runes_2"><g><g><path d="M60.808,0.524l20.434,5.108l-20.434,5.109l-20.434,-10.217l20.434,0Z" style="fill:#9da8c9;"/><clipPath id="_clip1"><path d="M60.808,0.524l20.434,5.108l-20.434,5.109l-20.434,-10.217l20.434,0Z"/></clipPath><g clip-path="url(#_clip1)"><path d="M81.242,5.632l-18.481,6.9l-1.279,3.654l-0.674,5.443l-9.596,1.806l0.581,-4.774l-16.528,14.129l-5.108,1.549l2.539,16.645l4.646,15.225l-5.302,-0.216l1.044,11.184l2.181,7.638l-6.117,-5.767l-19.425,-12.113l18.167,6.242l-0.629,-9.903l-17.538,-10.032l0,-1.633l7.619,2.278l13.806,5.032l-4.452,-7.484l-4.129,-1.871l2.481,-0.509l-15.325,-7.663l15.325,4.688l-1.19,-14.838l-14.135,-15.393l20.434,12.102l12.281,-9.612l4.129,-2.323l-16.41,-10.384l26.546,13.274l-1.003,-5.611l0.609,-2.118l-15.935,-10.653l20.434,7.815l7.308,-2.387l13.126,-0.32Z" style="fill:#f6e0f1;fill-opacity:0.9;"/></g><path d="M30.157,5.632l-5.109,7.663l-15.325,2.554l17.852,14.035l6.39,1.254l11.517,-12.734l5.109,-2.555l-20.434,-10.217" style="fill:#9da8c9;"/><clipPath id="_clip2"><path d="M30.157,5.632l-5.109,7.663l-15.325,2.554l17.852,14.035l6.39,1.254l11.517,-12.734l5.109,-2.555l-20.434,-10.217"/></clipPath><g clip-path="url(#_clip2)"><path d="M81.242,5.632l-18.481,6.9l-1.279,3.654l-0.674,5.443l-9.596,1.806l0.581,-4.774l-16.528,14.129l-5.108,1.549l2.539,16.645l4.646,15.225l-5.302,-0.216l1.044,11.184l2.181,7.638l-6.117,-5.767l-19.425,-12.113l18.167,6.242l-0.629,-9.903l-17.538,-10.032l0,-1.633l7.619,2.278l13.806,5.032l-4.452,-7.484l-4.129,-1.871l2.481,-0.509l-15.325,-7.663l15.325,4.688l-1.19,-14.838l-14.135,-15.393l20.434,12.102l12.281,-9.612l4.129,-2.323l-16.41,-10.384l26.546,13.274l-1.003,-5.611l0.609,-2.118l-15.935,-10.653l20.434,7.815l7.308,-2.387l13.126,-0.32Z" style="fill:#f6e0f1;fill-opacity:0.9;"/></g><path d="M81.242,5.632l-20.434,5.109l-5.108,7.663l-5.109,-2.555l-5.109,2.555l-11.468,12.686l-6.441,-1.207l2.584,21.726l5.108,12.771l-5.108,-2.554l0,15.326l5.108,7.663l15.326,-7.663l0,-5.109l5.109,-2.554l5.108,2.554l17.456,-8.728l1.11,-22.857l1.868,-9.283l-5.108,2.554l5.108,-12.771l0,-15.326Z" style="fill:#bac1d8;"/><clipPath id="_clip3"><path d="M81.242,5.632l-20.434,5.109l-5.108,7.663l-5.109,-2.555l-5.109,2.555l-11.468,12.686l-6.441,-1.207l2.584,21.726l5.108,12.771l-5.108,-2.554l0,15.326l5.108,7.663l15.326,-7.663l0,-5.109l5.109,-2.554l5.108,2.554l17.456,-8.728l1.11,-22.857l1.868,-9.283l-5.108,2.554l5.108,-12.771l0,-15.326Z"/></clipPath><g clip-path="url(#_clip3)"><path d="M81.242,5.632l-18.481,6.9l-1.279,3.654l-0.674,5.443l-9.596,1.806l0.581,-4.774l-16.528,14.129l-5.108,1.549l2.539,16.645l4.646,15.225l-5.302,-0.216l1.044,11.184l2.181,7.638l-6.117,-5.767l-19.425,-12.113l18.167,6.242l-0.629,-9.903l-17.538,-10.032l0,-1.633l7.619,2.278l13.806,5.032l-4.452,-7.484l-4.129,-1.871l2.481,-0.509l-15.325,-7.663l15.325,4.688l-1.19,-14.838l-14.135,-15.393l20.434,12.102l12.281,-9.612l4.129,-2.323l-16.41,-10.384l26.546,13.274l-1.003,-5.611l0.609,-2.118l-15.935,-10.653l20.434,7.815l7.308,-2.387l13.126,-0.32Z" style="fill:#f6e0f1;fill-opacity:0.9;"/></g><path d="M9.723,15.849l17.852,14.035l2.582,21.725l-20.434,-10.217l1.887,-9.273l-1.887,-16.27Z" style="fill:#6c7157;"/><clipPath id="_clip4"><path d="M9.723,15.849l17.852,14.035l2.582,21.725l-20.434,-10.217l1.887,-9.273l-1.887,-16.27Z"/></clipPath><g clip-path="url(#_clip4)"><path d="M81.242,5.632l-18.481,6.9l-1.279,3.654l-0.674,5.443l-9.596,1.806l0.581,-4.774l-16.528,14.129l-5.108,1.549l2.539,16.645l4.646,15.225l-5.302,-0.216l1.044,11.184l2.181,7.638l-6.117,-5.767l-19.425,-12.113l18.167,6.242l-0.629,-9.903l-17.538,-10.032l0,-1.633l7.619,2.278l13.806,5.032l-4.452,-7.484l-4.129,-1.871l2.481,-0.509l-15.325,-7.663l15.325,4.688l-1.19,-14.838l-14.135,-15.393l20.434,12.102l12.281,-9.612l4.129,-2.323l-16.41,-10.384l26.546,13.274l-1.003,-5.611l0.609,-2.118l-15.935,-10.653l20.434,7.815l7.308,-2.387l13.126,-0.32Z" style="fill:#f6e0f1;fill-opacity:0.4;"/></g><path d="M35.265,84.815l-20.434,-10.218l-5.108,-7.662l0,-15.326l20.434,10.217l0,15.326l5.108,7.663Z" style="fill:#6c7157;"/><clipPath id="_clip5"><path d="M35.265,84.815l-20.434,-10.218l-5.108,-7.662l0,-15.326l20.434,10.217l0,15.326l5.108,7.663Z"/></clipPath><g clip-path="url(#_clip5)"><path d="M81.242,5.632l-18.481,6.9l-1.279,3.654l-0.674,5.443l-9.596,1.806l0.581,-4.774l-16.528,14.129l-5.108,1.549l2.539,16.645l4.646,15.225l-5.302,-0.216l1.044,11.184l2.181,7.638l-6.117,-5.767l-19.425,-12.113l18.167,6.242l-0.629,-9.903l-17.538,-10.032l0,-1.633l7.619,2.278l13.806,5.032l-4.452,-7.484l-4.129,-1.871l2.481,-0.509l-15.325,-7.663l15.325,4.688l-1.19,-14.838l-14.135,-15.393l20.434,12.102l12.281,-9.612l4.129,-2.323l-16.41,-10.384l26.546,13.274l-1.003,-5.611l0.609,-2.118l-15.935,-10.653l20.434,7.815l7.308,-2.387l13.126,-0.32Z" style="fill:#f6e0f1;fill-opacity:0.4;"/></g><path d="M9.723,41.392l15.325,7.663l-15.325,2.554l25.542,12.771l-5.108,-12.771l-20.434,-10.217Z" style="fill:#395346;"/><clipPath id="_clip6"><path d="M9.723,41.392l15.325,7.663l-15.325,2.554l25.542,12.771l-5.108,-12.771l-20.434,-10.217Z"/></clipPath><g clip-path="url(#_clip6)"><path d="M81.242,5.632l-18.481,6.9l-1.279,3.654l-0.674,5.443l-9.596,1.806l0.581,-4.774l-16.528,14.129l-5.108,1.549l2.539,16.645l4.646,15.225l-5.302,-0.216l1.044,11.184l2.181,7.638l-6.117,-5.767l-19.425,-12.113l18.167,6.242l-0.629,-9.903l-17.538,-10.032l0,-1.633l7.619,2.278l13.806,5.032l-4.452,-7.484l-4.129,-1.871l2.481,-0.509l-15.325,-7.663l15.325,4.688l-1.19,-14.838l-14.135,-15.393l20.434,12.102l12.281,-9.612l4.129,-2.323l-16.41,-10.384l26.546,13.274l-1.003,-5.611l0.609,-2.118l-15.935,-10.653l20.434,7.815l7.308,-2.387l13.126,-0.32Z" style="fill:#f6e0f1;fill-opacity:0.4;"/></g><path d="M9.723,66.935l20.434,10.217l5.108,7.663l-20.434,-10.218l-5.108,-7.662Z" style="fill:#395346;"/><clipPath id="_clip7"><path d="M9.723,66.935l20.434,10.217l5.108,7.663l-20.434,-10.218l-5.108,-7.662Z"/></clipPath><g clip-path="url(#_clip7)"><path d="M81.242,5.632l-18.481,6.9l-1.279,3.654l-0.674,5.443l-9.596,1.806l0.581,-4.774l-16.528,14.129l-5.108,1.549l2.539,16.645l4.646,15.225l-5.302,-0.216l1.044,11.184l2.181,7.638l-6.117,-5.767l-19.425,-12.113l18.167,6.242l-0.629,-9.903l-17.538,-10.032l0,-1.633l7.619,2.278l13.806,5.032l-4.452,-7.484l-4.129,-1.871l2.481,-0.509l-15.325,-7.663l15.325,4.688l-1.19,-14.838l-14.135,-15.393l20.434,12.102l12.281,-9.612l4.129,-2.323l-16.41,-10.384l26.546,13.274l-1.003,-5.611l0.609,-2.118l-15.935,-10.653l20.434,7.815l7.308,-2.387l13.126,-0.32Z" style="fill:#f6e0f1;fill-opacity:0.9;"/></g><path d="M40.374,0.524l-5.109,7.663l20.435,10.217l-2.439,3.889l5.527,-2.345l-0.435,-5.326l2.455,-3.881l-20.434,-10.217Z" style="fill:#6c7157;"/><clipPath id="_clip8"><path d="M40.374,0.524l-5.109,7.663l20.435,10.217l-2.439,3.889l5.527,-2.345l-0.435,-5.326l2.455,-3.881l-20.434,-10.217Z"/></clipPath><g clip-path="url(#_clip8)"><path d="M81.242,5.632l-18.481,6.9l-1.279,3.654l-0.674,5.443l-9.596,1.806l0.581,-4.774l-16.528,14.129l-5.108,1.549l2.539,16.645l4.646,15.225l-5.302,-0.216l1.044,11.184l2.181,7.638l-6.117,-5.767l-19.425,-12.113l18.167,6.242l-0.629,-9.903l-17.538,-10.032l0,-1.633l7.619,2.278l13.806,5.032l-4.452,-7.484l-4.129,-1.871l2.481,-0.509l-15.325,-7.663l15.325,4.688l-1.19,-14.838l-14.135,-15.393l20.434,12.102l12.281,-9.612l4.129,-2.323l-16.41,-10.384l26.546,13.274l-1.003,-5.611l0.609,-2.118l-15.935,-10.653l20.434,7.815l7.308,-2.387l13.126,-0.32Z" style="fill:#f6e0f1;fill-opacity:0.9;"/></g></g></g></g><g><path d="M60.223,46.834l9.947,12.458l-4.348,-1.274l-12.118,-9.902l6.519,-1.282Z" style="fill:#395346;"/><path d="M52.135,48.475l13.868,-15.941l6.083,-0.138l-10.989,15.699l-8.962,0.38Z" style="fill:#395346;"/><path d="M52.17,26.427l1.65,-1.732l18.273,7.657l-7.559,0.788l-12.364,-6.713Z" style="fill:#395346;"/><path d="M55.363,54.489l-3.645,-2.965l-8.162,10.911l5.189,3.011l6.618,-10.957Z" style="fill:#395346;"/><path d="M39.117,66.354l6.159,-2.81l3.313,1.937l-4.812,2.65l-4.66,-1.777Z" style="fill:none;"/><path d="M61.66,60.032l4.002,1.649l4.535,-2.321l-4.159,-1.166l-4.378,1.838Z" style="fill:none;"/><path d="M52.138,51.956l9.524,8.067l4.57,-1.934l-9.696,-9.81l10.371,-15.392l-14.79,-6.374l-12.276,15.811l7.562,6.49l-8.294,17.514l6.297,-2.837l6.732,-11.535Z" style="fill:#6ee33b;"/><g><path d="M54.022,32.946l6.422,3.896l-4.689,7.106l-6.668,-4.761l4.935,-6.241Z" style="fill:#f6e0f1;"/><path d="M54.04,32.936l-3.553,0.145l-5.289,6.241l4.006,-0.218l4.836,-6.168Z" style="fill:#6c7157;"/><path d="M45.221,39.333l3.881,-0.157l6.576,4.769l-4.525,-0.078l-5.932,-4.534Z" style="fill:#395346;"/></g></g><path d="M79.022,48.097c0,0 6.023,1.536 4.351,7.225c-1.672,5.688 -0.691,6.841 -2.095,11.264c-1.404,4.424 -2.576,0.768 -5.109,5.714c-2.445,4.777 -1.717,6.083 -12.733,10.908c-0.392,0.172 1.248,-3.192 0.821,-3.002c-0.898,0.399 -1.669,0.754 -2.332,1.07c-8.522,4.067 0.853,1.734 -12.241,5.273c-0.883,0.239 3.88,1.316 3.076,1.538c-0.803,0.223 -3.476,-0.207 -4.251,-0.008c-2.579,0.663 -4.884,1.237 -6.919,1.727c-0.37,0.09 1.938,2.016 -1.083,0.259c-5.189,-3.018 -9.236,2.024 -10.314,2.064c-1.717,0.063 -4.566,-3.053 -7.872,-1.172c-3.307,1.881 -2.555,4.569 -5.78,1.343c-1.544,-1.544 -3.353,-0.852 -3.846,-1.639c-0.537,-0.858 0.225,-3.128 -2.109,-3.227c-0.531,-0.022 -1.709,4.029 -2.193,4.012c-3.598,-0.129 -5.277,-4.159 -6.947,-3.473c-1.894,0.779 -2.04,-0.866 0.667,-4.775c2.707,-3.909 3.812,-1.699 3.69,-4.417c-0.122,-2.718 -2.474,-3.872 -2.474,-3.872c0,0 -1.964,1.936 -1.473,-2.057c0.491,-3.993 -0.318,-4.202 0.839,-4.689c1.158,-0.487 1.892,1.664 1.955,-1.239c0.063,-2.903 -0.708,-1.506 0,-3.764c0.708,-2.258 0.201,-0.492 1.315,-3.579c1.113,-3.087 0.451,-5.273 0.459,-6.653c0.009,-1.38 -1.066,-0.413 0.009,-1.703c1.075,-1.29 5.754,-2.798 7.339,-3.066c1.586,-0.267 7.177,1.13 7.177,1.13l-11.191,2.263l0,15.034l5.109,7.663c0,0 0.363,2.442 2.875,1.438c2.511,-1.004 1.961,-1.004 3.007,-1.004c1.046,0 0.881,-0.055 2.808,1.486c1.926,1.542 3.276,2.314 3.276,2.314c0,0 1.568,1.099 2.669,1.705c1.101,0.606 1.717,2.237 1.717,2.237l0.485,-0.751c0,0 0.401,0.25 0.366,-0.701c-0.035,-0.95 0.35,-2.712 0.157,-3.152c-0.192,-0.441 -1.293,-1.266 0.193,-0.551c1.487,0.716 0.969,0.76 2.054,1.674c1.084,0.914 -1.019,1.927 1.959,0.98c2.979,-0.947 2.056,-1.222 3.977,-1.112c1.92,0.11 1.094,1.321 3.021,0.055c1.927,-1.266 1.927,-0.496 2.642,-1.762c0.716,-1.266 0.661,-1.652 0.661,-1.652c0,0 -2.243,1.017 -0.048,-0.62l2.195,-1.637c0,0 -0.569,0.899 0.101,-0.679c0.67,-1.578 0.638,-0.587 1.645,-2.239c1.007,-1.651 0.122,-1.864 1.996,-2.693c1.874,-0.83 -0.108,-2.041 2.204,-0.94c2.312,1.101 0.378,0.481 3.492,1.204c3.114,0.723 3.39,0.503 4.546,0.723c1.156,0.22 -1.377,-1.101 1.266,-2.918c2.642,-1.817 3.064,-0.587 3.019,-2.221c-0.046,-1.633 -2.524,-2.679 0.119,-2.789c2.642,-0.11 -1.705,2.033 2.671,0.273c4.376,-1.759 3.88,-0.438 4.706,-1.869c0.826,-1.432 1.835,-1.487 1.523,-2.698c-0.312,-1.211 -0.404,-2.333 -0.404,-2.333l2.892,2.961l0.365,-8.881Z" style="fill:#546c45;"/><clipPath id="_clip9"><path d="M79.022,48.097c0,0 6.023,1.536 4.351,7.225c-1.672,5.688 -0.691,6.841 -2.095,11.264c-1.404,4.424 -2.576,0.768 -5.109,5.714c-2.445,4.777 -1.717,6.083 -12.733,10.908c-0.392,0.172 1.248,-3.192 0.821,-3.002c-0.898,0.399 -1.669,0.754 -2.332,1.07c-8.522,4.067 0.853,1.734 -12.241,5.273c-0.883,0.239 3.88,1.316 3.076,1.538c-0.803,0.223 -3.476,-0.207 -4.251,-0.008c-2.579,0.663 -4.884,1.237 -6.919,1.727c-0.37,0.09 1.938,2.016 -1.083,0.259c-5.189,-3.018 -9.236,2.024 -10.314,2.064c-1.717,0.063 -4.566,-3.053 -7.872,-1.172c-3.307,1.881 -2.555,4.569 -5.78,1.343c-1.544,-1.544 -3.353,-0.852 -3.846,-1.639c-0.537,-0.858 0.225,-3.128 -2.109,-3.227c-0.531,-0.022 -1.709,4.029 -2.193,4.012c-3.598,-0.129 -5.277,-4.159 -6.947,-3.473c-1.894,0.779 -2.04,-0.866 0.667,-4.775c2.707,-3.909 3.812,-1.699 3.69,-4.417c-0.122,-2.718 -2.474,-3.872 -2.474,-3.872c0,0 -1.964,1.936 -1.473,-2.057c0.491,-3.993 -0.318,-4.202 0.839,-4.689c1.158,-0.487 1.892,1.664 1.955,-1.239c0.063,-2.903 -0.708,-1.506 0,-3.764c0.708,-2.258 0.201,-0.492 1.315,-3.579c1.113,-3.087 0.451,-5.273 0.459,-6.653c0.009,-1.38 -1.066,-0.413 0.009,-1.703c1.075,-1.29 5.754,-2.798 7.339,-3.066c1.586,-0.267 7.177,1.13 7.177,1.13l-11.191,2.263l0,15.034l5.109,7.663c0,0 0.363,2.442 2.875,1.438c2.511,-1.004 1.961,-1.004 3.007,-1.004c1.046,0 0.881,-0.055 2.808,1.486c1.926,1.542 3.276,2.314 3.276,2.314c0,0 1.568,1.099 2.669,1.705c1.101,0.606 1.717,2.237 1.717,2.237l0.485,-0.751c0,0 0.401,0.25 0.366,-0.701c-0.035,-0.95 0.35,-2.712 0.157,-3.152c-0.192,-0.441 -1.293,-1.266 0.193,-0.551c1.487,0.716 0.969,0.76 2.054,1.674c1.084,0.914 -1.019,1.927 1.959,0.98c2.979,-0.947 2.056,-1.222 3.977,-1.112c1.92,0.11 1.094,1.321 3.021,0.055c1.927,-1.266 1.927,-0.496 2.642,-1.762c0.716,-1.266 0.661,-1.652 0.661,-1.652c0,0 -2.243,1.017 -0.048,-0.62l2.195,-1.637c0,0 -0.569,0.899 0.101,-0.679c0.67,-1.578 0.638,-0.587 1.645,-2.239c1.007,-1.651 0.122,-1.864 1.996,-2.693c1.874,-0.83 -0.108,-2.041 2.204,-0.94c2.312,1.101 0.378,0.481 3.492,1.204c3.114,0.723 3.39,0.503 4.546,0.723c1.156,0.22 -1.377,-1.101 1.266,-2.918c2.642,-1.817 3.064,-0.587 3.019,-2.221c-0.046,-1.633 -2.524,-2.679 0.119,-2.789c2.642,-0.11 -1.705,2.033 2.671,0.273c4.376,-1.759 3.88,-0.438 4.706,-1.869c0.826,-1.432 1.835,-1.487 1.523,-2.698c-0.312,-1.211 -0.404,-2.333 -0.404,-2.333l2.892,2.961l0.365,-8.881Z"/></clipPath><g clip-path="url(#_clip9)"><path d="M85.572,36.105l18.329,50.032l-68.039,22.175l-11.592,-5.797l28.828,-46.887l32.474,-19.523" style="fill:#c4e783;fill-opacity:0.5;"/><path d="M87.62,51.849l-4.555,4.581l-1.787,1.225c0,0 0.431,2.914 0,3.823c-0.432,0.909 -2.455,3.881 -2.455,3.881c0,0 -0.557,0.898 -1.633,1.974c-1.075,1.075 -1.873,1.381 -1.873,1.381l-0.688,-0.344l2.561,-6.521l0.646,-1.075l-1.667,-0.538c0,0 -2.419,2.796 -3.172,4.194c-0.753,1.397 -0.901,1.639 -0.901,1.639c0,0 0.147,0.511 -1.035,1.694c-1.182,1.183 -2.522,2.249 -1.96,2.952c0.563,0.704 0.867,1.527 0.867,1.527c0,0 -1.81,1.005 -3.1,0.36c-1.29,-0.646 0.323,-0.968 -1.936,-1.506c-2.258,-0.537 -3.017,-1.061 -5.917,-0.315c-2.9,0.745 -4.082,-6.136 -5.373,0.745c-1.29,6.882 -2.483,7.205 -3.015,8.065c-0.533,0.86 1.737,1.159 -1.656,1.493c-3.393,0.335 -4.684,0.442 -4.684,0.442c0,0 -4.618,2.268 -6.556,1.725c-1.938,-0.542 0.842,-1.187 -2.43,-0.435c-3.271,0.753 -7.808,1.506 -10.217,2.581c-2.409,1.075 -4.448,2.051 -7.461,2.8c-3.013,0.748 -2.275,0.839 -0.785,-0.397c4.038,-3.353 -6.058,-0.789 -4.748,-3.16c1.582,-2.862 2.777,-2.791 2.777,-2.791l-3.037,-4.01l-2.072,0.246c0,0 0.273,1.057 -1.792,-0.385c-2.065,-1.443 -2.731,-1.484 -1.914,-4.152c0.816,-2.667 2.246,-1.225 1.155,-3.129c-1.091,-1.903 -1.736,0.14 -1.091,-3.731c0.645,-3.871 0.752,-4.839 0.752,-4.839c0,0 -1.077,-2.477 -0.753,-3.658c0.323,-1.181 0.431,-2.148 0.431,-2.148l-4.543,1.557l2.647,-6.074l0,-0.86c0,0 -6.599,-2.903 -7.566,0.753c-0.968,3.656 -3.216,4.065 -1.232,13.323c1.984,9.257 2.573,10.123 1.311,15.981c-1.262,5.857 -3.843,9.62 -0.832,10.911c3.011,1.29 0.322,2.258 11.72,2.903c11.398,0.645 59.586,-4.12 59.586,-4.12l22.994,-25.342l-3.011,-13.226" style="fill:#97b366;"/><clipPath id="_clip10"><path d="M87.62,51.849l-4.555,4.581l-1.787,1.225c0,0 0.431,2.914 0,3.823c-0.432,0.909 -2.455,3.881 -2.455,3.881c0,0 -0.557,0.898 -1.633,1.974c-1.075,1.075 -1.873,1.381 -1.873,1.381l-0.688,-0.344l2.561,-6.521l0.646,-1.075l-1.667,-0.538c0,0 -2.419,2.796 -3.172,4.194c-0.753,1.397 -0.901,1.639 -0.901,1.639c0,0 0.147,0.511 -1.035,1.694c-1.182,1.183 -2.522,2.249 -1.96,2.952c0.563,0.704 0.867,1.527 0.867,1.527c0,0 -1.81,1.005 -3.1,0.36c-1.29,-0.646 0.323,-0.968 -1.936,-1.506c-2.258,-0.537 -3.017,-1.061 -5.917,-0.315c-2.9,0.745 -4.082,-6.136 -5.373,0.745c-1.29,6.882 -2.483,7.205 -3.015,8.065c-0.533,0.86 1.737,1.159 -1.656,1.493c-3.393,0.335 -4.684,0.442 -4.684,0.442c0,0 -4.618,2.268 -6.556,1.725c-1.938,-0.542 0.842,-1.187 -2.43,-0.435c-3.271,0.753 -7.808,1.506 -10.217,2.581c-2.409,1.075 -4.448,2.051 -7.461,2.8c-3.013,0.748 -2.275,0.839 -0.785,-0.397c4.038,-3.353 -6.058,-0.789 -4.748,-3.16c1.582,-2.862 2.777,-2.791 2.777,-2.791l-3.037,-4.01l-2.072,0.246c0,0 0.273,1.057 -1.792,-0.385c-2.065,-1.443 -2.731,-1.484 -1.914,-4.152c0.816,-2.667 2.246,-1.225 1.155,-3.129c-1.091,-1.903 -1.736,0.14 -1.091,-3.731c0.645,-3.871 0.752,-4.839 0.752,-4.839c0,0 -1.077,-2.477 -0.753,-3.658c0.323,-1.181 0.431,-2.148 0.431,-2.148l-4.543,1.557l2.647,-6.074l0,-0.86c0,0 -6.599,-2.903 -7.566,0.753c-0.968,3.656 -3.216,4.065 -1.232,13.323c1.984,9.257 2.573,10.123 1.311,15.981c-1.262,5.857 -3.843,9.62 -0.832,10.911c3.011,1.29 0.322,2.258 11.72,2.903c11.398,0.645 59.586,-4.12 59.586,-4.12l22.994,-25.342l-3.011,-13.226"/></clipPath><g clip-path="url(#_clip10)"><path d="M85.572,36.105l18.329,50.032l-68.039,22.175l-11.592,-5.797l28.828,-46.887l32.474,-19.523" style="fill:#c4e783;fill-opacity:0.5;"/></g><path d="M29.378,69.31l-34.27,22.244l-1.49,-52.229l38.658,5.892l-2.898,24.093" style="fill-opacity:0.5;"/></g></g></svg>