<?xml version="1.0" encoding="UTF-8" standalone="no"?><!DOCTYPE svg PUBLIC "-//W3C//DTD SVG 1.1//EN" "http://www.w3.org/Graphics/SVG/1.1/DTD/svg11.dtd"><svg width="100%" height="100%" viewBox="0 0 92 86" version="1.1" xmlns="http://www.w3.org/2000/svg" xmlns:xlink="http://www.w3.org/1999/xlink" xml:space="preserve" xmlns:serif="http://www.serif.com/" style="fill-rule:evenodd;clip-rule:evenodd;stroke-linejoin:round;stroke-miterlimit:1.41421;"><g id="X_Runestone_grass_runes_4"><g id="F_Runestone_runes_4"><g><g><path d="M70.577,2.145l19.823,0.306l-20.434,5.109l-23.436,-6.61l24.047,1.195Z" style="fill:#9da8c9;"/><clipPath id="_clip1"><path d="M70.577,2.145l19.823,0.306l-20.434,5.109l-23.436,-6.61l24.047,1.195Z"/></clipPath><g clip-path="url(#_clip1)"><path d="M46.604,0.988l23.362,4.146l20.434,-2.683l-18.32,6.166l-2.114,2.452l2.952,2.237l-5.594,0.683l-2.467,2.242l-5.109,-3.563l-0.889,5.553l-17.597,-3.367l5.247,17.549l-3.954,9.296l0.944,6.876l6.032,20.287l-2.081,4.068l0.64,5.429l-24.101,-6.943l20.434,3.567l-1.613,-1.807l-23.93,-19.64l24.705,14.651l1.548,-0.258l-26.253,-19.501l25.543,15.028l-5.109,-7.14l-1.407,-6.279l-13.918,-9.272l12.442,3.996l-1.19,-2.552l-13.152,-7.502l1.9,-0.498l13.918,6.968l0.344,-1.119l-13.931,-5.683l14.501,3.589l3.571,-6.401l-33.729,-8.678l32.759,4.055l-2.108,-2.33l-5.108,-1.239l0,-5.23l5.108,-1.514l1.699,1.999l-0.177,1.402l-3.876,-0.071l4.299,3.277l0.669,0.493l-1.11,-3.583l0.151,-1.17l-0.431,-0.907l-1.725,-2.127l-0.595,-2.724l-4.012,-3.102l7.516,1.812l12.133,1.516l0.088,-1.718l-9.52,-6.719l17.295,6.679l0.505,-1.105l3.947,1.145l0.78,-2.657l-20.346,-8.079Z" style="fill:#f6e0f1;fill-opacity:0.9;"/></g><path d="M69.966,68.862l-5.109,-2.554l10.217,-15.326l5.87,4.8l-3.315,6.695l-7.663,6.385Z" style="fill:#6c7157;"/><clipPath id="_clip2"><path d="M69.966,68.862l-5.109,-2.554l10.217,-15.326l5.87,4.8l-3.315,6.695l-7.663,6.385Z"/></clipPath><g clip-path="url(#_clip2)"><path d="M46.604,0.988l23.362,4.146l20.434,-2.683l-18.32,6.166l-2.114,2.452l2.952,2.237l-5.594,0.683l-2.467,2.242l-5.109,-3.563l-0.889,5.553l-17.597,-3.367l5.247,17.549l-3.954,9.296l0.944,6.876l6.032,20.287l-2.081,4.068l0.64,5.429l-24.101,-6.943l20.434,3.567l-1.613,-1.807l-23.93,-19.64l24.705,14.651l1.548,-0.258l-26.253,-19.501l25.543,15.028l-5.109,-7.14l-1.407,-6.279l-13.918,-9.272l12.442,3.996l-1.19,-2.552l-13.152,-7.502l1.9,-0.498l13.918,6.968l0.344,-1.119l-13.931,-5.683l14.501,3.589l3.571,-6.401l-33.729,-8.678l32.759,4.055l-2.108,-2.33l-5.108,-1.239l0,-5.23l5.108,-1.514l1.699,1.999l-0.177,1.402l-3.876,-0.071l4.299,3.277l0.669,0.493l-1.11,-3.583l0.151,-1.17l-0.431,-0.907l-1.725,-2.127l-0.595,-2.724l-4.012,-3.102l7.516,1.812l12.133,1.516l0.088,-1.718l-9.52,-6.719l17.295,6.679l0.505,-1.105l3.947,1.145l0.78,-2.657l-20.346,-8.079Z" style="fill:#f6e0f1;fill-opacity:0.9;"/></g><path d="M85.291,38.825l-7.795,-4.379l-8.181,4.09l10.868,8.418l5.108,-8.129Z" style="fill:#9da8c9;"/><clipPath id="_clip3"><path d="M85.291,38.825l-7.795,-4.379l-8.181,4.09l10.868,8.418l5.108,-8.129Z"/></clipPath><g clip-path="url(#_clip3)"><path d="M46.604,0.988l23.362,4.146l20.434,-2.683l-18.32,6.166l-2.114,2.452l2.952,2.237l-5.594,0.683l-2.467,2.242l-5.109,-3.563l-0.889,5.553l-17.597,-3.367l5.247,17.549l-3.954,9.296l0.944,6.876l6.032,20.287l-2.081,4.068l0.64,5.429l-24.101,-6.943l20.434,3.567l-1.613,-1.807l-23.93,-19.64l24.705,14.651l1.548,-0.258l-26.253,-19.501l25.543,15.028l-5.109,-7.14l-1.407,-6.279l-13.918,-9.272l12.442,3.996l-1.19,-2.552l-13.152,-7.502l1.9,-0.498l13.918,6.968l0.344,-1.119l-13.931,-5.683l14.501,3.589l3.571,-6.401l-33.729,-8.678l32.759,4.055l-2.108,-2.33l-5.108,-1.239l0,-5.23l5.108,-1.514l1.699,1.999l-0.177,1.402l-3.876,-0.071l4.299,3.277l0.669,0.493l-1.11,-3.583l0.151,-1.17l-0.431,-0.907l-1.725,-2.127l-0.595,-2.724l-4.012,-3.102l7.516,1.812l12.133,1.516l0.088,-1.718l-9.52,-6.719l17.295,6.679l0.505,-1.105l3.947,1.145l0.78,-2.657l-20.346,-8.079Z" style="fill:#f6e0f1;fill-opacity:0.9;"/></g><path d="M44.423,5.005l-10.217,5.109l-25.543,12.771l28.07,3.818l6.39,1.254l11.517,-12.734l5.108,-2.555l-15.325,-7.663Z" style="fill:#9da8c9;"/><clipPath id="_clip4"><path d="M44.423,5.005l-10.217,5.109l-25.543,12.771l28.07,3.818l6.39,1.254l11.517,-12.734l5.108,-2.555l-15.325,-7.663Z"/></clipPath><g clip-path="url(#_clip4)"><path d="M68.66,77.018l-1.96,-9.996l5.98,-11.068l7.576,-3.789l-6.122,-2.047l-2.104,3.042l-0.404,-14.338l13.739,-12.438l-5.109,2.956l-5.108,2.339l-13.167,16.457l2.95,6.583l1.444,4.387l-1.444,7.793l-11.562,8.927l-13.981,3.141l-20.434,-3.324l20.434,-3.044l-10.217,-1.636l0,-6.157l-2.863,2.709l-7.354,-9.236l-3.729,-15.763l17.401,11.377l4.122,4.701l-0.319,-4.949l-2.149,-4.034l-13.6,-6.8l-4.271,-4.699l5.058,-5.125l11.418,1.995l-2.774,-2.781l-6.048,-1.384l-5.109,-3.078l0,1.847l-6.385,0.229l-7.388,-6.523l12.023,-7.762l10.29,6.823l0.045,-3.481l4.17,-1.197l-6.633,-7.177l14.312,-0.985l10.217,3.448l0,2.094l-2.754,7.836l-2.354,22.704l1.723,4.877l1.082,-9.676l2.303,-14.174l13.722,-6.86l-8.613,-4.461l-13.525,-10.013l8.416,-9.317l19.412,4.598l29.873,-0.39l-25.294,11.674l-1.724,6.773l3.276,0.334l0,-5.109l15.325,-5.2l19.256,-12.09l-80.558,-4.781l-32.159,44.306l19.563,50.649l52.085,-9.717" style="fill:#542f7f;fill-opacity:0.7;"/><path d="M46.604,0.988l23.362,4.146l20.434,-2.683l-18.32,6.166l-2.114,2.452l2.952,2.237l-5.594,0.683l-2.467,2.242l-5.109,-3.563l-0.889,5.553l-17.597,-3.367l5.247,17.549l-3.954,9.296l0.944,6.876l6.032,20.287l-2.081,4.068l0.64,5.429l-24.101,-6.943l20.434,3.567l-1.613,-1.807l-23.93,-19.64l24.705,14.651l1.548,-0.258l-26.253,-19.501l25.543,15.028l-5.109,-7.14l-1.407,-6.279l-13.918,-9.272l12.442,3.996l-1.19,-2.552l-13.152,-7.502l1.9,-0.498l13.918,6.968l0.344,-1.119l-13.931,-5.683l14.501,3.589l3.571,-6.401l-33.729,-8.678l32.759,4.055l-2.108,-2.33l-5.108,-1.239l0,-5.23l5.108,-1.514l1.699,1.999l-0.177,1.402l-3.876,-0.071l4.299,3.277l0.669,0.493l-1.11,-3.583l0.151,-1.17l-0.431,-0.907l-1.725,-2.127l-0.595,-2.724l-4.012,-3.102l7.516,1.812l12.133,1.516l0.088,-1.718l-9.52,-6.719l17.295,6.679l0.505,-1.105l3.947,1.145l0.78,-2.657l-20.346,-8.079Z" style="fill:#f6e0f1;fill-opacity:0.9;"/></g><path d="M90.4,2.451l-20.434,5.109l-10.218,5.108l-5.108,2.555l-15.326,-2.555l-8.821,6.915l6.238,7.119l-14.466,7.033l17.049,14.693l5.109,12.771l-5.109,-2.554l5.109,12.771l3.753,6.985l2.172,-2.84l9.4,-1.59l7.326,-3.663l5.179,-7.698l7.93,-6.635l-5.109,7.346l-5.108,5.541l13.112,-6.556l3.926,-10.468l-3.918,-3.41l2.205,-2.554l2.02,-4.099l-2.02,-3.012l-3.515,3.76l-3.025,1.512l-0.411,-3.678l3.174,-4.803l5.941,-2.04l2.945,-5.52l0,-10.217l-4.124,-9.84l4.124,-5.486Z" style="fill:#bac1d8;"/><clipPath id="_clip5"><path d="M90.4,2.451l-20.434,5.109l-10.218,5.108l-5.108,2.555l-15.326,-2.555l-8.821,6.915l6.238,7.119l-14.466,7.033l17.049,14.693l5.109,12.771l-5.109,-2.554l5.109,12.771l3.753,6.985l2.172,-2.84l9.4,-1.59l7.326,-3.663l5.179,-7.698l7.93,-6.635l-5.109,7.346l-5.108,5.541l13.112,-6.556l3.926,-10.468l-3.918,-3.41l2.205,-2.554l2.02,-4.099l-2.02,-3.012l-3.515,3.76l-3.025,1.512l-0.411,-3.678l3.174,-4.803l5.941,-2.04l2.945,-5.52l0,-10.217l-4.124,-9.84l4.124,-5.486Z"/></clipPath><g clip-path="url(#_clip5)"><path d="M68.66,77.018l-1.96,-9.996l5.98,-11.068l7.576,-3.789l-6.122,-2.047l-2.104,3.042l-0.404,-14.338l13.739,-12.438l-5.109,2.956l-5.108,2.339l-13.167,16.457l2.95,6.583l1.444,4.387l-1.444,7.793l-11.562,8.927l-13.981,3.141l-20.434,-3.324l20.434,-3.044l-10.217,-1.636l0,-6.157l-2.863,2.709l-7.354,-9.236l-3.729,-15.763l17.401,11.377l4.122,4.701l-0.319,-4.949l-2.149,-4.034l-13.6,-6.8l-4.271,-4.699l5.058,-5.125l11.418,1.995l-2.774,-2.781l-6.048,-1.384l-5.109,-3.078l0,1.847l-6.385,0.229l-7.388,-6.523l12.023,-7.762l10.29,6.823l0.045,-3.481l4.17,-1.197l-6.633,-7.177l14.312,-0.985l10.217,3.448l0,2.094l-2.754,7.836l-2.354,22.704l1.723,4.877l1.082,-9.676l2.303,-14.174l13.722,-6.86l-8.613,-4.461l-13.525,-10.013l8.416,-9.317l19.412,4.598l29.873,-0.39l-25.294,11.674l-1.724,6.773l3.276,0.334l0,-5.109l15.325,-5.2l19.256,-12.09l-80.558,-4.781l-32.159,44.306l19.563,50.649l52.085,-9.717" style="fill:#542f7f;fill-opacity:0.7;"/><path d="M46.604,0.988l23.362,4.146l20.434,-2.683l-18.32,6.166l-2.114,2.452l2.952,2.237l-5.594,0.683l-2.467,2.242l-5.109,-3.563l-0.889,5.553l-17.597,-3.367l5.247,17.549l-3.954,9.296l0.944,6.876l6.032,20.287l-2.081,4.068l0.64,5.429l-24.101,-6.943l20.434,3.567l-1.613,-1.807l-23.93,-19.64l24.705,14.651l1.548,-0.258l-26.253,-19.501l25.543,15.028l-5.109,-7.14l-1.407,-6.279l-13.918,-9.272l12.442,3.996l-1.19,-2.552l-13.152,-7.502l1.9,-0.498l13.918,6.968l0.344,-1.119l-13.931,-5.683l14.501,3.589l3.571,-6.401l-33.729,-8.678l32.759,4.055l-2.108,-2.33l-5.108,-1.239l0,-5.23l5.108,-1.514l1.699,1.999l-0.177,1.402l-3.876,-0.071l4.299,3.277l0.669,0.493l-1.11,-3.583l0.151,-1.17l-0.431,-0.907l-1.725,-2.127l-0.595,-2.724l-4.012,-3.102l7.516,1.812l12.133,1.516l0.088,-1.718l-9.52,-6.719l17.295,6.679l0.505,-1.105l3.947,1.145l0.78,-2.657l-20.346,-8.079Z" style="fill:#f6e0f1;fill-opacity:0.9;"/></g><path d="M40.916,18.577l1.208,5.713l-13.027,0.651l1.895,-9.161l6.491,1.081l3.433,1.716Z" style="fill:#9da8c9;"/><clipPath id="_clip6"><path d="M40.916,18.577l1.208,5.713l-13.027,0.651l1.895,-9.161l6.491,1.081l3.433,1.716Z"/></clipPath><g clip-path="url(#_clip6)"><path d="M46.604,0.988l23.362,4.146l20.434,-2.683l-18.32,6.166l-2.114,2.452l2.952,2.237l-5.594,0.683l-2.467,2.242l-5.109,-3.563l-0.889,5.553l-17.597,-3.367l5.247,17.549l-3.954,9.296l0.944,6.876l6.032,20.287l-2.081,4.068l0.64,5.429l-24.101,-6.943l20.434,3.567l-1.613,-1.807l-23.93,-19.64l24.705,14.651l1.548,-0.258l-26.253,-19.501l25.543,15.028l-5.109,-7.14l-1.407,-6.279l-13.918,-9.272l12.442,3.996l-1.19,-2.552l-13.152,-7.502l1.9,-0.498l13.918,6.968l0.344,-1.119l-13.931,-5.683l14.501,3.589l3.571,-6.401l-33.729,-8.678l32.759,4.055l-2.108,-2.33l-5.108,-1.239l0,-5.23l5.108,-1.514l1.699,1.999l-0.177,1.402l-3.876,-0.071l4.299,3.277l0.669,0.493l-1.11,-3.583l0.151,-1.17l-0.431,-0.907l-1.725,-2.127l-0.595,-2.724l-4.012,-3.102l7.516,1.812l12.133,1.516l0.088,-1.718l-9.52,-6.719l17.295,6.679l0.505,-1.105l3.947,1.145l0.78,-2.657l-20.346,-8.079Z" style="fill:#f6e0f1;fill-opacity:0.9;"/></g><path d="M39.314,39.235l0,4.084l-18.261,-6.194l-0.81,-9.813l19.071,11.923Z" style="fill:#6c7157;"/><clipPath id="_clip7"><path d="M39.314,39.235l0,4.084l-18.261,-6.194l-0.81,-9.813l19.071,11.923Z"/></clipPath><g clip-path="url(#_clip7)"><path d="M46.604,0.988l23.362,4.146l20.434,-2.683l-18.32,6.166l-2.114,2.452l2.952,2.237l-5.594,0.683l-2.467,2.242l-5.109,-3.563l-0.889,5.553l-17.597,-3.367l5.247,17.549l-3.954,9.296l0.944,6.876l6.032,20.287l-2.081,4.068l0.64,5.429l-24.101,-6.943l20.434,3.567l-1.613,-1.807l-23.93,-19.64l24.705,14.651l1.548,-0.258l-26.253,-19.501l25.543,15.028l-5.109,-7.14l-1.407,-6.279l-13.918,-9.272l12.442,3.996l-1.19,-2.552l-13.152,-7.502l1.9,-0.498l13.918,6.968l0.344,-1.119l-13.931,-5.683l14.501,3.589l3.571,-6.401l-33.729,-8.678l32.759,4.055l-2.108,-2.33l-5.108,-1.239l0,-5.23l5.108,-1.514l1.699,1.999l-0.177,1.402l-3.876,-0.071l4.299,3.277l0.669,0.493l-1.11,-3.583l0.151,-1.17l-0.431,-0.907l-1.725,-2.127l-0.595,-2.724l-4.012,-3.102l7.516,1.812l12.133,1.516l0.088,-1.718l-9.52,-6.719l17.295,6.679l0.505,-1.105l3.947,1.145l0.78,-2.657l-20.346,-8.079Z" style="fill:#f6e0f1;fill-opacity:0.4;"/></g><path d="M34.206,10.114l5.108,2.554l1.644,5.93l-5.669,0.257l0.752,3.207l6.135,2.254l2.247,6.232l-35.76,-7.663l25.543,-12.771Z" style="fill:#6c7157;"/><clipPath id="_clip8"><path d="M34.206,10.114l5.108,2.554l1.644,5.93l-5.669,0.257l0.752,3.207l6.135,2.254l2.247,6.232l-35.76,-7.663l25.543,-12.771Z"/></clipPath><g clip-path="url(#_clip8)"><path d="M68.66,77.018l-1.96,-9.996l5.98,-11.068l7.576,-3.789l-6.122,-2.047l-2.104,3.042l-0.404,-14.338l13.739,-12.438l-5.109,2.956l-5.108,2.339l-13.167,16.457l2.95,6.583l1.444,4.387l-1.444,7.793l-11.562,8.927l-13.981,3.141l-20.434,-3.324l20.434,-3.044l-10.217,-1.636l0,-6.157l-2.863,2.709l-7.354,-9.236l-3.729,-15.763l17.401,11.377l4.122,4.701l-0.319,-4.949l-2.149,-4.034l-13.6,-6.8l-4.271,-4.699l5.058,-5.125l11.418,1.995l-2.774,-2.781l-6.048,-1.384l-5.109,-3.078l0,1.847l-6.385,0.229l-7.388,-6.523l12.023,-7.762l10.29,6.823l0.045,-3.481l4.17,-1.197l-6.633,-7.177l14.312,-0.985l10.217,3.448l0,2.094l-2.754,7.836l-2.354,22.704l1.723,4.877l1.082,-9.676l2.303,-14.174l13.722,-6.86l-8.613,-4.461l-13.525,-10.013l8.416,-9.317l19.412,4.598l29.873,-0.39l-25.294,11.674l-1.724,6.773l3.276,0.334l0,-5.109l15.325,-5.2l19.256,-12.09l-80.558,-4.781l-32.159,44.306l19.563,50.649l52.085,-9.717" style="fill:#542f7f;fill-opacity:0.7;"/><path d="M46.604,0.988l23.362,4.146l20.434,-2.683l-18.32,6.166l-2.114,2.452l2.952,2.237l-5.594,0.683l-2.467,2.242l-5.109,-3.563l-0.889,5.553l-17.597,-3.367l5.247,17.549l-3.954,9.296l0.944,6.876l6.032,20.287l-2.081,4.068l0.64,5.429l-24.101,-6.943l20.434,3.567l-1.613,-1.807l-23.93,-19.64l24.705,14.651l1.548,-0.258l-26.253,-19.501l25.543,15.028l-5.109,-7.14l-1.407,-6.279l-13.918,-9.272l12.442,3.996l-1.19,-2.552l-13.152,-7.502l1.9,-0.498l13.918,6.968l0.344,-1.119l-13.931,-5.683l14.501,3.589l3.571,-6.401l-33.729,-8.678l32.759,4.055l-2.108,-2.33l-5.108,-1.239l0,-5.23l5.108,-1.514l1.699,1.999l-0.177,1.402l-3.876,-0.071l4.299,3.277l0.669,0.493l-1.11,-3.583l0.151,-1.17l-0.431,-0.907l-1.725,-2.127l-0.595,-2.724l-4.012,-3.102l7.516,1.812l12.133,1.516l0.088,-1.718l-9.52,-6.719l17.295,6.679l0.505,-1.105l3.947,1.145l0.78,-2.657l-20.346,-8.079Z" style="fill:#f6e0f1;fill-opacity:0.4;"/></g><path d="M8.663,22.885l35.76,7.663l-5.109,8.758l-15.325,-4.866l15.325,8.879l0,5.109l-20.434,-10.217l-5.108,-7.663l-5.109,-7.663Z" style="fill:#395346;"/><clipPath id="_clip9"><path d="M8.663,22.885l35.76,7.663l-5.109,8.758l-15.325,-4.866l15.325,8.879l0,5.109l-20.434,-10.217l-5.108,-7.663l-5.109,-7.663Z"/></clipPath><g clip-path="url(#_clip9)"><path d="M68.66,77.018l-1.96,-9.996l5.98,-11.068l7.576,-3.789l-6.122,-2.047l-2.104,3.042l-0.404,-14.338l13.739,-12.438l-5.109,2.956l-5.108,2.339l-13.167,16.457l2.95,6.583l1.444,4.387l-1.444,7.793l-11.562,8.927l-13.981,3.141l-20.434,-3.324l20.434,-3.044l-10.217,-1.636l0,-6.157l-2.863,2.709l-7.354,-9.236l-3.729,-15.763l17.401,11.377l4.122,4.701l-0.319,-4.949l-2.149,-4.034l-13.6,-6.8l-4.271,-4.699l5.058,-5.125l11.418,1.995l-2.774,-2.781l-6.048,-1.384l-5.109,-3.078l0,1.847l-6.385,0.229l-7.388,-6.523l12.023,-7.762l10.29,6.823l0.045,-3.481l4.17,-1.197l-6.633,-7.177l14.312,-0.985l10.217,3.448l0,2.094l-2.754,7.836l-2.354,22.704l1.723,4.877l1.082,-9.676l2.303,-14.174l13.722,-6.86l-8.613,-4.461l-13.525,-10.013l8.416,-9.317l19.412,4.598l29.873,-0.39l-25.294,11.674l-1.724,6.773l3.276,0.334l0,-5.109l15.325,-5.2l19.256,-12.09l-80.558,-4.781l-32.159,44.306l19.563,50.649l52.085,-9.717" style="fill:#542f7f;fill-opacity:0.7;"/><path d="M46.604,0.988l23.362,4.146l20.434,-2.683l-18.32,6.166l-2.114,2.452l2.952,2.237l-5.594,0.683l-2.467,2.242l-5.109,-3.563l-0.889,5.553l-17.597,-3.367l5.247,17.549l-3.954,9.296l0.944,6.876l6.032,20.287l-2.081,4.068l0.64,5.429l-24.101,-6.943l20.434,3.567l-1.613,-1.807l-23.93,-19.64l24.705,14.651l1.548,-0.258l-26.253,-19.501l25.543,15.028l-5.109,-7.14l-1.407,-6.279l-13.918,-9.272l12.442,3.996l-1.19,-2.552l-13.152,-7.502l1.9,-0.498l13.918,6.968l0.344,-1.119l-13.931,-5.683l14.501,3.589l3.571,-6.401l-33.729,-8.678l32.759,4.055l-2.108,-2.33l-5.108,-1.239l0,-5.23l5.108,-1.514l1.699,1.999l-0.177,1.402l-3.876,-0.071l4.299,3.277l0.669,0.493l-1.11,-3.583l0.151,-1.17l-0.431,-0.907l-1.725,-2.127l-0.595,-2.724l-4.012,-3.102l7.516,1.812l12.133,1.516l0.088,-1.718l-9.52,-6.719l17.295,6.679l0.505,-1.105l3.947,1.145l0.78,-2.657l-20.346,-8.079Z" style="fill:#f6e0f1;fill-opacity:0.4;"/></g><path d="M48.047,78.337l-24.058,-6.921l-5.109,-17.88l0,-5.108l30.651,20.434l-5.108,2.554l3.624,6.921Z" style="fill:#6c7157;"/><clipPath id="_clip10"><path d="M48.047,78.337l-24.058,-6.921l-5.109,-17.88l0,-5.108l30.651,20.434l-5.108,2.554l3.624,6.921Z"/></clipPath><g clip-path="url(#_clip10)"><path d="M46.604,0.988l23.362,4.146l20.434,-2.683l-18.32,6.166l-2.114,2.452l2.952,2.237l-5.594,0.683l-2.467,2.242l-5.109,-3.563l-0.889,5.553l-17.597,-3.367l5.247,17.549l-3.954,9.296l0.944,6.876l6.032,20.287l-2.081,4.068l0.64,5.429l-24.101,-6.943l20.434,3.567l-1.613,-1.807l-23.93,-19.64l24.705,14.651l1.548,-0.258l-26.253,-19.501l25.543,15.028l-5.109,-7.14l-1.407,-6.279l-13.918,-9.272l12.442,3.996l-1.19,-2.552l-13.152,-7.502l1.9,-0.498l13.918,6.968l0.344,-1.119l-13.931,-5.683l14.501,3.589l3.571,-6.401l-33.729,-8.678l32.759,4.055l-2.108,-2.33l-5.108,-1.239l0,-5.23l5.108,-1.514l1.699,1.999l-0.177,1.402l-3.876,-0.071l4.299,3.277l0.669,0.493l-1.11,-3.583l0.151,-1.17l-0.431,-0.907l-1.725,-2.127l-0.595,-2.724l-4.012,-3.102l7.516,1.812l12.133,1.516l0.088,-1.718l-9.52,-6.719l17.295,6.679l0.505,-1.105l3.947,1.145l0.78,-2.657l-20.346,-8.079Z" style="fill:#f6e0f1;fill-opacity:0.4;"/></g><path d="M18.88,38.211l5.109,2.554l-5.109,7.663l30.651,20.434l-10.217,-20.434l-20.434,-10.217Z" style="fill:#395346;"/><clipPath id="_clip11"><path d="M18.88,38.211l5.109,2.554l-5.109,7.663l30.651,20.434l-10.217,-20.434l-20.434,-10.217Z"/></clipPath><g clip-path="url(#_clip11)"><path d="M68.66,77.018l-1.96,-9.996l5.98,-11.068l7.576,-3.789l-6.122,-2.047l-2.104,3.042l-0.404,-14.338l13.739,-12.438l-5.109,2.956l-5.108,2.339l-13.167,16.457l2.95,6.583l1.444,4.387l-1.444,7.793l-11.562,8.927l-13.981,3.141l-20.434,-3.324l20.434,-3.044l-10.217,-1.636l0,-6.157l-2.863,2.709l-7.354,-9.236l-3.729,-15.763l17.401,11.377l4.122,4.701l-0.319,-4.949l-2.149,-4.034l-13.6,-6.8l-4.271,-4.699l5.058,-5.125l11.418,1.995l-2.774,-2.781l-6.048,-1.384l-5.109,-3.078l0,1.847l-6.385,0.229l-7.388,-6.523l12.023,-7.762l10.29,6.823l0.045,-3.481l4.17,-1.197l-6.633,-7.177l14.312,-0.985l10.217,3.448l0,2.094l-2.754,7.836l-2.354,22.704l1.723,4.877l1.082,-9.676l2.303,-14.174l13.722,-6.86l-8.613,-4.461l-13.525,-10.013l8.416,-9.317l19.412,4.598l29.873,-0.39l-25.294,11.674l-1.724,6.773l3.276,0.334l0,-5.109l15.325,-5.2l19.256,-12.09l-80.558,-4.781l-32.159,44.306l19.563,50.649l52.085,-9.717" style="fill:#542f7f;fill-opacity:0.7;"/><path d="M46.604,0.988l23.362,4.146l20.434,-2.683l-18.32,6.166l-2.114,2.452l2.952,2.237l-5.594,0.683l-2.467,2.242l-5.109,-3.563l-0.889,5.553l-17.597,-3.367l5.247,17.549l-3.954,9.296l0.944,6.876l6.032,20.287l-2.081,4.068l0.64,5.429l-24.101,-6.943l20.434,3.567l-1.613,-1.807l-23.93,-19.64l24.705,14.651l1.548,-0.258l-26.253,-19.501l25.543,15.028l-5.109,-7.14l-1.407,-6.279l-13.918,-9.272l12.442,3.996l-1.19,-2.552l-13.152,-7.502l1.9,-0.498l13.918,6.968l0.344,-1.119l-13.931,-5.683l14.501,3.589l3.571,-6.401l-33.729,-8.678l32.759,4.055l-2.108,-2.33l-5.108,-1.239l0,-5.23l5.108,-1.514l1.699,1.999l-0.177,1.402l-3.876,-0.071l4.299,3.277l0.669,0.493l-1.11,-3.583l0.151,-1.17l-0.431,-0.907l-1.725,-2.127l-0.595,-2.724l-4.012,-3.102l7.516,1.812l12.133,1.516l0.088,-1.718l-9.52,-6.719l17.295,6.679l0.505,-1.105l3.947,1.145l0.78,-2.657l-20.346,-8.079Z" style="fill:#f6e0f1;fill-opacity:0.4;"/></g><path d="M18.88,53.536l25.543,17.88l3.205,6.711l-23.639,-6.711l-5.109,-17.88Z" style="fill:#395346;"/><clipPath id="_clip12"><path d="M18.88,53.536l25.543,17.88l3.205,6.711l-23.639,-6.711l-5.109,-17.88Z"/></clipPath><g clip-path="url(#_clip12)"><path d="M68.66,77.018l-1.96,-9.996l5.98,-11.068l7.576,-3.789l-6.122,-2.047l-2.104,3.042l-0.404,-14.338l13.739,-12.438l-5.109,2.956l-5.108,2.339l-13.167,16.457l2.95,6.583l1.444,4.387l-1.444,7.793l-11.562,8.927l-13.981,3.141l-20.434,-3.324l20.434,-3.044l-10.217,-1.636l0,-6.157l-2.863,2.709l-7.354,-9.236l-3.729,-15.763l17.401,11.377l4.122,4.701l-0.319,-4.949l-2.149,-4.034l-13.6,-6.8l-4.271,-4.699l5.058,-5.125l11.418,1.995l-2.774,-2.781l-6.048,-1.384l-5.109,-3.078l0,1.847l-6.385,0.229l-7.388,-6.523l12.023,-7.762l10.29,6.823l0.045,-3.481l4.17,-1.197l-6.633,-7.177l14.312,-0.985l10.217,3.448l0,2.094l-2.754,7.836l-2.354,22.704l1.723,4.877l1.082,-9.676l2.303,-14.174l13.722,-6.86l-8.613,-4.461l-13.525,-10.013l8.416,-9.317l19.412,4.598l29.873,-0.39l-25.294,11.674l-1.724,6.773l3.276,0.334l0,-5.109l15.325,-5.2l19.256,-12.09l-80.558,-4.781l-32.159,44.306l19.563,50.649l52.085,-9.717" style="fill:#542f7f;fill-opacity:0.7;"/><path d="M46.604,0.988l23.362,4.146l20.434,-2.683l-18.32,6.166l-2.114,2.452l2.952,2.237l-5.594,0.683l-2.467,2.242l-5.109,-3.563l-0.889,5.553l-17.597,-3.367l5.247,17.549l-3.954,9.296l0.944,6.876l6.032,20.287l-2.081,4.068l0.64,5.429l-24.101,-6.943l20.434,3.567l-1.613,-1.807l-23.93,-19.64l24.705,14.651l1.548,-0.258l-26.253,-19.501l25.543,15.028l-5.109,-7.14l-1.407,-6.279l-13.918,-9.272l12.442,3.996l-1.19,-2.552l-13.152,-7.502l1.9,-0.498l13.918,6.968l0.344,-1.119l-13.931,-5.683l14.501,3.589l3.571,-6.401l-33.729,-8.678l32.759,4.055l-2.108,-2.33l-5.108,-1.239l0,-5.23l5.108,-1.514l1.699,1.999l-0.177,1.402l-3.876,-0.071l4.299,3.277l0.669,0.493l-1.11,-3.583l0.151,-1.17l-0.431,-0.907l-1.725,-2.127l-0.595,-2.724l-4.012,-3.102l7.516,1.812l12.133,1.516l0.088,-1.718l-9.52,-6.719l17.295,6.679l0.505,-1.105l3.947,1.145l0.78,-2.657l-20.346,-8.079Z" style="fill:#f6e0f1;fill-opacity:0.4;"/></g><path d="M46.551,0.961l-2.128,4.044l20.434,10.218l0,-2.297l5.974,0.175l-3.321,-1.66l2.456,-3.881l-23.415,-6.599Z" style="fill:#6c7157;"/><clipPath id="_clip13"><path d="M46.551,0.961l-2.128,4.044l20.434,10.218l0,-2.297l5.974,0.175l-3.321,-1.66l2.456,-3.881l-23.415,-6.599Z"/></clipPath><g clip-path="url(#_clip13)"><path d="M46.604,0.988l23.362,4.146l20.434,-2.683l-18.32,6.166l-2.114,2.452l2.952,2.237l-5.594,0.683l-2.467,2.242l-5.109,-3.563l-0.889,5.553l-17.597,-3.367l5.247,17.549l-3.954,9.296l0.944,6.876l6.032,20.287l-2.081,4.068l0.64,5.429l-24.101,-6.943l20.434,3.567l-1.613,-1.807l-23.93,-19.64l24.705,14.651l1.548,-0.258l-26.253,-19.501l25.543,15.028l-5.109,-7.14l-1.407,-6.279l-13.918,-9.272l12.442,3.996l-1.19,-2.552l-13.152,-7.502l1.9,-0.498l13.918,6.968l0.344,-1.119l-13.931,-5.683l14.501,3.589l3.571,-6.401l-33.729,-8.678l32.759,4.055l-2.108,-2.33l-5.108,-1.239l0,-5.23l5.108,-1.514l1.699,1.999l-0.177,1.402l-3.876,-0.071l4.299,3.277l0.669,0.493l-1.11,-3.583l0.151,-1.17l-0.431,-0.907l-1.725,-2.127l-0.595,-2.724l-4.012,-3.102l7.516,1.812l12.133,1.516l0.088,-1.718l-9.52,-6.719l17.295,6.679l0.505,-1.105l3.947,1.145l0.78,-2.657l-20.346,-8.079Z" style="fill:#f6e0f1;fill-opacity:0.9;"/></g></g></g></g><g><path d="M70.087,41.899l9.948,12.458l-4.348,-1.275l-12.119,-9.901l6.519,-1.282Z" style="fill:#395346;"/><path d="M61.999,43.539l13.868,-15.94l6.083,-0.139l-10.989,15.699l-8.962,0.38Z" style="fill:#395346;"/><path d="M62.034,21.492l1.65,-1.733l18.273,7.657l-7.559,0.789l-12.364,-6.713Z" style="fill:#395346;"/><path d="M65.227,49.553l-3.645,-2.964l-8.161,10.91l5.189,3.012l6.617,-10.958Z" style="fill:#395346;"/><path d="M48.982,61.419l6.159,-2.81l3.312,1.936l-4.812,2.65l-4.659,-1.776Z" style="fill:none;"/><path d="M71.524,55.096l4.003,1.649l4.534,-2.321l-4.159,-1.166l-4.378,1.838Z" style="fill:none;"/><path d="M62.002,47.02l9.524,8.068l4.57,-1.935l-9.696,-9.809l10.371,-15.392l-14.789,-6.374l-12.277,15.81l7.562,6.49l-8.294,17.514l6.297,-2.837l6.732,-11.535Z" style="fill:#6ee33b;"/><g><path d="M63.886,28.01l6.423,3.896l-4.689,7.107l-6.669,-4.762l4.935,-6.241Z" style="fill:#f6e0f1;"/><path d="M63.904,28.001l-3.552,0.145l-5.29,6.24l4.007,-0.218l4.835,-6.167Z" style="fill:#6c7157;"/><path d="M55.085,34.398l3.881,-0.157l6.577,4.769l-4.525,-0.078l-5.933,-4.534Z" style="fill:#395346;"/></g></g><path d="M86.782,42.366c0,0 2.482,1.153 2.212,3.309c-0.269,2.157 -0.855,2.424 -1.146,8.671c-0.292,6.247 1.599,1.941 1.103,9.665c-0.496,7.725 6.064,5.029 -1.485,12.308c-7.548,7.279 -14.018,11.143 -20.219,7.279c-6.201,-3.864 -8.178,-2.516 -14.288,-0.629c-6.111,1.887 -7.81,1.528 -13.656,1.887c-5.845,0.36 -7.93,-0.772 -16.368,-4.205c-8.438,-3.433 -4.574,-0.917 -10.685,-6.668c-6.111,-5.752 1.342,-7.119 -3.598,-5.582c-4.939,1.538 -11.478,8.727 -5.108,0.549c6.369,-8.178 0.8,-8.902 6.506,-10.067c5.705,-1.166 3.719,-4.115 5.745,-2.236c2.027,1.879 4.472,0.838 4.472,0.838l2.857,11.645l2.857,-3.082c0,0 -0.046,-2.025 2.025,1.196c2.07,3.221 2.672,2.385 4.096,2.665c1.425,0.28 -1.198,1.384 1.425,0.28c2.623,-1.104 1.69,-0.761 3.33,-0.564c1.639,0.196 0.079,-1.737 2.446,0.61c2.368,2.346 2.092,2.991 3.242,2.991c1.15,0 1.38,-0.231 1.38,-0.231l0.487,-1.15l0,-0.89l-7.388,-4.953l0.368,-1.242c0,0 -2.071,-1.105 0.644,0.046c2.715,1.15 2.979,2 4.342,2.058c1.363,0.058 1.547,-0.402 2.606,0.426c1.058,0.828 1.38,1.104 1.38,1.104l2.635,-0.254l0.522,0.261l-1.455,2.294c0,0 0.046,0.368 0.736,0.828c0.691,0.46 -0.68,0.552 0.719,0.598c1.398,0.046 3.343,2.439 5.108,-0.276c1.765,-2.714 1.029,-2.162 2.179,-2.852c1.151,-0.691 -0.322,0.874 1.611,-0.829c1.932,-1.702 1.15,-1.702 2.162,-2.024c1.012,-0.322 1.979,-0.736 1.979,-0.736c0,0 5.153,-1.703 5.015,-4.049c-0.138,-2.347 -1.288,-1.012 -0.138,-2.393c1.15,-1.38 0.388,-2.024 2.518,-2.3c2.129,-0.276 4.659,-0.138 4.659,-0.138l-0.368,2.852c0,0 -1.84,0.737 -2.254,1.197c-0.414,0.46 -1.058,1.196 -1.058,1.196l-2.301,1.426l0.092,1.289l0.23,2.162l0.437,1.474c0,0 1.993,0.533 2.158,-0.517c0.166,-1.049 -0.018,-1.049 0.442,-1.785c0.46,-0.736 0.874,-0.782 1.426,-1.933c0.552,-1.15 1.058,-1.886 1.058,-1.886c0,0 -1.725,0.966 0.587,-0.736c2.312,-1.703 2.588,-0.966 2.588,-2.669c0,-1.702 -0.23,-1.84 0,-2.852c0.23,-1.013 1.131,-1.972 1.131,-1.972l1.39,0.269l0.654,1.242l0.23,2.899l0,2.209l0.598,0.276l1.104,-2.899l0.534,-1.142l1.988,-0.994l1.93,-4.144l-3.992,-3.474l2.062,-2.599l1.502,-3.047" style="fill:#546c45;"/><clipPath id="_clip14"><path d="M86.782,42.366c0,0 2.482,1.153 2.212,3.309c-0.269,2.157 -0.855,2.424 -1.146,8.671c-0.292,6.247 1.599,1.941 1.103,9.665c-0.496,7.725 6.064,5.029 -1.485,12.308c-7.548,7.279 -14.018,11.143 -20.219,7.279c-6.201,-3.864 -8.178,-2.516 -14.288,-0.629c-6.111,1.887 -7.81,1.528 -13.656,1.887c-5.845,0.36 -7.93,-0.772 -16.368,-4.205c-8.438,-3.433 -4.574,-0.917 -10.685,-6.668c-6.111,-5.752 1.342,-7.119 -3.598,-5.582c-4.939,1.538 -11.478,8.727 -5.108,0.549c6.369,-8.178 0.8,-8.902 6.506,-10.067c5.705,-1.166 3.719,-4.115 5.745,-2.236c2.027,1.879 4.472,0.838 4.472,0.838l2.857,11.645l2.857,-3.082c0,0 -0.046,-2.025 2.025,1.196c2.07,3.221 2.672,2.385 4.096,2.665c1.425,0.28 -1.198,1.384 1.425,0.28c2.623,-1.104 1.69,-0.761 3.33,-0.564c1.639,0.196 0.079,-1.737 2.446,0.61c2.368,2.346 2.092,2.991 3.242,2.991c1.15,0 1.38,-0.231 1.38,-0.231l0.487,-1.15l0,-0.89l-7.388,-4.953l0.368,-1.242c0,0 -2.071,-1.105 0.644,0.046c2.715,1.15 2.979,2 4.342,2.058c1.363,0.058 1.547,-0.402 2.606,0.426c1.058,0.828 1.38,1.104 1.38,1.104l2.635,-0.254l0.522,0.261l-1.455,2.294c0,0 0.046,0.368 0.736,0.828c0.691,0.46 -0.68,0.552 0.719,0.598c1.398,0.046 3.343,2.439 5.108,-0.276c1.765,-2.714 1.029,-2.162 2.179,-2.852c1.151,-0.691 -0.322,0.874 1.611,-0.829c1.932,-1.702 1.15,-1.702 2.162,-2.024c1.012,-0.322 1.979,-0.736 1.979,-0.736c0,0 5.153,-1.703 5.015,-4.049c-0.138,-2.347 -1.288,-1.012 -0.138,-2.393c1.15,-1.38 0.388,-2.024 2.518,-2.3c2.129,-0.276 4.659,-0.138 4.659,-0.138l-0.368,2.852c0,0 -1.84,0.737 -2.254,1.197c-0.414,0.46 -1.058,1.196 -1.058,1.196l-2.301,1.426l0.092,1.289l0.23,2.162l0.437,1.474c0,0 1.993,0.533 2.158,-0.517c0.166,-1.049 -0.018,-1.049 0.442,-1.785c0.46,-0.736 0.874,-0.782 1.426,-1.933c0.552,-1.15 1.058,-1.886 1.058,-1.886c0,0 -1.725,0.966 0.587,-0.736c2.312,-1.703 2.588,-0.966 2.588,-2.669c0,-1.702 -0.23,-1.84 0,-2.852c0.23,-1.013 1.131,-1.972 1.131,-1.972l1.39,0.269l0.654,1.242l0.23,2.899l0,2.209l0.598,0.276l1.104,-2.899l0.534,-1.142l1.988,-0.994l1.93,-4.144l-3.992,-3.474l2.062,-2.599l1.502,-3.047"/></clipPath><g clip-path="url(#_clip14)"><path d="M94.683,37.919l0,61.303l-56.194,-5.638l27.944,-41.54l28.25,-14.125Z" style="fill:#c4e783;fill-opacity:0.5;"/><path d="M92.009,47.157l0.117,-3.43l-4.209,-0.761c0,0 -1.796,2.624 -2.129,6.077c-0.073,0.756 1.676,1.717 1.562,2.513c-0.676,4.75 -2.055,9.843 -2.07,11.179c-0.029,2.583 1.714,5.616 0,6.964c-1.714,1.348 0.196,2.921 -2.051,3.595c-2.246,0.674 -3.274,6.594 -3.94,0.657c-0.665,-5.937 -1.254,-5.096 -0.511,-6.246c0.744,-1.151 1.394,-1.937 1.394,-1.937l0,-2.475l0,-1.569c0,0 -2.37,1.277 -3.082,3.11c-0.713,1.832 -2.855,6.535 -2.855,6.535c0,0 0.95,1.05 -2.554,3.004c-3.504,1.954 -5.728,2.245 -5.728,2.245c0,0 0.585,1.751 0,0c-0.584,-1.752 2.38,-9.028 2.38,-9.028c0,0 0.919,-1.277 -1.079,-0.539c-1.998,0.738 -3.269,3.926 -5.441,5.421c-2.173,1.496 -3.858,3.293 -3.858,3.293l-1.818,1.053l-0.024,-5.121c0,0 0.43,0.827 -3.526,3.346c-3.956,2.519 -4.694,2.761 -4.694,2.761c0,0 -0.582,1.837 -1.438,-0.719c-0.857,-2.556 -0.48,-1.803 -0.48,-1.803l0.747,-4.347l-2.31,-1.798l0,8.987l-6.929,1.405l-2.331,-0.057l2.092,-6.992c0,0 -0.074,0.14 -3.049,0.14c-2.975,0 -6.004,0.442 -6.004,0.442l-0.501,1.146c0,0 0.273,-0.465 -1.974,-0.24c-2.247,0.224 2.696,3.37 -2.808,-0.225c-5.505,-3.595 -5.777,2.825 -6.539,-4.092c-0.763,-6.916 -1.364,-6.949 -0.558,-7.888c0.806,-0.938 4.401,-0.152 1.031,-1.163c-3.37,-1.011 -3.081,-1.011 -3.081,-1.011c0,0 -1.616,-3.035 -5.109,-1.405c-3.493,1.63 -1.531,0.515 -3.691,3.263c-2.16,2.748 -1.905,-3.106 -6.526,6.954c-4.621,10.06 -12.467,11.149 -4.275,13.188c8.191,2.039 3.939,3.387 19.601,3.387c15.662,0 74.69,4.828 74.69,4.828l6.278,-14.124l-2.72,-28.523Z" style="fill:#97b366;"/><clipPath id="_clip15"><path d="M92.009,47.157l0.117,-3.43l-4.209,-0.761c0,0 -1.796,2.624 -2.129,6.077c-0.073,0.756 1.676,1.717 1.562,2.513c-0.676,4.75 -2.055,9.843 -2.07,11.179c-0.029,2.583 1.714,5.616 0,6.964c-1.714,1.348 0.196,2.921 -2.051,3.595c-2.246,0.674 -3.274,6.594 -3.94,0.657c-0.665,-5.937 -1.254,-5.096 -0.511,-6.246c0.744,-1.151 1.394,-1.937 1.394,-1.937l0,-2.475l0,-1.569c0,0 -2.37,1.277 -3.082,3.11c-0.713,1.832 -2.855,6.535 -2.855,6.535c0,0 0.95,1.05 -2.554,3.004c-3.504,1.954 -5.728,2.245 -5.728,2.245c0,0 0.585,1.751 0,0c-0.584,-1.752 2.38,-9.028 2.38,-9.028c0,0 0.919,-1.277 -1.079,-0.539c-1.998,0.738 -3.269,3.926 -5.441,5.421c-2.173,1.496 -3.858,3.293 -3.858,3.293l-1.818,1.053l-0.024,-5.121c0,0 0.43,0.827 -3.526,3.346c-3.956,2.519 -4.694,2.761 -4.694,2.761c0,0 -0.582,1.837 -1.438,-0.719c-0.857,-2.556 -0.48,-1.803 -0.48,-1.803l0.747,-4.347l-2.31,-1.798l0,8.987l-6.929,1.405l-2.331,-0.057l2.092,-6.992c0,0 -0.074,0.14 -3.049,0.14c-2.975,0 -6.004,0.442 -6.004,0.442l-0.501,1.146c0,0 0.273,-0.465 -1.974,-0.24c-2.247,0.224 2.696,3.37 -2.808,-0.225c-5.505,-3.595 -5.777,2.825 -6.539,-4.092c-0.763,-6.916 -1.364,-6.949 -0.558,-7.888c0.806,-0.938 4.401,-0.152 1.031,-1.163c-3.37,-1.011 -3.081,-1.011 -3.081,-1.011c0,0 -1.616,-3.035 -5.109,-1.405c-3.493,1.63 -1.531,0.515 -3.691,3.263c-2.16,2.748 -1.905,-3.106 -6.526,6.954c-4.621,10.06 -12.467,11.149 -4.275,13.188c8.191,2.039 3.939,3.387 19.601,3.387c15.662,0 74.69,4.828 74.69,4.828l6.278,-14.124l-2.72,-28.523Z"/></clipPath><g clip-path="url(#_clip15)"><path d="M94.683,37.919l0,61.303l-56.194,-5.638l27.944,-41.54l28.25,-14.125Z" style="fill:#c4e783;fill-opacity:0.5;"/></g><path d="M45.954,62.284l-38.116,19.058l-10.217,-10.217l17.381,-24.016l30.952,15.175Z" style="fill-opacity:0.5;"/></g></g></svg>