<?xml version="1.0" encoding="UTF-8" standalone="no"?><!DOCTYPE svg PUBLIC "-//W3C//DTD SVG 1.1//EN" "http://www.w3.org/Graphics/SVG/1.1/DTD/svg11.dtd"><svg width="100%" height="100%" viewBox="0 0 91 85" version="1.1" xmlns="http://www.w3.org/2000/svg" xmlns:xlink="http://www.w3.org/1999/xlink" xml:space="preserve" xmlns:serif="http://www.serif.com/" style="fill-rule:evenodd;clip-rule:evenodd;stroke-linejoin:round;stroke-miterlimit:1.41421;"><g id="X_Runestone_grass_4"><g id="F_Runestone_runes_4"><g><g><path d="M69.993,1.439l19.823,0.306l-20.434,5.109l-23.436,-6.61l24.047,1.195Z" style="fill:#9da8c9;"/><clipPath id="_clip1"><path d="M69.993,1.439l19.823,0.306l-20.434,5.109l-23.436,-6.61l24.047,1.195Z"/></clipPath><g clip-path="url(#_clip1)"><path d="M46.02,0.281l23.362,4.147l20.434,-2.683l-18.32,6.166l-2.114,2.452l2.952,2.237l-5.594,0.683l-2.467,2.241l-5.108,-3.562l-0.889,5.553l-17.598,-3.367l5.248,17.548l-3.954,9.297l0.943,6.875l6.033,20.288l-2.082,4.068l0.641,5.428l-24.102,-6.942l20.434,3.567l-1.612,-1.807l-23.931,-19.64l24.705,14.651l1.548,-0.258l-26.253,-19.501l25.543,15.028l-5.108,-7.14l-1.408,-6.279l-13.918,-9.272l12.442,3.996l-1.19,-2.552l-13.152,-7.503l1.9,-0.497l13.918,6.968l0.345,-1.119l-13.932,-5.683l14.502,3.589l3.57,-6.401l-33.729,-8.678l32.76,4.055l-2.108,-2.33l-5.109,-1.239l0,-5.23l5.109,-1.514l1.698,1.999l-0.177,1.402l-3.876,-0.071l4.299,3.277l0.669,0.493l-1.11,-3.583l0.151,-1.17l-0.431,-0.907l-1.725,-2.127l-0.595,-2.724l-4.012,-3.102l7.516,1.812l12.133,1.516l0.088,-1.718l-9.52,-6.719l17.295,6.678l0.505,-1.104l3.947,1.145l0.78,-2.657l-20.346,-8.08Z" style="fill:#f6e0f1;fill-opacity:0.9;"/></g><path d="M69.382,68.156l-5.109,-2.554l10.217,-15.326l5.871,4.8l-3.316,6.695l-7.663,6.385Z" style="fill:#6c7157;"/><clipPath id="_clip2"><path d="M69.382,68.156l-5.109,-2.554l10.217,-15.326l5.871,4.8l-3.316,6.695l-7.663,6.385Z"/></clipPath><g clip-path="url(#_clip2)"><path d="M46.02,0.281l23.362,4.147l20.434,-2.683l-18.32,6.166l-2.114,2.452l2.952,2.237l-5.594,0.683l-2.467,2.241l-5.108,-3.562l-0.889,5.553l-17.598,-3.367l5.248,17.548l-3.954,9.297l0.943,6.875l6.033,20.288l-2.082,4.068l0.641,5.428l-24.102,-6.942l20.434,3.567l-1.612,-1.807l-23.931,-19.64l24.705,14.651l1.548,-0.258l-26.253,-19.501l25.543,15.028l-5.108,-7.14l-1.408,-6.279l-13.918,-9.272l12.442,3.996l-1.19,-2.552l-13.152,-7.503l1.9,-0.497l13.918,6.968l0.345,-1.119l-13.932,-5.683l14.502,3.589l3.57,-6.401l-33.729,-8.678l32.76,4.055l-2.108,-2.33l-5.109,-1.239l0,-5.23l5.109,-1.514l1.698,1.999l-0.177,1.402l-3.876,-0.071l4.299,3.277l0.669,0.493l-1.11,-3.583l0.151,-1.17l-0.431,-0.907l-1.725,-2.127l-0.595,-2.724l-4.012,-3.102l7.516,1.812l12.133,1.516l0.088,-1.718l-9.52,-6.719l17.295,6.678l0.505,-1.104l3.947,1.145l0.78,-2.657l-20.346,-8.08Z" style="fill:#f6e0f1;fill-opacity:0.9;"/></g><path d="M84.707,38.118l-7.795,-4.378l-8.181,4.09l10.868,8.417l5.108,-8.129Z" style="fill:#9da8c9;"/><clipPath id="_clip3"><path d="M84.707,38.118l-7.795,-4.378l-8.181,4.09l10.868,8.417l5.108,-8.129Z"/></clipPath><g clip-path="url(#_clip3)"><path d="M46.02,0.281l23.362,4.147l20.434,-2.683l-18.32,6.166l-2.114,2.452l2.952,2.237l-5.594,0.683l-2.467,2.241l-5.108,-3.562l-0.889,5.553l-17.598,-3.367l5.248,17.548l-3.954,9.297l0.943,6.875l6.033,20.288l-2.082,4.068l0.641,5.428l-24.102,-6.942l20.434,3.567l-1.612,-1.807l-23.931,-19.64l24.705,14.651l1.548,-0.258l-26.253,-19.501l25.543,15.028l-5.108,-7.14l-1.408,-6.279l-13.918,-9.272l12.442,3.996l-1.19,-2.552l-13.152,-7.503l1.9,-0.497l13.918,6.968l0.345,-1.119l-13.932,-5.683l14.502,3.589l3.57,-6.401l-33.729,-8.678l32.76,4.055l-2.108,-2.33l-5.109,-1.239l0,-5.23l5.109,-1.514l1.698,1.999l-0.177,1.402l-3.876,-0.071l4.299,3.277l0.669,0.493l-1.11,-3.583l0.151,-1.17l-0.431,-0.907l-1.725,-2.127l-0.595,-2.724l-4.012,-3.102l7.516,1.812l12.133,1.516l0.088,-1.718l-9.52,-6.719l17.295,6.678l0.505,-1.104l3.947,1.145l0.78,-2.657l-20.346,-8.08Z" style="fill:#f6e0f1;fill-opacity:0.9;"/></g><path d="M43.839,4.299l-10.217,5.109l-25.543,12.771l28.07,3.818l6.39,1.254l11.517,-12.735l5.109,-2.554l-15.326,-7.663Z" style="fill:#9da8c9;"/><clipPath id="_clip4"><path d="M43.839,4.299l-10.217,5.109l-25.543,12.771l28.07,3.818l6.39,1.254l11.517,-12.735l5.109,-2.554l-15.326,-7.663Z"/></clipPath><g clip-path="url(#_clip4)"><path d="M46.02,0.281l23.362,4.147l20.434,-2.683l-18.32,6.166l-2.114,2.452l2.952,2.237l-5.594,0.683l-2.467,2.241l-5.108,-3.562l-0.889,5.553l-17.598,-3.367l5.248,17.548l-3.954,9.297l0.943,6.875l6.033,20.288l-2.082,4.068l0.641,5.428l-24.102,-6.942l20.434,3.567l-1.612,-1.807l-23.931,-19.64l24.705,14.651l1.548,-0.258l-26.253,-19.501l25.543,15.028l-5.108,-7.14l-1.408,-6.279l-13.918,-9.272l12.442,3.996l-1.19,-2.552l-13.152,-7.503l1.9,-0.497l13.918,6.968l0.345,-1.119l-13.932,-5.683l14.502,3.589l3.57,-6.401l-33.729,-8.678l32.76,4.055l-2.108,-2.33l-5.109,-1.239l0,-5.23l5.109,-1.514l1.698,1.999l-0.177,1.402l-3.876,-0.071l4.299,3.277l0.669,0.493l-1.11,-3.583l0.151,-1.17l-0.431,-0.907l-1.725,-2.127l-0.595,-2.724l-4.012,-3.102l7.516,1.812l12.133,1.516l0.088,-1.718l-9.52,-6.719l17.295,6.678l0.505,-1.104l3.947,1.145l0.78,-2.657l-20.346,-8.08Z" style="fill:#f6e0f1;fill-opacity:0.9;"/></g><path d="M89.816,1.745l-20.434,5.109l-10.217,5.108l-5.109,2.554l-15.325,-2.554l-8.822,6.915l6.238,7.119l-14.466,7.033l17.05,14.693l5.108,12.771l-5.108,-2.554l5.108,12.771l3.753,6.985l2.172,-2.84l9.401,-1.591l7.325,-3.662l5.18,-7.699l7.929,-6.634l-5.109,7.346l-5.108,5.541l13.112,-6.556l3.926,-10.468l-3.918,-3.41l2.205,-2.554l2.021,-4.099l-2.021,-3.012l-3.514,3.759l-3.025,1.513l-0.412,-3.678l3.174,-4.803l5.941,-2.04l2.945,-5.52l0,-10.217l-4.124,-9.841l4.124,-5.485Z" style="fill:#bac1d8;"/><clipPath id="_clip5"><path d="M89.816,1.745l-20.434,5.109l-10.217,5.108l-5.109,2.554l-15.325,-2.554l-8.822,6.915l6.238,7.119l-14.466,7.033l17.05,14.693l5.108,12.771l-5.108,-2.554l5.108,12.771l3.753,6.985l2.172,-2.84l9.401,-1.591l7.325,-3.662l5.18,-7.699l7.929,-6.634l-5.109,7.346l-5.108,5.541l13.112,-6.556l3.926,-10.468l-3.918,-3.41l2.205,-2.554l2.021,-4.099l-2.021,-3.012l-3.514,3.759l-3.025,1.513l-0.412,-3.678l3.174,-4.803l5.941,-2.04l2.945,-5.52l0,-10.217l-4.124,-9.841l4.124,-5.485Z"/></clipPath><g clip-path="url(#_clip5)"><path d="M46.02,0.281l23.362,4.147l20.434,-2.683l-18.32,6.166l-2.114,2.452l2.952,2.237l-5.594,0.683l-2.467,2.241l-5.108,-3.562l-0.889,5.553l-17.598,-3.367l5.248,17.548l-3.954,9.297l0.943,6.875l6.033,20.288l-2.082,4.068l0.641,5.428l-24.102,-6.942l20.434,3.567l-1.612,-1.807l-23.931,-19.64l24.705,14.651l1.548,-0.258l-26.253,-19.501l25.543,15.028l-5.108,-7.14l-1.408,-6.279l-13.918,-9.272l12.442,3.996l-1.19,-2.552l-13.152,-7.503l1.9,-0.497l13.918,6.968l0.345,-1.119l-13.932,-5.683l14.502,3.589l3.57,-6.401l-33.729,-8.678l32.76,4.055l-2.108,-2.33l-5.109,-1.239l0,-5.23l5.109,-1.514l1.698,1.999l-0.177,1.402l-3.876,-0.071l4.299,3.277l0.669,0.493l-1.11,-3.583l0.151,-1.17l-0.431,-0.907l-1.725,-2.127l-0.595,-2.724l-4.012,-3.102l7.516,1.812l12.133,1.516l0.088,-1.718l-9.52,-6.719l17.295,6.678l0.505,-1.104l3.947,1.145l0.78,-2.657l-20.346,-8.08Z" style="fill:#f6e0f1;fill-opacity:0.9;"/></g><path d="M40.332,17.871l1.208,5.713l-13.027,0.651l1.895,-9.161l6.492,1.081l3.432,1.716Z" style="fill:#9da8c9;"/><clipPath id="_clip6"><path d="M40.332,17.871l1.208,5.713l-13.027,0.651l1.895,-9.161l6.492,1.081l3.432,1.716Z"/></clipPath><g clip-path="url(#_clip6)"><path d="M46.02,0.281l23.362,4.147l20.434,-2.683l-18.32,6.166l-2.114,2.452l2.952,2.237l-5.594,0.683l-2.467,2.241l-5.108,-3.562l-0.889,5.553l-17.598,-3.367l5.248,17.548l-3.954,9.297l0.943,6.875l6.033,20.288l-2.082,4.068l0.641,5.428l-24.102,-6.942l20.434,3.567l-1.612,-1.807l-23.931,-19.64l24.705,14.651l1.548,-0.258l-26.253,-19.501l25.543,15.028l-5.108,-7.14l-1.408,-6.279l-13.918,-9.272l12.442,3.996l-1.19,-2.552l-13.152,-7.503l1.9,-0.497l13.918,6.968l0.345,-1.119l-13.932,-5.683l14.502,3.589l3.57,-6.401l-33.729,-8.678l32.76,4.055l-2.108,-2.33l-5.109,-1.239l0,-5.23l5.109,-1.514l1.698,1.999l-0.177,1.402l-3.876,-0.071l4.299,3.277l0.669,0.493l-1.11,-3.583l0.151,-1.17l-0.431,-0.907l-1.725,-2.127l-0.595,-2.724l-4.012,-3.102l7.516,1.812l12.133,1.516l0.088,-1.718l-9.52,-6.719l17.295,6.678l0.505,-1.104l3.947,1.145l0.78,-2.657l-20.346,-8.08Z" style="fill:#f6e0f1;fill-opacity:0.9;"/></g><path d="M38.731,38.529l0,4.084l-18.262,-6.194l-0.81,-9.813l19.072,11.923Z" style="fill:#6c7157;"/><clipPath id="_clip7"><path d="M38.731,38.529l0,4.084l-18.262,-6.194l-0.81,-9.813l19.072,11.923Z"/></clipPath><g clip-path="url(#_clip7)"><path d="M46.02,0.281l23.362,4.147l20.434,-2.683l-18.32,6.166l-2.114,2.452l2.952,2.237l-5.594,0.683l-2.467,2.241l-5.108,-3.562l-0.889,5.553l-17.598,-3.367l5.248,17.548l-3.954,9.297l0.943,6.875l6.033,20.288l-2.082,4.068l0.641,5.428l-24.102,-6.942l20.434,3.567l-1.612,-1.807l-23.931,-19.64l24.705,14.651l1.548,-0.258l-26.253,-19.501l25.543,15.028l-5.108,-7.14l-1.408,-6.279l-13.918,-9.272l12.442,3.996l-1.19,-2.552l-13.152,-7.503l1.9,-0.497l13.918,6.968l0.345,-1.119l-13.932,-5.683l14.502,3.589l3.57,-6.401l-33.729,-8.678l32.76,4.055l-2.108,-2.33l-5.109,-1.239l0,-5.23l5.109,-1.514l1.698,1.999l-0.177,1.402l-3.876,-0.071l4.299,3.277l0.669,0.493l-1.11,-3.583l0.151,-1.17l-0.431,-0.907l-1.725,-2.127l-0.595,-2.724l-4.012,-3.102l7.516,1.812l12.133,1.516l0.088,-1.718l-9.52,-6.719l17.295,6.678l0.505,-1.104l3.947,1.145l0.78,-2.657l-20.346,-8.08Z" style="fill:#f6e0f1;fill-opacity:0.4;"/></g><path d="M33.622,9.408l5.109,2.554l1.643,5.93l-5.669,0.256l0.752,3.208l6.135,2.254l2.247,6.232l-35.76,-7.663l25.543,-12.771Z" style="fill:#6c7157;"/><clipPath id="_clip8"><path d="M33.622,9.408l5.109,2.554l1.643,5.93l-5.669,0.256l0.752,3.208l6.135,2.254l2.247,6.232l-35.76,-7.663l25.543,-12.771Z"/></clipPath><g clip-path="url(#_clip8)"><path d="M46.02,0.281l23.362,4.147l20.434,-2.683l-18.32,6.166l-2.114,2.452l2.952,2.237l-5.594,0.683l-2.467,2.241l-5.108,-3.562l-0.889,5.553l-17.598,-3.367l5.248,17.548l-3.954,9.297l0.943,6.875l6.033,20.288l-2.082,4.068l0.641,5.428l-24.102,-6.942l20.434,3.567l-1.612,-1.807l-23.931,-19.64l24.705,14.651l1.548,-0.258l-26.253,-19.501l25.543,15.028l-5.108,-7.14l-1.408,-6.279l-13.918,-9.272l12.442,3.996l-1.19,-2.552l-13.152,-7.503l1.9,-0.497l13.918,6.968l0.345,-1.119l-13.932,-5.683l14.502,3.589l3.57,-6.401l-33.729,-8.678l32.76,4.055l-2.108,-2.33l-5.109,-1.239l0,-5.23l5.109,-1.514l1.698,1.999l-0.177,1.402l-3.876,-0.071l4.299,3.277l0.669,0.493l-1.11,-3.583l0.151,-1.17l-0.431,-0.907l-1.725,-2.127l-0.595,-2.724l-4.012,-3.102l7.516,1.812l12.133,1.516l0.088,-1.718l-9.52,-6.719l17.295,6.678l0.505,-1.104l3.947,1.145l0.78,-2.657l-20.346,-8.08Z" style="fill:#f6e0f1;fill-opacity:0.4;"/></g><path d="M8.079,22.179l35.76,7.663l-5.108,8.758l-15.326,-4.866l15.326,8.879l0,5.109l-20.435,-10.217l-5.108,-7.663l-5.109,-7.663Z" style="fill:#395346;"/><clipPath id="_clip9"><path d="M8.079,22.179l35.76,7.663l-5.108,8.758l-15.326,-4.866l15.326,8.879l0,5.109l-20.435,-10.217l-5.108,-7.663l-5.109,-7.663Z"/></clipPath><g clip-path="url(#_clip9)"><path d="M46.02,0.281l23.362,4.147l20.434,-2.683l-18.32,6.166l-2.114,2.452l2.952,2.237l-5.594,0.683l-2.467,2.241l-5.108,-3.562l-0.889,5.553l-17.598,-3.367l5.248,17.548l-3.954,9.297l0.943,6.875l6.033,20.288l-2.082,4.068l0.641,5.428l-24.102,-6.942l20.434,3.567l-1.612,-1.807l-23.931,-19.64l24.705,14.651l1.548,-0.258l-26.253,-19.501l25.543,15.028l-5.108,-7.14l-1.408,-6.279l-13.918,-9.272l12.442,3.996l-1.19,-2.552l-13.152,-7.503l1.9,-0.497l13.918,6.968l0.345,-1.119l-13.932,-5.683l14.502,3.589l3.57,-6.401l-33.729,-8.678l32.76,4.055l-2.108,-2.33l-5.109,-1.239l0,-5.23l5.109,-1.514l1.698,1.999l-0.177,1.402l-3.876,-0.071l4.299,3.277l0.669,0.493l-1.11,-3.583l0.151,-1.17l-0.431,-0.907l-1.725,-2.127l-0.595,-2.724l-4.012,-3.102l7.516,1.812l12.133,1.516l0.088,-1.718l-9.52,-6.719l17.295,6.678l0.505,-1.104l3.947,1.145l0.78,-2.657l-20.346,-8.08Z" style="fill:#f6e0f1;fill-opacity:0.4;"/></g><path d="M47.463,77.631l-24.058,-6.921l-5.109,-17.88l0,-5.108l30.652,20.434l-5.109,2.554l3.624,6.921Z" style="fill:#6c7157;"/><clipPath id="_clip10"><path d="M47.463,77.631l-24.058,-6.921l-5.109,-17.88l0,-5.108l30.652,20.434l-5.109,2.554l3.624,6.921Z"/></clipPath><g clip-path="url(#_clip10)"><path d="M46.02,0.281l23.362,4.147l20.434,-2.683l-18.32,6.166l-2.114,2.452l2.952,2.237l-5.594,0.683l-2.467,2.241l-5.108,-3.562l-0.889,5.553l-17.598,-3.367l5.248,17.548l-3.954,9.297l0.943,6.875l6.033,20.288l-2.082,4.068l0.641,5.428l-24.102,-6.942l20.434,3.567l-1.612,-1.807l-23.931,-19.64l24.705,14.651l1.548,-0.258l-26.253,-19.501l25.543,15.028l-5.108,-7.14l-1.408,-6.279l-13.918,-9.272l12.442,3.996l-1.19,-2.552l-13.152,-7.503l1.9,-0.497l13.918,6.968l0.345,-1.119l-13.932,-5.683l14.502,3.589l3.57,-6.401l-33.729,-8.678l32.76,4.055l-2.108,-2.33l-5.109,-1.239l0,-5.23l5.109,-1.514l1.698,1.999l-0.177,1.402l-3.876,-0.071l4.299,3.277l0.669,0.493l-1.11,-3.583l0.151,-1.17l-0.431,-0.907l-1.725,-2.127l-0.595,-2.724l-4.012,-3.102l7.516,1.812l12.133,1.516l0.088,-1.718l-9.52,-6.719l17.295,6.678l0.505,-1.104l3.947,1.145l0.78,-2.657l-20.346,-8.08Z" style="fill:#f6e0f1;fill-opacity:0.4;"/></g><path d="M18.296,37.505l5.109,2.554l-5.109,7.663l30.652,20.434l-10.217,-20.434l-20.435,-10.217Z" style="fill:#395346;"/><clipPath id="_clip11"><path d="M18.296,37.505l5.109,2.554l-5.109,7.663l30.652,20.434l-10.217,-20.434l-20.435,-10.217Z"/></clipPath><g clip-path="url(#_clip11)"><path d="M46.02,0.281l23.362,4.147l20.434,-2.683l-18.32,6.166l-2.114,2.452l2.952,2.237l-5.594,0.683l-2.467,2.241l-5.108,-3.562l-0.889,5.553l-17.598,-3.367l5.248,17.548l-3.954,9.297l0.943,6.875l6.033,20.288l-2.082,4.068l0.641,5.428l-24.102,-6.942l20.434,3.567l-1.612,-1.807l-23.931,-19.64l24.705,14.651l1.548,-0.258l-26.253,-19.501l25.543,15.028l-5.108,-7.14l-1.408,-6.279l-13.918,-9.272l12.442,3.996l-1.19,-2.552l-13.152,-7.503l1.9,-0.497l13.918,6.968l0.345,-1.119l-13.932,-5.683l14.502,3.589l3.57,-6.401l-33.729,-8.678l32.76,4.055l-2.108,-2.33l-5.109,-1.239l0,-5.23l5.109,-1.514l1.698,1.999l-0.177,1.402l-3.876,-0.071l4.299,3.277l0.669,0.493l-1.11,-3.583l0.151,-1.17l-0.431,-0.907l-1.725,-2.127l-0.595,-2.724l-4.012,-3.102l7.516,1.812l12.133,1.516l0.088,-1.718l-9.52,-6.719l17.295,6.678l0.505,-1.104l3.947,1.145l0.78,-2.657l-20.346,-8.08Z" style="fill:#f6e0f1;fill-opacity:0.4;"/></g><path d="M18.296,52.83l25.543,17.88l3.205,6.711l-23.639,-6.711l-5.109,-17.88Z" style="fill:#395346;"/><clipPath id="_clip12"><path d="M18.296,52.83l25.543,17.88l3.205,6.711l-23.639,-6.711l-5.109,-17.88Z"/></clipPath><g clip-path="url(#_clip12)"><path d="M46.02,0.281l23.362,4.147l20.434,-2.683l-18.32,6.166l-2.114,2.452l2.952,2.237l-5.594,0.683l-2.467,2.241l-5.108,-3.562l-0.889,5.553l-17.598,-3.367l5.248,17.548l-3.954,9.297l0.943,6.875l6.033,20.288l-2.082,4.068l0.641,5.428l-24.102,-6.942l20.434,3.567l-1.612,-1.807l-23.931,-19.64l24.705,14.651l1.548,-0.258l-26.253,-19.501l25.543,15.028l-5.108,-7.14l-1.408,-6.279l-13.918,-9.272l12.442,3.996l-1.19,-2.552l-13.152,-7.503l1.9,-0.497l13.918,6.968l0.345,-1.119l-13.932,-5.683l14.502,3.589l3.57,-6.401l-33.729,-8.678l32.76,4.055l-2.108,-2.33l-5.109,-1.239l0,-5.23l5.109,-1.514l1.698,1.999l-0.177,1.402l-3.876,-0.071l4.299,3.277l0.669,0.493l-1.11,-3.583l0.151,-1.17l-0.431,-0.907l-1.725,-2.127l-0.595,-2.724l-4.012,-3.102l7.516,1.812l12.133,1.516l0.088,-1.718l-9.52,-6.719l17.295,6.678l0.505,-1.104l3.947,1.145l0.78,-2.657l-20.346,-8.08Z" style="fill:#f6e0f1;fill-opacity:0.4;"/></g><path d="M45.967,0.255l-2.128,4.044l20.434,10.217l0,-2.296l5.974,0.175l-3.32,-1.66l2.455,-3.881l-23.415,-6.599Z" style="fill:#6c7157;"/><clipPath id="_clip13"><path d="M45.967,0.255l-2.128,4.044l20.434,10.217l0,-2.296l5.974,0.175l-3.32,-1.66l2.455,-3.881l-23.415,-6.599Z"/></clipPath><g clip-path="url(#_clip13)"><path d="M46.02,0.281l23.362,4.147l20.434,-2.683l-18.32,6.166l-2.114,2.452l2.952,2.237l-5.594,0.683l-2.467,2.241l-5.108,-3.562l-0.889,5.553l-17.598,-3.367l5.248,17.548l-3.954,9.297l0.943,6.875l6.033,20.288l-2.082,4.068l0.641,5.428l-24.102,-6.942l20.434,3.567l-1.612,-1.807l-23.931,-19.64l24.705,14.651l1.548,-0.258l-26.253,-19.501l25.543,15.028l-5.108,-7.14l-1.408,-6.279l-13.918,-9.272l12.442,3.996l-1.19,-2.552l-13.152,-7.503l1.9,-0.497l13.918,6.968l0.345,-1.119l-13.932,-5.683l14.502,3.589l3.57,-6.401l-33.729,-8.678l32.76,4.055l-2.108,-2.33l-5.109,-1.239l0,-5.23l5.109,-1.514l1.698,1.999l-0.177,1.402l-3.876,-0.071l4.299,3.277l0.669,0.493l-1.11,-3.583l0.151,-1.17l-0.431,-0.907l-1.725,-2.127l-0.595,-2.724l-4.012,-3.102l7.516,1.812l12.133,1.516l0.088,-1.718l-9.52,-6.719l17.295,6.678l0.505,-1.104l3.947,1.145l0.78,-2.657l-20.346,-8.08Z" style="fill:#f6e0f1;fill-opacity:0.9;"/></g></g></g></g><g><path d="M69.278,42.342l9.947,12.458l-4.348,-1.274l-12.118,-9.902l6.519,-1.282Z" style="fill:#395346;"/><path d="M61.19,43.983l13.868,-15.941l6.083,-0.138l-10.989,15.699l-8.962,0.38Z" style="fill:#395346;"/><path d="M61.225,21.935l1.65,-1.733l18.273,7.657l-7.559,0.789l-12.364,-6.713Z" style="fill:#395346;"/><path d="M64.418,49.997l-3.645,-2.965l-8.162,10.911l5.189,3.011l6.618,-10.957Z" style="fill:#395346;"/><path d="M48.172,61.862l6.159,-2.81l3.313,1.936l-4.812,2.65l-4.66,-1.776Z" style="fill:none;"/><path d="M70.715,55.54l4.002,1.649l4.535,-2.322l-4.159,-1.166l-4.378,1.839Z" style="fill:none;"/><path d="M61.193,47.464l9.524,8.067l4.57,-1.934l-9.696,-9.81l10.371,-15.392l-14.79,-6.374l-12.276,15.811l7.562,6.49l-8.294,17.514l6.297,-2.838l6.732,-11.534Z" style="fill:#6ee33b;"/><g><path d="M63.077,28.453l6.422,3.896l-4.689,7.107l-6.668,-4.761l4.935,-6.242Z" style="fill:#f6e0f1;"/><path d="M63.095,28.444l-3.553,0.145l-5.289,6.241l4.006,-0.218l4.836,-6.168Z" style="fill:#6c7157;"/><path d="M54.276,34.841l3.881,-0.157l6.576,4.769l-4.525,-0.078l-5.932,-4.534Z" style="fill:#395346;"/></g></g><path d="M86.198,41.66c0,0 2.482,1.152 2.212,3.309c-0.269,2.157 -0.855,2.424 -1.146,8.671c-0.291,6.247 1.599,1.941 1.103,9.665c-0.496,7.725 6.064,5.029 -1.484,12.308c-7.549,7.279 -14.019,11.143 -20.22,7.279c-6.2,-3.864 -8.177,-2.516 -14.288,-0.629c-6.111,1.887 -7.81,1.528 -13.655,1.887c-5.846,0.359 -7.931,-0.772 -16.369,-4.205c-8.438,-3.433 -4.574,-0.917 -10.685,-6.669c-6.111,-5.751 1.342,-7.119 -3.598,-5.581c-4.939,1.537 -11.478,8.727 -5.108,0.549c6.37,-8.178 0.801,-8.902 6.506,-10.067c5.705,-1.166 3.719,-4.115 5.746,-2.236c2.026,1.879 4.471,0.838 4.471,0.838l2.857,11.645l2.857,-3.082c0,0 -0.046,-2.025 2.025,1.196c2.07,3.221 2.672,2.385 4.097,2.665c1.424,0.28 -1.198,1.384 1.424,0.28c2.623,-1.105 1.69,-0.761 3.33,-0.565c1.639,0.197 0.079,-1.736 2.447,0.611c2.367,2.346 2.091,2.99 3.241,2.99c1.15,0 1.381,-0.23 1.381,-0.23l0.486,-1.15l0,-0.89l-7.388,-4.953l0.368,-1.243c0,0 -2.07,-1.104 0.644,0.046c2.715,1.151 2.979,2.001 4.342,2.059c1.364,0.058 1.548,-0.402 2.606,0.426c1.058,0.828 1.38,1.104 1.38,1.104l2.635,-0.254l0.522,0.261l-1.454,2.294c0,0 0.046,0.368 0.736,0.828c0.69,0.46 -0.681,0.552 0.718,0.598c1.398,0.046 3.343,2.439 5.108,-0.276c1.765,-2.715 1.029,-2.162 2.18,-2.853c1.15,-0.69 -0.323,0.875 1.61,-0.828c1.932,-1.702 1.15,-1.702 2.162,-2.024c1.013,-0.322 1.979,-0.736 1.979,-0.736c0,0 5.153,-1.703 5.015,-4.049c-0.138,-2.347 -1.288,-1.013 -0.138,-2.393c1.15,-1.38 0.389,-2.024 2.518,-2.3c2.129,-0.277 4.66,-0.138 4.66,-0.138l-0.368,2.852c0,0 -1.841,0.736 -2.255,1.196c-0.414,0.461 -1.058,1.197 -1.058,1.197l-2.301,1.426l0.092,1.288l0.23,2.163l0.437,1.473c0,0 1.993,0.533 2.158,-0.516c0.166,-1.049 -0.018,-1.049 0.442,-1.785c0.46,-0.737 0.874,-0.783 1.426,-1.933c0.552,-1.15 1.059,-1.886 1.059,-1.886c0,0 -1.726,0.966 0.586,-0.736c2.312,-1.703 2.588,-0.967 2.588,-2.669c0,-1.702 -0.23,-1.84 0,-2.853c0.23,-1.012 1.131,-1.971 1.131,-1.971l1.39,0.269l0.654,1.242l0.23,2.899l0,2.208l0.598,0.276l1.104,-2.898l0.534,-1.142l1.988,-0.994l1.93,-4.144l-3.991,-3.474l2.061,-2.599l1.502,-3.047" style="fill:#546c45;"/><clipPath id="_clip14"><path d="M86.198,41.66c0,0 2.482,1.152 2.212,3.309c-0.269,2.157 -0.855,2.424 -1.146,8.671c-0.291,6.247 1.599,1.941 1.103,9.665c-0.496,7.725 6.064,5.029 -1.484,12.308c-7.549,7.279 -14.019,11.143 -20.22,7.279c-6.2,-3.864 -8.177,-2.516 -14.288,-0.629c-6.111,1.887 -7.81,1.528 -13.655,1.887c-5.846,0.359 -7.931,-0.772 -16.369,-4.205c-8.438,-3.433 -4.574,-0.917 -10.685,-6.669c-6.111,-5.751 1.342,-7.119 -3.598,-5.581c-4.939,1.537 -11.478,8.727 -5.108,0.549c6.37,-8.178 0.801,-8.902 6.506,-10.067c5.705,-1.166 3.719,-4.115 5.746,-2.236c2.026,1.879 4.471,0.838 4.471,0.838l2.857,11.645l2.857,-3.082c0,0 -0.046,-2.025 2.025,1.196c2.07,3.221 2.672,2.385 4.097,2.665c1.424,0.28 -1.198,1.384 1.424,0.28c2.623,-1.105 1.69,-0.761 3.33,-0.565c1.639,0.197 0.079,-1.736 2.447,0.611c2.367,2.346 2.091,2.99 3.241,2.99c1.15,0 1.381,-0.23 1.381,-0.23l0.486,-1.15l0,-0.89l-7.388,-4.953l0.368,-1.243c0,0 -2.07,-1.104 0.644,0.046c2.715,1.151 2.979,2.001 4.342,2.059c1.364,0.058 1.548,-0.402 2.606,0.426c1.058,0.828 1.38,1.104 1.38,1.104l2.635,-0.254l0.522,0.261l-1.454,2.294c0,0 0.046,0.368 0.736,0.828c0.69,0.46 -0.681,0.552 0.718,0.598c1.398,0.046 3.343,2.439 5.108,-0.276c1.765,-2.715 1.029,-2.162 2.18,-2.853c1.15,-0.69 -0.323,0.875 1.61,-0.828c1.932,-1.702 1.15,-1.702 2.162,-2.024c1.013,-0.322 1.979,-0.736 1.979,-0.736c0,0 5.153,-1.703 5.015,-4.049c-0.138,-2.347 -1.288,-1.013 -0.138,-2.393c1.15,-1.38 0.389,-2.024 2.518,-2.3c2.129,-0.277 4.66,-0.138 4.66,-0.138l-0.368,2.852c0,0 -1.841,0.736 -2.255,1.196c-0.414,0.461 -1.058,1.197 -1.058,1.197l-2.301,1.426l0.092,1.288l0.23,2.163l0.437,1.473c0,0 1.993,0.533 2.158,-0.516c0.166,-1.049 -0.018,-1.049 0.442,-1.785c0.46,-0.737 0.874,-0.783 1.426,-1.933c0.552,-1.15 1.059,-1.886 1.059,-1.886c0,0 -1.726,0.966 0.586,-0.736c2.312,-1.703 2.588,-0.967 2.588,-2.669c0,-1.702 -0.23,-1.84 0,-2.853c0.23,-1.012 1.131,-1.971 1.131,-1.971l1.39,0.269l0.654,1.242l0.23,2.899l0,2.208l0.598,0.276l1.104,-2.898l0.534,-1.142l1.988,-0.994l1.93,-4.144l-3.991,-3.474l2.061,-2.599l1.502,-3.047"/></clipPath><g clip-path="url(#_clip14)"><path d="M94.099,37.213l0,61.302l-56.194,-5.637l27.944,-41.54l28.25,-14.125Z" style="fill:#c4e783;fill-opacity:0.5;"/><path d="M91.425,46.451l0.117,-3.43l-4.209,-0.761c0,0 -1.796,2.624 -2.129,6.077c-0.073,0.756 1.676,1.717 1.563,2.513c-0.677,4.75 -2.056,9.842 -2.071,11.178c-0.029,2.584 1.714,5.617 0,6.965c-1.714,1.348 0.196,2.921 -2.051,3.594c-2.246,0.674 -3.274,6.594 -3.94,0.658c-0.665,-5.937 -1.254,-5.096 -0.51,-6.247c0.743,-1.15 1.393,-1.937 1.393,-1.937l0,-2.475l0,-1.569c0,0 -2.37,1.278 -3.082,3.11c-0.713,1.833 -2.854,6.536 -2.854,6.536c0,0 0.95,1.05 -2.555,3.004c-3.504,1.953 -5.727,2.244 -5.727,2.244c0,0 0.584,1.752 0,0c-0.585,-1.751 2.379,-9.027 2.379,-9.027c0,0 0.92,-1.278 -1.078,-0.539c-1.999,0.738 -3.269,3.925 -5.442,5.421c-2.173,1.495 -3.858,3.293 -3.858,3.293l-1.818,1.053l-0.024,-5.121c0,0 0.43,0.826 -3.526,3.346c-3.955,2.519 -4.694,2.761 -4.694,2.761c0,0 -0.582,1.837 -1.438,-0.719c-0.856,-2.556 -0.48,-1.803 -0.48,-1.803l0.747,-4.347l-2.31,-1.798l0,8.987l-6.929,1.404l-2.331,-0.056l2.092,-6.992c0,0 -0.074,0.14 -3.049,0.14c-2.975,0 -6.004,0.442 -6.004,0.442l-0.501,1.146c0,0 0.273,-0.465 -1.974,-0.241c-2.246,0.225 2.696,3.37 -2.808,-0.224c-5.504,-3.595 -5.777,2.825 -6.539,-4.092c-0.763,-6.917 -1.364,-6.949 -0.558,-7.888c0.806,-0.938 4.401,-0.152 1.031,-1.163c-3.37,-1.011 -3.081,-1.011 -3.081,-1.011c0,0 -1.616,-3.035 -5.109,-1.405c-3.492,1.63 -1.531,0.515 -3.691,3.263c-2.16,2.748 -1.904,-3.106 -6.526,6.954c-4.621,10.06 -12.467,11.149 -4.275,13.188c8.191,2.039 3.939,3.387 19.601,3.387c15.662,0 74.691,4.828 74.691,4.828l6.278,-14.124l-2.721,-28.523Z" style="fill:#97b366;"/><clipPath id="_clip15"><path d="M91.425,46.451l0.117,-3.43l-4.209,-0.761c0,0 -1.796,2.624 -2.129,6.077c-0.073,0.756 1.676,1.717 1.563,2.513c-0.677,4.75 -2.056,9.842 -2.071,11.178c-0.029,2.584 1.714,5.617 0,6.965c-1.714,1.348 0.196,2.921 -2.051,3.594c-2.246,0.674 -3.274,6.594 -3.94,0.658c-0.665,-5.937 -1.254,-5.096 -0.51,-6.247c0.743,-1.15 1.393,-1.937 1.393,-1.937l0,-2.475l0,-1.569c0,0 -2.37,1.278 -3.082,3.11c-0.713,1.833 -2.854,6.536 -2.854,6.536c0,0 0.95,1.05 -2.555,3.004c-3.504,1.953 -5.727,2.244 -5.727,2.244c0,0 0.584,1.752 0,0c-0.585,-1.751 2.379,-9.027 2.379,-9.027c0,0 0.92,-1.278 -1.078,-0.539c-1.999,0.738 -3.269,3.925 -5.442,5.421c-2.173,1.495 -3.858,3.293 -3.858,3.293l-1.818,1.053l-0.024,-5.121c0,0 0.43,0.826 -3.526,3.346c-3.955,2.519 -4.694,2.761 -4.694,2.761c0,0 -0.582,1.837 -1.438,-0.719c-0.856,-2.556 -0.48,-1.803 -0.48,-1.803l0.747,-4.347l-2.31,-1.798l0,8.987l-6.929,1.404l-2.331,-0.056l2.092,-6.992c0,0 -0.074,0.14 -3.049,0.14c-2.975,0 -6.004,0.442 -6.004,0.442l-0.501,1.146c0,0 0.273,-0.465 -1.974,-0.241c-2.246,0.225 2.696,3.37 -2.808,-0.224c-5.504,-3.595 -5.777,2.825 -6.539,-4.092c-0.763,-6.917 -1.364,-6.949 -0.558,-7.888c0.806,-0.938 4.401,-0.152 1.031,-1.163c-3.37,-1.011 -3.081,-1.011 -3.081,-1.011c0,0 -1.616,-3.035 -5.109,-1.405c-3.492,1.63 -1.531,0.515 -3.691,3.263c-2.16,2.748 -1.904,-3.106 -6.526,6.954c-4.621,10.06 -12.467,11.149 -4.275,13.188c8.191,2.039 3.939,3.387 19.601,3.387c15.662,0 74.691,4.828 74.691,4.828l6.278,-14.124l-2.721,-28.523Z"/></clipPath><g clip-path="url(#_clip15)"><path d="M94.099,37.213l0,61.302l-56.194,-5.637l27.944,-41.54l28.25,-14.125Z" style="fill:#c4e783;fill-opacity:0.5;"/></g><path d="M45.37,61.577l-38.116,19.059l-10.217,-10.217l17.381,-24.017l30.952,15.175Z" style="fill-opacity:0.5;"/></g></g></svg>