<?xml version="1.0" encoding="UTF-8" standalone="no"?><!DOCTYPE svg PUBLIC "-//W3C//DTD SVG 1.1//EN" "http://www.w3.org/Graphics/SVG/1.1/DTD/svg11.dtd"><svg width="100%" height="100%" viewBox="0 0 71 89" version="1.1" xmlns="http://www.w3.org/2000/svg" xmlns:xlink="http://www.w3.org/1999/xlink" xml:space="preserve" xmlns:serif="http://www.serif.com/" style="fill-rule:evenodd;clip-rule:evenodd;stroke-linejoin:round;stroke-miterlimit:1.41421;"><g id="crystal20"><g><path d="M34.567,0.221l-21.466,21.466l10.733,5.366l10.733,-26.832Z" style="fill:#2d55a4;"/><path d="M45.3,27.053l-21.466,0l10.733,-26.832l10.733,26.832Z" style="fill:#50aaed;"/><path d="M56.033,21.687l-21.466,-21.466l10.733,26.832l10.733,-5.366Z" style="fill:#b3e1f0;"/><path d="M13.101,21.687l5.366,56.349l5.367,2.683l0,-53.666l-10.733,-5.366" style="fill:#17244c;"/><rect x="23.834" y="27.053" width="21.466" height="53.666" style="fill:#2d55a4;"/><path d="M56.033,21.687l-10.733,5.366l0,53.666l5.367,-2.683l5.366,-56.349Z" style="fill:#8ae1f0;"/></g><g><path d="M5.62,38.051l-5.348,17.792l6.949,0.792l-1.601,-18.584Z" style="fill:#2d55a4;"/><path d="M18.269,51.76l-11.048,4.875l-1.601,-18.584l12.649,13.709Z" style="fill:#50aaed;"/><path d="M22.368,46.094l-16.748,-8.043l12.649,13.709l4.099,-5.666Z" style="fill:#b3e1f0;"/><path d="M0.272,55.843l17.723,32.69l3.474,0.396l-14.248,-32.294l-6.949,-0.792" style="fill:#17244c;"/><path d="M18.269,51.76l-11.048,4.875l14.248,32.294l11.048,-4.875l-14.248,-32.294Z" style="fill:#2d55a4;"/><path d="M22.368,46.094l-4.099,5.666l14.248,32.294l2.05,-2.833l-12.199,-35.127Z" style="fill:#8ae1f0;"/></g><g><path d="M67.143,39.727l-16.845,6.294l3.22,5.864l13.625,-12.158Z" style="fill:#2d55a4;"/><path d="M63.426,57.605l-9.908,-5.72l13.625,-12.158l-3.717,17.878Z" style="fill:#50aaed;"/><path d="M70.114,57.462l-2.971,-17.735l-3.717,17.878l6.688,-0.143Z" style="fill:#b3e1f0;"/><path d="M50.298,46.021l-15.731,32.967l1.61,2.932l17.341,-30.035l-3.22,-5.864" style="fill:#17244c;"/><path d="M63.426,57.605l-9.908,-5.72l-17.341,30.035l9.908,5.721l17.341,-30.036Z" style="fill:#2d55a4;"/><path d="M70.114,57.462l-6.688,0.143l-17.341,30.036l3.344,-0.072l20.685,-30.107Z" style="fill:#8ae1f0;"/></g></g></svg>