<?xml version="1.0" encoding="UTF-8" standalone="no"?><!DOCTYPE svg PUBLIC "-//W3C//DTD SVG 1.1//EN" "http://www.w3.org/Graphics/SVG/1.1/DTD/svg11.dtd"><svg width="100%" height="100%" viewBox="0 0 71 92" version="1.1" xmlns="http://www.w3.org/2000/svg" xmlns:xlink="http://www.w3.org/1999/xlink" xml:space="preserve" xmlns:serif="http://www.serif.com/" style="fill-rule:evenodd;clip-rule:evenodd;stroke-linejoin:round;stroke-miterlimit:1.41421;"><g id="crystal14"><path d="M65.182,21.517l5.366,13.417l-10.733,-5.367l-10.733,-10.733l16.1,2.683Z" style="fill:#8ae1f0;"/><path d="M43.715,0.051l-5.366,13.416l5.366,8.05l5.367,-2.683l-5.367,-18.783Z" style="fill:#8ae1f0;"/><path d="M43.715,0.051l-10.733,0l0,16.1l5.367,-2.684l5.366,-13.416Z" style="fill:#b3e1f0;"/><path d="M32.982,0.051l-10.733,5.366l0,5.367l10.733,5.367l0,-16.1" style="fill:#8ae1f0;"/><path d="M22.249,5.417l-10.733,10.734l5.367,8.049l10.733,0l-5.367,-13.416l0,-5.367" style="fill:#50aaed;"/><path d="M27.616,24.2l-5.367,-13.416l10.733,5.367l0,21.466l-5.366,-13.417Z" style="fill:#2d55a4;"/><path d="M11.516,16.151l-10.733,16.099l10.733,5.367l10.733,-5.367l-10.733,-16.099" style="fill:#2d55a4;"/><path d="M43.715,0.051l10.734,5.366l10.733,16.1l-16.1,-2.683l-5.367,-18.783Z" style="fill:#b3e1f0;"/><path d="M49.082,18.834l-5.367,2.683l10.734,16.1l16.099,-2.683l-10.733,-5.367l-10.733,-10.733Z" style="fill:#b3e1f0;"/><path d="M43.715,21.517l0,16.1l5.367,2.683l5.367,-2.683l-10.734,-16.1Z" style="fill:#50aaed;"/><path d="M22.249,32.25l10.733,5.367l-5.366,-13.417l-10.733,0l5.366,8.05Z" style="fill:#50aaed;"/><path d="M0.783,75.183l5.367,2.683l5.366,-40.249l-10.733,-5.367l0,42.933Z" style="fill:#17244c;"/><path d="M22.249,32.25l0,42.933l-16.099,2.683l5.366,-40.249l10.733,-5.367Z" style="fill:#2d55a4;"/><path d="M32.982,37.617l0,42.932l-10.733,-5.366l0,-42.933l10.733,5.367Z" style="fill:#17244c;"/><rect x="32.982" y="37.617" width="10.733" height="42.933" style="fill:#2d55a4;"/><path d="M43.715,37.617l5.367,2.683l5.367,-2.683l5.366,34.883l-16.1,8.049l0,-42.932Z" style="fill:#8ae1f0;"/><path d="M65.182,35.851l0,33.965l-5.367,2.684l-5.366,-34.883l10.733,-1.766Z" style="fill:#50aaed;"/><path d="M70.548,34.934l-5.366,34.882l0,-33.936l5.366,-0.946Z" style="fill:#b3e1f0;"/><path d="M65.182,69.816l-10.733,21.466l-5.367,-2.683l-5.367,-8.05l21.467,-10.733Z" style="fill:#50aaed;"/><path d="M49.082,88.599l-16.1,2.683l0,-10.733l10.733,0l5.367,8.05Z" style="fill:#17244c;"/><path d="M22.249,75.183l10.733,5.366l0,10.733l-26.832,-13.416l16.099,-2.683Z" style="fill:#17244c;"/><path d="M38.349,13.467l5.366,8.05l0,16.1l-10.733,0l0,-21.466l5.367,-2.684Z" style="fill:#8ae1f0;"/></g></svg>