<?xml version="1.0" encoding="UTF-8" standalone="no"?><!DOCTYPE svg PUBLIC "-//W3C//DTD SVG 1.1//EN" "http://www.w3.org/Graphics/SVG/1.1/DTD/svg11.dtd"><svg width="100%" height="100%" viewBox="0 0 66 98" version="1.1" xmlns="http://www.w3.org/2000/svg" xmlns:xlink="http://www.w3.org/1999/xlink" xml:space="preserve" xmlns:serif="http://www.serif.com/" style="fill-rule:evenodd;clip-rule:evenodd;stroke-linejoin:round;stroke-miterlimit:1.41421;"><g id="crystal18"><path d="M59.748,8.614l0,85.865l-10.733,0l-16.1,2.683l5.366,-8.05l10.734,-42.932l0,-32.2l10.733,-5.366" style="fill:#8ae1f0;"/><path d="M38.281,8.614l10.734,5.366l0,32.2l-10.734,42.932l-5.366,8.05l5.366,-88.548Z" style="fill:#50aaed;"/><path d="M37.334,24.24l-9.786,-10.26l-5.366,2.684l-5.367,-2.684l5.367,13.417l10.733,5.366l4.419,-8.523Z" style="fill:#b3e1f0;"/><path d="M32.915,97.162l4.419,-72.922l-4.419,8.523l0,64.399" style="fill:#8ae1f0;"/><path d="M22.182,27.397l10.733,5.366l0,64.399l-5.367,-2.683l-5.366,-67.082Z" style="fill:#50aaed;"/><path d="M16.815,13.98l0,64.399l5.367,13.416l5.366,2.684l-5.366,-67.082l-5.367,-13.417" style="fill:#2d55a4;"/><path d="M43.648,32.763l10.733,0l10.733,5.367l-10.733,5.366l-10.733,-10.733Z" style="fill:#b3e1f0;"/><path d="M65.114,38.13l0,53.665l-10.733,5.367l0,-53.666l10.733,-5.366Z" style="fill:#8ae1f0;"/><path d="M11.449,48.863l5.366,-2.683l10.733,10.733l-5.366,8.05l-10.733,-5.367l0,-10.733Z" style="fill:#b3e1f0;"/><path d="M27.548,94.479l0,-37.566l-5.366,8.05l0,32.199l5.366,-2.683Z" style="fill:#8ae1f0;"/><path d="M11.449,59.596l10.733,5.367l0,32.199l-10.733,0l-10.734,-5.367l10.734,-32.199Z" style="fill:#2d55a4;"/><path d="M11.449,48.863l-10.734,32.199l0,10.733l10.734,-32.199l0,-10.733Z" style="fill:#17244c;"/><path d="M32.915,97.162l16.1,-2.683l-10.734,-85.865l-5.366,88.548Z" style="fill:#17244c;"/><path d="M43.648,32.763l10.733,10.733l0,53.666l-10.733,0l0,-64.399Z" style="fill:#2d55a4;"/><path d="M54.381,0.564l5.367,8.05l-10.733,5.366l-10.734,-5.366l5.367,-8.05l10.733,0" style="fill:#b3e1f0;"/></g></svg>