<?xml version="1.0" encoding="UTF-8" standalone="no"?><!DOCTYPE svg PUBLIC "-//W3C//DTD SVG 1.1//EN" "http://www.w3.org/Graphics/SVG/1.1/DTD/svg11.dtd"><svg width="100%" height="100%" viewBox="0 0 54 84" version="1.1" xmlns="http://www.w3.org/2000/svg" xmlns:xlink="http://www.w3.org/1999/xlink" xml:space="preserve" xmlns:serif="http://www.serif.com/" style="fill-rule:evenodd;clip-rule:evenodd;stroke-linejoin:round;stroke-miterlimit:1.41421;"><g id="crystal10"><path d="M26.979,0.687l16.1,24.15l-10.733,16.1l-10.733,10.733l-5.367,-13.417l-5.366,-2.683l0,-16.1l16.099,-18.783Z" style="fill:#8ae1f0;"/><path d="M53.812,30.204l0,16.099l-5.367,2.684l-5.366,-8.05l0,-16.1l10.733,5.367Z" style="fill:#8ae1f0;"/><path d="M53.812,46.303l-21.466,32.2l5.366,-18.783l10.733,-10.733l5.367,-2.684Z" style="fill:#50aaed;"/><path d="M43.079,40.937l5.366,8.05l-10.733,10.733l0,-16.1l-5.366,-2.683l10.733,-16.1l0,16.1Z" style="fill:#50aaed;"/><path d="M32.346,40.937l5.366,2.683l0,16.1l-10.733,0l-5.366,-8.05l10.733,-10.733Z" style="fill:#2d55a4;"/><path d="M26.979,59.72l0,21.466l5.367,-2.683l5.366,-18.783l-10.733,0" style="fill:#17244c;"/><path d="M10.88,35.57l0,-5.366l-10.734,5.366l0,21.466l10.734,0l10.733,-5.366l-5.367,-13.417l-5.366,-2.683Z" style="fill:#50aaed;"/><path d="M10.88,19.47l-5.367,13.417l5.367,2.683l0,-16.1Z" style="fill:#2d55a4;"/><path d="M26.979,0.687l-10.733,37.566l-5.366,-2.683l0,-16.1l16.099,-18.783Z" style="fill:#50aaed;"/><path d="M21.613,51.67l5.366,8.05l0,10.733l-16.099,-13.417l10.733,-5.366" style="fill:#2d55a4;"/><path d="M0.146,57.036l16.1,24.15l5.367,2.683l5.366,-2.683l0,-10.733l-16.099,-13.417l-10.734,0Z" style="fill:#17244c;"/><path d="M43.079,8.737l10.733,21.467l-10.733,-5.367l-16.1,-24.15l16.1,8.05" style="fill:#b3e1f0;"/></g></svg>