<?xml version="1.0" encoding="UTF-8" standalone="no"?><!DOCTYPE svg PUBLIC "-//W3C//DTD SVG 1.1//EN" "http://www.w3.org/Graphics/SVG/1.1/DTD/svg11.dtd"><svg width="100%" height="100%" viewBox="0 0 82 78" version="1.1" xmlns="http://www.w3.org/2000/svg" xmlns:xlink="http://www.w3.org/1999/xlink" xml:space="preserve" xmlns:serif="http://www.serif.com/" style="fill-rule:evenodd;clip-rule:evenodd;stroke-linejoin:round;stroke-miterlimit:1.41421;"><g id="F_Runestone_runes_4"><g><g><path d="M61.972,1.246l19.823,0.306l-20.434,5.109l-23.436,-6.61l24.047,1.195Z" style="fill:#9da8c9;"/><clipPath id="_clip1"><path d="M61.972,1.246l19.823,0.306l-20.434,5.109l-23.436,-6.61l24.047,1.195Z"/></clipPath><g clip-path="url(#_clip1)"><path d="M37.999,0.088l23.362,4.147l20.434,-2.683l-18.32,6.166l-2.114,2.452l2.952,2.237l-5.594,0.683l-2.467,2.241l-5.108,-3.562l-0.889,5.553l-17.598,-3.367l5.248,17.548l-3.954,9.297l0.943,6.875l6.033,20.288l-2.082,4.068l0.641,5.428l-24.102,-6.942l20.434,3.567l-1.612,-1.807l-23.93,-19.64l24.704,14.651l1.548,-0.258l-26.252,-19.501l25.542,15.028l-5.108,-7.14l-1.407,-6.279l-13.919,-9.272l12.442,3.996l-1.19,-2.552l-13.152,-7.503l1.9,-0.497l13.919,6.968l0.344,-1.119l-13.932,-5.683l14.502,3.589l3.571,-6.401l-33.73,-8.678l32.76,4.055l-2.108,-2.33l-5.109,-1.239l0,-5.23l5.109,-1.514l1.698,1.999l-0.177,1.402l-3.876,-0.071l4.299,3.277l0.669,0.493l-1.109,-3.583l0.15,-1.17l-0.431,-0.907l-1.725,-2.127l-0.595,-2.724l-4.012,-3.102l7.516,1.812l12.133,1.516l0.088,-1.718l-9.52,-6.719l17.295,6.678l0.505,-1.104l3.947,1.145l0.78,-2.657l-20.346,-8.08Z" style="fill:#f6e9f1;fill-opacity:0.9;"/></g><path d="M61.361,67.963l-5.109,-2.554l10.217,-15.326l5.871,4.8l-3.316,6.695l-7.663,6.385Z" style="fill:#577166;"/><clipPath id="_clip2"><path d="M61.361,67.963l-5.109,-2.554l10.217,-15.326l5.871,4.8l-3.316,6.695l-7.663,6.385Z"/></clipPath><g clip-path="url(#_clip2)"><path d="M37.999,0.088l23.362,4.147l20.434,-2.683l-18.32,6.166l-2.114,2.452l2.952,2.237l-5.594,0.683l-2.467,2.241l-5.108,-3.562l-0.889,5.553l-17.598,-3.367l5.248,17.548l-3.954,9.297l0.943,6.875l6.033,20.288l-2.082,4.068l0.641,5.428l-24.102,-6.942l20.434,3.567l-1.612,-1.807l-23.93,-19.64l24.704,14.651l1.548,-0.258l-26.252,-19.501l25.542,15.028l-5.108,-7.14l-1.407,-6.279l-13.919,-9.272l12.442,3.996l-1.19,-2.552l-13.152,-7.503l1.9,-0.497l13.919,6.968l0.344,-1.119l-13.932,-5.683l14.502,3.589l3.571,-6.401l-33.73,-8.678l32.76,4.055l-2.108,-2.33l-5.109,-1.239l0,-5.23l5.109,-1.514l1.698,1.999l-0.177,1.402l-3.876,-0.071l4.299,3.277l0.669,0.493l-1.109,-3.583l0.15,-1.17l-0.431,-0.907l-1.725,-2.127l-0.595,-2.724l-4.012,-3.102l7.516,1.812l12.133,1.516l0.088,-1.718l-9.52,-6.719l17.295,6.678l0.505,-1.104l3.947,1.145l0.78,-2.657l-20.346,-8.08Z" style="fill:#f6e9f1;fill-opacity:0.9;"/></g><path d="M76.686,37.925l-7.795,-4.378l-8.181,4.09l10.868,8.417l5.108,-8.129Z" style="fill:#9da8c9;"/><clipPath id="_clip3"><path d="M76.686,37.925l-7.795,-4.378l-8.181,4.09l10.868,8.417l5.108,-8.129Z"/></clipPath><g clip-path="url(#_clip3)"><path d="M37.999,0.088l23.362,4.147l20.434,-2.683l-18.32,6.166l-2.114,2.452l2.952,2.237l-5.594,0.683l-2.467,2.241l-5.108,-3.562l-0.889,5.553l-17.598,-3.367l5.248,17.548l-3.954,9.297l0.943,6.875l6.033,20.288l-2.082,4.068l0.641,5.428l-24.102,-6.942l20.434,3.567l-1.612,-1.807l-23.93,-19.64l24.704,14.651l1.548,-0.258l-26.252,-19.501l25.542,15.028l-5.108,-7.14l-1.407,-6.279l-13.919,-9.272l12.442,3.996l-1.19,-2.552l-13.152,-7.503l1.9,-0.497l13.919,6.968l0.344,-1.119l-13.932,-5.683l14.502,3.589l3.571,-6.401l-33.73,-8.678l32.76,4.055l-2.108,-2.33l-5.109,-1.239l0,-5.23l5.109,-1.514l1.698,1.999l-0.177,1.402l-3.876,-0.071l4.299,3.277l0.669,0.493l-1.109,-3.583l0.15,-1.17l-0.431,-0.907l-1.725,-2.127l-0.595,-2.724l-4.012,-3.102l7.516,1.812l12.133,1.516l0.088,-1.718l-9.52,-6.719l17.295,6.678l0.505,-1.104l3.947,1.145l0.78,-2.657l-20.346,-8.08Z" style="fill:#f6e9f1;fill-opacity:0.9;"/></g><path d="M35.818,4.106l-10.217,5.109l-25.543,12.771l28.07,3.818l6.39,1.254l11.517,-12.735l5.109,-2.554l-15.326,-7.663Z" style="fill:#9da8c9;"/><clipPath id="_clip4"><path d="M35.818,4.106l-10.217,5.109l-25.543,12.771l28.07,3.818l6.39,1.254l11.517,-12.735l5.109,-2.554l-15.326,-7.663Z"/></clipPath><g clip-path="url(#_clip4)"><path d="M60.055,76.119l-1.96,-9.996l5.98,-11.069l7.577,-3.788l-6.123,-2.047l-2.104,3.042l-0.404,-14.338l13.739,-12.438l-5.108,2.955l-5.109,2.34l-13.167,16.457l2.95,6.583l1.444,4.387l-1.444,7.793l-11.562,8.927l-13.981,3.141l-20.434,-3.325l20.434,-3.043l-10.217,-1.636l0,-6.158l-2.863,2.71l-7.354,-9.236l-3.729,-15.763l17.402,11.377l4.121,4.701l-0.319,-4.949l-2.149,-4.034l-13.599,-6.8l-4.272,-4.699l5.058,-5.125l11.419,1.995l-2.775,-2.781l-6.048,-1.384l-5.109,-3.079l0,1.848l-6.385,0.229l-7.387,-6.523l12.022,-7.762l10.29,6.822l0.046,-3.48l4.17,-1.198l-6.633,-7.176l14.311,-0.985l10.218,3.448l0,2.093l-2.755,7.837l-2.354,22.704l1.723,4.877l1.082,-9.676l2.304,-14.174l13.721,-6.861l-8.613,-4.46l-13.524,-10.013l8.416,-9.317l19.411,4.597l29.873,-0.389l-25.294,11.674l-1.724,6.773l3.276,0.334l0,-5.109l15.326,-5.2l19.255,-12.09l-80.558,-4.781l-32.158,44.306l19.562,50.649l52.085,-9.717" style="fill:#17244c;fill-opacity:0.7;"/><path d="M37.999,0.088l23.362,4.147l20.434,-2.683l-18.32,6.166l-2.114,2.452l2.952,2.237l-5.594,0.683l-2.467,2.241l-5.108,-3.562l-0.889,5.553l-17.598,-3.367l5.248,17.548l-3.954,9.297l0.943,6.875l6.033,20.288l-2.082,4.068l0.641,5.428l-24.102,-6.942l20.434,3.567l-1.612,-1.807l-23.93,-19.64l24.704,14.651l1.548,-0.258l-26.252,-19.501l25.542,15.028l-5.108,-7.14l-1.407,-6.279l-13.919,-9.272l12.442,3.996l-1.19,-2.552l-13.152,-7.503l1.9,-0.497l13.919,6.968l0.344,-1.119l-13.932,-5.683l14.502,3.589l3.571,-6.401l-33.73,-8.678l32.76,4.055l-2.108,-2.33l-5.109,-1.239l0,-5.23l5.109,-1.514l1.698,1.999l-0.177,1.402l-3.876,-0.071l4.299,3.277l0.669,0.493l-1.109,-3.583l0.15,-1.17l-0.431,-0.907l-1.725,-2.127l-0.595,-2.724l-4.012,-3.102l7.516,1.812l12.133,1.516l0.088,-1.718l-9.52,-6.719l17.295,6.678l0.505,-1.104l3.947,1.145l0.78,-2.657l-20.346,-8.08Z" style="fill:#f6e9f1;fill-opacity:0.9;"/></g><path d="M81.795,1.552l-20.434,5.109l-10.217,5.108l-5.109,2.554l-15.325,-2.554l-8.822,6.915l6.238,7.119l-14.466,7.033l17.05,14.693l5.108,12.771l-5.108,-2.554l5.108,12.771l3.753,6.985l2.172,-2.84l9.401,-1.591l7.325,-3.662l5.18,-7.699l7.929,-6.634l-5.109,7.346l-5.108,5.541l13.112,-6.556l3.926,-10.468l-3.918,-3.41l2.205,-2.554l2.021,-4.099l-2.021,-3.012l-3.514,3.759l-3.025,1.513l-0.411,-3.678l3.173,-4.803l5.941,-2.04l2.945,-5.52l0,-10.217l-4.124,-9.841l4.124,-5.485Z" style="fill:#bac1d8;"/><clipPath id="_clip5"><path d="M81.795,1.552l-20.434,5.109l-10.217,5.108l-5.109,2.554l-15.325,-2.554l-8.822,6.915l6.238,7.119l-14.466,7.033l17.05,14.693l5.108,12.771l-5.108,-2.554l5.108,12.771l3.753,6.985l2.172,-2.84l9.401,-1.591l7.325,-3.662l5.18,-7.699l7.929,-6.634l-5.109,7.346l-5.108,5.541l13.112,-6.556l3.926,-10.468l-3.918,-3.41l2.205,-2.554l2.021,-4.099l-2.021,-3.012l-3.514,3.759l-3.025,1.513l-0.411,-3.678l3.173,-4.803l5.941,-2.04l2.945,-5.52l0,-10.217l-4.124,-9.841l4.124,-5.485Z"/></clipPath><g clip-path="url(#_clip5)"><path d="M60.055,76.119l-1.96,-9.996l5.98,-11.069l7.577,-3.788l-6.123,-2.047l-2.104,3.042l-0.404,-14.338l13.739,-12.438l-5.108,2.955l-5.109,2.34l-13.167,16.457l2.95,6.583l1.444,4.387l-1.444,7.793l-11.562,8.927l-13.981,3.141l-20.434,-3.325l20.434,-3.043l-10.217,-1.636l0,-6.158l-2.863,2.71l-7.354,-9.236l-3.729,-15.763l17.402,11.377l4.121,4.701l-0.319,-4.949l-2.149,-4.034l-13.599,-6.8l-4.272,-4.699l5.058,-5.125l11.419,1.995l-2.775,-2.781l-6.048,-1.384l-5.109,-3.079l0,1.848l-6.385,0.229l-7.387,-6.523l12.022,-7.762l10.29,6.822l0.046,-3.48l4.17,-1.198l-6.633,-7.176l14.311,-0.985l10.218,3.448l0,2.093l-2.755,7.837l-2.354,22.704l1.723,4.877l1.082,-9.676l2.304,-14.174l13.721,-6.861l-8.613,-4.46l-13.524,-10.013l8.416,-9.317l19.411,4.597l29.873,-0.389l-25.294,11.674l-1.724,6.773l3.276,0.334l0,-5.109l15.326,-5.2l19.255,-12.09l-80.558,-4.781l-32.158,44.306l19.562,50.649l52.085,-9.717" style="fill:#17244c;fill-opacity:0.7;"/><path d="M37.999,0.088l23.362,4.147l20.434,-2.683l-18.32,6.166l-2.114,2.452l2.952,2.237l-5.594,0.683l-2.467,2.241l-5.108,-3.562l-0.889,5.553l-17.598,-3.367l5.248,17.548l-3.954,9.297l0.943,6.875l6.033,20.288l-2.082,4.068l0.641,5.428l-24.102,-6.942l20.434,3.567l-1.612,-1.807l-23.93,-19.64l24.704,14.651l1.548,-0.258l-26.252,-19.501l25.542,15.028l-5.108,-7.14l-1.407,-6.279l-13.919,-9.272l12.442,3.996l-1.19,-2.552l-13.152,-7.503l1.9,-0.497l13.919,6.968l0.344,-1.119l-13.932,-5.683l14.502,3.589l3.571,-6.401l-33.73,-8.678l32.76,4.055l-2.108,-2.33l-5.109,-1.239l0,-5.23l5.109,-1.514l1.698,1.999l-0.177,1.402l-3.876,-0.071l4.299,3.277l0.669,0.493l-1.109,-3.583l0.15,-1.17l-0.431,-0.907l-1.725,-2.127l-0.595,-2.724l-4.012,-3.102l7.516,1.812l12.133,1.516l0.088,-1.718l-9.52,-6.719l17.295,6.678l0.505,-1.104l3.947,1.145l0.78,-2.657l-20.346,-8.08Z" style="fill:#f6e9f1;fill-opacity:0.9;"/></g><path d="M32.311,17.678l1.208,5.713l-13.026,0.651l1.894,-9.161l6.492,1.081l3.432,1.716Z" style="fill:#9da8c9;"/><clipPath id="_clip6"><path d="M32.311,17.678l1.208,5.713l-13.026,0.651l1.894,-9.161l6.492,1.081l3.432,1.716Z"/></clipPath><g clip-path="url(#_clip6)"><path d="M37.999,0.088l23.362,4.147l20.434,-2.683l-18.32,6.166l-2.114,2.452l2.952,2.237l-5.594,0.683l-2.467,2.241l-5.108,-3.562l-0.889,5.553l-17.598,-3.367l5.248,17.548l-3.954,9.297l0.943,6.875l6.033,20.288l-2.082,4.068l0.641,5.428l-24.102,-6.942l20.434,3.567l-1.612,-1.807l-23.93,-19.64l24.704,14.651l1.548,-0.258l-26.252,-19.501l25.542,15.028l-5.108,-7.14l-1.407,-6.279l-13.919,-9.272l12.442,3.996l-1.19,-2.552l-13.152,-7.503l1.9,-0.497l13.919,6.968l0.344,-1.119l-13.932,-5.683l14.502,3.589l3.571,-6.401l-33.73,-8.678l32.76,4.055l-2.108,-2.33l-5.109,-1.239l0,-5.23l5.109,-1.514l1.698,1.999l-0.177,1.402l-3.876,-0.071l4.299,3.277l0.669,0.493l-1.109,-3.583l0.15,-1.17l-0.431,-0.907l-1.725,-2.127l-0.595,-2.724l-4.012,-3.102l7.516,1.812l12.133,1.516l0.088,-1.718l-9.52,-6.719l17.295,6.678l0.505,-1.104l3.947,1.145l0.78,-2.657l-20.346,-8.08Z" style="fill:#f6e9f1;fill-opacity:0.9;"/></g><path d="M30.71,38.336l0,4.084l-18.262,-6.194l-0.81,-9.813l19.072,11.923Z" style="fill:#577166;"/><clipPath id="_clip7"><path d="M30.71,38.336l0,4.084l-18.262,-6.194l-0.81,-9.813l19.072,11.923Z"/></clipPath><g clip-path="url(#_clip7)"><path d="M37.999,0.088l23.362,4.147l20.434,-2.683l-18.32,6.166l-2.114,2.452l2.952,2.237l-5.594,0.683l-2.467,2.241l-5.108,-3.562l-0.889,5.553l-17.598,-3.367l5.248,17.548l-3.954,9.297l0.943,6.875l6.033,20.288l-2.082,4.068l0.641,5.428l-24.102,-6.942l20.434,3.567l-1.612,-1.807l-23.93,-19.64l24.704,14.651l1.548,-0.258l-26.252,-19.501l25.542,15.028l-5.108,-7.14l-1.407,-6.279l-13.919,-9.272l12.442,3.996l-1.19,-2.552l-13.152,-7.503l1.9,-0.497l13.919,6.968l0.344,-1.119l-13.932,-5.683l14.502,3.589l3.571,-6.401l-33.73,-8.678l32.76,4.055l-2.108,-2.33l-5.109,-1.239l0,-5.23l5.109,-1.514l1.698,1.999l-0.177,1.402l-3.876,-0.071l4.299,3.277l0.669,0.493l-1.109,-3.583l0.15,-1.17l-0.431,-0.907l-1.725,-2.127l-0.595,-2.724l-4.012,-3.102l7.516,1.812l12.133,1.516l0.088,-1.718l-9.52,-6.719l17.295,6.678l0.505,-1.104l3.947,1.145l0.78,-2.657l-20.346,-8.08Z" style="fill:#f6e9f1;fill-opacity:0.4;"/></g><path d="M25.601,9.215l5.109,2.554l1.643,5.93l-5.669,0.256l0.752,3.208l6.135,2.254l2.247,6.232l-35.76,-7.663l25.543,-12.771Z" style="fill:#577166;"/><clipPath id="_clip8"><path d="M25.601,9.215l5.109,2.554l1.643,5.93l-5.669,0.256l0.752,3.208l6.135,2.254l2.247,6.232l-35.76,-7.663l25.543,-12.771Z"/></clipPath><g clip-path="url(#_clip8)"><path d="M60.055,76.119l-1.96,-9.996l5.98,-11.069l7.577,-3.788l-6.123,-2.047l-2.104,3.042l-0.404,-14.338l13.739,-12.438l-5.108,2.955l-5.109,2.34l-13.167,16.457l2.95,6.583l1.444,4.387l-1.444,7.793l-11.562,8.927l-13.981,3.141l-20.434,-3.325l20.434,-3.043l-10.217,-1.636l0,-6.158l-2.863,2.71l-7.354,-9.236l-3.729,-15.763l17.402,11.377l4.121,4.701l-0.319,-4.949l-2.149,-4.034l-13.599,-6.8l-4.272,-4.699l5.058,-5.125l11.419,1.995l-2.775,-2.781l-6.048,-1.384l-5.109,-3.079l0,1.848l-6.385,0.229l-7.387,-6.523l12.022,-7.762l10.29,6.822l0.046,-3.48l4.17,-1.198l-6.633,-7.176l14.311,-0.985l10.218,3.448l0,2.093l-2.755,7.837l-2.354,22.704l1.723,4.877l1.082,-9.676l2.304,-14.174l13.721,-6.861l-8.613,-4.46l-13.524,-10.013l8.416,-9.317l19.411,4.597l29.873,-0.389l-25.294,11.674l-1.724,6.773l3.276,0.334l0,-5.109l15.326,-5.2l19.255,-12.09l-80.558,-4.781l-32.158,44.306l19.562,50.649l52.085,-9.717" style="fill:#17244c;fill-opacity:0.7;"/><path d="M37.999,0.088l23.362,4.147l20.434,-2.683l-18.32,6.166l-2.114,2.452l2.952,2.237l-5.594,0.683l-2.467,2.241l-5.108,-3.562l-0.889,5.553l-17.598,-3.367l5.248,17.548l-3.954,9.297l0.943,6.875l6.033,20.288l-2.082,4.068l0.641,5.428l-24.102,-6.942l20.434,3.567l-1.612,-1.807l-23.93,-19.64l24.704,14.651l1.548,-0.258l-26.252,-19.501l25.542,15.028l-5.108,-7.14l-1.407,-6.279l-13.919,-9.272l12.442,3.996l-1.19,-2.552l-13.152,-7.503l1.9,-0.497l13.919,6.968l0.344,-1.119l-13.932,-5.683l14.502,3.589l3.571,-6.401l-33.73,-8.678l32.76,4.055l-2.108,-2.33l-5.109,-1.239l0,-5.23l5.109,-1.514l1.698,1.999l-0.177,1.402l-3.876,-0.071l4.299,3.277l0.669,0.493l-1.109,-3.583l0.15,-1.17l-0.431,-0.907l-1.725,-2.127l-0.595,-2.724l-4.012,-3.102l7.516,1.812l12.133,1.516l0.088,-1.718l-9.52,-6.719l17.295,6.678l0.505,-1.104l3.947,1.145l0.78,-2.657l-20.346,-8.08Z" style="fill:#f6e9f1;fill-opacity:0.4;"/></g><path d="M0.058,21.986l35.76,7.663l-5.108,8.758l-15.326,-4.866l15.326,8.879l0,5.109l-20.434,-10.217l-5.109,-7.663l-5.109,-7.663Z" style="fill:#394153;"/><clipPath id="_clip9"><path d="M0.058,21.986l35.76,7.663l-5.108,8.758l-15.326,-4.866l15.326,8.879l0,5.109l-20.434,-10.217l-5.109,-7.663l-5.109,-7.663Z"/></clipPath><g clip-path="url(#_clip9)"><path d="M60.055,76.119l-1.96,-9.996l5.98,-11.069l7.577,-3.788l-6.123,-2.047l-2.104,3.042l-0.404,-14.338l13.739,-12.438l-5.108,2.955l-5.109,2.34l-13.167,16.457l2.95,6.583l1.444,4.387l-1.444,7.793l-11.562,8.927l-13.981,3.141l-20.434,-3.325l20.434,-3.043l-10.217,-1.636l0,-6.158l-2.863,2.71l-7.354,-9.236l-3.729,-15.763l17.402,11.377l4.121,4.701l-0.319,-4.949l-2.149,-4.034l-13.599,-6.8l-4.272,-4.699l5.058,-5.125l11.419,1.995l-2.775,-2.781l-6.048,-1.384l-5.109,-3.079l0,1.848l-6.385,0.229l-7.387,-6.523l12.022,-7.762l10.29,6.822l0.046,-3.48l4.17,-1.198l-6.633,-7.176l14.311,-0.985l10.218,3.448l0,2.093l-2.755,7.837l-2.354,22.704l1.723,4.877l1.082,-9.676l2.304,-14.174l13.721,-6.861l-8.613,-4.46l-13.524,-10.013l8.416,-9.317l19.411,4.597l29.873,-0.389l-25.294,11.674l-1.724,6.773l3.276,0.334l0,-5.109l15.326,-5.2l19.255,-12.09l-80.558,-4.781l-32.158,44.306l19.562,50.649l52.085,-9.717" style="fill:#17244c;fill-opacity:0.7;"/><path d="M37.999,0.088l23.362,4.147l20.434,-2.683l-18.32,6.166l-2.114,2.452l2.952,2.237l-5.594,0.683l-2.467,2.241l-5.108,-3.562l-0.889,5.553l-17.598,-3.367l5.248,17.548l-3.954,9.297l0.943,6.875l6.033,20.288l-2.082,4.068l0.641,5.428l-24.102,-6.942l20.434,3.567l-1.612,-1.807l-23.93,-19.64l24.704,14.651l1.548,-0.258l-26.252,-19.501l25.542,15.028l-5.108,-7.14l-1.407,-6.279l-13.919,-9.272l12.442,3.996l-1.19,-2.552l-13.152,-7.503l1.9,-0.497l13.919,6.968l0.344,-1.119l-13.932,-5.683l14.502,3.589l3.571,-6.401l-33.73,-8.678l32.76,4.055l-2.108,-2.33l-5.109,-1.239l0,-5.23l5.109,-1.514l1.698,1.999l-0.177,1.402l-3.876,-0.071l4.299,3.277l0.669,0.493l-1.109,-3.583l0.15,-1.17l-0.431,-0.907l-1.725,-2.127l-0.595,-2.724l-4.012,-3.102l7.516,1.812l12.133,1.516l0.088,-1.718l-9.52,-6.719l17.295,6.678l0.505,-1.104l3.947,1.145l0.78,-2.657l-20.346,-8.08Z" style="fill:#f6e9f1;fill-opacity:0.4;"/></g><path d="M39.442,77.438l-24.058,-6.921l-5.108,-17.88l0,-5.108l30.651,20.434l-5.109,2.554l3.624,6.921Z" style="fill:#577166;"/><clipPath id="_clip10"><path d="M39.442,77.438l-24.058,-6.921l-5.108,-17.88l0,-5.108l30.651,20.434l-5.109,2.554l3.624,6.921Z"/></clipPath><g clip-path="url(#_clip10)"><path d="M37.999,0.088l23.362,4.147l20.434,-2.683l-18.32,6.166l-2.114,2.452l2.952,2.237l-5.594,0.683l-2.467,2.241l-5.108,-3.562l-0.889,5.553l-17.598,-3.367l5.248,17.548l-3.954,9.297l0.943,6.875l6.033,20.288l-2.082,4.068l0.641,5.428l-24.102,-6.942l20.434,3.567l-1.612,-1.807l-23.93,-19.64l24.704,14.651l1.548,-0.258l-26.252,-19.501l25.542,15.028l-5.108,-7.14l-1.407,-6.279l-13.919,-9.272l12.442,3.996l-1.19,-2.552l-13.152,-7.503l1.9,-0.497l13.919,6.968l0.344,-1.119l-13.932,-5.683l14.502,3.589l3.571,-6.401l-33.73,-8.678l32.76,4.055l-2.108,-2.33l-5.109,-1.239l0,-5.23l5.109,-1.514l1.698,1.999l-0.177,1.402l-3.876,-0.071l4.299,3.277l0.669,0.493l-1.109,-3.583l0.15,-1.17l-0.431,-0.907l-1.725,-2.127l-0.595,-2.724l-4.012,-3.102l7.516,1.812l12.133,1.516l0.088,-1.718l-9.52,-6.719l17.295,6.678l0.505,-1.104l3.947,1.145l0.78,-2.657l-20.346,-8.08Z" style="fill:#f6e9f1;fill-opacity:0.4;"/></g><path d="M10.276,37.312l5.108,2.554l-5.108,7.663l30.651,20.434l-10.217,-20.434l-20.434,-10.217Z" style="fill:#394153;"/><clipPath id="_clip11"><path d="M10.276,37.312l5.108,2.554l-5.108,7.663l30.651,20.434l-10.217,-20.434l-20.434,-10.217Z"/></clipPath><g clip-path="url(#_clip11)"><path d="M60.055,76.119l-1.96,-9.996l5.98,-11.069l7.577,-3.788l-6.123,-2.047l-2.104,3.042l-0.404,-14.338l13.739,-12.438l-5.108,2.955l-5.109,2.34l-13.167,16.457l2.95,6.583l1.444,4.387l-1.444,7.793l-11.562,8.927l-13.981,3.141l-20.434,-3.325l20.434,-3.043l-10.217,-1.636l0,-6.158l-2.863,2.71l-7.354,-9.236l-3.729,-15.763l17.402,11.377l4.121,4.701l-0.319,-4.949l-2.149,-4.034l-13.599,-6.8l-4.272,-4.699l5.058,-5.125l11.419,1.995l-2.775,-2.781l-6.048,-1.384l-5.109,-3.079l0,1.848l-6.385,0.229l-7.387,-6.523l12.022,-7.762l10.29,6.822l0.046,-3.48l4.17,-1.198l-6.633,-7.176l14.311,-0.985l10.218,3.448l0,2.093l-2.755,7.837l-2.354,22.704l1.723,4.877l1.082,-9.676l2.304,-14.174l13.721,-6.861l-8.613,-4.46l-13.524,-10.013l8.416,-9.317l19.411,4.597l29.873,-0.389l-25.294,11.674l-1.724,6.773l3.276,0.334l0,-5.109l15.326,-5.2l19.255,-12.09l-80.558,-4.781l-32.158,44.306l19.562,50.649l52.085,-9.717" style="fill:#17244c;fill-opacity:0.7;"/><path d="M37.999,0.088l23.362,4.147l20.434,-2.683l-18.32,6.166l-2.114,2.452l2.952,2.237l-5.594,0.683l-2.467,2.241l-5.108,-3.562l-0.889,5.553l-17.598,-3.367l5.248,17.548l-3.954,9.297l0.943,6.875l6.033,20.288l-2.082,4.068l0.641,5.428l-24.102,-6.942l20.434,3.567l-1.612,-1.807l-23.93,-19.64l24.704,14.651l1.548,-0.258l-26.252,-19.501l25.542,15.028l-5.108,-7.14l-1.407,-6.279l-13.919,-9.272l12.442,3.996l-1.19,-2.552l-13.152,-7.503l1.9,-0.497l13.919,6.968l0.344,-1.119l-13.932,-5.683l14.502,3.589l3.571,-6.401l-33.73,-8.678l32.76,4.055l-2.108,-2.33l-5.109,-1.239l0,-5.23l5.109,-1.514l1.698,1.999l-0.177,1.402l-3.876,-0.071l4.299,3.277l0.669,0.493l-1.109,-3.583l0.15,-1.17l-0.431,-0.907l-1.725,-2.127l-0.595,-2.724l-4.012,-3.102l7.516,1.812l12.133,1.516l0.088,-1.718l-9.52,-6.719l17.295,6.678l0.505,-1.104l3.947,1.145l0.78,-2.657l-20.346,-8.08Z" style="fill:#f6e9f1;fill-opacity:0.4;"/></g><path d="M10.276,52.637l25.542,17.88l3.205,6.711l-23.639,-6.711l-5.108,-17.88Z" style="fill:#394153;"/><clipPath id="_clip12"><path d="M10.276,52.637l25.542,17.88l3.205,6.711l-23.639,-6.711l-5.108,-17.88Z"/></clipPath><g clip-path="url(#_clip12)"><path d="M60.055,76.119l-1.96,-9.996l5.98,-11.069l7.577,-3.788l-6.123,-2.047l-2.104,3.042l-0.404,-14.338l13.739,-12.438l-5.108,2.955l-5.109,2.34l-13.167,16.457l2.95,6.583l1.444,4.387l-1.444,7.793l-11.562,8.927l-13.981,3.141l-20.434,-3.325l20.434,-3.043l-10.217,-1.636l0,-6.158l-2.863,2.71l-7.354,-9.236l-3.729,-15.763l17.402,11.377l4.121,4.701l-0.319,-4.949l-2.149,-4.034l-13.599,-6.8l-4.272,-4.699l5.058,-5.125l11.419,1.995l-2.775,-2.781l-6.048,-1.384l-5.109,-3.079l0,1.848l-6.385,0.229l-7.387,-6.523l12.022,-7.762l10.29,6.822l0.046,-3.48l4.17,-1.198l-6.633,-7.176l14.311,-0.985l10.218,3.448l0,2.093l-2.755,7.837l-2.354,22.704l1.723,4.877l1.082,-9.676l2.304,-14.174l13.721,-6.861l-8.613,-4.46l-13.524,-10.013l8.416,-9.317l19.411,4.597l29.873,-0.389l-25.294,11.674l-1.724,6.773l3.276,0.334l0,-5.109l15.326,-5.2l19.255,-12.09l-80.558,-4.781l-32.158,44.306l19.562,50.649l52.085,-9.717" style="fill:#17244c;fill-opacity:0.7;"/><path d="M37.999,0.088l23.362,4.147l20.434,-2.683l-18.32,6.166l-2.114,2.452l2.952,2.237l-5.594,0.683l-2.467,2.241l-5.108,-3.562l-0.889,5.553l-17.598,-3.367l5.248,17.548l-3.954,9.297l0.943,6.875l6.033,20.288l-2.082,4.068l0.641,5.428l-24.102,-6.942l20.434,3.567l-1.612,-1.807l-23.93,-19.64l24.704,14.651l1.548,-0.258l-26.252,-19.501l25.542,15.028l-5.108,-7.14l-1.407,-6.279l-13.919,-9.272l12.442,3.996l-1.19,-2.552l-13.152,-7.503l1.9,-0.497l13.919,6.968l0.344,-1.119l-13.932,-5.683l14.502,3.589l3.571,-6.401l-33.73,-8.678l32.76,4.055l-2.108,-2.33l-5.109,-1.239l0,-5.23l5.109,-1.514l1.698,1.999l-0.177,1.402l-3.876,-0.071l4.299,3.277l0.669,0.493l-1.109,-3.583l0.15,-1.17l-0.431,-0.907l-1.725,-2.127l-0.595,-2.724l-4.012,-3.102l7.516,1.812l12.133,1.516l0.088,-1.718l-9.52,-6.719l17.295,6.678l0.505,-1.104l3.947,1.145l0.78,-2.657l-20.346,-8.08Z" style="fill:#f6e9f1;fill-opacity:0.4;"/></g><path d="M37.947,0.062l-2.129,4.044l20.434,10.217l0,-2.296l5.974,0.175l-3.32,-1.66l2.455,-3.881l-23.414,-6.599Z" style="fill:#577166;"/><clipPath id="_clip13"><path d="M37.947,0.062l-2.129,4.044l20.434,10.217l0,-2.296l5.974,0.175l-3.32,-1.66l2.455,-3.881l-23.414,-6.599Z"/></clipPath><g clip-path="url(#_clip13)"><path d="M37.999,0.088l23.362,4.147l20.434,-2.683l-18.32,6.166l-2.114,2.452l2.952,2.237l-5.594,0.683l-2.467,2.241l-5.108,-3.562l-0.889,5.553l-17.598,-3.367l5.248,17.548l-3.954,9.297l0.943,6.875l6.033,20.288l-2.082,4.068l0.641,5.428l-24.102,-6.942l20.434,3.567l-1.612,-1.807l-23.93,-19.64l24.704,14.651l1.548,-0.258l-26.252,-19.501l25.542,15.028l-5.108,-7.14l-1.407,-6.279l-13.919,-9.272l12.442,3.996l-1.19,-2.552l-13.152,-7.503l1.9,-0.497l13.919,6.968l0.344,-1.119l-13.932,-5.683l14.502,3.589l3.571,-6.401l-33.73,-8.678l32.76,4.055l-2.108,-2.33l-5.109,-1.239l0,-5.23l5.109,-1.514l1.698,1.999l-0.177,1.402l-3.876,-0.071l4.299,3.277l0.669,0.493l-1.109,-3.583l0.15,-1.17l-0.431,-0.907l-1.725,-2.127l-0.595,-2.724l-4.012,-3.102l7.516,1.812l12.133,1.516l0.088,-1.718l-9.52,-6.719l17.295,6.678l0.505,-1.104l3.947,1.145l0.78,-2.657l-20.346,-8.08Z" style="fill:#f6e9f1;fill-opacity:0.9;"/></g><g><g><path d="M40.927,29.608l0,36.821l4.605,-2.31l0.503,-11.192l30.651,-41.23l-6.337,3.076l-25.143,30.616l0.326,-8.885l13.818,-16.134l-6.673,3.346l-7.145,8.513l0,-4.931l-4.605,2.31Z" style="fill:#6a7894;"/><path d="M40.927,66.429l4.605,0.759l4.606,-2.31l-4.606,-0.759l-4.605,2.31Z" style="fill:#f6e9f1;"/><path d="M50.138,64.878l0.223,-13.993l-4.829,-0.018l0,13.252l4.606,0.759Z" style="fill:#577166;"/><path d="M45.532,50.745l31.154,-39.021l0,4.76l-26.548,34.375l-4.606,-0.114Z" style="fill:#577166;"/><path d="M50.147,34.87l9.16,-10.723l0.214,-3.853l-13.989,16.21l4.615,-1.634Z" style="fill:#577166;"/><path d="M45.585,27.267l-0.056,4.973l4.05,-4.801l0.013,-2.182l-4.007,2.01Z" style="fill:#394153;"/><path d="M45.533,36.546l4.562,-1.591l-0.258,4.834l-4.616,5.592l0.312,-8.835Z" style="fill:#577166;"/></g></g></g></g></g></svg>