<?xml version="1.0" encoding="UTF-8" standalone="no"?><!DOCTYPE svg PUBLIC "-//W3C//DTD SVG 1.1//EN" "http://www.w3.org/Graphics/SVG/1.1/DTD/svg11.dtd"><svg width="100%" height="100%" viewBox="0 0 85 96" version="1.1" xmlns="http://www.w3.org/2000/svg" xmlns:xlink="http://www.w3.org/1999/xlink" xml:space="preserve" xmlns:serif="http://www.serif.com/" style="fill-rule:evenodd;clip-rule:evenodd;stroke-linejoin:round;stroke-miterlimit:1.41421;"><g id="N_Runestone_mossy_2"><g id="F_Runestone_grass_runes_2"><g id="F_Runestone_runes_2"><g><g><path d="M61.631,2.561l20.434,5.108l-20.434,5.109l-20.434,-10.217l20.434,0Z" style="fill:#9da8c9;"/><clipPath id="_clip1"><path d="M61.631,2.561l20.434,5.108l-20.434,5.109l-20.434,-10.217l20.434,0Z"/></clipPath><g clip-path="url(#_clip1)"><path d="M82.065,7.669l-18.481,6.9l-1.279,3.654l-0.674,5.443l-9.595,1.806l0.58,-4.774l-16.527,14.129l-5.109,1.548l2.54,16.645l4.645,15.226l-5.302,-0.216l1.044,11.184l2.182,7.637l-6.118,-5.766l-19.425,-12.114l18.167,6.242l-0.629,-9.902l-17.538,-10.033l0,-1.632l7.619,2.277l13.806,5.033l-4.451,-7.484l-4.129,-1.871l2.481,-0.509l-15.326,-7.663l15.326,4.688l-1.191,-14.839l-14.135,-15.392l20.434,12.102l12.281,-9.613l4.129,-2.322l-16.41,-10.384l26.546,13.273l-1.003,-5.61l0.609,-2.118l-15.935,-10.653l20.434,7.814l7.308,-2.387l13.126,-0.319Z" style="fill:#f6e9f1;fill-opacity:0.9;"/></g><path d="M30.98,7.669l-5.108,7.663l-15.326,2.554l17.852,14.035l6.39,1.254l11.518,-12.735l5.108,-2.554l-20.434,-10.217" style="fill:#9da8c9;"/><clipPath id="_clip2"><path d="M30.98,7.669l-5.108,7.663l-15.326,2.554l17.852,14.035l6.39,1.254l11.518,-12.735l5.108,-2.554l-20.434,-10.217"/></clipPath><g clip-path="url(#_clip2)"><path d="M82.065,7.669l-18.481,6.9l-1.279,3.654l-0.674,5.443l-9.595,1.806l0.58,-4.774l-16.527,14.129l-5.109,1.548l2.54,16.645l4.645,15.226l-5.302,-0.216l1.044,11.184l2.182,7.637l-6.118,-5.766l-19.425,-12.114l18.167,6.242l-0.629,-9.902l-17.538,-10.033l0,-1.632l7.619,2.277l13.806,5.033l-4.451,-7.484l-4.129,-1.871l2.481,-0.509l-15.326,-7.663l15.326,4.688l-1.191,-14.839l-14.135,-15.392l20.434,12.102l12.281,-9.613l4.129,-2.322l-16.41,-10.384l26.546,13.273l-1.003,-5.61l0.609,-2.118l-15.935,-10.653l20.434,7.814l7.308,-2.387l13.126,-0.319Z" style="fill:#f6e9f1;fill-opacity:0.9;"/></g><path d="M82.065,7.669l-20.434,5.109l-5.108,7.662l-5.109,-2.554l-5.108,2.554l-11.469,12.687l-6.441,-1.207l2.584,21.726l5.109,12.771l-5.109,-2.554l0,15.325l5.109,7.663l15.325,-7.663l0,-5.108l5.109,-2.554l5.108,2.554l17.456,-8.728l1.11,-22.857l1.868,-9.283l-5.108,2.554l5.108,-12.771l0,-15.326Z" style="fill:#bac1d8;"/><clipPath id="_clip3"><path d="M82.065,7.669l-20.434,5.109l-5.108,7.662l-5.109,-2.554l-5.108,2.554l-11.469,12.687l-6.441,-1.207l2.584,21.726l5.109,12.771l-5.109,-2.554l0,15.325l5.109,7.663l15.325,-7.663l0,-5.108l5.109,-2.554l5.108,2.554l17.456,-8.728l1.11,-22.857l1.868,-9.283l-5.108,2.554l5.108,-12.771l0,-15.326Z"/></clipPath><g clip-path="url(#_clip3)"><path d="M82.065,7.669l-18.481,6.9l-1.279,3.654l-0.674,5.443l-9.595,1.806l0.58,-4.774l-16.527,14.129l-5.109,1.548l2.54,16.645l4.645,15.226l-5.302,-0.216l1.044,11.184l2.182,7.637l-6.118,-5.766l-19.425,-12.114l18.167,6.242l-0.629,-9.902l-17.538,-10.033l0,-1.632l7.619,2.277l13.806,5.033l-4.451,-7.484l-4.129,-1.871l2.481,-0.509l-15.326,-7.663l15.326,4.688l-1.191,-14.839l-14.135,-15.392l20.434,12.102l12.281,-9.613l4.129,-2.322l-16.41,-10.384l26.546,13.273l-1.003,-5.61l0.609,-2.118l-15.935,-10.653l20.434,7.814l7.308,-2.387l13.126,-0.319Z" style="fill:#f6e9f1;fill-opacity:0.9;"/></g><path d="M10.546,17.886l17.852,14.035l2.582,21.725l-20.434,-10.217l1.887,-9.274l-1.887,-16.269Z" style="fill:#577166;"/><clipPath id="_clip4"><path d="M10.546,17.886l17.852,14.035l2.582,21.725l-20.434,-10.217l1.887,-9.274l-1.887,-16.269Z"/></clipPath><g clip-path="url(#_clip4)"><path d="M82.065,7.669l-18.481,6.9l-1.279,3.654l-0.674,5.443l-9.595,1.806l0.58,-4.774l-16.527,14.129l-5.109,1.548l2.54,16.645l4.645,15.226l-5.302,-0.216l1.044,11.184l2.182,7.637l-6.118,-5.766l-19.425,-12.114l18.167,6.242l-0.629,-9.902l-17.538,-10.033l0,-1.632l7.619,2.277l13.806,5.033l-4.451,-7.484l-4.129,-1.871l2.481,-0.509l-15.326,-7.663l15.326,4.688l-1.191,-14.839l-14.135,-15.392l20.434,12.102l12.281,-9.613l4.129,-2.322l-16.41,-10.384l26.546,13.273l-1.003,-5.61l0.609,-2.118l-15.935,-10.653l20.434,7.814l7.308,-2.387l13.126,-0.319Z" style="fill:#f6e9f1;fill-opacity:0.4;"/></g><path d="M36.089,86.851l-20.435,-10.217l-5.108,-7.663l0,-15.325l20.434,10.217l0,15.325l5.109,7.663Z" style="fill:#577166;"/><clipPath id="_clip5"><path d="M36.089,86.851l-20.435,-10.217l-5.108,-7.663l0,-15.325l20.434,10.217l0,15.325l5.109,7.663Z"/></clipPath><g clip-path="url(#_clip5)"><path d="M82.065,7.669l-18.481,6.9l-1.279,3.654l-0.674,5.443l-9.595,1.806l0.58,-4.774l-16.527,14.129l-5.109,1.548l2.54,16.645l4.645,15.226l-5.302,-0.216l1.044,11.184l2.182,7.637l-6.118,-5.766l-19.425,-12.114l18.167,6.242l-0.629,-9.902l-17.538,-10.033l0,-1.632l7.619,2.277l13.806,5.033l-4.451,-7.484l-4.129,-1.871l2.481,-0.509l-15.326,-7.663l15.326,4.688l-1.191,-14.839l-14.135,-15.392l20.434,12.102l12.281,-9.613l4.129,-2.322l-16.41,-10.384l26.546,13.273l-1.003,-5.61l0.609,-2.118l-15.935,-10.653l20.434,7.814l7.308,-2.387l13.126,-0.319Z" style="fill:#f6e9f1;fill-opacity:0.4;"/></g><path d="M10.546,43.429l15.326,7.663l-15.326,2.554l25.543,12.771l-5.109,-12.771l-20.434,-10.217Z" style="fill:#394153;"/><clipPath id="_clip6"><path d="M10.546,43.429l15.326,7.663l-15.326,2.554l25.543,12.771l-5.109,-12.771l-20.434,-10.217Z"/></clipPath><g clip-path="url(#_clip6)"><path d="M82.065,7.669l-18.481,6.9l-1.279,3.654l-0.674,5.443l-9.595,1.806l0.58,-4.774l-16.527,14.129l-5.109,1.548l2.54,16.645l4.645,15.226l-5.302,-0.216l1.044,11.184l2.182,7.637l-6.118,-5.766l-19.425,-12.114l18.167,6.242l-0.629,-9.902l-17.538,-10.033l0,-1.632l7.619,2.277l13.806,5.033l-4.451,-7.484l-4.129,-1.871l2.481,-0.509l-15.326,-7.663l15.326,4.688l-1.191,-14.839l-14.135,-15.392l20.434,12.102l12.281,-9.613l4.129,-2.322l-16.41,-10.384l26.546,13.273l-1.003,-5.61l0.609,-2.118l-15.935,-10.653l20.434,7.814l7.308,-2.387l13.126,-0.319Z" style="fill:#f6e9f1;fill-opacity:0.4;"/></g><path d="M10.546,68.971l20.434,10.217l5.109,7.663l-20.435,-10.217l-5.108,-7.663Z" style="fill:#394153;"/><clipPath id="_clip7"><path d="M10.546,68.971l20.434,10.217l5.109,7.663l-20.435,-10.217l-5.108,-7.663Z"/></clipPath><g clip-path="url(#_clip7)"><path d="M82.065,7.669l-18.481,6.9l-1.279,3.654l-0.674,5.443l-9.595,1.806l0.58,-4.774l-16.527,14.129l-5.109,1.548l2.54,16.645l4.645,15.226l-5.302,-0.216l1.044,11.184l2.182,7.637l-6.118,-5.766l-19.425,-12.114l18.167,6.242l-0.629,-9.902l-17.538,-10.033l0,-1.632l7.619,2.277l13.806,5.033l-4.451,-7.484l-4.129,-1.871l2.481,-0.509l-15.326,-7.663l15.326,4.688l-1.191,-14.839l-14.135,-15.392l20.434,12.102l12.281,-9.613l4.129,-2.322l-16.41,-10.384l26.546,13.273l-1.003,-5.61l0.609,-2.118l-15.935,-10.653l20.434,7.814l7.308,-2.387l13.126,-0.319Z" style="fill:#f6e9f1;fill-opacity:0.9;"/></g><path d="M41.197,2.561l-5.108,7.662l20.434,10.217l-2.438,3.89l5.526,-2.345l-0.435,-5.326l2.455,-3.881l-20.434,-10.217Z" style="fill:#577166;"/><clipPath id="_clip8"><path d="M41.197,2.561l-5.108,7.662l20.434,10.217l-2.438,3.89l5.526,-2.345l-0.435,-5.326l2.455,-3.881l-20.434,-10.217Z"/></clipPath><g clip-path="url(#_clip8)"><path d="M82.065,7.669l-18.481,6.9l-1.279,3.654l-0.674,5.443l-9.595,1.806l0.58,-4.774l-16.527,14.129l-5.109,1.548l2.54,16.645l4.645,15.226l-5.302,-0.216l1.044,11.184l2.182,7.637l-6.118,-5.766l-19.425,-12.114l18.167,6.242l-0.629,-9.902l-17.538,-10.033l0,-1.632l7.619,2.277l13.806,5.033l-4.451,-7.484l-4.129,-1.871l2.481,-0.509l-15.326,-7.663l15.326,4.688l-1.191,-14.839l-14.135,-15.392l20.434,12.102l12.281,-9.613l4.129,-2.322l-16.41,-10.384l26.546,13.273l-1.003,-5.61l0.609,-2.118l-15.935,-10.653l20.434,7.814l7.308,-2.387l13.126,-0.319Z" style="fill:#f6e9f1;fill-opacity:0.9;"/></g></g></g></g><path d="M79.845,50.133c0,0 6.024,1.537 4.352,7.225c-1.672,5.688 -0.692,6.842 -2.096,11.265c-1.404,4.423 -2.576,0.768 -5.109,5.714c-2.445,4.776 -1.717,6.082 -12.733,10.908c-0.391,0.171 1.248,-3.193 0.821,-3.003c-0.898,0.4 -1.669,0.754 -2.331,1.07c-8.523,4.067 0.852,1.734 -12.241,5.274c-0.883,0.239 3.879,1.316 3.075,1.538c-0.803,0.222 -3.476,-0.207 -4.251,-0.008c-2.579,0.663 -4.884,1.237 -6.919,1.727c-0.37,0.089 1.938,2.016 -1.083,0.259c-5.189,-3.018 -9.235,2.024 -10.314,2.064c-1.717,0.063 -4.566,-3.054 -7.872,-1.173c-3.307,1.881 -2.554,4.569 -5.78,1.344c-1.544,-1.544 -3.353,-0.852 -3.846,-1.639c-0.537,-0.858 0.226,-3.129 -2.108,-3.227c-0.532,-0.022 -1.71,4.029 -2.194,4.012c-3.598,-0.129 -5.277,-4.16 -6.947,-3.473c-1.894,0.778 -2.04,-0.867 0.667,-4.775c2.707,-3.909 3.812,-1.699 3.69,-4.417c-0.122,-2.718 -2.473,-3.872 -2.473,-3.872c0,0 -1.965,1.936 -1.474,-2.057c0.491,-3.993 -0.318,-4.202 0.839,-4.689c1.158,-0.487 1.892,1.664 1.955,-1.24c0.063,-2.903 -0.708,-1.505 0,-3.763c0.708,-2.258 0.201,-0.492 1.315,-3.579c1.114,-3.088 0.451,-5.273 0.46,-6.654c0.008,-1.38 -1.067,-0.412 0.008,-1.702c1.076,-1.291 5.754,-2.798 7.34,-3.066c1.585,-0.268 7.176,1.13 7.176,1.13l-11.19,2.263l0,15.034l5.108,7.663c0,0 0.364,2.441 2.875,1.437c2.512,-1.004 1.961,-1.004 3.007,-1.004c1.046,0 0.881,-0.055 2.808,1.487c1.927,1.541 3.276,2.314 3.276,2.314c0,0 1.568,1.099 2.669,1.705c1.102,0.605 1.717,2.237 1.717,2.237l0.486,-0.751c0,0 0.4,0.25 0.365,-0.701c-0.035,-0.95 0.35,-2.712 0.158,-3.152c-0.193,-0.441 -1.294,-1.267 0.192,-0.551c1.487,0.716 0.969,0.76 2.054,1.674c1.084,0.913 -1.019,1.927 1.96,0.98c2.978,-0.947 2.056,-1.223 3.976,-1.113c1.92,0.11 1.094,1.322 3.021,0.055c1.927,-1.266 1.927,-0.495 2.643,-1.761c0.715,-1.267 0.66,-1.652 0.66,-1.652c0,0 -2.242,1.017 -0.048,-0.62l2.195,-1.637c0,0 -0.569,0.899 0.101,-0.679c0.67,-1.578 0.638,-0.587 1.645,-2.239c1.007,-1.651 0.122,-1.864 1.996,-2.694c1.874,-0.829 -0.108,-2.04 2.204,-0.939c2.312,1.101 0.378,0.48 3.492,1.203c3.114,0.723 3.39,0.503 4.546,0.723c1.156,0.221 -1.377,-1.101 1.266,-2.917c2.643,-1.817 3.065,-0.588 3.019,-2.221c-0.046,-1.633 -2.523,-2.679 0.119,-2.789c2.643,-0.11 -1.705,2.033 2.671,0.273c4.376,-1.76 3.88,-0.438 4.706,-1.87c0.826,-1.431 1.836,-1.486 1.523,-2.697c-0.312,-1.212 -0.404,-2.333 -0.404,-2.333l2.892,2.961l0.365,-8.882Z" style="fill:#45545e;"/><clipPath id="_clip9"><path d="M79.845,50.133c0,0 6.024,1.537 4.352,7.225c-1.672,5.688 -0.692,6.842 -2.096,11.265c-1.404,4.423 -2.576,0.768 -5.109,5.714c-2.445,4.776 -1.717,6.082 -12.733,10.908c-0.391,0.171 1.248,-3.193 0.821,-3.003c-0.898,0.4 -1.669,0.754 -2.331,1.07c-8.523,4.067 0.852,1.734 -12.241,5.274c-0.883,0.239 3.879,1.316 3.075,1.538c-0.803,0.222 -3.476,-0.207 -4.251,-0.008c-2.579,0.663 -4.884,1.237 -6.919,1.727c-0.37,0.089 1.938,2.016 -1.083,0.259c-5.189,-3.018 -9.235,2.024 -10.314,2.064c-1.717,0.063 -4.566,-3.054 -7.872,-1.173c-3.307,1.881 -2.554,4.569 -5.78,1.344c-1.544,-1.544 -3.353,-0.852 -3.846,-1.639c-0.537,-0.858 0.226,-3.129 -2.108,-3.227c-0.532,-0.022 -1.71,4.029 -2.194,4.012c-3.598,-0.129 -5.277,-4.16 -6.947,-3.473c-1.894,0.778 -2.04,-0.867 0.667,-4.775c2.707,-3.909 3.812,-1.699 3.69,-4.417c-0.122,-2.718 -2.473,-3.872 -2.473,-3.872c0,0 -1.965,1.936 -1.474,-2.057c0.491,-3.993 -0.318,-4.202 0.839,-4.689c1.158,-0.487 1.892,1.664 1.955,-1.24c0.063,-2.903 -0.708,-1.505 0,-3.763c0.708,-2.258 0.201,-0.492 1.315,-3.579c1.114,-3.088 0.451,-5.273 0.46,-6.654c0.008,-1.38 -1.067,-0.412 0.008,-1.702c1.076,-1.291 5.754,-2.798 7.34,-3.066c1.585,-0.268 7.176,1.13 7.176,1.13l-11.19,2.263l0,15.034l5.108,7.663c0,0 0.364,2.441 2.875,1.437c2.512,-1.004 1.961,-1.004 3.007,-1.004c1.046,0 0.881,-0.055 2.808,1.487c1.927,1.541 3.276,2.314 3.276,2.314c0,0 1.568,1.099 2.669,1.705c1.102,0.605 1.717,2.237 1.717,2.237l0.486,-0.751c0,0 0.4,0.25 0.365,-0.701c-0.035,-0.95 0.35,-2.712 0.158,-3.152c-0.193,-0.441 -1.294,-1.267 0.192,-0.551c1.487,0.716 0.969,0.76 2.054,1.674c1.084,0.913 -1.019,1.927 1.96,0.98c2.978,-0.947 2.056,-1.223 3.976,-1.113c1.92,0.11 1.094,1.322 3.021,0.055c1.927,-1.266 1.927,-0.495 2.643,-1.761c0.715,-1.267 0.66,-1.652 0.66,-1.652c0,0 -2.242,1.017 -0.048,-0.62l2.195,-1.637c0,0 -0.569,0.899 0.101,-0.679c0.67,-1.578 0.638,-0.587 1.645,-2.239c1.007,-1.651 0.122,-1.864 1.996,-2.694c1.874,-0.829 -0.108,-2.04 2.204,-0.939c2.312,1.101 0.378,0.48 3.492,1.203c3.114,0.723 3.39,0.503 4.546,0.723c1.156,0.221 -1.377,-1.101 1.266,-2.917c2.643,-1.817 3.065,-0.588 3.019,-2.221c-0.046,-1.633 -2.523,-2.679 0.119,-2.789c2.643,-0.11 -1.705,2.033 2.671,0.273c4.376,-1.76 3.88,-0.438 4.706,-1.87c0.826,-1.431 1.836,-1.486 1.523,-2.697c-0.312,-1.212 -0.404,-2.333 -0.404,-2.333l2.892,2.961l0.365,-8.882Z"/></clipPath><g clip-path="url(#_clip9)"><path d="M86.395,38.141l18.329,50.033l-68.039,22.174l-11.592,-5.796l28.829,-46.888l32.473,-19.523" style="fill:#c4e783;fill-opacity:0.5;"/><path d="M88.444,53.886l-4.555,4.581l-1.788,1.225c0,0 0.431,2.914 0,3.823c-0.432,0.908 -2.455,3.88 -2.455,3.88c0,0 -0.557,0.899 -1.632,1.974c-1.076,1.076 -1.874,1.382 -1.874,1.382l-0.688,-0.344l2.562,-6.521l0.645,-1.076l-1.667,-0.537c0,0 -2.419,2.795 -3.172,4.193c-0.753,1.398 -0.901,1.639 -0.901,1.639c0,0 0.147,0.512 -1.035,1.695c-1.182,1.182 -2.522,2.248 -1.959,2.952c0.562,0.703 0.866,1.526 0.866,1.526c0,0 -1.81,1.005 -3.1,0.36c-1.29,-0.645 0.323,-0.968 -1.935,-1.505c-2.258,-0.538 -3.018,-1.061 -5.918,-0.316c-2.899,0.746 -4.082,-6.136 -5.373,0.746c-1.29,6.882 -2.482,7.204 -3.015,8.064c-0.533,0.861 1.737,1.159 -1.656,1.494c-3.393,0.334 -4.683,0.442 -4.683,0.442c0,0 -4.619,2.268 -6.557,1.725c-1.938,-0.542 0.842,-1.188 -2.43,-0.435c-3.271,0.753 -7.808,1.506 -10.217,2.581c-2.409,1.075 -4.448,2.051 -7.461,2.799c-3.013,0.749 -2.275,0.84 -0.785,-0.397c4.038,-3.352 -6.058,-0.789 -4.748,-3.159c1.582,-2.863 2.777,-2.792 2.777,-2.792l-3.037,-4.009l-2.071,0.246c0,0 0.272,1.057 -1.793,-0.386c-2.065,-1.442 -2.731,-1.484 -1.914,-4.151c0.817,-2.667 2.246,-1.225 1.155,-3.129c-1.091,-1.904 -1.736,0.139 -1.091,-3.732c0.645,-3.871 0.753,-4.838 0.753,-4.838c0,0 -1.078,-2.477 -0.754,-3.658c0.323,-1.181 0.431,-2.149 0.431,-2.149l-4.542,1.558l2.646,-6.074l0,-0.86c0,0 -6.599,-2.903 -7.566,0.753c-0.968,3.655 -3.216,4.065 -1.232,13.322c1.984,9.258 2.573,10.124 1.311,15.981c-1.262,5.858 -3.843,9.621 -0.832,10.911c3.011,1.291 0.323,2.258 11.72,2.903c11.398,0.646 59.587,-4.119 59.587,-4.119l22.993,-25.343l-3.01,-13.225" style="fill:#66b394;"/><clipPath id="_clip10"><path d="M88.444,53.886l-4.555,4.581l-1.788,1.225c0,0 0.431,2.914 0,3.823c-0.432,0.908 -2.455,3.88 -2.455,3.88c0,0 -0.557,0.899 -1.632,1.974c-1.076,1.076 -1.874,1.382 -1.874,1.382l-0.688,-0.344l2.562,-6.521l0.645,-1.076l-1.667,-0.537c0,0 -2.419,2.795 -3.172,4.193c-0.753,1.398 -0.901,1.639 -0.901,1.639c0,0 0.147,0.512 -1.035,1.695c-1.182,1.182 -2.522,2.248 -1.959,2.952c0.562,0.703 0.866,1.526 0.866,1.526c0,0 -1.81,1.005 -3.1,0.36c-1.29,-0.645 0.323,-0.968 -1.935,-1.505c-2.258,-0.538 -3.018,-1.061 -5.918,-0.316c-2.899,0.746 -4.082,-6.136 -5.373,0.746c-1.29,6.882 -2.482,7.204 -3.015,8.064c-0.533,0.861 1.737,1.159 -1.656,1.494c-3.393,0.334 -4.683,0.442 -4.683,0.442c0,0 -4.619,2.268 -6.557,1.725c-1.938,-0.542 0.842,-1.188 -2.43,-0.435c-3.271,0.753 -7.808,1.506 -10.217,2.581c-2.409,1.075 -4.448,2.051 -7.461,2.799c-3.013,0.749 -2.275,0.84 -0.785,-0.397c4.038,-3.352 -6.058,-0.789 -4.748,-3.159c1.582,-2.863 2.777,-2.792 2.777,-2.792l-3.037,-4.009l-2.071,0.246c0,0 0.272,1.057 -1.793,-0.386c-2.065,-1.442 -2.731,-1.484 -1.914,-4.151c0.817,-2.667 2.246,-1.225 1.155,-3.129c-1.091,-1.904 -1.736,0.139 -1.091,-3.732c0.645,-3.871 0.753,-4.838 0.753,-4.838c0,0 -1.078,-2.477 -0.754,-3.658c0.323,-1.181 0.431,-2.149 0.431,-2.149l-4.542,1.558l2.646,-6.074l0,-0.86c0,0 -6.599,-2.903 -7.566,0.753c-0.968,3.655 -3.216,4.065 -1.232,13.322c1.984,9.258 2.573,10.124 1.311,15.981c-1.262,5.858 -3.843,9.621 -0.832,10.911c3.011,1.291 0.323,2.258 11.72,2.903c11.398,0.646 59.587,-4.119 59.587,-4.119l22.993,-25.343l-3.01,-13.225"/></clipPath><g clip-path="url(#_clip10)"><path d="M86.395,38.141l18.329,50.033l-68.039,22.174l-11.592,-5.796l28.829,-46.888l32.473,-19.523" style="fill:#c4e783;fill-opacity:0.5;"/></g><path d="M30.201,71.347l-34.27,22.243l-1.489,-52.229l38.658,5.892l-2.899,24.094" style="fill-opacity:0.5;"/></g></g><g><path d="M57.636,31.415l11.759,26.894l4.593,1.906l-13.57,-29.731l-2.782,0.931Z" style="fill:#394153;"/><path d="M57.981,41.948l-8.371,2.554l-3.507,-1.257l11.643,-3.923l0.235,2.626Z" style="fill:none;"/><path d="M63.897,61.08l4.738,1.763l5.349,-2.599l-4.643,-1.827l-5.444,2.663Z" style="fill:none;"/><path d="M40.557,64.973l-0.385,-27.672l17.464,-5.886l11.705,27.002l-5.444,2.663l-8.903,-20.831l-8.891,2.996l0.059,19.066l-5.605,2.662Z" style="fill:#6a7894;"/><path d="M44.983,66.347l-4.426,-1.374l5.659,-2.824l4.156,1.221l-5.389,2.977Z" style="fill:none;"/><path d="M46.103,43.245l3.344,1.385l0.906,18.708l-4.245,-1.135l-0.005,-18.958" style="fill:#394153;"/></g><path d="M76.907,45.031c0,0 -1.331,-0.603 -1.13,-4.875c0.202,-4.273 -1.197,-8.654 -0.849,-8.663c0.347,-0.008 2.185,-0.114 3.025,-1.512c0.84,-1.399 3.767,-1.135 4.063,-2.894c0.296,-1.76 2.055,-2.375 2.143,-4.135c0.088,-1.759 0.176,-14.249 -0.088,-15.217c-0.264,-0.968 -0.44,-1.056 -1.231,-1.583c-0.792,-0.528 1.871,-0.528 -0.824,-0.528c-2.695,0 -2.772,-2.03 -5.109,-0.663c-2.336,1.367 -1.879,1.137 -3.471,1.735c-1.592,0.599 -6.746,2.095 -6.746,2.095c0,0 -0.481,2.738 -1.841,0.357c-1.361,-2.381 2.345,-0.334 -1.443,-2.545c-3.788,-2.211 -3.905,-3.06 -4.506,-2.855c-0.602,0.205 0.014,0.908 -1.657,-0.235c-1.671,-1.144 0.687,-2.145 -3.131,-2.48c-3.818,-0.335 -4.809,-0.991 -6.821,-0.663c-2.011,0.328 -1.083,0.073 -3.174,0.552c-2.091,0.48 -2.969,0.744 -2.969,0.744c0,0 0.162,-0.681 -0.931,0.275c-1.094,0.956 -2.506,0.947 -3.208,2.535c-0.701,1.588 -0.887,1.324 -0.97,2.115c-0.083,0.792 -1.143,0.431 -3.252,-0.004c-2.109,-0.435 -1.937,-0.866 -2.639,0.537c-0.701,1.403 0.091,0.699 -1.229,2.194c-1.319,1.496 2.551,0.968 -2.111,2.463c-4.662,1.496 -1.194,-1.482 -4.687,1.546c-3.493,3.028 -2.089,3.475 0.771,5.494c2.861,2.02 -0.431,0.437 2.93,2.548c3.361,2.111 4.393,2.463 5.109,3.431c0.715,0.967 1.383,1.511 1.445,2.427c0.062,0.915 0.062,3.202 0.062,3.202c0,0 0.088,-1.231 -0.352,0.792c-0.44,2.023 -1.155,2.99 -1.155,2.99c0,0 -0.54,-0.088 0,1.232c0.539,1.319 0.725,0.9 0.852,2.297c0.127,1.397 0.127,1.221 0.127,2.189c0,0.968 0,1.671 0,1.671c0,0 0.591,0.578 0.471,2.4c-0.119,1.822 -0.837,2.322 -0.522,3.919c0.315,1.598 1.106,2.301 1.634,3.093c0.528,0.792 1.293,3.202 1.043,0.677c-0.251,-2.524 0.277,-3.492 0.277,-4.371c0,-0.88 -0.852,0.648 -0.074,-2.139c0.777,-2.787 -1.863,0.119 2.008,-4.105c3.871,-4.224 3.617,-5.699 3.129,-7.38c-0.489,-1.682 0.126,0.078 0.126,-3.353c0,-3.43 1.146,-5.014 1.146,-5.014c0,0 -0.108,-0.74 -0.715,-2.129c-0.607,-1.389 -1.31,-1.301 -0.079,-2.445c1.232,-1.143 1.433,-2.249 2.212,-2.312c0.779,-0.063 0.955,-0.239 1.659,-0.678c0.703,-0.44 1.688,-0.792 2.031,-1.144c0.344,-0.352 2.012,-0.435 2.012,-0.435l-2.012,-3.523l7.117,0.967c0,0 0.703,0.791 1.802,2.199c1.1,1.408 2.6,3.089 3.17,3.524c0.569,0.435 1.499,2.621 1.499,2.621l1.738,3.267c0,0 -0.909,2.903 1.114,0.616c2.024,-2.287 -0.64,0.566 2.407,-4.775c3.047,-5.341 2.08,-6.044 4.279,-6.22c2.199,-0.176 1.935,-0.44 3.166,-0.176c1.232,0.264 -0.088,0.088 1.759,0.528c1.848,0.44 4.673,0.527 2.6,1.583c-2.072,1.056 -3.655,1.144 -3.039,3.694c0.615,2.551 2.638,2.727 0.527,5.102c-2.111,2.375 -3.081,0.704 -2.596,5.366c0.485,4.662 0.13,7.389 0,9.676c-0.13,2.287 -2.772,2.023 0,3.694c2.772,1.671 3.73,0.42 3.911,2.101c0.181,1.681 1.197,-1.397 1.197,-1.397Z" style="fill:#45545e;"/><clipPath id="_clip11"><path d="M76.907,45.031c0,0 -1.331,-0.603 -1.13,-4.875c0.202,-4.273 -1.197,-8.654 -0.849,-8.663c0.347,-0.008 2.185,-0.114 3.025,-1.512c0.84,-1.399 3.767,-1.135 4.063,-2.894c0.296,-1.76 2.055,-2.375 2.143,-4.135c0.088,-1.759 0.176,-14.249 -0.088,-15.217c-0.264,-0.968 -0.44,-1.056 -1.231,-1.583c-0.792,-0.528 1.871,-0.528 -0.824,-0.528c-2.695,0 -2.772,-2.03 -5.109,-0.663c-2.336,1.367 -1.879,1.137 -3.471,1.735c-1.592,0.599 -6.746,2.095 -6.746,2.095c0,0 -0.481,2.738 -1.841,0.357c-1.361,-2.381 2.345,-0.334 -1.443,-2.545c-3.788,-2.211 -3.905,-3.06 -4.506,-2.855c-0.602,0.205 0.014,0.908 -1.657,-0.235c-1.671,-1.144 0.687,-2.145 -3.131,-2.48c-3.818,-0.335 -4.809,-0.991 -6.821,-0.663c-2.011,0.328 -1.083,0.073 -3.174,0.552c-2.091,0.48 -2.969,0.744 -2.969,0.744c0,0 0.162,-0.681 -0.931,0.275c-1.094,0.956 -2.506,0.947 -3.208,2.535c-0.701,1.588 -0.887,1.324 -0.97,2.115c-0.083,0.792 -1.143,0.431 -3.252,-0.004c-2.109,-0.435 -1.937,-0.866 -2.639,0.537c-0.701,1.403 0.091,0.699 -1.229,2.194c-1.319,1.496 2.551,0.968 -2.111,2.463c-4.662,1.496 -1.194,-1.482 -4.687,1.546c-3.493,3.028 -2.089,3.475 0.771,5.494c2.861,2.02 -0.431,0.437 2.93,2.548c3.361,2.111 4.393,2.463 5.109,3.431c0.715,0.967 1.383,1.511 1.445,2.427c0.062,0.915 0.062,3.202 0.062,3.202c0,0 0.088,-1.231 -0.352,0.792c-0.44,2.023 -1.155,2.99 -1.155,2.99c0,0 -0.54,-0.088 0,1.232c0.539,1.319 0.725,0.9 0.852,2.297c0.127,1.397 0.127,1.221 0.127,2.189c0,0.968 0,1.671 0,1.671c0,0 0.591,0.578 0.471,2.4c-0.119,1.822 -0.837,2.322 -0.522,3.919c0.315,1.598 1.106,2.301 1.634,3.093c0.528,0.792 1.293,3.202 1.043,0.677c-0.251,-2.524 0.277,-3.492 0.277,-4.371c0,-0.88 -0.852,0.648 -0.074,-2.139c0.777,-2.787 -1.863,0.119 2.008,-4.105c3.871,-4.224 3.617,-5.699 3.129,-7.38c-0.489,-1.682 0.126,0.078 0.126,-3.353c0,-3.43 1.146,-5.014 1.146,-5.014c0,0 -0.108,-0.74 -0.715,-2.129c-0.607,-1.389 -1.31,-1.301 -0.079,-2.445c1.232,-1.143 1.433,-2.249 2.212,-2.312c0.779,-0.063 0.955,-0.239 1.659,-0.678c0.703,-0.44 1.688,-0.792 2.031,-1.144c0.344,-0.352 2.012,-0.435 2.012,-0.435l-2.012,-3.523l7.117,0.967c0,0 0.703,0.791 1.802,2.199c1.1,1.408 2.6,3.089 3.17,3.524c0.569,0.435 1.499,2.621 1.499,2.621l1.738,3.267c0,0 -0.909,2.903 1.114,0.616c2.024,-2.287 -0.64,0.566 2.407,-4.775c3.047,-5.341 2.08,-6.044 4.279,-6.22c2.199,-0.176 1.935,-0.44 3.166,-0.176c1.232,0.264 -0.088,0.088 1.759,0.528c1.848,0.44 4.673,0.527 2.6,1.583c-2.072,1.056 -3.655,1.144 -3.039,3.694c0.615,2.551 2.638,2.727 0.527,5.102c-2.111,2.375 -3.081,0.704 -2.596,5.366c0.485,4.662 0.13,7.389 0,9.676c-0.13,2.287 -2.772,2.023 0,3.694c2.772,1.671 3.73,0.42 3.911,2.101c0.181,1.681 1.197,-1.397 1.197,-1.397Z"/></clipPath><g clip-path="url(#_clip11)"><path d="M57.697,-3.005l31.039,5.841l-2.786,37.297l-5.656,4.003l-9.704,-10.474l-2.648,-14.001l-13.255,-0.268l-20.451,-15.334l13.397,-13.736l10.064,6.672Z" style="fill:#c4e783;fill-opacity:0.5;"/><path d="M73.924,42.212c-0.026,-1.284 1.481,-2.667 0.595,-5.406c-0.885,-2.739 -2.908,-3.795 -0.797,-5.73c2.111,-1.935 1.182,-2.551 3.185,-3.518c2.004,-0.968 3.148,-1.144 3.5,-2.639c0.352,-1.495 2.075,-1.935 1.609,-3.782c-0.466,-1.848 0.642,-4.223 0,-6.861c-0.642,-2.639 -1.257,-4.487 -1.257,-4.487l-1.222,-1.035c0,0 -0.274,-0.284 -1.681,-0.284c-1.408,0 -0.463,0.485 -2.518,0.814c-2.056,0.33 -0.36,-0.814 -3.539,1.209c-3.179,2.023 -7.489,2.375 -7.489,2.375c0,0 -1.762,5.844 -2.728,-0.244c-0.967,-6.089 3.431,-5.825 -1.846,-7.145c-5.278,-1.319 -9.307,-2.604 -9.307,-2.604c0,0 2.534,-0.035 -1.689,-0.914c-4.222,-0.88 -12.701,-1.232 -12.701,-1.232c0,0 -1.982,-0.252 -2.821,0.534c-0.838,0.786 -2.134,-2.07 -3.378,1.689c-1.243,3.759 -4.064,5.769 -5.028,7.623c-0.965,1.853 -4.169,2.104 -1.247,3.474c2.921,1.37 0.737,-0.86 5.524,2.762c4.786,3.622 3.793,0.052 5.301,4.3c1.508,4.248 1.263,4.248 1.649,5.743c0.387,1.495 -0.669,4.31 -0.757,6.421c-0.088,2.111 -0.318,7.983 -0.318,7.983c0,0 2.499,-2.052 2.244,-5.061c-0.254,-3.01 -1.993,-2.441 -0.068,-6.244c1.925,-3.803 2.696,-4.019 1.827,-6.022c-0.87,-2.003 -1.88,-2.881 -2.255,-3.981c-0.374,-1.1 -2.027,-1.1 -0.673,-3.124c1.354,-2.023 -0.77,0.15 1.832,-2.564c2.601,-2.713 0.346,-3.593 3.277,-2.889c2.931,0.703 3.018,0.703 3.018,0.703l0.447,-2.828c0,0 -3.072,-0.718 0,0c3.072,0.717 -0.31,2.115 4.856,2.428c5.165,0.312 5.765,-0.215 7.004,0.312c1.24,0.528 1.29,-0.075 2.584,1.898c1.294,1.973 1.996,2.465 2.525,3.846c0.529,1.381 -0.175,3.756 1.232,2.173c1.408,-1.583 1.947,-5.717 3.876,-5.893c1.93,-0.176 5.297,0.038 7.132,-0.377c1.835,-0.415 3.783,1.194 3.783,1.194c-3.035,-0.508 -9.962,8.107 -6.522,9.474c0.735,0.293 -1.594,8.775 -1.985,10.105c-0.39,1.33 4.852,9.089 4.826,7.804Z" style="fill:#66b394;"/><clipPath id="_clip12"><path d="M73.924,42.212c-0.026,-1.284 1.481,-2.667 0.595,-5.406c-0.885,-2.739 -2.908,-3.795 -0.797,-5.73c2.111,-1.935 1.182,-2.551 3.185,-3.518c2.004,-0.968 3.148,-1.144 3.5,-2.639c0.352,-1.495 2.075,-1.935 1.609,-3.782c-0.466,-1.848 0.642,-4.223 0,-6.861c-0.642,-2.639 -1.257,-4.487 -1.257,-4.487l-1.222,-1.035c0,0 -0.274,-0.284 -1.681,-0.284c-1.408,0 -0.463,0.485 -2.518,0.814c-2.056,0.33 -0.36,-0.814 -3.539,1.209c-3.179,2.023 -7.489,2.375 -7.489,2.375c0,0 -1.762,5.844 -2.728,-0.244c-0.967,-6.089 3.431,-5.825 -1.846,-7.145c-5.278,-1.319 -9.307,-2.604 -9.307,-2.604c0,0 2.534,-0.035 -1.689,-0.914c-4.222,-0.88 -12.701,-1.232 -12.701,-1.232c0,0 -1.982,-0.252 -2.821,0.534c-0.838,0.786 -2.134,-2.07 -3.378,1.689c-1.243,3.759 -4.064,5.769 -5.028,7.623c-0.965,1.853 -4.169,2.104 -1.247,3.474c2.921,1.37 0.737,-0.86 5.524,2.762c4.786,3.622 3.793,0.052 5.301,4.3c1.508,4.248 1.263,4.248 1.649,5.743c0.387,1.495 -0.669,4.31 -0.757,6.421c-0.088,2.111 -0.318,7.983 -0.318,7.983c0,0 2.499,-2.052 2.244,-5.061c-0.254,-3.01 -1.993,-2.441 -0.068,-6.244c1.925,-3.803 2.696,-4.019 1.827,-6.022c-0.87,-2.003 -1.88,-2.881 -2.255,-3.981c-0.374,-1.1 -2.027,-1.1 -0.673,-3.124c1.354,-2.023 -0.77,0.15 1.832,-2.564c2.601,-2.713 0.346,-3.593 3.277,-2.889c2.931,0.703 3.018,0.703 3.018,0.703l0.447,-2.828c0,0 -3.072,-0.718 0,0c3.072,0.717 -0.31,2.115 4.856,2.428c5.165,0.312 5.765,-0.215 7.004,0.312c1.24,0.528 1.29,-0.075 2.584,1.898c1.294,1.973 1.996,2.465 2.525,3.846c0.529,1.381 -0.175,3.756 1.232,2.173c1.408,-1.583 1.947,-5.717 3.876,-5.893c1.93,-0.176 5.297,0.038 7.132,-0.377c1.835,-0.415 3.783,1.194 3.783,1.194c-3.035,-0.508 -9.962,8.107 -6.522,9.474c0.735,0.293 -1.594,8.775 -1.985,10.105c-0.39,1.33 4.852,9.089 4.826,7.804Z"/></clipPath><g clip-path="url(#_clip12)"><path d="M57.697,-3.005l31.039,5.841l-2.786,37.297l-5.656,4.003l-9.704,-10.474l-2.648,-14.001l-13.255,-0.268l-20.451,-15.334l13.397,-13.736l10.064,6.672Z" style="fill:#c4e783;fill-opacity:0.5;"/></g></g></g></svg>