<?xml version="1.0" encoding="UTF-8" standalone="no"?><!DOCTYPE svg PUBLIC "-//W3C//DTD SVG 1.1//EN" "http://www.w3.org/Graphics/SVG/1.1/DTD/svg11.dtd"><svg width="100%" height="100%" viewBox="0 0 83 79" version="1.1" xmlns="http://www.w3.org/2000/svg" xmlns:xlink="http://www.w3.org/1999/xlink" xml:space="preserve" xmlns:serif="http://www.serif.com/" style="fill-rule:evenodd;clip-rule:evenodd;stroke-linejoin:round;stroke-miterlimit:1.41421;"><g id="N_Runestone_runes_4"><g><g><path d="M62.556,1.952l19.823,0.306l-20.434,5.109l-23.436,-6.61l24.047,1.195Z" style="fill:#9da8c9;"/><clipPath id="_clip1"><path d="M62.556,1.952l19.823,0.306l-20.434,5.109l-23.436,-6.61l24.047,1.195Z"/></clipPath><g clip-path="url(#_clip1)"><path d="M38.583,0.795l23.362,4.146l20.434,-2.683l-18.32,6.166l-2.114,2.452l2.952,2.237l-5.594,0.683l-2.467,2.242l-5.108,-3.563l-0.889,5.553l-17.598,-3.367l5.247,17.549l-3.953,9.296l0.943,6.876l6.033,20.287l-2.082,4.068l0.64,5.429l-24.101,-6.943l20.434,3.567l-1.612,-1.806l-23.931,-19.641l24.705,14.651l1.548,-0.258l-26.253,-19.501l25.543,15.028l-5.109,-7.14l-1.407,-6.279l-13.918,-9.272l12.442,3.996l-1.19,-2.552l-13.152,-7.502l1.9,-0.498l13.918,6.968l0.344,-1.119l-13.931,-5.683l14.502,3.589l3.57,-6.401l-33.729,-8.678l32.759,4.055l-2.108,-2.33l-5.108,-1.239l0,-5.23l5.108,-1.514l1.699,1.999l-0.177,1.402l-3.876,-0.071l4.299,3.277l0.669,0.493l-1.11,-3.583l0.151,-1.17l-0.431,-0.907l-1.725,-2.127l-0.595,-2.724l-4.012,-3.102l7.516,1.812l12.133,1.516l0.088,-1.718l-9.52,-6.719l17.295,6.679l0.505,-1.105l3.947,1.145l0.78,-2.657l-20.346,-8.079Z" style="fill:#f6e9f1;fill-opacity:0.9;"/></g><path d="M61.945,68.669l-5.109,-2.554l10.217,-15.326l5.871,4.8l-3.316,6.695l-7.663,6.385Z" style="fill:#577166;"/><clipPath id="_clip2"><path d="M61.945,68.669l-5.109,-2.554l10.217,-15.326l5.871,4.8l-3.316,6.695l-7.663,6.385Z"/></clipPath><g clip-path="url(#_clip2)"><path d="M38.583,0.795l23.362,4.146l20.434,-2.683l-18.32,6.166l-2.114,2.452l2.952,2.237l-5.594,0.683l-2.467,2.242l-5.108,-3.563l-0.889,5.553l-17.598,-3.367l5.247,17.549l-3.953,9.296l0.943,6.876l6.033,20.287l-2.082,4.068l0.64,5.429l-24.101,-6.943l20.434,3.567l-1.612,-1.806l-23.931,-19.641l24.705,14.651l1.548,-0.258l-26.253,-19.501l25.543,15.028l-5.109,-7.14l-1.407,-6.279l-13.918,-9.272l12.442,3.996l-1.19,-2.552l-13.152,-7.502l1.9,-0.498l13.918,6.968l0.344,-1.119l-13.931,-5.683l14.502,3.589l3.57,-6.401l-33.729,-8.678l32.759,4.055l-2.108,-2.33l-5.108,-1.239l0,-5.23l5.108,-1.514l1.699,1.999l-0.177,1.402l-3.876,-0.071l4.299,3.277l0.669,0.493l-1.11,-3.583l0.151,-1.17l-0.431,-0.907l-1.725,-2.127l-0.595,-2.724l-4.012,-3.102l7.516,1.812l12.133,1.516l0.088,-1.718l-9.52,-6.719l17.295,6.679l0.505,-1.105l3.947,1.145l0.78,-2.657l-20.346,-8.079Z" style="fill:#f6e9f1;fill-opacity:0.9;"/></g><path d="M77.27,38.632l-7.795,-4.379l-8.181,4.09l10.868,8.418l5.108,-8.129Z" style="fill:#9da8c9;"/><clipPath id="_clip3"><path d="M77.27,38.632l-7.795,-4.379l-8.181,4.09l10.868,8.418l5.108,-8.129Z"/></clipPath><g clip-path="url(#_clip3)"><path d="M38.583,0.795l23.362,4.146l20.434,-2.683l-18.32,6.166l-2.114,2.452l2.952,2.237l-5.594,0.683l-2.467,2.242l-5.108,-3.563l-0.889,5.553l-17.598,-3.367l5.247,17.549l-3.953,9.296l0.943,6.876l6.033,20.287l-2.082,4.068l0.64,5.429l-24.101,-6.943l20.434,3.567l-1.612,-1.806l-23.931,-19.641l24.705,14.651l1.548,-0.258l-26.253,-19.501l25.543,15.028l-5.109,-7.14l-1.407,-6.279l-13.918,-9.272l12.442,3.996l-1.19,-2.552l-13.152,-7.502l1.9,-0.498l13.918,6.968l0.344,-1.119l-13.931,-5.683l14.502,3.589l3.57,-6.401l-33.729,-8.678l32.759,4.055l-2.108,-2.33l-5.108,-1.239l0,-5.23l5.108,-1.514l1.699,1.999l-0.177,1.402l-3.876,-0.071l4.299,3.277l0.669,0.493l-1.11,-3.583l0.151,-1.17l-0.431,-0.907l-1.725,-2.127l-0.595,-2.724l-4.012,-3.102l7.516,1.812l12.133,1.516l0.088,-1.718l-9.52,-6.719l17.295,6.679l0.505,-1.105l3.947,1.145l0.78,-2.657l-20.346,-8.079Z" style="fill:#f6e9f1;fill-opacity:0.9;"/></g><path d="M36.402,4.812l-10.217,5.109l-25.543,12.771l28.07,3.818l6.39,1.254l11.517,-12.734l5.109,-2.555l-15.326,-7.663Z" style="fill:#9da8c9;"/><clipPath id="_clip4"><path d="M36.402,4.812l-10.217,5.109l-25.543,12.771l28.07,3.818l6.39,1.254l11.517,-12.734l5.109,-2.555l-15.326,-7.663Z"/></clipPath><g clip-path="url(#_clip4)"><path d="M60.639,76.825l-1.96,-9.996l5.98,-11.068l7.577,-3.789l-6.123,-2.047l-2.104,3.042l-0.404,-14.338l13.739,-12.438l-5.108,2.956l-5.109,2.339l-13.167,16.457l2.95,6.583l1.444,4.387l-1.444,7.793l-11.562,8.927l-13.981,3.141l-20.434,-3.324l20.434,-3.044l-10.217,-1.636l0,-6.157l-2.863,2.709l-7.354,-9.236l-3.729,-15.763l17.401,11.377l4.122,4.701l-0.319,-4.949l-2.149,-4.034l-13.6,-6.8l-4.271,-4.699l5.058,-5.125l11.418,1.995l-2.774,-2.781l-6.048,-1.384l-5.109,-3.078l0,1.847l-6.385,0.229l-7.387,-6.523l12.022,-7.762l10.29,6.823l0.045,-3.481l4.17,-1.197l-6.633,-7.177l14.312,-0.985l10.217,3.448l0,2.094l-2.754,7.836l-2.354,22.704l1.723,4.878l1.082,-9.677l2.303,-14.174l13.722,-6.86l-8.613,-4.461l-13.524,-10.013l8.415,-9.317l19.412,4.598l29.873,-0.39l-25.294,11.674l-1.724,6.773l3.276,0.334l0,-5.109l15.326,-5.2l19.255,-12.09l-80.558,-4.781l-32.158,44.306l19.562,50.649l52.085,-9.717" style="fill:#17244c;fill-opacity:0.7;"/><path d="M38.583,0.795l23.362,4.146l20.434,-2.683l-18.32,6.166l-2.114,2.452l2.952,2.237l-5.594,0.683l-2.467,2.242l-5.108,-3.563l-0.889,5.553l-17.598,-3.367l5.247,17.549l-3.953,9.296l0.943,6.876l6.033,20.287l-2.082,4.068l0.64,5.429l-24.101,-6.943l20.434,3.567l-1.612,-1.806l-23.931,-19.641l24.705,14.651l1.548,-0.258l-26.253,-19.501l25.543,15.028l-5.109,-7.14l-1.407,-6.279l-13.918,-9.272l12.442,3.996l-1.19,-2.552l-13.152,-7.502l1.9,-0.498l13.918,6.968l0.344,-1.119l-13.931,-5.683l14.502,3.589l3.57,-6.401l-33.729,-8.678l32.759,4.055l-2.108,-2.33l-5.108,-1.239l0,-5.23l5.108,-1.514l1.699,1.999l-0.177,1.402l-3.876,-0.071l4.299,3.277l0.669,0.493l-1.11,-3.583l0.151,-1.17l-0.431,-0.907l-1.725,-2.127l-0.595,-2.724l-4.012,-3.102l7.516,1.812l12.133,1.516l0.088,-1.718l-9.52,-6.719l17.295,6.679l0.505,-1.105l3.947,1.145l0.78,-2.657l-20.346,-8.079Z" style="fill:#f6e9f1;fill-opacity:0.9;"/></g><path d="M82.379,2.258l-20.434,5.109l-10.217,5.108l-5.109,2.555l-15.326,-2.555l-8.821,6.915l6.238,7.119l-14.466,7.033l17.049,14.693l5.109,12.771l-5.109,-2.554l5.109,12.771l3.753,6.985l2.172,-2.84l9.401,-1.59l7.325,-3.663l5.18,-7.698l7.929,-6.635l-5.109,7.346l-5.108,5.541l13.112,-6.556l3.926,-10.468l-3.918,-3.41l2.205,-2.554l2.021,-4.099l-2.021,-3.012l-3.515,3.76l-3.024,1.512l-0.412,-3.678l3.174,-4.803l5.941,-2.04l2.945,-5.52l0,-10.217l-4.124,-9.84l4.124,-5.486Z" style="fill:#bac1d8;"/><clipPath id="_clip5"><path d="M82.379,2.258l-20.434,5.109l-10.217,5.108l-5.109,2.555l-15.326,-2.555l-8.821,6.915l6.238,7.119l-14.466,7.033l17.049,14.693l5.109,12.771l-5.109,-2.554l5.109,12.771l3.753,6.985l2.172,-2.84l9.401,-1.59l7.325,-3.663l5.18,-7.698l7.929,-6.635l-5.109,7.346l-5.108,5.541l13.112,-6.556l3.926,-10.468l-3.918,-3.41l2.205,-2.554l2.021,-4.099l-2.021,-3.012l-3.515,3.76l-3.024,1.512l-0.412,-3.678l3.174,-4.803l5.941,-2.04l2.945,-5.52l0,-10.217l-4.124,-9.84l4.124,-5.486Z"/></clipPath><g clip-path="url(#_clip5)"><path d="M60.639,76.825l-1.96,-9.996l5.98,-11.068l7.577,-3.789l-6.123,-2.047l-2.104,3.042l-0.404,-14.338l13.739,-12.438l-5.108,2.956l-5.109,2.339l-13.167,16.457l2.95,6.583l1.444,4.387l-1.444,7.793l-11.562,8.927l-13.981,3.141l-20.434,-3.324l20.434,-3.044l-10.217,-1.636l0,-6.157l-2.863,2.709l-7.354,-9.236l-3.729,-15.763l17.401,11.377l4.122,4.701l-0.319,-4.949l-2.149,-4.034l-13.6,-6.8l-4.271,-4.699l5.058,-5.125l11.418,1.995l-2.774,-2.781l-6.048,-1.384l-5.109,-3.078l0,1.847l-6.385,0.229l-7.387,-6.523l12.022,-7.762l10.29,6.823l0.045,-3.481l4.17,-1.197l-6.633,-7.177l14.312,-0.985l10.217,3.448l0,2.094l-2.754,7.836l-2.354,22.704l1.723,4.878l1.082,-9.677l2.303,-14.174l13.722,-6.86l-8.613,-4.461l-13.524,-10.013l8.415,-9.317l19.412,4.598l29.873,-0.39l-25.294,11.674l-1.724,6.773l3.276,0.334l0,-5.109l15.326,-5.2l19.255,-12.09l-80.558,-4.781l-32.158,44.306l19.562,50.649l52.085,-9.717" style="fill:#17244c;fill-opacity:0.7;"/><path d="M38.583,0.795l23.362,4.146l20.434,-2.683l-18.32,6.166l-2.114,2.452l2.952,2.237l-5.594,0.683l-2.467,2.242l-5.108,-3.563l-0.889,5.553l-17.598,-3.367l5.247,17.549l-3.953,9.296l0.943,6.876l6.033,20.287l-2.082,4.068l0.64,5.429l-24.101,-6.943l20.434,3.567l-1.612,-1.806l-23.931,-19.641l24.705,14.651l1.548,-0.258l-26.253,-19.501l25.543,15.028l-5.109,-7.14l-1.407,-6.279l-13.918,-9.272l12.442,3.996l-1.19,-2.552l-13.152,-7.502l1.9,-0.498l13.918,6.968l0.344,-1.119l-13.931,-5.683l14.502,3.589l3.57,-6.401l-33.729,-8.678l32.759,4.055l-2.108,-2.33l-5.108,-1.239l0,-5.23l5.108,-1.514l1.699,1.999l-0.177,1.402l-3.876,-0.071l4.299,3.277l0.669,0.493l-1.11,-3.583l0.151,-1.17l-0.431,-0.907l-1.725,-2.127l-0.595,-2.724l-4.012,-3.102l7.516,1.812l12.133,1.516l0.088,-1.718l-9.52,-6.719l17.295,6.679l0.505,-1.105l3.947,1.145l0.78,-2.657l-20.346,-8.079Z" style="fill:#f6e9f1;fill-opacity:0.9;"/></g><path d="M32.895,18.384l1.208,5.713l-13.027,0.651l1.895,-9.161l6.491,1.081l3.433,1.716Z" style="fill:#9da8c9;"/><clipPath id="_clip6"><path d="M32.895,18.384l1.208,5.713l-13.027,0.651l1.895,-9.161l6.491,1.081l3.433,1.716Z"/></clipPath><g clip-path="url(#_clip6)"><path d="M38.583,0.795l23.362,4.146l20.434,-2.683l-18.32,6.166l-2.114,2.452l2.952,2.237l-5.594,0.683l-2.467,2.242l-5.108,-3.563l-0.889,5.553l-17.598,-3.367l5.247,17.549l-3.953,9.296l0.943,6.876l6.033,20.287l-2.082,4.068l0.64,5.429l-24.101,-6.943l20.434,3.567l-1.612,-1.806l-23.931,-19.641l24.705,14.651l1.548,-0.258l-26.253,-19.501l25.543,15.028l-5.109,-7.14l-1.407,-6.279l-13.918,-9.272l12.442,3.996l-1.19,-2.552l-13.152,-7.502l1.9,-0.498l13.918,6.968l0.344,-1.119l-13.931,-5.683l14.502,3.589l3.57,-6.401l-33.729,-8.678l32.759,4.055l-2.108,-2.33l-5.108,-1.239l0,-5.23l5.108,-1.514l1.699,1.999l-0.177,1.402l-3.876,-0.071l4.299,3.277l0.669,0.493l-1.11,-3.583l0.151,-1.17l-0.431,-0.907l-1.725,-2.127l-0.595,-2.724l-4.012,-3.102l7.516,1.812l12.133,1.516l0.088,-1.718l-9.52,-6.719l17.295,6.679l0.505,-1.105l3.947,1.145l0.78,-2.657l-20.346,-8.079Z" style="fill:#f6e9f1;fill-opacity:0.9;"/></g><path d="M31.293,39.042l0,4.084l-18.261,-6.194l-0.81,-9.813l19.071,11.923Z" style="fill:#577166;"/><clipPath id="_clip7"><path d="M31.293,39.042l0,4.084l-18.261,-6.194l-0.81,-9.813l19.071,11.923Z"/></clipPath><g clip-path="url(#_clip7)"><path d="M38.583,0.795l23.362,4.146l20.434,-2.683l-18.32,6.166l-2.114,2.452l2.952,2.237l-5.594,0.683l-2.467,2.242l-5.108,-3.563l-0.889,5.553l-17.598,-3.367l5.247,17.549l-3.953,9.296l0.943,6.876l6.033,20.287l-2.082,4.068l0.64,5.429l-24.101,-6.943l20.434,3.567l-1.612,-1.806l-23.931,-19.641l24.705,14.651l1.548,-0.258l-26.253,-19.501l25.543,15.028l-5.109,-7.14l-1.407,-6.279l-13.918,-9.272l12.442,3.996l-1.19,-2.552l-13.152,-7.502l1.9,-0.498l13.918,6.968l0.344,-1.119l-13.931,-5.683l14.502,3.589l3.57,-6.401l-33.729,-8.678l32.759,4.055l-2.108,-2.33l-5.108,-1.239l0,-5.23l5.108,-1.514l1.699,1.999l-0.177,1.402l-3.876,-0.071l4.299,3.277l0.669,0.493l-1.11,-3.583l0.151,-1.17l-0.431,-0.907l-1.725,-2.127l-0.595,-2.724l-4.012,-3.102l7.516,1.812l12.133,1.516l0.088,-1.718l-9.52,-6.719l17.295,6.679l0.505,-1.105l3.947,1.145l0.78,-2.657l-20.346,-8.079Z" style="fill:#f6e9f1;fill-opacity:0.4;"/></g><path d="M26.185,9.921l5.108,2.554l1.644,5.93l-5.669,0.257l0.752,3.207l6.135,2.254l2.247,6.232l-35.76,-7.663l25.543,-12.771Z" style="fill:#577166;"/><clipPath id="_clip8"><path d="M26.185,9.921l5.108,2.554l1.644,5.93l-5.669,0.257l0.752,3.207l6.135,2.254l2.247,6.232l-35.76,-7.663l25.543,-12.771Z"/></clipPath><g clip-path="url(#_clip8)"><path d="M60.639,76.825l-1.96,-9.996l5.98,-11.068l7.577,-3.789l-6.123,-2.047l-2.104,3.042l-0.404,-14.338l13.739,-12.438l-5.108,2.956l-5.109,2.339l-13.167,16.457l2.95,6.583l1.444,4.387l-1.444,7.793l-11.562,8.927l-13.981,3.141l-20.434,-3.324l20.434,-3.044l-10.217,-1.636l0,-6.157l-2.863,2.709l-7.354,-9.236l-3.729,-15.763l17.401,11.377l4.122,4.701l-0.319,-4.949l-2.149,-4.034l-13.6,-6.8l-4.271,-4.699l5.058,-5.125l11.418,1.995l-2.774,-2.781l-6.048,-1.384l-5.109,-3.078l0,1.847l-6.385,0.229l-7.387,-6.523l12.022,-7.762l10.29,6.823l0.045,-3.481l4.17,-1.197l-6.633,-7.177l14.312,-0.985l10.217,3.448l0,2.094l-2.754,7.836l-2.354,22.704l1.723,4.878l1.082,-9.677l2.303,-14.174l13.722,-6.86l-8.613,-4.461l-13.524,-10.013l8.415,-9.317l19.412,4.598l29.873,-0.39l-25.294,11.674l-1.724,6.773l3.276,0.334l0,-5.109l15.326,-5.2l19.255,-12.09l-80.558,-4.781l-32.158,44.306l19.562,50.649l52.085,-9.717" style="fill:#17244c;fill-opacity:0.7;"/><path d="M38.583,0.795l23.362,4.146l20.434,-2.683l-18.32,6.166l-2.114,2.452l2.952,2.237l-5.594,0.683l-2.467,2.242l-5.108,-3.563l-0.889,5.553l-17.598,-3.367l5.247,17.549l-3.953,9.296l0.943,6.876l6.033,20.287l-2.082,4.068l0.64,5.429l-24.101,-6.943l20.434,3.567l-1.612,-1.806l-23.931,-19.641l24.705,14.651l1.548,-0.258l-26.253,-19.501l25.543,15.028l-5.109,-7.14l-1.407,-6.279l-13.918,-9.272l12.442,3.996l-1.19,-2.552l-13.152,-7.502l1.9,-0.498l13.918,6.968l0.344,-1.119l-13.931,-5.683l14.502,3.589l3.57,-6.401l-33.729,-8.678l32.759,4.055l-2.108,-2.33l-5.108,-1.239l0,-5.23l5.108,-1.514l1.699,1.999l-0.177,1.402l-3.876,-0.071l4.299,3.277l0.669,0.493l-1.11,-3.583l0.151,-1.17l-0.431,-0.907l-1.725,-2.127l-0.595,-2.724l-4.012,-3.102l7.516,1.812l12.133,1.516l0.088,-1.718l-9.52,-6.719l17.295,6.679l0.505,-1.105l3.947,1.145l0.78,-2.657l-20.346,-8.079Z" style="fill:#f6e9f1;fill-opacity:0.4;"/></g><path d="M0.642,22.692l35.76,7.663l-5.109,8.758l-15.325,-4.866l15.325,8.879l0,5.109l-20.434,-10.217l-5.108,-7.663l-5.109,-7.663Z" style="fill:#394153;"/><clipPath id="_clip9"><path d="M0.642,22.692l35.76,7.663l-5.109,8.758l-15.325,-4.866l15.325,8.879l0,5.109l-20.434,-10.217l-5.108,-7.663l-5.109,-7.663Z"/></clipPath><g clip-path="url(#_clip9)"><path d="M60.639,76.825l-1.96,-9.996l5.98,-11.068l7.577,-3.789l-6.123,-2.047l-2.104,3.042l-0.404,-14.338l13.739,-12.438l-5.108,2.956l-5.109,2.339l-13.167,16.457l2.95,6.583l1.444,4.387l-1.444,7.793l-11.562,8.927l-13.981,3.141l-20.434,-3.324l20.434,-3.044l-10.217,-1.636l0,-6.157l-2.863,2.709l-7.354,-9.236l-3.729,-15.763l17.401,11.377l4.122,4.701l-0.319,-4.949l-2.149,-4.034l-13.6,-6.8l-4.271,-4.699l5.058,-5.125l11.418,1.995l-2.774,-2.781l-6.048,-1.384l-5.109,-3.078l0,1.847l-6.385,0.229l-7.387,-6.523l12.022,-7.762l10.29,6.823l0.045,-3.481l4.17,-1.197l-6.633,-7.177l14.312,-0.985l10.217,3.448l0,2.094l-2.754,7.836l-2.354,22.704l1.723,4.878l1.082,-9.677l2.303,-14.174l13.722,-6.86l-8.613,-4.461l-13.524,-10.013l8.415,-9.317l19.412,4.598l29.873,-0.39l-25.294,11.674l-1.724,6.773l3.276,0.334l0,-5.109l15.326,-5.2l19.255,-12.09l-80.558,-4.781l-32.158,44.306l19.562,50.649l52.085,-9.717" style="fill:#17244c;fill-opacity:0.7;"/><path d="M38.583,0.795l23.362,4.146l20.434,-2.683l-18.32,6.166l-2.114,2.452l2.952,2.237l-5.594,0.683l-2.467,2.242l-5.108,-3.563l-0.889,5.553l-17.598,-3.367l5.247,17.549l-3.953,9.296l0.943,6.876l6.033,20.287l-2.082,4.068l0.64,5.429l-24.101,-6.943l20.434,3.567l-1.612,-1.806l-23.931,-19.641l24.705,14.651l1.548,-0.258l-26.253,-19.501l25.543,15.028l-5.109,-7.14l-1.407,-6.279l-13.918,-9.272l12.442,3.996l-1.19,-2.552l-13.152,-7.502l1.9,-0.498l13.918,6.968l0.344,-1.119l-13.931,-5.683l14.502,3.589l3.57,-6.401l-33.729,-8.678l32.759,4.055l-2.108,-2.33l-5.108,-1.239l0,-5.23l5.108,-1.514l1.699,1.999l-0.177,1.402l-3.876,-0.071l4.299,3.277l0.669,0.493l-1.11,-3.583l0.151,-1.17l-0.431,-0.907l-1.725,-2.127l-0.595,-2.724l-4.012,-3.102l7.516,1.812l12.133,1.516l0.088,-1.718l-9.52,-6.719l17.295,6.679l0.505,-1.105l3.947,1.145l0.78,-2.657l-20.346,-8.079Z" style="fill:#f6e9f1;fill-opacity:0.4;"/></g><path d="M40.026,78.144l-24.058,-6.921l-5.109,-17.88l0,-5.108l30.652,20.434l-5.109,2.554l3.624,6.921Z" style="fill:#577166;"/><clipPath id="_clip10"><path d="M40.026,78.144l-24.058,-6.921l-5.109,-17.88l0,-5.108l30.652,20.434l-5.109,2.554l3.624,6.921Z"/></clipPath><g clip-path="url(#_clip10)"><path d="M38.583,0.795l23.362,4.146l20.434,-2.683l-18.32,6.166l-2.114,2.452l2.952,2.237l-5.594,0.683l-2.467,2.242l-5.108,-3.563l-0.889,5.553l-17.598,-3.367l5.247,17.549l-3.953,9.296l0.943,6.876l6.033,20.287l-2.082,4.068l0.64,5.429l-24.101,-6.943l20.434,3.567l-1.612,-1.806l-23.931,-19.641l24.705,14.651l1.548,-0.258l-26.253,-19.501l25.543,15.028l-5.109,-7.14l-1.407,-6.279l-13.918,-9.272l12.442,3.996l-1.19,-2.552l-13.152,-7.502l1.9,-0.498l13.918,6.968l0.344,-1.119l-13.931,-5.683l14.502,3.589l3.57,-6.401l-33.729,-8.678l32.759,4.055l-2.108,-2.33l-5.108,-1.239l0,-5.23l5.108,-1.514l1.699,1.999l-0.177,1.402l-3.876,-0.071l4.299,3.277l0.669,0.493l-1.11,-3.583l0.151,-1.17l-0.431,-0.907l-1.725,-2.127l-0.595,-2.724l-4.012,-3.102l7.516,1.812l12.133,1.516l0.088,-1.718l-9.52,-6.719l17.295,6.679l0.505,-1.105l3.947,1.145l0.78,-2.657l-20.346,-8.079Z" style="fill:#f6e9f1;fill-opacity:0.4;"/></g><path d="M10.859,38.018l5.109,2.554l-5.109,7.663l30.652,20.434l-10.218,-20.434l-20.434,-10.217Z" style="fill:#394153;"/><clipPath id="_clip11"><path d="M10.859,38.018l5.109,2.554l-5.109,7.663l30.652,20.434l-10.218,-20.434l-20.434,-10.217Z"/></clipPath><g clip-path="url(#_clip11)"><path d="M60.639,76.825l-1.96,-9.996l5.98,-11.068l7.577,-3.789l-6.123,-2.047l-2.104,3.042l-0.404,-14.338l13.739,-12.438l-5.108,2.956l-5.109,2.339l-13.167,16.457l2.95,6.583l1.444,4.387l-1.444,7.793l-11.562,8.927l-13.981,3.141l-20.434,-3.324l20.434,-3.044l-10.217,-1.636l0,-6.157l-2.863,2.709l-7.354,-9.236l-3.729,-15.763l17.401,11.377l4.122,4.701l-0.319,-4.949l-2.149,-4.034l-13.6,-6.8l-4.271,-4.699l5.058,-5.125l11.418,1.995l-2.774,-2.781l-6.048,-1.384l-5.109,-3.078l0,1.847l-6.385,0.229l-7.387,-6.523l12.022,-7.762l10.29,6.823l0.045,-3.481l4.17,-1.197l-6.633,-7.177l14.312,-0.985l10.217,3.448l0,2.094l-2.754,7.836l-2.354,22.704l1.723,4.878l1.082,-9.677l2.303,-14.174l13.722,-6.86l-8.613,-4.461l-13.524,-10.013l8.415,-9.317l19.412,4.598l29.873,-0.39l-25.294,11.674l-1.724,6.773l3.276,0.334l0,-5.109l15.326,-5.2l19.255,-12.09l-80.558,-4.781l-32.158,44.306l19.562,50.649l52.085,-9.717" style="fill:#17244c;fill-opacity:0.7;"/><path d="M38.583,0.795l23.362,4.146l20.434,-2.683l-18.32,6.166l-2.114,2.452l2.952,2.237l-5.594,0.683l-2.467,2.242l-5.108,-3.563l-0.889,5.553l-17.598,-3.367l5.247,17.549l-3.953,9.296l0.943,6.876l6.033,20.287l-2.082,4.068l0.64,5.429l-24.101,-6.943l20.434,3.567l-1.612,-1.806l-23.931,-19.641l24.705,14.651l1.548,-0.258l-26.253,-19.501l25.543,15.028l-5.109,-7.14l-1.407,-6.279l-13.918,-9.272l12.442,3.996l-1.19,-2.552l-13.152,-7.502l1.9,-0.498l13.918,6.968l0.344,-1.119l-13.931,-5.683l14.502,3.589l3.57,-6.401l-33.729,-8.678l32.759,4.055l-2.108,-2.33l-5.108,-1.239l0,-5.23l5.108,-1.514l1.699,1.999l-0.177,1.402l-3.876,-0.071l4.299,3.277l0.669,0.493l-1.11,-3.583l0.151,-1.17l-0.431,-0.907l-1.725,-2.127l-0.595,-2.724l-4.012,-3.102l7.516,1.812l12.133,1.516l0.088,-1.718l-9.52,-6.719l17.295,6.679l0.505,-1.105l3.947,1.145l0.78,-2.657l-20.346,-8.079Z" style="fill:#f6e9f1;fill-opacity:0.4;"/></g><path d="M10.859,53.343l25.543,17.88l3.205,6.711l-23.639,-6.711l-5.109,-17.88Z" style="fill:#394153;"/><clipPath id="_clip12"><path d="M10.859,53.343l25.543,17.88l3.205,6.711l-23.639,-6.711l-5.109,-17.88Z"/></clipPath><g clip-path="url(#_clip12)"><path d="M60.639,76.825l-1.96,-9.996l5.98,-11.068l7.577,-3.789l-6.123,-2.047l-2.104,3.042l-0.404,-14.338l13.739,-12.438l-5.108,2.956l-5.109,2.339l-13.167,16.457l2.95,6.583l1.444,4.387l-1.444,7.793l-11.562,8.927l-13.981,3.141l-20.434,-3.324l20.434,-3.044l-10.217,-1.636l0,-6.157l-2.863,2.709l-7.354,-9.236l-3.729,-15.763l17.401,11.377l4.122,4.701l-0.319,-4.949l-2.149,-4.034l-13.6,-6.8l-4.271,-4.699l5.058,-5.125l11.418,1.995l-2.774,-2.781l-6.048,-1.384l-5.109,-3.078l0,1.847l-6.385,0.229l-7.387,-6.523l12.022,-7.762l10.29,6.823l0.045,-3.481l4.17,-1.197l-6.633,-7.177l14.312,-0.985l10.217,3.448l0,2.094l-2.754,7.836l-2.354,22.704l1.723,4.878l1.082,-9.677l2.303,-14.174l13.722,-6.86l-8.613,-4.461l-13.524,-10.013l8.415,-9.317l19.412,4.598l29.873,-0.39l-25.294,11.674l-1.724,6.773l3.276,0.334l0,-5.109l15.326,-5.2l19.255,-12.09l-80.558,-4.781l-32.158,44.306l19.562,50.649l52.085,-9.717" style="fill:#17244c;fill-opacity:0.7;"/><path d="M38.583,0.795l23.362,4.146l20.434,-2.683l-18.32,6.166l-2.114,2.452l2.952,2.237l-5.594,0.683l-2.467,2.242l-5.108,-3.563l-0.889,5.553l-17.598,-3.367l5.247,17.549l-3.953,9.296l0.943,6.876l6.033,20.287l-2.082,4.068l0.64,5.429l-24.101,-6.943l20.434,3.567l-1.612,-1.806l-23.931,-19.641l24.705,14.651l1.548,-0.258l-26.253,-19.501l25.543,15.028l-5.109,-7.14l-1.407,-6.279l-13.918,-9.272l12.442,3.996l-1.19,-2.552l-13.152,-7.502l1.9,-0.498l13.918,6.968l0.344,-1.119l-13.931,-5.683l14.502,3.589l3.57,-6.401l-33.729,-8.678l32.759,4.055l-2.108,-2.33l-5.108,-1.239l0,-5.23l5.108,-1.514l1.699,1.999l-0.177,1.402l-3.876,-0.071l4.299,3.277l0.669,0.493l-1.11,-3.583l0.151,-1.17l-0.431,-0.907l-1.725,-2.127l-0.595,-2.724l-4.012,-3.102l7.516,1.812l12.133,1.516l0.088,-1.718l-9.52,-6.719l17.295,6.679l0.505,-1.105l3.947,1.145l0.78,-2.657l-20.346,-8.079Z" style="fill:#f6e9f1;fill-opacity:0.4;"/></g><path d="M38.53,0.768l-2.128,4.044l20.434,10.218l0,-2.297l5.974,0.175l-3.32,-1.66l2.455,-3.881l-23.415,-6.599Z" style="fill:#577166;"/><clipPath id="_clip13"><path d="M38.53,0.768l-2.128,4.044l20.434,10.218l0,-2.297l5.974,0.175l-3.32,-1.66l2.455,-3.881l-23.415,-6.599Z"/></clipPath><g clip-path="url(#_clip13)"><path d="M38.583,0.795l23.362,4.146l20.434,-2.683l-18.32,6.166l-2.114,2.452l2.952,2.237l-5.594,0.683l-2.467,2.242l-5.108,-3.563l-0.889,5.553l-17.598,-3.367l5.247,17.549l-3.953,9.296l0.943,6.876l6.033,20.287l-2.082,4.068l0.64,5.429l-24.101,-6.943l20.434,3.567l-1.612,-1.806l-23.931,-19.641l24.705,14.651l1.548,-0.258l-26.253,-19.501l25.543,15.028l-5.109,-7.14l-1.407,-6.279l-13.918,-9.272l12.442,3.996l-1.19,-2.552l-13.152,-7.502l1.9,-0.498l13.918,6.968l0.344,-1.119l-13.931,-5.683l14.502,3.589l3.57,-6.401l-33.729,-8.678l32.759,4.055l-2.108,-2.33l-5.108,-1.239l0,-5.23l5.108,-1.514l1.699,1.999l-0.177,1.402l-3.876,-0.071l4.299,3.277l0.669,0.493l-1.11,-3.583l0.151,-1.17l-0.431,-0.907l-1.725,-2.127l-0.595,-2.724l-4.012,-3.102l7.516,1.812l12.133,1.516l0.088,-1.718l-9.52,-6.719l17.295,6.679l0.505,-1.105l3.947,1.145l0.78,-2.657l-20.346,-8.079Z" style="fill:#f6e9f1;fill-opacity:0.9;"/></g></g></g><g><path d="M57.842,25.68l11.759,26.894l4.592,1.906l-13.569,-29.731l-2.782,0.931Z" style="fill:#394153;"/><path d="M58.186,36.213l-8.37,2.554l-3.507,-1.257l11.643,-3.923l0.234,2.626Z" style="fill:none;"/><path d="M64.103,55.345l4.738,1.763l5.349,-2.599l-4.643,-1.827l-5.444,2.663Z" style="fill:none;"/><path d="M40.762,59.238l-0.384,-27.672l17.464,-5.886l11.705,27.002l-5.444,2.663l-8.903,-20.831l-8.891,2.996l0.059,19.066l-5.606,2.662Z" style="fill:#6a7894;"/><path d="M45.189,60.612l-4.427,-1.374l5.66,-2.824l4.156,1.221l-5.389,2.977Z" style="fill:none;"/><path d="M46.309,37.51l3.344,1.385l0.905,18.708l-4.244,-1.135l-0.005,-18.958" style="fill:#394153;"/></g></g></svg>