<?xml version="1.0" encoding="UTF-8" standalone="no"?><!DOCTYPE svg PUBLIC "-//W3C//DTD SVG 1.1//EN" "http://www.w3.org/Graphics/SVG/1.1/DTD/svg11.dtd"><svg width="100%" height="100%" viewBox="0 0 90 105" version="1.1" xmlns="http://www.w3.org/2000/svg" xmlns:xlink="http://www.w3.org/1999/xlink" xml:space="preserve" xmlns:serif="http://www.serif.com/" style="fill-rule:evenodd;clip-rule:evenodd;stroke-linejoin:round;stroke-miterlimit:1.41421;"><g id="N_Runestone_grass_1"><g id="F_Runestone_runes_1"><g><g><g><path d="M60.597,0.266l20.434,10.217l-20.434,10.217l-20.434,-10.217l20.434,-10.217Z" style="fill:#9da8c9;"/><clipPath id="_clip1"><path d="M60.597,0.266l20.434,10.217l-20.434,10.217l-20.434,-10.217l20.434,-10.217Z"/></clipPath><g clip-path="url(#_clip1)"><path d="M81.031,10.483l-20.434,7.207l-20.434,-7.207l16.529,11.037l-2.017,4.234l-4.295,0.054l-20.434,-10.217l15.326,9.861l-14.488,7.762l-21.272,-7.406l18.954,12.849l-0.446,18.766l-18.508,-6.072l5.109,2.554l15.325,10.055l2.855,-2.621l-2.855,7.762l-20.434,-7.533l18.752,12.069l1.682,23.691l1.936,-24.575l4.714,-14.51l-4.299,0.676l0.403,-5.141l-1.311,-16.129l18.225,-7.115l8.697,-0.76l5.175,-7.63l17.545,-11.661Z" style="fill:#f6e9f1;fill-opacity:0.9;"/></g><path d="M29.946,15.591l-20.434,10.217l20.434,10.218l20.434,-10.218l-20.434,-10.217" style="fill:#9da8c9;"/><clipPath id="_clip2"><path d="M29.946,15.591l-20.434,10.217l20.434,10.218l20.434,-10.218l-20.434,-10.217"/></clipPath><g clip-path="url(#_clip2)"><path d="M81.031,10.483l-20.434,7.207l-20.434,-7.207l16.529,11.037l-2.017,4.234l-4.295,0.054l-20.434,-10.217l15.326,9.861l-14.488,7.762l-21.272,-7.406l18.954,12.849l-0.446,18.766l-18.508,-6.072l5.109,2.554l15.325,10.055l2.855,-2.621l-2.855,7.762l-20.434,-7.533l18.752,12.069l1.682,23.691l1.936,-24.575l4.714,-14.51l-4.299,0.676l0.403,-5.141l-1.311,-16.129l18.225,-7.115l8.697,-0.76l5.175,-7.63l17.545,-11.661Z" style="fill:#f6e9f1;fill-opacity:0.9;"/></g><path d="M40.163,10.483l-5.108,7.663l20.434,10.217l5.108,-7.663l-20.434,-10.217Z" style="fill:#577166;"/><clipPath id="_clip3"><path d="M40.163,10.483l-5.108,7.663l20.434,10.217l5.108,-7.663l-20.434,-10.217Z"/></clipPath><g clip-path="url(#_clip3)"><path d="M83.663,69.135l-10.72,-7.911l-2.055,-16.353l-2.977,16.814l10.72,12.6l-15.707,10.328l-3.667,-13.492l1.414,-10.924l-5.108,4.654l0,13.226l-13.318,3.558l10.939,2.74l-11.142,12.484l-6.913,-10.65l-5.109,-3.656l-18.08,9.472l15.264,0.231l12.413,0.867l-4.488,7.71l-30.652,0.962l-2.387,-27.633l7.496,6.469l6.793,1.712l3.424,-1.712l-7.428,-3.714l-4.457,-12.445l-0.848,-23.451l12.733,8.959l1.983,4.117l1.42,-5.819l-3.403,-3.407l-11.817,-14.525l4.26,-17.456l17.774,16.656l-5.109,-17.88l11.545,-5.773l8.89,-4.444l7.847,9.032l4.367,5.295l3.111,-1.556l5.109,-4.977l-5.109,-3.079l0,2.947l-5.108,-2.554l2.564,-3.826l12.761,4.01l7.677,1.1l7.649,10.83l-1.661,12.599l1.661,31.481l7.734,-67.652l-72.439,-2.166l-40.256,53.097l18.116,65.252l76.628,-0.636l7.666,-41.511" style="fill:#17244c;fill-opacity:0.7;"/><path d="M81.031,10.483l-20.434,7.207l-20.434,-7.207l16.529,11.037l-2.017,4.234l-4.295,0.054l-20.434,-10.217l15.326,9.861l-14.488,7.762l-21.272,-7.406l18.954,12.849l-0.446,18.766l-18.508,-6.072l5.109,2.554l15.325,10.055l2.855,-2.621l-2.855,7.762l-20.434,-7.533l18.752,12.069l1.682,23.691l1.936,-24.575l4.714,-14.51l-4.299,0.676l0.403,-5.141l-1.311,-16.129l18.225,-7.115l8.697,-0.76l5.175,-7.63l17.545,-11.661Z" style="fill:#f6e9f1;fill-opacity:0.9;"/></g><path d="M81.031,10.483l-20.434,10.217l-5.108,7.663l-5.109,-2.555l-20.434,10.218l0,25.542l5.109,-2.554l-5.109,12.771l0,25.543l20.434,-10.217l0,-5.109l5.109,-2.554l5.108,2.554l20.434,-10.217l0,-30.651l-5.108,2.554l5.108,-12.771l0,-20.434" style="fill:#bac1d8;"/><clipPath id="_clip4"><path d="M81.031,10.483l-20.434,10.217l-5.108,7.663l-5.109,-2.555l-20.434,10.218l0,25.542l5.109,-2.554l-5.109,12.771l0,25.543l20.434,-10.217l0,-5.109l5.109,-2.554l5.108,2.554l20.434,-10.217l0,-30.651l-5.108,2.554l5.108,-12.771l0,-20.434"/></clipPath><g clip-path="url(#_clip4)"><path d="M81.031,10.483l-20.434,7.207l-20.434,-7.207l16.529,11.037l-2.017,4.234l-4.295,0.054l-20.434,-10.217l15.326,9.861l-14.488,7.762l-21.272,-7.406l18.954,12.849l-0.446,18.766l-18.508,-6.072l5.109,2.554l15.325,10.055l2.855,-2.621l-2.855,7.762l-20.434,-7.533l18.752,12.069l1.682,23.691l1.936,-24.575l4.714,-14.51l-4.299,0.676l0.403,-5.141l-1.311,-16.129l18.225,-7.115l8.697,-0.76l5.175,-7.63l17.545,-11.661Z" style="fill:#f6e9f1;fill-opacity:0.9;"/></g><path d="M9.512,25.808l20.434,10.218l0,25.542l-20.434,-10.217l0,-25.543Z" style="fill:#577166;"/><clipPath id="_clip5"><path d="M9.512,25.808l20.434,10.218l0,25.542l-20.434,-10.217l0,-25.543Z"/></clipPath><g clip-path="url(#_clip5)"><path d="M81.031,10.483l-20.434,7.207l-20.434,-7.207l16.529,11.037l-2.017,4.234l-4.295,0.054l-20.434,-10.217l15.326,9.861l-14.488,7.762l-21.272,-7.406l18.954,12.849l-0.446,18.766l-18.508,-6.072l5.109,2.554l15.325,10.055l2.855,-2.621l-2.855,7.762l-20.434,-7.533l18.752,12.069l1.682,23.691l1.936,-24.575l4.714,-14.51l-4.299,0.676l0.403,-5.141l-1.311,-16.129l18.225,-7.115l8.697,-0.76l5.175,-7.63l17.545,-11.661Z" style="fill:#f6e9f1;fill-opacity:0.4;"/></g><path d="M29.946,97.328l-20.434,-10.217l0,-25.543l20.434,10.217l0,25.543" style="fill:#577166;"/><clipPath id="_clip6"><path d="M29.946,97.328l-20.434,-10.217l0,-25.543l20.434,10.217l0,25.543"/></clipPath><g clip-path="url(#_clip6)"><path d="M81.031,10.483l-20.434,7.207l-20.434,-7.207l16.529,11.037l-2.017,4.234l-4.295,0.054l-20.434,-10.217l15.326,9.861l-14.488,7.762l-21.272,-7.406l18.954,12.849l-0.446,18.766l-18.508,-6.072l5.109,2.554l15.325,10.055l2.855,-2.621l-2.855,7.762l-20.434,-7.533l18.752,12.069l1.682,23.691l1.936,-24.575l4.714,-14.51l-4.299,0.676l0.403,-5.141l-1.311,-16.129l18.225,-7.115l8.697,-0.76l5.175,-7.63l17.545,-11.661Z" style="fill:#f6e9f1;fill-opacity:0.4;"/></g><path d="M9.512,51.351l5.109,2.554l-5.109,7.663l20.434,10.217l5.109,-12.771l-5.109,2.554l-20.434,-10.217Z" style="fill:#394153;"/><clipPath id="_clip7"><path d="M9.512,51.351l5.109,2.554l-5.109,7.663l20.434,10.217l5.109,-12.771l-5.109,2.554l-20.434,-10.217Z"/></clipPath><g clip-path="url(#_clip7)"><path d="M81.031,10.483l-20.434,7.207l-20.434,-7.207l16.529,11.037l-2.017,4.234l-4.295,0.054l-20.434,-10.217l15.326,9.861l-14.488,7.762l-21.272,-7.406l18.954,12.849l-0.446,18.766l-18.508,-6.072l5.109,2.554l15.325,10.055l2.855,-2.621l-2.855,7.762l-20.434,-7.533l18.752,12.069l1.682,23.691l1.936,-24.575l4.714,-14.51l-4.299,0.676l0.403,-5.141l-1.311,-16.129l18.225,-7.115l8.697,-0.76l5.175,-7.63l17.545,-11.661Z" style="fill:#f6e9f1;fill-opacity:0.4;"/></g></g></g></g></g><g><path d="M58.368,39.688l11.758,26.893l4.593,1.906l-13.569,-29.731l-2.782,0.932Z" style="fill:#394153;"/><path d="M58.712,50.22l-8.371,2.554l-3.506,-1.256l11.642,-3.924l0.235,2.626Z" style="fill:none;"/><path d="M64.628,69.352l4.739,1.763l5.349,-2.599l-4.644,-1.827l-5.444,2.663Z" style="fill:none;"/><path d="M41.288,73.245l-0.385,-27.672l17.465,-5.885l11.704,27.001l-5.444,2.663l-8.902,-20.831l-8.891,2.997l0.058,19.065l-5.605,2.662Z" style="fill:#6a7894;"/><path d="M45.714,74.619l-4.426,-1.374l5.659,-2.824l4.157,1.221l-5.39,2.977Z" style="fill:none;"/><path d="M46.835,51.518l3.343,1.384l0.906,18.708l-4.244,-1.135l-0.005,-18.957" style="fill:#394153;"/></g><path d="M80.838,51.105c0,0 9.856,8.577 8.777,14.606c-1.079,6.028 -3.229,13.233 -7.853,14.308c-1.72,0.4 0.847,2.21 -2.512,4.143c-0.177,0.102 -0.635,2.32 -0.823,2.423c-1.408,0.769 -16.227,7.243 -18.023,7.836c-5.677,1.876 0.863,-2.886 0,-2.447c-1.868,0.948 -9.278,-1.077 -18.368,4.075c-0.9,0.51 6.362,-0.801 5.508,-0.288c-7.774,4.667 -21.894,10.899 -28.008,8.234c-5.758,-2.509 -13.904,-2.61 -17.244,-6.763c-0.595,-0.741 2.436,-0.007 1.918,-1.167c-3.422,-7.661 -4.631,-9.677 -2.212,-14.113c0.371,-0.679 -2.212,0.031 -1.838,-0.725c2.071,-4.177 7.028,-10.584 7.483,-12.178c0.538,-1.882 1.676,-2.618 1.676,-2.618l0,15.326c1.439,-0.258 2.786,-0.71 5.108,0.915c1.38,0.442 2.57,0.879 3.599,1.312c0.67,0.282 3.818,0.012 4.361,0.291c7.442,3.83 1.155,8.023 7.366,12.807l3.965,-3.126c1.597,-2.546 5.901,-2.495 9.298,-3.506c2.588,-0.77 1.704,-3.862 4.892,-4.725l5.763,-2.226l1.625,-4.297c-0.489,-1.367 -0.424,-2.743 1.91,-4.153c0.586,0.424 1.04,1.66 1.516,1.284c1.15,-0.91 0.484,0.521 0.685,0.783c1.153,1.508 1.414,3.058 0.997,4.641c3.435,-4.108 4.415,-5.117 7.045,-6.695c1.078,-0.647 2.155,0.061 3.776,0.057c0.821,-0.002 1.43,-0.894 2.327,-1.148c0.698,-0.197 1.723,0.252 2.178,0.123c0.902,-0.256 0.306,-1.397 0.876,-1.831c1.052,-0.798 3.031,-0.905 4.232,-0.723c0.005,-0.567 -1.712,-1.456 -1.709,-2.023c0.008,-1.369 1.578,-1.739 1.709,-3.086c0.467,-4.782 0.007,-10.451 0,-15.326Z" style="fill:#45545e;"/><clipPath id="_clip8"><path d="M80.838,51.105c0,0 9.856,8.577 8.777,14.606c-1.079,6.028 -3.229,13.233 -7.853,14.308c-1.72,0.4 0.847,2.21 -2.512,4.143c-0.177,0.102 -0.635,2.32 -0.823,2.423c-1.408,0.769 -16.227,7.243 -18.023,7.836c-5.677,1.876 0.863,-2.886 0,-2.447c-1.868,0.948 -9.278,-1.077 -18.368,4.075c-0.9,0.51 6.362,-0.801 5.508,-0.288c-7.774,4.667 -21.894,10.899 -28.008,8.234c-5.758,-2.509 -13.904,-2.61 -17.244,-6.763c-0.595,-0.741 2.436,-0.007 1.918,-1.167c-3.422,-7.661 -4.631,-9.677 -2.212,-14.113c0.371,-0.679 -2.212,0.031 -1.838,-0.725c2.071,-4.177 7.028,-10.584 7.483,-12.178c0.538,-1.882 1.676,-2.618 1.676,-2.618l0,15.326c1.439,-0.258 2.786,-0.71 5.108,0.915c1.38,0.442 2.57,0.879 3.599,1.312c0.67,0.282 3.818,0.012 4.361,0.291c7.442,3.83 1.155,8.023 7.366,12.807l3.965,-3.126c1.597,-2.546 5.901,-2.495 9.298,-3.506c2.588,-0.77 1.704,-3.862 4.892,-4.725l5.763,-2.226l1.625,-4.297c-0.489,-1.367 -0.424,-2.743 1.91,-4.153c0.586,0.424 1.04,1.66 1.516,1.284c1.15,-0.91 0.484,0.521 0.685,0.783c1.153,1.508 1.414,3.058 0.997,4.641c3.435,-4.108 4.415,-5.117 7.045,-6.695c1.078,-0.647 2.155,0.061 3.776,0.057c0.821,-0.002 1.43,-0.894 2.327,-1.148c0.698,-0.197 1.723,0.252 2.178,0.123c0.902,-0.256 0.306,-1.397 0.876,-1.831c1.052,-0.798 3.031,-0.905 4.232,-0.723c0.005,-0.567 -1.712,-1.456 -1.709,-2.023c0.008,-1.369 1.578,-1.739 1.709,-3.086c0.467,-4.782 0.007,-10.451 0,-15.326Z"/></clipPath><g clip-path="url(#_clip8)"><path d="M83.901,45.55l19.321,40.312l-81.441,30.799l53.134,-50.061l3.663,-22.265l5.323,1.215Z" style="fill:#c4e783;fill-opacity:0.5;"/><path d="M91.055,56.214c0.018,-1.108 -5.108,2.554 -5.108,2.554l-1.934,6.076l0.416,3.382l0.242,5.23l-1.007,1.779c0,0 1.052,0.274 -2.826,1.413c-3.878,1.14 -7.243,1.487 -7.243,1.487l-2.974,0.661l-2.363,1.779l-2.745,3.736l-5.109,2.554l-1.609,-0.804l1.609,-4.304l-2.724,-1.362l-0.834,4.691l0.672,0.336l-2.222,2.11l-5.109,1.344l-3.042,-0.49l-2.066,4.018l-5.109,-0.43l-1.763,0.881c0,0 0.222,0.84 -2.102,2.295c-2.323,1.455 -1.595,1.006 -4.395,2.911c-2.8,1.904 -4.664,2.776 -4.664,2.776c0,0 -1.458,6.016 -2.402,0.976c-0.943,-5.04 2.792,-3.36 0,-5.544c-2.791,-2.184 0.323,-2.196 -2.41,-2.946c-2.733,-0.751 -6.328,-0.032 -7.807,1.205c-1.478,1.237 0.073,4.843 -1.879,0.94c-1.951,-3.904 -2.491,-3.904 -3.229,-6.592c-0.739,-2.688 -1.332,-2.677 -1.332,-2.677l-1.21,-0.605l-2.567,-1.283c0,0 -1.178,1.205 0,-1.483c1.178,-2.688 5.375,-1.539 0,-3.626c-5.374,-2.086 -6.549,-2.588 -9.07,-0.573c-2.52,2.015 -4.287,-5.036 -3.404,9.662c0.884,14.698 -12.459,17.358 5.805,23.336c18.264,5.979 13.398,8.656 32.212,5.889c18.814,-2.766 20.479,-2.43 30.651,-7.807c10.172,-5.376 11.476,1.09 21.912,-11.888c10.437,-12.977 10.37,-9.812 13.848,-18.619c3.478,-8.807 7.915,-10.991 5.108,-14.183c-2.806,-3.192 -10.235,-7.697 -10.217,-8.805Z" style="fill:#66b394;"/><clipPath id="_clip9"><path d="M91.055,56.214c0.018,-1.108 -5.108,2.554 -5.108,2.554l-1.934,6.076l0.416,3.382l0.242,5.23l-1.007,1.779c0,0 1.052,0.274 -2.826,1.413c-3.878,1.14 -7.243,1.487 -7.243,1.487l-2.974,0.661l-2.363,1.779l-2.745,3.736l-5.109,2.554l-1.609,-0.804l1.609,-4.304l-2.724,-1.362l-0.834,4.691l0.672,0.336l-2.222,2.11l-5.109,1.344l-3.042,-0.49l-2.066,4.018l-5.109,-0.43l-1.763,0.881c0,0 0.222,0.84 -2.102,2.295c-2.323,1.455 -1.595,1.006 -4.395,2.911c-2.8,1.904 -4.664,2.776 -4.664,2.776c0,0 -1.458,6.016 -2.402,0.976c-0.943,-5.04 2.792,-3.36 0,-5.544c-2.791,-2.184 0.323,-2.196 -2.41,-2.946c-2.733,-0.751 -6.328,-0.032 -7.807,1.205c-1.478,1.237 0.073,4.843 -1.879,0.94c-1.951,-3.904 -2.491,-3.904 -3.229,-6.592c-0.739,-2.688 -1.332,-2.677 -1.332,-2.677l-1.21,-0.605l-2.567,-1.283c0,0 -1.178,1.205 0,-1.483c1.178,-2.688 5.375,-1.539 0,-3.626c-5.374,-2.086 -6.549,-2.588 -9.07,-0.573c-2.52,2.015 -4.287,-5.036 -3.404,9.662c0.884,14.698 -12.459,17.358 5.805,23.336c18.264,5.979 13.398,8.656 32.212,5.889c18.814,-2.766 20.479,-2.43 30.651,-7.807c10.172,-5.376 11.476,1.09 21.912,-11.888c10.437,-12.977 10.37,-9.812 13.848,-18.619c3.478,-8.807 7.915,-10.991 5.108,-14.183c-2.806,-3.192 -10.235,-7.697 -10.217,-8.805Z"/></clipPath><g clip-path="url(#_clip9)"><path d="M83.901,45.55l19.321,40.312l-81.441,30.799l53.134,-50.061l3.663,-22.265l5.323,1.215Z" style="fill:#c4e783;fill-opacity:0.5;"/></g><path d="M20.421,75.113l-19.491,33.589l-12.86,-32.779c0,0 18.886,-21.304 20.434,-19.586c1.548,1.718 11.917,18.776 11.917,18.776Z" style="fill-opacity:0.5;"/></g></g></svg>