<?xml version="1.0" encoding="UTF-8" standalone="no"?><!DOCTYPE svg PUBLIC "-//W3C//DTD SVG 1.1//EN" "http://www.w3.org/Graphics/SVG/1.1/DTD/svg11.dtd"><svg width="100%" height="100%" viewBox="0 0 73 85" version="1.1" xmlns="http://www.w3.org/2000/svg" xmlns:xlink="http://www.w3.org/1999/xlink" xml:space="preserve" xmlns:serif="http://www.serif.com/" style="fill-rule:evenodd;clip-rule:evenodd;stroke-linejoin:round;stroke-miterlimit:1.41421;"><g id="N_Runestone_2"><g><g><path d="M51.834,0.444l20.434,5.108l-20.434,5.109l-20.434,-10.217l20.434,0Z" style="fill:#9da8c9;"/><clipPath id="_clip1"><path d="M51.834,0.444l20.434,5.108l-20.434,5.109l-20.434,-10.217l20.434,0Z"/></clipPath><g clip-path="url(#_clip1)"><path d="M72.268,5.552l-18.482,6.9l-1.278,3.654l-0.674,5.443l-9.596,1.806l0.581,-4.774l-16.528,14.129l-5.108,1.548l2.539,16.645l4.645,15.226l-5.301,-0.216l1.043,11.184l2.182,7.637l-6.117,-5.766l-19.426,-12.114l18.168,6.242l-0.629,-9.902l-17.539,-10.033l0,-1.632l7.619,2.277l13.807,5.033l-4.452,-7.484l-4.129,-1.871l2.481,-0.509l-15.326,-7.663l15.326,4.688l-1.191,-14.839l-14.135,-15.392l20.435,12.102l12.281,-9.613l4.129,-2.322l-16.41,-10.384l26.546,13.273l-1.004,-5.61l0.61,-2.118l-15.935,-10.653l20.434,7.814l7.307,-2.387l13.127,-0.319Z" style="fill:#f6e9f1;fill-opacity:0.9;"/></g><path d="M21.183,5.552l-5.109,7.663l-15.326,2.554l17.853,14.035l6.39,1.254l11.517,-12.735l5.109,-2.554l-20.434,-10.217" style="fill:#9da8c9;"/><clipPath id="_clip2"><path d="M21.183,5.552l-5.109,7.663l-15.326,2.554l17.853,14.035l6.39,1.254l11.517,-12.735l5.109,-2.554l-20.434,-10.217"/></clipPath><g clip-path="url(#_clip2)"><path d="M72.268,5.552l-18.482,6.9l-1.278,3.654l-0.674,5.443l-9.596,1.806l0.581,-4.774l-16.528,14.129l-5.108,1.548l2.539,16.645l4.645,15.226l-5.301,-0.216l1.043,11.184l2.182,7.637l-6.117,-5.766l-19.426,-12.114l18.168,6.242l-0.629,-9.902l-17.539,-10.033l0,-1.632l7.619,2.277l13.807,5.033l-4.452,-7.484l-4.129,-1.871l2.481,-0.509l-15.326,-7.663l15.326,4.688l-1.191,-14.839l-14.135,-15.392l20.435,12.102l12.281,-9.613l4.129,-2.322l-16.41,-10.384l26.546,13.273l-1.004,-5.61l0.61,-2.118l-15.935,-10.653l20.434,7.814l7.307,-2.387l13.127,-0.319Z" style="fill:#f6e9f1;fill-opacity:0.9;"/></g><path d="M72.268,5.552l-20.434,5.109l-5.109,7.662l-5.108,-2.554l-5.109,2.554l-11.468,12.687l-6.441,-1.207l2.584,21.726l5.108,12.771l-5.108,-2.554l0,15.325l5.108,7.663l15.326,-7.663l0,-5.108l5.108,-2.554l5.109,2.554l17.456,-8.728l1.11,-22.857l1.868,-9.283l-5.109,2.554l5.109,-12.771l0,-15.326Z" style="fill:#bac1d8;"/><clipPath id="_clip3"><path d="M72.268,5.552l-20.434,5.109l-5.109,7.662l-5.108,-2.554l-5.109,2.554l-11.468,12.687l-6.441,-1.207l2.584,21.726l5.108,12.771l-5.108,-2.554l0,15.325l5.108,7.663l15.326,-7.663l0,-5.108l5.108,-2.554l5.109,2.554l17.456,-8.728l1.11,-22.857l1.868,-9.283l-5.109,2.554l5.109,-12.771l0,-15.326Z"/></clipPath><g clip-path="url(#_clip3)"><path d="M72.268,5.552l-18.482,6.9l-1.278,3.654l-0.674,5.443l-9.596,1.806l0.581,-4.774l-16.528,14.129l-5.108,1.548l2.539,16.645l4.645,15.226l-5.301,-0.216l1.043,11.184l2.182,7.637l-6.117,-5.766l-19.426,-12.114l18.168,6.242l-0.629,-9.902l-17.539,-10.033l0,-1.632l7.619,2.277l13.807,5.033l-4.452,-7.484l-4.129,-1.871l2.481,-0.509l-15.326,-7.663l15.326,4.688l-1.191,-14.839l-14.135,-15.392l20.435,12.102l12.281,-9.613l4.129,-2.322l-16.41,-10.384l26.546,13.273l-1.004,-5.61l0.61,-2.118l-15.935,-10.653l20.434,7.814l7.307,-2.387l13.127,-0.319Z" style="fill:#f6e9f1;fill-opacity:0.9;"/></g><path d="M0.748,15.769l17.853,14.035l2.582,21.725l-20.435,-10.217l1.888,-9.274l-1.888,-16.269Z" style="fill:#577166;"/><clipPath id="_clip4"><path d="M0.748,15.769l17.853,14.035l2.582,21.725l-20.435,-10.217l1.888,-9.274l-1.888,-16.269Z"/></clipPath><g clip-path="url(#_clip4)"><path d="M72.268,5.552l-18.482,6.9l-1.278,3.654l-0.674,5.443l-9.596,1.806l0.581,-4.774l-16.528,14.129l-5.108,1.548l2.539,16.645l4.645,15.226l-5.301,-0.216l1.043,11.184l2.182,7.637l-6.117,-5.766l-19.426,-12.114l18.168,6.242l-0.629,-9.902l-17.539,-10.033l0,-1.632l7.619,2.277l13.807,5.033l-4.452,-7.484l-4.129,-1.871l2.481,-0.509l-15.326,-7.663l15.326,4.688l-1.191,-14.839l-14.135,-15.392l20.435,12.102l12.281,-9.613l4.129,-2.322l-16.41,-10.384l26.546,13.273l-1.004,-5.61l0.61,-2.118l-15.935,-10.653l20.434,7.814l7.307,-2.387l13.127,-0.319Z" style="fill:#f6e9f1;fill-opacity:0.4;"/></g><path d="M26.291,84.734l-20.434,-10.217l-5.109,-7.663l0,-15.325l20.435,10.217l0,15.325l5.108,7.663Z" style="fill:#577166;"/><clipPath id="_clip5"><path d="M26.291,84.734l-20.434,-10.217l-5.109,-7.663l0,-15.325l20.435,10.217l0,15.325l5.108,7.663Z"/></clipPath><g clip-path="url(#_clip5)"><path d="M72.268,5.552l-18.482,6.9l-1.278,3.654l-0.674,5.443l-9.596,1.806l0.581,-4.774l-16.528,14.129l-5.108,1.548l2.539,16.645l4.645,15.226l-5.301,-0.216l1.043,11.184l2.182,7.637l-6.117,-5.766l-19.426,-12.114l18.168,6.242l-0.629,-9.902l-17.539,-10.033l0,-1.632l7.619,2.277l13.807,5.033l-4.452,-7.484l-4.129,-1.871l2.481,-0.509l-15.326,-7.663l15.326,4.688l-1.191,-14.839l-14.135,-15.392l20.435,12.102l12.281,-9.613l4.129,-2.322l-16.41,-10.384l26.546,13.273l-1.004,-5.61l0.61,-2.118l-15.935,-10.653l20.434,7.814l7.307,-2.387l13.127,-0.319Z" style="fill:#f6e9f1;fill-opacity:0.4;"/></g><path d="M0.748,41.312l15.326,7.663l-15.326,2.554l25.543,12.771l-5.108,-12.771l-20.435,-10.217Z" style="fill:#394153;"/><clipPath id="_clip6"><path d="M0.748,41.312l15.326,7.663l-15.326,2.554l25.543,12.771l-5.108,-12.771l-20.435,-10.217Z"/></clipPath><g clip-path="url(#_clip6)"><path d="M72.268,5.552l-18.482,6.9l-1.278,3.654l-0.674,5.443l-9.596,1.806l0.581,-4.774l-16.528,14.129l-5.108,1.548l2.539,16.645l4.645,15.226l-5.301,-0.216l1.043,11.184l2.182,7.637l-6.117,-5.766l-19.426,-12.114l18.168,6.242l-0.629,-9.902l-17.539,-10.033l0,-1.632l7.619,2.277l13.807,5.033l-4.452,-7.484l-4.129,-1.871l2.481,-0.509l-15.326,-7.663l15.326,4.688l-1.191,-14.839l-14.135,-15.392l20.435,12.102l12.281,-9.613l4.129,-2.322l-16.41,-10.384l26.546,13.273l-1.004,-5.61l0.61,-2.118l-15.935,-10.653l20.434,7.814l7.307,-2.387l13.127,-0.319Z" style="fill:#f6e9f1;fill-opacity:0.4;"/></g><path d="M0.748,66.854l20.435,10.217l5.108,7.663l-20.434,-10.217l-5.109,-7.663Z" style="fill:#394153;"/><clipPath id="_clip7"><path d="M0.748,66.854l20.435,10.217l5.108,7.663l-20.434,-10.217l-5.109,-7.663Z"/></clipPath><g clip-path="url(#_clip7)"><path d="M72.268,5.552l-18.482,6.9l-1.278,3.654l-0.674,5.443l-9.596,1.806l0.581,-4.774l-16.528,14.129l-5.108,1.548l2.539,16.645l4.645,15.226l-5.301,-0.216l1.043,11.184l2.182,7.637l-6.117,-5.766l-19.426,-12.114l18.168,6.242l-0.629,-9.902l-17.539,-10.033l0,-1.632l7.619,2.277l13.807,5.033l-4.452,-7.484l-4.129,-1.871l2.481,-0.509l-15.326,-7.663l15.326,4.688l-1.191,-14.839l-14.135,-15.392l20.435,12.102l12.281,-9.613l4.129,-2.322l-16.41,-10.384l26.546,13.273l-1.004,-5.61l0.61,-2.118l-15.935,-10.653l20.434,7.814l7.307,-2.387l13.127,-0.319Z" style="fill:#f6e9f1;fill-opacity:0.9;"/></g><path d="M31.4,0.444l-5.109,7.662l20.434,10.217l-2.438,3.89l5.527,-2.345l-0.435,-5.326l2.455,-3.881l-20.434,-10.217Z" style="fill:#577166;"/><clipPath id="_clip8"><path d="M31.4,0.444l-5.109,7.662l20.434,10.217l-2.438,3.89l5.527,-2.345l-0.435,-5.326l2.455,-3.881l-20.434,-10.217Z"/></clipPath><g clip-path="url(#_clip8)"><path d="M72.268,5.552l-18.482,6.9l-1.278,3.654l-0.674,5.443l-9.596,1.806l0.581,-4.774l-16.528,14.129l-5.108,1.548l2.539,16.645l4.645,15.226l-5.301,-0.216l1.043,11.184l2.182,7.637l-6.117,-5.766l-19.426,-12.114l18.168,6.242l-0.629,-9.902l-17.539,-10.033l0,-1.632l7.619,2.277l13.807,5.033l-4.452,-7.484l-4.129,-1.871l2.481,-0.509l-15.326,-7.663l15.326,4.688l-1.191,-14.839l-14.135,-15.392l20.435,12.102l12.281,-9.613l4.129,-2.322l-16.41,-10.384l26.546,13.273l-1.004,-5.61l0.61,-2.118l-15.935,-10.653l20.434,7.814l7.307,-2.387l13.127,-0.319Z" style="fill:#f6e9f1;fill-opacity:0.9;"/></g></g></g><g><path d="M49.354,28.55l11.759,26.894l4.592,1.905l-13.569,-29.73l-2.782,0.931Z" style="fill:#394153;"/><path d="M49.698,39.083l-8.37,2.553l-3.507,-1.256l11.643,-3.924l0.234,2.627Z" style="fill:none;"/><path d="M55.615,58.214l4.738,1.764l5.349,-2.6l-4.643,-1.826l-5.444,2.662Z" style="fill:none;"/><path d="M32.274,62.108l-0.384,-27.673l17.464,-5.885l11.705,27.002l-5.444,2.662l-8.903,-20.83l-8.891,2.996l0.059,19.065l-5.606,2.663Z" style="fill:#6a7894;"/><path d="M36.701,63.482l-4.427,-1.374l5.66,-2.825l4.156,1.222l-5.389,2.977Z" style="fill:none;"/><path d="M37.821,40.38l3.344,1.385l0.905,18.708l-4.244,-1.136l-0.005,-18.957" style="fill:#394153;"/></g></g></svg>