<?xml version="1.0" encoding="UTF-8" standalone="no"?><!DOCTYPE svg PUBLIC "-//W3C//DTD SVG 1.1//EN" "http://www.w3.org/Graphics/SVG/1.1/DTD/svg11.dtd"><svg width="100%" height="100%" viewBox="0 0 72 85" version="1.1" xmlns="http://www.w3.org/2000/svg" xmlns:xlink="http://www.w3.org/1999/xlink" xml:space="preserve" xmlns:serif="http://www.serif.com/" style="fill-rule:evenodd;clip-rule:evenodd;stroke-linejoin:round;stroke-miterlimit:1.41421;"><g id="Runestone_runes_2"><g><g><path d="M51.417,0.652l20.435,5.108l-20.435,5.109l-20.434,-10.217l20.434,0Z" style="fill:#9da8c9;"/><clipPath id="_clip1"><path d="M51.417,0.652l20.435,5.108l-20.435,5.109l-20.434,-10.217l20.434,0Z"/></clipPath><g clip-path="url(#_clip1)"><path d="M71.925,70.8l-8.122,-11.265l8.122,-14.278l-8.689,5.872l-1.528,-10.981l-5.108,-2.554l1.599,5.908l0.901,8.167l-7.609,3.805l-1.669,-4.274l-3.439,5.297l0,6.64l8.106,-1.056l7.219,6.731l-10.217,12.205l-15.325,-2.555l-10.217,-5.108l-1.553,5.885l1.553,-0.777l7.89,3.946l-38.541,1.163l0,-20.434l18.658,5.996l-18.658,-16.213l0,-15.326l7.231,8.725l10.173,-7.21l-14.22,-18.433l9.123,-17.796l3.018,13.21l5.109,6.179l10.217,-3.293l0,-6.924l-2.676,6.446l-7.541,-1.338l10.217,-11.653l6.839,-10.47l13.595,10.278l10.217,1.628l-5.109,-2.554l-3.673,-8.38l24.107,5.842l-5.108,10.201l3.652,3.282l-6.602,15.677l11.808,-2.955l3.085,-40.684l-80.272,5.841l-16.808,107.384l98.739,-15.333l-8.494,-14.464Z" style="fill:#17244c;fill-opacity:0.7;"/><path d="M71.852,5.76l-18.482,6.9l-1.278,3.654l-0.675,5.443l-9.595,1.806l0.581,-4.774l-16.528,14.129l-5.109,1.548l2.54,16.645l4.645,15.226l-5.302,-0.216l1.044,11.184l2.182,7.637l-6.117,-5.766l-19.426,-12.114l18.167,6.242l-0.628,-9.902l-17.539,-10.033l0,-1.632l7.619,2.278l13.807,5.032l-4.452,-7.484l-4.129,-1.871l2.481,-0.509l-15.326,-7.663l15.326,4.688l-1.191,-14.838l-14.135,-15.393l20.434,12.102l12.282,-9.613l4.129,-2.322l-16.411,-10.384l26.547,13.273l-1.004,-5.61l0.61,-2.118l-15.936,-10.653l20.434,7.814l7.308,-2.387l13.127,-0.319Z" style="fill:#f6e9f1;fill-opacity:0.9;"/></g><path d="M20.766,5.76l-5.108,7.663l-15.326,2.554l17.853,14.035l6.39,1.254l11.517,-12.735l5.108,-2.554l-20.434,-10.217" style="fill:#9da8c9;"/><clipPath id="_clip2"><path d="M20.766,5.76l-5.108,7.663l-15.326,2.554l17.853,14.035l6.39,1.254l11.517,-12.735l5.108,-2.554l-20.434,-10.217"/></clipPath><g clip-path="url(#_clip2)"><path d="M71.925,70.8l-8.122,-11.265l8.122,-14.278l-8.689,5.872l-1.528,-10.981l-5.108,-2.554l1.599,5.908l0.901,8.167l-7.609,3.805l-1.669,-4.274l-3.439,5.297l0,6.64l8.106,-1.056l7.219,6.731l-10.217,12.205l-15.325,-2.555l-10.217,-5.108l-1.553,5.885l1.553,-0.777l7.89,3.946l-38.541,1.163l0,-20.434l18.658,5.996l-18.658,-16.213l0,-15.326l7.231,8.725l10.173,-7.21l-14.22,-18.433l9.123,-17.796l3.018,13.21l5.109,6.179l10.217,-3.293l0,-6.924l-2.676,6.446l-7.541,-1.338l10.217,-11.653l6.839,-10.47l13.595,10.278l10.217,1.628l-5.109,-2.554l-3.673,-8.38l24.107,5.842l-5.108,10.201l3.652,3.282l-6.602,15.677l11.808,-2.955l3.085,-40.684l-80.272,5.841l-16.808,107.384l98.739,-15.333l-8.494,-14.464Z" style="fill:#17244c;fill-opacity:0.7;"/><path d="M71.852,5.76l-18.482,6.9l-1.278,3.654l-0.675,5.443l-9.595,1.806l0.581,-4.774l-16.528,14.129l-5.109,1.548l2.54,16.645l4.645,15.226l-5.302,-0.216l1.044,11.184l2.182,7.637l-6.117,-5.766l-19.426,-12.114l18.167,6.242l-0.628,-9.902l-17.539,-10.033l0,-1.632l7.619,2.278l13.807,5.032l-4.452,-7.484l-4.129,-1.871l2.481,-0.509l-15.326,-7.663l15.326,4.688l-1.191,-14.838l-14.135,-15.393l20.434,12.102l12.282,-9.613l4.129,-2.322l-16.411,-10.384l26.547,13.273l-1.004,-5.61l0.61,-2.118l-15.936,-10.653l20.434,7.814l7.308,-2.387l13.127,-0.319Z" style="fill:#f6e9f1;fill-opacity:0.9;"/></g><path d="M71.852,5.76l-20.435,5.109l-5.108,7.662l-5.109,-2.554l-5.108,2.554l-11.468,12.687l-6.441,-1.207l2.583,21.726l5.109,12.771l-5.109,-2.554l0,15.326l5.109,7.662l15.325,-7.662l0,-5.109l5.109,-2.554l5.108,2.554l17.456,-8.728l1.11,-22.857l1.869,-9.283l-5.109,2.554l5.109,-12.771l0,-15.326Z" style="fill:#bac1d8;"/><clipPath id="_clip3"><path d="M71.852,5.76l-20.435,5.109l-5.108,7.662l-5.109,-2.554l-5.108,2.554l-11.468,12.687l-6.441,-1.207l2.583,21.726l5.109,12.771l-5.109,-2.554l0,15.326l5.109,7.662l15.325,-7.662l0,-5.109l5.109,-2.554l5.108,2.554l17.456,-8.728l1.11,-22.857l1.869,-9.283l-5.109,2.554l5.109,-12.771l0,-15.326Z"/></clipPath><g clip-path="url(#_clip3)"><path d="M71.925,70.8l-8.122,-11.265l8.122,-14.278l-8.689,5.872l-1.528,-10.981l-5.108,-2.554l1.599,5.908l0.901,8.167l-7.609,3.805l-1.669,-4.274l-3.439,5.297l0,6.64l8.106,-1.056l7.219,6.731l-10.217,12.205l-15.325,-2.555l-10.217,-5.108l-1.553,5.885l1.553,-0.777l7.89,3.946l-38.541,1.163l0,-20.434l18.658,5.996l-18.658,-16.213l0,-15.326l7.231,8.725l10.173,-7.21l-14.22,-18.433l9.123,-17.796l3.018,13.21l5.109,6.179l10.217,-3.293l0,-6.924l-2.676,6.446l-7.541,-1.338l10.217,-11.653l6.839,-10.47l13.595,10.278l10.217,1.628l-5.109,-2.554l-3.673,-8.38l24.107,5.842l-5.108,10.201l3.652,3.282l-6.602,15.677l11.808,-2.955l3.085,-40.684l-80.272,5.841l-16.808,107.384l98.739,-15.333l-8.494,-14.464Z" style="fill:#17244c;fill-opacity:0.7;"/><path d="M71.852,5.76l-18.482,6.9l-1.278,3.654l-0.675,5.443l-9.595,1.806l0.581,-4.774l-16.528,14.129l-5.109,1.548l2.54,16.645l4.645,15.226l-5.302,-0.216l1.044,11.184l2.182,7.637l-6.117,-5.766l-19.426,-12.114l18.167,6.242l-0.628,-9.902l-17.539,-10.033l0,-1.632l7.619,2.278l13.807,5.032l-4.452,-7.484l-4.129,-1.871l2.481,-0.509l-15.326,-7.663l15.326,4.688l-1.191,-14.838l-14.135,-15.393l20.434,12.102l12.282,-9.613l4.129,-2.322l-16.411,-10.384l26.547,13.273l-1.004,-5.61l0.61,-2.118l-15.936,-10.653l20.434,7.814l7.308,-2.387l13.127,-0.319Z" style="fill:#f6e9f1;fill-opacity:0.9;"/></g><path d="M0.332,15.977l17.853,14.035l2.581,21.725l-20.434,-10.217l1.887,-9.274l-1.887,-16.269Z" style="fill:#577166;"/><clipPath id="_clip4"><path d="M0.332,15.977l17.853,14.035l2.581,21.725l-20.434,-10.217l1.887,-9.274l-1.887,-16.269Z"/></clipPath><g clip-path="url(#_clip4)"><path d="M71.925,70.8l-8.122,-11.265l8.122,-14.278l-8.689,5.872l-1.528,-10.981l-5.108,-2.554l1.599,5.908l0.901,8.167l-7.609,3.805l-1.669,-4.274l-3.439,5.297l0,6.64l8.106,-1.056l7.219,6.731l-10.217,12.205l-15.325,-2.555l-10.217,-5.108l-1.553,5.885l1.553,-0.777l7.89,3.946l-38.541,1.163l0,-20.434l18.658,5.996l-18.658,-16.213l0,-15.326l7.231,8.725l10.173,-7.21l-14.22,-18.433l9.123,-17.796l3.018,13.21l5.109,6.179l10.217,-3.293l0,-6.924l-2.676,6.446l-7.541,-1.338l10.217,-11.653l6.839,-10.47l13.595,10.278l10.217,1.628l-5.109,-2.554l-3.673,-8.38l24.107,5.842l-5.108,10.201l3.652,3.282l-6.602,15.677l11.808,-2.955l3.085,-40.684l-80.272,5.841l-16.808,107.384l98.739,-15.333l-8.494,-14.464Z" style="fill:#17244c;fill-opacity:0.7;"/><path d="M71.852,5.76l-18.482,6.9l-1.278,3.654l-0.675,5.443l-9.595,1.806l0.581,-4.774l-16.528,14.129l-5.109,1.548l2.54,16.645l4.645,15.226l-5.302,-0.216l1.044,11.184l2.182,7.637l-6.117,-5.766l-19.426,-12.114l18.167,6.242l-0.628,-9.902l-17.539,-10.033l0,-1.632l7.619,2.278l13.807,5.032l-4.452,-7.484l-4.129,-1.871l2.481,-0.509l-15.326,-7.663l15.326,4.688l-1.191,-14.838l-14.135,-15.393l20.434,12.102l12.282,-9.613l4.129,-2.322l-16.411,-10.384l26.547,13.273l-1.004,-5.61l0.61,-2.118l-15.936,-10.653l20.434,7.814l7.308,-2.387l13.127,-0.319Z" style="fill:#f6e9f1;fill-opacity:0.4;"/></g><path d="M25.875,84.942l-20.434,-10.217l-5.109,-7.663l0,-15.325l20.434,10.217l0,15.326l5.109,7.662Z" style="fill:#577166;"/><clipPath id="_clip5"><path d="M25.875,84.942l-20.434,-10.217l-5.109,-7.663l0,-15.325l20.434,10.217l0,15.326l5.109,7.662Z"/></clipPath><g clip-path="url(#_clip5)"><path d="M71.925,70.8l-8.122,-11.265l8.122,-14.278l-8.689,5.872l-1.528,-10.981l-5.108,-2.554l1.599,5.908l0.901,8.167l-7.609,3.805l-1.669,-4.274l-3.439,5.297l0,6.64l8.106,-1.056l7.219,6.731l-10.217,12.205l-15.325,-2.555l-10.217,-5.108l-1.553,5.885l1.553,-0.777l7.89,3.946l-38.541,1.163l0,-20.434l18.658,5.996l-18.658,-16.213l0,-15.326l7.231,8.725l10.173,-7.21l-14.22,-18.433l9.123,-17.796l3.018,13.21l5.109,6.179l10.217,-3.293l0,-6.924l-2.676,6.446l-7.541,-1.338l10.217,-11.653l6.839,-10.47l13.595,10.278l10.217,1.628l-5.109,-2.554l-3.673,-8.38l24.107,5.842l-5.108,10.201l3.652,3.282l-6.602,15.677l11.808,-2.955l3.085,-40.684l-80.272,5.841l-16.808,107.384l98.739,-15.333l-8.494,-14.464Z" style="fill:#17244c;fill-opacity:0.7;"/><path d="M71.852,5.76l-18.482,6.9l-1.278,3.654l-0.675,5.443l-9.595,1.806l0.581,-4.774l-16.528,14.129l-5.109,1.548l2.54,16.645l4.645,15.226l-5.302,-0.216l1.044,11.184l2.182,7.637l-6.117,-5.766l-19.426,-12.114l18.167,6.242l-0.628,-9.902l-17.539,-10.033l0,-1.632l7.619,2.278l13.807,5.032l-4.452,-7.484l-4.129,-1.871l2.481,-0.509l-15.326,-7.663l15.326,4.688l-1.191,-14.838l-14.135,-15.393l20.434,12.102l12.282,-9.613l4.129,-2.322l-16.411,-10.384l26.547,13.273l-1.004,-5.61l0.61,-2.118l-15.936,-10.653l20.434,7.814l7.308,-2.387l13.127,-0.319Z" style="fill:#f6e9f1;fill-opacity:0.4;"/></g><path d="M0.332,41.52l15.326,7.663l-15.326,2.554l25.543,12.771l-5.109,-12.771l-20.434,-10.217Z" style="fill:#394153;"/><clipPath id="_clip6"><path d="M0.332,41.52l15.326,7.663l-15.326,2.554l25.543,12.771l-5.109,-12.771l-20.434,-10.217Z"/></clipPath><g clip-path="url(#_clip6)"><path d="M71.852,5.76l-18.482,6.9l-1.278,3.654l-0.675,5.443l-9.595,1.806l0.581,-4.774l-16.528,14.129l-5.109,1.548l2.54,16.645l4.645,15.226l-5.302,-0.216l1.044,11.184l2.182,7.637l-6.117,-5.766l-19.426,-12.114l18.167,6.242l-0.628,-9.902l-17.539,-10.033l0,-1.632l7.619,2.278l13.807,5.032l-4.452,-7.484l-4.129,-1.871l2.481,-0.509l-15.326,-7.663l15.326,4.688l-1.191,-14.838l-14.135,-15.393l20.434,12.102l12.282,-9.613l4.129,-2.322l-16.411,-10.384l26.547,13.273l-1.004,-5.61l0.61,-2.118l-15.936,-10.653l20.434,7.814l7.308,-2.387l13.127,-0.319Z" style="fill:#f6e9f1;fill-opacity:0.4;"/></g><path d="M0.332,67.062l20.434,10.218l5.109,7.662l-20.434,-10.217l-5.109,-7.663Z" style="fill:#394153;"/><clipPath id="_clip7"><path d="M0.332,67.062l20.434,10.218l5.109,7.662l-20.434,-10.217l-5.109,-7.663Z"/></clipPath><g clip-path="url(#_clip7)"><path d="M71.852,5.76l-18.482,6.9l-1.278,3.654l-0.675,5.443l-9.595,1.806l0.581,-4.774l-16.528,14.129l-5.109,1.548l2.54,16.645l4.645,15.226l-5.302,-0.216l1.044,11.184l2.182,7.637l-6.117,-5.766l-19.426,-12.114l18.167,6.242l-0.628,-9.902l-17.539,-10.033l0,-1.632l7.619,2.278l13.807,5.032l-4.452,-7.484l-4.129,-1.871l2.481,-0.509l-15.326,-7.663l15.326,4.688l-1.191,-14.838l-14.135,-15.393l20.434,12.102l12.282,-9.613l4.129,-2.322l-16.411,-10.384l26.547,13.273l-1.004,-5.61l0.61,-2.118l-15.936,-10.653l20.434,7.814l7.308,-2.387l13.127,-0.319Z" style="fill:#f6e9f1;fill-opacity:0.9;"/></g><path d="M30.983,0.652l-5.108,7.662l20.434,10.217l-2.438,3.89l5.527,-2.345l-0.436,-5.326l2.455,-3.881l-20.434,-10.217Z" style="fill:#577166;"/><clipPath id="_clip8"><path d="M30.983,0.652l-5.108,7.662l20.434,10.217l-2.438,3.89l5.527,-2.345l-0.436,-5.326l2.455,-3.881l-20.434,-10.217Z"/></clipPath><g clip-path="url(#_clip8)"><path d="M71.852,5.76l-18.482,6.9l-1.278,3.654l-0.675,5.443l-9.595,1.806l0.581,-4.774l-16.528,14.129l-5.109,1.548l2.54,16.645l4.645,15.226l-5.302,-0.216l1.044,11.184l2.182,7.637l-6.117,-5.766l-19.426,-12.114l18.167,6.242l-0.628,-9.902l-17.539,-10.033l0,-1.632l7.619,2.278l13.807,5.032l-4.452,-7.484l-4.129,-1.871l2.481,-0.509l-15.326,-7.663l15.326,4.688l-1.191,-14.838l-14.135,-15.393l20.434,12.102l12.282,-9.613l4.129,-2.322l-16.411,-10.384l26.547,13.273l-1.004,-5.61l0.61,-2.118l-15.936,-10.653l20.434,7.814l7.308,-2.387l13.127,-0.319Z" style="fill:#f6e9f1;fill-opacity:0.9;"/></g></g></g></g></svg>