<?xml version="1.0" encoding="UTF-8" standalone="no"?><!DOCTYPE svg PUBLIC "-//W3C//DTD SVG 1.1//EN" "http://www.w3.org/Graphics/SVG/1.1/DTD/svg11.dtd"><svg width="100%" height="100%" viewBox="0 0 90 105" version="1.1" xmlns="http://www.w3.org/2000/svg" xmlns:xlink="http://www.w3.org/1999/xlink" xml:space="preserve" xmlns:serif="http://www.serif.com/" style="fill-rule:evenodd;clip-rule:evenodd;stroke-linejoin:round;stroke-miterlimit:1.41421;"><g id="X_Runestone_grass_1"><g id="F_Runestone_runes_1"><g><g><g><path d="M60.773,0.204l20.434,10.217l-20.434,10.217l-20.434,-10.217l20.434,-10.217Z" style="fill:#9da8c9;"/><clipPath id="_clip1"><path d="M60.773,0.204l20.434,10.217l-20.434,10.217l-20.434,-10.217l20.434,-10.217Z"/></clipPath><g clip-path="url(#_clip1)"><path d="M81.207,10.421l-20.434,7.207l-20.434,-7.207l16.529,11.038l-2.017,4.234l-4.295,0.054l-20.434,-10.217l15.326,9.86l-14.488,7.762l-21.272,-7.405l18.954,12.849l-0.446,18.765l-18.508,-6.072l5.109,2.555l15.325,10.054l2.855,-2.621l-2.855,7.762l-20.434,-7.533l18.752,12.069l1.682,23.691l1.936,-24.575l4.714,-14.509l-4.299,0.676l0.403,-5.141l-1.311,-16.129l18.225,-7.116l8.697,-0.76l5.175,-7.629l17.545,-11.662Z" style="fill:#f6e9f1;fill-opacity:0.9;"/></g><path d="M30.122,15.53l-20.434,10.217l20.434,10.217l20.434,-10.217l-20.434,-10.217" style="fill:#9da8c9;"/><clipPath id="_clip2"><path d="M30.122,15.53l-20.434,10.217l20.434,10.217l20.434,-10.217l-20.434,-10.217"/></clipPath><g clip-path="url(#_clip2)"><path d="M81.207,10.421l-20.434,7.207l-20.434,-7.207l16.529,11.038l-2.017,4.234l-4.295,0.054l-20.434,-10.217l15.326,9.86l-14.488,7.762l-21.272,-7.405l18.954,12.849l-0.446,18.765l-18.508,-6.072l5.109,2.555l15.325,10.054l2.855,-2.621l-2.855,7.762l-20.434,-7.533l18.752,12.069l1.682,23.691l1.936,-24.575l4.714,-14.509l-4.299,0.676l0.403,-5.141l-1.311,-16.129l18.225,-7.116l8.697,-0.76l5.175,-7.629l17.545,-11.662Z" style="fill:#f6e9f1;fill-opacity:0.9;"/></g><path d="M40.339,10.421l-5.108,7.663l20.434,10.217l5.108,-7.663l-20.434,-10.217Z" style="fill:#577166;"/><clipPath id="_clip3"><path d="M40.339,10.421l-5.108,7.663l20.434,10.217l5.108,-7.663l-20.434,-10.217Z"/></clipPath><g clip-path="url(#_clip3)"><path d="M83.839,69.074l-10.72,-7.911l-2.055,-16.353l-2.976,16.813l10.719,12.601l-15.707,10.327l-3.667,-13.492l1.414,-10.924l-5.108,4.654l0,13.226l-13.318,3.558l10.939,2.74l-11.142,12.484l-6.913,-10.65l-5.109,-3.656l-18.08,9.472l15.264,0.231l12.413,0.867l-4.488,7.71l-30.652,0.962l-2.387,-27.633l7.496,6.469l6.793,1.712l3.424,-1.712l-7.428,-3.714l-4.457,-12.445l-0.848,-23.451l12.733,8.959l1.983,4.117l1.42,-5.818l-3.403,-3.407l-11.817,-14.526l4.26,-17.456l17.774,16.656l-5.109,-17.88l11.545,-5.772l8.89,-4.445l7.847,9.032l4.367,5.295l3.111,-1.556l5.109,-4.977l-5.109,-3.079l0,2.948l-5.108,-2.554l2.564,-3.827l12.761,4.01l7.677,1.101l7.649,10.829l-1.661,12.599l1.661,31.481l7.734,-67.652l-72.439,-2.166l-40.256,53.098l18.116,65.251l76.628,-0.636l7.666,-41.51" style="fill:#17244c;fill-opacity:0.7;"/><path d="M81.207,10.421l-20.434,7.207l-20.434,-7.207l16.529,11.038l-2.017,4.234l-4.295,0.054l-20.434,-10.217l15.326,9.86l-14.488,7.762l-21.272,-7.405l18.954,12.849l-0.446,18.765l-18.508,-6.072l5.109,2.555l15.325,10.054l2.855,-2.621l-2.855,7.762l-20.434,-7.533l18.752,12.069l1.682,23.691l1.936,-24.575l4.714,-14.509l-4.299,0.676l0.403,-5.141l-1.311,-16.129l18.225,-7.116l8.697,-0.76l5.175,-7.629l17.545,-11.662Z" style="fill:#f6e9f1;fill-opacity:0.9;"/></g><path d="M81.207,10.421l-20.434,10.217l-5.108,7.663l-5.109,-2.554l-20.434,10.217l0,25.542l5.109,-2.554l-5.109,12.772l0,25.542l20.434,-10.217l0,-5.108l5.109,-2.555l5.108,2.555l20.434,-10.217l0,-30.652l-5.108,2.555l5.108,-12.772l0,-20.434" style="fill:#bac1d8;"/><clipPath id="_clip4"><path d="M81.207,10.421l-20.434,10.217l-5.108,7.663l-5.109,-2.554l-20.434,10.217l0,25.542l5.109,-2.554l-5.109,12.772l0,25.542l20.434,-10.217l0,-5.108l5.109,-2.555l5.108,2.555l20.434,-10.217l0,-30.652l-5.108,2.555l5.108,-12.772l0,-20.434"/></clipPath><g clip-path="url(#_clip4)"><path d="M81.207,10.421l-20.434,7.207l-20.434,-7.207l16.529,11.038l-2.017,4.234l-4.295,0.054l-20.434,-10.217l15.326,9.86l-14.488,7.762l-21.272,-7.405l18.954,12.849l-0.446,18.765l-18.508,-6.072l5.109,2.555l15.325,10.054l2.855,-2.621l-2.855,7.762l-20.434,-7.533l18.752,12.069l1.682,23.691l1.936,-24.575l4.714,-14.509l-4.299,0.676l0.403,-5.141l-1.311,-16.129l18.225,-7.116l8.697,-0.76l5.175,-7.629l17.545,-11.662Z" style="fill:#f6e9f1;fill-opacity:0.9;"/></g><path d="M9.688,25.747l20.434,10.217l0,25.542l-20.434,-10.217l0,-25.542Z" style="fill:#577166;"/><clipPath id="_clip5"><path d="M9.688,25.747l20.434,10.217l0,25.542l-20.434,-10.217l0,-25.542Z"/></clipPath><g clip-path="url(#_clip5)"><path d="M81.207,10.421l-20.434,7.207l-20.434,-7.207l16.529,11.038l-2.017,4.234l-4.295,0.054l-20.434,-10.217l15.326,9.86l-14.488,7.762l-21.272,-7.405l18.954,12.849l-0.446,18.765l-18.508,-6.072l5.109,2.555l15.325,10.054l2.855,-2.621l-2.855,7.762l-20.434,-7.533l18.752,12.069l1.682,23.691l1.936,-24.575l4.714,-14.509l-4.299,0.676l0.403,-5.141l-1.311,-16.129l18.225,-7.116l8.697,-0.76l5.175,-7.629l17.545,-11.662Z" style="fill:#f6e9f1;fill-opacity:0.4;"/></g><path d="M30.122,97.266l-20.434,-10.217l0,-25.543l20.434,10.218l0,25.542" style="fill:#577166;"/><clipPath id="_clip6"><path d="M30.122,97.266l-20.434,-10.217l0,-25.543l20.434,10.218l0,25.542"/></clipPath><g clip-path="url(#_clip6)"><path d="M81.207,10.421l-20.434,7.207l-20.434,-7.207l16.529,11.038l-2.017,4.234l-4.295,0.054l-20.434,-10.217l15.326,9.86l-14.488,7.762l-21.272,-7.405l18.954,12.849l-0.446,18.765l-18.508,-6.072l5.109,2.555l15.325,10.054l2.855,-2.621l-2.855,7.762l-20.434,-7.533l18.752,12.069l1.682,23.691l1.936,-24.575l4.714,-14.509l-4.299,0.676l0.403,-5.141l-1.311,-16.129l18.225,-7.116l8.697,-0.76l5.175,-7.629l17.545,-11.662Z" style="fill:#f6e9f1;fill-opacity:0.4;"/></g><path d="M9.688,51.289l5.109,2.555l-5.109,7.662l20.434,10.218l5.109,-12.772l-5.109,2.554l-20.434,-10.217Z" style="fill:#394153;"/><clipPath id="_clip7"><path d="M9.688,51.289l5.109,2.555l-5.109,7.662l20.434,10.218l5.109,-12.772l-5.109,2.554l-20.434,-10.217Z"/></clipPath><g clip-path="url(#_clip7)"><path d="M81.207,10.421l-20.434,7.207l-20.434,-7.207l16.529,11.038l-2.017,4.234l-4.295,0.054l-20.434,-10.217l15.326,9.86l-14.488,7.762l-21.272,-7.405l18.954,12.849l-0.446,18.765l-18.508,-6.072l5.109,2.555l15.325,10.054l2.855,-2.621l-2.855,7.762l-20.434,-7.533l18.752,12.069l1.682,23.691l1.936,-24.575l4.714,-14.509l-4.299,0.676l0.403,-5.141l-1.311,-16.129l18.225,-7.116l8.697,-0.76l5.175,-7.629l17.545,-11.662Z" style="fill:#f6e9f1;fill-opacity:0.4;"/></g></g></g></g></g><g><path d="M61.188,57.071l9.948,12.458l-4.348,-1.274l-12.119,-9.902l6.519,-1.282Z" style="fill:#394153;"/><path d="M53.1,58.712l13.868,-15.941l6.083,-0.138l-10.988,15.699l-8.963,0.38Z" style="fill:#394153;"/><path d="M53.136,36.664l1.65,-1.732l18.272,7.657l-7.559,0.788l-12.363,-6.713Z" style="fill:#394153;"/><path d="M56.328,64.726l-3.645,-2.965l-8.161,10.911l5.189,3.011l6.617,-10.957Z" style="fill:#394153;"/><path d="M40.083,76.591l6.159,-2.81l3.313,1.937l-4.813,2.65l-4.659,-1.777Z" style="fill:none;"/><path d="M62.625,70.269l4.003,1.649l4.534,-2.321l-4.159,-1.166l-4.378,1.838Z" style="fill:none;"/><path d="M53.103,62.193l9.524,8.067l4.57,-1.934l-9.695,-9.81l10.371,-15.392l-14.79,-6.374l-12.277,15.811l7.562,6.49l-8.293,17.514l6.296,-2.837l6.732,-11.535Z" style="fill:#6a7894;"/><g><path d="M54.987,43.183l6.423,3.896l-4.689,7.106l-6.669,-4.761l4.935,-6.241Z" style="fill:#f6e9f1;"/><path d="M55.005,43.173l-3.552,0.145l-5.289,6.241l4.006,-0.218l4.835,-6.168Z" style="fill:#577166;"/><path d="M46.186,49.57l3.881,-0.156l6.577,4.768l-4.525,-0.078l-5.933,-4.534Z" style="fill:#394153;"/></g></g><path d="M81.014,51.044c0,0 9.856,8.577 8.777,14.605c-1.079,6.029 -3.229,13.233 -7.853,14.308c-1.72,0.4 0.847,2.21 -2.512,4.144c-0.177,0.101 -0.635,2.32 -0.823,2.422c-1.408,0.769 -16.227,7.244 -18.023,7.837c-5.677,1.875 0.863,-2.886 0,-2.448c-1.868,0.948 -9.278,-1.077 -18.368,4.076c-0.9,0.51 6.362,-0.802 5.508,-0.289c-7.774,4.667 -21.894,10.899 -28.008,8.235c-5.758,-2.51 -13.904,-2.61 -17.244,-6.763c-0.595,-0.741 2.436,-0.008 1.918,-1.168c-3.422,-7.661 -4.631,-9.677 -2.212,-14.112c0.371,-0.68 -2.212,0.031 -1.838,-0.725c2.071,-4.178 7.028,-10.585 7.483,-12.178c0.538,-1.882 1.676,-2.619 1.676,-2.619l0,15.326c1.439,-0.258 2.786,-0.71 5.108,0.915c1.38,0.442 2.57,0.879 3.599,1.312c0.67,0.282 3.818,0.012 4.361,0.291c7.442,3.83 1.155,8.023 7.366,12.808l3.965,-3.126c1.597,-2.547 5.901,-2.495 9.298,-3.506c2.589,-0.77 1.704,-3.863 4.892,-4.725l5.763,-2.227l1.625,-4.296c-0.489,-1.368 -0.424,-2.744 1.91,-4.154c0.586,0.424 1.04,1.66 1.516,1.284c1.15,-0.91 0.484,0.521 0.685,0.784c1.153,1.507 1.414,3.057 0.997,4.64c3.435,-4.107 4.415,-5.117 7.045,-6.695c1.078,-0.647 2.155,0.061 3.776,0.057c0.821,-0.002 1.43,-0.893 2.327,-1.147c0.698,-0.198 1.723,0.251 2.178,0.122c0.902,-0.255 0.306,-1.397 0.876,-1.83c1.052,-0.799 3.031,-0.905 4.232,-0.724c0.005,-0.567 -1.712,-1.456 -1.709,-2.023c0.008,-1.368 1.578,-1.739 1.709,-3.086c0.467,-4.782 0.007,-10.451 0,-15.325Z" style="fill:#45545e;"/><clipPath id="_clip8"><path d="M81.014,51.044c0,0 9.856,8.577 8.777,14.605c-1.079,6.029 -3.229,13.233 -7.853,14.308c-1.72,0.4 0.847,2.21 -2.512,4.144c-0.177,0.101 -0.635,2.32 -0.823,2.422c-1.408,0.769 -16.227,7.244 -18.023,7.837c-5.677,1.875 0.863,-2.886 0,-2.448c-1.868,0.948 -9.278,-1.077 -18.368,4.076c-0.9,0.51 6.362,-0.802 5.508,-0.289c-7.774,4.667 -21.894,10.899 -28.008,8.235c-5.758,-2.51 -13.904,-2.61 -17.244,-6.763c-0.595,-0.741 2.436,-0.008 1.918,-1.168c-3.422,-7.661 -4.631,-9.677 -2.212,-14.112c0.371,-0.68 -2.212,0.031 -1.838,-0.725c2.071,-4.178 7.028,-10.585 7.483,-12.178c0.538,-1.882 1.676,-2.619 1.676,-2.619l0,15.326c1.439,-0.258 2.786,-0.71 5.108,0.915c1.38,0.442 2.57,0.879 3.599,1.312c0.67,0.282 3.818,0.012 4.361,0.291c7.442,3.83 1.155,8.023 7.366,12.808l3.965,-3.126c1.597,-2.547 5.901,-2.495 9.298,-3.506c2.589,-0.77 1.704,-3.863 4.892,-4.725l5.763,-2.227l1.625,-4.296c-0.489,-1.368 -0.424,-2.744 1.91,-4.154c0.586,0.424 1.04,1.66 1.516,1.284c1.15,-0.91 0.484,0.521 0.685,0.784c1.153,1.507 1.414,3.057 0.997,4.64c3.435,-4.107 4.415,-5.117 7.045,-6.695c1.078,-0.647 2.155,0.061 3.776,0.057c0.821,-0.002 1.43,-0.893 2.327,-1.147c0.698,-0.198 1.723,0.251 2.178,0.122c0.902,-0.255 0.306,-1.397 0.876,-1.83c1.052,-0.799 3.031,-0.905 4.232,-0.724c0.005,-0.567 -1.712,-1.456 -1.709,-2.023c0.008,-1.368 1.578,-1.739 1.709,-3.086c0.467,-4.782 0.007,-10.451 0,-15.325Z"/></clipPath><g clip-path="url(#_clip8)"><path d="M84.077,45.489l19.321,40.312l-81.441,30.798l53.134,-50.06l3.663,-22.266l5.323,1.216Z" style="fill:#c4e783;fill-opacity:0.5;"/><path d="M91.231,56.152c0.018,-1.107 -5.108,2.555 -5.108,2.555l-1.934,6.075l0.416,3.383l0.242,5.229l-1.007,1.779c0,0 1.052,0.274 -2.826,1.413c-3.878,1.14 -7.243,1.487 -7.243,1.487l-2.974,0.661l-2.363,1.779l-2.745,3.736l-5.109,2.554l-1.609,-0.804l1.609,-4.304l-2.724,-1.362l-0.834,4.692l0.672,0.336l-2.222,2.11l-5.109,1.344l-3.041,-0.491l-2.067,4.019l-5.109,-0.431l-1.763,0.881c0,0 0.222,0.84 -2.102,2.295c-2.323,1.455 -1.595,1.007 -4.395,2.911c-2.8,1.904 -4.664,2.776 -4.664,2.776c0,0 -1.458,6.017 -2.402,0.976c-0.943,-5.04 2.792,-3.36 0,-5.544c-2.791,-2.184 0.323,-2.196 -2.41,-2.946c-2.733,-0.75 -6.328,-0.031 -7.807,1.205c-1.478,1.237 0.073,4.843 -1.879,0.94c-1.951,-3.903 -2.491,-3.903 -3.229,-6.591c-0.738,-2.689 -1.332,-2.677 -1.332,-2.677l-1.21,-0.605l-2.567,-1.284c0,0 -1.178,1.205 0,-1.483c1.178,-2.688 5.375,-1.539 0,-3.625c-5.374,-2.087 -6.549,-2.589 -9.07,-0.574c-2.52,2.015 -4.287,-5.036 -3.404,9.662c0.884,14.698 -12.459,17.358 5.805,23.337c18.264,5.978 13.398,8.655 32.212,5.889c18.814,-2.767 20.479,-2.431 30.651,-7.807c10.172,-5.377 11.476,1.089 21.912,-11.888c10.437,-12.978 10.37,-9.812 13.848,-18.619c3.478,-8.807 7.915,-10.992 5.108,-14.184c-2.806,-3.192 -10.235,-7.697 -10.217,-8.805Z" style="fill:#66b394;"/><clipPath id="_clip9"><path d="M91.231,56.152c0.018,-1.107 -5.108,2.555 -5.108,2.555l-1.934,6.075l0.416,3.383l0.242,5.229l-1.007,1.779c0,0 1.052,0.274 -2.826,1.413c-3.878,1.14 -7.243,1.487 -7.243,1.487l-2.974,0.661l-2.363,1.779l-2.745,3.736l-5.109,2.554l-1.609,-0.804l1.609,-4.304l-2.724,-1.362l-0.834,4.692l0.672,0.336l-2.222,2.11l-5.109,1.344l-3.041,-0.491l-2.067,4.019l-5.109,-0.431l-1.763,0.881c0,0 0.222,0.84 -2.102,2.295c-2.323,1.455 -1.595,1.007 -4.395,2.911c-2.8,1.904 -4.664,2.776 -4.664,2.776c0,0 -1.458,6.017 -2.402,0.976c-0.943,-5.04 2.792,-3.36 0,-5.544c-2.791,-2.184 0.323,-2.196 -2.41,-2.946c-2.733,-0.75 -6.328,-0.031 -7.807,1.205c-1.478,1.237 0.073,4.843 -1.879,0.94c-1.951,-3.903 -2.491,-3.903 -3.229,-6.591c-0.738,-2.689 -1.332,-2.677 -1.332,-2.677l-1.21,-0.605l-2.567,-1.284c0,0 -1.178,1.205 0,-1.483c1.178,-2.688 5.375,-1.539 0,-3.625c-5.374,-2.087 -6.549,-2.589 -9.07,-0.574c-2.52,2.015 -4.287,-5.036 -3.404,9.662c0.884,14.698 -12.459,17.358 5.805,23.337c18.264,5.978 13.398,8.655 32.212,5.889c18.814,-2.767 20.479,-2.431 30.651,-7.807c10.172,-5.377 11.476,1.089 21.912,-11.888c10.437,-12.978 10.37,-9.812 13.848,-18.619c3.478,-8.807 7.915,-10.992 5.108,-14.184c-2.806,-3.192 -10.235,-7.697 -10.217,-8.805Z"/></clipPath><g clip-path="url(#_clip9)"><path d="M84.077,45.489l19.321,40.312l-81.441,30.798l53.134,-50.06l3.663,-22.266l5.323,1.216Z" style="fill:#c4e783;fill-opacity:0.5;"/></g><path d="M20.598,75.052l-19.492,33.588l-12.86,-32.779c0,0 18.886,-21.303 20.434,-19.585c1.548,1.718 11.918,18.776 11.918,18.776Z" style="fill-opacity:0.5;"/></g></g></svg>