<?xml version="1.0" encoding="UTF-8" standalone="no"?><!DOCTYPE svg PUBLIC "-//W3C//DTD SVG 1.1//EN" "http://www.w3.org/Graphics/SVG/1.1/DTD/svg11.dtd"><svg width="100%" height="100%" viewBox="0 0 88 104" version="1.1" xmlns="http://www.w3.org/2000/svg" xmlns:xlink="http://www.w3.org/1999/xlink" xml:space="preserve" xmlns:serif="http://www.serif.com/" style="fill-rule:evenodd;clip-rule:evenodd;stroke-linejoin:round;stroke-miterlimit:1.41421;"><g id="X_Runestone_mossy_3"><g id="F_Runestone_grass_runes_3"><g id="F_Runestone_runes_3"><g><g><path d="M77.157,0.589l5.109,12.771l-20.434,5.109l-20.434,-10.217l35.759,-7.663Z" style="fill:#9da8c9;"/><clipPath id="_clip1"><path d="M77.157,0.589l5.109,12.771l-20.434,5.109l-20.434,-10.217l35.759,-7.663Z"/></clipPath><g clip-path="url(#_clip1)"><path d="M77.157,0.589l1.535,10.984l-15.906,3.669l-21.388,-6.99l17.839,10.296l-5.126,3.781l-17.822,-6.414l10.217,6.988l0,0.645l-10.217,0.726l-5.108,-0.697l-4.202,9.81l-16.232,-9.81l-0.845,3.678l13.597,10.38l4.045,17.445l-16.797,-5.96l14.66,7.33l0.665,1.775l6.794,9.436l-22.119,-8.324l18.652,12.195l1.782,6.048l-20.434,-13.134l3.249,5.312l17.185,11.371l2.814,3.87l2.294,7.543l2.626,-5.607l0.405,-6.125l-3.031,-5.327l4.077,-4.354l-4.838,-12.016l-2.212,-21.278l4.448,-5.857l3.634,2.78l0.662,-4.274l8.708,-1.375l3.032,-1.516l4.631,0.471l6.606,-0.981l1.903,-2.809l-2.172,-2.165l19.872,-5.577l-2.374,-3.172l-5.109,-12.771Z" style="fill:#f6e9f1;fill-opacity:0.9;"/></g><path d="M36.289,15.915l-10.217,5.108l-15.325,2.554l17.852,14.035l6.39,1.254l11.517,-12.734l5.109,-2.555l-15.326,-7.662Z" style="fill:#9da8c9;"/><clipPath id="_clip2"><path d="M36.289,15.915l-10.217,5.108l-15.325,2.554l17.852,14.035l6.39,1.254l11.517,-12.734l5.109,-2.555l-15.326,-7.662Z"/></clipPath><g clip-path="url(#_clip2)"><path d="M77.157,0.589l1.535,10.984l-15.906,3.669l-21.388,-6.99l17.839,10.296l-5.126,3.781l-17.822,-6.414l10.217,6.988l0,0.645l-10.217,0.726l-5.108,-0.697l-4.202,9.81l-16.232,-9.81l-0.845,3.678l13.597,10.38l4.045,17.445l-16.797,-5.96l14.66,7.33l0.665,1.775l6.794,9.436l-22.119,-8.324l18.652,12.195l1.782,6.048l-20.434,-13.134l3.249,5.312l17.185,11.371l2.814,3.87l2.294,7.543l2.626,-5.607l0.405,-6.125l-3.031,-5.327l4.077,-4.354l-4.838,-12.016l-2.212,-21.278l4.448,-5.857l3.634,2.78l0.662,-4.274l8.708,-1.375l3.032,-1.516l4.631,0.471l6.606,-0.981l1.903,-2.809l-2.172,-2.165l19.872,-5.577l-2.374,-3.172l-5.109,-12.771Z" style="fill:#f6e9f1;fill-opacity:0.9;"/></g><path d="M82.266,13.36l-20.434,5.109l-10.217,5.108l-5.109,2.555l-15.325,-2.555l-2.584,14.034l2.584,21.726l5.108,12.771l-5.108,-2.554l5.108,12.771l0,10.217l5.925,-6.072l9.401,-1.59l7.325,-3.663l-2.217,-4l5.109,2.554l13.112,-6.556l-2.895,-8.769l1.834,-0.917l0.404,-1.696l-2.238,-2.496l8.349,-11.151l1.868,-9.283l0,-10.217l5.109,-7.663l-5.109,-7.663Z" style="fill:#bac1d8;"/><clipPath id="_clip3"><path d="M82.266,13.36l-20.434,5.109l-10.217,5.108l-5.109,2.555l-15.325,-2.555l-2.584,14.034l2.584,21.726l5.108,12.771l-5.108,-2.554l5.108,12.771l0,10.217l5.925,-6.072l9.401,-1.59l7.325,-3.663l-2.217,-4l5.109,2.554l13.112,-6.556l-2.895,-8.769l1.834,-0.917l0.404,-1.696l-2.238,-2.496l8.349,-11.151l1.868,-9.283l0,-10.217l5.109,-7.663l-5.109,-7.663Z"/></clipPath><g clip-path="url(#_clip3)"><path d="M77.157,0.589l1.535,10.984l-15.906,3.669l-21.388,-6.99l17.839,10.296l-5.126,3.781l-17.822,-6.414l10.217,6.988l0,0.645l-10.217,0.726l-5.108,-0.697l-4.202,9.81l-16.232,-9.81l-0.845,3.678l13.597,10.38l4.045,17.445l-16.797,-5.96l14.66,7.33l0.665,1.775l6.794,9.436l-22.119,-8.324l18.652,12.195l1.782,6.048l-20.434,-13.134l3.249,5.312l17.185,11.371l2.814,3.87l2.294,7.543l2.626,-5.607l0.405,-6.125l-3.031,-5.327l4.077,-4.354l-4.838,-12.016l-2.212,-21.278l4.448,-5.857l3.634,2.78l0.662,-4.274l8.708,-1.375l3.032,-1.516l4.631,0.471l6.606,-0.981l1.903,-2.809l-2.172,-2.165l19.872,-5.577l-2.374,-3.172l-5.109,-12.771Z" style="fill:#f6e9f1;fill-opacity:0.9;"/></g><path d="M26.072,21.023l5.109,2.554l-2.441,14.105l-17.993,-14.105l15.325,-2.554Z" style="fill:#577166;"/><clipPath id="_clip4"><path d="M26.072,21.023l5.109,2.554l-2.441,14.105l-17.993,-14.105l15.325,-2.554Z"/></clipPath><g clip-path="url(#_clip4)"><path d="M77.157,0.589l1.535,10.984l-15.906,3.669l-21.388,-6.99l17.839,10.296l-5.126,3.781l-17.822,-6.414l10.217,6.988l0,0.645l-10.217,0.726l-5.108,-0.697l-4.202,9.81l-16.232,-9.81l-0.845,3.678l13.597,10.38l4.045,17.445l-16.797,-5.96l14.66,7.33l0.665,1.775l6.794,9.436l-22.119,-8.324l18.652,12.195l1.782,6.048l-20.434,-13.134l3.249,5.312l17.185,11.371l2.814,3.87l2.294,7.543l2.626,-5.607l0.405,-6.125l-3.031,-5.327l4.077,-4.354l-4.838,-12.016l-2.212,-21.278l4.448,-5.857l3.634,2.78l0.662,-4.274l8.708,-1.375l3.032,-1.516l4.631,0.471l6.606,-0.981l1.903,-2.809l-2.172,-2.165l19.872,-5.577l-2.374,-3.172l-5.109,-12.771Z" style="fill:#f6e9f1;fill-opacity:0.9;"/></g><path d="M10.747,23.577l17.852,14.035l2.582,21.725l-20.434,-10.217l-5.109,-7.663l5.109,-17.88Z" style="fill:#394153;"/><clipPath id="_clip5"><path d="M10.747,23.577l17.852,14.035l2.582,21.725l-20.434,-10.217l-5.109,-7.663l5.109,-17.88Z"/></clipPath><g clip-path="url(#_clip5)"><path d="M77.157,0.589l1.535,10.984l-15.906,3.669l-21.388,-6.99l17.839,10.296l-5.126,3.781l-17.822,-6.414l10.217,6.988l0,0.645l-10.217,0.726l-5.108,-0.697l-4.202,9.81l-16.232,-9.81l-0.845,3.678l13.597,10.38l4.045,17.445l-16.797,-5.96l14.66,7.33l0.665,1.775l6.794,9.436l-22.119,-8.324l18.652,12.195l1.782,6.048l-20.434,-13.134l3.249,5.312l17.185,11.371l2.814,3.87l2.294,7.543l2.626,-5.607l0.405,-6.125l-3.031,-5.327l4.077,-4.354l-4.838,-12.016l-2.212,-21.278l4.448,-5.857l3.634,2.78l0.662,-4.274l8.708,-1.375l3.032,-1.516l4.631,0.471l6.606,-0.981l1.903,-2.809l-2.172,-2.165l19.872,-5.577l-2.374,-3.172l-5.109,-12.771Z" style="fill:#f6e9f1;fill-opacity:0.4;"/></g><path d="M36.289,92.542l-20.434,-10.217l-5.108,-17.879l0,-5.109l20.434,10.217l5.108,12.771l0,10.217Z" style="fill:#577166;"/><clipPath id="_clip6"><path d="M36.289,92.542l-20.434,-10.217l-5.108,-17.879l0,-5.109l20.434,10.217l5.108,12.771l0,10.217Z"/></clipPath><g clip-path="url(#_clip6)"><path d="M77.157,0.589l1.535,10.984l-15.906,3.669l-21.388,-6.99l17.839,10.296l-5.126,3.781l-17.822,-6.414l10.217,6.988l0,0.645l-10.217,0.726l-5.108,-0.697l-4.202,9.81l-16.232,-9.81l-0.845,3.678l13.597,10.38l4.045,17.445l-16.797,-5.96l14.66,7.33l0.665,1.775l6.794,9.436l-22.119,-8.324l18.652,12.195l1.782,6.048l-20.434,-13.134l3.249,5.312l17.185,11.371l2.814,3.87l2.294,7.543l2.626,-5.607l0.405,-6.125l-3.031,-5.327l4.077,-4.354l-4.838,-12.016l-2.212,-21.278l4.448,-5.857l3.634,2.78l0.662,-4.274l8.708,-1.375l3.032,-1.516l4.631,0.471l6.606,-0.981l1.903,-2.809l-2.172,-2.165l19.872,-5.577l-2.374,-3.172l-5.109,-12.771Z" style="fill:#f6e9f1;fill-opacity:0.4;"/></g><path d="M10.747,49.12l15.325,7.663l-15.325,2.554l25.542,12.771l-5.108,-12.771l-20.434,-10.217Z" style="fill:#394153;"/><clipPath id="_clip7"><path d="M10.747,49.12l15.325,7.663l-15.325,2.554l25.542,12.771l-5.108,-12.771l-20.434,-10.217Z"/></clipPath><g clip-path="url(#_clip7)"><path d="M77.157,0.589l1.535,10.984l-15.906,3.669l-21.388,-6.99l17.839,10.296l-5.126,3.781l-17.822,-6.414l10.217,6.988l0,0.645l-10.217,0.726l-5.108,-0.697l-4.202,9.81l-16.232,-9.81l-0.845,3.678l13.597,10.38l4.045,17.445l-16.797,-5.96l14.66,7.33l0.665,1.775l6.794,9.436l-22.119,-8.324l18.652,12.195l1.782,6.048l-20.434,-13.134l3.249,5.312l17.185,11.371l2.814,3.87l2.294,7.543l2.626,-5.607l0.405,-6.125l-3.031,-5.327l4.077,-4.354l-4.838,-12.016l-2.212,-21.278l4.448,-5.857l3.634,2.78l0.662,-4.274l8.708,-1.375l3.032,-1.516l4.631,0.471l6.606,-0.981l1.903,-2.809l-2.172,-2.165l19.872,-5.577l-2.374,-3.172l-5.109,-12.771Z" style="fill:#f6e9f1;fill-opacity:0.4;"/></g><path d="M10.747,64.446l25.542,17.879l0,10.217l-20.434,-10.217l-5.108,-17.879Z" style="fill:#394153;"/><clipPath id="_clip8"><path d="M10.747,64.446l25.542,17.879l0,10.217l-20.434,-10.217l-5.108,-17.879Z"/></clipPath><g clip-path="url(#_clip8)"><path d="M77.157,0.589l1.535,10.984l-15.906,3.669l-21.388,-6.99l17.839,10.296l-5.126,3.781l-17.822,-6.414l10.217,6.988l0,0.645l-10.217,0.726l-5.108,-0.697l-4.202,9.81l-16.232,-9.81l-0.845,3.678l13.597,10.38l4.045,17.445l-16.797,-5.96l14.66,7.33l0.665,1.775l6.794,9.436l-22.119,-8.324l18.652,12.195l1.782,6.048l-20.434,-13.134l3.249,5.312l17.185,11.371l2.814,3.87l2.294,7.543l2.626,-5.607l0.405,-6.125l-3.031,-5.327l4.077,-4.354l-4.838,-12.016l-2.212,-21.278l4.448,-5.857l3.634,2.78l0.662,-4.274l8.708,-1.375l3.032,-1.516l4.631,0.471l6.606,-0.981l1.903,-2.809l-2.172,-2.165l19.872,-5.577l-2.374,-3.172l-5.109,-12.771Z" style="fill:#f6e9f1;fill-opacity:0.4;"/></g><path d="M41.398,8.252l-5.109,7.663l20.434,10.217l0,-2.297l5.974,0.175l-3.32,-1.66l2.455,-3.881l-20.434,-10.217Z" style="fill:#577166;"/><clipPath id="_clip9"><path d="M41.398,8.252l-5.109,7.663l20.434,10.217l0,-2.297l5.974,0.175l-3.32,-1.66l2.455,-3.881l-20.434,-10.217Z"/></clipPath><g clip-path="url(#_clip9)"><path d="M77.157,0.589l1.535,10.984l-15.906,3.669l-21.388,-6.99l17.839,10.296l-5.126,3.781l-17.822,-6.414l10.217,6.988l0,0.645l-10.217,0.726l-5.108,-0.697l-4.202,9.81l-16.232,-9.81l-0.845,3.678l13.597,10.38l4.045,17.445l-16.797,-5.96l14.66,7.33l0.665,1.775l6.794,9.436l-22.119,-8.324l18.652,12.195l1.782,6.048l-20.434,-13.134l3.249,5.312l17.185,11.371l2.814,3.87l2.294,7.543l2.626,-5.607l0.405,-6.125l-3.031,-5.327l4.077,-4.354l-4.838,-12.016l-2.212,-21.278l4.448,-5.857l3.634,2.78l0.662,-4.274l8.708,-1.375l3.032,-1.516l4.631,0.471l6.606,-0.981l1.903,-2.809l-2.172,-2.165l19.872,-5.577l-2.374,-3.172l-5.109,-12.771Z" style="fill:#f6e9f1;fill-opacity:0.9;"/></g></g></g></g><path d="M70.064,75.691l-7.958,3.979l-5.108,-2.554l11.264,17.533l4.625,-13.883l-2.823,-5.075Z" style="fill:#66b394;"/><path d="M79.449,49.719c0,0 0.909,4.742 3.092,14.625c2.182,9.884 -2.767,17.028 -5.109,17.88c-2.342,0.852 0.97,-0.253 -3.038,6.628c-4.008,6.881 -1.135,13.299 -8.172,9.194c-7.037,-4.105 -17.509,1.943 -19.441,1.943c-1.932,0 -4.321,1.496 -7.943,1.532c-3.622,0.036 4.459,3.587 -4.958,-0.204c-9.417,-3.792 2.786,3.052 -9.363,-4.682c-12.15,-7.734 -13.496,-6.748 -13.496,-6.748c0,0 2.127,0.022 0,-2.89c-2.126,-2.913 -7.835,-2.361 -6.549,-5.493c1.286,-3.132 3.862,-7.052 3.862,-7.052c0,0 5.893,3.783 0.315,-1.077c-5.579,-4.859 -8.095,-3.627 -7.845,-6.428c0.25,-2.8 0,-3.472 0,-3.472c0,0 2.526,1.639 3.684,-0.973c1.158,-2.611 4.96,-4.053 4.96,-4.053l9.404,-0.406l-7.831,1.193l0,5.108l4.428,15.394c0,0 0.86,0.574 2.724,-0.645c1.864,-1.219 0.932,-1.434 2.079,-1.219c1.147,0.215 1.616,-0.639 2.206,1.186c0.59,1.825 -1.274,0.893 0.948,2.47c2.222,1.577 1.652,1.434 2.941,2.366c1.288,0.932 0.572,1.29 2.292,1.362c1.72,0.072 0.184,-0.923 1.777,0.04c1.592,0.963 0.804,0.82 2.022,1.107c1.219,0.287 3.035,0.382 3.035,0.382l1.091,-0.167c0,0 -0.964,-1.004 0,-1.362c0.964,-0.359 1.752,-0.359 1.752,-0.359c0,0 -0.215,0.932 1.291,0.215c1.505,-0.716 3.154,-2.293 4.229,-2.867c1.075,-0.573 0.298,-1.147 2.945,-1.434c2.646,-0.286 -0.337,-0.161 2.911,-0.044c3.248,0.116 2.667,0.202 4.212,-0.092c1.545,-0.294 2.19,-0.007 2.047,-1.297c-0.144,-1.291 2.437,0.143 3.799,0.358c1.362,0.215 -0.43,1.864 1.218,1.864c1.649,0 3.754,-0.624 3.754,-0.624c0,0 -0.528,0.481 1.336,-0.236c1.864,-0.717 2.366,-1.147 2.366,-1.147c0,0 1.313,-0.692 0.692,-1.529c-0.621,-0.837 -0.721,-1.54 -0.721,-1.54c0,0 -0.903,0.56 -0.043,-1.232c0.86,-1.792 0.686,-2.375 0.686,-2.375c0,0 -2.552,-0.353 -0.651,-1.498c1.9,-1.145 2.329,0.07 2.15,-1.075c-0.178,-1.145 -0.339,-0.751 -0.689,-2.131c-0.349,-1.38 -0.421,-0.448 -0.349,-1.452c0.072,-1.003 0.228,-1.12 0.228,-1.12c0,0 -1.16,-0.528 0.489,-1.03c1.648,-0.502 0.416,-1.397 2.108,-0.269c1.691,1.129 2.264,2.706 2.264,2.706l0.746,6.006l-0.669,-5.388l0.276,-0.549l-1.015,-1.678l-1.027,-0.99l-0.138,-0.326l1.391,-0.695l0.408,-1.802l-2.236,-2.392l7.125,-9.517Z" style="fill:#45545e;"/><clipPath id="_clip10"><path d="M79.449,49.719c0,0 0.909,4.742 3.092,14.625c2.182,9.884 -2.767,17.028 -5.109,17.88c-2.342,0.852 0.97,-0.253 -3.038,6.628c-4.008,6.881 -1.135,13.299 -8.172,9.194c-7.037,-4.105 -17.509,1.943 -19.441,1.943c-1.932,0 -4.321,1.496 -7.943,1.532c-3.622,0.036 4.459,3.587 -4.958,-0.204c-9.417,-3.792 2.786,3.052 -9.363,-4.682c-12.15,-7.734 -13.496,-6.748 -13.496,-6.748c0,0 2.127,0.022 0,-2.89c-2.126,-2.913 -7.835,-2.361 -6.549,-5.493c1.286,-3.132 3.862,-7.052 3.862,-7.052c0,0 5.893,3.783 0.315,-1.077c-5.579,-4.859 -8.095,-3.627 -7.845,-6.428c0.25,-2.8 0,-3.472 0,-3.472c0,0 2.526,1.639 3.684,-0.973c1.158,-2.611 4.96,-4.053 4.96,-4.053l9.404,-0.406l-7.831,1.193l0,5.108l4.428,15.394c0,0 0.86,0.574 2.724,-0.645c1.864,-1.219 0.932,-1.434 2.079,-1.219c1.147,0.215 1.616,-0.639 2.206,1.186c0.59,1.825 -1.274,0.893 0.948,2.47c2.222,1.577 1.652,1.434 2.941,2.366c1.288,0.932 0.572,1.29 2.292,1.362c1.72,0.072 0.184,-0.923 1.777,0.04c1.592,0.963 0.804,0.82 2.022,1.107c1.219,0.287 3.035,0.382 3.035,0.382l1.091,-0.167c0,0 -0.964,-1.004 0,-1.362c0.964,-0.359 1.752,-0.359 1.752,-0.359c0,0 -0.215,0.932 1.291,0.215c1.505,-0.716 3.154,-2.293 4.229,-2.867c1.075,-0.573 0.298,-1.147 2.945,-1.434c2.646,-0.286 -0.337,-0.161 2.911,-0.044c3.248,0.116 2.667,0.202 4.212,-0.092c1.545,-0.294 2.19,-0.007 2.047,-1.297c-0.144,-1.291 2.437,0.143 3.799,0.358c1.362,0.215 -0.43,1.864 1.218,1.864c1.649,0 3.754,-0.624 3.754,-0.624c0,0 -0.528,0.481 1.336,-0.236c1.864,-0.717 2.366,-1.147 2.366,-1.147c0,0 1.313,-0.692 0.692,-1.529c-0.621,-0.837 -0.721,-1.54 -0.721,-1.54c0,0 -0.903,0.56 -0.043,-1.232c0.86,-1.792 0.686,-2.375 0.686,-2.375c0,0 -2.552,-0.353 -0.651,-1.498c1.9,-1.145 2.329,0.07 2.15,-1.075c-0.178,-1.145 -0.339,-0.751 -0.689,-2.131c-0.349,-1.38 -0.421,-0.448 -0.349,-1.452c0.072,-1.003 0.228,-1.12 0.228,-1.12c0,0 -1.16,-0.528 0.489,-1.03c1.648,-0.502 0.416,-1.397 2.108,-0.269c1.691,1.129 2.264,2.706 2.264,2.706l0.746,6.006l-0.669,-5.388l0.276,-0.549l-1.015,-1.678l-1.027,-0.99l-0.138,-0.326l1.391,-0.695l0.408,-1.802l-2.236,-2.392l7.125,-9.517Z"/></clipPath><g clip-path="url(#_clip10)"><path d="M88.328,41.63l-32.144,84.186l-40.869,-15.326l66.411,-68.965l6.602,0.105c0,0 -5.476,70.328 -23.955,62.738" style="fill:#c4e783;fill-opacity:0.5;"/><path d="M72.324,77.25l-1.778,1.531l-1.237,2.396l-1.03,1.579l-1.064,-0.532c0,0 -0.694,-2.141 -3.059,1.53c-2.365,3.67 -3.921,5.197 -3.921,5.197c0,0 -1.59,1.273 -3.237,1.74c-1.647,0.467 -2.555,-0.696 -2.848,-1.935c-0.292,-1.239 -0.699,-4.758 -0.699,-4.758l-1.562,-1.241l-3.916,-1.129l-0.32,1.032c0,0 -0.575,4.115 -0.872,4.673c-0.297,0.558 -2.351,2.985 -2.351,2.985l-4.158,0.269l-1.747,-2.273c0,0 0.159,-0.143 -1.961,-0.143c-2.121,0 -5.109,0 -5.109,0c0,0 -4.244,3.36 -5.108,1.773c-0.864,-1.586 -3.291,-7.28 -3.291,-7.28l-0.373,-0.933l-5.22,-0.173l-0.171,1.247c0,0 -0.715,0.046 -1.162,-1.821c-0.448,-1.867 -1.719,-3.009 -1.719,-3.009l-0.863,-2.15c0,0 0.255,1.263 -0.859,-0.429c-1.114,-1.693 1.792,-1.319 -1.668,-3.839c-3.459,-2.521 -3.867,-4.038 -3.867,-4.038c0,0 -1.397,-0.443 -1.241,-2.496c0.155,-2.054 0.249,-4.667 -1.525,-6.16c-1.773,-1.494 -0.373,-6.441 -4.573,-1.961c-4.201,4.481 -6.802,21.817 -7.881,28.55c-1.08,6.732 -23.462,20.095 8.87,19.761c32.332,-0.335 80.775,-1.641 80.775,-1.641l11.179,-42.189l-6.601,-10.556l-2.583,2.784l-2.41,-0.172l-3.732,0.29l1.067,1.493l0.622,2.304l0.821,0.411l-1.157,3.177c0,0 0.918,3.798 0.363,4.927c-0.556,1.129 -0.076,1.315 -1.716,2.062c-1.64,0.747 -1.64,0.933 -1.64,0.933l-1.075,-1.198l0.327,2.975l-1.119,2.05l-1.601,-5.6c0,0 0.358,-0.28 0,1.027c-0.359,1.306 0.731,2.24 0,3.64c-0.732,1.4 0.358,1.156 0,2.631c-0.359,1.476 0,2.689 0,2.689Z" style="fill:#66b394;"/><clipPath id="_clip11"><path d="M72.324,77.25l-1.778,1.531l-1.237,2.396l-1.03,1.579l-1.064,-0.532c0,0 -0.694,-2.141 -3.059,1.53c-2.365,3.67 -3.921,5.197 -3.921,5.197c0,0 -1.59,1.273 -3.237,1.74c-1.647,0.467 -2.555,-0.696 -2.848,-1.935c-0.292,-1.239 -0.699,-4.758 -0.699,-4.758l-1.562,-1.241l-3.916,-1.129l-0.32,1.032c0,0 -0.575,4.115 -0.872,4.673c-0.297,0.558 -2.351,2.985 -2.351,2.985l-4.158,0.269l-1.747,-2.273c0,0 0.159,-0.143 -1.961,-0.143c-2.121,0 -5.109,0 -5.109,0c0,0 -4.244,3.36 -5.108,1.773c-0.864,-1.586 -3.291,-7.28 -3.291,-7.28l-0.373,-0.933l-5.22,-0.173l-0.171,1.247c0,0 -0.715,0.046 -1.162,-1.821c-0.448,-1.867 -1.719,-3.009 -1.719,-3.009l-0.863,-2.15c0,0 0.255,1.263 -0.859,-0.429c-1.114,-1.693 1.792,-1.319 -1.668,-3.839c-3.459,-2.521 -3.867,-4.038 -3.867,-4.038c0,0 -1.397,-0.443 -1.241,-2.496c0.155,-2.054 0.249,-4.667 -1.525,-6.16c-1.773,-1.494 -0.373,-6.441 -4.573,-1.961c-4.201,4.481 -6.802,21.817 -7.881,28.55c-1.08,6.732 -23.462,20.095 8.87,19.761c32.332,-0.335 80.775,-1.641 80.775,-1.641l11.179,-42.189l-6.601,-10.556l-2.583,2.784l-2.41,-0.172l-3.732,0.29l1.067,1.493l0.622,2.304l0.821,0.411l-1.157,3.177c0,0 0.918,3.798 0.363,4.927c-0.556,1.129 -0.076,1.315 -1.716,2.062c-1.64,0.747 -1.64,0.933 -1.64,0.933l-1.075,-1.198l0.327,2.975l-1.119,2.05l-1.601,-5.6c0,0 0.358,-0.28 0,1.027c-0.359,1.306 0.731,2.24 0,3.64c-0.732,1.4 0.358,1.156 0,2.631c-0.359,1.476 0,2.689 0,2.689Z"/></clipPath><g clip-path="url(#_clip11)"><path d="M88.328,41.63l-32.144,84.186l-40.869,-15.326l66.411,-68.965l6.602,0.105c0,0 -5.476,70.328 -23.955,62.738" style="fill:#c4e783;fill-opacity:0.5;"/></g><path d="M30.641,77.285l-25.543,17.88l-8.953,-35.128l24.279,-13.403l10.217,30.651Z" style="fill-opacity:0.5;"/></g></g><g><path d="M61.188,54.39l9.948,12.458l-4.348,-1.275l-12.119,-9.901l6.519,-1.282Z" style="fill:#394153;"/><path d="M53.1,56.031l13.868,-15.941l6.083,-0.139l-10.988,15.699l-8.963,0.381Z" style="fill:#394153;"/><path d="M53.136,33.983l1.65,-1.733l18.272,7.657l-7.559,0.789l-12.363,-6.713Z" style="fill:#394153;"/><path d="M56.328,62.044l-3.645,-2.964l-8.161,10.91l5.189,3.012l6.617,-10.958Z" style="fill:#394153;"/><path d="M40.083,73.91l6.159,-2.81l3.313,1.936l-4.813,2.65l-4.659,-1.776Z" style="fill:none;"/><path d="M62.625,67.587l4.003,1.649l4.534,-2.321l-4.159,-1.166l-4.378,1.838Z" style="fill:none;"/><path d="M53.103,59.512l9.524,8.067l4.57,-1.935l-9.695,-9.809l10.371,-15.392l-14.79,-6.374l-12.277,15.81l7.562,6.49l-8.293,17.515l6.296,-2.838l6.732,-11.534Z" style="fill:#6a7894;"/><g><path d="M54.987,40.501l6.423,3.896l-4.689,7.107l-6.669,-4.761l4.935,-6.242Z" style="fill:#f6e9f1;"/><path d="M55.005,40.492l-3.552,0.145l-5.289,6.24l4.006,-0.218l4.835,-6.167Z" style="fill:#577166;"/><path d="M46.186,46.889l3.881,-0.157l6.577,4.769l-4.525,-0.078l-5.933,-4.534Z" style="fill:#394153;"/></g></g><path d="M55.027,8.591c6.459,0.825 5.33,1.512 6.994,0.825c1.665,-0.687 1.132,1.237 5.109,-1.649c3.977,-2.886 -1.146,-2.825 3.546,-3.749c4.692,-0.924 3.592,-2.299 4.967,-0.374c1.374,1.924 0.247,2.199 1.704,3.298c1.457,1.1 2.034,2.94 2.034,2.94c0,0 4.481,-1.76 -2.034,1.017c-6.515,2.778 -3.025,3.573 -7.037,3.519c-4.013,-0.054 -4.889,0.735 -4.889,0.735c0,0 -0.911,-0.239 -2.01,0.585c-1.1,0.825 -2.641,-0.412 -1.39,1.237c1.252,1.65 -2.634,0.764 1.027,2.1c3.661,1.336 2.716,1.234 4.082,2.041c1.366,0.807 2.345,-2.25 2.13,1.065c-0.214,3.316 -2.121,4.14 -2.13,6.064c-0.008,1.925 0.926,5.855 -1.191,3.684c-2.116,-2.172 -3.245,-1.379 -3.918,-3.15c-0.672,-1.771 -0.122,-1.771 -1.222,-2.458c-1.099,-0.687 -1.585,-1.247 -1.585,-1.247c0,0 -1.789,0.697 -2.301,-0.814c-0.512,-1.512 -1.227,-2.53 -1.227,-2.53l-0.784,-1.619l-3.098,-0.112l-2.729,-2.802c0,0 -2.601,-0.645 -2.379,-1.189c0.222,-0.545 -1.459,-1.369 0,-3.706c1.459,-2.336 2.181,-4.881 3.057,-4.983c0.876,-0.102 5.274,1.272 5.274,1.272" style="fill:#45545e;"/><clipPath id="_clip12"><path d="M55.027,8.591c6.459,0.825 5.33,1.512 6.994,0.825c1.665,-0.687 1.132,1.237 5.109,-1.649c3.977,-2.886 -1.146,-2.825 3.546,-3.749c4.692,-0.924 3.592,-2.299 4.967,-0.374c1.374,1.924 0.247,2.199 1.704,3.298c1.457,1.1 2.034,2.94 2.034,2.94c0,0 4.481,-1.76 -2.034,1.017c-6.515,2.778 -3.025,3.573 -7.037,3.519c-4.013,-0.054 -4.889,0.735 -4.889,0.735c0,0 -0.911,-0.239 -2.01,0.585c-1.1,0.825 -2.641,-0.412 -1.39,1.237c1.252,1.65 -2.634,0.764 1.027,2.1c3.661,1.336 2.716,1.234 4.082,2.041c1.366,0.807 2.345,-2.25 2.13,1.065c-0.214,3.316 -2.121,4.14 -2.13,6.064c-0.008,1.925 0.926,5.855 -1.191,3.684c-2.116,-2.172 -3.245,-1.379 -3.918,-3.15c-0.672,-1.771 -0.122,-1.771 -1.222,-2.458c-1.099,-0.687 -1.585,-1.247 -1.585,-1.247c0,0 -1.789,0.697 -2.301,-0.814c-0.512,-1.512 -1.227,-2.53 -1.227,-2.53l-0.784,-1.619l-3.098,-0.112l-2.729,-2.802c0,0 -2.601,-0.645 -2.379,-1.189c0.222,-0.545 -1.459,-1.369 0,-3.706c1.459,-2.336 2.181,-4.881 3.057,-4.983c0.876,-0.102 5.274,1.272 5.274,1.272"/></clipPath><g clip-path="url(#_clip12)"><path d="M38.943,4.559l2.644,3.786l30.652,15.326l19.008,-10.93c0,0 -13.028,-15.353 -13.9,-15.353c-0.872,0 -38.404,7.171 -38.404,7.171Z" style="fill:#c4e783;fill-opacity:0.5;"/><path d="M67.13,-1.991l5.109,8.933c0,0 2.697,-0.451 -1.004,1.905c-3.701,2.356 -2.099,2.399 -5.992,2.996c-3.894,0.597 -2.924,-0.656 -4.44,1.001c-1.516,1.657 2.652,3.356 -2.318,3.95c-4.97,0.594 -5.109,0.323 -5.727,2.245c-0.617,1.922 3.108,2.334 -0.954,3.434c-4.062,1.099 -3.787,3.848 -6.398,0.962c-2.611,-2.886 -1.962,-1.863 -4.967,-4.299c-3.005,-2.436 -5.279,-5.747 -7.165,-6.634c-1.887,-0.887 -4.636,-2.399 -5.185,0.625c-0.55,3.024 -1.881,1.425 -0.254,3.668c1.628,2.242 -0.353,1.166 1.874,2.597c2.228,1.432 2.657,-0.459 4.848,2.685c2.19,3.145 -0.386,1.016 3.033,3.592c3.418,2.576 1.828,3.644 3.997,3.11c2.17,-0.534 1.674,-4.411 2.059,-1.029c0.386,3.382 5.642,4.139 0.059,7.196c-5.583,3.058 -8.47,3.607 -8.47,3.607c0,0 -1.246,1.63 -2.685,-0.147c-1.438,-1.777 -1.18,-4.518 -1.18,-4.518c0,0 -0.154,-5.093 0,2.879c0.155,7.971 -1,9.648 1.914,11.489c2.914,1.842 2.926,0.468 3.195,1.842c0.268,1.375 -1.093,-0.51 0,1.669c1.093,2.18 0.516,3.638 1.286,9.575c0.769,5.936 -3.304,-3.373 -5.047,-6.346c-1.743,-2.973 3.034,1.287 -1.348,-3.386c-4.381,-4.673 -5.875,-6.699 -7.396,-8.916c-1.52,-2.216 -1.219,-4.499 -1.219,-4.499c0,0 0.523,0.084 0.523,-1.978c0,-2.062 2.984,-4.884 2.984,-4.884c0,0 3.216,0.181 -1.533,-0.766c-4.749,-0.947 -5.86,0.406 -7.16,0.004c-1.3,-0.401 -5.045,-6.107 -5.045,-6.107c0,0 0.701,0.442 -0.526,-1.324c-1.227,-1.767 -6.028,-2.316 -6.17,-4.515c-0.142,-2.199 6.168,-8.498 8.373,-8.648c2.205,-0.149 12.754,-4.684 17.169,-5.371c4.415,-0.687 35.76,-6.597 35.76,-6.597Z" style="fill:#66b394;"/><clipPath id="_clip13"><path d="M67.13,-1.991l5.109,8.933c0,0 2.697,-0.451 -1.004,1.905c-3.701,2.356 -2.099,2.399 -5.992,2.996c-3.894,0.597 -2.924,-0.656 -4.44,1.001c-1.516,1.657 2.652,3.356 -2.318,3.95c-4.97,0.594 -5.109,0.323 -5.727,2.245c-0.617,1.922 3.108,2.334 -0.954,3.434c-4.062,1.099 -3.787,3.848 -6.398,0.962c-2.611,-2.886 -1.962,-1.863 -4.967,-4.299c-3.005,-2.436 -5.279,-5.747 -7.165,-6.634c-1.887,-0.887 -4.636,-2.399 -5.185,0.625c-0.55,3.024 -1.881,1.425 -0.254,3.668c1.628,2.242 -0.353,1.166 1.874,2.597c2.228,1.432 2.657,-0.459 4.848,2.685c2.19,3.145 -0.386,1.016 3.033,3.592c3.418,2.576 1.828,3.644 3.997,3.11c2.17,-0.534 1.674,-4.411 2.059,-1.029c0.386,3.382 5.642,4.139 0.059,7.196c-5.583,3.058 -8.47,3.607 -8.47,3.607c0,0 -1.246,1.63 -2.685,-0.147c-1.438,-1.777 -1.18,-4.518 -1.18,-4.518c0,0 -0.154,-5.093 0,2.879c0.155,7.971 -1,9.648 1.914,11.489c2.914,1.842 2.926,0.468 3.195,1.842c0.268,1.375 -1.093,-0.51 0,1.669c1.093,2.18 0.516,3.638 1.286,9.575c0.769,5.936 -3.304,-3.373 -5.047,-6.346c-1.743,-2.973 3.034,1.287 -1.348,-3.386c-4.381,-4.673 -5.875,-6.699 -7.396,-8.916c-1.52,-2.216 -1.219,-4.499 -1.219,-4.499c0,0 0.523,0.084 0.523,-1.978c0,-2.062 2.984,-4.884 2.984,-4.884c0,0 3.216,0.181 -1.533,-0.766c-4.749,-0.947 -5.86,0.406 -7.16,0.004c-1.3,-0.401 -5.045,-6.107 -5.045,-6.107c0,0 0.701,0.442 -0.526,-1.324c-1.227,-1.767 -6.028,-2.316 -6.17,-4.515c-0.142,-2.199 6.168,-8.498 8.373,-8.648c2.205,-0.149 12.754,-4.684 17.169,-5.371c4.415,-0.687 35.76,-6.597 35.76,-6.597Z"/></clipPath><g clip-path="url(#_clip13)"><path d="M38.943,4.559l2.644,3.786l30.652,15.326l19.008,-10.93c0,0 -13.028,-15.353 -13.9,-15.353c-0.872,0 -38.404,7.171 -38.404,7.171Z" style="fill:#c4e783;fill-opacity:0.5;"/></g><path d="M43.005,14.162l19.016,9.509l-5.108,6.358l-13.908,-15.867Z" style="fill-opacity:0.5;"/></g><path d="M33.998,18.625c5.223,3.436 5.695,5.144 7.589,5.046c1.895,-0.099 3.238,1.22 5.109,2.554c1.871,1.333 3.126,-3.03 3.117,3.55c-0.009,6.579 3.928,3.653 -1.545,7.453c-5.473,3.799 -4.864,-0.186 -6.681,4.074c-1.816,4.261 -2.045,-2.794 -1.312,8.567c0.733,11.362 2.854,9.3 1.312,12.462c-1.541,3.161 0.616,1.594 -2.18,6.226c-2.797,4.631 1.614,11.778 -2.928,4.769c-4.542,-7.01 -3.889,-7.541 -5.109,-8.787c-1.22,-1.246 0.411,0.779 -1.366,-4.425c-1.778,-5.205 5.976,2.354 -3.742,-5.343c-9.718,-7.696 -8.792,-6.734 -10.217,-10.308c-1.426,-3.573 -0.126,-2.898 -1.875,-7.084c-1.75,-4.186 -3.234,-5.972 -3.234,-5.972c0,0 2.089,-1.27 0,-2.628c-2.089,-1.358 -3.275,-0.087 -3.369,-1.685c-0.094,-1.597 -0.024,-2.012 1.384,-4.416c1.408,-2.404 5.122,-2.548 5.122,-2.548c0,0 2.945,-1.106 5.457,-0.756c2.511,0.35 6.142,0.762 6.732,-0.062c0.59,-0.825 3.751,-2.886 3.751,-2.886l5.279,3.08c0,0 -6.516,-4.317 -1.294,-0.881Z" style="fill:#45545e;"/><clipPath id="_clip14"><path d="M33.998,18.625c5.223,3.436 5.695,5.144 7.589,5.046c1.895,-0.099 3.238,1.22 5.109,2.554c1.871,1.333 3.126,-3.03 3.117,3.55c-0.009,6.579 3.928,3.653 -1.545,7.453c-5.473,3.799 -4.864,-0.186 -6.681,4.074c-1.816,4.261 -2.045,-2.794 -1.312,8.567c0.733,11.362 2.854,9.3 1.312,12.462c-1.541,3.161 0.616,1.594 -2.18,6.226c-2.797,4.631 1.614,11.778 -2.928,4.769c-4.542,-7.01 -3.889,-7.541 -5.109,-8.787c-1.22,-1.246 0.411,0.779 -1.366,-4.425c-1.778,-5.205 5.976,2.354 -3.742,-5.343c-9.718,-7.696 -8.792,-6.734 -10.217,-10.308c-1.426,-3.573 -0.126,-2.898 -1.875,-7.084c-1.75,-4.186 -3.234,-5.972 -3.234,-5.972c0,0 2.089,-1.27 0,-2.628c-2.089,-1.358 -3.275,-0.087 -3.369,-1.685c-0.094,-1.597 -0.024,-2.012 1.384,-4.416c1.408,-2.404 5.122,-2.548 5.122,-2.548c0,0 2.945,-1.106 5.457,-0.756c2.511,0.35 6.142,0.762 6.732,-0.062c0.59,-0.825 3.751,-2.886 3.751,-2.886l5.279,3.08c0,0 -6.516,-4.317 -1.294,-0.881Z"/></clipPath><g clip-path="url(#_clip14)"><path d="M18.174,1.747l-9.055,19.575l29.907,24.063l14.35,4.614l3.537,-18.666l-38.739,-29.586" style="fill:#c4e783;fill-opacity:0.5;"/><path d="M67.13,-1.991l5.109,8.933c0,0 2.697,-0.451 -1.004,1.905c-3.701,2.356 -2.099,2.399 -5.992,2.996c-3.894,0.597 -2.924,-0.656 -4.44,1.001c-1.516,1.657 2.652,3.356 -2.318,3.95c-4.97,0.594 -5.109,0.323 -5.727,2.245c-0.617,1.922 3.108,2.334 -0.954,3.434c-4.062,1.099 -3.787,3.848 -6.398,0.962c-2.611,-2.886 -1.962,-1.863 -4.967,-4.299c-3.005,-2.436 -5.279,-5.747 -7.165,-6.634c-1.887,-0.887 -4.636,-2.399 -5.185,0.625c-0.55,3.024 -1.881,1.425 -0.254,3.668c1.628,2.242 -0.353,1.166 1.874,2.597c2.228,1.432 2.657,-0.459 4.848,2.685c2.19,3.145 -0.386,1.016 3.033,3.592c3.418,2.576 1.828,3.644 3.997,3.11c2.17,-0.534 1.674,-4.411 2.059,-1.029c0.386,3.382 5.642,4.139 0.059,7.196c-5.583,3.058 -8.47,3.607 -8.47,3.607c0,0 -1.246,1.63 -2.685,-0.147c-1.438,-1.777 -1.18,-4.518 -1.18,-4.518c0,0 -0.154,-5.093 0,2.879c0.155,7.971 -1,9.648 1.914,11.489c2.914,1.842 2.926,0.468 3.195,1.842c0.268,1.375 -1.093,-0.51 0,1.669c1.093,2.18 0.516,3.638 1.286,9.575c0.769,5.936 -3.304,-3.373 -5.047,-6.346c-1.743,-2.973 3.034,1.287 -1.348,-3.386c-4.381,-4.673 -5.875,-6.699 -7.396,-8.916c-1.52,-2.216 -1.219,-4.499 -1.219,-4.499c0,0 0.523,0.084 0.523,-1.978c0,-2.062 2.984,-4.884 2.984,-4.884c0,0 3.216,0.181 -1.533,-0.766c-4.749,-0.947 -5.86,0.406 -7.16,0.004c-1.3,-0.401 -5.045,-6.107 -5.045,-6.107c0,0 0.701,0.442 -0.526,-1.324c-1.227,-1.767 -6.028,-2.316 -6.17,-4.515c-0.142,-2.199 6.168,-8.498 8.373,-8.648c2.205,-0.149 12.754,-4.684 17.169,-5.371c4.415,-0.687 35.76,-6.597 35.76,-6.597Z" style="fill:#66b394;"/><clipPath id="_clip15"><path d="M67.13,-1.991l5.109,8.933c0,0 2.697,-0.451 -1.004,1.905c-3.701,2.356 -2.099,2.399 -5.992,2.996c-3.894,0.597 -2.924,-0.656 -4.44,1.001c-1.516,1.657 2.652,3.356 -2.318,3.95c-4.97,0.594 -5.109,0.323 -5.727,2.245c-0.617,1.922 3.108,2.334 -0.954,3.434c-4.062,1.099 -3.787,3.848 -6.398,0.962c-2.611,-2.886 -1.962,-1.863 -4.967,-4.299c-3.005,-2.436 -5.279,-5.747 -7.165,-6.634c-1.887,-0.887 -4.636,-2.399 -5.185,0.625c-0.55,3.024 -1.881,1.425 -0.254,3.668c1.628,2.242 -0.353,1.166 1.874,2.597c2.228,1.432 2.657,-0.459 4.848,2.685c2.19,3.145 -0.386,1.016 3.033,3.592c3.418,2.576 1.828,3.644 3.997,3.11c2.17,-0.534 1.674,-4.411 2.059,-1.029c0.386,3.382 5.642,4.139 0.059,7.196c-5.583,3.058 -8.47,3.607 -8.47,3.607c0,0 -1.246,1.63 -2.685,-0.147c-1.438,-1.777 -1.18,-4.518 -1.18,-4.518c0,0 -0.154,-5.093 0,2.879c0.155,7.971 -1,9.648 1.914,11.489c2.914,1.842 2.926,0.468 3.195,1.842c0.268,1.375 -1.093,-0.51 0,1.669c1.093,2.18 0.516,3.638 1.286,9.575c0.769,5.936 -3.304,-3.373 -5.047,-6.346c-1.743,-2.973 3.034,1.287 -1.348,-3.386c-4.381,-4.673 -5.875,-6.699 -7.396,-8.916c-1.52,-2.216 -1.219,-4.499 -1.219,-4.499c0,0 0.523,0.084 0.523,-1.978c0,-2.062 2.984,-4.884 2.984,-4.884c0,0 3.216,0.181 -1.533,-0.766c-4.749,-0.947 -5.86,0.406 -7.16,0.004c-1.3,-0.401 -5.045,-6.107 -5.045,-6.107c0,0 0.701,0.442 -0.526,-1.324c-1.227,-1.767 -6.028,-2.316 -6.17,-4.515c-0.142,-2.199 6.168,-8.498 8.373,-8.648c2.205,-0.149 12.754,-4.684 17.169,-5.371c4.415,-0.687 35.76,-6.597 35.76,-6.597Z"/></clipPath><g clip-path="url(#_clip15)"><path d="M18.174,1.747l-9.055,19.575l29.907,24.063l14.35,4.614l3.537,-18.666l-38.739,-29.586" style="fill:#c4e783;fill-opacity:0.5;"/></g><path d="M10.936,30.488l22.36,21.646l4.613,24.461l-37.19,-22.273l10.217,-23.834Z" style="fill-opacity:0.5;"/></g></g></svg>