<?xml version="1.0" encoding="UTF-8" standalone="no"?><!DOCTYPE svg PUBLIC "-//W3C//DTD SVG 1.1//EN" "http://www.w3.org/Graphics/SVG/1.1/DTD/svg11.dtd"><svg width="100%" height="100%" viewBox="0 0 234 205" version="1.1" xmlns="http://www.w3.org/2000/svg" xmlns:xlink="http://www.w3.org/1999/xlink" xml:space="preserve" xmlns:serif="http://www.serif.com/" style="fill-rule:evenodd;clip-rule:evenodd;stroke-linecap:round;stroke-linejoin:round;stroke-miterlimit:1.5;"><g id="Dirt_Block26"><path d="M223.081,54.445c-27.469,-20.408 -62.42,-38.547 -107.331,-53.665c-41.641,12.712 -75.753,32.071 -107.331,53.665c36.082,22.844 71.948,42.186 107.331,53.666c33.041,-27.344 69.289,-43.604 107.331,-53.666Z" style="fill:#c7a664;"/><g><g><path d="M223.081,54.445l10.733,91.232c-13.984,7.315 -23.015,8.431 -37.566,15.812c-10.888,5.523 -27.151,17.295 -38.443,22.866c-13.673,6.744 -27.669,13.526 -42.055,20.354l0,-36.682c2.37,-18.292 2.261,-38.342 0,-59.916c31.183,-27.667 68.208,-42.898 107.331,-53.666Z" style="fill:#b09255;"/><clipPath id="_clip1"><path d="M223.081,54.445l10.733,91.232c-13.984,7.315 -23.015,8.431 -37.566,15.812c-10.888,5.523 -27.151,17.295 -38.443,22.866c-13.673,6.744 -27.669,13.526 -42.055,20.354l0,-36.682c2.37,-18.292 2.261,-38.342 0,-59.916c31.183,-27.667 68.208,-42.898 107.331,-53.666Z"/></clipPath><g clip-path="url(#_clip1)"><path d="M121.278,235.6l-7.471,-8.393l0.629,-15.381l4.861,-8.365l7.639,3.249l3.734,6.804l0.66,10.713l-10.052,11.373" style="fill:#e1c080;stroke:#000;stroke-width:1px;"/><path d="M144.818,205.315l6.48,-6.062l-3.056,-12.565l-8.623,-2.463l-7.623,-1.443l-2.976,3.95l-3.5,-1.489l-5.379,1.086l-1.634,4.32l5.651,4.447l4.24,3.091l7.817,4.704l8.603,2.424Z" style="fill:#e1c080;"/><path d="M181.805,211.62l7.621,-4.416l4.723,-10.592l-3.045,-9.558l-19.233,-2.963l-6.432,7.697l-1.006,7.708l6.329,7.428l11.043,4.696Z" style="fill:#e1c080;stroke:#000;stroke-width:1px;"/><path d="M203.581,175.16l8.069,-10.665l-1.707,-5.941l-8.575,-19.295c0,0 -7.897,5.94 -10.382,6.017c-2.486,0.076 -7.683,4.452 -7.683,4.452l3.151,9.269l8.6,6.112l8.527,10.051Z" style="fill:#e1c080;"/><path d="M155.478,179.832l10.639,-1.857l10.285,-7.605l-2.017,-7.626l-4.768,-5.692l-7.679,1.951l-4.985,5.388l-3.648,6.588l2.173,8.853" style="fill:#e1c080;"/><path d="M214.291,207.347l-9.12,-6.382l-10.414,5.505l-4.461,14.855l14.945,3.037l6.387,-5.869l2.663,-11.146" style="fill:#e1c080;stroke:#000;stroke-width:1px;"/><path d="M126.644,149.535l-7.47,-8.393l0.628,-15.381l4.862,-8.365l7.638,3.249l3.735,6.804l0.66,10.713l-10.053,11.373" style="fill:#e1c080;"/><path d="M139.063,168.066l-9.713,-5.466l1.145,-6.212l5.192,-3.008l4.056,1.725l4.47,4.429l-0.084,5.597l-5.066,2.935Z" style="fill:#e1c080;"/><path d="M169.346,144.472l-5.042,5.43l-10.806,-0.849l-2.237,-4.698l-1.605,-8.155l10.343,-11.542l3.071,5.211l5.435,0.955l2.991,10.127l-2.15,3.521" style="fill:#e1c080;"/><path d="M155.166,121.451l6.48,-6.062l-3.057,-12.565l-8.623,-2.463l-7.622,-1.443l-2.977,3.95l-3.5,-1.488l-5.378,1.085l-1.634,4.32l5.651,4.448l4.24,3.09l7.816,4.704l8.604,2.424Z" style="fill:#e1c080;"/><path d="M183.904,133.066l7.62,-4.416l4.724,-10.592l-3.045,-9.558l-19.233,-2.963l-6.432,7.696l-1.006,7.709l6.329,7.428l11.043,4.696Z" style="fill:#e1c080;"/><path d="M211.588,98.922l8.069,-10.664l-1.707,-5.942l-8.574,-19.294c0,0 -7.897,5.94 -10.383,6.016c-2.486,0.077 -7.683,4.452 -7.683,4.452l3.152,9.269l8.6,6.112l8.526,10.051Z" style="fill:#e1c080;"/><path d="M164.591,103.013l10.639,-1.857l10.285,-7.605l-2.016,-7.626l-4.769,-5.691l-7.679,1.95l-4.985,5.388l-3.648,6.589l2.173,8.852" style="fill:#e1c080;"/><path d="M219.657,121.281l-9.119,-6.381l-10.414,5.505l-4.462,14.855l14.945,3.037l6.388,-5.869l2.662,-11.147" style="fill:#e1c080;"/><path d="M132.164,259.402l-9.713,-5.466l1.145,-6.212l5.192,-3.008l4.056,1.725l4.47,4.429l-0.084,5.597l-5.066,2.935Zm30.283,-23.594l-5.042,5.43l-10.806,-0.849l-2.237,-4.698l-1.606,-8.155l10.344,-11.542l3.071,5.211l5.435,0.955l2.991,10.127l-2.15,3.521Zm-42.702,5.063l-7.47,-8.393l0.628,-15.381l4.862,-8.365l7.638,3.249l3.735,6.804l0.66,10.713l-10.053,11.373Zm93.013,-28.253l-2.662,11.146l-6.388,5.869l-14.945,-3.037l4.461,-14.855l10.415,-5.505l9.119,6.382Zm-32.485,4.273l7.62,-4.416l4.724,-10.592l-3.045,-9.558l-19.234,-2.963l-6.431,7.697l-1.006,7.708l6.329,7.428l11.043,4.696Zm-36.987,-6.305l6.48,-6.062l-3.057,-12.565l-8.623,-2.463l-7.622,-1.443l-2.977,3.95l-3.5,-1.489l-5.378,1.086l-1.634,4.32l5.651,4.447l4.24,3.091l7.816,4.704l8.604,2.424Zm10.66,-25.483l10.639,-1.857l10.284,-7.605l-2.016,-7.626l-4.769,-5.692l-7.679,1.951l-4.985,5.388l-3.648,6.588l2.174,8.853Zm48.102,-4.672l8.069,-10.665l-1.707,-5.941l-8.574,-19.295c0,0 -7.897,5.94 -10.383,6.017c-2.486,0.076 -7.683,4.452 -7.683,4.452l3.152,9.269l8.6,6.112l8.526,10.051Zm-64.517,-7.094l-9.714,-5.466l1.146,-6.212l5.191,-3.008l4.057,1.725l4.47,4.429l-0.085,5.597l-5.065,2.935Zm30.283,-23.594l-5.042,5.43l-10.806,-0.849l-2.238,-4.698l-1.605,-8.155l10.344,-11.542l3.07,5.211l5.436,0.955l2.99,10.127l-2.149,3.521Zm-42.702,5.063l-7.471,-8.394l0.629,-15.38l4.861,-8.365l7.639,3.249l3.734,6.804l0.66,10.712l-10.052,11.374Zm93.013,-28.254l-2.663,11.147l-6.387,5.869l-14.945,-3.037l4.461,-14.855l10.414,-5.505l9.12,6.381Zm-35.754,11.785l7.621,-4.416l4.724,-10.592l-3.045,-9.558l-19.234,-2.963l-6.432,7.696l-1.005,7.709l6.328,7.428l11.043,4.696Zm-28.738,-11.615l6.48,-6.062l-3.057,-12.565l-8.623,-2.463l-7.622,-1.443l-2.977,3.95l-3.5,-1.489l-5.378,1.086l-1.634,4.32l5.651,4.448l4.24,3.09l7.816,4.704l8.604,2.424Zm9.426,-18.438l10.639,-1.857l10.285,-7.605l-2.017,-7.626l-4.768,-5.691l-7.68,1.95l-4.984,5.388l-3.648,6.589l2.173,8.852Zm46.997,-4.091l8.069,-10.664l-1.707,-5.942l-8.575,-19.295c0,0 -7.897,5.941 -10.382,6.017c-2.486,0.077 -7.683,4.452 -7.683,4.452l3.151,9.269l8.6,6.112l8.527,10.051Z" style="fill:#816b40;fill-opacity:0.5;"/></g></g><path d="M8.419,54.445c34.418,18.775 69.809,36.915 107.331,53.666c2.097,18.051 6.129,35.082 2.606,50.461c-4.072,17.775 -2.689,31.887 -2.606,46.137l-46.028,-25.984l-50.57,-22.315l-18.881,-12.411l8.148,-89.554" style="fill:#685632;"/><clipPath id="_clip2"><path d="M8.419,54.445c34.418,18.775 69.809,36.915 107.331,53.666c2.097,18.051 6.129,35.082 2.606,50.461c-4.072,17.775 -2.689,31.887 -2.606,46.137l-46.028,-25.984l-50.57,-22.315l-18.881,-12.411l8.148,-89.554"/></clipPath><g clip-path="url(#_clip2)"><path d="M13.911,226.422l-7.471,-8.946l0.629,-16.394l4.861,-8.916l7.639,3.463l3.734,7.252l0.661,11.419l-10.053,12.122" style="fill:#816b40;stroke:#000;stroke-width:1px;"/><path d="M56.613,221.025l-5.042,5.788l-10.806,-0.904l-2.238,-5.008l-1.605,-8.692l10.344,-12.302l3.07,5.554l5.436,1.018l2.99,10.793l-2.149,3.753" style="fill:#816b40;stroke:#000;stroke-width:1px;"/><path d="M37.452,194.142l6.479,-6.461l-3.056,-13.392l-8.623,-2.626l-7.623,-1.538l-2.976,4.21l-3.5,-1.586l-5.379,1.157l-1.633,4.604l5.65,4.741l4.241,3.294l7.816,5.014l8.604,2.583Z" style="fill:#816b40;stroke:#000;stroke-width:1px;"/><path d="M74.438,200.863l7.621,-4.707l4.724,-11.29l-3.046,-10.187l-19.233,-3.159l-6.432,8.204l-1.006,8.216l6.329,7.917l11.043,5.006Z" style="fill:#816b40;"/><path d="M96.446,169.648l8.069,-11.367l-1.706,-6.333l-8.575,-20.566c0,0 -7.897,6.332 -10.383,6.413c-2.486,0.082 -7.683,4.746 -7.683,4.746l3.152,9.879l8.6,6.515l8.526,10.713Z" style="fill:#816b40;"/><path d="M48.111,166.981l10.639,-1.98l10.285,-8.106l-2.017,-8.128l-4.768,-6.066l-7.679,2.078l-4.985,5.744l-3.648,7.022l2.173,9.436" style="fill:#816b40;"/><path d="M114.11,184.226l-9.093,-6.35l-10.433,5.551l-4.516,14.884l14.93,2.979l6.408,-5.899l2.704,-11.165" style="fill:#816b40;"/><path d="M19.277,134.688l-7.47,-8.946l0.629,-16.394l4.861,-8.916l7.639,3.463l3.734,7.252l0.66,11.419l-10.053,12.122" style="fill:#816b40;"/><path d="M31.696,154.44l-9.713,-5.826l1.145,-6.621l5.192,-3.207l4.056,1.839l4.471,4.721l-0.085,5.966l-5.066,3.128Z" style="fill:#816b40;"/><path d="M55.428,133.434l-5.042,5.788l-10.806,-0.904l-2.237,-5.008l-1.606,-8.692l10.344,-12.302l3.071,5.554l5.435,1.018l2.991,10.793l-2.15,3.753" style="fill:#816b40;"/><path d="M25.126,96.828l9.014,-1.578l5.175,-12.724l-5.559,-7.096l-5.363,-5.631l-4.853,1.743l-1.958,-3.307l-5.069,-2.136l-3.979,2.835l1.911,7.124l1.585,5.13l3.529,8.59l5.567,7.05Z" style="fill:#816b40;"/><path d="M65.839,115.396l7.621,-4.707l4.724,-11.29l-3.045,-10.187l-19.234,-3.159l-6.431,8.204l-1.006,8.216l6.329,7.918l11.042,5.005Z" style="fill:#816b40;"/><path d="M101.581,70.267l8.068,-11.367l-1.706,-6.333l-8.575,-20.566c0,0 -7.897,6.332 -10.383,6.413c-2.486,0.082 -7.683,4.746 -7.683,4.746l3.152,9.879l8.6,6.515l8.527,10.713Z" style="fill:#816b40;stroke:#000;stroke-width:1px;"/><path d="M53.478,75.247l10.639,-1.98l10.285,-8.106l-2.017,-8.128l-4.768,-6.066l-7.68,2.078l-4.984,5.744l-3.648,7.022l2.173,9.436" style="fill:#816b40;stroke:#000;stroke-width:1px;"/><path d="M105.017,108.047l-9.12,-6.802l-10.414,5.867l-4.461,15.834l14.945,3.237l6.387,-6.256l2.663,-11.88" style="fill:#816b40;"/><path d="M22.603,247.176l-9.713,-5.827l1.145,-6.62l5.192,-3.207l4.056,1.839l4.47,4.721l-0.084,5.965l-5.066,3.129Zm30.283,-25.149l-5.042,5.788l-10.806,-0.904l-2.237,-5.008l-1.606,-8.692l10.344,-12.302l3.071,5.554l5.435,1.018l2.991,10.793l-2.15,3.753Zm-42.702,5.397l-7.47,-8.946l0.628,-16.394l4.862,-8.916l7.638,3.463l3.735,7.252l0.66,11.418l-10.053,12.123Zm100.199,-42.196l-2.703,11.165l-6.408,5.899l-14.931,-2.979l4.516,-14.884l10.433,-5.551l9.093,6.35Zm-39.671,16.637l7.62,-4.707l4.724,-11.29l-3.045,-10.187l-19.234,-3.159l-6.431,8.204l-1.006,8.216l6.329,7.917l11.043,5.006Zm-36.987,-6.721l6.48,-6.461l-3.057,-13.392l-8.623,-2.626l-7.622,-1.538l-2.977,4.21l-3.5,-1.587l-5.378,1.157l-1.634,4.605l5.651,4.741l4.24,3.294l7.816,5.013l8.604,2.584Zm58.995,-24.494l8.069,-11.367l-1.707,-6.333l-8.575,-20.566c0,0 -7.897,6.331 -10.383,6.413c-2.485,0.082 -7.683,4.745 -7.683,4.745l3.152,9.88l8.6,6.514l8.527,10.714Zm-48.335,-2.667l10.639,-1.98l10.284,-8.106l-2.016,-8.128l-4.769,-6.067l-7.679,2.079l-4.985,5.743l-3.648,7.023l2.174,9.436Zm-16.415,-12.541l-9.714,-5.827l1.146,-6.62l5.191,-3.207l4.057,1.839l4.47,4.721l-0.085,5.965l-5.065,3.129Zm23.732,-21.006l-5.042,5.788l-10.806,-0.904l-2.238,-5.008l-1.605,-8.692l10.343,-12.302l3.071,5.554l5.436,1.018l2.99,10.793l-2.149,3.753Zm-36.151,1.254l-7.471,-8.946l0.629,-16.394l4.861,-8.916l7.639,3.463l3.734,7.252l0.66,11.418l-10.052,12.123Zm85.739,-26.642l-2.662,11.881l-6.388,6.256l-14.945,-3.237l4.461,-15.834l10.415,-5.868l9.119,6.802Zm-39.177,7.35l7.62,-4.707l4.724,-11.29l-3.045,-10.187l-19.233,-3.159l-6.432,8.204l-1.006,8.216l6.329,7.917l11.043,5.006Zm-40.714,-18.568l9.014,-1.578l5.175,-12.725l-5.559,-7.095l-5.362,-5.631l-4.853,1.742l-1.958,-3.306l-5.07,-2.136l-3.979,2.835l1.912,7.124l1.584,5.13l3.529,8.59l5.567,7.05Zm28.352,-21.581l10.639,-1.98l10.285,-8.106l-2.017,-8.128l-4.768,-6.067l-7.679,2.079l-4.985,5.743l-3.648,7.023l2.173,9.436Zm48.103,-4.98l8.069,-11.367l-1.707,-6.333l-8.575,-20.566c0,0 -7.897,6.331 -10.382,6.413c-2.486,0.082 -7.683,4.745 -7.683,4.745l3.152,9.88l8.599,6.514l8.527,10.714Z" style="fill-opacity:0.3;"/></g></g><path d="M117.141,11.234c0,0 22.197,6.625 42.968,16.082c23.225,10.575 50.731,20.624 42.933,26.833c-1.143,0.91 -65.823,34.698 -85.901,42.95c-18.697,7.684 -85.219,-38.894 -85.829,-42.95c-1.173,-7.792 74.909,-45.097 85.829,-42.915Z" style="fill:#816b40;fill-opacity:0.428571;"/><path d="M111.191,26.017c26.611,1.03 30.818,-0.225 41.014,5.822c7.746,4.594 16.419,12.432 15.956,18.381c-1.128,14.522 -25.735,33.177 -42.182,33.93c-7.737,0.353 -23.906,-4.985 -32.666,-7.315c-9.86,-2.623 -20.102,-16.125 -23.281,-20.659c-12.359,-17.628 5.936,-31.521 41.159,-30.159Z" style="fill:#816b40;fill-opacity:0.5;"/></g></svg>