<?xml version="1.0" encoding="UTF-8" standalone="no"?><!DOCTYPE svg PUBLIC "-//W3C//DTD SVG 1.1//EN" "http://www.w3.org/Graphics/SVG/1.1/DTD/svg11.dtd"><svg width="100%" height="100%" viewBox="0 0 226 205" version="1.1" xmlns="http://www.w3.org/2000/svg" xmlns:xlink="http://www.w3.org/1999/xlink" xml:space="preserve" xmlns:serif="http://www.serif.com/" style="fill-rule:evenodd;clip-rule:evenodd;stroke-linejoin:round;stroke-miterlimit:1.41421;"><g id="Stone_Block03"><g><g><path d="M222.259,54.092l3.393,25.136l-3.393,25.229l2.263,34.368l-2.263,11.865l-107.331,53.666c-12.005,-28.02 -23.167,-56.334 0,-96.598c28.063,-22.03 50.477,-47.093 107.331,-53.666Z" style="fill:#beb3a6;"/><clipPath id="_clip1"><path d="M222.259,54.092l3.393,25.136l-3.393,25.229l2.263,34.368l-2.263,11.865l-107.331,53.666c-12.005,-28.02 -23.167,-56.334 0,-96.598c28.063,-22.03 50.477,-47.093 107.331,-53.666Z"/></clipPath><g clip-path="url(#_clip1)"><g><path d="M120.456,235.246l-7.471,-8.393l0.629,-15.38l4.861,-8.365l7.639,3.249l3.734,6.804l0.66,10.712l-10.052,11.373" style="fill:#e1c080;"/><path d="M143.996,204.962l6.48,-6.062l-3.056,-12.565l-8.623,-2.464l-7.623,-1.443l-2.976,3.951l-3.5,-1.489l-5.379,1.086l-1.634,4.319l5.651,4.448l4.24,3.091l7.817,4.704l8.603,2.424Z" style="fill:#c0c0c0;"/><path d="M180.983,211.267l7.62,-4.416l4.724,-10.592l-3.045,-9.558l-19.233,-2.963l-6.432,7.697l-1.006,7.708l6.329,7.428l11.043,4.696Z" style="fill:#e1c080;"/><path d="M202.759,174.807l8.069,-10.665l-1.707,-5.942l-8.575,-19.294c0,0 -7.897,5.94 -10.382,6.016c-2.486,0.077 -7.683,4.453 -7.683,4.453l3.151,9.269l8.6,6.111l8.527,10.052Z" style="fill:#c0c0c0;"/><path d="M154.656,179.479l10.639,-1.857l10.285,-7.605l-2.017,-7.626l-4.768,-5.692l-7.679,1.95l-4.985,5.389l-3.648,6.588l2.173,8.853" style="fill:#c0c0c0;"/><path d="M213.469,206.993l-9.12,-6.381l-10.414,5.504l-4.461,14.856l14.945,3.037l6.387,-5.869l2.663,-11.147" style="fill:#e1c080;"/><path d="M125.822,149.181l-7.47,-8.393l0.628,-15.38l4.862,-8.365l7.638,3.248l3.735,6.805l0.66,10.712l-10.053,11.373" style="fill:#c0c0c0;"/><path d="M138.241,167.713l-9.713,-5.466l1.145,-6.212l5.192,-3.008l4.056,1.725l4.47,4.429l-0.084,5.597l-5.066,2.935Z" style="fill:#c0c0c0;"/><path d="M168.524,144.118l-5.042,5.431l-10.806,-0.849l-2.237,-4.698l-1.605,-8.155l10.343,-11.542l3.071,5.211l5.435,0.955l2.991,10.126l-2.15,3.521" style="fill:#c0c0c0;"/><path d="M154.344,121.098l6.48,-6.062l-3.057,-12.565l-8.623,-2.463l-7.622,-1.443l-2.977,3.95l-3.5,-1.489l-5.378,1.086l-1.634,4.32l5.651,4.447l4.24,3.091l7.816,4.704l8.604,2.424Z" style="fill:#c0c0c0;"/><path d="M183.082,132.713l7.62,-4.416l4.724,-10.593l-3.045,-9.557l-19.233,-2.964l-6.432,7.697l-1.006,7.709l6.329,7.428l11.043,4.696Z" style="fill:#c0c0c0;"/><path d="M210.766,98.569l8.069,-10.664l-1.707,-5.942l-8.574,-19.295c0,0 -7.897,5.94 -10.383,6.017c-2.486,0.077 -7.683,4.452 -7.683,4.452l3.152,9.269l8.6,6.112l8.526,10.051Z" style="fill:#c0c0c0;"/><path d="M163.769,102.66l10.639,-1.857l10.285,-7.605l-2.016,-7.626l-4.769,-5.691l-7.679,1.95l-4.985,5.388l-3.648,6.589l2.173,8.852" style="fill:#c0c0c0;"/><path d="M218.835,120.928l-9.119,-6.381l-10.414,5.504l-4.462,14.856l14.945,3.037l6.388,-5.869l2.662,-11.147" style="fill:#c0c0c0;"/><path d="M131.342,259.049l-9.713,-5.466l1.145,-6.212l5.192,-3.008l4.056,1.725l4.47,4.429l-0.084,5.597l-5.066,2.935Zm30.283,-23.595l-5.042,5.431l-10.806,-0.849l-2.237,-4.698l-1.606,-8.155l10.344,-11.542l3.071,5.211l5.435,0.955l2.991,10.126l-2.15,3.521Zm-42.702,5.063l-7.47,-8.393l0.628,-15.38l4.862,-8.365l7.638,3.248l3.735,6.805l0.66,10.712l-10.053,11.373Zm93.013,-28.253l-2.662,11.147l-6.388,5.869l-14.945,-3.037l4.461,-14.856l10.415,-5.504l9.119,6.381Zm-32.485,4.274l7.62,-4.416l4.724,-10.592l-3.045,-9.558l-19.234,-2.963l-6.431,7.697l-1.006,7.708l6.329,7.428l11.043,4.696Zm-36.987,-6.305l6.48,-6.062l-3.057,-12.565l-8.623,-2.464l-7.622,-1.443l-2.977,3.951l-3.5,-1.489l-5.378,1.086l-1.634,4.319l5.651,4.448l4.24,3.091l7.816,4.704l8.604,2.424Zm10.66,-25.483l10.639,-1.857l10.284,-7.605l-2.016,-7.626l-4.769,-5.692l-7.679,1.95l-4.985,5.389l-3.648,6.588l2.174,8.853Zm48.102,-4.672l8.069,-10.665l-1.707,-5.942l-8.574,-19.294c0,0 -7.897,5.94 -10.383,6.016c-2.486,0.077 -7.683,4.453 -7.683,4.453l3.152,9.268l8.6,6.112l8.526,10.052Zm-64.518,-7.094l-9.713,-5.466l1.146,-6.212l5.191,-3.008l4.057,1.725l4.47,4.429l-0.085,5.597l-5.066,2.935Zm30.284,-23.595l-5.042,5.431l-10.806,-0.849l-2.238,-4.698l-1.605,-8.155l10.344,-11.542l3.07,5.211l5.436,0.955l2.99,10.126l-2.149,3.521Zm-42.702,5.063l-7.471,-8.393l0.629,-15.38l4.861,-8.365l7.639,3.248l3.734,6.804l0.66,10.713l-10.052,11.373Zm93.013,-28.253l-2.663,11.146l-6.387,5.87l-14.945,-3.037l4.461,-14.856l10.414,-5.504l9.12,6.381Zm-35.754,11.785l7.621,-4.416l4.724,-10.593l-3.045,-9.557l-19.234,-2.964l-6.432,7.697l-1.005,7.709l6.328,7.428l11.043,4.696Zm-28.738,-11.615l6.48,-6.062l-3.057,-12.565l-8.623,-2.463l-7.622,-1.443l-2.977,3.95l-3.5,-1.489l-5.378,1.086l-1.634,4.32l5.651,4.447l4.24,3.091l7.816,4.704l8.604,2.424Zm9.426,-18.438l10.639,-1.857l10.285,-7.605l-2.017,-7.626l-4.768,-5.692l-7.68,1.951l-4.984,5.388l-3.648,6.589l2.173,8.852Zm46.997,-4.091l8.069,-10.664l-1.707,-5.942l-8.575,-19.295c0,0 -7.897,5.94 -10.382,6.017c-2.486,0.076 -7.683,4.452 -7.683,4.452l3.151,9.269l8.6,6.112l8.527,10.051Z" style="fill:#544235;fill-opacity:0.2;"/></g></g></g><path d="M7.597,54.092l45.753,14.689l61.578,38.977l-5.367,29.516l8.589,33.271l-3.222,33.811l-107.331,-53.666l-3.552,-23.242l5.441,-36.735l-1.889,-36.621" style="fill:#847a70;"/><clipPath id="_clip2"><path d="M7.597,54.092l45.753,14.689l61.578,38.977l-5.367,29.516l8.589,33.271l-3.222,33.811l-107.331,-53.666l-3.552,-23.242l5.441,-36.735l-1.889,-36.621"/></clipPath><g clip-path="url(#_clip2)"><g><path d="M13.089,226.069l-7.471,-8.946l0.629,-16.394l4.861,-8.916l7.639,3.463l3.734,7.252l0.66,11.418l-10.052,12.123" style="fill:#857c6c;"/><path d="M55.791,220.672l-5.042,5.788l-10.806,-0.904l-2.238,-5.008l-1.605,-8.692l10.344,-12.302l3.07,5.554l5.436,1.018l2.99,10.793l-2.149,3.753" style="fill:#857c6c;"/><path d="M36.63,193.789l6.479,-6.461l-3.056,-13.392l-8.623,-2.626l-7.623,-1.538l-2.976,4.21l-3.5,-1.587l-5.379,1.157l-1.633,4.605l5.65,4.741l4.241,3.294l7.816,5.013l8.604,2.584Z" style="fill:#857c6c;"/><path d="M73.616,200.51l7.621,-4.707l4.724,-11.29l-3.046,-10.187l-19.233,-3.159l-6.432,8.204l-1.006,8.216l6.329,7.917l11.043,5.006Z" style="fill:#857c6c;"/><path d="M95.624,169.295l8.069,-11.367l-1.706,-6.333l-8.575,-20.566c0,0 -7.897,6.331 -10.383,6.413c-2.486,0.082 -7.683,4.745 -7.683,4.745l3.152,9.88l8.6,6.514l8.526,10.714Z" style="fill:#857c6c;"/><path d="M47.289,166.628l10.639,-1.98l10.285,-8.106l-2.017,-8.128l-4.768,-6.067l-7.679,2.079l-4.985,5.743l-3.648,7.023l2.173,9.436" style="fill:#857c6c;"/><path d="M113.288,183.873l-9.093,-6.35l-10.433,5.551l-4.516,14.884l14.93,2.979l6.408,-5.899l2.704,-11.165" style="fill:#857c6c;"/><path d="M18.455,134.335l-7.47,-8.946l0.629,-16.394l4.861,-8.916l7.639,3.463l3.734,7.252l0.66,11.418l-10.053,12.123" style="fill:#857c6c;"/><path d="M30.874,154.087l-9.713,-5.827l1.145,-6.62l5.192,-3.207l4.056,1.839l4.471,4.721l-0.085,5.965l-5.066,3.129Z" style="fill:#857c6c;"/><path d="M54.606,133.081l-5.042,5.788l-10.806,-0.904l-2.237,-5.008l-1.606,-8.692l10.344,-12.302l3.071,5.554l5.435,1.018l2.991,10.793l-2.15,3.753" style="fill:#857c6c;"/><path d="M24.304,96.475l9.014,-1.578l5.175,-12.725l-5.559,-7.095l-5.363,-5.631l-4.853,1.742l-1.958,-3.306l-5.069,-2.136l-3.979,2.835l1.911,7.124l1.585,5.13l3.529,8.59l5.567,7.05Z" style="fill:#857c6c;"/><path d="M65.017,115.043l7.621,-4.707l4.724,-11.29l-3.045,-10.187l-19.234,-3.159l-6.431,8.204l-1.006,8.216l6.329,7.917l11.042,5.006Z" style="fill:#857c6c;"/><path d="M100.759,69.914l8.068,-11.367l-1.706,-6.333l-8.575,-20.566c0,0 -7.897,6.331 -10.383,6.413c-2.486,0.082 -7.683,4.745 -7.683,4.745l3.152,9.88l8.6,6.514l8.527,10.714Z" style="fill:#857c6c;"/><path d="M52.656,74.894l10.639,-1.98l10.285,-8.106l-2.017,-8.128l-4.768,-6.067l-7.68,2.079l-4.984,5.743l-3.648,7.023l2.173,9.436" style="fill:#857c6c;"/><path d="M104.195,107.693l-9.12,-6.802l-10.414,5.868l-4.461,15.834l14.945,3.237l6.387,-6.256l2.663,-11.881" style="fill:#857c6c;"/></g><path d="M21.781,246.823l-9.713,-5.827l1.145,-6.62l5.192,-3.207l4.056,1.839l4.47,4.721l-0.084,5.965l-5.066,3.129Zm30.283,-25.149l-5.042,5.788l-10.806,-0.905l-2.237,-5.007l-1.606,-8.693l10.344,-12.301l3.071,5.554l5.435,1.018l2.991,10.793l-2.15,3.753Zm-42.702,5.396l-7.47,-8.945l0.628,-16.394l4.862,-8.916l7.638,3.463l3.735,7.252l0.66,11.418l-10.053,12.122Zm100.199,-42.195l-2.704,11.165l-6.407,5.899l-14.931,-2.979l4.516,-14.885l10.433,-5.55l9.093,6.35Zm-39.671,16.637l7.62,-4.707l4.724,-11.29l-3.045,-10.188l-19.234,-3.158l-6.431,8.204l-1.006,8.216l6.329,7.917l11.043,5.006Zm-36.987,-6.721l6.48,-6.461l-3.057,-13.393l-8.623,-2.626l-7.622,-1.538l-2.977,4.211l-3.5,-1.587l-5.378,1.157l-1.634,4.605l5.651,4.74l4.24,3.295l7.816,5.013l8.604,2.584Zm58.995,-24.495l8.069,-11.367l-1.707,-6.333l-8.575,-20.565c0,0 -7.897,6.331 -10.383,6.413c-2.485,0.081 -7.683,4.745 -7.683,4.745l3.152,9.88l8.6,6.514l8.527,10.713Zm-48.335,-2.667l10.639,-1.979l10.284,-8.106l-2.016,-8.128l-4.769,-6.067l-7.679,2.079l-4.985,5.743l-3.648,7.023l2.174,9.435Zm-16.415,-12.54l-9.714,-5.827l1.146,-6.621l5.191,-3.206l4.057,1.839l4.47,4.721l-0.085,5.965l-5.065,3.129Zm23.732,-21.006l-5.042,5.788l-10.806,-0.905l-2.238,-5.007l-1.605,-8.693l10.343,-12.301l3.071,5.554l5.436,1.018l2.99,10.793l-2.149,3.753Zm-36.151,1.253l-7.471,-8.946l0.629,-16.393l4.861,-8.916l7.639,3.463l3.734,7.252l0.66,11.418l-10.052,12.122Zm85.739,-26.641l-2.662,11.881l-6.388,6.256l-14.945,-3.237l4.461,-15.834l10.415,-5.868l9.119,6.802Zm-39.177,7.35l7.62,-4.707l4.724,-11.29l-3.045,-10.187l-19.233,-3.159l-6.432,8.204l-1.006,8.216l6.329,7.917l11.043,5.006Zm-40.714,-18.568l9.014,-1.578l5.175,-12.725l-5.559,-7.096l-5.362,-5.63l-4.853,1.742l-1.958,-3.307l-5.07,-2.136l-3.979,2.836l1.912,7.124l1.584,5.13l3.529,8.59l5.567,7.05Zm32.929,-25.797l6.062,2.236l10.285,-8.106l-2.017,-8.128l-4.768,-6.067l-7.679,2.079l-4.985,5.743l-3.648,7.023l6.75,5.22Zm43.526,-0.765l8.069,-11.366l-1.707,-6.334l-8.575,-20.565c0,0 -7.897,6.331 -10.382,6.413c-2.486,0.081 -7.683,4.745 -7.683,4.745l3.152,9.88l8.599,6.514l8.527,10.713Z" style="fill:#544235;fill-opacity:0.6;"/></g></g><path d="M222.259,54.024l-18.529,-12.134l-20.977,-5.611l-21.367,-12.624l-15.817,-7.931l-14.542,-1.881l-16.099,-13.484l-12.578,3.143l-18.161,10.633l-26.466,9.527l-18.929,13.829l-31.197,16.533l10.733,7.116l27.671,9.321l38.415,23.881l30.512,13.348l10.006,-3.116l17.887,-15.069l38.682,-12.859l26.621,-16.122l14.135,-6.5Z" style="fill:#aba39a;"/><clipPath id="_clip3"><path d="M222.259,54.024l-18.529,-12.134l-20.977,-5.611l-21.367,-12.624l-15.817,-7.931l-14.542,-1.881l-16.099,-13.484l-12.578,3.143l-18.161,10.633l-26.466,9.527l-18.929,13.829l-31.197,16.533l10.733,7.116l27.671,9.321l38.415,23.881l30.512,13.348l10.006,-3.116l17.887,-15.069l38.682,-12.859l26.621,-16.122l14.135,-6.5Z"/></clipPath><g clip-path="url(#_clip3)"><path d="M-4.432,21.135c0,0 25.753,7.572 44.228,16.79c10.716,5.347 10.435,12.284 12.301,17.627c6.806,19.49 22.136,14.676 56.519,21.33c14.621,2.83 30.458,10.551 38.511,14.708c16.652,8.596 35.774,8.946 35.774,8.946l-153.846,33.017l-67.966,-77.833l34.479,-34.585Z" style="fill:#847a70;fill-opacity:0.5;"/><path d="M190.06,70.124c-1.62,-2.35 -41.14,-4.125 -39.943,-23.447c0.693,-11.186 -13.275,-6.448 -46.624,-17.141c-3.267,-1.047 -10.018,-7.712 -20.765,-13.078c-26.493,-13.227 -64.206,-12.397 -64.206,-12.397l153.225,-35.789l73.087,90.565l-54.774,11.287Z" style="fill:#847a70;fill-opacity:0.5;"/><g><g><path d="M200.495,68.851l8.163,-4.081l-0.518,-8.196l-9.044,-3.123l-7.159,-4.979l-10.548,-2.267l-10.545,10.639l4.089,8.689l9.463,6.001l16.099,-2.683Z" style="fill:#acaba7;"/><path d="M152.196,40.746l14.665,1.99l-5.999,20.445l-12.296,-0.565l-9.122,2.542l-2.035,-6.384l-10.081,-7.005l3.402,-9.357l5.367,-4.48l10.733,0.131l5.366,2.683Z" style="fill:#acaba7;"/><path d="M127.328,32.268l14.135,-0.173l9.298,2.591l3.036,-1.518l3.766,-1.883l-2.822,-3.956l-2.545,-4.094l-6.616,-0.486l-4.117,-2.059l-5.366,-0.138l-12.169,0.718l-0.532,2.273l0.175,6.846l3.757,1.879Z" style="fill:#acaba7;"/><path d="M95.879,16.543l10.989,-2.843l6.619,4.549l5.099,5.692l-3.956,4.218l-10.733,3.126l-10.733,3.661l-7.91,3.117l0.735,-4.999l-3.558,-1.779l-1.789,-4.472l1.789,-2.862l13.448,-7.408" style="fill:#acaba7;"/><path d="M104.977,45.843l-8.543,3.192l-8.636,7.002l7.698,7.954l6.216,1.686l4.098,5.503l7.41,-1.623l1.41,-9.774l2.455,-7.885l-6.25,-5.961l-5.858,-0.094Z" style="fill:#acaba7;"/><path d="M55.598,39.335l13.211,1.239l10.168,8.538l-3.294,7.013l-5.008,5.188l-15.077,-0.512l-8.504,4.253l-3.968,-8.75l0.46,-5.596l3.623,-4.834l8.389,-6.539Z" style="fill:#acaba7;"/><path d="M74.76,75.749l15.077,0.132l11.775,7.927l-6.219,5.395l-6.229,3.114l-16.5,-1.517l-6.333,2.201l-1.975,-6.354l-12.428,-4.187l-2.784,-6.112l2.786,-2.979l5.914,-0.712l3.121,1.561l13.795,1.531" style="fill:#acaba7;"/><path d="M127.157,72.63l-8.114,8.245l-0.779,11.123l7.715,2.942l12.602,-0.498l7.551,-6.958l4.782,-8.342l-8.836,-3.206l-8.82,-2.168l-6.101,-1.138" style="fill:#acaba7;"/><path d="M169.549,70.783l-4.035,4.826l-3.812,11.411l9.176,4.589l8.151,-4.808l5.367,-6.652l-10.733,-3.248l0,-2.182l-1.741,-2.314l-2.373,-1.622Z" style="fill:#acaba7;"/><path d="M100.383,95.501l-4.634,4.875l0,5.89l9.702,6.295l10.623,3.868l3.426,-6.438l0,-10.178l-19.117,-4.312Z" style="fill:#acaba7;"/></g><g><g opacity="0.3"><path d="M204.87,73.079l8.162,-4.082l-1.352,-7.224l-8.21,-4.094l-7.158,-4.979l-10.548,-2.268l-10.546,10.64l4.09,8.688l9.462,6.002l16.1,-2.683Z" style="fill:#544235;"/><path d="M156.571,44.973l14.664,1.99l-5.999,20.445l-12.295,-0.564l-9.123,2.542l-2.034,-6.384l-10.081,-7.005l3.402,-9.358l5.366,-4.479l10.733,0.13l5.367,2.683Z" style="fill:#544235;"/><path d="M131.703,36.495l14.135,-0.172l9.298,2.591l3.035,-1.518l3.039,-1.54l-6.394,-3.197l2.747,-1.374l-7.608,-4.309l-4.117,-2.058l-5.367,-0.138l-12.168,0.717l-0.532,2.274l0.174,6.845l3.758,1.879Z" style="fill:#544235;"/><path d="M100.253,20.77l10.99,-2.842l6.618,4.549l5.1,5.691l-3.956,4.218l-10.733,3.127l-10.733,3.66l-7.91,3.118l-4.671,-3.022l0.684,-5.708l4.64,-2.677l-1.788,-6.26l11.759,-3.854" style="fill:#544235;"/><path d="M109.351,50.071l-8.542,3.192l-8.637,7.001l3.32,3.715l5.923,1.795l8.769,9.634l7.41,-1.624l1.411,-9.774l2.455,-7.885l-6.25,-5.961l-5.859,-0.093Z" style="fill:#544235;"/><path d="M59.973,43.563l13.21,1.238l10.169,8.538l-3.294,7.014l-5.008,5.187l-15.077,-0.511l-8.505,4.252l-3.967,-8.749l0.459,-5.597l3.624,-4.834l8.389,-6.538Z" style="fill:#544235;"/><path d="M79.134,79.976l15.078,0.133l11.775,7.927l-6.22,5.395l-6.228,3.114l-16.501,-1.517l-6.332,2.2l-4.593,-4.118l-1.769,-5.968l-9.05,-3.08l-1.776,-3.486l2.786,-2.98l5.915,-0.711l3.12,1.56l13.795,1.531" style="fill:#544235;"/><path d="M25.883,62.639c1.868,0.205 15.439,5.084 15.439,5.084l6.708,10.036l-10.733,4.051l-6.867,-5.059l-9.232,-2.991c0,0 2.818,-11.327 4.685,-11.121Z" style="fill:#544235;"/><path d="M131.532,76.857l-8.115,8.245l-0.779,11.123l7.715,2.942l12.603,-0.498l7.551,-6.957l4.782,-8.343l-8.836,-3.206l-8.821,-2.168l-6.1,-1.138" style="fill:#544235;"/><path d="M173.924,75.01l-4.035,4.826l-3.813,11.412l5.114,0.424l7.559,-4.377l5.647,-6.513l-4.233,-1.739l-2.016,-0.503l-4.214,-1.769l-0.009,-1.761Z" style="fill:#544235;"/><path d="M104.757,99.728l-4.634,4.876l0,5.889l9.972,5.43l8.785,2.916l4.994,-4.621l0,-10.177l-19.117,-4.313Z" style="fill:#544235;"/></g></g></g></g><g><g><path d="M58.232,177.765l11.496,4.495l1.807,-6.306l3.268,-22.04c0,0 -10.032,1.348 -12.203,0.135c-2.172,-1.213 -9.03,0.1 -9.03,0.1l-2.399,10.089l4.005,10.018l3.056,3.509Z" style="fill:#857c6c;"/><path d="M16.925,160.605l10.135,3.795l12.992,-1.636l2.467,-8.003l-0.953,-7.657l-7.651,-2.183l-7.233,2.348l-6.749,4.132l-3.008,9.204" style="fill:#857c6c;"/><path d="M8.892,118.064l-1.783,-11.517l8.999,-13.718l8.765,-5.129l4.756,6.908l-0.544,8.139l-5.327,10.122l-14.866,5.195" style="fill:#857c6c;"/><path d="M9.336,141.392l-5.313,-10.003l4.398,-5.08l6.101,-0.068l2.526,3.669l1.393,6.35l-3.151,5.066l-5.954,0.066Z" style="fill:#857c6c;"/><path d="M40.504,135.646l-7.306,2.356l-8.789,-6.351l0.668,-5.444l3.11,-8.274l15.209,-5.2l-0.236,6.343l4.13,3.677l-3.008,10.788l-3.778,2.105" style="fill:#857c6c;"/><path d="M33.439,88.653l8.535,3.3l10.999,-8.228l-1.1,-8.947l-1.687,-7.591l-5.056,-1.011l0.029,-3.843l-3.24,-4.446l-4.871,0.375l-2.04,7.089l-1.29,5.212l-1.41,9.179l1.131,8.911Z" style="fill:#857c6c;"/><path d="M58.731,125.568l8.956,-0.099l9.872,-7.233l2.649,-10.298l-14.845,-12.63l-9.742,3.708l-5.102,6.518l1.336,10.048l6.876,9.986Z" style="fill:#857c6c;"/><path d="M112.634,105.356l12.777,-5.573l1.806,-6.305l3.268,-22.041c0,0 -10.031,1.348 -12.203,0.135c-2.171,-1.212 -9.029,0.1 -9.029,0.1l-2.399,10.089l4.005,10.018l1.775,13.577Z" style="fill:#aba39a;"/><path d="M68.861,84.798l10.134,3.795l12.993,-1.636l2.467,-8.003l-0.954,-7.657l-7.65,-2.182l-7.234,2.347l-6.748,4.133l-3.008,9.203" style="fill:#aba39a;"/><path d="M96.081,139.49l-4.301,-10.533l-11.949,-0.348l-11.992,11.261l11.131,10.485l8.7,-2.063l8.411,-8.802" style="fill:#857c6c;"/></g><path d="M51.664,172.724l14.868,7.519l1.294,-5.354l3.267,-22.04c0,0 -10.031,1.348 -12.202,0.135c-2.172,-1.213 -9.03,0.1 -9.03,0.1l-2.399,10.089l4.202,9.551Zm-38.448,-13.184l10.135,3.795l12.992,-1.636l2.467,-8.003l-0.953,-7.657l-7.651,-2.183l-7.233,2.348l-6.749,4.132l-3.008,9.204Zm-7.589,-19.213l-5.313,-10.003l4.398,-5.08l6.101,-0.068l2.526,3.669l1.393,6.35l-3.151,5.066l-5.954,0.066Zm31.168,-5.746l-7.306,2.356l-8.789,-6.351l0.668,-5.444l3.11,-8.274l15.209,-5.2l-0.237,6.343l4.131,3.677l-3.008,10.788l-3.778,2.105Zm-31.612,-17.582l-1.783,-11.517l8.999,-13.718l8.765,-5.129l4.756,6.908l-0.544,8.139l-5.327,10.122l-14.866,5.195Zm87.189,21.426l-8.411,8.802l-8.7,2.063l-11.131,-10.485l11.992,-11.261l11.949,0.348l4.301,10.533Zm-37.351,-13.922l8.957,-0.099l9.872,-7.233l2.649,-10.298l-14.845,-12.63l-9.742,3.708l-5.102,6.518l1.336,10.048l6.875,9.986Zm-25.291,-36.915l8.535,3.3l10.999,-8.228l-1.1,-8.947l-1.687,-7.591l-5.057,-1.011l0.03,-3.843l-3.24,-4.446l-4.871,0.375l-2.04,7.089l-1.29,5.212l-1.41,9.179l1.131,8.911Zm41.517,-5.104l4.039,5.044l12.993,-1.636l2.467,-8.003l-0.954,-7.657l-7.65,-2.182l-7.234,2.347l-6.748,4.133l3.087,7.954Zm37.678,21.807l12.777,-5.573l1.806,-6.305l3.268,-22.041c0,0 -10.031,1.348 -12.203,0.135c-2.171,-1.212 -9.029,0.1 -9.029,0.1l-2.399,10.089l4.005,10.018l1.775,13.577Z" style="fill:#544235;fill-opacity:0.6;"/></g><g><path d="M63.796,163.441l0.716,-11.213l11.38,-10.366l9.366,-2.424l3.06,7.716l-2.213,7.439l-7.154,8.001l-15.155,0.847" style="fill:#847a70;"/><path d="M97.418,190.249l-7.407,0.232l-6.993,-8.281l1.768,-4.894l4.67,-6.875l15.48,-0.759l-1.547,5.847l3.142,4.537l-5.098,9.246l-4.015,0.947" style="fill:#847a70;"/><path d="M106.007,160.88l8.866,0.346l6.786,-11.007l-4.31,-7.864l-4.333,-6.435l-4.902,0.66l-1.402,-3.535l-4.553,-3.062l-4.22,1.875l0.809,7.146l0.784,5.188l2.15,8.865l4.325,7.823Z" style="fill:#c0c0c0;"/><path d="M123.402,189.626l8.498,2.315l10.854,-4.088l4.656,-8.885l-11.415,-15.761l-9.995,0.837l-6.189,4.705l-0.833,9.722l4.424,11.155Z" style="fill:#c0c0c0;"/><path d="M164.64,179.478l13.257,-1.759l3.025,-5.391l7.693,-19.663c0,0 -9.776,-1.44 -11.578,-3.154c-1.802,-1.714 -8.568,-2.333 -8.568,-2.333l-4.376,8.757l1.7,10.413l-1.153,13.13Z" style="fill:#c0c0c0;"/><path d="M127.499,148.555l8.8,6.26l12.639,1.968l4.005,-6.796l0.696,-7.392l-6.786,-4.09l-7.337,0.243l-7.25,2.038l-4.767,7.769" style="fill:#c0c0c0;"/><path d="M128.773,106.75l0.716,-11.214l11.38,-10.366l9.366,-2.424l3.061,7.716l-2.214,7.44l-7.154,8.001l-15.155,0.847" style="fill:#c0c0c0;"/><path d="M124.325,128.61l-2.941,-10.751l5.222,-3.552l5.789,1.577l1.626,4.097l-0.007,6.293l-4.04,3.875l-5.649,-1.539Z" style="fill:#c0c0c0;"/><path d="M162.395,133.557l-7.407,0.232l-6.993,-8.281l1.768,-4.894l4.671,-6.875l15.479,-0.759l-1.547,5.848l3.143,4.537l-5.099,9.245l-4.015,0.947" style="fill:#c0c0c0;"/><path d="M168.796,107.288l8.867,0.346l6.786,-11.007l-4.311,-7.864l-4.332,-6.435l-4.902,0.66l-1.402,-3.535l-4.553,-3.062l-4.221,1.875l0.81,7.146l0.783,5.188l2.15,8.866l4.325,7.822Z" style="fill:#c0c0c0;"/><path d="M180.741,135.891l8.498,2.315l10.853,-4.088l4.656,-8.885l-11.414,-15.761l-9.996,0.837l-6.189,4.704l-0.832,9.723l4.424,11.155Z" style="fill:#c0c0c0;"/><path d="M188.534,101.029l8.801,6.26l12.639,1.967l4.005,-6.795l0.695,-7.393l-6.785,-4.09l-7.337,0.244l-7.25,2.037l-4.768,7.77" style="fill:#c0c0c0;"/><path d="M214.257,153.031l-1.873,-10.971l-11.236,-3.536l-13.701,7.272l8.348,12.763l8.664,0.416l9.798,-5.944" style="fill:#c0c0c0;"/><path d="M96.607,191.918l-18.415,-7.102l1.768,-4.894l4.671,-6.875l15.479,-0.759l-1.547,5.847l3.143,4.537l-5.099,9.246Zm-37.637,-25.861l0.716,-11.213l11.38,-10.366l9.366,-2.424l3.06,7.716l-2.213,7.439l-7.154,8.001l-15.155,0.847Zm59.606,26.185l8.498,2.315l10.854,-4.088l4.656,-8.885l-11.415,-15.761l-9.995,0.837l-6.189,4.704l-0.833,9.723l4.424,11.155Zm-21.519,-30.736l8.866,0.347l6.786,-11.008l-4.31,-7.864l-4.333,-6.435l-4.902,0.66l-1.402,-3.535l-4.553,-3.062l-4.22,1.875l0.809,7.146l0.783,5.188l2.151,8.866l4.325,7.822Zm25.616,-10.335l8.8,6.26l12.639,1.967l4.006,-6.795l0.695,-7.393l-6.786,-4.089l-7.336,0.243l-7.251,2.038l-4.767,7.769Zm37.141,30.923l13.257,-1.76l3.025,-5.391l7.693,-19.662c0,0 -9.776,-1.44 -11.578,-3.154c-1.802,-1.714 -8.568,-2.334 -8.568,-2.334l-4.375,8.758l1.699,10.413l-1.153,13.13Zm-40.315,-50.868l-2.941,-10.751l5.223,-3.552l5.789,1.576l1.625,4.098l-0.007,6.293l-4.04,3.875l-5.649,-1.539Zm38.07,4.947l-7.406,0.232l-6.994,-8.281l1.768,-4.894l4.671,-6.875l15.48,-0.759l-1.547,5.847l3.142,4.537l-5.099,9.246l-4.015,0.947Zm-33.622,-26.807l0.716,-11.214l11.38,-10.366l9.366,-2.424l3.061,7.716l-2.214,7.439l-7.154,8.002l-15.155,0.847Zm85.485,46.281l-9.799,5.943l-8.664,-0.415l-8.348,-12.763l13.701,-7.272l11.236,3.536l1.874,10.971Zm-33.517,-17.14l8.498,2.314l10.854,-4.087l4.656,-8.885l-11.415,-15.761l-9.996,0.837l-6.189,4.704l-0.832,9.723l4.424,11.155Zm-11.945,-28.603l8.867,0.346l6.786,-11.007l-4.31,-7.864l-4.333,-6.435l-4.902,0.66l-1.402,-3.535l-4.553,-3.062l-4.221,1.875l0.81,7.146l0.783,5.188l2.15,8.866l4.325,7.822Zm19.739,-6.259l8.8,6.26l12.639,1.967l4.005,-6.796l0.696,-7.392l-6.786,-4.09l-7.337,0.243l-7.25,2.038l-4.767,7.77Z" style="fill:#544235;fill-opacity:0.2;"/></g><g><g><path d="M29.902,55.997l-8.163,-4.081l0.518,-8.196l9.044,-3.123l7.159,-4.979l10.548,-2.267l10.545,10.639l-4.089,8.688l-9.463,6.002l-16.099,-2.683Z" style="fill:#acaba7;"/><path d="M78.201,27.892l-14.665,1.99l5.999,20.445l12.296,-0.565l9.122,2.542l2.035,-6.384l10.081,-7.005l-3.402,-9.357l-5.367,-4.48l-10.733,0.13l-5.366,2.684Z" style="fill:#acaba7;"/><path d="M103.069,19.413l-14.135,-0.172l-9.298,2.591l-3.036,-1.518l-3.766,-1.883l2.822,-3.956l2.545,-4.094l6.616,-0.486l4.117,-2.059l5.366,-0.138l12.169,0.717l0.532,2.274l-0.175,6.845l-3.757,1.879Z" style="fill:#acaba7;"/><path d="M134.518,3.689l-10.989,-2.843l-6.619,4.549l-5.099,5.691l3.956,4.218l10.733,3.127l10.733,3.661l7.91,3.117l-0.735,-4.999l3.558,-1.779l1.789,-4.472l-1.789,-2.863l-13.448,-7.407" style="fill:#acaba7;"/><path d="M125.42,32.989l8.543,3.192l8.636,7.001l-7.698,7.955l-6.216,1.686l-4.098,5.503l-7.41,-1.624l-1.41,-9.773l-2.455,-7.886l6.25,-5.96l5.858,-0.094Z" style="fill:#acaba7;"/><path d="M174.799,26.481l-13.211,1.238l-10.168,8.539l3.294,7.013l5.008,5.187l15.077,-0.511l8.504,4.252l3.968,-8.749l-0.46,-5.597l-3.623,-4.834l-8.389,-6.538Z" style="fill:#acaba7;"/><path d="M155.637,62.894l-15.077,0.133l-11.775,7.927l6.219,5.395l6.229,3.114l16.5,-1.517l6.333,2.2l1.975,-6.354l12.428,-4.186l2.784,-6.112l-2.786,-2.98l-5.914,-0.711l-3.121,1.56l-13.795,1.531" style="fill:#acaba7;"/><path d="M209.506,43.911c-1.868,0.206 -16.057,6.73 -16.057,6.73l-6.708,10.037l10.733,4.05l6.868,-5.059l9.232,-2.991c0,0 -2.201,-12.972 -4.068,-12.767Z" style="fill:#acaba7;"/><path d="M103.24,59.776l8.114,8.245l0.779,11.122l-7.715,2.943l-12.602,-0.499l-7.551,-6.957l-4.782,-8.342l8.836,-3.207l8.82,-2.168l6.101,-1.137" style="fill:#acaba7;"/><path d="M60.848,57.928l4.034,4.826l3.813,11.412l-9.176,4.588l-8.151,-4.808l-5.367,-6.651l10.733,-3.248l0,-2.182l1.741,-2.314l2.373,-1.623Z" style="fill:#acaba7;"/><path d="M130.014,82.647l4.634,4.875l0,5.89l-9.702,6.294l-10.623,3.868l-3.426,-6.438l0,-10.177l19.117,-4.312Z" style="fill:#acaba7;"/></g><g><g opacity="0.3"><path d="M25.527,60.224l-8.162,-4.081l1.352,-7.224l8.21,-4.095l7.158,-4.978l10.548,-2.268l10.546,10.639l-4.09,8.689l-9.462,6.002l-16.1,-2.684Z" style="fill:#544235;"/><path d="M73.826,32.119l-14.664,1.99l5.999,20.445l12.295,-0.564l9.123,2.541l2.034,-6.384l10.081,-7.005l-3.402,-9.357l-5.366,-4.48l-10.733,0.131l-5.367,2.683Z" style="fill:#544235;"/><path d="M98.694,23.641l-14.135,-0.173l-9.298,2.591l-3.035,-1.517l-3.039,-1.54l6.394,-3.197l-2.747,-1.374l7.608,-4.309l4.117,-2.059l5.367,-0.138l12.168,0.718l0.532,2.274l-0.174,6.845l-3.758,1.879Z" style="fill:#544235;"/><path d="M130.144,7.916l-10.99,-2.843l-6.618,4.549l-5.1,5.692l3.956,4.218l10.733,3.126l10.733,3.661l7.91,3.118l4.671,-3.022l-0.684,-5.708l-4.64,-2.677l1.788,-6.261l-11.759,-3.853" style="fill:#544235;"/><path d="M121.045,37.216l8.543,3.192l8.637,7.002l-3.32,3.715l-5.923,1.795l-8.769,9.633l-7.41,-1.623l-1.411,-9.774l-2.455,-7.885l6.25,-5.961l5.858,-0.094Z" style="fill:#544235;"/><path d="M170.424,30.708l-13.21,1.239l-10.169,8.538l3.294,7.013l5.008,5.188l15.077,-0.512l8.505,4.253l3.967,-8.75l-0.459,-5.596l-3.624,-4.834l-8.389,-6.539Z" style="fill:#544235;"/><path d="M151.263,67.122l-15.078,0.132l-11.775,7.927l6.22,5.395l6.228,3.115l16.501,-1.517l6.332,2.2l4.593,-4.118l1.769,-5.968l9.05,-3.08l1.776,-3.487l-2.786,-2.979l-5.915,-0.711l-3.12,1.56l-13.795,1.531" style="fill:#544235;"/><path d="M204.514,49.785c-1.868,0.205 -15.439,5.084 -15.439,5.084l-6.708,10.036l10.733,4.051l6.867,-5.059l9.232,-2.991c0,0 -2.818,-11.327 -4.685,-11.121Z" style="fill:#544235;"/><path d="M98.865,64.003l8.115,8.245l0.779,11.123l-7.715,2.942l-12.603,-0.498l-7.551,-6.958l-4.782,-8.342l8.836,-3.206l8.821,-2.168l6.1,-1.138" style="fill:#544235;"/><path d="M56.473,62.156l4.035,4.826l3.813,11.412l-5.114,0.424l-7.559,-4.377l-5.647,-6.513l4.233,-1.739l2.016,-0.503l4.214,-1.769l0.009,-1.761Z" style="fill:#544235;"/><path d="M125.64,86.874l4.634,4.875l0,5.89l-9.973,5.43l-8.784,2.916l-4.995,-4.621l0,-10.178l19.118,-4.312Z" style="fill:#544235;"/></g></g></g></g></svg>