<?xml version="1.0" encoding="UTF-8" standalone="no"?><!DOCTYPE svg PUBLIC "-//W3C//DTD SVG 1.1//EN" "http://www.w3.org/Graphics/SVG/1.1/DTD/svg11.dtd"><svg width="100%" height="100%" viewBox="0 0 221 205" version="1.1" xmlns="http://www.w3.org/2000/svg" xmlns:xlink="http://www.w3.org/1999/xlink" xml:space="preserve" xmlns:serif="http://www.serif.com/" style="fill-rule:evenodd;clip-rule:evenodd;stroke-linejoin:round;stroke-miterlimit:1.41421;"><g id="Dirt_Block27"><path d="M215.512,54.621c7.062,59.849 6.338,89.214 0,96.598l-37.566,18.783l-16.1,11.141l-53.665,23.742l-4.027,-61.046l4.027,-35.552l107.331,-53.666Z" style="fill:#b08255;"/><clipPath id="_clip1"><path d="M215.512,54.621c7.062,59.849 6.338,89.214 0,96.598l-37.566,18.783l-16.1,11.141l-53.665,23.742l-4.027,-61.046l4.027,-35.552l107.331,-53.666Z"/></clipPath><g clip-path="url(#_clip1)"><path d="M210.145,57.304l0,6.863l5.367,6.554l10.733,13.065l-5.366,24.176l-5.367,0.325l-12.182,-6.091l-10.528,-4.021l-6.814,-11.456l11.417,1.781l-8.726,-4.363l-7.035,0.617l-3.698,3.309l-3.29,-5.571l3.29,-9.088l10.733,-10.733l5.367,2.683l1.147,13.401l9.586,9.412l3.987,7.393l-1.521,-9.973l8.267,-6.211l-12.4,2.911l-0.922,-7.494l-2.778,-6.756l0,-5.366l-12.931,-4.268l-13.901,17.684l0,16.1l7.586,3.793l3.147,-1.244l3.705,4.67l7.028,4.864l5.366,4.848l26.833,4.535l-3.834,7.284l-12.266,9.027l-10.733,9.373l9.118,20.74l4.559,-4.703l-6.631,-14.048l14.421,-8.89l0,21.466l-9.62,10.177l-19.401,0.629l2.188,-16.806l-5.367,-7.272l12.197,-18.195l-4.784,-2.392l-2.046,5.807l-7.834,10.719l-2.899,-8.382l3.005,-7.665l2.361,-7.687l-2.016,-0.857l-3.35,1.675l-2.376,11.921l-10.276,-7.513l-5.403,-13.435l7.322,-3.605l-6.864,-5.402l1.497,-6.115l-5.367,-8.05l-10.733,-5.367l-7.762,-36.08l-35.17,-15.244l-25.454,11.765l2.402,29.619l4.718,-2.359l-0.894,-21.019l15.781,-11.338l33.413,13.573l7.6,33.767l5.366,8.049l5.367,10.824l-18.106,11.646l-10.911,10.822l23.65,-13.58l12.465,9.858l7.767,12.746l4.706,9.614l-16.793,13.763l-20.446,15.59l19.364,17.151l5.943,-4.498l-18.372,-14.108l34.067,-24.412l8.865,6.3l-2.483,20.225l-8.25,4.351l0,-17.13l-11.996,8.022l3.335,12.4l2.017,-4.357l1.278,-8.47l3.759,12.595l-30.592,20.663l-10.733,-16.1l-21.467,-10.733l-14.447,5.534l-23.119,23.982l21.467,5.367l-10.734,-8.341l14.087,-16.815l7.38,-3.224l5.366,6.949l3.376,-6.397l8.008,4.003l10.083,8.212l2.541,6.292l-14.61,5.97l-2.676,-15.171l-6.722,5.105l8.172,12.014l-6.141,3.071l-5.198,-8.134l-5.418,-0.51l-4.615,0.16l-0.247,2.776l-0.142,5.295l-27.355,0.434l-1.988,-9.739l7.16,-7.153l14.306,-22.933l-18.267,-16.614l-10.758,5.355l-0.428,7.773l7.987,-3.994l5.366,2.683l0,8.079l-10.733,5.05l-21.466,-2.396l-16.1,4.669l14.012,-21.812l14.67,-10.614l35.717,-3.586l16.1,15.244l42.932,-9.27l5.367,-25.613l-5.367,-2.683l-3.24,23.086l-25.931,-0.106l-13.761,-9.591l-13.661,6.613l-13.172,-3.047l-17.811,3.656l-15.46,3.003l-9.662,5.902l29.744,-22.694l18.555,0.759l15.029,-10.8l22.537,-4.831l-1.071,-5.902l-15.028,3.219l-10.733,5.366l-37.566,8.05l-29.122,25.294l-8.444,20.322l-5.367,-2.683l7.623,-41.378l-43.307,-15.912l14.218,14.357l21.466,7.423l-5.366,27.46l-10.734,-16.1l-26.832,0.003l-10.733,-29.519l19.898,-20.682l15.885,13.523l37.303,0.77l2.045,17.122l7.194,-3.597l-1.827,-9.819l13.697,6.848l34.602,-6.966l0,-2.566l-34.678,4.128l-15.481,-7.741l-33.878,-2.667l-10.414,-14.112l21.084,8.777l19.701,-0.626l7.127,-5.662l8.973,17.984l5.367,-0.081l-5.367,-13.416l19.008,9.504l13.191,-4.137l21.467,-10.734l-2.599,12.033l2.599,1.377l9.071,-12.579l12.395,4.536c0,0 11.678,2.2 3.291,-1.646c-8.386,-3.845 -10.919,-5.273 -10.919,-5.273l5.568,-4.844l4.525,2.262l2.902,-25.382l-5.367,-6.362l-2.742,23.774l-10.03,5.719l4.062,-26.825l-18.123,-9.738l-5.366,12.928l9.014,-6.686l7.085,9.514l-3.658,20.972l-12.441,0.854l-1.433,-10.017l-1.858,0.929l-2.076,12.775l-16.1,7.046l-5.366,2.683l-24.033,-12.016l-20.481,2.074l-3.785,-8.841l0,-10.733l10.733,-5.366l0,-21.467l-10.733,1.715l0,14.385l-10.541,5.271l-0.192,19.532l-13.204,-15.305l36.995,-42.86l10.985,2.451l-2.577,9.445l5.367,18.783l-2.813,17.506l10.241,2.308l5.354,-18.789l6.962,30.313l12.455,6.562l6.08,-2.661l-14.325,-9.65l-5.955,-29.222l-14.369,-3.549l1.736,-16.968l-3.096,-12.281l13.829,6.915l7.29,14.378l-1.923,-17.062l4.074,-12.77l12.025,4.721l-5.366,18.782l3.644,1.822l4.131,-8.667l13.691,-3.888l-10.733,-10.733l0,-10.733l10.733,5.367l3.57,8.948l12.53,-6.265l-6.972,-3.486l-3.761,2.05l0,-3.931l16.75,-7.724l-0.651,10.408l-10.733,5.366l3.059,17.629l16.616,2.942l-8.291,-7.52l4.716,-10.367l53.666,12.791l10.733,11.312l-10.733,2.729l-16.1,4.755l-23.709,-13.926l4.174,-5.597l-7.298,-3.025l-3.042,8.581l19.142,17.262l3.4,25.133l7.333,-3.667l-1.884,-17.041l28.717,-7.108l17.533,-1.967l11.866,14.1l2.8,-28.233l-114.847,-46.69l-161.944,85.391l19.196,106.196l120.152,49.343l145.697,-61.316l-2.887,-92.675l-14.515,-14.209l-6.952,3.476" style="fill:#815240;fill-opacity:0.75;"/><path d="M208.145,59.304l0,6.863l5.367,6.554l10.733,13.065l-5.366,24.176l-5.367,0.325l-12.182,-6.091l-10.528,-4.021l-6.814,-11.456l11.417,1.781l-8.726,-4.363l-7.035,0.617l-3.698,3.309l-3.29,-5.571l3.29,-9.088l10.733,-10.733l5.367,2.683l1.147,13.401l9.586,9.412l3.987,7.393l-1.521,-9.973l8.267,-6.211l-12.4,2.911l-0.922,-7.494l-2.778,-6.756l0,-5.366l-12.931,-4.268l-13.901,17.684l0,16.1l7.586,3.793l3.147,-1.244l3.705,4.67l7.028,4.864l5.366,4.848l26.833,4.535l-3.834,7.284l-12.266,9.027l-10.733,9.373l9.118,20.74l4.559,-4.703l-6.631,-14.048l14.421,-8.89l0,21.466l-9.62,10.177l-19.401,0.629l2.188,-16.806l-5.367,-7.272l12.197,-18.195l-4.784,-2.392l-2.046,5.807l-7.834,10.719l-2.899,-8.382l3.005,-7.665l2.361,-7.687l-2.016,-0.857l-3.35,1.675l-2.376,11.921l-10.276,-7.513l-5.403,-13.435l7.322,-3.605l-6.864,-5.402l1.497,-6.115l-5.367,-8.05l-10.733,-5.367l-7.762,-36.08l-35.17,-15.244l-25.454,11.765l2.402,29.619l4.718,-2.359l-0.894,-21.019l15.781,-11.338l33.413,13.573l7.6,33.767l5.366,8.049l5.367,10.824l-18.106,11.646l-10.911,10.822l23.65,-13.58l12.465,9.858l7.767,12.746l4.706,9.614l-16.793,13.763l-20.446,15.59l19.364,17.151l5.943,-4.498l-18.372,-14.108l34.067,-24.412l8.865,6.3l-2.483,20.225l-8.25,4.351l0,-17.13l-11.996,8.022l3.335,12.4l2.017,-4.357l1.278,-8.47l3.759,12.595l-30.592,20.663l-10.733,-16.1l-21.467,-10.733l-14.447,5.534l-23.119,23.982l21.467,5.367l-10.734,-8.341l14.087,-16.815l7.38,-3.224l5.366,6.949l3.376,-6.397l8.008,4.003l10.083,8.212l2.541,6.292l-14.61,5.97l-2.676,-15.171l-6.722,5.105l8.172,12.014l-6.141,3.071l-5.198,-8.134l-5.418,-0.51l-4.615,0.16l-0.247,2.776l-0.142,5.295l-27.355,0.434l-1.988,-9.739l7.16,-7.153l14.306,-22.933l-18.267,-16.614l-10.758,5.355l-0.428,7.773l7.987,-3.994l5.366,2.683l0,8.079l-10.733,5.05l-21.466,-2.396l-16.1,4.669l14.012,-21.812l14.67,-10.614l35.717,-3.586l16.1,15.244l42.932,-9.27l5.367,-25.613l-5.367,-2.683l-3.24,23.086l-25.931,-0.106l-13.761,-9.591l-13.661,6.613l-13.172,-3.047l-17.811,3.656l-15.46,3.003l-9.662,5.902l29.744,-22.694l18.555,0.759l15.029,-10.8l22.537,-4.831l-1.071,-5.902l-15.028,3.219l-10.733,5.366l-37.566,8.05l-29.122,25.294l-8.444,20.322l-5.367,-2.683l7.623,-41.378l-43.307,-15.912l14.218,14.357l21.466,7.423l-5.366,27.46l-10.734,-16.1l-26.832,0.003l-10.733,-29.519l19.898,-20.682l15.885,13.523l37.303,0.77l2.045,17.122l7.194,-3.597l-1.827,-9.819l13.697,6.848l34.602,-6.966l0,-2.566l-34.678,4.128l-15.481,-7.741l-33.878,-2.667l-10.414,-14.112l21.084,8.777l19.701,-0.626l7.127,-5.662l8.973,17.984l5.367,-0.081l-5.367,-13.416l19.008,9.504l13.191,-4.137l21.467,-10.734l-2.599,12.033l2.599,1.377l9.071,-12.579l12.395,4.536c0,0 11.678,2.2 3.291,-1.646c-8.386,-3.845 -10.919,-5.273 -10.919,-5.273l5.568,-4.844l4.525,2.262l2.902,-25.382l-5.367,-6.362l-2.742,23.774l-10.03,5.719l4.062,-26.825l-18.123,-9.738l-5.366,12.928l9.014,-6.686l7.085,9.514l-3.658,20.972l-12.441,0.854l-1.433,-10.017l-1.858,0.929l-2.076,12.775l-16.1,7.046l-5.366,2.683l-24.033,-12.016l-20.481,2.074l-3.785,-8.841l0,-10.733l10.733,-5.366l0,-21.467l-10.733,1.715l0,14.385l-10.541,5.271l-0.192,19.532l-13.204,-15.305l36.995,-42.86l10.985,2.451l-2.577,9.445l5.367,18.783l-2.813,17.506l10.241,2.308l5.354,-18.789l6.962,30.313l12.455,6.562l6.08,-2.661l-14.325,-9.65l-5.955,-29.222l-14.369,-3.549l1.736,-16.968l-3.096,-12.281l13.829,6.915l7.29,14.378l-1.923,-17.062l4.074,-12.77l12.025,4.721l-5.366,18.782l3.644,1.822l4.131,-8.667l13.691,-3.888l-10.733,-10.733l0,-10.733l10.733,5.367l3.57,8.948l12.53,-6.265l-6.972,-3.486l-3.761,2.05l0,-3.931l16.75,-7.724l-0.651,10.408l-10.733,5.366l3.059,17.629l16.616,2.942l-8.291,-7.52l4.716,-10.367l53.666,12.791l10.733,11.312l-10.733,2.729l-16.1,4.755l-23.709,-13.926l4.174,-5.597l-7.298,-3.025l-3.042,8.581l19.142,17.262l3.4,25.133l7.333,-3.667l-1.884,-17.041l28.717,-7.108l17.533,-1.967l11.866,14.1l2.8,-28.233l-114.847,-46.69l-161.944,85.391l19.196,106.196l120.152,49.343l145.697,-61.316l-2.887,-92.675l-14.515,-14.209l-6.952,3.476" style="fill:#815240;fill-opacity:0.75;"/></g><path d="M0.849,54.621l64.399,25.195l42.933,28.471l-4.027,35.552l4.027,61.046l-107.332,-53.666l3.542,-30.428l-3.542,-66.17" style="fill:#815240;"/><clipPath id="_clip2"><path d="M0.849,54.621l64.399,25.195l42.933,28.471l-4.027,35.552l4.027,61.046l-107.332,-53.666l3.542,-30.428l-3.542,-66.17"/></clipPath><g clip-path="url(#_clip2)"><path d="M210.145,57.304l0,6.863l5.367,6.554l10.733,13.065l-5.366,24.176l-5.367,0.325l-12.182,-6.091l-10.528,-4.021l-6.814,-11.456l11.417,1.781l-8.726,-4.363l-7.035,0.617l-3.698,3.309l-3.29,-5.571l3.29,-9.088l10.733,-10.733l5.367,2.683l1.147,13.401l9.586,9.412l3.987,7.393l-1.521,-9.973l8.267,-6.211l-12.4,2.911l-0.922,-7.494l-2.778,-6.756l0,-5.366l-12.931,-4.268l-13.901,17.684l0,16.1l7.586,3.793l3.147,-1.244l3.705,4.67l7.028,4.864l5.366,4.848l26.833,4.535l-3.834,7.284l-12.266,9.027l-10.733,9.373l9.118,20.74l4.559,-4.703l-6.631,-14.048l14.421,-8.89l0,21.466l-9.62,10.177l-19.401,0.629l2.188,-16.806l-5.367,-7.272l12.197,-18.195l-4.784,-2.392l-2.046,5.807l-7.834,10.719l-2.899,-8.382l3.005,-7.665l2.361,-7.687l-2.016,-0.857l-3.35,1.675l-2.376,11.921l-10.276,-7.513l-5.403,-13.435l7.322,-3.605l-6.864,-5.402l1.497,-6.115l-5.367,-8.05l-10.733,-5.367l-7.762,-36.08l-35.17,-15.244l-25.454,11.765l2.402,29.619l4.718,-2.359l-0.894,-21.019l15.781,-11.338l33.413,13.573l7.6,33.767l5.366,8.049l5.367,10.824l-18.106,11.646l-10.911,10.822l23.65,-13.58l12.465,9.858l7.767,12.746l4.706,9.614l-16.793,13.763l-20.446,15.59l19.364,17.151l5.943,-4.498l-18.372,-14.108l34.067,-24.412l8.865,6.3l-2.483,20.225l-8.25,4.351l0,-17.13l-11.996,8.022l3.335,12.4l2.017,-4.357l1.278,-8.47l3.759,12.595l-30.592,20.663l-10.733,-16.1l-21.467,-10.733l-14.447,5.534l-23.119,23.982l21.467,5.367l-10.734,-8.341l14.087,-16.815l7.38,-3.224l5.366,6.949l3.376,-6.397l8.008,4.003l10.083,8.212l2.541,6.292l-14.61,5.97l-2.676,-15.171l-6.722,5.105l8.172,12.014l-6.141,3.071l-5.198,-8.134l-5.418,-0.51l-4.615,0.16l-0.247,2.776l-0.142,5.295l-27.355,0.434l-1.988,-9.739l7.16,-7.153l14.306,-22.933l-18.267,-16.614l-10.758,5.355l-0.428,7.773l7.987,-3.994l5.366,2.683l0,8.079l-10.733,5.05l-21.466,-2.396l-16.1,4.669l14.012,-21.812l14.67,-10.614l35.717,-3.586l16.1,15.244l42.932,-9.27l5.367,-25.613l-5.367,-2.683l-3.24,23.086l-25.931,-0.106l-13.761,-9.591l-13.661,6.613l-13.172,-3.047l-17.811,3.656l-15.46,3.003l-9.662,5.902l29.744,-22.694l18.555,0.759l15.029,-10.8l22.537,-4.831l-1.071,-5.902l-15.028,3.219l-10.733,5.366l-37.566,8.05l-29.122,25.294l-8.444,20.322l-5.367,-2.683l7.623,-41.378l-43.307,-15.912l14.218,14.357l21.466,7.423l-5.366,27.46l-10.734,-16.1l-26.832,0.003l-10.733,-29.519l19.898,-20.682l15.885,13.523l37.303,0.77l2.045,17.122l7.194,-3.597l-1.827,-9.819l13.697,6.848l34.602,-6.966l0,-2.566l-34.678,4.128l-15.481,-7.741l-33.878,-2.667l-10.414,-14.112l21.084,8.777l19.701,-0.626l7.127,-5.662l8.973,17.984l5.367,-0.081l-5.367,-13.416l19.008,9.504l13.191,-4.137l21.467,-10.734l-2.599,12.033l2.599,1.377l9.071,-12.579l12.395,4.536c0,0 11.678,2.2 3.291,-1.646c-8.386,-3.845 -10.919,-5.273 -10.919,-5.273l5.568,-4.844l4.525,2.262l2.902,-25.382l-5.367,-6.362l-2.742,23.774l-10.03,5.719l4.062,-26.825l-18.123,-9.738l-5.366,12.928l9.014,-6.686l7.085,9.514l-3.658,20.972l-12.441,0.854l-1.433,-10.017l-1.858,0.929l-2.076,12.775l-16.1,7.046l-5.366,2.683l-24.033,-12.016l-20.481,2.074l-3.785,-8.841l0,-10.733l10.733,-5.366l0,-21.467l-10.733,1.715l0,14.385l-10.541,5.271l-0.192,19.532l-13.204,-15.305l36.995,-42.86l10.985,2.451l-2.577,9.445l5.367,18.783l-2.813,17.506l10.241,2.308l5.354,-18.789l6.962,30.313l12.455,6.562l6.08,-2.661l-14.325,-9.65l-5.955,-29.222l-14.369,-3.549l1.736,-16.968l-3.096,-12.281l13.829,6.915l7.29,14.378l-1.923,-17.062l4.074,-12.77l12.025,4.721l-5.366,18.782l3.644,1.822l4.131,-8.667l13.691,-3.888l-10.733,-10.733l0,-10.733l10.733,5.367l3.57,8.948l12.53,-6.265l-6.972,-3.486l-3.761,2.05l0,-3.931l16.75,-7.724l-0.651,10.408l-10.733,5.366l3.059,17.629l16.616,2.942l-8.291,-7.52l4.716,-10.367l53.666,12.791l10.733,11.312l-10.733,2.729l-16.1,4.755l-23.709,-13.926l4.174,-5.597l-7.298,-3.025l-3.042,8.581l19.142,17.262l3.4,25.133l7.333,-3.667l-1.884,-17.041l28.717,-7.108l17.533,-1.967l11.866,14.1l2.8,-28.233l-114.847,-46.69l-161.944,85.391l19.196,106.196l120.152,49.343l145.697,-61.316l-2.887,-92.675l-14.515,-14.209l-6.952,3.476" style="fill-opacity:0.3;"/><path d="M208.145,59.304l0,6.863l5.367,6.554l10.733,13.065l-5.366,24.176l-5.367,0.325l-12.182,-6.091l-10.528,-4.021l-6.814,-11.456l11.417,1.781l-8.726,-4.363l-7.035,0.617l-3.698,3.309l-3.29,-5.571l3.29,-9.088l10.733,-10.733l5.367,2.683l1.147,13.401l9.586,9.412l3.987,7.393l-1.521,-9.973l8.267,-6.211l-12.4,2.911l-0.922,-7.494l-2.778,-6.756l0,-5.366l-12.931,-4.268l-13.901,17.684l0,16.1l7.586,3.793l3.147,-1.244l3.705,4.67l7.028,4.864l5.366,4.848l26.833,4.535l-3.834,7.284l-12.266,9.027l-10.733,9.373l9.118,20.74l4.559,-4.703l-6.631,-14.048l14.421,-8.89l0,21.466l-9.62,10.177l-19.401,0.629l2.188,-16.806l-5.367,-7.272l12.197,-18.195l-4.784,-2.392l-2.046,5.807l-7.834,10.719l-2.899,-8.382l3.005,-7.665l2.361,-7.687l-2.016,-0.857l-3.35,1.675l-2.376,11.921l-10.276,-7.513l-5.403,-13.435l7.322,-3.605l-6.864,-5.402l1.497,-6.115l-5.367,-8.05l-10.733,-5.367l-7.762,-36.08l-35.17,-15.244l-25.454,11.765l2.402,29.619l4.718,-2.359l-0.894,-21.019l15.781,-11.338l33.413,13.573l7.6,33.767l5.366,8.049l5.367,10.824l-18.106,11.646l-10.911,10.822l23.65,-13.58l12.465,9.858l7.767,12.746l4.706,9.614l-16.793,13.763l-20.446,15.59l19.364,17.151l5.943,-4.498l-18.372,-14.108l34.067,-24.412l8.865,6.3l-2.483,20.225l-8.25,4.351l0,-17.13l-11.996,8.022l3.335,12.4l2.017,-4.357l1.278,-8.47l3.759,12.595l-30.592,20.663l-10.733,-16.1l-21.467,-10.733l-14.447,5.534l-23.119,23.982l21.467,5.367l-10.734,-8.341l14.087,-16.815l7.38,-3.224l5.366,6.949l3.376,-6.397l8.008,4.003l10.083,8.212l2.541,6.292l-14.61,5.97l-2.676,-15.171l-6.722,5.105l8.172,12.014l-6.141,3.071l-5.198,-8.134l-5.418,-0.51l-4.615,0.16l-0.247,2.776l-0.142,5.295l-27.355,0.434l-1.988,-9.739l7.16,-7.153l14.306,-22.933l-18.267,-16.614l-10.758,5.355l-0.428,7.773l7.987,-3.994l5.366,2.683l0,8.079l-10.733,5.05l-21.466,-2.396l-16.1,4.669l14.012,-21.812l14.67,-10.614l35.717,-3.586l16.1,15.244l42.932,-9.27l5.367,-25.613l-5.367,-2.683l-3.24,23.086l-25.931,-0.106l-13.761,-9.591l-13.661,6.613l-13.172,-3.047l-17.811,3.656l-15.46,3.003l-9.662,5.902l29.744,-22.694l18.555,0.759l15.029,-10.8l22.537,-4.831l-1.071,-5.902l-15.028,3.219l-10.733,5.366l-37.566,8.05l-29.122,25.294l-8.444,20.322l-5.367,-2.683l7.623,-41.378l-43.307,-15.912l14.218,14.357l21.466,7.423l-5.366,27.46l-10.734,-16.1l-26.832,0.003l-10.733,-29.519l19.898,-20.682l15.885,13.523l37.303,0.77l2.045,17.122l7.194,-3.597l-1.827,-9.819l13.697,6.848l34.602,-6.966l0,-2.566l-34.678,4.128l-15.481,-7.741l-33.878,-2.667l-10.414,-14.112l21.084,8.777l19.701,-0.626l7.127,-5.662l8.973,17.984l5.367,-0.081l-5.367,-13.416l19.008,9.504l13.191,-4.137l21.467,-10.734l-2.599,12.033l2.599,1.377l9.071,-12.579l12.395,4.536c0,0 11.678,2.2 3.291,-1.646c-8.386,-3.845 -10.919,-5.273 -10.919,-5.273l5.568,-4.844l4.525,2.262l2.902,-25.382l-5.367,-6.362l-2.742,23.774l-10.03,5.719l4.062,-26.825l-18.123,-9.738l-5.366,12.928l9.014,-6.686l7.085,9.514l-3.658,20.972l-12.441,0.854l-1.433,-10.017l-1.858,0.929l-2.076,12.775l-16.1,7.046l-5.366,2.683l-24.033,-12.016l-20.481,2.074l-3.785,-8.841l0,-10.733l10.733,-5.366l0,-21.467l-10.733,1.715l0,14.385l-10.541,5.271l-0.192,19.532l-13.204,-15.305l36.995,-42.86l10.985,2.451l-2.577,9.445l5.367,18.783l-2.813,17.506l10.241,2.308l5.354,-18.789l6.962,30.313l12.455,6.562l6.08,-2.661l-14.325,-9.65l-5.955,-29.222l-14.369,-3.549l1.736,-16.968l-3.096,-12.281l13.829,6.915l7.29,14.378l-1.923,-17.062l4.074,-12.77l12.025,4.721l-5.366,18.782l3.644,1.822l4.131,-8.667l13.691,-3.888l-10.733,-10.733l0,-10.733l10.733,5.367l3.57,8.948l12.53,-6.265l-6.972,-3.486l-3.761,2.05l0,-3.931l16.75,-7.724l-0.651,10.408l-10.733,5.366l3.059,17.629l16.616,2.942l-8.291,-7.52l4.716,-10.367l53.666,12.791l10.733,11.312l-10.733,2.729l-16.1,4.755l-23.709,-13.926l4.174,-5.597l-7.298,-3.025l-3.042,8.581l19.142,17.262l3.4,25.133l7.333,-3.667l-1.884,-17.041l28.717,-7.108l17.533,-1.967l11.866,14.1l2.8,-28.233l-114.847,-46.69l-161.944,85.391l19.196,106.196l120.152,49.343l145.697,-61.316l-2.887,-92.675l-14.515,-14.209l-6.952,3.476" style="fill-opacity:0.3;"/></g><path d="M215.512,54.621l-32.199,16.1l-24.743,19.828l-50.389,17.738l-45.054,-27.894l-62.278,-25.772l37.566,-13.416l28.265,-23.434l41.501,-16.816l37.566,21.886l37.566,11.844l32.199,19.936Z" style="fill:#c78664;"/><clipPath id="_clip3"><path d="M215.512,54.621l-32.199,16.1l-24.743,19.828l-50.389,17.738l-45.054,-27.894l-62.278,-25.772l37.566,-13.416l28.265,-23.434l41.501,-16.816l37.566,21.886l37.566,11.844l32.199,19.936Z"/></clipPath><g clip-path="url(#_clip3)"><path d="M210.145,57.304l0,6.863l5.367,6.554l10.733,13.065l-5.366,24.176l-5.367,0.325l-12.182,-6.091l-10.528,-4.021l-6.814,-11.456l11.417,1.781l-8.726,-4.363l-7.035,0.617l-3.698,3.309l-3.29,-5.571l3.29,-9.088l10.733,-10.733l5.367,2.683l1.147,13.401l9.586,9.412l3.987,7.393l-1.521,-9.973l8.267,-6.211l-12.4,2.911l-0.922,-7.494l-2.778,-6.756l0,-5.366l-12.931,-4.268l-13.901,17.684l0,16.1l7.586,3.793l3.147,-1.244l3.705,4.67l7.028,4.864l5.366,4.848l26.833,4.535l-3.834,7.284l-12.266,9.027l-10.733,9.373l9.118,20.74l4.559,-4.703l-6.631,-14.048l14.421,-8.89l0,21.466l-9.62,10.177l-19.401,0.629l2.188,-16.806l-5.367,-7.272l12.197,-18.195l-4.784,-2.392l-2.046,5.807l-7.834,10.719l-2.899,-8.382l3.005,-7.665l2.361,-7.687l-2.016,-0.857l-3.35,1.675l-2.376,11.921l-10.276,-7.513l-5.403,-13.435l7.322,-3.605l-6.864,-5.402l1.497,-6.115l-5.367,-8.05l-10.733,-5.367l-7.762,-36.08l-35.17,-15.244l-25.454,11.765l2.402,29.619l4.718,-2.359l-0.894,-21.019l15.781,-11.338l33.413,13.573l7.6,33.767l5.366,8.049l5.367,10.824l-18.106,11.646l-10.911,10.822l23.65,-13.58l12.465,9.858l7.767,12.746l4.706,9.614l-16.793,13.763l-20.446,15.59l19.364,17.151l5.943,-4.498l-18.372,-14.108l34.067,-24.412l8.865,6.3l-2.483,20.225l-8.25,4.351l0,-17.13l-11.996,8.022l3.335,12.4l2.017,-4.357l1.278,-8.47l3.759,12.595l-30.592,20.663l-10.733,-16.1l-21.467,-10.733l-14.447,5.534l-23.119,23.982l21.467,5.367l-10.734,-8.341l14.087,-16.815l7.38,-3.224l5.366,6.949l3.376,-6.397l8.008,4.003l10.083,8.212l2.541,6.292l-14.61,5.97l-2.676,-15.171l-6.722,5.105l8.172,12.014l-6.141,3.071l-5.198,-8.134l-5.418,-0.51l-4.615,0.16l-0.247,2.776l-0.142,5.295l-27.355,0.434l-1.988,-9.739l7.16,-7.153l14.306,-22.933l-18.267,-16.614l-10.758,5.355l-0.428,7.773l7.987,-3.994l5.366,2.683l0,8.079l-10.733,5.05l-21.466,-2.396l-16.1,4.669l14.012,-21.812l14.67,-10.614l35.717,-3.586l16.1,15.244l42.932,-9.27l5.367,-25.613l-5.367,-2.683l-3.24,23.086l-25.931,-0.106l-13.761,-9.591l-13.661,6.613l-13.172,-3.047l-17.811,3.656l-15.46,3.003l-9.662,5.902l29.744,-22.694l18.555,0.759l15.029,-10.8l22.537,-4.831l-1.071,-5.902l-15.028,3.219l-10.733,5.366l-37.566,8.05l-29.122,25.294l-8.444,20.322l-5.367,-2.683l7.623,-41.378l-43.307,-15.912l14.218,14.357l21.466,7.423l-5.366,27.46l-10.734,-16.1l-26.832,0.003l-10.733,-29.519l19.898,-20.682l15.885,13.523l37.303,0.77l2.045,17.122l7.194,-3.597l-1.827,-9.819l13.697,6.848l34.602,-6.966l0,-2.566l-34.678,4.128l-15.481,-7.741l-33.878,-2.667l-10.414,-14.112l21.084,8.777l19.701,-0.626l7.127,-5.662l8.973,17.984l5.367,-0.081l-5.367,-13.416l19.008,9.504l13.191,-4.137l21.467,-10.734l-2.599,12.033l2.599,1.377l9.071,-12.579l12.395,4.536c0,0 11.678,2.2 3.291,-1.646c-8.386,-3.845 -10.919,-5.273 -10.919,-5.273l5.568,-4.844l4.525,2.262l2.902,-25.382l-5.367,-6.362l-2.742,23.774l-10.03,5.719l4.062,-26.825l-18.123,-9.738l-5.366,12.928l9.014,-6.686l7.085,9.514l-3.658,20.972l-12.441,0.854l-1.433,-10.017l-1.858,0.929l-2.076,12.775l-16.1,7.046l-5.366,2.683l-24.033,-12.016l-20.481,2.074l-3.785,-8.841l0,-10.733l10.733,-5.366l0,-21.467l-10.733,1.715l0,14.385l-10.541,5.271l-0.192,19.532l-13.204,-15.305l36.995,-42.86l10.985,2.451l-2.577,9.445l5.367,18.783l-2.813,17.506l10.241,2.308l5.354,-18.789l6.962,30.313l12.455,6.562l6.08,-2.661l-14.325,-9.65l-5.955,-29.222l-14.369,-3.549l1.736,-16.968l-3.096,-12.281l13.829,6.915l7.29,14.378l-1.923,-17.062l4.074,-12.77l12.025,4.721l-5.366,18.782l3.644,1.822l4.131,-8.667l13.691,-3.888l-10.733,-10.733l0,-10.733l10.733,5.367l3.57,8.948l12.53,-6.265l-6.972,-3.486l-3.761,2.05l0,-3.931l16.75,-7.724l-0.651,10.408l-10.733,5.366l3.059,17.629l16.616,2.942l-8.291,-7.52l4.716,-10.367l53.666,12.791l10.733,11.312l-10.733,2.729l-16.1,4.755l-23.709,-13.926l4.174,-5.597l-7.298,-3.025l-3.042,8.581l19.142,17.262l3.4,25.133l7.333,-3.667l-1.884,-17.041l28.717,-7.108l17.533,-1.967l11.866,14.1l2.8,-28.233l-114.847,-46.69l-161.944,85.391l19.196,106.196l120.152,49.343l145.697,-61.316l-2.887,-92.675l-14.515,-14.209l-6.952,3.476" style="fill:#684f32;fill-opacity:0.75;"/><path d="M208.145,59.304l0,6.863l5.367,6.554l10.733,13.065l-5.366,24.176l-5.367,0.325l-12.182,-6.091l-10.528,-4.021l-6.814,-11.456l11.417,1.781l-8.726,-4.363l-7.035,0.617l-3.698,3.309l-3.29,-5.571l3.29,-9.088l10.733,-10.733l5.367,2.683l1.147,13.401l9.586,9.412l3.987,7.393l-1.521,-9.973l8.267,-6.211l-12.4,2.911l-0.922,-7.494l-2.778,-6.756l0,-5.366l-12.931,-4.268l-13.901,17.684l0,16.1l7.586,3.793l3.147,-1.244l3.705,4.67l7.028,4.864l5.366,4.848l26.833,4.535l-3.834,7.284l-12.266,9.027l-10.733,9.373l9.118,20.74l4.559,-4.703l-6.631,-14.048l14.421,-8.89l0,21.466l-9.62,10.177l-19.401,0.629l2.188,-16.806l-5.367,-7.272l12.197,-18.195l-4.784,-2.392l-2.046,5.807l-7.834,10.719l-2.899,-8.382l3.005,-7.665l2.361,-7.687l-2.016,-0.857l-3.35,1.675l-2.376,11.921l-10.276,-7.513l-5.403,-13.435l7.322,-3.605l-6.864,-5.402l1.497,-6.115l-5.367,-8.05l-10.733,-5.367l-7.762,-36.08l-35.17,-15.244l-25.454,11.765l2.402,29.619l4.718,-2.359l-0.894,-21.019l15.781,-11.338l33.413,13.573l7.6,33.767l5.366,8.049l5.367,10.824l-18.106,11.646l-10.911,10.822l23.65,-13.58l12.465,9.858l7.767,12.746l4.706,9.614l-16.793,13.763l-20.446,15.59l19.364,17.151l5.943,-4.498l-18.372,-14.108l34.067,-24.412l8.865,6.3l-2.483,20.225l-8.25,4.351l0,-17.13l-11.996,8.022l3.335,12.4l2.017,-4.357l1.278,-8.47l3.759,12.595l-30.592,20.663l-10.733,-16.1l-21.467,-10.733l-14.447,5.534l-23.119,23.982l21.467,5.367l-10.734,-8.341l14.087,-16.815l7.38,-3.224l5.366,6.949l3.376,-6.397l8.008,4.003l10.083,8.212l2.541,6.292l-14.61,5.97l-2.676,-15.171l-6.722,5.105l8.172,12.014l-6.141,3.071l-5.198,-8.134l-5.418,-0.51l-4.615,0.16l-0.247,2.776l-0.142,5.295l-27.355,0.434l-1.988,-9.739l7.16,-7.153l14.306,-22.933l-18.267,-16.614l-10.758,5.355l-0.428,7.773l7.987,-3.994l5.366,2.683l0,8.079l-10.733,5.05l-21.466,-2.396l-16.1,4.669l14.012,-21.812l14.67,-10.614l35.717,-3.586l16.1,15.244l42.932,-9.27l5.367,-25.613l-5.367,-2.683l-3.24,23.086l-25.931,-0.106l-13.761,-9.591l-13.661,6.613l-13.172,-3.047l-17.811,3.656l-15.46,3.003l-9.662,5.902l29.744,-22.694l18.555,0.759l15.029,-10.8l22.537,-4.831l-1.071,-5.902l-15.028,3.219l-10.733,5.366l-37.566,8.05l-29.122,25.294l-8.444,20.322l-5.367,-2.683l7.623,-41.378l-43.307,-15.912l14.218,14.357l21.466,7.423l-5.366,27.46l-10.734,-16.1l-26.832,0.003l-10.733,-29.519l19.898,-20.682l15.885,13.523l37.303,0.77l2.045,17.122l7.194,-3.597l-1.827,-9.819l13.697,6.848l34.602,-6.966l0,-2.566l-34.678,4.128l-15.481,-7.741l-33.878,-2.667l-10.414,-14.112l21.084,8.777l19.701,-0.626l7.127,-5.662l8.973,17.984l5.367,-0.081l-5.367,-13.416l19.008,9.504l13.191,-4.137l21.467,-10.734l-2.599,12.033l2.599,1.377l9.071,-12.579l12.395,4.536c0,0 11.678,2.2 3.291,-1.646c-8.386,-3.845 -10.919,-5.273 -10.919,-5.273l5.568,-4.844l4.525,2.262l2.902,-25.382l-5.367,-6.362l-2.742,23.774l-10.03,5.719l4.062,-26.825l-18.123,-9.738l-5.366,12.928l9.014,-6.686l7.085,9.514l-3.658,20.972l-12.441,0.854l-1.433,-10.017l-1.858,0.929l-2.076,12.775l-16.1,7.046l-5.366,2.683l-24.033,-12.016l-20.481,2.074l-3.785,-8.841l0,-10.733l10.733,-5.366l0,-21.467l-10.733,1.715l0,14.385l-10.541,5.271l-0.192,19.532l-13.204,-15.305l36.995,-42.86l10.985,2.451l-2.577,9.445l5.367,18.783l-2.813,17.506l10.241,2.308l5.354,-18.789l6.962,30.313l12.455,6.562l6.08,-2.661l-14.325,-9.65l-5.955,-29.222l-14.369,-3.549l1.736,-16.968l-3.096,-12.281l13.829,6.915l7.29,14.378l-1.923,-17.062l4.074,-12.77l12.025,4.721l-5.366,18.782l3.644,1.822l4.131,-8.667l13.691,-3.888l-10.733,-10.733l0,-10.733l10.733,5.367l3.57,8.948l12.53,-6.265l-6.972,-3.486l-3.761,2.05l0,-3.931l16.75,-7.724l-0.651,10.408l-10.733,5.366l3.059,17.629l16.616,2.942l-8.291,-7.52l4.716,-10.367l53.666,12.791l10.733,11.312l-10.733,2.729l-16.1,4.755l-23.709,-13.926l4.174,-5.597l-7.298,-3.025l-3.042,8.581l19.142,17.262l3.4,25.133l7.333,-3.667l-1.884,-17.041l28.717,-7.108l17.533,-1.967l11.866,14.1l2.8,-28.233l-114.847,-46.69l-161.944,85.391l19.196,106.196l120.152,49.343l145.697,-61.316l-2.887,-92.675l-14.515,-14.209l-6.952,3.476" style="fill:#684f32;fill-opacity:0.75;"/></g></g></svg>