<?xml version="1.0" encoding="UTF-8" standalone="no"?><!DOCTYPE svg PUBLIC "-//W3C//DTD SVG 1.1//EN" "http://www.w3.org/Graphics/SVG/1.1/DTD/svg11.dtd"><svg width="100%" height="100%" viewBox="0 0 216 205" version="1.1" xmlns="http://www.w3.org/2000/svg" xmlns:xlink="http://www.w3.org/1999/xlink" xml:space="preserve" xmlns:serif="http://www.serif.com/" style="fill-rule:evenodd;clip-rule:evenodd;stroke-linejoin:round;stroke-miterlimit:1.41421;"><g id="Sand_Block03"><path d="M215.578,53.956c-1.685,33.637 -2.236,66.306 0,96.598l-107.331,53.666l0,-96.598l107.331,-53.666Z" style="fill:#e1aa80;"/><clipPath id="_clip1"><path d="M215.578,53.956c-1.685,33.637 -2.236,66.306 0,96.598l-107.331,53.666l0,-96.598l107.331,-53.666Z"/></clipPath><g clip-path="url(#_clip1)"><path d="M215.578,129.088c0,0 -32.023,3.078 -45.851,22.925c-13.827,19.848 -36.002,29.261 -61.48,30.741c-25.478,1.479 -65.459,-69.043 -107.331,-53.666c-41.872,15.376 -13.212,68.526 -13.212,68.526l160.009,19.072l73.232,-47.349l-5.367,-40.249Z" style="fill:#b08255;"/></g><path d="M0.916,53.956l16.868,5.37c36.324,15.283 77.234,29.958 90.463,48.296c2.537,31.672 3.096,63.755 0,96.598l-107.331,-53.666c-1.062,-30.951 -0.803,-63.455 0,-96.598" style="fill:#b08255;"/><clipPath id="_clip2"><path d="M0.916,53.956l16.868,5.37c36.324,15.283 77.234,29.958 90.463,48.296c2.537,31.672 3.096,63.755 0,96.598l-107.331,-53.666c-1.062,-30.951 -0.803,-63.455 0,-96.598"/></clipPath><g clip-path="url(#_clip2)"><path d="M215.578,129.088c0,0 -32.023,3.078 -45.851,22.925c-13.827,19.848 -36.002,29.261 -61.48,30.741c-25.478,1.479 -65.459,-69.043 -107.331,-53.666c-41.872,15.376 -13.212,68.526 -13.212,68.526l160.009,19.072l73.232,-47.349l-5.367,-40.249Z" style="fill:#a27247;"/></g><path d="M215.578,53.956c-33.532,20.22 -69.393,38.021 -107.331,53.666c-7.166,-5.681 -14.629,-12.235 -32.199,-16.1c-15.096,-3.32 -29.044,-12.855 -42.933,-21.466c-10.45,-7.085 -21.171,-12.527 -32.199,-16.1c18.797,-10.388 33.344,-14.945 59.324,-33.687c12.444,-8.976 29.281,-13.484 48.007,-19.979c10.881,3.902 21.669,8.728 32.199,16.1c12.271,8.761 27.091,15.515 42.933,21.466c13.649,4.54 23.619,10.123 32.199,16.1Z" style="fill:#c78664;"/></g></svg>