<?xml version="1.0" encoding="UTF-8" standalone="no"?><!DOCTYPE svg PUBLIC "-//W3C//DTD SVG 1.1//EN" "http://www.w3.org/Graphics/SVG/1.1/DTD/svg11.dtd"><svg width="100%" height="100%" viewBox="0 0 216 205" version="1.1" xmlns="http://www.w3.org/2000/svg" xmlns:xlink="http://www.w3.org/1999/xlink" xml:space="preserve" xmlns:serif="http://www.serif.com/" style="fill-rule:evenodd;clip-rule:evenodd;stroke-linejoin:round;stroke-miterlimit:1.41421;"><g id="Stone_Block04"><g><path d="M215.66,54.617l0,96.598l-21.466,10.733l-5.367,-8.05l-5.366,13.416l-16.032,8.016l-5.434,-8.016l-5.367,13.417l-16.1,8.05l-5.366,-8.05l-5.367,13.416l-21.466,10.733l0,-96.598l107.331,-53.665Z" style="fill:#c0ada0;"/><path d="M0.998,54.617l107.331,53.665l0,96.598l-107.331,-53.665l0,-96.598" style="fill:#7e6f5f;"/></g><path d="M215.66,54.549l-75.132,-37.498l-10.733,-5.367l-21.466,-10.801l-21.466,10.801l0,10.733l-10.733,-5.366l-16.1,8.049l0,10.734l-10.733,-5.367l-16.1,8.05l0,10.733l-10.733,-5.367l-21.466,10.666l107.331,53.665l21.466,-10.665l5.367,8.05l5.366,-13.417l16.1,-8.049l5.367,8.049l5.366,-13.416l16.1,-8.05l5.366,8.05l5.367,-13.416l21.466,-10.801Z" style="fill:#b6afa7;"/><clipPath id="_clip1"><path d="M215.66,54.549l-75.132,-37.498l-10.733,-5.367l-21.466,-10.801l-21.466,10.801l0,10.733l-10.733,-5.366l-16.1,8.049l0,10.734l-10.733,-5.367l-16.1,8.05l0,10.733l-10.733,-5.367l-21.466,10.666l107.331,53.665l21.466,-10.665l5.367,8.05l5.366,-13.417l16.1,-8.049l5.367,8.049l5.366,-13.416l16.1,-8.05l5.366,8.05l5.367,-13.416l21.466,-10.801Z"/></clipPath><g clip-path="url(#_clip1)"><path d="M-11.03,21.659c0,0 25.752,7.572 44.227,16.79c10.717,5.347 10.436,12.284 12.301,17.627c6.806,19.49 17.714,25.849 52.098,32.503c14.621,2.83 34.879,-0.621 42.932,3.536c16.652,8.595 35.774,8.946 35.774,8.946l-153.846,33.017l-67.965,-77.834l34.479,-34.585Z" style="fill:#7e6f5f;fill-opacity:0.5;"/><path d="M183.461,70.649c-1.62,-2.35 -35.596,-3.693 -46.872,-19.429c-5.08,-7.09 -13.536,-5.956 -46.885,-16.649c-3.266,-1.047 -2.827,-12.223 -13.574,-17.588c-26.494,-13.227 -64.207,-12.397 -64.207,-12.397l153.225,-35.789l73.087,90.564l-54.774,11.288Z" style="fill:#7e6f5f;fill-opacity:0.5;"/><path d="M194.194,65.35l-107.331,-53.666l0,10.733l96.598,48.299l5.366,8.05l5.367,-13.416Z" style="fill:#85827d;"/><path d="M140.528,92.182l-107.331,-53.665l0,10.733l96.598,48.299l5.367,8.05l5.366,-13.417Z" style="fill:#85827d;"/><path d="M167.429,78.732l-107.331,-53.665l0,10.733l96.598,48.299l5.299,8.083l5.434,-13.45Z" style="fill:#85827d;"/></g><g><path d="M49.297,178.53l10.733,7.567l14.122,3.672l5.21,-4.732l-3.045,-10.187l-19.234,-3.158l-7.786,6.838Z" style="fill:#857c6c;"/><path d="M89.026,169.819l8.068,-11.367l-1.706,-6.333l-8.575,-20.565c0,0 -7.897,6.331 -10.383,6.412c-2.485,0.082 -7.683,4.746 -7.683,4.746l3.152,9.879l8.6,6.515l8.527,10.713Z" style="fill:#857c6c;"/><path d="M40.69,167.152l10.639,-1.979l10.285,-8.106l-2.016,-8.128l-4.769,-6.067l-7.679,2.079l-4.985,5.743l-3.648,7.023l2.173,9.435" style="fill:#857c6c;"/><path d="M106.689,184.397l-9.093,-6.35l-10.433,5.551l-4.516,14.885l14.93,2.979l6.408,-5.9l2.704,-11.165" style="fill:#857c6c;"/><path d="M11.857,134.859l-7.471,-8.946l0.629,-16.394l4.861,-8.915l7.639,3.462l3.734,7.252l0.66,11.419l-10.052,12.122" style="fill:#857c6c;"/><path d="M24.275,154.612l-9.713,-5.827l1.146,-6.621l5.191,-3.206l4.056,1.838l4.471,4.721l-0.085,5.966l-5.066,3.129Z" style="fill:#857c6c;"/><path d="M48.007,133.606l-5.042,5.788l-10.805,-0.905l-2.238,-5.008l-1.605,-8.692l10.343,-12.302l3.071,5.555l5.435,1.018l2.991,10.793l-2.15,3.753" style="fill:#857c6c;"/><path d="M17.705,97l9.014,-1.578l5.175,-12.725l-5.559,-7.096l-5.363,-5.631l-4.853,1.743l-1.957,-3.307l-5.07,-2.136l-3.979,2.835l1.911,7.125l1.585,5.13l3.529,8.589l5.567,7.051Z" style="fill:#857c6c;"/><path d="M58.419,115.567l7.62,-4.706l4.724,-11.29l-3.045,-10.188l-19.234,-3.158l-6.431,8.204l-1.006,8.216l6.329,7.917l11.043,5.005Z" style="fill:#857c6c;"/><path d="M97.596,108.218l-9.119,-6.802l-10.415,5.867l-4.461,15.835l14.945,3.236l6.388,-6.256l2.662,-11.88" style="fill:#857c6c;"/><path d="M102.962,185.399l-2.703,11.165l-6.408,5.899l-14.93,-2.979l4.516,-14.884l10.432,-5.551l9.093,6.35Zm-49.606,-12.706l-4.059,5.183l10.733,8.221l12.416,4.526l3.189,-4.584l-3.045,-10.187l-9.927,-1.63l-9.307,-1.529Zm31.943,-1.872l8.069,-11.367l-1.707,-6.333l-8.575,-20.566c0,0 -7.896,6.332 -10.382,6.413c-2.486,0.082 -7.683,4.746 -7.683,4.746l3.152,9.879l8.599,6.515l8.527,10.713Zm-48.335,-2.667l10.639,-1.979l10.285,-8.107l-2.017,-8.128l-4.768,-6.066l-7.68,2.079l-4.984,5.743l-3.648,7.022l2.173,9.436Zm-16.415,-12.541l-9.714,-5.826l1.146,-6.621l5.191,-3.206l4.057,1.838l4.47,4.721l-0.085,5.966l-5.065,3.128Zm23.732,-21.005l-5.042,5.788l-10.806,-0.905l-2.238,-5.008l-1.605,-8.692l10.344,-12.302l3.07,5.554l5.436,1.018l2.99,10.794l-2.149,3.753Zm-36.151,1.253l-7.471,-8.946l0.629,-16.394l4.861,-8.915l7.639,3.462l3.734,7.252l0.661,11.419l-10.053,12.122Zm85.739,-26.641l-2.662,11.88l-6.387,6.256l-14.946,-3.237l4.462,-15.834l10.414,-5.867l9.119,6.802Zm-39.177,7.349l7.62,-4.707l4.724,-11.29l-3.045,-10.187l-19.233,-3.158l-6.432,8.203l-1.006,8.217l6.329,7.917l11.043,5.005Zm-40.714,-18.568l9.014,-1.578l5.175,-12.724l-5.559,-7.096l-5.362,-5.631l-4.853,1.743l-1.958,-3.307l-5.07,-2.136l-3.978,2.835l1.911,7.125l1.585,5.13l3.528,8.589l5.567,7.05Z" style="fill:#4f3929;fill-opacity:0.6;"/></g><g><path d="M128.377,191.612l5.814,-5.233l-2.71,-10.81l-7.714,-2.103l-6.821,-1.226l-2.673,3.407l-3.13,-1.274l-4.817,0.946l-1.472,3.722l5.049,3.818l3.79,2.651l6.987,4.033l7.697,2.069Z" style="fill:#b9ac99;"/><path d="M187.633,165.28l14.889,-6.555l-8.575,-19.295c0,0 -7.896,5.94 -10.382,6.017c-2.486,0.077 -7.683,4.452 -7.683,4.452l3.152,9.269l8.599,6.112Z" style="fill:#b9ac99;"/><path d="M148.057,180.003l10.639,-1.857l10.285,-7.605l-2.016,-7.626l-4.769,-5.691l-7.679,1.95l-4.985,5.388l-3.648,6.589l2.173,8.852" style="fill:#b9ac99;"/><path d="M119.224,149.706l-7.471,-8.393l0.629,-15.381l4.861,-8.365l7.639,3.249l3.734,6.804l0.66,10.713l-10.052,11.373" style="fill:#b9ac99;"/><path d="M131.642,168.238l-9.713,-5.467l1.146,-6.211l5.191,-3.009l4.056,1.725l4.471,4.43l-0.085,5.596l-5.066,2.936Z" style="fill:#b9ac99;"/><path d="M161.926,144.643l-5.043,5.43l-10.805,-0.848l-2.238,-4.699l-1.605,-8.155l10.343,-11.541l3.071,5.211l5.435,0.955l2.991,10.126l-2.149,3.521" style="fill:#b9ac99;"/><path d="M147.745,121.623l6.48,-6.063l-3.057,-12.564l-8.623,-2.464l-7.622,-1.443l-2.977,3.95l-3.5,-1.488l-5.378,1.085l-1.634,4.32l5.651,4.448l4.24,3.091l7.816,4.703l8.604,2.425Z" style="fill:#b9ac99;"/><path d="M176.483,133.237l7.62,-4.416l4.724,-10.592l-3.045,-9.558l-19.233,-2.963l-6.432,7.697l-1.006,7.708l6.329,7.428l11.043,4.696Z" style="fill:#b9ac99;"/><path d="M204.168,99.094l8.068,-10.665l-1.706,-5.942l-8.575,-19.294c0,0 -7.897,5.94 -10.383,6.017c-2.486,0.076 -7.683,4.452 -7.683,4.452l3.152,9.269l8.6,6.112l8.527,10.051Z" style="fill:#b9ac99;"/><path d="M157.17,103.185l10.64,-1.857l10.284,-7.605l-2.016,-7.626l-4.769,-5.692l-7.679,1.95l-4.985,5.389l-3.648,6.588l2.173,8.853" style="fill:#b9ac99;"/><path d="M212.236,121.453l-9.119,-6.382l-10.414,5.505l-4.461,14.856l14.945,3.036l6.387,-5.869l2.662,-11.146" style="fill:#b9ac99;"/><path d="M128.741,193.574l5.45,-6.991c-1.197,-4.704 -1.018,-3.262 -1.122,-4.806l-3.274,-4.534l-10.733,-2.277l-5.366,3.205l-7.007,0.696l4.972,7.444l11.504,5.785l5.576,1.478Zm17.784,-8.3l20.836,-12.292l-1.929,-4.796l-4.768,-5.691l-7.68,1.95l-4.984,5.388l-3.648,6.589l2.173,8.852Zm30.976,-20.835l5.96,2.875l17.041,-7.579l-8.087,-15.034c0,0 -7.897,5.94 -10.383,6.017c-2.486,0.076 -7.683,4.452 -7.683,4.452l3.152,9.269Zm-47.391,9.07l-9.714,-5.467l1.146,-6.211l5.191,-3.009l4.057,1.725l4.47,4.43l-0.085,5.596l-5.065,2.936Zm30.283,-23.595l-5.042,5.43l-10.806,-0.848l-2.238,-4.699l-1.605,-8.155l10.344,-11.541l3.07,5.211l5.436,0.955l2.991,10.126l-2.15,3.521Zm-42.702,5.063l-7.471,-8.393l0.629,-15.381l4.861,-8.365l7.639,3.249l3.734,6.804l0.661,10.713l-10.053,11.373Zm93.013,-28.253l-2.663,11.146l-6.387,5.869l-14.945,-3.036l4.461,-14.856l10.414,-5.505l9.12,6.382Zm-35.753,11.784l7.62,-4.416l4.724,-10.592l-3.045,-9.558l-19.234,-2.963l-6.431,7.697l-1.006,7.708l6.329,7.428l11.043,4.696Zm-28.739,-11.614l6.48,-6.063l-3.056,-12.564l-8.623,-2.464l-7.623,-1.443l-2.976,3.95l-3.5,-1.488l-5.379,1.085l-1.634,4.32l5.651,4.448l4.24,3.091l7.817,4.703l8.603,2.425Zm9.426,-18.438l10.639,-1.857l10.285,-7.606l-2.017,-7.625l-4.768,-5.692l-7.679,1.95l-4.985,5.389l-3.648,6.588l2.173,8.853Zm46.997,-4.091l8.069,-10.665l-1.707,-5.942l-8.575,-19.294c0,0 -7.896,5.94 -10.382,6.016c-2.486,0.077 -7.683,4.453 -7.683,4.453l3.152,9.269l8.599,6.112l8.527,10.051Z" style="fill:#4f3929;fill-opacity:0.2;"/></g></g></svg>