<?xml version="1.0" encoding="UTF-8" standalone="no"?><!DOCTYPE svg PUBLIC "-//W3C//DTD SVG 1.1//EN" "http://www.w3.org/Graphics/SVG/1.1/DTD/svg11.dtd"><svg width="100%" height="100%" viewBox="0 0 223 205" version="1.1" xmlns="http://www.w3.org/2000/svg" xmlns:xlink="http://www.w3.org/1999/xlink" xml:space="preserve" xmlns:serif="http://www.serif.com/" style="fill-rule:evenodd;clip-rule:evenodd;stroke-linecap:round;stroke-linejoin:round;stroke-miterlimit:1.5;"><g id="Stone_Block02"><g><g><path d="M218.853,53.991l3.393,25.136l-3.393,25.229l2.263,34.368l-2.263,11.865l-107.332,53.665c-12.005,-28.02 -23.166,-56.334 0,-96.598c28.063,-22.03 50.477,-47.093 107.332,-53.665Z" style="fill:#c0ada0;"/><clipPath id="_clip1"><path d="M218.853,53.991l3.393,25.136l-3.393,25.229l2.263,34.368l-2.263,11.865l-107.332,53.665c-12.005,-28.02 -23.166,-56.334 0,-96.598c28.063,-22.03 50.477,-47.093 107.332,-53.665Z"/></clipPath><g clip-path="url(#_clip1)"><path d="M117.049,235.145l-7.47,-8.393l0.628,-15.381l4.862,-8.364l7.638,3.248l3.735,6.804l0.66,10.713l-10.053,11.373" style="fill:#e1aa80;stroke:#000;stroke-width:1px;"/><path d="M140.59,204.861l6.48,-6.063l-3.057,-12.564l-8.623,-2.464l-7.622,-1.443l-2.977,3.95l-3.5,-1.488l-5.378,1.085l-1.634,4.32l5.651,4.448l4.24,3.091l7.816,4.703l8.604,2.425Z" style="fill:#b9ac99;"/><path d="M177.577,211.166l7.62,-4.416l4.724,-10.592l-3.045,-9.558l-19.234,-2.964l-6.431,7.697l-1.006,7.709l6.329,7.428l11.043,4.696Z" style="fill:#e1aa80;stroke:#000;stroke-width:1px;"/><path d="M199.352,174.705l8.069,-10.664l-1.706,-5.942l-8.575,-19.294c0,0 -7.897,5.94 -10.383,6.016c-2.486,0.077 -7.683,4.452 -7.683,4.452l3.152,9.269l8.6,6.112l8.526,10.051Z" style="fill:#b9ac99;"/><path d="M151.25,179.378l10.639,-1.858l10.284,-7.605l-2.016,-7.625l-4.769,-5.692l-7.679,1.95l-4.985,5.388l-3.647,6.589l2.173,8.853" style="fill:#b9ac99;"/><path d="M210.062,206.892l-9.119,-6.382l-10.414,5.505l-4.462,14.856l14.945,3.037l6.388,-5.87l2.662,-11.146" style="fill:#e1aa80;stroke:#000;stroke-width:1px;"/><path d="M122.416,149.08l-7.471,-8.393l0.629,-15.381l4.861,-8.364l7.639,3.248l3.734,6.804l0.66,10.713l-10.052,11.373" style="fill:#b9ac99;"/><path d="M134.835,167.612l-9.714,-5.467l1.146,-6.211l5.191,-3.009l4.057,1.726l4.47,4.429l-0.085,5.597l-5.065,2.935Z" style="fill:#b9ac99;"/><path d="M165.118,144.017l-5.042,5.43l-10.806,-0.848l-2.238,-4.698l-1.605,-8.156l10.344,-11.541l3.07,5.211l5.436,0.955l2.99,10.126l-2.149,3.521" style="fill:#b9ac99;"/><path d="M150.937,120.997l6.48,-6.062l-3.057,-12.565l-8.623,-2.464l-7.622,-1.443l-2.977,3.95l-3.5,-1.488l-5.378,1.086l-1.634,4.319l5.651,4.448l4.24,3.091l7.817,4.704l8.603,2.424Z" style="fill:#b9ac99;"/><path d="M179.675,132.611l7.621,-4.415l4.724,-10.593l-3.045,-9.558l-19.234,-2.963l-6.431,7.697l-1.006,7.708l6.329,7.428l11.042,4.696Z" style="fill:#b9ac99;"/><path d="M207.36,98.468l8.069,-10.665l-1.707,-5.941l-8.575,-19.295c0,0 -7.897,5.94 -10.382,6.017c-2.486,0.076 -7.683,4.452 -7.683,4.452l3.151,9.269l8.6,6.112l8.527,10.051Z" style="fill:#b9ac99;"/><path d="M160.363,102.559l10.639,-1.857l10.285,-7.605l-2.017,-7.626l-4.768,-5.692l-7.68,1.951l-4.984,5.388l-3.648,6.588l2.173,8.853" style="fill:#b9ac99;"/><path d="M215.429,120.827l-9.12,-6.382l-10.414,5.505l-4.461,14.856l14.945,3.037l6.387,-5.87l2.663,-11.146" style="fill:#b9ac99;"/><path d="M127.935,258.948l-9.713,-5.467l1.146,-6.211l5.191,-3.009l4.057,1.726l4.47,4.429l-0.085,5.597l-5.066,2.935Zm30.284,-23.595l-5.042,5.431l-10.806,-0.849l-2.238,-4.698l-1.605,-8.156l10.344,-11.541l3.07,5.211l5.436,0.955l2.99,10.126l-2.149,3.521Zm-42.702,5.063l-7.471,-8.393l0.629,-15.381l4.861,-8.364l7.639,3.248l3.734,6.804l0.66,10.713l-10.052,11.373Zm93.013,-28.253l-2.663,11.146l-6.387,5.87l-14.945,-3.037l4.461,-14.856l10.414,-5.505l9.12,6.382Zm-32.486,4.274l7.621,-4.416l4.723,-10.593l-3.045,-9.557l-19.233,-2.964l-6.432,7.697l-1.006,7.709l6.329,7.428l11.043,4.696Zm-36.987,-6.305l6.48,-6.063l-3.056,-12.564l-8.623,-2.464l-7.623,-1.443l-2.976,3.95l-3.5,-1.488l-5.379,1.085l-1.634,4.32l5.651,4.448l4.24,3.091l7.817,4.703l8.603,2.425Zm10.66,-25.483l10.639,-1.858l10.285,-7.605l-2.017,-7.626l-4.768,-5.691l-7.679,1.95l-4.985,5.388l-3.648,6.589l2.173,8.853Zm48.103,-4.673l8.069,-10.664l-1.707,-5.942l-8.575,-19.295c0,0 -7.897,5.941 -10.382,6.017c-2.486,0.077 -7.683,4.452 -7.683,4.452l3.151,9.269l8.6,6.112l8.527,10.051Zm-64.518,-7.093l-9.713,-5.467l1.145,-6.211l5.192,-3.009l4.056,1.726l4.47,4.429l-0.084,5.597l-5.066,2.935Zm30.283,-23.595l-5.042,5.43l-10.806,-0.848l-2.237,-4.699l-1.605,-8.155l10.343,-11.541l3.071,5.211l5.435,0.955l2.991,10.126l-2.15,3.521Zm-42.702,5.063l-7.47,-8.393l0.628,-15.381l4.862,-8.364l7.638,3.248l3.735,6.804l0.66,10.713l-10.053,11.373Zm93.013,-28.253l-2.662,11.146l-6.388,5.87l-14.945,-3.037l4.462,-14.856l10.414,-5.505l9.119,6.382Zm-35.753,11.784l7.62,-4.416l4.724,-10.592l-3.045,-9.558l-19.233,-2.963l-6.432,7.697l-1.006,7.708l6.329,7.428l11.043,4.696Zm-28.738,-11.614l6.48,-6.062l-3.057,-12.565l-8.623,-2.464l-7.622,-1.443l-2.977,3.95l-3.5,-1.488l-5.378,1.086l-1.634,4.319l5.651,4.448l4.24,3.091l7.816,4.704l8.604,2.424Zm9.425,-18.438l10.639,-1.857l10.285,-7.605l-2.016,-7.626l-4.769,-5.692l-7.679,1.95l-4.985,5.389l-3.648,6.588l2.173,8.853Zm46.997,-4.091l8.069,-10.665l-1.707,-5.941l-8.574,-19.295c0,0 -7.897,5.94 -10.383,6.017c-2.486,0.076 -7.683,4.452 -7.683,4.452l3.152,9.269l8.6,6.112l8.526,10.051Z" style="fill:#4f3929;fill-opacity:0.2;"/></g></g><path d="M4.19,53.991l45.753,14.689l61.578,38.976l-5.366,29.516l8.588,33.272l-3.222,33.81l-107.331,-53.665l-3.551,-23.242l5.44,-36.735l-1.889,-36.621" style="fill:#7e6f5f;"/><clipPath id="_clip2"><path d="M4.19,53.991l45.753,14.689l61.578,38.976l-5.366,29.516l8.588,33.272l-3.222,33.81l-107.331,-53.665l-3.551,-23.242l5.44,-36.735l-1.889,-36.621"/></clipPath><g clip-path="url(#_clip2)"><path d="M9.682,225.967l-7.47,-8.946l0.629,-16.393l4.861,-8.916l7.639,3.462l3.734,7.253l0.66,11.418l-10.053,12.122" style="fill:#857c6c;stroke:#000;stroke-width:1px;"/><path d="M52.384,220.571l-5.042,5.788l-10.805,-0.905l-2.238,-5.007l-1.605,-8.693l10.343,-12.302l3.071,5.555l5.435,1.018l2.991,10.793l-2.15,3.753" style="fill:#857c6c;stroke:#000;stroke-width:1px;"/><path d="M33.223,193.688l6.48,-6.461l-3.057,-13.393l-8.623,-2.626l-7.622,-1.538l-2.977,4.211l-3.5,-1.587l-5.378,1.157l-1.634,4.604l5.651,4.741l4.24,3.294l7.816,5.014l8.604,2.584Z" style="fill:#857c6c;stroke:#000;stroke-width:1px;"/><path d="M70.21,200.408l7.62,-4.706l4.724,-11.29l-3.045,-10.188l-19.234,-3.158l-6.431,8.204l-1.006,8.216l6.329,7.917l11.043,5.005Z" style="fill:#857c6c;"/><path d="M92.218,169.193l8.069,-11.367l-1.707,-6.333l-8.575,-20.565c0,0 -7.897,6.331 -10.382,6.413c-2.486,0.081 -7.683,4.745 -7.683,4.745l3.152,9.88l8.599,6.514l8.527,10.713Z" style="fill:#857c6c;"/><path d="M43.883,166.526l10.639,-1.979l10.285,-8.106l-2.017,-8.128l-4.768,-6.067l-7.68,2.079l-4.984,5.743l-3.648,7.023l2.173,9.435" style="fill:#857c6c;"/><path d="M109.881,183.771l-9.093,-6.349l-10.432,5.55l-4.516,14.885l14.93,2.979l6.408,-5.9l2.703,-11.165" style="fill:#857c6c;"/><path d="M15.049,134.233l-7.471,-8.946l0.629,-16.393l4.861,-8.916l7.639,3.462l3.734,7.253l0.661,11.418l-10.053,12.122" style="fill:#857c6c;"/><path d="M27.468,153.986l-9.714,-5.827l1.146,-6.621l5.191,-3.206l4.057,1.839l4.47,4.721l-0.085,5.965l-5.065,3.129Z" style="fill:#857c6c;"/><path d="M51.2,132.98l-5.042,5.788l-10.806,-0.905l-2.238,-5.007l-1.605,-8.693l10.344,-12.302l3.07,5.555l5.436,1.018l2.99,10.793l-2.149,3.753" style="fill:#857c6c;"/><path d="M20.897,96.374l9.014,-1.578l5.175,-12.725l-5.559,-7.096l-5.362,-5.63l-4.853,1.742l-1.958,-3.307l-5.07,-2.136l-3.978,2.836l1.911,7.124l1.585,5.13l3.528,8.589l5.567,7.051Z" style="fill:#857c6c;"/><path d="M61.611,114.942l7.62,-4.707l4.724,-11.29l-3.045,-10.188l-19.233,-3.158l-6.432,8.204l-1.006,8.216l6.329,7.917l11.043,5.006Z" style="fill:#857c6c;"/><path d="M97.352,69.812l8.069,-11.367l-1.707,-6.333l-8.574,-20.565c0,0 -7.897,6.331 -10.383,6.413c-2.486,0.081 -7.683,4.745 -7.683,4.745l3.152,9.88l8.599,6.514l8.527,10.713Z" style="fill:#857c6c;stroke:#000;stroke-width:1px;"/><path d="M49.249,74.792l10.639,-1.979l10.285,-8.106l-2.016,-8.128l-4.769,-6.067l-7.679,2.079l-4.985,5.743l-3.648,7.023l2.173,9.435" style="fill:#857c6c;stroke:#000;stroke-width:1px;"/><path d="M100.788,107.592l-9.119,-6.802l-10.414,5.868l-4.462,15.834l14.946,3.237l6.387,-6.256l2.662,-11.881" style="fill:#857c6c;"/><path d="M18.374,246.722l-9.713,-5.827l1.146,-6.621l5.191,-3.206l4.057,1.839l4.47,4.72l-0.085,5.966l-5.066,3.129Zm30.284,-25.149l-5.042,5.788l-10.806,-0.905l-2.238,-5.008l-1.605,-8.692l10.344,-12.302l3.07,5.555l5.436,1.018l2.99,10.793l-2.149,3.753Zm-42.702,5.396l-7.471,-8.946l0.629,-16.394l4.861,-8.915l7.639,3.462l3.734,7.253l0.66,11.418l-10.052,12.122Zm100.199,-42.196l-2.704,11.165l-6.408,5.9l-14.93,-2.979l4.516,-14.885l10.433,-5.551l9.093,6.35Zm-39.672,16.637l7.621,-4.707l4.723,-11.29l-3.045,-10.187l-19.233,-3.158l-6.432,8.203l-1.006,8.217l6.329,7.917l11.043,5.005Zm-36.987,-6.72l6.48,-6.462l-3.056,-13.392l-8.623,-2.626l-7.623,-1.538l-2.976,4.21l-3.5,-1.586l-5.379,1.157l-1.633,4.604l5.65,4.741l4.241,3.294l7.816,5.014l8.603,2.584Zm58.995,-24.495l8.069,-11.367l-1.707,-6.333l-8.574,-20.565c0,0 -7.897,6.331 -10.383,6.412c-2.486,0.082 -7.683,4.746 -7.683,4.746l3.152,9.879l8.6,6.515l8.526,10.713Zm-48.335,-2.667l10.639,-1.979l10.285,-8.106l-2.017,-8.128l-4.768,-6.067l-7.679,2.079l-4.985,5.743l-3.648,7.023l2.173,9.435Zm-16.415,-12.54l-9.713,-5.827l1.145,-6.621l5.192,-3.206l4.056,1.838l4.47,4.721l-0.084,5.966l-5.066,3.129Zm23.732,-21.006l-5.042,5.788l-10.806,-0.905l-2.237,-5.008l-1.606,-8.692l10.344,-12.302l3.07,5.555l5.436,1.018l2.991,10.793l-2.15,3.753Zm-36.151,1.253l-7.47,-8.946l0.628,-16.394l4.862,-8.915l7.639,3.462l3.734,7.252l0.66,11.419l-10.053,12.122Zm85.74,-26.641l-2.663,11.88l-6.387,6.256l-14.945,-3.236l4.461,-15.835l10.414,-5.867l9.12,6.802Zm-39.178,7.349l7.621,-4.706l4.724,-11.29l-3.045,-10.188l-19.234,-3.158l-6.432,8.204l-1.005,8.216l6.328,7.917l11.043,5.005Zm-40.713,-18.567l9.014,-1.578l5.175,-12.725l-5.559,-7.096l-5.363,-5.631l-4.853,1.743l-1.958,-3.307l-5.069,-2.136l-3.979,2.835l1.911,7.125l1.585,5.13l3.529,8.589l5.567,7.051Zm32.928,-25.797l6.063,2.236l10.284,-8.106l-2.016,-8.128l-4.769,-6.067l-7.679,2.079l-4.984,5.743l-3.648,7.022l6.749,5.221Zm43.526,-0.765l8.069,-11.367l-1.706,-6.333l-8.575,-20.565c0,0 -7.897,6.331 -10.383,6.413c-2.486,0.081 -7.683,4.745 -7.683,4.745l3.152,9.879l8.6,6.515l8.526,10.713Z" style="fill:#4f3929;fill-opacity:0.6;"/></g></g><path d="M218.853,53.923l-18.529,-12.134l-20.978,-5.611l-21.367,-12.624l-15.816,-7.931l-14.542,-1.882l-16.1,-13.484l-12.577,3.143l-18.161,10.633l-26.466,9.528l-18.93,13.829l-31.197,16.533l10.733,7.115l27.672,9.322l38.415,23.881l30.511,13.348l10.007,-3.117l17.887,-15.068l38.681,-12.859l26.622,-16.123l14.135,-6.499Z" style="fill:#b6afa7;"/><clipPath id="_clip3"><path d="M218.853,53.923l-18.529,-12.134l-20.978,-5.611l-21.367,-12.624l-15.816,-7.931l-14.542,-1.882l-16.1,-13.484l-12.577,3.143l-18.161,10.633l-26.466,9.528l-18.93,13.829l-31.197,16.533l10.733,7.115l27.672,9.322l38.415,23.881l30.511,13.348l10.007,-3.117l17.887,-15.068l38.681,-12.859l26.622,-16.123l14.135,-6.499Z"/></clipPath><g clip-path="url(#_clip3)"><path d="M-7.838,21.033c0,0 25.752,7.572 44.227,16.79c10.717,5.347 10.436,12.285 12.302,17.627c6.806,19.49 22.135,14.676 56.519,21.331c14.621,2.83 30.457,10.551 38.511,14.708c16.652,8.595 35.774,8.946 35.774,8.946l-153.846,33.017l-67.966,-77.834l34.479,-34.585Z" style="fill:#7e6f5f;fill-opacity:0.5;"/><path d="M186.653,70.023c-1.62,-2.35 -41.14,-4.125 -39.943,-23.447c0.693,-11.186 -13.274,-6.448 -46.624,-17.141c-3.266,-1.048 -10.017,-7.712 -20.764,-13.078c-26.494,-13.227 -64.207,-12.397 -64.207,-12.397l153.225,-35.789l73.088,90.564l-54.775,11.288Z" style="fill:#7e6f5f;fill-opacity:0.5;"/></g><g><g><path d="M26.495,55.896l-8.162,-4.082l0.517,-8.196l9.045,-3.122l7.158,-4.979l10.548,-2.268l10.546,10.64l-4.09,8.688l-9.462,6.002l-16.1,-2.683Z" style="fill:#918f88;"/><path d="M74.794,27.79l-14.664,1.99l5.999,20.445l12.295,-0.564l9.123,2.541l2.034,-6.383l10.081,-7.005l-3.402,-9.358l-5.366,-4.479l-10.733,0.13l-5.367,2.683Z" style="fill:#918f88;"/><path d="M99.662,19.312l-14.135,-0.172l-9.298,2.591l-3.035,-1.518l-3.766,-1.883l2.821,-3.956l2.545,-4.094l6.616,-0.487l4.117,-2.058l5.367,-0.138l12.168,0.717l0.532,2.274l-0.174,6.845l-3.758,1.879Z" style="fill:#918f88;"/><path d="M131.112,3.587l-10.99,-2.843l-6.618,4.55l-5.1,5.691l3.956,4.218l10.733,3.127l10.733,3.66l7.91,3.118l-0.735,-4.999l3.558,-1.779l1.789,-4.473l-1.789,-2.862l-13.447,-7.408" style="fill:#918f88;"/><path d="M122.014,32.888l8.542,3.191l8.637,7.002l-7.698,7.954l-6.216,1.686l-4.098,5.503l-7.41,-1.623l-1.411,-9.774l-2.455,-7.885l6.25,-5.961l5.859,-0.093Z" style="fill:#918f88;"/><path d="M171.392,26.379l-13.21,1.239l-10.169,8.538l3.294,7.014l5.008,5.187l15.077,-0.511l8.505,4.252l3.967,-8.749l-0.459,-5.597l-3.624,-4.834l-8.389,-6.539Z" style="fill:#918f88;"/><path d="M152.231,62.793l-15.078,0.133l-11.775,7.927l6.22,5.395l6.228,3.114l16.501,-1.517l6.332,2.2l1.975,-6.354l12.428,-4.187l2.785,-6.111l-2.786,-2.98l-5.915,-0.711l-3.12,1.56l-13.795,1.531" style="fill:#918f88;"/><path d="M206.099,43.81c-1.867,0.206 -16.056,6.73 -16.056,6.73l-6.708,10.036l10.733,4.051l6.867,-5.059l9.232,-2.991c0,0 -2.2,-12.972 -4.068,-12.767Z" style="fill:#918f88;"/><path d="M99.833,59.674l8.115,8.245l0.779,11.123l-7.715,2.942l-12.603,-0.498l-7.551,-6.958l-4.782,-8.342l8.836,-3.206l8.821,-2.168l6.1,-1.138" style="fill:#918f88;"/><path d="M57.441,57.827l4.035,4.826l3.813,11.412l-9.177,4.588l-8.151,-4.808l-5.366,-6.652l10.733,-3.248l0,-2.181l1.741,-2.315l2.372,-1.622Z" style="fill:#918f88;"/><path d="M126.608,82.545l4.634,4.876l0,5.889l-9.703,6.295l-10.622,3.868l-3.426,-6.438l0,-10.177l19.117,-4.313Z" style="fill:#918f88;"/></g><g><g opacity="0.3"><path d="M22.121,60.123l-8.163,-4.081l1.352,-7.224l8.21,-4.095l7.159,-4.979l10.548,-2.267l10.545,10.639l-4.089,8.688l-9.463,6.002l-16.099,-2.683Z" style="fill:#4f3929;"/><path d="M70.42,32.018l-14.665,1.99l5.999,20.445l12.296,-0.565l9.122,2.542l2.035,-6.384l10.081,-7.005l-3.402,-9.357l-5.367,-4.48l-10.733,0.13l-5.366,2.684Z" style="fill:#4f3929;"/><path d="M95.288,23.539l-14.135,-0.172l-9.298,2.591l-3.036,-1.518l-3.038,-1.54l6.394,-3.197l-2.747,-1.373l7.608,-4.309l4.117,-2.059l5.366,-0.138l12.169,0.718l0.532,2.273l-0.175,6.846l-3.757,1.878Z" style="fill:#4f3929;"/><path d="M126.737,7.815l-10.989,-2.843l-6.619,4.549l-5.099,5.692l3.956,4.218l10.733,3.126l10.733,3.661l7.91,3.117l4.67,-3.021l-0.683,-5.709l-4.641,-2.676l1.789,-6.261l-11.76,-3.853" style="fill:#4f3929;"/><path d="M117.639,37.115l8.543,3.192l8.636,7.001l-3.319,3.715l-5.923,1.795l-8.77,9.634l-7.41,-1.624l-1.41,-9.773l-2.455,-7.886l6.25,-5.96l5.858,-0.094Z" style="fill:#4f3929;"/><path d="M167.018,30.607l-13.211,1.239l-10.168,8.538l3.294,7.013l5.008,5.187l15.077,-0.511l8.504,4.252l3.968,-8.749l-0.46,-5.596l-3.623,-4.834l-8.389,-6.539Z" style="fill:#4f3929;"/><path d="M147.856,67.021l-15.077,0.132l-11.775,7.927l6.219,5.395l6.229,3.114l16.5,-1.517l6.333,2.201l4.593,-4.119l1.769,-5.967l9.049,-3.08l1.776,-3.487l-2.786,-2.98l-5.914,-0.711l-3.121,1.561l-13.795,1.531" style="fill:#4f3929;"/><path d="M201.107,49.683c-1.867,0.206 -15.439,5.084 -15.439,5.084l-6.708,10.037l10.733,4.05l6.868,-5.059l9.232,-2.99c0,0 -2.818,-11.327 -4.686,-11.122Z" style="fill:#4f3929;"/><path d="M95.459,63.902l8.114,8.245l0.779,11.122l-7.714,2.943l-12.603,-0.499l-7.551,-6.957l-4.782,-8.342l8.836,-3.207l8.82,-2.168l6.101,-1.137" style="fill:#4f3929;"/><path d="M53.067,62.054l4.035,4.826l3.812,11.412l-5.113,0.424l-7.56,-4.376l-5.646,-6.514l4.233,-1.738l2.016,-0.504l4.213,-1.768l0.01,-1.762Z" style="fill:#4f3929;"/><path d="M122.233,86.773l4.635,4.875l0,5.89l-9.973,5.429l-8.784,2.916l-4.995,-4.62l0,-10.178l19.117,-4.312Z" style="fill:#4f3929;"/></g></g></g></g></svg>