<?xml version="1.0" encoding="UTF-8" standalone="no"?><!DOCTYPE svg PUBLIC "-//W3C//DTD SVG 1.1//EN" "http://www.w3.org/Graphics/SVG/1.1/DTD/svg11.dtd"><svg width="100%" height="100%" viewBox="0 0 227 206" version="1.1" xmlns="http://www.w3.org/2000/svg" xmlns:xlink="http://www.w3.org/1999/xlink" xml:space="preserve" xmlns:serif="http://www.serif.com/" style="fill-rule:evenodd;clip-rule:evenodd;stroke-linejoin:round;stroke-miterlimit:1.41421;"><g id="Dirt_Block25"><g><path d="M221.129,54.537l5.084,93.706l-112.416,56.558l-11.015,-10.942l11.015,-85.656c32.743,-23.732 69.042,-40.614 107.332,-53.666Z" style="fill:#b3a890;"/><path d="M210.396,102.836l6.94,8.837l-1.574,15.313l-5.366,8.049l-7.425,-3.712l-3.309,-7.021l0,-10.733l10.734,-10.733" style="fill:#ccc3b0;"/><path d="M199.14,83.575l9.359,6.054l-1.526,6.129l-5.366,2.684l-3.943,-1.972l-4.189,-4.695l0.429,-5.581l5.236,-2.619Z" style="fill:#ccc3b0;"/><path d="M167.463,105.263l5.367,-5.11l10.733,1.512l1.944,4.827l1.101,8.238l-11.034,10.883l-2.744,-5.39l-5.367,-1.287l-2.362,-10.291l2.362,-3.382" style="fill:#ccc3b0;"/><path d="M185.037,131.615l-6.841,5.652l2.278,12.729l8.455,2.989l7.519,1.91l3.214,-3.76l3.402,1.701l5.435,-0.753l1.897,-4.211l-5.367,-4.787l-4.042,-3.345l-7.512,-5.176l-8.438,-2.949Z" style="fill:#ccc3b0;"/><path d="M148.508,123.047l-7.878,3.939l-5.366,10.281l2.451,9.727l19.015,4.141l6.893,-7.287l1.478,-7.632l-5.86,-7.803l-10.733,-5.366Z" style="fill:#ccc3b0;"/><path d="M124.531,158.099l-8.71,10.148l1.338,6.035l7.372,19.786c0,0 8.247,-5.443 10.733,-5.367c2.485,0.077 7.942,-3.971 7.942,-3.971l-2.576,-9.445l-8.207,-6.63l-7.892,-10.556Z" style="fill:#ccc3b0;"/><path d="M172.83,156.394l-10.734,1.199l-10.733,6.958l1.544,7.736l4.409,5.974l7.785,-1.474l5.307,-5.072l4.046,-6.351l-1.624,-8.97" style="fill:#ccc3b0;"/><path d="M115.821,125.314l8.71,6.931l10.733,-4.854l5.366,-14.553l-14.73,-3.951l-6.736,5.466l-3.343,10.961" style="fill:#ccc3b0;"/><path d="M128.555,160.999l-8.372,9.701l1.286,5.77l7.086,18.914c0,0 7.927,-5.203 10.317,-5.13c2.389,0.073 7.634,-3.796 7.634,-3.796l-2.476,-9.03l-7.889,-6.337l-7.586,-10.092Zm46.426,-1.63l-10.317,1.147l-10.317,6.652l1.484,7.394l4.239,5.712l7.482,-1.41l5.101,-4.848l3.89,-6.072l-1.562,-8.575Zm11.734,-23.688l-6.575,5.404l2.19,12.168l8.127,2.858l7.227,1.825l3.09,-3.594l3.27,1.626l5.224,-0.72l1.823,-4.025l-5.159,-4.577l-3.885,-3.198l-7.221,-4.948l-8.111,-2.819Zm-35.112,-8.191l-7.573,3.765l-5.158,9.83l2.356,9.298l18.278,3.959l6.626,-6.966l1.42,-7.296l-5.632,-7.46l-10.317,-5.13Zm59.488,-19.321l6.671,8.448l-1.513,14.638l-5.158,7.696l-7.137,-3.549l-3.18,-6.712l0,-10.26l10.317,-10.261Zm-90.908,21.489l3.213,-10.479l6.475,-5.225l14.159,3.776l-5.158,13.913l-10.317,4.64l-8.372,-6.625Zm49.64,-19.169l5.158,-4.885l10.317,1.445l1.87,4.615l1.057,7.875l-10.606,10.405l-2.638,-5.153l-5.158,-1.231l-2.271,-9.838l2.271,-3.233Zm30.449,-20.733l8.996,5.788l-1.466,5.859l-5.159,2.565l-3.79,-1.884l-4.027,-4.489l0.413,-5.336l5.033,-2.503Z" style="fill:#7e7260;fill-opacity:0.5;"/></g><path d="M6.466,54.537c41.397,14.806 74.567,34.125 107.331,53.666c1.048,17.48 4.664,27.896 0.769,46.976c-7.904,38.717 0.16,53.446 -0.769,49.622l-112.98,-56.49l5.649,-93.774" style="fill:#7e7260;"/><clipPath id="_clip1"><path d="M6.466,54.537c41.397,14.806 74.567,34.125 107.331,53.666c1.048,17.48 4.664,27.896 0.769,46.976c-7.904,38.717 0.16,53.446 -0.769,49.622l-112.98,-56.49l5.649,-93.774"/></clipPath><g clip-path="url(#_clip1)"><path d="M96.328,174.6l11.734,-4.08l-0.235,-16.221l-6.989,-11.581l-11.749,-1.32l-5.988,4.725l-1.503,10.628l14.73,17.849" style="fill:#7e7260;"/><path d="M92.006,190.947l17.273,-3.67l-1.819,-6.448l-9.043,-3.989l-7.196,0.973l-8.01,3.609l-0.029,5.633l8.824,3.892Z" style="fill:#7e7260;"/><path d="M55.065,166.62l4.777,5.836l11.198,0.058l2.667,-4.498l2.28,-7.998l-9.77,-12.374l-3.564,4.94l-5.673,0.498l-3.859,9.847l1.944,3.691" style="fill:#7e7260;"/><path d="M80.154,140.752l-6.21,-6.586l4.114,-12.274l9.074,-1.735l7.964,-0.802l2.763,4.188l3.72,-1.192l5.458,1.532l1.351,4.445l-6.163,3.962l-4.606,2.728l-8.415,4.037l-9.05,1.697Z" style="fill:#7e7260;"/><path d="M41.004,151.697l-4.295,-4.586l-1.861,-10.647l2.87,-9.418l12.278,-2.445l3.22,7.815l-0.159,7.685l-4.698,7.216l-7.355,4.38Z" style="fill:#7e7260;"/><path d="M21.93,105.769l-7.493,-11.309l2.214,-5.782l10.317,-18.523c0,0 7.68,6.583 10.235,6.867c2.555,0.285 7.573,5.082 7.573,5.082l-3.959,8.98l-9.33,5.375l-9.557,9.31Z" style="fill:#7e7260;"/><path d="M67.219,119.812l-10.818,-2.742l-10.012,-8.443l2.664,-7.436l5.35,-5.277l7.762,2.587l4.721,5.79l3.252,6.875l-2.919,8.646" style="fill:#7e7260;"/><path d="M10.456,125.726l8.581,-9.593l7.678,8.655l1.217,22.864l-12.832,4.344l-4.296,-9.129l-0.348,-17.141" style="fill:#7e7260;"/><path d="M88.016,191.391l17.273,-3.671l-1.819,-6.448l-9.043,-3.989l-7.196,0.973l-8.01,3.61l-0.029,5.632l8.824,3.893Zm4.322,-16.348l-14.73,-17.849l1.503,-10.627l5.988,-4.726l11.749,1.32l6.989,11.581l0.235,16.221l-11.734,4.08Zm-41.263,-7.98l-1.944,-3.691l3.859,-9.847l5.673,-0.498l3.564,-4.94l9.77,12.374l-2.28,7.998l-2.667,4.498l-11.198,-0.057l-4.777,-5.837Zm-44.609,-40.894l8.581,-9.592l7.678,8.654l1.217,22.864l-12.832,4.344l-4.296,-9.129l-0.348,-17.141Zm30.548,25.971l-4.295,-4.585l-1.861,-10.647l2.87,-9.418l12.278,-2.445l3.22,7.814l-0.159,7.686l-4.698,7.216l-7.355,4.379Zm39.15,-10.944l-6.21,-6.587l4.115,-12.273l9.073,-1.736l7.964,-0.802l2.763,4.188l3.72,-1.191l5.458,1.532l1.351,4.444l-6.163,3.963l-4.606,2.727l-8.415,4.037l-9.05,1.698Zm-12.935,-20.941l-10.818,-2.741l-10.012,-8.444l2.664,-7.436l5.35,-5.276l7.762,2.586l4.721,5.79l3.252,6.875l-2.919,8.646Zm-45.289,-14.043l-7.493,-11.309l2.214,-5.782l10.317,-18.523c0,0 7.68,6.584 10.235,6.868c2.555,0.284 7.573,5.082 7.573,5.082l-3.959,8.979l-9.33,5.376l-9.557,9.309Z" style="fill-opacity:0.3;"/></g><path d="M221.424,54.617c-8.54,-5.886 -17.523,-10.793 -27.41,-13.705c-6.526,-2.396 -12.286,-5.864 -17.822,-8.911c-10.66,-6.229 -21.367,-12.577 -33.01,-17.053c-11.151,-4.286 -20.34,-8.922 -29.09,-13.997c-5.469,2.23 -12.27,6.026 -22.043,10.445c-15.748,5.346 -30.469,12.535 -43.807,22.2c-13.141,8.282 -27.216,14.827 -41.481,21.021l28.316,12.097c11.486,6.908 22.673,13.94 37.196,19.568c15.838,6.643 28.844,14.316 41.819,22c17.89,-11.109 35.906,-23.144 56.194,-30.663c17.617,-6.529 34.57,-14.383 51.138,-23.002Z" style="fill:#9f937d;"/><clipPath id="_clip2"><path d="M221.424,54.617c-8.54,-5.886 -17.523,-10.793 -27.41,-13.705c-6.526,-2.396 -12.286,-5.864 -17.822,-8.911c-10.66,-6.229 -21.367,-12.577 -33.01,-17.053c-11.151,-4.286 -20.34,-8.922 -29.09,-13.997c-5.469,2.23 -12.27,6.026 -22.043,10.445c-15.748,5.346 -30.469,12.535 -43.807,22.2c-13.141,8.282 -27.216,14.827 -41.481,21.021l28.316,12.097c11.486,6.908 22.673,13.94 37.196,19.568c15.838,6.643 28.844,14.316 41.819,22c17.89,-11.109 35.906,-23.144 56.194,-30.663c17.617,-6.529 34.57,-14.383 51.138,-23.002Z"/></clipPath><g clip-path="url(#_clip2)"><path d="M-5.267,21.727c0,0 25.753,7.572 44.228,16.79c10.716,5.347 10.435,12.284 12.301,17.627c6.806,19.49 22.135,14.676 56.519,21.331c14.621,2.829 30.457,10.551 38.511,14.708c16.652,8.595 35.774,8.946 35.774,8.946l-153.846,33.017l-67.966,-77.834l34.479,-34.585Z" style="fill:#b3a890;"/><path d="M189.224,70.716c-1.62,-2.349 -41.139,-4.124 -39.943,-23.447c0.693,-11.185 -13.274,-6.448 -46.623,-17.141c-3.267,-1.047 -10.018,-7.712 -20.765,-13.077c-26.494,-13.227 -64.207,-12.397 -64.207,-12.397l153.225,-35.79l73.088,90.565l-54.775,11.287Z" style="fill:#b3a890;"/><path d="M14.082,77.562l10.733,-18.239l-13.64,0.686l2.436,-4.149l16.57,-9.305l-2.122,-4.937l26.034,2.284l1.43,-10.018l1.491,-8.916l16.1,6.978l-10.733,19.424l26.833,-8.75l-16.1,-5.307l7.726,-6.871l-7.726,-14.596l16.1,-24.149l7.61,30.638l13.856,1.561l23.316,-22.391l-17.95,8.975l-5.366,2.683l-8.795,-4.397l-1.938,-11.703l29.585,-12.04l13.347,17.407l-5.366,8.05l-5.367,8.05l-7.193,12.503l-5.764,4.709l-19.242,-6.479l5.366,9.949l10.733,3.467l-2.543,4.095l-10.294,7.691l-13.995,1.631l-17.755,1.856l-19.811,0.827l-21.467,16.1l5.367,8.049l16.1,-18.782l48.299,-2.684l21.466,-10.733l5.367,-8.05l26.832,-13.416l26.833,-18.783l-29.761,4.147l5.63,7.918l-24.168,12.084l16.1,-21.221l5.366,-16.345l45.485,1.277l-2.552,20.19l-21.466,5.366l2.175,20.379l3.191,6.287l13.335,14.884l21.473,0.004l-7.975,-3.988l-7.732,-1.5l-8.368,-14.767l0,-13.249l45.062,9.669l-28.962,35.947l-28.732,-1.734l-3.467,-3.633l-5.367,-13.416l-1.112,-5.923l-4.254,-7.493l4.254,-13.973l-9.621,11.289l-5.367,2.684l-10.733,2.492l-3.536,4.643l11.143,-3.332l8.111,-1.311l-4.985,16.123l-23.616,1.776l-24.683,3.758l-16.099,-4.443l-5.367,2.683l18.429,14.012l49.471,-14.002l7.232,1.75l16.1,13.416l-19.28,9.64l-20.333,-5.933l-41.536,-0.698l-15.449,13.091l7.196,1.768l33.512,-8.247l18.324,6.808l-18.324,9.292l-3.143,-1.571l-21.466,0l-21.466,5.367l-5.367,-13.417l1.862,-9.802l3.505,-6.306l0,-8.041l-2.251,-4.241l-10.843,0.054l-8.372,4.187l-5.367,8.049l3.607,1.804l4.537,-5.876l2.589,-1.294l5.367,0.923l-3.322,16.199l-39.611,-1.69l-29.256,-19.587l13.157,22.504l62.157,28.829l179.338,-55.228l0,-96.598l-81.962,-57.081l-189.432,80.08l20.237,60.718l20.395,20.931Z" style="fill:#625443;fill-opacity:0.5;"/><path d="M16.615,76.204l10.733,-18.239l-13.64,0.686l2.436,-4.149l16.57,-9.305l-2.122,-4.937l26.034,2.284l1.43,-10.018l1.491,-8.916l16.1,6.978l-10.733,19.423l26.833,-8.749l-16.1,-5.307l7.726,-6.871l-7.726,-14.596l16.1,-24.149l7.61,30.638l13.856,1.561l23.316,-22.391l-17.95,8.975l-5.366,2.683l-8.795,-4.397l-1.938,-11.703l29.585,-12.04l13.347,17.407l-5.366,8.05l-5.367,8.05l-7.193,12.503l-5.765,4.709l-19.241,-6.479l5.366,9.949l10.733,3.467l-2.543,4.095l-10.295,7.691l-13.994,1.631l-17.755,1.856l-19.811,0.827l-21.467,16.1l5.367,8.049l16.1,-18.783l48.299,-2.683l21.466,-10.733l5.367,-8.05l26.832,-13.416l26.833,-18.783l-29.761,4.147l5.63,7.918l-24.168,12.084l16.1,-21.221l5.366,-16.345l45.485,1.276l-2.552,20.191l-21.466,5.366l2.175,20.379l3.191,6.286l13.335,14.885l21.473,0.004l-7.975,-3.988l-7.732,-1.501l-8.368,-14.766l0,-13.249l45.062,9.669l-28.962,35.947l-28.732,-1.734l-3.467,-3.633l-5.367,-13.416l-1.112,-5.923l-4.254,-7.494l4.254,-13.972l-9.621,11.289l-5.367,2.683l-10.733,2.493l-3.537,4.642l11.143,-3.331l8.112,-1.311l-4.985,16.123l-23.616,1.776l-24.683,3.758l-16.099,-4.443l-5.367,2.683l18.429,14.012l49.471,-14.002l7.232,1.75l16.1,13.416l-19.28,9.64l-20.333,-5.933l-41.536,-0.698l-15.449,13.091l7.196,1.768l33.511,-8.247l18.325,6.808l-18.325,9.292l-3.142,-1.571l-21.466,0l-21.466,5.367l-5.367,-13.417l1.862,-9.802l3.505,-6.307l0,-8.04l-2.251,-4.242l-10.843,0.055l-8.372,4.187l-5.367,8.049l3.607,1.804l4.537,-5.876l2.589,-1.294l5.367,0.923l-3.322,16.199l-39.611,-1.69l-29.256,-19.587l13.157,22.504l62.157,28.829l179.338,-55.228l0,-96.598l-81.962,-57.081l-189.432,80.08l20.237,60.718l20.395,20.931Z" style="fill:#625443;fill-opacity:0.5;"/></g></g></svg>