<?xml version="1.0" encoding="UTF-8" standalone="no"?><!DOCTYPE svg PUBLIC "-//W3C//DTD SVG 1.1//EN" "http://www.w3.org/Graphics/SVG/1.1/DTD/svg11.dtd"><svg width="100%" height="100%" viewBox="0 0 225 205" version="1.1" xmlns="http://www.w3.org/2000/svg" xmlns:xlink="http://www.w3.org/1999/xlink" xml:space="preserve" xmlns:serif="http://www.serif.com/" style="fill-rule:evenodd;clip-rule:evenodd;stroke-linejoin:round;stroke-miterlimit:1.41421;"><g id="Dirt_Block24"><g><path d="M218.846,54.032c1.031,18.527 0.799,37.152 -1.661,54.496c-2.111,14.887 5.627,26.642 7.028,39.419l-112.698,56.349c-5.309,-36.303 -5.986,-69.025 0,-96.598l107.331,-53.666Z" style="fill:#b3a890;"/><path d="M208.113,102.331l6.94,8.837l-1.573,15.313l-5.367,8.05l-7.424,-3.713l-3.309,-7.02l0,-10.734l10.733,-10.733" style="fill:#ccc3b0;"/><path d="M196.858,83.071l9.359,6.053l-1.526,6.13l-5.366,2.683l-3.943,-1.971l-4.189,-4.696l0.428,-5.581l5.237,-2.618Z" style="fill:#ccc3b0;"/><path d="M165.181,104.758l5.366,-5.11l10.733,1.512l1.945,4.827l1.1,8.238l-11.034,10.884l-2.744,-5.39l-5.366,-1.288l-2.362,-10.291l2.362,-3.382" style="fill:#ccc3b0;"/><path d="M182.754,131.11l-6.84,5.652l2.278,12.729l8.455,2.99l7.519,1.909l3.214,-3.76l3.402,1.701l5.435,-0.752l1.896,-4.211l-5.366,-4.788l-4.042,-3.345l-7.512,-5.176l-8.439,-2.949Z" style="fill:#ccc3b0;"/><path d="M146.226,122.542l-7.878,3.939l-5.367,10.281l2.452,9.727l19.015,4.141l6.893,-7.286l1.478,-7.632l-5.86,-7.803l-10.733,-5.367Z" style="fill:#ccc3b0;"/><path d="M122.248,157.594l-8.709,10.148l1.338,6.035l7.371,19.786c0,0 8.248,-5.443 10.733,-5.367c2.486,0.077 7.943,-3.971 7.943,-3.971l-2.576,-9.445l-8.208,-6.63l-7.892,-10.556Z" style="fill:#ccc3b0;"/><path d="M170.547,155.889l-10.733,1.2l-10.733,6.958l1.544,7.735l4.409,5.974l7.785,-1.474l5.306,-5.071l4.047,-6.352l-1.625,-8.97" style="fill:#ccc3b0;"/><path d="M113.539,124.809l8.709,6.931l10.733,-4.854l5.367,-14.553l-14.73,-3.95l-6.736,5.465l-3.343,10.961" style="fill:#ccc3b0;"/><path d="M126.273,160.494l-8.372,9.701l1.286,5.77l7.086,18.915c0,0 7.927,-5.204 10.317,-5.131c2.389,0.073 7.634,-3.796 7.634,-3.796l-2.476,-9.03l-7.889,-6.337l-7.586,-10.092Zm46.426,-1.629l-10.317,1.146l-10.317,6.652l1.484,7.395l4.238,5.711l7.483,-1.409l5.101,-4.849l3.89,-6.072l-1.562,-8.574Zm11.734,-23.688l-6.575,5.403l2.189,12.168l8.128,2.858l7.227,1.825l3.09,-3.594l3.27,1.626l5.224,-0.719l1.823,-4.026l-5.159,-4.576l-3.885,-3.199l-7.221,-4.947l-8.111,-2.819Zm-35.113,-8.192l-7.572,3.766l-5.158,9.829l2.356,9.299l18.278,3.958l6.625,-6.966l1.421,-7.296l-5.633,-7.459l-10.317,-5.131Zm59.489,-19.321l6.671,8.448l-1.513,14.639l-5.158,7.695l-7.137,-3.549l-3.18,-6.711l0,-10.261l10.317,-10.261Zm-90.908,21.489l3.213,-10.479l6.475,-5.225l14.159,3.777l-5.158,13.912l-10.317,4.64l-8.372,-6.625Zm49.64,-19.169l5.158,-4.885l10.317,1.445l1.869,4.615l1.058,7.876l-10.606,10.404l-2.638,-5.153l-5.158,-1.231l-2.271,-9.838l2.271,-3.233Zm30.449,-20.732l8.996,5.787l-1.467,5.859l-5.158,2.565l-3.79,-1.884l-4.027,-4.489l0.412,-5.335l5.034,-2.503Z" style="fill:#7e7260;fill-opacity:0.5;"/></g><path d="M4.184,54.032c38.92,12.072 76.396,26.815 107.331,53.666c-4.017,24.212 -3.764,56.915 0,96.598l-110.055,-55.028c-2.138,-27.584 1.612,-60.637 2.724,-95.236" style="fill:#7e7260;"/><clipPath id="_clip1"><path d="M4.184,54.032c38.92,12.072 76.396,26.815 107.331,53.666c-4.017,24.212 -3.764,56.915 0,96.598l-110.055,-55.028c-2.138,-27.584 1.612,-60.637 2.724,-95.236"/></clipPath><g clip-path="url(#_clip1)"><path d="M94.045,174.095l11.735,-4.08l-0.236,-16.221l-6.989,-11.581l-11.748,-1.32l-5.988,4.726l-1.503,10.627l14.729,17.849" style="fill:#7e7260;"/><path d="M89.723,190.442l17.273,-3.67l-1.819,-6.448l-9.042,-3.989l-7.196,0.973l-8.01,3.609l-0.029,5.633l8.823,3.892Z" style="fill:#7e7260;"/><path d="M52.782,166.115l4.778,5.837l11.198,0.057l2.666,-4.498l2.281,-7.998l-9.77,-12.374l-3.564,4.94l-5.674,0.498l-3.859,9.847l1.944,3.691" style="fill:#7e7260;"/><path d="M77.872,140.248l-6.21,-6.587l4.114,-12.274l9.074,-1.735l7.963,-0.802l2.764,4.188l3.72,-1.192l5.458,1.533l1.351,4.444l-6.164,3.963l-4.606,2.727l-8.414,4.037l-9.05,1.698Z" style="fill:#7e7260;"/><path d="M38.722,151.192l-4.295,-4.585l-1.861,-10.648l2.87,-9.417l12.278,-2.446l3.22,7.815l-0.16,7.685l-4.698,7.217l-7.354,4.379Z" style="fill:#7e7260;"/><path d="M19.648,105.264l-7.494,-11.309l2.215,-5.782l10.317,-18.523c0,0 7.679,6.583 10.235,6.868c2.555,0.284 7.573,5.082 7.573,5.082l-3.959,8.979l-9.33,5.375l-9.557,9.31Z" style="fill:#7e7260;"/><path d="M64.937,119.307l-10.818,-2.741l-10.012,-8.444l2.664,-7.436l5.35,-5.277l7.761,2.587l4.722,5.79l3.252,6.875l-2.919,8.646" style="fill:#7e7260;"/><path d="M8.174,125.221l8.581,-9.592l7.678,8.654l1.217,22.864l-12.832,4.344l-4.296,-9.129l-0.348,-17.141" style="fill:#7e7260;"/><path d="M85.734,190.886l17.273,-3.671l-1.819,-6.447l-9.043,-3.99l-7.196,0.973l-8.01,3.61l-0.029,5.632l8.824,3.893Zm4.321,-16.348l-14.729,-17.849l1.503,-10.627l5.988,-4.725l11.749,1.319l6.989,11.582l0.235,16.22l-11.735,4.08Zm-41.263,-7.98l-1.944,-3.69l3.86,-9.848l5.673,-0.498l3.564,-4.939l9.77,12.374l-2.281,7.998l-2.666,4.497l-11.198,-0.057l-4.778,-5.837Zm-44.608,-40.893l8.581,-9.593l7.678,8.655l1.217,22.863l-12.832,4.345l-4.296,-9.13l-0.348,-17.14Zm30.548,25.971l-4.295,-4.586l-1.861,-10.647l2.87,-9.418l12.278,-2.445l3.22,7.815l-0.16,7.685l-4.698,7.216l-7.354,4.38Zm39.15,-10.945l-6.21,-6.587l4.114,-12.273l9.074,-1.736l7.963,-0.801l2.764,4.187l3.72,-1.191l5.458,1.532l1.351,4.444l-6.164,3.963l-4.606,2.727l-8.414,4.037l-9.05,1.698Zm-12.935,-20.941l-10.818,-2.741l-10.012,-8.444l2.664,-7.435l5.35,-5.277l7.761,2.587l4.722,5.79l3.252,6.875l-2.919,8.645Zm-45.289,-14.042l-7.494,-11.309l2.215,-5.783l10.317,-18.523c0,0 7.679,6.584 10.235,6.868c2.555,0.284 7.573,5.082 7.573,5.082l-3.959,8.979l-9.33,5.376l-9.557,9.31Z" style="fill-opacity:0.3;"/></g><path d="M218.846,54.032c-32.77,21.875 -68.559,39.748 -107.331,53.666c-22.95,-14.462 -47.332,-26.8 -72.319,-38.238c-11.568,-5.295 -23.266,-10.397 -35.012,-15.428c16.318,-8.218 32.28,-16.878 46.329,-30.312c14.337,-13.709 36.89,-17.886 61.002,-23.353c29.603,9.023 53.792,22.201 75.132,37.566l32.199,16.099Z" style="fill:#9f937d;"/><clipPath id="_clip2"><path d="M218.846,54.032c-32.77,21.875 -68.559,39.748 -107.331,53.666c-22.95,-14.462 -47.332,-26.8 -72.319,-38.238c-11.568,-5.295 -23.266,-10.397 -35.012,-15.428c16.318,-8.218 32.28,-16.878 46.329,-30.312c14.337,-13.709 36.89,-17.886 61.002,-23.353c29.603,9.023 53.792,22.201 75.132,37.566l32.199,16.099Z"/></clipPath><g clip-path="url(#_clip2)"><path d="M-7.844,86.922c0,0 25.752,-7.572 44.227,-16.79c10.717,-5.347 10.436,-12.284 12.301,-17.627c6.806,-19.49 22.136,-14.676 56.519,-21.331c14.621,-2.829 30.458,-10.551 38.511,-14.708c16.652,-8.595 35.775,-8.946 35.775,-8.946l-153.847,-33.017l-67.965,77.834l34.479,34.585Z" style="fill:#b3a890;"/><path d="M186.647,37.933c-1.62,2.349 -41.14,4.124 -39.943,23.447c0.693,11.185 -13.275,6.448 -46.624,17.141c-3.266,1.047 -10.017,7.712 -20.764,13.077c-26.494,13.227 -64.207,12.397 -64.207,12.397l153.225,35.79l73.087,-90.565l-54.774,-11.287Z" style="fill:#b3a890;"/></g></g></svg>