<?xml version="1.0" encoding="UTF-8" standalone="no"?><!DOCTYPE svg PUBLIC "-//W3C//DTD SVG 1.1//EN" "http://www.w3.org/Graphics/SVG/1.1/DTD/svg11.dtd"><svg width="100%" height="100%" viewBox="0 0 217 204" version="1.1" xmlns="http://www.w3.org/2000/svg" xmlns:xlink="http://www.w3.org/1999/xlink" xml:space="preserve" xmlns:serif="http://www.serif.com/" style="fill-rule:evenodd;clip-rule:evenodd;stroke-linejoin:round;stroke-miterlimit:1.41421;"><g id="Sand_Block02"><path d="M216.242,53.695c-1.685,33.637 -2.236,66.306 0,96.598l-107.331,53.665l0,-96.598l107.331,-53.665Z" style="fill:#ccc3b0;"/><clipPath id="_clip1"><path d="M216.242,53.695c-1.685,33.637 -2.236,66.306 0,96.598l-107.331,53.665l0,-96.598l107.331,-53.665Z"/></clipPath><g clip-path="url(#_clip1)"><path d="M216.242,128.827c0,0 -32.024,3.078 -45.851,22.925c-13.827,19.847 -36.003,29.26 -61.48,30.74c-25.478,1.48 -65.46,-69.042 -107.331,-53.665c-41.872,15.376 -13.212,68.526 -13.212,68.526l160.009,19.072l73.232,-47.349l-5.367,-40.249Z" style="fill:#b3a890;"/><path d="M76.711,91.261c0,0 -17.171,21.009 0,32.199c4.279,2.788 6.393,15.197 10.734,17.667c1.926,1.097 10.592,3.944 21.466,-1.567c15.945,-8.082 27.71,-29.304 55.811,-38.639c28.102,-9.336 39.941,-9.265 51.52,-15.027l0,-32.199c-34.289,20.705 -70.138,38.458 -107.331,53.665c-8.878,-8.137 -19.564,-13.575 -32.2,-16.099l171.73,-5.367" style="fill:#a69a80;fill-opacity:0.5;"/></g><path d="M1.58,53.695l16.868,5.37c36.323,15.282 77.234,29.958 90.463,48.295c2.537,31.673 3.096,63.756 0,96.598l-107.331,-53.665c-1.063,-30.951 -0.804,-63.455 0,-96.598" style="fill:#b3a890;"/><clipPath id="_clip2"><path d="M1.58,53.695l16.868,5.37c36.323,15.282 77.234,29.958 90.463,48.295c2.537,31.673 3.096,63.756 0,96.598l-107.331,-53.665c-1.063,-30.951 -0.804,-63.455 0,-96.598"/></clipPath><g clip-path="url(#_clip2)"><path d="M1.58,85.894c0,0 13.724,-6.881 32.199,-16.1c10.716,-5.347 10.435,-12.284 12.301,-17.627c6.806,-19.49 22.136,-14.676 56.519,-21.33c14.621,-2.83 30.458,-10.551 38.511,-14.708c16.652,-8.596 35.774,-8.946 35.774,-8.946l-153.846,-33.017l-67.966,77.833l46.508,33.895Z" style="fill:#a69a80;"/><path d="M216.242,128.827c0,0 -32.024,3.078 -45.851,22.925c-13.827,19.847 -36.003,29.26 -61.48,30.74c-25.478,1.48 -65.46,-69.042 -107.331,-53.665c-41.872,15.376 -13.212,68.526 -13.212,68.526l160.009,19.072l73.232,-47.349l-5.367,-40.249Z" style="fill:#a69a80;"/><path d="M76.711,91.261c0,0 -17.171,21.009 0,32.199c4.279,2.788 6.393,15.197 10.734,17.667c1.926,1.097 10.592,3.944 21.466,-1.567c15.945,-8.082 27.71,-29.304 55.811,-38.639c28.102,-9.336 39.941,-9.265 51.52,-15.027l0,-32.199c-34.289,20.705 -70.138,38.458 -107.331,53.665c-8.878,-8.137 -19.564,-13.575 -32.2,-16.099l171.73,-5.367" style="fill:#a69a80;"/></g><path d="M216.242,53.695c-33.532,20.22 -69.393,38.021 -107.331,53.665c-7.166,-5.681 -14.629,-12.234 -32.2,-16.099c-15.095,-3.321 -29.043,-12.855 -42.932,-21.467c-10.451,-7.085 -21.171,-12.527 -32.199,-16.099c18.797,-10.388 33.343,-14.945 59.324,-33.687c12.443,-8.976 29.281,-13.484 48.007,-19.979c10.881,3.901 21.668,8.727 32.199,16.1c12.271,8.76 27.091,15.515 42.933,21.466c13.649,4.539 23.618,10.123 32.199,16.1Z" style="fill:#9f937d;"/><clipPath id="_clip3"><path d="M216.242,53.695c-33.532,20.22 -69.393,38.021 -107.331,53.665c-7.166,-5.681 -14.629,-12.234 -32.2,-16.099c-15.095,-3.321 -29.043,-12.855 -42.932,-21.467c-10.451,-7.085 -21.171,-12.527 -32.199,-16.099c18.797,-10.388 33.343,-14.945 59.324,-33.687c12.443,-8.976 29.281,-13.484 48.007,-19.979c10.881,3.901 21.668,8.727 32.199,16.1c12.271,8.76 27.091,15.515 42.933,21.466c13.649,4.539 23.618,10.123 32.199,16.1Z"/></clipPath><g clip-path="url(#_clip3)"><path d="M-10.449,86.584c0,0 25.753,-7.571 44.228,-16.79c10.716,-5.347 10.435,-12.284 12.301,-17.627c6.806,-19.49 22.136,-14.676 56.519,-21.33c14.621,-2.83 30.458,-10.551 38.511,-14.708c16.652,-8.596 35.774,-8.946 35.774,-8.946l-153.846,-33.017l-67.966,77.833l34.479,34.585Z" style="fill:#b3a890;"/><path d="M184.043,37.595c-1.62,2.35 -41.14,4.125 -39.943,23.447c0.692,11.186 -13.275,6.448 -46.624,17.141c-3.267,1.047 -10.018,7.712 -20.765,13.078c-26.493,13.227 -64.206,12.397 -64.206,12.397l153.225,35.789l73.087,-90.564l-54.774,-11.288Z" style="fill:#b3a890;"/></g></g></svg>