<?xml version="1.0" encoding="UTF-8" standalone="no"?><!DOCTYPE svg PUBLIC "-//W3C//DTD SVG 1.1//EN" "http://www.w3.org/Graphics/SVG/1.1/DTD/svg11.dtd"><svg width="100%" height="100%" viewBox="0 0 216 205" version="1.1" xmlns="http://www.w3.org/2000/svg" xmlns:xlink="http://www.w3.org/1999/xlink" xml:space="preserve" xmlns:serif="http://www.serif.com/" style="fill-rule:evenodd;clip-rule:evenodd;stroke-linejoin:round;stroke-miterlimit:1.41421;"><g id="Stone_Block05"><g><path d="M215.326,54.244l0,96.598l-21.466,10.733l-5.367,-8.05l-5.366,13.417l-16.033,8.016l-5.434,-8.016l-5.366,13.416l-16.1,8.05l-5.367,-8.05l-5.366,13.416l-21.466,10.733l0,-96.598l29.284,-14.642l78.047,-39.023Z" style="fill:#6e6861;"/><path d="M0.663,54.244l75.132,15.456l32.2,38.209l0,96.598l-107.332,-53.665l0,-96.598" style="fill:#413528;"/></g><path d="M215.326,54.176l-21.466,-10.733l-5.367,2.683l-5.366,-2.683l0,-5.367l-16.033,-8.016l-5.4,2.667l-5.4,-2.7l0,-5.367l-16.1,-7.982l-5.367,2.615l-5.366,-2.683l0,-5.299l-21.466,-10.801l-21.467,10.734l0,10.8l-10.733,-5.366l-16.099,7.982l0,10.801l-10.734,-5.367l-16.099,7.982l0,10.801l-10.733,-5.366l-21.467,10.665l21.467,10.733l-0.068,5.401l10.733,5.366l0.068,-5.4c6.169,2.894 9.891,5.159 16.099,8.05l0,5.366l10.666,5.401l0.068,-5.401l16.099,8.05l0,5.367l10.733,5.366l0,-5.366l21.467,10.733l-0.034,0.017l21.5,-10.683l5.366,8.05l5.367,-8.117l0,-5.299l16.1,-8.05l5.366,8.05l5.367,-13.417l16.1,-8.05l5.366,8.05l5.367,-13.416l21.466,-10.801Z" style="fill:#5d5348;"/><clipPath id="_clip1"><path d="M215.326,54.176l-21.466,-10.733l-5.367,2.683l-5.366,-2.683l0,-5.367l-16.033,-8.016l-5.4,2.667l-5.4,-2.7l0,-5.367l-16.1,-7.982l-5.367,2.615l-5.366,-2.683l0,-5.299l-21.466,-10.801l-21.467,10.734l0,10.8l-10.733,-5.366l-16.099,7.982l0,10.801l-10.734,-5.367l-16.099,7.982l0,10.801l-10.733,-5.366l-21.467,10.665l21.467,10.733l-0.068,5.401l10.733,5.366l0.068,-5.4c6.169,2.894 9.891,5.159 16.099,8.05l0,5.366l10.666,5.401l0.068,-5.401l16.099,8.05l0,5.367l10.733,5.366l0,-5.366l21.467,10.733l-0.034,0.017l21.5,-10.683l5.366,8.05l5.367,-8.117l0,-5.299l16.1,-8.05l5.366,8.05l5.367,-13.417l16.1,-8.05l5.366,8.05l5.367,-13.416l21.466,-10.801Z"/></clipPath><g clip-path="url(#_clip1)"><path d="M193.86,64.977l-21.467,-10.801l21.467,-10.733l-10.733,0l0,-5.367l-21.467,10.734l-16.099,-7.983l21.466,-10.733l-5.299,2.65l-5.434,-2.717l0,-5.367l-21.467,10.733l-16.099,-8.05l21.466,-10.733l-10.733,0l0,-5.366l-21.466,10.733l-21.467,-10.666l0,10.733l10.733,5.299l-16.099,8.05l-21.466,-10.733l0,10.733l-10.734,-5.366l21.467,10.733l-16.1,8.05l-21.466,-10.734l0,10.734l10.733,5.366l-21.466,10.733l-0.068,5.401l10.801,5.332l0,-5.366l21.466,-10.733l16.1,8.049l-21.467,10.734l-0.067,5.4l10.801,5.333l0.033,-5.35l21.467,-10.733l16.065,8.033l-21.466,10.733l-0.067,5.4l10.8,5.401l0,-5.434l21.467,-10.734l21.466,10.734l5.366,8.049l5.367,-8.049l0,-5.367l-21.466,-10.733l16.099,-8.05l21.467,10.733l5.366,8.05l5.367,-13.416l-21.466,-10.734l16.099,-8.049l21.467,10.8l5.366,8.05l5.367,-13.416Z" style="fill:#322818;"/><path d="M107.995,32.71l-16.1,8.05l16.066,8.066l16.133,-8.066l-16.099,-8.05Z" style="fill:#5d5348;"/><path d="M134.827,46.092l-16.099,8.05l16.066,8.067l16.133,-8.067l-16.1,-8.05Z" style="fill:#5d5348;"/><path d="M81.128,46.143l-16.1,8.05l16.066,8.067l16.134,-8.067l-16.1,-8.05Z" style="fill:#5d5348;"/><path d="M107.961,59.526l-16.1,8.05l16.066,8.066l16.133,-8.066l-16.099,-8.05Z" style="fill:#5d5348;"/></g><g><path d="M156.294,24.66l0,5.367l-21.467,10.733l0,-5.367l21.467,-10.733Z" style="fill:#6e6861;"/><path d="M118.694,27.326l0,5.367l16.133,8.067l0,-5.367l-16.133,-8.067Z" style="fill:#413528;"/><path d="M86.528,11.244l0,5.332l21.467,10.903l0.067,-5.468l-21.534,-10.767Z" style="fill:#413528;"/><path d="M59.865,24.575l0,5.367l21.466,10.902l0.068,-5.468l-21.534,-10.801Z" style="fill:#413528;"/><path d="M32.863,38.076l0,5.367l21.297,10.818l0.169,-5.451l-21.466,-10.734Z" style="fill:#413528;"/><path d="M118.728,81.009l0,5.197l21.466,10.903l0,-5.536l-21.466,-10.564Z" style="fill:#413528;"/><path d="M145.561,67.592l0,5.198l21.466,10.902l0,-5.366l-21.466,-10.734Z" style="fill:#413528;"/><path d="M172.393,54.176l0,5.198l21.467,10.902l0,-5.367l-21.467,-10.733Z" style="fill:#413528;"/><path d="M183.127,38.11l0,5.367l-21.467,10.733l0,-5.367l21.467,-10.733Z" style="fill:#6e6861;"/><path d="M97.194,81.043l0,5.366l-21.466,10.733l0,-5.366l21.466,-10.733Z" style="fill:#6e6861;"/><path d="M70.361,67.626l0,5.367l-21.466,10.733l0,-5.367l21.466,-10.733Z" style="fill:#6e6861;"/><path d="M43.596,54.244l0,5.366l-21.466,10.733l0,-5.366l21.466,-10.733Z" style="fill:#6e6861;"/><path d="M129.393,11.345l0,5.367l-21.466,10.733l0,-5.367l21.466,-10.733Z" style="fill:#6e6861;"/><path d="M145.527,40.777l0,5.366l16.133,8.067l0,-5.367l-16.133,-8.066Z" style="fill:#413528;"/><path d="M124.094,40.76l-0.034,5.349l-16.099,8.05l0,-5.366l16.133,-8.033Z" style="fill:#6e6861;"/><path d="M91.861,40.777l0.034,5.349l16.066,8.067l0.034,-5.35l-16.134,-8.066Z" style="fill:#413528;"/><path d="M97.228,54.159l-0.034,5.35l-16.1,8.05l0,-5.367l16.134,-8.033Z" style="fill:#6e6861;"/><path d="M70.429,40.929l-0.034,5.349l-16.1,8.05l0,-5.366l16.134,-8.033Z" style="fill:#6e6861;"/><path d="M97.431,27.428l-0.034,5.349l-16.1,8.05l0,-5.366l16.134,-8.033Z" style="fill:#6e6861;"/><path d="M64.994,54.176l0.034,5.35l16.066,8.066l0.034,-5.349l-16.134,-8.067Z" style="fill:#413528;"/><path d="M150.927,54.142l-0.034,5.35l-16.099,8.05l0,-5.367l16.133,-8.033Z" style="fill:#6e6861;"/><path d="M118.694,54.159l0.034,5.35l16.066,8.067l0.033,-5.35l-16.133,-8.067Z" style="fill:#413528;"/><path d="M124.06,67.576l-0.033,5.349l-16.1,8.05l0,-5.366l16.133,-8.033Z" style="fill:#6e6861;"/><path d="M91.827,67.592l0.034,5.35l16.066,8.067l0.034,-5.35l-16.134,-8.067Z" style="fill:#413528;"/></g><g><path d="M48.962,178.157l10.734,7.568l14.122,3.672l5.209,-4.732l-3.045,-10.188l-19.233,-3.158l-7.787,6.838Z" style="fill:#857c6c;"/><path d="M88.691,169.446l8.069,-11.367l-1.707,-6.333l-8.574,-20.565c0,0 -7.897,6.331 -10.383,6.413c-2.486,0.081 -7.683,4.745 -7.683,4.745l3.152,9.88l8.6,6.514l8.526,10.713Z" style="fill:#857c6c;"/><path d="M40.356,166.779l10.639,-1.979l10.285,-8.106l-2.017,-8.128l-4.768,-6.067l-7.679,2.079l-4.985,5.743l-3.648,7.023l2.173,9.435" style="fill:#857c6c;"/><path d="M106.355,184.024l-9.094,-6.349l-10.432,5.55l-4.516,14.885l14.93,2.979l6.408,-5.899l2.704,-11.166" style="fill:#857c6c;"/><path d="M11.522,134.486l-7.47,-8.946l0.628,-16.393l4.862,-8.916l7.638,3.462l3.735,7.253l0.66,11.418l-10.053,12.122" style="fill:#857c6c;"/><path d="M23.941,154.239l-9.713,-5.827l1.145,-6.621l5.192,-3.206l4.056,1.839l4.47,4.721l-0.084,5.965l-5.066,3.129Z" style="fill:#857c6c;"/><path d="M47.673,133.233l-5.042,5.788l-10.806,-0.905l-2.238,-5.007l-1.605,-8.693l10.344,-12.301l3.07,5.554l5.436,1.018l2.991,10.793l-2.15,3.753" style="fill:#857c6c;"/><path d="M17.371,96.627l9.013,-1.578l5.176,-12.725l-5.559,-7.096l-5.363,-5.63l-4.853,1.742l-1.958,-3.307l-5.069,-2.136l-3.979,2.836l1.911,7.124l1.585,5.13l3.529,8.589l5.567,7.051Z" style="fill:#857c6c;"/><path d="M58.084,115.195l7.621,-4.707l4.724,-11.29l-3.045,-10.188l-19.234,-3.158l-6.432,8.204l-1.006,8.216l6.329,7.917l11.043,5.006Z" style="fill:#857c6c;"/><path d="M97.261,107.845l-9.119,-6.802l-10.414,5.868l-4.461,15.834l14.945,3.237l6.387,-6.256l2.662,-11.881" style="fill:#857c6c;"/><path d="M102.628,185.026l-2.704,11.165l-6.408,5.9l-14.93,-2.979l4.516,-14.885l10.433,-5.551l9.093,6.35Zm-49.606,-12.705l-4.06,5.183l10.734,8.221l12.415,4.525l3.19,-4.584l-3.045,-10.187l-9.927,-1.63l-9.307,-1.528Zm31.943,-1.873l8.068,-11.367l-1.706,-6.333l-8.575,-20.565c0,0 -7.897,6.331 -10.383,6.413c-2.485,0.081 -7.683,4.745 -7.683,4.745l3.152,9.879l8.6,6.515l8.527,10.713Zm-48.336,-2.667l10.639,-1.979l10.285,-8.106l-2.016,-8.128l-4.769,-6.067l-7.679,2.079l-4.985,5.743l-3.648,7.023l2.173,9.435Zm-16.415,-12.54l-9.713,-5.827l1.146,-6.621l5.191,-3.206l4.056,1.838l4.471,4.721l-0.085,5.966l-5.066,3.129Zm23.732,-21.006l-5.042,5.788l-10.805,-0.905l-2.238,-5.008l-1.605,-8.692l10.343,-12.302l3.071,5.555l5.435,1.018l2.991,10.793l-2.15,3.753Zm-36.15,1.253l-7.471,-8.946l0.629,-16.394l4.861,-8.915l7.639,3.462l3.734,7.253l0.66,11.418l-10.052,12.122Zm85.739,-26.641l-2.662,11.88l-6.388,6.256l-14.945,-3.236l4.461,-15.835l10.415,-5.867l9.119,6.802Zm-39.177,7.349l7.62,-4.706l4.724,-11.29l-3.045,-10.188l-19.234,-3.158l-6.431,8.204l-1.006,8.216l6.329,7.917l11.043,5.005Zm-40.714,-18.567l9.014,-1.578l5.175,-12.725l-5.559,-7.096l-5.363,-5.631l-4.853,1.743l-1.957,-3.307l-5.07,-2.136l-3.979,2.835l1.911,7.125l1.585,5.13l3.529,8.589l5.567,7.051Z" style="fill:#202316;fill-opacity:0.6;"/></g><g><path d="M128.043,191.239l5.813,-5.233l-2.709,-10.81l-7.715,-2.102l-6.82,-1.226l-2.673,3.406l-3.131,-1.273l-4.817,0.945l-1.472,3.723l5.05,3.817l3.789,2.651l6.987,4.033l7.698,2.069Z" style="fill:#797263;"/><path d="M187.299,164.907l14.889,-6.555l-8.575,-19.294c0,0 -7.897,5.94 -10.383,6.016c-2.485,0.077 -7.683,4.452 -7.683,4.452l3.152,9.269l8.6,6.112Z" style="fill:#797263;"/><path d="M147.723,179.631l10.639,-1.857l10.285,-7.606l-2.017,-7.625l-4.768,-5.692l-7.68,1.95l-4.984,5.388l-3.648,6.589l2.173,8.853" style="fill:#797263;"/><path d="M118.889,149.333l-7.47,-8.393l0.628,-15.381l4.862,-8.364l7.638,3.248l3.735,6.804l0.66,10.713l-10.053,11.373" style="fill:#797263;"/><path d="M131.308,167.865l-9.714,-5.467l1.146,-6.211l5.192,-3.008l4.056,1.725l4.47,4.429l-0.085,5.597l-5.065,2.935Z" style="fill:#797263;"/><path d="M161.591,144.27l-5.042,5.431l-10.806,-0.849l-2.237,-4.698l-1.606,-8.156l10.344,-11.541l3.07,5.211l5.436,0.955l2.991,10.126l-2.15,3.521" style="fill:#797263;"/><path d="M147.411,121.25l6.479,-6.062l-3.056,-12.565l-8.623,-2.464l-7.623,-1.443l-2.976,3.951l-3.5,-1.489l-5.379,1.086l-1.633,4.319l5.65,4.448l4.241,3.091l7.816,4.704l8.604,2.424Z" style="fill:#797263;"/><path d="M176.149,132.865l7.62,-4.416l4.724,-10.593l-3.045,-9.558l-19.234,-2.963l-6.431,7.697l-1.006,7.708l6.329,7.428l11.043,4.697Z" style="fill:#797263;"/><path d="M203.833,98.721l8.069,-10.665l-1.707,-5.941l-8.574,-19.295c0,0 -7.897,5.94 -10.383,6.017c-2.486,0.076 -7.683,4.452 -7.683,4.452l3.152,9.269l8.6,6.112l8.526,10.051Z" style="fill:#797263;"/><path d="M156.836,102.812l10.639,-1.857l10.285,-7.605l-2.017,-7.626l-4.768,-5.692l-7.679,1.951l-4.985,5.388l-3.648,6.588l2.173,8.853" style="fill:#797263;"/><path d="M211.902,121.08l-9.119,-6.382l-10.415,5.505l-4.461,14.856l14.945,3.037l6.388,-5.87l2.662,-11.146" style="fill:#797263;"/><path d="M128.407,193.201l5.449,-6.991c-1.197,-4.704 -1.017,-3.262 -1.122,-4.806l-3.273,-4.533l-10.733,-2.278l-5.367,3.206l-7.006,0.696l4.971,7.443l11.504,5.785l5.577,1.478Zm17.783,-8.299l20.837,-12.293l-1.929,-4.795l-4.769,-5.692l-7.679,1.95l-4.985,5.388l-3.648,6.589l2.173,8.853Zm30.977,-20.836l5.96,2.876l17.04,-7.58l-8.086,-15.033c0,0 -7.897,5.94 -10.383,6.016c-2.486,0.077 -7.683,4.452 -7.683,4.452l3.152,9.269Zm-47.392,9.07l-9.713,-5.467l1.146,-6.211l5.191,-3.009l4.056,1.726l4.471,4.429l-0.085,5.597l-5.066,2.935Zm30.284,-23.595l-5.042,5.43l-10.806,-0.848l-2.238,-4.698l-1.605,-8.156l10.343,-11.541l3.071,5.211l5.436,0.955l2.99,10.126l-2.149,3.521Zm-42.702,5.063l-7.471,-8.393l0.629,-15.381l4.861,-8.364l7.639,3.248l3.734,6.804l0.66,10.713l-10.052,11.373Zm93.012,-28.253l-2.662,11.146l-6.387,5.87l-14.945,-3.037l4.461,-14.856l10.414,-5.505l9.119,6.382Zm-35.753,11.784l7.621,-4.415l4.724,-10.593l-3.046,-9.558l-19.233,-2.963l-6.432,7.697l-1.006,7.708l6.329,7.428l11.043,4.696Zm-28.738,-11.614l6.48,-6.062l-3.057,-12.565l-8.623,-2.464l-7.622,-1.443l-2.977,3.951l-3.5,-1.489l-5.378,1.086l-1.634,4.319l5.651,4.448l4.24,3.091l7.816,4.704l8.604,2.424Zm9.426,-18.438l10.639,-1.857l10.284,-7.605l-2.016,-7.626l-4.769,-5.692l-7.679,1.951l-4.985,5.388l-3.647,6.588l2.173,8.853Zm46.997,-4.091l8.068,-10.665l-1.706,-5.941l-8.575,-19.295c0,0 -7.897,5.94 -10.383,6.017c-2.485,0.076 -7.683,4.452 -7.683,4.452l3.152,9.269l8.6,6.112l8.527,10.051Z" style="fill:#202316;fill-opacity:0.2;"/></g></g></svg>