<?xml version="1.0" encoding="UTF-8" standalone="no"?><!DOCTYPE svg PUBLIC "-//W3C//DTD SVG 1.1//EN" "http://www.w3.org/Graphics/SVG/1.1/DTD/svg11.dtd"><svg width="100%" height="100%" viewBox="0 0 216 205" version="1.1" xmlns="http://www.w3.org/2000/svg" xmlns:xlink="http://www.w3.org/1999/xlink" xml:space="preserve" xmlns:serif="http://www.serif.com/" style="fill-rule:evenodd;clip-rule:evenodd;stroke-linejoin:round;stroke-miterlimit:1.41421;"><g id="Sand_Block01"><path d="M215.242,54.032l0,96.598l-107.331,53.666l0,-96.598l107.331,-53.666Z" style="fill:#b2a386;"/><clipPath id="_clip1"><path d="M215.242,54.032l0,96.598l-107.331,53.666l0,-96.598l107.331,-53.666Z"/></clipPath><g clip-path="url(#_clip1)"><path d="M215.242,129.164c0,0 -32.024,3.078 -45.851,22.926c-13.827,19.847 -36.003,29.26 -61.48,30.74c-25.478,1.48 -65.46,-69.042 -107.331,-53.666c-41.872,15.377 -13.212,68.526 -13.212,68.526l160.009,19.072l73.232,-47.349l-5.367,-40.249Z" style="fill:#bfac80;"/><path d="M75.711,91.598c0,0 -17.171,21.01 0,32.2c4.279,2.787 6.393,15.197 10.734,17.667c1.926,1.096 10.592,3.943 21.466,-1.568c15.945,-8.081 27.71,-29.303 55.811,-38.639c28.102,-9.335 39.941,-9.264 51.52,-15.026l0,-32.2l-107.331,53.666l-32.2,-16.1l171.73,-5.366" style="fill:#b39e70;fill-opacity:0.5;"/></g><path d="M0.58,54.032l107.331,53.666l0,96.598l-107.331,-53.666l0,-96.598" style="fill:#bfac80;"/><clipPath id="_clip2"><path d="M0.58,54.032l107.331,53.666l0,96.598l-107.331,-53.666l0,-96.598"/></clipPath><g clip-path="url(#_clip2)"><path d="M0.58,86.232c0,0 13.724,-6.882 32.199,-16.1c10.716,-5.347 10.435,-12.284 12.301,-17.627c6.806,-19.49 22.136,-14.676 56.519,-21.331c14.621,-2.829 30.458,-10.551 38.511,-14.708c16.652,-8.595 35.774,-8.946 35.774,-8.946l-153.846,-33.017l-67.966,77.834l46.508,33.895Z" style="fill:#b39e70;"/><path d="M215.242,129.164c0,0 -32.024,3.078 -45.851,22.926c-13.827,19.847 -36.003,29.26 -61.48,30.74c-25.478,1.48 -65.46,-69.042 -107.331,-53.666c-41.872,15.377 -13.212,68.526 -13.212,68.526l160.009,19.072l73.232,-47.349l-5.367,-40.249Z" style="fill:#b39e70;"/><path d="M75.711,91.598c0,0 -17.171,21.01 0,32.2c4.279,2.787 6.393,15.197 10.734,17.667c1.926,1.096 10.592,3.943 21.466,-1.568c15.945,-8.081 27.71,-29.303 55.811,-38.639c28.102,-9.335 39.941,-9.264 51.52,-15.026l0,-32.2l-107.331,53.666l-32.2,-16.1l171.73,-5.366" style="fill:#b39e70;"/></g><path d="M215.242,54.032l-107.331,53.666l-107.331,-53.666l107.331,-53.665l107.331,53.665Z" style="fill:#84775b;"/><clipPath id="_clip3"><path d="M215.242,54.032l-107.331,53.666l-107.331,-53.666l107.331,-53.665l107.331,53.665Z"/></clipPath><g clip-path="url(#_clip3)"><path d="M-11.449,86.922c0,0 25.753,-7.572 44.228,-16.79c10.716,-5.347 10.435,-12.284 12.301,-17.627c6.806,-19.49 22.136,-14.676 56.519,-21.331c14.621,-2.829 30.458,-10.551 38.511,-14.708c16.652,-8.595 35.774,-8.946 35.774,-8.946l-153.846,-33.017l-67.966,77.834l34.479,34.585Z" style="fill:#bfac80;"/><path d="M183.043,37.933c-1.62,2.349 -41.14,4.124 -39.943,23.447c0.692,11.185 -13.275,6.448 -46.624,17.141c-3.267,1.047 -10.018,7.712 -20.765,13.077c-26.493,13.227 -64.206,12.397 -64.206,12.397l153.225,35.79l73.087,-90.565l-54.774,-11.287Z" style="fill:#bfac80;"/><path d="M75.711,91.598c0,0 -17.171,21.01 0,32.2c4.279,2.787 6.393,15.197 10.734,17.667c1.926,1.096 10.592,3.943 21.466,-1.568c15.945,-8.081 27.71,-29.303 55.811,-38.639c28.102,-9.335 39.941,-9.264 51.52,-15.026l0,-32.2l-107.331,53.666l-32.2,-16.1l171.73,-5.366" style="fill:#b39e70;"/></g></g></svg>