<?xml version="1.0" encoding="UTF-8" standalone="no"?><!DOCTYPE svg PUBLIC "-//W3C//DTD SVG 1.1//EN" "http://www.w3.org/Graphics/SVG/1.1/DTD/svg11.dtd"><svg width="100%" height="100%" viewBox="0 0 216 205" version="1.1" xmlns="http://www.w3.org/2000/svg" xmlns:xlink="http://www.w3.org/1999/xlink" xml:space="preserve" xmlns:serif="http://www.serif.com/" style="fill-rule:evenodd;clip-rule:evenodd;stroke-linejoin:round;stroke-miterlimit:1.41421;"><g id="Grass_Block11"><g id="Grass_Block09"><g id="Grass_Block091" serif:id="Grass_Block09"><g><path d="M215.412,54.114l0,96.599l-107.331,53.665l0,-96.598l107.331,-53.666Z" style="fill:#a88643;"/><clipPath id="_clip1"><path d="M215.412,54.114l0,96.599l-107.331,53.665l0,-96.598l107.331,-53.666Z"/></clipPath><g clip-path="url(#_clip1)"><path d="M113.609,235.269l-7.471,-8.393l0.629,-15.381l4.861,-8.364l7.639,3.248l3.734,6.804l0.66,10.713l-10.052,11.373" style="fill:#c7a664;"/><path d="M129.451,258.418l-9.713,-5.527l1.146,-6.28l5.191,-3.041l4.056,1.744l4.471,4.478l-0.085,5.658l-5.066,2.968Zm30.283,-23.855l-5.042,5.49l-10.805,-0.858l-2.238,-4.75l-1.605,-8.245l10.343,-11.669l3.071,5.269l5.435,0.966l2.991,10.237l-2.15,3.56Zm-42.701,5.119l-7.471,-8.486l0.629,-15.55l4.861,-8.457l7.639,3.285l3.734,6.879l0.66,10.83l-10.052,11.499Zm93.012,-28.565l-2.662,11.269l-6.387,5.935l-14.945,-3.071l4.461,-15.019l10.414,-5.566l9.119,6.452Zm-32.485,4.321l7.62,-4.464l4.724,-10.709l-3.045,-9.664l-19.233,-2.996l-6.432,7.782l-1.006,7.794l6.329,7.509l11.043,4.748Zm-36.987,-6.374l6.48,-6.129l-3.057,-12.704l-8.623,-2.49l-7.622,-1.459l-2.977,3.993l-3.5,-1.504l-5.378,1.097l-1.634,4.367l5.651,4.497l4.24,3.125l7.816,4.756l8.604,2.451Zm10.66,-25.764l10.639,-1.878l10.285,-7.689l-2.017,-7.71l-4.768,-5.754l-7.68,1.972l-4.984,5.447l-3.648,6.662l2.173,8.95Zm48.103,-4.724l8.068,-10.782l-1.706,-6.007l-8.575,-19.507c0,0 -7.897,6.005 -10.383,6.082c-2.485,0.078 -7.683,4.502 -7.683,4.502l3.152,9.371l8.6,6.179l8.527,10.162Zm-64.518,-7.172l-9.714,-5.526l1.146,-6.28l5.191,-3.042l4.057,1.744l4.47,4.478l-0.085,5.659l-5.065,2.967Zm30.283,-23.854l-5.042,5.49l-10.806,-0.858l-2.238,-4.75l-1.605,-8.245l10.344,-11.669l3.07,5.268l5.436,0.966l2.991,10.238l-2.15,3.56Zm-42.702,5.118l-7.471,-8.485l0.629,-15.55l4.861,-8.457l7.639,3.284l3.734,6.879l0.661,10.831l-10.053,11.498Zm93.013,-28.564l-2.663,11.269l-6.387,5.934l-14.945,-3.07l4.461,-15.02l10.415,-5.565l9.119,6.452Zm-32.486,4.321l7.621,-4.465l4.724,-10.709l-3.045,-9.663l-19.234,-2.996l-6.432,7.782l-1.005,7.793l6.328,7.51l11.043,4.748Zm-36.986,-6.375l6.48,-6.129l-3.057,-12.703l-8.623,-2.491l-7.622,-1.459l-2.977,3.994l-3.5,-1.505l-5.378,1.098l-1.634,4.367l5.651,4.497l4.24,3.125l7.816,4.755l8.604,2.451Zm10.659,-25.764l10.639,-1.877l10.285,-7.689l-2.016,-7.71l-4.769,-5.755l-7.679,1.972l-4.985,5.448l-3.648,6.661l2.173,8.95Zm48.103,-4.723l8.069,-10.783l-1.707,-6.007l-8.574,-19.507c0,0 -7.897,6.006 -10.383,6.083c-2.486,0.077 -7.683,4.501 -7.683,4.501l3.152,9.371l8.6,6.18l8.526,10.162Z" style="fill:#a37841;fill-opacity:0.7;"/><path d="M137.149,204.984l6.48,-6.062l-3.057,-12.564l-8.623,-2.464l-7.622,-1.443l-2.977,3.95l-3.5,-1.488l-5.378,1.085l-1.634,4.32l5.651,4.448l4.24,3.09l7.817,4.704l8.603,2.424Z" style="fill:#c7a664;"/><clipPath id="_clip2"><path d="M137.149,204.984l6.48,-6.062l-3.057,-12.564l-8.623,-2.464l-7.622,-1.443l-2.977,3.95l-3.5,-1.488l-5.378,1.085l-1.634,4.32l5.651,4.448l4.24,3.09l7.817,4.704l8.603,2.424Z"/></clipPath><g clip-path="url(#_clip2)"><path d="M129.451,258.418l-9.713,-5.527l1.146,-6.28l5.191,-3.041l4.056,1.744l4.471,4.478l-0.085,5.658l-5.066,2.968Zm30.283,-23.855l-5.042,5.49l-10.805,-0.858l-2.238,-4.75l-1.605,-8.245l10.343,-11.669l3.071,5.269l5.435,0.966l2.991,10.237l-2.15,3.56Zm-42.701,5.119l-7.471,-8.486l0.629,-15.55l4.861,-8.457l7.639,3.285l3.734,6.879l0.66,10.83l-10.052,11.499Zm93.012,-28.565l-2.662,11.269l-6.387,5.935l-14.945,-3.071l4.461,-15.019l10.414,-5.566l9.119,6.452Zm-32.485,4.321l7.62,-4.464l4.724,-10.709l-3.045,-9.664l-19.233,-2.996l-6.432,7.782l-1.006,7.794l6.329,7.509l11.043,4.748Zm-36.987,-6.374l6.48,-6.129l-3.057,-12.704l-8.623,-2.49l-7.622,-1.459l-2.977,3.993l-3.5,-1.504l-5.378,1.097l-1.634,4.367l5.651,4.497l4.24,3.125l7.816,4.756l8.604,2.451Zm10.66,-25.764l10.639,-1.878l10.285,-7.689l-2.017,-7.71l-4.768,-5.754l-7.68,1.972l-4.984,5.447l-3.648,6.662l2.173,8.95Zm48.103,-4.724l8.068,-10.782l-1.706,-6.007l-8.575,-19.507c0,0 -7.897,6.005 -10.383,6.082c-2.485,0.078 -7.683,4.502 -7.683,4.502l3.152,9.371l8.6,6.179l8.527,10.162Zm-64.518,-7.172l-9.714,-5.526l1.146,-6.28l5.191,-3.042l4.057,1.744l4.47,4.478l-0.085,5.659l-5.065,2.967Zm30.283,-23.854l-5.042,5.49l-10.806,-0.858l-2.238,-4.75l-1.605,-8.245l10.344,-11.669l3.07,5.268l5.436,0.966l2.991,10.238l-2.15,3.56Zm-42.702,5.118l-7.471,-8.485l0.629,-15.55l4.861,-8.457l7.639,3.284l3.734,6.879l0.661,10.831l-10.053,11.498Zm93.013,-28.564l-2.663,11.269l-6.387,5.934l-14.945,-3.07l4.461,-15.02l10.415,-5.565l9.119,6.452Zm-32.486,4.321l7.621,-4.465l4.724,-10.709l-3.045,-9.663l-19.234,-2.996l-6.432,7.782l-1.005,7.793l6.328,7.51l11.043,4.748Zm-36.986,-6.375l6.48,-6.129l-3.057,-12.703l-8.623,-2.491l-7.622,-1.459l-2.977,3.994l-3.5,-1.505l-5.378,1.098l-1.634,4.367l5.651,4.497l4.24,3.125l7.816,4.755l8.604,2.451Zm10.659,-25.764l10.639,-1.877l10.285,-7.689l-2.016,-7.71l-4.769,-5.755l-7.679,1.972l-4.985,5.448l-3.648,6.661l2.173,8.95Zm48.103,-4.723l8.069,-10.783l-1.707,-6.007l-8.574,-19.507c0,0 -7.897,6.006 -10.383,6.083c-2.486,0.077 -7.683,4.501 -7.683,4.501l3.152,9.371l8.6,6.18l8.526,10.162Z" style="fill:#a37841;fill-opacity:0.7;"/></g><path d="M174.136,211.29l7.62,-4.416l4.724,-10.593l-3.045,-9.557l-19.233,-2.964l-6.432,7.697l-1.006,7.709l6.329,7.427l11.043,4.697Z" style="fill:#c7a664;"/><path d="M195.912,174.829l8.068,-10.664l-1.706,-5.942l-8.575,-19.295c0,0 -7.897,5.94 -10.383,6.017c-2.485,0.076 -7.683,4.452 -7.683,4.452l3.152,9.269l8.6,6.112l8.527,10.051Z" style="fill:#c7a664;"/><clipPath id="_clip3"><path d="M195.912,174.829l8.068,-10.664l-1.706,-5.942l-8.575,-19.295c0,0 -7.897,5.94 -10.383,6.017c-2.485,0.076 -7.683,4.452 -7.683,4.452l3.152,9.269l8.6,6.112l8.527,10.051Z"/></clipPath><g clip-path="url(#_clip3)"><path d="M129.451,258.418l-9.713,-5.527l1.146,-6.28l5.191,-3.041l4.056,1.744l4.471,4.478l-0.085,5.658l-5.066,2.968Zm30.283,-23.855l-5.042,5.49l-10.805,-0.858l-2.238,-4.75l-1.605,-8.245l10.343,-11.669l3.071,5.269l5.435,0.966l2.991,10.237l-2.15,3.56Zm-42.701,5.119l-7.471,-8.486l0.629,-15.55l4.861,-8.457l7.639,3.285l3.734,6.879l0.66,10.83l-10.052,11.499Zm93.012,-28.565l-2.662,11.269l-6.387,5.935l-14.945,-3.071l4.461,-15.019l10.414,-5.566l9.119,6.452Zm-32.485,4.321l7.62,-4.464l4.724,-10.709l-3.045,-9.664l-19.233,-2.996l-6.432,7.782l-1.006,7.794l6.329,7.509l11.043,4.748Zm-36.987,-6.374l6.48,-6.129l-3.057,-12.704l-8.623,-2.49l-7.622,-1.459l-2.977,3.993l-3.5,-1.504l-5.378,1.097l-1.634,4.367l5.651,4.497l4.24,3.125l7.816,4.756l8.604,2.451Zm10.66,-25.764l10.639,-1.878l10.285,-7.689l-2.017,-7.71l-4.768,-5.754l-7.68,1.972l-4.984,5.447l-3.648,6.662l2.173,8.95Zm48.103,-4.724l8.068,-10.782l-1.706,-6.007l-8.575,-19.507c0,0 -7.897,6.005 -10.383,6.082c-2.485,0.078 -7.683,4.502 -7.683,4.502l3.152,9.371l8.6,6.179l8.527,10.162Zm-64.518,-7.172l-9.714,-5.526l1.146,-6.28l5.191,-3.042l4.057,1.744l4.47,4.478l-0.085,5.659l-5.065,2.967Zm30.283,-23.854l-5.042,5.49l-10.806,-0.858l-2.238,-4.75l-1.605,-8.245l10.344,-11.669l3.07,5.268l5.436,0.966l2.991,10.238l-2.15,3.56Zm-42.702,5.118l-7.471,-8.485l0.629,-15.55l4.861,-8.457l7.639,3.284l3.734,6.879l0.661,10.831l-10.053,11.498Zm93.013,-28.564l-2.663,11.269l-6.387,5.934l-14.945,-3.07l4.461,-15.02l10.415,-5.565l9.119,6.452Zm-32.486,4.321l7.621,-4.465l4.724,-10.709l-3.045,-9.663l-19.234,-2.996l-6.432,7.782l-1.005,7.793l6.328,7.51l11.043,4.748Zm-36.986,-6.375l6.48,-6.129l-3.057,-12.703l-8.623,-2.491l-7.622,-1.459l-2.977,3.994l-3.5,-1.505l-5.378,1.098l-1.634,4.367l5.651,4.497l4.24,3.125l7.816,4.755l8.604,2.451Zm10.659,-25.764l10.639,-1.877l10.285,-7.689l-2.016,-7.71l-4.769,-5.755l-7.679,1.972l-4.985,5.448l-3.648,6.661l2.173,8.95Zm48.103,-4.723l8.069,-10.783l-1.707,-6.007l-8.574,-19.507c0,0 -7.897,6.006 -10.383,6.083c-2.486,0.077 -7.683,4.501 -7.683,4.501l3.152,9.371l8.6,6.18l8.526,10.162Z" style="fill:#a37841;fill-opacity:0.7;"/></g><path d="M147.809,179.501l10.639,-1.857l10.285,-7.605l-2.017,-7.626l-4.768,-5.691l-7.68,1.95l-4.984,5.388l-3.648,6.589l2.173,8.852" style="fill:#c7a664;"/><clipPath id="_clip4"><path d="M147.809,179.501l10.639,-1.857l10.285,-7.605l-2.017,-7.626l-4.768,-5.691l-7.68,1.95l-4.984,5.388l-3.648,6.589l2.173,8.852"/></clipPath><g clip-path="url(#_clip4)"><path d="M129.451,258.418l-9.713,-5.527l1.146,-6.28l5.191,-3.041l4.056,1.744l4.471,4.478l-0.085,5.658l-5.066,2.968Zm30.283,-23.855l-5.042,5.49l-10.805,-0.858l-2.238,-4.75l-1.605,-8.245l10.343,-11.669l3.071,5.269l5.435,0.966l2.991,10.237l-2.15,3.56Zm-42.701,5.119l-7.471,-8.486l0.629,-15.55l4.861,-8.457l7.639,3.285l3.734,6.879l0.66,10.83l-10.052,11.499Zm93.012,-28.565l-2.662,11.269l-6.387,5.935l-14.945,-3.071l4.461,-15.019l10.414,-5.566l9.119,6.452Zm-32.485,4.321l7.62,-4.464l4.724,-10.709l-3.045,-9.664l-19.233,-2.996l-6.432,7.782l-1.006,7.794l6.329,7.509l11.043,4.748Zm-36.987,-6.374l6.48,-6.129l-3.057,-12.704l-8.623,-2.49l-7.622,-1.459l-2.977,3.993l-3.5,-1.504l-5.378,1.097l-1.634,4.367l5.651,4.497l4.24,3.125l7.816,4.756l8.604,2.451Zm10.66,-25.764l10.639,-1.878l10.285,-7.689l-2.017,-7.71l-4.768,-5.754l-7.68,1.972l-4.984,5.447l-3.648,6.662l2.173,8.95Zm48.103,-4.724l8.068,-10.782l-1.706,-6.007l-8.575,-19.507c0,0 -7.897,6.005 -10.383,6.082c-2.485,0.078 -7.683,4.502 -7.683,4.502l3.152,9.371l8.6,6.179l8.527,10.162Zm-64.518,-7.172l-9.714,-5.526l1.146,-6.28l5.191,-3.042l4.057,1.744l4.47,4.478l-0.085,5.659l-5.065,2.967Zm30.283,-23.854l-5.042,5.49l-10.806,-0.858l-2.238,-4.75l-1.605,-8.245l10.344,-11.669l3.07,5.268l5.436,0.966l2.991,10.238l-2.15,3.56Zm-42.702,5.118l-7.471,-8.485l0.629,-15.55l4.861,-8.457l7.639,3.284l3.734,6.879l0.661,10.831l-10.053,11.498Zm93.013,-28.564l-2.663,11.269l-6.387,5.934l-14.945,-3.07l4.461,-15.02l10.415,-5.565l9.119,6.452Zm-32.486,4.321l7.621,-4.465l4.724,-10.709l-3.045,-9.663l-19.234,-2.996l-6.432,7.782l-1.005,7.793l6.328,7.51l11.043,4.748Zm-36.986,-6.375l6.48,-6.129l-3.057,-12.703l-8.623,-2.491l-7.622,-1.459l-2.977,3.994l-3.5,-1.505l-5.378,1.098l-1.634,4.367l5.651,4.497l4.24,3.125l7.816,4.755l8.604,2.451Zm10.659,-25.764l10.639,-1.877l10.285,-7.689l-2.016,-7.71l-4.769,-5.755l-7.679,1.972l-4.985,5.448l-3.648,6.661l2.173,8.95Zm48.103,-4.723l8.069,-10.783l-1.707,-6.007l-8.574,-19.507c0,0 -7.897,6.006 -10.383,6.083c-2.486,0.077 -7.683,4.501 -7.683,4.501l3.152,9.371l8.6,6.18l8.526,10.162Z" style="fill:#a37841;fill-opacity:0.7;"/></g><path d="M206.621,207.016l-9.119,-6.382l-10.414,5.505l-4.461,14.856l14.945,3.036l6.387,-5.869l2.662,-11.146" style="fill:#c7a664;"/><clipPath id="_clip5"><path d="M206.621,207.016l-9.119,-6.382l-10.414,5.505l-4.461,14.856l14.945,3.036l6.387,-5.869l2.662,-11.146"/></clipPath><g clip-path="url(#_clip5)"><path d="M129.451,258.418l-9.713,-5.527l1.146,-6.28l5.191,-3.041l4.056,1.744l4.471,4.478l-0.085,5.658l-5.066,2.968Zm30.283,-23.855l-5.042,5.49l-10.805,-0.858l-2.238,-4.75l-1.605,-8.245l10.343,-11.669l3.071,5.269l5.435,0.966l2.991,10.237l-2.15,3.56Zm-42.701,5.119l-7.471,-8.486l0.629,-15.55l4.861,-8.457l7.639,3.285l3.734,6.879l0.66,10.83l-10.052,11.499Zm93.012,-28.565l-2.662,11.269l-6.387,5.935l-14.945,-3.071l4.461,-15.019l10.414,-5.566l9.119,6.452Zm-32.485,4.321l7.62,-4.464l4.724,-10.709l-3.045,-9.664l-19.233,-2.996l-6.432,7.782l-1.006,7.794l6.329,7.509l11.043,4.748Zm-36.987,-6.374l6.48,-6.129l-3.057,-12.704l-8.623,-2.49l-7.622,-1.459l-2.977,3.993l-3.5,-1.504l-5.378,1.097l-1.634,4.367l5.651,4.497l4.24,3.125l7.816,4.756l8.604,2.451Zm10.66,-25.764l10.639,-1.878l10.285,-7.689l-2.017,-7.71l-4.768,-5.754l-7.68,1.972l-4.984,5.447l-3.648,6.662l2.173,8.95Zm48.103,-4.724l8.068,-10.782l-1.706,-6.007l-8.575,-19.507c0,0 -7.897,6.005 -10.383,6.082c-2.485,0.078 -7.683,4.502 -7.683,4.502l3.152,9.371l8.6,6.179l8.527,10.162Zm-64.518,-7.172l-9.714,-5.526l1.146,-6.28l5.191,-3.042l4.057,1.744l4.47,4.478l-0.085,5.659l-5.065,2.967Zm30.283,-23.854l-5.042,5.49l-10.806,-0.858l-2.238,-4.75l-1.605,-8.245l10.344,-11.669l3.07,5.268l5.436,0.966l2.991,10.238l-2.15,3.56Zm-42.702,5.118l-7.471,-8.485l0.629,-15.55l4.861,-8.457l7.639,3.284l3.734,6.879l0.661,10.831l-10.053,11.498Zm93.013,-28.564l-2.663,11.269l-6.387,5.934l-14.945,-3.07l4.461,-15.02l10.415,-5.565l9.119,6.452Zm-32.486,4.321l7.621,-4.465l4.724,-10.709l-3.045,-9.663l-19.234,-2.996l-6.432,7.782l-1.005,7.793l6.328,7.51l11.043,4.748Zm-36.986,-6.375l6.48,-6.129l-3.057,-12.703l-8.623,-2.491l-7.622,-1.459l-2.977,3.994l-3.5,-1.505l-5.378,1.098l-1.634,4.367l5.651,4.497l4.24,3.125l7.816,4.755l8.604,2.451Zm10.659,-25.764l10.639,-1.877l10.285,-7.689l-2.016,-7.71l-4.769,-5.755l-7.679,1.972l-4.985,5.448l-3.648,6.661l2.173,8.95Zm48.103,-4.723l8.069,-10.783l-1.707,-6.007l-8.574,-19.507c0,0 -7.897,6.006 -10.383,6.083c-2.486,0.077 -7.683,4.501 -7.683,4.501l3.152,9.371l8.6,6.18l8.526,10.162Z" style="fill:#a37841;fill-opacity:0.7;"/></g><path d="M118.975,149.204l-7.47,-8.393l0.628,-15.381l4.861,-8.365l7.639,3.249l3.735,6.804l0.66,10.713l-10.053,11.373" style="fill:#c7a664;"/><clipPath id="_clip6"><path d="M118.975,149.204l-7.47,-8.393l0.628,-15.381l4.861,-8.365l7.639,3.249l3.735,6.804l0.66,10.713l-10.053,11.373"/></clipPath><g clip-path="url(#_clip6)"><path d="M129.451,258.418l-9.713,-5.527l1.146,-6.28l5.191,-3.041l4.056,1.744l4.471,4.478l-0.085,5.658l-5.066,2.968Zm30.283,-23.855l-5.042,5.49l-10.805,-0.858l-2.238,-4.75l-1.605,-8.245l10.343,-11.669l3.071,5.269l5.435,0.966l2.991,10.237l-2.15,3.56Zm-42.701,5.119l-7.471,-8.486l0.629,-15.55l4.861,-8.457l7.639,3.285l3.734,6.879l0.66,10.83l-10.052,11.499Zm93.012,-28.565l-2.662,11.269l-6.387,5.935l-14.945,-3.071l4.461,-15.019l10.414,-5.566l9.119,6.452Zm-32.485,4.321l7.62,-4.464l4.724,-10.709l-3.045,-9.664l-19.233,-2.996l-6.432,7.782l-1.006,7.794l6.329,7.509l11.043,4.748Zm-36.987,-6.374l6.48,-6.129l-3.057,-12.704l-8.623,-2.49l-7.622,-1.459l-2.977,3.993l-3.5,-1.504l-5.378,1.097l-1.634,4.367l5.651,4.497l4.24,3.125l7.816,4.756l8.604,2.451Zm10.66,-25.764l10.639,-1.878l10.285,-7.689l-2.017,-7.71l-4.768,-5.754l-7.68,1.972l-4.984,5.447l-3.648,6.662l2.173,8.95Zm48.103,-4.724l8.068,-10.782l-1.706,-6.007l-8.575,-19.507c0,0 -7.897,6.005 -10.383,6.082c-2.485,0.078 -7.683,4.502 -7.683,4.502l3.152,9.371l8.6,6.179l8.527,10.162Zm-64.518,-7.172l-9.714,-5.526l1.146,-6.28l5.191,-3.042l4.057,1.744l4.47,4.478l-0.085,5.659l-5.065,2.967Zm30.283,-23.854l-5.042,5.49l-10.806,-0.858l-2.238,-4.75l-1.605,-8.245l10.344,-11.669l3.07,5.268l5.436,0.966l2.991,10.238l-2.15,3.56Zm-42.702,5.118l-7.471,-8.485l0.629,-15.55l4.861,-8.457l7.639,3.284l3.734,6.879l0.661,10.831l-10.053,11.498Zm93.013,-28.564l-2.663,11.269l-6.387,5.934l-14.945,-3.07l4.461,-15.02l10.415,-5.565l9.119,6.452Zm-32.486,4.321l7.621,-4.465l4.724,-10.709l-3.045,-9.663l-19.234,-2.996l-6.432,7.782l-1.005,7.793l6.328,7.51l11.043,4.748Zm-36.986,-6.375l6.48,-6.129l-3.057,-12.703l-8.623,-2.491l-7.622,-1.459l-2.977,3.994l-3.5,-1.505l-5.378,1.098l-1.634,4.367l5.651,4.497l4.24,3.125l7.816,4.755l8.604,2.451Zm10.659,-25.764l10.639,-1.877l10.285,-7.689l-2.016,-7.71l-4.769,-5.755l-7.679,1.972l-4.985,5.448l-3.648,6.661l2.173,8.95Zm48.103,-4.723l8.069,-10.783l-1.707,-6.007l-8.574,-19.507c0,0 -7.897,6.006 -10.383,6.083c-2.486,0.077 -7.683,4.501 -7.683,4.501l3.152,9.371l8.6,6.18l8.526,10.162Z" style="fill:#a37841;fill-opacity:0.7;"/></g><path d="M131.394,167.736l-9.714,-5.467l1.146,-6.211l5.191,-3.009l4.057,1.725l4.47,4.43l-0.085,5.596l-5.065,2.936Z" style="fill:#c7a664;"/><clipPath id="_clip7"><path d="M131.394,167.736l-9.714,-5.467l1.146,-6.211l5.191,-3.009l4.057,1.725l4.47,4.43l-0.085,5.596l-5.065,2.936Z"/></clipPath><g clip-path="url(#_clip7)"><path d="M129.451,258.418l-9.713,-5.527l1.146,-6.28l5.191,-3.041l4.056,1.744l4.471,4.478l-0.085,5.658l-5.066,2.968Zm30.283,-23.855l-5.042,5.49l-10.805,-0.858l-2.238,-4.75l-1.605,-8.245l10.343,-11.669l3.071,5.269l5.435,0.966l2.991,10.237l-2.15,3.56Zm-42.701,5.119l-7.471,-8.486l0.629,-15.55l4.861,-8.457l7.639,3.285l3.734,6.879l0.66,10.83l-10.052,11.499Zm93.012,-28.565l-2.662,11.269l-6.387,5.935l-14.945,-3.071l4.461,-15.019l10.414,-5.566l9.119,6.452Zm-32.485,4.321l7.62,-4.464l4.724,-10.709l-3.045,-9.664l-19.233,-2.996l-6.432,7.782l-1.006,7.794l6.329,7.509l11.043,4.748Zm-36.987,-6.374l6.48,-6.129l-3.057,-12.704l-8.623,-2.49l-7.622,-1.459l-2.977,3.993l-3.5,-1.504l-5.378,1.097l-1.634,4.367l5.651,4.497l4.24,3.125l7.816,4.756l8.604,2.451Zm10.66,-25.764l10.639,-1.878l10.285,-7.689l-2.017,-7.71l-4.768,-5.754l-7.68,1.972l-4.984,5.447l-3.648,6.662l2.173,8.95Zm48.103,-4.724l8.068,-10.782l-1.706,-6.007l-8.575,-19.507c0,0 -7.897,6.005 -10.383,6.082c-2.485,0.078 -7.683,4.502 -7.683,4.502l3.152,9.371l8.6,6.179l8.527,10.162Zm-64.518,-7.172l-9.714,-5.526l1.146,-6.28l5.191,-3.042l4.057,1.744l4.47,4.478l-0.085,5.659l-5.065,2.967Zm30.283,-23.854l-5.042,5.49l-10.806,-0.858l-2.238,-4.75l-1.605,-8.245l10.344,-11.669l3.07,5.268l5.436,0.966l2.991,10.238l-2.15,3.56Zm-42.702,5.118l-7.471,-8.485l0.629,-15.55l4.861,-8.457l7.639,3.284l3.734,6.879l0.661,10.831l-10.053,11.498Zm93.013,-28.564l-2.663,11.269l-6.387,5.934l-14.945,-3.07l4.461,-15.02l10.415,-5.565l9.119,6.452Zm-32.486,4.321l7.621,-4.465l4.724,-10.709l-3.045,-9.663l-19.234,-2.996l-6.432,7.782l-1.005,7.793l6.328,7.51l11.043,4.748Zm-36.986,-6.375l6.48,-6.129l-3.057,-12.703l-8.623,-2.491l-7.622,-1.459l-2.977,3.994l-3.5,-1.505l-5.378,1.098l-1.634,4.367l5.651,4.497l4.24,3.125l7.816,4.755l8.604,2.451Zm10.659,-25.764l10.639,-1.877l10.285,-7.689l-2.016,-7.71l-4.769,-5.755l-7.679,1.972l-4.985,5.448l-3.648,6.661l2.173,8.95Zm48.103,-4.723l8.069,-10.783l-1.707,-6.007l-8.574,-19.507c0,0 -7.897,6.006 -10.383,6.083c-2.486,0.077 -7.683,4.501 -7.683,4.501l3.152,9.371l8.6,6.18l8.526,10.162Z" style="fill:#a37841;fill-opacity:0.7;"/></g><path d="M161.677,144.141l-5.042,5.43l-10.806,-0.848l-2.237,-4.699l-1.606,-8.155l10.344,-11.541l3.07,5.211l5.436,0.955l2.991,10.126l-2.15,3.521" style="fill:#c7a664;"/><clipPath id="_clip8"><path d="M161.677,144.141l-5.042,5.43l-10.806,-0.848l-2.237,-4.699l-1.606,-8.155l10.344,-11.541l3.07,5.211l5.436,0.955l2.991,10.126l-2.15,3.521"/></clipPath><g clip-path="url(#_clip8)"><path d="M129.451,258.418l-9.713,-5.527l1.146,-6.28l5.191,-3.041l4.056,1.744l4.471,4.478l-0.085,5.658l-5.066,2.968Zm30.283,-23.855l-5.042,5.49l-10.805,-0.858l-2.238,-4.75l-1.605,-8.245l10.343,-11.669l3.071,5.269l5.435,0.966l2.991,10.237l-2.15,3.56Zm-42.701,5.119l-7.471,-8.486l0.629,-15.55l4.861,-8.457l7.639,3.285l3.734,6.879l0.66,10.83l-10.052,11.499Zm93.012,-28.565l-2.662,11.269l-6.387,5.935l-14.945,-3.071l4.461,-15.019l10.414,-5.566l9.119,6.452Zm-32.485,4.321l7.62,-4.464l4.724,-10.709l-3.045,-9.664l-19.233,-2.996l-6.432,7.782l-1.006,7.794l6.329,7.509l11.043,4.748Zm-36.987,-6.374l6.48,-6.129l-3.057,-12.704l-8.623,-2.49l-7.622,-1.459l-2.977,3.993l-3.5,-1.504l-5.378,1.097l-1.634,4.367l5.651,4.497l4.24,3.125l7.816,4.756l8.604,2.451Zm10.66,-25.764l10.639,-1.878l10.285,-7.689l-2.017,-7.71l-4.768,-5.754l-7.68,1.972l-4.984,5.447l-3.648,6.662l2.173,8.95Zm48.103,-4.724l8.068,-10.782l-1.706,-6.007l-8.575,-19.507c0,0 -7.897,6.005 -10.383,6.082c-2.485,0.078 -7.683,4.502 -7.683,4.502l3.152,9.371l8.6,6.179l8.527,10.162Zm-64.518,-7.172l-9.714,-5.526l1.146,-6.28l5.191,-3.042l4.057,1.744l4.47,4.478l-0.085,5.659l-5.065,2.967Zm30.283,-23.854l-5.042,5.49l-10.806,-0.858l-2.238,-4.75l-1.605,-8.245l10.344,-11.669l3.07,5.268l5.436,0.966l2.991,10.238l-2.15,3.56Zm-42.702,5.118l-7.471,-8.485l0.629,-15.55l4.861,-8.457l7.639,3.284l3.734,6.879l0.661,10.831l-10.053,11.498Zm93.013,-28.564l-2.663,11.269l-6.387,5.934l-14.945,-3.07l4.461,-15.02l10.415,-5.565l9.119,6.452Zm-32.486,4.321l7.621,-4.465l4.724,-10.709l-3.045,-9.663l-19.234,-2.996l-6.432,7.782l-1.005,7.793l6.328,7.51l11.043,4.748Zm-36.986,-6.375l6.48,-6.129l-3.057,-12.703l-8.623,-2.491l-7.622,-1.459l-2.977,3.994l-3.5,-1.505l-5.378,1.098l-1.634,4.367l5.651,4.497l4.24,3.125l7.816,4.755l8.604,2.451Zm10.659,-25.764l10.639,-1.877l10.285,-7.689l-2.016,-7.71l-4.769,-5.755l-7.679,1.972l-4.985,5.448l-3.648,6.661l2.173,8.95Zm48.103,-4.723l8.069,-10.783l-1.707,-6.007l-8.574,-19.507c0,0 -7.897,6.006 -10.383,6.083c-2.486,0.077 -7.683,4.501 -7.683,4.501l3.152,9.371l8.6,6.18l8.526,10.162Z" style="fill:#a37841;fill-opacity:0.7;"/></g><path d="M142.516,118.919l6.48,-6.062l-3.057,-12.564l-8.623,-2.464l-7.622,-1.443l-2.977,3.95l-3.5,-1.488l-5.378,1.085l-1.634,4.32l5.651,4.448l4.24,3.09l7.816,4.704l8.604,2.424Z" style="fill:#c7a664;"/><clipPath id="_clip9"><path d="M142.516,118.919l6.48,-6.062l-3.057,-12.564l-8.623,-2.464l-7.622,-1.443l-2.977,3.95l-3.5,-1.488l-5.378,1.085l-1.634,4.32l5.651,4.448l4.24,3.09l7.816,4.704l8.604,2.424Z"/></clipPath><g clip-path="url(#_clip9)"><path d="M129.451,258.418l-9.713,-5.527l1.146,-6.28l5.191,-3.041l4.056,1.744l4.471,4.478l-0.085,5.658l-5.066,2.968Zm30.283,-23.855l-5.042,5.49l-10.805,-0.858l-2.238,-4.75l-1.605,-8.245l10.343,-11.669l3.071,5.269l5.435,0.966l2.991,10.237l-2.15,3.56Zm-42.701,5.119l-7.471,-8.486l0.629,-15.55l4.861,-8.457l7.639,3.285l3.734,6.879l0.66,10.83l-10.052,11.499Zm93.012,-28.565l-2.662,11.269l-6.387,5.935l-14.945,-3.071l4.461,-15.019l10.414,-5.566l9.119,6.452Zm-32.485,4.321l7.62,-4.464l4.724,-10.709l-3.045,-9.664l-19.233,-2.996l-6.432,7.782l-1.006,7.794l6.329,7.509l11.043,4.748Zm-36.987,-6.374l6.48,-6.129l-3.057,-12.704l-8.623,-2.49l-7.622,-1.459l-2.977,3.993l-3.5,-1.504l-5.378,1.097l-1.634,4.367l5.651,4.497l4.24,3.125l7.816,4.756l8.604,2.451Zm10.66,-25.764l10.639,-1.878l10.285,-7.689l-2.017,-7.71l-4.768,-5.754l-7.68,1.972l-4.984,5.447l-3.648,6.662l2.173,8.95Zm48.103,-4.724l8.068,-10.782l-1.706,-6.007l-8.575,-19.507c0,0 -7.897,6.005 -10.383,6.082c-2.485,0.078 -7.683,4.502 -7.683,4.502l3.152,9.371l8.6,6.179l8.527,10.162Zm-64.518,-7.172l-9.714,-5.526l1.146,-6.28l5.191,-3.042l4.057,1.744l4.47,4.478l-0.085,5.659l-5.065,2.967Zm30.283,-23.854l-5.042,5.49l-10.806,-0.858l-2.238,-4.75l-1.605,-8.245l10.344,-11.669l3.07,5.268l5.436,0.966l2.991,10.238l-2.15,3.56Zm-42.702,5.118l-7.471,-8.485l0.629,-15.55l4.861,-8.457l7.639,3.284l3.734,6.879l0.661,10.831l-10.053,11.498Zm93.013,-28.564l-2.663,11.269l-6.387,5.934l-14.945,-3.07l4.461,-15.02l10.415,-5.565l9.119,6.452Zm-32.486,4.321l7.621,-4.465l4.724,-10.709l-3.045,-9.663l-19.234,-2.996l-6.432,7.782l-1.005,7.793l6.328,7.51l11.043,4.748Zm-36.986,-6.375l6.48,-6.129l-3.057,-12.703l-8.623,-2.491l-7.622,-1.459l-2.977,3.994l-3.5,-1.505l-5.378,1.098l-1.634,4.367l5.651,4.497l4.24,3.125l7.816,4.755l8.604,2.451Zm10.659,-25.764l10.639,-1.877l10.285,-7.689l-2.016,-7.71l-4.769,-5.755l-7.679,1.972l-4.985,5.448l-3.648,6.661l2.173,8.95Zm48.103,-4.723l8.069,-10.783l-1.707,-6.007l-8.574,-19.507c0,0 -7.897,6.006 -10.383,6.083c-2.486,0.077 -7.683,4.501 -7.683,4.501l3.152,9.371l8.6,6.18l8.526,10.162Z" style="fill:#a37841;fill-opacity:0.7;"/></g><path d="M179.502,125.225l7.621,-4.416l4.724,-10.593l-3.045,-9.558l-19.234,-2.963l-6.431,7.697l-1.006,7.708l6.329,7.428l11.042,4.697Z" style="fill:#c7a664;"/><clipPath id="_clip10"><path d="M179.502,125.225l7.621,-4.416l4.724,-10.593l-3.045,-9.558l-19.234,-2.963l-6.431,7.697l-1.006,7.708l6.329,7.428l11.042,4.697Z"/></clipPath><g clip-path="url(#_clip10)"><path d="M129.451,258.418l-9.713,-5.527l1.146,-6.28l5.191,-3.041l4.056,1.744l4.471,4.478l-0.085,5.658l-5.066,2.968Zm30.283,-23.855l-5.042,5.49l-10.805,-0.858l-2.238,-4.75l-1.605,-8.245l10.343,-11.669l3.071,5.269l5.435,0.966l2.991,10.237l-2.15,3.56Zm-42.701,5.119l-7.471,-8.486l0.629,-15.55l4.861,-8.457l7.639,3.285l3.734,6.879l0.66,10.83l-10.052,11.499Zm93.012,-28.565l-2.662,11.269l-6.387,5.935l-14.945,-3.071l4.461,-15.019l10.414,-5.566l9.119,6.452Zm-32.485,4.321l7.62,-4.464l4.724,-10.709l-3.045,-9.664l-19.233,-2.996l-6.432,7.782l-1.006,7.794l6.329,7.509l11.043,4.748Zm-36.987,-6.374l6.48,-6.129l-3.057,-12.704l-8.623,-2.49l-7.622,-1.459l-2.977,3.993l-3.5,-1.504l-5.378,1.097l-1.634,4.367l5.651,4.497l4.24,3.125l7.816,4.756l8.604,2.451Zm10.66,-25.764l10.639,-1.878l10.285,-7.689l-2.017,-7.71l-4.768,-5.754l-7.68,1.972l-4.984,5.447l-3.648,6.662l2.173,8.95Zm48.103,-4.724l8.068,-10.782l-1.706,-6.007l-8.575,-19.507c0,0 -7.897,6.005 -10.383,6.082c-2.485,0.078 -7.683,4.502 -7.683,4.502l3.152,9.371l8.6,6.179l8.527,10.162Zm-64.518,-7.172l-9.714,-5.526l1.146,-6.28l5.191,-3.042l4.057,1.744l4.47,4.478l-0.085,5.659l-5.065,2.967Zm30.283,-23.854l-5.042,5.49l-10.806,-0.858l-2.238,-4.75l-1.605,-8.245l10.344,-11.669l3.07,5.268l5.436,0.966l2.991,10.238l-2.15,3.56Zm-42.702,5.118l-7.471,-8.485l0.629,-15.55l4.861,-8.457l7.639,3.284l3.734,6.879l0.661,10.831l-10.053,11.498Zm93.013,-28.564l-2.663,11.269l-6.387,5.934l-14.945,-3.07l4.461,-15.02l10.415,-5.565l9.119,6.452Zm-32.486,4.321l7.621,-4.465l4.724,-10.709l-3.045,-9.663l-19.234,-2.996l-6.432,7.782l-1.005,7.793l6.328,7.51l11.043,4.748Zm-36.986,-6.375l6.48,-6.129l-3.057,-12.703l-8.623,-2.491l-7.622,-1.459l-2.977,3.994l-3.5,-1.505l-5.378,1.098l-1.634,4.367l5.651,4.497l4.24,3.125l7.816,4.755l8.604,2.451Zm10.659,-25.764l10.639,-1.877l10.285,-7.689l-2.016,-7.71l-4.769,-5.755l-7.679,1.972l-4.985,5.448l-3.648,6.661l2.173,8.95Zm48.103,-4.723l8.069,-10.783l-1.707,-6.007l-8.574,-19.507c0,0 -7.897,6.006 -10.383,6.083c-2.486,0.077 -7.683,4.501 -7.683,4.501l3.152,9.371l8.6,6.18l8.526,10.162Z" style="fill:#a37841;fill-opacity:0.7;"/></g><path d="M201.278,88.764l8.069,-10.664l-1.707,-5.942l-8.574,-19.295c0,0 -7.897,5.94 -10.383,6.017c-2.486,0.076 -7.683,4.452 -7.683,4.452l3.152,9.269l8.6,6.112l8.526,10.051Z" style="fill:#c7a664;"/><clipPath id="_clip11"><path d="M201.278,88.764l8.069,-10.664l-1.707,-5.942l-8.574,-19.295c0,0 -7.897,5.94 -10.383,6.017c-2.486,0.076 -7.683,4.452 -7.683,4.452l3.152,9.269l8.6,6.112l8.526,10.051Z"/></clipPath><g clip-path="url(#_clip11)"><path d="M129.451,258.418l-9.713,-5.527l1.146,-6.28l5.191,-3.041l4.056,1.744l4.471,4.478l-0.085,5.658l-5.066,2.968Zm30.283,-23.855l-5.042,5.49l-10.805,-0.858l-2.238,-4.75l-1.605,-8.245l10.343,-11.669l3.071,5.269l5.435,0.966l2.991,10.237l-2.15,3.56Zm-42.701,5.119l-7.471,-8.486l0.629,-15.55l4.861,-8.457l7.639,3.285l3.734,6.879l0.66,10.83l-10.052,11.499Zm93.012,-28.565l-2.662,11.269l-6.387,5.935l-14.945,-3.071l4.461,-15.019l10.414,-5.566l9.119,6.452Zm-32.485,4.321l7.62,-4.464l4.724,-10.709l-3.045,-9.664l-19.233,-2.996l-6.432,7.782l-1.006,7.794l6.329,7.509l11.043,4.748Zm-36.987,-6.374l6.48,-6.129l-3.057,-12.704l-8.623,-2.49l-7.622,-1.459l-2.977,3.993l-3.5,-1.504l-5.378,1.097l-1.634,4.367l5.651,4.497l4.24,3.125l7.816,4.756l8.604,2.451Zm10.66,-25.764l10.639,-1.878l10.285,-7.689l-2.017,-7.71l-4.768,-5.754l-7.68,1.972l-4.984,5.447l-3.648,6.662l2.173,8.95Zm48.103,-4.724l8.068,-10.782l-1.706,-6.007l-8.575,-19.507c0,0 -7.897,6.005 -10.383,6.082c-2.485,0.078 -7.683,4.502 -7.683,4.502l3.152,9.371l8.6,6.179l8.527,10.162Zm-64.518,-7.172l-9.714,-5.526l1.146,-6.28l5.191,-3.042l4.057,1.744l4.47,4.478l-0.085,5.659l-5.065,2.967Zm30.283,-23.854l-5.042,5.49l-10.806,-0.858l-2.238,-4.75l-1.605,-8.245l10.344,-11.669l3.07,5.268l5.436,0.966l2.991,10.238l-2.15,3.56Zm-42.702,5.118l-7.471,-8.485l0.629,-15.55l4.861,-8.457l7.639,3.284l3.734,6.879l0.661,10.831l-10.053,11.498Zm93.013,-28.564l-2.663,11.269l-6.387,5.934l-14.945,-3.07l4.461,-15.02l10.415,-5.565l9.119,6.452Zm-32.486,4.321l7.621,-4.465l4.724,-10.709l-3.045,-9.663l-19.234,-2.996l-6.432,7.782l-1.005,7.793l6.328,7.51l11.043,4.748Zm-36.986,-6.375l6.48,-6.129l-3.057,-12.703l-8.623,-2.491l-7.622,-1.459l-2.977,3.994l-3.5,-1.505l-5.378,1.098l-1.634,4.367l5.651,4.497l4.24,3.125l7.816,4.755l8.604,2.451Zm10.659,-25.764l10.639,-1.877l10.285,-7.689l-2.016,-7.71l-4.769,-5.755l-7.679,1.972l-4.985,5.448l-3.648,6.661l2.173,8.95Zm48.103,-4.723l8.069,-10.783l-1.707,-6.007l-8.574,-19.507c0,0 -7.897,6.006 -10.383,6.083c-2.486,0.077 -7.683,4.501 -7.683,4.501l3.152,9.371l8.6,6.18l8.526,10.162Z" style="fill:#a37841;fill-opacity:0.7;"/></g><path d="M153.175,93.436l10.639,-1.857l10.285,-7.605l-2.016,-7.626l-4.769,-5.691l-7.679,1.95l-4.985,5.388l-3.648,6.589l2.173,8.852" style="fill:#c7a664;"/><clipPath id="_clip12"><path d="M153.175,93.436l10.639,-1.857l10.285,-7.605l-2.016,-7.626l-4.769,-5.691l-7.679,1.95l-4.985,5.388l-3.648,6.589l2.173,8.852"/></clipPath><g clip-path="url(#_clip12)"><path d="M129.451,258.418l-9.713,-5.527l1.146,-6.28l5.191,-3.041l4.056,1.744l4.471,4.478l-0.085,5.658l-5.066,2.968Zm30.283,-23.855l-5.042,5.49l-10.805,-0.858l-2.238,-4.75l-1.605,-8.245l10.343,-11.669l3.071,5.269l5.435,0.966l2.991,10.237l-2.15,3.56Zm-42.701,5.119l-7.471,-8.486l0.629,-15.55l4.861,-8.457l7.639,3.285l3.734,6.879l0.66,10.83l-10.052,11.499Zm93.012,-28.565l-2.662,11.269l-6.387,5.935l-14.945,-3.071l4.461,-15.019l10.414,-5.566l9.119,6.452Zm-32.485,4.321l7.62,-4.464l4.724,-10.709l-3.045,-9.664l-19.233,-2.996l-6.432,7.782l-1.006,7.794l6.329,7.509l11.043,4.748Zm-36.987,-6.374l6.48,-6.129l-3.057,-12.704l-8.623,-2.49l-7.622,-1.459l-2.977,3.993l-3.5,-1.504l-5.378,1.097l-1.634,4.367l5.651,4.497l4.24,3.125l7.816,4.756l8.604,2.451Zm10.66,-25.764l10.639,-1.878l10.285,-7.689l-2.017,-7.71l-4.768,-5.754l-7.68,1.972l-4.984,5.447l-3.648,6.662l2.173,8.95Zm48.103,-4.724l8.068,-10.782l-1.706,-6.007l-8.575,-19.507c0,0 -7.897,6.005 -10.383,6.082c-2.485,0.078 -7.683,4.502 -7.683,4.502l3.152,9.371l8.6,6.179l8.527,10.162Zm-64.518,-7.172l-9.714,-5.526l1.146,-6.28l5.191,-3.042l4.057,1.744l4.47,4.478l-0.085,5.659l-5.065,2.967Zm30.283,-23.854l-5.042,5.49l-10.806,-0.858l-2.238,-4.75l-1.605,-8.245l10.344,-11.669l3.07,5.268l5.436,0.966l2.991,10.238l-2.15,3.56Zm-42.702,5.118l-7.471,-8.485l0.629,-15.55l4.861,-8.457l7.639,3.284l3.734,6.879l0.661,10.831l-10.053,11.498Zm93.013,-28.564l-2.663,11.269l-6.387,5.934l-14.945,-3.07l4.461,-15.02l10.415,-5.565l9.119,6.452Zm-32.486,4.321l7.621,-4.465l4.724,-10.709l-3.045,-9.663l-19.234,-2.996l-6.432,7.782l-1.005,7.793l6.328,7.51l11.043,4.748Zm-36.986,-6.375l6.48,-6.129l-3.057,-12.703l-8.623,-2.491l-7.622,-1.459l-2.977,3.994l-3.5,-1.505l-5.378,1.098l-1.634,4.367l5.651,4.497l4.24,3.125l7.816,4.755l8.604,2.451Zm10.659,-25.764l10.639,-1.877l10.285,-7.689l-2.016,-7.71l-4.769,-5.755l-7.679,1.972l-4.985,5.448l-3.648,6.661l2.173,8.95Zm48.103,-4.723l8.069,-10.783l-1.707,-6.007l-8.574,-19.507c0,0 -7.897,6.006 -10.383,6.083c-2.486,0.077 -7.683,4.501 -7.683,4.501l3.152,9.371l8.6,6.18l8.526,10.162Z" style="fill:#a37841;fill-opacity:0.7;"/></g><path d="M211.988,120.951l-9.119,-6.382l-10.415,5.505l-4.461,14.856l14.945,3.036l6.388,-5.869l2.662,-11.146" style="fill:#c7a664;"/><clipPath id="_clip13"><path d="M211.988,120.951l-9.119,-6.382l-10.415,5.505l-4.461,14.856l14.945,3.036l6.388,-5.869l2.662,-11.146"/></clipPath><g clip-path="url(#_clip13)"><path d="M129.451,258.418l-9.713,-5.527l1.146,-6.28l5.191,-3.041l4.056,1.744l4.471,4.478l-0.085,5.658l-5.066,2.968Zm30.283,-23.855l-5.042,5.49l-10.805,-0.858l-2.238,-4.75l-1.605,-8.245l10.343,-11.669l3.071,5.269l5.435,0.966l2.991,10.237l-2.15,3.56Zm-42.701,5.119l-7.471,-8.486l0.629,-15.55l4.861,-8.457l7.639,3.285l3.734,6.879l0.66,10.83l-10.052,11.499Zm93.012,-28.565l-2.662,11.269l-6.387,5.935l-14.945,-3.071l4.461,-15.019l10.414,-5.566l9.119,6.452Zm-32.485,4.321l7.62,-4.464l4.724,-10.709l-3.045,-9.664l-19.233,-2.996l-6.432,7.782l-1.006,7.794l6.329,7.509l11.043,4.748Zm-36.987,-6.374l6.48,-6.129l-3.057,-12.704l-8.623,-2.49l-7.622,-1.459l-2.977,3.993l-3.5,-1.504l-5.378,1.097l-1.634,4.367l5.651,4.497l4.24,3.125l7.816,4.756l8.604,2.451Zm10.66,-25.764l10.639,-1.878l10.285,-7.689l-2.017,-7.71l-4.768,-5.754l-7.68,1.972l-4.984,5.447l-3.648,6.662l2.173,8.95Zm48.103,-4.724l8.068,-10.782l-1.706,-6.007l-8.575,-19.507c0,0 -7.897,6.005 -10.383,6.082c-2.485,0.078 -7.683,4.502 -7.683,4.502l3.152,9.371l8.6,6.179l8.527,10.162Zm-64.518,-7.172l-9.714,-5.526l1.146,-6.28l5.191,-3.042l4.057,1.744l4.47,4.478l-0.085,5.659l-5.065,2.967Zm30.283,-23.854l-5.042,5.49l-10.806,-0.858l-2.238,-4.75l-1.605,-8.245l10.344,-11.669l3.07,5.268l5.436,0.966l2.991,10.238l-2.15,3.56Zm-42.702,5.118l-7.471,-8.485l0.629,-15.55l4.861,-8.457l7.639,3.284l3.734,6.879l0.661,10.831l-10.053,11.498Zm93.013,-28.564l-2.663,11.269l-6.387,5.934l-14.945,-3.07l4.461,-15.02l10.415,-5.565l9.119,6.452Zm-32.486,4.321l7.621,-4.465l4.724,-10.709l-3.045,-9.663l-19.234,-2.996l-6.432,7.782l-1.005,7.793l6.328,7.51l11.043,4.748Zm-36.986,-6.375l6.48,-6.129l-3.057,-12.703l-8.623,-2.491l-7.622,-1.459l-2.977,3.994l-3.5,-1.505l-5.378,1.098l-1.634,4.367l5.651,4.497l4.24,3.125l7.816,4.755l8.604,2.451Zm10.659,-25.764l10.639,-1.877l10.285,-7.689l-2.016,-7.71l-4.769,-5.755l-7.679,1.972l-4.985,5.448l-3.648,6.661l2.173,8.95Zm48.103,-4.723l8.069,-10.783l-1.707,-6.007l-8.574,-19.507c0,0 -7.897,6.006 -10.383,6.083c-2.486,0.077 -7.683,4.501 -7.683,4.501l3.152,9.371l8.6,6.18l8.526,10.162Z" style="fill:#a37841;fill-opacity:0.7;"/></g></g></g><path d="M0.749,54.114l107.332,53.666l0,96.598l-107.332,-53.665l0,-96.599" style="fill:#685632;"/><clipPath id="_clip14"><path d="M0.749,54.114l107.332,53.666l0,96.598l-107.332,-53.665l0,-96.599"/></clipPath><g clip-path="url(#_clip14)"><path d="M6.242,226.091l-7.471,-8.946l0.629,-16.394l4.861,-8.915l7.639,3.462l3.734,7.253l0.66,11.418l-10.052,12.122" style="fill:#816b40;"/><path d="M48.944,220.695l-5.042,5.788l-10.806,-0.905l-2.238,-5.008l-1.605,-8.692l10.343,-12.302l3.071,5.555l5.436,1.018l2.99,10.793l-2.149,3.753" style="fill:#816b40;"/><path d="M29.782,193.812l6.48,-6.462l-3.056,-13.392l-8.624,-2.626l-7.622,-1.538l-2.976,4.21l-3.501,-1.586l-5.378,1.157l-1.634,4.604l5.651,4.741l4.24,3.294l7.817,5.014l8.603,2.584Z" style="fill:#816b40;"/><path d="M66.769,200.532l7.62,-4.707l4.724,-11.29l-3.045,-10.187l-19.233,-3.158l-6.432,8.203l-1.006,8.217l6.329,7.917l11.043,5.005Z" style="fill:#816b40;"/><path d="M88.545,161.67l8.069,-11.367l-1.707,-6.333l-8.575,-20.565c0,0 -7.897,6.331 -10.382,6.413c-2.486,0.081 -7.684,4.745 -7.684,4.745l3.152,9.879l8.6,6.515l8.527,10.713Z" style="fill:#816b40;"/><path d="M40.442,166.65l10.639,-1.979l10.285,-8.106l-2.017,-8.128l-4.768,-6.067l-7.679,2.079l-4.985,5.743l-3.648,7.022l2.173,9.436" style="fill:#816b40;"/><path d="M106.441,183.895l-9.094,-6.35l-10.432,5.551l-4.516,14.885l14.93,2.979l6.408,-5.9l2.704,-11.165" style="fill:#816b40;"/><path d="M11.608,134.357l-7.47,-8.946l0.628,-16.394l4.862,-8.915l7.638,3.462l3.735,7.252l0.66,11.419l-10.053,12.122" style="fill:#816b40;"/><path d="M24.027,154.11l-9.713,-5.827l1.145,-6.621l5.192,-3.206l4.056,1.838l4.47,4.721l-0.084,5.966l-5.066,3.129Z" style="fill:#816b40;"/><path d="M54.31,128.961l-5.042,5.788l-10.806,-0.905l-2.237,-5.008l-1.606,-8.692l10.344,-12.302l3.071,5.554l5.435,1.019l2.991,10.793l-2.15,3.753" style="fill:#816b40;"/><path d="M35.149,102.078l6.48,-6.462l-3.057,-13.392l-8.623,-2.626l-7.622,-1.538l-2.977,4.21l-3.5,-1.586l-5.378,1.157l-1.634,4.604l5.651,4.741l4.24,3.294l7.816,5.014l8.604,2.584Z" style="fill:#816b40;"/><path d="M72.136,108.798l7.62,-4.707l4.724,-11.29l-3.045,-10.187l-19.234,-3.159l-6.431,8.204l-1.006,8.217l6.329,7.917l11.043,5.005Z" style="fill:#816b40;"/><path d="M93.911,69.936l8.069,-11.367l-1.707,-6.333l-8.574,-20.565c0,0 -7.897,6.331 -10.383,6.412c-2.486,0.082 -7.683,4.746 -7.683,4.746l3.152,9.879l8.6,6.515l8.526,10.713Z" style="fill:#816b40;"/><path d="M45.809,74.916l10.639,-1.979l10.284,-8.106l-2.016,-8.128l-4.769,-6.067l-7.679,2.079l-4.985,5.743l-3.648,7.022l2.174,9.436" style="fill:#816b40;"/><path d="M104.621,104.243l-9.119,-6.802l-10.415,5.867l-4.461,15.835l14.945,3.236l6.388,-6.256l2.662,-11.88" style="fill:#816b40;"/><path d="M15.272,248.378l-9.713,-5.827l1.145,-6.621l5.192,-3.206l4.056,1.839l4.47,4.721l-0.084,5.965l-5.066,3.129Zm30.283,-25.149l-5.042,5.788l-10.806,-0.905l-2.237,-5.007l-1.605,-8.693l10.343,-12.302l3.071,5.555l5.435,1.018l2.991,10.793l-2.15,3.753Zm-42.702,5.396l-7.47,-8.946l0.628,-16.393l4.862,-8.916l7.639,3.462l3.734,7.253l0.66,11.418l-10.053,12.122Zm100.199,-42.196l-2.703,11.165l-6.408,5.9l-14.931,-2.979l4.517,-14.885l10.432,-5.55l9.093,6.349Zm-39.671,16.637l7.62,-4.706l4.724,-11.29l-3.045,-10.188l-19.234,-3.158l-6.431,8.204l-1.006,8.216l6.329,7.917l11.043,5.005Zm-36.987,-6.72l6.48,-6.462l-3.057,-13.392l-8.623,-2.626l-7.622,-1.538l-2.977,4.211l-3.5,-1.587l-5.378,1.157l-1.634,4.604l5.651,4.741l4.24,3.294l7.816,5.014l8.604,2.584Zm10.66,-27.162l10.639,-1.979l10.285,-8.106l-2.017,-8.128l-4.769,-6.067l-7.679,2.079l-4.984,5.743l-3.648,7.023l2.173,9.435Zm48.102,-4.98l8.069,-11.367l-1.706,-6.333l-8.575,-20.565c0,0 -7.897,6.331 -10.383,6.413c-2.486,0.081 -7.683,4.745 -7.683,4.745l3.152,9.88l8.6,6.514l8.526,10.713Zm-64.517,-7.56l-9.714,-5.827l1.146,-6.621l5.191,-3.206l4.057,1.839l4.47,4.721l-0.085,5.965l-5.065,3.129Zm30.283,-25.149l-5.042,5.788l-10.806,-0.905l-2.238,-5.007l-1.605,-8.693l10.344,-12.302l3.07,5.555l5.436,1.018l2.99,10.793l-2.149,3.753Zm-42.702,5.396l-7.471,-8.946l0.629,-16.393l4.861,-8.916l7.639,3.462l3.734,7.253l0.661,11.418l-10.053,12.122Zm93.013,-30.114l-2.663,11.881l-6.387,6.256l-14.945,-3.237l4.461,-15.834l10.414,-5.868l9.12,6.802Zm-32.486,4.555l7.621,-4.706l4.724,-11.29l-3.046,-10.188l-19.233,-3.158l-6.432,8.204l-1.006,8.216l6.329,7.917l11.043,5.005Zm-36.986,-6.72l6.479,-6.462l-3.056,-13.392l-8.623,-2.626l-7.623,-1.538l-2.976,4.211l-3.5,-1.587l-5.379,1.157l-1.633,4.604l5.651,4.741l4.24,3.294l7.816,5.014l8.604,2.584Zm10.659,-27.162l10.639,-1.979l10.285,-8.106l-2.017,-8.128l-4.768,-6.067l-7.679,2.079l-4.985,5.743l-3.648,7.023l2.173,9.435Zm48.103,-4.98l8.069,-11.367l-1.707,-6.333l-8.575,-20.565c0,0 -7.896,6.331 -10.382,6.413c-2.486,0.081 -7.683,4.745 -7.683,4.745l3.152,9.88l8.599,6.514l8.527,10.713Z" style="fill:#311807;fill-opacity:0.5;"/></g></g><path d="M215.412,54.114l0,26.833l-10.733,-16.099l0,16.099l-8.67,-4.335l4.332,15.49l-14.975,-22.965l0.451,7.746l-5.842,0.317l3.237,11.288l-1.844,14.848l-3.522,-12.351l-4.17,-5.269l1.51,16.756l-11.172,-11.925l3.099,25.283l-6.378,-5.412l-2.98,-10l-4.79,6.386l7.77,17.581l-8.606,-1.063l-10.552,-12.529l-12.03,-5.352l3.04,22.285l-10.106,-13.941l-14.4,20.828l-7.526,-23.07l-4.833,20.348l-9.108,-22.734l-8.08,10.682l0.213,18.707l-4.13,-4.471l-4.102,-18.245l-5.367,8.05l-5.366,13.416l-1.917,-17.058l-8.817,3.427l6.34,-10.967l4.394,-7.601l-8.852,9.792l-4.513,-13.843l-13.468,20.654l-5.367,-27.336l-8.823,20.511l-4.172,-24.747l5.659,-10.166l-14.13,3.669l-5.367,13.416l0,-42.933l107.332,-53.665l107.331,53.665Z" style="fill:#99e164;"/><clipPath id="_clip15"><path d="M215.412,54.114l0,26.833l-10.733,-16.099l0,16.099l-8.67,-4.335l4.332,15.49l-14.975,-22.965l0.451,7.746l-5.842,0.317l3.237,11.288l-1.844,14.848l-3.522,-12.351l-4.17,-5.269l1.51,16.756l-11.172,-11.925l3.099,25.283l-6.378,-5.412l-2.98,-10l-4.79,6.386l7.77,17.581l-8.606,-1.063l-10.552,-12.529l-12.03,-5.352l3.04,22.285l-10.106,-13.941l-14.4,20.828l-7.526,-23.07l-4.833,20.348l-9.108,-22.734l-8.08,10.682l0.213,18.707l-4.13,-4.471l-4.102,-18.245l-5.367,8.05l-5.366,13.416l-1.917,-17.058l-8.817,3.427l6.34,-10.967l4.394,-7.601l-8.852,9.792l-4.513,-13.843l-13.468,20.654l-5.367,-27.336l-8.823,20.511l-4.172,-24.747l5.659,-10.166l-14.13,3.669l-5.367,13.416l0,-42.933l107.332,-53.665l107.331,53.665Z"/></clipPath><g clip-path="url(#_clip15)"><path d="M108.081,107.78l0,45.683l-72.925,-1.647l-34.407,-47.117l0,-50.656l107.332,53.737Z" style="fill:#311807;fill-opacity:0.2;"/><path d="M215.412,107.78l0,-53.666l-107.331,53.666l0,53.666l107.331,-53.666Z" style="fill:#febc3b;fill-opacity:0.2;"/><path d="M215.412,54.114l-2.247,14.977l-10.612,-8.547l-3.241,12.353l-6.985,-1.874l-12.71,-4.378l-1.771,6.252l3.708,14.246c0,0 -16.03,-13.515 -14.441,-8.879c1.589,4.636 5.366,16.209 5.366,16.209l-10.733,-8.159l2.682,22.807l-10.351,-15.909l-3.064,11.571l0,10.942l-16.1,-15.995l-7.94,1.397l-0.548,15.825l-7.611,-7.329l-5.367,14.519l-5.366,-0.262l-7.79,-14.628l-5.219,8.123l-10.144,-14.118l-14.413,12.573l-10.733,5.367l2.546,-22.74l-13.28,12.006l-7.128,-14.297l-6.252,15.621l-8.086,-17.423l-13.381,6.69l13.381,-22.79c0,0 -0.374,-1.702 -2.747,-1.374c-2.374,0.329 -18.719,1.374 -18.719,1.374l-5.367,2.683l-0.071,-26.868l107.331,-53.666l107.403,53.701Z" style="fill:#86cc55;fill-opacity:0.5;"/><path d="M108.045,11.2c0,0 22.197,6.624 42.968,16.082c23.225,10.575 41.515,16.966 42.933,26.832c0.688,4.791 -63.108,40.333 -85.901,42.951c-20.083,2.306 -85.219,-38.894 -85.829,-42.951c-1.173,-7.792 74.909,-45.097 85.829,-42.914Z" style="fill:#61933c;fill-opacity:0.428571;"/><path d="M102.094,25.983c26.612,1.029 30.819,-0.226 41.015,5.821c7.746,4.594 16.418,12.433 15.956,18.382c-1.128,14.521 -25.735,33.177 -42.182,33.929c-7.737,0.354 -23.906,-4.985 -32.666,-7.314c-9.86,-2.623 -20.102,-16.125 -23.281,-20.659c-12.359,-17.628 5.936,-31.522 41.158,-30.159Z" style="fill:#61933c;fill-opacity:0.5;"/></g></g></g></svg>