<?xml version="1.0" encoding="UTF-8" standalone="no"?><!DOCTYPE svg PUBLIC "-//W3C//DTD SVG 1.1//EN" "http://www.w3.org/Graphics/SVG/1.1/DTD/svg11.dtd"><svg width="100%" height="100%" viewBox="0 0 216 139" version="1.1" xmlns="http://www.w3.org/2000/svg" xmlns:xlink="http://www.w3.org/1999/xlink" xml:space="preserve" xmlns:serif="http://www.serif.com/" style="fill-rule:evenodd;clip-rule:evenodd;stroke-linejoin:round;stroke-miterlimit:1.41421;"><g id="GrassBlank08"><path d="M215.624,54.404l0,26.833l-10.733,-16.1l0,16.1l-8.67,-4.335l4.332,15.489l-14.974,-22.964l0.45,7.746l-5.842,0.316l3.238,11.289l-1.845,14.847l-3.522,-12.351l-4.17,-5.269l1.51,16.757l-11.172,-11.926l3.099,25.283l-6.377,-5.411l-2.981,-10.001l-4.79,6.387l7.771,17.581l-8.607,-1.064l-10.552,-12.528l-12.03,-5.352l3.04,22.285l-10.106,-13.942l-14.4,20.828l-7.526,-23.07l-4.833,20.349l-9.107,-22.734l-8.081,10.682l0.214,18.707l-4.131,-4.471l-4.102,-18.246l-5.367,8.05l-5.366,13.417l-1.917,-17.058l-8.816,3.426l6.339,-10.967l4.394,-7.601l-8.851,9.792l-4.514,-13.842l-13.468,20.654l-5.367,-27.337l-8.823,20.512l-4.172,-24.747l5.659,-10.166l-14.13,3.668l-5.366,13.416l0,-42.932l107.331,-53.666l107.331,53.666Z" style="fill:#99e164;"/><clipPath id="_clip1"><path d="M215.624,54.404l0,26.833l-10.733,-16.1l0,16.1l-8.67,-4.335l4.332,15.489l-14.974,-22.964l0.45,7.746l-5.842,0.316l3.238,11.289l-1.845,14.847l-3.522,-12.351l-4.17,-5.269l1.51,16.757l-11.172,-11.926l3.099,25.283l-6.377,-5.411l-2.981,-10.001l-4.79,6.387l7.771,17.581l-8.607,-1.064l-10.552,-12.528l-12.03,-5.352l3.04,22.285l-10.106,-13.942l-14.4,20.828l-7.526,-23.07l-4.833,20.349l-9.107,-22.734l-8.081,10.682l0.214,18.707l-4.131,-4.471l-4.102,-18.246l-5.367,8.05l-5.366,13.417l-1.917,-17.058l-8.816,3.426l6.339,-10.967l4.394,-7.601l-8.851,9.792l-4.514,-13.842l-13.468,20.654l-5.367,-27.337l-8.823,20.512l-4.172,-24.747l5.659,-10.166l-14.13,3.668l-5.366,13.416l0,-42.932l107.331,-53.666l107.331,53.666Z"/></clipPath><g clip-path="url(#_clip1)"><path d="M108.293,108.07l0,45.683l-72.924,-1.647l-34.407,-47.118l0,-50.655l107.331,53.737Z" style="fill:#311807;fill-opacity:0.2;"/><path d="M215.624,108.07l0,-53.666l-107.331,53.666l0,53.665l107.331,-53.665Z" style="fill:#febc3b;fill-opacity:0.2;"/><path d="M215.624,54.404l-2.246,14.976l-10.613,-8.547l-3.241,12.354l-6.985,-1.874l-12.71,-4.378l-1.771,6.252l3.709,14.245c0,0 -16.031,-13.514 -14.442,-8.878c1.589,4.635 5.367,16.208 5.367,16.208l-10.734,-8.159l2.683,22.808l-10.352,-15.909l-3.064,11.571l0,10.942l-16.099,-15.995l-7.94,1.396l-0.549,15.826l-7.611,-7.33l-5.367,14.519l-5.366,-0.262l-7.79,-14.628l-5.219,8.124l-10.143,-14.119l-14.414,12.573l-10.733,5.367l2.547,-22.74l-13.28,12.007l-7.129,-14.297l-6.252,15.621l-8.086,-17.424l-13.38,6.691l13.38,-22.79c0,0 -0.373,-1.702 -2.747,-1.374c-2.373,0.328 -18.719,1.374 -18.719,1.374l-5.366,2.683l-0.072,-26.869l107.332,-53.665l107.402,53.701Z" style="fill:#86cc55;fill-opacity:0.5;"/><path d="M129.759,0.738c0,0 -0.182,0.195 -10.733,5.367c-10.551,5.172 -19.231,9.905 -21.466,21.466c-2.236,11.562 -15.077,22.463 -32.2,21.466c-17.122,-0.996 -42.981,5.495 -53.665,10.734l5.366,45.615l-16.099,-8.116l0,-42.866l0,-10.733l113.666,-50.498l15.131,7.565" style="fill:#61933c;fill-opacity:0.5;"/><path d="M161.958,16.838c0,0 0.268,-0.283 -10.733,5.367c-11,5.649 -3.828,12.233 -21.466,16.099c-17.638,3.867 -31.336,10.938 -34.827,25.519c-3.491,14.582 -5.906,23.628 -18.839,21.403c-12.932,-2.226 -20.888,-14.718 -32.199,-9.356l-5.366,24.15l5.366,36.374l19.498,8.257l34.168,-4.382l3.926,-16.542l-3.926,-21.024c0,0 8.142,-3.756 10.733,-5.367c2.591,-1.61 16.189,-5.168 22.912,-16.822c6.722,-11.654 18.956,-21.982 37.672,-22.651c18.717,-0.668 25.031,-3.196 36.014,-8.826c10.983,-5.629 -42.933,-32.199 -42.933,-32.199" style="fill:#99e164;fill-opacity:0.528571;"/><path d="M215.624,54.404l-10.733,-5.367c0,0 -11.907,6.372 -18.921,7.17c-0.887,0.101 -4.212,1.285 -16.128,1.651c-19.402,0.594 -29.417,9.535 -37.033,20.285c-6.043,8.53 -4.03,8.29 -19.15,16.877c-0.924,0.525 -4.541,1.893 -6.187,2.727c-8.727,4.423 -8.688,4.281 -9.912,4.992l10.733,5.366l0,42.897l107.331,-53.666l0,-42.932" style="fill:#61933c;fill-opacity:0.5;"/></g></g></svg>