<?xml version="1.0" encoding="UTF-8" standalone="no"?><!DOCTYPE svg PUBLIC "-//W3C//DTD SVG 1.1//EN" "http://www.w3.org/Graphics/SVG/1.1/DTD/svg11.dtd"><svg width="100%" height="100%" viewBox="0 0 216 210" version="1.1" xmlns="http://www.w3.org/2000/svg" xmlns:xlink="http://www.w3.org/1999/xlink" xml:space="preserve" xmlns:serif="http://www.serif.com/" style="fill-rule:evenodd;clip-rule:evenodd;stroke-linejoin:round;stroke-miterlimit:1.41421;"><g id="Grass_Block12"><g id="Grass_Block09"><g><path d="M215.504,59.3l0,96.598l-107.331,53.666l0,-96.598l107.331,-53.666Z" style="fill:#a88643;"/><clipPath id="_clip1"><path d="M215.504,59.3l0,96.598l-107.331,53.666l0,-96.598l107.331,-53.666Z"/></clipPath><g clip-path="url(#_clip1)"><path d="M113.701,240.454l-7.471,-8.393l0.629,-15.38l4.861,-8.365l7.639,3.249l3.734,6.804l0.66,10.712l-10.052,11.373" style="fill:#c7a664;"/><path d="M129.543,263.604l-9.713,-5.527l1.146,-6.28l5.191,-3.042l4.056,1.744l4.471,4.478l-0.085,5.659l-5.066,2.968Zm30.283,-23.855l-5.042,5.49l-10.805,-0.858l-2.238,-4.75l-1.605,-8.245l10.343,-11.669l3.071,5.268l5.435,0.966l2.991,10.238l-2.15,3.56Zm-42.701,5.118l-7.471,-8.485l0.629,-15.55l4.861,-8.457l7.639,3.284l3.734,6.879l0.66,10.831l-10.052,11.498Zm93.012,-28.564l-2.662,11.269l-6.387,5.934l-14.945,-3.07l4.461,-15.02l10.414,-5.565l9.119,6.452Zm-32.485,4.321l7.62,-4.465l4.724,-10.709l-3.045,-9.663l-19.233,-2.996l-6.432,7.782l-1.006,7.793l6.329,7.51l11.043,4.748Zm-36.987,-6.375l6.48,-6.129l-3.057,-12.703l-8.623,-2.491l-7.622,-1.459l-2.977,3.994l-3.5,-1.505l-5.378,1.098l-1.634,4.367l5.651,4.497l4.24,3.125l7.816,4.755l8.604,2.451Zm10.66,-25.764l10.639,-1.877l10.285,-7.689l-2.017,-7.71l-4.768,-5.755l-7.68,1.972l-4.984,5.448l-3.648,6.661l2.173,8.95Zm48.103,-4.723l8.068,-10.782l-1.706,-6.008l-8.575,-19.507c0,0 -7.897,6.006 -10.383,6.083c-2.485,0.077 -7.683,4.501 -7.683,4.501l3.152,9.371l8.6,6.18l8.527,10.162Zm-64.518,-7.172l-9.714,-5.527l1.146,-6.28l5.191,-3.041l4.057,1.744l4.47,4.478l-0.085,5.658l-5.065,2.968Zm30.283,-23.855l-5.042,5.49l-10.806,-0.858l-2.238,-4.75l-1.605,-8.245l10.344,-11.669l3.07,5.269l5.436,0.966l2.991,10.237l-2.15,3.56Zm-42.702,5.119l-7.471,-8.486l0.629,-15.55l4.861,-8.457l7.639,3.285l3.734,6.879l0.661,10.831l-10.053,11.498Zm93.013,-28.565l-2.663,11.27l-6.387,5.934l-14.945,-3.071l4.461,-15.019l10.415,-5.566l9.119,6.452Zm-32.486,4.321l7.621,-4.464l4.724,-10.709l-3.045,-9.663l-19.234,-2.996l-6.432,7.781l-1.005,7.794l6.328,7.509l11.043,4.748Zm-36.986,-6.374l6.48,-6.129l-3.057,-12.703l-8.623,-2.491l-7.622,-1.459l-2.977,3.994l-3.5,-1.505l-5.378,1.097l-1.634,4.368l5.651,4.496l4.24,3.125l7.816,4.756l8.604,2.451Zm10.659,-25.764l10.639,-1.878l10.285,-7.689l-2.016,-7.71l-4.769,-5.754l-7.679,1.972l-4.985,5.447l-3.648,6.662l2.173,8.95Zm48.103,-4.724l8.069,-10.782l-1.707,-6.007l-8.574,-19.507c0,0 -7.897,6.005 -10.383,6.083c-2.486,0.077 -7.683,4.501 -7.683,4.501l3.152,9.371l8.6,6.179l8.526,10.162Z" style="fill:#a37841;fill-opacity:0.7;"/><path d="M137.241,210.17l6.48,-6.062l-3.057,-12.565l-8.623,-2.463l-7.622,-1.443l-2.977,3.95l-3.5,-1.489l-5.378,1.086l-1.634,4.32l5.651,4.447l4.24,3.091l7.817,4.704l8.603,2.424Z" style="fill:#c7a664;"/><clipPath id="_clip2"><path d="M137.241,210.17l6.48,-6.062l-3.057,-12.565l-8.623,-2.463l-7.622,-1.443l-2.977,3.95l-3.5,-1.489l-5.378,1.086l-1.634,4.32l5.651,4.447l4.24,3.091l7.817,4.704l8.603,2.424Z"/></clipPath><g clip-path="url(#_clip2)"><path d="M129.543,263.604l-9.713,-5.527l1.146,-6.28l5.191,-3.042l4.056,1.744l4.471,4.478l-0.085,5.659l-5.066,2.968Zm30.283,-23.855l-5.042,5.49l-10.805,-0.858l-2.238,-4.75l-1.605,-8.245l10.343,-11.669l3.071,5.268l5.435,0.966l2.991,10.238l-2.15,3.56Zm-42.701,5.118l-7.471,-8.485l0.629,-15.55l4.861,-8.457l7.639,3.284l3.734,6.879l0.66,10.831l-10.052,11.498Zm93.012,-28.564l-2.662,11.269l-6.387,5.934l-14.945,-3.07l4.461,-15.02l10.414,-5.565l9.119,6.452Zm-32.485,4.321l7.62,-4.465l4.724,-10.709l-3.045,-9.663l-19.233,-2.996l-6.432,7.782l-1.006,7.793l6.329,7.51l11.043,4.748Zm-36.987,-6.375l6.48,-6.129l-3.057,-12.703l-8.623,-2.491l-7.622,-1.459l-2.977,3.994l-3.5,-1.505l-5.378,1.098l-1.634,4.367l5.651,4.497l4.24,3.125l7.816,4.755l8.604,2.451Zm10.66,-25.764l10.639,-1.877l10.285,-7.689l-2.017,-7.71l-4.768,-5.755l-7.68,1.972l-4.984,5.448l-3.648,6.661l2.173,8.95Zm48.103,-4.723l8.068,-10.782l-1.706,-6.008l-8.575,-19.507c0,0 -7.897,6.006 -10.383,6.083c-2.485,0.077 -7.683,4.501 -7.683,4.501l3.152,9.371l8.6,6.18l8.527,10.162Zm-64.518,-7.172l-9.714,-5.527l1.146,-6.28l5.191,-3.041l4.057,1.744l4.47,4.478l-0.085,5.658l-5.065,2.968Zm30.283,-23.855l-5.042,5.49l-10.806,-0.858l-2.238,-4.75l-1.605,-8.245l10.344,-11.669l3.07,5.269l5.436,0.966l2.991,10.237l-2.15,3.56Zm-42.702,5.119l-7.471,-8.486l0.629,-15.55l4.861,-8.457l7.639,3.285l3.734,6.879l0.661,10.831l-10.053,11.498Zm93.013,-28.565l-2.663,11.27l-6.387,5.934l-14.945,-3.071l4.461,-15.019l10.415,-5.566l9.119,6.452Zm-32.486,4.321l7.621,-4.464l4.724,-10.709l-3.045,-9.663l-19.234,-2.996l-6.432,7.781l-1.005,7.794l6.328,7.509l11.043,4.748Zm-36.986,-6.374l6.48,-6.129l-3.057,-12.703l-8.623,-2.491l-7.622,-1.459l-2.977,3.994l-3.5,-1.505l-5.378,1.097l-1.634,4.368l5.651,4.496l4.24,3.125l7.816,4.756l8.604,2.451Zm10.659,-25.764l10.639,-1.878l10.285,-7.689l-2.016,-7.71l-4.769,-5.754l-7.679,1.972l-4.985,5.447l-3.648,6.662l2.173,8.95Zm48.103,-4.724l8.069,-10.782l-1.707,-6.007l-8.574,-19.507c0,0 -7.897,6.005 -10.383,6.083c-2.486,0.077 -7.683,4.501 -7.683,4.501l3.152,9.371l8.6,6.179l8.526,10.162Z" style="fill:#a37841;fill-opacity:0.7;"/></g><path d="M174.228,216.475l7.62,-4.416l4.724,-10.592l-3.045,-9.558l-19.233,-2.963l-6.432,7.697l-1.006,7.708l6.329,7.428l11.043,4.696Z" style="fill:#c7a664;"/><path d="M196.004,180.015l8.068,-10.665l-1.706,-5.942l-8.575,-19.294c0,0 -7.897,5.94 -10.383,6.017c-2.485,0.076 -7.683,4.452 -7.683,4.452l3.152,9.269l8.6,6.112l8.527,10.051Z" style="fill:#c7a664;"/><clipPath id="_clip3"><path d="M196.004,180.015l8.068,-10.665l-1.706,-5.942l-8.575,-19.294c0,0 -7.897,5.94 -10.383,6.017c-2.485,0.076 -7.683,4.452 -7.683,4.452l3.152,9.269l8.6,6.112l8.527,10.051Z"/></clipPath><g clip-path="url(#_clip3)"><path d="M129.543,263.604l-9.713,-5.527l1.146,-6.28l5.191,-3.042l4.056,1.744l4.471,4.478l-0.085,5.659l-5.066,2.968Zm30.283,-23.855l-5.042,5.49l-10.805,-0.858l-2.238,-4.75l-1.605,-8.245l10.343,-11.669l3.071,5.268l5.435,0.966l2.991,10.238l-2.15,3.56Zm-42.701,5.118l-7.471,-8.485l0.629,-15.55l4.861,-8.457l7.639,3.284l3.734,6.879l0.66,10.831l-10.052,11.498Zm93.012,-28.564l-2.662,11.269l-6.387,5.934l-14.945,-3.07l4.461,-15.02l10.414,-5.565l9.119,6.452Zm-32.485,4.321l7.62,-4.465l4.724,-10.709l-3.045,-9.663l-19.233,-2.996l-6.432,7.782l-1.006,7.793l6.329,7.51l11.043,4.748Zm-36.987,-6.375l6.48,-6.129l-3.057,-12.703l-8.623,-2.491l-7.622,-1.459l-2.977,3.994l-3.5,-1.505l-5.378,1.098l-1.634,4.367l5.651,4.497l4.24,3.125l7.816,4.755l8.604,2.451Zm10.66,-25.764l10.639,-1.877l10.285,-7.689l-2.017,-7.71l-4.768,-5.755l-7.68,1.972l-4.984,5.448l-3.648,6.661l2.173,8.95Zm48.103,-4.723l8.068,-10.782l-1.706,-6.008l-8.575,-19.507c0,0 -7.897,6.006 -10.383,6.083c-2.485,0.077 -7.683,4.501 -7.683,4.501l3.152,9.371l8.6,6.18l8.527,10.162Zm-64.518,-7.172l-9.714,-5.527l1.146,-6.28l5.191,-3.041l4.057,1.744l4.47,4.478l-0.085,5.658l-5.065,2.968Zm30.283,-23.855l-5.042,5.49l-10.806,-0.858l-2.238,-4.75l-1.605,-8.245l10.344,-11.669l3.07,5.269l5.436,0.966l2.991,10.237l-2.15,3.56Zm-42.702,5.119l-7.471,-8.486l0.629,-15.55l4.861,-8.457l7.639,3.285l3.734,6.879l0.661,10.831l-10.053,11.498Zm93.013,-28.565l-2.663,11.27l-6.387,5.934l-14.945,-3.071l4.461,-15.019l10.415,-5.566l9.119,6.452Zm-32.486,4.321l7.621,-4.464l4.724,-10.709l-3.045,-9.663l-19.234,-2.996l-6.432,7.781l-1.005,7.794l6.328,7.509l11.043,4.748Zm-36.986,-6.374l6.48,-6.129l-3.057,-12.703l-8.623,-2.491l-7.622,-1.459l-2.977,3.994l-3.5,-1.505l-5.378,1.097l-1.634,4.368l5.651,4.496l4.24,3.125l7.816,4.756l8.604,2.451Zm10.659,-25.764l10.639,-1.878l10.285,-7.689l-2.016,-7.71l-4.769,-5.754l-7.679,1.972l-4.985,5.447l-3.648,6.662l2.173,8.95Zm48.103,-4.724l8.069,-10.782l-1.707,-6.007l-8.574,-19.507c0,0 -7.897,6.005 -10.383,6.083c-2.486,0.077 -7.683,4.501 -7.683,4.501l3.152,9.371l8.6,6.179l8.526,10.162Z" style="fill:#a37841;fill-opacity:0.7;"/></g><path d="M147.901,184.687l10.639,-1.857l10.285,-7.605l-2.017,-7.626l-4.768,-5.692l-7.68,1.95l-4.984,5.389l-3.648,6.588l2.173,8.853" style="fill:#c7a664;"/><clipPath id="_clip4"><path d="M147.901,184.687l10.639,-1.857l10.285,-7.605l-2.017,-7.626l-4.768,-5.692l-7.68,1.95l-4.984,5.389l-3.648,6.588l2.173,8.853"/></clipPath><g clip-path="url(#_clip4)"><path d="M129.543,263.604l-9.713,-5.527l1.146,-6.28l5.191,-3.042l4.056,1.744l4.471,4.478l-0.085,5.659l-5.066,2.968Zm30.283,-23.855l-5.042,5.49l-10.805,-0.858l-2.238,-4.75l-1.605,-8.245l10.343,-11.669l3.071,5.268l5.435,0.966l2.991,10.238l-2.15,3.56Zm-42.701,5.118l-7.471,-8.485l0.629,-15.55l4.861,-8.457l7.639,3.284l3.734,6.879l0.66,10.831l-10.052,11.498Zm93.012,-28.564l-2.662,11.269l-6.387,5.934l-14.945,-3.07l4.461,-15.02l10.414,-5.565l9.119,6.452Zm-32.485,4.321l7.62,-4.465l4.724,-10.709l-3.045,-9.663l-19.233,-2.996l-6.432,7.782l-1.006,7.793l6.329,7.51l11.043,4.748Zm-36.987,-6.375l6.48,-6.129l-3.057,-12.703l-8.623,-2.491l-7.622,-1.459l-2.977,3.994l-3.5,-1.505l-5.378,1.098l-1.634,4.367l5.651,4.497l4.24,3.125l7.816,4.755l8.604,2.451Zm10.66,-25.764l10.639,-1.877l10.285,-7.689l-2.017,-7.71l-4.768,-5.755l-7.68,1.972l-4.984,5.448l-3.648,6.661l2.173,8.95Zm48.103,-4.723l8.068,-10.782l-1.706,-6.008l-8.575,-19.507c0,0 -7.897,6.006 -10.383,6.083c-2.485,0.077 -7.683,4.501 -7.683,4.501l3.152,9.371l8.6,6.18l8.527,10.162Zm-64.518,-7.172l-9.714,-5.527l1.146,-6.28l5.191,-3.041l4.057,1.744l4.47,4.478l-0.085,5.658l-5.065,2.968Zm30.283,-23.855l-5.042,5.49l-10.806,-0.858l-2.238,-4.75l-1.605,-8.245l10.344,-11.669l3.07,5.269l5.436,0.966l2.991,10.237l-2.15,3.56Zm-42.702,5.119l-7.471,-8.486l0.629,-15.55l4.861,-8.457l7.639,3.285l3.734,6.879l0.661,10.831l-10.053,11.498Zm93.013,-28.565l-2.663,11.27l-6.387,5.934l-14.945,-3.071l4.461,-15.019l10.415,-5.566l9.119,6.452Zm-32.486,4.321l7.621,-4.464l4.724,-10.709l-3.045,-9.663l-19.234,-2.996l-6.432,7.781l-1.005,7.794l6.328,7.509l11.043,4.748Zm-36.986,-6.374l6.48,-6.129l-3.057,-12.703l-8.623,-2.491l-7.622,-1.459l-2.977,3.994l-3.5,-1.505l-5.378,1.097l-1.634,4.368l5.651,4.496l4.24,3.125l7.816,4.756l8.604,2.451Zm10.659,-25.764l10.639,-1.878l10.285,-7.689l-2.016,-7.71l-4.769,-5.754l-7.679,1.972l-4.985,5.447l-3.648,6.662l2.173,8.95Zm48.103,-4.724l8.069,-10.782l-1.707,-6.007l-8.574,-19.507c0,0 -7.897,6.005 -10.383,6.083c-2.486,0.077 -7.683,4.501 -7.683,4.501l3.152,9.371l8.6,6.179l8.526,10.162Z" style="fill:#a37841;fill-opacity:0.7;"/></g><path d="M206.713,212.201l-9.119,-6.381l-10.414,5.505l-4.461,14.855l14.945,3.037l6.387,-5.869l2.662,-11.147" style="fill:#c7a664;"/><clipPath id="_clip5"><path d="M206.713,212.201l-9.119,-6.381l-10.414,5.505l-4.461,14.855l14.945,3.037l6.387,-5.869l2.662,-11.147"/></clipPath><g clip-path="url(#_clip5)"><path d="M129.543,263.604l-9.713,-5.527l1.146,-6.28l5.191,-3.042l4.056,1.744l4.471,4.478l-0.085,5.659l-5.066,2.968Zm30.283,-23.855l-5.042,5.49l-10.805,-0.858l-2.238,-4.75l-1.605,-8.245l10.343,-11.669l3.071,5.268l5.435,0.966l2.991,10.238l-2.15,3.56Zm-42.701,5.118l-7.471,-8.485l0.629,-15.55l4.861,-8.457l7.639,3.284l3.734,6.879l0.66,10.831l-10.052,11.498Zm93.012,-28.564l-2.662,11.269l-6.387,5.934l-14.945,-3.07l4.461,-15.02l10.414,-5.565l9.119,6.452Zm-32.485,4.321l7.62,-4.465l4.724,-10.709l-3.045,-9.663l-19.233,-2.996l-6.432,7.782l-1.006,7.793l6.329,7.51l11.043,4.748Zm-36.987,-6.375l6.48,-6.129l-3.057,-12.703l-8.623,-2.491l-7.622,-1.459l-2.977,3.994l-3.5,-1.505l-5.378,1.098l-1.634,4.367l5.651,4.497l4.24,3.125l7.816,4.755l8.604,2.451Zm10.66,-25.764l10.639,-1.877l10.285,-7.689l-2.017,-7.71l-4.768,-5.755l-7.68,1.972l-4.984,5.448l-3.648,6.661l2.173,8.95Zm48.103,-4.723l8.068,-10.782l-1.706,-6.008l-8.575,-19.507c0,0 -7.897,6.006 -10.383,6.083c-2.485,0.077 -7.683,4.501 -7.683,4.501l3.152,9.371l8.6,6.18l8.527,10.162Zm-64.518,-7.172l-9.714,-5.527l1.146,-6.28l5.191,-3.041l4.057,1.744l4.47,4.478l-0.085,5.658l-5.065,2.968Zm30.283,-23.855l-5.042,5.49l-10.806,-0.858l-2.238,-4.75l-1.605,-8.245l10.344,-11.669l3.07,5.269l5.436,0.966l2.991,10.237l-2.15,3.56Zm-42.702,5.119l-7.471,-8.486l0.629,-15.55l4.861,-8.457l7.639,3.285l3.734,6.879l0.661,10.831l-10.053,11.498Zm93.013,-28.565l-2.663,11.27l-6.387,5.934l-14.945,-3.071l4.461,-15.019l10.415,-5.566l9.119,6.452Zm-32.486,4.321l7.621,-4.464l4.724,-10.709l-3.045,-9.663l-19.234,-2.996l-6.432,7.781l-1.005,7.794l6.328,7.509l11.043,4.748Zm-36.986,-6.374l6.48,-6.129l-3.057,-12.703l-8.623,-2.491l-7.622,-1.459l-2.977,3.994l-3.5,-1.505l-5.378,1.097l-1.634,4.368l5.651,4.496l4.24,3.125l7.816,4.756l8.604,2.451Zm10.659,-25.764l10.639,-1.878l10.285,-7.689l-2.016,-7.71l-4.769,-5.754l-7.679,1.972l-4.985,5.447l-3.648,6.662l2.173,8.95Zm48.103,-4.724l8.069,-10.782l-1.707,-6.007l-8.574,-19.507c0,0 -7.897,6.005 -10.383,6.083c-2.486,0.077 -7.683,4.501 -7.683,4.501l3.152,9.371l8.6,6.179l8.526,10.162Z" style="fill:#a37841;fill-opacity:0.7;"/></g><path d="M119.067,154.389l-7.47,-8.393l0.628,-15.38l4.861,-8.365l7.639,3.249l3.735,6.804l0.66,10.712l-10.053,11.373" style="fill:#c7a664;"/><clipPath id="_clip6"><path d="M119.067,154.389l-7.47,-8.393l0.628,-15.38l4.861,-8.365l7.639,3.249l3.735,6.804l0.66,10.712l-10.053,11.373"/></clipPath><g clip-path="url(#_clip6)"><path d="M129.543,263.604l-9.713,-5.527l1.146,-6.28l5.191,-3.042l4.056,1.744l4.471,4.478l-0.085,5.659l-5.066,2.968Zm30.283,-23.855l-5.042,5.49l-10.805,-0.858l-2.238,-4.75l-1.605,-8.245l10.343,-11.669l3.071,5.268l5.435,0.966l2.991,10.238l-2.15,3.56Zm-42.701,5.118l-7.471,-8.485l0.629,-15.55l4.861,-8.457l7.639,3.284l3.734,6.879l0.66,10.831l-10.052,11.498Zm93.012,-28.564l-2.662,11.269l-6.387,5.934l-14.945,-3.07l4.461,-15.02l10.414,-5.565l9.119,6.452Zm-32.485,4.321l7.62,-4.465l4.724,-10.709l-3.045,-9.663l-19.233,-2.996l-6.432,7.782l-1.006,7.793l6.329,7.51l11.043,4.748Zm-36.987,-6.375l6.48,-6.129l-3.057,-12.703l-8.623,-2.491l-7.622,-1.459l-2.977,3.994l-3.5,-1.505l-5.378,1.098l-1.634,4.367l5.651,4.497l4.24,3.125l7.816,4.755l8.604,2.451Zm10.66,-25.764l10.639,-1.877l10.285,-7.689l-2.017,-7.71l-4.768,-5.755l-7.68,1.972l-4.984,5.448l-3.648,6.661l2.173,8.95Zm48.103,-4.723l8.068,-10.782l-1.706,-6.008l-8.575,-19.507c0,0 -7.897,6.006 -10.383,6.083c-2.485,0.077 -7.683,4.501 -7.683,4.501l3.152,9.371l8.6,6.18l8.527,10.162Zm-64.518,-7.172l-9.714,-5.527l1.146,-6.28l5.191,-3.041l4.057,1.744l4.47,4.478l-0.085,5.658l-5.065,2.968Zm30.283,-23.855l-5.042,5.49l-10.806,-0.858l-2.238,-4.75l-1.605,-8.245l10.344,-11.669l3.07,5.269l5.436,0.966l2.991,10.237l-2.15,3.56Zm-42.702,5.119l-7.471,-8.486l0.629,-15.55l4.861,-8.457l7.639,3.285l3.734,6.879l0.661,10.831l-10.053,11.498Zm93.013,-28.565l-2.663,11.27l-6.387,5.934l-14.945,-3.071l4.461,-15.019l10.415,-5.566l9.119,6.452Zm-32.486,4.321l7.621,-4.464l4.724,-10.709l-3.045,-9.663l-19.234,-2.996l-6.432,7.781l-1.005,7.794l6.328,7.509l11.043,4.748Zm-36.986,-6.374l6.48,-6.129l-3.057,-12.703l-8.623,-2.491l-7.622,-1.459l-2.977,3.994l-3.5,-1.505l-5.378,1.097l-1.634,4.368l5.651,4.496l4.24,3.125l7.816,4.756l8.604,2.451Zm10.659,-25.764l10.639,-1.878l10.285,-7.689l-2.016,-7.71l-4.769,-5.754l-7.679,1.972l-4.985,5.447l-3.648,6.662l2.173,8.95Zm48.103,-4.724l8.069,-10.782l-1.707,-6.007l-8.574,-19.507c0,0 -7.897,6.005 -10.383,6.083c-2.486,0.077 -7.683,4.501 -7.683,4.501l3.152,9.371l8.6,6.179l8.526,10.162Z" style="fill:#a37841;fill-opacity:0.7;"/></g><path d="M131.486,172.921l-9.714,-5.466l1.146,-6.212l5.191,-3.008l4.057,1.725l4.47,4.429l-0.085,5.597l-5.065,2.935Z" style="fill:#c7a664;"/><clipPath id="_clip7"><path d="M131.486,172.921l-9.714,-5.466l1.146,-6.212l5.191,-3.008l4.057,1.725l4.47,4.429l-0.085,5.597l-5.065,2.935Z"/></clipPath><g clip-path="url(#_clip7)"><path d="M129.543,263.604l-9.713,-5.527l1.146,-6.28l5.191,-3.042l4.056,1.744l4.471,4.478l-0.085,5.659l-5.066,2.968Zm30.283,-23.855l-5.042,5.49l-10.805,-0.858l-2.238,-4.75l-1.605,-8.245l10.343,-11.669l3.071,5.268l5.435,0.966l2.991,10.238l-2.15,3.56Zm-42.701,5.118l-7.471,-8.485l0.629,-15.55l4.861,-8.457l7.639,3.284l3.734,6.879l0.66,10.831l-10.052,11.498Zm93.012,-28.564l-2.662,11.269l-6.387,5.934l-14.945,-3.07l4.461,-15.02l10.414,-5.565l9.119,6.452Zm-32.485,4.321l7.62,-4.465l4.724,-10.709l-3.045,-9.663l-19.233,-2.996l-6.432,7.782l-1.006,7.793l6.329,7.51l11.043,4.748Zm-36.987,-6.375l6.48,-6.129l-3.057,-12.703l-8.623,-2.491l-7.622,-1.459l-2.977,3.994l-3.5,-1.505l-5.378,1.098l-1.634,4.367l5.651,4.497l4.24,3.125l7.816,4.755l8.604,2.451Zm10.66,-25.764l10.639,-1.877l10.285,-7.689l-2.017,-7.71l-4.768,-5.755l-7.68,1.972l-4.984,5.448l-3.648,6.661l2.173,8.95Zm48.103,-4.723l8.068,-10.782l-1.706,-6.008l-8.575,-19.507c0,0 -7.897,6.006 -10.383,6.083c-2.485,0.077 -7.683,4.501 -7.683,4.501l3.152,9.371l8.6,6.18l8.527,10.162Zm-64.518,-7.172l-9.714,-5.527l1.146,-6.28l5.191,-3.041l4.057,1.744l4.47,4.478l-0.085,5.658l-5.065,2.968Zm30.283,-23.855l-5.042,5.49l-10.806,-0.858l-2.238,-4.75l-1.605,-8.245l10.344,-11.669l3.07,5.269l5.436,0.966l2.991,10.237l-2.15,3.56Zm-42.702,5.119l-7.471,-8.486l0.629,-15.55l4.861,-8.457l7.639,3.285l3.734,6.879l0.661,10.831l-10.053,11.498Zm93.013,-28.565l-2.663,11.27l-6.387,5.934l-14.945,-3.071l4.461,-15.019l10.415,-5.566l9.119,6.452Zm-32.486,4.321l7.621,-4.464l4.724,-10.709l-3.045,-9.663l-19.234,-2.996l-6.432,7.781l-1.005,7.794l6.328,7.509l11.043,4.748Zm-36.986,-6.374l6.48,-6.129l-3.057,-12.703l-8.623,-2.491l-7.622,-1.459l-2.977,3.994l-3.5,-1.505l-5.378,1.097l-1.634,4.368l5.651,4.496l4.24,3.125l7.816,4.756l8.604,2.451Zm10.659,-25.764l10.639,-1.878l10.285,-7.689l-2.016,-7.71l-4.769,-5.754l-7.679,1.972l-4.985,5.447l-3.648,6.662l2.173,8.95Zm48.103,-4.724l8.069,-10.782l-1.707,-6.007l-8.574,-19.507c0,0 -7.897,6.005 -10.383,6.083c-2.486,0.077 -7.683,4.501 -7.683,4.501l3.152,9.371l8.6,6.179l8.526,10.162Z" style="fill:#a37841;fill-opacity:0.7;"/></g><path d="M161.769,149.326l-5.042,5.431l-10.806,-0.849l-2.237,-4.698l-1.606,-8.155l10.344,-11.542l3.07,5.211l5.436,0.955l2.991,10.126l-2.15,3.521" style="fill:#c7a664;"/><clipPath id="_clip8"><path d="M161.769,149.326l-5.042,5.431l-10.806,-0.849l-2.237,-4.698l-1.606,-8.155l10.344,-11.542l3.07,5.211l5.436,0.955l2.991,10.126l-2.15,3.521"/></clipPath><g clip-path="url(#_clip8)"><path d="M129.543,263.604l-9.713,-5.527l1.146,-6.28l5.191,-3.042l4.056,1.744l4.471,4.478l-0.085,5.659l-5.066,2.968Zm30.283,-23.855l-5.042,5.49l-10.805,-0.858l-2.238,-4.75l-1.605,-8.245l10.343,-11.669l3.071,5.268l5.435,0.966l2.991,10.238l-2.15,3.56Zm-42.701,5.118l-7.471,-8.485l0.629,-15.55l4.861,-8.457l7.639,3.284l3.734,6.879l0.66,10.831l-10.052,11.498Zm93.012,-28.564l-2.662,11.269l-6.387,5.934l-14.945,-3.07l4.461,-15.02l10.414,-5.565l9.119,6.452Zm-32.485,4.321l7.62,-4.465l4.724,-10.709l-3.045,-9.663l-19.233,-2.996l-6.432,7.782l-1.006,7.793l6.329,7.51l11.043,4.748Zm-36.987,-6.375l6.48,-6.129l-3.057,-12.703l-8.623,-2.491l-7.622,-1.459l-2.977,3.994l-3.5,-1.505l-5.378,1.098l-1.634,4.367l5.651,4.497l4.24,3.125l7.816,4.755l8.604,2.451Zm10.66,-25.764l10.639,-1.877l10.285,-7.689l-2.017,-7.71l-4.768,-5.755l-7.68,1.972l-4.984,5.448l-3.648,6.661l2.173,8.95Zm48.103,-4.723l8.068,-10.782l-1.706,-6.008l-8.575,-19.507c0,0 -7.897,6.006 -10.383,6.083c-2.485,0.077 -7.683,4.501 -7.683,4.501l3.152,9.371l8.6,6.18l8.527,10.162Zm-64.518,-7.172l-9.714,-5.527l1.146,-6.28l5.191,-3.041l4.057,1.744l4.47,4.478l-0.085,5.658l-5.065,2.968Zm30.283,-23.855l-5.042,5.49l-10.806,-0.858l-2.238,-4.75l-1.605,-8.245l10.344,-11.669l3.07,5.269l5.436,0.966l2.991,10.237l-2.15,3.56Zm-42.702,5.119l-7.471,-8.486l0.629,-15.55l4.861,-8.457l7.639,3.285l3.734,6.879l0.661,10.831l-10.053,11.498Zm93.013,-28.565l-2.663,11.27l-6.387,5.934l-14.945,-3.071l4.461,-15.019l10.415,-5.566l9.119,6.452Zm-32.486,4.321l7.621,-4.464l4.724,-10.709l-3.045,-9.663l-19.234,-2.996l-6.432,7.781l-1.005,7.794l6.328,7.509l11.043,4.748Zm-36.986,-6.374l6.48,-6.129l-3.057,-12.703l-8.623,-2.491l-7.622,-1.459l-2.977,3.994l-3.5,-1.505l-5.378,1.097l-1.634,4.368l5.651,4.496l4.24,3.125l7.816,4.756l8.604,2.451Zm10.659,-25.764l10.639,-1.878l10.285,-7.689l-2.016,-7.71l-4.769,-5.754l-7.679,1.972l-4.985,5.447l-3.648,6.662l2.173,8.95Zm48.103,-4.724l8.069,-10.782l-1.707,-6.007l-8.574,-19.507c0,0 -7.897,6.005 -10.383,6.083c-2.486,0.077 -7.683,4.501 -7.683,4.501l3.152,9.371l8.6,6.179l8.526,10.162Z" style="fill:#a37841;fill-opacity:0.7;"/></g><path d="M142.608,124.105l6.48,-6.062l-3.057,-12.565l-8.623,-2.463l-7.622,-1.444l-2.977,3.951l-3.5,-1.489l-5.378,1.086l-1.634,4.319l5.651,4.448l4.24,3.091l7.816,4.704l8.604,2.424Z" style="fill:#c7a664;"/><clipPath id="_clip9"><path d="M142.608,124.105l6.48,-6.062l-3.057,-12.565l-8.623,-2.463l-7.622,-1.444l-2.977,3.951l-3.5,-1.489l-5.378,1.086l-1.634,4.319l5.651,4.448l4.24,3.091l7.816,4.704l8.604,2.424Z"/></clipPath><g clip-path="url(#_clip9)"><path d="M129.543,263.604l-9.713,-5.527l1.146,-6.28l5.191,-3.042l4.056,1.744l4.471,4.478l-0.085,5.659l-5.066,2.968Zm30.283,-23.855l-5.042,5.49l-10.805,-0.858l-2.238,-4.75l-1.605,-8.245l10.343,-11.669l3.071,5.268l5.435,0.966l2.991,10.238l-2.15,3.56Zm-42.701,5.118l-7.471,-8.485l0.629,-15.55l4.861,-8.457l7.639,3.284l3.734,6.879l0.66,10.831l-10.052,11.498Zm93.012,-28.564l-2.662,11.269l-6.387,5.934l-14.945,-3.07l4.461,-15.02l10.414,-5.565l9.119,6.452Zm-32.485,4.321l7.62,-4.465l4.724,-10.709l-3.045,-9.663l-19.233,-2.996l-6.432,7.782l-1.006,7.793l6.329,7.51l11.043,4.748Zm-36.987,-6.375l6.48,-6.129l-3.057,-12.703l-8.623,-2.491l-7.622,-1.459l-2.977,3.994l-3.5,-1.505l-5.378,1.098l-1.634,4.367l5.651,4.497l4.24,3.125l7.816,4.755l8.604,2.451Zm10.66,-25.764l10.639,-1.877l10.285,-7.689l-2.017,-7.71l-4.768,-5.755l-7.68,1.972l-4.984,5.448l-3.648,6.661l2.173,8.95Zm48.103,-4.723l8.068,-10.782l-1.706,-6.008l-8.575,-19.507c0,0 -7.897,6.006 -10.383,6.083c-2.485,0.077 -7.683,4.501 -7.683,4.501l3.152,9.371l8.6,6.18l8.527,10.162Zm-64.518,-7.172l-9.714,-5.527l1.146,-6.28l5.191,-3.041l4.057,1.744l4.47,4.478l-0.085,5.658l-5.065,2.968Zm30.283,-23.855l-5.042,5.49l-10.806,-0.858l-2.238,-4.75l-1.605,-8.245l10.344,-11.669l3.07,5.269l5.436,0.966l2.991,10.237l-2.15,3.56Zm-42.702,5.119l-7.471,-8.486l0.629,-15.55l4.861,-8.457l7.639,3.285l3.734,6.879l0.661,10.831l-10.053,11.498Zm93.013,-28.565l-2.663,11.27l-6.387,5.934l-14.945,-3.071l4.461,-15.019l10.415,-5.566l9.119,6.452Zm-32.486,4.321l7.621,-4.464l4.724,-10.709l-3.045,-9.663l-19.234,-2.996l-6.432,7.781l-1.005,7.794l6.328,7.509l11.043,4.748Zm-36.986,-6.374l6.48,-6.129l-3.057,-12.703l-8.623,-2.491l-7.622,-1.459l-2.977,3.994l-3.5,-1.505l-5.378,1.097l-1.634,4.368l5.651,4.496l4.24,3.125l7.816,4.756l8.604,2.451Zm10.659,-25.764l10.639,-1.878l10.285,-7.689l-2.016,-7.71l-4.769,-5.754l-7.679,1.972l-4.985,5.447l-3.648,6.662l2.173,8.95Zm48.103,-4.724l8.069,-10.782l-1.707,-6.007l-8.574,-19.507c0,0 -7.897,6.005 -10.383,6.083c-2.486,0.077 -7.683,4.501 -7.683,4.501l3.152,9.371l8.6,6.179l8.526,10.162Z" style="fill:#a37841;fill-opacity:0.7;"/></g><path d="M179.594,130.41l7.621,-4.416l4.724,-10.592l-3.045,-9.558l-19.234,-2.963l-6.431,7.697l-1.006,7.708l6.329,7.428l11.042,4.696Z" style="fill:#c7a664;"/><clipPath id="_clip10"><path d="M179.594,130.41l7.621,-4.416l4.724,-10.592l-3.045,-9.558l-19.234,-2.963l-6.431,7.697l-1.006,7.708l6.329,7.428l11.042,4.696Z"/></clipPath><g clip-path="url(#_clip10)"><path d="M129.543,263.604l-9.713,-5.527l1.146,-6.28l5.191,-3.042l4.056,1.744l4.471,4.478l-0.085,5.659l-5.066,2.968Zm30.283,-23.855l-5.042,5.49l-10.805,-0.858l-2.238,-4.75l-1.605,-8.245l10.343,-11.669l3.071,5.268l5.435,0.966l2.991,10.238l-2.15,3.56Zm-42.701,5.118l-7.471,-8.485l0.629,-15.55l4.861,-8.457l7.639,3.284l3.734,6.879l0.66,10.831l-10.052,11.498Zm93.012,-28.564l-2.662,11.269l-6.387,5.934l-14.945,-3.07l4.461,-15.02l10.414,-5.565l9.119,6.452Zm-32.485,4.321l7.62,-4.465l4.724,-10.709l-3.045,-9.663l-19.233,-2.996l-6.432,7.782l-1.006,7.793l6.329,7.51l11.043,4.748Zm-36.987,-6.375l6.48,-6.129l-3.057,-12.703l-8.623,-2.491l-7.622,-1.459l-2.977,3.994l-3.5,-1.505l-5.378,1.098l-1.634,4.367l5.651,4.497l4.24,3.125l7.816,4.755l8.604,2.451Zm10.66,-25.764l10.639,-1.877l10.285,-7.689l-2.017,-7.71l-4.768,-5.755l-7.68,1.972l-4.984,5.448l-3.648,6.661l2.173,8.95Zm48.103,-4.723l8.068,-10.782l-1.706,-6.008l-8.575,-19.507c0,0 -7.897,6.006 -10.383,6.083c-2.485,0.077 -7.683,4.501 -7.683,4.501l3.152,9.371l8.6,6.18l8.527,10.162Zm-64.518,-7.172l-9.714,-5.527l1.146,-6.28l5.191,-3.041l4.057,1.744l4.47,4.478l-0.085,5.658l-5.065,2.968Zm30.283,-23.855l-5.042,5.49l-10.806,-0.858l-2.238,-4.75l-1.605,-8.245l10.344,-11.669l3.07,5.269l5.436,0.966l2.991,10.237l-2.15,3.56Zm-42.702,5.119l-7.471,-8.486l0.629,-15.55l4.861,-8.457l7.639,3.285l3.734,6.879l0.661,10.831l-10.053,11.498Zm93.013,-28.565l-2.663,11.27l-6.387,5.934l-14.945,-3.071l4.461,-15.019l10.415,-5.566l9.119,6.452Zm-32.486,4.321l7.621,-4.464l4.724,-10.709l-3.045,-9.663l-19.234,-2.996l-6.432,7.781l-1.005,7.794l6.328,7.509l11.043,4.748Zm-36.986,-6.374l6.48,-6.129l-3.057,-12.703l-8.623,-2.491l-7.622,-1.459l-2.977,3.994l-3.5,-1.505l-5.378,1.097l-1.634,4.368l5.651,4.496l4.24,3.125l7.816,4.756l8.604,2.451Zm10.659,-25.764l10.639,-1.878l10.285,-7.689l-2.016,-7.71l-4.769,-5.754l-7.679,1.972l-4.985,5.447l-3.648,6.662l2.173,8.95Zm48.103,-4.724l8.069,-10.782l-1.707,-6.007l-8.574,-19.507c0,0 -7.897,6.005 -10.383,6.083c-2.486,0.077 -7.683,4.501 -7.683,4.501l3.152,9.371l8.6,6.179l8.526,10.162Z" style="fill:#a37841;fill-opacity:0.7;"/></g><path d="M201.37,93.95l8.069,-10.665l-1.707,-5.942l-8.574,-19.294c0,0 -7.897,5.94 -10.383,6.016c-2.486,0.077 -7.683,4.453 -7.683,4.453l3.152,9.269l8.6,6.112l8.526,10.051Z" style="fill:#c7a664;"/><clipPath id="_clip11"><path d="M201.37,93.95l8.069,-10.665l-1.707,-5.942l-8.574,-19.294c0,0 -7.897,5.94 -10.383,6.016c-2.486,0.077 -7.683,4.453 -7.683,4.453l3.152,9.269l8.6,6.112l8.526,10.051Z"/></clipPath><g clip-path="url(#_clip11)"><path d="M129.543,263.604l-9.713,-5.527l1.146,-6.28l5.191,-3.042l4.056,1.744l4.471,4.478l-0.085,5.659l-5.066,2.968Zm30.283,-23.855l-5.042,5.49l-10.805,-0.858l-2.238,-4.75l-1.605,-8.245l10.343,-11.669l3.071,5.268l5.435,0.966l2.991,10.238l-2.15,3.56Zm-42.701,5.118l-7.471,-8.485l0.629,-15.55l4.861,-8.457l7.639,3.284l3.734,6.879l0.66,10.831l-10.052,11.498Zm93.012,-28.564l-2.662,11.269l-6.387,5.934l-14.945,-3.07l4.461,-15.02l10.414,-5.565l9.119,6.452Zm-32.485,4.321l7.62,-4.465l4.724,-10.709l-3.045,-9.663l-19.233,-2.996l-6.432,7.782l-1.006,7.793l6.329,7.51l11.043,4.748Zm-36.987,-6.375l6.48,-6.129l-3.057,-12.703l-8.623,-2.491l-7.622,-1.459l-2.977,3.994l-3.5,-1.505l-5.378,1.098l-1.634,4.367l5.651,4.497l4.24,3.125l7.816,4.755l8.604,2.451Zm10.66,-25.764l10.639,-1.877l10.285,-7.689l-2.017,-7.71l-4.768,-5.755l-7.68,1.972l-4.984,5.448l-3.648,6.661l2.173,8.95Zm48.103,-4.723l8.068,-10.782l-1.706,-6.008l-8.575,-19.507c0,0 -7.897,6.006 -10.383,6.083c-2.485,0.077 -7.683,4.501 -7.683,4.501l3.152,9.371l8.6,6.18l8.527,10.162Zm-64.518,-7.172l-9.714,-5.527l1.146,-6.28l5.191,-3.041l4.057,1.744l4.47,4.478l-0.085,5.658l-5.065,2.968Zm30.283,-23.855l-5.042,5.49l-10.806,-0.858l-2.238,-4.75l-1.605,-8.245l10.344,-11.669l3.07,5.269l5.436,0.966l2.991,10.237l-2.15,3.56Zm-42.702,5.119l-7.471,-8.486l0.629,-15.55l4.861,-8.457l7.639,3.285l3.734,6.879l0.661,10.831l-10.053,11.498Zm93.013,-28.565l-2.663,11.27l-6.387,5.934l-14.945,-3.071l4.461,-15.019l10.415,-5.566l9.119,6.452Zm-32.486,4.321l7.621,-4.464l4.724,-10.709l-3.045,-9.663l-19.234,-2.996l-6.432,7.781l-1.005,7.794l6.328,7.509l11.043,4.748Zm-36.986,-6.374l6.48,-6.129l-3.057,-12.703l-8.623,-2.491l-7.622,-1.459l-2.977,3.994l-3.5,-1.505l-5.378,1.097l-1.634,4.368l5.651,4.496l4.24,3.125l7.816,4.756l8.604,2.451Zm10.659,-25.764l10.639,-1.878l10.285,-7.689l-2.016,-7.71l-4.769,-5.754l-7.679,1.972l-4.985,5.447l-3.648,6.662l2.173,8.95Zm48.103,-4.724l8.069,-10.782l-1.707,-6.007l-8.574,-19.507c0,0 -7.897,6.005 -10.383,6.083c-2.486,0.077 -7.683,4.501 -7.683,4.501l3.152,9.371l8.6,6.179l8.526,10.162Z" style="fill:#a37841;fill-opacity:0.7;"/></g><path d="M153.267,98.622l10.639,-1.857l10.285,-7.605l-2.016,-7.626l-4.769,-5.692l-7.679,1.95l-4.985,5.389l-3.648,6.588l2.173,8.853" style="fill:#c7a664;"/><clipPath id="_clip12"><path d="M153.267,98.622l10.639,-1.857l10.285,-7.605l-2.016,-7.626l-4.769,-5.692l-7.679,1.95l-4.985,5.389l-3.648,6.588l2.173,8.853"/></clipPath><g clip-path="url(#_clip12)"><path d="M129.543,263.604l-9.713,-5.527l1.146,-6.28l5.191,-3.042l4.056,1.744l4.471,4.478l-0.085,5.659l-5.066,2.968Zm30.283,-23.855l-5.042,5.49l-10.805,-0.858l-2.238,-4.75l-1.605,-8.245l10.343,-11.669l3.071,5.268l5.435,0.966l2.991,10.238l-2.15,3.56Zm-42.701,5.118l-7.471,-8.485l0.629,-15.55l4.861,-8.457l7.639,3.284l3.734,6.879l0.66,10.831l-10.052,11.498Zm93.012,-28.564l-2.662,11.269l-6.387,5.934l-14.945,-3.07l4.461,-15.02l10.414,-5.565l9.119,6.452Zm-32.485,4.321l7.62,-4.465l4.724,-10.709l-3.045,-9.663l-19.233,-2.996l-6.432,7.782l-1.006,7.793l6.329,7.51l11.043,4.748Zm-36.987,-6.375l6.48,-6.129l-3.057,-12.703l-8.623,-2.491l-7.622,-1.459l-2.977,3.994l-3.5,-1.505l-5.378,1.098l-1.634,4.367l5.651,4.497l4.24,3.125l7.816,4.755l8.604,2.451Zm10.66,-25.764l10.639,-1.877l10.285,-7.689l-2.017,-7.71l-4.768,-5.755l-7.68,1.972l-4.984,5.448l-3.648,6.661l2.173,8.95Zm48.103,-4.723l8.068,-10.782l-1.706,-6.008l-8.575,-19.507c0,0 -7.897,6.006 -10.383,6.083c-2.485,0.077 -7.683,4.501 -7.683,4.501l3.152,9.371l8.6,6.18l8.527,10.162Zm-64.518,-7.172l-9.714,-5.527l1.146,-6.28l5.191,-3.041l4.057,1.744l4.47,4.478l-0.085,5.658l-5.065,2.968Zm30.283,-23.855l-5.042,5.49l-10.806,-0.858l-2.238,-4.75l-1.605,-8.245l10.344,-11.669l3.07,5.269l5.436,0.966l2.991,10.237l-2.15,3.56Zm-42.702,5.119l-7.471,-8.486l0.629,-15.55l4.861,-8.457l7.639,3.285l3.734,6.879l0.661,10.831l-10.053,11.498Zm93.013,-28.565l-2.663,11.27l-6.387,5.934l-14.945,-3.071l4.461,-15.019l10.415,-5.566l9.119,6.452Zm-32.486,4.321l7.621,-4.464l4.724,-10.709l-3.045,-9.663l-19.234,-2.996l-6.432,7.781l-1.005,7.794l6.328,7.509l11.043,4.748Zm-36.986,-6.374l6.48,-6.129l-3.057,-12.703l-8.623,-2.491l-7.622,-1.459l-2.977,3.994l-3.5,-1.505l-5.378,1.097l-1.634,4.368l5.651,4.496l4.24,3.125l7.816,4.756l8.604,2.451Zm10.659,-25.764l10.639,-1.878l10.285,-7.689l-2.016,-7.71l-4.769,-5.754l-7.679,1.972l-4.985,5.447l-3.648,6.662l2.173,8.95Zm48.103,-4.724l8.069,-10.782l-1.707,-6.007l-8.574,-19.507c0,0 -7.897,6.005 -10.383,6.083c-2.486,0.077 -7.683,4.501 -7.683,4.501l3.152,9.371l8.6,6.179l8.526,10.162Z" style="fill:#a37841;fill-opacity:0.7;"/></g><path d="M212.08,126.136l-9.119,-6.381l-10.415,5.504l-4.461,14.856l14.945,3.037l6.388,-5.869l2.662,-11.147" style="fill:#c7a664;"/><clipPath id="_clip13"><path d="M212.08,126.136l-9.119,-6.381l-10.415,5.504l-4.461,14.856l14.945,3.037l6.388,-5.869l2.662,-11.147"/></clipPath><g clip-path="url(#_clip13)"><path d="M129.543,263.604l-9.713,-5.527l1.146,-6.28l5.191,-3.042l4.056,1.744l4.471,4.478l-0.085,5.659l-5.066,2.968Zm30.283,-23.855l-5.042,5.49l-10.805,-0.858l-2.238,-4.75l-1.605,-8.245l10.343,-11.669l3.071,5.268l5.435,0.966l2.991,10.238l-2.15,3.56Zm-42.701,5.118l-7.471,-8.485l0.629,-15.55l4.861,-8.457l7.639,3.284l3.734,6.879l0.66,10.831l-10.052,11.498Zm93.012,-28.564l-2.662,11.269l-6.387,5.934l-14.945,-3.07l4.461,-15.02l10.414,-5.565l9.119,6.452Zm-32.485,4.321l7.62,-4.465l4.724,-10.709l-3.045,-9.663l-19.233,-2.996l-6.432,7.782l-1.006,7.793l6.329,7.51l11.043,4.748Zm-36.987,-6.375l6.48,-6.129l-3.057,-12.703l-8.623,-2.491l-7.622,-1.459l-2.977,3.994l-3.5,-1.505l-5.378,1.098l-1.634,4.367l5.651,4.497l4.24,3.125l7.816,4.755l8.604,2.451Zm10.66,-25.764l10.639,-1.877l10.285,-7.689l-2.017,-7.71l-4.768,-5.755l-7.68,1.972l-4.984,5.448l-3.648,6.661l2.173,8.95Zm48.103,-4.723l8.068,-10.782l-1.706,-6.008l-8.575,-19.507c0,0 -7.897,6.006 -10.383,6.083c-2.485,0.077 -7.683,4.501 -7.683,4.501l3.152,9.371l8.6,6.18l8.527,10.162Zm-64.518,-7.172l-9.714,-5.527l1.146,-6.28l5.191,-3.041l4.057,1.744l4.47,4.478l-0.085,5.658l-5.065,2.968Zm30.283,-23.855l-5.042,5.49l-10.806,-0.858l-2.238,-4.75l-1.605,-8.245l10.344,-11.669l3.07,5.269l5.436,0.966l2.991,10.237l-2.15,3.56Zm-42.702,5.119l-7.471,-8.486l0.629,-15.55l4.861,-8.457l7.639,3.285l3.734,6.879l0.661,10.831l-10.053,11.498Zm93.013,-28.565l-2.663,11.27l-6.387,5.934l-14.945,-3.071l4.461,-15.019l10.415,-5.566l9.119,6.452Zm-32.486,4.321l7.621,-4.464l4.724,-10.709l-3.045,-9.663l-19.234,-2.996l-6.432,7.781l-1.005,7.794l6.328,7.509l11.043,4.748Zm-36.986,-6.374l6.48,-6.129l-3.057,-12.703l-8.623,-2.491l-7.622,-1.459l-2.977,3.994l-3.5,-1.505l-5.378,1.097l-1.634,4.368l5.651,4.496l4.24,3.125l7.816,4.756l8.604,2.451Zm10.659,-25.764l10.639,-1.878l10.285,-7.689l-2.016,-7.71l-4.769,-5.754l-7.679,1.972l-4.985,5.447l-3.648,6.662l2.173,8.95Zm48.103,-4.724l8.069,-10.782l-1.707,-6.007l-8.574,-19.507c0,0 -7.897,6.005 -10.383,6.083c-2.486,0.077 -7.683,4.501 -7.683,4.501l3.152,9.371l8.6,6.179l8.526,10.162Z" style="fill:#a37841;fill-opacity:0.7;"/></g></g></g><path d="M0.841,59.3l107.332,53.666l0,96.598l-107.332,-53.666l0,-96.598" style="fill:#685632;"/><clipPath id="_clip14"><path d="M0.841,59.3l107.332,53.666l0,96.598l-107.332,-53.666l0,-96.598"/></clipPath><g clip-path="url(#_clip14)"><path d="M6.334,231.277l-7.471,-8.946l0.629,-16.394l4.861,-8.916l7.639,3.463l3.734,7.252l0.66,11.419l-10.052,12.122" style="fill:#816b40;"/><path d="M49.036,225.88l-5.042,5.788l-10.806,-0.904l-2.238,-5.008l-1.605,-8.692l10.343,-12.302l3.071,5.554l5.436,1.018l2.99,10.793l-2.149,3.753" style="fill:#816b40;"/><path d="M29.874,198.997l6.48,-6.461l-3.056,-13.392l-8.624,-2.626l-7.622,-1.538l-2.976,4.21l-3.501,-1.587l-5.378,1.158l-1.634,4.604l5.651,4.741l4.24,3.294l7.817,5.013l8.603,2.584Z" style="fill:#816b40;"/><path d="M66.861,205.718l7.62,-4.707l4.724,-11.29l-3.045,-10.187l-19.233,-3.159l-6.432,8.204l-1.006,8.216l6.329,7.917l11.043,5.006Z" style="fill:#816b40;"/><path d="M88.637,166.856l8.069,-11.367l-1.707,-6.333l-8.575,-20.566c0,0 -7.897,6.332 -10.382,6.413c-2.486,0.082 -7.684,4.746 -7.684,4.746l3.152,9.879l8.6,6.515l8.527,10.713Z" style="fill:#816b40;"/><path d="M40.534,171.836l10.639,-1.98l10.285,-8.106l-2.017,-8.128l-4.768,-6.066l-7.679,2.078l-4.985,5.744l-3.648,7.022l2.173,9.436" style="fill:#816b40;"/><path d="M106.533,189.081l-9.094,-6.35l-10.432,5.551l-4.516,14.884l14.93,2.979l6.408,-5.899l2.704,-11.165" style="fill:#816b40;"/><path d="M11.7,139.543l-7.47,-8.946l0.628,-16.394l4.862,-8.916l7.638,3.463l3.735,7.252l0.66,11.418l-10.053,12.123" style="fill:#816b40;"/><path d="M24.119,159.295l-9.713,-5.826l1.145,-6.621l5.192,-3.207l4.056,1.839l4.47,4.721l-0.084,5.965l-5.066,3.129Z" style="fill:#816b40;"/><path d="M54.402,134.146l-5.042,5.788l-10.806,-0.904l-2.237,-5.008l-1.606,-8.692l10.344,-12.302l3.071,5.554l5.435,1.018l2.991,10.793l-2.15,3.753" style="fill:#816b40;"/><path d="M35.241,107.263l6.48,-6.461l-3.057,-13.392l-8.623,-2.626l-7.622,-1.538l-2.977,4.21l-3.5,-1.587l-5.378,1.158l-1.634,4.604l5.651,4.741l4.24,3.294l7.816,5.013l8.604,2.584Z" style="fill:#816b40;"/><path d="M72.228,113.984l7.62,-4.707l4.724,-11.29l-3.045,-10.187l-19.234,-3.159l-6.431,8.204l-1.006,8.216l6.329,7.917l11.043,5.006Z" style="fill:#816b40;"/><path d="M94.003,75.122l8.069,-11.367l-1.707,-6.333l-8.574,-20.566c0,0 -7.897,6.331 -10.383,6.413c-2.486,0.082 -7.683,4.746 -7.683,4.746l3.152,9.879l8.6,6.515l8.526,10.713Z" style="fill:#816b40;"/><path d="M45.901,80.102l10.639,-1.98l10.284,-8.106l-2.016,-8.128l-4.769,-6.067l-7.679,2.079l-4.985,5.743l-3.648,7.023l2.174,9.436" style="fill:#816b40;"/><path d="M104.713,109.429l-9.119,-6.803l-10.415,5.868l-4.461,15.834l14.945,3.237l6.388,-6.256l2.662,-11.88" style="fill:#816b40;"/><path d="M15.364,253.563l-9.713,-5.826l1.145,-6.621l5.192,-3.206l4.056,1.838l4.47,4.721l-0.084,5.966l-5.066,3.128Zm30.283,-25.149l-5.042,5.788l-10.806,-0.904l-2.237,-5.008l-1.605,-8.692l10.343,-12.302l3.071,5.554l5.435,1.018l2.991,10.793l-2.15,3.753Zm-42.702,5.397l-7.47,-8.946l0.628,-16.394l4.862,-8.915l7.639,3.462l3.734,7.252l0.66,11.419l-10.053,12.122Zm100.199,-42.196l-2.703,11.165l-6.408,5.899l-14.931,-2.979l4.517,-14.884l10.432,-5.551l9.093,6.35Zm-39.671,16.637l7.62,-4.707l4.724,-11.29l-3.045,-10.187l-19.234,-3.159l-6.431,8.204l-1.006,8.216l6.329,7.918l11.043,5.005Zm-36.987,-6.721l6.48,-6.461l-3.057,-13.392l-8.623,-2.626l-7.622,-1.538l-2.977,4.21l-3.5,-1.586l-5.378,1.157l-1.634,4.604l5.651,4.741l4.24,3.294l7.816,5.014l8.604,2.583Zm10.66,-27.161l10.639,-1.979l10.284,-8.107l-2.016,-8.128l-4.769,-6.066l-7.679,2.078l-4.984,5.744l-3.648,7.022l2.173,9.436Zm48.102,-4.98l8.069,-11.367l-1.706,-6.333l-8.575,-20.566c0,0 -7.897,6.332 -10.383,6.413c-2.486,0.082 -7.683,4.746 -7.683,4.746l3.152,9.879l8.6,6.515l8.526,10.713Zm-64.517,-7.561l-9.714,-5.826l1.146,-6.621l5.191,-3.207l4.057,1.839l4.47,4.721l-0.085,5.966l-5.065,3.128Zm30.283,-25.149l-5.042,5.788l-10.806,-0.904l-2.238,-5.008l-1.605,-8.692l10.344,-12.302l3.07,5.554l5.436,1.018l2.99,10.793l-2.149,3.753Zm-42.702,5.397l-7.471,-8.946l0.629,-16.394l4.861,-8.916l7.639,3.463l3.734,7.252l0.661,11.419l-10.053,12.122Zm93.013,-30.114l-2.663,11.88l-6.387,6.256l-14.945,-3.237l4.461,-15.834l10.414,-5.867l9.12,6.802Zm-32.486,4.555l7.621,-4.707l4.724,-11.29l-3.046,-10.187l-19.233,-3.159l-6.432,8.204l-1.006,8.216l6.329,7.917l11.043,5.006Zm-36.986,-6.721l6.479,-6.461l-3.056,-13.392l-8.623,-2.626l-7.623,-1.538l-2.976,4.21l-3.5,-1.586l-5.379,1.157l-1.633,4.604l5.651,4.741l4.24,3.294l7.816,5.014l8.604,2.583Zm10.659,-27.161l10.639,-1.98l10.285,-8.106l-2.017,-8.128l-4.768,-6.066l-7.679,2.078l-4.985,5.744l-3.648,7.022l2.173,9.436Zm48.103,-4.98l8.069,-11.367l-1.707,-6.333l-8.575,-20.566c0,0 -7.896,6.332 -10.382,6.413c-2.486,0.082 -7.683,4.746 -7.683,4.746l3.152,9.879l8.599,6.515l8.527,10.713Z" style="fill:#311807;fill-opacity:0.5;"/></g></g><g id="GrassBlank04"><path d="M215.504,59.3l0,26.833l-10.733,-16.1l0,16.1l-8.67,-4.335l4.332,15.489l-14.975,-22.964l0.451,7.746l-5.842,0.316l3.237,11.289l-1.844,14.848l-3.522,-12.352l-4.17,-5.269l1.51,16.757l-11.172,-11.926l3.099,25.284l-6.378,-5.412l-2.98,-10.001l-4.79,6.387l7.77,17.581l-8.606,-1.064l-10.552,-12.528l-12.03,-5.352l3.04,22.285l-10.106,-13.942l-14.4,20.828l-7.526,-23.069l-4.833,20.348l-9.108,-22.734l-8.08,10.682l0.213,18.707l-4.13,-4.471l-4.102,-18.245l-5.367,8.049l-5.366,13.417l-1.917,-17.058l-8.817,3.427l6.34,-10.968l4.394,-7.601l-8.852,9.792l-4.513,-13.842l-13.468,20.654l-5.367,-27.337l-8.823,20.512l-4.172,-24.747l5.659,-10.166l-14.13,3.668l-5.367,13.417l0,-42.933l107.332,-53.666l107.331,53.666Z" style="fill:#99e164;"/><clipPath id="_clip15"><path d="M215.504,59.3l0,26.833l-10.733,-16.1l0,16.1l-8.67,-4.335l4.332,15.489l-14.975,-22.964l0.451,7.746l-5.842,0.316l3.237,11.289l-1.844,14.848l-3.522,-12.352l-4.17,-5.269l1.51,16.757l-11.172,-11.926l3.099,25.284l-6.378,-5.412l-2.98,-10.001l-4.79,6.387l7.77,17.581l-8.606,-1.064l-10.552,-12.528l-12.03,-5.352l3.04,22.285l-10.106,-13.942l-14.4,20.828l-7.526,-23.069l-4.833,20.348l-9.108,-22.734l-8.08,10.682l0.213,18.707l-4.13,-4.471l-4.102,-18.245l-5.367,8.049l-5.366,13.417l-1.917,-17.058l-8.817,3.427l6.34,-10.968l4.394,-7.601l-8.852,9.792l-4.513,-13.842l-13.468,20.654l-5.367,-27.337l-8.823,20.512l-4.172,-24.747l5.659,-10.166l-14.13,3.668l-5.367,13.417l0,-42.933l107.332,-53.666l107.331,53.666Z"/></clipPath><g clip-path="url(#_clip15)"><path d="M108.173,112.966l0,45.683l-72.925,-1.647l-34.407,-47.118l0,-50.655l107.332,53.737Z" style="fill:#311807;fill-opacity:0.2;"/><path d="M215.504,112.966l0,-53.666l-107.331,53.666l0,53.665l107.331,-53.665Z" style="fill:#febc3b;fill-opacity:0.2;"/><path d="M215.504,59.3l-2.247,14.977l-10.612,-8.547l-3.241,12.353l-6.985,-1.874l-12.71,-4.378l-1.771,6.252l3.708,14.245c0,0 -16.03,-13.514 -14.441,-8.878c1.588,4.635 5.366,16.208 5.366,16.208l-10.733,-8.159l2.682,22.808l-10.351,-15.909l-3.064,11.571l0,10.942l-16.1,-15.995l-7.94,1.396l-0.548,15.826l-7.611,-7.33l-5.367,14.519l-5.366,-0.262l-7.79,-14.628l-5.219,8.124l-10.144,-14.119l-14.413,12.574l-10.733,5.366l2.546,-22.74l-13.28,12.007l-7.128,-14.297l-6.252,15.621l-8.086,-17.424l-13.381,6.691l13.381,-22.79c0,0 -0.374,-1.702 -2.747,-1.374c-2.374,0.328 -18.719,1.374 -18.719,1.374l-5.367,2.683l-0.071,-26.869l107.331,-53.665l107.403,53.701Z" style="fill:#86cc55;fill-opacity:0.5;"/></g><path d="M181.043,67.488l2.066,6.539l2.815,-5.901l3.799,3.402l2.665,-4.383l7.016,-1.266l-4.209,-3.262l-0.401,-13.091l-5.93,12.032l-3.813,-11.087l-2.719,6.618l-5.758,-5.157l-0.521,6.596l0.59,4.647l-6.859,-1.445l6.797,4.828l-6.883,6.345l7.861,-1.467l1.163,1.725l2.321,-5.673" style="fill:#61933c;"/><clipPath id="_clip16"><path d="M181.043,67.488l2.066,6.539l2.815,-5.901l3.799,3.402l2.665,-4.383l7.016,-1.266l-4.209,-3.262l-0.401,-13.091l-5.93,12.032l-3.813,-11.087l-2.719,6.618l-5.758,-5.157l-0.521,6.596l0.59,4.647l-6.859,-1.445l6.797,4.828l-6.883,6.345l7.861,-1.467l1.163,1.725l2.321,-5.673"/></clipPath><g clip-path="url(#_clip16)"><path d="M194.794,49.526l-2.7,12.399l1.351,2.21l-3.254,2.456l-1.52,-4.789l2.061,-7.098l-4.548,-5.153l-1.334,-0.518l1.105,15.654l-3.788,-7.761l-1.43,-5.437l-3.99,0l3.438,12.4l-5.543,-1.13l-4.051,-5.412l-3.386,1.693l2.728,3.069l-0.376,14.207l8.381,-2.553l2.983,3.509l2.795,-1.9l0.959,-2.23l8.457,-1.138l7.506,-6.293l-4.308,-12.749l-1.536,-3.436" style="fill:#99e164;"/></g><path d="M14.602,54.401l2.396,1.445l-3.522,-13.596l5.644,9.508l2.932,-4.832l1.644,5.573l3.317,-3.872l2.242,-1.749l2.544,10.944l2.682,-1.343l-0.205,8.401l1.98,4.53c0,0 -2.464,1.013 -3.112,1.868c-0.647,0.854 1.151,3.262 -1.558,2.221c-2.709,-1.042 -3.738,-0.682 -5.062,-2.392c-1.325,-1.709 -2.565,-3.245 -2.565,-3.245l-3.787,0.34c0,0 -1.408,-3.654 -1.882,0.169c-0.475,3.823 -3.506,-3.317 -3.506,-3.317l-3.21,-6.688l3.028,-3.965Z" style="fill:#61933c;"/><clipPath id="_clip17"><path d="M14.602,54.401l2.396,1.445l-3.522,-13.596l5.644,9.508l2.932,-4.832l1.644,5.573l3.317,-3.872l2.242,-1.749l2.544,10.944l2.682,-1.343l-0.205,8.401l1.98,4.53c0,0 -2.464,1.013 -3.112,1.868c-0.647,0.854 1.151,3.262 -1.558,2.221c-2.709,-1.042 -3.738,-0.682 -5.062,-2.392c-1.325,-1.709 -2.565,-3.245 -2.565,-3.245l-3.787,0.34c0,0 -1.408,-3.654 -1.882,0.169c-0.475,3.823 -3.506,-3.317 -3.506,-3.317l-3.21,-6.688l3.028,-3.965Z"/></clipPath><g clip-path="url(#_clip17)"><path d="M35.314,54.202l-2.315,8.553l-4.591,-1.612l4.448,-6.72l-3.343,-8.384l-3.401,12.198l-3.186,0.13l0.768,-5.993l-2.002,-7.892l-0.821,13.298l-1.76,-6.523l-1.411,-3.663l-3.319,-6.103l3.91,16.1l-1.182,-0.208l-0.886,0.69l-3.574,1.653l-3.529,3.148c0,0 5.698,1.884 10.226,2.11c3.358,0.167 5.756,-1.38 6.379,-1.062c0.677,0.346 0.747,6.145 2.883,8.955c2.479,3.259 7.01,3.564 7.01,3.564l2.011,-9.805l-2.315,-12.434" style="fill:#99e164;"/></g><path d="M75.656,22.254l-9.536,-8.754l14.902,1.827l-1.314,-8.621l12.048,6.223l5.366,-11.99l8.196,11.891l4.559,-8.453l1.453,4.821l1.892,-6.661l2.357,7.7l1.08,6.422l1.929,-10.924l0.988,3.491l4.379,-1.626l0,3.815l3.698,-8.884l0.29,10.878l2.704,3.65c0,0 1.505,5.408 0.02,7.1c-1.485,1.692 -6.712,7.021 -6.712,7.021c0,0 4.093,-0.53 -1.402,1.001c-5.494,1.531 -4.375,0.137 -9.331,0.701c-4.956,0.563 -1.727,2.365 -7.805,1.464c-6.077,-0.901 -4.079,-3.698 -6.743,-0.901c-2.665,2.798 -1.199,2.398 -3.597,4.663c-2.398,2.265 -3.272,-0.947 -5.366,-4.204c-2.095,-3.256 -5.637,-7.363 -6.797,-5.443c-1.16,1.92 4.038,1.787 -1.892,2.053c-5.929,0.267 -9.714,6.771 -7.022,-1.144c2.692,-7.915 1.656,-7.116 1.656,-7.116Z" style="fill:#61933c;"/><clipPath id="_clip18"><path d="M75.656,22.254l-9.536,-8.754l14.902,1.827l-1.314,-8.621l12.048,6.223l5.366,-11.99l8.196,11.891l4.559,-8.453l1.453,4.821l1.892,-6.661l2.357,7.7l1.08,6.422l1.929,-10.924l0.988,3.491l4.379,-1.626l0,3.815l3.698,-8.884l0.29,10.878l2.704,3.65c0,0 1.505,5.408 0.02,7.1c-1.485,1.692 -6.712,7.021 -6.712,7.021c0,0 4.093,-0.53 -1.402,1.001c-5.494,1.531 -4.375,0.137 -9.331,0.701c-4.956,0.563 -1.727,2.365 -7.805,1.464c-6.077,-0.901 -4.079,-3.698 -6.743,-0.901c-2.665,2.798 -1.199,2.398 -3.597,4.663c-2.398,2.265 -3.272,-0.947 -5.366,-4.204c-2.095,-3.256 -5.637,-7.363 -6.797,-5.443c-1.16,1.92 4.038,1.787 -1.892,2.053c-5.929,0.267 -9.714,6.771 -7.022,-1.144c2.692,-7.915 1.656,-7.116 1.656,-7.116Z"/></clipPath><g clip-path="url(#_clip18)"><path d="M129.322,3.366l-5.367,11.241l2.243,5.329l-2.243,2.213l-2.447,-15.961l-2.92,-2.822l1.033,16.615l1.434,6.084l-4.604,-2.302c0,0 0.687,-5.425 -1.444,-3.507c-2.132,1.919 1.918,-13.535 1.918,-13.535l-4.648,-5.566l-2.357,11.911l-2.065,13.691l0,-9.272l-3.512,0.224l1.753,-13.464l-8.974,-6.246l0,10.733l-2.111,1.055l0.977,3.744l1.134,8.43l-8.867,-15.987l1.024,9.57l-6.507,-8.621l-2.643,-1.321l4.29,17.105l-15.021,-11.737l8.839,11.205l-2.581,2.657c0,0 -9.036,4.164 -6.691,5.975c2.344,1.812 -1.092,6.233 -1.092,6.233c0,0 5.202,-1.087 7.783,-1.475c2.581,-0.388 1.801,2.877 7.68,-1.527c5.879,-4.403 1.085,-4.718 7.585,-6.106c6.5,-1.388 7.566,-0.002 7.566,-0.002c0,0 0.426,5.862 2.771,1.918c2.345,-3.943 -0.894,-8.762 -0.894,-8.762c0,0 3.026,2.048 4.838,4.073c1.811,2.025 -1.514,3.517 2.653,3.623c4.168,0.107 1.663,0.427 5.367,0.64c3.703,0.213 -0.538,-0.152 5.366,0.776c5.904,0.929 3.205,0.113 4.608,-2.303c1.403,-2.417 -0.196,-2.097 1.936,-3.056c2.131,-0.959 1.558,-0.228 4.19,-0.007c2.631,0.22 5.224,-0.791 5.366,-2.683c0.143,-1.893 0,-8.394 0,-8.394l-5.366,-10.389Z" style="fill:#99e164;"/></g><g><path d="M106.211,87.114l3.608,11.009l0.809,6.221l-4.537,0.118l0.12,-17.348Z" style="fill:#99e164;"/><path d="M102.806,100.857l3.285,3.605l0.062,-17.267l-3.347,13.662Z" style="fill:#61933c;"/></g><path d="M86.075,75.084l5.998,16.111l-3.886,2.814l-5.169,-0.226l-5.88,2.94l-3.93,-2.588l-2.832,-1.705l-4.256,-12.303l3.197,2.719l3.891,3.763l-0.755,-7.017l3.215,6.135l1.997,4.629l1.087,-9.457l-1.611,-4.175l4.98,8.591l0.72,4.822l1.624,-0.837l1.61,-14.216Z" style="fill:#61933c;"/><clipPath id="_clip19"><path d="M86.075,75.084l5.998,16.111l-3.886,2.814l-5.169,-0.226l-5.88,2.94l-3.93,-2.588l-2.832,-1.705l-4.256,-12.303l3.197,2.719l3.891,3.763l-0.755,-7.017l3.215,6.135l1.997,4.629l1.087,-9.457l-1.611,-4.175l4.98,8.591l0.72,4.822l1.624,-0.837l1.61,-14.216Z"/></clipPath><g clip-path="url(#_clip19)"><path d="M86.001,72.818l2.215,16.72l-4.386,-0.555l-1.709,-12.782l-5.427,0.3l3.384,9.99l0.411,4.352l-2.824,-0.487l-1.571,-8.128l-3.97,-2.471l3.42,8.451l-0.142,3.28l-1.439,-2.057c-0.256,-1.668 -0.941,-3.371 -2.056,-5.109l-6.623,-5.602l4.866,7.206l0.694,3.384l1.589,2.887l3.669,1.835l1.563,1.75c0,0 2.53,2.881 3.824,2.999c1.294,0.117 7.056,-0.059 8.408,-0.588c1.353,-0.53 6.612,-3.888 6.612,-3.888l-3.185,-11.778l-7.323,-9.709Z" style="fill:#99e164;"/></g><path d="M155.272,21.348l4.083,14.058l3.456,-4.922l-0.592,10.437l3.786,-11.987l1.589,7.719l3.777,-9.153l0,5.495c0,0 1.648,3.813 2.794,2.403c4.748,-5.841 2.307,1.622 2.573,2.049c1.143,1.835 0,2.542 0,2.542l0.878,2.386c0,0 -2.062,-1.386 -0.878,1.361c1.184,2.748 3.425,5.385 1.868,5.378c-1.558,-0.007 -3.543,-2.188 -5.941,2.024c-0.363,0.637 -1.294,1.466 -1.294,1.466c0,0 -2.767,1.4 -4.103,1.575c-1.336,0.174 -0.902,1.291 -2.993,0.233c-2.09,-1.059 -3.185,-2.807 -3.637,-1.308c-0.451,1.498 -2.111,2.07 -2.111,2.07l-4.335,0.553l-0.656,-1.312c0,0 -3.011,-0.723 -5.799,0.731c-2.788,1.455 -4.411,4.203 -4.411,0.83c0,-3.372 -0.435,-3.253 -0.435,-3.253c0,0 0.004,-2.729 -1.592,-2.923c-1.595,-0.193 -4.902,-0.324 -4.902,-0.324l2.775,-2.367c0,0 -4.739,-3.297 -6.413,-3.772c-1.673,-0.475 -4.32,0.649 -4.32,0.649l2.362,2.692c0,0 -1.512,-1.543 -2.362,-1.181c-0.851,0.363 -4.098,-0.512 -4.098,-0.512l-1.269,-2.171c0,0 0.395,-0.576 1.644,-2.2c1.249,-1.624 1.998,-2.498 1.998,-2.498l0.125,-1.374l-1.868,-5.61l-0.548,-5.093l6.675,10.054l0.018,-8.034l3.717,6.185l0.874,-9.742l3.465,11.616c0,0 1.302,2.58 1.666,-0.521c0.364,-3.101 1.646,-9.91 1.646,-9.91l3.07,-4.847l-1.015,16.607l4.157,-2.079l1.209,-16.704l1.887,20.523l1.775,-4.693l1.705,2.953l0,-16.099Z" style="fill:#61933c;"/><clipPath id="_clip20"><path d="M155.272,21.348l4.083,14.058l3.456,-4.922l-0.592,10.437l3.786,-11.987l1.589,7.719l3.777,-9.153l0,5.495c0,0 1.648,3.813 2.794,2.403c4.748,-5.841 2.307,1.622 2.573,2.049c1.143,1.835 0,2.542 0,2.542l0.878,2.386c0,0 -2.062,-1.386 -0.878,1.361c1.184,2.748 3.425,5.385 1.868,5.378c-1.558,-0.007 -3.543,-2.188 -5.941,2.024c-0.363,0.637 -1.294,1.466 -1.294,1.466c0,0 -2.767,1.4 -4.103,1.575c-1.336,0.174 -0.902,1.291 -2.993,0.233c-2.09,-1.059 -3.185,-2.807 -3.637,-1.308c-0.451,1.498 -2.111,2.07 -2.111,2.07l-4.335,0.553l-0.656,-1.312c0,0 -3.011,-0.723 -5.799,0.731c-2.788,1.455 -4.411,4.203 -4.411,0.83c0,-3.372 -0.435,-3.253 -0.435,-3.253c0,0 0.004,-2.729 -1.592,-2.923c-1.595,-0.193 -4.902,-0.324 -4.902,-0.324l2.775,-2.367c0,0 -4.739,-3.297 -6.413,-3.772c-1.673,-0.475 -4.32,0.649 -4.32,0.649l2.362,2.692c0,0 -1.512,-1.543 -2.362,-1.181c-0.851,0.363 -4.098,-0.512 -4.098,-0.512l-1.269,-2.171c0,0 0.395,-0.576 1.644,-2.2c1.249,-1.624 1.998,-2.498 1.998,-2.498l0.125,-1.374l-1.868,-5.61l-0.548,-5.093l6.675,10.054l0.018,-8.034l3.717,6.185l0.874,-9.742l3.465,11.616c0,0 1.302,2.58 1.666,-0.521c0.364,-3.101 1.646,-9.91 1.646,-9.91l3.07,-4.847l-1.015,16.607l4.157,-2.079l1.209,-16.704l1.887,20.523l1.775,-4.693l1.705,2.953l0,-16.099Z"/></clipPath><g clip-path="url(#_clip20)"><path d="M179.181,30.859l-4.115,6.541l-3.695,0.128l1.776,-10.36l-1.776,-0.703l-3.549,15.44l-1.817,-3.866l2.41,-9.4l-3.58,-1.34l-1.024,17.455l-2.358,0.336l0.422,-15.074l-2.541,-2.848l-0.038,12.291l-8.211,-17.726l2.814,23.149l12.106,13.045l14.931,-7.648l-1.755,-19.42Z" style="fill:#99e164;"/><path d="M146.395,25.114l-2.494,4.668l-1.411,8.689l-4.472,0.135l1.154,-3.069l1.34,-9.144l-3.326,-2.558l-1.644,14.48l-1.736,-2.33l0.505,-9.524l-1.765,0.883l-0.603,10.431l-2.047,-1.535l-0.907,-11.934l-2.802,2.726l1.663,9.464l-2.794,1.943l-8.514,6.476c0,0 11.061,5.504 12.56,6.28c1.498,0.777 8.852,7.427 8.852,7.427l13.172,2.364l4.146,-5.689l-8.618,-2.808l-1.282,-1.981l1.669,-1.526l4.516,-0.891l-3.436,-4.561l5.479,3.815l0.98,3.795l0.692,-4.54l-3.378,-3.325l-1.989,-3.709l1.67,-13.11l0.462,-8.858l-2.693,0.786l-1.25,11.919l0.475,7.6l-1.596,0.762l-0.578,-13.551Z" style="fill:#99e164;"/></g><path d="M44.282,25.598l-0.778,-6.569l6.088,5.826l1.977,2.253l-1.185,-6.696l3.375,-1.687l3.739,3.254l-0.051,5.427l3.02,1.909l3.208,-5.224c0,0 0.07,-2.31 0.838,-0.301c0.769,2.009 1.673,7.835 1.673,7.835l0.089,2.835l3.226,-5.045c0,0 0.975,0.242 0.789,1.276c-0.186,1.034 -0.379,8.283 -0.379,8.283l1.8,1.29l2.149,0.781l4.337,3.423c0,0 -0.849,2.703 -2.663,2.715c-1.814,0.012 -6.974,1.619 -6.974,1.619c0,0 -1.802,1.323 -4.047,0.963c-2.244,-0.361 -6.664,-1.767 -6.664,-1.767c0,0 -2.712,-0.904 -4.32,-2.411c-1.607,-1.506 -0.716,-3.79 -2.969,-2.799c-2.254,0.991 -5.492,4.561 -5.492,4.561c0,0 -0.758,1.008 -3.13,-0.779c-2.371,-1.786 -3.175,-2.69 -3.175,-2.69l-0.588,-1.177c0,0 0.958,1.012 -0.683,0.341c-1.642,-0.671 -5.24,3.648 -5.349,1.74c-0.11,-1.909 3.129,-4.77 3.016,-5.65c-0.112,-0.879 2.402,-0.171 2.402,-0.171l-2.149,-3.749l-4.595,-5.018l5.372,1.36l1.134,-3.479l3.671,1.077l1.742,5.676l2.51,4.337l0.448,-5.935l-2.511,-3.516l1.099,-4.118Z" style="fill:#61933c;"/><clipPath id="_clip21"><path d="M44.282,25.598l-0.778,-6.569l6.088,5.826l1.977,2.253l-1.185,-6.696l3.375,-1.687l3.739,3.254l-0.051,5.427l3.02,1.909l3.208,-5.224c0,0 0.07,-2.31 0.838,-0.301c0.769,2.009 1.673,7.835 1.673,7.835l0.089,2.835l3.226,-5.045c0,0 0.975,0.242 0.789,1.276c-0.186,1.034 -0.379,8.283 -0.379,8.283l1.8,1.29l2.149,0.781l4.337,3.423c0,0 -0.849,2.703 -2.663,2.715c-1.814,0.012 -6.974,1.619 -6.974,1.619c0,0 -1.802,1.323 -4.047,0.963c-2.244,-0.361 -6.664,-1.767 -6.664,-1.767c0,0 -2.712,-0.904 -4.32,-2.411c-1.607,-1.506 -0.716,-3.79 -2.969,-2.799c-2.254,0.991 -5.492,4.561 -5.492,4.561c0,0 -0.758,1.008 -3.13,-0.779c-2.371,-1.786 -3.175,-2.69 -3.175,-2.69l-0.588,-1.177c0,0 0.958,1.012 -0.683,0.341c-1.642,-0.671 -5.24,3.648 -5.349,1.74c-0.11,-1.909 3.129,-4.77 3.016,-5.65c-0.112,-0.879 2.402,-0.171 2.402,-0.171l-2.149,-3.749l-4.595,-5.018l5.372,1.36l1.134,-3.479l3.671,1.077l1.742,5.676l2.51,4.337l0.448,-5.935l-2.511,-3.516l1.099,-4.118Z"/></clipPath><g clip-path="url(#_clip21)"><path d="M70.139,28.3l-4.327,15.019c3.041,-0.208 5.308,0.493 6.794,2.111l5.792,-0.862l-1.746,5.339l-8.092,-0.402c0,0 -2.556,-6.392 -2.415,-4.602c0.142,1.789 0.613,5.405 -1.632,7.314c-2.244,1.909 -4.542,0.749 -4.046,-0.429c0.496,-1.178 0,-4.046 0,-4.046l0,-1.954l-1.86,-3.023l-2.186,4.53l0,2.47l-1.803,-4.948l0.375,-2.431l0.109,-4.101c0,0 1.911,-5.72 0.672,-4.382c-1.24,1.338 -8.107,7.439 -8.107,7.439l-0.429,4.922l-2.956,4.647l0,-7.935l-2.505,-3.114l-5.588,1.908l-4.959,6.63l-1.011,-1.72l1.924,-6.115l3.563,-10.354l4.956,8.901l1.58,-0.483l2.04,1.02l1.768,-0.884l4.142,-8.3l0.23,4.161l1.952,-3.07l2.143,-1.071l-2.143,4.622l6.108,-4.543l0.104,1.933l0.87,4.753l1.011,2.399l1.928,0.964l0.806,1.716l-0.094,2.686l1.406,-5.254l1.719,-7.041l1.26,-3.305l-2.979,-7.974l-2.267,15.051l-1.779,-10.392l-1.011,-4.42l-3.795,-4.665l-1.94,3.076l2.7,9.442l-7.372,-7.732l-2.049,-2.23l-2.718,-1.808l3.112,12.238l-0.552,4.321l-2.56,1.281l0,-2.411l-4.047,-6.796l-2.76,1.757l3.764,10.783l-0.577,0.176l-19.861,-7.954l17.918,29.988l44.627,-1.965l1.399,-12.489l-14.606,-18.392Z" style="fill:#99e164;"/></g><path d="M66.896,62.778l-2.262,-15.952l10.733,12.639l6.629,-8.922l-1.263,11.152l5.367,-13.134l2.104,8.772l5.863,-10.403l2.766,14.717l2.999,-12.232l2.367,9.549l9.049,-6.209l-5.499,13.351l-3.55,8.958c0,0 -6.163,-2.417 -7.731,-3.866c-1.568,-1.449 -2.208,-1.366 -4.304,-0.85c-2.096,0.516 -5.862,1.755 -9.431,2.375c-3.569,0.619 -9.358,3.028 -9.358,3.028l-5.486,-0.55c0,0 2.602,2.478 0,0c-2.602,-2.478 -4.426,-4.406 -4.426,-4.406l-5.948,-2.974l6.285,-0.55l5.096,-4.493Z" style="fill:#61933c;"/><clipPath id="_clip22"><path d="M66.896,62.778l-2.262,-15.952l10.733,12.639l6.629,-8.922l-1.263,11.152l5.367,-13.134l2.104,8.772l5.863,-10.403l2.766,14.717l2.999,-12.232l2.367,9.549l9.049,-6.209l-5.499,13.351l-3.55,8.958c0,0 -6.163,-2.417 -7.731,-3.866c-1.568,-1.449 -2.208,-1.366 -4.304,-0.85c-2.096,0.516 -5.862,1.755 -9.431,2.375c-3.569,0.619 -9.358,3.028 -9.358,3.028l-5.486,-0.55c0,0 2.602,2.478 0,0c-2.602,-2.478 -4.426,-4.406 -4.426,-4.406l-5.948,-2.974l6.285,-0.55l5.096,-4.493Z"/></clipPath><g clip-path="url(#_clip22)"><path d="M112.933,51.906l-7.515,8.667l-3.219,3.758c0,0 -0.117,-8.831 0,-8.831c0.118,0 -2.301,-8.42 -2.301,-8.42l-0.493,15.854l-2.572,1.363l0,-9.541l-2.883,-10.65l-2.484,17.465l-3.956,-4.585l2.46,-9.503l-3.87,-0.285l-2.471,13.214l-2.896,3.919l3.124,-12.296l-1.535,-3.01l-4,11.145l-2.955,3.631l3.321,-11.226l-14.054,-7.027l6.375,19.287l-8.315,-2.218l-15.763,5.026l9.049,11.144l11.167,0.217l6.977,-11.369c0,0 -0.645,0.192 3.428,0.471c4.073,0.28 11.216,0.242 11.216,0.242l0.95,2.223l8.11,6.679l13.05,-1.159l2.055,-24.185Z" style="fill:#99e164;"/></g><path d="M110.628,62.847l7.744,2.655l1.155,7.877l3.749,-6.123l-0.942,-4.895l5.049,2.842l-1.287,6.01l3.447,2.925l2.359,-5.828l-1.641,-0.419l5.366,-3.009l1.395,2.263l-0.418,8.092l4.39,-7.7l0,-1.77l3.93,2.744l-0.268,4.155l0.273,3.799l5.249,-8.109l-0.933,7.382l4.239,-0.363l1.12,-4.806l-2.877,-2.855l4.26,1.239l1.106,6.373l5.367,4.538c0,0 0.454,-1.215 -1.77,0.885c-2.225,2.099 -5.323,3.693 -7.004,4.578c-1.682,0.885 -1.056,1.075 -4.467,1.157c-3.41,0.082 -2.525,0.17 -7.216,0.082c-4.691,-0.089 -2.832,3.54 -7.346,-0.266c-4.513,-3.806 0.5,-7.611 -4.396,-3.806c-4.897,3.806 -5.959,4.514 -7.375,5.576c-1.416,1.062 -2.389,0.266 -2.389,0.266c0,0 -0.886,-0.62 -1.948,-1.416c-1.062,-0.797 -1.416,-0.354 -2.035,-1.328c-0.62,-0.973 -0.492,-2.114 -0.492,-2.114c0,0 -1.434,-0.853 2.095,-2.91c3.53,-2.056 3.176,-1.702 -0.187,-2.41c-3.363,-0.708 -4.54,-1.363 -4.54,-1.363l3.212,-1.646l-0.531,-6.373l-5.443,-5.929Z" style="fill:#61933c;"/><clipPath id="_clip23"><path d="M110.628,62.847l7.744,2.655l1.155,7.877l3.749,-6.123l-0.942,-4.895l5.049,2.842l-1.287,6.01l3.447,2.925l2.359,-5.828l-1.641,-0.419l5.366,-3.009l1.395,2.263l-0.418,8.092l4.39,-7.7l0,-1.77l3.93,2.744l-0.268,4.155l0.273,3.799l5.249,-8.109l-0.933,7.382l4.239,-0.363l1.12,-4.806l-2.877,-2.855l4.26,1.239l1.106,6.373l5.367,4.538c0,0 0.454,-1.215 -1.77,0.885c-2.225,2.099 -5.323,3.693 -7.004,4.578c-1.682,0.885 -1.056,1.075 -4.467,1.157c-3.41,0.082 -2.525,0.17 -7.216,0.082c-4.691,-0.089 -2.832,3.54 -7.346,-0.266c-4.513,-3.806 0.5,-7.611 -4.396,-3.806c-4.897,3.806 -5.959,4.514 -7.375,5.576c-1.416,1.062 -2.389,0.266 -2.389,0.266c0,0 -0.886,-0.62 -1.948,-1.416c-1.062,-0.797 -1.416,-0.354 -2.035,-1.328c-0.62,-0.973 -0.492,-2.114 -0.492,-2.114c0,0 -1.434,-0.853 2.095,-2.91c3.53,-2.056 3.176,-1.702 -0.187,-2.41c-3.363,-0.708 -4.54,-1.363 -4.54,-1.363l3.212,-1.646l-0.531,-6.373l-5.443,-5.929Z"/></clipPath><g clip-path="url(#_clip23)"><path d="M157.093,66.447l-2.489,4.122l0.648,5.691l-0.589,4.294l-2.936,-6.057l-1.895,-6.314l-2.462,8.492l0.439,2.463l-3.399,1.756l0.963,-4.871l0.987,-7.76l-5.366,-0.34l0.398,1.865l-3.38,7.68l1.754,2.293l-1.416,0.567l-2.723,-0.793l0.798,-4.017l1.528,-5.952l-1.03,-2.471l-5.531,1.47l-1.821,5.587l1.981,3.74l-4.74,0.247l-0.631,-6.969l3.064,-6.899l-6.148,3.075l0.529,8.628l-4.099,-2.355l0,-7.452l-1.116,-0.736l-2.265,3.682l2.909,7.606l-1.493,1.4c0,0 -5.401,8.479 -5.051,8.969c0.349,0.49 -0.109,4.672 4.227,4.903c4.336,0.232 10.274,-1.45 11.581,-2.365c1.308,-0.915 2.271,-7.655 4.989,-7.089c2.719,0.566 5.685,0.396 7.686,0.453c2,0.057 5.366,0.113 5.366,0.113c0,0 -5.631,2.719 -0.477,1.586c5.155,-1.132 5.844,-1.756 5.844,-1.756l0,-1.019l5.366,0.633l8.275,-0.067l-0.062,-6.56l-8.213,-9.473" style="fill:#99e164;"/></g></g></g></svg>