<?xml version="1.0" encoding="UTF-8" standalone="no"?><!DOCTYPE svg PUBLIC "-//W3C//DTD SVG 1.1//EN" "http://www.w3.org/Graphics/SVG/1.1/DTD/svg11.dtd"><svg width="100%" height="100%" viewBox="0 0 215 205" version="1.1" xmlns="http://www.w3.org/2000/svg" xmlns:xlink="http://www.w3.org/1999/xlink" xml:space="preserve" xmlns:serif="http://www.serif.com/" style="fill-rule:evenodd;clip-rule:evenodd;stroke-linejoin:round;stroke-miterlimit:1.41421;"><g id="Grass_Block08"><g id="Grass_Block02"><g><path d="M214.989,54.628l0,96.598l-107.332,53.665l0,-96.598l107.332,-53.665Z" style="fill:#a87f43;"/><path d="M122.415,161.09l-8.372,9.701l1.286,5.77l7.086,18.914c0,0 7.927,-5.203 10.317,-5.13c2.389,0.073 7.634,-3.797 7.634,-3.797l-2.476,-9.029l-7.889,-6.338l-7.586,-10.091Zm46.426,-1.63l-10.317,1.147l-10.317,6.651l1.484,7.395l4.238,5.711l7.483,-1.409l5.101,-4.848l3.89,-6.072l-1.562,-8.575Zm11.734,-23.688l-6.575,5.403l2.189,12.169l8.128,2.858l7.227,1.825l3.09,-3.594l3.27,1.626l5.224,-0.72l1.823,-4.026l-5.159,-4.576l-3.885,-3.198l-7.221,-4.948l-8.111,-2.819Zm-35.113,-8.191l-7.572,3.765l-5.158,9.829l2.356,9.299l18.278,3.959l6.625,-6.966l1.421,-7.296l-5.633,-7.46l-10.317,-5.13Zm59.489,-19.321l6.671,8.447l-1.513,14.639l-5.158,7.696l-7.137,-3.549l-3.18,-6.712l0,-10.261l10.317,-10.26Zm-90.908,21.488l3.213,-10.478l6.475,-5.225l14.159,3.776l-5.158,13.913l-10.317,4.64l-8.372,-6.626Zm49.64,-19.168l5.158,-4.885l10.317,1.445l1.869,4.614l1.058,7.876l-10.606,10.405l-2.638,-5.153l-5.158,-1.231l-2.271,-9.838l2.271,-3.233Zm30.449,-20.733l8.996,5.787l-1.467,5.86l-5.158,2.565l-3.79,-1.885l-4.027,-4.489l0.412,-5.335l5.034,-2.503Z" style="fill:#877841;fill-opacity:0.7;"/><path d="M204.255,102.927l6.941,8.836l-1.574,15.313l-5.367,8.05l-7.424,-3.712l-3.309,-7.021l0,-10.733l10.733,-10.733" style="fill:#c7bc64;"/><clipPath id="_clip1"><path d="M204.255,102.927l6.941,8.836l-1.574,15.313l-5.367,8.05l-7.424,-3.712l-3.309,-7.021l0,-10.733l10.733,-10.733"/></clipPath><g clip-path="url(#_clip1)"><path d="M122.415,161.09l-8.372,9.701l1.286,5.77l7.086,18.914c0,0 7.927,-5.203 10.317,-5.13c2.389,0.073 7.634,-3.797 7.634,-3.797l-2.476,-9.029l-7.889,-6.338l-7.586,-10.091Zm46.426,-1.63l-10.317,1.147l-10.317,6.651l1.484,7.395l4.238,5.711l7.483,-1.409l5.101,-4.848l3.89,-6.072l-1.562,-8.575Zm11.734,-23.688l-6.575,5.403l2.189,12.169l8.128,2.858l7.227,1.825l3.09,-3.594l3.27,1.626l5.224,-0.72l1.823,-4.026l-5.159,-4.576l-3.885,-3.198l-7.221,-4.948l-8.111,-2.819Zm-35.113,-8.191l-7.572,3.765l-5.158,9.829l2.356,9.299l18.278,3.959l6.625,-6.966l1.421,-7.296l-5.633,-7.46l-10.317,-5.13Zm59.489,-19.321l6.671,8.447l-1.513,14.639l-5.158,7.696l-7.137,-3.549l-3.18,-6.712l0,-10.261l10.317,-10.26Zm-90.908,21.488l3.213,-10.478l6.475,-5.225l14.159,3.776l-5.158,13.913l-10.317,4.64l-8.372,-6.626Zm49.64,-19.168l5.158,-4.885l10.317,1.445l1.869,4.614l1.058,7.876l-10.606,10.405l-2.638,-5.153l-5.158,-1.231l-2.271,-9.838l2.271,-3.233Zm30.449,-20.733l8.996,5.787l-1.467,5.86l-5.158,2.565l-3.79,-1.885l-4.027,-4.489l0.412,-5.335l5.034,-2.503Z" style="fill:#877841;fill-opacity:0.7;"/></g><path d="M193,83.666l9.359,6.054l-1.526,6.129l-5.366,2.683l-3.943,-1.971l-4.189,-4.696l0.429,-5.581l5.236,-2.618Z" style="fill:#c7bc64;"/><clipPath id="_clip2"><path d="M193,83.666l9.359,6.054l-1.526,6.129l-5.366,2.683l-3.943,-1.971l-4.189,-4.696l0.429,-5.581l5.236,-2.618Z"/></clipPath><g clip-path="url(#_clip2)"><path d="M122.415,161.09l-8.372,9.701l1.286,5.77l7.086,18.914c0,0 7.927,-5.203 10.317,-5.13c2.389,0.073 7.634,-3.797 7.634,-3.797l-2.476,-9.029l-7.889,-6.338l-7.586,-10.091Zm46.426,-1.63l-10.317,1.147l-10.317,6.651l1.484,7.395l4.238,5.711l7.483,-1.409l5.101,-4.848l3.89,-6.072l-1.562,-8.575Zm11.734,-23.688l-6.575,5.403l2.189,12.169l8.128,2.858l7.227,1.825l3.09,-3.594l3.27,1.626l5.224,-0.72l1.823,-4.026l-5.159,-4.576l-3.885,-3.198l-7.221,-4.948l-8.111,-2.819Zm-35.113,-8.191l-7.572,3.765l-5.158,9.829l2.356,9.299l18.278,3.959l6.625,-6.966l1.421,-7.296l-5.633,-7.46l-10.317,-5.13Zm59.489,-19.321l6.671,8.447l-1.513,14.639l-5.158,7.696l-7.137,-3.549l-3.18,-6.712l0,-10.261l10.317,-10.26Zm-90.908,21.488l3.213,-10.478l6.475,-5.225l14.159,3.776l-5.158,13.913l-10.317,4.64l-8.372,-6.626Zm49.64,-19.168l5.158,-4.885l10.317,1.445l1.869,4.614l1.058,7.876l-10.606,10.405l-2.638,-5.153l-5.158,-1.231l-2.271,-9.838l2.271,-3.233Zm30.449,-20.733l8.996,5.787l-1.467,5.86l-5.158,2.565l-3.79,-1.885l-4.027,-4.489l0.412,-5.335l5.034,-2.503Z" style="fill:#877841;fill-opacity:0.7;"/></g><path d="M161.323,105.353l5.366,-5.11l10.734,1.512l1.944,4.827l1.101,8.239l-11.034,10.883l-2.745,-5.39l-5.366,-1.288l-2.362,-10.29l2.362,-3.383" style="fill:#c7bc64;"/><clipPath id="_clip3"><path d="M161.323,105.353l5.366,-5.11l10.734,1.512l1.944,4.827l1.101,8.239l-11.034,10.883l-2.745,-5.39l-5.366,-1.288l-2.362,-10.29l2.362,-3.383"/></clipPath><g clip-path="url(#_clip3)"><path d="M122.415,161.09l-8.372,9.701l1.286,5.77l7.086,18.914c0,0 7.927,-5.203 10.317,-5.13c2.389,0.073 7.634,-3.797 7.634,-3.797l-2.476,-9.029l-7.889,-6.338l-7.586,-10.091Zm46.426,-1.63l-10.317,1.147l-10.317,6.651l1.484,7.395l4.238,5.711l7.483,-1.409l5.101,-4.848l3.89,-6.072l-1.562,-8.575Zm11.734,-23.688l-6.575,5.403l2.189,12.169l8.128,2.858l7.227,1.825l3.09,-3.594l3.27,1.626l5.224,-0.72l1.823,-4.026l-5.159,-4.576l-3.885,-3.198l-7.221,-4.948l-8.111,-2.819Zm-35.113,-8.191l-7.572,3.765l-5.158,9.829l2.356,9.299l18.278,3.959l6.625,-6.966l1.421,-7.296l-5.633,-7.46l-10.317,-5.13Zm59.489,-19.321l6.671,8.447l-1.513,14.639l-5.158,7.696l-7.137,-3.549l-3.18,-6.712l0,-10.261l10.317,-10.26Zm-90.908,21.488l3.213,-10.478l6.475,-5.225l14.159,3.776l-5.158,13.913l-10.317,4.64l-8.372,-6.626Zm49.64,-19.168l5.158,-4.885l10.317,1.445l1.869,4.614l1.058,7.876l-10.606,10.405l-2.638,-5.153l-5.158,-1.231l-2.271,-9.838l2.271,-3.233Zm30.449,-20.733l8.996,5.787l-1.467,5.86l-5.158,2.565l-3.79,-1.885l-4.027,-4.489l0.412,-5.335l5.034,-2.503Z" style="fill:#877841;fill-opacity:0.7;"/></g><path d="M178.896,131.706l-6.84,5.652l2.278,12.729l8.455,2.989l7.519,1.909l3.214,-3.759l3.402,1.701l5.435,-0.753l1.896,-4.211l-5.366,-4.787l-4.042,-3.346l-7.512,-5.175l-8.439,-2.949Z" style="fill:#c7bc64;"/><clipPath id="_clip4"><path d="M178.896,131.706l-6.84,5.652l2.278,12.729l8.455,2.989l7.519,1.909l3.214,-3.759l3.402,1.701l5.435,-0.753l1.896,-4.211l-5.366,-4.787l-4.042,-3.346l-7.512,-5.175l-8.439,-2.949Z"/></clipPath><g clip-path="url(#_clip4)"><path d="M122.415,161.09l-8.372,9.701l1.286,5.77l7.086,18.914c0,0 7.927,-5.203 10.317,-5.13c2.389,0.073 7.634,-3.797 7.634,-3.797l-2.476,-9.029l-7.889,-6.338l-7.586,-10.091Zm46.426,-1.63l-10.317,1.147l-10.317,6.651l1.484,7.395l4.238,5.711l7.483,-1.409l5.101,-4.848l3.89,-6.072l-1.562,-8.575Zm11.734,-23.688l-6.575,5.403l2.189,12.169l8.128,2.858l7.227,1.825l3.09,-3.594l3.27,1.626l5.224,-0.72l1.823,-4.026l-5.159,-4.576l-3.885,-3.198l-7.221,-4.948l-8.111,-2.819Zm-35.113,-8.191l-7.572,3.765l-5.158,9.829l2.356,9.299l18.278,3.959l6.625,-6.966l1.421,-7.296l-5.633,-7.46l-10.317,-5.13Zm59.489,-19.321l6.671,8.447l-1.513,14.639l-5.158,7.696l-7.137,-3.549l-3.18,-6.712l0,-10.261l10.317,-10.26Zm-90.908,21.488l3.213,-10.478l6.475,-5.225l14.159,3.776l-5.158,13.913l-10.317,4.64l-8.372,-6.626Zm49.64,-19.168l5.158,-4.885l10.317,1.445l1.869,4.614l1.058,7.876l-10.606,10.405l-2.638,-5.153l-5.158,-1.231l-2.271,-9.838l2.271,-3.233Zm30.449,-20.733l8.996,5.787l-1.467,5.86l-5.158,2.565l-3.79,-1.885l-4.027,-4.489l0.412,-5.335l5.034,-2.503Z" style="fill:#877841;fill-opacity:0.7;"/></g><path d="M142.368,123.137l-7.878,3.939l-5.367,10.282l2.452,9.727l19.015,4.141l6.893,-7.287l1.478,-7.632l-5.86,-7.803l-10.733,-5.367Z" style="fill:#c7bc64;"/><clipPath id="_clip5"><path d="M142.368,123.137l-7.878,3.939l-5.367,10.282l2.452,9.727l19.015,4.141l6.893,-7.287l1.478,-7.632l-5.86,-7.803l-10.733,-5.367Z"/></clipPath><g clip-path="url(#_clip5)"><path d="M122.415,161.09l-8.372,9.701l1.286,5.77l7.086,18.914c0,0 7.927,-5.203 10.317,-5.13c2.389,0.073 7.634,-3.797 7.634,-3.797l-2.476,-9.029l-7.889,-6.338l-7.586,-10.091Zm46.426,-1.63l-10.317,1.147l-10.317,6.651l1.484,7.395l4.238,5.711l7.483,-1.409l5.101,-4.848l3.89,-6.072l-1.562,-8.575Zm11.734,-23.688l-6.575,5.403l2.189,12.169l8.128,2.858l7.227,1.825l3.09,-3.594l3.27,1.626l5.224,-0.72l1.823,-4.026l-5.159,-4.576l-3.885,-3.198l-7.221,-4.948l-8.111,-2.819Zm-35.113,-8.191l-7.572,3.765l-5.158,9.829l2.356,9.299l18.278,3.959l6.625,-6.966l1.421,-7.296l-5.633,-7.46l-10.317,-5.13Zm59.489,-19.321l6.671,8.447l-1.513,14.639l-5.158,7.696l-7.137,-3.549l-3.18,-6.712l0,-10.261l10.317,-10.26Zm-90.908,21.488l3.213,-10.478l6.475,-5.225l14.159,3.776l-5.158,13.913l-10.317,4.64l-8.372,-6.626Zm49.64,-19.168l5.158,-4.885l10.317,1.445l1.869,4.614l1.058,7.876l-10.606,10.405l-2.638,-5.153l-5.158,-1.231l-2.271,-9.838l2.271,-3.233Zm30.449,-20.733l8.996,5.787l-1.467,5.86l-5.158,2.565l-3.79,-1.885l-4.027,-4.489l0.412,-5.335l5.034,-2.503Z" style="fill:#877841;fill-opacity:0.7;"/></g><path d="M118.39,158.189l-8.709,10.148l1.338,6.036l7.371,19.785c0,0 8.248,-5.443 10.733,-5.366c2.486,0.076 7.943,-3.971 7.943,-3.971l-2.576,-9.446l-8.207,-6.629l-7.893,-10.557Z" style="fill:#c7bc64;"/><clipPath id="_clip6"><path d="M118.39,158.189l-8.709,10.148l1.338,6.036l7.371,19.785c0,0 8.248,-5.443 10.733,-5.366c2.486,0.076 7.943,-3.971 7.943,-3.971l-2.576,-9.446l-8.207,-6.629l-7.893,-10.557Z"/></clipPath><g clip-path="url(#_clip6)"><path d="M122.415,161.09l-8.372,9.701l1.286,5.77l7.086,18.914c0,0 7.927,-5.203 10.317,-5.13c2.389,0.073 7.634,-3.797 7.634,-3.797l-2.476,-9.029l-7.889,-6.338l-7.586,-10.091Zm46.426,-1.63l-10.317,1.147l-10.317,6.651l1.484,7.395l4.238,5.711l7.483,-1.409l5.101,-4.848l3.89,-6.072l-1.562,-8.575Zm11.734,-23.688l-6.575,5.403l2.189,12.169l8.128,2.858l7.227,1.825l3.09,-3.594l3.27,1.626l5.224,-0.72l1.823,-4.026l-5.159,-4.576l-3.885,-3.198l-7.221,-4.948l-8.111,-2.819Zm-35.113,-8.191l-7.572,3.765l-5.158,9.829l2.356,9.299l18.278,3.959l6.625,-6.966l1.421,-7.296l-5.633,-7.46l-10.317,-5.13Zm59.489,-19.321l6.671,8.447l-1.513,14.639l-5.158,7.696l-7.137,-3.549l-3.18,-6.712l0,-10.261l10.317,-10.26Zm-90.908,21.488l3.213,-10.478l6.475,-5.225l14.159,3.776l-5.158,13.913l-10.317,4.64l-8.372,-6.626Zm49.64,-19.168l5.158,-4.885l10.317,1.445l1.869,4.614l1.058,7.876l-10.606,10.405l-2.638,-5.153l-5.158,-1.231l-2.271,-9.838l2.271,-3.233Zm30.449,-20.733l8.996,5.787l-1.467,5.86l-5.158,2.565l-3.79,-1.885l-4.027,-4.489l0.412,-5.335l5.034,-2.503Z" style="fill:#877841;fill-opacity:0.7;"/></g><path d="M166.689,156.485l-10.733,1.199l-10.733,6.958l1.544,7.736l4.409,5.974l7.785,-1.474l5.307,-5.072l4.046,-6.352l-1.625,-8.969" style="fill:#c7bc64;"/><clipPath id="_clip7"><path d="M166.689,156.485l-10.733,1.199l-10.733,6.958l1.544,7.736l4.409,5.974l7.785,-1.474l5.307,-5.072l4.046,-6.352l-1.625,-8.969"/></clipPath><g clip-path="url(#_clip7)"><path d="M122.415,161.09l-8.372,9.701l1.286,5.77l7.086,18.914c0,0 7.927,-5.203 10.317,-5.13c2.389,0.073 7.634,-3.797 7.634,-3.797l-2.476,-9.029l-7.889,-6.338l-7.586,-10.091Zm46.426,-1.63l-10.317,1.147l-10.317,6.651l1.484,7.395l4.238,5.711l7.483,-1.409l5.101,-4.848l3.89,-6.072l-1.562,-8.575Zm11.734,-23.688l-6.575,5.403l2.189,12.169l8.128,2.858l7.227,1.825l3.09,-3.594l3.27,1.626l5.224,-0.72l1.823,-4.026l-5.159,-4.576l-3.885,-3.198l-7.221,-4.948l-8.111,-2.819Zm-35.113,-8.191l-7.572,3.765l-5.158,9.829l2.356,9.299l18.278,3.959l6.625,-6.966l1.421,-7.296l-5.633,-7.46l-10.317,-5.13Zm59.489,-19.321l6.671,8.447l-1.513,14.639l-5.158,7.696l-7.137,-3.549l-3.18,-6.712l0,-10.261l10.317,-10.26Zm-90.908,21.488l3.213,-10.478l6.475,-5.225l14.159,3.776l-5.158,13.913l-10.317,4.64l-8.372,-6.626Zm49.64,-19.168l5.158,-4.885l10.317,1.445l1.869,4.614l1.058,7.876l-10.606,10.405l-2.638,-5.153l-5.158,-1.231l-2.271,-9.838l2.271,-3.233Zm30.449,-20.733l8.996,5.787l-1.467,5.86l-5.158,2.565l-3.79,-1.885l-4.027,-4.489l0.412,-5.335l5.034,-2.503Z" style="fill:#877841;fill-opacity:0.7;"/></g><path d="M109.681,125.405l8.709,6.93l10.733,-4.853l5.367,-14.554l-14.73,-3.95l-6.736,5.465l-3.343,10.962" style="fill:#c7bc64;"/><clipPath id="_clip8"><path d="M109.681,125.405l8.709,6.93l10.733,-4.853l5.367,-14.554l-14.73,-3.95l-6.736,5.465l-3.343,10.962"/></clipPath><g clip-path="url(#_clip8)"><path d="M122.415,161.09l-8.372,9.701l1.286,5.77l7.086,18.914c0,0 7.927,-5.203 10.317,-5.13c2.389,0.073 7.634,-3.797 7.634,-3.797l-2.476,-9.029l-7.889,-6.338l-7.586,-10.091Zm46.426,-1.63l-10.317,1.147l-10.317,6.651l1.484,7.395l4.238,5.711l7.483,-1.409l5.101,-4.848l3.89,-6.072l-1.562,-8.575Zm11.734,-23.688l-6.575,5.403l2.189,12.169l8.128,2.858l7.227,1.825l3.09,-3.594l3.27,1.626l5.224,-0.72l1.823,-4.026l-5.159,-4.576l-3.885,-3.198l-7.221,-4.948l-8.111,-2.819Zm-35.113,-8.191l-7.572,3.765l-5.158,9.829l2.356,9.299l18.278,3.959l6.625,-6.966l1.421,-7.296l-5.633,-7.46l-10.317,-5.13Zm59.489,-19.321l6.671,8.447l-1.513,14.639l-5.158,7.696l-7.137,-3.549l-3.18,-6.712l0,-10.261l10.317,-10.26Zm-90.908,21.488l3.213,-10.478l6.475,-5.225l14.159,3.776l-5.158,13.913l-10.317,4.64l-8.372,-6.626Zm49.64,-19.168l5.158,-4.885l10.317,1.445l1.869,4.614l1.058,7.876l-10.606,10.405l-2.638,-5.153l-5.158,-1.231l-2.271,-9.838l2.271,-3.233Zm30.449,-20.733l8.996,5.787l-1.467,5.86l-5.158,2.565l-3.79,-1.885l-4.027,-4.489l0.412,-5.335l5.034,-2.503Z" style="fill:#877841;fill-opacity:0.7;"/></g></g><path d="M0.326,54.628l107.331,53.665l0,96.598l-107.331,-53.665l0,-96.598" style="fill:#685632;"/><clipPath id="_clip9"><path d="M0.326,54.628l107.331,53.665l0,96.598l-107.331,-53.665l0,-96.598"/></clipPath><g clip-path="url(#_clip9)"><path d="M90.188,174.69l11.734,-4.08l-0.235,-16.22l-6.989,-11.582l-11.749,-1.319l-5.988,4.725l-1.503,10.627l14.73,17.849" style="fill:#685632;"/><path d="M85.866,191.038l17.273,-3.671l-1.819,-6.447l-9.043,-3.99l-7.196,0.974l-8.01,3.609l-0.029,5.632l8.824,3.893Z" style="fill:#685632;"/><path d="M48.924,166.711l4.778,5.836l11.198,0.057l2.666,-4.497l2.281,-7.998l-9.77,-12.374l-3.564,4.939l-5.673,0.498l-3.86,9.848l1.944,3.691" style="fill:#685632;"/><path d="M74.014,140.843l-6.21,-6.587l4.114,-12.273l9.074,-1.736l7.963,-0.801l2.764,4.188l3.72,-1.192l5.458,1.532l1.351,4.444l-6.164,3.963l-4.606,2.727l-8.414,4.037l-9.05,1.698Z" style="fill:#685632;"/><path d="M34.864,151.788l-4.295,-4.586l-1.861,-10.647l2.87,-9.418l12.278,-2.445l3.22,7.815l-0.159,7.685l-4.699,7.216l-7.354,4.38Z" style="fill:#685632;"/><path d="M15.79,105.86l-7.494,-11.309l2.215,-5.783l10.317,-18.523c0,0 7.68,6.584 10.235,6.868c2.555,0.284 7.573,5.082 7.573,5.082l-3.959,8.979l-9.33,5.376l-9.557,9.31Z" style="fill:#685632;"/><path d="M61.079,119.902l-10.818,-2.741l-10.012,-8.444l2.664,-7.435l5.35,-5.277l7.762,2.587l4.721,5.79l3.252,6.875l-2.919,8.645" style="fill:#685632;"/><path d="M4.316,125.817l8.581,-9.593l7.678,8.655l1.217,22.864l-12.832,4.344l-4.296,-9.13l-0.348,-17.14" style="fill:#685632;"/><path d="M81.876,191.481l17.273,-3.67l-1.819,-6.448l-9.043,-3.989l-7.196,0.973l-8.01,3.609l-0.029,5.633l8.824,3.892Zm4.322,-16.347l-14.73,-17.849l1.503,-10.627l5.988,-4.726l11.749,1.32l6.989,11.581l0.235,16.221l-11.734,4.08Zm-41.263,-7.98l-1.945,-3.691l3.86,-9.847l5.673,-0.498l3.564,-4.94l9.77,12.374l-2.281,7.998l-2.666,4.498l-11.198,-0.057l-4.777,-5.837Zm-44.609,-40.894l8.581,-9.592l7.678,8.654l1.217,22.864l-12.832,4.344l-4.296,-9.129l-0.348,-17.141Zm30.548,25.971l-4.295,-4.585l-1.861,-10.648l2.87,-9.417l12.278,-2.446l3.22,7.815l-0.159,7.685l-4.698,7.217l-7.355,4.379Zm39.15,-10.944l-6.21,-6.587l4.114,-12.274l9.074,-1.735l7.964,-0.802l2.763,4.188l3.72,-1.192l5.458,1.533l1.351,4.444l-6.164,3.962l-4.605,2.728l-8.415,4.037l-9.05,1.698Zm-12.935,-20.941l-10.818,-2.742l-10.012,-8.443l2.664,-7.436l5.35,-5.277l7.762,2.587l4.721,5.79l3.252,6.875l-2.919,8.646Zm-45.289,-14.043l-7.494,-11.309l2.215,-5.782l10.317,-18.523c0,0 7.68,6.583 10.235,6.868c2.555,0.284 7.573,5.082 7.573,5.082l-3.959,8.979l-9.33,5.375l-9.557,9.31Z" style="fill:#311807;fill-opacity:0.5;"/></g><path d="M214.989,54.628l0,26.833l-10.734,-16.1l0,16.1l-8.67,-4.336l4.333,15.49l-14.975,-22.965l0.451,7.746l-5.843,0.317l3.238,11.289l-1.845,14.847l-3.521,-12.351l-4.171,-5.269l1.51,16.757l-11.172,-11.926l3.099,25.283l-6.377,-5.412l-2.981,-10l-4.789,6.386l7.77,17.581l-8.606,-1.063l-10.553,-12.529l-12.03,-5.352l3.041,22.285l-10.106,-13.941l-14.401,20.828l-7.526,-23.07l-4.833,20.348l-9.107,-22.734l-8.081,10.683l0.214,18.707l-4.131,-4.472l-4.102,-18.245l-5.366,8.05l-5.367,13.416l-1.917,-17.058l-8.816,3.427l6.34,-10.967l4.393,-7.601l-8.851,9.792l-4.514,-13.843l-13.468,20.655l-5.366,-27.337l-8.824,20.511l-4.172,-24.746l5.66,-10.166l-14.13,3.668l-5.367,13.416l0,-42.932l107.331,-53.666l107.332,53.666Z" style="fill:#b4e164;"/><clipPath id="_clip10"><path d="M214.989,54.628l0,26.833l-10.734,-16.1l0,16.1l-8.67,-4.336l4.333,15.49l-14.975,-22.965l0.451,7.746l-5.843,0.317l3.238,11.289l-1.845,14.847l-3.521,-12.351l-4.171,-5.269l1.51,16.757l-11.172,-11.926l3.099,25.283l-6.377,-5.412l-2.981,-10l-4.789,6.386l7.77,17.581l-8.606,-1.063l-10.553,-12.529l-12.03,-5.352l3.041,22.285l-10.106,-13.941l-14.401,20.828l-7.526,-23.07l-4.833,20.348l-9.107,-22.734l-8.081,10.683l0.214,18.707l-4.131,-4.472l-4.102,-18.245l-5.366,8.05l-5.367,13.416l-1.917,-17.058l-8.816,3.427l6.34,-10.967l4.393,-7.601l-8.851,9.792l-4.514,-13.843l-13.468,20.655l-5.366,-27.337l-8.824,20.511l-4.172,-24.746l5.66,-10.166l-14.13,3.668l-5.367,13.416l0,-42.932l107.331,-53.666l107.332,53.666Z"/></clipPath><g clip-path="url(#_clip10)"><path d="M107.657,108.293l0,45.683l-72.924,-1.646l-34.407,-47.118l0,-50.656l107.331,53.737Z" style="fill:#311807;fill-opacity:0.2;"/><path d="M214.989,108.293l0,-53.665l-107.332,53.665l0,53.666l107.332,-53.666Z" style="fill:#febc3b;fill-opacity:0.2;"/><path d="M214.989,54.628l-2.247,14.976l-10.612,-8.547l-3.241,12.354l-6.985,-1.874l-12.71,-4.378l-1.771,6.252l3.708,14.245c0,0 -16.03,-13.515 -14.442,-8.879c1.589,4.636 5.367,16.209 5.367,16.209l-10.733,-8.159l2.682,22.807l-10.352,-15.909l-3.063,11.572l0,10.941l-16.1,-15.995l-7.94,1.397l-0.548,15.826l-7.612,-7.33l-5.366,14.519l-5.367,-0.262l-7.789,-14.628l-5.22,8.124l-10.143,-14.119l-14.414,12.573l-10.733,5.367l2.547,-22.74l-13.28,12.007l-7.128,-14.298l-6.253,15.621l-8.085,-17.423l-13.381,6.69l13.381,-22.79c0,0 -0.374,-1.702 -2.748,-1.373c-2.373,0.328 -18.718,1.373 -18.718,1.373l-5.367,2.684l-0.071,-26.869l107.331,-53.666l107.403,53.702Z" style="fill:#9ecc55;fill-opacity:0.5;"/><path d="M129.123,0.962c0,0 -0.181,0.195 -10.733,5.367c-10.551,5.171 -19.231,9.904 -21.466,21.466c-2.235,11.561 -15.077,22.463 -32.199,21.466c-17.123,-0.996 -42.981,5.495 -53.666,10.733l5.367,45.616l-16.1,-8.116l0,-42.866l0,-10.733l113.666,-50.499l15.131,7.566" style="fill:#3c934d;fill-opacity:0.5;"/><path d="M161.323,17.062c0,0 0.267,-0.283 -10.733,5.366c-11.001,5.65 -3.829,12.234 -21.467,16.1c-17.637,3.866 -31.336,10.937 -34.827,25.519c-3.49,14.581 -5.906,23.628 -18.838,21.402c-12.932,-2.225 -20.889,-14.718 -32.2,-9.355l-5.366,24.149l5.366,36.374l19.498,8.258l34.168,-4.382l3.926,-16.542l-3.926,-21.024c0,0 8.142,-3.757 10.733,-5.367c2.591,-1.61 16.19,-5.168 22.912,-16.822c6.722,-11.654 18.956,-21.982 37.673,-22.651c18.716,-0.669 25.03,-3.196 36.013,-8.826c10.983,-5.629 -42.932,-32.199 -42.932,-32.199" style="fill:#b4e164;fill-opacity:0.528571;"/><path d="M214.989,54.628l-10.734,-5.367c0,0 -11.906,6.371 -18.921,7.17c-0.886,0.101 -4.211,1.285 -16.128,1.65c-19.401,0.595 -29.416,9.536 -37.033,20.286c-6.043,8.53 -4.03,8.29 -19.149,16.877c-0.925,0.525 -4.542,1.893 -6.188,2.727c-8.727,4.423 -8.688,4.281 -9.912,4.991l10.733,5.367l0,42.897l107.332,-53.666l0,-42.932" style="fill:#3c934d;fill-opacity:0.5;"/></g></g></g></svg>