<?xml version="1.0" encoding="UTF-8" standalone="no"?><!DOCTYPE svg PUBLIC "-//W3C//DTD SVG 1.1//EN" "http://www.w3.org/Graphics/SVG/1.1/DTD/svg11.dtd"><svg width="100%" height="100%" viewBox="0 0 215 210" version="1.1" xmlns="http://www.w3.org/2000/svg" xmlns:xlink="http://www.w3.org/1999/xlink" xml:space="preserve" xmlns:serif="http://www.serif.com/" style="fill-rule:evenodd;clip-rule:evenodd;stroke-linejoin:round;stroke-miterlimit:1.41421;"><g id="Grass_Block04"><g id="Grass_Block02"><g><path d="M214.989,59.29l0,96.598l-107.332,53.666l0,-96.598l107.332,-53.666Z" style="fill:#a87f43;"/><path d="M122.415,165.752l-8.372,9.701l1.286,5.77l7.086,18.915c0,0 7.927,-5.204 10.317,-5.131c2.389,0.073 7.634,-3.796 7.634,-3.796l-2.476,-9.029l-7.889,-6.338l-7.586,-10.092Zm46.426,-1.629l-10.317,1.146l-10.317,6.652l1.484,7.395l4.238,5.711l7.483,-1.409l5.101,-4.849l3.89,-6.072l-1.562,-8.574Zm11.734,-23.688l-6.575,5.403l2.189,12.168l8.128,2.858l7.227,1.825l3.09,-3.594l3.27,1.626l5.224,-0.719l1.823,-4.026l-5.159,-4.576l-3.885,-3.199l-7.221,-4.947l-8.111,-2.819Zm-35.113,-8.192l-7.572,3.766l-5.158,9.829l2.356,9.299l18.278,3.958l6.625,-6.966l1.421,-7.296l-5.633,-7.459l-10.317,-5.131Zm59.489,-19.321l6.671,8.448l-1.513,14.639l-5.158,7.695l-7.137,-3.549l-3.18,-6.711l0,-10.261l10.317,-10.261Zm-90.908,21.489l3.213,-10.479l6.475,-5.225l14.159,3.777l-5.158,13.912l-10.317,4.64l-8.372,-6.625Zm49.64,-19.169l5.158,-4.885l10.317,1.445l1.869,4.615l1.058,7.876l-10.606,10.404l-2.638,-5.153l-5.158,-1.231l-2.271,-9.838l2.271,-3.233Zm30.449,-20.732l8.996,5.787l-1.467,5.859l-5.158,2.566l-3.79,-1.885l-4.027,-4.489l0.412,-5.335l5.034,-2.503Z" style="fill:#877841;fill-opacity:0.7;"/><path d="M204.255,107.589l6.941,8.837l-1.574,15.313l-5.367,8.05l-7.424,-3.713l-3.309,-7.02l0,-10.734l10.733,-10.733" style="fill:#c7bc64;"/><clipPath id="_clip1"><path d="M204.255,107.589l6.941,8.837l-1.574,15.313l-5.367,8.05l-7.424,-3.713l-3.309,-7.02l0,-10.734l10.733,-10.733"/></clipPath><g clip-path="url(#_clip1)"><path d="M122.415,165.752l-8.372,9.701l1.286,5.77l7.086,18.915c0,0 7.927,-5.204 10.317,-5.131c2.389,0.073 7.634,-3.796 7.634,-3.796l-2.476,-9.029l-7.889,-6.338l-7.586,-10.092Zm46.426,-1.629l-10.317,1.146l-10.317,6.652l1.484,7.395l4.238,5.711l7.483,-1.409l5.101,-4.849l3.89,-6.072l-1.562,-8.574Zm11.734,-23.688l-6.575,5.403l2.189,12.168l8.128,2.858l7.227,1.825l3.09,-3.594l3.27,1.626l5.224,-0.719l1.823,-4.026l-5.159,-4.576l-3.885,-3.199l-7.221,-4.947l-8.111,-2.819Zm-35.113,-8.192l-7.572,3.766l-5.158,9.829l2.356,9.299l18.278,3.958l6.625,-6.966l1.421,-7.296l-5.633,-7.459l-10.317,-5.131Zm59.489,-19.321l6.671,8.448l-1.513,14.639l-5.158,7.695l-7.137,-3.549l-3.18,-6.711l0,-10.261l10.317,-10.261Zm-90.908,21.489l3.213,-10.479l6.475,-5.225l14.159,3.777l-5.158,13.912l-10.317,4.64l-8.372,-6.625Zm49.64,-19.169l5.158,-4.885l10.317,1.445l1.869,4.615l1.058,7.876l-10.606,10.404l-2.638,-5.153l-5.158,-1.231l-2.271,-9.838l2.271,-3.233Zm30.449,-20.732l8.996,5.787l-1.467,5.859l-5.158,2.566l-3.79,-1.885l-4.027,-4.489l0.412,-5.335l5.034,-2.503Z" style="fill:#877841;fill-opacity:0.7;"/></g><path d="M193,88.329l9.359,6.053l-1.526,6.13l-5.366,2.683l-3.943,-1.971l-4.189,-4.696l0.429,-5.581l5.236,-2.618Z" style="fill:#c7bc64;"/><clipPath id="_clip2"><path d="M193,88.329l9.359,6.053l-1.526,6.13l-5.366,2.683l-3.943,-1.971l-4.189,-4.696l0.429,-5.581l5.236,-2.618Z"/></clipPath><g clip-path="url(#_clip2)"><path d="M122.415,165.752l-8.372,9.701l1.286,5.77l7.086,18.915c0,0 7.927,-5.204 10.317,-5.131c2.389,0.073 7.634,-3.796 7.634,-3.796l-2.476,-9.029l-7.889,-6.338l-7.586,-10.092Zm46.426,-1.629l-10.317,1.146l-10.317,6.652l1.484,7.395l4.238,5.711l7.483,-1.409l5.101,-4.849l3.89,-6.072l-1.562,-8.574Zm11.734,-23.688l-6.575,5.403l2.189,12.168l8.128,2.858l7.227,1.825l3.09,-3.594l3.27,1.626l5.224,-0.719l1.823,-4.026l-5.159,-4.576l-3.885,-3.199l-7.221,-4.947l-8.111,-2.819Zm-35.113,-8.192l-7.572,3.766l-5.158,9.829l2.356,9.299l18.278,3.958l6.625,-6.966l1.421,-7.296l-5.633,-7.459l-10.317,-5.131Zm59.489,-19.321l6.671,8.448l-1.513,14.639l-5.158,7.695l-7.137,-3.549l-3.18,-6.711l0,-10.261l10.317,-10.261Zm-90.908,21.489l3.213,-10.479l6.475,-5.225l14.159,3.777l-5.158,13.912l-10.317,4.64l-8.372,-6.625Zm49.64,-19.169l5.158,-4.885l10.317,1.445l1.869,4.615l1.058,7.876l-10.606,10.404l-2.638,-5.153l-5.158,-1.231l-2.271,-9.838l2.271,-3.233Zm30.449,-20.732l8.996,5.787l-1.467,5.859l-5.158,2.566l-3.79,-1.885l-4.027,-4.489l0.412,-5.335l5.034,-2.503Z" style="fill:#877841;fill-opacity:0.7;"/></g><path d="M161.323,110.016l5.366,-5.11l10.734,1.512l1.944,4.827l1.101,8.238l-11.034,10.884l-2.745,-5.39l-5.366,-1.288l-2.362,-10.291l2.362,-3.382" style="fill:#c7bc64;"/><clipPath id="_clip3"><path d="M161.323,110.016l5.366,-5.11l10.734,1.512l1.944,4.827l1.101,8.238l-11.034,10.884l-2.745,-5.39l-5.366,-1.288l-2.362,-10.291l2.362,-3.382"/></clipPath><g clip-path="url(#_clip3)"><path d="M122.415,165.752l-8.372,9.701l1.286,5.77l7.086,18.915c0,0 7.927,-5.204 10.317,-5.131c2.389,0.073 7.634,-3.796 7.634,-3.796l-2.476,-9.029l-7.889,-6.338l-7.586,-10.092Zm46.426,-1.629l-10.317,1.146l-10.317,6.652l1.484,7.395l4.238,5.711l7.483,-1.409l5.101,-4.849l3.89,-6.072l-1.562,-8.574Zm11.734,-23.688l-6.575,5.403l2.189,12.168l8.128,2.858l7.227,1.825l3.09,-3.594l3.27,1.626l5.224,-0.719l1.823,-4.026l-5.159,-4.576l-3.885,-3.199l-7.221,-4.947l-8.111,-2.819Zm-35.113,-8.192l-7.572,3.766l-5.158,9.829l2.356,9.299l18.278,3.958l6.625,-6.966l1.421,-7.296l-5.633,-7.459l-10.317,-5.131Zm59.489,-19.321l6.671,8.448l-1.513,14.639l-5.158,7.695l-7.137,-3.549l-3.18,-6.711l0,-10.261l10.317,-10.261Zm-90.908,21.489l3.213,-10.479l6.475,-5.225l14.159,3.777l-5.158,13.912l-10.317,4.64l-8.372,-6.625Zm49.64,-19.169l5.158,-4.885l10.317,1.445l1.869,4.615l1.058,7.876l-10.606,10.404l-2.638,-5.153l-5.158,-1.231l-2.271,-9.838l2.271,-3.233Zm30.449,-20.732l8.996,5.787l-1.467,5.859l-5.158,2.566l-3.79,-1.885l-4.027,-4.489l0.412,-5.335l5.034,-2.503Z" style="fill:#877841;fill-opacity:0.7;"/></g><path d="M178.896,136.368l-6.84,5.653l2.278,12.728l8.455,2.99l7.519,1.909l3.214,-3.76l3.402,1.701l5.435,-0.752l1.896,-4.211l-5.366,-4.787l-4.042,-3.346l-7.512,-5.176l-8.439,-2.949Z" style="fill:#c7bc64;"/><clipPath id="_clip4"><path d="M178.896,136.368l-6.84,5.653l2.278,12.728l8.455,2.99l7.519,1.909l3.214,-3.76l3.402,1.701l5.435,-0.752l1.896,-4.211l-5.366,-4.787l-4.042,-3.346l-7.512,-5.176l-8.439,-2.949Z"/></clipPath><g clip-path="url(#_clip4)"><path d="M122.415,165.752l-8.372,9.701l1.286,5.77l7.086,18.915c0,0 7.927,-5.204 10.317,-5.131c2.389,0.073 7.634,-3.796 7.634,-3.796l-2.476,-9.029l-7.889,-6.338l-7.586,-10.092Zm46.426,-1.629l-10.317,1.146l-10.317,6.652l1.484,7.395l4.238,5.711l7.483,-1.409l5.101,-4.849l3.89,-6.072l-1.562,-8.574Zm11.734,-23.688l-6.575,5.403l2.189,12.168l8.128,2.858l7.227,1.825l3.09,-3.594l3.27,1.626l5.224,-0.719l1.823,-4.026l-5.159,-4.576l-3.885,-3.199l-7.221,-4.947l-8.111,-2.819Zm-35.113,-8.192l-7.572,3.766l-5.158,9.829l2.356,9.299l18.278,3.958l6.625,-6.966l1.421,-7.296l-5.633,-7.459l-10.317,-5.131Zm59.489,-19.321l6.671,8.448l-1.513,14.639l-5.158,7.695l-7.137,-3.549l-3.18,-6.711l0,-10.261l10.317,-10.261Zm-90.908,21.489l3.213,-10.479l6.475,-5.225l14.159,3.777l-5.158,13.912l-10.317,4.64l-8.372,-6.625Zm49.64,-19.169l5.158,-4.885l10.317,1.445l1.869,4.615l1.058,7.876l-10.606,10.404l-2.638,-5.153l-5.158,-1.231l-2.271,-9.838l2.271,-3.233Zm30.449,-20.732l8.996,5.787l-1.467,5.859l-5.158,2.566l-3.79,-1.885l-4.027,-4.489l0.412,-5.335l5.034,-2.503Z" style="fill:#877841;fill-opacity:0.7;"/></g><path d="M142.368,127.8l-7.878,3.939l-5.367,10.282l2.452,9.727l19.015,4.14l6.893,-7.286l1.478,-7.632l-5.86,-7.803l-10.733,-5.367Z" style="fill:#c7bc64;"/><clipPath id="_clip5"><path d="M142.368,127.8l-7.878,3.939l-5.367,10.282l2.452,9.727l19.015,4.14l6.893,-7.286l1.478,-7.632l-5.86,-7.803l-10.733,-5.367Z"/></clipPath><g clip-path="url(#_clip5)"><path d="M122.415,165.752l-8.372,9.701l1.286,5.77l7.086,18.915c0,0 7.927,-5.204 10.317,-5.131c2.389,0.073 7.634,-3.796 7.634,-3.796l-2.476,-9.029l-7.889,-6.338l-7.586,-10.092Zm46.426,-1.629l-10.317,1.146l-10.317,6.652l1.484,7.395l4.238,5.711l7.483,-1.409l5.101,-4.849l3.89,-6.072l-1.562,-8.574Zm11.734,-23.688l-6.575,5.403l2.189,12.168l8.128,2.858l7.227,1.825l3.09,-3.594l3.27,1.626l5.224,-0.719l1.823,-4.026l-5.159,-4.576l-3.885,-3.199l-7.221,-4.947l-8.111,-2.819Zm-35.113,-8.192l-7.572,3.766l-5.158,9.829l2.356,9.299l18.278,3.958l6.625,-6.966l1.421,-7.296l-5.633,-7.459l-10.317,-5.131Zm59.489,-19.321l6.671,8.448l-1.513,14.639l-5.158,7.695l-7.137,-3.549l-3.18,-6.711l0,-10.261l10.317,-10.261Zm-90.908,21.489l3.213,-10.479l6.475,-5.225l14.159,3.777l-5.158,13.912l-10.317,4.64l-8.372,-6.625Zm49.64,-19.169l5.158,-4.885l10.317,1.445l1.869,4.615l1.058,7.876l-10.606,10.404l-2.638,-5.153l-5.158,-1.231l-2.271,-9.838l2.271,-3.233Zm30.449,-20.732l8.996,5.787l-1.467,5.859l-5.158,2.566l-3.79,-1.885l-4.027,-4.489l0.412,-5.335l5.034,-2.503Z" style="fill:#877841;fill-opacity:0.7;"/></g><path d="M118.39,162.852l-8.709,10.148l1.338,6.035l7.371,19.786c0,0 8.248,-5.443 10.733,-5.367c2.486,0.077 7.943,-3.971 7.943,-3.971l-2.576,-9.445l-8.207,-6.629l-7.893,-10.557Z" style="fill:#c7bc64;"/><clipPath id="_clip6"><path d="M118.39,162.852l-8.709,10.148l1.338,6.035l7.371,19.786c0,0 8.248,-5.443 10.733,-5.367c2.486,0.077 7.943,-3.971 7.943,-3.971l-2.576,-9.445l-8.207,-6.629l-7.893,-10.557Z"/></clipPath><g clip-path="url(#_clip6)"><path d="M122.415,165.752l-8.372,9.701l1.286,5.77l7.086,18.915c0,0 7.927,-5.204 10.317,-5.131c2.389,0.073 7.634,-3.796 7.634,-3.796l-2.476,-9.029l-7.889,-6.338l-7.586,-10.092Zm46.426,-1.629l-10.317,1.146l-10.317,6.652l1.484,7.395l4.238,5.711l7.483,-1.409l5.101,-4.849l3.89,-6.072l-1.562,-8.574Zm11.734,-23.688l-6.575,5.403l2.189,12.168l8.128,2.858l7.227,1.825l3.09,-3.594l3.27,1.626l5.224,-0.719l1.823,-4.026l-5.159,-4.576l-3.885,-3.199l-7.221,-4.947l-8.111,-2.819Zm-35.113,-8.192l-7.572,3.766l-5.158,9.829l2.356,9.299l18.278,3.958l6.625,-6.966l1.421,-7.296l-5.633,-7.459l-10.317,-5.131Zm59.489,-19.321l6.671,8.448l-1.513,14.639l-5.158,7.695l-7.137,-3.549l-3.18,-6.711l0,-10.261l10.317,-10.261Zm-90.908,21.489l3.213,-10.479l6.475,-5.225l14.159,3.777l-5.158,13.912l-10.317,4.64l-8.372,-6.625Zm49.64,-19.169l5.158,-4.885l10.317,1.445l1.869,4.615l1.058,7.876l-10.606,10.404l-2.638,-5.153l-5.158,-1.231l-2.271,-9.838l2.271,-3.233Zm30.449,-20.732l8.996,5.787l-1.467,5.859l-5.158,2.566l-3.79,-1.885l-4.027,-4.489l0.412,-5.335l5.034,-2.503Z" style="fill:#877841;fill-opacity:0.7;"/></g><path d="M166.689,161.148l-10.733,1.199l-10.733,6.958l1.544,7.735l4.409,5.974l7.785,-1.474l5.307,-5.071l4.046,-6.352l-1.625,-8.969" style="fill:#c7bc64;"/><clipPath id="_clip7"><path d="M166.689,161.148l-10.733,1.199l-10.733,6.958l1.544,7.735l4.409,5.974l7.785,-1.474l5.307,-5.071l4.046,-6.352l-1.625,-8.969"/></clipPath><g clip-path="url(#_clip7)"><path d="M122.415,165.752l-8.372,9.701l1.286,5.77l7.086,18.915c0,0 7.927,-5.204 10.317,-5.131c2.389,0.073 7.634,-3.796 7.634,-3.796l-2.476,-9.029l-7.889,-6.338l-7.586,-10.092Zm46.426,-1.629l-10.317,1.146l-10.317,6.652l1.484,7.395l4.238,5.711l7.483,-1.409l5.101,-4.849l3.89,-6.072l-1.562,-8.574Zm11.734,-23.688l-6.575,5.403l2.189,12.168l8.128,2.858l7.227,1.825l3.09,-3.594l3.27,1.626l5.224,-0.719l1.823,-4.026l-5.159,-4.576l-3.885,-3.199l-7.221,-4.947l-8.111,-2.819Zm-35.113,-8.192l-7.572,3.766l-5.158,9.829l2.356,9.299l18.278,3.958l6.625,-6.966l1.421,-7.296l-5.633,-7.459l-10.317,-5.131Zm59.489,-19.321l6.671,8.448l-1.513,14.639l-5.158,7.695l-7.137,-3.549l-3.18,-6.711l0,-10.261l10.317,-10.261Zm-90.908,21.489l3.213,-10.479l6.475,-5.225l14.159,3.777l-5.158,13.912l-10.317,4.64l-8.372,-6.625Zm49.64,-19.169l5.158,-4.885l10.317,1.445l1.869,4.615l1.058,7.876l-10.606,10.404l-2.638,-5.153l-5.158,-1.231l-2.271,-9.838l2.271,-3.233Zm30.449,-20.732l8.996,5.787l-1.467,5.859l-5.158,2.566l-3.79,-1.885l-4.027,-4.489l0.412,-5.335l5.034,-2.503Z" style="fill:#877841;fill-opacity:0.7;"/></g><path d="M109.681,130.067l8.709,6.931l10.733,-4.854l5.367,-14.553l-14.73,-3.95l-6.736,5.465l-3.343,10.961" style="fill:#c7bc64;"/><clipPath id="_clip8"><path d="M109.681,130.067l8.709,6.931l10.733,-4.854l5.367,-14.553l-14.73,-3.95l-6.736,5.465l-3.343,10.961"/></clipPath><g clip-path="url(#_clip8)"><path d="M122.415,165.752l-8.372,9.701l1.286,5.77l7.086,18.915c0,0 7.927,-5.204 10.317,-5.131c2.389,0.073 7.634,-3.796 7.634,-3.796l-2.476,-9.029l-7.889,-6.338l-7.586,-10.092Zm46.426,-1.629l-10.317,1.146l-10.317,6.652l1.484,7.395l4.238,5.711l7.483,-1.409l5.101,-4.849l3.89,-6.072l-1.562,-8.574Zm11.734,-23.688l-6.575,5.403l2.189,12.168l8.128,2.858l7.227,1.825l3.09,-3.594l3.27,1.626l5.224,-0.719l1.823,-4.026l-5.159,-4.576l-3.885,-3.199l-7.221,-4.947l-8.111,-2.819Zm-35.113,-8.192l-7.572,3.766l-5.158,9.829l2.356,9.299l18.278,3.958l6.625,-6.966l1.421,-7.296l-5.633,-7.459l-10.317,-5.131Zm59.489,-19.321l6.671,8.448l-1.513,14.639l-5.158,7.695l-7.137,-3.549l-3.18,-6.711l0,-10.261l10.317,-10.261Zm-90.908,21.489l3.213,-10.479l6.475,-5.225l14.159,3.777l-5.158,13.912l-10.317,4.64l-8.372,-6.625Zm49.64,-19.169l5.158,-4.885l10.317,1.445l1.869,4.615l1.058,7.876l-10.606,10.404l-2.638,-5.153l-5.158,-1.231l-2.271,-9.838l2.271,-3.233Zm30.449,-20.732l8.996,5.787l-1.467,5.859l-5.158,2.566l-3.79,-1.885l-4.027,-4.489l0.412,-5.335l5.034,-2.503Z" style="fill:#877841;fill-opacity:0.7;"/></g></g><path d="M0.326,59.29l107.331,53.666l0,96.598l-107.331,-53.666l0,-96.598" style="fill:#685632;"/><clipPath id="_clip9"><path d="M0.326,59.29l107.331,53.666l0,96.598l-107.331,-53.666l0,-96.598"/></clipPath><g clip-path="url(#_clip9)"><path d="M90.188,179.353l11.734,-4.08l-0.235,-16.221l-6.989,-11.581l-11.749,-1.32l-5.988,4.726l-1.503,10.627l14.73,17.849" style="fill:#685632;"/><path d="M85.866,195.701l17.273,-3.671l-1.819,-6.448l-9.043,-3.989l-7.196,0.973l-8.01,3.609l-0.029,5.633l8.824,3.893Z" style="fill:#685632;"/><path d="M48.924,171.373l4.778,5.837l11.198,0.057l2.666,-4.498l2.281,-7.998l-9.77,-12.374l-3.564,4.94l-5.673,0.498l-3.86,9.847l1.944,3.691" style="fill:#685632;"/><path d="M74.014,145.506l-6.21,-6.587l4.114,-12.274l9.074,-1.735l7.963,-0.802l2.764,4.188l3.72,-1.191l5.458,1.532l1.351,4.444l-6.164,3.963l-4.606,2.727l-8.414,4.037l-9.05,1.698Z" style="fill:#685632;"/><path d="M34.864,156.45l-4.295,-4.585l-1.861,-10.648l2.87,-9.417l12.278,-2.446l3.22,7.815l-0.159,7.686l-4.699,7.216l-7.354,4.379Z" style="fill:#685632;"/><path d="M15.79,110.522l-7.494,-11.309l2.215,-5.782l10.317,-18.523c0,0 7.68,6.583 10.235,6.868c2.555,0.284 7.573,5.082 7.573,5.082l-3.959,8.979l-9.33,5.375l-9.557,9.31Z" style="fill:#685632;"/><path d="M61.079,124.565l-10.818,-2.741l-10.012,-8.444l2.664,-7.436l5.35,-5.277l7.762,2.587l4.721,5.79l3.252,6.875l-2.919,8.646" style="fill:#685632;"/><path d="M4.316,130.479l8.581,-9.592l7.678,8.654l1.217,22.864l-12.832,4.344l-4.296,-9.129l-0.348,-17.141" style="fill:#685632;"/><path d="M81.876,196.144l17.273,-3.671l-1.819,-6.447l-9.043,-3.99l-7.196,0.973l-8.01,3.61l-0.029,5.632l8.824,3.893Zm4.322,-16.348l-14.73,-17.849l1.503,-10.627l5.988,-4.725l11.749,1.319l6.989,11.582l0.235,16.22l-11.734,4.08Zm-41.263,-7.979l-1.945,-3.691l3.86,-9.848l5.673,-0.498l3.564,-4.939l9.77,12.374l-2.281,7.998l-2.666,4.497l-11.198,-0.057l-4.777,-5.836Zm-44.609,-40.894l8.581,-9.593l7.678,8.655l1.217,22.864l-12.832,4.344l-4.296,-9.13l-0.348,-17.14Zm30.548,25.971l-4.295,-4.586l-1.861,-10.647l2.87,-9.418l12.278,-2.445l3.22,7.815l-0.159,7.685l-4.698,7.216l-7.355,4.38Zm39.15,-10.945l-6.21,-6.587l4.114,-12.273l9.074,-1.736l7.964,-0.801l2.763,4.187l3.72,-1.191l5.458,1.532l1.351,4.444l-6.164,3.963l-4.605,2.727l-8.415,4.037l-9.05,1.698Zm-12.935,-20.941l-10.818,-2.741l-10.012,-8.444l2.664,-7.435l5.35,-5.277l7.762,2.587l4.721,5.79l3.252,6.875l-2.919,8.645Zm-45.289,-14.042l-7.494,-11.309l2.215,-5.783l10.317,-18.523c0,0 7.68,6.584 10.235,6.868c2.555,0.284 7.573,5.082 7.573,5.082l-3.959,8.979l-9.33,5.376l-9.557,9.31Z" style="fill:#311807;fill-opacity:0.5;"/></g><path d="M214.989,59.29l0,26.833l-10.734,-16.1l0,16.1l-8.67,-4.335l4.333,15.49l-14.975,-22.965l0.451,7.746l-5.843,0.316l3.238,11.289l-1.845,14.848l-3.521,-12.352l-4.171,-5.268l1.51,16.756l-11.172,-11.926l3.099,25.284l-6.377,-5.412l-2.981,-10l-4.789,6.386l7.77,17.581l-8.606,-1.063l-10.553,-12.529l-12.03,-5.352l3.041,22.285l-10.106,-13.942l-14.401,20.829l-7.526,-23.07l-4.833,20.348l-9.107,-22.734l-8.081,10.682l0.214,18.707l-4.131,-4.471l-4.102,-18.245l-5.366,8.05l-5.367,13.416l-1.917,-17.058l-8.816,3.427l6.34,-10.967l4.393,-7.601l-8.851,9.792l-4.514,-13.843l-13.468,20.654l-5.366,-27.337l-8.824,20.512l-4.172,-24.747l5.66,-10.166l-14.13,3.668l-5.367,13.417l0,-42.933l107.331,-53.665l107.332,53.665Z" style="fill:#b4e164;"/><clipPath id="_clip10"><path d="M214.989,59.29l0,26.833l-10.734,-16.1l0,16.1l-8.67,-4.335l4.333,15.49l-14.975,-22.965l0.451,7.746l-5.843,0.316l3.238,11.289l-1.845,14.848l-3.521,-12.352l-4.171,-5.268l1.51,16.756l-11.172,-11.926l3.099,25.284l-6.377,-5.412l-2.981,-10l-4.789,6.386l7.77,17.581l-8.606,-1.063l-10.553,-12.529l-12.03,-5.352l3.041,22.285l-10.106,-13.942l-14.401,20.829l-7.526,-23.07l-4.833,20.348l-9.107,-22.734l-8.081,10.682l0.214,18.707l-4.131,-4.471l-4.102,-18.245l-5.366,8.05l-5.367,13.416l-1.917,-17.058l-8.816,3.427l6.34,-10.967l4.393,-7.601l-8.851,9.792l-4.514,-13.843l-13.468,20.654l-5.366,-27.337l-8.824,20.512l-4.172,-24.747l5.66,-10.166l-14.13,3.668l-5.367,13.417l0,-42.933l107.331,-53.665l107.332,53.665Z"/></clipPath><g clip-path="url(#_clip10)"><path d="M107.657,112.956l0,45.683l-72.924,-1.647l-34.407,-47.117l0,-50.656l107.331,53.737Z" style="fill:#311807;fill-opacity:0.2;"/><path d="M214.989,112.956l0,-53.666l-107.332,53.666l0,53.666l107.332,-53.666Z" style="fill:#febc3b;fill-opacity:0.2;"/><path d="M214.989,59.29l-2.247,14.977l-10.612,-8.547l-3.241,12.353l-6.985,-1.874l-12.71,-4.378l-1.771,6.252l3.708,14.246c0,0 -16.03,-13.515 -14.442,-8.879c1.589,4.636 5.367,16.209 5.367,16.209l-10.733,-8.159l2.682,22.807l-10.352,-15.909l-3.063,11.571l0,10.942l-16.1,-15.995l-7.94,1.397l-0.548,15.825l-7.612,-7.329l-5.366,14.519l-5.367,-0.262l-7.789,-14.628l-5.22,8.123l-10.143,-14.119l-14.414,12.574l-10.733,5.366l2.547,-22.739l-13.28,12.006l-7.128,-14.297l-6.253,15.621l-8.085,-17.424l-13.381,6.691l13.381,-22.79c0,0 -0.374,-1.702 -2.748,-1.374c-2.373,0.328 -18.718,1.374 -18.718,1.374l-5.367,2.683l-0.071,-26.868l107.331,-53.666l107.403,53.701Z" style="fill:#9ecc55;fill-opacity:0.5;"/></g></g><path d="M180.527,67.479l2.067,6.538l2.814,-5.901l3.8,3.402l2.664,-4.383l7.017,-1.265l-4.21,-3.262l-0.4,-13.092l-5.93,12.032l-3.814,-11.087l-2.718,6.618l-5.759,-5.156l-0.52,6.595l0.59,4.647l-6.859,-1.445l6.797,4.828l-6.883,6.345l7.86,-1.467l1.164,1.725l2.32,-5.672" style="fill:#3c934d;"/><clipPath id="_clip11"><path d="M180.527,67.479l2.067,6.538l2.814,-5.901l3.8,3.402l2.664,-4.383l7.017,-1.265l-4.21,-3.262l-0.4,-13.092l-5.93,12.032l-3.814,-11.087l-2.718,6.618l-5.759,-5.156l-0.52,6.595l0.59,4.647l-6.859,-1.445l6.797,4.828l-6.883,6.345l7.86,-1.467l1.164,1.725l2.32,-5.672"/></clipPath><g clip-path="url(#_clip11)"><path d="M194.279,49.516l-2.7,12.399l1.351,2.21l-3.254,2.456l-1.52,-4.789l2.061,-7.098l-4.549,-5.153l-1.333,-0.518l1.105,15.655l-3.789,-7.762l-1.429,-5.437l-3.99,0l3.437,12.401l-5.542,-1.131l-4.052,-5.412l-3.386,1.693l2.728,3.069l-0.375,14.207l8.381,-2.552l2.983,3.509l2.795,-1.901l0.959,-2.23l8.457,-1.138l7.506,-6.292l-4.308,-12.75l-1.536,-3.436" style="fill:#b4e164;"/></g><path d="M14.086,54.391l2.397,1.445l-3.522,-13.596l5.644,9.508l2.932,-4.832l1.644,5.573l3.316,-3.872l2.243,-1.748l2.543,10.943l2.683,-1.343l-0.206,8.401l1.981,4.53c0,0 -2.464,1.013 -3.112,1.868c-0.648,0.854 1.15,3.262 -1.558,2.221c-2.709,-1.042 -3.739,-0.682 -5.063,-2.391c-1.324,-1.71 -2.564,-3.245 -2.564,-3.245l-3.788,0.34c0,0 -1.408,-3.655 -1.882,0.168c-0.474,3.824 -3.505,-3.317 -3.505,-3.317l-3.21,-6.687l3.027,-3.966Z" style="fill:#3c934d;"/><clipPath id="_clip12"><path d="M14.086,54.391l2.397,1.445l-3.522,-13.596l5.644,9.508l2.932,-4.832l1.644,5.573l3.316,-3.872l2.243,-1.748l2.543,10.943l2.683,-1.343l-0.206,8.401l1.981,4.53c0,0 -2.464,1.013 -3.112,1.868c-0.648,0.854 1.15,3.262 -1.558,2.221c-2.709,-1.042 -3.739,-0.682 -5.063,-2.391c-1.324,-1.71 -2.564,-3.245 -2.564,-3.245l-3.788,0.34c0,0 -1.408,-3.655 -1.882,0.168c-0.474,3.824 -3.505,-3.317 -3.505,-3.317l-3.21,-6.687l3.027,-3.966Z"/></clipPath><g clip-path="url(#_clip12)"><path d="M34.799,54.192l-2.316,8.553l-4.591,-1.612l4.449,-6.72l-3.344,-8.383l-3.401,12.198l-3.185,0.129l0.768,-5.993l-2.003,-7.892l-0.821,13.299l-1.759,-6.524l-1.411,-3.662l-3.319,-6.104l3.909,16.1l-1.181,-0.208l-0.887,0.691l-3.573,1.652l-3.53,3.148c0,0 5.698,1.884 10.227,2.11c3.358,0.168 5.755,-1.38 6.378,-1.062c0.677,0.346 0.748,6.146 2.884,8.955c2.478,3.259 7.01,3.564 7.01,3.564l2.01,-9.805l-2.314,-12.434" style="fill:#b4e164;"/></g><path d="M75.141,22.245l-9.537,-8.755l14.903,1.827l-1.314,-8.621l12.047,6.223l5.367,-11.99l8.195,11.891l4.56,-8.453l1.453,4.822l1.891,-6.662l2.358,7.7l1.079,6.422l1.93,-10.924l0.988,3.491l4.379,-1.626l0,3.816l3.698,-8.885l0.289,10.878l2.705,3.65c0,0 1.505,5.408 0.02,7.1c-1.485,1.693 -6.712,7.022 -6.712,7.022c0,0 4.093,-0.531 -1.402,1c-5.495,1.531 -4.375,0.137 -9.332,0.701c-4.956,0.563 -1.726,2.365 -7.804,1.464c-6.078,-0.901 -4.079,-3.698 -6.744,-0.901c-2.664,2.798 -1.199,2.398 -3.597,4.663c-2.398,2.265 -3.271,-0.947 -5.366,-4.204c-2.094,-3.256 -5.636,-7.363 -6.796,-5.443c-1.16,1.92 4.038,1.787 -1.892,2.054c-5.929,0.266 -9.715,6.771 -7.023,-1.145c2.692,-7.915 1.657,-7.115 1.657,-7.115Z" style="fill:#3c934d;"/><clipPath id="_clip13"><path d="M75.141,22.245l-9.537,-8.755l14.903,1.827l-1.314,-8.621l12.047,6.223l5.367,-11.99l8.195,11.891l4.56,-8.453l1.453,4.822l1.891,-6.662l2.358,7.7l1.079,6.422l1.93,-10.924l0.988,3.491l4.379,-1.626l0,3.816l3.698,-8.885l0.289,10.878l2.705,3.65c0,0 1.505,5.408 0.02,7.1c-1.485,1.693 -6.712,7.022 -6.712,7.022c0,0 4.093,-0.531 -1.402,1c-5.495,1.531 -4.375,0.137 -9.332,0.701c-4.956,0.563 -1.726,2.365 -7.804,1.464c-6.078,-0.901 -4.079,-3.698 -6.744,-0.901c-2.664,2.798 -1.199,2.398 -3.597,4.663c-2.398,2.265 -3.271,-0.947 -5.366,-4.204c-2.094,-3.256 -5.636,-7.363 -6.796,-5.443c-1.16,1.92 4.038,1.787 -1.892,2.054c-5.929,0.266 -9.715,6.771 -7.023,-1.145c2.692,-7.915 1.657,-7.115 1.657,-7.115Z"/></clipPath><g clip-path="url(#_clip13)"><path d="M128.806,3.356l-5.366,11.242l2.242,5.329l-2.242,2.212l-2.447,-15.961l-2.92,-2.822l1.032,16.616l1.435,6.083l-4.605,-2.302c0,0 0.688,-5.425 -1.443,-3.507c-2.132,1.919 1.918,-13.535 1.918,-13.535l-4.648,-5.566l-2.357,11.912l-2.065,13.691l0,-9.273l-3.512,0.224l1.752,-13.463l-8.973,-6.247l0,10.733l-2.111,1.056l0.976,3.744l1.135,8.43l-8.867,-15.987l1.024,9.569l-6.508,-8.62l-2.643,-1.322l4.29,17.106l-15.02,-11.738l8.839,11.205l-2.581,2.657c0,0 -9.036,4.164 -6.692,5.976c2.345,1.811 -1.091,6.232 -1.091,6.232c0,0 5.201,-1.087 7.783,-1.475c2.581,-0.388 1.801,2.877 7.68,-1.526c5.878,-4.404 1.085,-4.719 7.585,-6.107c6.5,-1.388 7.566,-0.002 7.566,-0.002c0,0 0.426,5.862 2.771,1.918c2.345,-3.943 -0.895,-8.762 -0.895,-8.762c0,0 3.026,2.048 4.838,4.073c1.812,2.025 -1.513,3.517 2.654,3.624c4.167,0.106 1.663,0.426 5.366,0.639c3.704,0.213 -0.537,-0.152 5.367,0.777c5.904,0.928 3.204,0.112 4.608,-2.304c1.403,-2.416 -0.196,-2.097 1.936,-3.056c2.131,-0.959 1.558,-0.227 4.189,-0.007c2.632,0.22 5.224,-0.791 5.367,-2.683c0.142,-1.893 0,-8.394 0,-8.394l-5.367,-10.389Z" style="fill:#b4e164;"/></g><g><path d="M105.696,87.104l3.608,11.009l0.809,6.221l-4.538,0.118l0.121,-17.348Z" style="fill:#b4e164;"/><path d="M102.291,100.847l3.284,3.605l0.063,-17.267l-3.347,13.662Z" style="fill:#3c934d;"/></g><path d="M85.56,75.074l5.998,16.112l-3.886,2.813l-5.17,-0.226l-5.88,2.94l-3.93,-2.587l-2.832,-1.706l-4.256,-12.303l3.198,2.719l3.89,3.763l-0.754,-7.017l3.214,6.135l1.997,4.63l1.087,-9.457l-1.611,-4.175l4.981,8.591l0.72,4.821l1.624,-0.837l1.61,-14.216Z" style="fill:#3c934d;"/><clipPath id="_clip14"><path d="M85.56,75.074l5.998,16.112l-3.886,2.813l-5.17,-0.226l-5.88,2.94l-3.93,-2.587l-2.832,-1.706l-4.256,-12.303l3.198,2.719l3.89,3.763l-0.754,-7.017l3.214,6.135l1.997,4.63l1.087,-9.457l-1.611,-4.175l4.981,8.591l0.72,4.821l1.624,-0.837l1.61,-14.216Z"/></clipPath><g clip-path="url(#_clip14)"><path d="M85.485,72.808l2.215,16.72l-4.385,-0.555l-1.709,-12.781l-5.427,0.299l3.383,9.991l0.412,4.351l-2.825,-0.486l-1.57,-8.129l-3.97,-2.471l3.42,8.452l-0.142,3.279l-1.44,-2.056c-0.256,-1.668 -0.941,-3.372 -2.055,-5.11l-6.623,-5.602l4.865,7.207l0.695,3.383l1.588,2.887l3.669,1.835l1.563,1.75c0,0 2.531,2.881 3.825,2.999c1.293,0.117 7.056,-0.059 8.408,-0.588c1.352,-0.529 6.611,-3.888 6.611,-3.888l-3.184,-11.778l-7.324,-9.709Z" style="fill:#b4e164;"/></g><path d="M154.756,21.338l4.084,14.058l3.456,-4.922l-0.592,10.437l3.786,-11.987l1.588,7.719l3.778,-9.153l0,5.495c0,0 1.647,3.814 2.794,2.403c4.747,-5.841 2.306,1.622 2.573,2.049c1.143,1.835 0,2.543 0,2.543l0.878,2.385c0,0 -2.063,-1.386 -0.878,1.362c1.184,2.747 3.425,5.385 1.867,5.377c-1.557,-0.007 -3.542,-2.188 -5.941,2.024c-0.363,0.637 -1.293,1.466 -1.293,1.466c0,0 -2.767,1.401 -4.103,1.575c-1.336,0.174 -0.903,1.291 -2.993,0.233c-2.09,-1.058 -3.185,-2.807 -3.637,-1.308c-0.452,1.499 -2.112,2.071 -2.112,2.071l-4.335,0.552l-0.655,-1.312c0,0 -3.011,-0.723 -5.799,0.731c-2.788,1.455 -4.412,4.203 -4.412,0.831c0,-3.373 -0.434,-3.254 -0.434,-3.254c0,0 0.003,-2.729 -1.592,-2.923c-1.596,-0.193 -4.903,-0.324 -4.903,-0.324l2.776,-2.367c0,0 -4.739,-3.297 -6.413,-3.772c-1.674,-0.475 -4.32,0.649 -4.32,0.649l2.362,2.692c0,0 -1.512,-1.543 -2.362,-1.181c-0.851,0.363 -4.098,-0.511 -4.098,-0.511l-1.269,-2.172c0,0 0.395,-0.576 1.643,-2.2c1.249,-1.624 1.999,-2.498 1.999,-2.498l0.125,-1.374l-1.869,-5.61l-0.548,-5.093l6.675,10.055l0.018,-8.035l3.717,6.185l0.874,-9.742l3.466,11.616c0,0 1.302,2.581 1.666,-0.521c0.364,-3.101 1.645,-9.91 1.645,-9.91l3.07,-4.847l-1.015,16.607l4.158,-2.078l1.209,-16.705l1.887,20.523l1.775,-4.693l1.704,2.953l0,-16.099Z" style="fill:#3c934d;"/><clipPath id="_clip15"><path d="M154.756,21.338l4.084,14.058l3.456,-4.922l-0.592,10.437l3.786,-11.987l1.588,7.719l3.778,-9.153l0,5.495c0,0 1.647,3.814 2.794,2.403c4.747,-5.841 2.306,1.622 2.573,2.049c1.143,1.835 0,2.543 0,2.543l0.878,2.385c0,0 -2.063,-1.386 -0.878,1.362c1.184,2.747 3.425,5.385 1.867,5.377c-1.557,-0.007 -3.542,-2.188 -5.941,2.024c-0.363,0.637 -1.293,1.466 -1.293,1.466c0,0 -2.767,1.401 -4.103,1.575c-1.336,0.174 -0.903,1.291 -2.993,0.233c-2.09,-1.058 -3.185,-2.807 -3.637,-1.308c-0.452,1.499 -2.112,2.071 -2.112,2.071l-4.335,0.552l-0.655,-1.312c0,0 -3.011,-0.723 -5.799,0.731c-2.788,1.455 -4.412,4.203 -4.412,0.831c0,-3.373 -0.434,-3.254 -0.434,-3.254c0,0 0.003,-2.729 -1.592,-2.923c-1.596,-0.193 -4.903,-0.324 -4.903,-0.324l2.776,-2.367c0,0 -4.739,-3.297 -6.413,-3.772c-1.674,-0.475 -4.32,0.649 -4.32,0.649l2.362,2.692c0,0 -1.512,-1.543 -2.362,-1.181c-0.851,0.363 -4.098,-0.511 -4.098,-0.511l-1.269,-2.172c0,0 0.395,-0.576 1.643,-2.2c1.249,-1.624 1.999,-2.498 1.999,-2.498l0.125,-1.374l-1.869,-5.61l-0.548,-5.093l6.675,10.055l0.018,-8.035l3.717,6.185l0.874,-9.742l3.466,11.616c0,0 1.302,2.581 1.666,-0.521c0.364,-3.101 1.645,-9.91 1.645,-9.91l3.07,-4.847l-1.015,16.607l4.158,-2.078l1.209,-16.705l1.887,20.523l1.775,-4.693l1.704,2.953l0,-16.099Z"/></clipPath><g clip-path="url(#_clip15)"><path d="M178.666,30.849l-4.116,6.541l-3.694,0.128l1.776,-10.359l-1.776,-0.704l-3.549,15.44l-1.817,-3.865l2.41,-9.401l-3.58,-1.34l-1.025,17.455l-2.358,0.336l0.423,-15.074l-2.541,-2.847l-0.038,12.291l-8.211,-17.727l2.814,23.149l12.106,13.045l14.93,-7.648l-1.754,-19.42Z" style="fill:#b4e164;"/><path d="M145.88,25.104l-2.494,4.668l-1.411,8.69l-4.473,0.135l1.155,-3.07l1.339,-9.144l-3.325,-2.558l-1.645,14.48l-1.736,-2.33l0.506,-9.524l-1.765,0.883l-0.604,10.431l-2.046,-1.534l-0.907,-11.935l-2.802,2.726l1.663,9.464l-2.794,1.943l-8.514,6.477c0,0 11.061,5.503 12.559,6.279c1.499,0.777 8.852,7.427 8.852,7.427l13.173,2.365l4.145,-5.69l-8.618,-2.807l-1.282,-1.981l1.669,-1.527l4.516,-0.891l-3.435,-4.56l5.479,3.814l0.98,3.795l0.691,-4.54l-3.377,-3.325l-1.989,-3.709l1.669,-13.109l0.463,-8.859l-2.693,0.786l-1.25,11.919l0.475,7.6l-1.596,0.762l-0.578,-13.551Z" style="fill:#b4e164;"/></g><path d="M43.766,25.588l-0.777,-6.569l6.088,5.826l1.977,2.253l-1.185,-6.695l3.375,-1.688l3.739,3.255l-0.051,5.426l3.02,1.909l3.208,-5.224c0,0 0.069,-2.31 0.838,-0.301c0.769,2.009 1.673,7.835 1.673,7.835l0.089,2.836l3.226,-5.046c0,0 0.975,0.243 0.789,1.277c-0.187,1.033 -0.38,8.282 -0.38,8.282l1.801,1.29l2.148,0.782l4.338,3.422c0,0 -0.849,2.703 -2.663,2.715c-1.814,0.012 -6.975,1.619 -6.975,1.619c0,0 -1.801,1.324 -4.046,0.963c-2.245,-0.36 -6.665,-1.767 -6.665,-1.767c0,0 -2.712,-0.904 -4.319,-2.41c-1.607,-1.507 -0.716,-3.791 -2.97,-2.8c-2.253,0.991 -5.491,4.561 -5.491,4.561c0,0 -0.759,1.008 -3.13,-0.779c-2.371,-1.786 -3.175,-2.69 -3.175,-2.69l-0.589,-1.177c0,0 0.959,1.012 -0.683,0.341c-1.641,-0.671 -5.239,3.648 -5.349,1.74c-0.109,-1.909 3.13,-4.77 3.017,-5.65c-0.113,-0.879 2.401,-0.171 2.401,-0.171l-2.149,-3.749l-4.595,-5.018l5.373,1.361l1.134,-3.48l3.67,1.077l1.743,5.676l2.51,4.337l0.448,-5.935l-2.511,-3.515l1.098,-4.119Z" style="fill:#3c934d;"/><clipPath id="_clip16"><path d="M43.766,25.588l-0.777,-6.569l6.088,5.826l1.977,2.253l-1.185,-6.695l3.375,-1.688l3.739,3.255l-0.051,5.426l3.02,1.909l3.208,-5.224c0,0 0.069,-2.31 0.838,-0.301c0.769,2.009 1.673,7.835 1.673,7.835l0.089,2.836l3.226,-5.046c0,0 0.975,0.243 0.789,1.277c-0.187,1.033 -0.38,8.282 -0.38,8.282l1.801,1.29l2.148,0.782l4.338,3.422c0,0 -0.849,2.703 -2.663,2.715c-1.814,0.012 -6.975,1.619 -6.975,1.619c0,0 -1.801,1.324 -4.046,0.963c-2.245,-0.36 -6.665,-1.767 -6.665,-1.767c0,0 -2.712,-0.904 -4.319,-2.41c-1.607,-1.507 -0.716,-3.791 -2.97,-2.8c-2.253,0.991 -5.491,4.561 -5.491,4.561c0,0 -0.759,1.008 -3.13,-0.779c-2.371,-1.786 -3.175,-2.69 -3.175,-2.69l-0.589,-1.177c0,0 0.959,1.012 -0.683,0.341c-1.641,-0.671 -5.239,3.648 -5.349,1.74c-0.109,-1.909 3.13,-4.77 3.017,-5.65c-0.113,-0.879 2.401,-0.171 2.401,-0.171l-2.149,-3.749l-4.595,-5.018l5.373,1.361l1.134,-3.48l3.67,1.077l1.743,5.676l2.51,4.337l0.448,-5.935l-2.511,-3.515l1.098,-4.119Z"/></clipPath><g clip-path="url(#_clip16)"><path d="M69.624,28.29l-4.327,15.019c3.04,-0.207 5.308,0.493 6.794,2.112l5.792,-0.863l-1.746,5.339l-8.093,-0.402c0,0 -2.556,-6.392 -2.414,-4.602c0.141,1.789 0.613,5.406 -1.632,7.314c-2.245,1.909 -4.542,0.75 -4.046,-0.429c0.495,-1.178 0,-4.046 0,-4.046l0,-1.954l-1.86,-3.022l-2.187,4.529l0,2.47l-1.803,-4.948l0.375,-2.43l0.11,-4.101c0,0 1.911,-5.72 0.671,-4.383c-1.239,1.338 -8.107,7.439 -8.107,7.439l-0.428,4.922l-2.957,4.647l0,-7.935l-2.504,-3.114l-5.588,1.908l-4.96,6.63l-1.01,-1.719l1.923,-6.116l3.564,-10.354l4.956,8.901l1.58,-0.482l2.039,1.019l1.769,-0.884l4.141,-8.3l0.23,4.162l1.953,-3.07l2.142,-1.071l-2.142,4.621l6.108,-4.543l0.104,1.933l0.87,4.753l1.011,2.399l1.928,0.964l0.805,1.716l-0.093,2.687l1.406,-5.255l1.718,-7.04l1.261,-3.306l-2.979,-7.974l-2.268,15.051l-1.778,-10.392l-1.011,-4.419l-3.795,-4.666l-1.94,3.076l2.699,9.442l-7.371,-7.732l-2.049,-2.23l-2.719,-1.808l3.112,12.238l-0.551,4.322l-2.561,1.28l0,-2.411l-4.046,-6.796l-2.76,1.757l3.764,10.783l-0.577,0.176l-19.862,-7.954l17.919,29.988l44.627,-1.964l1.399,-12.49l-14.606,-18.392Z" style="fill:#b4e164;"/></g><path d="M66.38,62.769l-2.262,-15.952l10.733,12.638l6.63,-8.921l-1.263,11.151l5.366,-13.134l2.105,8.772l5.863,-10.402l2.766,14.716l2.999,-12.232l2.367,9.549l9.048,-6.209l-5.498,13.351l-3.55,8.958c0,0 -6.164,-2.417 -7.731,-3.866c-1.568,-1.449 -2.208,-1.365 -4.304,-0.85c-2.097,0.516 -5.862,1.755 -9.431,2.375c-3.569,0.619 -9.358,3.028 -9.358,3.028l-5.487,-0.55c0,0 2.602,2.478 0,0c-2.602,-2.478 -4.426,-4.406 -4.426,-4.406l-5.947,-2.974l6.284,-0.55l5.096,-4.492Z" style="fill:#3c934d;"/><clipPath id="_clip17"><path d="M66.38,62.769l-2.262,-15.952l10.733,12.638l6.63,-8.921l-1.263,11.151l5.366,-13.134l2.105,8.772l5.863,-10.402l2.766,14.716l2.999,-12.232l2.367,9.549l9.048,-6.209l-5.498,13.351l-3.55,8.958c0,0 -6.164,-2.417 -7.731,-3.866c-1.568,-1.449 -2.208,-1.365 -4.304,-0.85c-2.097,0.516 -5.862,1.755 -9.431,2.375c-3.569,0.619 -9.358,3.028 -9.358,3.028l-5.487,-0.55c0,0 2.602,2.478 0,0c-2.602,-2.478 -4.426,-4.406 -4.426,-4.406l-5.947,-2.974l6.284,-0.55l5.096,-4.492Z"/></clipPath><g clip-path="url(#_clip17)"><path d="M112.417,51.897l-7.514,8.666l-3.219,3.758c0,0 -0.117,-8.831 0,-8.831c0.118,0 -2.301,-8.42 -2.301,-8.42l-0.493,15.854l-2.572,1.363l0,-9.54l-2.883,-10.651l-2.484,17.465l-3.956,-4.585l2.46,-9.503l-3.871,-0.285l-2.47,13.214l-2.896,3.919l3.124,-12.296l-1.535,-3.01l-4,11.145l-2.956,3.632l3.322,-11.227l-14.055,-7.027l6.376,19.287l-8.315,-2.218l-15.763,5.026l9.048,11.144l11.167,0.217l6.978,-11.369c0,0 -0.646,0.192 3.427,0.472c4.073,0.279 11.217,0.241 11.217,0.241l0.95,2.223l8.109,6.679l13.051,-1.159l2.054,-24.184Z" style="fill:#b4e164;"/></g><path d="M110.113,62.837l7.744,2.655l1.155,7.877l3.749,-6.123l-0.943,-4.895l5.05,2.842l-1.288,6.01l3.447,2.925l2.359,-5.828l-1.641,-0.419l5.367,-3.009l1.395,2.263l-0.418,8.092l4.389,-7.7l0,-1.77l3.93,2.744l-0.267,4.155l0.273,3.799l5.249,-8.109l-0.933,7.382l4.238,-0.362l1.12,-4.807l-2.877,-2.855l4.26,1.239l1.107,6.373l5.367,4.538c0,0 0.454,-1.215 -1.771,0.885c-2.224,2.1 -5.322,3.693 -7.004,4.578c-1.681,0.885 -1.055,1.075 -4.466,1.157c-3.411,0.082 -2.526,0.17 -7.216,0.082c-4.691,-0.089 -2.832,3.54 -7.346,-0.266c-4.514,-3.805 0.499,-7.611 -4.397,-3.805c-4.896,3.805 -5.958,4.513 -7.374,5.575c-1.416,1.062 -2.39,0.266 -2.39,0.266c0,0 -0.885,-0.62 -1.947,-1.416c-1.062,-0.797 -1.416,-0.354 -2.036,-1.328c-0.619,-0.973 -0.491,-2.114 -0.491,-2.114c0,0 -1.434,-0.853 2.095,-2.909c3.53,-2.057 3.176,-1.703 -0.187,-2.411c-3.364,-0.708 -4.541,-1.363 -4.541,-1.363l3.213,-1.646l-0.531,-6.373l-5.443,-5.929Z" style="fill:#3c934d;"/><clipPath id="_clip18"><path d="M110.113,62.837l7.744,2.655l1.155,7.877l3.749,-6.123l-0.943,-4.895l5.05,2.842l-1.288,6.01l3.447,2.925l2.359,-5.828l-1.641,-0.419l5.367,-3.009l1.395,2.263l-0.418,8.092l4.389,-7.7l0,-1.77l3.93,2.744l-0.267,4.155l0.273,3.799l5.249,-8.109l-0.933,7.382l4.238,-0.362l1.12,-4.807l-2.877,-2.855l4.26,1.239l1.107,6.373l5.367,4.538c0,0 0.454,-1.215 -1.771,0.885c-2.224,2.1 -5.322,3.693 -7.004,4.578c-1.681,0.885 -1.055,1.075 -4.466,1.157c-3.411,0.082 -2.526,0.17 -7.216,0.082c-4.691,-0.089 -2.832,3.54 -7.346,-0.266c-4.514,-3.805 0.499,-7.611 -4.397,-3.805c-4.896,3.805 -5.958,4.513 -7.374,5.575c-1.416,1.062 -2.39,0.266 -2.39,0.266c0,0 -0.885,-0.62 -1.947,-1.416c-1.062,-0.797 -1.416,-0.354 -2.036,-1.328c-0.619,-0.973 -0.491,-2.114 -0.491,-2.114c0,0 -1.434,-0.853 2.095,-2.909c3.53,-2.057 3.176,-1.703 -0.187,-2.411c-3.364,-0.708 -4.541,-1.363 -4.541,-1.363l3.213,-1.646l-0.531,-6.373l-5.443,-5.929Z"/></clipPath><g clip-path="url(#_clip18)"><path d="M156.578,66.437l-2.49,4.122l0.649,5.691l-0.59,4.295l-2.936,-6.058l-1.895,-6.314l-2.461,8.492l0.439,2.464l-3.399,1.755l0.963,-4.871l0.987,-7.76l-5.367,-0.34l0.399,1.865l-3.38,7.68l1.753,2.294l-1.416,0.566l-2.722,-0.793l0.797,-4.017l1.529,-5.952l-1.031,-2.471l-5.531,1.47l-1.821,5.587l1.982,3.74l-4.74,0.248l-0.632,-6.97l3.065,-6.898l-6.148,3.074l0.528,8.628l-4.098,-2.355l0,-7.452l-1.116,-0.736l-2.266,3.682l2.909,7.606l-1.493,1.4c0,0 -5.401,8.48 -5.051,8.969c0.35,0.49 -0.108,4.672 4.228,4.904c4.335,0.231 10.274,-1.451 11.581,-2.366c1.307,-0.915 2.27,-7.655 4.989,-7.089c2.719,0.567 5.685,0.397 7.685,0.453c2.001,0.057 5.367,0.114 5.367,0.114c0,0 -5.632,2.718 -0.477,1.586c5.154,-1.133 5.843,-1.756 5.843,-1.756l0,-1.02l5.367,0.633l8.275,-0.067l-0.062,-6.56l-8.213,-9.473" style="fill:#b4e164;"/></g></g></svg>