<?xml version="1.0" encoding="UTF-8" standalone="no"?><!DOCTYPE svg PUBLIC "-//W3C//DTD SVG 1.1//EN" "http://www.w3.org/Graphics/SVG/1.1/DTD/svg11.dtd"><svg width="100%" height="100%" viewBox="0 0 216 205" version="1.1" xmlns="http://www.w3.org/2000/svg" xmlns:xlink="http://www.w3.org/1999/xlink" xml:space="preserve" xmlns:serif="http://www.serif.com/" style="fill-rule:evenodd;clip-rule:evenodd;stroke-linejoin:round;stroke-miterlimit:1.41421;"><g id="Grass_Block07"><g id="Grass_Block02"><g><path d="M215.568,54.446l0,96.599l-107.332,53.665l0,-96.598l107.332,-53.666Z" style="fill:#a87f43;"/><path d="M122.994,160.908l-8.372,9.701l1.286,5.77l7.086,18.915c0,0 7.928,-5.204 10.317,-5.131c2.389,0.074 7.634,-3.796 7.634,-3.796l-2.476,-9.029l-7.889,-6.338l-7.586,-10.092Zm46.427,-1.629l-10.318,1.146l-10.317,6.652l1.484,7.395l4.239,5.711l7.483,-1.409l5.101,-4.848l3.889,-6.072l-1.561,-8.575Zm11.733,-23.688l-6.575,5.403l2.19,12.168l8.127,2.858l7.228,1.825l3.089,-3.594l3.27,1.626l5.224,-0.719l1.823,-4.026l-5.158,-4.576l-3.886,-3.198l-7.221,-4.948l-8.111,-2.819Zm-35.112,-8.191l-7.573,3.765l-5.158,9.829l2.356,9.299l18.278,3.958l6.626,-6.966l1.421,-7.296l-5.633,-7.459l-10.317,-5.13Zm59.488,-19.321l6.671,8.447l-1.512,14.639l-5.159,7.695l-7.137,-3.548l-3.18,-6.712l0,-10.261l10.317,-10.26Zm-90.908,21.488l3.213,-10.479l6.476,-5.224l14.158,3.776l-5.158,13.912l-10.317,4.641l-8.372,-6.626Zm49.64,-19.169l5.159,-4.885l10.317,1.446l1.869,4.614l1.057,7.876l-10.606,10.404l-2.637,-5.153l-5.159,-1.231l-2.27,-9.837l2.27,-3.234Zm30.449,-20.732l8.996,5.787l-1.466,5.86l-5.159,2.565l-3.79,-1.885l-4.027,-4.489l0.413,-5.335l5.033,-2.503Z" style="fill:#877841;fill-opacity:0.7;"/><path d="M204.835,102.745l6.94,8.837l-1.574,15.313l-5.366,8.05l-7.425,-3.712l-3.309,-7.021l0,-10.733l10.734,-10.734" style="fill:#c7bc64;"/><clipPath id="_clip1"><path d="M204.835,102.745l6.94,8.837l-1.574,15.313l-5.366,8.05l-7.425,-3.712l-3.309,-7.021l0,-10.733l10.734,-10.734"/></clipPath><g clip-path="url(#_clip1)"><path d="M122.994,160.908l-8.372,9.701l1.286,5.77l7.086,18.915c0,0 7.928,-5.204 10.317,-5.131c2.389,0.074 7.634,-3.796 7.634,-3.796l-2.476,-9.029l-7.889,-6.338l-7.586,-10.092Zm46.427,-1.629l-10.318,1.146l-10.317,6.652l1.484,7.395l4.239,5.711l7.483,-1.409l5.101,-4.848l3.889,-6.072l-1.561,-8.575Zm11.733,-23.688l-6.575,5.403l2.19,12.168l8.127,2.858l7.228,1.825l3.089,-3.594l3.27,1.626l5.224,-0.719l1.823,-4.026l-5.158,-4.576l-3.886,-3.198l-7.221,-4.948l-8.111,-2.819Zm-35.112,-8.191l-7.573,3.765l-5.158,9.829l2.356,9.299l18.278,3.958l6.626,-6.966l1.421,-7.296l-5.633,-7.459l-10.317,-5.13Zm59.488,-19.321l6.671,8.447l-1.512,14.639l-5.159,7.695l-7.137,-3.548l-3.18,-6.712l0,-10.261l10.317,-10.26Zm-90.908,21.488l3.213,-10.479l6.476,-5.224l14.158,3.776l-5.158,13.912l-10.317,4.641l-8.372,-6.626Zm49.64,-19.169l5.159,-4.885l10.317,1.446l1.869,4.614l1.057,7.876l-10.606,10.404l-2.637,-5.153l-5.159,-1.231l-2.27,-9.837l2.27,-3.234Zm30.449,-20.732l8.996,5.787l-1.466,5.86l-5.159,2.565l-3.79,-1.885l-4.027,-4.489l0.413,-5.335l5.033,-2.503Z" style="fill:#877841;fill-opacity:0.7;"/></g><path d="M193.579,83.485l9.359,6.053l-1.525,6.13l-5.367,2.683l-3.943,-1.971l-4.189,-4.696l0.429,-5.581l5.236,-2.618Z" style="fill:#c7bc64;"/><clipPath id="_clip2"><path d="M193.579,83.485l9.359,6.053l-1.525,6.13l-5.367,2.683l-3.943,-1.971l-4.189,-4.696l0.429,-5.581l5.236,-2.618Z"/></clipPath><g clip-path="url(#_clip2)"><path d="M122.994,160.908l-8.372,9.701l1.286,5.77l7.086,18.915c0,0 7.928,-5.204 10.317,-5.131c2.389,0.074 7.634,-3.796 7.634,-3.796l-2.476,-9.029l-7.889,-6.338l-7.586,-10.092Zm46.427,-1.629l-10.318,1.146l-10.317,6.652l1.484,7.395l4.239,5.711l7.483,-1.409l5.101,-4.848l3.889,-6.072l-1.561,-8.575Zm11.733,-23.688l-6.575,5.403l2.19,12.168l8.127,2.858l7.228,1.825l3.089,-3.594l3.27,1.626l5.224,-0.719l1.823,-4.026l-5.158,-4.576l-3.886,-3.198l-7.221,-4.948l-8.111,-2.819Zm-35.112,-8.191l-7.573,3.765l-5.158,9.829l2.356,9.299l18.278,3.958l6.626,-6.966l1.421,-7.296l-5.633,-7.459l-10.317,-5.13Zm59.488,-19.321l6.671,8.447l-1.512,14.639l-5.159,7.695l-7.137,-3.548l-3.18,-6.712l0,-10.261l10.317,-10.26Zm-90.908,21.488l3.213,-10.479l6.476,-5.224l14.158,3.776l-5.158,13.912l-10.317,4.641l-8.372,-6.626Zm49.64,-19.169l5.159,-4.885l10.317,1.446l1.869,4.614l1.057,7.876l-10.606,10.404l-2.637,-5.153l-5.159,-1.231l-2.27,-9.837l2.27,-3.234Zm30.449,-20.732l8.996,5.787l-1.466,5.86l-5.159,2.565l-3.79,-1.885l-4.027,-4.489l0.413,-5.335l5.033,-2.503Z" style="fill:#877841;fill-opacity:0.7;"/></g><path d="M161.902,105.172l5.367,-5.11l10.733,1.512l1.944,4.827l1.101,8.238l-11.034,10.884l-2.744,-5.39l-5.367,-1.288l-2.362,-10.291l2.362,-3.382" style="fill:#c7bc64;"/><clipPath id="_clip3"><path d="M161.902,105.172l5.367,-5.11l10.733,1.512l1.944,4.827l1.101,8.238l-11.034,10.884l-2.744,-5.39l-5.367,-1.288l-2.362,-10.291l2.362,-3.382"/></clipPath><g clip-path="url(#_clip3)"><path d="M122.994,160.908l-8.372,9.701l1.286,5.77l7.086,18.915c0,0 7.928,-5.204 10.317,-5.131c2.389,0.074 7.634,-3.796 7.634,-3.796l-2.476,-9.029l-7.889,-6.338l-7.586,-10.092Zm46.427,-1.629l-10.318,1.146l-10.317,6.652l1.484,7.395l4.239,5.711l7.483,-1.409l5.101,-4.848l3.889,-6.072l-1.561,-8.575Zm11.733,-23.688l-6.575,5.403l2.19,12.168l8.127,2.858l7.228,1.825l3.089,-3.594l3.27,1.626l5.224,-0.719l1.823,-4.026l-5.158,-4.576l-3.886,-3.198l-7.221,-4.948l-8.111,-2.819Zm-35.112,-8.191l-7.573,3.765l-5.158,9.829l2.356,9.299l18.278,3.958l6.626,-6.966l1.421,-7.296l-5.633,-7.459l-10.317,-5.13Zm59.488,-19.321l6.671,8.447l-1.512,14.639l-5.159,7.695l-7.137,-3.548l-3.18,-6.712l0,-10.261l10.317,-10.26Zm-90.908,21.488l3.213,-10.479l6.476,-5.224l14.158,3.776l-5.158,13.912l-10.317,4.641l-8.372,-6.626Zm49.64,-19.169l5.159,-4.885l10.317,1.446l1.869,4.614l1.057,7.876l-10.606,10.404l-2.637,-5.153l-5.159,-1.231l-2.27,-9.837l2.27,-3.234Zm30.449,-20.732l8.996,5.787l-1.466,5.86l-5.159,2.565l-3.79,-1.885l-4.027,-4.489l0.413,-5.335l5.033,-2.503Z" style="fill:#877841;fill-opacity:0.7;"/></g><path d="M179.476,131.525l-6.841,5.652l2.278,12.729l8.455,2.989l7.519,1.909l3.214,-3.759l3.402,1.7l5.435,-0.752l1.897,-4.211l-5.367,-4.787l-4.042,-3.346l-7.512,-5.176l-8.438,-2.948Z" style="fill:#c7bc64;"/><clipPath id="_clip4"><path d="M179.476,131.525l-6.841,5.652l2.278,12.729l8.455,2.989l7.519,1.909l3.214,-3.759l3.402,1.7l5.435,-0.752l1.897,-4.211l-5.367,-4.787l-4.042,-3.346l-7.512,-5.176l-8.438,-2.948Z"/></clipPath><g clip-path="url(#_clip4)"><path d="M122.994,160.908l-8.372,9.701l1.286,5.77l7.086,18.915c0,0 7.928,-5.204 10.317,-5.131c2.389,0.074 7.634,-3.796 7.634,-3.796l-2.476,-9.029l-7.889,-6.338l-7.586,-10.092Zm46.427,-1.629l-10.318,1.146l-10.317,6.652l1.484,7.395l4.239,5.711l7.483,-1.409l5.101,-4.848l3.889,-6.072l-1.561,-8.575Zm11.733,-23.688l-6.575,5.403l2.19,12.168l8.127,2.858l7.228,1.825l3.089,-3.594l3.27,1.626l5.224,-0.719l1.823,-4.026l-5.158,-4.576l-3.886,-3.198l-7.221,-4.948l-8.111,-2.819Zm-35.112,-8.191l-7.573,3.765l-5.158,9.829l2.356,9.299l18.278,3.958l6.626,-6.966l1.421,-7.296l-5.633,-7.459l-10.317,-5.13Zm59.488,-19.321l6.671,8.447l-1.512,14.639l-5.159,7.695l-7.137,-3.548l-3.18,-6.712l0,-10.261l10.317,-10.26Zm-90.908,21.488l3.213,-10.479l6.476,-5.224l14.158,3.776l-5.158,13.912l-10.317,4.641l-8.372,-6.626Zm49.64,-19.169l5.159,-4.885l10.317,1.446l1.869,4.614l1.057,7.876l-10.606,10.404l-2.637,-5.153l-5.159,-1.231l-2.27,-9.837l2.27,-3.234Zm30.449,-20.732l8.996,5.787l-1.466,5.86l-5.159,2.565l-3.79,-1.885l-4.027,-4.489l0.413,-5.335l5.033,-2.503Z" style="fill:#877841;fill-opacity:0.7;"/></g><path d="M142.947,122.956l-7.878,3.939l-5.366,10.282l2.451,9.727l19.015,4.141l6.893,-7.287l1.478,-7.632l-5.86,-7.803l-10.733,-5.367Z" style="fill:#c7bc64;"/><clipPath id="_clip5"><path d="M142.947,122.956l-7.878,3.939l-5.366,10.282l2.451,9.727l19.015,4.141l6.893,-7.287l1.478,-7.632l-5.86,-7.803l-10.733,-5.367Z"/></clipPath><g clip-path="url(#_clip5)"><path d="M122.994,160.908l-8.372,9.701l1.286,5.77l7.086,18.915c0,0 7.928,-5.204 10.317,-5.131c2.389,0.074 7.634,-3.796 7.634,-3.796l-2.476,-9.029l-7.889,-6.338l-7.586,-10.092Zm46.427,-1.629l-10.318,1.146l-10.317,6.652l1.484,7.395l4.239,5.711l7.483,-1.409l5.101,-4.848l3.889,-6.072l-1.561,-8.575Zm11.733,-23.688l-6.575,5.403l2.19,12.168l8.127,2.858l7.228,1.825l3.089,-3.594l3.27,1.626l5.224,-0.719l1.823,-4.026l-5.158,-4.576l-3.886,-3.198l-7.221,-4.948l-8.111,-2.819Zm-35.112,-8.191l-7.573,3.765l-5.158,9.829l2.356,9.299l18.278,3.958l6.626,-6.966l1.421,-7.296l-5.633,-7.459l-10.317,-5.13Zm59.488,-19.321l6.671,8.447l-1.512,14.639l-5.159,7.695l-7.137,-3.548l-3.18,-6.712l0,-10.261l10.317,-10.26Zm-90.908,21.488l3.213,-10.479l6.476,-5.224l14.158,3.776l-5.158,13.912l-10.317,4.641l-8.372,-6.626Zm49.64,-19.169l5.159,-4.885l10.317,1.446l1.869,4.614l1.057,7.876l-10.606,10.404l-2.637,-5.153l-5.159,-1.231l-2.27,-9.837l2.27,-3.234Zm30.449,-20.732l8.996,5.787l-1.466,5.86l-5.159,2.565l-3.79,-1.885l-4.027,-4.489l0.413,-5.335l5.033,-2.503Z" style="fill:#877841;fill-opacity:0.7;"/></g><path d="M118.97,158.008l-8.71,10.148l1.338,6.036l7.372,19.785c0,0 8.247,-5.443 10.733,-5.367c2.486,0.077 7.942,-3.971 7.942,-3.971l-2.576,-9.445l-8.207,-6.629l-7.892,-10.557Z" style="fill:#c7bc64;"/><clipPath id="_clip6"><path d="M118.97,158.008l-8.71,10.148l1.338,6.036l7.372,19.785c0,0 8.247,-5.443 10.733,-5.367c2.486,0.077 7.942,-3.971 7.942,-3.971l-2.576,-9.445l-8.207,-6.629l-7.892,-10.557Z"/></clipPath><g clip-path="url(#_clip6)"><path d="M122.994,160.908l-8.372,9.701l1.286,5.77l7.086,18.915c0,0 7.928,-5.204 10.317,-5.131c2.389,0.074 7.634,-3.796 7.634,-3.796l-2.476,-9.029l-7.889,-6.338l-7.586,-10.092Zm46.427,-1.629l-10.318,1.146l-10.317,6.652l1.484,7.395l4.239,5.711l7.483,-1.409l5.101,-4.848l3.889,-6.072l-1.561,-8.575Zm11.733,-23.688l-6.575,5.403l2.19,12.168l8.127,2.858l7.228,1.825l3.089,-3.594l3.27,1.626l5.224,-0.719l1.823,-4.026l-5.158,-4.576l-3.886,-3.198l-7.221,-4.948l-8.111,-2.819Zm-35.112,-8.191l-7.573,3.765l-5.158,9.829l2.356,9.299l18.278,3.958l6.626,-6.966l1.421,-7.296l-5.633,-7.459l-10.317,-5.13Zm59.488,-19.321l6.671,8.447l-1.512,14.639l-5.159,7.695l-7.137,-3.548l-3.18,-6.712l0,-10.261l10.317,-10.26Zm-90.908,21.488l3.213,-10.479l6.476,-5.224l14.158,3.776l-5.158,13.912l-10.317,4.641l-8.372,-6.626Zm49.64,-19.169l5.159,-4.885l10.317,1.446l1.869,4.614l1.057,7.876l-10.606,10.404l-2.637,-5.153l-5.159,-1.231l-2.27,-9.837l2.27,-3.234Zm30.449,-20.732l8.996,5.787l-1.466,5.86l-5.159,2.565l-3.79,-1.885l-4.027,-4.489l0.413,-5.335l5.033,-2.503Z" style="fill:#877841;fill-opacity:0.7;"/></g><path d="M167.269,156.304l-10.733,1.199l-10.734,6.958l1.544,7.735l4.409,5.975l7.785,-1.475l5.307,-5.071l4.046,-6.352l-1.624,-8.969" style="fill:#c7bc64;"/><clipPath id="_clip7"><path d="M167.269,156.304l-10.733,1.199l-10.734,6.958l1.544,7.735l4.409,5.975l7.785,-1.475l5.307,-5.071l4.046,-6.352l-1.624,-8.969"/></clipPath><g clip-path="url(#_clip7)"><path d="M122.994,160.908l-8.372,9.701l1.286,5.77l7.086,18.915c0,0 7.928,-5.204 10.317,-5.131c2.389,0.074 7.634,-3.796 7.634,-3.796l-2.476,-9.029l-7.889,-6.338l-7.586,-10.092Zm46.427,-1.629l-10.318,1.146l-10.317,6.652l1.484,7.395l4.239,5.711l7.483,-1.409l5.101,-4.848l3.889,-6.072l-1.561,-8.575Zm11.733,-23.688l-6.575,5.403l2.19,12.168l8.127,2.858l7.228,1.825l3.089,-3.594l3.27,1.626l5.224,-0.719l1.823,-4.026l-5.158,-4.576l-3.886,-3.198l-7.221,-4.948l-8.111,-2.819Zm-35.112,-8.191l-7.573,3.765l-5.158,9.829l2.356,9.299l18.278,3.958l6.626,-6.966l1.421,-7.296l-5.633,-7.459l-10.317,-5.13Zm59.488,-19.321l6.671,8.447l-1.512,14.639l-5.159,7.695l-7.137,-3.548l-3.18,-6.712l0,-10.261l10.317,-10.26Zm-90.908,21.488l3.213,-10.479l6.476,-5.224l14.158,3.776l-5.158,13.912l-10.317,4.641l-8.372,-6.626Zm49.64,-19.169l5.159,-4.885l10.317,1.446l1.869,4.614l1.057,7.876l-10.606,10.404l-2.637,-5.153l-5.159,-1.231l-2.27,-9.837l2.27,-3.234Zm30.449,-20.732l8.996,5.787l-1.466,5.86l-5.159,2.565l-3.79,-1.885l-4.027,-4.489l0.413,-5.335l5.033,-2.503Z" style="fill:#877841;fill-opacity:0.7;"/></g><path d="M110.26,125.224l8.71,6.93l10.733,-4.854l5.366,-14.553l-14.73,-3.95l-6.736,5.465l-3.343,10.962" style="fill:#c7bc64;"/><clipPath id="_clip8"><path d="M110.26,125.224l8.71,6.93l10.733,-4.854l5.366,-14.553l-14.73,-3.95l-6.736,5.465l-3.343,10.962"/></clipPath><g clip-path="url(#_clip8)"><path d="M122.994,160.908l-8.372,9.701l1.286,5.77l7.086,18.915c0,0 7.928,-5.204 10.317,-5.131c2.389,0.074 7.634,-3.796 7.634,-3.796l-2.476,-9.029l-7.889,-6.338l-7.586,-10.092Zm46.427,-1.629l-10.318,1.146l-10.317,6.652l1.484,7.395l4.239,5.711l7.483,-1.409l5.101,-4.848l3.889,-6.072l-1.561,-8.575Zm11.733,-23.688l-6.575,5.403l2.19,12.168l8.127,2.858l7.228,1.825l3.089,-3.594l3.27,1.626l5.224,-0.719l1.823,-4.026l-5.158,-4.576l-3.886,-3.198l-7.221,-4.948l-8.111,-2.819Zm-35.112,-8.191l-7.573,3.765l-5.158,9.829l2.356,9.299l18.278,3.958l6.626,-6.966l1.421,-7.296l-5.633,-7.459l-10.317,-5.13Zm59.488,-19.321l6.671,8.447l-1.512,14.639l-5.159,7.695l-7.137,-3.548l-3.18,-6.712l0,-10.261l10.317,-10.26Zm-90.908,21.488l3.213,-10.479l6.476,-5.224l14.158,3.776l-5.158,13.912l-10.317,4.641l-8.372,-6.626Zm49.64,-19.169l5.159,-4.885l10.317,1.446l1.869,4.614l1.057,7.876l-10.606,10.404l-2.637,-5.153l-5.159,-1.231l-2.27,-9.837l2.27,-3.234Zm30.449,-20.732l8.996,5.787l-1.466,5.86l-5.159,2.565l-3.79,-1.885l-4.027,-4.489l0.413,-5.335l5.033,-2.503Z" style="fill:#877841;fill-opacity:0.7;"/></g></g><path d="M0.905,54.446l107.331,53.666l0,96.598l-107.331,-53.665l0,-96.599" style="fill:#685632;"/><clipPath id="_clip9"><path d="M0.905,54.446l107.331,53.666l0,96.598l-107.331,-53.665l0,-96.599"/></clipPath><g clip-path="url(#_clip9)"><path d="M90.767,174.509l11.734,-4.08l-0.235,-16.221l-6.989,-11.581l-11.749,-1.32l-5.988,4.726l-1.503,10.627l14.73,17.849" style="fill:#685632;"/><path d="M86.445,190.857l17.273,-3.671l-1.819,-6.448l-9.043,-3.989l-7.196,0.973l-8.01,3.61l-0.029,5.632l8.824,3.893Z" style="fill:#685632;"/><path d="M49.504,166.529l4.777,5.837l11.198,0.057l2.667,-4.498l2.28,-7.998l-9.77,-12.373l-3.564,4.939l-5.673,0.498l-3.859,9.847l1.944,3.691" style="fill:#685632;"/><path d="M74.593,140.662l-6.21,-6.587l4.115,-12.273l9.073,-1.736l7.964,-0.802l2.763,4.188l3.72,-1.191l5.458,1.532l1.351,4.444l-6.163,3.963l-4.606,2.727l-8.415,4.037l-9.05,1.698Z" style="fill:#685632;"/><path d="M35.443,151.606l-4.295,-4.585l-1.861,-10.647l2.87,-9.418l12.278,-2.445l3.22,7.814l-0.159,7.686l-4.698,7.216l-7.355,4.379Z" style="fill:#685632;"/><path d="M16.369,105.678l-7.493,-11.309l2.215,-5.782l10.316,-18.523c0,0 7.68,6.584 10.235,6.868c2.555,0.284 7.573,5.082 7.573,5.082l-3.959,8.979l-9.33,5.376l-9.557,9.309Z" style="fill:#685632;"/><path d="M61.658,119.721l-10.818,-2.741l-10.012,-8.444l2.664,-7.436l5.35,-5.276l7.762,2.586l4.721,5.79l3.252,6.875l-2.919,8.646" style="fill:#685632;"/><path d="M4.895,125.635l8.581,-9.592l7.679,8.654l1.216,22.864l-12.832,4.344l-4.296,-9.129l-0.348,-17.141" style="fill:#685632;"/><path d="M82.455,191.3l17.273,-3.67l-1.819,-6.448l-9.043,-3.989l-7.196,0.973l-8.01,3.609l-0.029,5.633l8.824,3.892Zm4.322,-16.348l-14.73,-17.848l1.503,-10.628l5.988,-4.725l11.749,1.319l6.989,11.582l0.235,16.22l-11.734,4.08Zm-41.263,-7.979l-1.944,-3.691l3.859,-9.848l5.673,-0.497l3.564,-4.94l9.77,12.374l-2.28,7.998l-2.667,4.498l-11.198,-0.058l-4.777,-5.836Zm-44.609,-40.894l8.581,-9.593l7.679,8.655l1.217,22.864l-12.833,4.344l-4.296,-9.13l-0.348,-17.14Zm30.548,25.971l-4.295,-4.586l-1.861,-10.647l2.871,-9.418l12.278,-2.445l3.219,7.815l-0.159,7.685l-4.698,7.216l-7.355,4.38Zm39.15,-10.945l-6.21,-6.586l4.115,-12.274l9.073,-1.736l7.964,-0.801l2.763,4.188l3.72,-1.192l5.458,1.532l1.351,4.444l-6.163,3.963l-4.606,2.728l-8.414,4.036l-9.051,1.698Zm-12.935,-20.94l-10.818,-2.742l-10.012,-8.444l2.664,-7.435l5.35,-5.277l7.762,2.587l4.721,5.79l3.252,6.875l-2.919,8.646Zm-45.289,-14.043l-7.493,-11.309l2.215,-5.783l10.316,-18.523c0,0 7.68,6.584 10.235,6.868c2.555,0.284 7.573,5.082 7.573,5.082l-3.959,8.979l-9.33,5.376l-9.557,9.31Z" style="fill:#311807;fill-opacity:0.5;"/></g><path d="M215.568,54.446l0,26.833l-10.733,-16.099l0,16.099l-8.671,-4.335l4.333,15.49l-14.975,-22.965l0.451,7.746l-5.842,0.317l3.237,11.288l-1.844,14.848l-3.522,-12.352l-4.171,-5.268l1.51,16.756l-11.171,-11.925l3.099,25.283l-6.378,-5.412l-2.98,-10l-4.79,6.386l7.77,17.581l-8.606,-1.063l-10.552,-12.529l-12.03,-5.352l3.04,22.285l-10.106,-13.941l-14.401,20.828l-7.525,-23.07l-4.834,20.348l-9.107,-22.734l-8.081,10.682l0.214,18.707l-4.13,-4.471l-4.102,-18.245l-5.367,8.05l-5.367,13.416l-1.916,-17.058l-8.817,3.427l6.34,-10.967l4.393,-7.601l-8.851,9.792l-4.513,-13.843l-13.468,20.654l-5.367,-27.336l-8.824,20.511l-4.172,-24.747l5.66,-10.166l-14.13,3.668l-5.367,13.417l0,-42.933l107.331,-53.665l107.332,53.665Z" style="fill:#b4e164;"/><clipPath id="_clip10"><path d="M215.568,54.446l0,26.833l-10.733,-16.099l0,16.099l-8.671,-4.335l4.333,15.49l-14.975,-22.965l0.451,7.746l-5.842,0.317l3.237,11.288l-1.844,14.848l-3.522,-12.352l-4.171,-5.268l1.51,16.756l-11.171,-11.925l3.099,25.283l-6.378,-5.412l-2.98,-10l-4.79,6.386l7.77,17.581l-8.606,-1.063l-10.552,-12.529l-12.03,-5.352l3.04,22.285l-10.106,-13.941l-14.401,20.828l-7.525,-23.07l-4.834,20.348l-9.107,-22.734l-8.081,10.682l0.214,18.707l-4.13,-4.471l-4.102,-18.245l-5.367,8.05l-5.367,13.416l-1.916,-17.058l-8.817,3.427l6.34,-10.967l4.393,-7.601l-8.851,9.792l-4.513,-13.843l-13.468,20.654l-5.367,-27.336l-8.824,20.511l-4.172,-24.747l5.66,-10.166l-14.13,3.668l-5.367,13.417l0,-42.933l107.331,-53.665l107.332,53.665Z"/></clipPath><g clip-path="url(#_clip10)"><path d="M108.236,108.112l0,45.683l-72.924,-1.647l-34.407,-47.117l0,-50.656l107.331,53.737Z" style="fill:#311807;fill-opacity:0.2;"/><path d="M215.568,108.112l0,-53.666l-107.332,53.666l0,53.666l107.332,-53.666Z" style="fill:#febc3b;fill-opacity:0.2;"/><path d="M215.568,54.446l-2.247,14.977l-10.612,-8.547l-3.241,12.353l-6.985,-1.874l-12.71,-4.378l-1.771,6.252l3.708,14.246c0,0 -16.03,-13.515 -14.441,-8.879c1.588,4.636 5.366,16.209 5.366,16.209l-10.733,-8.159l2.682,22.807l-10.352,-15.909l-3.063,11.571l0,10.942l-16.1,-15.995l-7.94,1.397l-0.548,15.825l-7.611,-7.329l-5.367,14.519l-5.367,-0.262l-7.789,-14.628l-5.219,8.123l-10.144,-14.119l-14.413,12.574l-10.734,5.366l2.547,-22.739l-13.28,12.006l-7.128,-14.297l-6.253,15.621l-8.085,-17.423l-13.381,6.69l13.381,-22.79c0,0 -0.374,-1.702 -2.747,-1.374c-2.374,0.329 -18.719,1.374 -18.719,1.374l-5.367,2.683l-0.071,-26.868l107.331,-53.666l107.403,53.701Z" style="fill:#9ecc55;fill-opacity:0.5;"/><path d="M86.77,0.781c0,0 0.182,0.194 10.733,5.366c10.552,5.172 19.231,9.905 21.467,21.467c2.235,11.561 15.077,22.462 32.199,21.466c17.122,-0.997 42.981,5.494 53.666,10.733l-5.367,45.616l16.1,-8.116l0,-42.867l0,-10.733l-113.667,-50.498l-15.131,7.566" style="fill:#3c934d;fill-opacity:0.5;"/><path d="M54.571,16.88c0,0 -0.268,-0.282 10.733,5.367c11.001,5.649 3.828,12.233 21.466,16.1c17.638,3.866 31.337,10.937 34.827,25.519c3.491,14.581 5.907,23.627 18.839,21.402c12.932,-2.225 20.888,-14.718 32.199,-9.355l5.367,24.149l-5.367,36.374l-19.498,8.258l-34.167,-4.383l-3.926,-16.542l3.926,-21.024c0,0 -8.142,-3.756 -10.734,-5.366c-2.591,-1.61 -16.189,-5.169 -22.911,-16.822c-6.723,-11.654 -18.957,-21.982 -37.673,-22.651c-18.717,-0.669 -25.031,-3.197 -36.014,-8.826c-10.983,-5.63 42.933,-32.2 42.933,-32.2" style="fill:#b4e164;fill-opacity:0.528571;"/><path d="M0.905,54.446l10.733,-5.366c0,0 11.907,6.371 18.921,7.17c0.887,0.101 4.212,1.285 16.129,1.65c19.401,0.595 29.416,9.536 37.032,20.286c6.044,8.529 4.031,8.29 19.15,16.877c0.924,0.525 4.542,1.892 6.188,2.726c8.727,4.424 8.687,4.282 9.912,4.992l6.606,18.128l-17.34,30.136l-107.331,-53.666l0,-42.933" style="fill:#3c934d;fill-opacity:0.5;"/></g></g></g></svg>