<?xml version="1.0" encoding="UTF-8" standalone="no"?><!DOCTYPE svg PUBLIC "-//W3C//DTD SVG 1.1//EN" "http://www.w3.org/Graphics/SVG/1.1/DTD/svg11.dtd"><svg width="100%" height="100%" viewBox="0 0 215 140" version="1.1" xmlns="http://www.w3.org/2000/svg" xmlns:xlink="http://www.w3.org/1999/xlink" xml:space="preserve" xmlns:serif="http://www.serif.com/" style="fill-rule:evenodd;clip-rule:evenodd;stroke-linejoin:round;stroke-miterlimit:1.41421;"><g id="GrassBlank07"><path d="M214.862,54.618l0,26.833l-10.733,-16.1l0,16.1l-8.67,-4.335l4.332,15.489l-14.975,-22.964l0.451,7.745l-5.842,0.317l3.238,11.289l-1.845,14.847l-3.522,-12.351l-4.17,-5.269l1.51,16.757l-11.172,-11.926l3.099,25.283l-6.378,-5.411l-2.98,-10.001l-4.79,6.387l7.77,17.581l-8.606,-1.064l-10.552,-12.528l-12.03,-5.352l3.04,22.285l-10.106,-13.942l-14.4,20.828l-7.526,-23.07l-4.833,20.349l-9.108,-22.734l-8.08,10.682l0.213,18.707l-4.13,-4.471l-4.102,-18.246l-5.367,8.05l-5.366,13.417l-1.917,-17.058l-8.817,3.426l6.34,-10.967l4.394,-7.601l-8.851,9.792l-4.514,-13.842l-13.468,20.654l-5.367,-27.337l-8.823,20.512l-4.172,-24.747l5.659,-10.166l-14.13,3.668l-5.367,13.416l0,-42.932l107.332,-53.666l107.331,53.666Z" style="fill:#64e18b;"/><clipPath id="_clip1"><path d="M214.862,54.618l0,26.833l-10.733,-16.1l0,16.1l-8.67,-4.335l4.332,15.489l-14.975,-22.964l0.451,7.745l-5.842,0.317l3.238,11.289l-1.845,14.847l-3.522,-12.351l-4.17,-5.269l1.51,16.757l-11.172,-11.926l3.099,25.283l-6.378,-5.411l-2.98,-10.001l-4.79,6.387l7.77,17.581l-8.606,-1.064l-10.552,-12.528l-12.03,-5.352l3.04,22.285l-10.106,-13.942l-14.4,20.828l-7.526,-23.07l-4.833,20.349l-9.108,-22.734l-8.08,10.682l0.213,18.707l-4.13,-4.471l-4.102,-18.246l-5.367,8.05l-5.366,13.417l-1.917,-17.058l-8.817,3.426l6.34,-10.967l4.394,-7.601l-8.851,9.792l-4.514,-13.842l-13.468,20.654l-5.367,-27.337l-8.823,20.512l-4.172,-24.747l5.659,-10.166l-14.13,3.668l-5.367,13.416l0,-42.932l107.332,-53.666l107.331,53.666Z"/></clipPath><g clip-path="url(#_clip1)"><path d="M107.531,108.284l0,45.683l-72.925,-1.647l-34.407,-47.118l0,-50.655l107.332,53.737Z" style="fill:#311807;fill-opacity:0.2;"/><path d="M214.862,108.284l0,-53.666l-107.331,53.666l0,53.665l107.331,-53.665Z" style="fill:#febc3b;fill-opacity:0.2;"/><path d="M214.862,54.618l-2.246,14.976l-10.613,-8.547l-3.241,12.354l-6.985,-1.874l-12.71,-4.378l-1.771,6.252l3.708,14.245c0,0 -16.03,-13.514 -14.441,-8.879c1.589,4.636 5.366,16.209 5.366,16.209l-10.733,-8.159l2.682,22.808l-10.351,-15.909l-3.064,11.571l0,10.941l-16.1,-15.994l-7.94,1.396l-0.548,15.826l-7.611,-7.33l-5.367,14.519l-5.366,-0.262l-7.79,-14.628l-5.219,8.124l-10.144,-14.119l-14.413,12.573l-10.733,5.367l2.546,-22.74l-13.28,12.007l-7.128,-14.298l-6.252,15.622l-8.086,-17.424l-13.381,6.691l13.381,-22.791c0,0 -0.374,-1.702 -2.747,-1.373c-2.374,0.328 -18.719,1.373 -18.719,1.373l-5.367,2.684l-0.071,-26.869l107.331,-53.665l107.403,53.701Z" style="fill:#58cc76;fill-opacity:0.5;"/><path d="M86.064,0.952c0,0 0.182,0.195 10.734,5.367c10.551,5.172 19.23,9.905 21.466,21.466c2.235,11.562 15.077,22.463 32.199,21.466c17.123,-0.996 42.981,5.495 53.666,10.733l-5.367,45.616l16.1,-8.116l0,-42.866l0,-10.733l-113.666,-50.498l-15.132,7.565" style="fill:#3c938c;fill-opacity:0.5;"/><path d="M53.865,17.052c0,0 -0.268,-0.283 10.733,5.367c11.001,5.649 3.828,12.233 21.466,16.099c17.638,3.867 31.337,10.938 34.828,25.519c3.49,14.582 5.906,23.628 18.838,21.402c12.932,-2.225 20.889,-14.717 32.199,-9.355l5.367,24.15l-5.367,36.373l-19.498,8.258l-34.167,-4.382l-3.926,-16.542l3.926,-21.024c0,0 -8.142,-3.756 -10.733,-5.367c-2.591,-1.61 -16.19,-5.168 -22.912,-16.822c-6.722,-11.654 -18.956,-21.982 -37.673,-22.651c-18.716,-0.668 -25.03,-3.196 -36.013,-8.826c-10.984,-5.629 42.932,-32.199 42.932,-32.199" style="fill:#64e18b;fill-opacity:0.528571;"/><path d="M0.199,54.618l10.734,-5.367c0,0 11.906,6.372 18.92,7.17c0.887,0.101 4.212,1.285 16.129,1.651c19.401,0.594 29.416,9.535 37.033,20.285c6.043,8.53 4.03,8.29 19.149,16.877c0.924,0.525 4.542,1.893 6.188,2.727c8.727,4.423 8.687,4.281 9.912,4.992l6.606,18.127l-17.339,30.136l-107.332,-53.666l0,-42.932" style="fill:#3c938c;fill-opacity:0.5;"/></g></g></svg>