<?xml version="1.0" encoding="UTF-8" standalone="no"?><!DOCTYPE svg PUBLIC "-//W3C//DTD SVG 1.1//EN" "http://www.w3.org/Graphics/SVG/1.1/DTD/svg11.dtd"><svg width="100%" height="100%" viewBox="0 0 215 139" version="1.1" xmlns="http://www.w3.org/2000/svg" xmlns:xlink="http://www.w3.org/1999/xlink" xml:space="preserve" xmlns:serif="http://www.serif.com/" style="fill-rule:evenodd;clip-rule:evenodd;stroke-linejoin:round;stroke-miterlimit:1.41421;"><g id="GrassBlank01"><path d="M214.791,54.132l0,26.833l-10.733,-16.1l0,16.1l-8.67,-4.335l4.333,15.489l-14.975,-22.964l0.45,7.745l-5.842,0.317l3.238,11.289l-1.845,14.847l-3.522,-12.351l-4.17,-5.269l1.51,16.757l-11.172,-11.926l3.099,25.283l-6.377,-5.412l-2.981,-10l-4.79,6.387l7.771,17.581l-8.606,-1.064l-10.553,-12.528l-12.03,-5.352l3.04,22.285l-10.106,-13.942l-14.4,20.828l-7.526,-23.07l-4.833,20.349l-9.107,-22.734l-8.081,10.682l0.214,18.707l-4.131,-4.471l-4.102,-18.246l-5.366,8.05l-5.367,13.417l-1.917,-17.058l-8.816,3.426l6.339,-10.967l4.394,-7.601l-8.851,9.792l-4.514,-13.842l-13.468,20.654l-5.366,-27.337l-8.824,20.512l-4.172,-24.747l5.659,-10.166l-14.13,3.668l-5.366,13.416l0,-42.932l107.331,-53.666l107.331,53.666Z" style="fill:#64e18b;"/><clipPath id="_clip1"><path d="M214.791,54.132l0,26.833l-10.733,-16.1l0,16.1l-8.67,-4.335l4.333,15.489l-14.975,-22.964l0.45,7.745l-5.842,0.317l3.238,11.289l-1.845,14.847l-3.522,-12.351l-4.17,-5.269l1.51,16.757l-11.172,-11.926l3.099,25.283l-6.377,-5.412l-2.981,-10l-4.79,6.387l7.771,17.581l-8.606,-1.064l-10.553,-12.528l-12.03,-5.352l3.04,22.285l-10.106,-13.942l-14.4,20.828l-7.526,-23.07l-4.833,20.349l-9.107,-22.734l-8.081,10.682l0.214,18.707l-4.131,-4.471l-4.102,-18.246l-5.366,8.05l-5.367,13.417l-1.917,-17.058l-8.816,3.426l6.339,-10.967l4.394,-7.601l-8.851,9.792l-4.514,-13.842l-13.468,20.654l-5.366,-27.337l-8.824,20.512l-4.172,-24.747l5.659,-10.166l-14.13,3.668l-5.366,13.416l0,-42.932l107.331,-53.666l107.331,53.666Z"/></clipPath><g clip-path="url(#_clip1)"><path d="M107.46,107.798l0,45.683l-72.924,-1.647l-34.407,-47.118l0,-50.655l107.331,53.737Z" style="fill:#311807;fill-opacity:0.2;"/><path d="M214.791,107.798l0,-53.666l-107.331,53.666l0,53.665l107.331,-53.665Z" style="fill:#febc3b;fill-opacity:0.2;"/><path d="M214.791,54.132l-2.246,14.976l-10.613,-8.547l-3.24,12.354l-6.986,-1.874l-12.71,-4.378l-1.771,6.252l3.709,14.245c0,0 -16.03,-13.514 -14.442,-8.879c1.589,4.636 5.367,16.209 5.367,16.209l-10.733,-8.159l2.682,22.808l-10.352,-15.909l-3.063,11.571l0,10.941l-16.1,-15.994l-7.94,1.396l-0.548,15.826l-7.612,-7.33l-5.366,14.519l-5.367,-0.262l-7.79,-14.628l-5.219,8.124l-10.143,-14.119l-14.414,12.573l-10.733,5.367l2.547,-22.74l-13.28,12.007l-7.129,-14.298l-6.252,15.622l-8.085,-17.424l-13.381,6.691l13.381,-22.791c0,0 -0.374,-1.702 -2.748,-1.373c-2.373,0.328 -18.719,1.373 -18.719,1.373l-5.366,2.684l-0.071,-26.869l107.331,-53.665l107.402,53.701Z" style="fill:#58cc76;fill-opacity:0.5;"/></g></g></svg>