<?xml version="1.0" encoding="UTF-8" standalone="no"?><!DOCTYPE svg PUBLIC "-//W3C//DTD SVG 1.1//EN" "http://www.w3.org/Graphics/SVG/1.1/DTD/svg11.dtd"><svg width="100%" height="100%" viewBox="0 0 215 205" version="1.1" xmlns="http://www.w3.org/2000/svg" xmlns:xlink="http://www.w3.org/1999/xlink" xml:space="preserve" xmlns:serif="http://www.serif.com/" style="fill-rule:evenodd;clip-rule:evenodd;stroke-linejoin:round;stroke-miterlimit:1.41421;"><g id="Grass_Block09"><g><path d="M214.779,53.865l0,96.598l-107.331,53.666l0,-96.598l107.331,-53.666Z" style="fill:#b19772;"/><clipPath id="_clip1"><path d="M214.779,53.865l0,96.598l-107.331,53.666l0,-96.598l107.331,-53.666Z"/></clipPath><g clip-path="url(#_clip1)"><path d="M112.976,235.019l-7.471,-8.393l0.629,-15.38l4.861,-8.365l7.639,3.249l3.734,6.804l0.66,10.712l-10.052,11.373" style="fill:#c7a664;"/><path d="M128.818,258.169l-9.713,-5.527l1.146,-6.28l5.191,-3.042l4.056,1.744l4.471,4.478l-0.085,5.659l-5.066,2.968Zm30.284,-23.855l-5.043,5.49l-10.805,-0.858l-2.238,-4.75l-1.605,-8.245l10.343,-11.669l3.071,5.268l5.435,0.966l2.991,10.238l-2.149,3.56Zm-42.702,5.118l-7.471,-8.485l0.629,-15.55l4.861,-8.457l7.639,3.284l3.734,6.879l0.66,10.831l-10.052,11.498Zm93.012,-28.564l-2.662,11.269l-6.387,5.934l-14.945,-3.07l4.461,-15.02l10.414,-5.565l9.119,6.452Zm-32.485,4.321l7.62,-4.465l4.724,-10.709l-3.045,-9.663l-19.233,-2.996l-6.432,7.782l-1.006,7.793l6.329,7.51l11.043,4.748Zm-36.987,-6.375l6.48,-6.129l-3.057,-12.703l-8.623,-2.491l-7.622,-1.459l-2.977,3.994l-3.5,-1.505l-5.378,1.098l-1.634,4.367l5.651,4.497l4.24,3.125l7.817,4.755l8.603,2.451Zm10.66,-25.764l10.639,-1.877l10.285,-7.689l-2.017,-7.71l-4.768,-5.755l-7.68,1.972l-4.984,5.448l-3.648,6.661l2.173,8.95Zm48.103,-4.723l8.068,-10.782l-1.706,-6.008l-8.575,-19.507c0,0 -7.897,6.006 -10.383,6.083c-2.485,0.077 -7.683,4.501 -7.683,4.501l3.152,9.371l8.6,6.18l8.527,10.162Zm-64.518,-7.172l-9.714,-5.527l1.146,-6.28l5.191,-3.041l4.057,1.744l4.47,4.478l-0.085,5.658l-5.065,2.968Zm30.283,-23.855l-5.042,5.49l-10.806,-0.858l-2.238,-4.75l-1.605,-8.245l10.344,-11.669l3.07,5.269l5.436,0.966l2.991,10.237l-2.15,3.56Zm-42.702,5.119l-7.47,-8.486l0.628,-15.55l4.861,-8.457l7.639,3.285l3.734,6.879l0.661,10.831l-10.053,11.498Zm93.013,-28.565l-2.662,11.27l-6.388,5.934l-14.945,-3.071l4.461,-15.019l10.415,-5.566l9.119,6.452Zm-32.486,4.321l7.621,-4.464l4.724,-10.709l-3.045,-9.663l-19.234,-2.997l-6.431,7.782l-1.006,7.794l6.329,7.509l11.042,4.748Zm-36.986,-6.374l6.48,-6.129l-3.057,-12.703l-8.623,-2.491l-7.622,-1.459l-2.977,3.994l-3.5,-1.505l-5.378,1.097l-1.634,4.368l5.651,4.496l4.24,3.125l7.816,4.756l8.604,2.451Zm10.659,-25.764l10.639,-1.878l10.285,-7.689l-2.016,-7.71l-4.769,-5.754l-7.679,1.972l-4.985,5.447l-3.648,6.662l2.173,8.95Zm48.103,-4.724l8.069,-10.782l-1.707,-6.007l-8.574,-19.507c0,0 -7.897,6.005 -10.383,6.082c-2.486,0.078 -7.683,4.502 -7.683,4.502l3.152,9.371l8.6,6.179l8.526,10.162Z" style="fill:#756941;fill-opacity:0.7;"/><path d="M136.516,204.735l6.48,-6.062l-3.057,-12.565l-8.623,-2.463l-7.622,-1.443l-2.977,3.95l-3.5,-1.489l-5.378,1.086l-1.634,4.319l5.651,4.448l4.24,3.091l7.817,4.704l8.603,2.424Z" style="fill:#837f5d;"/><clipPath id="_clip2"><path d="M136.516,204.735l6.48,-6.062l-3.057,-12.565l-8.623,-2.463l-7.622,-1.443l-2.977,3.95l-3.5,-1.489l-5.378,1.086l-1.634,4.319l5.651,4.448l4.24,3.091l7.817,4.704l8.603,2.424Z"/></clipPath><g clip-path="url(#_clip2)"><path d="M128.818,258.169l-9.713,-5.527l1.146,-6.28l5.191,-3.042l4.056,1.744l4.471,4.478l-0.085,5.659l-5.066,2.968Zm30.284,-23.855l-5.043,5.49l-10.805,-0.858l-2.238,-4.75l-1.605,-8.245l10.343,-11.669l3.071,5.268l5.435,0.966l2.991,10.238l-2.149,3.56Zm-42.702,5.118l-7.471,-8.485l0.629,-15.55l4.861,-8.457l7.639,3.284l3.734,6.879l0.66,10.831l-10.052,11.498Zm93.012,-28.564l-2.662,11.269l-6.387,5.934l-14.945,-3.07l4.461,-15.02l10.414,-5.565l9.119,6.452Zm-32.485,4.321l7.62,-4.465l4.724,-10.709l-3.045,-9.663l-19.233,-2.996l-6.432,7.782l-1.006,7.793l6.329,7.51l11.043,4.748Zm-36.987,-6.375l6.48,-6.129l-3.057,-12.703l-8.623,-2.491l-7.622,-1.459l-2.977,3.994l-3.5,-1.505l-5.378,1.098l-1.634,4.367l5.651,4.497l4.24,3.125l7.817,4.755l8.603,2.451Zm10.66,-25.764l10.639,-1.877l10.285,-7.689l-2.017,-7.71l-4.768,-5.755l-7.68,1.972l-4.984,5.448l-3.648,6.661l2.173,8.95Zm48.103,-4.723l8.068,-10.782l-1.706,-6.008l-8.575,-19.507c0,0 -7.897,6.006 -10.383,6.083c-2.485,0.077 -7.683,4.501 -7.683,4.501l3.152,9.371l8.6,6.18l8.527,10.162Zm-64.518,-7.172l-9.714,-5.527l1.146,-6.28l5.191,-3.041l4.057,1.744l4.47,4.478l-0.085,5.658l-5.065,2.968Zm30.283,-23.855l-5.042,5.49l-10.806,-0.858l-2.238,-4.75l-1.605,-8.245l10.344,-11.669l3.07,5.269l5.436,0.966l2.991,10.237l-2.15,3.56Zm-42.702,5.119l-7.47,-8.486l0.628,-15.55l4.861,-8.457l7.639,3.285l3.734,6.879l0.661,10.831l-10.053,11.498Zm93.013,-28.565l-2.662,11.27l-6.388,5.934l-14.945,-3.071l4.461,-15.019l10.415,-5.566l9.119,6.452Zm-32.486,4.321l7.621,-4.464l4.724,-10.709l-3.045,-9.663l-19.234,-2.997l-6.431,7.782l-1.006,7.794l6.329,7.509l11.042,4.748Zm-36.986,-6.374l6.48,-6.129l-3.057,-12.703l-8.623,-2.491l-7.622,-1.459l-2.977,3.994l-3.5,-1.505l-5.378,1.097l-1.634,4.368l5.651,4.496l4.24,3.125l7.816,4.756l8.604,2.451Zm10.659,-25.764l10.639,-1.878l10.285,-7.689l-2.016,-7.71l-4.769,-5.754l-7.679,1.972l-4.985,5.447l-3.648,6.662l2.173,8.95Zm48.103,-4.724l8.069,-10.782l-1.707,-6.007l-8.574,-19.507c0,0 -7.897,6.005 -10.383,6.082c-2.486,0.078 -7.683,4.502 -7.683,4.502l3.152,9.371l8.6,6.179l8.526,10.162Z" style="fill:#756941;fill-opacity:0.7;"/></g><path d="M173.503,211.04l7.62,-4.416l4.724,-10.592l-3.045,-9.558l-19.233,-2.963l-6.432,7.697l-1.006,7.708l6.329,7.428l11.043,4.696Z" style="fill:#837f5d;"/><path d="M195.279,174.58l8.068,-10.665l-1.706,-5.942l-8.575,-19.294c0,0 -7.897,5.94 -10.383,6.016c-2.485,0.077 -7.683,4.453 -7.683,4.453l3.152,9.269l8.6,6.112l8.527,10.051Z" style="fill:#837f5d;"/><clipPath id="_clip3"><path d="M195.279,174.58l8.068,-10.665l-1.706,-5.942l-8.575,-19.294c0,0 -7.897,5.94 -10.383,6.016c-2.485,0.077 -7.683,4.453 -7.683,4.453l3.152,9.269l8.6,6.112l8.527,10.051Z"/></clipPath><g clip-path="url(#_clip3)"><path d="M128.818,258.169l-9.713,-5.527l1.146,-6.28l5.191,-3.042l4.056,1.744l4.471,4.478l-0.085,5.659l-5.066,2.968Zm30.284,-23.855l-5.043,5.49l-10.805,-0.858l-2.238,-4.75l-1.605,-8.245l10.343,-11.669l3.071,5.268l5.435,0.966l2.991,10.238l-2.149,3.56Zm-42.702,5.118l-7.471,-8.485l0.629,-15.55l4.861,-8.457l7.639,3.284l3.734,6.879l0.66,10.831l-10.052,11.498Zm93.012,-28.564l-2.662,11.269l-6.387,5.934l-14.945,-3.07l4.461,-15.02l10.414,-5.565l9.119,6.452Zm-32.485,4.321l7.62,-4.465l4.724,-10.709l-3.045,-9.663l-19.233,-2.996l-6.432,7.782l-1.006,7.793l6.329,7.51l11.043,4.748Zm-36.987,-6.375l6.48,-6.129l-3.057,-12.703l-8.623,-2.491l-7.622,-1.459l-2.977,3.994l-3.5,-1.505l-5.378,1.098l-1.634,4.367l5.651,4.497l4.24,3.125l7.817,4.755l8.603,2.451Zm10.66,-25.764l10.639,-1.877l10.285,-7.689l-2.017,-7.71l-4.768,-5.755l-7.68,1.972l-4.984,5.448l-3.648,6.661l2.173,8.95Zm48.103,-4.723l8.068,-10.782l-1.706,-6.008l-8.575,-19.507c0,0 -7.897,6.006 -10.383,6.083c-2.485,0.077 -7.683,4.501 -7.683,4.501l3.152,9.371l8.6,6.18l8.527,10.162Zm-64.518,-7.172l-9.714,-5.527l1.146,-6.28l5.191,-3.041l4.057,1.744l4.47,4.478l-0.085,5.658l-5.065,2.968Zm30.283,-23.855l-5.042,5.49l-10.806,-0.858l-2.238,-4.75l-1.605,-8.245l10.344,-11.669l3.07,5.269l5.436,0.966l2.991,10.237l-2.15,3.56Zm-42.702,5.119l-7.47,-8.486l0.628,-15.55l4.861,-8.457l7.639,3.285l3.734,6.879l0.661,10.831l-10.053,11.498Zm93.013,-28.565l-2.662,11.27l-6.388,5.934l-14.945,-3.071l4.461,-15.019l10.415,-5.566l9.119,6.452Zm-32.486,4.321l7.621,-4.464l4.724,-10.709l-3.045,-9.663l-19.234,-2.997l-6.431,7.782l-1.006,7.794l6.329,7.509l11.042,4.748Zm-36.986,-6.374l6.48,-6.129l-3.057,-12.703l-8.623,-2.491l-7.622,-1.459l-2.977,3.994l-3.5,-1.505l-5.378,1.097l-1.634,4.368l5.651,4.496l4.24,3.125l7.816,4.756l8.604,2.451Zm10.659,-25.764l10.639,-1.878l10.285,-7.689l-2.016,-7.71l-4.769,-5.754l-7.679,1.972l-4.985,5.447l-3.648,6.662l2.173,8.95Zm48.103,-4.724l8.069,-10.782l-1.707,-6.007l-8.574,-19.507c0,0 -7.897,6.005 -10.383,6.082c-2.486,0.078 -7.683,4.502 -7.683,4.502l3.152,9.371l8.6,6.179l8.526,10.162Z" style="fill:#756941;fill-opacity:0.7;"/></g><path d="M147.176,179.252l10.639,-1.857l10.285,-7.605l-2.017,-7.626l-4.768,-5.692l-7.68,1.95l-4.984,5.389l-3.648,6.588l2.173,8.853" style="fill:#837f5d;"/><clipPath id="_clip4"><path d="M147.176,179.252l10.639,-1.857l10.285,-7.605l-2.017,-7.626l-4.768,-5.692l-7.68,1.95l-4.984,5.389l-3.648,6.588l2.173,8.853"/></clipPath><g clip-path="url(#_clip4)"><path d="M128.818,258.169l-9.713,-5.527l1.146,-6.28l5.191,-3.042l4.056,1.744l4.471,4.478l-0.085,5.659l-5.066,2.968Zm30.284,-23.855l-5.043,5.49l-10.805,-0.858l-2.238,-4.75l-1.605,-8.245l10.343,-11.669l3.071,5.268l5.435,0.966l2.991,10.238l-2.149,3.56Zm-42.702,5.118l-7.471,-8.485l0.629,-15.55l4.861,-8.457l7.639,3.284l3.734,6.879l0.66,10.831l-10.052,11.498Zm93.012,-28.564l-2.662,11.269l-6.387,5.934l-14.945,-3.07l4.461,-15.02l10.414,-5.565l9.119,6.452Zm-32.485,4.321l7.62,-4.465l4.724,-10.709l-3.045,-9.663l-19.233,-2.996l-6.432,7.782l-1.006,7.793l6.329,7.51l11.043,4.748Zm-36.987,-6.375l6.48,-6.129l-3.057,-12.703l-8.623,-2.491l-7.622,-1.459l-2.977,3.994l-3.5,-1.505l-5.378,1.098l-1.634,4.367l5.651,4.497l4.24,3.125l7.817,4.755l8.603,2.451Zm10.66,-25.764l10.639,-1.877l10.285,-7.689l-2.017,-7.71l-4.768,-5.755l-7.68,1.972l-4.984,5.448l-3.648,6.661l2.173,8.95Zm48.103,-4.723l8.068,-10.782l-1.706,-6.008l-8.575,-19.507c0,0 -7.897,6.006 -10.383,6.083c-2.485,0.077 -7.683,4.501 -7.683,4.501l3.152,9.371l8.6,6.18l8.527,10.162Zm-64.518,-7.172l-9.714,-5.527l1.146,-6.28l5.191,-3.041l4.057,1.744l4.47,4.478l-0.085,5.658l-5.065,2.968Zm30.283,-23.855l-5.042,5.49l-10.806,-0.858l-2.238,-4.75l-1.605,-8.245l10.344,-11.669l3.07,5.269l5.436,0.966l2.991,10.237l-2.15,3.56Zm-42.702,5.119l-7.47,-8.486l0.628,-15.55l4.861,-8.457l7.639,3.285l3.734,6.879l0.661,10.831l-10.053,11.498Zm93.013,-28.565l-2.662,11.27l-6.388,5.934l-14.945,-3.071l4.461,-15.019l10.415,-5.566l9.119,6.452Zm-32.486,4.321l7.621,-4.464l4.724,-10.709l-3.045,-9.663l-19.234,-2.997l-6.431,7.782l-1.006,7.794l6.329,7.509l11.042,4.748Zm-36.986,-6.374l6.48,-6.129l-3.057,-12.703l-8.623,-2.491l-7.622,-1.459l-2.977,3.994l-3.5,-1.505l-5.378,1.097l-1.634,4.368l5.651,4.496l4.24,3.125l7.816,4.756l8.604,2.451Zm10.659,-25.764l10.639,-1.878l10.285,-7.689l-2.016,-7.71l-4.769,-5.754l-7.679,1.972l-4.985,5.447l-3.648,6.662l2.173,8.95Zm48.103,-4.724l8.069,-10.782l-1.707,-6.007l-8.574,-19.507c0,0 -7.897,6.005 -10.383,6.082c-2.486,0.078 -7.683,4.502 -7.683,4.502l3.152,9.371l8.6,6.179l8.526,10.162Z" style="fill:#756941;fill-opacity:0.7;"/></g><path d="M205.988,206.766l-9.119,-6.381l-10.414,5.505l-4.461,14.855l14.945,3.037l6.387,-5.869l2.662,-11.147" style="fill:#837f5d;"/><clipPath id="_clip5"><path d="M205.988,206.766l-9.119,-6.381l-10.414,5.505l-4.461,14.855l14.945,3.037l6.387,-5.869l2.662,-11.147"/></clipPath><g clip-path="url(#_clip5)"><path d="M128.818,258.169l-9.713,-5.527l1.146,-6.28l5.191,-3.042l4.056,1.744l4.471,4.478l-0.085,5.659l-5.066,2.968Zm30.284,-23.855l-5.043,5.49l-10.805,-0.858l-2.238,-4.75l-1.605,-8.245l10.343,-11.669l3.071,5.268l5.435,0.966l2.991,10.238l-2.149,3.56Zm-42.702,5.118l-7.471,-8.485l0.629,-15.55l4.861,-8.457l7.639,3.284l3.734,6.879l0.66,10.831l-10.052,11.498Zm93.012,-28.564l-2.662,11.269l-6.387,5.934l-14.945,-3.07l4.461,-15.02l10.414,-5.565l9.119,6.452Zm-32.485,4.321l7.62,-4.465l4.724,-10.709l-3.045,-9.663l-19.233,-2.996l-6.432,7.782l-1.006,7.793l6.329,7.51l11.043,4.748Zm-36.987,-6.375l6.48,-6.129l-3.057,-12.703l-8.623,-2.491l-7.622,-1.459l-2.977,3.994l-3.5,-1.505l-5.378,1.098l-1.634,4.367l5.651,4.497l4.24,3.125l7.817,4.755l8.603,2.451Zm10.66,-25.764l10.639,-1.877l10.285,-7.689l-2.017,-7.71l-4.768,-5.755l-7.68,1.972l-4.984,5.448l-3.648,6.661l2.173,8.95Zm48.103,-4.723l8.068,-10.782l-1.706,-6.008l-8.575,-19.507c0,0 -7.897,6.006 -10.383,6.083c-2.485,0.077 -7.683,4.501 -7.683,4.501l3.152,9.371l8.6,6.18l8.527,10.162Zm-64.518,-7.172l-9.714,-5.527l1.146,-6.28l5.191,-3.041l4.057,1.744l4.47,4.478l-0.085,5.658l-5.065,2.968Zm30.283,-23.855l-5.042,5.49l-10.806,-0.858l-2.238,-4.75l-1.605,-8.245l10.344,-11.669l3.07,5.269l5.436,0.966l2.991,10.237l-2.15,3.56Zm-42.702,5.119l-7.47,-8.486l0.628,-15.55l4.861,-8.457l7.639,3.285l3.734,6.879l0.661,10.831l-10.053,11.498Zm93.013,-28.565l-2.662,11.27l-6.388,5.934l-14.945,-3.071l4.461,-15.019l10.415,-5.566l9.119,6.452Zm-32.486,4.321l7.621,-4.464l4.724,-10.709l-3.045,-9.663l-19.234,-2.997l-6.431,7.782l-1.006,7.794l6.329,7.509l11.042,4.748Zm-36.986,-6.374l6.48,-6.129l-3.057,-12.703l-8.623,-2.491l-7.622,-1.459l-2.977,3.994l-3.5,-1.505l-5.378,1.097l-1.634,4.368l5.651,4.496l4.24,3.125l7.816,4.756l8.604,2.451Zm10.659,-25.764l10.639,-1.878l10.285,-7.689l-2.016,-7.71l-4.769,-5.754l-7.679,1.972l-4.985,5.447l-3.648,6.662l2.173,8.95Zm48.103,-4.724l8.069,-10.782l-1.707,-6.007l-8.574,-19.507c0,0 -7.897,6.005 -10.383,6.082c-2.486,0.078 -7.683,4.502 -7.683,4.502l3.152,9.371l8.6,6.179l8.526,10.162Z" style="fill:#756941;fill-opacity:0.7;"/></g><path d="M118.342,148.954l-7.47,-8.393l0.628,-15.38l4.862,-8.365l7.638,3.249l3.735,6.804l0.66,10.712l-10.053,11.373" style="fill:#837f5d;"/><clipPath id="_clip6"><path d="M118.342,148.954l-7.47,-8.393l0.628,-15.38l4.862,-8.365l7.638,3.249l3.735,6.804l0.66,10.712l-10.053,11.373"/></clipPath><g clip-path="url(#_clip6)"><path d="M128.818,258.169l-9.713,-5.527l1.146,-6.28l5.191,-3.042l4.056,1.744l4.471,4.478l-0.085,5.659l-5.066,2.968Zm30.284,-23.855l-5.043,5.49l-10.805,-0.858l-2.238,-4.75l-1.605,-8.245l10.343,-11.669l3.071,5.268l5.435,0.966l2.991,10.238l-2.149,3.56Zm-42.702,5.118l-7.471,-8.485l0.629,-15.55l4.861,-8.457l7.639,3.284l3.734,6.879l0.66,10.831l-10.052,11.498Zm93.012,-28.564l-2.662,11.269l-6.387,5.934l-14.945,-3.07l4.461,-15.02l10.414,-5.565l9.119,6.452Zm-32.485,4.321l7.62,-4.465l4.724,-10.709l-3.045,-9.663l-19.233,-2.996l-6.432,7.782l-1.006,7.793l6.329,7.51l11.043,4.748Zm-36.987,-6.375l6.48,-6.129l-3.057,-12.703l-8.623,-2.491l-7.622,-1.459l-2.977,3.994l-3.5,-1.505l-5.378,1.098l-1.634,4.367l5.651,4.497l4.24,3.125l7.817,4.755l8.603,2.451Zm10.66,-25.764l10.639,-1.877l10.285,-7.689l-2.017,-7.71l-4.768,-5.755l-7.68,1.972l-4.984,5.448l-3.648,6.661l2.173,8.95Zm48.103,-4.723l8.068,-10.782l-1.706,-6.008l-8.575,-19.507c0,0 -7.897,6.006 -10.383,6.083c-2.485,0.077 -7.683,4.501 -7.683,4.501l3.152,9.371l8.6,6.18l8.527,10.162Zm-64.518,-7.172l-9.714,-5.527l1.146,-6.28l5.191,-3.041l4.057,1.744l4.47,4.478l-0.085,5.658l-5.065,2.968Zm30.283,-23.855l-5.042,5.49l-10.806,-0.858l-2.238,-4.75l-1.605,-8.245l10.344,-11.669l3.07,5.269l5.436,0.966l2.991,10.237l-2.15,3.56Zm-42.702,5.119l-7.47,-8.486l0.628,-15.55l4.861,-8.457l7.639,3.285l3.734,6.879l0.661,10.831l-10.053,11.498Zm93.013,-28.565l-2.662,11.27l-6.388,5.934l-14.945,-3.071l4.461,-15.019l10.415,-5.566l9.119,6.452Zm-32.486,4.321l7.621,-4.464l4.724,-10.709l-3.045,-9.663l-19.234,-2.997l-6.431,7.782l-1.006,7.794l6.329,7.509l11.042,4.748Zm-36.986,-6.374l6.48,-6.129l-3.057,-12.703l-8.623,-2.491l-7.622,-1.459l-2.977,3.994l-3.5,-1.505l-5.378,1.097l-1.634,4.368l5.651,4.496l4.24,3.125l7.816,4.756l8.604,2.451Zm10.659,-25.764l10.639,-1.878l10.285,-7.689l-2.016,-7.71l-4.769,-5.754l-7.679,1.972l-4.985,5.447l-3.648,6.662l2.173,8.95Zm48.103,-4.724l8.069,-10.782l-1.707,-6.007l-8.574,-19.507c0,0 -7.897,6.005 -10.383,6.082c-2.486,0.078 -7.683,4.502 -7.683,4.502l3.152,9.371l8.6,6.179l8.526,10.162Z" style="fill:#756941;fill-opacity:0.7;"/></g><path d="M130.761,167.486l-9.714,-5.466l1.146,-6.212l5.192,-3.008l4.056,1.725l4.47,4.429l-0.085,5.597l-5.065,2.935Z" style="fill:#837f5d;"/><clipPath id="_clip7"><path d="M130.761,167.486l-9.714,-5.466l1.146,-6.212l5.192,-3.008l4.056,1.725l4.47,4.429l-0.085,5.597l-5.065,2.935Z"/></clipPath><g clip-path="url(#_clip7)"><path d="M128.818,258.169l-9.713,-5.527l1.146,-6.28l5.191,-3.042l4.056,1.744l4.471,4.478l-0.085,5.659l-5.066,2.968Zm30.284,-23.855l-5.043,5.49l-10.805,-0.858l-2.238,-4.75l-1.605,-8.245l10.343,-11.669l3.071,5.268l5.435,0.966l2.991,10.238l-2.149,3.56Zm-42.702,5.118l-7.471,-8.485l0.629,-15.55l4.861,-8.457l7.639,3.284l3.734,6.879l0.66,10.831l-10.052,11.498Zm93.012,-28.564l-2.662,11.269l-6.387,5.934l-14.945,-3.07l4.461,-15.02l10.414,-5.565l9.119,6.452Zm-32.485,4.321l7.62,-4.465l4.724,-10.709l-3.045,-9.663l-19.233,-2.996l-6.432,7.782l-1.006,7.793l6.329,7.51l11.043,4.748Zm-36.987,-6.375l6.48,-6.129l-3.057,-12.703l-8.623,-2.491l-7.622,-1.459l-2.977,3.994l-3.5,-1.505l-5.378,1.098l-1.634,4.367l5.651,4.497l4.24,3.125l7.817,4.755l8.603,2.451Zm10.66,-25.764l10.639,-1.877l10.285,-7.689l-2.017,-7.71l-4.768,-5.755l-7.68,1.972l-4.984,5.448l-3.648,6.661l2.173,8.95Zm48.103,-4.723l8.068,-10.782l-1.706,-6.008l-8.575,-19.507c0,0 -7.897,6.006 -10.383,6.083c-2.485,0.077 -7.683,4.501 -7.683,4.501l3.152,9.371l8.6,6.18l8.527,10.162Zm-64.518,-7.172l-9.714,-5.527l1.146,-6.28l5.191,-3.041l4.057,1.744l4.47,4.478l-0.085,5.658l-5.065,2.968Zm30.283,-23.855l-5.042,5.49l-10.806,-0.858l-2.238,-4.75l-1.605,-8.245l10.344,-11.669l3.07,5.269l5.436,0.966l2.991,10.237l-2.15,3.56Zm-42.702,5.119l-7.47,-8.486l0.628,-15.55l4.861,-8.457l7.639,3.285l3.734,6.879l0.661,10.831l-10.053,11.498Zm93.013,-28.565l-2.662,11.27l-6.388,5.934l-14.945,-3.071l4.461,-15.019l10.415,-5.566l9.119,6.452Zm-32.486,4.321l7.621,-4.464l4.724,-10.709l-3.045,-9.663l-19.234,-2.997l-6.431,7.782l-1.006,7.794l6.329,7.509l11.042,4.748Zm-36.986,-6.374l6.48,-6.129l-3.057,-12.703l-8.623,-2.491l-7.622,-1.459l-2.977,3.994l-3.5,-1.505l-5.378,1.097l-1.634,4.368l5.651,4.496l4.24,3.125l7.816,4.756l8.604,2.451Zm10.659,-25.764l10.639,-1.878l10.285,-7.689l-2.016,-7.71l-4.769,-5.754l-7.679,1.972l-4.985,5.447l-3.648,6.662l2.173,8.95Zm48.103,-4.724l8.069,-10.782l-1.707,-6.007l-8.574,-19.507c0,0 -7.897,6.005 -10.383,6.082c-2.486,0.078 -7.683,4.502 -7.683,4.502l3.152,9.371l8.6,6.179l8.526,10.162Z" style="fill:#756941;fill-opacity:0.7;"/></g><path d="M161.044,143.891l-5.042,5.431l-10.806,-0.849l-2.237,-4.698l-1.606,-8.155l10.344,-11.542l3.07,5.211l5.436,0.955l2.991,10.126l-2.15,3.521" style="fill:#837f5d;"/><clipPath id="_clip8"><path d="M161.044,143.891l-5.042,5.431l-10.806,-0.849l-2.237,-4.698l-1.606,-8.155l10.344,-11.542l3.07,5.211l5.436,0.955l2.991,10.126l-2.15,3.521"/></clipPath><g clip-path="url(#_clip8)"><path d="M128.818,258.169l-9.713,-5.527l1.146,-6.28l5.191,-3.042l4.056,1.744l4.471,4.478l-0.085,5.659l-5.066,2.968Zm30.284,-23.855l-5.043,5.49l-10.805,-0.858l-2.238,-4.75l-1.605,-8.245l10.343,-11.669l3.071,5.268l5.435,0.966l2.991,10.238l-2.149,3.56Zm-42.702,5.118l-7.471,-8.485l0.629,-15.55l4.861,-8.457l7.639,3.284l3.734,6.879l0.66,10.831l-10.052,11.498Zm93.012,-28.564l-2.662,11.269l-6.387,5.934l-14.945,-3.07l4.461,-15.02l10.414,-5.565l9.119,6.452Zm-32.485,4.321l7.62,-4.465l4.724,-10.709l-3.045,-9.663l-19.233,-2.996l-6.432,7.782l-1.006,7.793l6.329,7.51l11.043,4.748Zm-36.987,-6.375l6.48,-6.129l-3.057,-12.703l-8.623,-2.491l-7.622,-1.459l-2.977,3.994l-3.5,-1.505l-5.378,1.098l-1.634,4.367l5.651,4.497l4.24,3.125l7.817,4.755l8.603,2.451Zm10.66,-25.764l10.639,-1.877l10.285,-7.689l-2.017,-7.71l-4.768,-5.755l-7.68,1.972l-4.984,5.448l-3.648,6.661l2.173,8.95Zm48.103,-4.723l8.068,-10.782l-1.706,-6.008l-8.575,-19.507c0,0 -7.897,6.006 -10.383,6.083c-2.485,0.077 -7.683,4.501 -7.683,4.501l3.152,9.371l8.6,6.18l8.527,10.162Zm-64.518,-7.172l-9.714,-5.527l1.146,-6.28l5.191,-3.041l4.057,1.744l4.47,4.478l-0.085,5.658l-5.065,2.968Zm30.283,-23.855l-5.042,5.49l-10.806,-0.858l-2.238,-4.75l-1.605,-8.245l10.344,-11.669l3.07,5.269l5.436,0.966l2.991,10.237l-2.15,3.56Zm-42.702,5.119l-7.47,-8.486l0.628,-15.55l4.861,-8.457l7.639,3.285l3.734,6.879l0.661,10.831l-10.053,11.498Zm93.013,-28.565l-2.662,11.27l-6.388,5.934l-14.945,-3.071l4.461,-15.019l10.415,-5.566l9.119,6.452Zm-32.486,4.321l7.621,-4.464l4.724,-10.709l-3.045,-9.663l-19.234,-2.997l-6.431,7.782l-1.006,7.794l6.329,7.509l11.042,4.748Zm-36.986,-6.374l6.48,-6.129l-3.057,-12.703l-8.623,-2.491l-7.622,-1.459l-2.977,3.994l-3.5,-1.505l-5.378,1.097l-1.634,4.368l5.651,4.496l4.24,3.125l7.816,4.756l8.604,2.451Zm10.659,-25.764l10.639,-1.878l10.285,-7.689l-2.016,-7.71l-4.769,-5.754l-7.679,1.972l-4.985,5.447l-3.648,6.662l2.173,8.95Zm48.103,-4.724l8.069,-10.782l-1.707,-6.007l-8.574,-19.507c0,0 -7.897,6.005 -10.383,6.082c-2.486,0.078 -7.683,4.502 -7.683,4.502l3.152,9.371l8.6,6.179l8.526,10.162Z" style="fill:#756941;fill-opacity:0.7;"/></g><path d="M141.883,118.67l6.48,-6.062l-3.057,-12.565l-8.623,-2.464l-7.622,-1.443l-2.977,3.951l-3.5,-1.489l-5.378,1.086l-1.634,4.319l5.651,4.448l4.24,3.091l7.816,4.704l8.604,2.424Z" style="fill:#837f5d;"/><clipPath id="_clip9"><path d="M141.883,118.67l6.48,-6.062l-3.057,-12.565l-8.623,-2.464l-7.622,-1.443l-2.977,3.951l-3.5,-1.489l-5.378,1.086l-1.634,4.319l5.651,4.448l4.24,3.091l7.816,4.704l8.604,2.424Z"/></clipPath><g clip-path="url(#_clip9)"><path d="M128.818,258.169l-9.713,-5.527l1.146,-6.28l5.191,-3.042l4.056,1.744l4.471,4.478l-0.085,5.659l-5.066,2.968Zm30.284,-23.855l-5.043,5.49l-10.805,-0.858l-2.238,-4.75l-1.605,-8.245l10.343,-11.669l3.071,5.268l5.435,0.966l2.991,10.238l-2.149,3.56Zm-42.702,5.118l-7.471,-8.485l0.629,-15.55l4.861,-8.457l7.639,3.284l3.734,6.879l0.66,10.831l-10.052,11.498Zm93.012,-28.564l-2.662,11.269l-6.387,5.934l-14.945,-3.07l4.461,-15.02l10.414,-5.565l9.119,6.452Zm-32.485,4.321l7.62,-4.465l4.724,-10.709l-3.045,-9.663l-19.233,-2.996l-6.432,7.782l-1.006,7.793l6.329,7.51l11.043,4.748Zm-36.987,-6.375l6.48,-6.129l-3.057,-12.703l-8.623,-2.491l-7.622,-1.459l-2.977,3.994l-3.5,-1.505l-5.378,1.098l-1.634,4.367l5.651,4.497l4.24,3.125l7.817,4.755l8.603,2.451Zm10.66,-25.764l10.639,-1.877l10.285,-7.689l-2.017,-7.71l-4.768,-5.755l-7.68,1.972l-4.984,5.448l-3.648,6.661l2.173,8.95Zm48.103,-4.723l8.068,-10.782l-1.706,-6.008l-8.575,-19.507c0,0 -7.897,6.006 -10.383,6.083c-2.485,0.077 -7.683,4.501 -7.683,4.501l3.152,9.371l8.6,6.18l8.527,10.162Zm-64.518,-7.172l-9.714,-5.527l1.146,-6.28l5.191,-3.041l4.057,1.744l4.47,4.478l-0.085,5.658l-5.065,2.968Zm30.283,-23.855l-5.042,5.49l-10.806,-0.858l-2.238,-4.75l-1.605,-8.245l10.344,-11.669l3.07,5.269l5.436,0.966l2.991,10.237l-2.15,3.56Zm-42.702,5.119l-7.47,-8.486l0.628,-15.55l4.861,-8.457l7.639,3.285l3.734,6.879l0.661,10.831l-10.053,11.498Zm93.013,-28.565l-2.662,11.27l-6.388,5.934l-14.945,-3.071l4.461,-15.019l10.415,-5.566l9.119,6.452Zm-32.486,4.321l7.621,-4.464l4.724,-10.709l-3.045,-9.663l-19.234,-2.997l-6.431,7.782l-1.006,7.794l6.329,7.509l11.042,4.748Zm-36.986,-6.374l6.48,-6.129l-3.057,-12.703l-8.623,-2.491l-7.622,-1.459l-2.977,3.994l-3.5,-1.505l-5.378,1.097l-1.634,4.368l5.651,4.496l4.24,3.125l7.816,4.756l8.604,2.451Zm10.659,-25.764l10.639,-1.878l10.285,-7.689l-2.016,-7.71l-4.769,-5.754l-7.679,1.972l-4.985,5.447l-3.648,6.662l2.173,8.95Zm48.103,-4.724l8.069,-10.782l-1.707,-6.007l-8.574,-19.507c0,0 -7.897,6.005 -10.383,6.082c-2.486,0.078 -7.683,4.502 -7.683,4.502l3.152,9.371l8.6,6.179l8.526,10.162Z" style="fill:#756941;fill-opacity:0.7;"/></g><path d="M178.869,124.975l7.621,-4.416l4.724,-10.592l-3.045,-9.558l-19.234,-2.963l-6.431,7.697l-1.006,7.708l6.329,7.428l11.042,4.696Z" style="fill:#837f5d;"/><clipPath id="_clip10"><path d="M178.869,124.975l7.621,-4.416l4.724,-10.592l-3.045,-9.558l-19.234,-2.963l-6.431,7.697l-1.006,7.708l6.329,7.428l11.042,4.696Z"/></clipPath><g clip-path="url(#_clip10)"><path d="M128.818,258.169l-9.713,-5.527l1.146,-6.28l5.191,-3.042l4.056,1.744l4.471,4.478l-0.085,5.659l-5.066,2.968Zm30.284,-23.855l-5.043,5.49l-10.805,-0.858l-2.238,-4.75l-1.605,-8.245l10.343,-11.669l3.071,5.268l5.435,0.966l2.991,10.238l-2.149,3.56Zm-42.702,5.118l-7.471,-8.485l0.629,-15.55l4.861,-8.457l7.639,3.284l3.734,6.879l0.66,10.831l-10.052,11.498Zm93.012,-28.564l-2.662,11.269l-6.387,5.934l-14.945,-3.07l4.461,-15.02l10.414,-5.565l9.119,6.452Zm-32.485,4.321l7.62,-4.465l4.724,-10.709l-3.045,-9.663l-19.233,-2.996l-6.432,7.782l-1.006,7.793l6.329,7.51l11.043,4.748Zm-36.987,-6.375l6.48,-6.129l-3.057,-12.703l-8.623,-2.491l-7.622,-1.459l-2.977,3.994l-3.5,-1.505l-5.378,1.098l-1.634,4.367l5.651,4.497l4.24,3.125l7.817,4.755l8.603,2.451Zm10.66,-25.764l10.639,-1.877l10.285,-7.689l-2.017,-7.71l-4.768,-5.755l-7.68,1.972l-4.984,5.448l-3.648,6.661l2.173,8.95Zm48.103,-4.723l8.068,-10.782l-1.706,-6.008l-8.575,-19.507c0,0 -7.897,6.006 -10.383,6.083c-2.485,0.077 -7.683,4.501 -7.683,4.501l3.152,9.371l8.6,6.18l8.527,10.162Zm-64.518,-7.172l-9.714,-5.527l1.146,-6.28l5.191,-3.041l4.057,1.744l4.47,4.478l-0.085,5.658l-5.065,2.968Zm30.283,-23.855l-5.042,5.49l-10.806,-0.858l-2.238,-4.75l-1.605,-8.245l10.344,-11.669l3.07,5.269l5.436,0.966l2.991,10.237l-2.15,3.56Zm-42.702,5.119l-7.47,-8.486l0.628,-15.55l4.861,-8.457l7.639,3.285l3.734,6.879l0.661,10.831l-10.053,11.498Zm93.013,-28.565l-2.662,11.27l-6.388,5.934l-14.945,-3.071l4.461,-15.019l10.415,-5.566l9.119,6.452Zm-32.486,4.321l7.621,-4.464l4.724,-10.709l-3.045,-9.663l-19.234,-2.997l-6.431,7.782l-1.006,7.794l6.329,7.509l11.042,4.748Zm-36.986,-6.374l6.48,-6.129l-3.057,-12.703l-8.623,-2.491l-7.622,-1.459l-2.977,3.994l-3.5,-1.505l-5.378,1.097l-1.634,4.368l5.651,4.496l4.24,3.125l7.816,4.756l8.604,2.451Zm10.659,-25.764l10.639,-1.878l10.285,-7.689l-2.016,-7.71l-4.769,-5.754l-7.679,1.972l-4.985,5.447l-3.648,6.662l2.173,8.95Zm48.103,-4.724l8.069,-10.782l-1.707,-6.007l-8.574,-19.507c0,0 -7.897,6.005 -10.383,6.082c-2.486,0.078 -7.683,4.502 -7.683,4.502l3.152,9.371l8.6,6.179l8.526,10.162Z" style="fill:#756941;fill-opacity:0.7;"/></g><path d="M200.645,88.515l8.069,-10.665l-1.707,-5.942l-8.574,-19.294c0,0 -7.897,5.94 -10.383,6.016c-2.486,0.077 -7.683,4.453 -7.683,4.453l3.152,9.269l8.6,6.111l8.526,10.052Z" style="fill:#837f5d;"/><clipPath id="_clip11"><path d="M200.645,88.515l8.069,-10.665l-1.707,-5.942l-8.574,-19.294c0,0 -7.897,5.94 -10.383,6.016c-2.486,0.077 -7.683,4.453 -7.683,4.453l3.152,9.269l8.6,6.111l8.526,10.052Z"/></clipPath><g clip-path="url(#_clip11)"><path d="M128.818,258.169l-9.713,-5.527l1.146,-6.28l5.191,-3.042l4.056,1.744l4.471,4.478l-0.085,5.659l-5.066,2.968Zm30.284,-23.855l-5.043,5.49l-10.805,-0.858l-2.238,-4.75l-1.605,-8.245l10.343,-11.669l3.071,5.268l5.435,0.966l2.991,10.238l-2.149,3.56Zm-42.702,5.118l-7.471,-8.485l0.629,-15.55l4.861,-8.457l7.639,3.284l3.734,6.879l0.66,10.831l-10.052,11.498Zm93.012,-28.564l-2.662,11.269l-6.387,5.934l-14.945,-3.07l4.461,-15.02l10.414,-5.565l9.119,6.452Zm-32.485,4.321l7.62,-4.465l4.724,-10.709l-3.045,-9.663l-19.233,-2.996l-6.432,7.782l-1.006,7.793l6.329,7.51l11.043,4.748Zm-36.987,-6.375l6.48,-6.129l-3.057,-12.703l-8.623,-2.491l-7.622,-1.459l-2.977,3.994l-3.5,-1.505l-5.378,1.098l-1.634,4.367l5.651,4.497l4.24,3.125l7.817,4.755l8.603,2.451Zm10.66,-25.764l10.639,-1.877l10.285,-7.689l-2.017,-7.71l-4.768,-5.755l-7.68,1.972l-4.984,5.448l-3.648,6.661l2.173,8.95Zm48.103,-4.723l8.068,-10.782l-1.706,-6.008l-8.575,-19.507c0,0 -7.897,6.006 -10.383,6.083c-2.485,0.077 -7.683,4.501 -7.683,4.501l3.152,9.371l8.6,6.18l8.527,10.162Zm-64.518,-7.172l-9.714,-5.527l1.146,-6.28l5.191,-3.041l4.057,1.744l4.47,4.478l-0.085,5.658l-5.065,2.968Zm30.283,-23.855l-5.042,5.49l-10.806,-0.858l-2.238,-4.75l-1.605,-8.245l10.344,-11.669l3.07,5.269l5.436,0.966l2.991,10.237l-2.15,3.56Zm-42.702,5.119l-7.47,-8.486l0.628,-15.55l4.861,-8.457l7.639,3.285l3.734,6.879l0.661,10.831l-10.053,11.498Zm93.013,-28.565l-2.662,11.27l-6.388,5.934l-14.945,-3.071l4.461,-15.019l10.415,-5.566l9.119,6.452Zm-32.486,4.321l7.621,-4.464l4.724,-10.709l-3.045,-9.663l-19.234,-2.997l-6.431,7.782l-1.006,7.794l6.329,7.509l11.042,4.748Zm-36.986,-6.374l6.48,-6.129l-3.057,-12.703l-8.623,-2.491l-7.622,-1.459l-2.977,3.994l-3.5,-1.505l-5.378,1.097l-1.634,4.368l5.651,4.496l4.24,3.125l7.816,4.756l8.604,2.451Zm10.659,-25.764l10.639,-1.878l10.285,-7.689l-2.016,-7.71l-4.769,-5.754l-7.679,1.972l-4.985,5.447l-3.648,6.662l2.173,8.95Zm48.103,-4.724l8.069,-10.782l-1.707,-6.007l-8.574,-19.507c0,0 -7.897,6.005 -10.383,6.082c-2.486,0.078 -7.683,4.502 -7.683,4.502l3.152,9.371l8.6,6.179l8.526,10.162Z" style="fill:#756941;fill-opacity:0.7;"/></g><path d="M152.542,93.187l10.64,-1.857l10.284,-7.605l-2.016,-7.626l-4.769,-5.692l-7.679,1.95l-4.985,5.389l-3.648,6.588l2.173,8.853" style="fill:#837f5d;"/><clipPath id="_clip12"><path d="M152.542,93.187l10.64,-1.857l10.284,-7.605l-2.016,-7.626l-4.769,-5.692l-7.679,1.95l-4.985,5.389l-3.648,6.588l2.173,8.853"/></clipPath><g clip-path="url(#_clip12)"><path d="M128.818,258.169l-9.713,-5.527l1.146,-6.28l5.191,-3.042l4.056,1.744l4.471,4.478l-0.085,5.659l-5.066,2.968Zm30.284,-23.855l-5.043,5.49l-10.805,-0.858l-2.238,-4.75l-1.605,-8.245l10.343,-11.669l3.071,5.268l5.435,0.966l2.991,10.238l-2.149,3.56Zm-42.702,5.118l-7.471,-8.485l0.629,-15.55l4.861,-8.457l7.639,3.284l3.734,6.879l0.66,10.831l-10.052,11.498Zm93.012,-28.564l-2.662,11.269l-6.387,5.934l-14.945,-3.07l4.461,-15.02l10.414,-5.565l9.119,6.452Zm-32.485,4.321l7.62,-4.465l4.724,-10.709l-3.045,-9.663l-19.233,-2.996l-6.432,7.782l-1.006,7.793l6.329,7.51l11.043,4.748Zm-36.987,-6.375l6.48,-6.129l-3.057,-12.703l-8.623,-2.491l-7.622,-1.459l-2.977,3.994l-3.5,-1.505l-5.378,1.098l-1.634,4.367l5.651,4.497l4.24,3.125l7.817,4.755l8.603,2.451Zm10.66,-25.764l10.639,-1.877l10.285,-7.689l-2.017,-7.71l-4.768,-5.755l-7.68,1.972l-4.984,5.448l-3.648,6.661l2.173,8.95Zm48.103,-4.723l8.068,-10.782l-1.706,-6.008l-8.575,-19.507c0,0 -7.897,6.006 -10.383,6.083c-2.485,0.077 -7.683,4.501 -7.683,4.501l3.152,9.371l8.6,6.18l8.527,10.162Zm-64.518,-7.172l-9.714,-5.527l1.146,-6.28l5.191,-3.041l4.057,1.744l4.47,4.478l-0.085,5.658l-5.065,2.968Zm30.283,-23.855l-5.042,5.49l-10.806,-0.858l-2.238,-4.75l-1.605,-8.245l10.344,-11.669l3.07,5.269l5.436,0.966l2.991,10.237l-2.15,3.56Zm-42.702,5.119l-7.47,-8.486l0.628,-15.55l4.861,-8.457l7.639,3.285l3.734,6.879l0.661,10.831l-10.053,11.498Zm93.013,-28.565l-2.662,11.27l-6.388,5.934l-14.945,-3.071l4.461,-15.019l10.415,-5.566l9.119,6.452Zm-32.486,4.321l7.621,-4.464l4.724,-10.709l-3.045,-9.663l-19.234,-2.997l-6.431,7.782l-1.006,7.794l6.329,7.509l11.042,4.748Zm-36.986,-6.374l6.48,-6.129l-3.057,-12.703l-8.623,-2.491l-7.622,-1.459l-2.977,3.994l-3.5,-1.505l-5.378,1.097l-1.634,4.368l5.651,4.496l4.24,3.125l7.816,4.756l8.604,2.451Zm10.659,-25.764l10.639,-1.878l10.285,-7.689l-2.016,-7.71l-4.769,-5.754l-7.679,1.972l-4.985,5.447l-3.648,6.662l2.173,8.95Zm48.103,-4.724l8.069,-10.782l-1.707,-6.007l-8.574,-19.507c0,0 -7.897,6.005 -10.383,6.082c-2.486,0.078 -7.683,4.502 -7.683,4.502l3.152,9.371l8.6,6.179l8.526,10.162Z" style="fill:#756941;fill-opacity:0.7;"/></g><path d="M211.355,120.701l-9.119,-6.381l-10.415,5.504l-4.461,14.856l14.945,3.037l6.388,-5.869l2.662,-11.147" style="fill:#837f5d;"/><clipPath id="_clip13"><path d="M211.355,120.701l-9.119,-6.381l-10.415,5.504l-4.461,14.856l14.945,3.037l6.388,-5.869l2.662,-11.147"/></clipPath><g clip-path="url(#_clip13)"><path d="M128.818,258.169l-9.713,-5.527l1.146,-6.28l5.191,-3.042l4.056,1.744l4.471,4.478l-0.085,5.659l-5.066,2.968Zm30.284,-23.855l-5.043,5.49l-10.805,-0.858l-2.238,-4.75l-1.605,-8.245l10.343,-11.669l3.071,5.268l5.435,0.966l2.991,10.238l-2.149,3.56Zm-42.702,5.118l-7.471,-8.485l0.629,-15.55l4.861,-8.457l7.639,3.284l3.734,6.879l0.66,10.831l-10.052,11.498Zm93.012,-28.564l-2.662,11.269l-6.387,5.934l-14.945,-3.07l4.461,-15.02l10.414,-5.565l9.119,6.452Zm-32.485,4.321l7.62,-4.465l4.724,-10.709l-3.045,-9.663l-19.233,-2.996l-6.432,7.782l-1.006,7.793l6.329,7.51l11.043,4.748Zm-36.987,-6.375l6.48,-6.129l-3.057,-12.703l-8.623,-2.491l-7.622,-1.459l-2.977,3.994l-3.5,-1.505l-5.378,1.098l-1.634,4.367l5.651,4.497l4.24,3.125l7.817,4.755l8.603,2.451Zm10.66,-25.764l10.639,-1.877l10.285,-7.689l-2.017,-7.71l-4.768,-5.755l-7.68,1.972l-4.984,5.448l-3.648,6.661l2.173,8.95Zm48.103,-4.723l8.068,-10.782l-1.706,-6.008l-8.575,-19.507c0,0 -7.897,6.006 -10.383,6.083c-2.485,0.077 -7.683,4.501 -7.683,4.501l3.152,9.371l8.6,6.18l8.527,10.162Zm-64.518,-7.172l-9.714,-5.527l1.146,-6.28l5.191,-3.041l4.057,1.744l4.47,4.478l-0.085,5.658l-5.065,2.968Zm30.283,-23.855l-5.042,5.49l-10.806,-0.858l-2.238,-4.75l-1.605,-8.245l10.344,-11.669l3.07,5.269l5.436,0.966l2.991,10.237l-2.15,3.56Zm-42.702,5.119l-7.47,-8.486l0.628,-15.55l4.861,-8.457l7.639,3.285l3.734,6.879l0.661,10.831l-10.053,11.498Zm93.013,-28.565l-2.662,11.27l-6.388,5.934l-14.945,-3.071l4.461,-15.019l10.415,-5.566l9.119,6.452Zm-32.486,4.321l7.621,-4.464l4.724,-10.709l-3.045,-9.663l-19.234,-2.997l-6.431,7.782l-1.006,7.794l6.329,7.509l11.042,4.748Zm-36.986,-6.374l6.48,-6.129l-3.057,-12.703l-8.623,-2.491l-7.622,-1.459l-2.977,3.994l-3.5,-1.505l-5.378,1.097l-1.634,4.368l5.651,4.496l4.24,3.125l7.816,4.756l8.604,2.451Zm10.659,-25.764l10.639,-1.878l10.285,-7.689l-2.016,-7.71l-4.769,-5.754l-7.679,1.972l-4.985,5.447l-3.648,6.662l2.173,8.95Zm48.103,-4.724l8.069,-10.782l-1.707,-6.007l-8.574,-19.507c0,0 -7.897,6.005 -10.383,6.082c-2.486,0.078 -7.683,4.502 -7.683,4.502l3.152,9.371l8.6,6.179l8.526,10.162Z" style="fill:#756941;fill-opacity:0.7;"/></g></g></g><path d="M0.116,53.865l107.332,53.666l0,96.598l-107.332,-53.666l0,-96.598" style="fill:#776841;"/><clipPath id="_clip14"><path d="M0.116,53.865l107.332,53.666l0,96.598l-107.332,-53.666l0,-96.598"/></clipPath><g clip-path="url(#_clip14)"><path d="M5.609,225.842l-7.471,-8.946l0.629,-16.394l4.861,-8.916l7.639,3.463l3.734,7.252l0.66,11.418l-10.052,12.123" style="fill:#816b40;"/><path d="M48.311,220.445l-5.042,5.788l-10.806,-0.904l-2.238,-5.008l-1.605,-8.692l10.343,-12.302l3.071,5.554l5.436,1.018l2.99,10.793l-2.149,3.753" style="fill:#816b40;"/><path d="M29.149,193.562l6.48,-6.461l-3.056,-13.392l-8.623,-2.626l-7.623,-1.538l-2.976,4.21l-3.5,-1.587l-5.379,1.158l-1.634,4.604l5.651,4.741l4.24,3.294l7.817,5.013l8.603,2.584Z" style="fill:#816b40;"/><path d="M66.136,200.283l7.62,-4.707l4.724,-11.29l-3.045,-10.187l-19.233,-3.159l-6.432,8.204l-1.006,8.216l6.329,7.917l11.043,5.006Z" style="fill:#816b40;"/><path d="M87.912,161.421l8.069,-11.367l-1.707,-6.333l-8.575,-20.566c0,0 -7.897,6.332 -10.382,6.413c-2.486,0.082 -7.683,4.746 -7.683,4.746l3.151,9.879l8.6,6.515l8.527,10.713Z" style="fill:#816b40;"/><path d="M39.809,166.401l10.639,-1.98l10.285,-8.106l-2.017,-8.128l-4.768,-6.066l-7.679,2.078l-4.985,5.743l-3.648,7.023l2.173,9.436" style="fill:#816b40;"/><path d="M105.808,183.646l-9.094,-6.35l-10.432,5.551l-4.516,14.884l14.93,2.979l6.408,-5.899l2.704,-11.165" style="fill:#816b40;"/><path d="M10.975,134.108l-7.47,-8.946l0.628,-16.394l4.862,-8.916l7.638,3.463l3.735,7.252l0.66,11.418l-10.053,12.123" style="fill:#816b40;"/><path d="M23.394,153.86l-9.713,-5.827l1.145,-6.62l5.192,-3.207l4.056,1.839l4.47,4.721l-0.084,5.965l-5.066,3.129Z" style="fill:#816b40;"/><path d="M53.677,128.711l-5.042,5.788l-10.806,-0.904l-2.237,-5.008l-1.606,-8.692l10.344,-12.302l3.071,5.554l5.435,1.018l2.991,10.793l-2.15,3.753" style="fill:#816b40;"/><path d="M34.516,101.828l6.48,-6.461l-3.057,-13.393l-8.623,-2.625l-7.622,-1.538l-2.977,4.21l-3.5,-1.587l-5.378,1.157l-1.634,4.605l5.651,4.741l4.24,3.294l7.816,5.013l8.604,2.584Z" style="fill:#816b40;"/><path d="M71.503,108.549l7.62,-4.707l4.724,-11.29l-3.045,-10.187l-19.234,-3.159l-6.431,8.204l-1.006,8.216l6.329,7.917l11.043,5.006Z" style="fill:#816b40;"/><path d="M93.278,69.687l8.069,-11.367l-1.706,-6.333l-8.575,-20.566c0,0 -7.897,6.331 -10.383,6.413c-2.486,0.082 -7.683,4.746 -7.683,4.746l3.152,9.879l8.6,6.514l8.526,10.714Z" style="fill:#816b40;"/><path d="M45.176,74.667l10.639,-1.98l10.284,-8.106l-2.016,-8.128l-4.769,-6.067l-7.679,2.079l-4.985,5.743l-3.647,7.023l2.173,9.436" style="fill:#816b40;"/><path d="M103.988,103.994l-9.119,-6.803l-10.415,5.868l-4.461,15.834l14.945,3.237l6.388,-6.256l2.662,-11.88" style="fill:#816b40;"/><path d="M14.639,248.128l-9.713,-5.826l1.145,-6.621l5.192,-3.206l4.056,1.838l4.47,4.721l-0.084,5.966l-5.066,3.128Zm30.283,-25.149l-5.042,5.788l-10.806,-0.904l-2.237,-5.008l-1.605,-8.692l10.343,-12.302l3.071,5.554l5.435,1.018l2.991,10.793l-2.15,3.753Zm-42.702,5.397l-7.47,-8.946l0.629,-16.394l4.861,-8.915l7.639,3.462l3.734,7.252l0.66,11.419l-10.053,12.122Zm100.199,-42.196l-2.703,11.165l-6.408,5.899l-14.93,-2.979l4.516,-14.884l10.432,-5.551l9.093,6.35Zm-39.671,16.637l7.62,-4.707l4.724,-11.29l-3.045,-10.187l-19.234,-3.159l-6.431,8.204l-1.006,8.216l6.329,7.917l11.043,5.006Zm-36.987,-6.721l6.48,-6.461l-3.057,-13.392l-8.623,-2.626l-7.622,-1.538l-2.977,4.21l-3.5,-1.586l-5.378,1.157l-1.634,4.604l5.651,4.741l4.24,3.294l7.816,5.014l8.604,2.583Zm10.66,-27.161l10.639,-1.979l10.285,-8.107l-2.017,-8.128l-4.768,-6.066l-7.68,2.078l-4.984,5.744l-3.648,7.022l2.173,9.436Zm48.102,-4.98l8.069,-11.367l-1.706,-6.333l-8.575,-20.566c0,0 -7.897,6.332 -10.383,6.413c-2.486,0.082 -7.683,4.746 -7.683,4.746l3.152,9.879l8.6,6.515l8.526,10.713Zm-64.517,-7.561l-9.714,-5.826l1.146,-6.621l5.191,-3.207l4.057,1.839l4.47,4.721l-0.085,5.966l-5.065,3.128Zm30.283,-25.149l-5.042,5.788l-10.806,-0.904l-2.238,-5.008l-1.605,-8.692l10.344,-12.302l3.07,5.554l5.436,1.018l2.99,10.793l-2.149,3.753Zm-42.702,5.397l-7.471,-8.946l0.629,-16.394l4.861,-8.916l7.639,3.463l3.734,7.252l0.661,11.419l-10.053,12.122Zm93.013,-30.114l-2.663,11.88l-6.387,6.256l-14.945,-3.237l4.461,-15.834l10.414,-5.867l9.12,6.802Zm-32.486,4.555l7.621,-4.707l4.724,-11.29l-3.045,-10.187l-19.234,-3.159l-6.432,8.204l-1.006,8.216l6.329,7.917l11.043,5.006Zm-36.986,-6.721l6.479,-6.461l-3.056,-13.392l-8.623,-2.626l-7.623,-1.538l-2.976,4.21l-3.5,-1.586l-5.378,1.157l-1.634,4.604l5.651,4.741l4.24,3.294l7.816,5.014l8.604,2.583Zm10.659,-27.161l10.639,-1.98l10.285,-8.106l-2.016,-8.128l-4.769,-6.066l-7.679,2.078l-4.985,5.744l-3.648,7.022l2.173,9.436Zm48.103,-4.98l8.069,-11.367l-1.707,-6.333l-8.575,-20.566c0,0 -7.896,6.332 -10.382,6.413c-2.486,0.082 -7.683,4.746 -7.683,4.746l3.152,9.879l8.599,6.515l8.527,10.713Z" style="fill:#311807;fill-opacity:0.5;"/></g><path d="M214.779,53.865l0,26.833l-10.733,-16.1l0,16.1l-8.67,-4.335l4.332,15.489l-14.975,-22.964l0.451,7.746l-5.842,0.316l3.238,11.289l-1.845,14.847l-3.522,-12.351l-4.17,-5.269l1.51,16.757l-11.172,-11.926l3.099,25.283l-6.378,-5.411l-2.98,-10.001l-4.79,6.387l7.77,17.581l-8.606,-1.064l-10.552,-12.528l-12.03,-5.352l3.04,22.285l-10.106,-13.942l-14.4,20.828l-7.526,-23.069l-4.833,20.348l-9.108,-22.734l-8.08,10.682l0.213,18.707l-4.13,-4.471l-4.102,-18.246l-5.367,8.05l-5.366,13.417l-1.917,-17.058l-8.817,3.427l6.34,-10.968l4.394,-7.601l-8.852,9.792l-4.513,-13.842l-13.468,20.654l-5.367,-27.337l-8.823,20.512l-4.172,-24.747l5.659,-10.166l-14.13,3.668l-5.367,13.417l0,-42.933l107.332,-53.666l107.331,53.666Z" style="fill:#64e18b;"/><clipPath id="_clip15"><path d="M214.779,53.865l0,26.833l-10.733,-16.1l0,16.1l-8.67,-4.335l4.332,15.489l-14.975,-22.964l0.451,7.746l-5.842,0.316l3.238,11.289l-1.845,14.847l-3.522,-12.351l-4.17,-5.269l1.51,16.757l-11.172,-11.926l3.099,25.283l-6.378,-5.411l-2.98,-10.001l-4.79,6.387l7.77,17.581l-8.606,-1.064l-10.552,-12.528l-12.03,-5.352l3.04,22.285l-10.106,-13.942l-14.4,20.828l-7.526,-23.069l-4.833,20.348l-9.108,-22.734l-8.08,10.682l0.213,18.707l-4.13,-4.471l-4.102,-18.246l-5.367,8.05l-5.366,13.417l-1.917,-17.058l-8.817,3.427l6.34,-10.968l4.394,-7.601l-8.852,9.792l-4.513,-13.842l-13.468,20.654l-5.367,-27.337l-8.823,20.512l-4.172,-24.747l5.659,-10.166l-14.13,3.668l-5.367,13.417l0,-42.933l107.332,-53.666l107.331,53.666Z"/></clipPath><g clip-path="url(#_clip15)"><path d="M107.448,107.531l0,45.683l-72.925,-1.647l-34.407,-47.118l0,-50.655l107.332,53.737Z" style="fill:#311807;fill-opacity:0.2;"/><path d="M214.779,107.531l0,-53.666l-107.331,53.666l0,53.665l107.331,-53.665Z" style="fill:#febc3b;fill-opacity:0.2;"/><path d="M214.779,53.865l-2.246,14.977l-10.613,-8.548l-3.241,12.354l-6.985,-1.874l-12.71,-4.378l-1.771,6.252l3.708,14.245c0,0 -16.03,-13.514 -14.441,-8.878c1.589,4.635 5.366,16.208 5.366,16.208l-10.733,-8.159l2.682,22.808l-10.351,-15.909l-3.064,11.571l0,10.942l-16.1,-15.995l-7.94,1.396l-0.548,15.826l-7.611,-7.33l-5.367,14.519l-5.366,-0.262l-7.79,-14.628l-5.219,8.124l-10.144,-14.119l-14.413,12.573l-10.733,5.367l2.546,-22.74l-13.28,12.007l-7.128,-14.297l-6.252,15.621l-8.086,-17.424l-13.381,6.691l13.381,-22.79c0,0 -0.374,-1.702 -2.747,-1.374c-2.374,0.328 -18.719,1.374 -18.719,1.374l-5.367,2.683l-0.071,-26.869l107.331,-53.665l107.403,53.701Z" style="fill:#58cc76;fill-opacity:0.5;"/></g></g></svg>