<?xml version="1.0" encoding="UTF-8" standalone="no"?><!DOCTYPE svg PUBLIC "-//W3C//DTD SVG 1.1//EN" "http://www.w3.org/Graphics/SVG/1.1/DTD/svg11.dtd"><svg width="100%" height="100%" viewBox="0 0 216 205" version="1.1" xmlns="http://www.w3.org/2000/svg" xmlns:xlink="http://www.w3.org/1999/xlink" xml:space="preserve" xmlns:serif="http://www.serif.com/" style="fill-rule:evenodd;clip-rule:evenodd;stroke-linejoin:round;stroke-miterlimit:1.41421;"><g id="Grass_Block06"><g id="Grass_Block02"><g><path d="M215.107,53.747l0,96.598l-107.331,53.666l0,-96.598l107.331,-53.666Z" style="fill:#b19772;"/><path d="M122.533,160.209l-8.372,9.701l1.286,5.77l7.086,18.915c0,0 7.928,-5.204 10.317,-5.131c2.39,0.074 7.635,-3.796 7.635,-3.796l-2.476,-9.029l-7.889,-6.338l-7.587,-10.092Zm46.427,-1.629l-10.317,1.146l-10.317,6.652l1.484,7.395l4.238,5.711l7.483,-1.409l5.101,-4.848l3.889,-6.073l-1.561,-8.574Zm11.734,-23.688l-6.576,5.403l2.19,12.168l8.127,2.858l7.228,1.825l3.089,-3.594l3.27,1.626l5.224,-0.719l1.823,-4.026l-5.158,-4.576l-3.885,-3.198l-7.221,-4.948l-8.111,-2.819Zm-35.113,-8.192l-7.572,3.766l-5.159,9.829l2.357,9.299l18.277,3.958l6.626,-6.966l1.421,-7.296l-5.633,-7.459l-10.317,-5.131Zm59.488,-19.321l6.671,8.448l-1.512,14.639l-5.159,7.695l-7.136,-3.548l-3.181,-6.712l0,-10.261l10.317,-10.261Zm-90.908,21.489l3.214,-10.479l6.475,-5.225l14.159,3.777l-5.159,13.912l-10.317,4.64l-8.372,-6.625Zm49.64,-19.169l5.159,-4.885l10.317,1.446l1.869,4.614l1.058,7.876l-10.606,10.404l-2.638,-5.153l-5.159,-1.231l-2.27,-9.837l2.27,-3.234Zm30.45,-20.732l8.995,5.787l-1.466,5.859l-5.159,2.566l-3.789,-1.885l-4.027,-4.489l0.412,-5.335l5.034,-2.503Z" style="fill:#756941;fill-opacity:0.7;"/><path d="M204.374,102.046l6.94,8.837l-1.574,15.313l-5.366,8.05l-7.425,-3.712l-3.308,-7.021l0,-10.733l10.733,-10.734" style="fill:#837f5d;"/><clipPath id="_clip1"><path d="M204.374,102.046l6.94,8.837l-1.574,15.313l-5.366,8.05l-7.425,-3.712l-3.308,-7.021l0,-10.733l10.733,-10.734"/></clipPath><g clip-path="url(#_clip1)"><path d="M122.533,160.209l-8.372,9.701l1.286,5.77l7.086,18.915c0,0 7.928,-5.204 10.317,-5.131c2.39,0.074 7.635,-3.796 7.635,-3.796l-2.476,-9.029l-7.889,-6.338l-7.587,-10.092Zm46.427,-1.629l-10.317,1.146l-10.317,6.652l1.484,7.395l4.238,5.711l7.483,-1.409l5.101,-4.848l3.889,-6.073l-1.561,-8.574Zm11.734,-23.688l-6.576,5.403l2.19,12.168l8.127,2.858l7.228,1.825l3.089,-3.594l3.27,1.626l5.224,-0.719l1.823,-4.026l-5.158,-4.576l-3.885,-3.198l-7.221,-4.948l-8.111,-2.819Zm-35.113,-8.192l-7.572,3.766l-5.159,9.829l2.357,9.299l18.277,3.958l6.626,-6.966l1.421,-7.296l-5.633,-7.459l-10.317,-5.131Zm59.488,-19.321l6.671,8.448l-1.512,14.639l-5.159,7.695l-7.136,-3.548l-3.181,-6.712l0,-10.261l10.317,-10.261Zm-90.908,21.489l3.214,-10.479l6.475,-5.225l14.159,3.777l-5.159,13.912l-10.317,4.64l-8.372,-6.625Zm49.64,-19.169l5.159,-4.885l10.317,1.446l1.869,4.614l1.058,7.876l-10.606,10.404l-2.638,-5.153l-5.159,-1.231l-2.27,-9.837l2.27,-3.234Zm30.45,-20.732l8.995,5.787l-1.466,5.859l-5.159,2.566l-3.789,-1.885l-4.027,-4.489l0.412,-5.335l5.034,-2.503Z" style="fill:#756941;fill-opacity:0.7;"/></g><path d="M193.119,82.786l9.358,6.053l-1.525,6.13l-5.367,2.683l-3.942,-1.971l-4.19,-4.696l0.429,-5.581l5.237,-2.618Z" style="fill:#837f5d;"/><clipPath id="_clip2"><path d="M193.119,82.786l9.358,6.053l-1.525,6.13l-5.367,2.683l-3.942,-1.971l-4.19,-4.696l0.429,-5.581l5.237,-2.618Z"/></clipPath><g clip-path="url(#_clip2)"><path d="M122.533,160.209l-8.372,9.701l1.286,5.77l7.086,18.915c0,0 7.928,-5.204 10.317,-5.131c2.39,0.074 7.635,-3.796 7.635,-3.796l-2.476,-9.029l-7.889,-6.338l-7.587,-10.092Zm46.427,-1.629l-10.317,1.146l-10.317,6.652l1.484,7.395l4.238,5.711l7.483,-1.409l5.101,-4.848l3.889,-6.073l-1.561,-8.574Zm11.734,-23.688l-6.576,5.403l2.19,12.168l8.127,2.858l7.228,1.825l3.089,-3.594l3.27,1.626l5.224,-0.719l1.823,-4.026l-5.158,-4.576l-3.885,-3.198l-7.221,-4.948l-8.111,-2.819Zm-35.113,-8.192l-7.572,3.766l-5.159,9.829l2.357,9.299l18.277,3.958l6.626,-6.966l1.421,-7.296l-5.633,-7.459l-10.317,-5.131Zm59.488,-19.321l6.671,8.448l-1.512,14.639l-5.159,7.695l-7.136,-3.548l-3.181,-6.712l0,-10.261l10.317,-10.261Zm-90.908,21.489l3.214,-10.479l6.475,-5.225l14.159,3.777l-5.159,13.912l-10.317,4.64l-8.372,-6.625Zm49.64,-19.169l5.159,-4.885l10.317,1.446l1.869,4.614l1.058,7.876l-10.606,10.404l-2.638,-5.153l-5.159,-1.231l-2.27,-9.837l2.27,-3.234Zm30.45,-20.732l8.995,5.787l-1.466,5.859l-5.159,2.566l-3.789,-1.885l-4.027,-4.489l0.412,-5.335l5.034,-2.503Z" style="fill:#756941;fill-opacity:0.7;"/></g><path d="M161.441,104.473l5.367,-5.11l10.733,1.512l1.945,4.827l1.1,8.238l-11.034,10.884l-2.744,-5.39l-5.367,-1.288l-2.362,-10.291l2.362,-3.382" style="fill:#837f5d;"/><clipPath id="_clip3"><path d="M161.441,104.473l5.367,-5.11l10.733,1.512l1.945,4.827l1.1,8.238l-11.034,10.884l-2.744,-5.39l-5.367,-1.288l-2.362,-10.291l2.362,-3.382"/></clipPath><g clip-path="url(#_clip3)"><path d="M122.533,160.209l-8.372,9.701l1.286,5.77l7.086,18.915c0,0 7.928,-5.204 10.317,-5.131c2.39,0.074 7.635,-3.796 7.635,-3.796l-2.476,-9.029l-7.889,-6.338l-7.587,-10.092Zm46.427,-1.629l-10.317,1.146l-10.317,6.652l1.484,7.395l4.238,5.711l7.483,-1.409l5.101,-4.848l3.889,-6.073l-1.561,-8.574Zm11.734,-23.688l-6.576,5.403l2.19,12.168l8.127,2.858l7.228,1.825l3.089,-3.594l3.27,1.626l5.224,-0.719l1.823,-4.026l-5.158,-4.576l-3.885,-3.198l-7.221,-4.948l-8.111,-2.819Zm-35.113,-8.192l-7.572,3.766l-5.159,9.829l2.357,9.299l18.277,3.958l6.626,-6.966l1.421,-7.296l-5.633,-7.459l-10.317,-5.131Zm59.488,-19.321l6.671,8.448l-1.512,14.639l-5.159,7.695l-7.136,-3.548l-3.181,-6.712l0,-10.261l10.317,-10.261Zm-90.908,21.489l3.214,-10.479l6.475,-5.225l14.159,3.777l-5.159,13.912l-10.317,4.64l-8.372,-6.625Zm49.64,-19.169l5.159,-4.885l10.317,1.446l1.869,4.614l1.058,7.876l-10.606,10.404l-2.638,-5.153l-5.159,-1.231l-2.27,-9.837l2.27,-3.234Zm30.45,-20.732l8.995,5.787l-1.466,5.859l-5.159,2.566l-3.789,-1.885l-4.027,-4.489l0.412,-5.335l5.034,-2.503Z" style="fill:#756941;fill-opacity:0.7;"/></g><path d="M179.015,130.826l-6.84,5.652l2.277,12.728l8.456,2.99l7.519,1.909l3.214,-3.76l3.402,1.701l5.434,-0.752l1.897,-4.211l-5.367,-4.787l-4.042,-3.346l-7.512,-5.176l-8.438,-2.948Z" style="fill:#837f5d;"/><clipPath id="_clip4"><path d="M179.015,130.826l-6.84,5.652l2.277,12.728l8.456,2.99l7.519,1.909l3.214,-3.76l3.402,1.701l5.434,-0.752l1.897,-4.211l-5.367,-4.787l-4.042,-3.346l-7.512,-5.176l-8.438,-2.948Z"/></clipPath><g clip-path="url(#_clip4)"><path d="M122.533,160.209l-8.372,9.701l1.286,5.77l7.086,18.915c0,0 7.928,-5.204 10.317,-5.131c2.39,0.074 7.635,-3.796 7.635,-3.796l-2.476,-9.029l-7.889,-6.338l-7.587,-10.092Zm46.427,-1.629l-10.317,1.146l-10.317,6.652l1.484,7.395l4.238,5.711l7.483,-1.409l5.101,-4.848l3.889,-6.073l-1.561,-8.574Zm11.734,-23.688l-6.576,5.403l2.19,12.168l8.127,2.858l7.228,1.825l3.089,-3.594l3.27,1.626l5.224,-0.719l1.823,-4.026l-5.158,-4.576l-3.885,-3.198l-7.221,-4.948l-8.111,-2.819Zm-35.113,-8.192l-7.572,3.766l-5.159,9.829l2.357,9.299l18.277,3.958l6.626,-6.966l1.421,-7.296l-5.633,-7.459l-10.317,-5.131Zm59.488,-19.321l6.671,8.448l-1.512,14.639l-5.159,7.695l-7.136,-3.548l-3.181,-6.712l0,-10.261l10.317,-10.261Zm-90.908,21.489l3.214,-10.479l6.475,-5.225l14.159,3.777l-5.159,13.912l-10.317,4.64l-8.372,-6.625Zm49.64,-19.169l5.159,-4.885l10.317,1.446l1.869,4.614l1.058,7.876l-10.606,10.404l-2.638,-5.153l-5.159,-1.231l-2.27,-9.837l2.27,-3.234Zm30.45,-20.732l8.995,5.787l-1.466,5.859l-5.159,2.566l-3.789,-1.885l-4.027,-4.489l0.412,-5.335l5.034,-2.503Z" style="fill:#756941;fill-opacity:0.7;"/></g><path d="M142.486,122.257l-7.877,3.939l-5.367,10.282l2.451,9.727l19.015,4.14l6.893,-7.286l1.478,-7.632l-5.86,-7.803l-10.733,-5.367Z" style="fill:#837f5d;"/><clipPath id="_clip5"><path d="M142.486,122.257l-7.877,3.939l-5.367,10.282l2.451,9.727l19.015,4.14l6.893,-7.286l1.478,-7.632l-5.86,-7.803l-10.733,-5.367Z"/></clipPath><g clip-path="url(#_clip5)"><path d="M122.533,160.209l-8.372,9.701l1.286,5.77l7.086,18.915c0,0 7.928,-5.204 10.317,-5.131c2.39,0.074 7.635,-3.796 7.635,-3.796l-2.476,-9.029l-7.889,-6.338l-7.587,-10.092Zm46.427,-1.629l-10.317,1.146l-10.317,6.652l1.484,7.395l4.238,5.711l7.483,-1.409l5.101,-4.848l3.889,-6.073l-1.561,-8.574Zm11.734,-23.688l-6.576,5.403l2.19,12.168l8.127,2.858l7.228,1.825l3.089,-3.594l3.27,1.626l5.224,-0.719l1.823,-4.026l-5.158,-4.576l-3.885,-3.198l-7.221,-4.948l-8.111,-2.819Zm-35.113,-8.192l-7.572,3.766l-5.159,9.829l2.357,9.299l18.277,3.958l6.626,-6.966l1.421,-7.296l-5.633,-7.459l-10.317,-5.131Zm59.488,-19.321l6.671,8.448l-1.512,14.639l-5.159,7.695l-7.136,-3.548l-3.181,-6.712l0,-10.261l10.317,-10.261Zm-90.908,21.489l3.214,-10.479l6.475,-5.225l14.159,3.777l-5.159,13.912l-10.317,4.64l-8.372,-6.625Zm49.64,-19.169l5.159,-4.885l10.317,1.446l1.869,4.614l1.058,7.876l-10.606,10.404l-2.638,-5.153l-5.159,-1.231l-2.27,-9.837l2.27,-3.234Zm30.45,-20.732l8.995,5.787l-1.466,5.859l-5.159,2.566l-3.789,-1.885l-4.027,-4.489l0.412,-5.335l5.034,-2.503Z" style="fill:#756941;fill-opacity:0.7;"/></g><path d="M118.509,157.309l-8.71,10.148l1.338,6.035l7.372,19.786c0,0 8.247,-5.443 10.733,-5.367c2.486,0.077 7.942,-3.971 7.942,-3.971l-2.575,-9.445l-8.208,-6.629l-7.892,-10.557Z" style="fill:#837f5d;"/><clipPath id="_clip6"><path d="M118.509,157.309l-8.71,10.148l1.338,6.035l7.372,19.786c0,0 8.247,-5.443 10.733,-5.367c2.486,0.077 7.942,-3.971 7.942,-3.971l-2.575,-9.445l-8.208,-6.629l-7.892,-10.557Z"/></clipPath><g clip-path="url(#_clip6)"><path d="M122.533,160.209l-8.372,9.701l1.286,5.77l7.086,18.915c0,0 7.928,-5.204 10.317,-5.131c2.39,0.074 7.635,-3.796 7.635,-3.796l-2.476,-9.029l-7.889,-6.338l-7.587,-10.092Zm46.427,-1.629l-10.317,1.146l-10.317,6.652l1.484,7.395l4.238,5.711l7.483,-1.409l5.101,-4.848l3.889,-6.073l-1.561,-8.574Zm11.734,-23.688l-6.576,5.403l2.19,12.168l8.127,2.858l7.228,1.825l3.089,-3.594l3.27,1.626l5.224,-0.719l1.823,-4.026l-5.158,-4.576l-3.885,-3.198l-7.221,-4.948l-8.111,-2.819Zm-35.113,-8.192l-7.572,3.766l-5.159,9.829l2.357,9.299l18.277,3.958l6.626,-6.966l1.421,-7.296l-5.633,-7.459l-10.317,-5.131Zm59.488,-19.321l6.671,8.448l-1.512,14.639l-5.159,7.695l-7.136,-3.548l-3.181,-6.712l0,-10.261l10.317,-10.261Zm-90.908,21.489l3.214,-10.479l6.475,-5.225l14.159,3.777l-5.159,13.912l-10.317,4.64l-8.372,-6.625Zm49.64,-19.169l5.159,-4.885l10.317,1.446l1.869,4.614l1.058,7.876l-10.606,10.404l-2.638,-5.153l-5.159,-1.231l-2.27,-9.837l2.27,-3.234Zm30.45,-20.732l8.995,5.787l-1.466,5.859l-5.159,2.566l-3.789,-1.885l-4.027,-4.489l0.412,-5.335l5.034,-2.503Z" style="fill:#756941;fill-opacity:0.7;"/></g><path d="M166.808,155.605l-10.733,1.199l-10.733,6.958l1.543,7.735l4.41,5.974l7.784,-1.474l5.307,-5.071l4.046,-6.352l-1.624,-8.969" style="fill:#837f5d;"/><clipPath id="_clip7"><path d="M166.808,155.605l-10.733,1.199l-10.733,6.958l1.543,7.735l4.41,5.974l7.784,-1.474l5.307,-5.071l4.046,-6.352l-1.624,-8.969"/></clipPath><g clip-path="url(#_clip7)"><path d="M122.533,160.209l-8.372,9.701l1.286,5.77l7.086,18.915c0,0 7.928,-5.204 10.317,-5.131c2.39,0.074 7.635,-3.796 7.635,-3.796l-2.476,-9.029l-7.889,-6.338l-7.587,-10.092Zm46.427,-1.629l-10.317,1.146l-10.317,6.652l1.484,7.395l4.238,5.711l7.483,-1.409l5.101,-4.848l3.889,-6.073l-1.561,-8.574Zm11.734,-23.688l-6.576,5.403l2.19,12.168l8.127,2.858l7.228,1.825l3.089,-3.594l3.27,1.626l5.224,-0.719l1.823,-4.026l-5.158,-4.576l-3.885,-3.198l-7.221,-4.948l-8.111,-2.819Zm-35.113,-8.192l-7.572,3.766l-5.159,9.829l2.357,9.299l18.277,3.958l6.626,-6.966l1.421,-7.296l-5.633,-7.459l-10.317,-5.131Zm59.488,-19.321l6.671,8.448l-1.512,14.639l-5.159,7.695l-7.136,-3.548l-3.181,-6.712l0,-10.261l10.317,-10.261Zm-90.908,21.489l3.214,-10.479l6.475,-5.225l14.159,3.777l-5.159,13.912l-10.317,4.64l-8.372,-6.625Zm49.64,-19.169l5.159,-4.885l10.317,1.446l1.869,4.614l1.058,7.876l-10.606,10.404l-2.638,-5.153l-5.159,-1.231l-2.27,-9.837l2.27,-3.234Zm30.45,-20.732l8.995,5.787l-1.466,5.859l-5.159,2.566l-3.789,-1.885l-4.027,-4.489l0.412,-5.335l5.034,-2.503Z" style="fill:#756941;fill-opacity:0.7;"/></g><path d="M109.799,124.524l8.71,6.931l10.733,-4.854l5.367,-14.553l-14.73,-3.95l-6.737,5.465l-3.343,10.961" style="fill:#837f5d;"/><clipPath id="_clip8"><path d="M109.799,124.524l8.71,6.931l10.733,-4.854l5.367,-14.553l-14.73,-3.95l-6.737,5.465l-3.343,10.961"/></clipPath><g clip-path="url(#_clip8)"><path d="M122.533,160.209l-8.372,9.701l1.286,5.77l7.086,18.915c0,0 7.928,-5.204 10.317,-5.131c2.39,0.074 7.635,-3.796 7.635,-3.796l-2.476,-9.029l-7.889,-6.338l-7.587,-10.092Zm46.427,-1.629l-10.317,1.146l-10.317,6.652l1.484,7.395l4.238,5.711l7.483,-1.409l5.101,-4.848l3.889,-6.073l-1.561,-8.574Zm11.734,-23.688l-6.576,5.403l2.19,12.168l8.127,2.858l7.228,1.825l3.089,-3.594l3.27,1.626l5.224,-0.719l1.823,-4.026l-5.158,-4.576l-3.885,-3.198l-7.221,-4.948l-8.111,-2.819Zm-35.113,-8.192l-7.572,3.766l-5.159,9.829l2.357,9.299l18.277,3.958l6.626,-6.966l1.421,-7.296l-5.633,-7.459l-10.317,-5.131Zm59.488,-19.321l6.671,8.448l-1.512,14.639l-5.159,7.695l-7.136,-3.548l-3.181,-6.712l0,-10.261l10.317,-10.261Zm-90.908,21.489l3.214,-10.479l6.475,-5.225l14.159,3.777l-5.159,13.912l-10.317,4.64l-8.372,-6.625Zm49.64,-19.169l5.159,-4.885l10.317,1.446l1.869,4.614l1.058,7.876l-10.606,10.404l-2.638,-5.153l-5.159,-1.231l-2.27,-9.837l2.27,-3.234Zm30.45,-20.732l8.995,5.787l-1.466,5.859l-5.159,2.566l-3.789,-1.885l-4.027,-4.489l0.412,-5.335l5.034,-2.503Z" style="fill:#756941;fill-opacity:0.7;"/></g></g><path d="M0.445,53.747l107.331,53.666l0,96.598l-107.331,-53.666l0,-96.598" style="fill:#776841;"/><clipPath id="_clip9"><path d="M0.445,53.747l107.331,53.666l0,96.598l-107.331,-53.666l0,-96.598"/></clipPath><g clip-path="url(#_clip9)"><path d="M90.306,173.81l11.734,-4.08l-0.235,-16.221l-6.989,-11.581l-11.749,-1.32l-5.987,4.726l-1.504,10.627l14.73,17.849" style="fill:#816b40;"/><path d="M85.984,190.158l17.273,-3.671l-1.819,-6.448l-9.043,-3.989l-7.195,0.973l-8.011,3.61l-0.029,5.632l8.824,3.893Z" style="fill:#816b40;"/><path d="M49.043,165.83l4.777,5.837l11.199,0.057l2.666,-4.498l2.28,-7.998l-9.769,-12.374l-3.564,4.94l-5.674,0.498l-3.859,9.847l1.944,3.691" style="fill:#816b40;"/><path d="M74.132,139.963l-6.21,-6.587l4.115,-12.274l9.073,-1.735l7.964,-0.802l2.763,4.188l3.721,-1.191l5.457,1.532l1.352,4.444l-6.164,3.963l-4.606,2.727l-8.414,4.037l-9.051,1.698Z" style="fill:#816b40;"/><path d="M34.982,150.907l-4.294,-4.585l-1.862,-10.647l2.871,-9.418l12.278,-2.445l3.22,7.814l-0.16,7.686l-4.698,7.216l-7.355,4.379Z" style="fill:#816b40;"/><path d="M15.909,104.979l-7.494,-11.309l2.215,-5.782l10.317,-18.523c0,0 7.679,6.584 10.234,6.868c2.555,0.284 7.574,5.082 7.574,5.082l-3.96,8.979l-9.329,5.376l-9.557,9.309Z" style="fill:#816b40;"/><path d="M61.198,119.022l-10.819,-2.741l-10.011,-8.444l2.663,-7.436l5.35,-5.277l7.762,2.587l4.722,5.79l3.252,6.875l-2.919,8.646" style="fill:#816b40;"/><path d="M4.434,124.936l8.582,-9.592l7.678,8.654l1.217,22.864l-12.833,4.344l-4.295,-9.129l-0.349,-17.141" style="fill:#816b40;"/><path d="M81.994,190.601l17.273,-3.671l-1.819,-6.447l-9.043,-3.989l-7.195,0.973l-8.011,3.609l-0.029,5.632l8.824,3.893Zm4.322,-16.348l-14.73,-17.849l1.504,-10.627l5.987,-4.725l11.749,1.319l6.989,11.582l0.235,16.22l-11.734,4.08Zm-41.263,-7.979l-1.944,-3.691l3.859,-9.848l5.674,-0.498l3.564,-4.939l9.769,12.374l-2.28,7.998l-2.666,4.498l-11.199,-0.058l-4.777,-5.836Zm-44.608,-40.894l8.581,-9.593l7.678,8.655l1.217,22.864l-12.833,4.344l-4.295,-9.13l-0.348,-17.14Zm30.547,25.971l-4.294,-4.586l-1.862,-10.647l2.871,-9.418l12.278,-2.445l3.22,7.815l-0.16,7.685l-4.698,7.216l-7.355,4.38Zm39.15,-10.945l-6.21,-6.587l4.115,-12.273l9.073,-1.736l7.964,-0.801l2.763,4.188l3.721,-1.192l5.457,1.532l1.352,4.444l-6.164,3.963l-4.606,2.727l-8.414,4.037l-9.051,1.698Zm-12.934,-20.94l-10.819,-2.742l-10.011,-8.444l2.663,-7.435l5.35,-5.277l7.762,2.587l4.722,5.79l3.252,6.875l-2.919,8.646Zm-45.289,-14.043l-7.494,-11.309l2.215,-5.783l10.317,-18.523c0,0 7.679,6.584 10.234,6.868c2.555,0.284 7.574,5.082 7.574,5.082l-3.96,8.979l-9.329,5.376l-9.557,9.31Z" style="fill:#311807;fill-opacity:0.5;"/></g><path d="M215.107,53.747l0,26.833l-10.733,-16.1l0,16.1l-8.67,-4.335l4.332,15.49l-14.974,-22.965l0.45,7.746l-5.842,0.316l3.238,11.289l-1.845,14.848l-3.522,-12.352l-4.17,-5.268l1.51,16.756l-11.172,-11.925l3.099,25.283l-6.378,-5.412l-2.98,-10l-4.79,6.386l7.77,17.581l-8.606,-1.063l-10.552,-12.529l-12.03,-5.352l3.04,22.285l-10.106,-13.941l-14.4,20.828l-7.526,-23.07l-4.833,20.348l-9.107,-22.734l-8.081,10.682l0.213,18.707l-4.13,-4.471l-4.102,-18.245l-5.367,8.05l-5.366,13.416l-1.917,-17.058l-8.816,3.427l6.339,-10.967l4.394,-7.601l-8.851,9.792l-4.514,-13.843l-13.468,20.654l-5.367,-27.336l-8.823,20.511l-4.172,-24.747l5.659,-10.166l-14.13,3.668l-5.366,13.417l0,-42.933l107.331,-53.665l107.331,53.665Z" style="fill:#64e18b;"/><clipPath id="_clip10"><path d="M215.107,53.747l0,26.833l-10.733,-16.1l0,16.1l-8.67,-4.335l4.332,15.49l-14.974,-22.965l0.45,7.746l-5.842,0.316l3.238,11.289l-1.845,14.848l-3.522,-12.352l-4.17,-5.268l1.51,16.756l-11.172,-11.925l3.099,25.283l-6.378,-5.412l-2.98,-10l-4.79,6.386l7.77,17.581l-8.606,-1.063l-10.552,-12.529l-12.03,-5.352l3.04,22.285l-10.106,-13.941l-14.4,20.828l-7.526,-23.07l-4.833,20.348l-9.107,-22.734l-8.081,10.682l0.213,18.707l-4.13,-4.471l-4.102,-18.245l-5.367,8.05l-5.366,13.416l-1.917,-17.058l-8.816,3.427l6.339,-10.967l4.394,-7.601l-8.851,9.792l-4.514,-13.843l-13.468,20.654l-5.367,-27.336l-8.823,20.511l-4.172,-24.747l5.659,-10.166l-14.13,3.668l-5.366,13.417l0,-42.933l107.331,-53.665l107.331,53.665Z"/></clipPath><g clip-path="url(#_clip10)"><path d="M107.776,107.413l0,45.683l-72.925,-1.647l-34.406,-47.117l0,-50.656l107.331,53.737Z" style="fill:#311807;fill-opacity:0.2;"/><path d="M215.107,107.413l0,-53.666l-107.331,53.666l0,53.666l107.331,-53.666Z" style="fill:#febc3b;fill-opacity:0.2;"/><path d="M215.107,53.747l-2.246,14.977l-10.613,-8.547l-3.241,12.353l-6.985,-1.874l-12.71,-4.378l-1.771,6.252l3.709,14.246c0,0 -16.031,-13.515 -14.442,-8.879c1.589,4.636 5.367,16.209 5.367,16.209l-10.734,-8.159l2.683,22.807l-10.352,-15.909l-3.064,11.571l0,10.942l-16.099,-15.995l-7.94,1.397l-0.549,15.825l-7.611,-7.329l-5.367,14.519l-5.366,-0.262l-7.79,-14.628l-5.219,8.123l-10.143,-14.119l-14.414,12.574l-10.733,5.366l2.547,-22.739l-13.28,12.006l-7.129,-14.297l-6.252,15.621l-8.086,-17.423l-13.38,6.69l13.38,-22.79c0,0 -0.373,-1.702 -2.747,-1.374c-2.374,0.328 -18.719,1.374 -18.719,1.374l-5.366,2.683l-0.072,-26.868l107.332,-53.666l107.402,53.701Z" style="fill:#58cc76;fill-opacity:0.5;"/><path d="M107.74,0.1l107.367,53.647l-107.367,53.648l-107.295,-53.719l107.331,-53.559" style="fill:url(#_Radial11);"/></g></g></g><defs><radialGradient id="_Radial11" cx="0" cy="0" r="1" gradientUnits="userSpaceOnUse" gradientTransform="matrix(107.331,-0.142482,0.0712411,53.6656,107.776,53.7117)"><stop offset="0" style="stop-color:#46a789;stop-opacity:1"/><stop offset="1" style="stop-color:#5ed781;stop-opacity:1"/></radialGradient></defs></svg>