<?xml version="1.0" encoding="UTF-8" standalone="no"?><!DOCTYPE svg PUBLIC "-//W3C//DTD SVG 1.1//EN" "http://www.w3.org/Graphics/SVG/1.1/DTD/svg11.dtd"><svg width="100%" height="100%" viewBox="0 0 216 139" version="1.1" xmlns="http://www.w3.org/2000/svg" xmlns:xlink="http://www.w3.org/1999/xlink" xml:space="preserve" xmlns:serif="http://www.serif.com/" style="fill-rule:evenodd;clip-rule:evenodd;stroke-linejoin:round;stroke-miterlimit:1.41421;"><g id="GrassBlank06"><path d="M215.325,53.891l0,26.833l-10.733,-16.1l0,16.1l-8.67,-4.335l4.332,15.489l-14.974,-22.964l0.45,7.746l-5.842,0.316l3.238,11.289l-1.845,14.847l-3.522,-12.351l-4.17,-5.269l1.51,16.757l-11.172,-11.926l3.099,25.283l-6.377,-5.411l-2.981,-10.001l-4.79,6.387l7.771,17.581l-8.607,-1.064l-10.552,-12.528l-12.03,-5.352l3.04,22.285l-10.106,-13.942l-14.4,20.828l-7.526,-23.07l-4.833,20.349l-9.107,-22.734l-8.081,10.682l0.213,18.707l-4.13,-4.471l-4.102,-18.246l-5.367,8.05l-5.366,13.417l-1.917,-17.058l-8.816,3.427l6.339,-10.968l4.394,-7.601l-8.851,9.792l-4.514,-13.842l-13.468,20.654l-5.367,-27.337l-8.823,20.512l-4.172,-24.747l5.659,-10.166l-14.13,3.668l-5.366,13.416l0,-42.932l107.331,-53.666l107.331,53.666Z" style="fill:#64e18b;"/><clipPath id="_clip1"><path d="M215.325,53.891l0,26.833l-10.733,-16.1l0,16.1l-8.67,-4.335l4.332,15.489l-14.974,-22.964l0.45,7.746l-5.842,0.316l3.238,11.289l-1.845,14.847l-3.522,-12.351l-4.17,-5.269l1.51,16.757l-11.172,-11.926l3.099,25.283l-6.377,-5.411l-2.981,-10.001l-4.79,6.387l7.771,17.581l-8.607,-1.064l-10.552,-12.528l-12.03,-5.352l3.04,22.285l-10.106,-13.942l-14.4,20.828l-7.526,-23.07l-4.833,20.349l-9.107,-22.734l-8.081,10.682l0.213,18.707l-4.13,-4.471l-4.102,-18.246l-5.367,8.05l-5.366,13.417l-1.917,-17.058l-8.816,3.427l6.339,-10.968l4.394,-7.601l-8.851,9.792l-4.514,-13.842l-13.468,20.654l-5.367,-27.337l-8.823,20.512l-4.172,-24.747l5.659,-10.166l-14.13,3.668l-5.366,13.416l0,-42.932l107.331,-53.666l107.331,53.666Z"/></clipPath><g clip-path="url(#_clip1)"><path d="M107.994,107.557l0,45.683l-72.924,-1.647l-34.407,-47.118l0,-50.655l107.331,53.737Z" style="fill:#311807;fill-opacity:0.2;"/><path d="M215.325,107.557l0,-53.666l-107.331,53.666l0,53.665l107.331,-53.665Z" style="fill:#febc3b;fill-opacity:0.2;"/><path d="M215.325,53.891l-2.246,14.977l-10.613,-8.548l-3.241,12.354l-6.985,-1.874l-12.71,-4.378l-1.771,6.252l3.709,14.245c0,0 -16.031,-13.514 -14.442,-8.878c1.589,4.635 5.367,16.208 5.367,16.208l-10.734,-8.159l2.683,22.808l-10.352,-15.909l-3.064,11.571l0,10.942l-16.099,-15.995l-7.94,1.396l-0.549,15.826l-7.611,-7.33l-5.367,14.519l-5.366,-0.262l-7.79,-14.628l-5.219,8.124l-10.143,-14.119l-14.414,12.573l-10.733,5.367l2.547,-22.74l-13.28,12.007l-7.129,-14.297l-6.252,15.621l-8.086,-17.424l-13.38,6.691l13.38,-22.79c0,0 -0.373,-1.702 -2.747,-1.374c-2.374,0.328 -18.719,1.374 -18.719,1.374l-5.366,2.683l-0.072,-26.869l107.332,-53.665l107.402,53.701Z" style="fill:#58cc76;fill-opacity:0.5;"/><path d="M107.958,0.243l107.367,53.648l-107.367,53.648l-107.295,-53.719l107.331,-53.559" style="fill:url(#_Radial2);"/></g></g><defs><radialGradient id="_Radial2" cx="0" cy="0" r="1" gradientUnits="userSpaceOnUse" gradientTransform="matrix(107.331,-0.142482,0.0712411,53.6656,107.994,53.8554)"><stop offset="0" style="stop-color:#46a789;stop-opacity:1"/><stop offset="1" style="stop-color:#5ed781;stop-opacity:1"/></radialGradient></defs></svg>