<?xml version="1.0" encoding="UTF-8" standalone="no"?><!DOCTYPE svg PUBLIC "-//W3C//DTD SVG 1.1//EN" "http://www.w3.org/Graphics/SVG/1.1/DTD/svg11.dtd"><svg width="100%" height="100%" viewBox="0 0 216 205" version="1.1" xmlns="http://www.w3.org/2000/svg" xmlns:xlink="http://www.w3.org/1999/xlink" xml:space="preserve" xmlns:serif="http://www.serif.com/" style="fill-rule:evenodd;clip-rule:evenodd;stroke-linejoin:round;stroke-miterlimit:1.41421;"><g id="Grass_Block02"><g><path d="M215.381,53.771l0,96.598l-107.331,53.665l0,-96.598l107.331,-53.665Z" style="fill:#b19772;"/><path d="M122.808,160.232l-8.372,9.702l1.286,5.769l7.086,18.915c0,0 7.927,-5.204 10.317,-5.13c2.389,0.073 7.634,-3.797 7.634,-3.797l-2.476,-9.029l-7.889,-6.338l-7.586,-10.092Zm46.426,-1.629l-10.317,1.146l-10.317,6.652l1.484,7.395l4.238,5.711l7.483,-1.409l5.101,-4.848l3.889,-6.072l-1.561,-8.575Zm11.734,-23.688l-6.575,5.403l2.189,12.169l8.128,2.857l7.227,1.825l3.09,-3.594l3.27,1.627l5.224,-0.72l1.823,-4.026l-5.159,-4.576l-3.885,-3.198l-7.221,-4.948l-8.111,-2.819Zm-35.113,-8.191l-7.572,3.765l-5.158,9.829l2.356,9.299l18.278,3.958l6.625,-6.965l1.421,-7.296l-5.633,-7.46l-10.317,-5.13Zm59.489,-19.321l6.671,8.447l-1.513,14.639l-5.158,7.696l-7.137,-3.549l-3.18,-6.712l0,-10.261l10.317,-10.26Zm-90.908,21.488l3.213,-10.479l6.475,-5.224l14.159,3.776l-5.158,13.913l-10.317,4.64l-8.372,-6.626Zm49.64,-19.168l5.158,-4.885l10.317,1.445l1.869,4.614l1.058,7.876l-10.606,10.404l-2.638,-5.152l-5.158,-1.231l-2.271,-9.838l2.271,-3.233Zm30.449,-20.733l8.996,5.787l-1.467,5.86l-5.158,2.565l-3.79,-1.885l-4.027,-4.489l0.412,-5.335l5.034,-2.503Z" style="fill:#756941;fill-opacity:0.7;"/><path d="M204.648,102.07l6.94,8.836l-1.573,15.313l-5.367,8.05l-7.424,-3.712l-3.309,-7.021l0,-10.733l10.733,-10.733" style="fill:#837f5d;"/><clipPath id="_clip1"><path d="M204.648,102.07l6.94,8.836l-1.573,15.313l-5.367,8.05l-7.424,-3.712l-3.309,-7.021l0,-10.733l10.733,-10.733"/></clipPath><g clip-path="url(#_clip1)"><path d="M122.808,160.232l-8.372,9.702l1.286,5.769l7.086,18.915c0,0 7.927,-5.204 10.317,-5.13c2.389,0.073 7.634,-3.797 7.634,-3.797l-2.476,-9.029l-7.889,-6.338l-7.586,-10.092Zm46.426,-1.629l-10.317,1.146l-10.317,6.652l1.484,7.395l4.238,5.711l7.483,-1.409l5.101,-4.848l3.889,-6.072l-1.561,-8.575Zm11.734,-23.688l-6.575,5.403l2.189,12.169l8.128,2.857l7.227,1.825l3.09,-3.594l3.27,1.627l5.224,-0.72l1.823,-4.026l-5.159,-4.576l-3.885,-3.198l-7.221,-4.948l-8.111,-2.819Zm-35.113,-8.191l-7.572,3.765l-5.158,9.829l2.356,9.299l18.278,3.958l6.625,-6.965l1.421,-7.296l-5.633,-7.46l-10.317,-5.13Zm59.489,-19.321l6.671,8.447l-1.513,14.639l-5.158,7.696l-7.137,-3.549l-3.18,-6.712l0,-10.261l10.317,-10.26Zm-90.908,21.488l3.213,-10.479l6.475,-5.224l14.159,3.776l-5.158,13.913l-10.317,4.64l-8.372,-6.626Zm49.64,-19.168l5.158,-4.885l10.317,1.445l1.869,4.614l1.058,7.876l-10.606,10.404l-2.638,-5.152l-5.158,-1.231l-2.271,-9.838l2.271,-3.233Zm30.449,-20.733l8.996,5.787l-1.467,5.86l-5.158,2.565l-3.79,-1.885l-4.027,-4.489l0.412,-5.335l5.034,-2.503Z" style="fill:#756941;fill-opacity:0.7;"/></g><path d="M193.393,82.809l9.359,6.054l-1.526,6.129l-5.366,2.683l-3.943,-1.971l-4.19,-4.696l0.429,-5.581l5.237,-2.618Z" style="fill:#837f5d;"/><clipPath id="_clip2"><path d="M193.393,82.809l9.359,6.054l-1.526,6.129l-5.366,2.683l-3.943,-1.971l-4.19,-4.696l0.429,-5.581l5.237,-2.618Z"/></clipPath><g clip-path="url(#_clip2)"><path d="M122.808,160.232l-8.372,9.702l1.286,5.769l7.086,18.915c0,0 7.927,-5.204 10.317,-5.13c2.389,0.073 7.634,-3.797 7.634,-3.797l-2.476,-9.029l-7.889,-6.338l-7.586,-10.092Zm46.426,-1.629l-10.317,1.146l-10.317,6.652l1.484,7.395l4.238,5.711l7.483,-1.409l5.101,-4.848l3.889,-6.072l-1.561,-8.575Zm11.734,-23.688l-6.575,5.403l2.189,12.169l8.128,2.857l7.227,1.825l3.09,-3.594l3.27,1.627l5.224,-0.72l1.823,-4.026l-5.159,-4.576l-3.885,-3.198l-7.221,-4.948l-8.111,-2.819Zm-35.113,-8.191l-7.572,3.765l-5.158,9.829l2.356,9.299l18.278,3.958l6.625,-6.965l1.421,-7.296l-5.633,-7.46l-10.317,-5.13Zm59.489,-19.321l6.671,8.447l-1.513,14.639l-5.158,7.696l-7.137,-3.549l-3.18,-6.712l0,-10.261l10.317,-10.26Zm-90.908,21.488l3.213,-10.479l6.475,-5.224l14.159,3.776l-5.158,13.913l-10.317,4.64l-8.372,-6.626Zm49.64,-19.168l5.158,-4.885l10.317,1.445l1.869,4.614l1.058,7.876l-10.606,10.404l-2.638,-5.152l-5.158,-1.231l-2.271,-9.838l2.271,-3.233Zm30.449,-20.733l8.996,5.787l-1.467,5.86l-5.158,2.565l-3.79,-1.885l-4.027,-4.489l0.412,-5.335l5.034,-2.503Z" style="fill:#756941;fill-opacity:0.7;"/></g><path d="M161.716,104.496l5.366,-5.11l10.733,1.512l1.945,4.827l1.1,8.239l-11.034,10.883l-2.744,-5.39l-5.366,-1.288l-2.362,-10.291l2.362,-3.382" style="fill:#837f5d;"/><clipPath id="_clip3"><path d="M161.716,104.496l5.366,-5.11l10.733,1.512l1.945,4.827l1.1,8.239l-11.034,10.883l-2.744,-5.39l-5.366,-1.288l-2.362,-10.291l2.362,-3.382"/></clipPath><g clip-path="url(#_clip3)"><path d="M122.808,160.232l-8.372,9.702l1.286,5.769l7.086,18.915c0,0 7.927,-5.204 10.317,-5.13c2.389,0.073 7.634,-3.797 7.634,-3.797l-2.476,-9.029l-7.889,-6.338l-7.586,-10.092Zm46.426,-1.629l-10.317,1.146l-10.317,6.652l1.484,7.395l4.238,5.711l7.483,-1.409l5.101,-4.848l3.889,-6.072l-1.561,-8.575Zm11.734,-23.688l-6.575,5.403l2.189,12.169l8.128,2.857l7.227,1.825l3.09,-3.594l3.27,1.627l5.224,-0.72l1.823,-4.026l-5.159,-4.576l-3.885,-3.198l-7.221,-4.948l-8.111,-2.819Zm-35.113,-8.191l-7.572,3.765l-5.158,9.829l2.356,9.299l18.278,3.958l6.625,-6.965l1.421,-7.296l-5.633,-7.46l-10.317,-5.13Zm59.489,-19.321l6.671,8.447l-1.513,14.639l-5.158,7.696l-7.137,-3.549l-3.18,-6.712l0,-10.261l10.317,-10.26Zm-90.908,21.488l3.213,-10.479l6.475,-5.224l14.159,3.776l-5.158,13.913l-10.317,4.64l-8.372,-6.626Zm49.64,-19.168l5.158,-4.885l10.317,1.445l1.869,4.614l1.058,7.876l-10.606,10.404l-2.638,-5.152l-5.158,-1.231l-2.271,-9.838l2.271,-3.233Zm30.449,-20.733l8.996,5.787l-1.467,5.86l-5.158,2.565l-3.79,-1.885l-4.027,-4.489l0.412,-5.335l5.034,-2.503Z" style="fill:#756941;fill-opacity:0.7;"/></g><path d="M179.289,130.849l-6.84,5.652l2.278,12.729l8.455,2.989l7.519,1.909l3.214,-3.759l3.402,1.701l5.435,-0.753l1.896,-4.211l-5.366,-4.787l-4.042,-3.346l-7.513,-5.175l-8.438,-2.949Z" style="fill:#837f5d;"/><clipPath id="_clip4"><path d="M179.289,130.849l-6.84,5.652l2.278,12.729l8.455,2.989l7.519,1.909l3.214,-3.759l3.402,1.701l5.435,-0.753l1.896,-4.211l-5.366,-4.787l-4.042,-3.346l-7.513,-5.175l-8.438,-2.949Z"/></clipPath><g clip-path="url(#_clip4)"><path d="M122.808,160.232l-8.372,9.702l1.286,5.769l7.086,18.915c0,0 7.927,-5.204 10.317,-5.13c2.389,0.073 7.634,-3.797 7.634,-3.797l-2.476,-9.029l-7.889,-6.338l-7.586,-10.092Zm46.426,-1.629l-10.317,1.146l-10.317,6.652l1.484,7.395l4.238,5.711l7.483,-1.409l5.101,-4.848l3.889,-6.072l-1.561,-8.575Zm11.734,-23.688l-6.575,5.403l2.189,12.169l8.128,2.857l7.227,1.825l3.09,-3.594l3.27,1.627l5.224,-0.72l1.823,-4.026l-5.159,-4.576l-3.885,-3.198l-7.221,-4.948l-8.111,-2.819Zm-35.113,-8.191l-7.572,3.765l-5.158,9.829l2.356,9.299l18.278,3.958l6.625,-6.965l1.421,-7.296l-5.633,-7.46l-10.317,-5.13Zm59.489,-19.321l6.671,8.447l-1.513,14.639l-5.158,7.696l-7.137,-3.549l-3.18,-6.712l0,-10.261l10.317,-10.26Zm-90.908,21.488l3.213,-10.479l6.475,-5.224l14.159,3.776l-5.158,13.913l-10.317,4.64l-8.372,-6.626Zm49.64,-19.168l5.158,-4.885l10.317,1.445l1.869,4.614l1.058,7.876l-10.606,10.404l-2.638,-5.152l-5.158,-1.231l-2.271,-9.838l2.271,-3.233Zm30.449,-20.733l8.996,5.787l-1.467,5.86l-5.158,2.565l-3.79,-1.885l-4.027,-4.489l0.412,-5.335l5.034,-2.503Z" style="fill:#756941;fill-opacity:0.7;"/></g><path d="M142.76,122.28l-7.877,3.939l-5.367,10.282l2.452,9.727l19.015,4.141l6.892,-7.287l1.479,-7.632l-5.86,-7.803l-10.734,-5.367Z" style="fill:#837f5d;"/><clipPath id="_clip5"><path d="M142.76,122.28l-7.877,3.939l-5.367,10.282l2.452,9.727l19.015,4.141l6.892,-7.287l1.479,-7.632l-5.86,-7.803l-10.734,-5.367Z"/></clipPath><g clip-path="url(#_clip5)"><path d="M122.808,160.232l-8.372,9.702l1.286,5.769l7.086,18.915c0,0 7.927,-5.204 10.317,-5.13c2.389,0.073 7.634,-3.797 7.634,-3.797l-2.476,-9.029l-7.889,-6.338l-7.586,-10.092Zm46.426,-1.629l-10.317,1.146l-10.317,6.652l1.484,7.395l4.238,5.711l7.483,-1.409l5.101,-4.848l3.889,-6.072l-1.561,-8.575Zm11.734,-23.688l-6.575,5.403l2.189,12.169l8.128,2.857l7.227,1.825l3.09,-3.594l3.27,1.627l5.224,-0.72l1.823,-4.026l-5.159,-4.576l-3.885,-3.198l-7.221,-4.948l-8.111,-2.819Zm-35.113,-8.191l-7.572,3.765l-5.158,9.829l2.356,9.299l18.278,3.958l6.625,-6.965l1.421,-7.296l-5.633,-7.46l-10.317,-5.13Zm59.489,-19.321l6.671,8.447l-1.513,14.639l-5.158,7.696l-7.137,-3.549l-3.18,-6.712l0,-10.261l10.317,-10.26Zm-90.908,21.488l3.213,-10.479l6.475,-5.224l14.159,3.776l-5.158,13.913l-10.317,4.64l-8.372,-6.626Zm49.64,-19.168l5.158,-4.885l10.317,1.445l1.869,4.614l1.058,7.876l-10.606,10.404l-2.638,-5.152l-5.158,-1.231l-2.271,-9.838l2.271,-3.233Zm30.449,-20.733l8.996,5.787l-1.467,5.86l-5.158,2.565l-3.79,-1.885l-4.027,-4.489l0.412,-5.335l5.034,-2.503Z" style="fill:#756941;fill-opacity:0.7;"/></g><path d="M118.783,157.332l-8.709,10.148l1.338,6.036l7.371,19.785c0,0 8.247,-5.443 10.733,-5.366c2.486,0.076 7.943,-3.972 7.943,-3.972l-2.576,-9.445l-8.208,-6.629l-7.892,-10.557Z" style="fill:#837f5d;"/><clipPath id="_clip6"><path d="M118.783,157.332l-8.709,10.148l1.338,6.036l7.371,19.785c0,0 8.247,-5.443 10.733,-5.366c2.486,0.076 7.943,-3.972 7.943,-3.972l-2.576,-9.445l-8.208,-6.629l-7.892,-10.557Z"/></clipPath><g clip-path="url(#_clip6)"><path d="M122.808,160.232l-8.372,9.702l1.286,5.769l7.086,18.915c0,0 7.927,-5.204 10.317,-5.13c2.389,0.073 7.634,-3.797 7.634,-3.797l-2.476,-9.029l-7.889,-6.338l-7.586,-10.092Zm46.426,-1.629l-10.317,1.146l-10.317,6.652l1.484,7.395l4.238,5.711l7.483,-1.409l5.101,-4.848l3.889,-6.072l-1.561,-8.575Zm11.734,-23.688l-6.575,5.403l2.189,12.169l8.128,2.857l7.227,1.825l3.09,-3.594l3.27,1.627l5.224,-0.72l1.823,-4.026l-5.159,-4.576l-3.885,-3.198l-7.221,-4.948l-8.111,-2.819Zm-35.113,-8.191l-7.572,3.765l-5.158,9.829l2.356,9.299l18.278,3.958l6.625,-6.965l1.421,-7.296l-5.633,-7.46l-10.317,-5.13Zm59.489,-19.321l6.671,8.447l-1.513,14.639l-5.158,7.696l-7.137,-3.549l-3.18,-6.712l0,-10.261l10.317,-10.26Zm-90.908,21.488l3.213,-10.479l6.475,-5.224l14.159,3.776l-5.158,13.913l-10.317,4.64l-8.372,-6.626Zm49.64,-19.168l5.158,-4.885l10.317,1.445l1.869,4.614l1.058,7.876l-10.606,10.404l-2.638,-5.152l-5.158,-1.231l-2.271,-9.838l2.271,-3.233Zm30.449,-20.733l8.996,5.787l-1.467,5.86l-5.158,2.565l-3.79,-1.885l-4.027,-4.489l0.412,-5.335l5.034,-2.503Z" style="fill:#756941;fill-opacity:0.7;"/></g><path d="M167.082,155.628l-10.733,1.199l-10.733,6.958l1.544,7.735l4.409,5.975l7.785,-1.475l5.306,-5.071l4.047,-6.352l-1.625,-8.969" style="fill:#837f5d;"/><clipPath id="_clip7"><path d="M167.082,155.628l-10.733,1.199l-10.733,6.958l1.544,7.735l4.409,5.975l7.785,-1.475l5.306,-5.071l4.047,-6.352l-1.625,-8.969"/></clipPath><g clip-path="url(#_clip7)"><path d="M122.808,160.232l-8.372,9.702l1.286,5.769l7.086,18.915c0,0 7.927,-5.204 10.317,-5.13c2.389,0.073 7.634,-3.797 7.634,-3.797l-2.476,-9.029l-7.889,-6.338l-7.586,-10.092Zm46.426,-1.629l-10.317,1.146l-10.317,6.652l1.484,7.395l4.238,5.711l7.483,-1.409l5.101,-4.848l3.889,-6.072l-1.561,-8.575Zm11.734,-23.688l-6.575,5.403l2.189,12.169l8.128,2.857l7.227,1.825l3.09,-3.594l3.27,1.627l5.224,-0.72l1.823,-4.026l-5.159,-4.576l-3.885,-3.198l-7.221,-4.948l-8.111,-2.819Zm-35.113,-8.191l-7.572,3.765l-5.158,9.829l2.356,9.299l18.278,3.958l6.625,-6.965l1.421,-7.296l-5.633,-7.46l-10.317,-5.13Zm59.489,-19.321l6.671,8.447l-1.513,14.639l-5.158,7.696l-7.137,-3.549l-3.18,-6.712l0,-10.261l10.317,-10.26Zm-90.908,21.488l3.213,-10.479l6.475,-5.224l14.159,3.776l-5.158,13.913l-10.317,4.64l-8.372,-6.626Zm49.64,-19.168l5.158,-4.885l10.317,1.445l1.869,4.614l1.058,7.876l-10.606,10.404l-2.638,-5.152l-5.158,-1.231l-2.271,-9.838l2.271,-3.233Zm30.449,-20.733l8.996,5.787l-1.467,5.86l-5.158,2.565l-3.79,-1.885l-4.027,-4.489l0.412,-5.335l5.034,-2.503Z" style="fill:#756941;fill-opacity:0.7;"/></g><path d="M110.074,124.548l8.709,6.93l10.733,-4.854l5.367,-14.553l-14.73,-3.95l-6.736,5.465l-3.343,10.962" style="fill:#837f5d;"/><clipPath id="_clip8"><path d="M110.074,124.548l8.709,6.93l10.733,-4.854l5.367,-14.553l-14.73,-3.95l-6.736,5.465l-3.343,10.962"/></clipPath><g clip-path="url(#_clip8)"><path d="M122.808,160.232l-8.372,9.702l1.286,5.769l7.086,18.915c0,0 7.927,-5.204 10.317,-5.13c2.389,0.073 7.634,-3.797 7.634,-3.797l-2.476,-9.029l-7.889,-6.338l-7.586,-10.092Zm46.426,-1.629l-10.317,1.146l-10.317,6.652l1.484,7.395l4.238,5.711l7.483,-1.409l5.101,-4.848l3.889,-6.072l-1.561,-8.575Zm11.734,-23.688l-6.575,5.403l2.189,12.169l8.128,2.857l7.227,1.825l3.09,-3.594l3.27,1.627l5.224,-0.72l1.823,-4.026l-5.159,-4.576l-3.885,-3.198l-7.221,-4.948l-8.111,-2.819Zm-35.113,-8.191l-7.572,3.765l-5.158,9.829l2.356,9.299l18.278,3.958l6.625,-6.965l1.421,-7.296l-5.633,-7.46l-10.317,-5.13Zm59.489,-19.321l6.671,8.447l-1.513,14.639l-5.158,7.696l-7.137,-3.549l-3.18,-6.712l0,-10.261l10.317,-10.26Zm-90.908,21.488l3.213,-10.479l6.475,-5.224l14.159,3.776l-5.158,13.913l-10.317,4.64l-8.372,-6.626Zm49.64,-19.168l5.158,-4.885l10.317,1.445l1.869,4.614l1.058,7.876l-10.606,10.404l-2.638,-5.152l-5.158,-1.231l-2.271,-9.838l2.271,-3.233Zm30.449,-20.733l8.996,5.787l-1.467,5.86l-5.158,2.565l-3.79,-1.885l-4.027,-4.489l0.412,-5.335l5.034,-2.503Z" style="fill:#756941;fill-opacity:0.7;"/></g></g><path d="M0.719,53.771l107.331,53.665l0,96.598l-107.331,-53.665l0,-96.598" style="fill:#776841;"/><clipPath id="_clip9"><path d="M0.719,53.771l107.331,53.665l0,96.598l-107.331,-53.665l0,-96.598"/></clipPath><g clip-path="url(#_clip9)"><path d="M90.58,173.833l11.735,-4.08l-0.236,-16.22l-6.989,-11.582l-11.749,-1.32l-5.987,4.726l-1.503,10.627l14.729,17.849" style="fill:#816b40;"/><path d="M86.258,190.181l17.273,-3.671l-1.819,-6.447l-9.042,-3.99l-7.196,0.973l-8.01,3.61l-0.029,5.632l8.823,3.893Z" style="fill:#816b40;"/><path d="M49.317,165.853l4.778,5.837l11.198,0.057l2.666,-4.498l2.281,-7.997l-9.77,-12.374l-3.564,4.939l-5.674,0.498l-3.859,9.848l1.944,3.69" style="fill:#816b40;"/><path d="M74.407,139.986l-6.21,-6.587l4.114,-12.273l9.073,-1.736l7.964,-0.801l2.764,4.187l3.72,-1.191l5.457,1.532l1.352,4.444l-6.164,3.963l-4.606,2.727l-8.414,4.037l-9.05,1.698Z" style="fill:#816b40;"/><path d="M35.257,150.931l-4.295,-4.586l-1.862,-10.647l2.871,-9.418l12.278,-2.445l3.22,7.814l-0.16,7.686l-4.698,7.216l-7.354,4.38Z" style="fill:#816b40;"/><path d="M16.183,105.003l-7.494,-11.309l2.215,-5.783l10.317,-18.523c0,0 7.679,6.584 10.234,6.868c2.556,0.284 7.574,5.082 7.574,5.082l-3.96,8.979l-9.329,5.376l-9.557,9.31Z" style="fill:#816b40;"/><path d="M61.472,119.045l-10.818,-2.741l-10.012,-8.444l2.663,-7.435l5.351,-5.277l7.761,2.587l4.722,5.789l3.252,6.875l-2.919,8.646" style="fill:#816b40;"/><path d="M4.709,124.96l8.581,-9.593l7.678,8.654l1.217,22.864l-12.832,4.345l-4.296,-9.13l-0.348,-17.14" style="fill:#816b40;"/><path d="M82.268,190.624l17.273,-3.67l-1.819,-6.448l-9.042,-3.989l-7.196,0.973l-8.01,3.609l-0.029,5.633l8.823,3.892Zm4.322,-16.347l-14.729,-17.849l1.503,-10.628l5.987,-4.725l11.749,1.32l6.989,11.581l0.236,16.221l-11.735,4.08Zm-41.263,-7.98l-1.944,-3.691l3.859,-9.847l5.674,-0.498l3.564,-4.94l9.77,12.374l-2.281,7.998l-2.666,4.498l-11.198,-0.057l-4.778,-5.837Zm-44.608,-40.894l8.581,-9.593l7.678,8.655l1.217,22.864l-12.832,4.344l-4.296,-9.129l-0.348,-17.141Zm30.548,25.971l-4.295,-4.585l-1.861,-10.648l2.87,-9.418l12.278,-2.445l3.22,7.815l-0.16,7.685l-4.698,7.216l-7.354,4.38Zm39.15,-10.945l-6.21,-6.586l4.114,-12.274l9.073,-1.735l7.964,-0.802l2.764,4.188l3.72,-1.192l5.458,1.532l1.351,4.445l-6.164,3.962l-4.606,2.728l-8.414,4.037l-9.05,1.697Zm-12.935,-20.94l-10.818,-2.742l-10.012,-8.443l2.663,-7.436l5.351,-5.277l7.761,2.587l4.722,5.79l3.252,6.875l-2.919,8.646Zm-45.289,-14.043l-7.494,-11.309l2.215,-5.782l10.317,-18.523c0,0 7.679,6.583 10.235,6.867c2.555,0.285 7.573,5.082 7.573,5.082l-3.96,8.98l-9.329,5.375l-9.557,9.31Z" style="fill:#311807;fill-opacity:0.5;"/></g><path d="M215.381,53.771l0,26.832l-10.733,-16.099l0,16.099l-8.67,-4.335l4.332,15.49l-14.974,-22.965l0.45,7.746l-5.842,0.317l3.238,11.289l-1.845,14.847l-3.522,-12.351l-4.17,-5.269l1.51,16.756l-11.172,-11.925l3.099,25.283l-6.377,-5.412l-2.981,-10l-4.79,6.386l7.771,17.581l-8.606,-1.063l-10.553,-12.529l-12.03,-5.352l3.04,22.285l-10.106,-13.941l-14.4,20.828l-7.526,-23.07l-4.833,20.348l-9.107,-22.734l-8.081,10.683l0.214,18.707l-4.131,-4.472l-4.102,-18.245l-5.366,8.05l-5.367,13.416l-1.917,-17.058l-8.816,3.427l6.339,-10.967l4.394,-7.601l-8.851,9.792l-4.514,-13.843l-13.468,20.655l-5.366,-27.337l-8.824,20.511l-4.172,-24.747l5.659,-10.165l-14.13,3.668l-5.366,13.416l0,-42.932l107.331,-53.666l107.331,53.666Z" style="fill:#64e18b;"/><clipPath id="_clip10"><path d="M215.381,53.771l0,26.832l-10.733,-16.099l0,16.099l-8.67,-4.335l4.332,15.49l-14.974,-22.965l0.45,7.746l-5.842,0.317l3.238,11.289l-1.845,14.847l-3.522,-12.351l-4.17,-5.269l1.51,16.756l-11.172,-11.925l3.099,25.283l-6.377,-5.412l-2.981,-10l-4.79,6.386l7.771,17.581l-8.606,-1.063l-10.553,-12.529l-12.03,-5.352l3.04,22.285l-10.106,-13.941l-14.4,20.828l-7.526,-23.07l-4.833,20.348l-9.107,-22.734l-8.081,10.683l0.214,18.707l-4.131,-4.472l-4.102,-18.245l-5.366,8.05l-5.367,13.416l-1.917,-17.058l-8.816,3.427l6.339,-10.967l4.394,-7.601l-8.851,9.792l-4.514,-13.843l-13.468,20.655l-5.366,-27.337l-8.824,20.511l-4.172,-24.747l5.659,-10.165l-14.13,3.668l-5.366,13.416l0,-42.932l107.331,-53.666l107.331,53.666Z"/></clipPath><g clip-path="url(#_clip10)"><path d="M108.05,107.436l0,45.683l-72.924,-1.647l-34.407,-47.117l0,-50.656l107.331,53.737Z" style="fill:#311807;fill-opacity:0.2;"/><path d="M215.381,107.436l0,-53.665l-107.331,53.665l0,53.666l107.331,-53.666Z" style="fill:#febc3b;fill-opacity:0.2;"/><path d="M215.381,53.771l-2.246,14.976l-10.613,-8.547l-3.24,12.354l-6.986,-1.874l-12.71,-4.379l-1.771,6.253l3.709,14.245c0,0 -16.031,-13.515 -14.442,-8.879c1.589,4.636 5.367,16.209 5.367,16.209l-10.733,-8.159l2.682,22.807l-10.352,-15.909l-3.063,11.571l0,10.942l-16.1,-15.995l-7.94,1.397l-0.548,15.825l-7.612,-7.329l-5.366,14.519l-5.367,-0.262l-7.79,-14.628l-5.219,8.123l-10.143,-14.118l-14.414,12.573l-10.733,5.367l2.547,-22.74l-13.28,12.006l-7.129,-14.297l-6.252,15.621l-8.085,-17.423l-13.381,6.69l13.381,-22.79c0,0 -0.374,-1.702 -2.748,-1.374c-2.373,0.329 -18.719,1.374 -18.719,1.374l-5.366,2.683l-0.071,-26.868l107.331,-53.666l107.402,53.702Z" style="fill:#58cc76;fill-opacity:0.5;"/></g></g></svg>