<?xml version="1.0" encoding="UTF-8" standalone="no"?><!DOCTYPE svg PUBLIC "-//W3C//DTD SVG 1.1//EN" "http://www.w3.org/Graphics/SVG/1.1/DTD/svg11.dtd"><svg width="100%" height="100%" viewBox="0 0 216 212" version="1.1" xmlns="http://www.w3.org/2000/svg" xmlns:xlink="http://www.w3.org/1999/xlink" xml:space="preserve" xmlns:serif="http://www.serif.com/" style="fill-rule:evenodd;clip-rule:evenodd;stroke-linejoin:round;stroke-miterlimit:1.41421;"><g id="Grass_Block10"><g id="Grass_Block09"><g><path d="M215.052,61.598l0,96.598l-107.331,53.666l0,-96.598l107.331,-53.666Z" style="fill:#7d9fa2;"/><clipPath id="_clip1"><path d="M215.052,61.598l0,96.598l-107.331,53.666l0,-96.598l107.331,-53.666Z"/></clipPath><g clip-path="url(#_clip1)"><path d="M113.249,242.753l-7.471,-8.393l0.629,-15.381l4.861,-8.365l7.639,3.249l3.734,6.804l0.66,10.713l-10.052,11.373" style="fill:#c7a664;"/><path d="M129.091,265.902l-9.713,-5.527l1.146,-6.28l5.191,-3.042l4.056,1.744l4.471,4.478l-0.085,5.659l-5.066,2.968Zm30.284,-23.855l-5.042,5.49l-10.806,-0.858l-2.238,-4.75l-1.605,-8.245l10.343,-11.669l3.071,5.269l5.436,0.965l2.99,10.238l-2.149,3.56Zm-42.702,5.119l-7.471,-8.486l0.629,-15.55l4.861,-8.457l7.639,3.284l3.734,6.879l0.66,10.831l-10.052,11.499Zm93.012,-28.565l-2.662,11.269l-6.387,5.934l-14.945,-3.07l4.461,-15.019l10.414,-5.566l9.119,6.452Zm-32.485,4.321l7.62,-4.465l4.724,-10.709l-3.045,-9.663l-19.233,-2.996l-6.432,7.782l-1.006,7.793l6.329,7.51l11.043,4.748Zm-36.987,-6.375l6.48,-6.129l-3.057,-12.703l-8.623,-2.491l-7.622,-1.458l-2.977,3.993l-3.5,-1.505l-5.378,1.098l-1.634,4.367l5.651,4.497l4.24,3.125l7.817,4.755l8.603,2.451Zm10.66,-25.764l10.639,-1.877l10.285,-7.689l-2.017,-7.71l-4.768,-5.754l-7.679,1.971l-4.985,5.448l-3.648,6.661l2.173,8.95Zm48.103,-4.723l8.068,-10.782l-1.706,-6.008l-8.575,-19.507c0,0 -7.897,6.006 -10.383,6.083c-2.485,0.078 -7.683,4.501 -7.683,4.501l3.152,9.371l8.6,6.18l8.527,10.162Zm-64.518,-7.172l-9.714,-5.527l1.146,-6.28l5.192,-3.041l4.056,1.744l4.47,4.478l-0.085,5.658l-5.065,2.968Zm30.283,-23.855l-5.042,5.49l-10.806,-0.858l-2.237,-4.75l-1.606,-8.245l10.344,-11.668l3.07,5.268l5.436,0.966l2.991,10.237l-2.15,3.56Zm-42.702,5.119l-7.47,-8.486l0.628,-15.55l4.862,-8.457l7.638,3.285l3.735,6.879l0.66,10.831l-10.053,11.498Zm93.013,-28.564l-2.662,11.269l-6.388,5.934l-14.945,-3.071l4.461,-15.019l10.415,-5.565l9.119,6.452Zm-32.485,4.32l7.62,-4.464l4.724,-10.709l-3.045,-9.663l-19.234,-2.996l-6.431,7.781l-1.006,7.794l6.329,7.509l11.043,4.748Zm-36.987,-6.374l6.48,-6.129l-3.057,-12.703l-8.623,-2.491l-7.622,-1.459l-2.977,3.994l-3.5,-1.505l-5.378,1.097l-1.634,4.368l5.651,4.497l4.24,3.124l7.816,4.756l8.604,2.451Zm10.66,-25.764l10.639,-1.878l10.284,-7.689l-2.016,-7.709l-4.769,-5.755l-7.679,1.972l-4.985,5.448l-3.648,6.661l2.174,8.95Zm48.102,-4.724l8.069,-10.782l-1.707,-6.007l-8.574,-19.507c0,0 -7.897,6.005 -10.383,6.083c-2.486,0.077 -7.683,4.501 -7.683,4.501l3.152,9.371l8.6,6.179l8.526,10.162Z" style="fill:#578d80;fill-opacity:0.7;"/><path d="M136.789,212.468l6.48,-6.062l-3.056,-12.565l-8.624,-2.463l-7.622,-1.443l-2.976,3.95l-3.501,-1.489l-5.378,1.086l-1.634,4.32l5.651,4.447l4.24,3.091l7.817,4.704l8.603,2.424Z" style="fill:#61abb8;"/><clipPath id="_clip2"><path d="M136.789,212.468l6.48,-6.062l-3.056,-12.565l-8.624,-2.463l-7.622,-1.443l-2.976,3.95l-3.501,-1.489l-5.378,1.086l-1.634,4.32l5.651,4.447l4.24,3.091l7.817,4.704l8.603,2.424Z"/></clipPath><g clip-path="url(#_clip2)"><path d="M129.091,265.902l-9.713,-5.527l1.146,-6.28l5.191,-3.042l4.056,1.744l4.471,4.478l-0.085,5.659l-5.066,2.968Zm30.284,-23.855l-5.042,5.49l-10.806,-0.858l-2.238,-4.75l-1.605,-8.245l10.343,-11.669l3.071,5.269l5.436,0.965l2.99,10.238l-2.149,3.56Zm-42.702,5.119l-7.471,-8.486l0.629,-15.55l4.861,-8.457l7.639,3.284l3.734,6.879l0.66,10.831l-10.052,11.499Zm93.012,-28.565l-2.662,11.269l-6.387,5.934l-14.945,-3.07l4.461,-15.019l10.414,-5.566l9.119,6.452Zm-32.485,4.321l7.62,-4.465l4.724,-10.709l-3.045,-9.663l-19.233,-2.996l-6.432,7.782l-1.006,7.793l6.329,7.51l11.043,4.748Zm-36.987,-6.375l6.48,-6.129l-3.057,-12.703l-8.623,-2.491l-7.622,-1.458l-2.977,3.993l-3.5,-1.505l-5.378,1.098l-1.634,4.367l5.651,4.497l4.24,3.125l7.817,4.755l8.603,2.451Zm10.66,-25.764l10.639,-1.877l10.285,-7.689l-2.017,-7.71l-4.768,-5.754l-7.679,1.971l-4.985,5.448l-3.648,6.661l2.173,8.95Zm48.103,-4.723l8.068,-10.782l-1.706,-6.008l-8.575,-19.507c0,0 -7.897,6.006 -10.383,6.083c-2.485,0.078 -7.683,4.501 -7.683,4.501l3.152,9.371l8.6,6.18l8.527,10.162Zm-64.518,-7.172l-9.714,-5.527l1.146,-6.28l5.192,-3.041l4.056,1.744l4.47,4.478l-0.085,5.658l-5.065,2.968Zm30.283,-23.855l-5.042,5.49l-10.806,-0.858l-2.237,-4.75l-1.606,-8.245l10.344,-11.668l3.07,5.268l5.436,0.966l2.991,10.237l-2.15,3.56Zm-42.702,5.119l-7.47,-8.486l0.628,-15.55l4.862,-8.457l7.638,3.285l3.735,6.879l0.66,10.831l-10.053,11.498Zm93.013,-28.564l-2.662,11.269l-6.388,5.934l-14.945,-3.071l4.461,-15.019l10.415,-5.565l9.119,6.452Zm-32.485,4.32l7.62,-4.464l4.724,-10.709l-3.045,-9.663l-19.234,-2.996l-6.431,7.781l-1.006,7.794l6.329,7.509l11.043,4.748Zm-36.987,-6.374l6.48,-6.129l-3.057,-12.703l-8.623,-2.491l-7.622,-1.459l-2.977,3.994l-3.5,-1.505l-5.378,1.097l-1.634,4.368l5.651,4.497l4.24,3.124l7.816,4.756l8.604,2.451Zm10.66,-25.764l10.639,-1.878l10.284,-7.689l-2.016,-7.709l-4.769,-5.755l-7.679,1.972l-4.985,5.448l-3.648,6.661l2.174,8.95Zm48.102,-4.724l8.069,-10.782l-1.707,-6.007l-8.574,-19.507c0,0 -7.897,6.005 -10.383,6.083c-2.486,0.077 -7.683,4.501 -7.683,4.501l3.152,9.371l8.6,6.179l8.526,10.162Z" style="fill:#578d80;fill-opacity:0.7;"/></g><path d="M173.776,218.773l7.62,-4.416l4.724,-10.592l-3.045,-9.558l-19.233,-2.963l-6.432,7.697l-1.006,7.708l6.329,7.428l11.043,4.696Z" style="fill:#61abb8;"/><path d="M195.552,182.313l8.069,-10.665l-1.707,-5.941l-8.575,-19.295c0,0 -7.897,5.94 -10.382,6.017c-2.486,0.076 -7.684,4.452 -7.684,4.452l3.152,9.269l8.6,6.112l8.527,10.051Z" style="fill:#61abb8;"/><clipPath id="_clip3"><path d="M195.552,182.313l8.069,-10.665l-1.707,-5.941l-8.575,-19.295c0,0 -7.897,5.94 -10.382,6.017c-2.486,0.076 -7.684,4.452 -7.684,4.452l3.152,9.269l8.6,6.112l8.527,10.051Z"/></clipPath><g clip-path="url(#_clip3)"><path d="M129.091,265.902l-9.713,-5.527l1.146,-6.28l5.191,-3.042l4.056,1.744l4.471,4.478l-0.085,5.659l-5.066,2.968Zm30.284,-23.855l-5.042,5.49l-10.806,-0.858l-2.238,-4.75l-1.605,-8.245l10.343,-11.669l3.071,5.269l5.436,0.965l2.99,10.238l-2.149,3.56Zm-42.702,5.119l-7.471,-8.486l0.629,-15.55l4.861,-8.457l7.639,3.284l3.734,6.879l0.66,10.831l-10.052,11.499Zm93.012,-28.565l-2.662,11.269l-6.387,5.934l-14.945,-3.07l4.461,-15.019l10.414,-5.566l9.119,6.452Zm-32.485,4.321l7.62,-4.465l4.724,-10.709l-3.045,-9.663l-19.233,-2.996l-6.432,7.782l-1.006,7.793l6.329,7.51l11.043,4.748Zm-36.987,-6.375l6.48,-6.129l-3.057,-12.703l-8.623,-2.491l-7.622,-1.458l-2.977,3.993l-3.5,-1.505l-5.378,1.098l-1.634,4.367l5.651,4.497l4.24,3.125l7.817,4.755l8.603,2.451Zm10.66,-25.764l10.639,-1.877l10.285,-7.689l-2.017,-7.71l-4.768,-5.754l-7.679,1.971l-4.985,5.448l-3.648,6.661l2.173,8.95Zm48.103,-4.723l8.068,-10.782l-1.706,-6.008l-8.575,-19.507c0,0 -7.897,6.006 -10.383,6.083c-2.485,0.078 -7.683,4.501 -7.683,4.501l3.152,9.371l8.6,6.18l8.527,10.162Zm-64.518,-7.172l-9.714,-5.527l1.146,-6.28l5.192,-3.041l4.056,1.744l4.47,4.478l-0.085,5.658l-5.065,2.968Zm30.283,-23.855l-5.042,5.49l-10.806,-0.858l-2.237,-4.75l-1.606,-8.245l10.344,-11.668l3.07,5.268l5.436,0.966l2.991,10.237l-2.15,3.56Zm-42.702,5.119l-7.47,-8.486l0.628,-15.55l4.862,-8.457l7.638,3.285l3.735,6.879l0.66,10.831l-10.053,11.498Zm93.013,-28.564l-2.662,11.269l-6.388,5.934l-14.945,-3.071l4.461,-15.019l10.415,-5.565l9.119,6.452Zm-32.485,4.32l7.62,-4.464l4.724,-10.709l-3.045,-9.663l-19.234,-2.996l-6.431,7.781l-1.006,7.794l6.329,7.509l11.043,4.748Zm-36.987,-6.374l6.48,-6.129l-3.057,-12.703l-8.623,-2.491l-7.622,-1.459l-2.977,3.994l-3.5,-1.505l-5.378,1.097l-1.634,4.368l5.651,4.497l4.24,3.124l7.816,4.756l8.604,2.451Zm10.66,-25.764l10.639,-1.878l10.284,-7.689l-2.016,-7.709l-4.769,-5.755l-7.679,1.972l-4.985,5.448l-3.648,6.661l2.174,8.95Zm48.102,-4.724l8.069,-10.782l-1.707,-6.007l-8.574,-19.507c0,0 -7.897,6.005 -10.383,6.083c-2.486,0.077 -7.683,4.501 -7.683,4.501l3.152,9.371l8.6,6.179l8.526,10.162Z" style="fill:#578d80;fill-opacity:0.7;"/></g><path d="M147.449,186.985l10.639,-1.857l10.285,-7.605l-2.017,-7.626l-4.768,-5.692l-7.679,1.951l-4.985,5.388l-3.648,6.588l2.173,8.853" style="fill:#61abb8;"/><clipPath id="_clip4"><path d="M147.449,186.985l10.639,-1.857l10.285,-7.605l-2.017,-7.626l-4.768,-5.692l-7.679,1.951l-4.985,5.388l-3.648,6.588l2.173,8.853"/></clipPath><g clip-path="url(#_clip4)"><path d="M129.091,265.902l-9.713,-5.527l1.146,-6.28l5.191,-3.042l4.056,1.744l4.471,4.478l-0.085,5.659l-5.066,2.968Zm30.284,-23.855l-5.042,5.49l-10.806,-0.858l-2.238,-4.75l-1.605,-8.245l10.343,-11.669l3.071,5.269l5.436,0.965l2.99,10.238l-2.149,3.56Zm-42.702,5.119l-7.471,-8.486l0.629,-15.55l4.861,-8.457l7.639,3.284l3.734,6.879l0.66,10.831l-10.052,11.499Zm93.012,-28.565l-2.662,11.269l-6.387,5.934l-14.945,-3.07l4.461,-15.019l10.414,-5.566l9.119,6.452Zm-32.485,4.321l7.62,-4.465l4.724,-10.709l-3.045,-9.663l-19.233,-2.996l-6.432,7.782l-1.006,7.793l6.329,7.51l11.043,4.748Zm-36.987,-6.375l6.48,-6.129l-3.057,-12.703l-8.623,-2.491l-7.622,-1.458l-2.977,3.993l-3.5,-1.505l-5.378,1.098l-1.634,4.367l5.651,4.497l4.24,3.125l7.817,4.755l8.603,2.451Zm10.66,-25.764l10.639,-1.877l10.285,-7.689l-2.017,-7.71l-4.768,-5.754l-7.679,1.971l-4.985,5.448l-3.648,6.661l2.173,8.95Zm48.103,-4.723l8.068,-10.782l-1.706,-6.008l-8.575,-19.507c0,0 -7.897,6.006 -10.383,6.083c-2.485,0.078 -7.683,4.501 -7.683,4.501l3.152,9.371l8.6,6.18l8.527,10.162Zm-64.518,-7.172l-9.714,-5.527l1.146,-6.28l5.192,-3.041l4.056,1.744l4.47,4.478l-0.085,5.658l-5.065,2.968Zm30.283,-23.855l-5.042,5.49l-10.806,-0.858l-2.237,-4.75l-1.606,-8.245l10.344,-11.668l3.07,5.268l5.436,0.966l2.991,10.237l-2.15,3.56Zm-42.702,5.119l-7.47,-8.486l0.628,-15.55l4.862,-8.457l7.638,3.285l3.735,6.879l0.66,10.831l-10.053,11.498Zm93.013,-28.564l-2.662,11.269l-6.388,5.934l-14.945,-3.071l4.461,-15.019l10.415,-5.565l9.119,6.452Zm-32.485,4.32l7.62,-4.464l4.724,-10.709l-3.045,-9.663l-19.234,-2.996l-6.431,7.781l-1.006,7.794l6.329,7.509l11.043,4.748Zm-36.987,-6.374l6.48,-6.129l-3.057,-12.703l-8.623,-2.491l-7.622,-1.459l-2.977,3.994l-3.5,-1.505l-5.378,1.097l-1.634,4.368l5.651,4.497l4.24,3.124l7.816,4.756l8.604,2.451Zm10.66,-25.764l10.639,-1.878l10.284,-7.689l-2.016,-7.709l-4.769,-5.755l-7.679,1.972l-4.985,5.448l-3.648,6.661l2.174,8.95Zm48.102,-4.724l8.069,-10.782l-1.707,-6.007l-8.574,-19.507c0,0 -7.897,6.005 -10.383,6.083c-2.486,0.077 -7.683,4.501 -7.683,4.501l3.152,9.371l8.6,6.179l8.526,10.162Z" style="fill:#578d80;fill-opacity:0.7;"/></g><path d="M206.261,214.5l-9.119,-6.382l-10.414,5.505l-4.461,14.855l14.945,3.037l6.387,-5.869l2.662,-11.146" style="fill:#61abb8;"/><clipPath id="_clip5"><path d="M206.261,214.5l-9.119,-6.382l-10.414,5.505l-4.461,14.855l14.945,3.037l6.387,-5.869l2.662,-11.146"/></clipPath><g clip-path="url(#_clip5)"><path d="M129.091,265.902l-9.713,-5.527l1.146,-6.28l5.191,-3.042l4.056,1.744l4.471,4.478l-0.085,5.659l-5.066,2.968Zm30.284,-23.855l-5.042,5.49l-10.806,-0.858l-2.238,-4.75l-1.605,-8.245l10.343,-11.669l3.071,5.269l5.436,0.965l2.99,10.238l-2.149,3.56Zm-42.702,5.119l-7.471,-8.486l0.629,-15.55l4.861,-8.457l7.639,3.284l3.734,6.879l0.66,10.831l-10.052,11.499Zm93.012,-28.565l-2.662,11.269l-6.387,5.934l-14.945,-3.07l4.461,-15.019l10.414,-5.566l9.119,6.452Zm-32.485,4.321l7.62,-4.465l4.724,-10.709l-3.045,-9.663l-19.233,-2.996l-6.432,7.782l-1.006,7.793l6.329,7.51l11.043,4.748Zm-36.987,-6.375l6.48,-6.129l-3.057,-12.703l-8.623,-2.491l-7.622,-1.458l-2.977,3.993l-3.5,-1.505l-5.378,1.098l-1.634,4.367l5.651,4.497l4.24,3.125l7.817,4.755l8.603,2.451Zm10.66,-25.764l10.639,-1.877l10.285,-7.689l-2.017,-7.71l-4.768,-5.754l-7.679,1.971l-4.985,5.448l-3.648,6.661l2.173,8.95Zm48.103,-4.723l8.068,-10.782l-1.706,-6.008l-8.575,-19.507c0,0 -7.897,6.006 -10.383,6.083c-2.485,0.078 -7.683,4.501 -7.683,4.501l3.152,9.371l8.6,6.18l8.527,10.162Zm-64.518,-7.172l-9.714,-5.527l1.146,-6.28l5.192,-3.041l4.056,1.744l4.47,4.478l-0.085,5.658l-5.065,2.968Zm30.283,-23.855l-5.042,5.49l-10.806,-0.858l-2.237,-4.75l-1.606,-8.245l10.344,-11.668l3.07,5.268l5.436,0.966l2.991,10.237l-2.15,3.56Zm-42.702,5.119l-7.47,-8.486l0.628,-15.55l4.862,-8.457l7.638,3.285l3.735,6.879l0.66,10.831l-10.053,11.498Zm93.013,-28.564l-2.662,11.269l-6.388,5.934l-14.945,-3.071l4.461,-15.019l10.415,-5.565l9.119,6.452Zm-32.485,4.32l7.62,-4.464l4.724,-10.709l-3.045,-9.663l-19.234,-2.996l-6.431,7.781l-1.006,7.794l6.329,7.509l11.043,4.748Zm-36.987,-6.374l6.48,-6.129l-3.057,-12.703l-8.623,-2.491l-7.622,-1.459l-2.977,3.994l-3.5,-1.505l-5.378,1.097l-1.634,4.368l5.651,4.497l4.24,3.124l7.816,4.756l8.604,2.451Zm10.66,-25.764l10.639,-1.878l10.284,-7.689l-2.016,-7.709l-4.769,-5.755l-7.679,1.972l-4.985,5.448l-3.648,6.661l2.174,8.95Zm48.102,-4.724l8.069,-10.782l-1.707,-6.007l-8.574,-19.507c0,0 -7.897,6.005 -10.383,6.083c-2.486,0.077 -7.683,4.501 -7.683,4.501l3.152,9.371l8.6,6.179l8.526,10.162Z" style="fill:#578d80;fill-opacity:0.7;"/></g><path d="M118.615,156.688l-7.47,-8.393l0.628,-15.381l4.862,-8.365l7.638,3.249l3.735,6.804l0.66,10.713l-10.053,11.373" style="fill:#61abb8;"/><clipPath id="_clip6"><path d="M118.615,156.688l-7.47,-8.393l0.628,-15.381l4.862,-8.365l7.638,3.249l3.735,6.804l0.66,10.713l-10.053,11.373"/></clipPath><g clip-path="url(#_clip6)"><path d="M129.091,265.902l-9.713,-5.527l1.146,-6.28l5.191,-3.042l4.056,1.744l4.471,4.478l-0.085,5.659l-5.066,2.968Zm30.284,-23.855l-5.042,5.49l-10.806,-0.858l-2.238,-4.75l-1.605,-8.245l10.343,-11.669l3.071,5.269l5.436,0.965l2.99,10.238l-2.149,3.56Zm-42.702,5.119l-7.471,-8.486l0.629,-15.55l4.861,-8.457l7.639,3.284l3.734,6.879l0.66,10.831l-10.052,11.499Zm93.012,-28.565l-2.662,11.269l-6.387,5.934l-14.945,-3.07l4.461,-15.019l10.414,-5.566l9.119,6.452Zm-32.485,4.321l7.62,-4.465l4.724,-10.709l-3.045,-9.663l-19.233,-2.996l-6.432,7.782l-1.006,7.793l6.329,7.51l11.043,4.748Zm-36.987,-6.375l6.48,-6.129l-3.057,-12.703l-8.623,-2.491l-7.622,-1.458l-2.977,3.993l-3.5,-1.505l-5.378,1.098l-1.634,4.367l5.651,4.497l4.24,3.125l7.817,4.755l8.603,2.451Zm10.66,-25.764l10.639,-1.877l10.285,-7.689l-2.017,-7.71l-4.768,-5.754l-7.679,1.971l-4.985,5.448l-3.648,6.661l2.173,8.95Zm48.103,-4.723l8.068,-10.782l-1.706,-6.008l-8.575,-19.507c0,0 -7.897,6.006 -10.383,6.083c-2.485,0.078 -7.683,4.501 -7.683,4.501l3.152,9.371l8.6,6.18l8.527,10.162Zm-64.518,-7.172l-9.714,-5.527l1.146,-6.28l5.192,-3.041l4.056,1.744l4.47,4.478l-0.085,5.658l-5.065,2.968Zm30.283,-23.855l-5.042,5.49l-10.806,-0.858l-2.237,-4.75l-1.606,-8.245l10.344,-11.668l3.07,5.268l5.436,0.966l2.991,10.237l-2.15,3.56Zm-42.702,5.119l-7.47,-8.486l0.628,-15.55l4.862,-8.457l7.638,3.285l3.735,6.879l0.66,10.831l-10.053,11.498Zm93.013,-28.564l-2.662,11.269l-6.388,5.934l-14.945,-3.071l4.461,-15.019l10.415,-5.565l9.119,6.452Zm-32.485,4.32l7.62,-4.464l4.724,-10.709l-3.045,-9.663l-19.234,-2.996l-6.431,7.781l-1.006,7.794l6.329,7.509l11.043,4.748Zm-36.987,-6.374l6.48,-6.129l-3.057,-12.703l-8.623,-2.491l-7.622,-1.459l-2.977,3.994l-3.5,-1.505l-5.378,1.097l-1.634,4.368l5.651,4.497l4.24,3.124l7.816,4.756l8.604,2.451Zm10.66,-25.764l10.639,-1.878l10.284,-7.689l-2.016,-7.709l-4.769,-5.755l-7.679,1.972l-4.985,5.448l-3.648,6.661l2.174,8.95Zm48.102,-4.724l8.069,-10.782l-1.707,-6.007l-8.574,-19.507c0,0 -7.897,6.005 -10.383,6.083c-2.486,0.077 -7.683,4.501 -7.683,4.501l3.152,9.371l8.6,6.179l8.526,10.162Z" style="fill:#578d80;fill-opacity:0.7;"/></g><path d="M131.034,175.219l-9.713,-5.466l1.145,-6.212l5.192,-3.008l4.056,1.725l4.47,4.429l-0.084,5.597l-5.066,2.935Z" style="fill:#61abb8;"/><clipPath id="_clip7"><path d="M131.034,175.219l-9.713,-5.466l1.145,-6.212l5.192,-3.008l4.056,1.725l4.47,4.429l-0.084,5.597l-5.066,2.935Z"/></clipPath><g clip-path="url(#_clip7)"><path d="M129.091,265.902l-9.713,-5.527l1.146,-6.28l5.191,-3.042l4.056,1.744l4.471,4.478l-0.085,5.659l-5.066,2.968Zm30.284,-23.855l-5.042,5.49l-10.806,-0.858l-2.238,-4.75l-1.605,-8.245l10.343,-11.669l3.071,5.269l5.436,0.965l2.99,10.238l-2.149,3.56Zm-42.702,5.119l-7.471,-8.486l0.629,-15.55l4.861,-8.457l7.639,3.284l3.734,6.879l0.66,10.831l-10.052,11.499Zm93.012,-28.565l-2.662,11.269l-6.387,5.934l-14.945,-3.07l4.461,-15.019l10.414,-5.566l9.119,6.452Zm-32.485,4.321l7.62,-4.465l4.724,-10.709l-3.045,-9.663l-19.233,-2.996l-6.432,7.782l-1.006,7.793l6.329,7.51l11.043,4.748Zm-36.987,-6.375l6.48,-6.129l-3.057,-12.703l-8.623,-2.491l-7.622,-1.458l-2.977,3.993l-3.5,-1.505l-5.378,1.098l-1.634,4.367l5.651,4.497l4.24,3.125l7.817,4.755l8.603,2.451Zm10.66,-25.764l10.639,-1.877l10.285,-7.689l-2.017,-7.71l-4.768,-5.754l-7.679,1.971l-4.985,5.448l-3.648,6.661l2.173,8.95Zm48.103,-4.723l8.068,-10.782l-1.706,-6.008l-8.575,-19.507c0,0 -7.897,6.006 -10.383,6.083c-2.485,0.078 -7.683,4.501 -7.683,4.501l3.152,9.371l8.6,6.18l8.527,10.162Zm-64.518,-7.172l-9.714,-5.527l1.146,-6.28l5.192,-3.041l4.056,1.744l4.47,4.478l-0.085,5.658l-5.065,2.968Zm30.283,-23.855l-5.042,5.49l-10.806,-0.858l-2.237,-4.75l-1.606,-8.245l10.344,-11.668l3.07,5.268l5.436,0.966l2.991,10.237l-2.15,3.56Zm-42.702,5.119l-7.47,-8.486l0.628,-15.55l4.862,-8.457l7.638,3.285l3.735,6.879l0.66,10.831l-10.053,11.498Zm93.013,-28.564l-2.662,11.269l-6.388,5.934l-14.945,-3.071l4.461,-15.019l10.415,-5.565l9.119,6.452Zm-32.485,4.32l7.62,-4.464l4.724,-10.709l-3.045,-9.663l-19.234,-2.996l-6.431,7.781l-1.006,7.794l6.329,7.509l11.043,4.748Zm-36.987,-6.374l6.48,-6.129l-3.057,-12.703l-8.623,-2.491l-7.622,-1.459l-2.977,3.994l-3.5,-1.505l-5.378,1.097l-1.634,4.368l5.651,4.497l4.24,3.124l7.816,4.756l8.604,2.451Zm10.66,-25.764l10.639,-1.878l10.284,-7.689l-2.016,-7.709l-4.769,-5.755l-7.679,1.972l-4.985,5.448l-3.648,6.661l2.174,8.95Zm48.102,-4.724l8.069,-10.782l-1.707,-6.007l-8.574,-19.507c0,0 -7.897,6.005 -10.383,6.083c-2.486,0.077 -7.683,4.501 -7.683,4.501l3.152,9.371l8.6,6.179l8.526,10.162Z" style="fill:#578d80;fill-opacity:0.7;"/></g><path d="M161.317,151.625l-5.042,5.43l-10.806,-0.849l-2.237,-4.698l-1.606,-8.155l10.344,-11.542l3.071,5.211l5.435,0.955l2.991,10.127l-2.15,3.521" style="fill:#61abb8;"/><clipPath id="_clip8"><path d="M161.317,151.625l-5.042,5.43l-10.806,-0.849l-2.237,-4.698l-1.606,-8.155l10.344,-11.542l3.071,5.211l5.435,0.955l2.991,10.127l-2.15,3.521"/></clipPath><g clip-path="url(#_clip8)"><path d="M129.091,265.902l-9.713,-5.527l1.146,-6.28l5.191,-3.042l4.056,1.744l4.471,4.478l-0.085,5.659l-5.066,2.968Zm30.284,-23.855l-5.042,5.49l-10.806,-0.858l-2.238,-4.75l-1.605,-8.245l10.343,-11.669l3.071,5.269l5.436,0.965l2.99,10.238l-2.149,3.56Zm-42.702,5.119l-7.471,-8.486l0.629,-15.55l4.861,-8.457l7.639,3.284l3.734,6.879l0.66,10.831l-10.052,11.499Zm93.012,-28.565l-2.662,11.269l-6.387,5.934l-14.945,-3.07l4.461,-15.019l10.414,-5.566l9.119,6.452Zm-32.485,4.321l7.62,-4.465l4.724,-10.709l-3.045,-9.663l-19.233,-2.996l-6.432,7.782l-1.006,7.793l6.329,7.51l11.043,4.748Zm-36.987,-6.375l6.48,-6.129l-3.057,-12.703l-8.623,-2.491l-7.622,-1.458l-2.977,3.993l-3.5,-1.505l-5.378,1.098l-1.634,4.367l5.651,4.497l4.24,3.125l7.817,4.755l8.603,2.451Zm10.66,-25.764l10.639,-1.877l10.285,-7.689l-2.017,-7.71l-4.768,-5.754l-7.679,1.971l-4.985,5.448l-3.648,6.661l2.173,8.95Zm48.103,-4.723l8.068,-10.782l-1.706,-6.008l-8.575,-19.507c0,0 -7.897,6.006 -10.383,6.083c-2.485,0.078 -7.683,4.501 -7.683,4.501l3.152,9.371l8.6,6.18l8.527,10.162Zm-64.518,-7.172l-9.714,-5.527l1.146,-6.28l5.192,-3.041l4.056,1.744l4.47,4.478l-0.085,5.658l-5.065,2.968Zm30.283,-23.855l-5.042,5.49l-10.806,-0.858l-2.237,-4.75l-1.606,-8.245l10.344,-11.668l3.07,5.268l5.436,0.966l2.991,10.237l-2.15,3.56Zm-42.702,5.119l-7.47,-8.486l0.628,-15.55l4.862,-8.457l7.638,3.285l3.735,6.879l0.66,10.831l-10.053,11.498Zm93.013,-28.564l-2.662,11.269l-6.388,5.934l-14.945,-3.071l4.461,-15.019l10.415,-5.565l9.119,6.452Zm-32.485,4.32l7.62,-4.464l4.724,-10.709l-3.045,-9.663l-19.234,-2.996l-6.431,7.781l-1.006,7.794l6.329,7.509l11.043,4.748Zm-36.987,-6.374l6.48,-6.129l-3.057,-12.703l-8.623,-2.491l-7.622,-1.459l-2.977,3.994l-3.5,-1.505l-5.378,1.097l-1.634,4.368l5.651,4.497l4.24,3.124l7.816,4.756l8.604,2.451Zm10.66,-25.764l10.639,-1.878l10.284,-7.689l-2.016,-7.709l-4.769,-5.755l-7.679,1.972l-4.985,5.448l-3.648,6.661l2.174,8.95Zm48.102,-4.724l8.069,-10.782l-1.707,-6.007l-8.574,-19.507c0,0 -7.897,6.005 -10.383,6.083c-2.486,0.077 -7.683,4.501 -7.683,4.501l3.152,9.371l8.6,6.179l8.526,10.162Z" style="fill:#578d80;fill-opacity:0.7;"/></g><path d="M142.156,126.403l6.48,-6.062l-3.057,-12.565l-8.623,-2.463l-7.622,-1.443l-2.977,3.95l-3.5,-1.489l-5.378,1.086l-1.634,4.32l5.651,4.447l4.24,3.091l7.816,4.704l8.604,2.424Z" style="fill:#61abb8;"/><clipPath id="_clip9"><path d="M142.156,126.403l6.48,-6.062l-3.057,-12.565l-8.623,-2.463l-7.622,-1.443l-2.977,3.95l-3.5,-1.489l-5.378,1.086l-1.634,4.32l5.651,4.447l4.24,3.091l7.816,4.704l8.604,2.424Z"/></clipPath><g clip-path="url(#_clip9)"><path d="M129.091,265.902l-9.713,-5.527l1.146,-6.28l5.191,-3.042l4.056,1.744l4.471,4.478l-0.085,5.659l-5.066,2.968Zm30.284,-23.855l-5.042,5.49l-10.806,-0.858l-2.238,-4.75l-1.605,-8.245l10.343,-11.669l3.071,5.269l5.436,0.965l2.99,10.238l-2.149,3.56Zm-42.702,5.119l-7.471,-8.486l0.629,-15.55l4.861,-8.457l7.639,3.284l3.734,6.879l0.66,10.831l-10.052,11.499Zm93.012,-28.565l-2.662,11.269l-6.387,5.934l-14.945,-3.07l4.461,-15.019l10.414,-5.566l9.119,6.452Zm-32.485,4.321l7.62,-4.465l4.724,-10.709l-3.045,-9.663l-19.233,-2.996l-6.432,7.782l-1.006,7.793l6.329,7.51l11.043,4.748Zm-36.987,-6.375l6.48,-6.129l-3.057,-12.703l-8.623,-2.491l-7.622,-1.458l-2.977,3.993l-3.5,-1.505l-5.378,1.098l-1.634,4.367l5.651,4.497l4.24,3.125l7.817,4.755l8.603,2.451Zm10.66,-25.764l10.639,-1.877l10.285,-7.689l-2.017,-7.71l-4.768,-5.754l-7.679,1.971l-4.985,5.448l-3.648,6.661l2.173,8.95Zm48.103,-4.723l8.068,-10.782l-1.706,-6.008l-8.575,-19.507c0,0 -7.897,6.006 -10.383,6.083c-2.485,0.078 -7.683,4.501 -7.683,4.501l3.152,9.371l8.6,6.18l8.527,10.162Zm-64.518,-7.172l-9.714,-5.527l1.146,-6.28l5.192,-3.041l4.056,1.744l4.47,4.478l-0.085,5.658l-5.065,2.968Zm30.283,-23.855l-5.042,5.49l-10.806,-0.858l-2.237,-4.75l-1.606,-8.245l10.344,-11.668l3.07,5.268l5.436,0.966l2.991,10.237l-2.15,3.56Zm-42.702,5.119l-7.47,-8.486l0.628,-15.55l4.862,-8.457l7.638,3.285l3.735,6.879l0.66,10.831l-10.053,11.498Zm93.013,-28.564l-2.662,11.269l-6.388,5.934l-14.945,-3.071l4.461,-15.019l10.415,-5.565l9.119,6.452Zm-32.485,4.32l7.62,-4.464l4.724,-10.709l-3.045,-9.663l-19.234,-2.996l-6.431,7.781l-1.006,7.794l6.329,7.509l11.043,4.748Zm-36.987,-6.374l6.48,-6.129l-3.057,-12.703l-8.623,-2.491l-7.622,-1.459l-2.977,3.994l-3.5,-1.505l-5.378,1.097l-1.634,4.368l5.651,4.497l4.24,3.124l7.816,4.756l8.604,2.451Zm10.66,-25.764l10.639,-1.878l10.284,-7.689l-2.016,-7.709l-4.769,-5.755l-7.679,1.972l-4.985,5.448l-3.648,6.661l2.174,8.95Zm48.102,-4.724l8.069,-10.782l-1.707,-6.007l-8.574,-19.507c0,0 -7.897,6.005 -10.383,6.083c-2.486,0.077 -7.683,4.501 -7.683,4.501l3.152,9.371l8.6,6.179l8.526,10.162Z" style="fill:#578d80;fill-opacity:0.7;"/></g><path d="M179.143,132.708l7.62,-4.416l4.724,-10.592l-3.045,-9.558l-19.234,-2.963l-6.431,7.697l-1.006,7.708l6.329,7.428l11.043,4.696Z" style="fill:#61abb8;"/><clipPath id="_clip10"><path d="M179.143,132.708l7.62,-4.416l4.724,-10.592l-3.045,-9.558l-19.234,-2.963l-6.431,7.697l-1.006,7.708l6.329,7.428l11.043,4.696Z"/></clipPath><g clip-path="url(#_clip10)"><path d="M129.091,265.902l-9.713,-5.527l1.146,-6.28l5.191,-3.042l4.056,1.744l4.471,4.478l-0.085,5.659l-5.066,2.968Zm30.284,-23.855l-5.042,5.49l-10.806,-0.858l-2.238,-4.75l-1.605,-8.245l10.343,-11.669l3.071,5.269l5.436,0.965l2.99,10.238l-2.149,3.56Zm-42.702,5.119l-7.471,-8.486l0.629,-15.55l4.861,-8.457l7.639,3.284l3.734,6.879l0.66,10.831l-10.052,11.499Zm93.012,-28.565l-2.662,11.269l-6.387,5.934l-14.945,-3.07l4.461,-15.019l10.414,-5.566l9.119,6.452Zm-32.485,4.321l7.62,-4.465l4.724,-10.709l-3.045,-9.663l-19.233,-2.996l-6.432,7.782l-1.006,7.793l6.329,7.51l11.043,4.748Zm-36.987,-6.375l6.48,-6.129l-3.057,-12.703l-8.623,-2.491l-7.622,-1.458l-2.977,3.993l-3.5,-1.505l-5.378,1.098l-1.634,4.367l5.651,4.497l4.24,3.125l7.817,4.755l8.603,2.451Zm10.66,-25.764l10.639,-1.877l10.285,-7.689l-2.017,-7.71l-4.768,-5.754l-7.679,1.971l-4.985,5.448l-3.648,6.661l2.173,8.95Zm48.103,-4.723l8.068,-10.782l-1.706,-6.008l-8.575,-19.507c0,0 -7.897,6.006 -10.383,6.083c-2.485,0.078 -7.683,4.501 -7.683,4.501l3.152,9.371l8.6,6.18l8.527,10.162Zm-64.518,-7.172l-9.714,-5.527l1.146,-6.28l5.192,-3.041l4.056,1.744l4.47,4.478l-0.085,5.658l-5.065,2.968Zm30.283,-23.855l-5.042,5.49l-10.806,-0.858l-2.237,-4.75l-1.606,-8.245l10.344,-11.668l3.07,5.268l5.436,0.966l2.991,10.237l-2.15,3.56Zm-42.702,5.119l-7.47,-8.486l0.628,-15.55l4.862,-8.457l7.638,3.285l3.735,6.879l0.66,10.831l-10.053,11.498Zm93.013,-28.564l-2.662,11.269l-6.388,5.934l-14.945,-3.071l4.461,-15.019l10.415,-5.565l9.119,6.452Zm-32.485,4.32l7.62,-4.464l4.724,-10.709l-3.045,-9.663l-19.234,-2.996l-6.431,7.781l-1.006,7.794l6.329,7.509l11.043,4.748Zm-36.987,-6.374l6.48,-6.129l-3.057,-12.703l-8.623,-2.491l-7.622,-1.459l-2.977,3.994l-3.5,-1.505l-5.378,1.097l-1.634,4.368l5.651,4.497l4.24,3.124l7.816,4.756l8.604,2.451Zm10.66,-25.764l10.639,-1.878l10.284,-7.689l-2.016,-7.709l-4.769,-5.755l-7.679,1.972l-4.985,5.448l-3.648,6.661l2.174,8.95Zm48.102,-4.724l8.069,-10.782l-1.707,-6.007l-8.574,-19.507c0,0 -7.897,6.005 -10.383,6.083c-2.486,0.077 -7.683,4.501 -7.683,4.501l3.152,9.371l8.6,6.179l8.526,10.162Z" style="fill:#578d80;fill-opacity:0.7;"/></g><path d="M200.918,96.248l8.069,-10.665l-1.707,-5.942l-8.574,-19.294c0,0 -7.897,5.94 -10.383,6.017c-2.486,0.076 -7.683,4.452 -7.683,4.452l3.152,9.269l8.6,6.112l8.526,10.051Z" style="fill:#61abb8;"/><clipPath id="_clip11"><path d="M200.918,96.248l8.069,-10.665l-1.707,-5.942l-8.574,-19.294c0,0 -7.897,5.94 -10.383,6.017c-2.486,0.076 -7.683,4.452 -7.683,4.452l3.152,9.269l8.6,6.112l8.526,10.051Z"/></clipPath><g clip-path="url(#_clip11)"><path d="M129.091,265.902l-9.713,-5.527l1.146,-6.28l5.191,-3.042l4.056,1.744l4.471,4.478l-0.085,5.659l-5.066,2.968Zm30.284,-23.855l-5.042,5.49l-10.806,-0.858l-2.238,-4.75l-1.605,-8.245l10.343,-11.669l3.071,5.269l5.436,0.965l2.99,10.238l-2.149,3.56Zm-42.702,5.119l-7.471,-8.486l0.629,-15.55l4.861,-8.457l7.639,3.284l3.734,6.879l0.66,10.831l-10.052,11.499Zm93.012,-28.565l-2.662,11.269l-6.387,5.934l-14.945,-3.07l4.461,-15.019l10.414,-5.566l9.119,6.452Zm-32.485,4.321l7.62,-4.465l4.724,-10.709l-3.045,-9.663l-19.233,-2.996l-6.432,7.782l-1.006,7.793l6.329,7.51l11.043,4.748Zm-36.987,-6.375l6.48,-6.129l-3.057,-12.703l-8.623,-2.491l-7.622,-1.458l-2.977,3.993l-3.5,-1.505l-5.378,1.098l-1.634,4.367l5.651,4.497l4.24,3.125l7.817,4.755l8.603,2.451Zm10.66,-25.764l10.639,-1.877l10.285,-7.689l-2.017,-7.71l-4.768,-5.754l-7.679,1.971l-4.985,5.448l-3.648,6.661l2.173,8.95Zm48.103,-4.723l8.068,-10.782l-1.706,-6.008l-8.575,-19.507c0,0 -7.897,6.006 -10.383,6.083c-2.485,0.078 -7.683,4.501 -7.683,4.501l3.152,9.371l8.6,6.18l8.527,10.162Zm-64.518,-7.172l-9.714,-5.527l1.146,-6.28l5.192,-3.041l4.056,1.744l4.47,4.478l-0.085,5.658l-5.065,2.968Zm30.283,-23.855l-5.042,5.49l-10.806,-0.858l-2.237,-4.75l-1.606,-8.245l10.344,-11.668l3.07,5.268l5.436,0.966l2.991,10.237l-2.15,3.56Zm-42.702,5.119l-7.47,-8.486l0.628,-15.55l4.862,-8.457l7.638,3.285l3.735,6.879l0.66,10.831l-10.053,11.498Zm93.013,-28.564l-2.662,11.269l-6.388,5.934l-14.945,-3.071l4.461,-15.019l10.415,-5.565l9.119,6.452Zm-32.485,4.32l7.62,-4.464l4.724,-10.709l-3.045,-9.663l-19.234,-2.996l-6.431,7.781l-1.006,7.794l6.329,7.509l11.043,4.748Zm-36.987,-6.374l6.48,-6.129l-3.057,-12.703l-8.623,-2.491l-7.622,-1.459l-2.977,3.994l-3.5,-1.505l-5.378,1.097l-1.634,4.368l5.651,4.497l4.24,3.124l7.816,4.756l8.604,2.451Zm10.66,-25.764l10.639,-1.878l10.284,-7.689l-2.016,-7.709l-4.769,-5.755l-7.679,1.972l-4.985,5.448l-3.648,6.661l2.174,8.95Zm48.102,-4.724l8.069,-10.782l-1.707,-6.007l-8.574,-19.507c0,0 -7.897,6.005 -10.383,6.083c-2.486,0.077 -7.683,4.501 -7.683,4.501l3.152,9.371l8.6,6.179l8.526,10.162Z" style="fill:#578d80;fill-opacity:0.7;"/></g><path d="M152.816,100.92l10.639,-1.857l10.284,-7.605l-2.016,-7.626l-4.769,-5.692l-7.679,1.951l-4.985,5.388l-3.648,6.588l2.174,8.853" style="fill:#61abb8;"/><clipPath id="_clip12"><path d="M152.816,100.92l10.639,-1.857l10.284,-7.605l-2.016,-7.626l-4.769,-5.692l-7.679,1.951l-4.985,5.388l-3.648,6.588l2.174,8.853"/></clipPath><g clip-path="url(#_clip12)"><path d="M129.091,265.902l-9.713,-5.527l1.146,-6.28l5.191,-3.042l4.056,1.744l4.471,4.478l-0.085,5.659l-5.066,2.968Zm30.284,-23.855l-5.042,5.49l-10.806,-0.858l-2.238,-4.75l-1.605,-8.245l10.343,-11.669l3.071,5.269l5.436,0.965l2.99,10.238l-2.149,3.56Zm-42.702,5.119l-7.471,-8.486l0.629,-15.55l4.861,-8.457l7.639,3.284l3.734,6.879l0.66,10.831l-10.052,11.499Zm93.012,-28.565l-2.662,11.269l-6.387,5.934l-14.945,-3.07l4.461,-15.019l10.414,-5.566l9.119,6.452Zm-32.485,4.321l7.62,-4.465l4.724,-10.709l-3.045,-9.663l-19.233,-2.996l-6.432,7.782l-1.006,7.793l6.329,7.51l11.043,4.748Zm-36.987,-6.375l6.48,-6.129l-3.057,-12.703l-8.623,-2.491l-7.622,-1.458l-2.977,3.993l-3.5,-1.505l-5.378,1.098l-1.634,4.367l5.651,4.497l4.24,3.125l7.817,4.755l8.603,2.451Zm10.66,-25.764l10.639,-1.877l10.285,-7.689l-2.017,-7.71l-4.768,-5.754l-7.679,1.971l-4.985,5.448l-3.648,6.661l2.173,8.95Zm48.103,-4.723l8.068,-10.782l-1.706,-6.008l-8.575,-19.507c0,0 -7.897,6.006 -10.383,6.083c-2.485,0.078 -7.683,4.501 -7.683,4.501l3.152,9.371l8.6,6.18l8.527,10.162Zm-64.518,-7.172l-9.714,-5.527l1.146,-6.28l5.192,-3.041l4.056,1.744l4.47,4.478l-0.085,5.658l-5.065,2.968Zm30.283,-23.855l-5.042,5.49l-10.806,-0.858l-2.237,-4.75l-1.606,-8.245l10.344,-11.668l3.07,5.268l5.436,0.966l2.991,10.237l-2.15,3.56Zm-42.702,5.119l-7.47,-8.486l0.628,-15.55l4.862,-8.457l7.638,3.285l3.735,6.879l0.66,10.831l-10.053,11.498Zm93.013,-28.564l-2.662,11.269l-6.388,5.934l-14.945,-3.071l4.461,-15.019l10.415,-5.565l9.119,6.452Zm-32.485,4.32l7.62,-4.464l4.724,-10.709l-3.045,-9.663l-19.234,-2.996l-6.431,7.781l-1.006,7.794l6.329,7.509l11.043,4.748Zm-36.987,-6.374l6.48,-6.129l-3.057,-12.703l-8.623,-2.491l-7.622,-1.459l-2.977,3.994l-3.5,-1.505l-5.378,1.097l-1.634,4.368l5.651,4.497l4.24,3.124l7.816,4.756l8.604,2.451Zm10.66,-25.764l10.639,-1.878l10.284,-7.689l-2.016,-7.709l-4.769,-5.755l-7.679,1.972l-4.985,5.448l-3.648,6.661l2.174,8.95Zm48.102,-4.724l8.069,-10.782l-1.707,-6.007l-8.574,-19.507c0,0 -7.897,6.005 -10.383,6.083c-2.486,0.077 -7.683,4.501 -7.683,4.501l3.152,9.371l8.6,6.179l8.526,10.162Z" style="fill:#578d80;fill-opacity:0.7;"/></g><path d="M211.628,128.434l-9.119,-6.381l-10.415,5.505l-4.461,14.855l14.945,3.037l6.388,-5.869l2.662,-11.147" style="fill:#61abb8;"/><clipPath id="_clip13"><path d="M211.628,128.434l-9.119,-6.381l-10.415,5.505l-4.461,14.855l14.945,3.037l6.388,-5.869l2.662,-11.147"/></clipPath><g clip-path="url(#_clip13)"><path d="M129.091,265.902l-9.713,-5.527l1.146,-6.28l5.191,-3.042l4.056,1.744l4.471,4.478l-0.085,5.659l-5.066,2.968Zm30.284,-23.855l-5.042,5.49l-10.806,-0.858l-2.238,-4.75l-1.605,-8.245l10.343,-11.669l3.071,5.269l5.436,0.965l2.99,10.238l-2.149,3.56Zm-42.702,5.119l-7.471,-8.486l0.629,-15.55l4.861,-8.457l7.639,3.284l3.734,6.879l0.66,10.831l-10.052,11.499Zm93.012,-28.565l-2.662,11.269l-6.387,5.934l-14.945,-3.07l4.461,-15.019l10.414,-5.566l9.119,6.452Zm-32.485,4.321l7.62,-4.465l4.724,-10.709l-3.045,-9.663l-19.233,-2.996l-6.432,7.782l-1.006,7.793l6.329,7.51l11.043,4.748Zm-36.987,-6.375l6.48,-6.129l-3.057,-12.703l-8.623,-2.491l-7.622,-1.458l-2.977,3.993l-3.5,-1.505l-5.378,1.098l-1.634,4.367l5.651,4.497l4.24,3.125l7.817,4.755l8.603,2.451Zm10.66,-25.764l10.639,-1.877l10.285,-7.689l-2.017,-7.71l-4.768,-5.754l-7.679,1.971l-4.985,5.448l-3.648,6.661l2.173,8.95Zm48.103,-4.723l8.068,-10.782l-1.706,-6.008l-8.575,-19.507c0,0 -7.897,6.006 -10.383,6.083c-2.485,0.078 -7.683,4.501 -7.683,4.501l3.152,9.371l8.6,6.18l8.527,10.162Zm-64.518,-7.172l-9.714,-5.527l1.146,-6.28l5.192,-3.041l4.056,1.744l4.47,4.478l-0.085,5.658l-5.065,2.968Zm30.283,-23.855l-5.042,5.49l-10.806,-0.858l-2.237,-4.75l-1.606,-8.245l10.344,-11.668l3.07,5.268l5.436,0.966l2.991,10.237l-2.15,3.56Zm-42.702,5.119l-7.47,-8.486l0.628,-15.55l4.862,-8.457l7.638,3.285l3.735,6.879l0.66,10.831l-10.053,11.498Zm93.013,-28.564l-2.662,11.269l-6.388,5.934l-14.945,-3.071l4.461,-15.019l10.415,-5.565l9.119,6.452Zm-32.485,4.32l7.62,-4.464l4.724,-10.709l-3.045,-9.663l-19.234,-2.996l-6.431,7.781l-1.006,7.794l6.329,7.509l11.043,4.748Zm-36.987,-6.374l6.48,-6.129l-3.057,-12.703l-8.623,-2.491l-7.622,-1.459l-2.977,3.994l-3.5,-1.505l-5.378,1.097l-1.634,4.368l5.651,4.497l4.24,3.124l7.816,4.756l8.604,2.451Zm10.66,-25.764l10.639,-1.878l10.284,-7.689l-2.016,-7.709l-4.769,-5.755l-7.679,1.972l-4.985,5.448l-3.648,6.661l2.174,8.95Zm48.102,-4.724l8.069,-10.782l-1.707,-6.007l-8.574,-19.507c0,0 -7.897,6.005 -10.383,6.083c-2.486,0.077 -7.683,4.501 -7.683,4.501l3.152,9.371l8.6,6.179l8.526,10.162Z" style="fill:#578d80;fill-opacity:0.7;"/></g></g></g><path d="M0.389,61.598l107.332,53.666l0,96.598l-107.332,-53.666l0,-96.598" style="fill:#4c646e;"/><clipPath id="_clip14"><path d="M0.389,61.598l107.332,53.666l0,96.598l-107.332,-53.666l0,-96.598"/></clipPath><g clip-path="url(#_clip14)"><path d="M5.882,233.575l-7.471,-8.946l0.629,-16.394l4.861,-8.916l7.639,3.463l3.734,7.252l0.66,11.419l-10.052,12.122" style="fill:#816b40;"/><path d="M48.584,228.178l-5.042,5.788l-10.806,-0.904l-2.238,-5.008l-1.605,-8.692l10.344,-12.302l3.07,5.554l5.436,1.018l2.99,10.793l-2.149,3.753" style="fill:#816b40;"/><path d="M29.422,201.295l6.48,-6.461l-3.056,-13.392l-8.623,-2.626l-7.623,-1.538l-2.976,4.21l-3.5,-1.586l-5.379,1.157l-1.633,4.604l5.65,4.741l4.241,3.294l7.816,5.014l8.603,2.583Z" style="fill:#816b40;"/><path d="M66.409,208.016l7.621,-4.707l4.723,-11.29l-3.045,-10.187l-19.233,-3.159l-6.432,8.204l-1.006,8.216l6.329,7.917l11.043,5.006Z" style="fill:#556176;"/><path d="M88.185,169.154l8.069,-11.367l-1.707,-6.333l-8.575,-20.566c0,0 -7.897,6.332 -10.382,6.413c-2.486,0.082 -7.683,4.746 -7.683,4.746l3.152,9.879l8.599,6.515l8.527,10.713Z" style="fill:#556176;"/><path d="M40.082,174.134l10.639,-1.98l10.285,-8.106l-2.017,-8.128l-4.768,-6.066l-7.679,2.078l-4.985,5.744l-3.648,7.022l2.173,9.436" style="fill:#556176;"/><path d="M106.081,191.379l-9.093,-6.35l-10.433,5.551l-4.516,14.884l14.93,2.979l6.408,-5.899l2.704,-11.165" style="fill:#556176;"/><path d="M11.248,141.841l-7.47,-8.946l0.628,-16.394l4.862,-8.916l7.639,3.463l3.734,7.252l0.66,11.419l-10.053,12.122" style="fill:#556176;"/><path d="M23.667,161.593l-9.713,-5.826l1.145,-6.621l5.192,-3.207l4.056,1.839l4.47,4.721l-0.084,5.965l-5.066,3.129Z" style="fill:#556176;"/><path d="M53.95,136.444l-5.042,5.788l-10.806,-0.904l-2.237,-5.008l-1.605,-8.692l10.343,-12.302l3.071,5.554l5.435,1.018l2.991,10.793l-2.15,3.753" style="fill:#556176;"/><path d="M34.789,109.561l6.48,-6.461l-3.057,-13.392l-8.623,-2.626l-7.622,-1.538l-2.977,4.21l-3.5,-1.586l-5.378,1.157l-1.634,4.604l5.651,4.741l4.24,3.294l7.816,5.013l8.604,2.584Z" style="fill:#556176;"/><path d="M71.776,116.282l7.62,-4.707l4.724,-11.29l-3.045,-10.187l-19.234,-3.159l-6.431,8.204l-1.006,8.216l6.329,7.917l11.043,5.006Z" style="fill:#556176;"/><path d="M93.551,77.42l8.069,-11.367l-1.706,-6.333l-8.575,-20.566c0,0 -7.897,6.332 -10.383,6.413c-2.486,0.082 -7.683,4.746 -7.683,4.746l3.152,9.879l8.6,6.515l8.526,10.713Z" style="fill:#816b40;"/><path d="M45.449,82.4l10.639,-1.98l10.285,-8.106l-2.017,-8.128l-4.769,-6.066l-7.679,2.078l-4.984,5.744l-3.648,7.022l2.173,9.436" style="fill:#816b40;"/><path d="M104.261,111.727l-9.119,-6.802l-10.414,5.867l-4.462,15.834l14.946,3.237l6.387,-6.256l2.662,-11.88" style="fill:#556176;"/><path d="M14.912,255.862l-9.713,-5.827l1.145,-6.621l5.192,-3.206l4.056,1.838l4.471,4.721l-0.085,5.966l-5.066,3.129Zm30.283,-25.15l-5.042,5.789l-10.805,-0.905l-2.238,-5.008l-1.605,-8.692l10.343,-12.302l3.071,5.554l5.435,1.018l2.991,10.794l-2.15,3.752Zm-42.701,5.397l-7.471,-8.946l0.629,-16.394l4.861,-8.915l7.639,3.462l3.734,7.252l0.66,11.419l-10.052,12.122Zm100.198,-42.196l-2.703,11.165l-6.408,5.899l-14.93,-2.979l4.516,-14.884l10.432,-5.551l9.093,6.35Zm-39.671,16.637l7.62,-4.707l4.724,-11.29l-3.045,-10.187l-19.233,-3.159l-6.432,8.204l-1.006,8.216l6.329,7.918l11.043,5.005Zm-36.987,-6.72l6.48,-6.462l-3.057,-13.392l-8.623,-2.626l-7.622,-1.538l-2.977,4.21l-3.5,-1.586l-5.378,1.157l-1.634,4.604l5.651,4.741l4.24,3.294l7.816,5.014l8.604,2.584Zm10.66,-27.162l10.639,-1.979l10.285,-8.107l-2.017,-8.128l-4.768,-6.066l-7.68,2.079l-4.984,5.743l-3.648,7.022l2.173,9.436Zm48.103,-4.98l8.068,-11.367l-1.706,-6.333l-8.575,-20.566c0,0 -7.897,6.332 -10.383,6.413c-2.486,0.082 -7.683,4.746 -7.683,4.746l3.152,9.879l8.6,6.515l8.527,10.713Zm-64.518,-7.56l-9.714,-5.827l1.146,-6.621l5.191,-3.206l4.057,1.838l4.47,4.721l-0.085,5.966l-5.065,3.129Zm30.283,-25.15l-5.042,5.789l-10.806,-0.905l-2.238,-5.008l-1.605,-8.692l10.344,-12.302l3.07,5.554l5.436,1.018l2.991,10.793l-2.15,3.753Zm-42.702,5.397l-7.471,-8.946l0.629,-16.394l4.861,-8.915l7.639,3.462l3.734,7.252l0.661,11.419l-10.053,12.122Zm93.013,-30.114l-2.663,11.88l-6.387,6.256l-14.945,-3.237l4.461,-15.834l10.414,-5.867l9.12,6.802Zm-32.486,4.555l7.621,-4.707l4.724,-11.29l-3.045,-10.187l-19.234,-3.159l-6.432,8.204l-1.005,8.216l6.328,7.918l11.043,5.005Zm-36.986,-6.72l6.48,-6.462l-3.057,-13.392l-8.623,-2.626l-7.622,-1.538l-2.977,4.21l-3.5,-1.586l-5.378,1.157l-1.634,4.604l5.651,4.741l4.24,3.294l7.816,5.014l8.604,2.584Zm10.659,-27.162l10.639,-1.979l10.285,-8.107l-2.016,-8.128l-4.769,-6.066l-7.679,2.079l-4.985,5.743l-3.648,7.022l2.173,9.436Zm48.103,-4.98l8.069,-11.367l-1.707,-6.333l-8.574,-20.566c0,0 -7.897,6.332 -10.383,6.413c-2.486,0.082 -7.683,4.746 -7.683,4.746l3.152,9.879l8.599,6.515l8.527,10.713Z" style="fill:#311807;fill-opacity:0.5;"/></g></g><g id="GrassBlank02"><path d="M215.052,61.598l0,26.833l-10.733,-16.1l0,16.1l-8.67,-4.335l4.332,15.49l-14.974,-22.965l0.45,7.746l-5.842,0.316l3.238,11.289l-1.845,14.848l-3.522,-12.352l-4.17,-5.269l1.51,16.757l-11.172,-11.926l3.099,25.284l-6.378,-5.412l-2.98,-10.001l-4.79,6.387l7.77,17.581l-8.606,-1.064l-10.552,-12.528l-12.03,-5.352l3.04,22.285l-10.106,-13.942l-14.4,20.829l-7.526,-23.07l-4.833,20.348l-9.108,-22.734l-8.08,10.682l0.213,18.707l-4.13,-4.471l-4.102,-18.245l-5.367,8.049l-5.366,13.417l-1.917,-17.058l-8.816,3.427l6.339,-10.968l4.394,-7.601l-8.851,9.793l-4.514,-13.843l-13.468,20.654l-5.367,-27.337l-8.823,20.512l-4.172,-24.747l5.659,-10.166l-14.13,3.668l-5.367,13.417l0,-42.933l107.332,-53.665l107.331,53.665Z" style="fill:#64a8e1;"/><clipPath id="_clip15"><path d="M215.052,61.598l0,26.833l-10.733,-16.1l0,16.1l-8.67,-4.335l4.332,15.49l-14.974,-22.965l0.45,7.746l-5.842,0.316l3.238,11.289l-1.845,14.848l-3.522,-12.352l-4.17,-5.269l1.51,16.757l-11.172,-11.926l3.099,25.284l-6.378,-5.412l-2.98,-10.001l-4.79,6.387l7.77,17.581l-8.606,-1.064l-10.552,-12.528l-12.03,-5.352l3.04,22.285l-10.106,-13.942l-14.4,20.829l-7.526,-23.07l-4.833,20.348l-9.108,-22.734l-8.08,10.682l0.213,18.707l-4.13,-4.471l-4.102,-18.245l-5.367,8.049l-5.366,13.417l-1.917,-17.058l-8.816,3.427l6.339,-10.968l4.394,-7.601l-8.851,9.793l-4.514,-13.843l-13.468,20.654l-5.367,-27.337l-8.823,20.512l-4.172,-24.747l5.659,-10.166l-14.13,3.668l-5.367,13.417l0,-42.933l107.332,-53.665l107.331,53.665Z"/></clipPath><g clip-path="url(#_clip15)"><path d="M107.721,115.264l0,45.683l-72.925,-1.647l-34.407,-47.117l0,-50.656l107.332,53.737Z" style="fill:#311807;fill-opacity:0.2;"/><path d="M215.052,115.264l0,-53.666l-107.331,53.666l0,53.665l107.331,-53.665Z" style="fill:#febc3b;fill-opacity:0.2;"/><path d="M215.052,61.598l-2.246,14.977l-10.613,-8.547l-3.241,12.353l-6.985,-1.874l-12.71,-4.378l-1.771,6.252l3.708,14.246c0,0 -16.03,-13.515 -14.441,-8.879c1.589,4.636 5.366,16.209 5.366,16.209l-10.733,-8.159l2.683,22.807l-10.352,-15.909l-3.064,11.571l0,10.942l-16.099,-15.995l-7.941,1.396l-0.548,15.826l-7.611,-7.329l-5.367,14.518l-5.366,-0.262l-7.79,-14.628l-5.219,8.124l-10.144,-14.119l-14.413,12.574l-10.733,5.366l2.547,-22.74l-13.28,12.007l-7.129,-14.297l-6.252,15.621l-8.086,-17.424l-13.381,6.691l13.381,-22.79c0,0 -0.374,-1.702 -2.747,-1.374c-2.374,0.328 -18.719,1.374 -18.719,1.374l-5.367,2.683l-0.071,-26.868l107.331,-53.666l107.403,53.701Z" style="fill:#5899c0;fill-opacity:0.5;"/></g><g><path d="M168.597,73.688l1.313,6.538l1.79,-5.901l2.415,3.402l1.693,-4.383l4.46,-1.265l-2.676,-3.262l-0.254,-13.092l-3.77,12.032l-2.423,-11.087l-1.728,6.618l-3.66,-5.156l-0.331,6.595l0.375,4.647l-4.36,-1.445l4.32,4.828l-4.375,6.345l4.997,-1.467l0.739,1.725l1.475,-5.672" style="fill:#3c4693;"/><clipPath id="_clip16"><path d="M168.597,73.688l1.313,6.538l1.79,-5.901l2.415,3.402l1.693,-4.383l4.46,-1.265l-2.676,-3.262l-0.254,-13.092l-3.77,12.032l-2.423,-11.087l-1.728,6.618l-3.66,-5.156l-0.331,6.595l0.375,4.647l-4.36,-1.445l4.32,4.828l-4.375,6.345l4.997,-1.467l0.739,1.725l1.475,-5.672"/></clipPath><g clip-path="url(#_clip16)"><path d="M177.338,55.725l-1.716,12.399l0.858,2.21l-2.068,2.456l-0.966,-4.789l1.31,-7.098l-2.891,-5.153l-0.848,-0.518l0.703,15.655l-2.408,-7.762l-0.909,-5.437l-2.536,0l2.185,12.401l-3.523,-1.131l-2.575,-5.411l-2.152,1.692l1.733,3.069l-0.238,14.207l5.327,-2.552l1.896,3.509l1.776,-1.901l0.61,-2.23l5.375,-1.138l4.771,-6.292l-2.738,-12.75l-0.976,-3.436" style="fill:#64a8e1;"/></g><path d="M73.26,84.989l2.066,6.538l2.815,-5.901l3.799,3.402l2.665,-4.383l7.016,-1.265l-4.209,-3.262l-0.401,-13.092l-5.93,12.033l-3.813,-11.087l-2.719,6.617l-5.758,-5.156l-0.521,6.595l0.59,4.647l-6.859,-1.444l6.797,4.827l-6.883,6.345l7.861,-1.467l1.163,1.725l2.321,-5.672" style="fill:#3c4693;"/><clipPath id="_clip17"><path d="M73.26,84.989l2.066,6.538l2.815,-5.901l3.799,3.402l2.665,-4.383l7.016,-1.265l-4.209,-3.262l-0.401,-13.092l-5.93,12.033l-3.813,-11.087l-2.719,6.617l-5.758,-5.156l-0.521,6.595l0.59,4.647l-6.859,-1.444l6.797,4.827l-6.883,6.345l7.861,-1.467l1.163,1.725l2.321,-5.672"/></clipPath><g clip-path="url(#_clip17)"><path d="M87.011,67.026l-2.7,12.399l1.351,2.21l-3.254,2.456l-1.52,-4.788l2.061,-7.098l-4.549,-5.154l-1.333,-0.517l1.105,15.654l-3.789,-7.762l-1.429,-5.437l-3.99,0l3.438,12.401l-5.543,-1.131l-4.052,-5.411l-3.385,1.693l2.728,3.069l-0.376,14.207l8.381,-2.553l2.983,3.509l2.795,-1.901l0.959,-2.23l8.457,-1.138l7.506,-6.292l-4.308,-12.75l-1.536,-3.436" style="fill:#64a8e1;"/></g><path d="M55.411,36.139l2.397,1.446l-3.523,-13.597l5.644,9.509l2.932,-4.832l1.645,5.573l3.316,-3.873l2.242,-1.748l2.544,10.944l2.683,-1.343l-0.206,8.401l1.981,4.529c0,0 -2.464,1.014 -3.112,1.868c-0.648,0.855 1.15,3.263 -1.559,2.221c-2.709,-1.041 -3.738,-0.681 -5.062,-2.391c-1.324,-1.709 -2.565,-3.245 -2.565,-3.245l-3.787,0.34c0,0 -1.408,-3.654 -1.882,0.169c-0.474,3.823 -3.506,-3.317 -3.506,-3.317l-3.209,-6.688l3.027,-3.966Z" style="fill:#3c4693;"/><clipPath id="_clip18"><path d="M55.411,36.139l2.397,1.446l-3.523,-13.597l5.644,9.509l2.932,-4.832l1.645,5.573l3.316,-3.873l2.242,-1.748l2.544,10.944l2.683,-1.343l-0.206,8.401l1.981,4.529c0,0 -2.464,1.014 -3.112,1.868c-0.648,0.855 1.15,3.263 -1.559,2.221c-2.709,-1.041 -3.738,-0.681 -5.062,-2.391c-1.324,-1.709 -2.565,-3.245 -2.565,-3.245l-3.787,0.34c0,0 -1.408,-3.654 -1.882,0.169c-0.474,3.823 -3.506,-3.317 -3.506,-3.317l-3.209,-6.688l3.027,-3.966Z"/></clipPath><g clip-path="url(#_clip18)"><path d="M76.123,35.941l-2.315,8.553l-4.591,-1.613l4.448,-6.719l-3.343,-8.384l-3.401,12.198l-3.186,0.13l0.768,-5.994l-2.002,-7.891l-0.821,13.298l-1.759,-6.524l-1.411,-3.662l-3.32,-6.103l3.91,16.099l-1.182,-0.207l-0.886,0.69l-3.574,1.653l-3.529,3.147c0,0 5.698,1.884 10.227,2.111c3.357,0.167 5.755,-1.38 6.378,-1.062c0.677,0.346 0.748,6.145 2.884,8.954c2.478,3.26 7.009,3.564 7.009,3.564l2.011,-9.805l-2.315,-12.433" style="fill:#64a8e1;"/></g><g><path d="M97.358,89.426l3.607,11.009l0.81,6.221l-4.538,0.119l0.121,-17.349Z" style="fill:#64a8e1;"/><path d="M93.952,103.17l3.285,3.605l0.062,-17.268l-3.347,13.663Z" style="fill:#3c4693;"/></g><g><path d="M11.121,47.598l3.608,11.009l0.809,6.221l-4.537,0.118l0.12,-17.348Z" style="fill:#64a8e1;"/><path d="M7.716,61.341l3.285,3.605l0.062,-17.267l-3.347,13.662Z" style="fill:#3c4693;"/></g><g><path d="M148.692,70.113l3.608,11.009l0.809,6.221l-4.538,0.118l0.121,-17.348Z" style="fill:#64a8e1;"/><path d="M145.287,83.856l3.284,3.605l0.063,-17.267l-3.347,13.662Z" style="fill:#3c4693;"/></g><path d="M126.914,75.025l5.998,16.111l-3.886,2.813l-5.17,-0.226l-5.879,2.94l-3.93,-2.587l-2.832,-1.705l-4.257,-12.303l3.198,2.718l3.891,3.764l-0.755,-7.017l3.215,6.135l1.996,4.629l1.087,-9.457l-1.61,-4.175l4.98,8.591l0.72,4.822l1.624,-0.837l1.61,-14.216Z" style="fill:#3c4693;"/><clipPath id="_clip19"><path d="M126.914,75.025l5.998,16.111l-3.886,2.813l-5.17,-0.226l-5.879,2.94l-3.93,-2.587l-2.832,-1.705l-4.257,-12.303l3.198,2.718l3.891,3.764l-0.755,-7.017l3.215,6.135l1.996,4.629l1.087,-9.457l-1.61,-4.175l4.98,8.591l0.72,4.822l1.624,-0.837l1.61,-14.216Z"/></clipPath><g clip-path="url(#_clip19)"><path d="M126.839,72.759l2.216,16.719l-4.386,-0.555l-1.709,-12.781l-5.427,0.3l3.384,9.99l0.411,4.351l-2.825,-0.486l-1.57,-8.128l-3.97,-2.472l3.42,8.452l-0.142,3.279l-1.44,-2.056c-0.255,-1.668 -0.94,-3.371 -2.055,-5.11l-6.623,-5.602l4.866,7.207l0.694,3.383l1.588,2.888l3.669,1.834l1.563,1.75c0,0 2.531,2.882 3.825,2.999c1.293,0.118 7.056,-0.059 8.408,-0.588c1.352,-0.529 6.611,-3.888 6.611,-3.888l-3.184,-11.778l-7.324,-9.708Z" style="fill:#64a8e1;"/></g><path d="M113.087,3.348l4.084,14.058l3.456,-4.922l-0.593,10.437l3.786,-11.987l1.589,7.719l3.778,-9.153l0,5.495c0,0 1.647,3.813 2.793,2.403c4.748,-5.841 2.307,1.622 2.574,2.049c1.143,1.835 0,2.542 0,2.542l0.878,2.386c0,0 -2.063,-1.386 -0.878,1.361c1.184,2.748 3.425,5.385 1.867,5.378c-1.558,-0.007 -3.542,-2.188 -5.941,2.024c-0.363,0.637 -1.293,1.466 -1.293,1.466c0,0 -2.767,1.4 -4.103,1.574c-1.336,0.175 -0.903,1.292 -2.993,0.234c-2.09,-1.059 -3.186,-2.807 -3.637,-1.308c-0.452,1.498 -2.112,2.07 -2.112,2.07l-4.335,0.552l-0.656,-1.311c0,0 -3.01,-0.723 -5.798,0.731c-2.788,1.455 -4.412,4.202 -4.412,0.83c0,-3.372 -0.434,-3.253 -0.434,-3.253c0,0 0.003,-2.729 -1.592,-2.923c-1.596,-0.194 -4.903,-0.324 -4.903,-0.324l2.776,-2.367c0,0 -4.739,-3.297 -6.413,-3.772c-1.674,-0.475 -4.321,0.649 -4.321,0.649l2.363,2.692c0,0 -1.512,-1.543 -2.363,-1.181c-0.85,0.363 -4.097,-0.512 -4.097,-0.512l-1.269,-2.171c0,0 0.394,-0.576 1.643,-2.2c1.249,-1.624 1.999,-2.498 1.999,-2.498l0.125,-1.374l-1.869,-5.61l-0.548,-5.093l6.675,10.054l0.018,-8.034l3.717,6.185l0.874,-9.742l3.466,11.616c0,0 1.301,2.58 1.666,-0.521c0.364,-3.102 1.645,-9.91 1.645,-9.91l3.07,-4.847l-1.015,16.607l4.158,-2.079l1.209,-16.704l1.887,20.523l1.775,-4.693l1.704,2.953l0,-16.099Z" style="fill:#3c4693;"/><clipPath id="_clip20"><path d="M113.087,3.348l4.084,14.058l3.456,-4.922l-0.593,10.437l3.786,-11.987l1.589,7.719l3.778,-9.153l0,5.495c0,0 1.647,3.813 2.793,2.403c4.748,-5.841 2.307,1.622 2.574,2.049c1.143,1.835 0,2.542 0,2.542l0.878,2.386c0,0 -2.063,-1.386 -0.878,1.361c1.184,2.748 3.425,5.385 1.867,5.378c-1.558,-0.007 -3.542,-2.188 -5.941,2.024c-0.363,0.637 -1.293,1.466 -1.293,1.466c0,0 -2.767,1.4 -4.103,1.574c-1.336,0.175 -0.903,1.292 -2.993,0.234c-2.09,-1.059 -3.186,-2.807 -3.637,-1.308c-0.452,1.498 -2.112,2.07 -2.112,2.07l-4.335,0.552l-0.656,-1.311c0,0 -3.01,-0.723 -5.798,0.731c-2.788,1.455 -4.412,4.202 -4.412,0.83c0,-3.372 -0.434,-3.253 -0.434,-3.253c0,0 0.003,-2.729 -1.592,-2.923c-1.596,-0.194 -4.903,-0.324 -4.903,-0.324l2.776,-2.367c0,0 -4.739,-3.297 -6.413,-3.772c-1.674,-0.475 -4.321,0.649 -4.321,0.649l2.363,2.692c0,0 -1.512,-1.543 -2.363,-1.181c-0.85,0.363 -4.097,-0.512 -4.097,-0.512l-1.269,-2.171c0,0 0.394,-0.576 1.643,-2.2c1.249,-1.624 1.999,-2.498 1.999,-2.498l0.125,-1.374l-1.869,-5.61l-0.548,-5.093l6.675,10.054l0.018,-8.034l3.717,6.185l0.874,-9.742l3.466,11.616c0,0 1.301,2.58 1.666,-0.521c0.364,-3.102 1.645,-9.91 1.645,-9.91l3.07,-4.847l-1.015,16.607l4.158,-2.079l1.209,-16.704l1.887,20.523l1.775,-4.693l1.704,2.953l0,-16.099Z"/></clipPath><g clip-path="url(#_clip20)"><path d="M136.997,12.859l-4.116,6.541l-3.694,0.128l1.776,-10.36l-1.776,-0.703l-3.55,15.44l-1.817,-3.866l2.411,-9.4l-3.58,-1.34l-1.025,17.455l-2.358,0.336l0.423,-15.074l-2.541,-2.848l-0.038,12.291l-8.211,-17.726l2.813,23.149l12.106,13.045l14.931,-7.648l-1.754,-19.42Z" style="fill:#64a8e1;"/><path d="M104.21,7.113l-2.494,4.669l-1.41,8.689l-4.473,0.135l1.155,-3.069l1.339,-9.145l-3.325,-2.557l-1.645,14.48l-1.736,-2.33l0.506,-9.524l-1.765,0.883l-0.604,10.431l-2.046,-1.535l-0.907,-11.934l-2.802,2.726l1.663,9.464l-2.794,1.943l-8.514,6.476c0,0 11.061,5.503 12.559,6.28c1.498,0.776 8.852,7.427 8.852,7.427l13.173,2.364l4.145,-5.689l-8.618,-2.808l-1.282,-1.981l1.669,-1.526l4.516,-0.891l-3.435,-4.561l5.479,3.815l0.98,3.795l0.691,-4.54l-3.377,-3.325l-1.989,-3.709l1.669,-13.11l0.463,-8.858l-2.693,0.786l-1.25,11.919l0.475,7.6l-1.596,0.762l-0.579,-13.552Z" style="fill:#64a8e1;"/></g><path d="M46.563,49.882l3.108,9.476l2.63,-3.318l-0.451,7.036l2.881,-8.08l1.209,5.203l2.875,-6.17l0,3.704c0,0 1.253,2.571 2.125,1.62c3.613,-3.938 1.756,1.093 1.959,1.381c0.87,1.237 0,1.714 0,1.714l0.668,1.608c0,0 -1.57,-0.935 -0.668,0.918c0.901,1.852 2.606,3.629 1.421,3.625c-1.186,-0.005 -2.696,-1.475 -4.521,1.364c-0.276,0.429 -0.984,0.988 -0.984,0.988c0,0 -2.106,0.944 -3.123,1.061c-1.017,0.118 -0.686,0.871 -2.277,0.158c-1.591,-0.714 -2.424,-1.892 -2.768,-0.882c-0.344,1.01 -1.607,1.396 -1.607,1.396l-3.299,0.372l-0.499,-0.884c0,0 -2.291,-0.488 -4.412,0.493c-2.122,0.98 -3.357,2.832 -3.357,0.559c0,-2.273 -0.331,-2.193 -0.331,-2.193c0,0 0.003,-1.839 -1.211,-1.97c-1.215,-0.13 -3.731,-0.219 -3.731,-0.219l2.112,-1.595c0,0 -3.606,-2.223 -4.88,-2.543c-1.274,-0.32 -3.288,0.438 -3.288,0.438l1.798,1.815c0,0 -1.151,-1.041 -1.798,-0.797c-0.647,0.245 -3.118,-0.345 -3.118,-0.345l-0.966,-1.463c0,0 0.301,-0.389 1.251,-1.483c0.951,-1.095 1.521,-1.684 1.521,-1.684l0.095,-0.926l-1.422,-3.782l-0.417,-3.433l5.08,6.778l0.013,-5.416l2.829,4.169l0.665,-6.567l2.637,7.83c0,0 0.991,1.74 1.268,-0.351c0.277,-2.091 1.252,-6.68 1.252,-6.68l2.336,-3.267l-0.772,11.194l3.164,-1.401l0.92,-11.26l1.435,13.834l1.351,-3.164l1.297,1.991l0,-10.852Z" style="fill:#3c4693;"/><clipPath id="_clip21"><path d="M46.563,49.882l3.108,9.476l2.63,-3.318l-0.451,7.036l2.881,-8.08l1.209,5.203l2.875,-6.17l0,3.704c0,0 1.253,2.571 2.125,1.62c3.613,-3.938 1.756,1.093 1.959,1.381c0.87,1.237 0,1.714 0,1.714l0.668,1.608c0,0 -1.57,-0.935 -0.668,0.918c0.901,1.852 2.606,3.629 1.421,3.625c-1.186,-0.005 -2.696,-1.475 -4.521,1.364c-0.276,0.429 -0.984,0.988 -0.984,0.988c0,0 -2.106,0.944 -3.123,1.061c-1.017,0.118 -0.686,0.871 -2.277,0.158c-1.591,-0.714 -2.424,-1.892 -2.768,-0.882c-0.344,1.01 -1.607,1.396 -1.607,1.396l-3.299,0.372l-0.499,-0.884c0,0 -2.291,-0.488 -4.412,0.493c-2.122,0.98 -3.357,2.832 -3.357,0.559c0,-2.273 -0.331,-2.193 -0.331,-2.193c0,0 0.003,-1.839 -1.211,-1.97c-1.215,-0.13 -3.731,-0.219 -3.731,-0.219l2.112,-1.595c0,0 -3.606,-2.223 -4.88,-2.543c-1.274,-0.32 -3.288,0.438 -3.288,0.438l1.798,1.815c0,0 -1.151,-1.041 -1.798,-0.797c-0.647,0.245 -3.118,-0.345 -3.118,-0.345l-0.966,-1.463c0,0 0.301,-0.389 1.251,-1.483c0.951,-1.095 1.521,-1.684 1.521,-1.684l0.095,-0.926l-1.422,-3.782l-0.417,-3.433l5.08,6.778l0.013,-5.416l2.829,4.169l0.665,-6.567l2.637,7.83c0,0 0.991,1.74 1.268,-0.351c0.277,-2.091 1.252,-6.68 1.252,-6.68l2.336,-3.267l-0.772,11.194l3.164,-1.401l0.92,-11.26l1.435,13.834l1.351,-3.164l1.297,1.991l0,-10.852Z"/></clipPath><g clip-path="url(#_clip21)"><path d="M64.758,56.293l-3.132,4.409l-2.811,0.087l1.351,-6.984l-1.351,-0.474l-2.701,10.408l-1.383,-2.606l1.834,-6.336l-2.724,-0.904l-0.78,11.767l-1.794,0.226l0.322,-10.161l-1.934,-1.92l-0.029,8.286l-6.249,-11.95l2.142,15.605l9.212,8.793l11.362,-5.155l-1.335,-13.091Z" style="fill:#64a8e1;"/><path d="M39.808,52.42l-1.898,3.147l-1.073,5.857l-3.403,0.092l0.878,-2.069l1.019,-6.165l-2.53,-1.724l-1.252,9.761l-1.321,-1.571l0.385,-6.419l-1.343,0.595l-0.459,7.031l-1.558,-1.034l-0.69,-8.045l-2.132,1.837l1.265,6.38l-2.126,1.31l-6.479,4.365c0,0 8.418,3.71 9.558,4.233c1.14,0.524 6.736,5.007 6.736,5.007l10.024,1.593l3.154,-3.835l-6.558,-1.892l-0.975,-1.336l1.27,-1.029l3.436,-0.6l-2.614,-3.074l4.169,2.571l0.746,2.558l0.526,-3.06l-2.57,-2.242l-1.513,-2.5l1.27,-8.836l0.352,-5.972l-2.049,0.53l-0.952,8.034l0.362,5.123l-1.215,0.514l-0.44,-9.135Z" style="fill:#64a8e1;"/></g><path d="M150.418,29.734l-0.777,-6.569l6.088,5.826l1.977,2.253l-1.185,-6.695l3.375,-1.688l3.739,3.255l-0.051,5.426l3.02,1.909l3.207,-5.224c0,0 0.07,-2.31 0.839,-0.301c0.769,2.009 1.673,7.835 1.673,7.835l0.089,2.836l3.226,-5.046c0,0 0.975,0.243 0.788,1.277c-0.186,1.034 -0.379,8.282 -0.379,8.282l1.8,1.29l2.149,0.782l4.338,3.422c0,0 -0.849,2.703 -2.663,2.715c-1.815,0.012 -6.975,1.619 -6.975,1.619c0,0 -1.801,1.324 -4.046,0.963c-2.245,-0.36 -6.665,-1.767 -6.665,-1.767c0,0 -2.712,-0.904 -4.319,-2.41c-1.607,-1.507 -0.716,-3.791 -2.97,-2.8c-2.253,0.992 -5.491,4.561 -5.491,4.561c0,0 -0.759,1.008 -3.13,-0.779c-2.371,-1.786 -3.175,-2.69 -3.175,-2.69l-0.589,-1.177c0,0 0.959,1.013 -0.683,0.341c-1.641,-0.671 -5.239,3.649 -5.349,1.74c-0.109,-1.908 3.13,-4.77 3.017,-5.649c-0.113,-0.88 2.401,-0.171 2.401,-0.171l-2.149,-3.749l-4.595,-5.018l5.373,1.36l1.133,-3.48l3.671,1.078l1.742,5.675l2.511,4.337l0.448,-5.935l-2.511,-3.515l1.098,-4.119Z" style="fill:#3c4693;"/><clipPath id="_clip22"><path d="M150.418,29.734l-0.777,-6.569l6.088,5.826l1.977,2.253l-1.185,-6.695l3.375,-1.688l3.739,3.255l-0.051,5.426l3.02,1.909l3.207,-5.224c0,0 0.07,-2.31 0.839,-0.301c0.769,2.009 1.673,7.835 1.673,7.835l0.089,2.836l3.226,-5.046c0,0 0.975,0.243 0.788,1.277c-0.186,1.034 -0.379,8.282 -0.379,8.282l1.8,1.29l2.149,0.782l4.338,3.422c0,0 -0.849,2.703 -2.663,2.715c-1.815,0.012 -6.975,1.619 -6.975,1.619c0,0 -1.801,1.324 -4.046,0.963c-2.245,-0.36 -6.665,-1.767 -6.665,-1.767c0,0 -2.712,-0.904 -4.319,-2.41c-1.607,-1.507 -0.716,-3.791 -2.97,-2.8c-2.253,0.992 -5.491,4.561 -5.491,4.561c0,0 -0.759,1.008 -3.13,-0.779c-2.371,-1.786 -3.175,-2.69 -3.175,-2.69l-0.589,-1.177c0,0 0.959,1.013 -0.683,0.341c-1.641,-0.671 -5.239,3.649 -5.349,1.74c-0.109,-1.908 3.13,-4.77 3.017,-5.649c-0.113,-0.88 2.401,-0.171 2.401,-0.171l-2.149,-3.749l-4.595,-5.018l5.373,1.36l1.133,-3.48l3.671,1.078l1.742,5.675l2.511,4.337l0.448,-5.935l-2.511,-3.515l1.098,-4.119Z"/></clipPath><g clip-path="url(#_clip22)"><path d="M176.276,32.436l-4.327,15.019c3.04,-0.207 5.308,0.493 6.794,2.112l5.792,-0.862l-1.746,5.338l-8.093,-0.402c0,0 -2.556,-6.391 -2.414,-4.602c0.141,1.79 0.613,5.406 -1.632,7.314c-2.245,1.909 -4.542,0.75 -4.046,-0.429c0.495,-1.178 0,-4.046 0,-4.046l0,-1.953l-1.861,-3.023l-2.186,4.529l0,2.47l-1.803,-4.948l0.375,-2.43l0.109,-4.101c0,0 1.912,-5.72 0.672,-4.382c-1.239,1.337 -8.107,7.438 -8.107,7.438l-0.428,4.922l-2.957,4.648l0,-7.936l-2.505,-3.114l-5.587,1.909l-4.96,6.629l-1.01,-1.719l1.923,-6.116l3.564,-10.354l4.956,8.901l1.58,-0.482l2.039,1.019l1.769,-0.884l4.141,-8.299l0.23,4.161l1.953,-3.07l2.142,-1.071l-2.142,4.622l6.108,-4.544l0.104,1.933l0.87,4.753l1.011,2.399l1.928,0.965l0.805,1.715l-0.093,2.687l1.406,-5.254l1.718,-7.041l1.261,-3.306l-2.979,-7.974l-2.268,15.051l-1.778,-10.392l-1.011,-4.419l-3.795,-4.666l-1.94,3.076l2.699,9.443l-7.371,-7.732l-2.049,-2.231l-2.719,-1.808l3.112,12.238l-0.551,4.322l-2.561,1.28l0,-2.411l-4.046,-6.796l-2.761,1.757l3.765,10.783l-0.577,0.176l-19.862,-7.954l17.918,29.988l44.628,-1.964l1.399,-12.489l-14.606,-18.393Z" style="fill:#64a8e1;"/></g><path d="M96.856,60.028l-2.327,-12.397l11.042,9.822l6.821,-6.933l-1.299,8.666l5.521,-10.207l2.165,6.817l6.032,-8.084l2.846,11.437l3.085,-9.507l2.436,7.422l9.309,-4.826l-5.656,10.376l-3.653,6.961c0,0 -6.341,-1.878 -7.954,-3.004c-1.613,-1.126 -2.272,-1.061 -4.428,-0.66c-2.157,0.401 -6.031,1.364 -9.703,1.845c-3.672,0.482 -9.628,2.354 -9.628,2.354l-5.645,-0.428c0,0 2.677,1.926 0,0c-2.677,-1.926 -4.554,-3.424 -4.554,-3.424l-6.119,-2.311l6.466,-0.428l5.243,-3.491Z" style="fill:#3c4693;"/><clipPath id="_clip23"><path d="M96.856,60.028l-2.327,-12.397l11.042,9.822l6.821,-6.933l-1.299,8.666l5.521,-10.207l2.165,6.817l6.032,-8.084l2.846,11.437l3.085,-9.507l2.436,7.422l9.309,-4.826l-5.656,10.376l-3.653,6.961c0,0 -6.341,-1.878 -7.954,-3.004c-1.613,-1.126 -2.272,-1.061 -4.428,-0.66c-2.157,0.401 -6.031,1.364 -9.703,1.845c-3.672,0.482 -9.628,2.354 -9.628,2.354l-5.645,-0.428c0,0 2.677,1.926 0,0c-2.677,-1.926 -4.554,-3.424 -4.554,-3.424l-6.119,-2.311l6.466,-0.428l5.243,-3.491Z"/></clipPath><g clip-path="url(#_clip23)"><path d="M144.221,51.579l-7.732,6.735l-3.311,2.92c0,0 -0.121,-6.863 0,-6.863c0.121,0 -2.368,-6.543 -2.368,-6.543l-0.506,12.32l-2.647,1.06l0,-7.414l-2.966,-8.277l-2.556,13.573l-4.07,-3.564l2.531,-7.385l-3.982,-0.221l-2.542,10.269l-2.979,3.045l3.214,-9.555l-1.58,-2.339l-4.115,8.66l-3.041,2.823l3.418,-8.725l-14.46,-5.461l6.559,14.989l-8.555,-1.724l-16.218,3.906l9.31,8.661l11.489,0.168l7.179,-8.835c0,0 -0.664,0.149 3.526,0.366c4.191,0.218 11.54,0.188 11.54,0.188l0.978,1.728l8.343,5.19l13.427,-0.9l2.114,-18.795Z" style="fill:#64a8e1;"/></g></g></g></g></svg>