<?xml version="1.0" encoding="UTF-8" standalone="no"?><!DOCTYPE svg PUBLIC "-//W3C//DTD SVG 1.1//EN" "http://www.w3.org/Graphics/SVG/1.1/DTD/svg11.dtd"><svg width="100%" height="100%" viewBox="0 0 216 139" version="1.1" xmlns="http://www.w3.org/2000/svg" xmlns:xlink="http://www.w3.org/1999/xlink" xml:space="preserve" xmlns:serif="http://www.serif.com/" style="fill-rule:evenodd;clip-rule:evenodd;stroke-linejoin:round;stroke-miterlimit:1.41421;"><g id="GrassBlank03"><path d="M215.228,54.243l0,26.833l-10.733,-16.1l0,16.1l-8.67,-4.335l4.333,15.489l-14.975,-22.964l0.451,7.746l-5.843,0.316l3.238,11.289l-1.845,14.847l-3.521,-12.351l-4.171,-5.269l1.51,16.757l-11.172,-11.926l3.099,25.283l-6.377,-5.411l-2.981,-10.001l-4.789,6.387l7.77,17.581l-8.606,-1.064l-10.553,-12.528l-12.03,-5.352l3.041,22.285l-10.106,-13.942l-14.401,20.828l-7.526,-23.069l-4.833,20.348l-9.107,-22.734l-8.081,10.682l0.214,18.707l-4.131,-4.471l-4.102,-18.246l-5.366,8.05l-5.367,13.417l-1.917,-17.058l-8.816,3.427l6.339,-10.968l4.394,-7.601l-8.851,9.792l-4.514,-13.842l-13.468,20.654l-5.366,-27.337l-8.824,20.512l-4.172,-24.747l5.66,-10.166l-14.13,3.668l-5.367,13.417l0,-42.933l107.331,-53.666l107.331,53.666Z" style="fill:#64a8e1;"/><clipPath id="_clip1"><path d="M215.228,54.243l0,26.833l-10.733,-16.1l0,16.1l-8.67,-4.335l4.333,15.489l-14.975,-22.964l0.451,7.746l-5.843,0.316l3.238,11.289l-1.845,14.847l-3.521,-12.351l-4.171,-5.269l1.51,16.757l-11.172,-11.926l3.099,25.283l-6.377,-5.411l-2.981,-10.001l-4.789,6.387l7.77,17.581l-8.606,-1.064l-10.553,-12.528l-12.03,-5.352l3.041,22.285l-10.106,-13.942l-14.401,20.828l-7.526,-23.069l-4.833,20.348l-9.107,-22.734l-8.081,10.682l0.214,18.707l-4.131,-4.471l-4.102,-18.246l-5.366,8.05l-5.367,13.417l-1.917,-17.058l-8.816,3.427l6.339,-10.968l4.394,-7.601l-8.851,9.792l-4.514,-13.842l-13.468,20.654l-5.366,-27.337l-8.824,20.512l-4.172,-24.747l5.66,-10.166l-14.13,3.668l-5.367,13.417l0,-42.933l107.331,-53.666l107.331,53.666Z"/></clipPath><g clip-path="url(#_clip1)"><path d="M107.897,107.909l0,45.683l-72.924,-1.647l-34.407,-47.118l0,-50.655l107.331,53.737Z" style="fill:#311807;fill-opacity:0.2;"/><path d="M215.228,107.909l0,-53.666l-107.331,53.666l0,53.665l107.331,-53.665Z" style="fill:#febc3b;fill-opacity:0.2;"/><path d="M215.228,54.243l-2.246,14.977l-10.612,-8.548l-3.241,12.354l-6.985,-1.874l-12.71,-4.378l-1.771,6.252l3.708,14.245c0,0 -16.03,-13.514 -14.442,-8.878c1.589,4.635 5.367,16.208 5.367,16.208l-10.733,-8.159l2.682,22.808l-10.352,-15.909l-3.063,11.571l0,10.942l-16.1,-15.995l-7.94,1.396l-0.548,15.826l-7.612,-7.33l-5.366,14.519l-5.367,-0.262l-7.789,-14.628l-5.22,8.124l-10.143,-14.119l-14.414,12.573l-10.733,5.367l2.547,-22.74l-13.28,12.007l-7.128,-14.297l-6.253,15.621l-8.085,-17.424l-13.381,6.691l13.381,-22.79c0,0 -0.374,-1.702 -2.748,-1.374c-2.373,0.328 -18.718,1.374 -18.718,1.374l-5.367,2.683l-0.071,-26.869l107.331,-53.665l107.402,53.701Z" style="fill:#5899c0;fill-opacity:0.5;"/><path d="M107.862,11.328c0,0 22.197,6.625 42.968,16.082c23.225,10.575 41.514,16.966 42.932,26.833c0.689,4.791 -63.107,40.332 -85.9,42.95c-20.083,2.307 -85.219,-38.894 -85.83,-42.95c-1.173,-7.792 74.909,-45.097 85.83,-42.915Z" style="fill:#3c4693;fill-opacity:0.428571;"/><path d="M101.911,26.111c26.612,1.03 30.819,-0.225 41.015,5.822c7.745,4.594 16.418,12.432 15.956,18.381c-1.128,14.522 -25.736,33.178 -42.182,33.93c-7.738,0.353 -23.906,-4.985 -32.666,-7.315c-9.861,-2.623 -20.102,-16.125 -23.281,-20.659c-12.359,-17.628 5.936,-31.521 41.158,-30.159Z" style="fill:#3c4693;fill-opacity:0.5;"/></g></g></svg>