<?xml version="1.0" encoding="UTF-8" standalone="no"?><!DOCTYPE svg PUBLIC "-//W3C//DTD SVG 1.1//EN" "http://www.w3.org/Graphics/SVG/1.1/DTD/svg11.dtd"><svg width="100%" height="100%" viewBox="0 0 216 146" version="1.1" xmlns="http://www.w3.org/2000/svg" xmlns:xlink="http://www.w3.org/1999/xlink" xml:space="preserve" xmlns:serif="http://www.serif.com/" style="fill-rule:evenodd;clip-rule:evenodd;stroke-linejoin:round;stroke-miterlimit:1.41421;"><g id="GrassBlank02"><path d="M215.037,61.507l0,26.833l-10.733,-16.1l0,16.1l-8.67,-4.335l4.333,15.489l-14.975,-22.964l0.451,7.746l-5.843,0.316l3.238,11.289l-1.845,14.848l-3.521,-12.352l-4.171,-5.269l1.51,16.757l-11.172,-11.926l3.099,25.284l-6.377,-5.412l-2.981,-10.001l-4.789,6.387l7.77,17.581l-8.606,-1.064l-10.553,-12.528l-12.03,-5.352l3.041,22.285l-10.106,-13.942l-14.401,20.829l-7.526,-23.07l-4.833,20.348l-9.107,-22.734l-8.081,10.682l0.214,18.707l-4.131,-4.471l-4.102,-18.245l-5.366,8.049l-5.367,13.417l-1.917,-17.058l-8.816,3.427l6.34,-10.968l4.393,-7.601l-8.851,9.793l-4.514,-13.843l-13.468,20.654l-5.366,-27.337l-8.824,20.512l-4.172,-24.747l5.66,-10.166l-14.13,3.668l-5.367,13.417l0,-42.933l107.331,-53.666l107.331,53.666Z" style="fill:#e18764;"/><clipPath id="_clip1"><path d="M215.037,61.507l0,26.833l-10.733,-16.1l0,16.1l-8.67,-4.335l4.333,15.489l-14.975,-22.964l0.451,7.746l-5.843,0.316l3.238,11.289l-1.845,14.848l-3.521,-12.352l-4.171,-5.269l1.51,16.757l-11.172,-11.926l3.099,25.284l-6.377,-5.412l-2.981,-10.001l-4.789,6.387l7.77,17.581l-8.606,-1.064l-10.553,-12.528l-12.03,-5.352l3.041,22.285l-10.106,-13.942l-14.401,20.829l-7.526,-23.07l-4.833,20.348l-9.107,-22.734l-8.081,10.682l0.214,18.707l-4.131,-4.471l-4.102,-18.245l-5.366,8.049l-5.367,13.417l-1.917,-17.058l-8.816,3.427l6.34,-10.968l4.393,-7.601l-8.851,9.793l-4.514,-13.843l-13.468,20.654l-5.366,-27.337l-8.824,20.512l-4.172,-24.747l5.66,-10.166l-14.13,3.668l-5.367,13.417l0,-42.933l107.331,-53.666l107.331,53.666Z"/></clipPath><g clip-path="url(#_clip1)"><path d="M107.706,115.173l0,45.683l-72.924,-1.647l-34.407,-47.118l0,-50.655l107.331,53.737Z" style="fill:#311807;fill-opacity:0.2;"/><path d="M215.037,115.173l0,-53.666l-107.331,53.666l0,53.665l107.331,-53.665Z" style="fill:#febc3b;fill-opacity:0.2;"/><path d="M215.037,61.507l-2.246,14.977l-10.612,-8.547l-3.241,12.353l-6.985,-1.874l-12.71,-4.378l-1.771,6.252l3.708,14.246c0,0 -16.03,-13.515 -14.442,-8.879c1.589,4.636 5.367,16.208 5.367,16.208l-10.733,-8.159l2.682,22.808l-10.352,-15.909l-3.063,11.571l0,10.942l-16.1,-15.995l-7.94,1.396l-0.548,15.826l-7.612,-7.329l-5.366,14.518l-5.367,-0.262l-7.789,-14.628l-5.22,8.124l-10.143,-14.119l-14.414,12.574l-10.733,5.366l2.547,-22.74l-13.28,12.007l-7.128,-14.297l-6.253,15.621l-8.085,-17.424l-13.381,6.691l13.381,-22.79c0,0 -0.374,-1.702 -2.748,-1.374c-2.373,0.328 -18.718,1.374 -18.718,1.374l-5.367,2.683l-0.071,-26.869l107.331,-53.665l107.402,53.701Z" style="fill:#985736;fill-opacity:0.5;"/></g><g><path d="M168.583,73.597l1.313,6.538l1.789,-5.901l2.415,3.402l1.694,-4.383l4.459,-1.265l-2.675,-3.262l-0.255,-13.092l-3.769,12.032l-2.424,-11.087l-1.728,6.618l-3.66,-5.156l-0.331,6.595l0.375,4.647l-4.36,-1.445l4.321,4.828l-4.375,6.345l4.996,-1.467l0.74,1.725l1.475,-5.672" style="fill:#7d262d;"/><clipPath id="_clip2"><path d="M168.583,73.597l1.313,6.538l1.789,-5.901l2.415,3.402l1.694,-4.383l4.459,-1.265l-2.675,-3.262l-0.255,-13.092l-3.769,12.032l-2.424,-11.087l-1.728,6.618l-3.66,-5.156l-0.331,6.595l0.375,4.647l-4.36,-1.445l4.321,4.828l-4.375,6.345l4.996,-1.467l0.74,1.725l1.475,-5.672"/></clipPath><g clip-path="url(#_clip2)"><path d="M177.323,55.634l-1.716,12.399l0.859,2.21l-2.068,2.456l-0.967,-4.789l1.31,-7.098l-2.891,-5.153l-0.847,-0.518l0.702,15.655l-2.408,-7.762l-0.908,-5.437l-2.537,0l2.185,12.401l-3.523,-1.131l-2.575,-5.411l-2.152,1.692l1.734,3.069l-0.238,14.207l5.326,-2.552l1.897,3.509l1.776,-1.901l0.609,-2.23l5.376,-1.138l4.771,-6.292l-2.738,-12.75l-0.977,-3.436" style="fill:#e18764;"/></g><path d="M73.245,84.898l2.066,6.538l2.815,-5.901l3.8,3.402l2.664,-4.383l7.017,-1.265l-4.21,-3.262l-0.4,-13.092l-5.931,12.033l-3.813,-11.087l-2.719,6.617l-5.758,-5.156l-0.521,6.595l0.591,4.647l-6.86,-1.445l6.797,4.828l-6.883,6.345l7.861,-1.467l1.164,1.725l2.32,-5.672" style="fill:#7d262d;"/><clipPath id="_clip3"><path d="M73.245,84.898l2.066,6.538l2.815,-5.901l3.8,3.402l2.664,-4.383l7.017,-1.265l-4.21,-3.262l-0.4,-13.092l-5.931,12.033l-3.813,-11.087l-2.719,6.617l-5.758,-5.156l-0.521,6.595l0.591,4.647l-6.86,-1.445l6.797,4.828l-6.883,6.345l7.861,-1.467l1.164,1.725l2.32,-5.672"/></clipPath><g clip-path="url(#_clip3)"><path d="M86.997,66.935l-2.7,12.399l1.35,2.21l-3.253,2.456l-1.521,-4.788l2.062,-7.098l-4.549,-5.154l-1.333,-0.518l1.105,15.655l-3.789,-7.762l-1.429,-5.437l-3.991,0l3.438,12.401l-5.543,-1.131l-4.051,-5.411l-3.386,1.693l2.728,3.068l-0.375,14.208l8.38,-2.553l2.984,3.509l2.794,-1.901l0.959,-2.23l8.458,-1.138l7.506,-6.292l-4.308,-12.75l-1.536,-3.436" style="fill:#e18764;"/></g><path d="M55.397,36.048l2.396,1.446l-3.522,-13.597l5.644,9.509l2.932,-4.832l1.644,5.573l3.317,-3.873l2.242,-1.748l2.543,10.944l2.683,-1.343l-0.205,8.401l1.98,4.529c0,0 -2.464,1.014 -3.112,1.868c-0.648,0.855 1.151,3.263 -1.558,2.221c-2.709,-1.041 -3.738,-0.681 -5.063,-2.391c-1.324,-1.709 -2.564,-3.245 -2.564,-3.245l-3.787,0.34c0,0 -1.409,-3.654 -1.883,0.169c-0.474,3.823 -3.505,-3.317 -3.505,-3.317l-3.21,-6.688l3.028,-3.966Z" style="fill:#7d262d;"/><clipPath id="_clip4"><path d="M55.397,36.048l2.396,1.446l-3.522,-13.597l5.644,9.509l2.932,-4.832l1.644,5.573l3.317,-3.873l2.242,-1.748l2.543,10.944l2.683,-1.343l-0.205,8.401l1.98,4.529c0,0 -2.464,1.014 -3.112,1.868c-0.648,0.855 1.151,3.263 -1.558,2.221c-2.709,-1.041 -3.738,-0.681 -5.063,-2.391c-1.324,-1.709 -2.564,-3.245 -2.564,-3.245l-3.787,0.34c0,0 -1.409,-3.654 -1.883,0.169c-0.474,3.823 -3.505,-3.317 -3.505,-3.317l-3.21,-6.688l3.028,-3.966Z"/></clipPath><g clip-path="url(#_clip4)"><path d="M76.109,35.85l-2.316,8.553l-4.591,-1.613l4.449,-6.72l-3.344,-8.383l-3.401,12.198l-3.185,0.13l0.768,-5.994l-2.002,-7.892l-0.822,13.299l-1.759,-6.524l-1.411,-3.662l-3.319,-6.103l3.91,16.099l-1.182,-0.207l-0.887,0.69l-3.573,1.653l-3.53,3.147c0,0 5.698,1.884 10.227,2.11c3.358,0.168 5.756,-1.379 6.378,-1.061c0.678,0.346 0.748,6.145 2.884,8.954c2.478,3.26 7.01,3.564 7.01,3.564l2.01,-9.805l-2.314,-12.433" style="fill:#e18764;"/></g><g><path d="M97.343,89.335l3.608,11.009l0.809,6.221l-4.537,0.118l0.12,-17.348Z" style="fill:#e18764;"/><path d="M93.938,103.078l3.285,3.605l0.062,-17.267l-3.347,13.662Z" style="fill:#7d262d;"/></g><g><path d="M11.107,47.507l3.607,11.009l0.81,6.221l-4.538,0.118l0.121,-17.348Z" style="fill:#e18764;"/><path d="M7.701,61.25l3.285,3.605l0.062,-17.267l-3.347,13.662Z" style="fill:#7d262d;"/></g><g><path d="M148.677,70.022l3.608,11.009l0.81,6.221l-4.538,0.118l0.12,-17.348Z" style="fill:#e18764;"/><path d="M145.272,83.765l3.285,3.605l0.062,-17.267l-3.347,13.662Z" style="fill:#7d262d;"/></g><path d="M126.9,74.934l5.997,16.111l-3.885,2.813l-5.17,-0.226l-5.88,2.94l-3.93,-2.587l-2.832,-1.705l-4.256,-12.303l3.198,2.718l3.89,3.764l-0.755,-7.018l3.215,6.136l1.997,4.629l1.087,-9.457l-1.611,-4.175l4.981,8.591l0.72,4.822l1.623,-0.837l1.611,-14.216Z" style="fill:#7d262d;"/><clipPath id="_clip5"><path d="M126.9,74.934l5.997,16.111l-3.885,2.813l-5.17,-0.226l-5.88,2.94l-3.93,-2.587l-2.832,-1.705l-4.256,-12.303l3.198,2.718l3.89,3.764l-0.755,-7.018l3.215,6.136l1.997,4.629l1.087,-9.457l-1.611,-4.175l4.981,8.591l0.72,4.822l1.623,-0.837l1.611,-14.216Z"/></clipPath><g clip-path="url(#_clip5)"><path d="M126.825,72.668l2.215,16.719l-4.386,-0.555l-1.708,-12.781l-5.428,0.299l3.384,9.991l0.412,4.351l-2.825,-0.486l-1.571,-8.128l-3.97,-2.472l3.42,8.452l-0.141,3.279l-1.44,-2.056c-0.256,-1.668 -0.941,-3.371 -2.055,-5.11l-6.623,-5.602l4.865,7.207l0.695,3.383l1.588,2.888l3.669,1.834l1.563,1.75c0,0 2.531,2.882 3.824,2.999c1.294,0.118 7.056,-0.059 8.409,-0.588c1.352,-0.529 6.611,-3.888 6.611,-3.888l-3.184,-11.778l-7.324,-9.708Z" style="fill:#e18764;"/></g><path d="M113.073,3.256l4.083,14.059l3.456,-4.922l-0.592,10.437l3.786,-11.987l1.589,7.719l3.777,-9.153l0,5.495c0,0 1.648,3.813 2.794,2.403c4.748,-5.841 2.307,1.622 2.573,2.049c1.143,1.835 0,2.542 0,2.542l0.878,2.386c0,0 -2.062,-1.387 -0.878,1.361c1.184,2.748 3.425,5.385 1.868,5.378c-1.558,-0.007 -3.543,-2.188 -5.941,2.024c-0.363,0.637 -1.294,1.466 -1.294,1.466c0,0 -2.767,1.4 -4.103,1.574c-1.336,0.175 -0.902,1.292 -2.993,0.234c-2.09,-1.059 -3.185,-2.807 -3.637,-1.308c-0.451,1.498 -2.111,2.07 -2.111,2.07l-4.335,0.552l-0.656,-1.311c0,0 -3.011,-0.723 -5.799,0.731c-2.788,1.455 -4.411,4.202 -4.411,0.83c0,-3.372 -0.435,-3.253 -0.435,-3.253c0,0 0.004,-2.729 -1.592,-2.923c-1.595,-0.194 -4.902,-0.324 -4.902,-0.324l2.775,-2.368c0,0 -4.739,-3.296 -6.413,-3.771c-1.673,-0.475 -4.32,0.649 -4.32,0.649l2.362,2.692c0,0 -1.512,-1.544 -2.362,-1.181c-0.85,0.362 -4.098,-0.512 -4.098,-0.512l-1.269,-2.171c0,0 0.395,-0.577 1.644,-2.2c1.249,-1.624 1.998,-2.498 1.998,-2.498l0.125,-1.374l-1.868,-5.611l-0.548,-5.092l6.675,10.054l0.018,-8.034l3.717,6.185l0.874,-9.742l3.465,11.615c0,0 1.302,2.581 1.666,-0.52c0.364,-3.102 1.646,-9.911 1.646,-9.911l3.07,-4.846l-1.015,16.607l4.157,-2.079l1.209,-16.704l1.887,20.523l1.775,-4.693l1.705,2.953l0,-16.1Z" style="fill:#7d262d;"/><clipPath id="_clip6"><path d="M113.073,3.256l4.083,14.059l3.456,-4.922l-0.592,10.437l3.786,-11.987l1.589,7.719l3.777,-9.153l0,5.495c0,0 1.648,3.813 2.794,2.403c4.748,-5.841 2.307,1.622 2.573,2.049c1.143,1.835 0,2.542 0,2.542l0.878,2.386c0,0 -2.062,-1.387 -0.878,1.361c1.184,2.748 3.425,5.385 1.868,5.378c-1.558,-0.007 -3.543,-2.188 -5.941,2.024c-0.363,0.637 -1.294,1.466 -1.294,1.466c0,0 -2.767,1.4 -4.103,1.574c-1.336,0.175 -0.902,1.292 -2.993,0.234c-2.09,-1.059 -3.185,-2.807 -3.637,-1.308c-0.451,1.498 -2.111,2.07 -2.111,2.07l-4.335,0.552l-0.656,-1.311c0,0 -3.011,-0.723 -5.799,0.731c-2.788,1.455 -4.411,4.202 -4.411,0.83c0,-3.372 -0.435,-3.253 -0.435,-3.253c0,0 0.004,-2.729 -1.592,-2.923c-1.595,-0.194 -4.902,-0.324 -4.902,-0.324l2.775,-2.368c0,0 -4.739,-3.296 -6.413,-3.771c-1.673,-0.475 -4.32,0.649 -4.32,0.649l2.362,2.692c0,0 -1.512,-1.544 -2.362,-1.181c-0.85,0.362 -4.098,-0.512 -4.098,-0.512l-1.269,-2.171c0,0 0.395,-0.577 1.644,-2.2c1.249,-1.624 1.998,-2.498 1.998,-2.498l0.125,-1.374l-1.868,-5.611l-0.548,-5.092l6.675,10.054l0.018,-8.034l3.717,6.185l0.874,-9.742l3.465,11.615c0,0 1.302,2.581 1.666,-0.52c0.364,-3.102 1.646,-9.911 1.646,-9.911l3.07,-4.846l-1.015,16.607l4.157,-2.079l1.209,-16.704l1.887,20.523l1.775,-4.693l1.705,2.953l0,-16.1Z"/></clipPath><g clip-path="url(#_clip6)"><path d="M136.982,12.768l-4.115,6.541l-3.695,0.128l1.776,-10.36l-1.776,-0.703l-3.549,15.44l-1.817,-3.866l2.41,-9.4l-3.58,-1.34l-1.024,17.455l-2.358,0.336l0.422,-15.074l-2.54,-2.848l-0.039,12.291l-8.211,-17.726l2.814,23.149l12.106,13.045l14.931,-7.648l-1.755,-19.42Z" style="fill:#e18764;"/><path d="M104.196,7.022l-2.494,4.669l-1.41,8.689l-4.473,0.135l1.154,-3.069l1.34,-9.145l-3.325,-2.558l-1.645,14.481l-1.736,-2.33l0.505,-9.524l-1.765,0.883l-0.603,10.431l-2.047,-1.535l-0.907,-11.934l-2.801,2.726l1.662,9.464l-2.794,1.943l-8.514,6.476c0,0 11.062,5.503 12.56,6.28c1.498,0.776 8.852,7.427 8.852,7.427l13.172,2.364l4.146,-5.689l-8.618,-2.808l-1.282,-1.981l1.669,-1.526l4.516,-0.891l-3.435,-4.561l5.478,3.815l0.98,3.795l0.692,-4.54l-3.378,-3.325l-1.989,-3.709l1.67,-13.11l0.463,-8.858l-2.694,0.786l-1.25,11.919l0.475,7.6l-1.596,0.762l-0.578,-13.552Z" style="fill:#e18764;"/></g><path d="M46.549,49.791l3.107,9.476l2.63,-3.318l-0.451,7.036l2.881,-8.08l1.209,5.203l2.875,-6.17l0,3.704c0,0 1.254,2.571 2.126,1.62c3.613,-3.938 1.755,1.093 1.958,1.381c0.87,1.237 0,1.714 0,1.714l0.668,1.608c0,0 -1.569,-0.935 -0.668,0.917c0.901,1.853 2.607,3.63 1.421,3.626c-1.185,-0.005 -2.695,-1.475 -4.521,1.364c-0.276,0.429 -0.984,0.988 -0.984,0.988c0,0 -2.106,0.944 -3.122,1.061c-1.017,0.118 -0.687,0.871 -2.278,0.158c-1.59,-0.714 -2.424,-1.892 -2.767,-0.882c-0.344,1.01 -1.607,1.396 -1.607,1.396l-3.299,0.372l-0.499,-0.884c0,0 -2.291,-0.488 -4.413,0.493c-2.121,0.98 -3.357,2.832 -3.357,0.559c0,-2.273 -0.33,-2.193 -0.33,-2.193c0,0 0.002,-1.84 -1.212,-1.97c-1.214,-0.131 -3.731,-0.219 -3.731,-0.219l2.112,-1.595c0,0 -3.606,-2.223 -4.879,-2.543c-1.274,-0.32 -3.288,0.438 -3.288,0.438l1.797,1.815c0,0 -1.15,-1.041 -1.797,-0.797c-0.647,0.245 -3.118,-0.345 -3.118,-0.345l-0.966,-1.463c0,0 0.3,-0.389 1.251,-1.483c0.95,-1.095 1.52,-1.684 1.52,-1.684l0.095,-0.926l-1.422,-3.782l-0.416,-3.433l5.079,6.778l0.014,-5.416l2.828,4.169l0.665,-6.567l2.637,7.83c0,0 0.991,1.74 1.268,-0.351c0.277,-2.091 1.252,-6.68 1.252,-6.68l2.337,-3.267l-0.773,11.194l3.164,-1.401l0.92,-11.26l1.436,13.834l1.351,-3.164l1.297,1.991l0,-10.852Z" style="fill:#7d262d;"/><clipPath id="_clip7"><path d="M46.549,49.791l3.107,9.476l2.63,-3.318l-0.451,7.036l2.881,-8.08l1.209,5.203l2.875,-6.17l0,3.704c0,0 1.254,2.571 2.126,1.62c3.613,-3.938 1.755,1.093 1.958,1.381c0.87,1.237 0,1.714 0,1.714l0.668,1.608c0,0 -1.569,-0.935 -0.668,0.917c0.901,1.853 2.607,3.63 1.421,3.626c-1.185,-0.005 -2.695,-1.475 -4.521,1.364c-0.276,0.429 -0.984,0.988 -0.984,0.988c0,0 -2.106,0.944 -3.122,1.061c-1.017,0.118 -0.687,0.871 -2.278,0.158c-1.59,-0.714 -2.424,-1.892 -2.767,-0.882c-0.344,1.01 -1.607,1.396 -1.607,1.396l-3.299,0.372l-0.499,-0.884c0,0 -2.291,-0.488 -4.413,0.493c-2.121,0.98 -3.357,2.832 -3.357,0.559c0,-2.273 -0.33,-2.193 -0.33,-2.193c0,0 0.002,-1.84 -1.212,-1.97c-1.214,-0.131 -3.731,-0.219 -3.731,-0.219l2.112,-1.595c0,0 -3.606,-2.223 -4.879,-2.543c-1.274,-0.32 -3.288,0.438 -3.288,0.438l1.797,1.815c0,0 -1.15,-1.041 -1.797,-0.797c-0.647,0.245 -3.118,-0.345 -3.118,-0.345l-0.966,-1.463c0,0 0.3,-0.389 1.251,-1.483c0.95,-1.095 1.52,-1.684 1.52,-1.684l0.095,-0.926l-1.422,-3.782l-0.416,-3.433l5.079,6.778l0.014,-5.416l2.828,4.169l0.665,-6.567l2.637,7.83c0,0 0.991,1.74 1.268,-0.351c0.277,-2.091 1.252,-6.68 1.252,-6.68l2.337,-3.267l-0.773,11.194l3.164,-1.401l0.92,-11.26l1.436,13.834l1.351,-3.164l1.297,1.991l0,-10.852Z"/></clipPath><g clip-path="url(#_clip7)"><path d="M64.743,56.202l-3.132,4.409l-2.811,0.087l1.352,-6.984l-1.352,-0.474l-2.701,10.408l-1.383,-2.606l1.835,-6.336l-2.725,-0.904l-0.779,11.766l-1.795,0.227l0.322,-10.161l-1.934,-1.92l-0.029,8.285l-6.248,-11.949l2.141,15.605l9.212,8.793l11.363,-5.155l-1.336,-13.091Z" style="fill:#e18764;"/><path d="M39.794,52.329l-1.898,3.147l-1.073,5.857l-3.404,0.092l0.878,-2.07l1.02,-6.164l-2.531,-1.724l-1.251,9.761l-1.321,-1.571l0.384,-6.419l-1.343,0.595l-0.459,7.031l-1.557,-1.034l-0.69,-8.045l-2.132,1.837l1.265,6.38l-2.126,1.31l-6.479,4.365c0,0 8.417,3.71 9.557,4.233c1.14,0.524 6.736,5.007 6.736,5.007l10.024,1.593l3.155,-3.835l-6.558,-1.892l-0.976,-1.336l1.27,-1.029l3.437,-0.6l-2.614,-3.074l4.169,2.571l0.746,2.558l0.526,-3.06l-2.57,-2.242l-1.514,-2.5l1.27,-8.837l0.353,-5.971l-2.05,0.53l-0.951,8.034l0.361,5.123l-1.214,0.514l-0.44,-9.135Z" style="fill:#e18764;"/></g><path d="M150.404,29.643l-0.777,-6.569l6.087,5.826l1.977,2.253l-1.185,-6.695l3.376,-1.688l3.738,3.255l-0.051,5.426l3.02,1.909l3.208,-5.224c0,0 0.07,-2.31 0.839,-0.301c0.768,2.009 1.672,7.835 1.672,7.835l0.089,2.836l3.226,-5.046c0,0 0.975,0.243 0.789,1.277c-0.186,1.034 -0.379,8.282 -0.379,8.282l1.8,1.29l2.149,0.782l4.337,3.422c0,0 -0.849,2.703 -2.663,2.715c-1.814,0.012 -6.974,1.619 -6.974,1.619c0,0 -1.802,1.324 -4.046,0.963c-2.245,-0.36 -6.665,-1.767 -6.665,-1.767c0,0 -2.712,-0.904 -4.319,-2.41c-1.608,-1.507 -0.717,-3.791 -2.97,-2.8c-2.254,0.992 -5.492,4.561 -5.492,4.561c0,0 -0.758,1.008 -3.129,-0.779c-2.372,-1.786 -3.175,-2.69 -3.175,-2.69l-0.589,-1.177c0,0 0.958,1.013 -0.683,0.341c-1.642,-0.671 -5.24,3.649 -5.349,1.74c-0.11,-1.908 3.129,-4.77 3.016,-5.649c-0.112,-0.88 2.402,-0.171 2.402,-0.171l-2.149,-3.75l-4.595,-5.017l5.372,1.36l1.134,-3.48l3.671,1.078l1.742,5.675l2.511,4.337l0.448,-5.935l-2.512,-3.515l1.099,-4.119Z" style="fill:#7d262d;"/><clipPath id="_clip8"><path d="M150.404,29.643l-0.777,-6.569l6.087,5.826l1.977,2.253l-1.185,-6.695l3.376,-1.688l3.738,3.255l-0.051,5.426l3.02,1.909l3.208,-5.224c0,0 0.07,-2.31 0.839,-0.301c0.768,2.009 1.672,7.835 1.672,7.835l0.089,2.836l3.226,-5.046c0,0 0.975,0.243 0.789,1.277c-0.186,1.034 -0.379,8.282 -0.379,8.282l1.8,1.29l2.149,0.782l4.337,3.422c0,0 -0.849,2.703 -2.663,2.715c-1.814,0.012 -6.974,1.619 -6.974,1.619c0,0 -1.802,1.324 -4.046,0.963c-2.245,-0.36 -6.665,-1.767 -6.665,-1.767c0,0 -2.712,-0.904 -4.319,-2.41c-1.608,-1.507 -0.717,-3.791 -2.97,-2.8c-2.254,0.992 -5.492,4.561 -5.492,4.561c0,0 -0.758,1.008 -3.129,-0.779c-2.372,-1.786 -3.175,-2.69 -3.175,-2.69l-0.589,-1.177c0,0 0.958,1.013 -0.683,0.341c-1.642,-0.671 -5.24,3.649 -5.349,1.74c-0.11,-1.908 3.129,-4.77 3.016,-5.649c-0.112,-0.88 2.402,-0.171 2.402,-0.171l-2.149,-3.75l-4.595,-5.017l5.372,1.36l1.134,-3.48l3.671,1.078l1.742,5.675l2.511,4.337l0.448,-5.935l-2.512,-3.515l1.099,-4.119Z"/></clipPath><g clip-path="url(#_clip8)"><path d="M176.261,32.345l-4.326,15.019c3.04,-0.207 5.307,0.493 6.793,2.112l5.792,-0.862l-1.745,5.338l-8.093,-0.402c0,0 -2.556,-6.391 -2.415,-4.602c0.142,1.79 0.613,5.406 -1.631,7.314c-2.245,1.909 -4.543,0.75 -4.047,-0.429c0.496,-1.178 0,-4.046 0,-4.046l0,-1.953l-1.86,-3.023l-2.186,4.529l0,2.47l-1.803,-4.948l0.375,-2.43l0.109,-4.101c0,0 1.911,-5.72 0.672,-4.382c-1.24,1.337 -8.107,7.438 -8.107,7.438l-0.429,4.922l-2.956,4.647l0,-7.935l-2.505,-3.114l-5.588,1.909l-4.959,6.629l-1.011,-1.719l1.924,-6.116l3.563,-10.354l4.956,8.901l1.58,-0.482l2.04,1.019l1.768,-0.884l4.142,-8.3l0.23,4.162l1.953,-3.07l2.142,-1.071l-2.142,4.622l6.108,-4.544l0.103,1.933l0.87,4.753l1.011,2.399l1.928,0.964l0.806,1.716l-0.094,2.687l1.407,-5.254l1.718,-7.041l1.26,-3.306l-2.978,-7.974l-2.268,15.051l-1.779,-10.392l-1.011,-4.419l-3.794,-4.666l-1.94,3.076l2.699,9.443l-7.372,-7.732l-2.049,-2.231l-2.718,-1.808l3.112,12.238l-0.552,4.322l-2.56,1.28l0,-2.411l-4.047,-6.796l-2.76,1.757l3.764,10.783l-0.577,0.176l-19.861,-7.954l17.918,29.988l44.627,-1.964l1.399,-12.489l-14.606,-18.393Z" style="fill:#e18764;"/></g><path d="M96.842,59.937l-2.328,-12.397l11.043,9.822l6.821,-6.933l-1.3,8.666l5.522,-10.207l2.165,6.817l6.032,-8.084l2.845,11.437l3.086,-9.507l2.436,7.421l9.309,-4.825l-5.657,10.376l-3.652,6.961c0,0 -6.342,-1.878 -7.955,-3.004c-1.613,-1.126 -2.271,-1.061 -4.428,-0.66c-2.157,0.401 -6.031,1.364 -9.703,1.845c-3.672,0.482 -9.628,2.354 -9.628,2.354l-5.645,-0.428c0,0 2.677,1.926 0,0c-2.677,-1.926 -4.553,-3.424 -4.553,-3.424l-6.119,-2.311l6.466,-0.428l5.243,-3.491Z" style="fill:#7d262d;"/><clipPath id="_clip9"><path d="M96.842,59.937l-2.328,-12.397l11.043,9.822l6.821,-6.933l-1.3,8.666l5.522,-10.207l2.165,6.817l6.032,-8.084l2.845,11.437l3.086,-9.507l2.436,7.421l9.309,-4.825l-5.657,10.376l-3.652,6.961c0,0 -6.342,-1.878 -7.955,-3.004c-1.613,-1.126 -2.271,-1.061 -4.428,-0.66c-2.157,0.401 -6.031,1.364 -9.703,1.845c-3.672,0.482 -9.628,2.354 -9.628,2.354l-5.645,-0.428c0,0 2.677,1.926 0,0c-2.677,-1.926 -4.553,-3.424 -4.553,-3.424l-6.119,-2.311l6.466,-0.428l5.243,-3.491Z"/></clipPath><g clip-path="url(#_clip9)"><path d="M144.206,51.488l-7.731,6.735l-3.311,2.92c0,0 -0.121,-6.863 0,-6.863c0.121,0 -2.368,-6.543 -2.368,-6.543l-0.507,12.32l-2.647,1.06l0,-7.414l-2.965,-8.277l-2.556,13.573l-4.07,-3.564l2.53,-7.385l-3.981,-0.221l-2.542,10.269l-2.98,3.045l3.215,-9.555l-1.58,-2.339l-4.116,8.66l-3.04,2.823l3.417,-8.725l-14.46,-5.461l6.56,14.989l-8.555,-1.724l-16.218,3.906l9.31,8.661l11.489,0.168l7.179,-8.835c0,0 -0.665,0.149 3.526,0.366c4.19,0.218 11.54,0.188 11.54,0.188l0.977,1.728l8.344,5.19l13.426,-0.9l2.114,-18.795Z" style="fill:#e18764;"/></g></g></g></svg>