<?xml version="1.0" encoding="UTF-8" standalone="no"?><!DOCTYPE svg PUBLIC "-//W3C//DTD SVG 1.1//EN" "http://www.w3.org/Graphics/SVG/1.1/DTD/svg11.dtd"><svg width="100%" height="100%" viewBox="0 0 215 205" version="1.1" xmlns="http://www.w3.org/2000/svg" xmlns:xlink="http://www.w3.org/1999/xlink" xml:space="preserve" xmlns:serif="http://www.serif.com/" style="fill-rule:evenodd;clip-rule:evenodd;stroke-linejoin:round;stroke-miterlimit:1.41421;"><g id="Grass_Block05"><g id="Grass_Block02"><g><path d="M214.875,54.328l0,96.598l-107.331,53.665l0,-96.598l107.331,-53.665Z" style="fill:#936447;"/><path d="M122.301,160.789l-8.372,9.702l1.286,5.769l7.086,18.915c0,0 7.928,-5.204 10.317,-5.13c2.39,0.073 7.634,-3.797 7.634,-3.797l-2.475,-9.029l-7.89,-6.338l-7.586,-10.092Zm46.427,-1.629l-10.317,1.146l-10.317,6.652l1.483,7.395l4.239,5.711l7.483,-1.409l5.101,-4.848l3.889,-6.072l-1.561,-8.575Zm11.733,-23.688l-6.575,5.403l2.19,12.169l8.127,2.857l7.228,1.825l3.089,-3.594l3.27,1.626l5.224,-0.719l1.823,-4.026l-5.158,-4.576l-3.886,-3.198l-7.221,-4.948l-8.111,-2.819Zm-35.112,-8.191l-7.572,3.765l-5.159,9.829l2.356,9.299l18.278,3.958l6.626,-6.965l1.421,-7.296l-5.633,-7.46l-10.317,-5.13Zm59.488,-19.321l6.671,8.447l-1.512,14.639l-5.159,7.695l-7.137,-3.548l-3.18,-6.712l0,-10.261l10.317,-10.26Zm-90.908,21.488l3.214,-10.479l6.475,-5.224l14.159,3.776l-5.159,13.913l-10.317,4.64l-8.372,-6.626Zm49.64,-19.169l5.159,-4.884l10.317,1.445l1.869,4.614l1.058,7.876l-10.607,10.404l-2.637,-5.152l-5.159,-1.231l-2.27,-9.838l2.27,-3.234Zm30.449,-20.732l8.996,5.787l-1.466,5.86l-5.159,2.565l-3.79,-1.885l-4.027,-4.489l0.413,-5.335l5.033,-2.503Z" style="fill:#86492a;fill-opacity:0.7;"/><path d="M204.142,102.627l6.94,8.836l-1.574,15.313l-5.366,8.05l-7.425,-3.712l-3.308,-7.021l0,-10.733l10.733,-10.733" style="fill:#dc8976;"/><clipPath id="_clip1"><path d="M204.142,102.627l6.94,8.836l-1.574,15.313l-5.366,8.05l-7.425,-3.712l-3.308,-7.021l0,-10.733l10.733,-10.733"/></clipPath><g clip-path="url(#_clip1)"><path d="M122.301,160.789l-8.372,9.702l1.286,5.769l7.086,18.915c0,0 7.928,-5.204 10.317,-5.13c2.39,0.073 7.634,-3.797 7.634,-3.797l-2.475,-9.029l-7.89,-6.338l-7.586,-10.092Zm46.427,-1.629l-10.317,1.146l-10.317,6.652l1.483,7.395l4.239,5.711l7.483,-1.409l5.101,-4.848l3.889,-6.072l-1.561,-8.575Zm11.733,-23.688l-6.575,5.403l2.19,12.169l8.127,2.857l7.228,1.825l3.089,-3.594l3.27,1.626l5.224,-0.719l1.823,-4.026l-5.158,-4.576l-3.886,-3.198l-7.221,-4.948l-8.111,-2.819Zm-35.112,-8.191l-7.572,3.765l-5.159,9.829l2.356,9.299l18.278,3.958l6.626,-6.965l1.421,-7.296l-5.633,-7.46l-10.317,-5.13Zm59.488,-19.321l6.671,8.447l-1.512,14.639l-5.159,7.695l-7.137,-3.548l-3.18,-6.712l0,-10.261l10.317,-10.26Zm-90.908,21.488l3.214,-10.479l6.475,-5.224l14.159,3.776l-5.159,13.913l-10.317,4.64l-8.372,-6.626Zm49.64,-19.169l5.159,-4.884l10.317,1.445l1.869,4.614l1.058,7.876l-10.607,10.404l-2.637,-5.152l-5.159,-1.231l-2.27,-9.838l2.27,-3.234Zm30.449,-20.732l8.996,5.787l-1.466,5.86l-5.159,2.565l-3.79,-1.885l-4.027,-4.489l0.413,-5.335l5.033,-2.503Z" style="fill:#86492a;fill-opacity:0.7;"/></g><path d="M192.887,83.366l9.358,6.054l-1.525,6.129l-5.367,2.683l-3.943,-1.971l-4.189,-4.696l0.429,-5.581l5.237,-2.618Z" style="fill:#dc8976;"/><clipPath id="_clip2"><path d="M192.887,83.366l9.358,6.054l-1.525,6.129l-5.367,2.683l-3.943,-1.971l-4.189,-4.696l0.429,-5.581l5.237,-2.618Z"/></clipPath><g clip-path="url(#_clip2)"><path d="M122.301,160.789l-8.372,9.702l1.286,5.769l7.086,18.915c0,0 7.928,-5.204 10.317,-5.13c2.39,0.073 7.634,-3.797 7.634,-3.797l-2.475,-9.029l-7.89,-6.338l-7.586,-10.092Zm46.427,-1.629l-10.317,1.146l-10.317,6.652l1.483,7.395l4.239,5.711l7.483,-1.409l5.101,-4.848l3.889,-6.072l-1.561,-8.575Zm11.733,-23.688l-6.575,5.403l2.19,12.169l8.127,2.857l7.228,1.825l3.089,-3.594l3.27,1.626l5.224,-0.719l1.823,-4.026l-5.158,-4.576l-3.886,-3.198l-7.221,-4.948l-8.111,-2.819Zm-35.112,-8.191l-7.572,3.765l-5.159,9.829l2.356,9.299l18.278,3.958l6.626,-6.965l1.421,-7.296l-5.633,-7.46l-10.317,-5.13Zm59.488,-19.321l6.671,8.447l-1.512,14.639l-5.159,7.695l-7.137,-3.548l-3.18,-6.712l0,-10.261l10.317,-10.26Zm-90.908,21.488l3.214,-10.479l6.475,-5.224l14.159,3.776l-5.159,13.913l-10.317,4.64l-8.372,-6.626Zm49.64,-19.169l5.159,-4.884l10.317,1.445l1.869,4.614l1.058,7.876l-10.607,10.404l-2.637,-5.152l-5.159,-1.231l-2.27,-9.838l2.27,-3.234Zm30.449,-20.732l8.996,5.787l-1.466,5.86l-5.159,2.565l-3.79,-1.885l-4.027,-4.489l0.413,-5.335l5.033,-2.503Z" style="fill:#86492a;fill-opacity:0.7;"/></g><path d="M161.209,105.053l5.367,-5.11l10.733,1.512l1.944,4.827l1.101,8.238l-11.034,10.884l-2.744,-5.39l-5.367,-1.288l-2.362,-10.291l2.362,-3.382" style="fill:#dc8976;"/><clipPath id="_clip3"><path d="M161.209,105.053l5.367,-5.11l10.733,1.512l1.944,4.827l1.101,8.238l-11.034,10.884l-2.744,-5.39l-5.367,-1.288l-2.362,-10.291l2.362,-3.382"/></clipPath><g clip-path="url(#_clip3)"><path d="M122.301,160.789l-8.372,9.702l1.286,5.769l7.086,18.915c0,0 7.928,-5.204 10.317,-5.13c2.39,0.073 7.634,-3.797 7.634,-3.797l-2.475,-9.029l-7.89,-6.338l-7.586,-10.092Zm46.427,-1.629l-10.317,1.146l-10.317,6.652l1.483,7.395l4.239,5.711l7.483,-1.409l5.101,-4.848l3.889,-6.072l-1.561,-8.575Zm11.733,-23.688l-6.575,5.403l2.19,12.169l8.127,2.857l7.228,1.825l3.089,-3.594l3.27,1.626l5.224,-0.719l1.823,-4.026l-5.158,-4.576l-3.886,-3.198l-7.221,-4.948l-8.111,-2.819Zm-35.112,-8.191l-7.572,3.765l-5.159,9.829l2.356,9.299l18.278,3.958l6.626,-6.965l1.421,-7.296l-5.633,-7.46l-10.317,-5.13Zm59.488,-19.321l6.671,8.447l-1.512,14.639l-5.159,7.695l-7.137,-3.548l-3.18,-6.712l0,-10.261l10.317,-10.26Zm-90.908,21.488l3.214,-10.479l6.475,-5.224l14.159,3.776l-5.159,13.913l-10.317,4.64l-8.372,-6.626Zm49.64,-19.169l5.159,-4.884l10.317,1.445l1.869,4.614l1.058,7.876l-10.607,10.404l-2.637,-5.152l-5.159,-1.231l-2.27,-9.838l2.27,-3.234Zm30.449,-20.732l8.996,5.787l-1.466,5.86l-5.159,2.565l-3.79,-1.885l-4.027,-4.489l0.413,-5.335l5.033,-2.503Z" style="fill:#86492a;fill-opacity:0.7;"/></g><path d="M178.783,131.406l-6.841,5.652l2.278,12.729l8.455,2.989l7.52,1.909l3.214,-3.759l3.401,1.701l5.435,-0.753l1.897,-4.211l-5.367,-4.787l-4.042,-3.346l-7.512,-5.175l-8.438,-2.949Z" style="fill:#dc8976;"/><clipPath id="_clip4"><path d="M178.783,131.406l-6.841,5.652l2.278,12.729l8.455,2.989l7.52,1.909l3.214,-3.759l3.401,1.701l5.435,-0.753l1.897,-4.211l-5.367,-4.787l-4.042,-3.346l-7.512,-5.175l-8.438,-2.949Z"/></clipPath><g clip-path="url(#_clip4)"><path d="M122.301,160.789l-8.372,9.702l1.286,5.769l7.086,18.915c0,0 7.928,-5.204 10.317,-5.13c2.39,0.073 7.634,-3.797 7.634,-3.797l-2.475,-9.029l-7.89,-6.338l-7.586,-10.092Zm46.427,-1.629l-10.317,1.146l-10.317,6.652l1.483,7.395l4.239,5.711l7.483,-1.409l5.101,-4.848l3.889,-6.072l-1.561,-8.575Zm11.733,-23.688l-6.575,5.403l2.19,12.169l8.127,2.857l7.228,1.825l3.089,-3.594l3.27,1.626l5.224,-0.719l1.823,-4.026l-5.158,-4.576l-3.886,-3.198l-7.221,-4.948l-8.111,-2.819Zm-35.112,-8.191l-7.572,3.765l-5.159,9.829l2.356,9.299l18.278,3.958l6.626,-6.965l1.421,-7.296l-5.633,-7.46l-10.317,-5.13Zm59.488,-19.321l6.671,8.447l-1.512,14.639l-5.159,7.695l-7.137,-3.548l-3.18,-6.712l0,-10.261l10.317,-10.26Zm-90.908,21.488l3.214,-10.479l6.475,-5.224l14.159,3.776l-5.159,13.913l-10.317,4.64l-8.372,-6.626Zm49.64,-19.169l5.159,-4.884l10.317,1.445l1.869,4.614l1.058,7.876l-10.607,10.404l-2.637,-5.152l-5.159,-1.231l-2.27,-9.838l2.27,-3.234Zm30.449,-20.732l8.996,5.787l-1.466,5.86l-5.159,2.565l-3.79,-1.885l-4.027,-4.489l0.413,-5.335l5.033,-2.503Z" style="fill:#86492a;fill-opacity:0.7;"/></g><path d="M142.254,122.837l-7.878,3.939l-5.366,10.282l2.451,9.727l19.015,4.141l6.893,-7.287l1.478,-7.632l-5.86,-7.803l-10.733,-5.367Z" style="fill:#dc8976;"/><clipPath id="_clip5"><path d="M142.254,122.837l-7.878,3.939l-5.366,10.282l2.451,9.727l19.015,4.141l6.893,-7.287l1.478,-7.632l-5.86,-7.803l-10.733,-5.367Z"/></clipPath><g clip-path="url(#_clip5)"><path d="M122.301,160.789l-8.372,9.702l1.286,5.769l7.086,18.915c0,0 7.928,-5.204 10.317,-5.13c2.39,0.073 7.634,-3.797 7.634,-3.797l-2.475,-9.029l-7.89,-6.338l-7.586,-10.092Zm46.427,-1.629l-10.317,1.146l-10.317,6.652l1.483,7.395l4.239,5.711l7.483,-1.409l5.101,-4.848l3.889,-6.072l-1.561,-8.575Zm11.733,-23.688l-6.575,5.403l2.19,12.169l8.127,2.857l7.228,1.825l3.089,-3.594l3.27,1.626l5.224,-0.719l1.823,-4.026l-5.158,-4.576l-3.886,-3.198l-7.221,-4.948l-8.111,-2.819Zm-35.112,-8.191l-7.572,3.765l-5.159,9.829l2.356,9.299l18.278,3.958l6.626,-6.965l1.421,-7.296l-5.633,-7.46l-10.317,-5.13Zm59.488,-19.321l6.671,8.447l-1.512,14.639l-5.159,7.695l-7.137,-3.548l-3.18,-6.712l0,-10.261l10.317,-10.26Zm-90.908,21.488l3.214,-10.479l6.475,-5.224l14.159,3.776l-5.159,13.913l-10.317,4.64l-8.372,-6.626Zm49.64,-19.169l5.159,-4.884l10.317,1.445l1.869,4.614l1.058,7.876l-10.607,10.404l-2.637,-5.152l-5.159,-1.231l-2.27,-9.838l2.27,-3.234Zm30.449,-20.732l8.996,5.787l-1.466,5.86l-5.159,2.565l-3.79,-1.885l-4.027,-4.489l0.413,-5.335l5.033,-2.503Z" style="fill:#86492a;fill-opacity:0.7;"/></g><path d="M118.277,157.889l-8.71,10.148l1.338,6.036l7.372,19.785c0,0 8.247,-5.443 10.733,-5.366c2.486,0.076 7.942,-3.972 7.942,-3.972l-2.576,-9.445l-8.207,-6.629l-7.892,-10.557Z" style="fill:#dc8976;"/><clipPath id="_clip6"><path d="M118.277,157.889l-8.71,10.148l1.338,6.036l7.372,19.785c0,0 8.247,-5.443 10.733,-5.366c2.486,0.076 7.942,-3.972 7.942,-3.972l-2.576,-9.445l-8.207,-6.629l-7.892,-10.557Z"/></clipPath><g clip-path="url(#_clip6)"><path d="M122.301,160.789l-8.372,9.702l1.286,5.769l7.086,18.915c0,0 7.928,-5.204 10.317,-5.13c2.39,0.073 7.634,-3.797 7.634,-3.797l-2.475,-9.029l-7.89,-6.338l-7.586,-10.092Zm46.427,-1.629l-10.317,1.146l-10.317,6.652l1.483,7.395l4.239,5.711l7.483,-1.409l5.101,-4.848l3.889,-6.072l-1.561,-8.575Zm11.733,-23.688l-6.575,5.403l2.19,12.169l8.127,2.857l7.228,1.825l3.089,-3.594l3.27,1.626l5.224,-0.719l1.823,-4.026l-5.158,-4.576l-3.886,-3.198l-7.221,-4.948l-8.111,-2.819Zm-35.112,-8.191l-7.572,3.765l-5.159,9.829l2.356,9.299l18.278,3.958l6.626,-6.965l1.421,-7.296l-5.633,-7.46l-10.317,-5.13Zm59.488,-19.321l6.671,8.447l-1.512,14.639l-5.159,7.695l-7.137,-3.548l-3.18,-6.712l0,-10.261l10.317,-10.26Zm-90.908,21.488l3.214,-10.479l6.475,-5.224l14.159,3.776l-5.159,13.913l-10.317,4.64l-8.372,-6.626Zm49.64,-19.169l5.159,-4.884l10.317,1.445l1.869,4.614l1.058,7.876l-10.607,10.404l-2.637,-5.152l-5.159,-1.231l-2.27,-9.838l2.27,-3.234Zm30.449,-20.732l8.996,5.787l-1.466,5.86l-5.159,2.565l-3.79,-1.885l-4.027,-4.489l0.413,-5.335l5.033,-2.503Z" style="fill:#86492a;fill-opacity:0.7;"/></g><path d="M166.576,156.185l-10.733,1.199l-10.733,6.958l1.543,7.735l4.409,5.975l7.785,-1.475l5.307,-5.071l4.046,-6.352l-1.624,-8.969" style="fill:#dc8976;"/><clipPath id="_clip7"><path d="M166.576,156.185l-10.733,1.199l-10.733,6.958l1.543,7.735l4.409,5.975l7.785,-1.475l5.307,-5.071l4.046,-6.352l-1.624,-8.969"/></clipPath><g clip-path="url(#_clip7)"><path d="M122.301,160.789l-8.372,9.702l1.286,5.769l7.086,18.915c0,0 7.928,-5.204 10.317,-5.13c2.39,0.073 7.634,-3.797 7.634,-3.797l-2.475,-9.029l-7.89,-6.338l-7.586,-10.092Zm46.427,-1.629l-10.317,1.146l-10.317,6.652l1.483,7.395l4.239,5.711l7.483,-1.409l5.101,-4.848l3.889,-6.072l-1.561,-8.575Zm11.733,-23.688l-6.575,5.403l2.19,12.169l8.127,2.857l7.228,1.825l3.089,-3.594l3.27,1.626l5.224,-0.719l1.823,-4.026l-5.158,-4.576l-3.886,-3.198l-7.221,-4.948l-8.111,-2.819Zm-35.112,-8.191l-7.572,3.765l-5.159,9.829l2.356,9.299l18.278,3.958l6.626,-6.965l1.421,-7.296l-5.633,-7.46l-10.317,-5.13Zm59.488,-19.321l6.671,8.447l-1.512,14.639l-5.159,7.695l-7.137,-3.548l-3.18,-6.712l0,-10.261l10.317,-10.26Zm-90.908,21.488l3.214,-10.479l6.475,-5.224l14.159,3.776l-5.159,13.913l-10.317,4.64l-8.372,-6.626Zm49.64,-19.169l5.159,-4.884l10.317,1.445l1.869,4.614l1.058,7.876l-10.607,10.404l-2.637,-5.152l-5.159,-1.231l-2.27,-9.838l2.27,-3.234Zm30.449,-20.732l8.996,5.787l-1.466,5.86l-5.159,2.565l-3.79,-1.885l-4.027,-4.489l0.413,-5.335l5.033,-2.503Z" style="fill:#86492a;fill-opacity:0.7;"/></g><path d="M109.567,125.105l8.71,6.93l10.733,-4.854l5.366,-14.553l-14.73,-3.95l-6.736,5.465l-3.343,10.962" style="fill:#dc8976;"/><clipPath id="_clip8"><path d="M109.567,125.105l8.71,6.93l10.733,-4.854l5.366,-14.553l-14.73,-3.95l-6.736,5.465l-3.343,10.962"/></clipPath><g clip-path="url(#_clip8)"><path d="M122.301,160.789l-8.372,9.702l1.286,5.769l7.086,18.915c0,0 7.928,-5.204 10.317,-5.13c2.39,0.073 7.634,-3.797 7.634,-3.797l-2.475,-9.029l-7.89,-6.338l-7.586,-10.092Zm46.427,-1.629l-10.317,1.146l-10.317,6.652l1.483,7.395l4.239,5.711l7.483,-1.409l5.101,-4.848l3.889,-6.072l-1.561,-8.575Zm11.733,-23.688l-6.575,5.403l2.19,12.169l8.127,2.857l7.228,1.825l3.089,-3.594l3.27,1.626l5.224,-0.719l1.823,-4.026l-5.158,-4.576l-3.886,-3.198l-7.221,-4.948l-8.111,-2.819Zm-35.112,-8.191l-7.572,3.765l-5.159,9.829l2.356,9.299l18.278,3.958l6.626,-6.965l1.421,-7.296l-5.633,-7.46l-10.317,-5.13Zm59.488,-19.321l6.671,8.447l-1.512,14.639l-5.159,7.695l-7.137,-3.548l-3.18,-6.712l0,-10.261l10.317,-10.26Zm-90.908,21.488l3.214,-10.479l6.475,-5.224l14.159,3.776l-5.159,13.913l-10.317,4.64l-8.372,-6.626Zm49.64,-19.169l5.159,-4.884l10.317,1.445l1.869,4.614l1.058,7.876l-10.607,10.404l-2.637,-5.152l-5.159,-1.231l-2.27,-9.838l2.27,-3.234Zm30.449,-20.732l8.996,5.787l-1.466,5.86l-5.159,2.565l-3.79,-1.885l-4.027,-4.489l0.413,-5.335l5.033,-2.503Z" style="fill:#86492a;fill-opacity:0.7;"/></g></g><path d="M0.212,54.328l107.332,53.665l0,96.598l-107.332,-53.665l0,-96.598" style="fill:#584224;"/><clipPath id="_clip9"><path d="M0.212,54.328l107.332,53.665l0,96.598l-107.332,-53.665l0,-96.598"/></clipPath><g clip-path="url(#_clip9)"><path d="M90.074,174.39l11.734,-4.08l-0.235,-16.221l-6.989,-11.581l-11.749,-1.32l-5.987,4.726l-1.504,10.627l14.73,17.849" style="fill:#643636;"/><path d="M85.752,190.738l17.273,-3.671l-1.819,-6.448l-9.043,-3.989l-7.196,0.973l-8.01,3.61l-0.029,5.632l8.824,3.893Z" style="fill:#643636;"/><path d="M48.811,166.41l4.777,5.837l11.198,0.057l2.667,-4.498l2.28,-7.997l-9.77,-12.374l-3.564,4.939l-5.673,0.498l-3.859,9.848l1.944,3.69" style="fill:#643636;"/><path d="M73.9,140.543l-6.21,-6.587l4.115,-12.273l9.073,-1.736l7.964,-0.802l2.763,4.188l3.72,-1.191l5.458,1.532l1.351,4.444l-6.163,3.963l-4.606,2.727l-8.414,4.037l-9.051,1.698Z" style="fill:#643636;"/><path d="M34.75,151.488l-4.295,-4.586l-1.861,-10.647l2.871,-9.418l12.278,-2.445l3.219,7.814l-0.159,7.686l-4.698,7.216l-7.355,4.38Z" style="fill:#643636;"/><path d="M15.676,105.56l-7.493,-11.31l2.215,-5.782l10.316,-18.523c0,0 7.68,6.584 10.235,6.868c2.555,0.284 7.573,5.082 7.573,5.082l-3.959,8.979l-9.33,5.376l-9.557,9.31Z" style="fill:#643636;"/><path d="M60.965,119.602l-10.818,-2.741l-10.012,-8.444l2.664,-7.435l5.35,-5.277l7.762,2.587l4.721,5.789l3.253,6.875l-2.92,8.646" style="fill:#643636;"/><path d="M4.202,125.517l8.581,-9.593l7.679,8.654l1.217,22.864l-12.833,4.345l-4.296,-9.13l-0.348,-17.14" style="fill:#643636;"/><path d="M81.762,191.181l17.273,-3.67l-1.819,-6.448l-9.043,-3.989l-7.196,0.973l-8.01,3.609l-0.029,5.633l8.824,3.892Zm4.322,-16.347l-14.73,-17.849l1.504,-10.628l5.987,-4.725l11.749,1.32l6.989,11.581l0.235,16.221l-11.734,4.08Zm-41.263,-7.98l-1.944,-3.691l3.859,-9.847l5.674,-0.498l3.563,-4.94l9.77,12.374l-2.28,7.998l-2.667,4.498l-11.198,-0.058l-4.777,-5.836Zm-44.609,-40.894l8.581,-9.593l7.679,8.655l1.217,22.864l-12.833,4.344l-4.296,-9.129l-0.348,-17.141Zm30.548,25.971l-4.295,-4.586l-1.861,-10.647l2.871,-9.418l12.278,-2.445l3.22,7.815l-0.16,7.685l-4.698,7.216l-7.355,4.38Zm39.15,-10.945l-6.21,-6.586l4.115,-12.274l9.073,-1.736l7.964,-0.801l2.763,4.188l3.72,-1.192l5.458,1.532l1.351,4.445l-6.163,3.962l-4.606,2.728l-8.414,4.037l-9.051,1.697Zm-12.934,-20.94l-10.819,-2.742l-10.012,-8.443l2.664,-7.436l5.35,-5.277l7.762,2.587l4.721,5.79l3.253,6.875l-2.919,8.646Zm-45.29,-14.043l-7.493,-11.309l2.215,-5.782l10.316,-18.523c0,0 7.68,6.583 10.235,6.867c2.555,0.285 7.574,5.082 7.574,5.082l-3.96,8.98l-9.33,5.375l-9.557,9.31Z" style="fill:#311807;fill-opacity:0.5;"/></g><path d="M214.875,54.328l0,26.832l-10.733,-16.099l0,16.099l-8.671,-4.335l4.333,15.49l-14.975,-22.965l0.451,7.746l-5.842,0.317l3.237,11.288l-1.844,14.848l-3.522,-12.351l-4.17,-5.269l1.509,16.756l-11.171,-11.925l3.099,25.283l-6.378,-5.412l-2.98,-10l-4.79,6.386l7.77,17.581l-8.606,-1.063l-10.552,-12.529l-12.03,-5.352l3.04,22.285l-10.106,-13.941l-14.4,20.828l-7.526,-23.07l-4.833,20.348l-9.108,-22.734l-8.08,10.682l0.213,18.707l-4.13,-4.471l-4.102,-18.245l-5.367,8.05l-5.367,13.416l-1.916,-17.058l-8.817,3.427l6.34,-10.967l4.393,-7.601l-8.851,9.792l-4.513,-13.843l-13.468,20.655l-5.367,-27.337l-8.823,20.511l-4.172,-24.747l5.659,-10.166l-14.13,3.669l-5.367,13.416l0,-42.932l107.332,-53.666l107.331,53.666Z" style="fill:#e18764;"/><clipPath id="_clip10"><path d="M214.875,54.328l0,26.832l-10.733,-16.099l0,16.099l-8.671,-4.335l4.333,15.49l-14.975,-22.965l0.451,7.746l-5.842,0.317l3.237,11.288l-1.844,14.848l-3.522,-12.351l-4.17,-5.269l1.509,16.756l-11.171,-11.925l3.099,25.283l-6.378,-5.412l-2.98,-10l-4.79,6.386l7.77,17.581l-8.606,-1.063l-10.552,-12.529l-12.03,-5.352l3.04,22.285l-10.106,-13.941l-14.4,20.828l-7.526,-23.07l-4.833,20.348l-9.108,-22.734l-8.08,10.682l0.213,18.707l-4.13,-4.471l-4.102,-18.245l-5.367,8.05l-5.367,13.416l-1.916,-17.058l-8.817,3.427l6.34,-10.967l4.393,-7.601l-8.851,9.792l-4.513,-13.843l-13.468,20.655l-5.367,-27.337l-8.823,20.511l-4.172,-24.747l5.659,-10.166l-14.13,3.669l-5.367,13.416l0,-42.932l107.332,-53.666l107.331,53.666Z"/></clipPath><g clip-path="url(#_clip10)"><path d="M107.544,107.993l0,45.683l-72.925,-1.647l-34.407,-47.117l0,-50.656l107.332,53.737Z" style="fill:#311807;fill-opacity:0.2;"/><path d="M214.875,107.993l0,-53.665l-107.331,53.665l0,53.666l107.331,-53.666Z" style="fill:#febc3b;fill-opacity:0.2;"/><path d="M214.875,54.328l-2.247,14.976l-10.612,-8.547l-3.241,12.353l-6.985,-1.873l-12.71,-4.379l-1.771,6.252l3.708,14.246c0,0 -16.03,-13.515 -14.441,-8.879c1.588,4.636 5.366,16.209 5.366,16.209l-10.733,-8.159l2.682,22.807l-10.351,-15.909l-3.064,11.571l0,10.942l-16.1,-15.995l-7.94,1.397l-0.548,15.825l-7.611,-7.329l-5.367,14.519l-5.366,-0.262l-7.79,-14.628l-5.219,8.123l-10.144,-14.118l-14.413,12.573l-10.734,5.367l2.547,-22.74l-13.28,12.006l-7.128,-14.297l-6.252,15.621l-8.086,-17.423l-13.381,6.69l13.381,-22.79c0,0 -0.374,-1.702 -2.747,-1.374c-2.374,0.329 -18.719,1.374 -18.719,1.374l-5.367,2.683l-0.071,-26.868l107.331,-53.666l107.403,53.702Z" style="fill:#985736;fill-opacity:0.5;"/><path d="M107.579,0.715l107.367,53.648l-107.367,53.648l-107.295,-53.719l107.331,-53.559" style="fill:url(#_Radial11);"/></g></g></g><defs><radialGradient id="_Radial11" cx="0" cy="0" r="1" gradientUnits="userSpaceOnUse" gradientTransform="matrix(107.331,-0.142482,0.0712411,53.6656,107.615,54.3275)"><stop offset="0" style="stop-color:#b8694a;stop-opacity:1"/><stop offset="0.59" style="stop-color:#ad5d45;stop-opacity:0.941176"/><stop offset="0.8" style="stop-color:#954139;stop-opacity:0.815686"/><stop offset="1" style="stop-color:#7d262d;stop-opacity:0.694118"/></radialGradient></defs></svg>