<?xml version="1.0" encoding="UTF-8" standalone="no"?><!DOCTYPE svg PUBLIC "-//W3C//DTD SVG 1.1//EN" "http://www.w3.org/Graphics/SVG/1.1/DTD/svg11.dtd"><svg width="100%" height="100%" viewBox="0 0 215 205" version="1.1" xmlns="http://www.w3.org/2000/svg" xmlns:xlink="http://www.w3.org/1999/xlink" xml:space="preserve" xmlns:serif="http://www.serif.com/" style="fill-rule:evenodd;clip-rule:evenodd;stroke-linejoin:round;stroke-miterlimit:1.41421;"><g id="Grass_Block16"><g id="Grass_Block09"><g><path d="M214.882,54.234l0,96.598l-107.332,53.665l0,-96.598l107.332,-53.665Z" style="fill:#936447;"/><clipPath id="_clip1"><path d="M214.882,54.234l0,96.598l-107.332,53.665l0,-96.598l107.332,-53.665Z"/></clipPath><g clip-path="url(#_clip1)"><path d="M113.078,235.388l-7.47,-8.393l0.629,-15.381l4.861,-8.364l7.639,3.248l3.734,6.804l0.66,10.713l-10.053,11.373" style="fill:#c7a664;"/><path d="M128.921,258.537l-9.713,-5.527l1.145,-6.28l5.192,-3.041l4.056,1.744l4.47,4.478l-0.084,5.658l-5.066,2.968Zm30.283,-23.855l-5.042,5.491l-10.806,-0.859l-2.237,-4.75l-1.605,-8.245l10.343,-11.668l3.071,5.268l5.435,0.966l2.991,10.237l-2.15,3.56Zm-42.702,5.119l-7.47,-8.485l0.628,-15.551l4.862,-8.456l7.638,3.284l3.735,6.879l0.66,10.831l-10.053,11.498Zm93.013,-28.564l-2.662,11.269l-6.388,5.934l-14.945,-3.07l4.462,-15.02l10.414,-5.565l9.119,6.452Zm-32.485,4.32l7.62,-4.464l4.724,-10.709l-3.045,-9.663l-19.234,-2.996l-6.431,7.781l-1.006,7.794l6.329,7.51l11.043,4.747Zm-36.987,-6.374l6.48,-6.129l-3.057,-12.703l-8.623,-2.491l-7.622,-1.459l-2.977,3.994l-3.5,-1.505l-5.378,1.097l-1.634,4.368l5.651,4.497l4.24,3.124l7.816,4.756l8.604,2.451Zm10.66,-25.764l10.639,-1.878l10.284,-7.689l-2.016,-7.709l-4.769,-5.755l-7.679,1.972l-4.984,5.448l-3.648,6.661l2.173,8.95Zm48.102,-4.724l8.069,-10.782l-1.706,-6.007l-8.575,-19.507c0,0 -7.897,6.005 -10.383,6.083c-2.486,0.077 -7.683,4.501 -7.683,4.501l3.152,9.371l8.6,6.179l8.526,10.162Zm-64.517,-7.171l-9.714,-5.527l1.146,-6.28l5.191,-3.042l4.057,1.744l4.47,4.478l-0.085,5.659l-5.065,2.968Zm30.283,-23.855l-5.042,5.49l-10.806,-0.858l-2.238,-4.75l-1.605,-8.245l10.344,-11.669l3.07,5.269l5.436,0.965l2.99,10.238l-2.149,3.56Zm-42.702,5.119l-7.471,-8.486l0.629,-15.55l4.861,-8.457l7.639,3.284l3.734,6.879l0.661,10.831l-10.053,11.499Zm93.013,-28.565l-2.663,11.269l-6.387,5.934l-14.945,-3.07l4.461,-15.019l10.414,-5.566l9.12,6.452Zm-32.486,4.321l7.621,-4.465l4.724,-10.709l-3.046,-9.663l-19.233,-2.996l-6.432,7.782l-1.006,7.793l6.329,7.51l11.043,4.748Zm-36.986,-6.375l6.479,-6.129l-3.056,-12.703l-8.623,-2.491l-7.623,-1.458l-2.976,3.993l-3.5,-1.505l-5.379,1.098l-1.633,4.367l5.65,4.497l4.241,3.125l7.816,4.755l8.604,2.451Zm10.659,-25.764l10.639,-1.877l10.285,-7.689l-2.017,-7.71l-4.768,-5.754l-7.679,1.971l-4.985,5.448l-3.648,6.661l2.173,8.95Zm48.103,-4.723l8.069,-10.782l-1.707,-6.008l-8.575,-19.507c0,0 -7.896,6.006 -10.382,6.083c-2.486,0.078 -7.683,4.501 -7.683,4.501l3.152,9.371l8.599,6.18l8.527,10.162Z" style="fill:#86492a;fill-opacity:0.7;"/><path d="M136.619,205.104l6.48,-6.063l-3.057,-12.564l-8.623,-2.464l-7.622,-1.443l-2.977,3.95l-3.5,-1.488l-5.378,1.085l-1.634,4.32l5.651,4.448l4.24,3.091l7.816,4.703l8.604,2.425Z" style="fill:#dc8976;"/><clipPath id="_clip2"><path d="M136.619,205.104l6.48,-6.063l-3.057,-12.564l-8.623,-2.464l-7.622,-1.443l-2.977,3.95l-3.5,-1.488l-5.378,1.085l-1.634,4.32l5.651,4.448l4.24,3.091l7.816,4.703l8.604,2.425Z"/></clipPath><g clip-path="url(#_clip2)"><path d="M128.921,258.537l-9.713,-5.527l1.145,-6.28l5.192,-3.041l4.056,1.744l4.47,4.478l-0.084,5.658l-5.066,2.968Zm30.283,-23.855l-5.042,5.491l-10.806,-0.859l-2.237,-4.75l-1.605,-8.245l10.343,-11.668l3.071,5.268l5.435,0.966l2.991,10.237l-2.15,3.56Zm-42.702,5.119l-7.47,-8.485l0.628,-15.551l4.862,-8.456l7.638,3.284l3.735,6.879l0.66,10.831l-10.053,11.498Zm93.013,-28.564l-2.662,11.269l-6.388,5.934l-14.945,-3.07l4.462,-15.02l10.414,-5.565l9.119,6.452Zm-32.485,4.32l7.62,-4.464l4.724,-10.709l-3.045,-9.663l-19.234,-2.996l-6.431,7.781l-1.006,7.794l6.329,7.51l11.043,4.747Zm-36.987,-6.374l6.48,-6.129l-3.057,-12.703l-8.623,-2.491l-7.622,-1.459l-2.977,3.994l-3.5,-1.505l-5.378,1.097l-1.634,4.368l5.651,4.497l4.24,3.124l7.816,4.756l8.604,2.451Zm10.66,-25.764l10.639,-1.878l10.284,-7.689l-2.016,-7.709l-4.769,-5.755l-7.679,1.972l-4.984,5.448l-3.648,6.661l2.173,8.95Zm48.102,-4.724l8.069,-10.782l-1.706,-6.007l-8.575,-19.507c0,0 -7.897,6.005 -10.383,6.083c-2.486,0.077 -7.683,4.501 -7.683,4.501l3.152,9.371l8.6,6.179l8.526,10.162Zm-64.517,-7.171l-9.714,-5.527l1.146,-6.28l5.191,-3.042l4.057,1.744l4.47,4.478l-0.085,5.659l-5.065,2.968Zm30.283,-23.855l-5.042,5.49l-10.806,-0.858l-2.238,-4.75l-1.605,-8.245l10.344,-11.669l3.07,5.269l5.436,0.965l2.99,10.238l-2.149,3.56Zm-42.702,5.119l-7.471,-8.486l0.629,-15.55l4.861,-8.457l7.639,3.284l3.734,6.879l0.661,10.831l-10.053,11.499Zm93.013,-28.565l-2.663,11.269l-6.387,5.934l-14.945,-3.07l4.461,-15.019l10.414,-5.566l9.12,6.452Zm-32.486,4.321l7.621,-4.465l4.724,-10.709l-3.046,-9.663l-19.233,-2.996l-6.432,7.782l-1.006,7.793l6.329,7.51l11.043,4.748Zm-36.986,-6.375l6.479,-6.129l-3.056,-12.703l-8.623,-2.491l-7.623,-1.458l-2.976,3.993l-3.5,-1.505l-5.379,1.098l-1.633,4.367l5.65,4.497l4.241,3.125l7.816,4.755l8.604,2.451Zm10.659,-25.764l10.639,-1.877l10.285,-7.689l-2.017,-7.71l-4.768,-5.754l-7.679,1.971l-4.985,5.448l-3.648,6.661l2.173,8.95Zm48.103,-4.723l8.069,-10.782l-1.707,-6.008l-8.575,-19.507c0,0 -7.896,6.006 -10.382,6.083c-2.486,0.078 -7.683,4.501 -7.683,4.501l3.152,9.371l8.599,6.18l8.527,10.162Z" style="fill:#86492a;fill-opacity:0.7;"/></g><path d="M173.606,211.409l7.62,-4.416l4.724,-10.592l-3.045,-9.558l-19.234,-2.964l-6.431,7.697l-1.006,7.709l6.329,7.428l11.043,4.696Z" style="fill:#dc8976;"/><path d="M195.381,174.948l8.069,-10.664l-1.706,-5.942l-8.575,-19.294c0,0 -7.897,5.94 -10.383,6.016c-2.486,0.077 -7.683,4.452 -7.683,4.452l3.152,9.269l8.6,6.112l8.526,10.051Z" style="fill:#dc8976;"/><clipPath id="_clip3"><path d="M195.381,174.948l8.069,-10.664l-1.706,-5.942l-8.575,-19.294c0,0 -7.897,5.94 -10.383,6.016c-2.486,0.077 -7.683,4.452 -7.683,4.452l3.152,9.269l8.6,6.112l8.526,10.051Z"/></clipPath><g clip-path="url(#_clip3)"><path d="M128.921,258.537l-9.713,-5.527l1.145,-6.28l5.192,-3.041l4.056,1.744l4.47,4.478l-0.084,5.658l-5.066,2.968Zm30.283,-23.855l-5.042,5.491l-10.806,-0.859l-2.237,-4.75l-1.605,-8.245l10.343,-11.668l3.071,5.268l5.435,0.966l2.991,10.237l-2.15,3.56Zm-42.702,5.119l-7.47,-8.485l0.628,-15.551l4.862,-8.456l7.638,3.284l3.735,6.879l0.66,10.831l-10.053,11.498Zm93.013,-28.564l-2.662,11.269l-6.388,5.934l-14.945,-3.07l4.462,-15.02l10.414,-5.565l9.119,6.452Zm-32.485,4.32l7.62,-4.464l4.724,-10.709l-3.045,-9.663l-19.234,-2.996l-6.431,7.781l-1.006,7.794l6.329,7.51l11.043,4.747Zm-36.987,-6.374l6.48,-6.129l-3.057,-12.703l-8.623,-2.491l-7.622,-1.459l-2.977,3.994l-3.5,-1.505l-5.378,1.097l-1.634,4.368l5.651,4.497l4.24,3.124l7.816,4.756l8.604,2.451Zm10.66,-25.764l10.639,-1.878l10.284,-7.689l-2.016,-7.709l-4.769,-5.755l-7.679,1.972l-4.984,5.448l-3.648,6.661l2.173,8.95Zm48.102,-4.724l8.069,-10.782l-1.706,-6.007l-8.575,-19.507c0,0 -7.897,6.005 -10.383,6.083c-2.486,0.077 -7.683,4.501 -7.683,4.501l3.152,9.371l8.6,6.179l8.526,10.162Zm-64.517,-7.171l-9.714,-5.527l1.146,-6.28l5.191,-3.042l4.057,1.744l4.47,4.478l-0.085,5.659l-5.065,2.968Zm30.283,-23.855l-5.042,5.49l-10.806,-0.858l-2.238,-4.75l-1.605,-8.245l10.344,-11.669l3.07,5.269l5.436,0.965l2.99,10.238l-2.149,3.56Zm-42.702,5.119l-7.471,-8.486l0.629,-15.55l4.861,-8.457l7.639,3.284l3.734,6.879l0.661,10.831l-10.053,11.499Zm93.013,-28.565l-2.663,11.269l-6.387,5.934l-14.945,-3.07l4.461,-15.019l10.414,-5.566l9.12,6.452Zm-32.486,4.321l7.621,-4.465l4.724,-10.709l-3.046,-9.663l-19.233,-2.996l-6.432,7.782l-1.006,7.793l6.329,7.51l11.043,4.748Zm-36.986,-6.375l6.479,-6.129l-3.056,-12.703l-8.623,-2.491l-7.623,-1.458l-2.976,3.993l-3.5,-1.505l-5.379,1.098l-1.633,4.367l5.65,4.497l4.241,3.125l7.816,4.755l8.604,2.451Zm10.659,-25.764l10.639,-1.877l10.285,-7.689l-2.017,-7.71l-4.768,-5.754l-7.679,1.971l-4.985,5.448l-3.648,6.661l2.173,8.95Zm48.103,-4.723l8.069,-10.782l-1.707,-6.008l-8.575,-19.507c0,0 -7.896,6.006 -10.382,6.083c-2.486,0.078 -7.683,4.501 -7.683,4.501l3.152,9.371l8.599,6.18l8.527,10.162Z" style="fill:#86492a;fill-opacity:0.7;"/></g><path d="M147.279,179.621l10.639,-1.857l10.285,-7.606l-2.017,-7.625l-4.768,-5.692l-7.68,1.95l-4.984,5.388l-3.648,6.589l2.173,8.853" style="fill:#dc8976;"/><clipPath id="_clip4"><path d="M147.279,179.621l10.639,-1.857l10.285,-7.606l-2.017,-7.625l-4.768,-5.692l-7.68,1.95l-4.984,5.388l-3.648,6.589l2.173,8.853"/></clipPath><g clip-path="url(#_clip4)"><path d="M128.921,258.537l-9.713,-5.527l1.145,-6.28l5.192,-3.041l4.056,1.744l4.47,4.478l-0.084,5.658l-5.066,2.968Zm30.283,-23.855l-5.042,5.491l-10.806,-0.859l-2.237,-4.75l-1.605,-8.245l10.343,-11.668l3.071,5.268l5.435,0.966l2.991,10.237l-2.15,3.56Zm-42.702,5.119l-7.47,-8.485l0.628,-15.551l4.862,-8.456l7.638,3.284l3.735,6.879l0.66,10.831l-10.053,11.498Zm93.013,-28.564l-2.662,11.269l-6.388,5.934l-14.945,-3.07l4.462,-15.02l10.414,-5.565l9.119,6.452Zm-32.485,4.32l7.62,-4.464l4.724,-10.709l-3.045,-9.663l-19.234,-2.996l-6.431,7.781l-1.006,7.794l6.329,7.51l11.043,4.747Zm-36.987,-6.374l6.48,-6.129l-3.057,-12.703l-8.623,-2.491l-7.622,-1.459l-2.977,3.994l-3.5,-1.505l-5.378,1.097l-1.634,4.368l5.651,4.497l4.24,3.124l7.816,4.756l8.604,2.451Zm10.66,-25.764l10.639,-1.878l10.284,-7.689l-2.016,-7.709l-4.769,-5.755l-7.679,1.972l-4.984,5.448l-3.648,6.661l2.173,8.95Zm48.102,-4.724l8.069,-10.782l-1.706,-6.007l-8.575,-19.507c0,0 -7.897,6.005 -10.383,6.083c-2.486,0.077 -7.683,4.501 -7.683,4.501l3.152,9.371l8.6,6.179l8.526,10.162Zm-64.517,-7.171l-9.714,-5.527l1.146,-6.28l5.191,-3.042l4.057,1.744l4.47,4.478l-0.085,5.659l-5.065,2.968Zm30.283,-23.855l-5.042,5.49l-10.806,-0.858l-2.238,-4.75l-1.605,-8.245l10.344,-11.669l3.07,5.269l5.436,0.965l2.99,10.238l-2.149,3.56Zm-42.702,5.119l-7.471,-8.486l0.629,-15.55l4.861,-8.457l7.639,3.284l3.734,6.879l0.661,10.831l-10.053,11.499Zm93.013,-28.565l-2.663,11.269l-6.387,5.934l-14.945,-3.07l4.461,-15.019l10.414,-5.566l9.12,6.452Zm-32.486,4.321l7.621,-4.465l4.724,-10.709l-3.046,-9.663l-19.233,-2.996l-6.432,7.782l-1.006,7.793l6.329,7.51l11.043,4.748Zm-36.986,-6.375l6.479,-6.129l-3.056,-12.703l-8.623,-2.491l-7.623,-1.458l-2.976,3.993l-3.5,-1.505l-5.379,1.098l-1.633,4.367l5.65,4.497l4.241,3.125l7.816,4.755l8.604,2.451Zm10.659,-25.764l10.639,-1.877l10.285,-7.689l-2.017,-7.71l-4.768,-5.754l-7.679,1.971l-4.985,5.448l-3.648,6.661l2.173,8.95Zm48.103,-4.723l8.069,-10.782l-1.707,-6.008l-8.575,-19.507c0,0 -7.896,6.006 -10.382,6.083c-2.486,0.078 -7.683,4.501 -7.683,4.501l3.152,9.371l8.599,6.18l8.527,10.162Z" style="fill:#86492a;fill-opacity:0.7;"/></g><path d="M206.091,207.135l-9.119,-6.382l-10.414,5.505l-4.462,14.856l14.946,3.037l6.387,-5.87l2.662,-11.146" style="fill:#dc8976;"/><clipPath id="_clip5"><path d="M206.091,207.135l-9.119,-6.382l-10.414,5.505l-4.462,14.856l14.946,3.037l6.387,-5.87l2.662,-11.146"/></clipPath><g clip-path="url(#_clip5)"><path d="M128.921,258.537l-9.713,-5.527l1.145,-6.28l5.192,-3.041l4.056,1.744l4.47,4.478l-0.084,5.658l-5.066,2.968Zm30.283,-23.855l-5.042,5.491l-10.806,-0.859l-2.237,-4.75l-1.605,-8.245l10.343,-11.668l3.071,5.268l5.435,0.966l2.991,10.237l-2.15,3.56Zm-42.702,5.119l-7.47,-8.485l0.628,-15.551l4.862,-8.456l7.638,3.284l3.735,6.879l0.66,10.831l-10.053,11.498Zm93.013,-28.564l-2.662,11.269l-6.388,5.934l-14.945,-3.07l4.462,-15.02l10.414,-5.565l9.119,6.452Zm-32.485,4.32l7.62,-4.464l4.724,-10.709l-3.045,-9.663l-19.234,-2.996l-6.431,7.781l-1.006,7.794l6.329,7.51l11.043,4.747Zm-36.987,-6.374l6.48,-6.129l-3.057,-12.703l-8.623,-2.491l-7.622,-1.459l-2.977,3.994l-3.5,-1.505l-5.378,1.097l-1.634,4.368l5.651,4.497l4.24,3.124l7.816,4.756l8.604,2.451Zm10.66,-25.764l10.639,-1.878l10.284,-7.689l-2.016,-7.709l-4.769,-5.755l-7.679,1.972l-4.984,5.448l-3.648,6.661l2.173,8.95Zm48.102,-4.724l8.069,-10.782l-1.706,-6.007l-8.575,-19.507c0,0 -7.897,6.005 -10.383,6.083c-2.486,0.077 -7.683,4.501 -7.683,4.501l3.152,9.371l8.6,6.179l8.526,10.162Zm-64.517,-7.171l-9.714,-5.527l1.146,-6.28l5.191,-3.042l4.057,1.744l4.47,4.478l-0.085,5.659l-5.065,2.968Zm30.283,-23.855l-5.042,5.49l-10.806,-0.858l-2.238,-4.75l-1.605,-8.245l10.344,-11.669l3.07,5.269l5.436,0.965l2.99,10.238l-2.149,3.56Zm-42.702,5.119l-7.471,-8.486l0.629,-15.55l4.861,-8.457l7.639,3.284l3.734,6.879l0.661,10.831l-10.053,11.499Zm93.013,-28.565l-2.663,11.269l-6.387,5.934l-14.945,-3.07l4.461,-15.019l10.414,-5.566l9.12,6.452Zm-32.486,4.321l7.621,-4.465l4.724,-10.709l-3.046,-9.663l-19.233,-2.996l-6.432,7.782l-1.006,7.793l6.329,7.51l11.043,4.748Zm-36.986,-6.375l6.479,-6.129l-3.056,-12.703l-8.623,-2.491l-7.623,-1.458l-2.976,3.993l-3.5,-1.505l-5.379,1.098l-1.633,4.367l5.65,4.497l4.241,3.125l7.816,4.755l8.604,2.451Zm10.659,-25.764l10.639,-1.877l10.285,-7.689l-2.017,-7.71l-4.768,-5.754l-7.679,1.971l-4.985,5.448l-3.648,6.661l2.173,8.95Zm48.103,-4.723l8.069,-10.782l-1.707,-6.008l-8.575,-19.507c0,0 -7.896,6.006 -10.382,6.083c-2.486,0.078 -7.683,4.501 -7.683,4.501l3.152,9.371l8.599,6.18l8.527,10.162Z" style="fill:#86492a;fill-opacity:0.7;"/></g><path d="M118.445,149.323l-7.471,-8.393l0.629,-15.381l4.861,-8.364l7.639,3.248l3.734,6.804l0.661,10.713l-10.053,11.373" style="fill:#dc8976;"/><clipPath id="_clip6"><path d="M118.445,149.323l-7.471,-8.393l0.629,-15.381l4.861,-8.364l7.639,3.248l3.734,6.804l0.661,10.713l-10.053,11.373"/></clipPath><g clip-path="url(#_clip6)"><path d="M128.921,258.537l-9.713,-5.527l1.145,-6.28l5.192,-3.041l4.056,1.744l4.47,4.478l-0.084,5.658l-5.066,2.968Zm30.283,-23.855l-5.042,5.491l-10.806,-0.859l-2.237,-4.75l-1.605,-8.245l10.343,-11.668l3.071,5.268l5.435,0.966l2.991,10.237l-2.15,3.56Zm-42.702,5.119l-7.47,-8.485l0.628,-15.551l4.862,-8.456l7.638,3.284l3.735,6.879l0.66,10.831l-10.053,11.498Zm93.013,-28.564l-2.662,11.269l-6.388,5.934l-14.945,-3.07l4.462,-15.02l10.414,-5.565l9.119,6.452Zm-32.485,4.32l7.62,-4.464l4.724,-10.709l-3.045,-9.663l-19.234,-2.996l-6.431,7.781l-1.006,7.794l6.329,7.51l11.043,4.747Zm-36.987,-6.374l6.48,-6.129l-3.057,-12.703l-8.623,-2.491l-7.622,-1.459l-2.977,3.994l-3.5,-1.505l-5.378,1.097l-1.634,4.368l5.651,4.497l4.24,3.124l7.816,4.756l8.604,2.451Zm10.66,-25.764l10.639,-1.878l10.284,-7.689l-2.016,-7.709l-4.769,-5.755l-7.679,1.972l-4.984,5.448l-3.648,6.661l2.173,8.95Zm48.102,-4.724l8.069,-10.782l-1.706,-6.007l-8.575,-19.507c0,0 -7.897,6.005 -10.383,6.083c-2.486,0.077 -7.683,4.501 -7.683,4.501l3.152,9.371l8.6,6.179l8.526,10.162Zm-64.517,-7.171l-9.714,-5.527l1.146,-6.28l5.191,-3.042l4.057,1.744l4.47,4.478l-0.085,5.659l-5.065,2.968Zm30.283,-23.855l-5.042,5.49l-10.806,-0.858l-2.238,-4.75l-1.605,-8.245l10.344,-11.669l3.07,5.269l5.436,0.965l2.99,10.238l-2.149,3.56Zm-42.702,5.119l-7.471,-8.486l0.629,-15.55l4.861,-8.457l7.639,3.284l3.734,6.879l0.661,10.831l-10.053,11.499Zm93.013,-28.565l-2.663,11.269l-6.387,5.934l-14.945,-3.07l4.461,-15.019l10.414,-5.566l9.12,6.452Zm-32.486,4.321l7.621,-4.465l4.724,-10.709l-3.046,-9.663l-19.233,-2.996l-6.432,7.782l-1.006,7.793l6.329,7.51l11.043,4.748Zm-36.986,-6.375l6.479,-6.129l-3.056,-12.703l-8.623,-2.491l-7.623,-1.458l-2.976,3.993l-3.5,-1.505l-5.379,1.098l-1.633,4.367l5.65,4.497l4.241,3.125l7.816,4.755l8.604,2.451Zm10.659,-25.764l10.639,-1.877l10.285,-7.689l-2.017,-7.71l-4.768,-5.754l-7.679,1.971l-4.985,5.448l-3.648,6.661l2.173,8.95Zm48.103,-4.723l8.069,-10.782l-1.707,-6.008l-8.575,-19.507c0,0 -7.896,6.006 -10.382,6.083c-2.486,0.078 -7.683,4.501 -7.683,4.501l3.152,9.371l8.599,6.18l8.527,10.162Z" style="fill:#86492a;fill-opacity:0.7;"/></g><path d="M130.864,167.855l-9.714,-5.467l1.146,-6.211l5.191,-3.009l4.057,1.726l4.47,4.429l-0.085,5.597l-5.065,2.935Z" style="fill:#dc8976;"/><clipPath id="_clip7"><path d="M130.864,167.855l-9.714,-5.467l1.146,-6.211l5.191,-3.009l4.057,1.726l4.47,4.429l-0.085,5.597l-5.065,2.935Z"/></clipPath><g clip-path="url(#_clip7)"><path d="M128.921,258.537l-9.713,-5.527l1.145,-6.28l5.192,-3.041l4.056,1.744l4.47,4.478l-0.084,5.658l-5.066,2.968Zm30.283,-23.855l-5.042,5.491l-10.806,-0.859l-2.237,-4.75l-1.605,-8.245l10.343,-11.668l3.071,5.268l5.435,0.966l2.991,10.237l-2.15,3.56Zm-42.702,5.119l-7.47,-8.485l0.628,-15.551l4.862,-8.456l7.638,3.284l3.735,6.879l0.66,10.831l-10.053,11.498Zm93.013,-28.564l-2.662,11.269l-6.388,5.934l-14.945,-3.07l4.462,-15.02l10.414,-5.565l9.119,6.452Zm-32.485,4.32l7.62,-4.464l4.724,-10.709l-3.045,-9.663l-19.234,-2.996l-6.431,7.781l-1.006,7.794l6.329,7.51l11.043,4.747Zm-36.987,-6.374l6.48,-6.129l-3.057,-12.703l-8.623,-2.491l-7.622,-1.459l-2.977,3.994l-3.5,-1.505l-5.378,1.097l-1.634,4.368l5.651,4.497l4.24,3.124l7.816,4.756l8.604,2.451Zm10.66,-25.764l10.639,-1.878l10.284,-7.689l-2.016,-7.709l-4.769,-5.755l-7.679,1.972l-4.984,5.448l-3.648,6.661l2.173,8.95Zm48.102,-4.724l8.069,-10.782l-1.706,-6.007l-8.575,-19.507c0,0 -7.897,6.005 -10.383,6.083c-2.486,0.077 -7.683,4.501 -7.683,4.501l3.152,9.371l8.6,6.179l8.526,10.162Zm-64.517,-7.171l-9.714,-5.527l1.146,-6.28l5.191,-3.042l4.057,1.744l4.47,4.478l-0.085,5.659l-5.065,2.968Zm30.283,-23.855l-5.042,5.49l-10.806,-0.858l-2.238,-4.75l-1.605,-8.245l10.344,-11.669l3.07,5.269l5.436,0.965l2.99,10.238l-2.149,3.56Zm-42.702,5.119l-7.471,-8.486l0.629,-15.55l4.861,-8.457l7.639,3.284l3.734,6.879l0.661,10.831l-10.053,11.499Zm93.013,-28.565l-2.663,11.269l-6.387,5.934l-14.945,-3.07l4.461,-15.019l10.414,-5.566l9.12,6.452Zm-32.486,4.321l7.621,-4.465l4.724,-10.709l-3.046,-9.663l-19.233,-2.996l-6.432,7.782l-1.006,7.793l6.329,7.51l11.043,4.748Zm-36.986,-6.375l6.479,-6.129l-3.056,-12.703l-8.623,-2.491l-7.623,-1.458l-2.976,3.993l-3.5,-1.505l-5.379,1.098l-1.633,4.367l5.65,4.497l4.241,3.125l7.816,4.755l8.604,2.451Zm10.659,-25.764l10.639,-1.877l10.285,-7.689l-2.017,-7.71l-4.768,-5.754l-7.679,1.971l-4.985,5.448l-3.648,6.661l2.173,8.95Zm48.103,-4.723l8.069,-10.782l-1.707,-6.008l-8.575,-19.507c0,0 -7.896,6.006 -10.382,6.083c-2.486,0.078 -7.683,4.501 -7.683,4.501l3.152,9.371l8.599,6.18l8.527,10.162Z" style="fill:#86492a;fill-opacity:0.7;"/></g><path d="M161.147,144.26l-5.042,5.43l-10.806,-0.848l-2.238,-4.698l-1.605,-8.156l10.344,-11.541l3.07,5.211l5.436,0.955l2.99,10.126l-2.149,3.521" style="fill:#dc8976;"/><clipPath id="_clip8"><path d="M161.147,144.26l-5.042,5.43l-10.806,-0.848l-2.238,-4.698l-1.605,-8.156l10.344,-11.541l3.07,5.211l5.436,0.955l2.99,10.126l-2.149,3.521"/></clipPath><g clip-path="url(#_clip8)"><path d="M128.921,258.537l-9.713,-5.527l1.145,-6.28l5.192,-3.041l4.056,1.744l4.47,4.478l-0.084,5.658l-5.066,2.968Zm30.283,-23.855l-5.042,5.491l-10.806,-0.859l-2.237,-4.75l-1.605,-8.245l10.343,-11.668l3.071,5.268l5.435,0.966l2.991,10.237l-2.15,3.56Zm-42.702,5.119l-7.47,-8.485l0.628,-15.551l4.862,-8.456l7.638,3.284l3.735,6.879l0.66,10.831l-10.053,11.498Zm93.013,-28.564l-2.662,11.269l-6.388,5.934l-14.945,-3.07l4.462,-15.02l10.414,-5.565l9.119,6.452Zm-32.485,4.32l7.62,-4.464l4.724,-10.709l-3.045,-9.663l-19.234,-2.996l-6.431,7.781l-1.006,7.794l6.329,7.51l11.043,4.747Zm-36.987,-6.374l6.48,-6.129l-3.057,-12.703l-8.623,-2.491l-7.622,-1.459l-2.977,3.994l-3.5,-1.505l-5.378,1.097l-1.634,4.368l5.651,4.497l4.24,3.124l7.816,4.756l8.604,2.451Zm10.66,-25.764l10.639,-1.878l10.284,-7.689l-2.016,-7.709l-4.769,-5.755l-7.679,1.972l-4.984,5.448l-3.648,6.661l2.173,8.95Zm48.102,-4.724l8.069,-10.782l-1.706,-6.007l-8.575,-19.507c0,0 -7.897,6.005 -10.383,6.083c-2.486,0.077 -7.683,4.501 -7.683,4.501l3.152,9.371l8.6,6.179l8.526,10.162Zm-64.517,-7.171l-9.714,-5.527l1.146,-6.28l5.191,-3.042l4.057,1.744l4.47,4.478l-0.085,5.659l-5.065,2.968Zm30.283,-23.855l-5.042,5.49l-10.806,-0.858l-2.238,-4.75l-1.605,-8.245l10.344,-11.669l3.07,5.269l5.436,0.965l2.99,10.238l-2.149,3.56Zm-42.702,5.119l-7.471,-8.486l0.629,-15.55l4.861,-8.457l7.639,3.284l3.734,6.879l0.661,10.831l-10.053,11.499Zm93.013,-28.565l-2.663,11.269l-6.387,5.934l-14.945,-3.07l4.461,-15.019l10.414,-5.566l9.12,6.452Zm-32.486,4.321l7.621,-4.465l4.724,-10.709l-3.046,-9.663l-19.233,-2.996l-6.432,7.782l-1.006,7.793l6.329,7.51l11.043,4.748Zm-36.986,-6.375l6.479,-6.129l-3.056,-12.703l-8.623,-2.491l-7.623,-1.458l-2.976,3.993l-3.5,-1.505l-5.379,1.098l-1.633,4.367l5.65,4.497l4.241,3.125l7.816,4.755l8.604,2.451Zm10.659,-25.764l10.639,-1.877l10.285,-7.689l-2.017,-7.71l-4.768,-5.754l-7.679,1.971l-4.985,5.448l-3.648,6.661l2.173,8.95Zm48.103,-4.723l8.069,-10.782l-1.707,-6.008l-8.575,-19.507c0,0 -7.896,6.006 -10.382,6.083c-2.486,0.078 -7.683,4.501 -7.683,4.501l3.152,9.371l8.599,6.18l8.527,10.162Z" style="fill:#86492a;fill-opacity:0.7;"/></g><path d="M141.986,119.039l6.479,-6.063l-3.056,-12.564l-8.623,-2.464l-7.623,-1.443l-2.976,3.95l-3.5,-1.488l-5.378,1.085l-1.634,4.32l5.651,4.448l4.24,3.091l7.816,4.703l8.604,2.425Z" style="fill:#dc8976;"/><clipPath id="_clip9"><path d="M141.986,119.039l6.479,-6.063l-3.056,-12.564l-8.623,-2.464l-7.623,-1.443l-2.976,3.95l-3.5,-1.488l-5.378,1.085l-1.634,4.32l5.651,4.448l4.24,3.091l7.816,4.703l8.604,2.425Z"/></clipPath><g clip-path="url(#_clip9)"><path d="M128.921,258.537l-9.713,-5.527l1.145,-6.28l5.192,-3.041l4.056,1.744l4.47,4.478l-0.084,5.658l-5.066,2.968Zm30.283,-23.855l-5.042,5.491l-10.806,-0.859l-2.237,-4.75l-1.605,-8.245l10.343,-11.668l3.071,5.268l5.435,0.966l2.991,10.237l-2.15,3.56Zm-42.702,5.119l-7.47,-8.485l0.628,-15.551l4.862,-8.456l7.638,3.284l3.735,6.879l0.66,10.831l-10.053,11.498Zm93.013,-28.564l-2.662,11.269l-6.388,5.934l-14.945,-3.07l4.462,-15.02l10.414,-5.565l9.119,6.452Zm-32.485,4.32l7.62,-4.464l4.724,-10.709l-3.045,-9.663l-19.234,-2.996l-6.431,7.781l-1.006,7.794l6.329,7.51l11.043,4.747Zm-36.987,-6.374l6.48,-6.129l-3.057,-12.703l-8.623,-2.491l-7.622,-1.459l-2.977,3.994l-3.5,-1.505l-5.378,1.097l-1.634,4.368l5.651,4.497l4.24,3.124l7.816,4.756l8.604,2.451Zm10.66,-25.764l10.639,-1.878l10.284,-7.689l-2.016,-7.709l-4.769,-5.755l-7.679,1.972l-4.984,5.448l-3.648,6.661l2.173,8.95Zm48.102,-4.724l8.069,-10.782l-1.706,-6.007l-8.575,-19.507c0,0 -7.897,6.005 -10.383,6.083c-2.486,0.077 -7.683,4.501 -7.683,4.501l3.152,9.371l8.6,6.179l8.526,10.162Zm-64.517,-7.171l-9.714,-5.527l1.146,-6.28l5.191,-3.042l4.057,1.744l4.47,4.478l-0.085,5.659l-5.065,2.968Zm30.283,-23.855l-5.042,5.49l-10.806,-0.858l-2.238,-4.75l-1.605,-8.245l10.344,-11.669l3.07,5.269l5.436,0.965l2.99,10.238l-2.149,3.56Zm-42.702,5.119l-7.471,-8.486l0.629,-15.55l4.861,-8.457l7.639,3.284l3.734,6.879l0.661,10.831l-10.053,11.499Zm93.013,-28.565l-2.663,11.269l-6.387,5.934l-14.945,-3.07l4.461,-15.019l10.414,-5.566l9.12,6.452Zm-32.486,4.321l7.621,-4.465l4.724,-10.709l-3.046,-9.663l-19.233,-2.996l-6.432,7.782l-1.006,7.793l6.329,7.51l11.043,4.748Zm-36.986,-6.375l6.479,-6.129l-3.056,-12.703l-8.623,-2.491l-7.623,-1.458l-2.976,3.993l-3.5,-1.505l-5.379,1.098l-1.633,4.367l5.65,4.497l4.241,3.125l7.816,4.755l8.604,2.451Zm10.659,-25.764l10.639,-1.877l10.285,-7.689l-2.017,-7.71l-4.768,-5.754l-7.679,1.971l-4.985,5.448l-3.648,6.661l2.173,8.95Zm48.103,-4.723l8.069,-10.782l-1.707,-6.008l-8.575,-19.507c0,0 -7.896,6.006 -10.382,6.083c-2.486,0.078 -7.683,4.501 -7.683,4.501l3.152,9.371l8.599,6.18l8.527,10.162Z" style="fill:#86492a;fill-opacity:0.7;"/></g><path d="M178.972,125.344l7.621,-4.416l4.724,-10.593l-3.045,-9.557l-19.234,-2.964l-6.432,7.697l-1.006,7.709l6.329,7.428l11.043,4.696Z" style="fill:#dc8976;"/><clipPath id="_clip10"><path d="M178.972,125.344l7.621,-4.416l4.724,-10.593l-3.045,-9.557l-19.234,-2.964l-6.432,7.697l-1.006,7.709l6.329,7.428l11.043,4.696Z"/></clipPath><g clip-path="url(#_clip10)"><path d="M128.921,258.537l-9.713,-5.527l1.145,-6.28l5.192,-3.041l4.056,1.744l4.47,4.478l-0.084,5.658l-5.066,2.968Zm30.283,-23.855l-5.042,5.491l-10.806,-0.859l-2.237,-4.75l-1.605,-8.245l10.343,-11.668l3.071,5.268l5.435,0.966l2.991,10.237l-2.15,3.56Zm-42.702,5.119l-7.47,-8.485l0.628,-15.551l4.862,-8.456l7.638,3.284l3.735,6.879l0.66,10.831l-10.053,11.498Zm93.013,-28.564l-2.662,11.269l-6.388,5.934l-14.945,-3.07l4.462,-15.02l10.414,-5.565l9.119,6.452Zm-32.485,4.32l7.62,-4.464l4.724,-10.709l-3.045,-9.663l-19.234,-2.996l-6.431,7.781l-1.006,7.794l6.329,7.51l11.043,4.747Zm-36.987,-6.374l6.48,-6.129l-3.057,-12.703l-8.623,-2.491l-7.622,-1.459l-2.977,3.994l-3.5,-1.505l-5.378,1.097l-1.634,4.368l5.651,4.497l4.24,3.124l7.816,4.756l8.604,2.451Zm10.66,-25.764l10.639,-1.878l10.284,-7.689l-2.016,-7.709l-4.769,-5.755l-7.679,1.972l-4.984,5.448l-3.648,6.661l2.173,8.95Zm48.102,-4.724l8.069,-10.782l-1.706,-6.007l-8.575,-19.507c0,0 -7.897,6.005 -10.383,6.083c-2.486,0.077 -7.683,4.501 -7.683,4.501l3.152,9.371l8.6,6.179l8.526,10.162Zm-64.517,-7.171l-9.714,-5.527l1.146,-6.28l5.191,-3.042l4.057,1.744l4.47,4.478l-0.085,5.659l-5.065,2.968Zm30.283,-23.855l-5.042,5.49l-10.806,-0.858l-2.238,-4.75l-1.605,-8.245l10.344,-11.669l3.07,5.269l5.436,0.965l2.99,10.238l-2.149,3.56Zm-42.702,5.119l-7.471,-8.486l0.629,-15.55l4.861,-8.457l7.639,3.284l3.734,6.879l0.661,10.831l-10.053,11.499Zm93.013,-28.565l-2.663,11.269l-6.387,5.934l-14.945,-3.07l4.461,-15.019l10.414,-5.566l9.12,6.452Zm-32.486,4.321l7.621,-4.465l4.724,-10.709l-3.046,-9.663l-19.233,-2.996l-6.432,7.782l-1.006,7.793l6.329,7.51l11.043,4.748Zm-36.986,-6.375l6.479,-6.129l-3.056,-12.703l-8.623,-2.491l-7.623,-1.458l-2.976,3.993l-3.5,-1.505l-5.379,1.098l-1.633,4.367l5.65,4.497l4.241,3.125l7.816,4.755l8.604,2.451Zm10.659,-25.764l10.639,-1.877l10.285,-7.689l-2.017,-7.71l-4.768,-5.754l-7.679,1.971l-4.985,5.448l-3.648,6.661l2.173,8.95Zm48.103,-4.723l8.069,-10.782l-1.707,-6.008l-8.575,-19.507c0,0 -7.896,6.006 -10.382,6.083c-2.486,0.078 -7.683,4.501 -7.683,4.501l3.152,9.371l8.599,6.18l8.527,10.162Z" style="fill:#86492a;fill-opacity:0.7;"/></g><path d="M200.748,88.883l8.069,-10.664l-1.707,-5.942l-8.575,-19.295c0,0 -7.896,5.941 -10.382,6.017c-2.486,0.077 -7.683,4.452 -7.683,4.452l3.152,9.269l8.599,6.112l8.527,10.051Z" style="fill:#dc8976;"/><clipPath id="_clip11"><path d="M200.748,88.883l8.069,-10.664l-1.707,-5.942l-8.575,-19.295c0,0 -7.896,5.941 -10.382,6.017c-2.486,0.077 -7.683,4.452 -7.683,4.452l3.152,9.269l8.599,6.112l8.527,10.051Z"/></clipPath><g clip-path="url(#_clip11)"><path d="M128.921,258.537l-9.713,-5.527l1.145,-6.28l5.192,-3.041l4.056,1.744l4.47,4.478l-0.084,5.658l-5.066,2.968Zm30.283,-23.855l-5.042,5.491l-10.806,-0.859l-2.237,-4.75l-1.605,-8.245l10.343,-11.668l3.071,5.268l5.435,0.966l2.991,10.237l-2.15,3.56Zm-42.702,5.119l-7.47,-8.485l0.628,-15.551l4.862,-8.456l7.638,3.284l3.735,6.879l0.66,10.831l-10.053,11.498Zm93.013,-28.564l-2.662,11.269l-6.388,5.934l-14.945,-3.07l4.462,-15.02l10.414,-5.565l9.119,6.452Zm-32.485,4.32l7.62,-4.464l4.724,-10.709l-3.045,-9.663l-19.234,-2.996l-6.431,7.781l-1.006,7.794l6.329,7.51l11.043,4.747Zm-36.987,-6.374l6.48,-6.129l-3.057,-12.703l-8.623,-2.491l-7.622,-1.459l-2.977,3.994l-3.5,-1.505l-5.378,1.097l-1.634,4.368l5.651,4.497l4.24,3.124l7.816,4.756l8.604,2.451Zm10.66,-25.764l10.639,-1.878l10.284,-7.689l-2.016,-7.709l-4.769,-5.755l-7.679,1.972l-4.984,5.448l-3.648,6.661l2.173,8.95Zm48.102,-4.724l8.069,-10.782l-1.706,-6.007l-8.575,-19.507c0,0 -7.897,6.005 -10.383,6.083c-2.486,0.077 -7.683,4.501 -7.683,4.501l3.152,9.371l8.6,6.179l8.526,10.162Zm-64.517,-7.171l-9.714,-5.527l1.146,-6.28l5.191,-3.042l4.057,1.744l4.47,4.478l-0.085,5.659l-5.065,2.968Zm30.283,-23.855l-5.042,5.49l-10.806,-0.858l-2.238,-4.75l-1.605,-8.245l10.344,-11.669l3.07,5.269l5.436,0.965l2.99,10.238l-2.149,3.56Zm-42.702,5.119l-7.471,-8.486l0.629,-15.55l4.861,-8.457l7.639,3.284l3.734,6.879l0.661,10.831l-10.053,11.499Zm93.013,-28.565l-2.663,11.269l-6.387,5.934l-14.945,-3.07l4.461,-15.019l10.414,-5.566l9.12,6.452Zm-32.486,4.321l7.621,-4.465l4.724,-10.709l-3.046,-9.663l-19.233,-2.996l-6.432,7.782l-1.006,7.793l6.329,7.51l11.043,4.748Zm-36.986,-6.375l6.479,-6.129l-3.056,-12.703l-8.623,-2.491l-7.623,-1.458l-2.976,3.993l-3.5,-1.505l-5.379,1.098l-1.633,4.367l5.65,4.497l4.241,3.125l7.816,4.755l8.604,2.451Zm10.659,-25.764l10.639,-1.877l10.285,-7.689l-2.017,-7.71l-4.768,-5.754l-7.679,1.971l-4.985,5.448l-3.648,6.661l2.173,8.95Zm48.103,-4.723l8.069,-10.782l-1.707,-6.008l-8.575,-19.507c0,0 -7.896,6.006 -10.382,6.083c-2.486,0.078 -7.683,4.501 -7.683,4.501l3.152,9.371l8.599,6.18l8.527,10.162Z" style="fill:#86492a;fill-opacity:0.7;"/></g><path d="M152.645,93.556l10.639,-1.858l10.285,-7.605l-2.016,-7.626l-4.769,-5.691l-7.679,1.95l-4.985,5.388l-3.648,6.589l2.173,8.853" style="fill:#dc8976;"/><clipPath id="_clip12"><path d="M152.645,93.556l10.639,-1.858l10.285,-7.605l-2.016,-7.626l-4.769,-5.691l-7.679,1.95l-4.985,5.388l-3.648,6.589l2.173,8.853"/></clipPath><g clip-path="url(#_clip12)"><path d="M128.921,258.537l-9.713,-5.527l1.145,-6.28l5.192,-3.041l4.056,1.744l4.47,4.478l-0.084,5.658l-5.066,2.968Zm30.283,-23.855l-5.042,5.491l-10.806,-0.859l-2.237,-4.75l-1.605,-8.245l10.343,-11.668l3.071,5.268l5.435,0.966l2.991,10.237l-2.15,3.56Zm-42.702,5.119l-7.47,-8.485l0.628,-15.551l4.862,-8.456l7.638,3.284l3.735,6.879l0.66,10.831l-10.053,11.498Zm93.013,-28.564l-2.662,11.269l-6.388,5.934l-14.945,-3.07l4.462,-15.02l10.414,-5.565l9.119,6.452Zm-32.485,4.32l7.62,-4.464l4.724,-10.709l-3.045,-9.663l-19.234,-2.996l-6.431,7.781l-1.006,7.794l6.329,7.51l11.043,4.747Zm-36.987,-6.374l6.48,-6.129l-3.057,-12.703l-8.623,-2.491l-7.622,-1.459l-2.977,3.994l-3.5,-1.505l-5.378,1.097l-1.634,4.368l5.651,4.497l4.24,3.124l7.816,4.756l8.604,2.451Zm10.66,-25.764l10.639,-1.878l10.284,-7.689l-2.016,-7.709l-4.769,-5.755l-7.679,1.972l-4.984,5.448l-3.648,6.661l2.173,8.95Zm48.102,-4.724l8.069,-10.782l-1.706,-6.007l-8.575,-19.507c0,0 -7.897,6.005 -10.383,6.083c-2.486,0.077 -7.683,4.501 -7.683,4.501l3.152,9.371l8.6,6.179l8.526,10.162Zm-64.517,-7.171l-9.714,-5.527l1.146,-6.28l5.191,-3.042l4.057,1.744l4.47,4.478l-0.085,5.659l-5.065,2.968Zm30.283,-23.855l-5.042,5.49l-10.806,-0.858l-2.238,-4.75l-1.605,-8.245l10.344,-11.669l3.07,5.269l5.436,0.965l2.99,10.238l-2.149,3.56Zm-42.702,5.119l-7.471,-8.486l0.629,-15.55l4.861,-8.457l7.639,3.284l3.734,6.879l0.661,10.831l-10.053,11.499Zm93.013,-28.565l-2.663,11.269l-6.387,5.934l-14.945,-3.07l4.461,-15.019l10.414,-5.566l9.12,6.452Zm-32.486,4.321l7.621,-4.465l4.724,-10.709l-3.046,-9.663l-19.233,-2.996l-6.432,7.782l-1.006,7.793l6.329,7.51l11.043,4.748Zm-36.986,-6.375l6.479,-6.129l-3.056,-12.703l-8.623,-2.491l-7.623,-1.458l-2.976,3.993l-3.5,-1.505l-5.379,1.098l-1.633,4.367l5.65,4.497l4.241,3.125l7.816,4.755l8.604,2.451Zm10.659,-25.764l10.639,-1.877l10.285,-7.689l-2.017,-7.71l-4.768,-5.754l-7.679,1.971l-4.985,5.448l-3.648,6.661l2.173,8.95Zm48.103,-4.723l8.069,-10.782l-1.707,-6.008l-8.575,-19.507c0,0 -7.896,6.006 -10.382,6.083c-2.486,0.078 -7.683,4.501 -7.683,4.501l3.152,9.371l8.599,6.18l8.527,10.162Z" style="fill:#86492a;fill-opacity:0.7;"/></g><path d="M211.458,121.07l-9.12,-6.382l-10.414,5.505l-4.461,14.856l14.945,3.037l6.387,-5.87l2.663,-11.146" style="fill:#dc8976;"/><clipPath id="_clip13"><path d="M211.458,121.07l-9.12,-6.382l-10.414,5.505l-4.461,14.856l14.945,3.037l6.387,-5.87l2.663,-11.146"/></clipPath><g clip-path="url(#_clip13)"><path d="M128.921,258.537l-9.713,-5.527l1.145,-6.28l5.192,-3.041l4.056,1.744l4.47,4.478l-0.084,5.658l-5.066,2.968Zm30.283,-23.855l-5.042,5.491l-10.806,-0.859l-2.237,-4.75l-1.605,-8.245l10.343,-11.668l3.071,5.268l5.435,0.966l2.991,10.237l-2.15,3.56Zm-42.702,5.119l-7.47,-8.485l0.628,-15.551l4.862,-8.456l7.638,3.284l3.735,6.879l0.66,10.831l-10.053,11.498Zm93.013,-28.564l-2.662,11.269l-6.388,5.934l-14.945,-3.07l4.462,-15.02l10.414,-5.565l9.119,6.452Zm-32.485,4.32l7.62,-4.464l4.724,-10.709l-3.045,-9.663l-19.234,-2.996l-6.431,7.781l-1.006,7.794l6.329,7.51l11.043,4.747Zm-36.987,-6.374l6.48,-6.129l-3.057,-12.703l-8.623,-2.491l-7.622,-1.459l-2.977,3.994l-3.5,-1.505l-5.378,1.097l-1.634,4.368l5.651,4.497l4.24,3.124l7.816,4.756l8.604,2.451Zm10.66,-25.764l10.639,-1.878l10.284,-7.689l-2.016,-7.709l-4.769,-5.755l-7.679,1.972l-4.984,5.448l-3.648,6.661l2.173,8.95Zm48.102,-4.724l8.069,-10.782l-1.706,-6.007l-8.575,-19.507c0,0 -7.897,6.005 -10.383,6.083c-2.486,0.077 -7.683,4.501 -7.683,4.501l3.152,9.371l8.6,6.179l8.526,10.162Zm-64.517,-7.171l-9.714,-5.527l1.146,-6.28l5.191,-3.042l4.057,1.744l4.47,4.478l-0.085,5.659l-5.065,2.968Zm30.283,-23.855l-5.042,5.49l-10.806,-0.858l-2.238,-4.75l-1.605,-8.245l10.344,-11.669l3.07,5.269l5.436,0.965l2.99,10.238l-2.149,3.56Zm-42.702,5.119l-7.471,-8.486l0.629,-15.55l4.861,-8.457l7.639,3.284l3.734,6.879l0.661,10.831l-10.053,11.499Zm93.013,-28.565l-2.663,11.269l-6.387,5.934l-14.945,-3.07l4.461,-15.019l10.414,-5.566l9.12,6.452Zm-32.486,4.321l7.621,-4.465l4.724,-10.709l-3.046,-9.663l-19.233,-2.996l-6.432,7.782l-1.006,7.793l6.329,7.51l11.043,4.748Zm-36.986,-6.375l6.479,-6.129l-3.056,-12.703l-8.623,-2.491l-7.623,-1.458l-2.976,3.993l-3.5,-1.505l-5.379,1.098l-1.633,4.367l5.65,4.497l4.241,3.125l7.816,4.755l8.604,2.451Zm10.659,-25.764l10.639,-1.877l10.285,-7.689l-2.017,-7.71l-4.768,-5.754l-7.679,1.971l-4.985,5.448l-3.648,6.661l2.173,8.95Zm48.103,-4.723l8.069,-10.782l-1.707,-6.008l-8.575,-19.507c0,0 -7.896,6.006 -10.382,6.083c-2.486,0.078 -7.683,4.501 -7.683,4.501l3.152,9.371l8.599,6.18l8.527,10.162Z" style="fill:#86492a;fill-opacity:0.7;"/></g></g></g><path d="M0.219,54.234l107.331,53.665l0,96.598l-107.331,-53.665l0,-96.598" style="fill:#584224;"/><clipPath id="_clip14"><path d="M0.219,54.234l107.331,53.665l0,96.598l-107.331,-53.665l0,-96.598"/></clipPath><g clip-path="url(#_clip14)"><path d="M5.712,226.21l-7.471,-8.946l0.629,-16.393l4.861,-8.916l7.639,3.463l3.734,7.252l0.66,11.418l-10.052,12.122" style="fill:#816b40;"/><path d="M48.413,220.814l-5.042,5.788l-10.805,-0.905l-2.238,-5.007l-1.605,-8.693l10.343,-12.302l3.071,5.555l5.435,1.018l2.991,10.793l-2.15,3.753" style="fill:#816b40;"/><path d="M29.252,193.931l6.48,-6.461l-3.057,-13.393l-8.623,-2.626l-7.622,-1.538l-2.977,4.211l-3.5,-1.587l-5.378,1.157l-1.634,4.604l5.651,4.741l4.24,3.294l7.816,5.014l8.604,2.584Z" style="fill:#816b40;"/><path d="M66.239,200.651l7.62,-4.706l4.724,-11.29l-3.045,-10.188l-19.233,-3.158l-6.432,8.204l-1.006,8.216l6.329,7.917l11.043,5.005Z" style="fill:#643636;"/><path d="M88.015,161.789l8.068,-11.366l-1.706,-6.334l-8.575,-20.565c0,0 -7.897,6.331 -10.383,6.413c-2.485,0.081 -7.683,4.745 -7.683,4.745l3.152,9.88l8.6,6.514l8.527,10.713Z" style="fill:#643636;"/><path d="M39.912,166.769l10.639,-1.979l10.285,-8.106l-2.017,-8.128l-4.768,-6.067l-7.68,2.079l-4.984,5.743l-3.648,7.023l2.173,9.435" style="fill:#643636;"/><path d="M105.91,184.014l-9.093,-6.349l-10.432,5.55l-4.516,14.885l14.93,2.979l6.408,-5.899l2.703,-11.166" style="fill:#643636;"/><path d="M11.078,134.476l-7.471,-8.946l0.629,-16.393l4.861,-8.916l7.639,3.462l3.734,7.253l0.661,11.418l-10.053,12.122" style="fill:#643636;"/><path d="M23.497,154.229l-9.714,-5.827l1.146,-6.621l5.191,-3.206l4.057,1.839l4.47,4.721l-0.085,5.965l-5.065,3.129Z" style="fill:#643636;"/><path d="M53.78,129.08l-5.042,5.788l-10.806,-0.905l-2.238,-5.007l-1.605,-8.693l10.344,-12.302l3.07,5.555l5.436,1.018l2.991,10.793l-2.15,3.753" style="fill:#643636;"/><path d="M34.619,102.197l6.48,-6.462l-3.057,-13.392l-8.623,-2.626l-7.622,-1.538l-2.977,4.211l-3.5,-1.587l-5.378,1.157l-1.634,4.604l5.651,4.741l4.24,3.294l7.816,5.014l8.604,2.584Z" style="fill:#643636;"/><path d="M71.605,108.917l7.621,-4.706l4.724,-11.29l-3.045,-10.188l-19.234,-3.158l-6.432,8.204l-1.005,8.216l6.328,7.917l11.043,5.005Z" style="fill:#643636;"/><path d="M93.381,70.055l8.069,-11.367l-1.707,-6.333l-8.574,-20.565c0,0 -7.897,6.331 -10.383,6.413c-2.486,0.081 -7.683,4.745 -7.683,4.745l3.152,9.88l8.6,6.514l8.526,10.713Z" style="fill:#816b40;"/><path d="M45.278,75.035l10.639,-1.979l10.285,-8.106l-2.016,-8.128l-4.769,-6.067l-7.679,2.079l-4.985,5.743l-3.648,7.023l2.173,9.435" style="fill:#816b40;"/><path d="M104.091,104.362l-9.119,-6.802l-10.415,5.868l-4.461,15.834l14.945,3.237l6.387,-6.256l2.663,-11.881" style="fill:#643636;"/><path d="M14.742,248.497l-9.714,-5.827l1.146,-6.62l5.192,-3.207l4.056,1.839l4.47,4.721l-0.085,5.965l-5.065,3.129Zm30.283,-25.149l-5.042,5.788l-10.806,-0.904l-2.237,-5.008l-1.606,-8.692l10.344,-12.302l3.07,5.554l5.436,1.018l2.991,10.793l-2.15,3.753Zm-42.702,5.397l-7.47,-8.946l0.628,-16.394l4.862,-8.916l7.638,3.463l3.735,7.252l0.66,11.418l-10.053,12.123Zm100.199,-42.196l-2.704,11.165l-6.407,5.899l-14.931,-2.979l4.516,-14.884l10.433,-5.551l9.093,6.35Zm-39.671,16.637l7.62,-4.707l4.724,-11.29l-3.045,-10.187l-19.234,-3.159l-6.431,8.204l-1.006,8.216l6.329,7.917l11.043,5.006Zm-36.987,-6.721l6.48,-6.461l-3.057,-13.393l-8.623,-2.625l-7.622,-1.538l-2.977,4.21l-3.5,-1.587l-5.378,1.157l-1.634,4.605l5.651,4.741l4.24,3.294l7.816,5.013l8.604,2.584Zm10.66,-27.161l10.639,-1.98l10.284,-8.106l-2.016,-8.128l-4.769,-6.067l-7.679,2.079l-4.985,5.743l-3.648,7.023l2.174,9.436Zm48.102,-4.98l8.069,-11.367l-1.707,-6.333l-8.574,-20.566c0,0 -7.897,6.331 -10.383,6.413c-2.486,0.082 -7.683,4.745 -7.683,4.745l3.152,9.88l8.6,6.514l8.526,10.714Zm-64.518,-7.561l-9.713,-5.827l1.146,-6.62l5.191,-3.207l4.057,1.839l4.47,4.721l-0.085,5.965l-5.066,3.129Zm30.284,-25.149l-5.042,5.788l-10.806,-0.905l-2.238,-5.007l-1.605,-8.693l10.344,-12.301l3.07,5.554l5.436,1.018l2.99,10.793l-2.149,3.753Zm-42.702,5.396l-7.471,-8.945l0.629,-16.394l4.861,-8.916l7.639,3.463l3.734,7.252l0.66,11.418l-10.052,12.122Zm93.013,-30.114l-2.663,11.881l-6.387,6.256l-14.945,-3.237l4.461,-15.834l10.414,-5.868l9.12,6.802Zm-32.486,4.556l7.62,-4.707l4.724,-11.29l-3.045,-10.188l-19.233,-3.158l-6.432,8.204l-1.006,8.216l6.329,7.917l11.043,5.006Zm-36.987,-6.721l6.48,-6.461l-3.056,-13.393l-8.623,-2.625l-7.623,-1.539l-2.976,4.211l-3.5,-1.587l-5.379,1.157l-1.634,4.605l5.651,4.74l4.24,3.295l7.817,5.013l8.603,2.584Zm10.66,-27.161l10.639,-1.98l10.285,-8.106l-2.017,-8.128l-4.768,-6.067l-7.679,2.079l-4.985,5.743l-3.648,7.023l2.173,9.436Zm48.103,-4.98l8.069,-11.367l-1.707,-6.334l-8.575,-20.565c0,0 -7.897,6.331 -10.382,6.413c-2.486,0.082 -7.683,4.745 -7.683,4.745l3.151,9.88l8.6,6.514l8.527,10.714Z" style="fill:#311807;fill-opacity:0.5;"/></g></g><g id="GrassBlank08"><path d="M214.882,54.234l0,26.833l-10.733,-16.1l0,16.1l-8.671,-4.336l4.333,15.49l-14.975,-22.965l0.451,7.746l-5.842,0.317l3.237,11.289l-1.845,14.847l-3.521,-12.351l-4.171,-5.269l1.51,16.757l-11.171,-11.926l3.099,25.283l-6.378,-5.412l-2.981,-10l-4.789,6.386l7.77,17.581l-8.606,-1.063l-10.552,-12.529l-12.03,-5.352l3.04,22.285l-10.106,-13.941l-14.401,20.828l-7.525,-23.07l-4.834,20.349l-9.107,-22.735l-8.081,10.683l0.214,18.707l-4.13,-4.472l-4.103,-18.245l-5.366,8.05l-5.367,13.416l-1.916,-17.058l-8.817,3.427l6.34,-10.967l4.393,-7.601l-8.851,9.792l-4.514,-13.843l-13.467,20.655l-5.367,-27.337l-8.824,20.511l-4.172,-24.746l5.66,-10.166l-14.13,3.668l-5.367,13.416l0,-42.932l107.331,-53.666l107.332,53.666Z" style="fill:#e18764;"/><clipPath id="_clip15"><path d="M214.882,54.234l0,26.833l-10.733,-16.1l0,16.1l-8.671,-4.336l4.333,15.49l-14.975,-22.965l0.451,7.746l-5.842,0.317l3.237,11.289l-1.845,14.847l-3.521,-12.351l-4.171,-5.269l1.51,16.757l-11.171,-11.926l3.099,25.283l-6.378,-5.412l-2.981,-10l-4.789,6.386l7.77,17.581l-8.606,-1.063l-10.552,-12.529l-12.03,-5.352l3.04,22.285l-10.106,-13.941l-14.401,20.828l-7.525,-23.07l-4.834,20.349l-9.107,-22.735l-8.081,10.683l0.214,18.707l-4.13,-4.472l-4.103,-18.245l-5.366,8.05l-5.367,13.416l-1.916,-17.058l-8.817,3.427l6.34,-10.967l4.393,-7.601l-8.851,9.792l-4.514,-13.843l-13.467,20.655l-5.367,-27.337l-8.824,20.511l-4.172,-24.746l5.66,-10.166l-14.13,3.668l-5.367,13.416l0,-42.932l107.331,-53.666l107.332,53.666Z"/></clipPath><g clip-path="url(#_clip15)"><path d="M107.55,107.899l0,45.683l-72.924,-1.646l-34.407,-47.118l0,-50.656l107.331,53.737Z" style="fill:#311807;fill-opacity:0.2;"/><path d="M214.882,107.899l0,-53.665l-107.332,53.665l0,53.666l107.332,-53.666Z" style="fill:#febc3b;fill-opacity:0.2;"/><path d="M214.882,54.234l-2.247,14.976l-10.612,-8.547l-3.241,12.354l-6.985,-1.874l-12.71,-4.378l-1.771,6.252l3.708,14.245c0,0 -16.03,-13.515 -14.441,-8.879c1.588,4.636 5.366,16.209 5.366,16.209l-10.733,-8.159l2.682,22.807l-10.352,-15.909l-3.063,11.572l0,10.941l-16.1,-15.995l-7.94,1.397l-0.548,15.826l-7.611,-7.33l-5.367,14.519l-5.367,-0.262l-7.789,-14.628l-5.219,8.124l-10.144,-14.119l-14.414,12.573l-10.733,5.367l2.547,-22.74l-13.28,12.007l-7.128,-14.298l-6.253,15.621l-8.085,-17.423l-13.381,6.69l13.381,-22.79c0,0 -0.374,-1.702 -2.747,-1.373c-2.374,0.328 -18.719,1.373 -18.719,1.373l-5.367,2.684l-0.071,-26.869l107.331,-53.666l107.403,53.702Z" style="fill:#985736;fill-opacity:0.5;"/><path d="M129.017,0.568c0,0 -0.182,0.195 -10.733,5.367c-10.552,5.171 -19.231,9.904 -21.467,21.466c-2.235,11.561 -15.077,22.463 -32.199,21.466c-17.123,-0.996 -42.981,5.495 -53.666,10.733l5.367,45.616l-16.1,-8.116l0,-42.866l0,-10.733l113.666,-50.499l15.132,7.566" style="fill:#7d262d;fill-opacity:0.5;"/><path d="M161.216,16.668c0,0 0.268,-0.283 -10.733,5.366c-11.001,5.65 -3.828,12.234 -21.466,16.1c-17.638,3.866 -31.337,10.937 -34.827,25.519c-3.491,14.581 -5.907,23.628 -18.839,21.402c-12.932,-2.225 -20.889,-14.718 -32.199,-9.355l-5.367,24.149l5.367,36.374l19.498,8.258l34.167,-4.382l3.926,-16.542l-3.926,-21.024c0,0 8.142,-3.757 10.733,-5.367c2.592,-1.61 16.19,-5.168 22.912,-16.822c6.722,-11.654 18.956,-21.982 37.673,-22.651c18.716,-0.669 25.031,-3.196 36.014,-8.826c10.983,-5.629 -42.933,-32.199 -42.933,-32.199" style="fill:#e18764;fill-opacity:0.528571;"/><path d="M214.882,54.234l-10.733,-5.367c0,0 -11.907,6.371 -18.921,7.17c-0.887,0.101 -4.212,1.285 -16.129,1.65c-19.401,0.595 -29.416,9.536 -37.032,20.286c-6.044,8.53 -4.031,8.29 -19.15,16.877c-0.924,0.525 -4.542,1.893 -6.188,2.727c-8.727,4.423 -8.687,4.281 -9.912,4.991l10.733,5.367l0,42.897l107.332,-53.666l0,-42.932" style="fill:#7d262d;fill-opacity:0.5;"/></g></g></g></svg>