<?xml version="1.0" encoding="UTF-8" standalone="no"?><!DOCTYPE svg PUBLIC "-//W3C//DTD SVG 1.1//EN" "http://www.w3.org/Graphics/SVG/1.1/DTD/svg11.dtd"><svg width="100%" height="100%" viewBox="0 0 216 143" version="1.1" xmlns="http://www.w3.org/2000/svg" xmlns:xlink="http://www.w3.org/1999/xlink" xml:space="preserve" xmlns:serif="http://www.serif.com/" style="fill-rule:evenodd;clip-rule:evenodd;stroke-linejoin:round;stroke-miterlimit:1.41421;"><g id="GrassBlank04"><path d="M215.495,58.517l0,26.832l-10.733,-16.099l0,16.099l-8.67,-4.335l4.333,15.49l-14.975,-22.965l0.45,7.746l-5.842,0.317l3.238,11.289l-1.845,14.847l-3.522,-12.351l-4.17,-5.269l1.51,16.756l-11.172,-11.925l3.099,25.283l-6.377,-5.412l-2.981,-10l-4.79,6.386l7.771,17.581l-8.606,-1.063l-10.553,-12.529l-12.03,-5.352l3.041,22.285l-10.107,-13.941l-14.4,20.828l-7.526,-23.07l-4.833,20.348l-9.107,-22.734l-8.081,10.683l0.214,18.707l-4.131,-4.472l-4.102,-18.245l-5.366,8.05l-5.367,13.416l-1.917,-17.058l-8.816,3.427l6.339,-10.967l4.394,-7.601l-8.851,9.792l-4.514,-13.843l-13.468,20.655l-5.366,-27.337l-8.824,20.511l-4.172,-24.747l5.659,-10.165l-14.13,3.668l-5.366,13.416l0,-42.932l107.331,-53.666l107.331,53.666Z" style="fill:#e18764;"/><clipPath id="_clip1"><path d="M215.495,58.517l0,26.832l-10.733,-16.099l0,16.099l-8.67,-4.335l4.333,15.49l-14.975,-22.965l0.45,7.746l-5.842,0.317l3.238,11.289l-1.845,14.847l-3.522,-12.351l-4.17,-5.269l1.51,16.756l-11.172,-11.925l3.099,25.283l-6.377,-5.412l-2.981,-10l-4.79,6.386l7.771,17.581l-8.606,-1.063l-10.553,-12.529l-12.03,-5.352l3.041,22.285l-10.107,-13.941l-14.4,20.828l-7.526,-23.07l-4.833,20.348l-9.107,-22.734l-8.081,10.683l0.214,18.707l-4.131,-4.472l-4.102,-18.245l-5.366,8.05l-5.367,13.416l-1.917,-17.058l-8.816,3.427l6.339,-10.967l4.394,-7.601l-8.851,9.792l-4.514,-13.843l-13.468,20.655l-5.366,-27.337l-8.824,20.511l-4.172,-24.747l5.659,-10.165l-14.13,3.668l-5.366,13.416l0,-42.932l107.331,-53.666l107.331,53.666Z"/></clipPath><g clip-path="url(#_clip1)"><path d="M108.164,112.182l0,45.683l-72.924,-1.646l-34.407,-47.118l0,-50.656l107.331,53.737Z" style="fill:#311807;fill-opacity:0.2;"/><path d="M215.495,112.182l0,-53.665l-107.331,53.665l0,53.666l107.331,-53.666Z" style="fill:#febc3b;fill-opacity:0.2;"/><path d="M215.495,58.517l-2.246,14.976l-10.613,-8.547l-3.24,12.354l-6.986,-1.874l-12.709,-4.379l-1.772,6.253l3.709,14.245c0,0 -16.03,-13.515 -14.442,-8.879c1.589,4.636 5.367,16.209 5.367,16.209l-10.733,-8.159l2.682,22.807l-10.352,-15.909l-3.063,11.571l0,10.942l-16.1,-15.995l-7.94,1.397l-0.548,15.825l-7.612,-7.329l-5.366,14.519l-5.367,-0.262l-7.79,-14.628l-5.219,8.124l-10.143,-14.119l-14.414,12.573l-10.733,5.367l2.547,-22.74l-13.28,12.006l-7.129,-14.297l-6.252,15.621l-8.085,-17.423l-13.381,6.69l13.381,-22.79c0,0 -0.374,-1.702 -2.748,-1.374c-2.373,0.329 -18.719,1.374 -18.719,1.374l-5.366,2.683l-0.071,-26.868l107.331,-53.666l107.402,53.702Z" style="fill:#985736;fill-opacity:0.5;"/></g><path d="M181.034,66.705l2.066,6.539l2.815,-5.901l3.8,3.401l2.664,-4.383l7.017,-1.265l-4.21,-3.262l-0.4,-13.092l-5.931,12.033l-3.813,-11.087l-2.718,6.618l-5.759,-5.157l-0.521,6.596l0.591,4.646l-6.86,-1.444l6.798,4.827l-6.883,6.346l7.86,-1.468l1.164,1.725l2.32,-5.672" style="fill:#7d262d;"/><clipPath id="_clip2"><path d="M181.034,66.705l2.066,6.539l2.815,-5.901l3.8,3.401l2.664,-4.383l7.017,-1.265l-4.21,-3.262l-0.4,-13.092l-5.931,12.033l-3.813,-11.087l-2.718,6.618l-5.759,-5.157l-0.521,6.596l0.591,4.646l-6.86,-1.444l6.798,4.827l-6.883,6.346l7.86,-1.468l1.164,1.725l2.32,-5.672"/></clipPath><g clip-path="url(#_clip2)"><path d="M194.786,48.742l-2.7,12.399l1.35,2.211l-3.253,2.455l-1.52,-4.788l2.061,-7.098l-4.549,-5.154l-1.333,-0.517l1.105,15.654l-3.789,-7.762l-1.429,-5.437l-3.991,0l3.438,12.401l-5.543,-1.131l-4.051,-5.411l-3.386,1.693l2.728,3.069l-0.375,14.207l8.38,-2.553l2.984,3.509l2.794,-1.901l0.959,-2.23l8.458,-1.137l7.506,-6.293l-4.308,-12.749l-1.536,-3.437" style="fill:#e18764;"/></g><path d="M14.593,53.617l2.397,1.445l-3.522,-13.596l5.644,9.508l2.931,-4.831l1.645,5.573l3.316,-3.873l2.243,-1.748l2.543,10.944l2.683,-1.343l-0.206,8.401l1.981,4.529c0,0 -2.464,1.013 -3.112,1.868c-0.648,0.855 1.15,3.263 -1.559,2.221c-2.709,-1.041 -3.738,-0.681 -5.062,-2.391c-1.324,-1.71 -2.565,-3.245 -2.565,-3.245l-3.787,0.34c0,0 -1.408,-3.654 -1.882,0.169c-0.474,3.823 -3.506,-3.317 -3.506,-3.317l-3.209,-6.688l3.027,-3.966Z" style="fill:#7d262d;"/><clipPath id="_clip3"><path d="M14.593,53.617l2.397,1.445l-3.522,-13.596l5.644,9.508l2.931,-4.831l1.645,5.573l3.316,-3.873l2.243,-1.748l2.543,10.944l2.683,-1.343l-0.206,8.401l1.981,4.529c0,0 -2.464,1.013 -3.112,1.868c-0.648,0.855 1.15,3.263 -1.559,2.221c-2.709,-1.041 -3.738,-0.681 -5.062,-2.391c-1.324,-1.71 -2.565,-3.245 -2.565,-3.245l-3.787,0.34c0,0 -1.408,-3.654 -1.882,0.169c-0.474,3.823 -3.506,-3.317 -3.506,-3.317l-3.209,-6.688l3.027,-3.966Z"/></clipPath><g clip-path="url(#_clip3)"><path d="M35.305,53.419l-2.315,8.552l-4.591,-1.612l4.449,-6.72l-3.344,-8.383l-3.401,12.198l-3.185,0.13l0.768,-5.994l-2.003,-7.892l-0.821,13.299l-1.759,-6.524l-1.411,-3.662l-3.32,-6.103l3.91,16.099l-1.182,-0.208l-0.886,0.691l-3.573,1.653l-3.53,3.147c0,0 5.698,1.884 10.227,2.11c3.358,0.168 5.755,-1.379 6.378,-1.061c0.677,0.346 0.748,6.145 2.884,8.954c2.478,3.26 7.01,3.564 7.01,3.564l2.01,-9.805l-2.315,-12.433" style="fill:#e18764;"/></g><path d="M75.647,21.471l-9.536,-8.754l14.903,1.826l-1.314,-8.621l12.047,6.223l5.367,-11.99l8.195,11.891l4.56,-8.453l1.452,4.822l1.892,-6.661l2.358,7.699l1.079,6.423l1.93,-10.925l0.988,3.491l4.378,-1.626l0,3.816l3.698,-8.884l0.29,10.878l2.705,3.649c0,0 1.505,5.408 0.02,7.101c-1.486,1.692 -6.713,7.021 -6.713,7.021c0,0 4.094,-0.53 -1.401,1c-5.495,1.531 -4.376,0.138 -9.332,0.701c-4.956,0.564 -1.727,2.365 -7.804,1.464c-6.078,-0.9 -4.079,-3.698 -6.744,-0.9c-2.664,2.797 -1.199,2.398 -3.597,4.663c-2.398,2.264 -3.271,-0.948 -5.366,-4.204c-2.095,-3.257 -5.636,-7.364 -6.796,-5.444c-1.16,1.921 4.037,1.787 -1.892,2.054c-5.93,0.266 -9.715,6.771 -7.023,-1.144c2.692,-7.915 1.656,-7.116 1.656,-7.116Z" style="fill:#7d262d;"/><clipPath id="_clip4"><path d="M75.647,21.471l-9.536,-8.754l14.903,1.826l-1.314,-8.621l12.047,6.223l5.367,-11.99l8.195,11.891l4.56,-8.453l1.452,4.822l1.892,-6.661l2.358,7.699l1.079,6.423l1.93,-10.925l0.988,3.491l4.378,-1.626l0,3.816l3.698,-8.884l0.29,10.878l2.705,3.649c0,0 1.505,5.408 0.02,7.101c-1.486,1.692 -6.713,7.021 -6.713,7.021c0,0 4.094,-0.53 -1.401,1c-5.495,1.531 -4.376,0.138 -9.332,0.701c-4.956,0.564 -1.727,2.365 -7.804,1.464c-6.078,-0.9 -4.079,-3.698 -6.744,-0.9c-2.664,2.797 -1.199,2.398 -3.597,4.663c-2.398,2.264 -3.271,-0.948 -5.366,-4.204c-2.095,-3.257 -5.636,-7.364 -6.796,-5.444c-1.16,1.921 4.037,1.787 -1.892,2.054c-5.93,0.266 -9.715,6.771 -7.023,-1.144c2.692,-7.915 1.656,-7.116 1.656,-7.116Z"/></clipPath><g clip-path="url(#_clip4)"><path d="M129.313,2.582l-5.367,11.242l2.243,5.329l-2.243,2.212l-2.446,-15.961l-2.92,-2.822l1.032,16.616l1.434,6.084l-4.604,-2.302c0,0 0.688,-5.426 -1.444,-3.507c-2.131,1.918 1.919,-13.536 1.919,-13.536l-4.648,-5.566l-2.358,11.912l-2.064,13.691l0,-9.272l-3.512,0.224l1.752,-13.464l-8.973,-6.246l0,10.733l-2.111,1.055l0.976,3.744l1.135,8.43l-8.867,-15.987l1.024,9.569l-6.508,-8.62l-2.643,-1.322l4.29,17.106l-15.021,-11.738l8.84,11.205l-2.582,2.657c0,0 -9.036,4.164 -6.691,5.976c2.345,1.812 -1.091,6.233 -1.091,6.233c0,0 5.201,-1.088 7.782,-1.476c2.582,-0.387 1.802,2.877 7.681,-1.526c5.878,-4.403 1.085,-4.718 7.585,-6.106c6.5,-1.388 7.566,-0.003 7.566,-0.003c0,0 0.426,5.862 2.771,1.919c2.344,-3.944 -0.895,-8.763 -0.895,-8.763c0,0 3.026,2.048 4.838,4.073c1.812,2.025 -1.514,3.517 2.654,3.624c4.167,0.107 1.663,0.426 5.366,0.639c3.704,0.214 -0.537,-0.152 5.367,0.777c5.904,0.929 3.204,0.112 4.607,-2.304c1.403,-2.416 -0.195,-2.096 1.936,-3.055c2.132,-0.96 1.559,-0.228 4.19,-0.008c2.631,0.221 5.224,-0.791 5.367,-2.683c0.142,-1.892 0,-8.394 0,-8.394l-5.367,-10.389Z" style="fill:#e18764;"/></g><g><path d="M106.203,86.33l3.608,11.009l0.809,6.222l-4.538,0.118l0.121,-17.349Z" style="fill:#e18764;"/><path d="M102.798,100.074l3.284,3.605l0.063,-17.268l-3.347,13.663Z" style="fill:#7d262d;"/></g><path d="M86.067,74.301l5.997,16.111l-3.885,2.813l-5.17,-0.226l-5.88,2.94l-3.93,-2.587l-2.832,-1.705l-4.256,-12.303l3.198,2.718l3.89,3.764l-0.754,-7.018l3.214,6.136l1.997,4.629l1.087,-9.457l-1.611,-4.175l4.981,8.591l0.72,4.822l1.624,-0.837l1.61,-14.216Z" style="fill:#7d262d;"/><clipPath id="_clip5"><path d="M86.067,74.301l5.997,16.111l-3.885,2.813l-5.17,-0.226l-5.88,2.94l-3.93,-2.587l-2.832,-1.705l-4.256,-12.303l3.198,2.718l3.89,3.764l-0.754,-7.018l3.214,6.136l1.997,4.629l1.087,-9.457l-1.611,-4.175l4.981,8.591l0.72,4.822l1.624,-0.837l1.61,-14.216Z"/></clipPath><g clip-path="url(#_clip5)"><path d="M85.992,72.035l2.215,16.719l-4.385,-0.555l-1.709,-12.781l-5.428,0.299l3.384,9.991l0.412,4.351l-2.825,-0.486l-1.571,-8.128l-3.97,-2.472l3.421,8.452l-0.142,3.279l-1.44,-2.056c-0.256,-1.668 -0.941,-3.371 -2.055,-5.11l-6.623,-5.602l4.865,7.207l0.695,3.383l1.588,2.888l3.669,1.834l1.563,1.75c0,0 2.531,2.882 3.824,2.999c1.294,0.118 7.056,-0.059 8.409,-0.588c1.352,-0.529 6.611,-3.888 6.611,-3.888l-3.184,-11.778l-7.324,-9.708Z" style="fill:#e18764;"/></g><path d="M155.263,20.564l4.084,14.058l3.456,-4.922l-0.593,10.437l3.786,-11.986l1.589,7.718l3.778,-9.153l0,5.496c0,0 1.647,3.813 2.793,2.403c4.748,-5.842 2.307,1.621 2.574,2.049c1.143,1.835 0,2.542 0,2.542l0.878,2.385c0,0 -2.063,-1.386 -0.878,1.362c1.184,2.748 3.425,5.385 1.867,5.378c-1.558,-0.008 -3.542,-2.188 -5.941,2.023c-0.363,0.637 -1.293,1.467 -1.293,1.467c0,0 -2.767,1.4 -4.103,1.574c-1.336,0.174 -0.903,1.291 -2.993,0.233c-2.09,-1.058 -3.186,-2.807 -3.637,-1.308c-0.452,1.499 -2.112,2.071 -2.112,2.071l-4.335,0.552l-0.656,-1.312c0,0 -3.01,-0.723 -5.798,0.732c-2.788,1.454 -4.412,4.202 -4.412,0.83c0,-3.372 -0.434,-3.253 -0.434,-3.253c0,0 0.003,-2.73 -1.592,-2.923c-1.596,-0.194 -4.903,-0.325 -4.903,-0.325l2.776,-2.367c0,0 -4.739,-3.297 -6.413,-3.772c-1.674,-0.474 -4.321,0.65 -4.321,0.65l2.363,2.692c0,0 -1.512,-1.544 -2.363,-1.181c-0.85,0.362 -4.097,-0.512 -4.097,-0.512l-1.269,-2.172c0,0 0.394,-0.576 1.643,-2.2c1.249,-1.623 1.999,-2.498 1.999,-2.498l0.125,-1.373l-1.869,-5.611l-0.548,-5.092l6.675,10.054l0.018,-8.034l3.717,6.185l0.874,-9.742l3.466,11.615c0,0 1.301,2.581 1.666,-0.52c0.364,-3.102 1.645,-9.911 1.645,-9.911l3.07,-4.846l-1.015,16.607l4.158,-2.079l1.209,-16.704l1.887,20.523l1.775,-4.694l1.704,2.954l0,-16.1Z" style="fill:#7d262d;"/><clipPath id="_clip6"><path d="M155.263,20.564l4.084,14.058l3.456,-4.922l-0.593,10.437l3.786,-11.986l1.589,7.718l3.778,-9.153l0,5.496c0,0 1.647,3.813 2.793,2.403c4.748,-5.842 2.307,1.621 2.574,2.049c1.143,1.835 0,2.542 0,2.542l0.878,2.385c0,0 -2.063,-1.386 -0.878,1.362c1.184,2.748 3.425,5.385 1.867,5.378c-1.558,-0.008 -3.542,-2.188 -5.941,2.023c-0.363,0.637 -1.293,1.467 -1.293,1.467c0,0 -2.767,1.4 -4.103,1.574c-1.336,0.174 -0.903,1.291 -2.993,0.233c-2.09,-1.058 -3.186,-2.807 -3.637,-1.308c-0.452,1.499 -2.112,2.071 -2.112,2.071l-4.335,0.552l-0.656,-1.312c0,0 -3.01,-0.723 -5.798,0.732c-2.788,1.454 -4.412,4.202 -4.412,0.83c0,-3.372 -0.434,-3.253 -0.434,-3.253c0,0 0.003,-2.73 -1.592,-2.923c-1.596,-0.194 -4.903,-0.325 -4.903,-0.325l2.776,-2.367c0,0 -4.739,-3.297 -6.413,-3.772c-1.674,-0.474 -4.321,0.65 -4.321,0.65l2.363,2.692c0,0 -1.512,-1.544 -2.363,-1.181c-0.85,0.362 -4.097,-0.512 -4.097,-0.512l-1.269,-2.172c0,0 0.394,-0.576 1.643,-2.2c1.249,-1.623 1.999,-2.498 1.999,-2.498l0.125,-1.373l-1.869,-5.611l-0.548,-5.092l6.675,10.054l0.018,-8.034l3.717,6.185l0.874,-9.742l3.466,11.615c0,0 1.301,2.581 1.666,-0.52c0.364,-3.102 1.645,-9.911 1.645,-9.911l3.07,-4.846l-1.015,16.607l4.158,-2.079l1.209,-16.704l1.887,20.523l1.775,-4.694l1.704,2.954l0,-16.1Z"/></clipPath><g clip-path="url(#_clip6)"><path d="M179.173,30.076l-4.116,6.541l-3.694,0.127l1.776,-10.359l-1.776,-0.703l-3.55,15.44l-1.817,-3.866l2.411,-9.4l-3.58,-1.341l-1.025,17.456l-2.358,0.335l0.423,-15.073l-2.541,-2.848l-0.039,12.291l-8.21,-17.727l2.813,23.149l12.106,13.046l14.931,-7.648l-1.754,-19.42Z" style="fill:#e18764;"/><path d="M146.386,24.33l-2.494,4.668l-1.41,8.69l-4.473,0.135l1.155,-3.069l1.339,-9.145l-3.325,-2.558l-1.645,14.481l-1.736,-2.331l0.506,-9.523l-1.765,0.882l-0.604,10.432l-2.046,-1.535l-0.907,-11.934l-2.802,2.726l1.663,9.464l-2.794,1.943l-8.514,6.476c0,0 11.061,5.503 12.559,6.28c1.498,0.776 8.852,7.427 8.852,7.427l13.173,2.364l4.145,-5.69l-8.618,-2.807l-1.282,-1.981l1.669,-1.527l4.516,-0.89l-3.435,-4.561l5.479,3.814l0.98,3.796l0.691,-4.541l-3.377,-3.325l-1.989,-3.709l1.669,-13.109l0.463,-8.858l-2.693,0.785l-1.25,11.919l0.475,7.601l-1.596,0.761l-0.579,-13.551Z" style="fill:#e18764;"/></g><path d="M44.273,24.814l-0.777,-6.569l6.088,5.826l1.977,2.253l-1.185,-6.695l3.375,-1.688l3.739,3.255l-0.051,5.426l3.02,1.909l3.207,-5.223c0,0 0.07,-2.311 0.839,-0.302c0.769,2.009 1.673,7.835 1.673,7.835l0.089,2.836l3.225,-5.046c0,0 0.976,0.243 0.789,1.277c-0.186,1.034 -0.379,8.282 -0.379,8.282l1.8,1.29l2.149,0.782l4.338,3.422c0,0 -0.849,2.703 -2.664,2.715c-1.814,0.012 -6.974,1.619 -6.974,1.619c0,0 -1.801,1.324 -4.046,0.963c-2.245,-0.36 -6.665,-1.766 -6.665,-1.766c0,0 -2.712,-0.904 -4.319,-2.411c-1.607,-1.507 -0.716,-3.791 -2.97,-2.799c-2.253,0.991 -5.491,4.56 -5.491,4.56c0,0 -0.759,1.008 -3.13,-0.778c-2.372,-1.787 -3.175,-2.691 -3.175,-2.691l-0.589,-1.177c0,0 0.959,1.013 -0.683,0.342c-1.641,-0.672 -5.239,3.648 -5.349,1.739c-0.109,-1.908 3.129,-4.769 3.017,-5.649c-0.113,-0.88 2.401,-0.171 2.401,-0.171l-2.149,-3.749l-4.595,-5.018l5.373,1.36l1.133,-3.479l3.671,1.077l1.742,5.675l2.511,4.337l0.448,-5.934l-2.511,-3.516l1.098,-4.119Z" style="fill:#7d262d;"/><clipPath id="_clip7"><path d="M44.273,24.814l-0.777,-6.569l6.088,5.826l1.977,2.253l-1.185,-6.695l3.375,-1.688l3.739,3.255l-0.051,5.426l3.02,1.909l3.207,-5.223c0,0 0.07,-2.311 0.839,-0.302c0.769,2.009 1.673,7.835 1.673,7.835l0.089,2.836l3.225,-5.046c0,0 0.976,0.243 0.789,1.277c-0.186,1.034 -0.379,8.282 -0.379,8.282l1.8,1.29l2.149,0.782l4.338,3.422c0,0 -0.849,2.703 -2.664,2.715c-1.814,0.012 -6.974,1.619 -6.974,1.619c0,0 -1.801,1.324 -4.046,0.963c-2.245,-0.36 -6.665,-1.766 -6.665,-1.766c0,0 -2.712,-0.904 -4.319,-2.411c-1.607,-1.507 -0.716,-3.791 -2.97,-2.799c-2.253,0.991 -5.491,4.56 -5.491,4.56c0,0 -0.759,1.008 -3.13,-0.778c-2.372,-1.787 -3.175,-2.691 -3.175,-2.691l-0.589,-1.177c0,0 0.959,1.013 -0.683,0.342c-1.641,-0.672 -5.239,3.648 -5.349,1.739c-0.109,-1.908 3.129,-4.769 3.017,-5.649c-0.113,-0.88 2.401,-0.171 2.401,-0.171l-2.149,-3.749l-4.595,-5.018l5.373,1.36l1.133,-3.479l3.671,1.077l1.742,5.675l2.511,4.337l0.448,-5.934l-2.511,-3.516l1.098,-4.119Z"/></clipPath><g clip-path="url(#_clip7)"><path d="M70.131,27.516l-4.327,15.019c3.04,-0.207 5.308,0.493 6.794,2.112l5.792,-0.862l-1.746,5.338l-8.093,-0.402c0,0 -2.556,-6.391 -2.414,-4.602c0.141,1.79 0.613,5.406 -1.632,7.315c-2.245,1.908 -4.542,0.749 -4.046,-0.429c0.495,-1.179 0,-4.047 0,-4.047l0,-1.953l-1.861,-3.023l-2.186,4.53l0,2.469l-1.803,-4.947l0.375,-2.431l0.109,-4.101c0,0 1.912,-5.72 0.672,-4.382c-1.24,1.338 -8.107,7.438 -8.107,7.438l-0.429,4.922l-2.956,4.648l0,-7.936l-2.505,-3.114l-5.587,1.909l-4.96,6.629l-1.01,-1.719l1.923,-6.116l3.564,-10.354l4.956,8.901l1.58,-0.482l2.039,1.02l1.769,-0.885l4.141,-8.299l0.23,4.161l1.953,-3.07l2.142,-1.071l-2.142,4.622l6.108,-4.543l0.104,1.932l0.87,4.754l1.011,2.399l1.928,0.964l0.805,1.715l-0.093,2.687l1.406,-5.254l1.718,-7.041l1.26,-3.306l-2.978,-7.974l-2.268,15.052l-1.778,-10.392l-1.011,-4.42l-3.795,-4.666l-1.94,3.077l2.699,9.442l-7.371,-7.732l-2.049,-2.231l-2.719,-1.808l3.112,12.238l-0.551,4.322l-2.561,1.28l0,-2.411l-4.046,-6.796l-2.761,1.758l3.764,10.782l-0.576,0.176l-19.862,-7.953l17.918,29.987l44.628,-1.964l1.399,-12.489l-14.606,-18.393Z" style="fill:#e18764;"/></g><path d="M66.887,61.995l-2.262,-15.952l10.733,12.638l6.63,-8.921l-1.263,11.152l5.366,-13.134l2.105,8.772l5.863,-10.403l2.765,14.717l2.999,-12.233l2.368,9.549l9.048,-6.209l-5.498,13.351l-3.55,8.958c0,0 -6.164,-2.417 -7.732,-3.866c-1.567,-1.449 -2.207,-1.365 -4.303,-0.849c-2.097,0.516 -5.862,1.755 -9.431,2.374c-3.569,0.62 -9.358,3.029 -9.358,3.029l-5.487,-0.551c0,0 2.602,2.478 0,0c-2.602,-2.478 -4.426,-4.406 -4.426,-4.406l-5.947,-2.973l6.284,-0.551l5.096,-4.492Z" style="fill:#7d262d;"/><clipPath id="_clip8"><path d="M66.887,61.995l-2.262,-15.952l10.733,12.638l6.63,-8.921l-1.263,11.152l5.366,-13.134l2.105,8.772l5.863,-10.403l2.765,14.717l2.999,-12.233l2.368,9.549l9.048,-6.209l-5.498,13.351l-3.55,8.958c0,0 -6.164,-2.417 -7.732,-3.866c-1.567,-1.449 -2.207,-1.365 -4.303,-0.849c-2.097,0.516 -5.862,1.755 -9.431,2.374c-3.569,0.62 -9.358,3.029 -9.358,3.029l-5.487,-0.551c0,0 2.602,2.478 0,0c-2.602,-2.478 -4.426,-4.406 -4.426,-4.406l-5.947,-2.973l6.284,-0.551l5.096,-4.492Z"/></clipPath><g clip-path="url(#_clip8)"><path d="M112.924,51.123l-7.515,8.667l-3.218,3.757c0,0 -0.118,-8.831 0,-8.831c0.117,0 -2.302,-8.419 -2.302,-8.419l-0.492,15.853l-2.573,1.364l0,-9.541l-2.882,-10.65l-2.484,17.465l-3.956,-4.585l2.459,-9.504l-3.87,-0.284l-2.47,13.213l-2.896,3.919l3.124,-12.295l-1.536,-3.01l-4,11.144l-2.955,3.632l3.322,-11.226l-14.055,-7.028l6.376,19.288l-8.315,-2.219l-15.764,5.026l9.049,11.144l11.167,0.217l6.978,-11.369c0,0 -0.646,0.192 3.427,0.472c4.073,0.28 11.217,0.242 11.217,0.242l0.949,2.223l8.11,6.678l13.05,-1.159l2.055,-24.184Z" style="fill:#e18764;"/></g><path d="M110.62,62.063l7.744,2.655l1.155,7.877l3.749,-6.123l-0.943,-4.895l5.05,2.842l-1.288,6.01l3.447,2.925l2.359,-5.828l-1.641,-0.418l5.367,-3.009l1.394,2.262l-0.417,8.093l4.389,-7.7l0,-1.77l3.93,2.743l-0.268,4.155l0.274,3.799l5.249,-8.108l-0.933,7.381l4.238,-0.362l1.12,-4.807l-2.877,-2.854l4.26,1.239l1.107,6.372l5.366,4.538c0,0 0.455,-1.215 -1.77,0.885c-2.225,2.1 -5.322,3.693 -7.004,4.578c-1.681,0.885 -1.055,1.075 -4.466,1.157c-3.411,0.082 -2.526,0.171 -7.216,0.082c-4.691,-0.088 -2.833,3.54 -7.346,-0.265c-4.514,-3.806 0.499,-7.612 -4.397,-3.806c-4.896,3.806 -5.958,4.514 -7.374,5.576c-1.416,1.062 -2.39,0.265 -2.39,0.265c0,0 -0.885,-0.619 -1.947,-1.416c-1.062,-0.796 -1.416,-0.354 -2.036,-1.327c-0.619,-0.974 -0.491,-2.115 -0.491,-2.115c0,0 -1.435,-0.852 2.095,-2.909c3.53,-2.057 3.176,-1.703 -0.188,-2.411c-3.363,-0.708 -4.54,-1.363 -4.54,-1.363l3.213,-1.646l-0.531,-6.372l-5.443,-5.93Z" style="fill:#7d262d;"/><clipPath id="_clip9"><path d="M110.62,62.063l7.744,2.655l1.155,7.877l3.749,-6.123l-0.943,-4.895l5.05,2.842l-1.288,6.01l3.447,2.925l2.359,-5.828l-1.641,-0.418l5.367,-3.009l1.394,2.262l-0.417,8.093l4.389,-7.7l0,-1.77l3.93,2.743l-0.268,4.155l0.274,3.799l5.249,-8.108l-0.933,7.381l4.238,-0.362l1.12,-4.807l-2.877,-2.854l4.26,1.239l1.107,6.372l5.366,4.538c0,0 0.455,-1.215 -1.77,0.885c-2.225,2.1 -5.322,3.693 -7.004,4.578c-1.681,0.885 -1.055,1.075 -4.466,1.157c-3.411,0.082 -2.526,0.171 -7.216,0.082c-4.691,-0.088 -2.833,3.54 -7.346,-0.265c-4.514,-3.806 0.499,-7.612 -4.397,-3.806c-4.896,3.806 -5.958,4.514 -7.374,5.576c-1.416,1.062 -2.39,0.265 -2.39,0.265c0,0 -0.885,-0.619 -1.947,-1.416c-1.062,-0.796 -1.416,-0.354 -2.036,-1.327c-0.619,-0.974 -0.491,-2.115 -0.491,-2.115c0,0 -1.435,-0.852 2.095,-2.909c3.53,-2.057 3.176,-1.703 -0.188,-2.411c-3.363,-0.708 -4.54,-1.363 -4.54,-1.363l3.213,-1.646l-0.531,-6.372l-5.443,-5.93Z"/></clipPath><g clip-path="url(#_clip9)"><path d="M157.085,65.664l-2.49,4.121l0.649,5.691l-0.59,4.295l-2.936,-6.058l-1.895,-6.314l-2.461,8.493l0.438,2.463l-3.398,1.756l0.963,-4.871l0.987,-7.761l-5.367,-0.339l0.399,1.864l-3.381,7.681l1.754,2.293l-1.416,0.566l-2.722,-0.793l0.797,-4.017l1.529,-5.952l-1.031,-2.471l-5.531,1.47l-1.821,5.588l1.982,3.74l-4.74,0.247l-0.632,-6.969l3.065,-6.899l-6.149,3.074l0.529,8.628l-4.098,-2.355l0,-7.451l-1.116,-0.737l-2.266,3.682l2.909,7.606l-1.493,1.4c0,0 -5.401,8.48 -5.051,8.97c0.35,0.49 -0.108,4.671 4.227,4.903c4.336,0.231 10.275,-1.45 11.582,-2.365c1.307,-0.915 2.27,-7.656 4.989,-7.09c2.719,0.567 5.684,0.397 7.685,0.454c2.001,0.056 5.367,0.113 5.367,0.113c0,0 -5.632,2.719 -0.477,1.586c5.154,-1.133 5.843,-1.756 5.843,-1.756l0,-1.02l5.367,0.633l8.275,-0.066l-0.062,-6.56l-8.213,-9.473" style="fill:#e18764;"/></g></g></svg>