<?xml version="1.0" encoding="UTF-8" standalone="no"?><!DOCTYPE svg PUBLIC "-//W3C//DTD SVG 1.1//EN" "http://www.w3.org/Graphics/SVG/1.1/DTD/svg11.dtd"><svg width="100%" height="100%" viewBox="0 0 216 108" version="1.1" xmlns="http://www.w3.org/2000/svg" xmlns:xlink="http://www.w3.org/1999/xlink" xml:space="preserve" xmlns:serif="http://www.serif.com/" style="fill-rule:evenodd;clip-rule:evenodd;stroke-linejoin:round;stroke-miterlimit:1.41421;"><g id="selector04"><path d="M204.589,54.032l-96.598,48.299l-96.598,-48.299l96.598,-48.299l96.598,48.299l-10.733,0l-85.865,-42.932l-85.865,42.932l85.865,42.933l85.865,-42.933l10.733,0Z" style="fill:#50b2d7;"/><path d="M107.991,0.367l107.331,53.665l-107.331,53.666l-107.332,-53.666l107.332,-53.665" style="fill:none;"/><path d="M22.126,54.032l85.865,-42.932l85.865,42.932l-10.733,5.367l-75.132,-32.2l0,-16.099" style="fill:url(#_Linear1);"/><path d="M193.856,54.032l-85.865,-42.932l-85.865,42.932l10.733,5.367l75.132,-32.2l0,-5.366l0,-10.733" style="fill:url(#_Linear2);"/><path d="M22.126,54.032l85.865,-42.932l85.865,42.932l-10.733,5.367l-75.132,-32.2l0,-16.099" style="fill:url(#_Linear3);"/><path d="M193.856,54.032l-85.865,-42.932l-85.865,42.932l10.733,5.367l75.132,-32.2l0,-5.366l0,-10.733" style="fill:url(#_Linear4);"/><path d="M204.589,54.032l-96.598,48.299l0,5.367l91.231,-45.616l5.367,-8.05" style="fill:url(#_Linear5);"/><path d="M172.389,59.399l-42.932,0l-10.733,-5.367l10.733,10.733l42.932,0l5.367,-2.683l-5.367,-2.683" style="fill:url(#_Linear6);"/><path d="M43.592,59.399l42.932,0l10.734,-5.367l-10.734,10.733l-42.932,0l-5.367,-2.683l5.367,-2.683" style="fill:url(#_Linear7);"/><path d="M11.393,54.032l96.598,48.299l0,5.367l-91.232,-45.616l-5.366,-8.05" style="fill:url(#_Linear8);"/><path d="M97.258,16.466l10.733,-5.366l10.733,5.366l-5.367,2.684l0,21.466l-5.366,8.05l-5.367,-8.05l0,-21.466l-5.366,-2.684" style="fill:#50b2d7;"/><path d="M97.258,91.598l10.733,5.367l10.733,-5.367l-5.367,-2.683l0,-21.466l-5.366,-8.05l-5.367,8.05l0,21.466l-5.366,2.683" style="fill:#50b2d7;"/><path d="M118.724,54.032l10.733,-5.366l42.932,0l5.367,-2.684l16.1,8.05l-16.1,8.05l-5.367,-2.683l-42.932,0l-10.733,-5.367" style="fill:#50b2d7;"/><path d="M97.258,54.032l-10.734,-5.366l-42.932,0l-5.367,-2.684l-16.099,8.05l16.099,8.05l5.367,-2.683l42.932,0l10.734,-5.367" style="fill:#50b2d7;"/></g><defs><linearGradient id="_Linear1" x1="0" y1="0" x2="1" y2="0" gradientUnits="userSpaceOnUse" gradientTransform="matrix(177.097,0,0,53.6656,22.1257,35.2492)"><stop offset="0" style="stop-color:#6ad7f1;stop-opacity:0"/><stop offset="1" style="stop-color:#50b2d7;stop-opacity:1"/></linearGradient><linearGradient id="_Linear2" x1="0" y1="0" x2="1" y2="0" gradientUnits="userSpaceOnUse" gradientTransform="matrix(-177.097,0,0,53.6656,193.856,35.2492)"><stop offset="0" style="stop-color:#6ad7f1;stop-opacity:0"/><stop offset="1" style="stop-color:#50b2d7;stop-opacity:1"/></linearGradient><linearGradient id="_Linear3" x1="0" y1="0" x2="1" y2="0" gradientUnits="userSpaceOnUse" gradientTransform="matrix(177.097,0,0,53.6656,22.1257,35.2492)"><stop offset="0" style="stop-color:#6ad7f1;stop-opacity:0"/><stop offset="1" style="stop-color:#50b2d7;stop-opacity:1"/></linearGradient><linearGradient id="_Linear4" x1="0" y1="0" x2="1" y2="0" gradientUnits="userSpaceOnUse" gradientTransform="matrix(-177.097,0,0,53.6656,193.856,35.2492)"><stop offset="0" style="stop-color:#6ad7f1;stop-opacity:0"/><stop offset="1" style="stop-color:#50b2d7;stop-opacity:1"/></linearGradient><linearGradient id="_Linear5" x1="0" y1="0" x2="1" y2="0" gradientUnits="userSpaceOnUse" gradientTransform="matrix(-177.097,0,0,53.6656,285.087,80.865)"><stop offset="0" style="stop-color:#6ad7f1;stop-opacity:0"/><stop offset="1" style="stop-color:#50b2d7;stop-opacity:1"/></linearGradient><linearGradient id="_Linear6" x1="0" y1="0" x2="1" y2="0" gradientUnits="userSpaceOnUse" gradientTransform="matrix(-177.097,0,0,53.6656,259.888,71.9983)"><stop offset="0" style="stop-color:#6ad7f1;stop-opacity:0"/><stop offset="1" style="stop-color:#50b2d7;stop-opacity:1"/></linearGradient><linearGradient id="_Linear7" x1="0" y1="0" x2="1" y2="0" gradientUnits="userSpaceOnUse" gradientTransform="matrix(177.097,0,0,53.6656,-43.9068,71.9983)"><stop offset="0" style="stop-color:#6ad7f1;stop-opacity:0"/><stop offset="1" style="stop-color:#50b2d7;stop-opacity:1"/></linearGradient><linearGradient id="_Linear8" x1="0" y1="0" x2="1" y2="0" gradientUnits="userSpaceOnUse" gradientTransform="matrix(177.097,0,0,53.6656,-69.1059,80.865)"><stop offset="0" style="stop-color:#6ad7f1;stop-opacity:0"/><stop offset="1" style="stop-color:#50b2d7;stop-opacity:1"/></linearGradient></defs></svg>