<?xml version="1.0" encoding="UTF-8" standalone="no"?><!DOCTYPE svg PUBLIC "-//W3C//DTD SVG 1.1//EN" "http://www.w3.org/Graphics/SVG/1.1/DTD/svg11.dtd"><svg width="100%" height="100%" viewBox="0 0 216 108" version="1.1" xmlns="http://www.w3.org/2000/svg" xmlns:xlink="http://www.w3.org/1999/xlink" xml:space="preserve" xmlns:serif="http://www.serif.com/" style="fill-rule:evenodd;clip-rule:evenodd;stroke-linejoin:round;stroke-miterlimit:1.41421;"><g id="selector01"><path d="M22.254,54.032l85.865,-42.932l85.865,42.932l-10.733,5.367l-75.132,-32.2l0,-16.099" style="fill:url(#_Linear1);"/><path d="M193.984,54.032l-85.865,-42.932l-85.865,42.932l10.734,5.367l75.131,-32.2l0,-5.366l0,-10.733" style="fill:url(#_Linear2);"/><path d="M22.254,54.032l85.865,-42.932l85.865,42.932l-10.733,5.367l-75.132,-32.2l0,-16.099" style="fill:url(#_Linear3);"/><path d="M193.984,54.032l-85.865,-42.932l-85.865,42.932l10.734,5.367l75.131,-32.2l0,-5.366l0,-10.733" style="fill:url(#_Linear4);"/><path d="M204.718,54.032l-96.599,48.299l0,5.367l91.232,-45.616l5.367,-8.05" style="fill:url(#_Linear5);"/><path d="M11.521,54.032l96.598,48.299l0,5.367l-91.231,-45.616l-5.367,-8.05" style="fill:url(#_Linear6);"/><path d="M204.718,54.032l-96.599,48.299l-96.598,-48.299l96.598,-48.299l96.599,48.299l-10.734,0l-85.865,-42.932l-85.865,42.932l85.865,42.933l85.865,-42.933l10.734,0Z" style="fill:#50d768;"/><path d="M108.119,0.367l107.332,53.665l-107.332,53.666l-107.331,-53.666l107.331,-53.665" style="fill:none;"/></g><defs><linearGradient id="_Linear1" x1="0" y1="0" x2="1" y2="0" gradientUnits="userSpaceOnUse" gradientTransform="matrix(10.3151,-23.4658,23.4658,10.3151,158.202,54.0312)"><stop offset="0" style="stop-color:#93fa49;stop-opacity:0"/><stop offset="1" style="stop-color:#49fa65;stop-opacity:1"/></linearGradient><linearGradient id="_Linear2" x1="0" y1="0" x2="1" y2="0" gradientUnits="userSpaceOnUse" gradientTransform="matrix(-10.3151,-23.4658,-23.4658,10.3151,58.037,54.0312)"><stop offset="0" style="stop-color:#93fa49;stop-opacity:0"/><stop offset="1" style="stop-color:#49fa65;stop-opacity:1"/></linearGradient><linearGradient id="_Linear3" x1="0" y1="0" x2="1" y2="0" gradientUnits="userSpaceOnUse" gradientTransform="matrix(10.3151,-23.4658,23.4658,10.3151,158.202,54.0312)"><stop offset="0" style="stop-color:#93fa49;stop-opacity:0"/><stop offset="1" style="stop-color:#49fa65;stop-opacity:1"/></linearGradient><linearGradient id="_Linear4" x1="0" y1="0" x2="1" y2="0" gradientUnits="userSpaceOnUse" gradientTransform="matrix(-10.3151,-23.4658,-23.4658,10.3151,58.037,54.0312)"><stop offset="0" style="stop-color:#93fa49;stop-opacity:0"/><stop offset="1" style="stop-color:#49fa65;stop-opacity:1"/></linearGradient><linearGradient id="_Linear5" x1="0" y1="0" x2="1" y2="0" gradientUnits="userSpaceOnUse" gradientTransform="matrix(-2.13134,-4.30089,4.30089,-2.13134,145.685,88.9149)"><stop offset="0" style="stop-color:#93fa49;stop-opacity:0"/><stop offset="1" style="stop-color:#49fa65;stop-opacity:1"/></linearGradient><linearGradient id="_Linear6" x1="0" y1="0" x2="1" y2="0" gradientUnits="userSpaceOnUse" gradientTransform="matrix(2.13134,-4.30089,-4.30089,-2.13134,70.5535,88.9149)"><stop offset="0" style="stop-color:#93fa49;stop-opacity:0"/><stop offset="1" style="stop-color:#49fa65;stop-opacity:1"/></linearGradient></defs></svg>