<?xml version="1.0" encoding="UTF-8" standalone="no"?><!DOCTYPE svg PUBLIC "-//W3C//DTD SVG 1.1//EN" "http://www.w3.org/Graphics/SVG/1.1/DTD/svg11.dtd"><svg width="100%" height="100%" viewBox="0 0 132 205" version="1.1" xmlns="http://www.w3.org/2000/svg" xmlns:xlink="http://www.w3.org/1999/xlink" xml:space="preserve" xmlns:serif="http://www.serif.com/" style="fill-rule:evenodd;clip-rule:evenodd;stroke-linejoin:round;stroke-miterlimit:1.41421;"><g id="Tree_bald05"><g><path d="M111.86,78.724l-22.206,13.7l-15.105,3.708l-6.973,5.426l-29.116,-14.414l-19.254,-5.924l-14.677,-9.347l62.886,22.834l44.445,-15.983Z" style="fill:#5d4a29;"/><path d="M111.86,78.724l-14.804,0l-29.48,9.133l-51.944,-13.7l-11.103,-2.284l62.975,22.834l44.356,-15.983Z" style="fill:#9c7c46;"/></g><g><path d="M0.894,118.336l3.26,3.737l41.673,16.729l11.143,8.012l32.999,-12.818l39.723,-11.163l1.949,-3.522l-73.065,18.641l-11.499,-5.99l-46.183,-13.626Z" style="fill:#5d4a29;"/><path d="M0.894,118.336l16.1,2.684l42.838,8.014l59.274,-8.7l12.535,-1.023l-73.162,18.625l-12.483,-5.88l-42.681,-11.225l-2.421,-2.495Z" style="fill:#9c7c46;"/></g><g><path d="M28.467,36.672l18.379,11.356l13.08,8.593l9.296,-6.085l16.565,-7.817l13.94,-8.628l-37.695,16.11l-33.565,-13.529Z" style="fill:#5d4a29;"/><path d="M28.467,36.672l9.809,0.393l21.65,10.845l32.396,-12.304l7.405,-1.515l-39.801,17.163l-31.459,-14.582Z" style="fill:#9c7c46;"/></g><g><path d="M70.659,48.251l5.367,21.786l0,42.933l5.367,67.082l5.366,13.416l-21.466,10.734l0,-203.93l5.366,47.979Z" style="fill:#9c7c46;"/><g><path d="M70.659,137.119l11.593,16.877l25.74,10.506l3.923,5.655l-34.687,-10.105l-6.569,-12.199l0,-10.734Z" style="fill:#9c7c46;"/><path d="M70.659,147.853l0,10.733l2.69,3.544l29.619,8.429l8.947,-0.402l-34.687,-10.105l-6.569,-12.199Z" style="fill:#5d4a29;"/></g><path d="M65.293,0.272l0,203.93l-21.466,-10.734l5.366,-9.326l4.118,-34.23l-1.374,-32.887l3.757,-26.088l4.232,-42.181l5.367,-48.484Z" style="fill:#5d4a29;"/><g><path d="M59.926,97.121l-14.75,9.718l-21.074,-0.107l-4.889,3.254l31.252,0.936l9.461,-8.434l0,-5.367Z" style="fill:#9c7c46;"/><path d="M59.926,102.488l0,5.366l-4.057,4.461l-31.009,0.977l-5.647,-3.306l29.98,0.301l10.733,-7.799Z" style="fill:#5d4a29;"/></g></g></g></svg>