<?xml version="1.0" encoding="UTF-8" standalone="no"?><!DOCTYPE svg PUBLIC "-//W3C//DTD SVG 1.1//EN" "http://www.w3.org/Graphics/SVG/1.1/DTD/svg11.dtd"><svg width="100%" height="100%" viewBox="0 0 135 200" version="1.1" xmlns="http://www.w3.org/2000/svg" xmlns:xlink="http://www.w3.org/1999/xlink" xml:space="preserve" xmlns:serif="http://www.serif.com/" style="fill-rule:evenodd;clip-rule:evenodd;stroke-linejoin:round;stroke-miterlimit:1.41421;"><g id="Tree_other07"><g><path d="M124.497,112.744l-24.234,11.699l-24.093,7.799l-61.513,-17.929l-7.29,-7.419l68.627,19.499l48.503,-13.649Z" style="fill:#5d4a29;"/><path d="M124.497,112.744l-16.156,0l-32.171,7.799l-56.686,-11.699l-12.117,-1.95l68.724,19.499l48.406,-13.649Z" style="fill:#9c7c46;"/></g><g><path d="M82.498,86.378l5.367,104.648l-16.1,8.05l0,-150.264l10.733,37.566Z" style="fill:#9c7c46;"/><path d="M71.765,48.812l0,150.264l-16.099,-8.05l5.366,-104.648l10.733,-37.566Z" style="fill:#5d4a29;"/></g><g><path d="M85.765,110.371l19.632,15.193l10.754,-54.456l-21.782,-4.302l-8.604,43.565Z" style="fill:#4dab3f;"/><path d="M116.151,71.108l17.95,-4.942l-3.695,47.363l-25.009,12.035l10.754,-54.456Z" style="fill:#82e965;"/><path d="M94.369,66.806l23.327,-32.17l-1.545,36.472l-21.782,-4.302Z" style="fill:#4dab3f;"/><path d="M117.696,34.636l16.405,31.53l-17.95,4.942l1.545,-36.472Z" style="fill:#96e257;"/></g><g><path d="M12.153,128.814l26.851,-10.488l-14.529,-38.901l-23.946,18.268l11.624,31.121Z" style="fill:#4dab3f;"/><path d="M24.475,79.425l15.779,-19.536l18.337,28.499l-19.587,29.938l-14.529,-38.901Z" style="fill:#82e965;"/><path d="M0.529,97.693l8.515,-38.987l15.431,20.719l-23.946,18.268Z" style="fill:#4dab3f;"/><path d="M9.044,58.706l31.21,1.183l-15.779,19.536l-15.431,-20.719Z" style="fill:#96e257;"/></g><g><path d="M40.016,87.405l26.408,19.31l5.308,-45.056l-26.408,-19.309l-5.308,45.055Z" style="fill:#4dab3f;"/><path d="M71.732,61.659l24.99,-15.586l5.969,-3.723l-5.308,45.055l-30.959,19.31l5.308,-45.056Z" style="fill:#82e965;"/><path d="M45.324,42.35l26.441,-41.837l-0.033,61.146l-26.408,-19.309Z" style="fill:#4dab3f;"/><path d="M71.765,0.513l30.926,41.837l-30.959,19.309l0.033,-61.146Z" style="fill:#96e257;"/></g></g></svg>