<?xml version="1.0" encoding="UTF-8" standalone="no"?><!DOCTYPE svg PUBLIC "-//W3C//DTD SVG 1.1//EN" "http://www.w3.org/Graphics/SVG/1.1/DTD/svg11.dtd"><svg width="100%" height="100%" viewBox="0 0 102 186" version="1.1" xmlns="http://www.w3.org/2000/svg" xmlns:xlink="http://www.w3.org/1999/xlink" xml:space="preserve" xmlns:serif="http://www.serif.com/" style="fill-rule:evenodd;clip-rule:evenodd;stroke-linejoin:round;stroke-miterlimit:1.41421;"><g id="Tree_cube02"><g><path d="M68.31,123.798l0,53.665l-16.1,8.05l0,-53.666l16.1,-8.049Z" style="fill:#9c7c46;"/><path d="M52.21,131.847l0,53.666l-16.1,-8.05l0,-53.665l16.1,8.049Z" style="fill:#5d4a29;"/></g><g><g><path d="M52.21,3.05l42.932,21.466l-42.932,21.466l-42.933,-21.466l42.933,-21.466Z" style="fill:#96e257;"/><path d="M95.142,24.516l0,85.865l-42.932,21.466l0,-85.865l42.932,-21.466Z" style="fill:#82e965;"/><path d="M52.21,45.982l0,85.865l-42.933,-21.466l0,-85.865l42.933,21.466Z" style="fill:#4dab3f;"/></g><g><path d="M92.823,60.922l8.886,4.443l0,11.849l-11.848,5.924l-8.887,-4.443l0,-11.849l11.849,-5.924Z" style="fill:#96e257;"/><path d="M89.861,71.289l0,11.849l-8.887,-4.443l0,-11.849l8.887,4.443" style="fill:#4dab3f;"/><path d="M89.861,71.289l0,11.849l11.848,-5.924l0,-11.849l-11.848,5.924Z" style="fill:#82e965;"/></g><g><path d="M65.994,83.762l8.05,-4.025l8.05,4.025l-8.05,4.025l-8.05,-4.025Z" style="fill:#96e257;"/><path d="M82.094,99.862l-8.05,4.025l0,-16.1l8.05,-4.025l0,16.1" style="fill:#82e965;"/><path d="M74.044,87.787l0,16.1l-8.05,-4.025l0,-16.1l8.05,4.025" style="fill:#4dab3f;"/></g><g><path d="M74.388,40.26l14.354,7.177l0,19.139l-19.139,9.569l-14.354,-7.177l0,-19.139l19.139,-9.569Z" style="fill:#96e257;"/><path d="M69.603,57.006l0,19.139l-14.354,-7.177l0,-19.139l14.354,7.177" style="fill:#4dab3f;"/><path d="M69.603,57.006l0,19.139l19.139,-9.569l0,-19.139l-19.139,9.569Z" style="fill:#82e965;"/></g><g><path d="M74.967,6.277l14.809,7.404l0,9.873l-19.746,9.872l-14.809,-7.404l0,-9.873l19.746,-9.872Z" style="fill:#96e257;"/><path d="M70.03,23.554l0,9.872l-14.809,-7.404l0,-9.873l14.809,7.405Z" style="fill:#4dab3f;"/><path d="M70.03,23.554l0,9.872l19.746,-9.872l0,-9.873l-19.746,9.873Z" style="fill:#82e965;"/></g><g><path d="M79.171,104.047l9.443,4.722l0,12.59l-12.59,6.296l-9.443,-4.722l0,-12.59l12.59,-6.296Z" style="fill:#96e257;"/><path d="M76.024,115.064l0,12.591l-9.443,-4.722l0,-12.59l9.443,4.721" style="fill:#4dab3f;"/><path d="M76.024,115.064l0,12.591l12.59,-6.296l0,-12.59l-12.59,6.295Z" style="fill:#82e965;"/></g><g><path d="M41.477,94.281l10.822,5.412l5.277,-2.728l5.367,2.683l0,16.1l-10.733,5.366l-16.1,-8.05l0,-16.099l5.367,-2.684Z" style="fill:#96e257;"/><path d="M52.21,105.015l0,16.099l-16.1,-8.05l0,-16.099l16.1,8.05Z" style="fill:#4dab3f;"/><path d="M52.21,105.015l0,16.099l10.733,-5.366l0,-16.1l-10.733,5.367Z" style="fill:#82e965;"/></g><g><path d="M7.099,75.687l15.6,7.799l0,12.48l-6.24,3.12l-15.6,-7.8l0,-12.479l6.24,-3.12Z" style="fill:#96e257;"/><path d="M16.459,86.606l0,12.48l-15.6,-7.8l0,-12.479l15.6,7.799Z" style="fill:#4dab3f;"/><path d="M16.459,86.606l0,12.48l6.24,-3.12l0,-12.48l-6.24,3.12Z" style="fill:#82e965;"/></g><g><path d="M34.701,69.427l13.473,6.737l0,10.778l-5.39,2.695l-13.473,-6.737l0,-10.778l5.39,-2.695Z" style="fill:#96e257;"/><path d="M42.784,78.858l0,10.779l-13.473,-6.737l0,-10.778l13.473,6.736Z" style="fill:#4dab3f;"/><path d="M42.784,78.858l0,10.779l5.39,-2.695l0,-10.778l-5.39,2.694Z" style="fill:#82e965;"/></g><g><path d="M36.11,0.367l14.245,7.122l0,11.395l-5.698,2.849l-14.245,-7.122l0,-11.396l5.698,-2.848Z" style="fill:#96e257;"/><path d="M44.657,10.338l0,11.395l-14.245,-7.122l0,-11.396l14.245,7.123Z" style="fill:#4dab3f;"/><path d="M44.657,10.338l0,11.395l5.698,-2.849l0,-11.395l-5.698,2.849Z" style="fill:#82e965;"/></g><g><path d="M23.556,38.843l22.279,11.14l0,17.823l-8.912,4.456l-22.279,-11.14l0,-17.823l8.912,-4.456Z" style="fill:#96e257;"/><path d="M36.923,54.439l0,17.823l-22.279,-11.14l0,-17.823l22.279,11.14Z" style="fill:#4dab3f;"/><path d="M36.923,54.439l0,17.823l8.912,-4.456l0,-17.823l-8.912,4.456Z" style="fill:#82e965;"/></g><g><path d="M47.799,15.988l8.408,4.204l0,11.212l-11.211,5.605l-8.408,-4.204l0,-11.211l11.211,-5.606Z" style="fill:#96e257;"/><path d="M44.996,25.798l0,11.211l-8.408,-4.204l0,-11.211l8.408,4.204" style="fill:#4dab3f;"/><path d="M44.996,25.798l0,11.211l11.211,-5.605l0,-11.212l-11.211,5.606Z" style="fill:#82e965;"/></g></g></g></svg>