<?xml version="1.0" encoding="UTF-8" standalone="no"?><!DOCTYPE svg PUBLIC "-//W3C//DTD SVG 1.1//EN" "http://www.w3.org/Graphics/SVG/1.1/DTD/svg11.dtd"><svg width="100%" height="100%" viewBox="0 0 132 205" version="1.1" xmlns="http://www.w3.org/2000/svg" xmlns:xlink="http://www.w3.org/1999/xlink" xml:space="preserve" xmlns:serif="http://www.serif.com/" style="fill-rule:evenodd;clip-rule:evenodd;stroke-linejoin:round;stroke-miterlimit:1.41421;"><g id="Tree_bald06"><g><path d="M111.256,79.09l-22.206,13.701l-22.078,9.133l-56.367,-20.996l-6.68,-8.688l62.886,22.834l44.445,-15.984Z" style="fill:#5d4a29;"/><path d="M111.256,79.09l-14.804,0l-29.48,9.134l-51.944,-13.701l-11.103,-2.283l62.975,22.834l44.356,-15.984Z" style="fill:#9c7c46;"/></g><g><path d="M0.29,118.703l16.099,11.73l39.976,16.748l65.602,-17.396l9.07,-10.107l-73.066,18.641l-57.681,-19.616Z" style="fill:#5d4a29;"/><path d="M0.29,118.703l16.099,2.683l42.838,8.014l59.274,-8.7l12.536,-1.022l-73.163,18.625l-57.584,-19.6Z" style="fill:#9c7c46;"/></g><g><path d="M27.863,37.039l14.428,11.449l14.438,7.826l37.786,-15.147l4.607,-6.71l-42.143,16.432l-29.116,-13.85Z" style="fill:#5d4a29;"/><path d="M27.863,37.039l9.809,0.393l19.343,8.022l34.703,-9.481l7.404,-1.516l-42.203,16.429l-29.056,-13.847Z" style="fill:#9c7c46;"/></g><g><path d="M75.422,51.621l5.366,142.022l-16.099,10.925l0,-203.929l10.733,50.982Z" style="fill:#9c7c46;"/><g><path d="M70.055,137.486l11.592,16.876l25.741,10.507l3.923,5.655l-34.688,-10.105l-6.568,-12.2l0,-10.733Z" style="fill:#9c7c46;"/><path d="M70.055,148.219l0,10.733l2.69,3.545l29.619,8.428l8.947,-0.401l-34.688,-10.105l-6.568,-12.2Z" style="fill:#5d4a29;"/></g><path d="M64.689,0.639l0,203.929l-16.1,-10.925l5.366,-142.022l10.734,-50.982Z" style="fill:#5d4a29;"/><g><path d="M59.322,97.488l-14.751,9.718l-21.073,-0.107l-4.889,3.253l26.72,3.414l13.993,-10.912l0,-5.366Z" style="fill:#9c7c46;"/><path d="M59.322,102.854l0,5.367l-12.332,8.514l-22.734,-3.076l-5.647,-3.307l26.72,3.414l13.993,-10.912Z" style="fill:#5d4a29;"/></g></g></g></svg>