<?xml version="1.0" encoding="UTF-8" standalone="no"?><!DOCTYPE svg PUBLIC "-//W3C//DTD SVG 1.1//EN" "http://www.w3.org/Graphics/SVG/1.1/DTD/svg11.dtd"><svg width="100%" height="100%" viewBox="0 0 98 183" version="1.1" xmlns="http://www.w3.org/2000/svg" xmlns:xlink="http://www.w3.org/1999/xlink" xml:space="preserve" xmlns:serif="http://www.serif.com/" style="fill-rule:evenodd;clip-rule:evenodd;stroke-linejoin:round;stroke-miterlimit:1.41421;"><g id="Tree_cube05"><g><path d="M65.316,120.798l0,53.665l-16.1,8.05l0,-53.666l16.1,-8.049Z" style="fill:#a97252;"/><path d="M49.216,128.847l0,53.666l-16.1,-8.05l0,-53.665l16.1,8.049Z" style="fill:#532c19;"/></g><g><g><path d="M49.216,0.05l42.933,21.466l-42.933,21.466l-42.932,-21.466l42.932,-21.466Z" style="fill:#dea052;"/><path d="M92.149,21.516l0,85.865l-42.933,21.466l0,-85.865l42.933,-21.466Z" style="fill:#d57344;"/><path d="M49.216,42.982l0,85.865l-42.932,-21.466l0,-85.865l42.932,21.466Z" style="fill:#983b11;"/></g><g><path d="M81.415,48.349l16.1,8.05l0,21.466l-21.466,10.733l-16.1,-8.05l0,-21.466l21.466,-10.733Z" style="fill:#dea052;"/><path d="M76.049,67.132l0,21.466l-16.1,-8.05l0,-21.466l16.1,8.05" style="fill:#983b11;"/><path d="M76.049,67.132l0,21.466l21.466,-10.733l0,-21.466l-21.466,10.733Z" style="fill:#d57344;"/></g><g><path d="M59.949,0.05l16.1,8.05l0,10.733l-21.466,10.733l-16.1,-8.05l0,-10.733l21.466,-10.733Z" style="fill:#dea052;"/><path d="M54.583,18.833l0,10.733l-16.1,-8.05l0,-10.733l16.1,8.05Z" style="fill:#983b11;"/><path d="M54.583,18.833l0,10.733l21.466,-10.733l0,-10.733l-21.466,10.733Z" style="fill:#d57344;"/></g><g><path d="M64.237,99.871l6.445,3.222l0,8.594l-8.593,4.296l-6.445,-3.222l0,-8.594l8.593,-4.296Z" style="fill:#dea052;"/><path d="M62.089,107.39l0,8.593l-6.445,-3.222l0,-8.594l6.445,3.223" style="fill:#983b11;"/><path d="M62.089,107.39l0,8.593l8.593,-4.296l0,-8.594l-8.593,4.297Z" style="fill:#d57344;"/></g><g><path d="M11.65,67.132l26.833,13.416l0,21.467l-10.733,5.366l-26.833,-13.416l0,-21.467l10.733,-5.366Z" style="fill:#dea052;"/><path d="M27.75,85.915l0,21.466l-26.833,-13.416l0,-21.467l26.833,13.417Z" style="fill:#983b11;"/><path d="M27.75,85.915l0,21.466l10.733,-5.366l0,-21.467l-10.733,5.367Z" style="fill:#d57344;"/></g><g><path d="M31.618,47.983l12.231,6.116l0,9.785l-4.892,2.447l-12.232,-6.116l0,-9.786l4.893,-2.446Z" style="fill:#dea052;"/><path d="M38.957,56.545l0,9.786l-12.232,-6.116l0,-9.786l12.232,6.116Z" style="fill:#983b11;"/><path d="M38.957,56.545l0,9.786l4.892,-2.447l0,-9.785l-4.892,2.446Z" style="fill:#d57344;"/></g></g></g></svg>