<?xml version="1.0" encoding="UTF-8" standalone="no"?><!DOCTYPE svg PUBLIC "-//W3C//DTD SVG 1.1//EN" "http://www.w3.org/Graphics/SVG/1.1/DTD/svg11.dtd"><svg width="100%" height="100%" viewBox="0 0 92 205" version="1.1" xmlns="http://www.w3.org/2000/svg" xmlns:xlink="http://www.w3.org/1999/xlink" xml:space="preserve" xmlns:serif="http://www.serif.com/" style="fill-rule:evenodd;clip-rule:evenodd;stroke-linejoin:round;stroke-miterlimit:1.41421;"><g id="Tree_cube10"><g><path d="M61.056,142.562l0,53.665l-16.1,8.05l0,-53.665l16.1,-8.05Z" style="fill:#a97252;"/><path d="M44.956,150.612l0,53.665l-16.099,-8.05l0,-53.665l16.099,8.05Z" style="fill:#532c19;"/></g><g><path d="M44.956,75.48l42.933,21.466l-42.933,21.466l-42.932,-21.466l42.932,-21.466Z" style="fill:#dea052;"/><path d="M87.889,96.946l0,32.199l-42.933,21.467l0,-32.2l42.933,-21.466Z" style="fill:#d57344;"/><path d="M44.956,118.412l0,32.2l-42.932,-21.467l0,-32.199l42.932,21.466Z" style="fill:#983b11;"/></g><g><path d="M44.679,57.32l31.923,15.961l-31.923,15.961l-31.922,-15.961l31.922,-15.961Z" style="fill:#dea052;"/><path d="M77.156,48.647l-0.554,48.576l-31.923,15.961l0.277,-48.437l32.2,-16.1Z" style="fill:#d57344;"/><path d="M44.956,64.747l-0.277,48.437l-31.922,-15.961l0,-48.576l32.199,16.1Z" style="fill:#983b11;"/></g><g><path d="M45.627,0.683l45.616,22.808l-45.616,22.808l-45.616,-22.808l45.616,-22.808Z" style="fill:#dea052;"/><path d="M91.243,23.491l0,34.212l-45.616,22.808l0,-34.212l45.616,-22.808Z" style="fill:#d57344;"/><path d="M45.627,46.299l0,34.212l-45.616,-22.808l0,-34.212l45.616,22.808Z" style="fill:#983b11;"/></g></g></svg>