<?xml version="1.0" encoding="UTF-8" standalone="no"?><!DOCTYPE svg PUBLIC "-//W3C//DTD SVG 1.1//EN" "http://www.w3.org/Graphics/SVG/1.1/DTD/svg11.dtd"><svg width="100%" height="100%" viewBox="0 0 117 165" version="1.1" xmlns="http://www.w3.org/2000/svg" xmlns:xlink="http://www.w3.org/1999/xlink" xml:space="preserve" xmlns:serif="http://www.serif.com/" style="fill-rule:evenodd;clip-rule:evenodd;stroke-linejoin:round;stroke-miterlimit:1.41421;"><g id="Tree_other09"><g><path d="M63.896,41.52l1.778,42.218l2.444,8.693l4.221,52.768l4.222,10.554l-16.886,8.443l0,-160.417l4.221,37.741Z" style="fill:#a97252;"/><path d="M59.675,3.779l0,160.417l-16.886,-8.443l4.221,-7.337l3.24,-26.926l3.768,-7.857l-1.894,-38.535l3.329,-33.181l4.222,-38.138Z" style="fill:#532c19;"/></g><g><path d="M13.029,131.348l13.783,-8.331l21.854,0.823l3.67,3.32l-0.616,-4.507l-26.543,-5.607l-10.892,5.521l-1.256,8.781Z" style="fill:#a97252;"/><path d="M13.195,131.638l3.483,-7.691l3.077,-1.667l29.001,1.335l3.113,1.381l0.348,2.105l-30.357,-2.073l-8.665,6.61Z" style="fill:#532c19;"/></g><g><circle cx="66.83" cy="50.26" r="50.088" style="fill:#983b11;"/><circle cx="72.988" cy="44.043" r="40.914" style="fill:#d57344;"/><circle cx="82.93" cy="32.808" r="24.899" style="fill:#f8b276;"/><circle cx="82.93" cy="32.808" r="24.899" style="fill:none;"/></g><g><circle cx="23.919" cy="102.481" r="23.189" style="fill:#983b11;"/><circle cx="24.633" cy="100.931" r="18.942" style="fill:#d57344;"/><circle cx="29.736" cy="96.511" r="11.527" style="fill:#f8b276;"/><circle cx="29.736" cy="96.511" r="11.527" style="fill:none;"/></g></g></svg>