<?xml version="1.0" encoding="UTF-8" standalone="no"?><!DOCTYPE svg PUBLIC "-//W3C//DTD SVG 1.1//EN" "http://www.w3.org/Graphics/SVG/1.1/DTD/svg11.dtd"><svg width="100%" height="100%" viewBox="0 0 197 181" version="1.1" xmlns="http://www.w3.org/2000/svg" xmlns:xlink="http://www.w3.org/1999/xlink" xml:space="preserve" xmlns:serif="http://www.serif.com/" style="fill-rule:evenodd;clip-rule:evenodd;stroke-linejoin:round;stroke-miterlimit:1.41421;"><g id="Tree_other03"><g><path d="M177.219,73.606l-32.199,16.1l-32.013,10.733l-81.732,-24.673l-9.686,-10.209l91.184,26.832l64.446,-18.783Z" style="fill:#532c19;"/><path d="M177.219,73.606l-21.466,0l-42.746,10.734l-75.318,-16.1l-16.1,-2.683l91.314,26.832l64.316,-18.783Z" style="fill:#a97252;"/></g><g><path d="M123.554,68.24l5.366,104.648l-16.1,8.05l0,-150.264l10.734,37.566Z" style="fill:#a97252;"/><path d="M112.82,30.674l0,150.264l-16.099,-8.05l5.366,-104.648l10.733,-37.566Z" style="fill:#532c19;"/></g><g><path d="M170.66,32.761l-26.237,13.118l26.237,26.237l19.677,-22.957l-19.677,-16.398Z" style="fill:#dea052;"/><path d="M190.337,49.159l6.56,22.957l-19.678,22.957l-6.559,-22.957l19.677,-22.957Z" style="fill:#d57344;"/><path d="M144.423,45.879l6.56,36.075l26.236,13.119l-6.559,-22.957l-26.237,-26.237" style="fill:#983b11;"/></g><g><path d="M116.146,0.137l26.832,24.15l-42.932,16.099l-26.833,-40.249l42.933,0Z" style="fill:#dea052;"/><path d="M142.978,24.287l0,37.566l-42.932,16.099l0,-37.566l42.932,-16.099Z" style="fill:#d57344;"/><path d="M100.046,40.386l0,37.566l-26.833,-29.516l0,-48.299l26.833,40.249Z" style="fill:#983b11;"/></g><g><path d="M21.589,27.991l32.199,10.733l-16.099,29.516l-37.566,-29.516l21.466,-10.733Z" style="fill:#dea052;"/><path d="M53.788,38.724l16.1,29.516l-16.1,24.149l-16.099,-24.149l16.099,-29.516Z" style="fill:#d57344;"/><path d="M0.123,38.724l10.733,48.299l42.932,5.366l-16.099,-24.149l-37.566,-29.516Z" style="fill:#983b11;"/></g></g></svg>