<?xml version="1.0" encoding="UTF-8" standalone="no"?><!DOCTYPE svg PUBLIC "-//W3C//DTD SVG 1.1//EN" "http://www.w3.org/Graphics/SVG/1.1/DTD/svg11.dtd"><svg width="100%" height="100%" viewBox="0 0 150 189" version="1.1" xmlns="http://www.w3.org/2000/svg" xmlns:xlink="http://www.w3.org/1999/xlink" xml:space="preserve" xmlns:serif="http://www.serif.com/" style="fill-rule:evenodd;clip-rule:evenodd;stroke-linejoin:round;stroke-miterlimit:1.41421;"><g id="Tree_pyramid05"><g><path d="M60.483,107.97l0,75.132l10.733,5.366l0,-75.132l-10.733,-5.366Z" style="fill:#532c19;"/><path d="M81.949,107.97l0,75.132l-10.733,5.366l0,-75.132l10.733,-5.366Z" style="fill:#a97252;"/></g><path d="M22.864,127.638l-8.755,0.989l-3.62,7.382l7.008,5.046l0,-5.367l5.367,-8.05Z" style="fill:#532c19;"/><path d="M22.864,127.638l3.153,6.944l-8.52,6.473l0,-5.367l5.367,-8.05Z" style="fill:#a97252;"/><g><path d="M71.216,0.639l-10.733,16.099l-10.733,5.367l5.366,8.05l16.1,2.683l0,-32.199Z" style="fill:#983b11;"/><path d="M71.216,0.639l10.733,16.099l10.733,5.367l-5.366,8.05l-16.1,2.683l0,-32.199Z" style="fill:#d57344;"/><path d="M71.216,32.838l0,21.466l-21.466,5.367l-16.1,-8.05l10.733,-5.367l10.733,-16.099l16.1,2.683Z" style="fill:#983b11;"/><path d="M71.216,32.838l16.1,-2.683l10.733,16.099l10.733,5.367l-16.1,8.05l-21.466,-5.367l0,-21.466Z" style="fill:#d57344;"/><path d="M49.75,59.671l21.466,-5.367l0,32.2l-32.199,5.366l-21.467,-10.733l10.734,-5.366l16.099,-18.783l5.367,2.683Z" style="fill:#983b11;"/><path d="M92.682,59.671l-21.466,-5.367l0,32.2l32.199,5.366l21.467,-10.733l-10.733,-5.366l-16.1,-18.783l-5.367,2.683Z" style="fill:#d57344;"/><path d="M71.216,86.504l0,42.932l48.299,2.683l21.466,-16.099l-16.099,-8.05l-16.1,-18.783l-5.367,2.683l-32.199,-5.366Z" style="fill:#d57344;"/><path d="M71.216,86.504l0,42.932l-48.299,2.683l-21.466,-16.099l16.099,-8.05l16.1,-18.783l5.367,2.683l32.199,-5.366Z" style="fill:#983b11;"/><path d="M75.803,81.237l21.139,9.265l28.187,0l7.046,3.088l-35.233,3.088l-28.186,-12.353l7.047,-3.088Z" style="fill:#a97252;"/><path d="M68.756,84.325l-4.109,1.801l30.533,13.342l29.949,-2.79l7.046,-3.088l-35.233,3.088l-28.186,-12.353Z" style="fill:#532c19;"/><path d="M93.105,119.181l21.139,9.264l28.187,0l7.046,3.088l-35.233,3.089l-28.186,-12.353l7.047,-3.088Z" style="fill:#a97252;"/><path d="M86.058,122.269l-4.109,1.801l30.533,13.341l29.949,-2.789l7.046,-3.089l-35.233,3.089l-28.186,-12.353Z" style="fill:#532c19;"/><path d="M44.703,128.823l-15.612,12.166l-23.564,7.079l-5.204,4.056l30.141,-6.563l20.817,-16.222l-6.578,-0.516Z" style="fill:#a97252;"/><path d="M51.281,129.339l3.835,0.3l-22.558,17.544l-25.657,5.457l-6.578,-0.516l30.141,-6.563l20.817,-16.222Z" style="fill:#532c19;"/><path d="M55.585,55.778l-14.587,5.368l-19.448,0l-4.863,1.789l24.311,1.79l19.449,-7.158l-4.862,-1.789Z" style="fill:#a97252;"/><path d="M84.474,53.042l10.303,5.616l13.739,0l3.434,1.871l-17.173,1.872l-13.738,-7.487l3.435,-1.872Z" style="fill:#a97252;"/><path d="M60.447,57.567l2.835,1.044l-21.068,7.73l-20.664,-1.616l-4.863,-1.79l24.311,1.79l19.449,-7.158Z" style="fill:#532c19;"/><path d="M81.039,54.914l-2.002,1.091l14.881,8.087l14.598,-1.691l3.434,-1.872l-17.173,1.872l-13.738,-7.487Z" style="fill:#532c19;"/><g><path d="M71.216,0.639l5.367,18.783l10.733,10.733l-16.1,2.683l0,-32.199" style="fill:#bf7b57;"/><path d="M79.335,31.531l-8.119,1.307l0,21.466l21.466,5.367l-10.733,-10.733l-2.614,-17.407Z" style="fill:#bf7b57;"/><path d="M81.984,56.997l-10.768,-2.693l0,32.2l32.199,5.366l-16.099,-13.416l-5.332,-21.457Z" style="fill:#bf7b57;"/><path d="M81.949,88.311l-10.733,-1.807l0,42.932l48.299,2.683l-21.466,-16.099l-16.1,-27.709Z" style="fill:#bf7b57;"/></g><path d="M70.857,64.187l8.582,18.473l18.826,16.147l2.861,6.157l-25.379,-18.063l-11.443,-24.63l6.553,1.916Z" style="fill:#a97252;"/><path d="M64.304,62.271l-3.821,-1.117l12.419,26.653l21.671,15.241l6.553,1.916l-25.379,-18.063l-11.443,-24.63Z" style="fill:#532c19;"/><g><path d="M71.216,0.639l-5.367,18.783l-10.733,10.733l16.1,2.683l0,-32.199" style="fill:#b15553;"/><path d="M63.098,31.531l8.118,1.307l0,21.466l-21.466,5.367l10.733,-10.733l2.615,-17.407Z" style="fill:#b15553;"/><path d="M60.448,56.997l10.768,-2.693l0,32.2l-32.199,5.366l16.099,-13.416l5.332,-21.457Z" style="fill:#b15553;"/><path d="M60.483,88.311l10.733,-1.807l0,42.932l-48.299,2.683l21.466,-16.099l16.1,-27.709Z" style="fill:#b15553;"/></g></g><g><path d="M76.576,70.743l8.755,-0.989l3.619,-7.382l-7.007,-5.046l0,5.367l-5.367,8.05Z" style="fill:#532c19;"/><path d="M76.576,70.743l-3.153,-6.944l8.52,-6.473l0,5.367l-5.367,8.05Z" style="fill:#a97252;"/><path d="M58.427,40.755l-7.807,-0.933l-3.227,-6.961l6.248,-4.758l0,5.061l4.786,7.591Z" style="fill:#532c19;"/><path d="M58.427,40.755l2.812,-6.548l-7.598,-6.104l0,5.061l4.786,7.591Z" style="fill:#a97252;"/><path d="M108.782,89.187l-5.367,8.05l0,5.366l5.367,2.684l5.367,-2.684l-5.367,-2.683l0,-10.733Z" style="fill:#532c19;"/><path d="M114.149,91.87l5.366,8.05l-5.366,2.683l-5.367,-2.683l0,-10.733l5.367,2.683" style="fill:#a97252;"/><path d="M87.316,30.155l-5.367,2.683l0,5.367l3.174,3.779l4.107,-3.027l-2.51,-3.733l0.596,-5.069" style="fill:#532c19;"/><path d="M87.316,30.155l3.703,1.851l-1.87,6.871l-2.557,-3.718l0.724,-5.004Z" style="fill:#a97252;"/><path d="M46.848,94.741l1.002,5.915l10.266,3.131l4.132,-4.351l-5.133,-1.565l-5.134,-1.565l-1.001,-5.916l-4.132,4.351" style="fill:#532c19;"/><path d="M50.98,90.39l5.133,1.565l6.135,7.481l-10.267,-3.13l-1.001,-5.916Z" style="fill:#a97252;"/></g></g></svg>