<?xml version="1.0" encoding="UTF-8" standalone="no"?><!DOCTYPE svg PUBLIC "-//W3C//DTD SVG 1.1//EN" "http://www.w3.org/Graphics/SVG/1.1/DTD/svg11.dtd"><svg width="100%" height="100%" viewBox="0 0 129 226" version="1.1" xmlns="http://www.w3.org/2000/svg" xmlns:xlink="http://www.w3.org/1999/xlink" xml:space="preserve" xmlns:serif="http://www.serif.com/" style="fill-rule:evenodd;clip-rule:evenodd;stroke-linejoin:round;stroke-miterlimit:1.41421;"><g id="Tree_pyramid10"><g><path d="M80.663,164.161l0,53.666l-16.1,8.049l0,-53.665l16.1,-8.05Z" style="fill:#a97252;"/><path d="M64.563,172.211l0,53.665l-16.1,-8.049l0,-53.666l16.1,8.05Z" style="fill:#532c19;"/></g><path d="M72.328,34.862c5.189,22.181 -70.026,49.463 -71.816,66.057c-3.806,35.293 21.756,67.037 57.05,70.844c35.293,3.807 67.037,-21.756 70.844,-57.049c1.79,-16.594 -37.628,-75.192 -56.078,-79.852Z" style="fill:#983b11;"/><clipPath id="_clip1"><path d="M72.328,34.862c5.189,22.181 -70.026,49.463 -71.816,66.057c-3.806,35.293 21.756,67.037 57.05,70.844c35.293,3.807 67.037,-21.756 70.844,-57.049c1.79,-16.594 -37.628,-75.192 -56.078,-79.852Z"/></clipPath><g clip-path="url(#_clip1)"><path d="M78.418,37.775c3.155,2.074 6.613,5.059 10.191,8.672l37.507,79.711c-7.021,23.673 -27.116,41.161 -51.178,45.129l3.48,-133.512Z" style="fill:#dea052;"/><path d="M74.405,15.607c0,0 -63.12,34.724 -65.018,52.32c-3.491,32.37 19.973,61.487 52.366,64.981c32.393,3.494 61.526,-19.95 65.018,-52.32c1.898,-17.595 -52.366,-64.981 -52.366,-64.981Z" style="fill:#5b0e01;fill-opacity:0.6;"/></g><path d="M62.812,18.871c-11.012,0.487 -46.119,50.353 -46.119,50.353c1.178,26.612 23.755,47.261 50.385,46.083c26.631,-1.178 47.296,-23.741 46.119,-50.353c0,0 -54.303,-34.884 -50.385,-46.083Z" style="fill:#983b11;"/><clipPath id="_clip2"><path d="M62.812,18.871c-11.012,0.487 -46.119,50.353 -46.119,50.353c1.178,26.612 23.755,47.261 50.385,46.083c26.631,-1.178 47.296,-23.741 46.119,-50.353c0,0 -54.303,-34.884 -50.385,-46.083Z"/></clipPath><g clip-path="url(#_clip2)"><path d="M64.093,24.493c4.1,7.012 16.011,16.892 27.075,25.133l20.567,29.47c-4.606,17.916 -19.299,31.977 -37.902,35.439l-9.74,-90.042Z" style="fill:#dea052;"/><path d="M62.325,7.875c0,0 -34.932,24.66 -34.494,34.547c0.805,18.189 17.568,32.244 37.41,31.366c19.843,-0.878 35.299,-16.358 34.495,-34.547c-0.438,-9.887 -37.411,-31.366 -37.411,-31.366Z" style="fill:#5b0e01;fill-opacity:0.6;"/></g><path d="M64.945,0.29c4.268,9.78 -32.199,29.516 -32.199,29.516c0,16.29 14.428,29.516 32.199,29.516c17.771,0 32.199,-13.226 32.199,-29.516c0,0 -21.53,-29.516 -32.199,-29.516Z" style="fill:#983b11;"/><clipPath id="_clip3"><path d="M64.945,0.29c4.268,9.78 -32.199,29.516 -32.199,29.516c0,16.29 14.428,29.516 32.199,29.516c17.771,0 32.199,-13.226 32.199,-29.516c0,0 -21.53,-29.516 -32.199,-29.516Z"/></clipPath><g clip-path="url(#_clip3)"><path d="M94.486,41.56c-4.838,10.191 -15.77,17.4 -28.568,17.749l-0.475,-58.388l29.043,40.639Z" style="fill:#dea052;"/></g></g></svg>