<?xml version="1.0" encoding="UTF-8" standalone="no"?><!DOCTYPE svg PUBLIC "-//W3C//DTD SVG 1.1//EN" "http://www.w3.org/Graphics/SVG/1.1/DTD/svg11.dtd"><svg width="100%" height="100%" viewBox="0 0 147 221" version="1.1" xmlns="http://www.w3.org/2000/svg" xmlns:xlink="http://www.w3.org/1999/xlink" xml:space="preserve" xmlns:serif="http://www.serif.com/" style="fill-rule:evenodd;clip-rule:evenodd;stroke-linejoin:round;stroke-miterlimit:1.41421;"><g id="Tree_other06"><g><path d="M119.863,95.09l-22.206,13.701l-22.078,9.133l-56.367,-20.996l-6.68,-8.688l62.886,22.834l44.445,-15.984Z" style="fill:#5d2929;"/><path d="M119.863,95.09l-14.804,0l-29.48,9.134l-51.944,-13.701l-11.103,-2.283l62.975,22.834l44.356,-15.984Z" style="fill:#9c6546;"/></g><g><path d="M8.897,134.703l16.1,11.73l39.976,16.748l65.602,-17.396l9.069,-10.107l-73.065,18.641l-57.682,-19.616Z" style="fill:#5d2929;"/><path d="M8.897,134.703l16.1,2.683l42.838,8.014l59.274,-8.7l12.535,-1.022l-73.162,18.625l-57.585,-19.6Z" style="fill:#9c6546;"/></g><g><path d="M36.47,53.039l14.428,11.449l14.438,7.826l37.786,-15.147l4.608,-6.71l-42.144,16.432l-29.116,-13.85Z" style="fill:#5d2929;"/><path d="M36.47,53.039l9.809,0.393l19.343,8.022l34.703,-9.481l7.405,-1.516l-42.203,16.429l-29.057,-13.847Z" style="fill:#9c6546;"/></g><g><path d="M84.029,67.621l5.367,142.022l-16.1,10.925l0,-203.929l10.733,50.982Z" style="fill:#9c6546;"/><g><path d="M78.663,153.486l11.592,16.876l25.74,10.507l3.923,5.655l-34.687,-10.105l-6.568,-12.2l0,-10.733Z" style="fill:#9c6546;"/><path d="M78.663,164.219l0,10.733l2.689,3.545l29.619,8.428l8.947,-0.401l-34.687,-10.105l-6.568,-12.2Z" style="fill:#5d2929;"/></g><path d="M73.296,16.639l0,203.929l-16.1,-10.925l5.367,-142.022l10.733,-50.982Z" style="fill:#5d2929;"/><g><path d="M67.929,113.488l-14.75,9.718l-21.074,-0.107l-4.889,3.253l26.721,3.414l13.992,-10.912l0,-5.366Z" style="fill:#9c6546;"/><path d="M67.929,118.854l0,5.367l-12.332,8.514l-22.734,-3.076l-5.647,-3.307l26.721,3.414l13.992,-10.912Z" style="fill:#5d2929;"/></g></g><g><g><path d="M73.296,0.539l20.444,42.166l-20.444,14.055l0,-56.221Z" style="fill:#b135be;"/><path d="M73.296,0.539l-20.444,42.166l20.444,14.055l0,-56.221Z" style="fill:#513996;"/></g><g><path d="M120.176,29.346l-4.643,35.541l-18.973,0.397l23.616,-35.938Z" style="fill:#d87bba;"/><path d="M120.176,29.346l-30.78,18.366l7.164,17.572l23.616,-35.938Z" style="fill:#513996;"/></g><g><path d="M35.496,35.539l13.935,20.001l-9.36,8.885l-4.575,-28.886Z" style="fill:#d87bba;"/><path d="M34.499,34.774l-7.073,23.328l11.647,5.558l-4.574,-28.886Z" style="fill:#513996;"/></g><g><path d="M62.563,81.037l17.544,24.688l-11.526,11.147l-6.018,-35.835Z" style="fill:#d87bba;"/><path d="M62.563,81.037l-8.517,29.065l14.535,6.77l-6.018,-35.835Z" style="fill:#513996;"/></g><g><path d="M103.563,124.936l3.239,20.6l-10.525,3.334l7.286,-23.934Z" style="fill:#d87bba;"/><path d="M103.563,124.936l-14.167,15.301l6.881,8.633l7.286,-23.934Z" style="fill:#513996;"/></g><g><path d="M84.02,64.19l3.239,20.599l-10.525,3.334l7.286,-23.933Z" style="fill:#b135be;"/><path d="M84.02,64.19l-14.167,15.301l6.881,8.632l7.286,-23.933Z" style="fill:#513996;"/></g><g><path d="M53.476,48.015l21.711,17.943l-7.664,12.791l-14.047,-30.734Z" style="fill:#b135be;"/><path d="M53.476,48.015l-0.641,28.159l14.688,2.575l-14.047,-30.734Z" style="fill:#513996;"/></g><g><path d="M103.067,101.29l-6.851,27.32l-14.845,-1.413l21.696,-25.907Z" style="fill:#b135be;"/><path d="M103.067,101.29l-25.693,11.541l3.997,14.366l21.696,-25.907Z" style="fill:#513996;"/></g><g><path d="M20.487,149.561l21.461,-5.364l4.515,10.807l-25.976,-5.443Z" style="fill:#b135be;"/><path d="M20.487,149.561l17.503,13.528l8.473,-8.085l-25.976,-5.443Z" style="fill:#513996;"/></g><g><path d="M99.992,152.491l-2.136,19.348l-10.297,0.421l12.433,-19.769Z" style="fill:#b135be;"/><path d="M99.992,152.491l-16.514,10.305l4.081,9.464l12.433,-19.769Z" style="fill:#513996;"/></g><g><path d="M64.948,119.796l13.691,13.837l-6.154,8.267l-7.537,-22.104Z" style="fill:#b135be;"/><path d="M64.948,119.796l-2.385,19.319l9.922,2.785l-7.537,-22.104Z" style="fill:#513996;"/></g><g><path d="M55.237,151.314l18.707,18.906l-8.408,11.296l-10.299,-30.202Z" style="fill:#b135be;"/><path d="M55.237,151.314l-3.258,26.396l13.557,3.806l-10.299,-30.202Z" style="fill:#513996;"/></g><g><path d="M62.563,131.683l-4.965,19.823l-7.522,-1.58l12.487,-18.243Z" style="fill:#b135be;"/><path d="M62.563,131.683l-13.766,7.541l1.279,10.702l12.487,-18.243Z" style="fill:#513996;"/></g><g><path d="M109.17,61.265l20.629,32.998l-12.589,8.678l-8.04,-41.676Z" style="fill:#b135be;"/><path d="M109.17,61.265l-8.569,29.517l16.609,12.159l-8.04,-41.676Z" style="fill:#513996;"/></g><g><path d="M22.757,67.609l23.481,23.915l-18.753,9.641l-4.728,-33.556Z" style="fill:#b135be;"/><path d="M22.757,67.609l-16.389,26.419l21.117,7.137l-4.728,-33.556Z" style="fill:#513996;"/></g><g><path d="M37.219,93.709l17.799,35.988l-11.577,6.178l-6.222,-42.166Z" style="fill:#b135be;"/><path d="M37.219,93.709l-8.465,27.262l14.687,14.904l-6.222,-42.166Z" style="fill:#513996;"/></g><g><path d="M12.514,104.312l20.974,31.956l-15.058,13.52l-5.916,-45.476Z" style="fill:#d87bba;"/><path d="M12.514,104.312l-12.099,36.258l18.015,9.218l-5.916,-45.476Z" style="fill:#513996;"/></g><g><path d="M132.143,110.3l14.66,28.18l-20.35,5.074l5.69,-33.254Z" style="fill:#d87bba;"/><path d="M132.143,110.3l-23.195,21.702l17.505,11.552l5.69,-33.254Z" style="fill:#513996;"/></g><g><path d="M125.171,149.009l-1.12,33.413l-16.957,1.648l18.077,-35.061Z" style="fill:#b135be;"/><path d="M125.171,149.009l-25.996,19.178l7.919,15.883l18.077,-35.061Z" style="fill:#513996;"/></g><g><path d="M79.221,132.299l10.175,15.622l-12.772,14.106l2.597,-29.728Z" style="fill:#b135be;"/><path d="M79.221,132.299l-14.07,28.97l11.473,0.758l2.597,-29.728Z" style="fill:#513996;"/></g></g></g></svg>