<?xml version="1.0" encoding="UTF-8" standalone="no"?><!DOCTYPE svg PUBLIC "-//W3C//DTD SVG 1.1//EN" "http://www.w3.org/Graphics/SVG/1.1/DTD/svg11.dtd"><svg width="100%" height="100%" viewBox="0 0 97 200" version="1.1" xmlns="http://www.w3.org/2000/svg" xmlns:xlink="http://www.w3.org/1999/xlink" xml:space="preserve" xmlns:serif="http://www.serif.com/" style="fill-rule:evenodd;clip-rule:evenodd;stroke-linejoin:round;stroke-miterlimit:1.41421;"><g id="Tree_cube11"><g><path d="M64.589,137.897l0,53.666l-16.1,8.05l0,-53.666l16.1,-8.05Z" style="fill:#9c6546;"/><path d="M48.489,145.947l0,53.666l-16.1,-8.05l0,-53.666l16.1,8.05Z" style="fill:#5d2929;"/></g><g><path d="M46.317,80.462l48.299,13.417l-42.932,21.466l-48.299,-13.416l42.932,-21.467Z" style="fill:#d87bba;"/><path d="M94.616,93.879l0,32.199l-42.932,21.466l0,-32.199l42.932,-21.466Z" style="fill:#b135be;"/><path d="M51.684,115.345l0,32.199l-48.299,-13.416l0,-32.199l48.299,13.416Z" style="fill:#513996;"/></g><g><path d="M48.489,35.487l42.933,21.467l-42.933,21.466l-42.932,-21.466l42.932,-21.467Z" style="fill:#d87bba;"/><path d="M91.422,56.954l0,32.199l-42.933,21.466l0,-32.199l42.933,-21.466Z" style="fill:#b135be;"/><path d="M48.489,78.42l0,32.199l-42.932,-21.466l0,-32.199l42.932,21.466Z" style="fill:#513996;"/></g><g><path d="M53.856,0.439l42.932,21.466l-53.665,16.1l-42.933,-21.466l53.666,-16.1Z" style="fill:#d87bba;"/><path d="M96.788,21.905l0,32.2l-53.665,16.099l0,-32.199l53.665,-16.1Z" style="fill:#b135be;"/><path d="M43.123,38.005l0,32.199l-42.933,-21.466l0,-32.199l42.933,21.466Z" style="fill:#513996;"/></g></g></svg>