<?xml version="1.0" encoding="UTF-8" standalone="no"?><!DOCTYPE svg PUBLIC "-//W3C//DTD SVG 1.1//EN" "http://www.w3.org/Graphics/SVG/1.1/DTD/svg11.dtd"><svg width="100%" height="100%" viewBox="0 0 123 164" version="1.1" xmlns="http://www.w3.org/2000/svg" xmlns:xlink="http://www.w3.org/1999/xlink" xml:space="preserve" xmlns:serif="http://www.serif.com/" style="fill-rule:evenodd;clip-rule:evenodd;stroke-linejoin:round;stroke-miterlimit:1.41421;"><g id="Tree_other04"><g><g><path d="M97.823,85.102l-17.468,-10.777l-11.882,-2.916l-5.485,-4.269l-22.904,11.338l-15.146,4.661l-11.545,7.352l49.468,-17.962l34.962,12.573Z" style="fill:#5d2929;"/><path d="M89.726,76.521l8.169,8.546l-10.104,-6.188l-21.339,-8.595l-41.382,12.862l-11.677,7.15l5.324,-6.509l47.679,-18.892l23.33,11.626Z" style="fill:#9c6546;"/></g><g><path d="M11.72,126.481l2.638,-3.028l35.743,-6.408l8.765,-6.302l25.781,8.247l31.484,4.694l-7.559,2.237l-41.751,-5.521l-6.691,-2.686l-9.046,4.712l-39.364,4.055Z" style="fill:#5d2929;"/><path d="M13.393,124.438l12.665,-2.111l33.697,-6.304l46.627,6.844l9.861,0.804l-57.552,-14.651l-9.819,4.625l-33.574,8.83l-1.905,1.963Z" style="fill:#9c6546;"/></g><g><path d="M34.605,53.789l14.041,-4.194l10.289,-6.76l7.312,4.787l13.789,4.481l10.299,3.749c-10.488,-0.3 -20.269,-3.5 -29.743,-7.967l-14.196,5.722l-11.791,0.182Z" style="fill:#5d2929;"/><path d="M34.457,53.733l7.716,-0.309l17.031,-8.531l25.483,9.679l5.825,1.192l-31.308,-13.502l-24.747,11.471Z" style="fill:#9c6546;"/></g></g><g><path d="M64.407,41.236l1.778,42.217l2.444,8.693l4.221,52.769l4.222,10.554l-16.886,8.443l0,-160.418l4.221,37.742Z" style="fill:#9c6546;"/><g><path d="M61.246,109.096l13.783,-8.331l21.855,0.823l3.67,3.32l-0.616,-4.507l-26.543,-5.607l-10.893,5.521l-1.256,8.781Z" style="fill:#9c6546;"/><path d="M61.413,109.386l3.482,-7.691l3.078,-1.667l29.001,1.335l3.113,1.381l0.348,2.105l-30.357,-2.073l-8.665,6.61Z" style="fill:#5d2929;"/></g><path d="M60.186,3.494l0,160.418l-16.886,-8.443l4.221,-7.337l3.24,-26.926l3.768,-7.857l-1.894,-38.535l3.329,-33.181l4.222,-38.139Z" style="fill:#5d2929;"/><g><path d="M55.836,102.416l-11.603,-7.645l-16.577,0.084l-3.846,-2.559l24.584,-0.737l7.442,6.635l0,4.222Z" style="fill:#9c6546;"/><path d="M56.552,107.276l-0.674,-4.811l-10.78,-7.893l-17.388,0.292l-3.801,-2.364l2.789,3.446l4.417,0.61l13.551,0.563l11.886,10.157Z" style="fill:#5d2929;"/></g></g><g><g><path d="M60.09,0.483l11.408,23.53l-11.408,7.843l0,-31.373Z" style="fill:#b135be;"/><path d="M60.09,0.483l-11.409,23.53l11.409,7.843l0,-31.373Z" style="fill:#513996;"/></g><g><path d="M74.198,28.688l15.004,18.215l-8.341,9.303l-6.663,-27.518Z" style="fill:#b135be;"/><path d="M74.198,28.688l-5.009,23.061l11.672,4.457l-6.663,-27.518Z" style="fill:#513996;"/></g><g><path d="M26.072,26.826l21.054,19.625l-8.219,10.615l-12.835,-30.24Z" style="fill:#b135be;"/><path d="M26.072,26.826l-1.801,25.735l14.636,4.505l-12.835,-30.24Z" style="fill:#513996;"/></g><g><path d="M60.765,51.504l7.488,27.121l-13.6,6.077l6.112,-33.198Z" style="fill:#b135be;"/><path d="M60.765,51.504l-16.656,22.676l10.544,10.522l6.112,-33.198Z" style="fill:#513996;"/></g><g><path d="M92.061,51.955l0.904,28.941l-11.344,0.864l10.44,-29.805Z" style="fill:#b135be;"/><path d="M92.061,51.955l-16.564,15.767l6.124,14.038l10.44,-29.805Z" style="fill:#513996;"/></g><g><path d="M17.833,67.603l10.126,14.207l-7.362,5.41l-2.764,-19.617Z" style="fill:#b135be;"/><path d="M17.833,67.603l-5.98,15.218l8.744,4.399l-2.764,-19.617Z" style="fill:#513996;"/></g><g><path d="M30.739,78.568l6.192,17.047l-8.43,4.597l2.238,-21.644Z" style="fill:#b135be;"/><path d="M30.739,78.568l-9.549,15.419l7.311,6.225l2.238,-21.644Z" style="fill:#513996;"/></g><g><path d="M13.794,98.163l11.983,25.792l-12.547,8.324l0.564,-34.116Z" style="fill:#b135be;"/><path d="M13.794,98.163l-12.829,25.382l12.265,8.734l0.564,-34.116Z" style="fill:#513996;"/></g><g><path d="M107.398,83.286l0.224,21.698l-11.34,1.844l11.116,-23.542Z" style="fill:#b135be;"/><path d="M107.398,83.286l-16.898,13.614l5.782,9.928l11.116,-23.542Z" style="fill:#513996;"/></g><g><path d="M111.395,96.866l10.637,28.185l-13.537,7.242l2.9,-35.427Z" style="fill:#b135be;"/><path d="M111.395,96.866l-14.986,24.955l12.086,10.472l2.9,-35.427Z" style="fill:#513996;"/></g><g><path d="M86.214,80.328l9.913,12.834l-3.6,8.079l-6.313,-20.913Z" style="fill:#b135be;"/><path d="M86.214,80.328l-0.443,18.535l6.756,2.378l-6.313,-20.913Z" style="fill:#513996;"/></g></g></g></svg>