<?xml version="1.0" encoding="UTF-8" standalone="no"?><!DOCTYPE svg PUBLIC "-//W3C//DTD SVG 1.1//EN" "http://www.w3.org/Graphics/SVG/1.1/DTD/svg11.dtd"><svg width="100%" height="100%" viewBox="0 0 131 126" version="1.1" xmlns="http://www.w3.org/2000/svg" xmlns:xlink="http://www.w3.org/1999/xlink" xml:space="preserve" xmlns:serif="http://www.serif.com/" style="fill-rule:evenodd;clip-rule:evenodd;stroke-linejoin:round;stroke-miterlimit:1.41421;"><g id="Tree_other01"><g><path d="M123.043,67.902l-22.321,8.637l-13.028,5.354l-7.604,1.128l-24.37,-9.668l-30.301,-4.234l-6.48,-5.752l36.78,5.164l24.215,9.954l43.109,-10.583Z" style="fill:#5d2929;"/><path d="M123.043,67.902l-14.359,0l-20.237,6.103l-8.357,-0.055l-24.452,-9.094l-25.929,0.023l-10.77,-1.512c21.809,2.393 42.484,6.857 61.082,15.118l7.874,-0.479l35.148,-10.104Z" style="fill:#9c6546;"/></g><g><path d="M80.185,58.321l3.754,32.51l-1.432,29.937l-6.965,4.803l0,-89.667l4.643,22.417Z" style="fill:#9c6546;"/><path d="M75.542,35.904l2.998,58.65l-2.998,31.017l-6.965,-4.803l3.967,-22.078l-1.646,-40.369l4.644,-22.417Z" style="fill:#5d2929;"/></g><g><g><path d="M36.594,37.087l-12.958,-0.191l4.954,15.626l12.387,-5.002l-4.383,-10.433Z" style="fill:#d87bba;"/><path d="M40.977,47.52l-2.096,10.338l-12.387,5.002l2.096,-10.338l12.387,-5.002Z" style="fill:#b135be;"/><path d="M23.636,36.896l-4.764,15.484l7.622,10.48l2.096,-10.338l-4.954,-15.626" style="fill:#513996;"/></g><g><path d="M34.985,52.66l10.406,9.365l-16.649,6.243l-10.406,-15.608l16.649,0Z" style="fill:#d87bba;"/><path d="M45.391,62.025l0,14.568l-16.649,6.243l0,-14.568l16.649,-6.243Z" style="fill:#b135be;"/><path d="M28.742,68.268l0,14.568l-10.406,-11.446l0,-18.73l10.406,15.608Z" style="fill:#513996;"/></g><g><path d="M10.18,39.668l14.126,4.709l-7.063,12.949l-16.481,-12.949l9.418,-4.709Z" style="fill:#d87bba;"/><path d="M24.306,44.377l7.064,12.949l-7.064,10.595l-7.063,-10.595l7.063,-12.949Z" style="fill:#b135be;"/><path d="M0.762,44.377l4.709,21.19l18.835,2.354l-7.063,-10.595l-16.481,-12.949Z" style="fill:#513996;"/></g></g><g><g><path d="M111.16,55.116l9.073,3.025l-4.537,8.317l-10.585,-8.317l6.049,-3.025Z" style="fill:#d87bba;"/><path d="M120.233,58.141l4.537,8.317l-4.537,6.805l-4.537,-6.805l4.537,-8.317Z" style="fill:#b135be;"/><path d="M105.111,58.141l3.024,13.61l12.098,1.512l-4.537,-6.805l-10.585,-8.317Z" style="fill:#513996;"/></g><g><path d="M114.682,62.357l10.002,1.173l-7.18,10.586l-12.597,-4.839l9.775,-6.92Z" style="fill:#d87bba;"/><path d="M124.684,63.53l6.056,8.553l-7.18,10.586l-6.056,-8.553l7.18,-10.586Z" style="fill:#b135be;"/><path d="M117.504,74.116l6.056,8.553l-10.867,-2.395l-7.786,-10.997l12.597,4.839Z" style="fill:#513996;"/></g><g><path d="M126.983,51.26l-9.32,-0.201l3.487,11.265l8.935,-3.537l-3.102,-7.527Z" style="fill:#d87bba;"/><path d="M130.085,58.787l-1.559,7.426l-8.935,3.538l1.559,-7.427l8.935,-3.537Z" style="fill:#b135be;"/><path d="M117.663,51.059l-3.503,11.115l5.431,7.577l1.559,-7.427l-3.487,-11.265" style="fill:#513996;"/></g></g><g><g><path d="M89.598,2.441l13.369,11.485l-13.537,11.024l-12.259,-21.568l12.427,-0.941Z" style="fill:#d87bba;"/><path d="M102.967,13.926l1.94,17.35l-12.483,8.445l-2.994,-14.771l13.537,-11.024Z" style="fill:#b135be;"/><path d="M77.171,3.382l-4.329,25.325l19.582,11.014l-2.994,-14.771l-12.259,-21.568Z" style="fill:#513996;"/></g><g><path d="M82.209,1.238l-17.176,-0.369l6.426,20.759l23.623,-7.863l-12.873,-12.527Z" style="fill:#d87bba;"/><path d="M95.082,13.765l-10.03,15.029l-16.465,6.519l2.872,-13.685l23.623,-7.863Z" style="fill:#b135be;"/><path d="M65.033,0.869l-6.455,20.481l10.009,13.963l2.872,-13.685l-6.426,-20.759" style="fill:#513996;"/></g><g><path d="M80.027,13.648l4.3,18.588l-23.467,-6.04l-1.381,-16.825l20.548,4.277Z" style="fill:#d87bba;"/><path d="M84.327,32.236l-11.384,16.264l-23.468,-6.039l11.385,-16.265l23.467,6.04Z" style="fill:#b135be;"/><path d="M60.86,26.196l-11.385,16.265l-2.673,-20.911l12.677,-12.179l1.381,16.825Z" style="fill:#513996;"/></g><g><path d="M76.606,12.248l15.498,11.126l-21.616,10.951l-12.142,-11.729l18.26,-10.348Z" style="fill:#d87bba;"/><path d="M92.104,23.374l2.182,19.733l-21.616,10.951l-2.182,-19.733l21.616,-10.951Z" style="fill:#b135be;"/><path d="M70.488,34.325l2.182,19.733l-15.809,-13.945l1.485,-17.517l12.142,11.729Z" style="fill:#513996;"/></g></g></g></svg>