<?xml version="1.0" encoding="UTF-8" standalone="no"?><!DOCTYPE svg PUBLIC "-//W3C//DTD SVG 1.1//EN" "http://www.w3.org/Graphics/SVG/1.1/DTD/svg11.dtd"><svg width="100%" height="100%" viewBox="0 0 105 162" version="1.1" xmlns="http://www.w3.org/2000/svg" xmlns:xlink="http://www.w3.org/1999/xlink" xml:space="preserve" xmlns:serif="http://www.serif.com/" style="fill-rule:evenodd;clip-rule:evenodd;stroke-linejoin:round;stroke-miterlimit:1.41421;"><g id="Tree_bald04"><g><g><path d="M86.415,82.469l-17.468,-10.777l-11.882,-2.917l-5.485,-4.268l-22.904,11.338l-15.146,4.66l-11.545,7.353l49.468,-17.962l34.962,12.573Z" style="fill:#5d2929;"/><path d="M78.318,73.887l8.169,8.546l-10.104,-6.188l-21.339,-8.595l-41.382,12.862l-11.677,7.151l5.324,-6.51l47.678,-18.892l23.331,11.626Z" style="fill:#9c6546;"/></g><g><path d="M0.312,123.848l2.638,-3.029l35.743,-6.407l8.765,-6.303l25.781,8.247l31.484,4.694l-7.559,2.237l-41.751,-5.52l-6.691,-2.687l-9.046,4.712l-39.364,4.056Z" style="fill:#5d2929;"/><path d="M1.985,121.804l12.665,-2.111l33.697,-6.304l46.627,6.844l9.861,0.804l-57.552,-14.651l-9.819,4.626l-33.574,8.83l-1.905,1.962Z" style="fill:#9c6546;"/></g><g><path d="M23.197,51.156l14.041,-4.194l10.289,-6.76l7.312,4.787l13.789,4.481l10.299,3.749c-10.488,-0.3 -20.269,-3.501 -29.744,-7.967l-14.195,5.722l-11.791,0.182Z" style="fill:#5d2929;"/><path d="M23.049,51.1l7.716,-0.309l17.031,-8.531l25.483,9.678l5.825,1.192l-31.308,-13.501l-24.747,11.471Z" style="fill:#9c6546;"/></g></g><g><path d="M52.999,38.602l1.778,42.218l2.444,8.693l4.221,52.769l4.222,10.553l-16.886,8.443l0,-160.417l4.221,37.741Z" style="fill:#9c6546;"/><g><path d="M49.838,106.463l13.783,-8.332l21.855,0.824l3.67,3.32l-0.616,-4.508l-26.544,-5.606l-10.892,5.521l-1.256,8.781Z" style="fill:#9c6546;"/><path d="M50.005,106.753l3.482,-7.691l3.078,-1.668l29.001,1.335l3.113,1.382l0.348,2.105l-30.357,-2.074l-8.665,6.611Z" style="fill:#5d2929;"/></g><path d="M48.778,0.861l0,160.417l-16.886,-8.443l4.221,-7.336l3.24,-26.927l3.768,-7.857l-1.894,-38.534l3.329,-33.181l4.222,-38.139Z" style="fill:#5d2929;"/><g><path d="M44.428,99.782l-11.603,-7.644l-16.577,0.084l-3.846,-2.559l24.584,-0.737l7.442,6.635l0,4.221Z" style="fill:#9c6546;"/><path d="M45.144,104.643l-0.674,-4.811l-10.78,-7.893l-17.388,0.292l-3.801,-2.365l2.789,3.447l4.417,0.609l13.551,0.564l11.886,10.157Z" style="fill:#5d2929;"/></g></g></g></svg>