<?xml version="1.0" encoding="UTF-8" standalone="no"?><!DOCTYPE svg PUBLIC "-//W3C//DTD SVG 1.1//EN" "http://www.w3.org/Graphics/SVG/1.1/DTD/svg11.dtd"><svg width="100%" height="100%" viewBox="0 0 87 205" version="1.1" xmlns="http://www.w3.org/2000/svg" xmlns:xlink="http://www.w3.org/1999/xlink" xml:space="preserve" xmlns:serif="http://www.serif.com/" style="fill-rule:evenodd;clip-rule:evenodd;stroke-linejoin:round;stroke-miterlimit:1.41421;"><g id="Tree_cube13"><g><path d="M59.92,142.897l0,53.666l-16.1,8.05l0,-53.666l16.1,-8.05Z" style="fill:#9c6546;"/><path d="M43.82,150.947l0,53.666l-16.099,-8.05l0,-53.666l16.099,8.05Z" style="fill:#5d2929;"/></g><g><path d="M43.82,75.815l42.933,21.466l-42.933,21.467l-42.932,-21.467l42.932,-21.466Z" style="fill:#d87bba;"/><path d="M86.753,97.281l0,32.2l-42.933,21.466l0,-32.199l42.933,-21.467Z" style="fill:#b135be;"/><path d="M43.82,118.748l0,32.199l-42.932,-21.466l0,-32.2l42.932,21.467Z" style="fill:#513996;"/></g><g><path d="M43.82,38.249l42.933,21.466l-42.933,21.467l-42.932,-21.467l42.932,-21.466Z" style="fill:#d87bba;"/><path d="M86.753,59.715l0,32.2l-42.933,21.466l0,-32.199l42.933,-21.467Z" style="fill:#b135be;"/><path d="M43.82,81.182l0,32.199l-42.932,-21.466l0,-32.2l42.932,21.467Z" style="fill:#513996;"/></g><g><path d="M43.82,0.683l42.933,21.467l-42.933,21.466l-42.932,-21.466l42.932,-21.467Z" style="fill:#d87bba;"/><path d="M86.753,22.15l0,32.199l-42.933,21.466l0,-32.199l42.933,-21.466Z" style="fill:#b135be;"/><path d="M43.82,43.616l0,32.199l-42.932,-21.466l0,-32.199l42.932,21.466Z" style="fill:#513996;"/></g></g></svg>