<?xml version="1.0" encoding="UTF-8" standalone="no"?><!DOCTYPE svg PUBLIC "-//W3C//DTD SVG 1.1//EN" "http://www.w3.org/Graphics/SVG/1.1/DTD/svg11.dtd"><svg width="100%" height="100%" viewBox="0 0 129 226" version="1.1" xmlns="http://www.w3.org/2000/svg" xmlns:xlink="http://www.w3.org/1999/xlink" xml:space="preserve" xmlns:serif="http://www.serif.com/" style="fill-rule:evenodd;clip-rule:evenodd;stroke-linejoin:round;stroke-miterlimit:1.41421;"><g id="Tree_pyramid09"><g><path d="M80.355,164.258l0,53.665l-16.099,8.05l0,-53.666l16.099,-8.049Z" style="fill:#9c6546;"/><path d="M64.256,172.307l0,53.666l-16.1,-8.05l0,-53.665l16.1,8.049Z" style="fill:#5d2929;"/></g><path d="M64.638,34.562c0,0 -64.318,51.364 -64.318,73.377c0,35.498 28.82,64.318 64.318,64.318c35.498,0 64.317,-28.82 64.317,-64.318c0,-22.013 -64.317,-73.377 -64.317,-73.377Z" style="fill:#513996;"/><clipPath id="_clip1"><path d="M64.638,34.562c0,0 -64.318,51.364 -64.318,73.377c0,35.498 28.82,64.318 64.318,64.318c35.498,0 64.317,-28.82 64.317,-64.318c0,-22.013 -64.317,-73.377 -64.317,-73.377Z"/></clipPath><g clip-path="url(#_clip1)"><path d="M64.638,15.194c0,0 -59.033,41.294 -59.033,58.991c0,32.558 26.452,58.991 59.033,58.991c32.58,0 59.032,-26.433 59.032,-58.991c0,-17.697 -59.032,-58.991 -59.032,-58.991Z" style="fill:#1a0d58;fill-opacity:0.6;"/></g><path d="M64.638,18.92c0,0 -48.299,33.786 -48.299,48.265c0,26.639 21.642,48.266 48.299,48.266c26.657,0 48.299,-21.627 48.299,-48.266c0,-14.479 -48.299,-48.265 -48.299,-48.265Z" style="fill:#513996;"/><clipPath id="_clip2"><path d="M64.638,18.92c0,0 -48.299,33.786 -48.299,48.265c0,26.639 21.642,48.266 48.299,48.266c26.657,0 48.299,-21.627 48.299,-48.266c0,-14.479 -48.299,-48.265 -48.299,-48.265Z"/></clipPath><g clip-path="url(#_clip2)"><path d="M64.638,7.914c0,0 -35.988,23.092 -35.988,32.988c0,18.207 16.126,32.989 35.988,32.989c19.862,0 35.987,-14.782 35.987,-32.989c0,-9.896 -35.987,-32.988 -35.987,-32.988Z" style="fill:#1a0d58;fill-opacity:0.6;"/></g><path d="M64.638,0.386c0,0 -32.2,20.662 -32.2,29.516c0,16.291 14.428,29.516 32.2,29.516c17.771,0 32.199,-13.225 32.199,-29.516c0,-8.854 -32.199,-29.516 -32.199,-29.516Z" style="fill:#513996;"/></g></svg>