<?xml version="1.0" encoding="UTF-8" standalone="no"?><!DOCTYPE svg PUBLIC "-//W3C//DTD SVG 1.1//EN" "http://www.w3.org/Graphics/SVG/1.1/DTD/svg11.dtd"><svg width="100%" height="100%" viewBox="0 0 141 194" version="1.1" xmlns="http://www.w3.org/2000/svg" xmlns:xlink="http://www.w3.org/1999/xlink" xml:space="preserve" xmlns:serif="http://www.serif.com/" style="fill-rule:evenodd;clip-rule:evenodd;stroke-linejoin:round;stroke-miterlimit:1.41421;"><g id="Tree_pyramid07"><g><path d="M60.01,107.97l0,69.765l-5.366,8.05l16.1,8.05l0,-80.499l-10.734,-5.366Z" style="fill:#5d4a29;"/><path d="M81.477,107.97l0,69.765l5.366,8.05l-16.099,8.05l0,-80.499l10.733,-5.366Z" style="fill:#9c7c46;"/></g><path d="M22.391,127.638l-8.755,0.989l-3.619,7.382l7.007,5.046l0,-5.367l5.367,-8.05Z" style="fill:#5d4a29;"/><path d="M22.391,127.638l3.154,6.944l-8.521,6.473l0,-5.367l5.367,-8.05Z" style="fill:#9c7c46;"/><g><path d="M70.744,0.639l-10.734,16.099l-10.733,5.367l5.367,8.05l16.1,2.683l0,-32.199Z" style="fill:#2d937a;"/><path d="M70.744,0.639l10.733,16.099l10.733,5.367l-5.367,8.05l-16.099,2.683l0,-32.199Z" style="fill:#35be84;"/><path d="M70.744,32.838l0,21.466l-21.467,5.367l-16.099,-8.05l10.733,-5.367l10.733,-16.099l16.1,2.683Z" style="fill:#2d937a;"/><path d="M70.744,32.838l16.099,-2.683l10.733,16.099l10.734,5.367l-16.1,8.05l-21.466,-5.367l0,-21.466Z" style="fill:#35be84;"/><path d="M49.277,59.671l21.467,-5.367l0,32.2l-32.2,5.366l-21.466,-10.733l10.733,-5.366l16.1,-18.783l5.366,2.683Z" style="fill:#2d937a;"/><path d="M92.21,59.671l-21.466,-5.367l0,32.2l32.199,5.366l21.466,-10.733l-10.733,-5.366l-16.1,-18.783l-5.366,2.683Z" style="fill:#35be84;"/><path d="M70.744,86.504l0,42.932l48.299,2.683l21.466,-16.099l-16.1,-8.05l-16.099,-18.783l-5.367,2.683l-32.199,-5.366Z" style="fill:#35be84;"/><path d="M70.744,86.504l0,42.932l-48.299,2.683l-21.467,-16.099l16.1,-8.05l16.1,-18.783l5.366,2.683l32.2,-5.366Z" style="fill:#2d937a;"/><g><path d="M70.744,0.639l5.366,18.783l10.733,10.733l-16.099,2.683l0,-32.199" style="fill:#57bf95;"/><path d="M78.862,31.531l-8.118,1.307l0,21.466l21.466,5.367l-10.733,-10.733l-2.615,-17.407Z" style="fill:#57bf95;"/><path d="M81.511,56.997l-10.767,-2.693l0,32.2l32.199,5.366l-16.1,-13.416l-5.332,-21.457Z" style="fill:#57bf95;"/><path d="M81.477,88.311l-10.733,-1.807l0,42.932l48.299,2.683l-21.467,-16.099l-16.099,-27.709Z" style="fill:#57bf95;"/></g><g><path d="M70.744,0.639l-5.367,18.783l-10.733,10.733l16.1,2.683l0,-32.199" style="fill:#59a273;"/><path d="M62.625,31.531l8.119,1.307l0,21.466l-21.467,5.367l10.733,-10.733l2.615,-17.407Z" style="fill:#59a273;"/><path d="M59.976,56.997l10.768,-2.693l0,32.2l-32.2,5.366l16.1,-13.416l5.332,-21.457Z" style="fill:#59a273;"/><path d="M60.01,88.311l10.734,-1.807l0,42.932l-48.299,2.683l21.466,-16.099l16.099,-27.709Z" style="fill:#59a273;"/></g></g><g><path d="M76.104,70.743l8.755,-0.989l3.619,-7.382l-7.007,-5.046l0,5.367l-5.367,8.05Z" style="fill:#5d4a29;"/><path d="M76.104,70.743l-3.154,-6.944l8.521,-6.473l0,5.367l-5.367,8.05Z" style="fill:#9c7c46;"/><path d="M57.954,40.755l-7.806,-0.933l-3.228,-6.961l6.249,-4.758l0,5.061l4.785,7.591Z" style="fill:#5d4a29;"/><path d="M57.954,40.755l2.813,-6.548l-7.598,-6.104l0,5.061l4.785,7.591Z" style="fill:#9c7c46;"/><path d="M108.31,89.187l-5.367,8.05l0,5.366l5.367,2.684l5.366,-2.684l-5.366,-2.683l0,-10.733Z" style="fill:#5d4a29;"/><path d="M113.676,91.87l5.367,8.05l-5.367,2.683l-5.366,-2.683l0,-10.733l5.366,2.683" style="fill:#9c7c46;"/><path d="M86.843,30.155l-5.366,2.683l0,5.367l3.173,3.779l4.107,-3.027l-2.509,-3.733l0.595,-5.069" style="fill:#5d4a29;"/><path d="M86.843,30.155l3.703,1.851l-1.869,6.871l-2.558,-3.718l0.724,-5.004Z" style="fill:#9c7c46;"/><path d="M46.376,94.741l1.001,5.915l10.267,3.131l4.131,-4.351l-5.133,-1.565l-5.133,-1.565l-1.002,-5.916l-4.131,4.351" style="fill:#5d4a29;"/><path d="M50.507,90.39l5.134,1.565l6.134,7.481l-10.266,-3.13l-1.002,-5.916Z" style="fill:#9c7c46;"/></g></g></svg>