<?xml version="1.0" encoding="UTF-8" standalone="no"?><!DOCTYPE svg PUBLIC "-//W3C//DTD SVG 1.1//EN" "http://www.w3.org/Graphics/SVG/1.1/DTD/svg11.dtd"><svg width="100%" height="100%" viewBox="0 0 109 183" version="1.1" xmlns="http://www.w3.org/2000/svg" xmlns:xlink="http://www.w3.org/1999/xlink" xml:space="preserve" xmlns:serif="http://www.serif.com/" style="fill-rule:evenodd;clip-rule:evenodd;stroke-linejoin:round;stroke-miterlimit:1.41421;"><g id="Tree_pyramid04"><g><path d="M43.679,102.407l0,75.132l10.733,5.367l0,-75.132l-10.733,-5.367Z" style="fill:#5d4a29;"/><path d="M65.145,102.407l0,75.132l-10.733,5.367l0,-75.132l10.733,-5.367Z" style="fill:#9c7c46;"/></g><g><path d="M54.412,0.442l-21.466,32.2l21.466,10.733l0,-42.933Z" style="fill:#2d937a;"/><path d="M54.412,0.442l21.467,32.2l-21.467,10.733l0,-42.933Z" style="fill:#35be84;"/><path d="M38.313,35.325l-21.467,32.199l37.566,18.783l0,-42.932l-16.099,-8.05" style="fill:#2d937a;"/><path d="M70.512,35.325l21.466,32.199l-37.566,18.783l0,-42.932l16.1,-8.05Z" style="fill:#35be84;"/><path d="M22.213,70.208l-21.466,32.199l53.665,26.833l0,-42.933l-32.199,-16.099" style="fill:#2d937a;"/><path d="M86.612,70.208l21.466,32.199l-53.666,26.833l0,-42.933l32.2,-16.099Z" style="fill:#35be84;"/></g></g></svg>