<?xml version="1.0" encoding="UTF-8" standalone="no"?><!DOCTYPE svg PUBLIC "-//W3C//DTD SVG 1.1//EN" "http://www.w3.org/Graphics/SVG/1.1/DTD/svg11.dtd"><svg width="100%" height="100%" viewBox="0 0 130 226" version="1.1" xmlns="http://www.w3.org/2000/svg" xmlns:xlink="http://www.w3.org/1999/xlink" xml:space="preserve" xmlns:serif="http://www.serif.com/" style="fill-rule:evenodd;clip-rule:evenodd;stroke-linejoin:round;stroke-miterlimit:1.41421;"><g id="Tree_pyramid11"><g><path d="M80.457,164.258l0,53.665l-16.1,8.05l0,-53.666l16.1,-8.049Z" style="fill:#9c7c46;"/><path d="M64.357,172.307l0,53.666l-16.099,-8.05l0,-53.665l16.099,8.049Z" style="fill:#5d4a29;"/></g><path d="M64.739,34.562c0,0 -64.317,51.364 -64.317,73.377c0,35.498 28.819,64.318 64.317,64.318c35.498,0 64.318,-28.82 64.318,-64.318c0,-22.013 -64.318,-73.377 -64.318,-73.377Z" style="fill:#2d937a;"/><clipPath id="_clip1"><path d="M64.739,34.562c0,0 -64.317,51.364 -64.317,73.377c0,35.498 28.819,64.318 64.317,64.318c35.498,0 64.318,-28.82 64.318,-64.318c0,-22.013 -64.318,-73.377 -64.318,-73.377Z"/></clipPath><g clip-path="url(#_clip1)"><path d="M71.37,40.031c4.475,3.764 10.794,9.209 17.62,15.497l39.017,64.035c-4.441,24.289 -22.545,43.832 -46.043,50.357l-10.594,-129.889Z" style="fill:#35be84;"/><path d="M64.739,15.194c0,0 -59.032,41.294 -59.032,58.991c0,32.558 26.452,58.991 59.032,58.991c32.581,0 59.033,-26.433 59.033,-58.991c0,-17.697 -59.033,-58.991 -59.033,-58.991Z" style="fill:#08553a;fill-opacity:0.6;"/></g><path d="M64.739,18.92c0,0 -48.299,33.786 -48.299,48.265c0,26.639 21.642,48.266 48.299,48.266c26.657,0 48.299,-21.627 48.299,-48.266c0,-14.479 -48.299,-48.265 -48.299,-48.265Z" style="fill:#2d937a;"/><clipPath id="_clip2"><path d="M64.739,18.92c0,0 -48.299,33.786 -48.299,48.265c0,26.639 21.642,48.266 48.299,48.266c26.657,0 48.299,-21.627 48.299,-48.266c0,-14.479 -48.299,-48.265 -48.299,-48.265Z"/></clipPath><g clip-path="url(#_clip2)"><path d="M65.442,19.417c1.69,1.202 6.264,4.492 11.946,8.896l33.565,52.936c-5.393,17.695 -20.693,31.093 -39.432,33.729l-6.079,-95.561Z" style="fill:#35be84;"/><path d="M64.739,7.914c0,0 -35.987,23.092 -35.987,32.988c0,18.207 16.125,32.989 35.987,32.989c19.862,0 35.988,-14.782 35.988,-32.989c0,-9.896 -35.988,-32.988 -35.988,-32.988Z" style="fill:#08553a;fill-opacity:0.6;"/></g><path d="M64.739,0.386c0,0 -32.199,20.662 -32.199,29.516c0,16.291 14.428,29.516 32.199,29.516c17.772,0 32.2,-13.225 32.2,-29.516c0,-8.854 -32.2,-29.516 -32.2,-29.516Z" style="fill:#2d937a;"/><path d="M64.436,0.583c0.198,-0.129 0.303,-0.197 0.303,-0.197c0,0 0.697,0.448 1.886,1.239l27.742,39.847c-4.802,10.308 -15.821,17.61 -28.728,17.935l-1.203,-58.824Z" style="fill:#35be84;"/></g></svg>