<?xml version="1.0" encoding="UTF-8" standalone="no"?><!DOCTYPE svg PUBLIC "-//W3C//DTD SVG 1.1//EN" "http://www.w3.org/Graphics/SVG/1.1/DTD/svg11.dtd"><svg width="100%" height="100%" viewBox="0 0 140 194" version="1.1" xmlns="http://www.w3.org/2000/svg" xmlns:xlink="http://www.w3.org/1999/xlink" xml:space="preserve" xmlns:serif="http://www.serif.com/" style="fill-rule:evenodd;clip-rule:evenodd;stroke-linejoin:round;stroke-miterlimit:1.41421;"><g id="Tree_pyramid06"><g><path d="M59.219,107.97l0,69.756l-5.366,8.059l16.099,8.05l0,-80.499l-10.733,-5.366Z" style="fill:#5d4a29;"/><path d="M80.685,107.97l0,70.233l5.367,7.582l-16.1,8.05l0,-80.499l10.733,-5.366Z" style="fill:#9c7c46;"/></g><path d="M82.927,122.637l19.316,12.634l27.798,4.664l6.438,4.211l-35.258,-2.783l-25.754,-16.846l7.46,-1.88Z" style="fill:#9c7c46;"/><path d="M75.467,124.517l-4.35,1.096l27.904,18.209l29.998,2.204l7.46,-1.88l-35.258,-2.783l-25.754,-16.846Z" style="fill:#5d4a29;"/><g><path d="M69.952,0.639l-10.733,16.099l-10.733,5.367l5.367,8.05l16.099,2.683l0,-32.199Z" style="fill:#2d937a;"/><path d="M69.952,0.639l10.733,16.099l10.734,5.367l-5.367,8.05l-16.1,2.683l0,-32.199Z" style="fill:#35be84;"/><path d="M69.952,32.838l0,21.466l-21.466,5.367l-16.1,-8.05l10.733,-5.367l10.734,-16.099l16.099,2.683Z" style="fill:#2d937a;"/><path d="M69.952,32.838l16.1,-2.683l10.733,16.099l10.733,5.367l-16.099,8.05l-21.467,-5.367l0,-21.466Z" style="fill:#35be84;"/><path d="M48.486,59.671l21.466,-5.367l0,32.2l-32.199,5.366l-21.466,-10.733l10.733,-5.366l16.099,-18.783l5.367,2.683Z" style="fill:#2d937a;"/><path d="M91.419,59.671l-21.467,-5.367l0,32.2l32.2,5.366l21.466,-10.733l-10.733,-5.366l-16.1,-18.783l-5.366,2.683Z" style="fill:#35be84;"/><path d="M69.952,86.504l0,42.932l48.299,2.683l21.467,-16.099l-16.1,-8.05l-16.1,-18.783l-5.366,2.683l-32.2,-5.366Z" style="fill:#35be84;"/><path d="M69.952,86.504l0,42.932l-48.299,2.683l-21.466,-16.099l16.1,-8.05l16.099,-18.783l5.367,2.683l32.199,-5.366Z" style="fill:#2d937a;"/><path d="M61.926,80.05l-21.14,9.265l-28.186,0l-7.046,3.088l35.232,3.088l28.187,-12.353l-7.047,-3.088Z" style="fill:#9c7c46;"/><path d="M68.973,83.138l4.109,1.801l-30.533,13.341l-29.949,-2.789l-7.046,-3.088l35.232,3.088l28.187,-12.353Z" style="fill:#5d4a29;"/><path d="M82.144,54.591l14.587,5.368l19.448,0l4.862,1.789l-24.31,1.79l-19.449,-7.158l4.862,-1.789Z" style="fill:#9c7c46;"/><path d="M66.444,27.358l-10.304,5.615l-13.738,0l-3.435,1.872l17.173,1.872l13.738,-7.488l-3.434,-1.871Z" style="fill:#9c7c46;"/><path d="M77.282,56.38l-2.835,1.044l21.067,7.73l20.665,-1.616l4.862,-1.79l-24.31,1.79l-19.449,-7.158Z" style="fill:#5d4a29;"/><path d="M69.878,29.229l2.003,1.092l-14.882,8.087l-14.597,-1.691l-3.435,-1.872l17.173,1.872l13.738,-7.488Z" style="fill:#5d4a29;"/><g><path d="M69.952,0.639l5.367,18.783l10.733,10.733l-16.1,2.683l0,-32.199" style="fill:#57bf95;"/><path d="M78.071,31.531l-8.119,1.307l0,21.466l21.467,5.367l-10.734,-10.733l-2.614,-17.407Z" style="fill:#57bf95;"/><path d="M80.72,56.997l-10.768,-2.693l0,32.2l32.2,5.366l-16.1,-13.416l-5.332,-21.457Z" style="fill:#57bf95;"/><path d="M80.685,88.311l-10.733,-1.807l0,42.932l48.299,2.683l-21.466,-16.099l-16.1,-27.709Z" style="fill:#57bf95;"/></g><path d="M69.063,65.347l8.582,19.028l18.827,17.364l2.86,6.342l-25.379,-19.703l-11.443,-25.371l6.553,2.34Z" style="fill:#9c7c46;"/><path d="M62.51,63.007l-3.821,-1.364l12.419,27.457l21.672,16.642l6.552,2.339l-25.379,-19.703l-11.443,-25.371Z" style="fill:#5d4a29;"/><g><path d="M69.952,0.639l-5.366,18.783l-10.733,10.733l16.099,2.683l0,-32.199" style="fill:#59a273;"/><path d="M61.834,31.531l8.118,1.307l0,21.466l-21.466,5.367l10.733,-10.733l2.615,-17.407Z" style="fill:#59a273;"/><path d="M59.185,56.997l10.767,-2.693l0,32.2l-32.199,5.366l16.1,-13.416l5.332,-21.457Z" style="fill:#59a273;"/><path d="M59.219,88.311l10.733,-1.807l0,42.932l-48.299,2.683l21.466,-16.099l16.1,-27.709Z" style="fill:#59a273;"/></g></g></g></svg>