<?xml version="1.0" encoding="UTF-8" standalone="no"?><!DOCTYPE svg PUBLIC "-//W3C//DTD SVG 1.1//EN" "http://www.w3.org/Graphics/SVG/1.1/DTD/svg11.dtd"><svg width="100%" height="100%" viewBox="0 0 120 205" version="1.1" xmlns="http://www.w3.org/2000/svg" xmlns:xlink="http://www.w3.org/1999/xlink" xml:space="preserve" xmlns:serif="http://www.serif.com/" style="fill-rule:evenodd;clip-rule:evenodd;stroke-linejoin:round;stroke-miterlimit:1.41421;"><g id="Tree_cube12"><g><path d="M76.791,142.897l0,53.666l-16.099,8.05l0,-53.666l16.099,-8.05Z" style="fill:#9c7c46;"/><path d="M60.692,150.947l0,53.666l-16.1,-8.05l0,-53.666l16.1,8.05Z" style="fill:#5d4a29;"/></g><g><path d="M60.692,75.815l42.932,21.466l-42.932,21.467l-42.933,-21.467l42.933,-21.466Z" style="fill:#7bd884;"/><path d="M103.624,97.281l0,32.2l-42.932,21.466l0,-32.199l42.932,-21.467Z" style="fill:#35be84;"/><path d="M60.692,118.748l0,32.199l-42.933,-21.466l0,-32.2l42.933,21.467Z" style="fill:#2d937a;"/></g><g><path d="M60.359,27.35l59.365,29.682l-59.365,29.683l-59.365,-29.683l59.365,-29.682Z" style="fill:#7bd884;"/><path d="M119.724,57.032l0,44.524l-59.365,29.682l0,-44.523l59.365,-29.683Z" style="fill:#35be84;"/><path d="M60.359,86.715l0,44.523l-59.365,-29.682l0,-44.524l59.365,29.683Z" style="fill:#2d937a;"/></g><g><path d="M60.692,0.683l42.932,21.467l-42.932,21.466l-42.933,-21.466l42.933,-21.467Z" style="fill:#7bd884;"/><path d="M103.624,22.15l0,32.199l-42.932,21.466l0,-32.199l42.932,-21.466Z" style="fill:#35be84;"/><path d="M60.692,43.616l0,32.199l-42.933,-21.466l0,-32.199l42.933,21.466Z" style="fill:#2d937a;"/></g></g></svg>