<?xml version="1.0" encoding="UTF-8" standalone="no"?><!DOCTYPE svg PUBLIC "-//W3C//DTD SVG 1.1//EN" "http://www.w3.org/Graphics/SVG/1.1/DTD/svg11.dtd"><svg width="100%" height="100%" viewBox="0 0 141 189" version="1.1" xmlns="http://www.w3.org/2000/svg" xmlns:xlink="http://www.w3.org/1999/xlink" xml:space="preserve" xmlns:serif="http://www.serif.com/" style="fill-rule:evenodd;clip-rule:evenodd;stroke-linejoin:round;stroke-miterlimit:1.41421;"><g id="Tree_pyramid08"><g><path d="M59.747,107.97l0,75.132l10.733,5.366l0,-75.132l-10.733,-5.366Z" style="fill:#5d4a29;"/><path d="M81.213,107.97l0,75.132l-10.733,5.366l0,-75.132l10.733,-5.366Z" style="fill:#9c7c46;"/></g><g><path d="M70.48,0.639l-10.733,16.099l-10.733,5.367l5.366,8.05l16.1,2.683l0,-32.199Z" style="fill:#2d937a;"/><path d="M70.48,0.639l10.733,16.099l10.733,5.367l-5.366,8.05l-16.1,2.683l0,-32.199Z" style="fill:#35be84;"/><path d="M70.48,32.838l0,21.466l-21.466,5.367l-16.1,-8.05l10.733,-5.367l10.733,-16.099l16.1,2.683Z" style="fill:#2d937a;"/><path d="M70.48,32.838l16.1,-2.683l10.733,16.099l10.733,5.367l-16.1,8.05l-21.466,-5.367l0,-21.466Z" style="fill:#35be84;"/><path d="M49.014,59.671l21.466,-5.367l0,32.2l-32.2,5.366l-21.466,-10.733l10.733,-5.366l16.1,-18.783l5.367,2.683Z" style="fill:#2d937a;"/><path d="M91.946,59.671l-21.466,-5.367l0,32.2l32.199,5.366l21.466,-10.733l-10.733,-5.366l-16.099,-18.783l-5.367,2.683Z" style="fill:#35be84;"/><path d="M70.48,86.504l0,42.932l48.299,2.683l21.466,-16.099l-16.1,-8.05l-16.099,-18.783l-5.367,2.683l-32.199,-5.366Z" style="fill:#35be84;"/><path d="M70.48,86.504l0,42.932l-48.299,2.683l-21.467,-16.099l16.1,-8.05l16.1,-18.783l5.366,2.683l32.2,-5.366Z" style="fill:#2d937a;"/><g><g><path d="M70.48,0.639l5.366,18.783l10.734,10.733l-16.1,2.683l0,-32.199" style="fill:#57bf95;"/><path d="M78.598,31.531l-8.118,1.307l0,21.466l21.466,5.367l-10.733,-10.733l-2.615,-17.407Z" style="fill:#57bf95;"/><path d="M81.248,56.997l-10.768,-2.693l0,32.2l32.199,5.366l-16.099,-13.416l-5.332,-21.457Z" style="fill:#57bf95;"/><path d="M81.213,88.311l-10.733,-1.807l0,42.932l48.299,2.683l-21.466,-16.099l-16.1,-27.709Z" style="fill:#57bf95;"/></g></g><g><path d="M70.48,0.639l-5.367,18.783l-10.733,10.733l16.1,2.683l0,-32.199" style="fill:#59a273;"/><path d="M62.361,31.531l8.119,1.307l0,21.466l-21.466,5.367l10.733,-10.733l2.614,-17.407Z" style="fill:#59a273;"/><path d="M59.712,56.997l10.768,-2.693l0,32.2l-32.2,5.366l16.1,-13.416l5.332,-21.457Z" style="fill:#59a273;"/><path d="M59.747,88.311l10.733,-1.807l0,42.932l-48.299,2.683l21.466,-16.099l16.1,-27.709Z" style="fill:#59a273;"/></g></g></g></svg>