<?xml version="1.0" encoding="UTF-8" standalone="no"?><!DOCTYPE svg PUBLIC "-//W3C//DTD SVG 1.1//EN" "http://www.w3.org/Graphics/SVG/1.1/DTD/svg11.dtd"><svg width="100%" height="100%" viewBox="0 0 143 215" version="1.1" xmlns="http://www.w3.org/2000/svg" xmlns:xlink="http://www.w3.org/1999/xlink" xml:space="preserve" xmlns:serif="http://www.serif.com/" style="fill-rule:evenodd;clip-rule:evenodd;stroke-linejoin:round;stroke-miterlimit:1.41421;"><g id="Tree_other05"><g><path d="M122.532,88.627l-22.206,13.7l-15.105,3.708l-6.973,5.426l-29.116,-14.413l-19.254,-5.925l-14.677,-9.346l62.886,22.834l44.445,-15.984Z" style="fill:#186046;"/><path d="M122.532,88.627l-14.804,0l-29.48,9.134l-51.944,-13.701l-11.103,-2.283l62.975,22.834l44.356,-15.984Z" style="fill:#836e4b;"/></g><g><path d="M11.566,128.24l3.26,3.737l41.673,16.729l11.143,8.011l32.999,-12.818l39.722,-11.162l1.95,-3.522l-73.065,18.641l-11.499,-5.99l-46.183,-13.626Z" style="fill:#186046;"/><path d="M11.566,128.24l16.1,2.683l42.837,8.014l59.275,-8.7l12.535,-1.022l-73.162,18.625l-12.483,-5.88l-42.681,-11.225l-2.421,-2.495Z" style="fill:#836e4b;"/></g><g><path d="M39.139,46.576l18.379,11.355l13.08,8.593l9.296,-6.085l16.565,-7.817l13.939,-8.628l-37.694,16.111l-33.565,-13.529Z" style="fill:#186046;"/><path d="M39.139,46.576l9.809,0.393l21.65,10.844l32.396,-12.303l7.404,-1.516l-39.8,17.164l-31.459,-14.582Z" style="fill:#836e4b;"/></g><g><path d="M81.331,58.154l5.367,21.787l0,42.932l5.366,67.082l5.367,13.417l-21.466,10.733l0,-203.929l5.366,47.978Z" style="fill:#836e4b;"/><g><path d="M81.331,147.023l11.592,16.876l25.741,10.507l3.923,5.655l-34.688,-10.106l-6.568,-12.199l0,-10.733Z" style="fill:#836e4b;"/><path d="M81.331,157.756l0,10.733l2.69,3.545l29.619,8.428l8.947,-0.401l-34.688,-10.106l-6.568,-12.199Z" style="fill:#186046;"/></g><path d="M75.965,10.176l0,203.929l-21.467,-10.733l5.367,-9.327l4.118,-34.23l-1.374,-32.887l3.757,-26.088l4.232,-42.181l5.367,-48.483Z" style="fill:#186046;"/><g><path d="M70.598,107.025l-14.751,9.718l-21.073,-0.107l-4.889,3.253l31.252,0.937l9.461,-8.435l0,-5.366Z" style="fill:#836e4b;"/><path d="M70.598,112.391l0,5.367l-4.057,4.461l-31.009,0.977l-5.647,-3.307l29.98,0.301l10.733,-7.799Z" style="fill:#186046;"/></g></g><g><g><path d="M75.965,0.209l15.333,31.624l-15.333,10.542l0,-42.166Z" style="fill:#3acdd7;"/><path d="M75.965,0.209l-15.333,31.624l15.333,10.542l0,-42.166Z" style="fill:#207691;"/></g><g><path d="M110.841,15.483l8.441,30.574l-15.331,6.851l6.89,-37.425Z" style="fill:#3acdd7;"/><path d="M110.841,15.483l-18.777,25.564l11.887,11.861l6.89,-37.425Z" style="fill:#207691;"/></g><g><path d="M23.689,25.58l34.521,11.671l-3.362,18.997l-31.159,-30.668Z" style="fill:#3acdd7;"/><path d="M23.689,25.58l12.217,34.332l18.942,-3.664l-31.159,-30.668Z" style="fill:#207691;"/></g><g><path d="M85.262,49.909l10.064,36.451l-18.279,8.167l8.215,-44.618Z" style="fill:#3acdd7;"/><path d="M85.262,49.909l-22.386,30.477l14.171,14.141l8.215,-44.618Z" style="fill:#207691;"/></g><g><path d="M109.001,51.987l20.629,32.997l-12.588,8.678l-8.041,-41.675Z" style="fill:#3acdd7;"/><path d="M109.001,51.987l-8.568,29.516l16.609,12.159l-8.041,-41.675Z" style="fill:#207691;"/></g><g><path d="M22.588,58.33l23.482,23.915l-18.753,9.641l-4.729,-33.556Z" style="fill:#3acdd7;"/><path d="M22.588,58.33l-16.389,26.419l21.118,7.137l-4.729,-33.556Z" style="fill:#207691;"/></g><g><path d="M48.311,88.401l4.134,31.448l-16.131,4.665l11.997,-36.113Z" style="fill:#3acdd7;"/><path d="M48.311,88.401l-22.13,22.722l10.133,13.391l11.997,-36.113Z" style="fill:#207691;"/></g><g><path d="M0.833,98.187l32.829,19.578l-7.636,18.74l-25.193,-38.318Z" style="fill:#3acdd7;"/><path d="M0.833,98.187l4.961,37.9l20.232,0.418l-25.193,-38.318Z" style="fill:#207691;"/></g><g><path d="M142.438,93.696l0.455,44.012l-23.001,3.74l22.546,-47.752Z" style="fill:#3acdd7;"/><path d="M142.438,93.696l-34.274,27.615l11.728,20.137l22.546,-47.752Z" style="fill:#207691;"/></g><g><path d="M106.691,139.71l27.966,29.277l-12.941,16.071l-15.025,-45.348Z" style="fill:#3acdd7;"/><path d="M106.691,139.71l-5.428,38.745l20.453,6.603l-15.025,-45.348Z" style="fill:#207691;"/></g><g><path d="M63.843,108.234l23.205,30.048l-8.427,18.914l-14.778,-48.962Z" style="fill:#3acdd7;"/><path d="M63.843,108.234l-1.039,43.395l15.817,5.567l-14.778,-48.962Z" style="fill:#207691;"/></g></g></g></svg>