<?xml version="1.0" encoding="UTF-8" standalone="no"?><!DOCTYPE svg PUBLIC "-//W3C//DTD SVG 1.1//EN" "http://www.w3.org/Graphics/SVG/1.1/DTD/svg11.dtd"><svg width="100%" height="100%" viewBox="0 0 143 183" version="1.1" xmlns="http://www.w3.org/2000/svg" xmlns:xlink="http://www.w3.org/1999/xlink" xml:space="preserve" xmlns:serif="http://www.serif.com/" style="fill-rule:evenodd;clip-rule:evenodd;stroke-linejoin:round;stroke-miterlimit:1.41421;"><g id="Tree_pyramid01"><g><path d="M59.084,102.407l0,75.132l10.733,5.367l0,-75.132l-10.733,-5.367Z" style="fill:#186046;"/><path d="M80.55,102.407l0,75.132l-10.733,5.367l0,-75.132l10.733,-5.367Z" style="fill:#836e4b;"/></g><path d="M56.957,109.104l-21.14,9.264l-28.186,0l-7.046,3.088l35.232,3.089l28.187,-12.353l-7.047,-3.088Z" style="fill:#836e4b;"/><path d="M64.004,112.192l4.109,1.801l-30.533,13.341l-29.949,-2.789l-7.046,-3.089l35.232,3.089l28.187,-12.353Z" style="fill:#186046;"/><g><path d="M69.817,0.442l-21.466,32.2l21.466,10.733l0,-42.933Z" style="fill:#207691;"/><path d="M69.817,0.442l21.467,32.2l-21.467,10.733l0,-42.933Z" style="fill:#3acdd7;"/><path d="M53.718,35.325l-21.467,32.199l37.566,18.783l0,-42.932l-16.099,-8.05" style="fill:#207691;"/><path d="M85.917,35.325l21.466,32.199l-37.566,18.783l0,-42.932l16.1,-8.05Z" style="fill:#3acdd7;"/><path d="M37.618,70.208l-21.466,32.199l53.665,26.833l0,-42.933l-32.199,-16.099" style="fill:#207691;"/><path d="M102.017,70.208l21.466,32.199l-53.666,26.833l0,-42.933l32.2,-16.099Z" style="fill:#3acdd7;"/></g><g><path d="M108.86,131.016l-2.746,1.039l-21.62,-10.153l3.069,-1.535l21.297,10.649Z" style="fill:#186046;"/><path d="M92.887,117.705l15.973,7.987l0,5.324l-21.297,-10.649l5.324,-2.662Z" style="fill:#836e4b;"/></g><g><path d="M41.34,90.831l2.419,0.916l19.047,-8.945l-2.704,-1.352l-18.762,9.381Z" style="fill:#186046;"/><path d="M55.412,79.105l-14.072,7.036l0,4.69l18.762,-9.381l-4.69,-2.345Z" style="fill:#836e4b;"/></g><g><path d="M88.368,44.833l-2.637,1.318l-10.547,-5.274l2.637,-1.318l10.547,5.274Z" style="fill:#186046;"/><path d="M80.458,38.24l7.91,3.956l0,2.637l-10.547,-5.274l2.637,-1.319Z" style="fill:#836e4b;"/></g><path d="M99.779,71.326l16.1,8.05l21.466,0l5.367,2.683l-26.833,2.684l-21.466,-10.733l5.366,-2.684Z" style="fill:#836e4b;"/><path d="M94.413,74.01l-3.129,1.564l23.253,11.592l22.808,-2.423l5.367,-2.684l-26.833,2.684l-21.466,-10.733Z" style="fill:#186046;"/><g><path d="M12.998,120.084l-8.755,0.989l-3.619,7.382l7.007,5.045l0,-5.366l5.367,-8.05Z" style="fill:#186046;"/><path d="M12.998,120.084l3.154,6.943l-8.521,6.473l0,-5.366l5.367,-8.05Z" style="fill:#836e4b;"/><path d="M83.704,131.103l8.755,-0.989l3.619,-7.382l-7.007,-5.046l0,5.367l-5.367,8.05Z" style="fill:#186046;"/><path d="M83.704,131.103l-3.154,-6.944l8.521,-6.473l0,5.367l-5.367,8.05Z" style="fill:#836e4b;"/><path d="M57.175,47.313l-7.806,-0.933l-3.228,-6.961l6.249,-4.758l0,5.061l4.785,7.591Z" style="fill:#186046;"/><path d="M57.175,47.313l2.813,-6.548l-7.598,-6.104l0,5.061l4.785,7.591Z" style="fill:#836e4b;"/><path d="M127.183,82.791l-5.367,8.05l0,5.366l5.367,2.684l5.367,-2.684l-5.367,-2.683l0,-10.733Z" style="fill:#186046;"/><path d="M132.55,85.474l5.366,8.05l-5.366,2.683l-5.367,-2.683l0,-10.733l5.367,2.683" style="fill:#836e4b;"/><path d="M79.236,38.665l-5.366,2.684l0,5.366l3.173,3.78l4.107,-3.028l-2.509,-3.733l0.595,-5.069" style="fill:#186046;"/><path d="M79.236,38.665l3.703,1.852l-1.869,6.87l-2.558,-3.717l0.724,-5.005Z" style="fill:#836e4b;"/><path d="M41.647,88.322l-5.366,2.683l0,10.733l5.366,2.684l0,-5.367l0,-5.366l5.367,-2.684l-5.367,-2.683" style="fill:#186046;"/><path d="M47.014,91.005l0,5.367l-5.367,8.05l0,-10.733l5.367,-2.684Z" style="fill:#836e4b;"/></g></g></svg>