<?xml version="1.0" encoding="UTF-8" standalone="no"?><!DOCTYPE svg PUBLIC "-//W3C//DTD SVG 1.1//EN" "http://www.w3.org/Graphics/SVG/1.1/DTD/svg11.dtd"><svg width="100%" height="100%" viewBox="0 0 169 189" version="1.1" xmlns="http://www.w3.org/2000/svg" xmlns:xlink="http://www.w3.org/1999/xlink" xml:space="preserve" xmlns:serif="http://www.serif.com/" style="fill-rule:evenodd;clip-rule:evenodd;stroke-linejoin:round;stroke-miterlimit:1.41421;"><g id="Tree_other02"><g><path d="M147.906,84.822l-27.758,13.879l-27.598,9.252l-70.458,-21.27l-8.35,-8.801l78.607,23.132l55.557,-16.192Z" style="fill:#186046;"/><path d="M147.906,84.822l-18.506,0l-36.85,9.252l-64.929,-13.879l-13.879,-2.313l78.719,23.132l55.445,-16.192Z" style="fill:#836e4b;"/></g><g><path d="M102.891,76.24l5.367,104.648l-16.1,8.05l0,-150.264l10.733,37.566Z" style="fill:#836e4b;"/><path d="M92.158,38.674l0,150.264l-16.1,-8.05l5.367,-104.648l10.733,-37.566Z" style="fill:#186046;"/></g><g><g><path d="M44.018,64.783l-15.576,-0.229l5.956,18.782l14.888,-6.013l-5.268,-12.54Z" style="fill:#5bf8f1;"/><path d="M49.286,77.323l-2.519,12.427l-14.889,6.013l2.52,-12.427l14.888,-6.013Z" style="fill:#3acdd7;"/><path d="M28.442,64.554l-5.726,18.611l9.162,12.598l2.52,-12.427l-5.956,-18.782" style="fill:#207691;"/></g><g><path d="M42.084,83.501l12.508,11.257l-20.012,7.505l-12.508,-18.762l20.012,0Z" style="fill:#5bf8f1;"/><path d="M54.592,94.758l0,17.511l-20.012,7.504l0,-17.51l20.012,-7.505Z" style="fill:#3acdd7;"/><path d="M34.58,102.263l0,17.51l-12.508,-13.758l0,-22.514l12.508,18.762Z" style="fill:#207691;"/></g><g><path d="M12.268,67.886l16.98,5.66l-8.49,15.565l-19.81,-15.565l11.32,-5.66Z" style="fill:#5bf8f1;"/><path d="M29.248,73.546l8.49,15.565l-8.49,12.735l-8.49,-12.735l8.49,-15.565Z" style="fill:#3acdd7;"/><path d="M0.948,73.546l5.66,25.47l22.64,2.83l-8.49,-12.735l-19.81,-15.565Z" style="fill:#207691;"/></g></g><g><g><path d="M134.941,62.117l15.357,5.119l-7.679,14.078l-17.917,-14.078l10.239,-5.119Z" style="fill:#5bf8f1;"/><path d="M150.298,67.236l7.679,14.078l-7.679,11.518l-7.679,-11.518l7.679,-14.078Z" style="fill:#3acdd7;"/><path d="M124.702,67.236l5.119,23.037l20.477,2.559l-7.679,-11.518l-17.917,-14.078Z" style="fill:#207691;"/></g><g><path d="M140.903,74.372l16.929,1.986l-12.152,17.918l-21.323,-8.19l16.546,-11.714Z" style="fill:#5bf8f1;"/><path d="M157.832,76.358l10.25,14.477l-12.153,17.918l-10.249,-14.477l12.152,-17.918Z" style="fill:#3acdd7;"/><path d="M145.68,94.276l10.249,14.477l-18.394,-4.054l-13.178,-18.613l21.323,8.19Z" style="fill:#207691;"/></g><g><path d="M161.724,55.589l-15.777,-0.339l5.903,19.067l15.123,-5.988l-5.249,-12.74Z" style="fill:#5bf8f1;"/><path d="M166.973,68.329l-2.638,12.57l-15.123,5.988l2.638,-12.57l15.123,-5.988Z" style="fill:#3acdd7;"/><path d="M145.947,55.25l-5.929,18.812l9.194,12.825l2.638,-12.57l-5.903,-19.067" style="fill:#207691;"/></g></g><g><g><path d="M111.166,2.582l20.893,17.949l-21.157,17.229l-19.157,-33.706l19.421,-1.472Z" style="fill:#5bf8f1;"/><path d="M132.059,20.531l3.031,27.115l-19.508,13.198l-4.68,-23.084l21.157,-17.229Z" style="fill:#3acdd7;"/><path d="M91.745,4.054l-6.766,39.578l30.603,17.212l-4.68,-23.084l-19.157,-33.706Z" style="fill:#207691;"/></g><g><path d="M99.617,0.704l-26.842,-0.578l10.044,32.441l36.917,-12.286l-20.119,-19.577Z" style="fill:#5bf8f1;"/><path d="M119.736,20.281l-15.675,23.486l-25.731,10.188l4.489,-21.388l36.917,-12.286Z" style="fill:#3acdd7;"/><path d="M72.775,0.126l-10.088,32.008l15.643,21.821l4.489,-21.388l-10.044,-32.441" style="fill:#207691;"/></g><g><path d="M96.209,20.098l6.719,29.048l-36.675,-9.439l-2.156,-26.294l32.112,6.685Z" style="fill:#5bf8f1;"/><path d="M102.928,49.146l-17.791,25.418l-36.675,-9.439l17.791,-25.418l36.675,9.439Z" style="fill:#3acdd7;"/><path d="M66.253,39.707l-17.791,25.418l-4.177,-32.679l19.812,-19.033l2.156,26.294Z" style="fill:#207691;"/></g><g><path d="M90.862,17.909l24.22,17.388l-33.782,17.115l-18.974,-18.331l28.536,-16.172Z" style="fill:#5bf8f1;"/><path d="M115.082,35.297l3.411,30.838l-33.782,17.115l-3.411,-30.838l33.782,-17.115Z" style="fill:#3acdd7;"/><path d="M81.3,52.412l3.411,30.838l-24.707,-21.794l2.322,-27.375l18.974,18.331Z" style="fill:#207691;"/></g></g></g></svg>