<?xml version="1.0" encoding="UTF-8" standalone="no"?><!DOCTYPE svg PUBLIC "-//W3C//DTD SVG 1.1//EN" "http://www.w3.org/Graphics/SVG/1.1/DTD/svg11.dtd"><svg width="100%" height="100%" viewBox="0 0 169 183" version="1.1" xmlns="http://www.w3.org/2000/svg" xmlns:xlink="http://www.w3.org/1999/xlink" xml:space="preserve" xmlns:serif="http://www.serif.com/" style="fill-rule:evenodd;clip-rule:evenodd;stroke-linejoin:round;stroke-miterlimit:1.41421;"><g id="Tree_cube07"><g><path d="M106.377,120.994l0,53.665l-16.1,8.05l0,-53.665l16.1,-8.05Z" style="fill:#836e4b;"/><path d="M90.277,129.044l0,53.665l-16.099,-8.05l0,-53.665l16.099,8.05Z" style="fill:#186046;"/></g><g><path d="M90.277,0.246l42.933,21.466l-42.933,21.467l-42.932,-21.467l42.932,-21.466Z" style="fill:#5bf8f1;"/><path d="M133.21,21.712l0,85.865l-42.933,21.467l0,-85.865l42.933,-21.467Z" style="fill:#3acdd7;"/><path d="M90.277,43.179l0,85.865l-42.932,-21.467l0,-85.865l42.932,21.467Z" style="fill:#207691;"/></g><g><path d="M106.377,104.894l37.566,-18.783l0,-10.733l-48.299,24.15l10.733,5.366Z" style="fill:#186046;"/><path d="M95.644,88.794l37.566,-18.783l10.733,5.367l-48.299,24.15l0,-10.734Z" style="fill:#836e4b;"/></g><g><path d="M122.477,84.17l0,-18.042l18.041,9.021l0,18.041l-18.041,-9.02Z" style="fill:#207691;"/><path d="M122.477,66.128l18.041,-9.02l18.041,9.02l-18.041,9.021l-18.041,-9.021Z" style="fill:#5bf8f1;"/><path d="M140.518,93.19l18.041,-9.02l0,-18.042l-18.041,9.021l0,18.041Z" style="fill:#3acdd7;"/></g><g><path d="M157.359,114.286l-40.249,-20.125l0,-5.367l45.616,22.808l-5.367,2.684Z" style="fill:#186046;"/><path d="M162.726,106.236l-40.249,-20.125l-5.367,2.683l45.616,22.808l0,-5.366Z" style="fill:#836e4b;"/></g><g><path d="M65.845,111.744l-61.433,-30.717l0,-8.191l69.624,34.812l-8.191,4.096Z" style="fill:#186046;"/><path d="M74.036,99.457l-61.433,-30.717l-8.191,4.096l69.624,34.812l0,-8.191Z" style="fill:#836e4b;"/></g><g><path d="M143.943,108.904l0,-12.06l12.06,6.03l0,12.06l-12.06,-6.03Z" style="fill:#207691;"/><path d="M143.943,96.844l12.06,-6.03l12.059,6.03l-12.059,6.03l-12.06,-6.03Z" style="fill:#5bf8f1;"/><path d="M156.003,114.934l12.059,-6.03l0,-12.06l-12.059,6.03l0,12.06Z" style="fill:#3acdd7;"/></g><g><path d="M111.744,94.161l0,-8.05l8.049,4.025l0,8.05l-8.049,-4.025Z" style="fill:#207691;"/><path d="M111.744,86.111l8.049,-4.025l8.05,4.025l-8.05,4.025l-8.049,-4.025Z" style="fill:#5bf8f1;"/><path d="M119.793,98.186l8.05,-4.025l0,-8.05l-8.05,4.025l0,8.05Z" style="fill:#3acdd7;"/></g><g><path d="M0.433,79.358l0,-18.09l18.089,9.045l0,18.089l-18.089,-9.044Z" style="fill:#207691;"/><path d="M0.433,61.268l18.089,-9.045l18.09,9.045l-18.09,9.045l-18.089,-9.045Z" style="fill:#5bf8f1;"/><path d="M18.522,88.402l18.09,-9.044l0,-18.09l-18.09,9.045l0,18.089Z" style="fill:#3acdd7;"/></g><g><path d="M2.176,97.962l0,-17.217l17.218,8.608l0,17.218l-17.218,-8.609Z" style="fill:#207691;"/><path d="M2.176,80.745l17.218,-8.609l17.218,8.609l-17.218,8.608l-17.218,-8.608Z" style="fill:#5bf8f1;"/><path d="M19.394,106.571l17.218,-8.609l0,-17.217l-17.218,8.608l0,17.218Z" style="fill:#3acdd7;"/></g></g></svg>