<?xml version="1.0" encoding="UTF-8" standalone="no"?><!DOCTYPE svg PUBLIC "-//W3C//DTD SVG 1.1//EN" "http://www.w3.org/Graphics/SVG/1.1/DTD/svg11.dtd"><svg width="100%" height="100%" viewBox="0 0 108 183" version="1.1" xmlns="http://www.w3.org/2000/svg" xmlns:xlink="http://www.w3.org/1999/xlink" xml:space="preserve" xmlns:serif="http://www.serif.com/" style="fill-rule:evenodd;clip-rule:evenodd;stroke-linejoin:round;stroke-miterlimit:1.41421;"><g id="Tree_pyramid03"><g><path d="M43.477,102.407l0,75.132l10.733,5.367l0,-75.132l-10.733,-5.367Z" style="fill:#186046;"/><path d="M64.943,102.407l0,75.132l-10.733,5.367l0,-75.132l10.733,-5.367Z" style="fill:#836e4b;"/></g><path d="M91.776,105.09l0,10.733l5.366,2.684l5.367,-2.684l-10.733,-10.733Z" style="fill:#186046;"/><path d="M91.776,105.09l10.733,0l5.366,8.05l-5.366,2.683l-10.733,-10.733Z" style="fill:#836e4b;"/><g><path d="M54.21,0.442l-21.466,32.2l21.466,10.733l0,-42.933Z" style="fill:#207691;"/><path d="M54.21,0.442l21.466,32.2l-21.466,10.733l0,-42.933Z" style="fill:#3acdd7;"/><path d="M38.11,35.325l-21.466,32.199l37.566,18.783l0,-42.932l-16.1,-8.05" style="fill:#207691;"/><path d="M70.31,35.325l21.466,32.199l-37.566,18.783l0,-42.932l16.1,-8.05Z" style="fill:#3acdd7;"/><path d="M22.01,70.208l-21.466,32.199l53.666,26.833l0,-42.933l-32.2,-16.099" style="fill:#207691;"/><path d="M86.409,70.208l21.466,32.199l-53.665,26.833l0,-42.933l32.199,-16.099Z" style="fill:#3acdd7;"/></g><g><path d="M14.232,105.718l-8.755,0.989l-3.619,7.382l7.008,5.046l0,-5.367l5.366,-8.05Z" style="fill:#186046;"/><path d="M14.232,105.718l3.154,6.944l-8.52,6.473l0,-5.367l5.366,-8.05Z" style="fill:#836e4b;"/><path d="M75.676,75.574l-5.366,8.05l0,5.367l5.366,2.683l5.367,-2.683l-5.367,-2.684l0,-10.733Z" style="fill:#186046;"/><path d="M81.043,78.258l5.366,8.049l-5.366,2.684l-5.367,-2.684l0,-10.733l5.367,2.684" style="fill:#836e4b;"/><path d="M48.843,40.692l-5.366,2.683l0,5.366l3.173,3.78l4.107,-3.027l-2.509,-3.734l0.595,-5.068" style="fill:#186046;"/><path d="M48.843,40.692l3.703,1.851l-1.869,6.87l-2.558,-3.717l0.724,-5.004Z" style="fill:#836e4b;"/><path d="M32.744,75.574l-5.367,2.684l0,10.733l5.367,2.683l0,-5.367l0,-5.366l5.366,-2.683l-5.366,-2.684" style="fill:#186046;"/><path d="M38.11,78.258l0,5.366l-5.366,8.05l0,-10.733l5.366,-2.683Z" style="fill:#836e4b;"/></g></g></svg>