<?xml version="1.0" encoding="UTF-8" standalone="no"?><!DOCTYPE svg PUBLIC "-//W3C//DTD SVG 1.1//EN" "http://www.w3.org/Graphics/SVG/1.1/DTD/svg11.dtd"><svg width="100%" height="100%" viewBox="0 0 167 183" version="1.1" xmlns="http://www.w3.org/2000/svg" xmlns:xlink="http://www.w3.org/1999/xlink" xml:space="preserve" xmlns:serif="http://www.serif.com/" style="fill-rule:evenodd;clip-rule:evenodd;stroke-linejoin:round;stroke-miterlimit:1.41421;"><g id="Tree_cube08"><g><path d="M107.647,120.994l0,53.665l-16.1,8.05l0,-53.665l16.1,-8.05Z" style="fill:#836e4b;"/><path d="M91.547,129.044l0,53.665l-16.099,-8.05l0,-53.665l16.099,8.05Z" style="fill:#186046;"/></g><g><path d="M91.547,0.246l42.933,21.466l-42.933,21.467l-42.932,-21.467l42.932,-21.466Z" style="fill:#5bf8f1;"/><path d="M134.48,21.712l0,85.865l-42.933,21.467l0,-85.865l42.933,-21.467Z" style="fill:#3acdd7;"/><path d="M91.547,43.179l0,85.865l-42.932,-21.467l0,-85.865l42.932,21.467Z" style="fill:#207691;"/></g><g><path d="M113.014,102.211l37.566,-18.783l0,-10.733l-48.3,24.149l10.734,5.367Z" style="fill:#186046;"/><path d="M102.28,86.111l37.566,-18.783l10.734,5.367l-48.3,24.149l0,-10.733Z" style="fill:#836e4b;"/></g><g><path d="M0.316,62.456l0,-15.605l15.605,7.803l0,15.605l-15.605,-7.803Z" style="fill:#207691;"/><path d="M0.316,46.851l15.605,-7.803l15.605,7.803l-15.605,7.803l-15.605,-7.803Z" style="fill:#5bf8f1;"/><path d="M15.921,70.259l15.605,-7.803l0,-15.605l-15.605,7.803l0,15.605Z" style="fill:#3acdd7;"/></g><g><path d="M57.878,63.91l-40.249,-20.125l0,-5.366l45.616,22.808l-5.367,2.683Z" style="fill:#186046;"/><path d="M63.245,55.86l-40.25,-20.124l-5.366,2.683l45.616,22.808l0,-5.367Z" style="fill:#836e4b;"/></g><g><path d="M125.556,78.936l0,-20.562l20.561,10.281l0,20.561l-20.561,-10.28Z" style="fill:#207691;"/><path d="M125.556,58.374l20.561,-10.281l20.562,10.281l-20.562,10.281l-20.561,-10.281Z" style="fill:#5bf8f1;"/><path d="M146.117,89.216l20.562,-10.28l0,-20.562l-20.562,10.281l0,20.561Z" style="fill:#3acdd7;"/></g><g><path d="M11.049,38.039l0,-11.364l11.364,5.682l0,11.365l-11.364,-5.683Z" style="fill:#207691;"/><path d="M11.049,26.675l11.364,-5.683l11.365,5.683l-11.365,5.682l-11.364,-5.682Z" style="fill:#5bf8f1;"/><path d="M22.413,43.722l11.365,-5.683l0,-11.364l-11.365,5.682l0,11.365Z" style="fill:#3acdd7;"/></g></g></svg>