<?xml version="1.0" encoding="UTF-8" standalone="no"?><!DOCTYPE svg PUBLIC "-//W3C//DTD SVG 1.1//EN" "http://www.w3.org/Graphics/SVG/1.1/DTD/svg11.dtd"><svg width="100%" height="100%" viewBox="0 0 87 162" version="1.1" xmlns="http://www.w3.org/2000/svg" xmlns:xlink="http://www.w3.org/1999/xlink" xml:space="preserve" xmlns:serif="http://www.serif.com/" style="fill-rule:evenodd;clip-rule:evenodd;stroke-linejoin:round;stroke-miterlimit:1.41421;"><g id="Tree_cube09"><g><path d="M60.396,99.331l0,53.666l-16.1,8.05l0,-53.666l16.1,-8.05Z" style="fill:#836e4b;"/><path d="M44.296,107.381l0,53.666l-16.1,-8.05l0,-53.666l16.1,8.05Z" style="fill:#186046;"/></g><g><path d="M43.625,45.696l42.933,21.466l-42.933,21.467l-42.932,-21.467l42.932,-21.466Z" style="fill:#5bf8f1;"/><path d="M86.558,67.162l0,32.2l-42.933,21.466l0,-32.199l42.933,-21.467Z" style="fill:#3acdd7;"/><path d="M43.625,88.629l0,32.199l-42.932,-21.466l0,-32.2l42.932,21.467Z" style="fill:#207691;"/></g><g><path d="M44.296,3.376l32.199,15.823l-32.199,16.099l-32.199,-16.099l32.199,-15.823Z" style="fill:#5bf8f1;"/><path d="M76.495,19.199l-0.277,48.437l-31.922,15.961l0,-48.299l32.199,-16.099Z" style="fill:#3acdd7;"/><path d="M44.296,35.298l0,48.299l-31.922,-15.961l-0.277,-48.437l32.199,16.099Z" style="fill:#207691;"/></g><g><path d="M44.296,0.05l17.075,8.538l-17.075,8.537l-17.075,-8.537l17.075,-8.538Z" style="fill:#5bf8f1;"/><path d="M61.371,8.588l0,12.806l-17.075,8.538l0,-12.807l17.075,-8.537Z" style="fill:#3acdd7;"/><path d="M44.296,17.125l0,12.807l-17.075,-8.538l0,-12.806l17.075,8.537Z" style="fill:#207691;"/></g></g></svg>