<?xml version="1.0" encoding="UTF-8" standalone="no"?><!DOCTYPE svg PUBLIC "-//W3C//DTD SVG 1.1//EN" "http://www.w3.org/Graphics/SVG/1.1/DTD/svg11.dtd"><svg width="100%" height="100%" viewBox="0 0 49 52" version="1.1" xmlns="http://www.w3.org/2000/svg" xmlns:xlink="http://www.w3.org/1999/xlink" xml:space="preserve" xmlns:serif="http://www.serif.com/" style="fill-rule:evenodd;clip-rule:evenodd;stroke-linecap:round;stroke-linejoin:round;stroke-miterlimit:1.5;"><g id="cactus10"><path d="M48.409,36.169l-1.325,-9.572l-4.397,-10.358l-5.3,-8.083l-6.403,-6.139l-6.923,-1.943l-7.806,1.569l-5.204,5.114l-6.4,9.336l-4.076,10.469l0.366,10.55l5.708,10.377l12.161,4.471l11.195,0l12.613,-5.052l5.791,-10.739Z" style="fill:#82b36a;"/><clipPath id="_clip1"><path d="M48.409,36.169l-1.325,-9.572l-4.397,-10.358l-5.3,-8.083l-6.403,-6.139l-6.923,-1.943l-7.806,1.569l-5.204,5.114l-6.4,9.336l-4.076,10.469l0.366,10.55l5.708,10.377l12.161,4.471l11.195,0l12.613,-5.052l5.791,-10.739Z"/></clipPath><g clip-path="url(#_clip1)"><path d="M25.618,-16.53l-1.211,8.831l-0.89,62.903l23.567,7.136l13.009,-14.962c3.849,-41.307 -8.935,-79.847 -34.475,-63.908Z" style="fill:#a1d277;stroke:#000;stroke-width:1px;"/><path d="M32.329,-7.255c9.707,6.793 14.58,16.605 10.876,21.898c-3.704,5.293 -14.592,4.075 -24.299,-2.718c-9.706,-6.793 -14.58,-16.605 -10.875,-21.898c3.704,-5.293 14.592,-4.075 24.298,2.718Z" style="fill:#83c759;fill-opacity:0.5;"/><path d="M13.851,14.557l2.764,-17.481l7.792,-3.892l2.799,1.4l6.179,21.918l2.966,11.853l0,14.524l-1.779,10.913l-19.687,0.434l-1.881,-11.607l-0.165,-14.779l1.012,-13.283Z" style="fill:#33643d;"/><clipPath id="_clip2"><path d="M13.851,14.557l2.764,-17.481l7.792,-3.892l2.799,1.4l6.179,21.918l2.966,11.853l0,14.524l-1.779,10.913l-19.687,0.434l-1.881,-11.607l-0.165,-14.779l1.012,-13.283Z"/></clipPath><g clip-path="url(#_clip2)"><path d="M32.329,-7.255c9.707,6.793 14.58,16.605 10.876,21.898c-3.704,5.293 -14.592,4.075 -24.299,-2.718c-9.706,-6.793 -14.58,-16.605 -10.875,-21.898c3.704,-5.293 14.592,-4.075 24.298,2.718Z" style="fill:#83c759;fill-opacity:0.5;"/></g></g><g><path d="M30.445,7.441c-0.942,0.027 -1.729,-0.716 -1.756,-1.658c-0.027,-0.942 0.716,-1.729 1.658,-1.756c0.942,-0.027 1.729,0.716 1.756,1.658c0.028,0.942 -0.715,1.729 -1.658,1.756Z" style="fill:#b49f97;"/><path d="M32.744,13.637c-0.942,0.027 -1.729,-0.716 -1.756,-1.658c-0.027,-0.942 0.716,-1.729 1.658,-1.756c0.942,-0.027 1.729,0.716 1.756,1.658c0.027,0.942 -0.716,1.729 -1.658,1.756Z" style="fill:#b49f97;"/><path d="M34.955,20.958c-0.942,0.027 -1.729,-0.716 -1.757,-1.658c-0.027,-0.942 0.716,-1.729 1.659,-1.756c0.942,-0.027 1.729,0.715 1.756,1.658c0.027,0.942 -0.716,1.729 -1.658,1.756Z" style="fill:#b49f97;"/><path d="M36.389,35.027c-0.943,0.027 -1.73,-0.716 -1.757,-1.659c-0.027,-0.942 0.716,-1.729 1.658,-1.756c0.943,-0.027 1.73,0.716 1.757,1.658c0.027,0.942 -0.716,1.729 -1.658,1.757Z" style="fill:#b49f97;"/><path d="M36.493,42.825c-0.942,0.028 -1.729,-0.715 -1.756,-1.658c-0.027,-0.942 0.716,-1.729 1.658,-1.756c0.942,-0.027 1.729,0.716 1.756,1.658c0.027,0.942 -0.716,1.729 -1.658,1.756Z" style="fill:#b49f97;"/><path d="M35.574,49.673c-0.942,0.027 -1.729,-0.716 -1.756,-1.658c-0.027,-0.942 0.716,-1.729 1.658,-1.756c0.942,-0.027 1.729,0.716 1.756,1.658c0.027,0.942 -0.715,1.729 -1.658,1.756Z" style="fill:#b49f97;"/><path d="M36.167,28.331c-0.942,0.027 -1.729,-0.716 -1.756,-1.658c-0.027,-0.942 0.716,-1.729 1.658,-1.756c0.942,-0.028 1.729,0.715 1.756,1.658c0.027,0.942 -0.716,1.729 -1.658,1.756Z" style="fill:#b49f97;"/></g><g><g><g><path d="M15.003,7.468c0.941,0.054 1.749,-0.666 1.803,-1.607c0.053,-0.941 -0.667,-1.749 -1.608,-1.803c-0.941,-0.053 -1.749,0.667 -1.803,1.608c-0.053,0.941 0.667,1.749 1.608,1.802Z" style="fill:#b49f97;"/><path d="M13.503,13.625c0.941,0.054 1.748,-0.667 1.802,-1.608c0.054,-0.941 -0.667,-1.749 -1.608,-1.802c-0.941,-0.054 -1.749,0.667 -1.802,1.608c-0.054,0.941 0.666,1.748 1.608,1.802Z" style="fill:#b49f97;"/><path d="M13.086,20.937c0.941,0.054 1.748,-0.667 1.802,-1.608c0.054,-0.941 -0.667,-1.748 -1.608,-1.802c-0.941,-0.054 -1.749,0.667 -1.802,1.608c-0.054,0.941 0.667,1.748 1.608,1.802Z" style="fill:#b49f97;"/><path d="M12.228,35.987c0.941,0.054 1.748,-0.666 1.802,-1.607c0.054,-0.942 -0.667,-1.749 -1.608,-1.803c-0.941,-0.053 -1.749,0.667 -1.802,1.608c-0.054,0.941 0.667,1.749 1.608,1.802Z" style="fill:#b49f97;"/><path d="M12.931,42.809c0.942,0.054 1.749,-0.667 1.803,-1.608c0.053,-0.941 -0.667,-1.749 -1.608,-1.802c-0.941,-0.054 -1.749,0.667 -1.802,1.608c-0.054,0.941 0.666,1.748 1.607,1.802Z" style="fill:#b49f97;"/><path d="M13.657,49.68c0.941,0.053 1.749,-0.667 1.802,-1.608c0.054,-0.941 -0.666,-1.749 -1.608,-1.803c-0.941,-0.053 -1.748,0.667 -1.802,1.608c-0.054,0.941 0.667,1.749 1.608,1.803Z" style="fill:#b49f97;"/><path d="M12.666,28.301c0.941,0.054 1.749,-0.667 1.802,-1.608c0.054,-0.941 -0.667,-1.748 -1.608,-1.802c-0.941,-0.054 -1.748,0.667 -1.802,1.608c-0.054,0.941 0.667,1.749 1.608,1.802Z" style="fill:#b49f97;"/></g><g><g opacity="0.3"><path d="M15.715,4.17c-0.879,-0.339 -1.869,0.099 -2.208,0.979c-0.339,0.879 0.099,1.869 0.979,2.208c0.879,0.339 1.869,-0.1 2.208,-0.979c0.339,-0.879 -0.099,-1.869 -0.979,-2.208Z" style="fill:#090705;"/><path d="M13.503,13.625c0.941,0.054 1.748,-0.667 1.802,-1.608c0.054,-0.941 -0.667,-1.749 -1.608,-1.802c-0.941,-0.054 -1.749,0.667 -1.802,1.608c-0.054,0.941 0.666,1.748 1.608,1.802Z" style="fill:#090705;"/><path d="M13.086,20.937c0.941,0.054 1.748,-0.667 1.802,-1.608c0.054,-0.941 -0.667,-1.748 -1.608,-1.802c-0.941,-0.054 -1.749,0.667 -1.802,1.608c-0.054,0.941 0.667,1.748 1.608,1.802Z" style="fill:#090705;"/><path d="M12.228,35.987c0.941,0.054 1.748,-0.666 1.802,-1.607c0.054,-0.942 -0.667,-1.749 -1.608,-1.803c-0.941,-0.053 -1.749,0.667 -1.802,1.608c-0.054,0.941 0.667,1.749 1.608,1.802Z" style="fill:#090705;"/><path d="M12.931,42.809c0.942,0.054 1.749,-0.667 1.803,-1.608c0.053,-0.941 -0.667,-1.749 -1.608,-1.802c-0.941,-0.054 -1.749,0.667 -1.802,1.608c-0.054,0.941 0.666,1.748 1.607,1.802Z" style="fill:#090705;"/><path d="M13.657,49.68c0.941,0.053 1.749,-0.667 1.802,-1.608c0.054,-0.941 -0.666,-1.749 -1.608,-1.803c-0.941,-0.053 -1.748,0.667 -1.802,1.608c-0.054,0.941 0.667,1.749 1.608,1.803Z" style="fill:#090705;"/><path d="M12.666,28.301c0.941,0.054 1.749,-0.667 1.802,-1.608c0.054,-0.941 -0.667,-1.748 -1.608,-1.802c-0.941,-0.054 -1.748,0.667 -1.802,1.608c-0.054,0.941 0.667,1.749 1.608,1.802Z" style="fill:#090705;"/></g></g></g></g></g></svg>