<?xml version="1.0" encoding="UTF-8" standalone="no"?><!DOCTYPE svg PUBLIC "-//W3C//DTD SVG 1.1//EN" "http://www.w3.org/Graphics/SVG/1.1/DTD/svg11.dtd"><svg width="100%" height="100%" viewBox="0 0 28 60" version="1.1" xmlns="http://www.w3.org/2000/svg" xmlns:xlink="http://www.w3.org/1999/xlink" xml:space="preserve" xmlns:serif="http://www.serif.com/" style="fill-rule:evenodd;clip-rule:evenodd;stroke-linecap:round;stroke-linejoin:round;stroke-miterlimit:1.5;"><g id="cactus12"><path d="M27.383,35.025l-1.213,-19.126l-3.727,-8.186l-5.597,-5.597l-2.799,-1.4l-2.799,1.4l-5.598,5.597l-3.405,7.283l-1.695,19.08l0,16.1l7.899,9.315l11.196,0l7.738,-9.384l0,-15.082Z" style="fill:#82b36a;"/><clipPath id="_clip1"><path d="M27.383,35.025l-1.213,-19.126l-3.727,-8.186l-5.597,-5.597l-2.799,-1.4l-2.799,1.4l-5.598,5.597l-3.405,7.283l-1.695,19.08l0,16.1l7.899,9.315l11.196,0l7.738,-9.384l0,-15.082Z"/></clipPath><g clip-path="url(#_clip1)"><path d="M26.577,-1.415l-12.53,1.247l-0.89,62.903l17.683,-3.244l-4.263,-60.906Z" style="fill:#a1d277;stroke:#000;stroke-width:1px;"/><path d="M28.853,1.344c7.602,9.087 9.751,19.83 4.796,23.976c-4.955,4.145 -15.15,0.133 -22.752,-8.954c-7.602,-9.087 -9.75,-19.83 -4.795,-23.976c4.955,-4.145 15.149,-0.133 22.751,8.954Z" style="fill:#83c759;fill-opacity:0.5;"/><path d="M8.449,20.308l2.799,-18.192l2.799,-1.4l2.799,1.4l2.799,18.192l0,22.391l-2.799,18.192l-5.598,0l-2.799,-18.192l0,-22.391Z" style="fill:#33643d;"/><clipPath id="_clip2"><path d="M8.449,20.308l2.799,-18.192l2.799,-1.4l2.799,1.4l2.799,18.192l0,22.391l-2.799,18.192l-5.598,0l-2.799,-18.192l0,-22.391Z"/></clipPath><g clip-path="url(#_clip2)"><path d="M28.853,1.344c7.602,9.087 9.751,19.83 4.796,23.976c-4.955,4.145 -15.15,0.133 -22.752,-8.954c-7.602,-9.087 -9.75,-19.83 -4.795,-23.976c4.955,-4.145 15.149,-0.133 22.751,8.954Z" style="fill:#83c759;fill-opacity:0.5;"/></g></g><g><circle cx="17.285" cy="6.023" r="1.708" style="fill:#b49f97;"/><circle cx="18.554" cy="13.261" r="1.708" style="fill:#b49f97;"/><circle cx="19.645" cy="20.491" r="1.708" style="fill:#b49f97;"/><circle cx="19.645" cy="27.815" r="1.708" style="fill:#b49f97;"/><circle cx="19.645" cy="42.89" r="1.708" style="fill:#b49f97;"/><circle cx="18.554" cy="49.66" r="1.708" style="fill:#b49f97;"/><circle cx="17.438" cy="56.479" r="1.708" style="fill:#b49f97;"/><circle cx="19.645" cy="35.191" r="1.708" style="fill:#b49f97;"/></g><g><circle cx="10.779" cy="6.023" r="1.708" style="fill:#b49f97;"/><circle cx="9.51" cy="13.261" r="1.708" style="fill:#b49f97;"/><circle cx="8.419" cy="20.491" r="1.708" style="fill:#b49f97;"/><circle cx="8.419" cy="27.815" r="1.708" style="fill:#b49f97;"/><circle cx="8.419" cy="42.89" r="1.708" style="fill:#b49f97;"/><circle cx="9.51" cy="49.66" r="1.708" style="fill:#b49f97;"/><circle cx="10.625" cy="56.479" r="1.708" style="fill:#b49f97;"/><circle cx="8.419" cy="35.191" r="1.708" style="fill:#b49f97;"/></g><g><g opacity="0.3"><circle cx="10.779" cy="6.023" r="1.708" style="fill:#090705;"/><circle cx="9.51" cy="13.261" r="1.708" style="fill:#090705;"/><circle cx="8.419" cy="20.491" r="1.708" style="fill:#090705;"/><circle cx="8.419" cy="27.815" r="1.708" style="fill:#090705;"/><circle cx="8.419" cy="42.89" r="1.708" style="fill:#090705;"/><circle cx="9.51" cy="49.66" r="1.708" style="fill:#090705;"/><circle cx="10.625" cy="56.479" r="1.708" style="fill:#090705;"/><circle cx="8.419" cy="35.191" r="1.708" style="fill:#090705;"/></g></g></g></svg>