<?xml version="1.0" encoding="UTF-8" standalone="no"?><!DOCTYPE svg PUBLIC "-//W3C//DTD SVG 1.1//EN" "http://www.w3.org/Graphics/SVG/1.1/DTD/svg11.dtd"><svg width="100%" height="100%" viewBox="0 0 60 63" version="1.1" xmlns="http://www.w3.org/2000/svg" xmlns:xlink="http://www.w3.org/1999/xlink" xml:space="preserve" xmlns:serif="http://www.serif.com/" style="fill-rule:evenodd;clip-rule:evenodd;stroke-linecap:round;stroke-linejoin:round;stroke-miterlimit:1.5;"><g id="cactus02"><path d="M57.055,47.09l-1.325,-9.571l-4.397,-10.359l-5.3,-8.083l-6.402,-6.138l-6.924,-1.944l-7.805,1.569l-5.205,5.114l-6.4,9.336l-4.076,10.469l0.367,10.55l5.707,10.377l12.161,4.471l11.195,0l12.614,-5.052l5.79,-10.739Z" style="fill:#82b36a;"/><clipPath id="_clip1"><path d="M57.055,47.09l-1.325,-9.571l-4.397,-10.359l-5.3,-8.083l-6.402,-6.138l-6.924,-1.944l-7.805,1.569l-5.205,5.114l-6.4,9.336l-4.076,10.469l0.367,10.55l5.707,10.377l12.161,4.471l11.195,0l12.614,-5.052l5.79,-10.739Z"/></clipPath><g clip-path="url(#_clip1)"><path d="M34.264,-5.609l-1.21,8.831l-0.891,62.903l23.567,7.136l13.009,-14.962c3.85,-41.307 -8.934,-79.846 -34.475,-63.908Z" style="fill:#a1d277;stroke:#000;stroke-width:1px;"/><path d="M45.028,9.845c9.707,6.793 14.58,16.605 10.876,21.898c-3.704,5.293 -14.592,4.075 -24.299,-2.718c-9.706,-6.793 -14.58,-16.605 -10.876,-21.898c3.705,-5.293 14.593,-4.075 24.299,2.718Z" style="fill:#83c759;fill-opacity:0.5;"/><path d="M22.497,25.479l2.764,-17.482l7.793,-3.891l2.799,1.399l6.178,21.919l2.966,11.853l0,14.524l-1.778,10.913l-19.688,0.433l-1.881,-11.606l-0.165,-14.78l1.012,-13.282Z" style="fill:#33643d;"/><clipPath id="_clip2"><path d="M22.497,25.479l2.764,-17.482l7.793,-3.891l2.799,1.399l6.178,21.919l2.966,11.853l0,14.524l-1.778,10.913l-19.688,0.433l-1.881,-11.606l-0.165,-14.78l1.012,-13.282Z"/></clipPath><g clip-path="url(#_clip2)"><path d="M45.028,9.845c9.707,6.793 14.58,16.605 10.876,21.898c-3.704,5.293 -14.592,4.075 -24.299,-2.718c-9.706,-6.793 -14.58,-16.605 -10.876,-21.898c3.705,-5.293 14.593,-4.075 24.299,2.718Z" style="fill:#83c759;fill-opacity:0.5;"/></g></g><g><path d="M39.092,18.362c-0.942,0.028 -1.729,-0.715 -1.757,-1.658c-0.027,-0.942 0.716,-1.729 1.658,-1.756c0.943,-0.027 1.73,0.716 1.757,1.658c0.027,0.942 -0.716,1.729 -1.658,1.756Z" style="fill:#b49f97;"/><path d="M41.39,24.558c-0.942,0.028 -1.729,-0.715 -1.756,-1.658c-0.027,-0.942 0.716,-1.729 1.658,-1.756c0.942,-0.027 1.729,0.716 1.756,1.658c0.028,0.942 -0.715,1.729 -1.658,1.756Z" style="fill:#b49f97;"/><path d="M43.601,31.879c-0.942,0.027 -1.729,-0.715 -1.756,-1.658c-0.027,-0.942 0.716,-1.729 1.658,-1.756c0.942,-0.027 1.729,0.716 1.756,1.658c0.027,0.942 -0.716,1.729 -1.658,1.756Z" style="fill:#b49f97;"/><path d="M45.035,45.948c-0.942,0.027 -1.729,-0.716 -1.756,-1.658c-0.027,-0.942 0.715,-1.729 1.658,-1.757c0.942,-0.027 1.729,0.716 1.756,1.658c0.027,0.943 -0.716,1.73 -1.658,1.757Z" style="fill:#b49f97;"/><path d="M45.139,53.747c-0.942,0.027 -1.729,-0.716 -1.756,-1.658c-0.027,-0.942 0.716,-1.729 1.658,-1.757c0.942,-0.027 1.729,0.716 1.756,1.658c0.028,0.943 -0.715,1.73 -1.658,1.757Z" style="fill:#b49f97;"/><path d="M44.221,60.594c-0.943,0.027 -1.73,-0.715 -1.757,-1.658c-0.027,-0.942 0.716,-1.729 1.658,-1.756c0.943,-0.027 1.73,0.716 1.757,1.658c0.027,0.942 -0.716,1.729 -1.658,1.756Z" style="fill:#b49f97;"/><path d="M44.813,39.252c-0.942,0.027 -1.729,-0.716 -1.756,-1.658c-0.027,-0.942 0.716,-1.729 1.658,-1.756c0.942,-0.027 1.729,0.716 1.756,1.658c0.028,0.942 -0.715,1.729 -1.658,1.756Z" style="fill:#b49f97;"/></g><g><g><path d="M23.65,18.39c0.941,0.053 1.748,-0.667 1.802,-1.608c0.054,-0.941 -0.667,-1.749 -1.608,-1.802c-0.941,-0.054 -1.749,0.666 -1.802,1.607c-0.054,0.942 0.667,1.749 1.608,1.803Z" style="fill:#b49f97;"/><path d="M22.149,24.546c0.941,0.054 1.749,-0.666 1.802,-1.608c0.054,-0.941 -0.667,-1.748 -1.608,-1.802c-0.941,-0.054 -1.748,0.667 -1.802,1.608c-0.054,0.941 0.667,1.749 1.608,1.802Z" style="fill:#b49f97;"/><path d="M21.732,31.858c0.941,0.054 1.749,-0.666 1.802,-1.607c0.054,-0.942 -0.666,-1.749 -1.608,-1.803c-0.941,-0.053 -1.748,0.667 -1.802,1.608c-0.054,0.941 0.667,1.749 1.608,1.802Z" style="fill:#b49f97;"/><path d="M20.874,46.909c0.941,0.053 1.749,-0.667 1.802,-1.608c0.054,-0.941 -0.666,-1.749 -1.608,-1.803c-0.941,-0.053 -1.748,0.667 -1.802,1.608c-0.054,0.941 0.667,1.749 1.608,1.803Z" style="fill:#b49f97;"/><path d="M21.578,53.73c0.941,0.054 1.748,-0.667 1.802,-1.608c0.054,-0.941 -0.667,-1.748 -1.608,-1.802c-0.941,-0.054 -1.748,0.667 -1.802,1.608c-0.054,0.941 0.667,1.749 1.608,1.802Z" style="fill:#b49f97;"/><path d="M22.303,60.601c0.941,0.054 1.749,-0.667 1.803,-1.608c0.053,-0.941 -0.667,-1.749 -1.608,-1.802c-0.941,-0.054 -1.749,0.667 -1.803,1.608c-0.053,0.941 0.667,1.748 1.608,1.802Z" style="fill:#b49f97;"/><path d="M21.312,39.222c0.941,0.054 1.749,-0.666 1.803,-1.607c0.053,-0.942 -0.667,-1.749 -1.608,-1.803c-0.941,-0.053 -1.749,0.667 -1.803,1.608c-0.053,0.941 0.667,1.749 1.608,1.802Z" style="fill:#b49f97;"/></g><g><g opacity="0.3"><path d="M24.361,15.091c-0.879,-0.339 -1.868,0.1 -2.208,0.979c-0.339,0.879 0.1,1.869 0.979,2.208c0.88,0.339 1.869,-0.099 2.208,-0.979c0.339,-0.879 -0.099,-1.869 -0.979,-2.208Z" style="fill:#090705;"/><path d="M22.149,24.546c0.941,0.054 1.749,-0.666 1.802,-1.608c0.054,-0.941 -0.667,-1.748 -1.608,-1.802c-0.941,-0.054 -1.748,0.667 -1.802,1.608c-0.054,0.941 0.667,1.749 1.608,1.802Z" style="fill:#090705;"/><path d="M21.732,31.858c0.941,0.054 1.749,-0.666 1.802,-1.607c0.054,-0.942 -0.666,-1.749 -1.608,-1.803c-0.941,-0.053 -1.748,0.667 -1.802,1.608c-0.054,0.941 0.667,1.749 1.608,1.802Z" style="fill:#090705;"/><path d="M20.874,46.909c0.941,0.053 1.749,-0.667 1.802,-1.608c0.054,-0.941 -0.666,-1.749 -1.608,-1.803c-0.941,-0.053 -1.748,0.667 -1.802,1.608c-0.054,0.941 0.667,1.749 1.608,1.803Z" style="fill:#090705;"/><path d="M21.578,53.73c0.941,0.054 1.748,-0.667 1.802,-1.608c0.054,-0.941 -0.667,-1.748 -1.608,-1.802c-0.941,-0.054 -1.748,0.667 -1.802,1.608c-0.054,0.941 0.667,1.749 1.608,1.802Z" style="fill:#090705;"/><path d="M22.303,60.601c0.941,0.054 1.749,-0.667 1.803,-1.608c0.053,-0.941 -0.667,-1.749 -1.608,-1.802c-0.941,-0.054 -1.749,0.667 -1.803,1.608c-0.053,0.941 0.667,1.748 1.608,1.802Z" style="fill:#090705;"/><path d="M21.312,39.222c0.941,0.054 1.749,-0.666 1.803,-1.607c0.053,-0.942 -0.667,-1.749 -1.608,-1.803c-0.941,-0.053 -1.749,0.667 -1.803,1.608c-0.053,0.941 0.667,1.749 1.608,1.802Z" style="fill:#090705;"/></g></g></g><g><circle cx="31.034" cy="9.308" r="3.548" style="fill:#dea052;"/></g><g><circle cx="49.87" cy="28.797" r="3.548" style="fill:#dea052;"/></g><g><circle cx="12.485" cy="32.459" r="3.548" style="fill:#dea052;"/></g><g><circle cx="32.016" cy="37.467" r="3.548" style="fill:#dea052;"/></g><g><path d="M30.363,9.56l-3.873,-3.684l-0.315,-5.184l5.543,0.558l-1.355,8.31" style="fill:#e04f65;"/><path d="M30.363,9.56l-7.492,-3.193l-0.221,-3.636l7.622,5.335" style="fill:#ff889e;"/><path d="M30.363,9.56l6.829,-7.713l-3.746,-1.596l-3.525,2.038l0.442,7.271Z" style="fill:#ff889e;"/><path d="M30.363,9.56l3.304,-5.674l6.098,0.237l-0.81,2.017l-8.592,3.42" style="fill:#ff889e;"/><path d="M30.363,9.56l7.271,-0.441l3.525,-2.039l-3.746,-1.597l-7.05,4.077" style="fill:#ff889e;"/><path d="M30.363,9.56l-3.28,-1.398l0.877,-3.167l4.321,-0.307l2.364,3.156l-4.282,1.716Z" style="fill:#e04f65;"/><path d="M22.871,6.367l1.412,2.17l6.08,1.023l-7.492,-3.193Z" style="fill:#e04f65;"/></g><g><path d="M30.364,36.79l-4.811,-4.155l-0.134,-5.663l7.135,0.806l-2.19,9.012" style="fill:#e04f65;"/><path d="M30.364,36.79l-9.514,-3.75l-0.094,-3.971l9.569,6.089" style="fill:#ff889e;"/><path d="M30.364,36.79l9.233,-8.165l-4.757,-1.875l-4.664,2.097l0.188,7.943Z" style="fill:#ff889e;"/><path d="M30.364,36.79l4.569,-6.068l7.869,0.476l-1.154,2.17l-11.284,3.422" style="fill:#ff889e;"/><path d="M30.364,36.79l9.42,-0.222l4.663,-2.096l-4.757,-1.875l-9.326,4.193" style="fill:#ff889e;"/><path d="M30.364,36.79l-4.166,-1.642l1.301,-3.422l5.601,-0.18l2.888,3.526l-5.624,1.718Z" style="fill:#e04f65;"/><path d="M20.85,33.04l1.71,2.417l7.804,1.333l-9.514,-3.75Z" style="fill:#e04f65;"/></g><g><path d="M11.124,32.404l-5.325,0.462l-4.093,-3.198l4.09,-3.784l5.328,6.52" style="fill:#e04f65;"/><path d="M11.124,32.404l-7.355,3.498l-2.87,-2.243l9.045,-2.176" style="fill:#ff889e;"/><path d="M11.124,32.404l-1.255,-10.225l-3.678,1.749l-0.807,3.991l5.74,4.485Z" style="fill:#ff889e;"/><path d="M11.124,32.404l-2.063,-6.233l4.217,-4.412l0.974,1.943l-3.128,8.702" style="fill:#ff889e;"/><path d="M11.124,32.404l4.485,-5.74l0.807,-3.991l-3.677,1.749l-1.615,7.982" style="fill:#ff889e;"/><path d="M11.124,32.404l-3.22,1.532l-1.792,-2.756l2.632,-3.44l3.93,0.32l-1.55,4.344Z" style="fill:#e04f65;"/><path d="M3.769,35.902l2.561,0.379l4.794,-3.877l-7.355,3.498Z" style="fill:#e04f65;"/></g><g><path d="M49.247,28.355l0.599,-5.311l3.942,-3.381l2.903,4.756l-7.444,3.936" style="fill:#e04f65;"/><path d="M49.247,28.355l-1.977,-7.901l2.765,-2.37l0.348,9.297" style="fill:#ff889e;"/><path d="M49.247,28.355l10.272,0.788l-0.989,-3.95l-3.753,-1.58l-5.53,4.742Z" style="fill:#ff889e;"/><path d="M49.247,28.355l6.518,-0.791l3.493,5.004l-2.098,0.572l-7.913,-4.785" style="fill:#ff889e;"/><path d="M49.247,28.355l4.742,5.53l3.753,1.579l-0.988,-3.95l-7.507,-3.159" style="fill:#ff889e;"/><path d="M49.247,28.355l-0.866,-3.459l3.055,-1.213l2.853,3.26l-1.089,3.79l-3.953,-2.378Z" style="fill:#e04f65;"/><path d="M47.27,20.454l-0.878,2.437l2.855,5.464l-1.977,-7.901Z" style="fill:#e04f65;"/></g></g></svg>