<?xml version="1.0" encoding="UTF-8" standalone="no"?><!DOCTYPE svg PUBLIC "-//W3C//DTD SVG 1.1//EN" "http://www.w3.org/Graphics/SVG/1.1/DTD/svg11.dtd"><svg width="100%" height="100%" viewBox="0 0 19 35" version="1.1" xmlns="http://www.w3.org/2000/svg" xmlns:xlink="http://www.w3.org/1999/xlink" xml:space="preserve" xmlns:serif="http://www.serif.com/" style="fill-rule:evenodd;clip-rule:evenodd;stroke-linejoin:round;stroke-miterlimit:1.41421;"><g id="flower08"><g><g><path d="M8.917,34.22l2.684,-1.341l-3.163,-11.538l2.336,-12.912l-1.857,1.642l-3.531,11.337l3.531,12.812Z" style="fill:#82b36a;"/><path d="M7.867,8.69l-3.605,12.535l1.972,11.654l2.683,1.341l-2.683,-12.736l2.683,-11.413l-1.05,-1.381Z" style="fill:#33643d;"/></g><path d="M8.129,22.474l2.154,-0.923l1.318,-3.995l2.64,-1.321l-2.64,-1.7l5.939,0.051l-0.573,4.934l-0.775,2.954l-4.591,-0.123l-3.017,2.08l-0.455,-1.957Z" style="fill:#33643d;"/><clipPath id="_clip1"><path d="M8.129,22.474l2.154,-0.923l1.318,-3.995l2.64,-1.321l-2.64,-1.7l5.939,0.051l-0.573,4.934l-0.775,2.954l-4.591,-0.123l-3.017,2.08l-0.455,-1.957Z"/></clipPath><g clip-path="url(#_clip1)"><path d="M19.165,13.774l-5.49,2.745l-2.074,-0.076l2.703,-0.239l-3.213,1.607l0.873,3.345l3.911,0.787l7.545,1.522l-5.113,-7.23l-6.454,4.498l6.454,-4.498l0.858,-2.461" style="fill:#82b36a;"/></g></g><g><path d="M7.499,10.259l-2.885,-4.5l0.927,-5.11l5.252,1.86l-3.294,7.75" style="fill:#e04f65;"/><path d="M7.499,10.259l-6.517,-4.885l0.65,-3.583l6.134,6.995" style="fill:#ff889e;"/><path d="M7.499,10.259l8.468,-5.867l-3.259,-2.442l-3.908,1.141l-1.301,7.168Z" style="fill:#ff889e;"/><path d="M7.499,10.259l4.559,-4.725l5.866,1.68l-1.266,1.767l-9.159,1.278" style="fill:#ff889e;"/><path d="M7.499,10.259l7.167,1.301l3.909,-1.142l-3.258,-2.442l-7.818,2.283" style="fill:#ff889e;"/><path d="M7.499,10.259l-2.854,-2.139l1.606,-2.867l4.27,0.73l1.545,3.628l-4.567,0.648Z" style="fill:#e04f65;"/><path d="M0.982,5.374l0.855,2.444l5.662,2.441l-6.517,-4.885Z" style="fill:#e04f65;"/></g></g></svg>