<?xml version="1.0" encoding="UTF-8" standalone="no"?><!DOCTYPE svg PUBLIC "-//W3C//DTD SVG 1.1//EN" "http://www.w3.org/Graphics/SVG/1.1/DTD/svg11.dtd"><svg width="100%" height="100%" viewBox="0 0 28 38" version="1.1" xmlns="http://www.w3.org/2000/svg" xmlns:xlink="http://www.w3.org/1999/xlink" xml:space="preserve" xmlns:serif="http://www.serif.com/" style="fill-rule:evenodd;clip-rule:evenodd;stroke-linejoin:round;stroke-miterlimit:1.41421;"><g id="mushroom02"><path d="M27.208,17.811l-5.963,5.963l-8.944,1.49l-8.944,-1.49l-2.982,-4.472l0,-5.963l14.907,-1.491l11.926,5.963Z" style="fill:#bf7b57;"/><path d="M10.157,17.037l-0.531,19.105l2.634,1.637l0.274,-19.081l-2.377,-1.661Z" style="fill:#684e42;"/><path d="M15.282,18.106l-0.895,17.189l-1.883,2.443l-0.209,-20.819l2.987,1.187Z" style="fill:#a97252;"/><path d="M14.379,0.312l10.315,15.071l2.514,2.428l-4.49,4.63l-1.542,1.356l-6.797,-23.485Z" style="fill:#dea052;"/><path d="M21.078,23.717l-8.366,1.563l-6.67,-1.15l8.242,-23.818l6.794,23.405Z" style="fill:#d57344;"/><path d="M0.375,13.339l0,5.963l2.944,4.454l3.175,0.54l7.695,-23.984l-10.832,11.536l-2.982,1.491Z" style="fill:#b15553;"/></g></svg>