<?xml version="1.0" encoding="UTF-8" standalone="no"?><!DOCTYPE svg PUBLIC "-//W3C//DTD SVG 1.1//EN" "http://www.w3.org/Graphics/SVG/1.1/DTD/svg11.dtd"><svg width="100%" height="100%" viewBox="0 0 28 32" version="1.1" xmlns="http://www.w3.org/2000/svg" xmlns:xlink="http://www.w3.org/1999/xlink" xml:space="preserve" xmlns:serif="http://www.serif.com/" style="fill-rule:evenodd;clip-rule:evenodd;stroke-linejoin:round;stroke-miterlimit:1.41421;"><g id="mushroom05"><path d="M27.383,9.445l-5.963,5.962l-8.944,1.491l-8.944,-1.491l-2.982,-4.472l0,-5.963l14.908,-1.49l11.925,5.963Z" style="fill:#bf7b57;"/><path d="M9.495,12.426l-2.982,16.398l5.963,2.981l0,-18.846l-2.981,-0.533Z" style="fill:#684e42;"/><path d="M15.458,12.426l0.727,14.543l-3.709,4.836l0,-19.737l2.982,0.358Z" style="fill:#a97252;"/><path d="M15.458,0.5l8.944,4.472l2.981,4.473l-5.963,5.962l-5.962,-14.907Z" style="fill:#dea052;"/><path d="M21.42,15.407l-8.944,-1.49l-5.963,0l8.945,-13.417l5.962,14.907Z" style="fill:#d57344;"/><path d="M0.55,4.972l0,5.963l5.963,2.982l8.945,-13.417l-11.926,2.982l-2.982,1.49Z" style="fill:#b15553;"/></g></svg>