<?xml version="1.0" encoding="UTF-8" standalone="no"?><!DOCTYPE svg PUBLIC "-//W3C//DTD SVG 1.1//EN" "http://www.w3.org/Graphics/SVG/1.1/DTD/svg11.dtd"><svg width="100%" height="100%" viewBox="0 0 28 29" version="1.1" xmlns="http://www.w3.org/2000/svg" xmlns:xlink="http://www.w3.org/1999/xlink" xml:space="preserve" xmlns:serif="http://www.serif.com/" style="fill-rule:evenodd;clip-rule:evenodd;stroke-linejoin:round;stroke-miterlimit:1.41421;"><g id="mushroom03"><path d="M27.184,9.445l-5.963,5.962l-8.944,1.491l-8.945,-1.491l-2.981,-4.472l0,-5.963l14.907,-1.49l11.926,5.963Z" style="fill:#bf7b57;"/><path d="M9.295,12.426l0.469,15.314l2.437,1.138l0.076,-15.919l-2.982,-0.533Z" style="fill:#684e42;"/><path d="M15.258,12.426l0.727,14.543l-3.518,1.795l-0.19,-16.696l2.981,0.358Z" style="fill:#a97252;"/><path d="M15.258,0.5l8.944,4.472l2.982,4.473l-6.362,7.502l-5.286,-0.208l-0.035,-2.008l-0.243,-14.231Z" style="fill:#dea052;"/><path d="M20.822,16.89l-9.002,-0.578l-8.129,-0.684l11.567,-15.128l5.564,16.39Z" style="fill:#d57344;"/><path d="M0.351,4.972l0,5.963l3.1,4.648l11.807,-15.083l-11.926,2.982l-2.981,1.49Z" style="fill:#b15553;"/></g></svg>