<?xml version="1.0" encoding="UTF-8" standalone="no"?><!DOCTYPE svg PUBLIC "-//W3C//DTD SVG 1.1//EN" "http://www.w3.org/Graphics/SVG/1.1/DTD/svg11.dtd"><svg width="100%" height="100%" viewBox="0 0 86 84" version="1.1" xmlns="http://www.w3.org/2000/svg" xmlns:xlink="http://www.w3.org/1999/xlink" xml:space="preserve" xmlns:serif="http://www.serif.com/" style="fill-rule:evenodd;clip-rule:evenodd;stroke-linejoin:round;stroke-miterlimit:1.41421;"><g id="rock12"><path d="M59.078,21.466l16.1,8.05l-10.733,26.833l-21.467,-10.733l16.1,-24.15Z" style="fill:#7e685f;"/><path d="M75.178,29.516l10.733,26.833l0,10.733l-21.466,-10.733l10.733,-26.833Z" style="fill:#b49f97;"/><path d="M64.445,56.349l21.466,10.733l0,10.733l-32.2,5.367l10.734,-26.833" style="fill:#7e685f;"/><path d="M64.445,56.349l-10.734,26.833l-32.199,0l-10.733,-10.733l32.199,-26.833l21.467,10.733Z" style="fill:#70574e;"/><path d="M53.711,8.05l-5.366,-8.05l-5.367,45.616l16.1,-24.15l-5.367,-13.416Z" style="fill:#b49f97;"/><path d="M48.345,0l-26.833,2.683l-10.733,5.367l32.199,37.566l5.367,-45.616Z" style="fill:#7e685f;"/><path d="M10.779,8.05l-10.733,48.299l10.733,16.1l32.199,-26.833l-32.199,-37.566" style="fill:#54433d;"/></g></svg>