<?xml version="1.0" encoding="UTF-8" standalone="no"?><!DOCTYPE svg PUBLIC "-//W3C//DTD SVG 1.1//EN" "http://www.w3.org/Graphics/SVG/1.1/DTD/svg11.dtd"><svg width="100%" height="100%" viewBox="0 0 67 44" version="1.1" xmlns="http://www.w3.org/2000/svg" xmlns:xlink="http://www.w3.org/1999/xlink" xml:space="preserve" xmlns:serif="http://www.serif.com/" style="fill-rule:evenodd;clip-rule:evenodd;stroke-linejoin:round;stroke-miterlimit:1.41421;"><g id="rock-runes-highlights01"><g id="rock-highlights01"><g><g><path d="M39.211,5.932l20.571,4.919l-10.733,10.733l-32.2,5.367l-10.733,-26.833l33.095,5.814Z" style="fill:#b49f97;"/><path d="M59.782,10.851l6.372,8.553l-1.005,15.597l-16.1,-13.417l10.733,-10.733Z" style="fill:#b49f97;"/><path d="M49.049,21.584l16.1,13.417l-59.033,8.05l10.733,-16.1l32.2,-5.367" style="fill:#7e685f;"/><clipPath id="_clip1"><path d="M49.049,21.584l16.1,13.417l-59.033,8.05l10.733,-16.1l32.2,-5.367"/></clipPath><g clip-path="url(#_clip1)"><path d="M65.149,35.001l-16.1,-11.22l-30.458,4.761l-12.475,14.509l9.077,-16.928l-9.077,-26.005l53.666,16.1l5.367,18.783" style="fill:#b49f97;"/></g><path d="M6.116,0.118l-5.366,8.05l5.366,34.883l10.733,-16.1l-10.733,-26.833" style="fill:#54433d;"/><clipPath id="_clip2"><path d="M6.116,0.118l-5.366,8.05l5.366,34.883l10.733,-16.1l-10.733,-26.833"/></clipPath><g clip-path="url(#_clip2)"><path d="M65.149,35.001l-16.1,-11.22l-30.458,4.761l-12.475,14.509l9.077,-16.928l-9.077,-26.005l53.666,16.1l5.367,18.783" style="fill:#b49f97;"/></g></g></g></g><path d="M65.149,29.306l-2.193,-9.637l-7.533,-0.593l-0.108,-3.357l-36.549,-7.351l-0.613,14.702l9.43,0l-6.822,-3.769l2.549,-6.642l29.044,5.919l0.919,3.164l6.509,-0.486l-2.765,6.749l-14.684,1.976l-12.59,3.088l-12.894,-5.609l-6.805,2.566l-1.686,-20.624l-6.131,0.396l2.139,5.216l-1.82,4.457l0.509,3.316l3.061,-4.822l0,-5.105l1.215,0.919l1.417,19.526l5.821,-2.456l9.199,6.82l14.548,-3.88l19.663,-0.898l1.803,-0.902l0,-1.671l5.367,-1.012" style="fill:#402d1d;fill-opacity:0.5;"/><path d="M65.149,29.306l-2.193,-9.637l-7.533,-0.593l-0.108,-3.357l-36.549,-7.351l-0.613,14.702l9.43,0l-6.822,-3.769l2.549,-6.642l29.044,5.919l0.919,3.164l6.509,-0.486l-2.765,6.749l-14.684,1.976l-12.59,3.088l-12.894,-5.609l-6.805,2.566l-1.686,-20.624l-6.131,0.396l2.139,5.216l-1.82,4.457l0.509,3.316l3.061,-4.822l0,-5.105l1.215,0.919l1.417,19.526l5.821,-2.456l9.199,6.82l14.548,-3.88l19.663,-0.898l1.803,-0.902l0,-1.671l5.367,-1.012" style="fill:#402d1d;fill-opacity:0.5;"/></g></svg>