<?xml version="1.0" encoding="UTF-8" standalone="no"?><!DOCTYPE svg PUBLIC "-//W3C//DTD SVG 1.1//EN" "http://www.w3.org/Graphics/SVG/1.1/DTD/svg11.dtd"><svg width="100%" height="100%" viewBox="0 0 68 56" version="1.1" xmlns="http://www.w3.org/2000/svg" xmlns:xlink="http://www.w3.org/1999/xlink" xml:space="preserve" xmlns:serif="http://www.serif.com/" style="fill-rule:evenodd;clip-rule:evenodd;stroke-linejoin:round;stroke-miterlimit:1.41421;"><g id="rock-highlights09"><g><g><g><path d="M24.473,0.484l14.694,4.408l-5.878,14.695l-17.633,2.938l-5.877,-14.694l14.694,-7.347Z" style="fill:#7e685f;"/><clipPath id="_clip1"><path d="M24.473,0.484l14.694,4.408l-5.878,14.695l-17.633,2.938l-5.877,-14.694l14.694,-7.347Z"/></clipPath><g clip-path="url(#_clip1)"><path d="M57.249,42.281l-9.301,-32.068l-3.355,0.63l-0.506,24.604l-3.291,-7.746l0.051,-17.111l-5.13,-1.992l-3.003,13.13l16.1,25.618l-12.119,-13.722l-2.835,1.519l-11.879,14.886l8.488,-15.595l-8.488,-11.238l1.704,-2.076l-6.277,1.215l-7.695,14.934l4.151,-14.731l-4.168,-14.665l5.99,14.563l15.896,-3.088l0.409,-1.88l2.679,-11.889l12.15,1.62l2.734,0.455l10.631,25.363l-0.638,8.201l-2.298,1.063Z" style="fill:#b49f97;"/></g><path d="M39.167,4.892l11.755,11.756l0,11.755l-17.633,-8.816l5.878,-14.695" style="fill:#b49f97;"/><clipPath id="_clip2"><path d="M39.167,4.892l11.755,11.756l0,11.755l-17.633,-8.816l5.878,-14.695"/></clipPath><g clip-path="url(#_clip2)"><path d="M57.249,42.281l-9.301,-32.068l-3.355,0.63l-0.506,24.604l-3.291,-7.746l0.051,-17.111l-5.13,-1.992l-3.003,13.13l16.1,25.618l-12.119,-13.722l-2.835,1.519l-11.879,14.886l8.488,-15.595l-8.488,-11.238l1.704,-2.076l-6.277,1.215l-7.695,14.934l4.151,-14.731l-4.168,-14.665l5.99,14.563l15.896,-3.088l0.409,-1.88l2.679,-11.889l12.15,1.62l2.734,0.455l10.631,25.363l-0.638,8.201l-2.298,1.063Z" style="fill:#b49f97;"/></g><path d="M33.289,19.587l17.633,8.816l-17.633,8.817l-23.51,0l5.877,-14.695l17.633,-2.938Z" style="fill:#70574e;"/><clipPath id="_clip3"><path d="M33.289,19.587l17.633,8.816l-17.633,8.817l-23.51,0l5.877,-14.695l17.633,-2.938Z"/></clipPath><g clip-path="url(#_clip3)"><path d="M57.249,42.281l-9.301,-32.068l-3.355,0.63l-0.506,24.604l-3.291,-7.746l0.051,-17.111l-5.13,-1.992l-3.003,13.13l16.1,25.618l-12.119,-13.722l-2.835,1.519l-11.879,14.886l8.488,-15.595l-8.488,-11.238l1.704,-2.076l-6.277,1.215l-7.695,14.934l4.151,-14.731l-4.168,-14.665l5.99,14.563l15.896,-3.088l0.409,-1.88l2.679,-11.889l12.15,1.62l2.734,0.455l10.631,25.363l-0.638,8.201l-2.298,1.063Z" style="fill:#b49f97;"/></g><path d="M9.779,7.831l5.877,14.694l-5.877,14.695l-8.817,-19.103l8.817,-10.286Z" style="fill:#54433d;"/><clipPath id="_clip4"><path d="M9.779,7.831l5.877,14.694l-5.877,14.695l-8.817,-19.103l8.817,-10.286Z"/></clipPath><g clip-path="url(#_clip4)"><path d="M57.249,42.281l-9.301,-32.068l-3.355,0.63l-0.506,24.604l-3.291,-7.746l0.051,-17.111l-5.13,-1.992l-3.003,13.13l16.1,25.618l-12.119,-13.722l-2.835,1.519l-11.879,14.886l8.488,-15.595l-8.488,-11.238l1.704,-2.076l-6.277,1.215l-7.695,14.934l4.151,-14.731l-4.168,-14.665l5.99,14.563l15.896,-3.088l0.409,-1.88l2.679,-11.889l12.15,1.62l2.734,0.455l10.631,25.363l-0.638,8.201l-2.298,1.063Z" style="fill:#b49f97;"/></g></g><g><path d="M50.922,8.525l16.1,21.092l-8.05,12.075l-10.665,-34.917l2.615,1.75Z" style="fill:#b49f97;"/><clipPath id="_clip5"><path d="M50.922,8.525l16.1,21.092l-8.05,12.075l-10.665,-34.917l2.615,1.75Z"/></clipPath><g clip-path="url(#_clip5)"><path d="M57.249,42.281l-9.301,-32.068l-3.355,0.63l-0.506,24.604l-3.291,-7.746l0.051,-17.111l-5.13,-1.992l-3.003,13.13l16.1,25.618l-12.119,-13.722l-2.835,1.519l-11.879,14.886l8.488,-15.595l-8.488,-11.238l1.704,-2.076l-6.277,1.215l-7.695,14.934l4.151,-14.731l-4.168,-14.665l5.99,14.563l15.896,-3.088l0.409,-1.88l2.679,-11.889l12.15,1.62l2.734,0.455l10.631,25.363l-0.638,8.201l-2.298,1.063Z" style="fill:#b49f97;"/></g><path d="M48.602,6.628l-5.729,2.864l0,36.225l16.099,-4.025l-10.37,-35.064Z" style="fill:#7e685f;"/><clipPath id="_clip6"><path d="M48.602,6.628l-5.729,2.864l0,36.225l16.099,-4.025l-10.37,-35.064Z"/></clipPath><g clip-path="url(#_clip6)"><path d="M57.249,42.281l-9.301,-32.068l-3.355,0.63l-0.506,24.604l-3.291,-7.746l0.051,-17.111l-5.13,-1.992l-3.003,13.13l16.1,25.618l-12.119,-13.722l-2.835,1.519l-11.879,14.886l8.488,-15.595l-8.488,-11.238l1.704,-2.076l-6.277,1.215l-7.695,14.934l4.151,-14.731l-4.168,-14.665l5.99,14.563l15.896,-3.088l0.409,-1.88l2.679,-11.889l12.15,1.62l2.734,0.455l10.631,25.363l-0.638,8.201l-2.298,1.063Z" style="fill:#b49f97;"/></g><path d="M50.922,8.528l-8.049,-7.085l-8.05,4.024l8.05,4.025l8.049,-0.964Z" style="fill:#b49f97;"/><clipPath id="_clip7"><path d="M50.922,8.528l-8.049,-7.085l-8.05,4.024l8.05,4.025l8.049,-0.964Z"/></clipPath><g clip-path="url(#_clip7)"><path d="M57.249,42.281l-9.301,-32.068l-3.355,0.63l-0.506,24.604l-3.291,-7.746l0.051,-17.111l-5.13,-1.992l-3.003,13.13l16.1,25.618l-12.119,-13.722l-2.835,1.519l-11.879,14.886l8.488,-15.595l-8.488,-11.238l1.704,-2.076l-6.277,1.215l-7.695,14.934l4.151,-14.731l-4.168,-14.665l5.99,14.563l15.896,-3.088l0.409,-1.88l2.679,-11.889l12.15,1.62l2.734,0.455l10.631,25.363l-0.638,8.201l-2.298,1.063Z" style="fill:#b49f97;"/></g><path d="M34.823,5.467l8.05,4.025l0,36.225l-16.1,-4.025l8.05,-36.225Z" style="fill:#70574e;"/><clipPath id="_clip8"><path d="M34.823,5.467l8.05,4.025l0,36.225l-16.1,-4.025l8.05,-36.225Z"/></clipPath><g clip-path="url(#_clip8)"><path d="M57.249,42.281l-9.301,-32.068l-3.355,0.63l-0.506,24.604l-3.291,-7.746l0.051,-17.111l-5.13,-1.992l-3.003,13.13l16.1,25.618l-12.119,-13.722l-2.835,1.519l-11.879,14.886l8.488,-15.595l-8.488,-11.238l1.704,-2.076l-6.277,1.215l-7.695,14.934l4.151,-14.731l-4.168,-14.665l5.99,14.563l15.896,-3.088l0.409,-1.88l2.679,-11.889l12.15,1.62l2.734,0.455l10.631,25.363l-0.638,8.201l-2.298,1.063Z" style="fill:#b49f97;"/></g></g><g><path d="M27.348,15.146l10.733,5.367l0,10.733l-5.367,2.683l-10.733,-10.733l5.367,-8.05Z" style="fill:#b49f97;"/><clipPath id="_clip9"><path d="M27.348,15.146l10.733,5.367l0,10.733l-5.367,2.683l-10.733,-10.733l5.367,-8.05Z"/></clipPath><g clip-path="url(#_clip9)"><path d="M57.249,42.281l-9.301,-32.068l-3.355,0.63l-0.506,24.604l-3.291,-7.746l0.051,-17.111l-5.13,-1.992l-3.003,13.13l16.1,25.618l-12.119,-13.722l-2.835,1.519l-11.879,14.886l8.488,-15.595l-8.488,-11.238l1.704,-2.076l-6.277,1.215l-7.695,14.934l4.151,-14.731l-4.168,-14.665l5.99,14.563l15.896,-3.088l0.409,-1.88l2.679,-11.889l12.15,1.62l2.734,0.455l10.631,25.363l-0.638,8.201l-2.298,1.063Z" style="fill:#b49f97;"/></g><path d="M38.081,31.246l10.733,16.1l-16.1,8.05l-10.733,-5.367l10.733,-16.1l5.367,-2.683Z" style="fill:#7e685f;"/><clipPath id="_clip10"><path d="M38.081,31.246l10.733,16.1l-16.1,8.05l-10.733,-5.367l10.733,-16.1l5.367,-2.683Z"/></clipPath><g clip-path="url(#_clip10)"><path d="M57.249,42.281l-9.301,-32.068l-3.355,0.63l-0.506,24.604l-3.291,-7.746l0.051,-17.111l-5.13,-1.992l-3.003,13.13l16.1,25.618l-12.119,-13.722l-2.835,1.519l-11.879,14.886l8.488,-15.595l-8.488,-11.238l1.704,-2.076l-6.277,1.215l-7.695,14.934l4.151,-14.731l-4.168,-14.665l5.99,14.563l15.896,-3.088l0.409,-1.88l2.679,-11.889l12.15,1.62l2.734,0.455l10.631,25.363l-0.638,8.201l-2.298,1.063Z" style="fill:#b49f97;"/></g><path d="M32.714,33.929l-10.733,16.1l-5.366,-8.05l5.366,-18.783l10.733,10.733Z" style="fill:#70574e;"/><clipPath id="_clip11"><path d="M32.714,33.929l-10.733,16.1l-5.366,-8.05l5.366,-18.783l10.733,10.733Z"/></clipPath><g clip-path="url(#_clip11)"><path d="M57.249,42.281l-9.301,-32.068l-3.355,0.63l-0.506,24.604l-3.291,-7.746l0.051,-17.111l-5.13,-1.992l-3.003,13.13l16.1,25.618l-12.119,-13.722l-2.835,1.519l-11.879,14.886l8.488,-15.595l-8.488,-11.238l1.704,-2.076l-6.277,1.215l-7.695,14.934l4.151,-14.731l-4.168,-14.665l5.99,14.563l15.896,-3.088l0.409,-1.88l2.679,-11.889l12.15,1.62l2.734,0.455l10.631,25.363l-0.638,8.201l-2.298,1.063Z" style="fill:#b49f97;"/></g><path d="M38.081,20.513l10.733,26.833l-10.733,-16.1l0,-10.733Z" style="fill:#b49f97;"/><clipPath id="_clip12"><path d="M38.081,20.513l10.733,26.833l-10.733,-16.1l0,-10.733Z"/></clipPath><g clip-path="url(#_clip12)"><path d="M57.249,42.281l-9.301,-32.068l-3.355,0.63l-0.506,24.604l-3.291,-7.746l0.051,-17.111l-5.13,-1.992l-3.003,13.13l16.1,25.618l-12.119,-13.722l-2.835,1.519l-11.879,14.886l8.488,-15.595l-8.488,-11.238l1.704,-2.076l-6.277,1.215l-7.695,14.934l4.151,-14.731l-4.168,-14.665l5.99,14.563l15.896,-3.088l0.409,-1.88l2.679,-11.889l12.15,1.62l2.734,0.455l10.631,25.363l-0.638,8.201l-2.298,1.063Z" style="fill:#b49f97;"/></g></g></g></g></g></svg>