<?xml version="1.0" encoding="UTF-8" standalone="no"?><!DOCTYPE svg PUBLIC "-//W3C//DTD SVG 1.1//EN" "http://www.w3.org/Graphics/SVG/1.1/DTD/svg11.dtd"><svg width="100%" height="100%" viewBox="0 0 96 72" version="1.1" xmlns="http://www.w3.org/2000/svg" xmlns:xlink="http://www.w3.org/1999/xlink" xml:space="preserve" xmlns:serif="http://www.serif.com/" style="fill-rule:evenodd;clip-rule:evenodd;stroke-linejoin:round;stroke-miterlimit:1.41421;"><g id="rock-mossy13"><g id="rock-highlights13"><g><g><path d="M44.943,0.413l26.833,8.05l-10.733,26.833l-32.2,5.367l-10.733,-26.833l26.833,-13.417Z" style="fill:#7e685f;"/><clipPath id="_clip1"><path d="M44.943,0.413l26.833,8.05l-10.733,26.833l-32.2,5.367l-10.733,-26.833l26.833,-13.417Z"/></clipPath><g clip-path="url(#_clip1)"><path d="M71.776,8.463l-8.787,25.86l30.253,15.978l-1.395,1.792l-30.804,-15.437l-30.653,6.23l-12.28,24.609l8.721,-26.785l-8.721,-26.88l12.083,24.804l29.959,-4.944l11.624,-25.227Z" style="fill:#b49f97;"/></g><path d="M71.776,8.463l21.466,21.466l0,21.467l-32.199,-16.1l10.733,-26.833" style="fill:#b49f97;"/><clipPath id="_clip2"><path d="M71.776,8.463l21.466,21.466l0,21.467l-32.199,-16.1l10.733,-26.833"/></clipPath><g clip-path="url(#_clip2)"><path d="M71.776,8.463l-8.787,25.86l30.253,15.978l-1.395,1.792l-30.804,-15.437l-30.653,6.23l-12.28,24.609l8.721,-26.785l-8.721,-26.88l12.083,24.804l29.959,-4.944l11.624,-25.227Z" style="fill:#b49f97;"/></g><path d="M61.043,35.296l32.199,16.1l-32.199,16.099l-42.933,0l10.733,-26.832l32.2,-5.367Z" style="fill:#70574e;"/><clipPath id="_clip3"><path d="M61.043,35.296l32.199,16.1l-32.199,16.099l-42.933,0l10.733,-26.832l32.2,-5.367Z"/></clipPath><g clip-path="url(#_clip3)"><path d="M71.776,8.463l-8.787,25.86l30.253,15.978l-1.395,1.792l-30.804,-15.437l-30.653,6.23l-12.28,24.609l8.721,-26.785l-8.721,-26.88l12.083,24.804l29.959,-4.944l11.624,-25.227Z" style="fill:#b49f97;"/></g><path d="M18.11,13.83l10.733,26.833l-10.733,26.832l-16.1,-34.882l16.1,-18.783Z" style="fill:#54433d;"/><clipPath id="_clip4"><path d="M18.11,13.83l10.733,26.833l-10.733,26.832l-16.1,-34.882l16.1,-18.783Z"/></clipPath><g clip-path="url(#_clip4)"><path d="M71.776,8.463l-8.787,25.86l30.253,15.978l-1.395,1.792l-30.804,-15.437l-30.653,6.23l-12.28,24.609l8.721,-26.785l-8.721,-26.88l12.083,24.804l29.959,-4.944l11.624,-25.227Z" style="fill:#b49f97;"/></g></g></g></g><path d="M94.556,33.029l-1.314,-5.576l-2.414,2.16l-1.6,3.214l0.401,12.287l-0.094,3.659l-9.785,-0.473c0,0 2.394,2.558 1.143,4.795c-1.251,2.236 -7.322,5.456 -7.322,5.456l-14.162,3.652l-10.381,1.457l-4.085,-3.324l-4.306,2.153c0,0 -0.505,2.057 -3.122,1.562c-2.617,-0.496 -1.763,1.456 -3.305,-0.914c-1.543,-2.37 0.311,-2.592 -2.288,-3.945c-2.6,-1.352 -7.182,-0.68 -8.445,1.144c-1.264,1.825 -1.047,0.028 -3.247,1.624c-2.199,1.595 -0.641,-5.046 -0.641,-5.046l-3.223,-5.5l0.157,-3.7l-5.461,-5.904c0,0 0.244,1.743 -1.063,-1.568c-1.307,-3.31 -0.129,-8.175 -0.129,-8.175l-1.209,-1.889l-3.14,-0.286l-1.226,-0.613l-0.234,-2.167l-3.345,1.672l-0.408,3.868l1.702,8.322l1.866,4.196l3.501,1.75l1.228,4.752l1.422,4.656l3.819,3.457l-1.102,4.328l2.081,3.903l5.193,1.324l8.825,1.185l16.1,-0.837l13.954,-0.229l8.959,2.334l3.92,-6.147l7.259,-4.363c0,0 -1.303,2.467 1.394,0.697c2.697,-1.77 4.468,0.265 5.883,-2.425c1.414,-2.69 5.481,-6.544 5.481,-6.544l4.207,-2.103l-2.758,-3.988l0,-5.366l1.314,-8.525Z" style="fill:#33643d;"/><clipPath id="_clip5"><path d="M94.556,33.029l-1.314,-5.576l-2.414,2.16l-1.6,3.214l0.401,12.287l-0.094,3.659l-9.785,-0.473c0,0 2.394,2.558 1.143,4.795c-1.251,2.236 -7.322,5.456 -7.322,5.456l-14.162,3.652l-10.381,1.457l-4.085,-3.324l-4.306,2.153c0,0 -0.505,2.057 -3.122,1.562c-2.617,-0.496 -1.763,1.456 -3.305,-0.914c-1.543,-2.37 0.311,-2.592 -2.288,-3.945c-2.6,-1.352 -7.182,-0.68 -8.445,1.144c-1.264,1.825 -1.047,0.028 -3.247,1.624c-2.199,1.595 -0.641,-5.046 -0.641,-5.046l-3.223,-5.5l0.157,-3.7l-5.461,-5.904c0,0 0.244,1.743 -1.063,-1.568c-1.307,-3.31 -0.129,-8.175 -0.129,-8.175l-1.209,-1.889l-3.14,-0.286l-1.226,-0.613l-0.234,-2.167l-3.345,1.672l-0.408,3.868l1.702,8.322l1.866,4.196l3.501,1.75l1.228,4.752l1.422,4.656l3.819,3.457l-1.102,4.328l2.081,3.903l5.193,1.324l8.825,1.185l16.1,-0.837l13.954,-0.229l8.959,2.334l3.92,-6.147l7.259,-4.363c0,0 -1.303,2.467 1.394,0.697c2.697,-1.77 4.468,0.265 5.883,-2.425c1.414,-2.69 5.481,-6.544 5.481,-6.544l4.207,-2.103l-2.758,-3.988l0,-5.366l1.314,-8.525Z"/></clipPath><g clip-path="url(#_clip5)"><path d="M102.959,35.793l-10.697,-10.829l-18.572,17.352l-5.367,4.758l26.374,15.218l5.826,1.3l2.436,-27.799" style="fill:#83c759;fill-opacity:0.5;"/><path d="M94.142,31.27l-0.9,0.909l-1.429,4.723l-1.225,14.058l-4.716,3.008l-7.75,4.796l-5.133,3.649l-7.28,3.64l-14.386,1.827l-7.279,-0.285l-10.824,-1.397l-7.199,0.777l-7.911,-1.521l-1.723,-3.296l0.366,-3.826l-4.857,-3.786l-0.681,-3.098l-0.134,-2.676l-3.704,-5.531l-1.179,-2.277l-1.228,-7.625l-2.96,-6.78l-6.942,-4.104l2.209,14.049l7.069,29.307l7.315,6.602l67.839,2.844l15.008,-16.971l5.649,-7.908l-6.015,-19.108Z" style="fill:#82b36a;"/><clipPath id="_clip6"><path d="M94.142,31.27l-0.9,0.909l-1.429,4.723l-1.225,14.058l-4.716,3.008l-7.75,4.796l-5.133,3.649l-7.28,3.64l-14.386,1.827l-7.279,-0.285l-10.824,-1.397l-7.199,0.777l-7.911,-1.521l-1.723,-3.296l0.366,-3.826l-4.857,-3.786l-0.681,-3.098l-0.134,-2.676l-3.704,-5.531l-1.179,-2.277l-1.228,-7.625l-2.96,-6.78l-6.942,-4.104l2.209,14.049l7.069,29.307l7.315,6.602l67.839,2.844l15.008,-16.971l5.649,-7.908l-6.015,-19.108Z"/></clipPath><g clip-path="url(#_clip6)"><path d="M102.959,35.793l-10.697,-10.829l-18.572,17.352l-5.367,4.758l26.374,15.218l5.826,1.3l2.436,-27.799" style="fill:#83c759;fill-opacity:0.5;"/></g><path d="M1.636,66.651l16.256,4.548l5.018,-27.6l1.614,-7.723l-9.626,-24.916l-28.987,27.013l15.725,28.678" style="fill:#191919;fill-opacity:0.5;"/></g></g></svg>