<?xml version="1.0" encoding="UTF-8" standalone="no"?><!DOCTYPE svg PUBLIC "-//W3C//DTD SVG 1.1//EN" "http://www.w3.org/Graphics/SVG/1.1/DTD/svg11.dtd"><svg width="100%" height="100%" viewBox="0 0 64 54" version="1.1" xmlns="http://www.w3.org/2000/svg" xmlns:xlink="http://www.w3.org/1999/xlink" xml:space="preserve" xmlns:serif="http://www.serif.com/" style="fill-rule:evenodd;clip-rule:evenodd;stroke-linejoin:round;stroke-miterlimit:1.41421;"><g id="rock-mossy06"><g id="rock-highlights06"><g><g><path d="M46.345,0.278l10.733,16.1l-21.466,21.466l10.733,-37.566Z" style="fill:#b49f97;"/><clipPath id="_clip1"><path d="M46.345,0.278l10.733,16.1l-21.466,21.466l10.733,-37.566Z"/></clipPath><g clip-path="url(#_clip1)"><path d="M57.078,37.844l-0.968,-17.613l-19.58,18.072l1.013,9.71l-4.978,0.244l1.078,-9.428l-19.498,-11.718l-10.733,16.1l9.12,-16.907l-3.753,-17.976l7.266,17.833l19.567,9.932l18.811,-19.237l2.655,-0.478l0,21.466Z" style="fill:#b49f97;"/></g><path d="M46.345,0.278l-37.566,8.05l5.366,18.783l21.467,10.733l10.733,-37.566" style="fill:#7e685f;"/><clipPath id="_clip2"><path d="M46.345,0.278l-37.566,8.05l5.366,18.783l21.467,10.733l10.733,-37.566"/></clipPath><g clip-path="url(#_clip2)"><path d="M57.078,37.844l-0.968,-17.613l-19.58,18.072l1.013,9.71l-4.978,0.244l1.078,-9.428l-19.498,-11.718l-10.733,16.1l9.12,-16.907l-3.753,-17.976l7.266,17.833l19.567,9.932l18.811,-19.237l2.655,-0.478l0,21.466Z" style="fill:#b49f97;"/></g><path d="M57.078,16.378l0,21.466l-21.466,10.733l0,-10.733l21.466,-21.466Z" style="fill:#7e685f;"/><clipPath id="_clip3"><path d="M57.078,16.378l0,21.466l-21.466,10.733l0,-10.733l21.466,-21.466Z"/></clipPath><g clip-path="url(#_clip3)"><path d="M57.078,37.844l-0.968,-17.613l-19.58,18.072l1.013,9.71l-4.978,0.244l1.078,-9.428l-19.498,-11.718l-10.733,16.1l9.12,-16.907l-3.753,-17.976l7.266,17.833l19.567,9.932l18.811,-19.237l2.655,-0.478l0,21.466Z" style="fill:#b49f97;"/></g><path d="M14.145,27.111l21.467,10.733l0,10.733l-32.2,-5.366l10.733,-16.1Z" style="fill:#70574e;"/><clipPath id="_clip4"><path d="M14.145,27.111l21.467,10.733l0,10.733l-32.2,-5.366l10.733,-16.1Z"/></clipPath><g clip-path="url(#_clip4)"><path d="M57.078,37.844l-0.968,-17.613l-19.58,18.072l1.013,9.71l-4.978,0.244l1.078,-9.428l-19.498,-11.718l-10.733,16.1l9.12,-16.907l-3.753,-17.976l7.266,17.833l19.567,9.932l18.811,-19.237l2.655,-0.478l0,21.466Z" style="fill:#b49f97;"/></g><path d="M8.779,8.328l-5.367,34.883l10.733,-16.1l-5.366,-18.783Z" style="fill:#54433d;"/><clipPath id="_clip5"><path d="M8.779,8.328l-5.367,34.883l10.733,-16.1l-5.366,-18.783Z"/></clipPath><g clip-path="url(#_clip5)"><path d="M57.078,37.844l-0.968,-17.613l-19.58,18.072l1.013,9.71l-4.978,0.244l1.078,-9.428l-19.498,-11.718l-10.733,16.1l9.12,-16.907l-3.753,-17.976l7.266,17.833l19.567,9.932l18.811,-19.237l2.655,-0.478l0,21.466Z" style="fill:#b49f97;"/></g></g></g></g><path d="M57.078,22.636l6.525,5.216c0,0 -3.17,1.146 -3.869,4.189c-0.699,3.043 -1.688,7.178 -1.688,7.178l-0.968,0.94c0,0 -0.073,0.507 -2.103,1.522c-2.03,1.015 1.212,-1.142 -3.264,1.904c-4.475,3.045 -5.366,3.298 -5.366,3.298l-2.707,1.232c0,0 -0.163,0.545 -2.66,1.813c-2.497,1.269 -6.961,3.6 -8.789,3.196c-1.828,-0.404 2.391,1.055 -3.905,0.008c-6.297,-1.047 -8.304,-2.741 -11.234,-2.211c-2.929,0.53 -2.905,0.403 -2.905,0.403l-2.03,-0.84c0,0 -2.208,0.332 -3.336,-0.809c-1.129,-1.142 -1.906,-1.937 -1.906,-1.937c0,0 -1.126,-0.093 -2.014,-0.347c-0.888,-0.254 -1.855,-2.253 -2.577,-3.854c-0.722,-1.602 -1.631,-3.421 -1.631,-3.421c0,0 0.608,-0.053 0.441,-5.587c-0.166,-5.535 0.607,-6.7 0.22,-7.577c-0.386,-0.876 1.568,-2.673 1.568,-2.673l3.64,-2.012l-0.597,3.247l-0.5,3.494l-0.776,4.978l1.317,-1.893l0.914,-0.457l1.901,-0.951l1.212,0.606l0.704,2.143l0.258,1.531l0.377,1.007l0.828,1.769c0,0 -4.247,-0.894 0,0c4.247,0.895 2.849,0.768 7.354,0.895c4.505,0.127 1.787,-0.056 5.367,0.099c3.579,0.155 3.474,-1.241 5.366,0.663c1.892,1.903 2.127,3.084 2.127,3.084l4.567,2.284c0,0 -0.181,-0.569 1.124,-1.89c1.306,-1.321 1.352,-1.702 2.915,-2.717c1.563,-1.015 2.893,-2.66 2.893,-2.66c0,0 1.081,0.122 3.618,-1.146c2.538,-1.269 2.101,0.507 4.222,-1.777c2.122,-2.283 2.645,-2.568 2.645,-2.568l2.722,-1.619l0,-7.753" style="fill:#33643d;"/><clipPath id="_clip6"><path d="M57.078,22.636l6.525,5.216c0,0 -3.17,1.146 -3.869,4.189c-0.699,3.043 -1.688,7.178 -1.688,7.178l-0.968,0.94c0,0 -0.073,0.507 -2.103,1.522c-2.03,1.015 1.212,-1.142 -3.264,1.904c-4.475,3.045 -5.366,3.298 -5.366,3.298l-2.707,1.232c0,0 -0.163,0.545 -2.66,1.813c-2.497,1.269 -6.961,3.6 -8.789,3.196c-1.828,-0.404 2.391,1.055 -3.905,0.008c-6.297,-1.047 -8.304,-2.741 -11.234,-2.211c-2.929,0.53 -2.905,0.403 -2.905,0.403l-2.03,-0.84c0,0 -2.208,0.332 -3.336,-0.809c-1.129,-1.142 -1.906,-1.937 -1.906,-1.937c0,0 -1.126,-0.093 -2.014,-0.347c-0.888,-0.254 -1.855,-2.253 -2.577,-3.854c-0.722,-1.602 -1.631,-3.421 -1.631,-3.421c0,0 0.608,-0.053 0.441,-5.587c-0.166,-5.535 0.607,-6.7 0.22,-7.577c-0.386,-0.876 1.568,-2.673 1.568,-2.673l3.64,-2.012l-0.597,3.247l-0.5,3.494l-0.776,4.978l1.317,-1.893l0.914,-0.457l1.901,-0.951l1.212,0.606l0.704,2.143l0.258,1.531l0.377,1.007l0.828,1.769c0,0 -4.247,-0.894 0,0c4.247,0.895 2.849,0.768 7.354,0.895c4.505,0.127 1.787,-0.056 5.367,0.099c3.579,0.155 3.474,-1.241 5.366,0.663c1.892,1.903 2.127,3.084 2.127,3.084l4.567,2.284c0,0 -0.181,-0.569 1.124,-1.89c1.306,-1.321 1.352,-1.702 2.915,-2.717c1.563,-1.015 2.893,-2.66 2.893,-2.66c0,0 1.081,0.122 3.618,-1.146c2.538,-1.269 2.101,0.507 4.222,-1.777c2.122,-2.283 2.645,-2.568 2.645,-2.568l2.722,-1.619l0,-7.753"/></clipPath><g clip-path="url(#_clip6)"><path d="M60.484,18.972l-24.872,17.846l0,25.253l39.401,-32.303l-14.529,-10.796" style="fill:#83c759;fill-opacity:0.5;"/><path d="M64.08,26.136l-2.872,-0.199l-1.863,3.199l-0.677,3.438c0,0 1.21,-0.826 -0.353,1.413c-1.564,2.239 -3.771,3.481 -3.771,3.481l-2.833,1.168c0,0 8.156,-4.313 0,0c-8.155,4.314 -8.21,4.044 -8.21,4.044c0,0 -1.168,0.778 -2.523,1.793c-1.355,1.015 0.294,1.015 -3.892,1.776c-4.187,0.761 -4.231,0.849 -5.795,1.059c-1.564,0.21 1.077,2.7 -3.987,0.947c-5.063,-1.752 -7.792,-4.544 -7.792,-4.544l-1.525,-1.53l-6.402,0.64l0.058,2.532l-0.964,0.482l-1.9,-2.25l0,-2.166l-1.762,-0.881l1.762,-3.044l-1.087,-1.986l-2.372,2.273l-1.908,-0.287l0,-4.125l0,-12.368c0,0 -3.933,-1.65 -5.366,2.157c-1.434,3.806 -3.284,6.238 -3.564,11.112c-0.28,4.874 5.302,26.57 5.302,26.57c0,0 8.296,1.522 14.361,1.649c6.066,0.127 12.253,3.426 21.467,-0.761c9.213,-4.187 21.663,-10.183 22.86,-11.562c1.197,-1.38 5.608,-24.03 5.608,-24.03Z" style="fill:#82b36a;"/><clipPath id="_clip7"><path d="M64.08,26.136l-2.872,-0.199l-1.863,3.199l-0.677,3.438c0,0 1.21,-0.826 -0.353,1.413c-1.564,2.239 -3.771,3.481 -3.771,3.481l-2.833,1.168c0,0 8.156,-4.313 0,0c-8.155,4.314 -8.21,4.044 -8.21,4.044c0,0 -1.168,0.778 -2.523,1.793c-1.355,1.015 0.294,1.015 -3.892,1.776c-4.187,0.761 -4.231,0.849 -5.795,1.059c-1.564,0.21 1.077,2.7 -3.987,0.947c-5.063,-1.752 -7.792,-4.544 -7.792,-4.544l-1.525,-1.53l-6.402,0.64l0.058,2.532l-0.964,0.482l-1.9,-2.25l0,-2.166l-1.762,-0.881l1.762,-3.044l-1.087,-1.986l-2.372,2.273l-1.908,-0.287l0,-4.125l0,-12.368c0,0 -3.933,-1.65 -5.366,2.157c-1.434,3.806 -3.284,6.238 -3.564,11.112c-0.28,4.874 5.302,26.57 5.302,26.57c0,0 8.296,1.522 14.361,1.649c6.066,0.127 12.253,3.426 21.467,-0.761c9.213,-4.187 21.663,-10.183 22.86,-11.562c1.197,-1.38 5.608,-24.03 5.608,-24.03Z"/></clipPath><g clip-path="url(#_clip7)"><path d="M60.484,18.972l-24.872,17.846l0,25.253l39.401,-32.303l-14.529,-10.796" style="fill:#83c759;fill-opacity:0.5;"/></g><path d="M21.134,27.826l-6.989,2.71l-16.099,16.249l0,-29.676l24.985,1.084l-1.897,9.633Z" style="fill:#191919;fill-opacity:0.5;"/></g></g></svg>