<?xml version="1.0" encoding="UTF-8" standalone="no"?><!DOCTYPE svg PUBLIC "-//W3C//DTD SVG 1.1//EN" "http://www.w3.org/Graphics/SVG/1.1/DTD/svg11.dtd"><svg width="100%" height="100%" viewBox="0 0 141 87" version="1.1" xmlns="http://www.w3.org/2000/svg" xmlns:xlink="http://www.w3.org/1999/xlink" xml:space="preserve" xmlns:serif="http://www.serif.com/" style="fill-rule:evenodd;clip-rule:evenodd;stroke-linejoin:round;stroke-miterlimit:1.41421;"><g id="rock07"><path d="M97.31,11.548l32.199,16.1l-21.466,32.199l-42.933,10.733l-42.932,-32.199l21.466,-32.199l42.932,-5.367l10.734,10.733Z" style="fill:#b49f97;"/><path d="M129.509,27.648l10.733,16.1l-5.367,34.882l-26.832,-18.783l21.466,-32.199Z" style="fill:#b49f97;"/><path d="M108.043,59.847l26.832,18.783l-80.498,8.05l10.733,-16.1l42.933,-10.733Z" style="fill:#7e685f;"/><path d="M22.178,38.381l-21.467,42.933l53.666,5.366l10.733,-16.1l-42.932,-32.199Z" style="fill:#70574e;"/><path d="M81.21,3.498l-26.833,8.05l5.367,13.417l10.733,5.366l10.733,-5.366l0,-21.467Z" style="fill:#7e685f;"/><path d="M81.21,3.498l26.833,24.15l-5.367,24.15l-21.466,-26.833l0,-21.467Z" style="fill:#b49f97;"/><path d="M81.21,24.965l21.466,26.833l-21.466,5.366l-10.733,-26.833l10.733,-5.366Z" style="fill:#7e685f;"/><path d="M70.477,30.331l10.733,26.833l-26.833,-2.683l5.367,-29.516l10.733,5.366Z" style="fill:#70574e;"/><path d="M54.377,11.548l-16.1,8.05l-5.366,24.15l21.466,10.733l5.367,-29.516l-5.367,-13.417Z" style="fill:#54433d;"/></g></svg>