<?xml version="1.0" encoding="UTF-8" standalone="no"?><!DOCTYPE svg PUBLIC "-//W3C//DTD SVG 1.1//EN" "http://www.w3.org/Graphics/SVG/1.1/DTD/svg11.dtd"><svg width="100%" height="100%" viewBox="0 0 141 87" version="1.1" xmlns="http://www.w3.org/2000/svg" xmlns:xlink="http://www.w3.org/1999/xlink" xml:space="preserve" xmlns:serif="http://www.serif.com/" style="fill-rule:evenodd;clip-rule:evenodd;stroke-linejoin:round;stroke-miterlimit:1.41421;"><g id="rock-runes07"><path d="M97.31,11.325l32.199,16.1l-21.466,32.199l-42.933,10.733l-42.932,-32.199l21.466,-32.2l42.932,-5.366l10.734,10.733Z" style="fill:#b49f97;"/><path d="M129.509,27.425l10.733,16.099l-5.367,34.883l-26.832,-18.783l21.466,-32.199Z" style="fill:#b49f97;"/><path d="M108.043,59.624l26.832,18.783l-80.498,8.05l10.733,-16.1l42.933,-10.733Z" style="fill:#7e685f;"/><path d="M22.178,38.158l-21.467,42.932l53.666,5.367l10.733,-16.1l-42.932,-32.199Z" style="fill:#70574e;"/><path d="M81.21,3.275l-26.833,8.05l5.367,13.416l10.733,5.367l10.733,-5.367l0,-21.466Z" style="fill:#7e685f;"/><path d="M81.21,3.275l26.833,24.15l-5.367,24.149l-21.466,-26.833l0,-21.466Z" style="fill:#b49f97;"/><path d="M81.21,24.741l21.466,26.833l-21.466,5.367l-10.733,-26.833l10.733,-5.367Z" style="fill:#7e685f;"/><path d="M70.477,30.108l10.733,26.833l-26.833,-2.683l5.367,-29.517l10.733,5.367Z" style="fill:#70574e;"/><path d="M54.377,11.325l-16.1,8.05l-5.366,24.149l21.466,10.734l5.367,-29.517l-5.367,-13.416Z" style="fill:#54433d;"/><path d="M138.239,58.256l-8.73,-20.465l-10.733,5.367l-11.732,-11.232l-1.396,7.063l9.279,10.259l14.582,-7.851l7.93,21.825l0.8,-4.966Z" style="fill:#402d1d;fill-opacity:0.65;"/><path d="M106.051,26.062l-7.531,1.601l-3.372,-7.052l-8.572,-5.797l-2.923,8.339l4.831,10.226l-0.924,-9.592l0.804,-2.989l5.287,2.723l2.543,8.346l1.116,9.978l1.41,2.018l0.032,-12.16l3.924,-1.962l5.367,0.439l0,-3.122l-1.992,-0.996" style="fill:#402d1d;fill-opacity:0.65;"/><path d="M108.043,80.724l5.366,-13.417l-26.833,-2.683l0,-5.366l-19.871,-0.798l-23.061,-4.569l-10.733,0l-5.367,-8.05l1.502,9.982l-13.19,6.595l-4.411,12.939l10.733,5.367l-4.241,2.12l14.974,1.511l-5.367,-6.314l-10.733,-5.367l5.367,-8.05l10.733,-5.366l10.733,2.103l5.366,18.395l5.367,6.334l0,-7.231l-3.719,-9.31l-1.648,-6.729l2.941,-2.35l16.354,5.752l12.905,-2.617l1.94,2.732l7.396,1.669l17.497,1.985l-10.733,12.569l10.733,-1.836" style="fill:#402d1d;fill-opacity:0.65;"/><path d="M99.039,53.026l-14.637,-19.514l-11.927,0.597l-7.365,9.049l-6.088,-13.777l-4.645,-7.689l-10.733,5.366l5.366,18.783l-0.921,-15.639l6.288,-3.144l10.733,19.722l9.063,-8.154l8.697,1.018l8.055,14.651l8.114,-1.269Z" style="fill:#402d1d;fill-opacity:0.65;"/></g></svg>