<?xml version="1.0" encoding="UTF-8" standalone="no"?><!DOCTYPE svg PUBLIC "-//W3C//DTD SVG 1.1//EN" "http://www.w3.org/Graphics/SVG/1.1/DTD/svg11.dtd"><svg width="100%" height="100%" viewBox="0 0 28 33" version="1.1" xmlns="http://www.w3.org/2000/svg" xmlns:xlink="http://www.w3.org/1999/xlink" xml:space="preserve" xmlns:serif="http://www.serif.com/" style="fill-rule:evenodd;clip-rule:evenodd;stroke-linejoin:round;stroke-miterlimit:1.41421;"><g id="rock-runes-highlights08"><g id="rock-highlights08"><g><g><path d="M11.448,0.719l10.733,5.367l-10.733,10.733l-5.367,-8.05l0,-5.366l5.367,-2.684" style="fill:#b49f97;"/><clipPath id="_clip1"><path d="M11.448,0.719l10.733,5.367l-10.733,10.733l-5.367,-8.05l0,-5.366l5.367,-2.684"/></clipPath><g clip-path="url(#_clip1)"><path d="M23.165,8.164l-10.286,9.371l-6.798,12.701l2.656,-13.465l-2.656,-7.088l-5.367,17.869l3.91,-18.881l0.513,-4.796l17.044,2.211l0.984,2.078Z" style="fill:#b49f97;"/></g><path d="M22.181,6.086l5.366,13.416l-5.366,13.417l-16.1,-2.683l5.367,-13.417l10.733,-10.733Z" style="fill:#7e685f;"/><clipPath id="_clip2"><path d="M22.181,6.086l5.366,13.416l-5.366,13.417l-16.1,-2.683l5.367,-13.417l10.733,-10.733Z"/></clipPath><g clip-path="url(#_clip2)"><path d="M23.165,8.164l-10.286,9.371l-6.798,12.701l2.656,-13.465l-2.656,-7.088l-5.367,17.869l3.91,-18.881l0.513,-4.796l17.044,2.211l0.984,2.078Z" style="fill:#b49f97;"/></g><path d="M6.081,30.236l-5.367,-2.684l5.367,-18.783l5.367,8.05l-5.367,13.417Z" style="fill:#70574e;"/><clipPath id="_clip3"><path d="M6.081,30.236l-5.367,-2.684l5.367,-18.783l5.367,8.05l-5.367,13.417Z"/></clipPath><g clip-path="url(#_clip3)"><path d="M23.165,8.164l-10.286,9.371l-6.798,12.701l2.656,-13.465l-2.656,-7.088l-5.367,17.869l3.91,-18.881l0.513,-4.796l17.044,2.211l0.984,2.078Z" style="fill:#b49f97;"/></g><path d="M6.081,3.403l-5.367,2.683l0,21.466l5.367,-18.783l0,-5.366" style="fill:#54433d;"/><clipPath id="_clip4"><path d="M6.081,3.403l-5.367,2.683l0,21.466l5.367,-18.783l0,-5.366"/></clipPath><g clip-path="url(#_clip4)"><path d="M23.165,8.164l-10.286,9.371l-6.798,12.701l2.656,-13.465l-2.656,-7.088l-5.367,17.869l3.91,-18.881l0.513,-4.796l17.044,2.211l0.984,2.078Z" style="fill:#b49f97;"/></g></g></g></g><path d="M14.683,4.14l-4.962,2.481l6.401,5.624l0.692,9.992l-7.383,0.629l-4.487,-9.627l-4.23,1.188l0,3.445l3.464,-1.895l3.445,10.854l11.994,-3.692l-0.566,-5.611l3.733,1.665l1.307,8.986l2.078,-4.328l-1.529,-6.131l-6.041,-3.02l-0.237,-4.753l-2.01,-0.344l-3.532,-3.159l3.994,0.747l-2.131,-3.051" style="fill:#402d1d;fill-opacity:0.5;"/><path d="M14.683,4.14l-4.962,2.481l6.401,5.624l0.692,9.992l-7.383,0.629l-4.487,-9.627l-4.23,1.188l0,3.445l3.464,-1.895l3.445,10.854l11.994,-3.692l-0.566,-5.611l3.733,1.665l1.307,8.986l2.078,-4.328l-1.529,-6.131l-6.041,-3.02l-0.237,-4.753l-2.01,-0.344l-3.532,-3.159l3.994,0.747l-2.131,-3.051" style="fill:#402d1d;fill-opacity:0.5;"/></g></svg>