<?xml version="1.0" encoding="UTF-8" standalone="no"?><!DOCTYPE svg PUBLIC "-//W3C//DTD SVG 1.1//EN" "http://www.w3.org/Graphics/SVG/1.1/DTD/svg11.dtd"><svg width="100%" height="100%" viewBox="0 0 86 85" version="1.1" xmlns="http://www.w3.org/2000/svg" xmlns:xlink="http://www.w3.org/1999/xlink" xml:space="preserve" xmlns:serif="http://www.serif.com/" style="fill-rule:evenodd;clip-rule:evenodd;stroke-linejoin:round;stroke-miterlimit:1.41421;"><g id="rock-runes12"><path d="M59.078,22.243l16.1,8.05l-10.733,26.833l-21.467,-10.733l16.1,-24.15Z" style="fill:#7e685f;"/><path d="M75.178,30.293l10.733,26.833l0,10.733l-21.466,-10.733l10.733,-26.833Z" style="fill:#b49f97;"/><path d="M64.445,57.126l21.466,10.733l0,10.733l-32.2,5.366l10.734,-26.832" style="fill:#7e685f;"/><path d="M64.445,57.126l-10.734,26.832l-32.199,0l-10.733,-10.733l32.199,-26.832l21.467,10.733Z" style="fill:#70574e;"/><path d="M53.711,8.827l-5.366,-8.05l-5.367,45.616l16.1,-24.15l-5.367,-13.416Z" style="fill:#b49f97;"/><path d="M48.345,0.777l-26.833,2.683l-10.733,5.367l32.199,37.566l5.367,-45.616Z" style="fill:#7e685f;"/><path d="M10.779,8.827l-10.733,48.299l10.733,16.099l32.199,-26.832l-32.199,-37.566" style="fill:#54433d;"/><path d="M85.911,56.759l-16.1,-8.05l-1.478,-0.739l-3.888,-18.044l-7.663,-3.831l-8.437,-18.489l-16.1,0.854l-10.733,10.733l16.1,13.417l5.366,-13.417l-9.895,-0.419l4.529,3.102l-0.961,4.887l-9.772,-7.716l5.366,-6.842l13.852,3.181l7.614,14.54l6.847,3.423l3.887,23.41l10.733,0l10.733,5.367l0,-5.367Z" style="fill:#402d1d;fill-opacity:0.5;"/><path d="M5.412,32.61l21.467,10.733l5.366,12.381l16.1,3.718l10.733,10.734l11.115,-5.176l15.718,7.859l0,5.366l-10.733,-5.366l-18.003,3.634l-10.609,-11.493l-18.197,-6.303l-6.857,-12.671l-17.84,-3.553l1.74,-9.863Z" style="fill:#090705;fill-opacity:0.5;"/><path d="M10.779,72.859l10.733,-5.367l10.733,5.367l5.367,8.05l0,3.366l-3.639,0.181l-1.728,-4.847l-10.733,-7.537l-7.338,4.456l3.654,3.54l3.684,-1.843l5.367,2.684l0,3.276l-5.367,0.18l-10.733,-11.506Z" style="fill:#090705;fill-opacity:0.5;"/></g></svg>