<?xml version="1.0" encoding="UTF-8" standalone="no"?><!DOCTYPE svg PUBLIC "-//W3C//DTD SVG 1.1//EN" "http://www.w3.org/Graphics/SVG/1.1/DTD/svg11.dtd"><svg width="100%" height="100%" viewBox="0 0 66 49" version="1.1" xmlns="http://www.w3.org/2000/svg" xmlns:xlink="http://www.w3.org/1999/xlink" xml:space="preserve" xmlns:serif="http://www.serif.com/" style="fill-rule:evenodd;clip-rule:evenodd;stroke-linejoin:round;stroke-miterlimit:1.41421;"><g id="rock03"><path d="M65.149,19.466l0,10.733l-10.734,10.734l-37.566,-13.417l16.1,-13.416l32.2,5.366Z" style="fill:#b49f97;"/><path d="M49.049,0.683l10.733,10.733l-10.733,5.367l-10.733,-16.1l10.733,0Z" style="fill:#b49f97;"/><path d="M59.782,11.416l0,16.1l-10.733,5.367l0,-16.1l10.733,-5.367Z" style="fill:#7e685f;"/><path d="M38.316,0.683l-5.367,24.15l16.1,8.05l0,-16.1l-10.733,-16.1Z" style="fill:#70574e;"/><path d="M65.149,30.199l-1.879,9.794l-8.855,6.306l0,-5.366l10.734,-10.734Z" style="fill:#7e685f;"/><path d="M54.415,40.933l0,5.366l-42.932,0l5.366,-18.783l37.566,13.417Z" style="fill:#70574e;"/><path d="M11.483,24.833l16.1,2.683l3.705,4.764l-9.072,3.286l-10.733,-10.733Z" style="fill:#b49f97;"/><path d="M31.297,32.295l-1,15.33l-13.448,1.357l5.367,-13.416l9.081,-3.271Z" style="fill:#7e685f;"/><path d="M11.483,24.833l-10.733,16.1l16.099,8.049l5.367,-13.416l-10.733,-10.733Z" style="fill:#70574e;"/></g></svg>