<?xml version="1.0" encoding="UTF-8" standalone="no"?><!DOCTYPE svg PUBLIC "-//W3C//DTD SVG 1.1//EN" "http://www.w3.org/Graphics/SVG/1.1/DTD/svg11.dtd"><svg width="100%" height="100%" viewBox="0 0 98 143" version="1.1" xmlns="http://www.w3.org/2000/svg" xmlns:xlink="http://www.w3.org/1999/xlink" xml:space="preserve" xmlns:serif="http://www.serif.com/" style="fill-rule:evenodd;clip-rule:evenodd;stroke-linejoin:round;stroke-miterlimit:1.41421;"><g id="sign05"><g><path d="M52.457,6.097l0,134.164l-5.367,2.683l0,-134.164l5.367,-2.683Z" style="fill:#755639;"/><path d="M41.724,6.097l0,134.164l5.366,2.683l0,-134.164l-5.366,-2.683" style="fill:#54433d;"/><path d="M52.457,6.097l-5.367,-2.684l-5.366,2.684l5.366,2.683l5.367,-2.683" style="fill:#906f51;"/></g><path d="M6.167,38.098l80.499,-34.883l10.733,5.367l-5.367,13.416l-69.765,34.883l-10.733,-5.367l-5.367,-13.416Z" style="fill:#755639;"/><clipPath id="_clip1"><path d="M6.167,38.098l80.499,-34.883l10.733,5.367l-5.367,13.416l-69.765,34.883l-10.733,-5.367l-5.367,-13.416Z"/></clipPath><g clip-path="url(#_clip1)"><path d="M25.043,51.104c0,0 -8.514,2.466 -10.146,3.657c-1.633,1.19 0.772,3.074 0.042,3.254c-0.73,0.181 0.22,2.593 0.22,2.593c0,0 0.403,1.265 2.451,-0.154c2.048,-1.419 1.069,-2.252 2.571,-4.143c1.502,-1.891 1.308,-3.653 6.189,-5.862c4.938,-2.235 7.248,-0.805 11.361,-4.852c4.132,-4.067 4.705,-5.481 7.381,-6.963" style="fill:none;"/></g><path d="M92.032,5.898c0,0 -7.536,0.595 -8.73,4.366c-1.195,3.771 -6.561,6.802 -10.856,7.308c-4.296,0.505 -4.734,2.922 -15.103,8.548c-10.369,5.626 -20.011,8.479 -22.169,8.207c-2.157,-0.271 -3.697,-0.079 -11.975,3.868c-8.278,3.946 -9.951,5.005 -11.665,5.775c-1.714,0.77 -2.975,-0.334 -2.975,-0.334" style="fill:none;"/><path d="M10.577,48.94c0,0 17.003,-3.943 17.989,-3.943c0.985,0 6.419,-1.725 9.801,-3.573c3.382,-1.848 15.501,-6.008 17.049,-6.484c1.549,-0.477 9.68,-3.865 12.391,-5.59c2.71,-1.725 8.127,-5.799 11.117,-6.164c2.99,-0.366 7.179,-1.968 9.643,-4.062c2.464,-2.095 4.682,-4.066 5.298,-4.312c0.616,-0.247 1.439,-1.174 1.439,-1.174" style="fill:none;"/><path d="M84.632,16.648c0,0 0.99,-0.986 2.717,-2.035c1.727,-1.049 3.941,-1.802 4.683,-1.92c0.743,-0.119 0,-2.603 0,-2.603c0,0 -0.295,-1.294 -2.456,-0.053c-2.16,1.241 -1.254,2.154 -2.91,3.911c-1.657,1.758 -1.56,3.683 -6.662,5.319c-5.101,1.637 -7.289,0.149 -11.73,3.877c-4.441,3.727 -4.633,5.075 -7.425,6.326" style="fill:none;"/><path d="M43.412,26.306c0,0 -0.903,1.066 -2.535,2.257c-1.633,1.191 -3.775,2.128 -4.505,2.308c-0.73,0.181 0.219,2.593 0.219,2.593c0,0 0.404,1.265 2.452,-0.154c2.048,-1.419 1.068,-2.252 2.57,-4.143c1.502,-1.891 1.308,-3.653 6.189,-5.862c4.939,-2.234 7.249,-0.805 11.361,-4.852c4.133,-4.066 4.189,-5.448 6.865,-6.93" style="fill:none;"/><path d="M81.299,0.532l-80.498,34.883l5.366,2.683l80.499,-34.883l-5.367,-2.683Z" style="fill:#906f51;"/><clipPath id="_clip2"><path d="M81.299,0.532l-80.498,34.883l5.366,2.683l80.499,-34.883l-5.367,-2.683Z"/></clipPath><g clip-path="url(#_clip2)"><path d="M-21.569,41.233c0,0 21.369,-4.902 22.61,-4.912c1.241,-0.01 8.065,-2.134 12.305,-4.385c4.24,-2.251 19.459,-7.364 21.404,-7.952c1.945,-0.587 12.15,-4.734 15.546,-6.831c3.396,-2.096 10.178,-7.038 13.938,-7.507c3.761,-0.469 9.02,-2.433 12.102,-4.971c3.082,-2.537 5.855,-4.925 6.629,-5.226c0.773,-0.302 1.8,-1.423 1.8,-1.423" style="fill:none;"/></g><path d="M11.534,51.514l-5.367,-2.683l-5.366,-13.416l5.366,2.683l5.367,13.416" style="fill:#54433d;"/><g><g transform="matrix(0.901161,-0.433484,-0.0299751,1.1241,-113.843,-579.02)"><text x="171.671px" y="629.681px" style="font-family:'OldEnglishTextMT', 'Old English Text MT', cursive;font-size:26.391px;fill:#906f51;">E<tspan x="199.224px 218.491px " y="629.681px 629.681px ">nd</tspan></text></g><g transform="matrix(0.901161,-0.433484,-0.0299751,1.1241,-113.713,-578.449)"><text x="172.984px" y="629.67px" style="font-family:'OldEnglishTextMT', 'Old English Text MT', cursive;font-size:26.391px;fill:#25150d;">E<tspan x="200.537px 219.804px " y="629.67px 629.67px ">nd</tspan></text></g><g transform="matrix(0.901161,-0.433484,-0.0299751,1.1241,-113.555,-577.697)"><text x="174.656px" y="629.45px" style="font-family:'OldEnglishTextMT', 'Old English Text MT', cursive;font-size:26.391px;fill:#25150d;fill-opacity:0.528571;">E<tspan x="202.209px 221.476px " y="629.45px 629.45px ">nd</tspan></text></g></g></g></svg>