<?xml version="1.0" encoding="UTF-8" standalone="no"?><!DOCTYPE svg PUBLIC "-//W3C//DTD SVG 1.1//EN" "http://www.w3.org/Graphics/SVG/1.1/DTD/svg11.dtd"><svg width="100%" height="100%" viewBox="0 0 37 71" version="1.1" xmlns="http://www.w3.org/2000/svg" xmlns:xlink="http://www.w3.org/1999/xlink" xml:space="preserve" xmlns:serif="http://www.serif.com/" style="fill-rule:evenodd;clip-rule:evenodd;stroke-linecap:round;stroke-linejoin:round;stroke-miterlimit:1.5;"><g id="cactus06"><path d="M29.974,51.254l0,-22.39l-2.798,-9.796l-5.598,-5.598l-2.799,-1.399l-2.799,1.399l-5.597,5.598l-2.799,9.796l0,39.183l5.597,2.799l11.196,0l5.597,-2.799l0,-16.793Z" style="fill:#aa9542;"/><clipPath id="_clip1"><path d="M29.974,51.254l0,-22.39l-2.798,-9.796l-5.598,-5.598l-2.799,-1.399l-2.799,1.399l-5.597,5.598l-2.799,9.796l0,39.183l5.597,2.799l11.196,0l5.597,-2.799l0,-16.793Z"/></clipPath><g clip-path="url(#_clip1)"><path d="M31.309,9.939l-12.53,1.248l-0.89,62.903l17.683,-3.244l-4.263,-60.907Z" style="fill:#d3d277;stroke:#000;stroke-width:1px;"/><path d="M34.972,7.721c9.707,6.793 14.58,16.605 10.876,21.898c-3.704,5.293 -14.592,4.075 -24.299,-2.718c-9.706,-6.793 -14.58,-16.605 -10.876,-21.898c3.705,-5.293 14.592,-4.075 24.299,2.718Z" style="fill:#95c759;fill-opacity:0.5;"/><path d="M13.181,31.662l2.799,-18.192l2.799,-1.399l2.799,1.399l2.799,18.192l0,22.391l-2.799,18.192l-5.598,0l-2.799,-18.192l0,-22.391Z" style="fill:#836e4b;"/><clipPath id="_clip2"><path d="M13.181,31.662l2.799,-18.192l2.799,-1.399l2.799,1.399l2.799,18.192l0,22.391l-2.799,18.192l-5.598,0l-2.799,-18.192l0,-22.391Z"/></clipPath><g clip-path="url(#_clip2)"><path d="M34.972,7.721c9.707,6.793 14.58,16.605 10.876,21.898c-3.704,5.293 -14.592,4.075 -24.299,-2.718c-9.706,-6.793 -14.58,-16.605 -10.876,-21.898c3.705,-5.293 14.592,-4.075 24.299,2.718Z" style="fill:#95c759;fill-opacity:0.5;"/></g></g><g><circle cx="18.764" cy="10.458" r="3.548" style="fill:#d57344;"/></g><g><path d="M18.006,10.454l-4.806,-2.338l-1.871,-4.845l5.452,-1.148l1.225,8.331" style="fill:#72201f;"/><path d="M18.006,10.454l-8.107,-0.774l-1.312,-3.398l8.88,2.776" style="fill:#be2035;"/><path d="M18.006,10.454l4.172,-9.42l-4.053,-0.387l-2.742,3.011l2.623,6.796Z" style="fill:#be2035;"/><path d="M18.006,10.454l1.43,-6.409l5.883,-1.622l-0.161,2.169l-7.152,5.862" style="fill:#be2035;"/><path d="M18.006,10.454l6.796,-2.624l2.742,-3.011l-4.054,-0.387l-5.484,6.022" style="fill:#be2035;"/><path d="M18.006,10.454l-3.549,-0.339l-0.124,-3.284l4.025,-1.602l3.209,2.292l-3.561,2.933Z" style="fill:#72201f;"/><path d="M9.899,9.68l2.003,1.64l6.104,-0.866l-8.107,-0.774Z" style="fill:#72201f;"/></g><g><circle cx="22.017" cy="17.378" r="1.708" style="fill:#8d9f97;"/><circle cx="23.286" cy="24.615" r="1.708" style="fill:#8d9f97;"/><circle cx="24.377" cy="31.846" r="1.708" style="fill:#8d9f97;"/><circle cx="24.377" cy="39.17" r="1.708" style="fill:#8d9f97;"/><circle cx="24.377" cy="54.244" r="1.708" style="fill:#8d9f97;"/><circle cx="23.286" cy="61.015" r="1.708" style="fill:#8d9f97;"/><circle cx="22.17" cy="67.833" r="1.708" style="fill:#8d9f97;"/><circle cx="24.377" cy="46.546" r="1.708" style="fill:#8d9f97;"/></g><g><circle cx="15.511" cy="17.378" r="1.708" style="fill:#8d9f97;"/><circle cx="14.242" cy="24.615" r="1.708" style="fill:#8d9f97;"/><circle cx="13.151" cy="31.846" r="1.708" style="fill:#8d9f97;"/><circle cx="13.151" cy="39.17" r="1.708" style="fill:#8d9f97;"/><circle cx="13.151" cy="54.244" r="1.708" style="fill:#8d9f97;"/><circle cx="14.242" cy="61.015" r="1.708" style="fill:#8d9f97;"/><circle cx="15.358" cy="67.833" r="1.708" style="fill:#8d9f97;"/><circle cx="13.151" cy="46.546" r="1.708" style="fill:#8d9f97;"/></g><g><g opacity="0.3"><circle cx="15.511" cy="17.378" r="1.708" style="fill:#090705;"/><circle cx="14.242" cy="24.615" r="1.708" style="fill:#090705;"/><circle cx="13.151" cy="31.846" r="1.708" style="fill:#090705;"/><circle cx="13.151" cy="39.17" r="1.708" style="fill:#090705;"/><circle cx="13.151" cy="54.244" r="1.708" style="fill:#090705;"/><circle cx="14.242" cy="61.015" r="1.708" style="fill:#090705;"/><circle cx="15.358" cy="67.833" r="1.708" style="fill:#090705;"/><circle cx="13.151" cy="46.546" r="1.708" style="fill:#090705;"/></g></g><g><path d="M31.213,20.209l-3.911,3.57l-1.19,-2.735l5.101,-0.835Z" style="fill:#8d9f97;"/><path d="M34.216,26.746l-4.869,4.049l-1.207,-2.773l6.076,-1.276Z" style="fill:#8d9f97;"/><path d="M35.895,34.655l-6.852,3.362l-0.671,-3.199l7.523,-0.163Z" style="fill:#8d9f97;"/><path d="M36.07,43.32l-7.604,2.507l-0.392,-2.925l7.996,0.418Z" style="fill:#8d9f97;"/><path d="M36.43,52.647l-7.542,1.463l-0.28,-3.143l7.822,1.68Z" style="fill:#8d9f97;"/><path d="M36.853,60.032l-8.263,1.679l-0.051,-2.711l8.314,1.032Z" style="fill:#8d9f97;"/><path d="M36.851,67.223l-8.873,0.522l0.222,-2.559l8.651,2.037Z" style="fill:#8d9f97;"/></g><g><path d="M6.146,20.929l3.911,3.57l1.19,-2.735l-5.101,-0.835Z" style="fill:#8d9f97;"/><path d="M3.144,27.466l4.868,4.049l1.207,-2.773l-6.075,-1.276Z" style="fill:#8d9f97;"/><path d="M1.464,35.376l6.853,3.362l0.671,-3.2l-7.524,-0.162Z" style="fill:#8d9f97;"/><path d="M1.289,44.04l7.604,2.507l0.392,-2.925l-7.996,0.418Z" style="fill:#8d9f97;"/><path d="M0.929,53.367l7.542,1.463l0.28,-3.143l-7.822,1.68Z" style="fill:#8d9f97;"/><path d="M0.507,60.752l8.262,1.679l0.052,-2.711l-8.314,1.032Z" style="fill:#8d9f97;"/><path d="M0.508,67.943l8.873,0.522l-0.221,-2.558l-8.652,2.036Z" style="fill:#8d9f97;"/></g><g><g opacity="0.3"><path d="M6.146,20.929l3.911,3.57l1.19,-2.735l-5.101,-0.835Z" style="fill:#090705;"/><path d="M3.144,27.466l4.868,4.049l1.207,-2.773l-6.075,-1.276Z" style="fill:#090705;"/><path d="M1.464,35.376l6.853,3.362l0.671,-3.2l-7.524,-0.162Z" style="fill:#090705;"/><path d="M1.289,44.04l7.604,2.507l0.392,-2.925l-7.996,0.418Z" style="fill:#090705;"/><path d="M0.929,53.367l7.542,1.463l0.28,-3.143l-7.822,1.68Z" style="fill:#090705;"/><path d="M0.507,60.752l8.262,1.679l0.052,-2.711l-8.314,1.032Z" style="fill:#090705;"/><path d="M0.508,67.943l8.873,0.522l-0.221,-2.558l-8.652,2.036Z" style="fill:#090705;"/></g></g></g></svg>