<?xml version="1.0" encoding="UTF-8" standalone="no"?><!DOCTYPE svg PUBLIC "-//W3C//DTD SVG 1.1//EN" "http://www.w3.org/Graphics/SVG/1.1/DTD/svg11.dtd"><svg width="100%" height="100%" viewBox="0 0 41 60" version="1.1" xmlns="http://www.w3.org/2000/svg" xmlns:xlink="http://www.w3.org/1999/xlink" xml:space="preserve" xmlns:serif="http://www.serif.com/" style="fill-rule:evenodd;clip-rule:evenodd;stroke-linecap:round;stroke-linejoin:round;stroke-miterlimit:1.5;"><g id="cactus11"><path d="M34.21,36.244l-1.258,-19.349l-4.272,-9.623l-5.598,-5.597l-2.798,-1.4l-2.799,1.4l-5.598,5.597l-4.509,9.149l-0.578,19.849l0.578,21.195l7.308,1.586l11.195,0l6.254,-2.378l2.075,-20.429Z" style="fill:#aa9542;"/><clipPath id="_clip1"><path d="M34.21,36.244l-1.258,-19.349l-4.272,-9.623l-5.598,-5.597l-2.798,-1.4l-2.799,1.4l-5.598,5.597l-4.509,9.149l-0.578,19.849l0.578,21.195l7.308,1.586l11.195,0l6.254,-2.378l2.075,-20.429Z"/></clipPath><g clip-path="url(#_clip1)"><path d="M32.814,-1.856l-12.53,1.247l-0.891,62.903l17.683,-3.243l-4.262,-60.907Z" style="fill:#d3d277;stroke:#000;stroke-width:1px;"/><path d="M34.928,0.485c7.438,9.221 9.395,20.001 4.366,24.057c-5.028,4.056 -15.149,-0.138 -22.588,-9.359c-7.438,-9.222 -9.395,-20.001 -4.366,-24.057c5.028,-4.056 15.15,0.137 22.588,9.359Z" style="fill:#95c759;fill-opacity:0.5;"/><path d="M14.686,19.867l2.799,-18.192l2.799,-1.4l2.798,1.4l2.799,18.192l0,22.391l-2.799,18.192l-5.597,0l-2.799,-18.192l0,-22.391Z" style="fill:#836e4b;"/><clipPath id="_clip2"><path d="M14.686,19.867l2.799,-18.192l2.799,-1.4l2.798,1.4l2.799,18.192l0,22.391l-2.799,18.192l-5.597,0l-2.799,-18.192l0,-22.391Z"/></clipPath><g clip-path="url(#_clip2)"><path d="M34.928,0.485c7.438,9.221 9.395,20.001 4.366,24.057c-5.028,4.056 -15.149,-0.138 -22.588,-9.359c-7.438,-9.222 -9.395,-20.001 -4.366,-24.057c5.028,-4.056 15.15,0.137 22.588,9.359Z" style="fill:#95c759;fill-opacity:0.5;"/></g></g><g><circle cx="23.522" cy="5.582" r="1.708" style="fill:#8d9f97;"/><circle cx="24.79" cy="12.82" r="1.708" style="fill:#8d9f97;"/><circle cx="25.881" cy="20.05" r="1.708" style="fill:#8d9f97;"/><circle cx="25.881" cy="27.374" r="1.708" style="fill:#8d9f97;"/><circle cx="25.881" cy="42.449" r="1.708" style="fill:#8d9f97;"/><circle cx="24.79" cy="49.219" r="1.708" style="fill:#8d9f97;"/><circle cx="23.675" cy="56.038" r="1.708" style="fill:#8d9f97;"/><circle cx="25.881" cy="34.75" r="1.708" style="fill:#8d9f97;"/></g><g><circle cx="17.015" cy="5.582" r="1.708" style="fill:#8d9f97;"/><circle cx="15.747" cy="12.82" r="1.708" style="fill:#8d9f97;"/><circle cx="14.656" cy="20.05" r="1.708" style="fill:#8d9f97;"/><circle cx="14.656" cy="27.374" r="1.708" style="fill:#8d9f97;"/><circle cx="14.656" cy="42.449" r="1.708" style="fill:#8d9f97;"/><circle cx="15.747" cy="49.219" r="1.708" style="fill:#8d9f97;"/><circle cx="16.862" cy="56.038" r="1.708" style="fill:#8d9f97;"/><circle cx="14.656" cy="34.75" r="1.708" style="fill:#8d9f97;"/></g><g><g opacity="0.3"><circle cx="17.015" cy="5.582" r="1.708" style="fill:#090705;"/><circle cx="15.747" cy="12.82" r="1.708" style="fill:#090705;"/><circle cx="14.656" cy="20.05" r="1.708" style="fill:#090705;"/><circle cx="14.656" cy="27.374" r="1.708" style="fill:#090705;"/><circle cx="14.656" cy="42.449" r="1.708" style="fill:#090705;"/><circle cx="15.747" cy="49.219" r="1.708" style="fill:#090705;"/><circle cx="16.862" cy="56.038" r="1.708" style="fill:#090705;"/><circle cx="14.656" cy="34.75" r="1.708" style="fill:#090705;"/></g></g><g><path d="M34.717,8.413l-3.91,3.57l-1.191,-2.734l5.101,-0.836Z" style="fill:#8d9f97;"/><path d="M37.72,14.951l-4.868,4.048l-1.207,-2.772l6.075,-1.276Z" style="fill:#8d9f97;"/><path d="M39.4,22.86l-6.853,3.362l-0.671,-3.2l7.524,-0.162Z" style="fill:#8d9f97;"/><path d="M39.575,31.524l-7.604,2.507l-0.392,-2.925l7.996,0.418Z" style="fill:#8d9f97;"/><path d="M39.934,40.852l-7.541,1.463l-0.28,-3.143l7.821,1.68Z" style="fill:#8d9f97;"/><path d="M40.357,48.237l-8.262,1.678l-0.052,-2.71l8.314,1.032Z" style="fill:#8d9f97;"/><path d="M40.356,55.427l-8.873,0.522l0.221,-2.558l8.652,2.036Z" style="fill:#8d9f97;"/></g><g><path d="M5.651,9.133l3.91,3.57l1.191,-2.734l-5.101,-0.836Z" style="fill:#8d9f97;"/><path d="M2.648,15.671l4.868,4.048l1.207,-2.772l-6.075,-1.276Z" style="fill:#8d9f97;"/><path d="M0.968,23.58l6.853,3.362l0.671,-3.2l-7.524,-0.162Z" style="fill:#8d9f97;"/><path d="M0.794,32.245l7.604,2.507l0.391,-2.925l-7.995,0.418Z" style="fill:#8d9f97;"/><path d="M0.434,41.572l7.542,1.463l0.279,-3.143l-7.821,1.68Z" style="fill:#8d9f97;"/><path d="M0.011,48.957l8.262,1.678l0.052,-2.71l-8.314,1.032Z" style="fill:#8d9f97;"/><path d="M0.012,56.148l8.873,0.522l-0.221,-2.559l-8.652,2.037Z" style="fill:#8d9f97;"/></g><g><g opacity="0.3"><path d="M5.651,9.133l3.91,3.57l1.191,-2.734l-5.101,-0.836Z" style="fill:#090705;"/><path d="M2.648,15.671l4.868,4.048l1.207,-2.772l-6.075,-1.276Z" style="fill:#090705;"/><path d="M0.968,23.58l6.853,3.362l0.671,-3.2l-7.524,-0.162Z" style="fill:#090705;"/><path d="M0.794,32.245l7.604,2.507l0.391,-2.925l-7.995,0.418Z" style="fill:#090705;"/><path d="M0.434,41.572l7.542,1.463l0.279,-3.143l-7.821,1.68Z" style="fill:#090705;"/><path d="M0.011,48.957l8.262,1.678l0.052,-2.71l-8.314,1.032Z" style="fill:#090705;"/><path d="M0.012,56.148l8.873,0.522l-0.221,-2.559l-8.652,2.037Z" style="fill:#090705;"/></g></g></g></svg>