<?xml version="1.0" encoding="UTF-8" standalone="no"?><!DOCTYPE svg PUBLIC "-//W3C//DTD SVG 1.1//EN" "http://www.w3.org/Graphics/SVG/1.1/DTD/svg11.dtd"><svg width="100%" height="100%" viewBox="0 0 59 58" version="1.1" xmlns="http://www.w3.org/2000/svg" xmlns:xlink="http://www.w3.org/1999/xlink" xml:space="preserve" xmlns:serif="http://www.serif.com/" style="fill-rule:evenodd;clip-rule:evenodd;stroke-linecap:round;stroke-linejoin:round;stroke-miterlimit:1.5;"><g id="cactus07"><path d="M54.405,41.654l-1.325,-9.572l-4.397,-10.358l-5.3,-8.083l-6.402,-6.139l-6.924,-1.944l-7.805,1.569l-5.205,5.115l-6.4,9.335l-4.076,10.47l0.367,10.55l5.707,10.376l12.161,4.471l11.195,0l12.613,-5.052l5.791,-10.738Z" style="fill:#aa9542;"/><clipPath id="_clip1"><path d="M54.405,41.654l-1.325,-9.572l-4.397,-10.358l-5.3,-8.083l-6.402,-6.139l-6.924,-1.944l-7.805,1.569l-5.205,5.115l-6.4,9.335l-4.076,10.47l0.367,10.55l5.707,10.376l12.161,4.471l11.195,0l12.613,-5.052l5.791,-10.738Z"/></clipPath><g clip-path="url(#_clip1)"><path d="M31.614,-11.045l-1.21,8.83l-0.891,62.903l23.567,7.136l13.009,-14.962c3.849,-41.306 -8.934,-79.846 -34.475,-63.907Z" style="fill:#d3d277;stroke:#000;stroke-width:1px;"/><path d="M41.77,-1.713c9.706,6.793 14.58,16.605 10.876,21.898c-3.705,5.293 -14.592,4.075 -24.299,-2.718c-9.707,-6.793 -14.58,-16.605 -10.876,-21.898c3.704,-5.293 14.592,-4.075 24.299,2.718Z" style="fill:#95c759;fill-opacity:0.5;"/><path d="M19.847,20.042l2.764,-17.482l7.793,-3.891l2.798,1.4l6.179,21.918l2.966,11.853l0,14.524l-1.779,10.913l-19.687,0.433l-1.881,-11.606l-0.165,-14.779l1.012,-13.283Z" style="fill:#836e4b;"/><clipPath id="_clip2"><path d="M19.847,20.042l2.764,-17.482l7.793,-3.891l2.798,1.4l6.179,21.918l2.966,11.853l0,14.524l-1.779,10.913l-19.687,0.433l-1.881,-11.606l-0.165,-14.779l1.012,-13.283Z"/></clipPath><g clip-path="url(#_clip2)"><path d="M41.77,-1.713c9.706,6.793 14.58,16.605 10.876,21.898c-3.705,5.293 -14.592,4.075 -24.299,-2.718c-9.707,-6.793 -14.58,-16.605 -10.876,-21.898c3.704,-5.293 14.592,-4.075 24.299,2.718Z" style="fill:#95c759;fill-opacity:0.5;"/></g></g><g><path d="M36.442,12.926c-0.943,0.027 -1.73,-0.716 -1.757,-1.658c-0.027,-0.942 0.716,-1.729 1.658,-1.756c0.942,-0.028 1.729,0.715 1.757,1.658c0.027,0.942 -0.716,1.729 -1.658,1.756Z" style="fill:#8d9f97;"/><path d="M38.74,19.122c-0.942,0.027 -1.729,-0.716 -1.756,-1.658c-0.027,-0.942 0.716,-1.729 1.658,-1.756c0.942,-0.028 1.729,0.715 1.756,1.658c0.027,0.942 -0.716,1.729 -1.658,1.756Z" style="fill:#8d9f97;"/><path d="M40.951,26.443c-0.942,0.027 -1.729,-0.716 -1.756,-1.658c-0.028,-0.942 0.715,-1.729 1.658,-1.757c0.942,-0.027 1.729,0.716 1.756,1.658c0.027,0.943 -0.716,1.73 -1.658,1.757Z" style="fill:#8d9f97;"/><path d="M42.385,40.511c-0.942,0.027 -1.729,-0.715 -1.757,-1.658c-0.027,-0.942 0.716,-1.729 1.659,-1.756c0.942,-0.027 1.729,0.716 1.756,1.658c0.027,0.942 -0.716,1.729 -1.658,1.756Z" style="fill:#8d9f97;"/><path d="M42.489,48.31c-0.942,0.027 -1.729,-0.716 -1.756,-1.658c-0.027,-0.942 0.716,-1.729 1.658,-1.756c0.942,-0.027 1.729,0.716 1.756,1.658c0.027,0.942 -0.716,1.729 -1.658,1.756Z" style="fill:#8d9f97;"/><path d="M41.57,55.158c-0.942,0.027 -1.729,-0.716 -1.756,-1.658c-0.027,-0.942 0.716,-1.729 1.658,-1.756c0.942,-0.028 1.729,0.715 1.756,1.658c0.028,0.942 -0.715,1.729 -1.658,1.756Z" style="fill:#8d9f97;"/><path d="M42.163,33.816c-0.942,0.027 -1.729,-0.716 -1.756,-1.658c-0.027,-0.942 0.716,-1.729 1.658,-1.757c0.942,-0.027 1.729,0.716 1.756,1.658c0.027,0.943 -0.716,1.73 -1.658,1.757Z" style="fill:#8d9f97;"/></g><g><g><path d="M20.999,12.953c0.941,0.054 1.749,-0.667 1.803,-1.608c0.053,-0.941 -0.667,-1.748 -1.608,-1.802c-0.941,-0.054 -1.749,0.667 -1.803,1.608c-0.053,0.941 0.667,1.749 1.608,1.802Z" style="fill:#8d9f97;"/><path d="M19.499,19.11c0.941,0.053 1.748,-0.667 1.802,-1.608c0.054,-0.941 -0.667,-1.749 -1.608,-1.802c-0.941,-0.054 -1.749,0.666 -1.802,1.608c-0.054,0.941 0.667,1.748 1.608,1.802Z" style="fill:#8d9f97;"/><path d="M19.082,26.422c0.941,0.054 1.749,-0.667 1.802,-1.608c0.054,-0.941 -0.667,-1.749 -1.608,-1.802c-0.941,-0.054 -1.748,0.667 -1.802,1.608c-0.054,0.941 0.667,1.748 1.608,1.802Z" style="fill:#8d9f97;"/><path d="M18.224,41.472c0.941,0.054 1.748,-0.667 1.802,-1.608c0.054,-0.941 -0.667,-1.748 -1.608,-1.802c-0.941,-0.054 -1.748,0.667 -1.802,1.608c-0.054,0.941 0.667,1.749 1.608,1.802Z" style="fill:#8d9f97;"/><path d="M18.928,48.294c0.941,0.053 1.748,-0.667 1.802,-1.608c0.054,-0.941 -0.667,-1.749 -1.608,-1.803c-0.941,-0.053 -1.749,0.667 -1.802,1.608c-0.054,0.941 0.667,1.749 1.608,1.803Z" style="fill:#8d9f97;"/><path d="M19.653,55.164c0.941,0.054 1.749,-0.666 1.802,-1.607c0.054,-0.942 -0.666,-1.749 -1.607,-1.803c-0.941,-0.053 -1.749,0.667 -1.803,1.608c-0.053,0.941 0.667,1.749 1.608,1.802Z" style="fill:#8d9f97;"/><path d="M18.662,33.786c0.941,0.054 1.749,-0.667 1.802,-1.608c0.054,-0.941 -0.667,-1.749 -1.608,-1.802c-0.941,-0.054 -1.748,0.667 -1.802,1.608c-0.054,0.941 0.667,1.748 1.608,1.802Z" style="fill:#8d9f97;"/></g><g><g opacity="0.3"><path d="M21.711,9.655c-0.879,-0.339 -1.869,0.099 -2.208,0.979c-0.339,0.879 0.1,1.868 0.979,2.208c0.879,0.339 1.869,-0.1 2.208,-0.979c0.339,-0.88 -0.099,-1.869 -0.979,-2.208Z" style="fill:#090705;"/><path d="M19.499,19.11c0.941,0.053 1.748,-0.667 1.802,-1.608c0.054,-0.941 -0.667,-1.749 -1.608,-1.802c-0.941,-0.054 -1.749,0.666 -1.802,1.608c-0.054,0.941 0.667,1.748 1.608,1.802Z" style="fill:#090705;"/><path d="M19.082,26.422c0.941,0.054 1.749,-0.667 1.802,-1.608c0.054,-0.941 -0.667,-1.749 -1.608,-1.802c-0.941,-0.054 -1.748,0.667 -1.802,1.608c-0.054,0.941 0.667,1.748 1.608,1.802Z" style="fill:#090705;"/><path d="M18.224,41.472c0.941,0.054 1.748,-0.667 1.802,-1.608c0.054,-0.941 -0.667,-1.748 -1.608,-1.802c-0.941,-0.054 -1.748,0.667 -1.802,1.608c-0.054,0.941 0.667,1.749 1.608,1.802Z" style="fill:#090705;"/><path d="M18.928,48.294c0.941,0.053 1.748,-0.667 1.802,-1.608c0.054,-0.941 -0.667,-1.749 -1.608,-1.803c-0.941,-0.053 -1.749,0.667 -1.802,1.608c-0.054,0.941 0.667,1.749 1.608,1.803Z" style="fill:#090705;"/><path d="M19.653,55.164c0.941,0.054 1.749,-0.666 1.802,-1.607c0.054,-0.942 -0.666,-1.749 -1.607,-1.803c-0.941,-0.053 -1.749,0.667 -1.803,1.608c-0.053,0.941 0.667,1.749 1.608,1.802Z" style="fill:#090705;"/><path d="M18.662,33.786c0.941,0.054 1.749,-0.667 1.802,-1.608c0.054,-0.941 -0.667,-1.749 -1.608,-1.802c-0.941,-0.054 -1.748,0.667 -1.802,1.608c-0.054,0.941 0.667,1.748 1.608,1.802Z" style="fill:#090705;"/></g></g></g><g><circle cx="28.384" cy="3.872" r="3.548" style="fill:#d57344;"/></g><g><g><g><path d="M11.208,12.308l3.843,4.975l1.775,-2.397l-5.618,-2.578Z" style="fill:#8d9f97;"/><path d="M7.27,18.277l4.5,4.455l1.442,-2.658l-5.942,-1.797Z" style="fill:#8d9f97;"/><path d="M4.079,23.72l6.135,4.541l1.237,-3.027l-7.372,-1.514Z" style="fill:#8d9f97;"/><path d="M0.726,32.063l7.604,2.507l0.392,-2.925l-7.996,0.418Z" style="fill:#8d9f97;"/><path d="M0.718,39.224l7.541,1.463l0.28,-3.142l-7.821,1.679Z" style="fill:#8d9f97;"/><path d="M1.981,47.749l8.384,-0.896l-0.77,-2.6l-7.614,3.496Z" style="fill:#8d9f97;"/><path d="M5,54.563l8.602,-2.239l-0.999,-2.365l-7.603,4.604Z" style="fill:#8d9f97;"/></g><g><g opacity="0.3"><path d="M11.208,12.308l3.843,4.975l1.775,-2.397l-5.618,-2.578Z" style="fill:#090705;"/><path d="M7.27,18.277l4.5,4.455l1.442,-2.658l-5.942,-1.797Z" style="fill:#090705;"/><path d="M4.079,23.72l6.135,4.541l1.237,-3.027l-7.372,-1.514Z" style="fill:#090705;"/><path d="M0.726,32.063l7.604,2.507l0.392,-2.925l-7.996,0.418Z" style="fill:#090705;"/><path d="M0.718,39.224l7.541,1.463l0.28,-3.142l-7.821,1.679Z" style="fill:#090705;"/><path d="M1.981,47.749l8.384,-0.896l-0.77,-2.6l-7.614,3.496Z" style="fill:#090705;"/><path d="M5,54.563l8.602,-2.239l-0.999,-2.365l-7.603,4.604Z" style="fill:#090705;"/></g></g></g><g><path d="M48.335,12.308l-3.843,4.975l-1.774,-2.397l5.617,-2.578Z" style="fill:#8d9f97;"/><path d="M52.273,18.277l-4.5,4.455l-1.442,-2.658l5.942,-1.797Z" style="fill:#8d9f97;"/><path d="M55.464,23.72l-6.135,4.541l-1.236,-3.027l7.371,-1.514Z" style="fill:#8d9f97;"/><path d="M58.817,32.063l-7.604,2.507l-0.391,-2.925l7.995,0.418Z" style="fill:#8d9f97;"/><path d="M58.826,39.224l-7.542,1.463l-0.28,-3.142l7.822,1.679Z" style="fill:#8d9f97;"/><path d="M57.562,47.749l-8.383,-0.896l0.769,-2.6l7.614,3.496Z" style="fill:#8d9f97;"/><path d="M54.543,54.563l-8.602,-2.239l0.999,-2.365l7.603,4.604Z" style="fill:#8d9f97;"/></g></g></g></svg>