<?xml version="1.0" encoding="UTF-8" standalone="no"?><!DOCTYPE svg PUBLIC "-//W3C//DTD SVG 1.1//EN" "http://www.w3.org/Graphics/SVG/1.1/DTD/svg11.dtd"><svg width="100%" height="100%" viewBox="0 0 382 194" version="1.1" xmlns="http://www.w3.org/2000/svg" xmlns:xlink="http://www.w3.org/1999/xlink" xml:space="preserve" xmlns:serif="http://www.serif.com/" style="fill-rule:evenodd;clip-rule:evenodd;stroke-linejoin:round;stroke-miterlimit:1.41421;"><g id="cliff01"><path d="M75.865,0.322l107.331,42.932l53.666,59.033l-42.933,32.199l-96.598,-16.1l-75.132,-91.231l53.666,-26.833Z" style="fill:#8d9f97;"/><path d="M236.862,102.287l53.666,-16.1l53.665,16.1l0,53.665l-107.331,10.733l-42.933,-32.199l42.933,-32.199Z" style="fill:#56685f;"/><path d="M344.193,102.287l37.566,50.982l-26.833,40.249l-10.733,-37.566l0,-53.665Z" style="fill:#8d9f97;"/><path d="M344.193,155.952l10.733,37.566l-139.53,-5.366l21.466,-21.467l107.331,-10.733Z" style="fill:#3e574e;"/><path d="M193.929,134.486l42.933,32.199l-21.466,21.467l-26.833,-13.417l5.366,-40.249" style="fill:#1c433d;"/><path d="M193.929,134.486l-5.366,40.249l-112.698,-2.683l21.466,-53.666l96.598,16.1" style="fill:#56685f;"/><path d="M22.199,27.155l75.132,91.231l-21.466,53.666l-75.132,-37.566l21.466,-107.331Z" style="fill:#3e574e;"/></g></svg>