<?xml version="1.0" encoding="UTF-8" standalone="no"?><!DOCTYPE svg PUBLIC "-//W3C//DTD SVG 1.1//EN" "http://www.w3.org/Graphics/SVG/1.1/DTD/svg11.dtd"><svg width="100%" height="100%" viewBox="0 0 25 40" version="1.1" xmlns="http://www.w3.org/2000/svg" xmlns:xlink="http://www.w3.org/1999/xlink" xml:space="preserve" xmlns:serif="http://www.serif.com/" style="fill-rule:evenodd;clip-rule:evenodd;stroke-linejoin:round;stroke-miterlimit:1.41421;"><g id="flower05"><g><g><path d="M13.348,39.389l2.657,-1.44l1.667,-15.824l-3.341,-9.833l-0.983,1.175l1.402,8.947l-1.402,16.975Z" style="fill:#aa9542;"/><path d="M12.308,11.984l1.491,10.368l-3.108,15.597l2.657,1.44l1.996,-17.298l-1.996,-8.624l-1.04,-1.483Z" style="fill:#836e4b;"/></g><path d="M15.238,31.94l2.133,-0.991l1.304,-4.288l2.616,-1.418l-2.616,-1.825l5.882,0.055l-0.567,5.296l-0.768,3.171l-4.547,-0.132l-2.987,2.232l-0.45,-2.1Z" style="fill:#836e4b;"/><clipPath id="_clip1"><path d="M15.238,31.94l2.133,-0.991l1.304,-4.288l2.616,-1.418l-2.616,-1.825l5.882,0.055l-0.567,5.296l-0.768,3.171l-4.547,-0.132l-2.987,2.232l-0.45,-2.1Z"/></clipPath><g clip-path="url(#_clip1)"><path d="M26.167,22.601l-5.437,2.946l-2.055,-0.081l2.677,-0.256l-3.182,1.724l0.865,3.591l3.873,0.845l7.472,1.634l-5.063,-7.762l-6.391,4.829l6.391,-4.829l0.85,-2.641" style="fill:#aa9542;"/></g><path d="M13.685,24.987l-2.133,-0.99l-0.871,-4.256l-3.049,-1.45l-0.818,0.042l-6.364,2.043l3.251,0.64l1.232,0.801l0.768,3.17l4.547,-0.132l2.987,2.232l0.45,-2.1Z" style="fill:#836e4b;"/><clipPath id="_clip2"><path d="M13.685,24.987l-2.133,-0.99l-0.871,-4.256l-3.049,-1.45l-0.818,0.042l-6.364,2.043l3.251,0.64l1.232,0.801l0.768,3.17l4.547,-0.132l2.987,2.232l0.45,-2.1Z"/></clipPath><g clip-path="url(#_clip2)"><path d="M2.757,15.648l5.256,0.904l2.235,1.962l-1.838,-1.893l4.323,1.761l-2.845,5.191l-3.873,0.844l-3.231,0.896l3.116,-4.901l4.058,3.034l-2.791,-2.087l-1.267,-0.947l-1.1,-1.678l2.676,-0.847l4.723,1.469l-2.202,3.763l3.271,-5.663l-10.511,-1.808" style="fill:#aa9542;"/></g></g><g><path d="M21.644,0.65l-12.107,4.996l0.606,5.07l3.178,0.019l8.323,-10.085" style="fill:#be2035;"/><path d="M21.644,0.65l-0.076,12.668l-4.464,2.507l-3.178,-0.019l-3.783,-5.09l1.286,-2.526l10.215,-7.54Z" style="fill:#be2035;"/><path d="M11.429,8.19l-1.286,2.526l3.783,5.09l3.178,0.019l3.62,-12.101l2.173,-3.067l-1.253,-0.007l-3.397,2.514l2.055,-1.521l-1.836,-1.012l-7.037,7.559" style="fill:#72201f;"/></g></g></svg>