<?xml version="1.0" encoding="UTF-8" standalone="no"?><!DOCTYPE svg PUBLIC "-//W3C//DTD SVG 1.1//EN" "http://www.w3.org/Graphics/SVG/1.1/DTD/svg11.dtd"><svg width="100%" height="100%" viewBox="0 0 27 23" version="1.1" xmlns="http://www.w3.org/2000/svg" xmlns:xlink="http://www.w3.org/1999/xlink" xml:space="preserve" xmlns:serif="http://www.serif.com/" style="fill-rule:evenodd;clip-rule:evenodd;stroke-linejoin:round;stroke-miterlimit:1.41421;"><path id="grass01" d="M20.74,0.772l5.998,16.112l-3.886,2.813l-5.17,-0.226l-5.88,2.94l-3.93,-2.587l-2.832,-1.706l-4.256,-12.302l3.198,2.718l3.89,3.763l-0.754,-7.017l3.214,6.135l1.997,4.63l1.087,-9.457l-1.611,-4.175l4.981,8.591l0.72,4.821l1.624,-0.837l1.61,-14.216Z" style="fill:#836e4b;"/><clipPath id="_clip1"><path d="M20.74,0.772l5.998,16.112l-3.886,2.813l-5.17,-0.226l-5.88,2.94l-3.93,-2.587l-2.832,-1.706l-4.256,-12.302l3.198,2.718l3.89,3.763l-0.754,-7.017l3.214,6.135l1.997,4.63l1.087,-9.457l-1.611,-4.175l4.981,8.591l0.72,4.821l1.624,-0.837l1.61,-14.216Z"/></clipPath><g clip-path="url(#_clip1)"><path d="M20.665,-1.494l2.215,16.72l-4.385,-0.555l-1.709,-12.781l-5.427,0.299l3.383,9.991l0.412,4.351l-2.825,-0.486l-1.57,-8.128l-3.97,-2.472l3.42,8.452l-0.142,3.279l-1.44,-2.056c-0.256,-1.668 -0.941,-3.372 -2.055,-5.11l-6.623,-5.602l4.865,7.207l0.695,3.383l1.588,2.888l3.669,1.834l1.563,1.75c0,0 2.531,2.881 3.825,2.999c1.293,0.117 7.056,-0.059 8.408,-0.588c1.352,-0.529 6.611,-3.888 6.611,-3.888l-3.184,-11.778l-7.324,-9.709Z" style="fill:#aa9542;"/></g></svg>