<?xml version="1.0" encoding="UTF-8" standalone="no"?><!DOCTYPE svg PUBLIC "-//W3C//DTD SVG 1.1//EN" "http://www.w3.org/Graphics/SVG/1.1/DTD/svg11.dtd"><svg width="100%" height="100%" viewBox="0 0 27 41" version="1.1" xmlns="http://www.w3.org/2000/svg" xmlns:xlink="http://www.w3.org/1999/xlink" xml:space="preserve" xmlns:serif="http://www.serif.com/" style="fill-rule:evenodd;clip-rule:evenodd;stroke-linejoin:round;stroke-miterlimit:1.41421;"><g id="mushroom04"><path d="M26.984,18.181l-5.962,5.963l-8.945,1.49l-8.944,-1.49l-2.981,-4.472l0,-5.963l14.907,-1.491l11.925,5.963Z" style="fill:#ff889e;"/><path d="M9.934,17.407l-3.819,20.153l5.962,2.982l0.234,-21.474l-2.377,-1.661Z" style="fill:#3e4e42;"/><path d="M15.059,18.476l0.727,17.23l-3.709,4.836l-0.005,-23.253l2.987,1.187Z" style="fill:#b15553;"/><path d="M14.156,0.682l10.314,15.071l2.514,2.428l-4.49,4.63l-2.818,-1.854l-5.52,-20.275Z" style="fill:#d57344;"/><path d="M19.881,21.197l-4.29,-0.961l-8.647,-0.998l7.117,-18.556l5.82,20.515Z" style="fill:#be2035;"/><path d="M0.152,13.709l0,5.963l6.961,-0.441l6.853,-18.549l-10.833,11.536l-2.981,1.491Z" style="fill:#901241;"/></g></svg>