<?xml version="1.0" encoding="UTF-8" standalone="no"?><!DOCTYPE svg PUBLIC "-//W3C//DTD SVG 1.1//EN" "http://www.w3.org/Graphics/SVG/1.1/DTD/svg11.dtd"><svg width="100%" height="100%" viewBox="0 0 55 49" version="1.1" xmlns="http://www.w3.org/2000/svg" xmlns:xlink="http://www.w3.org/1999/xlink" xml:space="preserve" xmlns:serif="http://www.serif.com/" style="fill-rule:evenodd;clip-rule:evenodd;stroke-linejoin:round;stroke-miterlimit:1.41421;"><g id="rock-highlights06"><g><g><path d="M43.345,0.278l10.733,16.1l-21.466,21.466l10.733,-37.566Z" style="fill:#8d9f97;"/><clipPath id="_clip1"><path d="M43.345,0.278l10.733,16.1l-21.466,21.466l10.733,-37.566Z"/></clipPath><g clip-path="url(#_clip1)"><path d="M54.078,37.844l-0.968,-17.613l-19.58,18.072l1.013,9.71l-4.978,0.244l1.078,-9.428l-19.498,-11.718l-10.733,16.1l9.12,-16.907l-3.753,-17.976l7.266,17.833l19.567,9.932l18.811,-19.237l2.655,-0.478l0,21.466Z" style="fill:#8d9f97;"/></g><path d="M43.345,0.278l-37.566,8.05l5.366,18.783l21.467,10.733l10.733,-37.566" style="fill:#56685f;"/><clipPath id="_clip2"><path d="M43.345,0.278l-37.566,8.05l5.366,18.783l21.467,10.733l10.733,-37.566"/></clipPath><g clip-path="url(#_clip2)"><path d="M54.078,37.844l-0.968,-17.613l-19.58,18.072l1.013,9.71l-4.978,0.244l1.078,-9.428l-19.498,-11.718l-10.733,16.1l9.12,-16.907l-3.753,-17.976l7.266,17.833l19.567,9.932l18.811,-19.237l2.655,-0.478l0,21.466Z" style="fill:#8d9f97;"/></g><path d="M54.078,16.378l0,21.466l-21.466,10.733l0,-10.733l21.466,-21.466Z" style="fill:#56685f;"/><clipPath id="_clip3"><path d="M54.078,16.378l0,21.466l-21.466,10.733l0,-10.733l21.466,-21.466Z"/></clipPath><g clip-path="url(#_clip3)"><path d="M54.078,37.844l-0.968,-17.613l-19.58,18.072l1.013,9.71l-4.978,0.244l1.078,-9.428l-19.498,-11.718l-10.733,16.1l9.12,-16.907l-3.753,-17.976l7.266,17.833l19.567,9.932l18.811,-19.237l2.655,-0.478l0,21.466Z" style="fill:#8d9f97;"/></g><path d="M11.145,27.111l21.467,10.733l0,10.733l-32.2,-5.366l10.733,-16.1Z" style="fill:#3e574e;"/><clipPath id="_clip4"><path d="M11.145,27.111l21.467,10.733l0,10.733l-32.2,-5.366l10.733,-16.1Z"/></clipPath><g clip-path="url(#_clip4)"><path d="M54.078,37.844l-0.968,-17.613l-19.58,18.072l1.013,9.71l-4.978,0.244l1.078,-9.428l-19.498,-11.718l-10.733,16.1l9.12,-16.907l-3.753,-17.976l7.266,17.833l19.567,9.932l18.811,-19.237l2.655,-0.478l0,21.466Z" style="fill:#8d9f97;"/></g><path d="M5.779,8.328l-5.367,34.883l10.733,-16.1l-5.366,-18.783Z" style="fill:#1c433d;"/><clipPath id="_clip5"><path d="M5.779,8.328l-5.367,34.883l10.733,-16.1l-5.366,-18.783Z"/></clipPath><g clip-path="url(#_clip5)"><path d="M54.078,37.844l-0.968,-17.613l-19.58,18.072l1.013,9.71l-4.978,0.244l1.078,-9.428l-19.498,-11.718l-10.733,16.1l9.12,-16.907l-3.753,-17.976l7.266,17.833l19.567,9.932l18.811,-19.237l2.655,-0.478l0,21.466Z" style="fill:#8d9f97;"/></g></g></g></g></svg>