<?xml version="1.0" encoding="UTF-8" standalone="no"?><!DOCTYPE svg PUBLIC "-//W3C//DTD SVG 1.1//EN" "http://www.w3.org/Graphics/SVG/1.1/DTD/svg11.dtd"><svg width="100%" height="100%" viewBox="0 0 77 41" version="1.1" xmlns="http://www.w3.org/2000/svg" xmlns:xlink="http://www.w3.org/1999/xlink" xml:space="preserve" xmlns:serif="http://www.serif.com/" style="fill-rule:evenodd;clip-rule:evenodd;stroke-linejoin:round;stroke-miterlimit:1.41421;"><g id="rock-highlights10"><g><g><path d="M70.679,8.179l-16.099,-8.05l-32.2,0l-16.1,8.05l21.467,16.099l21.466,0c0,0 22.082,-9.395 21.466,-9.395c-0.616,0 0,-6.704 0,-6.704" style="fill:#8d9f97;"/><clipPath id="_clip1"><path d="M70.679,8.179l-16.099,-8.05l-32.2,0l-16.1,8.05l21.467,16.099l21.466,0c0,0 22.082,-9.395 21.466,-9.395c-0.616,0 0,-6.704 0,-6.704"/></clipPath><g clip-path="url(#_clip1)"><path d="M6.28,8.179l19.721,16.972l1.746,15.227l2.529,-14.835l17.34,1.806l1.597,7.662l1.493,-9.986l17.475,-7.363l7.865,3.933l-5.367,-6.902l0,-5.735l-64.399,-0.779Z" style="fill:#8d9f97;"/></g><path d="M70.679,8.179l5.367,2.683l0,10.733l-7.313,-5.891l1.946,-7.525Z" style="fill:#56685f;"/><clipPath id="_clip2"><path d="M70.679,8.179l5.367,2.683l0,10.733l-7.313,-5.891l1.946,-7.525Z"/></clipPath><g clip-path="url(#_clip2)"><path d="M6.28,8.179l19.721,16.972l1.746,15.227l2.529,-14.835l17.34,1.806l1.597,7.662l1.493,-9.986l17.475,-7.363l7.865,3.933l-5.367,-6.902l0,-5.735l-64.399,-0.779Z" style="fill:#8d9f97;"/></g><path d="M68.825,15.689l7.221,5.906l-26.833,13.416l0,-10.733l19.612,-8.589" style="fill:#3e574e;"/><clipPath id="_clip3"><path d="M68.825,15.689l7.221,5.906l-26.833,13.416l0,-10.733l19.612,-8.589"/></clipPath><g clip-path="url(#_clip3)"><path d="M6.28,8.179l19.721,16.972l1.746,15.227l2.529,-14.835l17.34,1.806l1.597,7.662l1.493,-9.986l17.475,-7.363l7.865,3.933l-5.367,-6.902l0,-5.735l-64.399,-0.779Z" style="fill:#8d9f97;"/></g><path d="M49.213,24.278l0,10.733l-21.466,5.367l0,-16.1l21.466,0" style="fill:#3e574e;"/><clipPath id="_clip4"><path d="M49.213,24.278l0,10.733l-21.466,5.367l0,-16.1l21.466,0"/></clipPath><g clip-path="url(#_clip4)"><path d="M6.28,8.179l19.721,16.972l1.746,15.227l2.529,-14.835l17.34,1.806l1.597,7.662l1.493,-9.986l17.475,-7.363l7.865,3.933l-5.367,-6.902l0,-5.735l-64.399,-0.779Z" style="fill:#8d9f97;"/></g><path d="M6.28,8.179l21.467,16.099l0,16.1l-26.833,-13.416l5.366,-18.783Z" style="fill:#1c433d;"/><clipPath id="_clip5"><path d="M6.28,8.179l21.467,16.099l0,16.1l-26.833,-13.416l5.366,-18.783Z"/></clipPath><g clip-path="url(#_clip5)"><path d="M6.28,8.179l19.721,16.972l1.746,15.227l2.529,-14.835l17.34,1.806l1.597,7.662l1.493,-9.986l17.475,-7.363l7.865,3.933l-5.367,-6.902l0,-5.735l-64.399,-0.779Z" style="fill:#8d9f97;"/></g></g></g></g></svg>