<?xml version="1.0" encoding="UTF-8" standalone="no"?><!DOCTYPE svg PUBLIC "-//W3C//DTD SVG 1.1//EN" "http://www.w3.org/Graphics/SVG/1.1/DTD/svg11.dtd"><svg width="100%" height="100%" viewBox="0 0 111 67" version="1.1" xmlns="http://www.w3.org/2000/svg" xmlns:xlink="http://www.w3.org/1999/xlink" xml:space="preserve" xmlns:serif="http://www.serif.com/" style="fill-rule:evenodd;clip-rule:evenodd;stroke-linejoin:round;stroke-miterlimit:1.41421;"><g id="rock-mossy02"><g id="rock-highlights02"><g><g><path d="M61.049,0.762l32.199,5.367l-32.199,26.833l-21.466,-10.734l-10.734,-16.099l10.734,-5.367l21.466,0Z" style="fill:#56685f;"/><clipPath id="_clip1"><path d="M61.049,0.762l32.199,5.367l-32.199,26.833l-21.466,-10.734l-10.734,-16.099l10.734,-5.367l21.466,0Z"/></clipPath><g clip-path="url(#_clip1)"><path d="M82.515,54.428l-21.466,-19.319l-18.708,-8.893l7.975,33.578l-11.503,-31.814l-20.697,26.448l18.097,-32.279l-7.364,-16.02l12.422,14.472l19.778,10.993l29.073,-25.915l3.126,0.45l-10.733,48.299Z" style="fill:#8d9f97;"/></g><path d="M93.248,6.129l10.733,26.833l-21.466,21.466l-21.466,-21.466l32.199,-26.833Z" style="fill:#8d9f97;"/><path d="M61.049,32.962l21.466,21.466l-32.199,5.366l-10.733,-37.566l21.466,10.734Z" style="fill:#3e574e;"/><clipPath id="_clip2"><path d="M61.049,32.962l21.466,21.466l-32.199,5.366l-10.733,-37.566l21.466,10.734Z"/></clipPath><g clip-path="url(#_clip2)"><path d="M82.515,54.428l-21.466,-19.319l-18.708,-8.893l7.975,33.578l-11.503,-31.814l-20.697,26.448l18.097,-32.279l-7.364,-16.02l12.422,14.472l19.778,10.993l29.073,-25.915l3.126,0.45l-10.733,48.299Z" style="fill:#8d9f97;"/></g><path d="M39.583,22.228l-21.467,32.2l32.2,5.366l-10.733,-37.566" style="fill:#1c433d;"/><clipPath id="_clip3"><path d="M39.583,22.228l-21.467,32.2l32.2,5.366l-10.733,-37.566"/></clipPath><g clip-path="url(#_clip3)"><path d="M82.515,54.428l-21.466,-19.319l-18.708,-8.893l7.975,33.578l-11.503,-31.814l-20.697,26.448l18.097,-32.279l-7.364,-16.02l12.422,14.472l19.778,10.993l29.073,-25.915l3.126,0.45l-10.733,48.299Z" style="fill:#8d9f97;"/></g><path d="M28.849,6.129l-16.099,18.783l5.366,29.516l21.467,-32.2l-10.734,-16.099Z" style="fill:#1c433d;"/><clipPath id="_clip4"><path d="M28.849,6.129l-16.099,18.783l5.366,29.516l21.467,-32.2l-10.734,-16.099Z"/></clipPath><g clip-path="url(#_clip4)"><path d="M82.515,54.428l-21.466,-19.319l-18.708,-8.893l7.975,33.578l-11.503,-31.814l-20.697,26.448l18.097,-32.279l-7.364,-16.02l12.422,14.472l19.778,10.993l29.073,-25.915l3.126,0.45l-10.733,48.299Z" style="fill:#8d9f97;"/></g></g></g></g><path d="M96.377,13.951c0,0 5.377,10.607 7.604,12.881c2.228,2.273 4.392,6.279 5.367,8.228c0.975,1.949 1.948,4.114 0,5.197c-1.948,1.082 -7.362,2.49 -9.527,4.114c-2.165,1.624 -13.061,9.34 -14.38,12.411c-1.319,3.071 -8.292,10.217 -8.292,10.217c0,0 -1.167,-0.474 -3.322,-1.969c-2.155,-1.496 -2.815,-2.362 -7.412,-2.47c-4.596,-0.108 -18.083,-0.883 -18.083,-0.883l-7.793,-0.513c0,0 -14.703,-2.316 -15.875,-2.571c-1.171,-0.256 -8.946,-0.079 -11.068,-0.168c-2.121,-0.088 -10.071,0.331 -10.071,0.331c0,0 -4.687,-0.31 -1.508,-4.316c3.179,-4.006 3.205,1.896 3.895,-5.223c0.691,-7.12 2.251,-8.437 1.471,-9.998c-0.78,-1.561 -1.007,-5.87 -1.007,-5.87c0,0 0.011,-2.403 2.609,-2.836c2.598,-0.433 3.765,-4.71 3.765,-4.71l5.366,-1.353l2.454,-1.516c0,0 1.17,6.131 0.368,9.508c-0.802,3.376 -1.011,4.798 -1.231,5.982c-0.22,1.183 -2.499,6.066 0.156,7.035c2.655,0.969 3.606,0.055 6.216,0.512c2.611,0.457 9.162,0.785 9.162,0.785l2.976,-4.009c0,0 4.266,8.141 5.489,9.267c1.224,1.127 -2.31,0.044 1.243,1.668c3.553,1.624 5.367,3.356 5.367,3.356c0,0 1.651,-3.14 1.651,-5.197c0,-2.057 -4.006,-7.362 -4.006,-7.362c0,0 0.047,-2.613 -0.68,-3.742c-0.727,-1.13 -1.335,-3.703 -1.335,-3.703l0.371,-5.181l-1.368,-2.748l1.496,-0.649l1.841,3.356l0.053,3.029c0,0 2.029,2.543 3.099,3.817c1.07,1.274 -0.263,2.614 2.84,3.947c3.102,1.333 7.866,4.148 7.866,4.148c0,0 1.45,0.518 1.321,1.991c-0.13,1.473 -0.883,3.216 1.28,4.727c2.163,1.51 -0.338,2.268 1.67,1.51c2.009,-0.758 3.657,-4.174 3.657,-4.174l0.693,-0.346c0,0 -0.826,-1.543 -0.176,-3.059c0.65,-1.515 1.087,-0.761 1.193,-2.816c0.106,-2.056 -2.149,-4.292 -2.149,-4.292l-5.319,-4.809l-6.609,-1.508l-5.517,-4.555c0,0 -2.243,-2.845 0.933,-2.339c3.177,0.507 3.884,-0.799 5.154,0.016c1.271,0.815 6.044,-0.248 6.044,-0.248l2.096,2.904l0,1.414c0,0 1.467,1.726 2.658,2.484c1.191,0.757 4.186,0.938 4.186,0.938l3.89,3.284c0,0 -0.605,0.866 2.426,0.866c3.032,0 4.439,0.433 6.713,0c2.273,-0.433 8.469,-0.276 8.469,-0.276c0,0 -0.828,-6.436 -1.509,-7.627c-0.681,-1.191 -2.159,-3.432 -2.159,-3.432c0,0 1.325,-3.018 2.159,-4.287c0.835,-1.268 -2.35,-1.159 0,-2.892c2.351,-1.732 5.367,9.203 5.367,9.203l4.346,0.866l-6.584,-16.345Z" style="fill:#836e4b;"/><clipPath id="_clip5"><path d="M96.377,13.951c0,0 5.377,10.607 7.604,12.881c2.228,2.273 4.392,6.279 5.367,8.228c0.975,1.949 1.948,4.114 0,5.197c-1.948,1.082 -7.362,2.49 -9.527,4.114c-2.165,1.624 -13.061,9.34 -14.38,12.411c-1.319,3.071 -8.292,10.217 -8.292,10.217c0,0 -1.167,-0.474 -3.322,-1.969c-2.155,-1.496 -2.815,-2.362 -7.412,-2.47c-4.596,-0.108 -18.083,-0.883 -18.083,-0.883l-7.793,-0.513c0,0 -14.703,-2.316 -15.875,-2.571c-1.171,-0.256 -8.946,-0.079 -11.068,-0.168c-2.121,-0.088 -10.071,0.331 -10.071,0.331c0,0 -4.687,-0.31 -1.508,-4.316c3.179,-4.006 3.205,1.896 3.895,-5.223c0.691,-7.12 2.251,-8.437 1.471,-9.998c-0.78,-1.561 -1.007,-5.87 -1.007,-5.87c0,0 0.011,-2.403 2.609,-2.836c2.598,-0.433 3.765,-4.71 3.765,-4.71l5.366,-1.353l2.454,-1.516c0,0 1.17,6.131 0.368,9.508c-0.802,3.376 -1.011,4.798 -1.231,5.982c-0.22,1.183 -2.499,6.066 0.156,7.035c2.655,0.969 3.606,0.055 6.216,0.512c2.611,0.457 9.162,0.785 9.162,0.785l2.976,-4.009c0,0 4.266,8.141 5.489,9.267c1.224,1.127 -2.31,0.044 1.243,1.668c3.553,1.624 5.367,3.356 5.367,3.356c0,0 1.651,-3.14 1.651,-5.197c0,-2.057 -4.006,-7.362 -4.006,-7.362c0,0 0.047,-2.613 -0.68,-3.742c-0.727,-1.13 -1.335,-3.703 -1.335,-3.703l0.371,-5.181l-1.368,-2.748l1.496,-0.649l1.841,3.356l0.053,3.029c0,0 2.029,2.543 3.099,3.817c1.07,1.274 -0.263,2.614 2.84,3.947c3.102,1.333 7.866,4.148 7.866,4.148c0,0 1.45,0.518 1.321,1.991c-0.13,1.473 -0.883,3.216 1.28,4.727c2.163,1.51 -0.338,2.268 1.67,1.51c2.009,-0.758 3.657,-4.174 3.657,-4.174l0.693,-0.346c0,0 -0.826,-1.543 -0.176,-3.059c0.65,-1.515 1.087,-0.761 1.193,-2.816c0.106,-2.056 -2.149,-4.292 -2.149,-4.292l-5.319,-4.809l-6.609,-1.508l-5.517,-4.555c0,0 -2.243,-2.845 0.933,-2.339c3.177,0.507 3.884,-0.799 5.154,0.016c1.271,0.815 6.044,-0.248 6.044,-0.248l2.096,2.904l0,1.414c0,0 1.467,1.726 2.658,2.484c1.191,0.757 4.186,0.938 4.186,0.938l3.89,3.284c0,0 -0.605,0.866 2.426,0.866c3.032,0 4.439,0.433 6.713,0c2.273,-0.433 8.469,-0.276 8.469,-0.276c0,0 -0.828,-6.436 -1.509,-7.627c-0.681,-1.191 -2.159,-3.432 -2.159,-3.432c0,0 1.325,-3.018 2.159,-4.287c0.835,-1.268 -2.35,-1.159 0,-2.892c2.351,-1.732 5.367,9.203 5.367,9.203l4.346,0.866l-6.584,-16.345Z"/></clipPath><g clip-path="url(#_clip5)"><path d="M93.248,7.02l25.873,29.996l-38.547,35.373l-17.991,-1.738l-14.469,-46.431l38.359,-7.291l6.775,-9.909Z" style="fill:#95c759;fill-opacity:0.5;"/><path d="M111.257,30.215c0,0 -2.65,-1.466 -2.821,0.498c-0.17,1.965 -1.367,4.683 -1.367,4.683l-4.325,2.154l-4.129,-3.573l-1.723,-3.669l-0.452,-3.418l-0.91,0.455c0,0 -1.415,0.398 -0.24,2.162c1.175,1.764 3.325,4.47 3.325,4.47l0,2.559l1.32,4.706l-2.469,1.235l-1.602,0.801l-7.014,-0.892c0,0 -7.036,1.839 -9.076,0.829c-2.039,-1.009 -4.244,-2.122 -4.244,-2.122l-1.133,-3.181l-5.568,-2.583l-7.78,-5.141l-1.72,0.866l9.359,6.618c0,0 5.799,5.291 6.989,6.158c1.191,0.866 1.472,4.872 1.472,4.872l0,5.63c0,0 -0.697,3.931 -1.788,4.564c-1.091,0.632 -7.248,-0.045 -7.248,-0.045l-6.077,-0.622c0,0 -0.65,-3.14 -1.949,-5.955c-1.299,-2.815 -4.405,-6.279 -4.405,-6.279c0,0 -5.719,-2.168 -4.609,-1.788c1.111,0.38 4.609,8.429 4.609,8.429l-0.767,5.75l0.767,1.359c0,0 -2.605,0.487 -4.189,0.352c-1.583,-0.136 -8.296,-0.027 -8.296,-0.027l-1.897,-3.892c0,0 3.979,-2.713 -1.717,-3.904c-5.697,-1.19 -10.775,-2.598 -5.367,-1.19c5.409,1.407 0,4.33 0,4.33l-10.733,-0.108l0,-2.67l-1.345,-4.695c0,0 -6.95,2.537 -6.587,0.729c0.363,-1.809 1.662,-7.006 1.662,-7.006l-0.325,-11.26l-4.138,10.178l0,4.763l-1.356,1.246l-1.233,-12.378l-3.836,-5.198l-9.675,10.204c0,0 -6.178,12.189 -5.366,15.437c0.811,3.248 -6.659,14.508 4.384,14.508c11.043,0 44.429,-1.291 49.281,-0.429c4.853,0.862 37.566,2.684 37.566,2.684l16.1,-15.03c0,0 15.078,-7.687 16.099,-9.961c1.022,-2.274 -3.457,-16.213 -3.457,-16.213Z" style="fill:#aa9542;"/><clipPath id="_clip6"><path d="M111.257,30.215c0,0 -2.65,-1.466 -2.821,0.498c-0.17,1.965 -1.367,4.683 -1.367,4.683l-4.325,2.154l-4.129,-3.573l-1.723,-3.669l-0.452,-3.418l-0.91,0.455c0,0 -1.415,0.398 -0.24,2.162c1.175,1.764 3.325,4.47 3.325,4.47l0,2.559l1.32,4.706l-2.469,1.235l-1.602,0.801l-7.014,-0.892c0,0 -7.036,1.839 -9.076,0.829c-2.039,-1.009 -4.244,-2.122 -4.244,-2.122l-1.133,-3.181l-5.568,-2.583l-7.78,-5.141l-1.72,0.866l9.359,6.618c0,0 5.799,5.291 6.989,6.158c1.191,0.866 1.472,4.872 1.472,4.872l0,5.63c0,0 -0.697,3.931 -1.788,4.564c-1.091,0.632 -7.248,-0.045 -7.248,-0.045l-6.077,-0.622c0,0 -0.65,-3.14 -1.949,-5.955c-1.299,-2.815 -4.405,-6.279 -4.405,-6.279c0,0 -5.719,-2.168 -4.609,-1.788c1.111,0.38 4.609,8.429 4.609,8.429l-0.767,5.75l0.767,1.359c0,0 -2.605,0.487 -4.189,0.352c-1.583,-0.136 -8.296,-0.027 -8.296,-0.027l-1.897,-3.892c0,0 3.979,-2.713 -1.717,-3.904c-5.697,-1.19 -10.775,-2.598 -5.367,-1.19c5.409,1.407 0,4.33 0,4.33l-10.733,-0.108l0,-2.67l-1.345,-4.695c0,0 -6.95,2.537 -6.587,0.729c0.363,-1.809 1.662,-7.006 1.662,-7.006l-0.325,-11.26l-4.138,10.178l0,4.763l-1.356,1.246l-1.233,-12.378l-3.836,-5.198l-9.675,10.204c0,0 -6.178,12.189 -5.366,15.437c0.811,3.248 -6.659,14.508 4.384,14.508c11.043,0 44.429,-1.291 49.281,-0.429c4.853,0.862 37.566,2.684 37.566,2.684l16.1,-15.03c0,0 15.078,-7.687 16.099,-9.961c1.022,-2.274 -3.457,-16.213 -3.457,-16.213Z"/></clipPath><g clip-path="url(#_clip6)"><path d="M93.248,7.02l25.873,29.996l-38.547,35.373l-17.991,-1.738l-14.469,-46.431l38.359,-7.291l6.775,-9.909Z" style="fill:#95c759;fill-opacity:0.5;"/></g><path d="M34.216,32.819l-22.749,29.908l-18.779,-0.06l0.905,-34.529c0,0 10.951,-1.724 13.79,-2.833c2.84,-1.109 21.466,-2.186 21.466,-2.186l5.367,9.7Z" style="fill:#191919;fill-opacity:0.5;"/></g></g></svg>