<?xml version="1.0" encoding="UTF-8" standalone="no"?><!DOCTYPE svg PUBLIC "-//W3C//DTD SVG 1.1//EN" "http://www.w3.org/Graphics/SVG/1.1/DTD/svg11.dtd"><svg width="100%" height="100%" viewBox="0 0 55 60" version="1.1" xmlns="http://www.w3.org/2000/svg" xmlns:xlink="http://www.w3.org/1999/xlink" xml:space="preserve" xmlns:serif="http://www.serif.com/" style="fill-rule:evenodd;clip-rule:evenodd;stroke-linejoin:round;stroke-miterlimit:1.41421;"><g id="rock-highlights11"><g><g><path d="M32.846,10.173l21.467,28.123l-10.733,16.1l-14.221,-46.556l3.487,2.333Z" style="fill:#8d9f97;"/><clipPath id="_clip1"><path d="M32.846,10.173l21.467,28.123l-10.733,16.1l-14.221,-46.556l3.487,2.333Z"/></clipPath><g clip-path="url(#_clip1)"><path d="M43.58,54.396l-14.412,-41.094l-4.956,0.53l-2.099,45.93l-3.255,-46.671l-6.511,-5.033l-11.7,46.338l10.733,-48.299l19.476,3.068l12.724,45.231" style="fill:#8d9f97;"/></g><path d="M29.753,7.643l-7.64,3.82l0,48.299l21.467,-5.366l-13.827,-46.753Z" style="fill:#56685f;"/><clipPath id="_clip2"><path d="M29.753,7.643l-7.64,3.82l0,48.299l21.467,-5.366l-13.827,-46.753Z"/></clipPath><g clip-path="url(#_clip2)"><path d="M43.58,54.396l-14.412,-41.094l-4.956,0.53l-2.099,45.93l-3.255,-46.671l-6.511,-5.033l-11.7,46.338l10.733,-48.299l19.476,3.068l12.724,45.231" style="fill:#8d9f97;"/></g><path d="M32.846,10.178l-10.733,-9.448l-10.733,5.367l10.733,5.366l10.733,-1.285Z" style="fill:#8d9f97;"/><clipPath id="_clip3"><path d="M32.846,10.178l-10.733,-9.448l-10.733,5.367l10.733,5.366l10.733,-1.285Z"/></clipPath><g clip-path="url(#_clip3)"><path d="M43.58,54.396l-14.412,-41.094l-4.956,0.53l-2.099,45.93l-3.255,-46.671l-6.511,-5.033l-11.7,46.338l10.733,-48.299l19.476,3.068l12.724,45.231" style="fill:#8d9f97;"/></g><path d="M11.38,6.097l10.733,5.366l0,48.299l-21.466,-5.366l10.733,-48.299Z" style="fill:#3e574e;"/><clipPath id="_clip4"><path d="M11.38,6.097l10.733,5.366l0,48.299l-21.466,-5.366l10.733,-48.299Z"/></clipPath><g clip-path="url(#_clip4)"><path d="M43.58,54.396l-14.412,-41.094l-4.956,0.53l-2.099,45.93l-3.255,-46.671l-6.511,-5.033l-11.7,46.338l10.733,-48.299l19.476,3.068l12.724,45.231" style="fill:#8d9f97;"/></g></g></g></g></svg>