<?xml version="1.0" encoding="UTF-8" standalone="no"?><!DOCTYPE svg PUBLIC "-//W3C//DTD SVG 1.1//EN" "http://www.w3.org/Graphics/SVG/1.1/DTD/svg11.dtd"><svg width="100%" height="100%" viewBox="0 0 141 87" version="1.1" xmlns="http://www.w3.org/2000/svg" xmlns:xlink="http://www.w3.org/1999/xlink" xml:space="preserve" xmlns:serif="http://www.serif.com/" style="fill-rule:evenodd;clip-rule:evenodd;stroke-linejoin:round;stroke-miterlimit:1.41421;"><g id="rock-runes-highlights07"><g id="rock-highlights07"><g><g><path d="M97.31,10.919l32.199,16.099l-21.466,32.2l-42.933,10.733l-42.932,-32.199l21.466,-32.2l42.932,-5.366l10.734,10.733Z" style="fill:#8d9f97;"/><clipPath id="_clip1"><path d="M97.31,10.919l32.199,16.099l-21.466,32.2l-42.933,10.733l-42.932,-32.199l21.466,-32.2l42.932,-5.366l10.734,10.733Z"/></clipPath><g clip-path="url(#_clip1)"><path d="M102.676,51.168l-21.466,-24.152l-7.97,4.068l7.97,25.451l-12.445,-25.977l-7.231,-3.182l-7.157,26.475l3.567,-28.616l-5.192,-13.504l4.705,-4.639l2.287,17.243l10.733,3.521l8.401,-4.687l2.332,-20.3l28.324,48.627l25.341,26.505l-26.832,-14.985l-39.976,8.414l-13.69,14.621l7.575,-14.521l-39.774,-33.778l10.733,6.304l35.823,15.84c0,0 25.32,-2.4 26.88,-2.64c1.56,-0.24 7.062,-6.088 7.062,-6.088Z" style="fill:#8d9f97;"/></g><path d="M129.509,27.018l10.733,16.1l-5.367,34.883l-26.832,-18.783l21.466,-32.2Z" style="fill:#8d9f97;"/><clipPath id="_clip2"><path d="M129.509,27.018l10.733,16.1l-5.367,34.883l-26.832,-18.783l21.466,-32.2Z"/></clipPath><g clip-path="url(#_clip2)"><path d="M102.676,51.168l-21.466,-24.152l-7.97,4.068l7.97,25.451l-12.445,-25.977l-7.231,-3.182l-7.157,26.475l3.567,-28.616l-5.192,-13.504l4.705,-4.639l2.287,17.243l10.733,3.521l8.401,-4.687l2.332,-20.3l28.324,48.627l25.341,26.505l-26.832,-14.985l-39.976,8.414l-13.69,14.621l7.575,-14.521l-39.774,-33.778l10.733,6.304l35.823,15.84c0,0 25.32,-2.4 26.88,-2.64c1.56,-0.24 7.062,-6.088 7.062,-6.088Z" style="fill:#8d9f97;"/></g><path d="M108.043,59.218l26.832,18.783l-80.498,8.05l10.733,-16.1l42.933,-10.733Z" style="fill:#56685f;"/><clipPath id="_clip3"><path d="M108.043,59.218l26.832,18.783l-80.498,8.05l10.733,-16.1l42.933,-10.733Z"/></clipPath><g clip-path="url(#_clip3)"><path d="M102.676,51.168l-21.466,-24.152l-7.97,4.068l7.97,25.451l-12.445,-25.977l-7.231,-3.182l-7.157,26.475l3.567,-28.616l-5.192,-13.504l4.705,-4.639l2.287,17.243l10.733,3.521l8.401,-4.687l2.332,-20.3l28.324,48.627l25.341,26.505l-26.832,-14.985l-39.976,8.414l-13.69,14.621l7.575,-14.521l-39.774,-33.778l10.733,6.304l35.823,15.84c0,0 25.32,-2.4 26.88,-2.64c1.56,-0.24 7.062,-6.088 7.062,-6.088Z" style="fill:#8d9f97;"/></g><path d="M22.178,37.752l-21.467,42.932l53.666,5.367l10.733,-16.1l-42.932,-32.199Z" style="fill:#3e574e;"/><clipPath id="_clip4"><path d="M22.178,37.752l-21.467,42.932l53.666,5.367l10.733,-16.1l-42.932,-32.199Z"/></clipPath><g clip-path="url(#_clip4)"><path d="M102.676,51.168l-21.466,-24.152l-7.97,4.068l7.97,25.451l-12.445,-25.977l-7.231,-3.182l-7.157,26.475l3.567,-28.616l-5.192,-13.504l4.705,-4.639l2.287,17.243l10.733,3.521l8.401,-4.687l2.332,-20.3l28.324,48.627l25.341,26.505l-26.832,-14.985l-39.976,8.414l-13.69,14.621l7.575,-14.521l-39.774,-33.778l10.733,6.304l35.823,15.84c0,0 25.32,-2.4 26.88,-2.64c1.56,-0.24 7.062,-6.088 7.062,-6.088Z" style="fill:#8d9f97;"/></g><path d="M81.21,2.869l-26.833,8.05l5.367,13.416l10.733,5.367l10.733,-5.367l0,-21.466Z" style="fill:#56685f;"/><clipPath id="_clip5"><path d="M81.21,2.869l-26.833,8.05l5.367,13.416l10.733,5.367l10.733,-5.367l0,-21.466Z"/></clipPath><g clip-path="url(#_clip5)"><path d="M102.676,51.168l-21.466,-24.152l-7.97,4.068l7.97,25.451l-12.445,-25.977l-7.231,-3.182l-7.157,26.475l3.567,-28.616l-5.192,-13.504l4.705,-4.639l2.287,17.243l10.733,3.521l8.401,-4.687l2.332,-20.3l28.324,48.627l25.341,26.505l-26.832,-14.985l-39.976,8.414l-13.69,14.621l7.575,-14.521l-39.774,-33.778l10.733,6.304l35.823,15.84c0,0 25.32,-2.4 26.88,-2.64c1.56,-0.24 7.062,-6.088 7.062,-6.088Z" style="fill:#8d9f97;"/></g><path d="M81.21,2.869l26.833,24.149l-5.367,24.15l-21.466,-26.833l0,-21.466Z" style="fill:#8d9f97;"/><clipPath id="_clip6"><path d="M81.21,2.869l26.833,24.149l-5.367,24.15l-21.466,-26.833l0,-21.466Z"/></clipPath><g clip-path="url(#_clip6)"><path d="M102.676,51.168l-21.466,-24.152l-7.97,4.068l7.97,25.451l-12.445,-25.977l-7.231,-3.182l-7.157,26.475l3.567,-28.616l-5.192,-13.504l4.705,-4.639l2.287,17.243l10.733,3.521l8.401,-4.687l2.332,-20.3l28.324,48.627l25.341,26.505l-26.832,-14.985l-39.976,8.414l-13.69,14.621l7.575,-14.521l-39.774,-33.778l10.733,6.304l35.823,15.84c0,0 25.32,-2.4 26.88,-2.64c1.56,-0.24 7.062,-6.088 7.062,-6.088Z" style="fill:#8d9f97;"/></g><path d="M81.21,24.335l21.466,26.833l-21.466,5.367l-10.733,-26.833l10.733,-5.367Z" style="fill:#56685f;"/><clipPath id="_clip7"><path d="M81.21,24.335l21.466,26.833l-21.466,5.367l-10.733,-26.833l10.733,-5.367Z"/></clipPath><g clip-path="url(#_clip7)"><path d="M102.676,51.168l-21.466,-24.152l-7.97,4.068l7.97,25.451l-12.445,-25.977l-7.231,-3.182l-7.157,26.475l3.567,-28.616l-5.192,-13.504l4.705,-4.639l2.287,17.243l10.733,3.521l8.401,-4.687l2.332,-20.3l28.324,48.627l25.341,26.505l-26.832,-14.985l-39.976,8.414l-13.69,14.621l7.575,-14.521l-39.774,-33.778l10.733,6.304l35.823,15.84c0,0 25.32,-2.4 26.88,-2.64c1.56,-0.24 7.062,-6.088 7.062,-6.088Z" style="fill:#8d9f97;"/></g><path d="M70.477,29.702l10.733,26.833l-26.833,-2.684l5.367,-29.516l10.733,5.367Z" style="fill:#3e574e;"/><clipPath id="_clip8"><path d="M70.477,29.702l10.733,26.833l-26.833,-2.684l5.367,-29.516l10.733,5.367Z"/></clipPath><g clip-path="url(#_clip8)"><path d="M102.676,51.168l-21.466,-24.152l-7.97,4.068l7.97,25.451l-12.445,-25.977l-7.231,-3.182l-7.157,26.475l3.567,-28.616l-5.192,-13.504l4.705,-4.639l2.287,17.243l10.733,3.521l8.401,-4.687l2.332,-20.3l28.324,48.627l25.341,26.505l-26.832,-14.985l-39.976,8.414l-13.69,14.621l7.575,-14.521l-39.774,-33.778l10.733,6.304l35.823,15.84c0,0 25.32,-2.4 26.88,-2.64c1.56,-0.24 7.062,-6.088 7.062,-6.088Z" style="fill:#8d9f97;"/></g><path d="M54.377,10.919l-16.1,8.05l-5.366,24.149l21.466,10.733l5.367,-29.516l-5.367,-13.416Z" style="fill:#1c433d;"/><clipPath id="_clip9"><path d="M54.377,10.919l-16.1,8.05l-5.366,24.149l21.466,10.733l5.367,-29.516l-5.367,-13.416Z"/></clipPath><g clip-path="url(#_clip9)"><path d="M102.676,51.168l-21.466,-24.152l-7.97,4.068l7.97,25.451l-12.445,-25.977l-7.231,-3.182l-7.157,26.475l3.567,-28.616l-5.192,-13.504l4.705,-4.639l2.287,17.243l10.733,3.521l8.401,-4.687l2.332,-20.3l28.324,48.627l25.341,26.505l-26.832,-14.985l-39.976,8.414l-13.69,14.621l7.575,-14.521l-39.774,-33.778l10.733,6.304l35.823,15.84c0,0 25.32,-2.4 26.88,-2.64c1.56,-0.24 7.062,-6.088 7.062,-6.088Z" style="fill:#8d9f97;"/></g></g></g></g><path d="M138.239,57.888l-8.73,-20.465l-10.733,5.367l-11.732,-11.232l-1.396,7.063l9.279,10.259l14.582,-7.851l7.93,21.825l0.8,-4.966Z" style="fill:#13190f;fill-opacity:0.65;"/><path d="M106.051,25.694l-7.531,1.601l-3.372,-7.052l-8.572,-5.797l-2.923,8.339l4.831,10.226l-0.924,-9.592l0.804,-2.989l5.287,2.723l2.543,8.346l1.116,9.978l1.41,2.018l0.032,-12.16l3.924,-1.962l5.367,0.439l0,-3.122l-1.992,-0.996" style="fill:#13190f;fill-opacity:0.65;"/><path d="M108.043,80.356l5.366,-13.417l-26.833,-2.683l0,-5.366l-19.871,-0.798l-23.061,-4.569l-10.733,0l-5.367,-8.05l1.502,9.982l-13.19,6.595l-4.411,12.939l10.733,5.367l-4.241,2.12l14.974,1.511l-5.367,-6.314l-10.733,-5.367l5.367,-8.05l10.733,-5.366l10.733,2.103l5.366,18.395l5.367,6.334l0,-7.231l-3.719,-9.31l-1.648,-6.729l2.941,-2.35l16.354,5.752l12.905,-2.617l1.94,2.732l7.396,1.669l17.497,1.985l-10.733,12.569l10.733,-1.836" style="fill:#13190f;fill-opacity:0.65;"/><path d="M99.039,52.658l-14.637,-19.514l-11.927,0.597l-7.365,9.049l-6.088,-13.777l-4.645,-7.689l-10.733,5.366l5.366,18.783l-0.921,-15.639l6.288,-3.144l10.733,19.722l9.063,-8.154l8.697,1.018l8.055,14.651l8.114,-1.269Z" style="fill:#13190f;fill-opacity:0.65;"/></g></svg>