<?xml version="1.0" encoding="UTF-8" standalone="no"?><!DOCTYPE svg PUBLIC "-//W3C//DTD SVG 1.1//EN" "http://www.w3.org/Graphics/SVG/1.1/DTD/svg11.dtd"><svg width="100%" height="100%" viewBox="0 0 96 88" version="1.1" xmlns="http://www.w3.org/2000/svg" xmlns:xlink="http://www.w3.org/1999/xlink" xml:space="preserve" xmlns:serif="http://www.serif.com/" style="fill-rule:evenodd;clip-rule:evenodd;stroke-linejoin:round;stroke-miterlimit:1.41421;"><g id="rock-mossy12"><g id="rock-highlights12"><g><g><path d="M65.078,21.513l16.1,8.05l-10.733,26.833l-21.467,-10.733l16.1,-24.15Z" style="fill:#56685f;"/><clipPath id="_clip1"><path d="M65.078,21.513l16.1,8.05l-10.733,26.833l-21.467,-10.733l16.1,-24.15Z"/></clipPath><g clip-path="url(#_clip1)"><path d="M81.178,29.563l-11.513,23.91l-17.481,-8.543l12.894,-23.417l-10.733,-21.466l-7.119,39.373l-27.948,-31.667l-2.499,0.344l29.156,37.228l-29.156,26.024l0,1.146l32.199,-23.531l19.354,8.488l-8.621,25.776l11.852,-24.06l20.348,7.961l-19.212,-11.86l8.479,-25.706Z" style="fill:#8d9f97;"/></g><path d="M81.178,29.563l10.733,26.833l0,10.733l-21.466,-10.733l10.733,-26.833Z" style="fill:#8d9f97;"/><clipPath id="_clip2"><path d="M81.178,29.563l10.733,26.833l0,10.733l-21.466,-10.733l10.733,-26.833Z"/></clipPath><g clip-path="url(#_clip2)"><path d="M81.178,29.563l-11.513,23.91l-17.481,-8.543l12.894,-23.417l-10.733,-21.466l-7.119,39.373l-27.948,-31.667l-2.499,0.344l29.156,37.228l-29.156,26.024l0,1.146l32.199,-23.531l19.354,8.488l-8.621,25.776l11.852,-24.06l20.348,7.961l-19.212,-11.86l8.479,-25.706Z" style="fill:#8d9f97;"/></g><path d="M70.445,56.396l21.466,10.733l0,10.733l-32.2,5.366l10.734,-26.832" style="fill:#56685f;"/><clipPath id="_clip3"><path d="M70.445,56.396l21.466,10.733l0,10.733l-32.2,5.366l10.734,-26.832"/></clipPath><g clip-path="url(#_clip3)"><path d="M81.178,29.563l-11.513,23.91l-17.481,-8.543l12.894,-23.417l-10.733,-21.466l-7.119,39.373l-27.948,-31.667l-2.499,0.344l29.156,37.228l-29.156,26.024l0,1.146l32.199,-23.531l19.354,8.488l-8.621,25.776l11.852,-24.06l20.348,7.961l-19.212,-11.86l8.479,-25.706Z" style="fill:#8d9f97;"/></g><path d="M70.445,56.396l-10.734,26.832l-32.199,0l-10.733,-10.733l32.199,-26.832l21.467,10.733Z" style="fill:#3e574e;"/><clipPath id="_clip4"><path d="M70.445,56.396l-10.734,26.832l-32.199,0l-10.733,-10.733l32.199,-26.832l21.467,10.733Z"/></clipPath><g clip-path="url(#_clip4)"><path d="M81.178,29.563l-11.513,23.91l-17.481,-8.543l12.894,-23.417l-10.733,-21.466l-7.119,39.373l-27.948,-31.667l-2.499,0.344l29.156,37.228l-29.156,26.024l0,1.146l32.199,-23.531l19.354,8.488l-8.621,25.776l11.852,-24.06l20.348,7.961l-19.212,-11.86l8.479,-25.706Z" style="fill:#8d9f97;"/></g><path d="M59.711,8.097l-5.366,-8.05l-5.367,45.616l16.1,-24.15l-5.367,-13.416Z" style="fill:#8d9f97;"/><clipPath id="_clip5"><path d="M59.711,8.097l-5.366,-8.05l-5.367,45.616l16.1,-24.15l-5.367,-13.416Z"/></clipPath><g clip-path="url(#_clip5)"><path d="M81.178,29.563l-11.513,23.91l-17.481,-8.543l12.894,-23.417l-10.733,-21.466l-7.119,39.373l-27.948,-31.667l-2.499,0.344l29.156,37.228l-29.156,26.024l0,1.146l32.199,-23.531l19.354,8.488l-8.621,25.776l11.852,-24.06l20.348,7.961l-19.212,-11.86l8.479,-25.706Z" style="fill:#8d9f97;"/></g><path d="M54.345,0.047l-26.833,2.683l-10.733,5.367l32.199,37.566l5.367,-45.616Z" style="fill:#56685f;"/><clipPath id="_clip6"><path d="M54.345,0.047l-26.833,2.683l-10.733,5.367l32.199,37.566l5.367,-45.616Z"/></clipPath><g clip-path="url(#_clip6)"><path d="M81.178,29.563l-11.513,23.91l-17.481,-8.543l12.894,-23.417l-10.733,-21.466l-7.119,39.373l-27.948,-31.667l-2.499,0.344l29.156,37.228l-29.156,26.024l0,1.146l32.199,-23.531l19.354,8.488l-8.621,25.776l11.852,-24.06l20.348,7.961l-19.212,-11.86l8.479,-25.706Z" style="fill:#8d9f97;"/></g><path d="M16.779,8.097l-10.733,48.299l10.733,16.099l32.199,-26.832l-32.199,-37.566" style="fill:#1c433d;"/><clipPath id="_clip7"><path d="M16.779,8.097l-10.733,48.299l10.733,16.099l32.199,-26.832l-32.199,-37.566"/></clipPath><g clip-path="url(#_clip7)"><path d="M81.178,29.563l-11.513,23.91l-17.481,-8.543l12.894,-23.417l-10.733,-21.466l-7.119,39.373l-27.948,-31.667l-2.499,0.344l29.156,37.228l-29.156,26.024l0,1.146l32.199,-23.531l19.354,8.488l-8.621,25.776l11.852,-24.06l20.348,7.961l-19.212,-11.86l8.479,-25.706Z" style="fill:#8d9f97;"/></g></g></g></g><path d="M90.071,68.94l1.84,-0.92l0,-10.733l3.084,1.542l0.641,16.42l-1.384,2.333l0.91,2.797l-5.715,2.509c0,0 2.3,1.253 -1.463,0.835c-3.764,-0.418 -8.712,-0.557 -8.712,-0.557l-3.461,-0.14l-5.366,1.093c0,0 -4.159,0.162 -5.367,0.998c-1.209,0.836 0.324,-0.556 -3.091,0.14c-3.414,0.696 6.809,-1.299 -5.481,0.465c-12.29,1.765 -12.894,1.081 -12.894,1.081c0,0 -3.113,1.102 -5.367,1.102c-2.253,0 -3.996,-0.417 -3.996,-0.417l-3.057,0.158l-6.049,-2.342c0,0 0.534,1.486 -1.697,-1.72c-2.23,-3.206 -2.287,-2.953 -4.419,-3.707c-2.132,-0.754 -1.11,4.081 -2.248,-1.124c-1.138,-5.205 -1.181,-5.957 -1.181,-5.957c0,0 -2.997,-2.229 -6.635,-3.317c-3.637,-1.089 -4.906,-2.454 -4.906,-2.454l-1.45,-0.725l0.01,-1.933l-0.776,-2.389c0,0 -2.184,0.165 -1.162,-2.008c1.023,-2.173 2.137,-1.614 1.928,-4.403c-0.208,-2.788 -0.208,-4.182 -0.208,-4.182l3.647,-7.806l3.746,-3.913l-2.192,10.231l2.748,-3.595l5.514,-0.207c0,0 2.241,-0.63 2.255,1.128c0.013,1.757 -0.914,1.4 0.799,4.754c1.712,3.354 3.229,4.496 3.229,4.496l5.367,-3.14c0,0 1.716,2.355 2.697,2.605c0.982,0.25 4.836,-0.251 4.836,-0.251l1.285,0.642l3.934,7.334c0,0 -3.266,3.211 -3.815,5.255c-0.548,2.043 -1.494,2.079 0.977,4.059c2.472,1.98 2.775,2.962 9.198,3.229c6.423,0.268 10.232,-1.392 10.232,-1.392l4.468,-0.621c0,0 -1.036,-0.069 0.607,0.303c1.643,0.372 2.034,1.017 2.034,1.017c0,0 0.101,-0.106 2.174,0.026c2.074,0.132 -0.067,0.132 3.323,0.132c3.39,0 0.771,-0.063 7.21,-0.032c6.439,0.032 6.548,-0.097 9.214,0.102c2.666,0.198 0.396,-3.468 1.933,-4.401c1.536,-0.932 2.252,-2.4 2.252,-2.4Z" style="fill:#836e4b;"/><clipPath id="_clip8"><path d="M90.071,68.94l1.84,-0.92l0,-10.733l3.084,1.542l0.641,16.42l-1.384,2.333l0.91,2.797l-5.715,2.509c0,0 2.3,1.253 -1.463,0.835c-3.764,-0.418 -8.712,-0.557 -8.712,-0.557l-3.461,-0.14l-5.366,1.093c0,0 -4.159,0.162 -5.367,0.998c-1.209,0.836 0.324,-0.556 -3.091,0.14c-3.414,0.696 6.809,-1.299 -5.481,0.465c-12.29,1.765 -12.894,1.081 -12.894,1.081c0,0 -3.113,1.102 -5.367,1.102c-2.253,0 -3.996,-0.417 -3.996,-0.417l-3.057,0.158l-6.049,-2.342c0,0 0.534,1.486 -1.697,-1.72c-2.23,-3.206 -2.287,-2.953 -4.419,-3.707c-2.132,-0.754 -1.11,4.081 -2.248,-1.124c-1.138,-5.205 -1.181,-5.957 -1.181,-5.957c0,0 -2.997,-2.229 -6.635,-3.317c-3.637,-1.089 -4.906,-2.454 -4.906,-2.454l-1.45,-0.725l0.01,-1.933l-0.776,-2.389c0,0 -2.184,0.165 -1.162,-2.008c1.023,-2.173 2.137,-1.614 1.928,-4.403c-0.208,-2.788 -0.208,-4.182 -0.208,-4.182l3.647,-7.806l3.746,-3.913l-2.192,10.231l2.748,-3.595l5.514,-0.207c0,0 2.241,-0.63 2.255,1.128c0.013,1.757 -0.914,1.4 0.799,4.754c1.712,3.354 3.229,4.496 3.229,4.496l5.367,-3.14c0,0 1.716,2.355 2.697,2.605c0.982,0.25 4.836,-0.251 4.836,-0.251l1.285,0.642l3.934,7.334c0,0 -3.266,3.211 -3.815,5.255c-0.548,2.043 -1.494,2.079 0.977,4.059c2.472,1.98 2.775,2.962 9.198,3.229c6.423,0.268 10.232,-1.392 10.232,-1.392l4.468,-0.621c0,0 -1.036,-0.069 0.607,0.303c1.643,0.372 2.034,1.017 2.034,1.017c0,0 0.101,-0.106 2.174,0.026c2.074,0.132 -0.067,0.132 3.323,0.132c3.39,0 0.771,-0.063 7.21,-0.032c6.439,0.032 6.548,-0.097 9.214,0.102c2.666,0.198 0.396,-3.468 1.933,-4.401c1.536,-0.932 2.252,-2.4 2.252,-2.4Z"/></clipPath><g clip-path="url(#_clip8)"><path d="M99.713,61.188l-10.696,-9.134l-18.572,14.636l-5.367,4.013l-5.367,18.783l37.566,-4.851l2.436,-23.447" style="fill:#95c759;fill-opacity:0.5;"/><path d="M97.277,57.233l-3.329,4.401l0.279,10.594l-2.316,2.958l-2.952,3.457l-5.464,2.676l-7.684,1.115l-10.733,0.781c0,0 -8.212,-0.824 -9.673,-1.249c-1.46,-0.424 -2.319,-1.159 -2.319,-1.159c0,0 -0.817,-1.055 -6.335,-0.94c-5.519,0.114 -8.506,0.114 -8.506,0.114c0,0 -0.327,2.068 -2.74,0.142c-2.413,-1.926 -3.161,-3.107 -4.46,-4.97c-1.298,-1.863 -3.533,-2.755 -3.533,-2.755c0,0 -4.01,0.892 -2.003,-1.338c2.007,-2.23 4.091,-4.084 4.091,-4.084l0.258,-1.269l0.446,-2.676c0,0 -0.455,-0.867 -2.792,-0.378c-2.337,0.49 -5.367,3.947 -5.367,3.947l0,1.115c0,0 -1.542,4.683 -1.877,0.111c-0.334,-4.572 -0.403,-6.716 -0.403,-6.716c0,0 0.515,-1.09 -1.716,-2.093c-2.23,-1.004 -6.226,-1.216 -6.737,0.953c-0.511,2.169 0,5.366 0,5.366c0,0 -4.758,-2.193 -5.366,-5.427c-0.609,-3.234 0,-5.353 0,-5.353l0,-4.349l-7.167,-0.07l-3.566,12.516c0,0 15.384,13.983 16.099,14.652c0.716,0.669 12.425,12.489 12.425,12.489l39.252,0.112l32.538,-2.278l4.634,-10.067l-2.984,-20.328Z" style="fill:#aa9542;"/><clipPath id="_clip9"><path d="M97.277,57.233l-3.329,4.401l0.279,10.594l-2.316,2.958l-2.952,3.457l-5.464,2.676l-7.684,1.115l-10.733,0.781c0,0 -8.212,-0.824 -9.673,-1.249c-1.46,-0.424 -2.319,-1.159 -2.319,-1.159c0,0 -0.817,-1.055 -6.335,-0.94c-5.519,0.114 -8.506,0.114 -8.506,0.114c0,0 -0.327,2.068 -2.74,0.142c-2.413,-1.926 -3.161,-3.107 -4.46,-4.97c-1.298,-1.863 -3.533,-2.755 -3.533,-2.755c0,0 -4.01,0.892 -2.003,-1.338c2.007,-2.23 4.091,-4.084 4.091,-4.084l0.258,-1.269l0.446,-2.676c0,0 -0.455,-0.867 -2.792,-0.378c-2.337,0.49 -5.367,3.947 -5.367,3.947l0,1.115c0,0 -1.542,4.683 -1.877,0.111c-0.334,-4.572 -0.403,-6.716 -0.403,-6.716c0,0 0.515,-1.09 -1.716,-2.093c-2.23,-1.004 -6.226,-1.216 -6.737,0.953c-0.511,2.169 0,5.366 0,5.366c0,0 -4.758,-2.193 -5.366,-5.427c-0.609,-3.234 0,-5.353 0,-5.353l0,-4.349l-7.167,-0.07l-3.566,12.516c0,0 15.384,13.983 16.099,14.652c0.716,0.669 12.425,12.489 12.425,12.489l39.252,0.112l32.538,-2.278l4.634,-10.067l-2.984,-20.328Z"/></clipPath><g clip-path="url(#_clip9)"><path d="M99.713,61.188l-10.696,-9.134l-18.572,14.636l-5.367,4.013l-5.367,18.783l37.566,-4.851l2.436,-23.447" style="fill:#95c759;fill-opacity:0.5;"/></g><path d="M31.676,75.558l13.663,-9.913l-18.511,-21.078l-5.05,-6.063l-25.505,-7.935l3.162,39.497l32.241,5.492" style="fill:#191919;fill-opacity:0.5;"/></g></g></svg>