<?xml version="1.0" encoding="UTF-8" standalone="no"?><!DOCTYPE svg PUBLIC "-//W3C//DTD SVG 1.1//EN" "http://www.w3.org/Graphics/SVG/1.1/DTD/svg11.dtd"><svg width="100%" height="100%" viewBox="0 0 68 56" version="1.1" xmlns="http://www.w3.org/2000/svg" xmlns:xlink="http://www.w3.org/1999/xlink" xml:space="preserve" xmlns:serif="http://www.serif.com/" style="fill-rule:evenodd;clip-rule:evenodd;stroke-linejoin:round;stroke-miterlimit:1.41421;"><g id="rock09"><g><path d="M24.473,0.437l14.694,4.409l-5.878,14.694l-17.633,2.939l-5.877,-14.694l14.694,-7.348Z" style="fill:#56685f;"/><path d="M39.167,4.846l11.755,11.755l0,11.755l-17.633,-8.816l5.878,-14.694" style="fill:#8d9f97;"/><path d="M33.289,19.54l17.633,8.816l-17.633,8.817l-23.51,0l5.877,-14.694l17.633,-2.939Z" style="fill:#3e574e;"/><path d="M9.779,7.785l5.877,14.694l-5.877,14.694l-8.817,-19.103l8.817,-10.285Z" style="fill:#1c433d;"/></g><g><path d="M50.922,8.478l16.1,21.092l-8.05,12.075l-10.665,-34.917l2.615,1.75Z" style="fill:#8d9f97;"/><path d="M48.602,6.581l-5.729,2.865l0,36.224l16.099,-4.025l-10.37,-35.064Z" style="fill:#56685f;"/><path d="M50.922,8.482l-8.049,-7.086l-8.05,4.025l8.05,4.025l8.049,-0.964Z" style="fill:#8d9f97;"/><path d="M34.823,5.421l8.05,4.025l0,36.224l-16.1,-4.025l8.05,-36.224Z" style="fill:#3e574e;"/></g><g><path d="M27.348,15.1l10.733,5.366l0,10.733l-5.367,2.684l-10.733,-10.733l5.367,-8.05Z" style="fill:#8d9f97;"/><path d="M38.081,31.199l10.733,16.1l-16.1,8.05l-10.733,-5.367l10.733,-16.099l5.367,-2.684Z" style="fill:#56685f;"/><path d="M32.714,33.883l-10.733,16.099l-5.366,-8.049l5.366,-18.783l10.733,10.733Z" style="fill:#3e574e;"/><path d="M38.081,20.466l10.733,26.833l-10.733,-16.1l0,-10.733Z" style="fill:#8d9f97;"/></g></g></svg>