<?xml version="1.0" encoding="UTF-8" standalone="no"?><!DOCTYPE svg PUBLIC "-//W3C//DTD SVG 1.1//EN" "http://www.w3.org/Graphics/SVG/1.1/DTD/svg11.dtd"><svg width="100%" height="100%" viewBox="0 0 65 45" version="1.1" xmlns="http://www.w3.org/2000/svg" xmlns:xlink="http://www.w3.org/1999/xlink" xml:space="preserve" xmlns:serif="http://www.serif.com/" style="fill-rule:evenodd;clip-rule:evenodd;stroke-linejoin:round;stroke-miterlimit:1.41421;"><g id="rock-mossy05"><g id="rock-highlights05"><g><g><path d="M33.213,0.378l21.466,0l-10.733,21.466l-21.466,-10.733l10.733,-10.733Z" style="fill:#56685f;"/><clipPath id="_clip1"><path d="M33.213,0.378l21.466,0l-10.733,21.466l-21.466,-10.733l10.733,-10.733Z"/></clipPath><g clip-path="url(#_clip1)"><path d="M60.046,35.261l-16.1,-10.567l-16.1,10.567l12.362,-13.098l-17.728,-11.052l21.466,7.677l10.733,-18.41l-5.366,21.363l10.733,13.52Z" style="fill:#8d9f97;"/></g><path d="M54.679,0.378l5.367,13.416l0,21.467l-16.1,-13.417l10.733,-21.466Z" style="fill:#8d9f97;"/><clipPath id="_clip2"><path d="M54.679,0.378l5.367,13.416l0,21.467l-16.1,-13.417l10.733,-21.466Z"/></clipPath><g clip-path="url(#_clip2)"><path d="M60.046,35.261l-16.1,-10.567l-16.1,10.567l12.362,-13.098l-17.728,-11.052l21.466,7.677l10.733,-18.41l-5.366,21.363l10.733,13.52Z" style="fill:#8d9f97;"/></g><path d="M60.046,35.261l-32.2,0l16.1,-13.417l16.1,13.417Z" style="fill:#3e574e;"/><clipPath id="_clip3"><path d="M60.046,35.261l-32.2,0l16.1,-13.417l16.1,13.417Z"/></clipPath><g clip-path="url(#_clip3)"><path d="M60.046,35.261l-16.1,-10.567l-16.1,10.567l12.362,-13.098l-17.728,-11.052l21.466,7.677l10.733,-18.41l-5.366,21.363l10.733,13.52Z" style="fill:#8d9f97;"/></g><path d="M27.846,35.261l-16.099,-8.05l10.733,-16.1l21.466,10.733l-16.1,13.417Z" style="fill:#1c433d;"/><clipPath id="_clip4"><path d="M27.846,35.261l-16.099,-8.05l10.733,-16.1l21.466,10.733l-16.1,13.417Z"/></clipPath><g clip-path="url(#_clip4)"><path d="M60.046,35.261l-16.1,-10.567l-16.1,10.567l12.362,-13.098l-17.728,-11.052l21.466,7.677l10.733,-18.41l-5.366,21.363l10.733,13.52Z" style="fill:#8d9f97;"/></g></g></g></g><path d="M59.366,12.096l1.63,0.29l0.649,4.791l-0.076,9.003c0,0 0.807,3.583 1.294,4.476c0.487,0.893 0.888,3.643 0.888,3.643c0,0 2.198,0.417 -0.401,1.31c-2.598,0.894 -1.976,1.082 -4.601,1.191c-2.625,0.109 -0.189,-0.541 -6.198,0.109c-6.009,0.649 -10.079,-0.163 -13.971,0.73c-3.893,0.894 -2.35,1.543 -8.116,1.543c-5.765,0 -5.761,-0.074 -8.686,0.004c-2.925,0.077 -3.9,-0.247 -5.443,0.077c-1.542,0.325 -4.466,0.975 -5.521,1.137c-1.056,0.163 -0.213,-1.563 -1.609,-0.294c-1.396,1.269 -4.156,4.029 -4.156,4.029c0,0 0.081,0.488 -1.218,0.65c-1.3,0.163 -2.817,-2.274 -2.817,-2.274c0,0 -1.154,-3.718 3.024,-5.188c4.177,-1.47 3.877,-1.421 4.839,-2.42c0.962,-0.999 2.025,-0.445 1.291,-2.224c-0.735,-1.779 -0.897,-0.967 -0.897,-2.104c0,-1.137 1.056,0.812 0,-2.842c-1.056,-3.654 -1.624,-3.654 -1.462,-5.603c0.163,-1.949 -1.68,-2.892 1.068,-6.196c2.749,-3.304 2.295,-4.537 3.821,-4.408c1.526,0.129 4.937,0.211 6.236,0.211c1.299,0 2.277,0.9 2.277,0.9l-7.367,11.147c0,0 1.773,-0.111 3.269,-0.842c1.496,-0.731 2.658,-1.186 3.945,-0.918c1.286,0.269 2.261,0.918 2.342,2.055c0.081,1.137 0.081,2.355 0.081,2.355l0.922,0.706l3.443,1.649c0,0 2.161,1.522 2.958,0.517c0.797,-1.005 2.409,-1.898 2.409,-1.898l1.23,-0.812l2.273,-0.246l2.858,-1.429l0.909,-0.454l-1.249,4.646l-1.384,1.307l7.555,0.561l5.7,0.7l1.136,0.568l2.438,0.356l1.891,-0.082c0,0 -0.307,-1.669 -2.569,-4.082c-2.262,-2.413 -2.749,-2.982 -2.749,-2.982c0,0 -1.218,-0.081 1.136,-0.568c2.355,-0.487 2.291,-0.487 2.291,-0.487c0,0 -1.607,-2.68 0,-3.167c1.607,-0.487 3.509,-0.256 3.509,-0.256l-0.481,-2.098l2.339,-1.868l0,-3.573l-0.68,-1.346Z" style="fill:#836e4b;"/><clipPath id="_clip5"><path d="M59.366,12.096l1.63,0.29l0.649,4.791l-0.076,9.003c0,0 0.807,3.583 1.294,4.476c0.487,0.893 0.888,3.643 0.888,3.643c0,0 2.198,0.417 -0.401,1.31c-2.598,0.894 -1.976,1.082 -4.601,1.191c-2.625,0.109 -0.189,-0.541 -6.198,0.109c-6.009,0.649 -10.079,-0.163 -13.971,0.73c-3.893,0.894 -2.35,1.543 -8.116,1.543c-5.765,0 -5.761,-0.074 -8.686,0.004c-2.925,0.077 -3.9,-0.247 -5.443,0.077c-1.542,0.325 -4.466,0.975 -5.521,1.137c-1.056,0.163 -0.213,-1.563 -1.609,-0.294c-1.396,1.269 -4.156,4.029 -4.156,4.029c0,0 0.081,0.488 -1.218,0.65c-1.3,0.163 -2.817,-2.274 -2.817,-2.274c0,0 -1.154,-3.718 3.024,-5.188c4.177,-1.47 3.877,-1.421 4.839,-2.42c0.962,-0.999 2.025,-0.445 1.291,-2.224c-0.735,-1.779 -0.897,-0.967 -0.897,-2.104c0,-1.137 1.056,0.812 0,-2.842c-1.056,-3.654 -1.624,-3.654 -1.462,-5.603c0.163,-1.949 -1.68,-2.892 1.068,-6.196c2.749,-3.304 2.295,-4.537 3.821,-4.408c1.526,0.129 4.937,0.211 6.236,0.211c1.299,0 2.277,0.9 2.277,0.9l-7.367,11.147c0,0 1.773,-0.111 3.269,-0.842c1.496,-0.731 2.658,-1.186 3.945,-0.918c1.286,0.269 2.261,0.918 2.342,2.055c0.081,1.137 0.081,2.355 0.081,2.355l0.922,0.706l3.443,1.649c0,0 2.161,1.522 2.958,0.517c0.797,-1.005 2.409,-1.898 2.409,-1.898l1.23,-0.812l2.273,-0.246l2.858,-1.429l0.909,-0.454l-1.249,4.646l-1.384,1.307l7.555,0.561l5.7,0.7l1.136,0.568l2.438,0.356l1.891,-0.082c0,0 -0.307,-1.669 -2.569,-4.082c-2.262,-2.413 -2.749,-2.982 -2.749,-2.982c0,0 -1.218,-0.081 1.136,-0.568c2.355,-0.487 2.291,-0.487 2.291,-0.487c0,0 -1.607,-2.68 0,-3.167c1.607,-0.487 3.509,-0.256 3.509,-0.256l-0.481,-2.098l2.339,-1.868l0,-3.573l-0.68,-1.346Z"/></clipPath><g clip-path="url(#_clip5)"><path d="M62.288,8.198l-18.342,14.537l-12.177,20.744l42.902,5.352l-12.383,-40.633Z" style="fill:#95c759;fill-opacity:0.5;"/><path d="M63.252,13.082l-2.628,6.681l-0.578,1.636c0,0 1.161,1.462 0,2.112c-1.162,0.649 -1.757,1.029 -1.757,1.029c0,0 -1.597,-0.705 -1.11,1.001c0.487,1.705 2.867,2.273 2.867,2.273l-0.656,2.643l0.038,0.637l-0.219,1.917l-3.297,1.074l-4.985,0.225c0,0 -9.176,-0.406 -10.394,-0.568c-1.218,-0.163 -7.32,-1.705 -7.32,-1.705l2.266,-2.802c0,0 -5.421,2.802 -6.72,3.289c-1.299,0.487 -0.913,0.487 -0.913,0.487l-2.64,0.237c0,0 -2.943,-2.186 -4.323,-2.592c-1.381,-0.406 -4.71,-1.461 -4.71,-1.461l2.543,-2.975l-3.67,0.232l-2.527,-1.074c0,0 -1.057,0.325 -0.772,-1.543c0.285,-1.867 -0.648,-3.005 1.97,-5.481c2.618,-2.476 3.396,-3.669 3.396,-3.669l-5.366,-8.049l-7.186,11.191c0,0 1.77,10.068 1.819,11.368c0.049,1.299 -1.592,1.705 0,2.436c1.592,0.73 5.367,-0.569 5.367,-0.569l2.152,2.599c0,0 1.356,0.375 0.069,0.918c-1.287,0.543 -4.21,1.355 -4.21,1.355l-3.378,3.329l6.139,-1.867c0,0 6.496,-1.137 8.607,-1.137c2.111,0 3.979,0 3.979,0c0,0 -0.636,-0.513 1.955,-0.5c2.592,0.013 1.862,0.013 4.054,-0.231c2.192,-0.243 0.138,-0.325 2.099,-0.325c1.961,0 3.042,-0.213 3.042,-0.213l2.325,0.295c0,0 0.045,-0.48 3.293,3.093c3.248,3.573 -0.284,3.24 4.913,5.27c5.196,2.03 0.927,2.436 7.893,2.599c6.966,0.162 10.539,-2.355 11.757,-3.979c1.218,-1.624 3.086,-1.462 3.573,-4.629c0.487,-3.166 -6.757,-24.557 -6.757,-24.557" style="fill:#aa9542;"/><clipPath id="_clip6"><path d="M63.252,13.082l-2.628,6.681l-0.578,1.636c0,0 1.161,1.462 0,2.112c-1.162,0.649 -1.757,1.029 -1.757,1.029c0,0 -1.597,-0.705 -1.11,1.001c0.487,1.705 2.867,2.273 2.867,2.273l-0.656,2.643l0.038,0.637l-0.219,1.917l-3.297,1.074l-4.985,0.225c0,0 -9.176,-0.406 -10.394,-0.568c-1.218,-0.163 -7.32,-1.705 -7.32,-1.705l2.266,-2.802c0,0 -5.421,2.802 -6.72,3.289c-1.299,0.487 -0.913,0.487 -0.913,0.487l-2.64,0.237c0,0 -2.943,-2.186 -4.323,-2.592c-1.381,-0.406 -4.71,-1.461 -4.71,-1.461l2.543,-2.975l-3.67,0.232l-2.527,-1.074c0,0 -1.057,0.325 -0.772,-1.543c0.285,-1.867 -0.648,-3.005 1.97,-5.481c2.618,-2.476 3.396,-3.669 3.396,-3.669l-5.366,-8.049l-7.186,11.191c0,0 1.77,10.068 1.819,11.368c0.049,1.299 -1.592,1.705 0,2.436c1.592,0.73 5.367,-0.569 5.367,-0.569l2.152,2.599c0,0 1.356,0.375 0.069,0.918c-1.287,0.543 -4.21,1.355 -4.21,1.355l-3.378,3.329l6.139,-1.867c0,0 6.496,-1.137 8.607,-1.137c2.111,0 3.979,0 3.979,0c0,0 -0.636,-0.513 1.955,-0.5c2.592,0.013 1.862,0.013 4.054,-0.231c2.192,-0.243 0.138,-0.325 2.099,-0.325c1.961,0 3.042,-0.213 3.042,-0.213l2.325,0.295c0,0 0.045,-0.48 3.293,3.093c3.248,3.573 -0.284,3.24 4.913,5.27c5.196,2.03 0.927,2.436 7.893,2.599c6.966,0.162 10.539,-2.355 11.757,-3.979c1.218,-1.624 3.086,-1.462 3.573,-4.629c0.487,-3.166 -6.757,-24.557 -6.757,-24.557"/></clipPath><g clip-path="url(#_clip6)"><path d="M62.288,8.198l-18.342,14.537l-12.177,20.744l42.902,5.352l-12.383,-40.633Z" style="fill:#95c759;fill-opacity:0.5;"/></g><path d="M33.213,18.97l-25.413,7.159l-1.42,-19.97l24.881,1.453l1.952,11.358Z" style="fill:#191919;fill-opacity:0.5;"/></g></g></svg>