<?xml version="1.0" encoding="UTF-8" standalone="no"?><!DOCTYPE svg PUBLIC "-//W3C//DTD SVG 1.1//EN" "http://www.w3.org/Graphics/SVG/1.1/DTD/svg11.dtd"><svg width="100%" height="100%" viewBox="0 0 64 55" version="1.1" xmlns="http://www.w3.org/2000/svg" xmlns:xlink="http://www.w3.org/1999/xlink" xml:space="preserve" xmlns:serif="http://www.serif.com/" style="fill-rule:evenodd;clip-rule:evenodd;stroke-linejoin:round;stroke-miterlimit:1.41421;"><g id="rock-runes-mossy06"><g id="rock-mossy06"><g id="rock-runes-highlights06"><g id="rock-highlights06"><g><g><path d="M46.486,0.915l10.733,16.1l-21.466,21.466l10.733,-37.566Z" style="fill:#8d9f97;"/><clipPath id="_clip1"><path d="M46.486,0.915l10.733,16.1l-21.466,21.466l10.733,-37.566Z"/></clipPath><g clip-path="url(#_clip1)"><path d="M57.219,38.481l-0.967,-17.614l-19.581,18.073l1.013,9.709l-4.978,0.244l1.078,-9.428l-19.497,-11.717l-10.733,16.099l9.119,-16.906l-3.753,-17.976l7.266,17.833l19.567,9.932l18.811,-19.238l2.655,-0.477l0,21.466Z" style="fill:#8d9f97;"/></g><path d="M46.486,0.915l-37.566,8.05l5.367,18.783l21.466,10.733l10.733,-37.566" style="fill:#56685f;"/><clipPath id="_clip2"><path d="M46.486,0.915l-37.566,8.05l5.367,18.783l21.466,10.733l10.733,-37.566"/></clipPath><g clip-path="url(#_clip2)"><path d="M57.219,38.481l-0.967,-17.614l-19.581,18.073l1.013,9.709l-4.978,0.244l1.078,-9.428l-19.497,-11.717l-10.733,16.099l9.119,-16.906l-3.753,-17.976l7.266,17.833l19.567,9.932l18.811,-19.238l2.655,-0.477l0,21.466Z" style="fill:#8d9f97;"/></g><path d="M57.219,17.015l0,21.466l-21.466,10.733l0,-10.733l21.466,-21.466Z" style="fill:#56685f;"/><clipPath id="_clip3"><path d="M57.219,17.015l0,21.466l-21.466,10.733l0,-10.733l21.466,-21.466Z"/></clipPath><g clip-path="url(#_clip3)"><path d="M57.219,38.481l-0.967,-17.614l-19.581,18.073l1.013,9.709l-4.978,0.244l1.078,-9.428l-19.497,-11.717l-10.733,16.099l9.119,-16.906l-3.753,-17.976l7.266,17.833l19.567,9.932l18.811,-19.238l2.655,-0.477l0,21.466Z" style="fill:#8d9f97;"/></g><path d="M14.287,27.748l21.466,10.733l0,10.733l-32.199,-5.367l10.733,-16.099Z" style="fill:#3e574e;"/><clipPath id="_clip4"><path d="M14.287,27.748l21.466,10.733l0,10.733l-32.199,-5.367l10.733,-16.099Z"/></clipPath><g clip-path="url(#_clip4)"><path d="M57.219,38.481l-0.967,-17.614l-19.581,18.073l1.013,9.709l-4.978,0.244l1.078,-9.428l-19.497,-11.717l-10.733,16.099l9.119,-16.906l-3.753,-17.976l7.266,17.833l19.567,9.932l18.811,-19.238l2.655,-0.477l0,21.466Z" style="fill:#8d9f97;"/></g><path d="M8.92,8.965l-5.366,34.882l10.733,-16.099l-5.367,-18.783Z" style="fill:#1c433d;"/><clipPath id="_clip5"><path d="M8.92,8.965l-5.366,34.882l10.733,-16.099l-5.367,-18.783Z"/></clipPath><g clip-path="url(#_clip5)"><path d="M57.219,38.481l-0.967,-17.614l-19.581,18.073l1.013,9.709l-4.978,0.244l1.078,-9.428l-19.497,-11.717l-10.733,16.099l9.119,-16.906l-3.753,-17.976l7.266,17.833l19.567,9.932l18.811,-19.238l2.655,-0.477l0,21.466Z" style="fill:#8d9f97;"/></g></g></g></g><path d="M57.219,38.152l-5.366,-8.049l0,-7.653l-8.196,-9.716l-9.454,1.551l1.55,-6.461l-15.405,0.465l-0.695,11.081l13.653,11.066l2.447,-5.653l-3.084,1.094l-10.11,-7.961l2.461,-5.874l7.478,-0.718l-1.166,4.845l10.857,0.18l7.358,8.075l-1.036,7.35l-9.117,8.199l-3.641,1.769l-11.922,-8.362l-7.25,5.92l-4.093,-9.492l-3.568,0.295l-3.739,1.869l-0.679,3.31l5.733,-0.47l5.908,7.779l7.968,-4.893l11.642,9.248l2.936,-3.858l5.564,-2.692l6.64,-7.178l2.593,6.801l3.733,-1.867" style="fill:#13190f;fill-opacity:0.65;"/></g><path d="M57.219,23.272l6.525,5.216c0,0 -3.17,1.146 -3.869,4.189c-0.699,3.043 -1.688,7.179 -1.688,7.179l-0.968,0.939c0,0 -0.073,0.508 -2.103,1.523c-2.03,1.015 1.212,-1.142 -3.263,1.903c-4.476,3.045 -5.367,3.299 -5.367,3.299l-2.707,1.232c0,0 -0.162,0.544 -2.66,1.813c-2.497,1.269 -6.961,3.599 -8.789,3.195c-1.828,-0.404 2.391,1.056 -3.905,0.009c-6.296,-1.047 -8.304,-2.742 -11.233,-2.212c-2.93,0.53 -2.905,0.403 -2.905,0.403l-2.031,-0.84c0,0 -2.207,0.333 -3.336,-0.809c-1.128,-1.142 -1.906,-1.936 -1.906,-1.936c0,0 -1.126,-0.094 -2.014,-0.348c-0.888,-0.253 -1.855,-2.252 -2.577,-3.854c-0.721,-1.601 -1.631,-3.42 -1.631,-3.42c0,0 0.608,-0.053 0.442,-5.588c-0.167,-5.535 0.606,-6.7 0.22,-7.576c-0.387,-0.877 1.567,-2.673 1.567,-2.673l3.64,-2.012l-0.596,3.247l-0.501,3.493l-0.776,4.978l1.318,-1.893l0.913,-0.457l1.901,-0.95l1.212,0.606l0.705,2.143l0.257,1.53l0.377,1.008l0.828,1.769c0,0 -4.247,-0.895 0,0c4.247,0.895 2.849,0.768 7.354,0.895c4.506,0.127 1.787,-0.056 5.367,0.099c3.579,0.155 3.474,-1.241 5.366,0.662c1.893,1.903 2.127,3.084 2.127,3.084l4.567,2.284c0,0 -0.181,-0.568 1.125,-1.89c1.306,-1.321 1.352,-1.702 2.914,-2.717c1.563,-1.015 2.894,-2.66 2.894,-2.66c0,0 1.08,0.123 3.618,-1.146c2.537,-1.269 2.1,0.508 4.222,-1.776c2.121,-2.284 2.644,-2.569 2.644,-2.569l2.722,-1.618l0,-7.754" style="fill:#836e4b;"/><clipPath id="_clip6"><path d="M57.219,23.272l6.525,5.216c0,0 -3.17,1.146 -3.869,4.189c-0.699,3.043 -1.688,7.179 -1.688,7.179l-0.968,0.939c0,0 -0.073,0.508 -2.103,1.523c-2.03,1.015 1.212,-1.142 -3.263,1.903c-4.476,3.045 -5.367,3.299 -5.367,3.299l-2.707,1.232c0,0 -0.162,0.544 -2.66,1.813c-2.497,1.269 -6.961,3.599 -8.789,3.195c-1.828,-0.404 2.391,1.056 -3.905,0.009c-6.296,-1.047 -8.304,-2.742 -11.233,-2.212c-2.93,0.53 -2.905,0.403 -2.905,0.403l-2.031,-0.84c0,0 -2.207,0.333 -3.336,-0.809c-1.128,-1.142 -1.906,-1.936 -1.906,-1.936c0,0 -1.126,-0.094 -2.014,-0.348c-0.888,-0.253 -1.855,-2.252 -2.577,-3.854c-0.721,-1.601 -1.631,-3.42 -1.631,-3.42c0,0 0.608,-0.053 0.442,-5.588c-0.167,-5.535 0.606,-6.7 0.22,-7.576c-0.387,-0.877 1.567,-2.673 1.567,-2.673l3.64,-2.012l-0.596,3.247l-0.501,3.493l-0.776,4.978l1.318,-1.893l0.913,-0.457l1.901,-0.95l1.212,0.606l0.705,2.143l0.257,1.53l0.377,1.008l0.828,1.769c0,0 -4.247,-0.895 0,0c4.247,0.895 2.849,0.768 7.354,0.895c4.506,0.127 1.787,-0.056 5.367,0.099c3.579,0.155 3.474,-1.241 5.366,0.662c1.893,1.903 2.127,3.084 2.127,3.084l4.567,2.284c0,0 -0.181,-0.568 1.125,-1.89c1.306,-1.321 1.352,-1.702 2.914,-2.717c1.563,-1.015 2.894,-2.66 2.894,-2.66c0,0 1.08,0.123 3.618,-1.146c2.537,-1.269 2.1,0.508 4.222,-1.776c2.121,-2.284 2.644,-2.569 2.644,-2.569l2.722,-1.618l0,-7.754"/></clipPath><g clip-path="url(#_clip6)"><path d="M60.625,19.608l-24.872,17.847l0,25.252l39.401,-32.303l-14.529,-10.796" style="fill:#95c759;fill-opacity:0.5;"/><path d="M64.221,26.773l-2.872,-0.199l-1.863,3.198l-0.677,3.438c0,0 1.21,-0.825 -0.353,1.414c-1.564,2.238 -3.771,3.481 -3.771,3.481l-2.832,1.168c0,0 8.155,-4.314 0,0c-8.156,4.314 -8.211,4.043 -8.211,4.043c0,0 -1.167,0.778 -2.523,1.793c-1.355,1.015 0.295,1.015 -3.892,1.776c-4.187,0.762 -4.231,0.85 -5.795,1.059c-1.564,0.21 1.077,2.701 -3.986,0.948c-5.064,-1.753 -7.793,-4.544 -7.793,-4.544l-1.525,-1.53l-6.402,0.64l0.058,2.532l-0.964,0.482l-1.9,-2.251l0,-2.166l-1.762,-0.881l1.762,-3.043l-1.087,-1.986l-2.372,2.273l-1.907,-0.287l0,-4.126l0,-12.368c0,0 -3.934,-1.649 -5.367,2.157c-1.434,3.806 -3.284,6.239 -3.564,11.112c-0.28,4.874 5.302,26.57 5.302,26.57c0,0 8.296,1.523 14.362,1.65c6.065,0.126 12.253,3.425 21.466,-0.762c9.213,-4.187 21.663,-10.183 22.861,-11.562c1.197,-1.379 5.607,-24.029 5.607,-24.029Z" style="fill:#aa9542;"/><clipPath id="_clip7"><path d="M64.221,26.773l-2.872,-0.199l-1.863,3.198l-0.677,3.438c0,0 1.21,-0.825 -0.353,1.414c-1.564,2.238 -3.771,3.481 -3.771,3.481l-2.832,1.168c0,0 8.155,-4.314 0,0c-8.156,4.314 -8.211,4.043 -8.211,4.043c0,0 -1.167,0.778 -2.523,1.793c-1.355,1.015 0.295,1.015 -3.892,1.776c-4.187,0.762 -4.231,0.85 -5.795,1.059c-1.564,0.21 1.077,2.701 -3.986,0.948c-5.064,-1.753 -7.793,-4.544 -7.793,-4.544l-1.525,-1.53l-6.402,0.64l0.058,2.532l-0.964,0.482l-1.9,-2.251l0,-2.166l-1.762,-0.881l1.762,-3.043l-1.087,-1.986l-2.372,2.273l-1.907,-0.287l0,-4.126l0,-12.368c0,0 -3.934,-1.649 -5.367,2.157c-1.434,3.806 -3.284,6.239 -3.564,11.112c-0.28,4.874 5.302,26.57 5.302,26.57c0,0 8.296,1.523 14.362,1.65c6.065,0.126 12.253,3.425 21.466,-0.762c9.213,-4.187 21.663,-10.183 22.861,-11.562c1.197,-1.379 5.607,-24.029 5.607,-24.029Z"/></clipPath><g clip-path="url(#_clip7)"><path d="M60.625,19.608l-24.872,17.847l0,25.252l39.401,-32.303l-14.529,-10.796" style="fill:#95c759;fill-opacity:0.5;"/></g><path d="M21.275,28.462l-6.988,2.71l-16.1,16.25l0,-29.677l24.985,1.084l-1.897,9.633Z" style="fill:#191919;fill-opacity:0.5;"/></g></g></g></svg>