<?xml version="1.0" encoding="UTF-8" standalone="no"?><!DOCTYPE svg PUBLIC "-//W3C//DTD SVG 1.1//EN" "http://www.w3.org/Graphics/SVG/1.1/DTD/svg11.dtd"><svg width="100%" height="100%" viewBox="0 0 146 88" version="1.1" xmlns="http://www.w3.org/2000/svg" xmlns:xlink="http://www.w3.org/1999/xlink" xml:space="preserve" xmlns:serif="http://www.serif.com/" style="fill-rule:evenodd;clip-rule:evenodd;stroke-linejoin:round;stroke-miterlimit:1.41421;"><g id="rock-runes-mossy07"><g id="rock-mossy07"><g id="rock-runes-highlights07"><g id="rock-highlights07"><g><g><path d="M99.451,11.232l32.199,16.099l-21.466,32.2l-42.933,10.733l-42.932,-32.2l21.466,-32.199l42.933,-5.367l10.733,10.734Z" style="fill:#8d9f97;"/><clipPath id="_clip1"><path d="M99.451,11.232l32.199,16.099l-21.466,32.2l-42.933,10.733l-42.932,-32.2l21.466,-32.199l42.933,-5.367l10.733,10.734Z"/></clipPath><g clip-path="url(#_clip1)"><path d="M104.817,51.481l-21.466,-24.152l-7.969,4.067l7.969,25.451l-12.445,-25.977l-7.23,-3.181l-7.158,26.475l3.567,-28.616l-5.192,-13.504l4.705,-4.639l2.287,17.243l10.733,3.521l8.401,-4.687l2.332,-20.3l28.324,48.627l25.342,26.505l-26.833,-14.986l-39.976,8.414l-13.69,14.621l7.575,-14.52l-39.774,-33.779l10.733,6.305l35.824,15.839c0,0 25.319,-2.4 26.879,-2.64c1.56,-0.24 7.062,-6.087 7.062,-6.087Z" style="fill:#8d9f97;"/></g><path d="M131.65,27.331l10.733,16.1l-5.366,34.883l-26.833,-18.783l21.466,-32.2Z" style="fill:#8d9f97;"/><clipPath id="_clip2"><path d="M131.65,27.331l10.733,16.1l-5.366,34.883l-26.833,-18.783l21.466,-32.2Z"/></clipPath><g clip-path="url(#_clip2)"><path d="M104.817,51.481l-21.466,-24.152l-7.969,4.067l7.969,25.451l-12.445,-25.977l-7.23,-3.181l-7.158,26.475l3.567,-28.616l-5.192,-13.504l4.705,-4.639l2.287,17.243l10.733,3.521l8.401,-4.687l2.332,-20.3l28.324,48.627l25.342,26.505l-26.833,-14.986l-39.976,8.414l-13.69,14.621l7.575,-14.52l-39.774,-33.779l10.733,6.305l35.824,15.839c0,0 25.319,-2.4 26.879,-2.64c1.56,-0.24 7.062,-6.087 7.062,-6.087Z" style="fill:#8d9f97;"/></g><path d="M110.184,59.531l26.833,18.783l-80.499,8.049l10.733,-16.099l42.933,-10.733Z" style="fill:#56685f;"/><clipPath id="_clip3"><path d="M110.184,59.531l26.833,18.783l-80.499,8.049l10.733,-16.099l42.933,-10.733Z"/></clipPath><g clip-path="url(#_clip3)"><path d="M104.817,51.481l-21.466,-24.152l-7.969,4.067l7.969,25.451l-12.445,-25.977l-7.23,-3.181l-7.158,26.475l3.567,-28.616l-5.192,-13.504l4.705,-4.639l2.287,17.243l10.733,3.521l8.401,-4.687l2.332,-20.3l28.324,48.627l25.342,26.505l-26.833,-14.986l-39.976,8.414l-13.69,14.621l7.575,-14.52l-39.774,-33.779l10.733,6.305l35.824,15.839c0,0 25.319,-2.4 26.879,-2.64c1.56,-0.24 7.062,-6.087 7.062,-6.087Z" style="fill:#8d9f97;"/></g><path d="M24.319,38.064l-21.466,42.933l53.665,5.366l10.733,-16.099l-42.932,-32.2Z" style="fill:#3e574e;"/><clipPath id="_clip4"><path d="M24.319,38.064l-21.466,42.933l53.665,5.366l10.733,-16.099l-42.932,-32.2Z"/></clipPath><g clip-path="url(#_clip4)"><path d="M104.817,51.481l-21.466,-24.152l-7.969,4.067l7.969,25.451l-12.445,-25.977l-7.23,-3.181l-7.158,26.475l3.567,-28.616l-5.192,-13.504l4.705,-4.639l2.287,17.243l10.733,3.521l8.401,-4.687l2.332,-20.3l28.324,48.627l25.342,26.505l-26.833,-14.986l-39.976,8.414l-13.69,14.621l7.575,-14.52l-39.774,-33.779l10.733,6.305l35.824,15.839c0,0 25.319,-2.4 26.879,-2.64c1.56,-0.24 7.062,-6.087 7.062,-6.087Z" style="fill:#8d9f97;"/></g><path d="M83.351,3.182l-26.833,8.05l5.367,13.416l10.733,5.367l10.733,-5.367l0,-21.466Z" style="fill:#56685f;"/><clipPath id="_clip5"><path d="M83.351,3.182l-26.833,8.05l5.367,13.416l10.733,5.367l10.733,-5.367l0,-21.466Z"/></clipPath><g clip-path="url(#_clip5)"><path d="M104.817,51.481l-21.466,-24.152l-7.969,4.067l7.969,25.451l-12.445,-25.977l-7.23,-3.181l-7.158,26.475l3.567,-28.616l-5.192,-13.504l4.705,-4.639l2.287,17.243l10.733,3.521l8.401,-4.687l2.332,-20.3l28.324,48.627l25.342,26.505l-26.833,-14.986l-39.976,8.414l-13.69,14.621l7.575,-14.52l-39.774,-33.779l10.733,6.305l35.824,15.839c0,0 25.319,-2.4 26.879,-2.64c1.56,-0.24 7.062,-6.087 7.062,-6.087Z" style="fill:#8d9f97;"/></g><path d="M83.351,3.182l26.833,24.149l-5.367,24.15l-21.466,-26.833l0,-21.466Z" style="fill:#8d9f97;"/><clipPath id="_clip6"><path d="M83.351,3.182l26.833,24.149l-5.367,24.15l-21.466,-26.833l0,-21.466Z"/></clipPath><g clip-path="url(#_clip6)"><path d="M104.817,51.481l-21.466,-24.152l-7.969,4.067l7.969,25.451l-12.445,-25.977l-7.23,-3.181l-7.158,26.475l3.567,-28.616l-5.192,-13.504l4.705,-4.639l2.287,17.243l10.733,3.521l8.401,-4.687l2.332,-20.3l28.324,48.627l25.342,26.505l-26.833,-14.986l-39.976,8.414l-13.69,14.621l7.575,-14.52l-39.774,-33.779l10.733,6.305l35.824,15.839c0,0 25.319,-2.4 26.879,-2.64c1.56,-0.24 7.062,-6.087 7.062,-6.087Z" style="fill:#8d9f97;"/></g><path d="M83.351,24.648l21.466,26.833l-21.466,5.366l-10.733,-26.832l10.733,-5.367Z" style="fill:#56685f;"/><clipPath id="_clip7"><path d="M83.351,24.648l21.466,26.833l-21.466,5.366l-10.733,-26.832l10.733,-5.367Z"/></clipPath><g clip-path="url(#_clip7)"><path d="M104.817,51.481l-21.466,-24.152l-7.969,4.067l7.969,25.451l-12.445,-25.977l-7.23,-3.181l-7.158,26.475l3.567,-28.616l-5.192,-13.504l4.705,-4.639l2.287,17.243l10.733,3.521l8.401,-4.687l2.332,-20.3l28.324,48.627l25.342,26.505l-26.833,-14.986l-39.976,8.414l-13.69,14.621l7.575,-14.52l-39.774,-33.779l10.733,6.305l35.824,15.839c0,0 25.319,-2.4 26.879,-2.64c1.56,-0.24 7.062,-6.087 7.062,-6.087Z" style="fill:#8d9f97;"/></g><path d="M72.618,30.015l10.733,26.832l-26.833,-2.683l5.367,-29.516l10.733,5.367Z" style="fill:#3e574e;"/><clipPath id="_clip8"><path d="M72.618,30.015l10.733,26.832l-26.833,-2.683l5.367,-29.516l10.733,5.367Z"/></clipPath><g clip-path="url(#_clip8)"><path d="M104.817,51.481l-21.466,-24.152l-7.969,4.067l7.969,25.451l-12.445,-25.977l-7.23,-3.181l-7.158,26.475l3.567,-28.616l-5.192,-13.504l4.705,-4.639l2.287,17.243l10.733,3.521l8.401,-4.687l2.332,-20.3l28.324,48.627l25.342,26.505l-26.833,-14.986l-39.976,8.414l-13.69,14.621l7.575,-14.52l-39.774,-33.779l10.733,6.305l35.824,15.839c0,0 25.319,-2.4 26.879,-2.64c1.56,-0.24 7.062,-6.087 7.062,-6.087Z" style="fill:#8d9f97;"/></g><path d="M56.518,11.232l-16.099,8.049l-5.367,24.15l21.466,10.733l5.367,-29.516l-5.367,-13.416Z" style="fill:#1c433d;"/><clipPath id="_clip9"><path d="M56.518,11.232l-16.099,8.049l-5.367,24.15l21.466,10.733l5.367,-29.516l-5.367,-13.416Z"/></clipPath><g clip-path="url(#_clip9)"><path d="M104.817,51.481l-21.466,-24.152l-7.969,4.067l7.969,25.451l-12.445,-25.977l-7.23,-3.181l-7.158,26.475l3.567,-28.616l-5.192,-13.504l4.705,-4.639l2.287,17.243l10.733,3.521l8.401,-4.687l2.332,-20.3l28.324,48.627l25.342,26.505l-26.833,-14.986l-39.976,8.414l-13.69,14.621l7.575,-14.52l-39.774,-33.779l10.733,6.305l35.824,15.839c0,0 25.319,-2.4 26.879,-2.64c1.56,-0.24 7.062,-6.087 7.062,-6.087Z" style="fill:#8d9f97;"/></g></g></g></g><path d="M140.38,58.201l-8.73,-20.465l-10.733,5.367l-11.731,-11.233l-1.397,7.064l9.279,10.259l14.582,-7.852l7.93,21.826l0.8,-4.966Z" style="fill:#13190f;fill-opacity:0.65;"/><path d="M108.192,26.007l-7.531,1.601l-3.371,-7.052l-8.572,-5.797l-2.923,8.339l4.83,10.225l-0.924,-9.591l0.804,-2.99l5.288,2.723l2.542,8.347l1.116,9.978l1.41,2.018l0.032,-12.16l3.924,-1.962l5.367,0.439l0,-3.122l-1.992,-0.996" style="fill:#13190f;fill-opacity:0.65;"/><path d="M110.184,80.669l5.366,-13.417l-26.832,-2.683l0,-5.367l-19.872,-0.797l-23.061,-4.569l-10.733,0l-5.367,-8.05l1.502,9.982l-13.19,6.595l-4.411,12.939l10.733,5.367l-4.241,2.12l14.974,1.51l-5.367,-6.314l-10.733,-5.366l5.367,-8.05l10.733,-5.367l10.733,2.104l5.367,18.395l5.366,6.334l0,-7.232l-3.718,-9.309l-1.648,-6.73l2.941,-2.349l16.353,5.751l12.905,-2.617l1.94,2.733l7.396,1.669l17.497,1.984l-10.733,12.57l10.733,-1.836" style="fill:#13190f;fill-opacity:0.65;"/><path d="M101.18,52.971l-14.636,-19.514l-11.928,0.597l-7.365,9.049l-6.088,-13.778l-4.645,-7.689l-10.733,5.367l5.367,18.783l-0.921,-15.639l6.287,-3.144l10.733,19.722l9.063,-8.154l8.697,1.018l8.055,14.651l8.114,-1.269Z" style="fill:#13190f;fill-opacity:0.65;"/></g><path d="M99.32,17.554l7.856,1.439l8.374,4.957l3.918,6.78l-3.918,12.252l-1.949,3.049l-3.417,6.347l-6.496,4.796c0,0 -3.439,1.271 -4.237,1.271c-0.799,0 2.317,-1.294 -5.367,-0.707c-7.683,0.588 -7.529,-0.196 -9.866,0.434c-2.337,0.629 -6.738,1.343 -8.285,1.224c-1.546,-0.119 -7.1,0.165 -10.33,0.202c-3.229,0.036 -9.085,-2.462 -9.085,-2.462l-5.366,-5.828l5.366,2.26l26.833,2.379l6.499,-2.974c0,0 -0.966,0.98 2.372,-1.532c3.337,-2.512 3.049,-1.817 5.096,-2.819c2.048,-1.002 5.889,-0.812 5.889,-0.812l1.61,-2.806c0,0 -1.704,-1.546 -1.853,-2.439c-0.149,-0.892 0.075,-1.815 0.075,-1.815c0,0 0.443,-0.36 -0.366,-3.406c-0.809,-3.046 -1.761,-4.592 -0.928,-6.138c0.832,-1.546 0.782,-1.446 0.782,-1.446l0.372,-3.262l-0.652,-2.244l-1.189,-0.595l-1.607,-2.682l7.744,5.751l2.989,0.077l-10.864,-9.251Z" style="fill:#aa9542;"/><clipPath id="_clip10"><path d="M99.32,17.554l7.856,1.439l8.374,4.957l3.918,6.78l-3.918,12.252l-1.949,3.049l-3.417,6.347l-6.496,4.796c0,0 -3.439,1.271 -4.237,1.271c-0.799,0 2.317,-1.294 -5.367,-0.707c-7.683,0.588 -7.529,-0.196 -9.866,0.434c-2.337,0.629 -6.738,1.343 -8.285,1.224c-1.546,-0.119 -7.1,0.165 -10.33,0.202c-3.229,0.036 -9.085,-2.462 -9.085,-2.462l-5.366,-5.828l5.366,2.26l26.833,2.379l6.499,-2.974c0,0 -0.966,0.98 2.372,-1.532c3.337,-2.512 3.049,-1.817 5.096,-2.819c2.048,-1.002 5.889,-0.812 5.889,-0.812l1.61,-2.806c0,0 -1.704,-1.546 -1.853,-2.439c-0.149,-0.892 0.075,-1.815 0.075,-1.815c0,0 0.443,-0.36 -0.366,-3.406c-0.809,-3.046 -1.761,-4.592 -0.928,-6.138c0.832,-1.546 0.782,-1.446 0.782,-1.446l0.372,-3.262l-0.652,-2.244l-1.189,-0.595l-1.607,-2.682l7.744,5.751l2.989,0.077l-10.864,-9.251Z"/></clipPath><g clip-path="url(#_clip10)"><path d="M102.622,15.904l24.776,14.444l-13.402,28.168l-12.867,-11.876l-4.741,-25.316l6.234,-5.42" style="fill:#95c759;fill-opacity:0.5;"/></g><path d="M131.65,27.256l13.491,4.954l-1.957,6.345l-0.801,4.189c0,0 1.468,1.546 1.587,3.449c0.119,1.903 -2.46,6.662 -1.587,8.862c0.874,2.2 0.993,6.601 0.993,8.266c0,1.666 -0.558,6.508 -0.993,7.834c-0.435,1.325 0,6.678 0,6.678l0,4.055c0,0 2.072,-1.32 -5.366,0.821c-7.439,2.141 -3.109,3.236 -9.318,2.57c-6.209,-0.666 -5.745,-3.142 -15.136,-2.202c-9.391,0.941 -14.682,1.769 -17.33,2.069c-2.647,0.299 -13.836,0.402 -13.836,0.402l-11.234,0.251l-30.984,0.717l-28.19,1.121l-8.136,-3.024l-1.813,-1.819l-0.434,-5.149c0,0 1.266,-5.843 1.007,-7.11c-0.259,-1.266 -1.944,-2.258 -0.209,-4.022c1.734,-1.764 4.693,-4.469 4.693,-4.469l3.584,-1.696l3.905,-7.256c0,0 -2.399,0 0,-1.903c2.399,-1.903 1.714,-1.727 2.651,-2.826c0.937,-1.099 6.052,-6.452 6.052,-6.452l-17.494,35.582c0,0 1.249,-0.85 3.424,-2.515c2.175,-1.665 -0.202,-1.185 1.998,-2.139c2.199,-0.954 -0.101,1.629 3.369,-1.684c3.469,-3.314 2.506,-3.552 5.366,-4.741c2.861,-1.19 6.073,-3.212 9.76,0.238c3.687,3.449 6.34,6.423 6.34,6.423c0,0 -11.264,0.357 0,2.022c11.264,1.665 15.226,2.855 16.1,2.855c0.873,0 -1.21,0.949 4.292,-0.894c5.502,-1.842 6.885,-1.396 9.048,-1.916c2.164,-0.521 1.956,0.431 8.126,0.431c6.17,0 8.863,-0.8 8.863,-0.8c0,0 -2.446,0.342 3.854,-1.927c6.299,-2.269 5.133,-3.102 8.749,-3.102c3.616,0 2.947,-1.576 8.337,-0.074c5.39,1.502 3.495,0.209 6.762,1.985c3.267,1.777 3.452,2.505 4.906,2.914c1.453,0.409 3.148,0.112 3.148,0.112c0,0 4.164,2.023 7.42,-0.03c3.256,-2.052 -3.74,-4.669 -3.74,-4.669c0,0 -1.687,-0.476 -2.52,-1.784c-0.833,-1.308 -0.833,-2.022 -0.833,-2.022c0,0 -6.841,-2.851 -0.03,-2.079c6.81,0.771 9.784,1.484 9.784,1.484c0,0 -0.052,0.015 3.423,0.662c3.476,0.647 4.926,1.553 4.926,1.553c0,0 -2.108,-6.981 -2.552,-8.107c-0.444,-1.126 -2.942,-2.791 -2.942,-2.791l1.477,-9.04l4.308,-0.323l1.059,-1.818l-1.255,-3.451l-2.813,-3.96l0.792,-1.985l6.899,4.995l-8.99,-14.06Z" style="fill:#836e4b;"/><clipPath id="_clip11"><path d="M131.65,27.256l13.491,4.954l-1.957,6.345l-0.801,4.189c0,0 1.468,1.546 1.587,3.449c0.119,1.903 -2.46,6.662 -1.587,8.862c0.874,2.2 0.993,6.601 0.993,8.266c0,1.666 -0.558,6.508 -0.993,7.834c-0.435,1.325 0,6.678 0,6.678l0,4.055c0,0 2.072,-1.32 -5.366,0.821c-7.439,2.141 -3.109,3.236 -9.318,2.57c-6.209,-0.666 -5.745,-3.142 -15.136,-2.202c-9.391,0.941 -14.682,1.769 -17.33,2.069c-2.647,0.299 -13.836,0.402 -13.836,0.402l-11.234,0.251l-30.984,0.717l-28.19,1.121l-8.136,-3.024l-1.813,-1.819l-0.434,-5.149c0,0 1.266,-5.843 1.007,-7.11c-0.259,-1.266 -1.944,-2.258 -0.209,-4.022c1.734,-1.764 4.693,-4.469 4.693,-4.469l3.584,-1.696l3.905,-7.256c0,0 -2.399,0 0,-1.903c2.399,-1.903 1.714,-1.727 2.651,-2.826c0.937,-1.099 6.052,-6.452 6.052,-6.452l-17.494,35.582c0,0 1.249,-0.85 3.424,-2.515c2.175,-1.665 -0.202,-1.185 1.998,-2.139c2.199,-0.954 -0.101,1.629 3.369,-1.684c3.469,-3.314 2.506,-3.552 5.366,-4.741c2.861,-1.19 6.073,-3.212 9.76,0.238c3.687,3.449 6.34,6.423 6.34,6.423c0,0 -11.264,0.357 0,2.022c11.264,1.665 15.226,2.855 16.1,2.855c0.873,0 -1.21,0.949 4.292,-0.894c5.502,-1.842 6.885,-1.396 9.048,-1.916c2.164,-0.521 1.956,0.431 8.126,0.431c6.17,0 8.863,-0.8 8.863,-0.8c0,0 -2.446,0.342 3.854,-1.927c6.299,-2.269 5.133,-3.102 8.749,-3.102c3.616,0 2.947,-1.576 8.337,-0.074c5.39,1.502 3.495,0.209 6.762,1.985c3.267,1.777 3.452,2.505 4.906,2.914c1.453,0.409 3.148,0.112 3.148,0.112c0,0 4.164,2.023 7.42,-0.03c3.256,-2.052 -3.74,-4.669 -3.74,-4.669c0,0 -1.687,-0.476 -2.52,-1.784c-0.833,-1.308 -0.833,-2.022 -0.833,-2.022c0,0 -6.841,-2.851 -0.03,-2.079c6.81,0.771 9.784,1.484 9.784,1.484c0,0 -0.052,0.015 3.423,0.662c3.476,0.647 4.926,1.553 4.926,1.553c0,0 -2.108,-6.981 -2.552,-8.107c-0.444,-1.126 -2.942,-2.791 -2.942,-2.791l1.477,-9.04l4.308,-0.323l1.059,-1.818l-1.255,-3.451l-2.813,-3.96l0.792,-1.985l6.899,4.995l-8.99,-14.06Z"/></clipPath><g clip-path="url(#_clip11)"><path d="M131.65,25.237l23.692,1.872l-0.012,60.528l-12.947,13.05l-46.294,-6.385l-31.462,-27.201l61.657,-14.729l5.366,-27.135Z" style="fill:#95c759;fill-opacity:0.5;"/><path d="M142.383,28.222l-2.6,4.067l2.6,6.666l-2.968,3.883l-2.398,9.534l3.576,8.945c0,0 -0.999,8.41 -1.357,11.411c-0.358,3.001 -10.024,-2.793 -10.024,-2.793l-2.928,-1.464c0,0 0.483,1.918 2.598,4.068c2.116,2.15 5.353,2.247 2.768,3.982c-2.585,1.736 -6.449,3.225 -6.449,3.225c0,0 1.279,1.37 -1.071,0.535c-2.35,-0.835 0.475,-1.132 -5.175,-1.132c-5.65,0 -12.083,-0.972 -12.083,-0.972l-2.055,-0.069c0,0 1.141,-5.326 -3.363,-2.588c-4.504,2.737 -5.412,2.706 -5.412,2.706c0,0 -1.878,1.815 -7.324,2.41c-5.447,0.595 -9.037,0.403 -9.037,0.403c0,0 -1.072,-1.635 -5.283,-0.944c-4.211,0.69 -4.284,2.896 -7.147,1.793c-2.863,-1.103 0.159,-1.549 -5.366,-0.36c-5.525,1.189 -5.263,0.822 -7.253,1.303c-1.99,0.481 -7.567,-0.414 -10.354,-0.19c-2.787,0.225 1.189,1.046 -6.3,0.71c-7.489,-0.336 -7.163,2.34 -8.293,-0.336c-1.129,-2.676 -1.58,-4.6 -1.58,-4.6l-6.363,-3.182l-1.037,-2.271l0.773,-0.387c0,0 6.335,-2.942 2.841,-2.793c-3.495,0.149 -10.733,8.178 -10.733,8.178l0,3.928l-3.021,-0.063l-0.551,-1.723l-5.545,-0.656l-1.616,-1.189c0,0 -0.725,-4.391 0,-7.102c0.724,-2.711 3.026,-6.88 3.026,-6.88l5.888,-10.129c0,0 -8.306,0.555 -11.668,4.899c-3.361,4.344 -7.98,12.11 -7.98,12.11c0,0 1.032,1.549 0,5.366c-1.031,3.818 -7.592,6.944 0,10.733c7.593,3.79 8.052,6.641 29.976,6.479c21.924,-0.162 24.946,1.474 39.79,4.15c14.844,2.676 16.701,4.16 29.897,3.939c13.197,-0.222 22.799,1.339 34.502,-1.151c11.702,-2.491 8.728,-0.855 17.649,-5.316c8.921,-4.46 18.592,-4.894 18.217,-17.984c-0.375,-13.09 -0.269,-12.227 -3.667,-24.999c-3.398,-12.772 -16.1,-24.15 -16.1,-24.15Z" style="fill:#aa9542;"/><clipPath id="_clip12"><path d="M142.383,28.222l-2.6,4.067l2.6,6.666l-2.968,3.883l-2.398,9.534l3.576,8.945c0,0 -0.999,8.41 -1.357,11.411c-0.358,3.001 -10.024,-2.793 -10.024,-2.793l-2.928,-1.464c0,0 0.483,1.918 2.598,4.068c2.116,2.15 5.353,2.247 2.768,3.982c-2.585,1.736 -6.449,3.225 -6.449,3.225c0,0 1.279,1.37 -1.071,0.535c-2.35,-0.835 0.475,-1.132 -5.175,-1.132c-5.65,0 -12.083,-0.972 -12.083,-0.972l-2.055,-0.069c0,0 1.141,-5.326 -3.363,-2.588c-4.504,2.737 -5.412,2.706 -5.412,2.706c0,0 -1.878,1.815 -7.324,2.41c-5.447,0.595 -9.037,0.403 -9.037,0.403c0,0 -1.072,-1.635 -5.283,-0.944c-4.211,0.69 -4.284,2.896 -7.147,1.793c-2.863,-1.103 0.159,-1.549 -5.366,-0.36c-5.525,1.189 -5.263,0.822 -7.253,1.303c-1.99,0.481 -7.567,-0.414 -10.354,-0.19c-2.787,0.225 1.189,1.046 -6.3,0.71c-7.489,-0.336 -7.163,2.34 -8.293,-0.336c-1.129,-2.676 -1.58,-4.6 -1.58,-4.6l-6.363,-3.182l-1.037,-2.271l0.773,-0.387c0,0 6.335,-2.942 2.841,-2.793c-3.495,0.149 -10.733,8.178 -10.733,8.178l0,3.928l-3.021,-0.063l-0.551,-1.723l-5.545,-0.656l-1.616,-1.189c0,0 -0.725,-4.391 0,-7.102c0.724,-2.711 3.026,-6.88 3.026,-6.88l5.888,-10.129c0,0 -8.306,0.555 -11.668,4.899c-3.361,4.344 -7.98,12.11 -7.98,12.11c0,0 1.032,1.549 0,5.366c-1.031,3.818 -7.592,6.944 0,10.733c7.593,3.79 8.052,6.641 29.976,6.479c21.924,-0.162 24.946,1.474 39.79,4.15c14.844,2.676 16.701,4.16 29.897,3.939c13.197,-0.222 22.799,1.339 34.502,-1.151c11.702,-2.491 8.728,-0.855 17.649,-5.316c8.921,-4.46 18.592,-4.894 18.217,-17.984c-0.375,-13.09 -0.269,-12.227 -3.667,-24.999c-3.398,-12.772 -16.1,-24.15 -16.1,-24.15Z"/></clipPath><g clip-path="url(#_clip12)"><path d="M131.65,25.237l23.692,1.872l-0.012,60.528l-12.947,13.05l-46.294,-6.385l-31.462,-27.201l61.657,-14.729l5.366,-27.135Z" style="fill:#95c759;fill-opacity:0.5;"/></g><path d="M17.21,66.196l-19.724,23.742l-1.594,-26.036l27.128,-29.664l6.665,12.767l-12.475,19.191Z" style="fill:#191919;fill-opacity:0.5;"/></g></g></g></svg>