<?xml version="1.0" encoding="UTF-8" standalone="no"?><!DOCTYPE svg PUBLIC "-//W3C//DTD SVG 1.1//EN" "http://www.w3.org/Graphics/SVG/1.1/DTD/svg11.dtd"><svg width="100%" height="100%" viewBox="0 0 50 36" version="1.1" xmlns="http://www.w3.org/2000/svg" xmlns:xlink="http://www.w3.org/1999/xlink" xml:space="preserve" xmlns:serif="http://www.serif.com/" style="fill-rule:evenodd;clip-rule:evenodd;stroke-linejoin:round;stroke-miterlimit:1.41421;"><g id="rock-runes05"><path d="M22.213,0.108l21.466,0l-10.733,21.466l-21.466,-10.733l10.733,-10.733Z" style="fill:#56685f;"/><path d="M43.679,0.108l5.367,13.416l0,21.467l-16.1,-13.417l10.733,-21.466Z" style="fill:#8d9f97;"/><path d="M49.046,34.991l-32.2,0l16.1,-13.417l16.1,13.417Z" style="fill:#3e574e;"/><path d="M16.846,34.991l-16.099,-8.05l10.733,-16.1l21.466,10.733l-16.1,13.417Z" style="fill:#1c433d;"/><path d="M49.046,34.624l-4.478,-19.227l-7.54,-2.881l-0.001,-8.397l-17.01,2.087l2.196,9.635l-16.1,13.417l5.367,2.683l16.1,-8.05l0,-5.367l-3.04,-3.846l-0.453,-5.141l9.853,-2.546l1.43,10.062l6.815,-0.465l2.477,14.861l-3.83,3.609l8.214,-0.434Z" style="fill:#13190f;fill-opacity:0.65;"/></g></svg>