<?xml version="1.0" encoding="UTF-8" standalone="no"?><!DOCTYPE svg PUBLIC "-//W3C//DTD SVG 1.1//EN" "http://www.w3.org/Graphics/SVG/1.1/DTD/svg11.dtd"><svg width="100%" height="100%" viewBox="0 0 92 60" version="1.1" xmlns="http://www.w3.org/2000/svg" xmlns:xlink="http://www.w3.org/1999/xlink" xml:space="preserve" xmlns:serif="http://www.serif.com/" style="fill-rule:evenodd;clip-rule:evenodd;stroke-linejoin:round;stroke-miterlimit:1.41421;"><g id="rock-highlights02"><g><g><path d="M49.049,0.762l32.199,5.367l-32.199,26.833l-21.466,-10.734l-10.734,-16.099l10.734,-5.367l21.466,0Z" style="fill:#56685f;"/><clipPath id="_clip1"><path d="M49.049,0.762l32.199,5.367l-32.199,26.833l-21.466,-10.734l-10.734,-16.099l10.734,-5.367l21.466,0Z"/></clipPath><g clip-path="url(#_clip1)"><path d="M70.515,54.428l-21.466,-19.319l-18.708,-8.893l7.975,33.578l-11.503,-31.814l-20.697,26.448l18.097,-32.279l-7.364,-16.02l12.422,14.472l19.778,10.993l29.073,-25.915l3.126,0.45l-10.733,48.299Z" style="fill:#8d9f97;"/></g><path d="M81.248,6.129l10.733,26.833l-21.466,21.466l-21.466,-21.466l32.199,-26.833Z" style="fill:#8d9f97;"/><path d="M49.049,32.962l21.466,21.466l-32.199,5.366l-10.733,-37.566l21.466,10.734Z" style="fill:#3e574e;"/><clipPath id="_clip2"><path d="M49.049,32.962l21.466,21.466l-32.199,5.366l-10.733,-37.566l21.466,10.734Z"/></clipPath><g clip-path="url(#_clip2)"><path d="M70.515,54.428l-21.466,-19.319l-18.708,-8.893l7.975,33.578l-11.503,-31.814l-20.697,26.448l18.097,-32.279l-7.364,-16.02l12.422,14.472l19.778,10.993l29.073,-25.915l3.126,0.45l-10.733,48.299Z" style="fill:#8d9f97;"/></g><path d="M27.583,22.228l-21.467,32.2l32.2,5.366l-10.733,-37.566" style="fill:#1c433d;"/><clipPath id="_clip3"><path d="M27.583,22.228l-21.467,32.2l32.2,5.366l-10.733,-37.566"/></clipPath><g clip-path="url(#_clip3)"><path d="M70.515,54.428l-21.466,-19.319l-18.708,-8.893l7.975,33.578l-11.503,-31.814l-20.697,26.448l18.097,-32.279l-7.364,-16.02l12.422,14.472l19.778,10.993l29.073,-25.915l3.126,0.45l-10.733,48.299Z" style="fill:#8d9f97;"/></g><path d="M16.849,6.129l-16.099,18.783l5.366,29.516l21.467,-32.2l-10.734,-16.099Z" style="fill:#1c433d;"/><clipPath id="_clip4"><path d="M16.849,6.129l-16.099,18.783l5.366,29.516l21.467,-32.2l-10.734,-16.099Z"/></clipPath><g clip-path="url(#_clip4)"><path d="M70.515,54.428l-21.466,-19.319l-18.708,-8.893l7.975,33.578l-11.503,-31.814l-20.697,26.448l18.097,-32.279l-7.364,-16.02l12.422,14.472l19.778,10.993l29.073,-25.915l3.126,0.45l-10.733,48.299Z" style="fill:#8d9f97;"/></g></g></g></g></svg>