<?xml version="1.0" encoding="UTF-8" standalone="no"?><!DOCTYPE svg PUBLIC "-//W3C//DTD SVG 1.1//EN" "http://www.w3.org/Graphics/SVG/1.1/DTD/svg11.dtd"><svg width="100%" height="100%" viewBox="0 0 68 56" version="1.1" xmlns="http://www.w3.org/2000/svg" xmlns:xlink="http://www.w3.org/1999/xlink" xml:space="preserve" xmlns:serif="http://www.serif.com/" style="fill-rule:evenodd;clip-rule:evenodd;stroke-linejoin:round;stroke-miterlimit:1.41421;"><g id="rock-runes-highlights09"><g id="rock-highlights09"><g><g><g><path d="M24.473,0.808l14.694,4.408l-5.878,14.694l-17.633,2.939l-5.877,-14.694l14.694,-7.347Z" style="fill:#56685f;"/><clipPath id="_clip1"><path d="M24.473,0.808l14.694,4.408l-5.878,14.694l-17.633,2.939l-5.877,-14.694l14.694,-7.347Z"/></clipPath><g clip-path="url(#_clip1)"><path d="M57.249,42.605l-9.301,-32.068l-3.355,0.63l-0.506,24.604l-3.291,-7.746l0.051,-17.111l-5.13,-1.992l-3.003,13.129l16.1,25.619l-12.119,-13.722l-2.835,1.519l-11.879,14.886l8.488,-15.595l-8.488,-11.238l1.704,-2.076l-6.277,1.215l-7.695,14.934l4.151,-14.732l-4.168,-14.664l5.99,14.563l15.896,-3.088l0.409,-1.88l2.679,-11.89l12.15,1.62l2.734,0.456l10.631,25.363l-0.638,8.201l-2.298,1.063Z" style="fill:#8d9f97;"/></g><path d="M39.167,5.216l11.755,11.756l0,11.755l-17.633,-8.817l5.878,-14.694" style="fill:#8d9f97;"/><clipPath id="_clip2"><path d="M39.167,5.216l11.755,11.756l0,11.755l-17.633,-8.817l5.878,-14.694"/></clipPath><g clip-path="url(#_clip2)"><path d="M57.249,42.605l-9.301,-32.068l-3.355,0.63l-0.506,24.604l-3.291,-7.746l0.051,-17.111l-5.13,-1.992l-3.003,13.129l16.1,25.619l-12.119,-13.722l-2.835,1.519l-11.879,14.886l8.488,-15.595l-8.488,-11.238l1.704,-2.076l-6.277,1.215l-7.695,14.934l4.151,-14.732l-4.168,-14.664l5.99,14.563l15.896,-3.088l0.409,-1.88l2.679,-11.89l12.15,1.62l2.734,0.456l10.631,25.363l-0.638,8.201l-2.298,1.063Z" style="fill:#8d9f97;"/></g><path d="M33.289,19.91l17.633,8.817l-17.633,8.816l-23.51,0l5.877,-14.694l17.633,-2.939Z" style="fill:#3e574e;"/><clipPath id="_clip3"><path d="M33.289,19.91l17.633,8.817l-17.633,8.816l-23.51,0l5.877,-14.694l17.633,-2.939Z"/></clipPath><g clip-path="url(#_clip3)"><path d="M57.249,42.605l-9.301,-32.068l-3.355,0.63l-0.506,24.604l-3.291,-7.746l0.051,-17.111l-5.13,-1.992l-3.003,13.129l16.1,25.619l-12.119,-13.722l-2.835,1.519l-11.879,14.886l8.488,-15.595l-8.488,-11.238l1.704,-2.076l-6.277,1.215l-7.695,14.934l4.151,-14.732l-4.168,-14.664l5.99,14.563l15.896,-3.088l0.409,-1.88l2.679,-11.89l12.15,1.62l2.734,0.456l10.631,25.363l-0.638,8.201l-2.298,1.063Z" style="fill:#8d9f97;"/></g><path d="M9.779,8.155l5.877,14.694l-5.877,14.694l-8.817,-19.102l8.817,-10.286Z" style="fill:#1c433d;"/><clipPath id="_clip4"><path d="M9.779,8.155l5.877,14.694l-5.877,14.694l-8.817,-19.102l8.817,-10.286Z"/></clipPath><g clip-path="url(#_clip4)"><path d="M57.249,42.605l-9.301,-32.068l-3.355,0.63l-0.506,24.604l-3.291,-7.746l0.051,-17.111l-5.13,-1.992l-3.003,13.129l16.1,25.619l-12.119,-13.722l-2.835,1.519l-11.879,14.886l8.488,-15.595l-8.488,-11.238l1.704,-2.076l-6.277,1.215l-7.695,14.934l4.151,-14.732l-4.168,-14.664l5.99,14.563l15.896,-3.088l0.409,-1.88l2.679,-11.89l12.15,1.62l2.734,0.456l10.631,25.363l-0.638,8.201l-2.298,1.063Z" style="fill:#8d9f97;"/></g></g><g><path d="M50.922,8.848l16.1,21.093l-8.05,12.075l-10.665,-34.917l2.615,1.749Z" style="fill:#8d9f97;"/><clipPath id="_clip5"><path d="M50.922,8.848l16.1,21.093l-8.05,12.075l-10.665,-34.917l2.615,1.749Z"/></clipPath><g clip-path="url(#_clip5)"><path d="M57.249,42.605l-9.301,-32.068l-3.355,0.63l-0.506,24.604l-3.291,-7.746l0.051,-17.111l-5.13,-1.992l-3.003,13.129l16.1,25.619l-12.119,-13.722l-2.835,1.519l-11.879,14.886l8.488,-15.595l-8.488,-11.238l1.704,-2.076l-6.277,1.215l-7.695,14.934l4.151,-14.732l-4.168,-14.664l5.99,14.563l15.896,-3.088l0.409,-1.88l2.679,-11.89l12.15,1.62l2.734,0.456l10.631,25.363l-0.638,8.201l-2.298,1.063Z" style="fill:#8d9f97;"/></g><path d="M48.602,6.951l-5.729,2.865l0,36.224l16.099,-4.024l-10.37,-35.065Z" style="fill:#56685f;"/><clipPath id="_clip6"><path d="M48.602,6.951l-5.729,2.865l0,36.224l16.099,-4.024l-10.37,-35.065Z"/></clipPath><g clip-path="url(#_clip6)"><path d="M57.249,42.605l-9.301,-32.068l-3.355,0.63l-0.506,24.604l-3.291,-7.746l0.051,-17.111l-5.13,-1.992l-3.003,13.129l16.1,25.619l-12.119,-13.722l-2.835,1.519l-11.879,14.886l8.488,-15.595l-8.488,-11.238l1.704,-2.076l-6.277,1.215l-7.695,14.934l4.151,-14.732l-4.168,-14.664l5.99,14.563l15.896,-3.088l0.409,-1.88l2.679,-11.89l12.15,1.62l2.734,0.456l10.631,25.363l-0.638,8.201l-2.298,1.063Z" style="fill:#8d9f97;"/></g><path d="M50.922,8.852l-8.049,-7.086l-8.05,4.025l8.05,4.025l8.049,-0.964Z" style="fill:#8d9f97;"/><clipPath id="_clip7"><path d="M50.922,8.852l-8.049,-7.086l-8.05,4.025l8.05,4.025l8.049,-0.964Z"/></clipPath><g clip-path="url(#_clip7)"><path d="M57.249,42.605l-9.301,-32.068l-3.355,0.63l-0.506,24.604l-3.291,-7.746l0.051,-17.111l-5.13,-1.992l-3.003,13.129l16.1,25.619l-12.119,-13.722l-2.835,1.519l-11.879,14.886l8.488,-15.595l-8.488,-11.238l1.704,-2.076l-6.277,1.215l-7.695,14.934l4.151,-14.732l-4.168,-14.664l5.99,14.563l15.896,-3.088l0.409,-1.88l2.679,-11.89l12.15,1.62l2.734,0.456l10.631,25.363l-0.638,8.201l-2.298,1.063Z" style="fill:#8d9f97;"/></g><path d="M34.823,5.791l8.05,4.025l0,36.224l-16.1,-4.024l8.05,-36.225Z" style="fill:#3e574e;"/><clipPath id="_clip8"><path d="M34.823,5.791l8.05,4.025l0,36.224l-16.1,-4.024l8.05,-36.225Z"/></clipPath><g clip-path="url(#_clip8)"><path d="M57.249,42.605l-9.301,-32.068l-3.355,0.63l-0.506,24.604l-3.291,-7.746l0.051,-17.111l-5.13,-1.992l-3.003,13.129l16.1,25.619l-12.119,-13.722l-2.835,1.519l-11.879,14.886l8.488,-15.595l-8.488,-11.238l1.704,-2.076l-6.277,1.215l-7.695,14.934l4.151,-14.732l-4.168,-14.664l5.99,14.563l15.896,-3.088l0.409,-1.88l2.679,-11.89l12.15,1.62l2.734,0.456l10.631,25.363l-0.638,8.201l-2.298,1.063Z" style="fill:#8d9f97;"/></g></g><g><path d="M27.348,15.47l10.733,5.367l0,10.733l-5.367,2.683l-10.733,-10.733l5.367,-8.05Z" style="fill:#8d9f97;"/><clipPath id="_clip9"><path d="M27.348,15.47l10.733,5.367l0,10.733l-5.367,2.683l-10.733,-10.733l5.367,-8.05Z"/></clipPath><g clip-path="url(#_clip9)"><path d="M57.249,42.605l-9.301,-32.068l-3.355,0.63l-0.506,24.604l-3.291,-7.746l0.051,-17.111l-5.13,-1.992l-3.003,13.129l16.1,25.619l-12.119,-13.722l-2.835,1.519l-11.879,14.886l8.488,-15.595l-8.488,-11.238l1.704,-2.076l-6.277,1.215l-7.695,14.934l4.151,-14.732l-4.168,-14.664l5.99,14.563l15.896,-3.088l0.409,-1.88l2.679,-11.89l12.15,1.62l2.734,0.456l10.631,25.363l-0.638,8.201l-2.298,1.063Z" style="fill:#8d9f97;"/></g><path d="M38.081,31.57l10.733,16.1l-16.1,8.049l-10.733,-5.366l10.733,-16.1l5.367,-2.683Z" style="fill:#56685f;"/><clipPath id="_clip10"><path d="M38.081,31.57l10.733,16.1l-16.1,8.049l-10.733,-5.366l10.733,-16.1l5.367,-2.683Z"/></clipPath><g clip-path="url(#_clip10)"><path d="M57.249,42.605l-9.301,-32.068l-3.355,0.63l-0.506,24.604l-3.291,-7.746l0.051,-17.111l-5.13,-1.992l-3.003,13.129l16.1,25.619l-12.119,-13.722l-2.835,1.519l-11.879,14.886l8.488,-15.595l-8.488,-11.238l1.704,-2.076l-6.277,1.215l-7.695,14.934l4.151,-14.732l-4.168,-14.664l5.99,14.563l15.896,-3.088l0.409,-1.88l2.679,-11.89l12.15,1.62l2.734,0.456l10.631,25.363l-0.638,8.201l-2.298,1.063Z" style="fill:#8d9f97;"/></g><path d="M32.714,34.253l-10.733,16.1l-5.366,-8.05l5.366,-18.783l10.733,10.733Z" style="fill:#3e574e;"/><clipPath id="_clip11"><path d="M32.714,34.253l-10.733,16.1l-5.366,-8.05l5.366,-18.783l10.733,10.733Z"/></clipPath><g clip-path="url(#_clip11)"><path d="M57.249,42.605l-9.301,-32.068l-3.355,0.63l-0.506,24.604l-3.291,-7.746l0.051,-17.111l-5.13,-1.992l-3.003,13.129l16.1,25.619l-12.119,-13.722l-2.835,1.519l-11.879,14.886l8.488,-15.595l-8.488,-11.238l1.704,-2.076l-6.277,1.215l-7.695,14.934l4.151,-14.732l-4.168,-14.664l5.99,14.563l15.896,-3.088l0.409,-1.88l2.679,-11.89l12.15,1.62l2.734,0.456l10.631,25.363l-0.638,8.201l-2.298,1.063Z" style="fill:#8d9f97;"/></g><path d="M38.081,20.837l10.733,26.833l-10.733,-16.1l0,-10.733Z" style="fill:#8d9f97;"/><clipPath id="_clip12"><path d="M38.081,20.837l10.733,26.833l-10.733,-16.1l0,-10.733Z"/></clipPath><g clip-path="url(#_clip12)"><path d="M57.249,42.605l-9.301,-32.068l-3.355,0.63l-0.506,24.604l-3.291,-7.746l0.051,-17.111l-5.13,-1.992l-3.003,13.129l16.1,25.619l-12.119,-13.722l-2.835,1.519l-11.879,14.886l8.488,-15.595l-8.488,-11.238l1.704,-2.076l-6.277,1.215l-7.695,14.934l4.151,-14.732l-4.168,-14.664l5.99,14.563l15.896,-3.088l0.409,-1.88l2.679,-11.89l12.15,1.62l2.734,0.456l10.631,25.363l-0.638,8.201l-2.298,1.063Z" style="fill:#8d9f97;"/></g></g></g></g></g><path d="M47.191,48.519l-9.11,-11.911l2.346,6.54l-7.713,1.51l-5.366,-2.683l-4.295,-13.952l3.011,15.928l6.65,2.441l7.994,-1.651l-0.359,2.368l-7.635,2.916l-7.296,-0.116l7.296,1.795l7.72,-3.186l2.212,-1.696l0.802,3.203l3.743,-1.506Z" style="fill:#13190f;fill-opacity:0.65;"/><path d="M32.714,23.192l0,-2.643l-4.569,-2.01l-0.797,7.336l5.966,4.365l2.854,-3.408l-1.993,-0.612l-0.764,1.99l-3.84,-3.446l-0.018,-3.153l1.823,0.159l0.463,1.859l0.875,-0.437Z" style="fill:#13190f;fill-opacity:0.65;"/><path d="M59.547,20.508l-5.366,3.2l-10.733,-3.517l-8.948,-12.206l-1.786,7.54l10.734,8.183l2.551,0.759l2.815,13.454l2.688,2.71l-0.809,-3.084l-1.879,-11.672l5.367,0.489l5.366,-5.856Z" style="fill:#13190f;fill-opacity:0.65;"/><path d="M24.494,0.469l-1.015,9.026l-13.83,-1.603l1.599,2.967l11.442,-0.431l-9.763,4.594l-5.814,-3.446l-2.225,2.154l8.542,3.876l9.655,-4.595l4.263,-3.236l-1.284,-8.32l-1.57,-0.986Z" style="fill:#13190f;fill-opacity:0.65;"/><path d="M6.693,30.836l8.057,-5.893l5.604,4.429l-1.031,3.224l-5.606,-4.15l-4.878,6.683l-2.146,-4.293" style="fill:#13190f;fill-opacity:0.65;"/></g></svg>