<?xml version="1.0" encoding="UTF-8" standalone="no"?><!DOCTYPE svg PUBLIC "-//W3C//DTD SVG 1.1//EN" "http://www.w3.org/Graphics/SVG/1.1/DTD/svg11.dtd"><svg width="100%" height="100%" viewBox="0 0 74 50" version="1.1" xmlns="http://www.w3.org/2000/svg" xmlns:xlink="http://www.w3.org/1999/xlink" xml:space="preserve" xmlns:serif="http://www.serif.com/" style="fill-rule:evenodd;clip-rule:evenodd;stroke-linecap:round;stroke-linejoin:round;stroke-miterlimit:1.5;"><g id="sign04"><path d="M4.777,31.211l64.841,-28.098l1.138,8.077l3.185,7.053l-56.196,28.098l-10.039,2.822l1.393,-7.145l-4.322,-10.807Z" style="fill:#755639;"/><clipPath id="_clip1"><path d="M4.777,31.211l64.841,-28.098l1.138,8.077l3.185,7.053l-56.196,28.098l-10.039,2.822l1.393,-7.145l-4.322,-10.807Z"/></clipPath><g clip-path="url(#_clip1)"><path d="M19.981,41.687c0,0 -6.858,1.987 -8.173,2.946c-1.314,0.959 0.622,2.476 0.034,2.622c-0.587,0.145 0.177,2.088 0.177,2.088c0,0 0.325,1.019 1.975,-0.124c1.65,-1.143 0.861,-1.814 2.071,-3.337c1.209,-1.523 1.053,-2.942 4.985,-4.722c3.978,-1.8 5.839,-0.649 9.151,-3.908c3.329,-3.276 3.79,-4.415 5.946,-5.609" style="fill:none;stroke:#000;stroke-width:0.5px;"/><path d="M73.941,5.274c0,0 -6.07,0.479 -7.032,3.517c-0.963,3.037 -5.285,5.479 -8.745,5.886c-3.46,0.407 -3.813,2.354 -12.165,6.886c-8.352,4.531 -16.119,6.83 -17.857,6.611c-1.738,-0.219 -2.978,-0.064 -9.646,3.115c-6.668,3.179 -8.016,4.032 -9.397,4.652c-1.38,0.62 -2.396,-0.269 -2.396,-0.269" style="fill:none;stroke:#000;stroke-width:0.5px;"/><path d="M8.329,39.944c0,0 13.696,-3.176 14.49,-3.176c0.794,0 5.17,-1.389 7.894,-2.878c2.725,-1.488 12.487,-4.839 13.734,-5.223c1.247,-0.384 7.797,-3.113 9.98,-4.502c2.184,-1.39 6.547,-4.671 8.956,-4.966c2.408,-0.294 5.782,-1.584 7.767,-3.272c1.985,-1.687 3.771,-3.275 4.267,-3.473c0.497,-0.199 1.16,-0.945 1.16,-0.945" style="fill:none;stroke:#000;stroke-width:0.5px;"/><path d="M67.98,13.933c0,0 3.533,-4.876 4.924,-5.72c1.392,-0.845 0.439,2.629 1.037,2.534c0.598,-0.095 0,-2.096 0,-2.096c0,0 -0.238,-1.043 -1.978,-0.043c-1.74,1 -1.01,1.735 -2.345,3.151c-1.334,1.415 -1.256,2.966 -5.365,4.284c-4.11,1.318 -5.872,0.12 -9.449,3.123c-3.577,3.002 -3.732,4.088 -5.981,5.096" style="fill:none;stroke:#000;stroke-width:0.5px;"/></g><path d="M4.777,31.721l64.841,-28.098l1.138,8.077l3.185,7.053l-56.196,28.098l-10.039,2.822l1.393,-7.145l-4.322,-10.807Z" style="fill:#755639;"/><clipPath id="_clip2"><path d="M4.777,31.721l64.841,-28.098l1.138,8.077l3.185,7.053l-56.196,28.098l-10.039,2.822l1.393,-7.145l-4.322,-10.807Z"/></clipPath><g clip-path="url(#_clip2)"><path d="M19.981,42.197c0,0 -6.858,1.987 -8.173,2.946c-1.314,0.959 0.622,2.476 0.034,2.622c-0.587,0.145 0.177,2.088 0.177,2.088c0,0 0.325,1.019 1.975,-0.124c1.65,-1.143 0.861,-1.814 2.071,-3.337c1.209,-1.523 1.053,-2.942 4.985,-4.722c3.978,-1.8 5.839,-0.649 9.151,-3.908c3.329,-3.276 3.79,-4.415 5.946,-5.609" style="fill:none;"/><path d="M73.941,5.785c0,0 -6.07,0.478 -7.032,3.516c-0.963,3.037 -5.285,5.479 -8.745,5.886c-3.46,0.408 -3.813,2.354 -12.165,6.886c-8.352,4.531 -16.119,6.83 -17.857,6.611c-1.738,-0.219 -2.978,-0.064 -9.646,3.115c-6.668,3.179 -8.016,4.032 -9.397,4.652c-1.38,0.62 -2.396,-0.268 -2.396,-0.268" style="fill:none;"/><path d="M8.329,40.454c0,0 13.696,-3.175 14.49,-3.175c0.794,0 5.17,-1.39 7.894,-2.878c2.725,-1.489 12.487,-4.84 13.734,-5.224c1.247,-0.384 7.797,-3.113 9.98,-4.502c2.184,-1.39 6.547,-4.671 8.956,-4.966c2.408,-0.294 5.782,-1.584 7.767,-3.271c1.985,-1.688 3.771,-3.275 4.267,-3.474c0.497,-0.198 1.16,-0.945 1.16,-0.945" style="fill:none;"/><path d="M67.98,14.443c0,0 3.533,-4.875 4.924,-5.72c1.392,-0.845 0.439,2.629 1.037,2.534c0.598,-0.095 0,-2.096 0,-2.096c0,0 -0.238,-1.042 -1.978,-0.043c-1.74,1 -1.01,1.735 -2.345,3.151c-1.334,1.415 -1.256,2.966 -5.365,4.284c-4.11,1.318 -5.872,0.12 -9.449,3.123c-3.577,3.002 -3.732,4.088 -5.981,5.096" style="fill:none;"/></g><path d="M34.777,21.713c0,0 -0.727,0.858 -2.042,1.818c-1.315,0.959 -3.041,1.714 -3.628,1.859c-0.588,0.146 0.176,2.089 0.176,2.089c0,0 0.325,1.019 1.975,-0.124c1.65,-1.143 0.861,-1.814 2.071,-3.337c1.21,-1.524 1.053,-2.943 4.985,-4.722c3.978,-1.801 5.839,-0.649 9.151,-3.909c3.329,-3.275 3.374,-4.388 5.53,-5.582" style="fill:none;"/><path d="M65.296,0.952l-64.842,28.098l4.323,2.161l64.841,-28.098l-4.322,-2.161Z" style="fill:#906f51;"/><clipPath id="_clip3"><path d="M65.296,0.952l-64.842,28.098l4.323,2.161l64.841,-28.098l-4.322,-2.161Z"/></clipPath><g clip-path="url(#_clip3)"><path d="M-17.565,33.736c0,0 17.212,-3.948 18.212,-3.956c1,-0.008 6.497,-1.719 9.912,-3.532c3.416,-1.814 18.85,-8.174 20.416,-8.647c1.567,-0.473 6.612,-1.572 9.348,-3.261c2.735,-1.689 8.198,-5.669 11.227,-6.047c3.029,-0.378 7.265,-1.96 9.748,-4.004c2.483,-2.044 4.716,-3.967 5.339,-4.21c0.623,-0.243 1.451,-1.146 1.451,-1.146" style="fill:none;"/></g><path d="M9.099,42.018l-1.349,7.187l-3.915,-1.435l0.942,-7.913l-4.323,-10.807l4.323,2.161l4.322,10.807" style="fill:#1c433d;"/></g></svg>