<?xml version="1.0" encoding="UTF-8" standalone="no"?><!DOCTYPE svg PUBLIC "-//W3C//DTD SVG 1.1//EN" "http://www.w3.org/Graphics/SVG/1.1/DTD/svg11.dtd"><svg width="100%" height="100%" viewBox="0 0 92 143" version="1.1" xmlns="http://www.w3.org/2000/svg" xmlns:xlink="http://www.w3.org/1999/xlink" xml:space="preserve" xmlns:serif="http://www.serif.com/" style="fill-rule:evenodd;clip-rule:evenodd;stroke-linejoin:round;stroke-miterlimit:1.41421;"><g id="sign06"><g><path d="M51.715,5.857l0,134.164l-5.367,2.684l0,-134.164l5.367,-2.684Z" style="fill:#625639;"/><path d="M40.982,5.857l0,134.164l5.366,2.684l0,-134.164l-5.366,-2.684" style="fill:#1c433d;"/><path d="M51.715,5.857l-5.367,-2.683l-5.366,2.683l5.366,2.684l5.367,-2.684" style="fill:#5f6f51;"/></g><g><path d="M85.923,37.859l-80.498,-34.883l0,10.733l-5.367,8.05l69.766,34.883l21.466,0l-5.367,-18.783Z" style="fill:#755639;"/><path d="M6.617,8.939c0,0 7.536,0.594 8.731,4.365c1.194,3.771 6.56,6.802 10.856,7.308c4.295,0.506 4.734,2.922 15.103,8.548c10.368,5.626 20.011,8.479 22.168,8.208c2.157,-0.272 3.697,-0.08 11.975,3.867c8.278,3.946 9.952,5.005 11.666,5.775c1.714,0.77 2.974,-0.333 2.974,-0.333" style="fill:none;"/><path d="M89.527,52.157c0,0 -18.457,-4.12 -19.443,-4.12c-0.986,0 -6.419,-1.725 -9.801,-3.573c-3.382,-1.848 -15.502,-6.008 -17.05,-6.484c-1.548,-0.477 -9.68,-3.865 -12.39,-5.59c-2.711,-1.725 -8.128,-5.798 -11.118,-6.164c-2.989,-0.366 -7.178,-1.967 -9.642,-4.062c-2.465,-2.094 -4.682,-4.066 -5.298,-4.312c-0.616,-0.247 -1.439,-1.174 -1.439,-1.174" style="fill:none;"/><path d="M14.017,19.688c0,0 -0.989,-0.986 -2.716,-2.035c-1.727,-1.049 -3.941,-1.802 -4.684,-1.92c-0.742,-0.118 0,-2.602 0,-2.602c0,0 0.296,-1.295 2.456,-0.054c2.161,1.241 1.255,2.154 2.911,3.912c1.656,1.757 1.56,3.682 6.661,5.319c5.102,1.636 7.289,0.149 11.73,3.876c4.441,3.728 4.634,5.075 7.425,6.327" style="fill:none;"/><path d="M55.238,29.347c0,0 0.903,1.065 2.535,2.256c1.632,1.191 3.775,2.128 4.505,2.309c0.73,0.18 -0.22,2.592 -0.22,2.592c0,0 -0.403,1.265 -2.451,-0.154c-2.049,-1.418 -1.069,-2.251 -2.571,-4.142c-1.502,-1.891 -1.308,-3.653 -6.189,-5.862c-4.938,-2.235 -7.249,-0.806 -11.361,-4.853c-4.133,-4.066 -4.189,-5.447 -6.865,-6.93" style="fill:none;"/><path d="M10.792,0.293l80.498,34.882l-5.367,2.684l-80.498,-34.883l5.367,-2.683Z" style="fill:#906f51;"/><path d="M91.29,56.642l0,-21.467l-5.367,2.684l5.367,18.783Z" style="fill:#1c433d;"/></g><g><g transform="matrix(0.914881,0.403723,-0.116512,1.04162,-170.324,456.098)"><text x="132.608px" y="-469.409px" style="font-family:'OldEnglishTextMT', 'Old English Text MT', cursive;font-size:18.189px;fill:#5f6f51;">S<tspan x="159.415px 173.648px 189.834px 198.749px " y="-469.409px -469.409px -469.409px -469.409px ">outh</tspan></text></g><g transform="matrix(0.914881,0.403723,-0.116512,1.04162,-170.126,455.621)"><text x="133.696px" y="-468.508px" style="font-family:'OldEnglishTextMT', 'Old English Text MT', cursive;font-size:18.189px;fill:#091109;">S<tspan x="160.504px 174.737px 190.923px 199.838px " y="-468.508px -468.508px -468.508px -468.508px ">outh</tspan></text></g><g transform="matrix(0.914881,0.403723,-0.116512,1.04162,-169.889,455.015)"><text x="135.094px" y="-467.494px" style="font-family:'OldEnglishTextMT', 'Old English Text MT', cursive;font-size:18.189px;fill:#091109;fill-opacity:0.528571;">S<tspan x="161.901px 176.134px 192.321px 201.236px " y="-467.494px -467.494px -467.494px -467.494px ">outh</tspan></text></g></g></g></svg>