<?xml version="1.0" encoding="UTF-8" standalone="no"?><!DOCTYPE svg PUBLIC "-//W3C//DTD SVG 1.1//EN" "http://www.w3.org/Graphics/SVG/1.1/DTD/svg11.dtd"><svg width="100%" height="100%" viewBox="0 0 97 144" version="1.1" xmlns="http://www.w3.org/2000/svg" xmlns:xlink="http://www.w3.org/1999/xlink" xml:space="preserve" xmlns:serif="http://www.serif.com/" style="fill-rule:evenodd;clip-rule:evenodd;stroke-linejoin:round;stroke-miterlimit:1.41421;"><g id="sign09"><g><path d="M52.034,6.236l0,134.164l-5.367,2.683l0,-134.164l5.367,-2.683Z" style="fill:#625639;"/><path d="M41.301,6.236l0,134.164l5.366,2.683l0,-134.164l-5.366,-2.683" style="fill:#1c433d;"/><path d="M52.034,6.236l-5.367,-2.683l-5.366,2.683l5.366,2.683l5.367,-2.683" style="fill:#5f6f51;"/></g><path d="M5.744,38.237l80.499,-34.883l10.733,5.367l-5.367,13.416l-69.765,34.883l-10.733,-5.366l-5.367,-13.417Z" style="fill:#755639;"/><path d="M91.609,6.038c0,0 -7.535,0.594 -8.73,4.365c-1.195,3.771 -6.561,6.802 -10.856,7.308c-4.296,0.506 -4.734,2.922 -15.103,8.548c-10.369,5.626 -20.011,8.479 -22.169,8.208c-2.157,-0.272 -3.697,-0.08 -11.975,3.867c-8.278,3.946 -9.951,5.005 -11.665,5.775c-1.714,0.77 -2.975,-0.333 -2.975,-0.333" style="fill:none;"/><path d="M10.155,49.079c0,0 17.002,-3.943 17.988,-3.943c0.985,0 6.419,-1.725 9.801,-3.573c3.382,-1.848 15.501,-6.008 17.049,-6.484c1.549,-0.477 9.68,-3.865 12.391,-5.59c2.71,-1.725 8.127,-5.798 11.117,-6.164c2.99,-0.366 7.179,-1.967 9.643,-4.062c2.464,-2.094 4.682,-4.066 5.298,-4.312c0.616,-0.247 1.439,-1.174 1.439,-1.174" style="fill:none;"/><path d="M84.209,16.787c0,0 0.99,-0.986 2.717,-2.035c1.727,-1.049 3.941,-1.802 4.683,-1.92c0.743,-0.118 0,-2.602 0,-2.602c0,0 -0.295,-1.295 -2.455,-0.054c-2.161,1.241 -1.255,2.154 -2.911,3.912c-1.656,1.757 -1.56,3.682 -6.662,5.319c-5.101,1.636 -7.289,0.149 -11.73,3.876c-4.441,3.728 -4.633,5.075 -7.424,6.327" style="fill:none;"/><path d="M42.989,26.446c0,0 -0.903,1.065 -2.535,2.256c-1.633,1.191 -3.775,2.128 -4.505,2.309c-0.73,0.18 0.219,2.593 0.219,2.593c0,0 0.404,1.264 2.452,-0.154c2.048,-1.419 1.068,-2.252 2.57,-4.143c1.502,-1.891 1.309,-3.653 6.189,-5.862c4.939,-2.235 7.249,-0.806 11.361,-4.853c4.133,-4.066 4.189,-5.447 6.865,-6.93" style="fill:none;"/><path d="M80.876,0.671l-80.498,34.883l5.366,2.683l80.499,-34.883l-5.367,-2.683Z" style="fill:#906f51;"/><path d="M11.111,51.654l-5.367,-2.684l-5.366,-13.416l5.366,2.683l5.367,13.417" style="fill:#1c433d;"/><g><g transform="matrix(0.90543,-0.424496,-0.102766,1.15263,-76.4669,-531.506)"><text x="169.606px" y="568.965px" style="font-family:'OldEnglishTextMT', 'Old English Text MT', cursive;font-size:21.788px;fill:#5f6f51;">E<tspan x="195.087px 210.755px 226.558px " y="568.965px 568.965px 568.965px ">ast</tspan></text></g><g transform="matrix(0.90543,-0.424496,-0.102766,1.15263,-76.3595,-530.995)"><text x="170.794px" y="568.918px" style="font-family:'OldEnglishTextMT', 'Old English Text MT', cursive;font-size:21.788px;fill:#091109;">E<tspan x="196.275px 211.942px 227.746px " y="568.918px 568.918px 568.918px ">ast</tspan></text></g><g transform="matrix(0.90543,-0.424496,-0.102766,1.15263,-76.2394,-530.312)"><text x="172.318px" y="568.684px" style="font-family:'OldEnglishTextMT', 'Old English Text MT', cursive;font-size:21.788px;fill:#091109;fill-opacity:0.528571;">E<tspan x="197.799px 213.466px 229.27px " y="568.684px 568.684px 568.684px ">ast</tspan></text></g></g></g></svg>