<?xml version="1.0" encoding="UTF-8" standalone="no"?><!DOCTYPE svg PUBLIC "-//W3C//DTD SVG 1.1//EN" "http://www.w3.org/Graphics/SVG/1.1/DTD/svg11.dtd"><svg width="100%" height="100%" viewBox="0 0 23 72" version="1.1" xmlns="http://www.w3.org/2000/svg" xmlns:xlink="http://www.w3.org/1999/xlink" xml:space="preserve" xmlns:serif="http://www.serif.com/" style="fill-rule:evenodd;clip-rule:evenodd;stroke-linecap:round;stroke-linejoin:round;stroke-miterlimit:1.5;"><g id="cactus05"><path d="M22.939,51.498l0,-22.391l-2.799,-9.796l-5.597,-5.597l-2.799,-1.4l-2.799,1.4l-5.598,5.597l-2.798,9.796l0,39.184l5.597,2.799l11.196,0l5.597,-2.799l0,-16.793Z" style="fill:#9b9a87;"/><clipPath id="_clip1"><path d="M22.939,51.498l0,-22.391l-2.799,-9.796l-5.597,-5.597l-2.799,-1.4l-2.799,1.4l-5.598,5.597l-2.798,9.796l0,39.184l5.597,2.799l11.196,0l5.597,-2.799l0,-16.793Z"/></clipPath><g clip-path="url(#_clip1)"><path d="M24.274,10.183l-12.53,1.247l-0.89,62.904l17.683,-3.244l-4.263,-60.907Z" style="fill:#d3d277;stroke:#000;stroke-width:1px;"/><path d="M27.685,8.477c9.707,6.793 14.58,16.605 10.876,21.898c-3.704,5.293 -14.592,4.075 -24.299,-2.718c-9.706,-6.793 -14.58,-16.605 -10.876,-21.898c3.705,-5.293 14.592,-4.075 24.299,2.718Z" style="fill:#95c759;fill-opacity:0.5;"/><path d="M6.146,31.906l2.799,-18.192l2.799,-1.4l2.799,1.4l2.799,18.192l0,22.391l-2.799,18.192l-5.598,0l-2.799,-18.192l0,-22.391Z" style="fill:#194b49;"/><clipPath id="_clip2"><path d="M6.146,31.906l2.799,-18.192l2.799,-1.4l2.799,1.4l2.799,18.192l0,22.391l-2.799,18.192l-5.598,0l-2.799,-18.192l0,-22.391Z"/></clipPath><g clip-path="url(#_clip2)"><path d="M27.685,8.477c9.707,6.793 14.58,16.605 10.876,21.898c-3.704,5.293 -14.592,4.075 -24.299,-2.718c-9.706,-6.793 -14.58,-16.605 -10.876,-21.898c3.705,-5.293 14.592,-4.075 24.299,2.718Z" style="fill:#95c759;fill-opacity:0.5;"/></g></g><g><circle cx="11.729" cy="10.701" r="3.548" style="fill:#abcf5b;"/></g><g><path d="M10.384,9.848l-3.347,-4.168l0.38,-5.179l5.42,1.292l-2.453,8.055" style="fill:#ae3c8a;"/><path d="M10.384,9.848l-6.999,-4.165l0.267,-3.633l6.841,6.305" style="fill:#d87bba;"/><path d="M10.384,9.848l7.798,-6.732l-3.5,-2.083l-3.765,1.55l-0.533,7.265Z" style="fill:#d87bba;"/><path d="M10.384,9.848l4.032,-5.182l6.012,1.048l-1.073,1.892l-8.971,2.242" style="fill:#d87bba;"/><path d="M10.384,9.848l7.265,0.533l3.765,-1.55l-3.499,-2.083l-7.531,3.1" style="fill:#d87bba;"/><path d="M10.384,9.848l-3.064,-1.824l1.292,-3.021l4.323,0.272l1.921,3.444l-4.472,1.129Z" style="fill:#ae3c8a;"/><path d="M3.385,5.683l1.11,2.34l5.889,1.825l-6.999,-4.165Z" style="fill:#ae3c8a;"/></g><g><circle cx="14.982" cy="17.621" r="1.708" style="fill:#777ea9;"/><circle cx="16.251" cy="24.859" r="1.708" style="fill:#777ea9;"/><circle cx="17.342" cy="32.089" r="1.708" style="fill:#777ea9;"/><circle cx="17.342" cy="39.413" r="1.708" style="fill:#777ea9;"/><circle cx="17.342" cy="54.488" r="1.708" style="fill:#777ea9;"/><circle cx="16.251" cy="61.258" r="1.708" style="fill:#777ea9;"/><circle cx="15.135" cy="68.077" r="1.708" style="fill:#777ea9;"/><circle cx="17.342" cy="46.789" r="1.708" style="fill:#777ea9;"/></g><g><circle cx="8.476" cy="17.621" r="1.708" style="fill:#777ea9;"/><circle cx="7.207" cy="24.859" r="1.708" style="fill:#777ea9;"/><circle cx="6.116" cy="32.089" r="1.708" style="fill:#777ea9;"/><circle cx="6.116" cy="39.413" r="1.708" style="fill:#777ea9;"/><circle cx="6.116" cy="54.488" r="1.708" style="fill:#777ea9;"/><circle cx="7.207" cy="61.258" r="1.708" style="fill:#777ea9;"/><circle cx="8.323" cy="68.077" r="1.708" style="fill:#777ea9;"/><circle cx="6.116" cy="46.789" r="1.708" style="fill:#777ea9;"/></g><g><g opacity="0.3"><circle cx="8.476" cy="17.621" r="1.708" style="fill:#090705;"/><circle cx="7.207" cy="24.859" r="1.708" style="fill:#090705;"/><circle cx="6.116" cy="32.089" r="1.708" style="fill:#090705;"/><circle cx="6.116" cy="39.413" r="1.708" style="fill:#090705;"/><circle cx="6.116" cy="54.488" r="1.708" style="fill:#090705;"/><circle cx="7.207" cy="61.258" r="1.708" style="fill:#090705;"/><circle cx="8.323" cy="68.077" r="1.708" style="fill:#090705;"/><circle cx="6.116" cy="46.789" r="1.708" style="fill:#090705;"/></g></g></g></svg>