<?xml version="1.0" encoding="UTF-8" standalone="no"?><!DOCTYPE svg PUBLIC "-//W3C//DTD SVG 1.1//EN" "http://www.w3.org/Graphics/SVG/1.1/DTD/svg11.dtd"><svg width="100%" height="100%" viewBox="0 0 59 53" version="1.1" xmlns="http://www.w3.org/2000/svg" xmlns:xlink="http://www.w3.org/1999/xlink" xml:space="preserve" xmlns:serif="http://www.serif.com/" style="fill-rule:evenodd;clip-rule:evenodd;stroke-linecap:round;stroke-linejoin:round;stroke-miterlimit:1.5;"><g id="cactus08"><path d="M53.718,37.041l-1.325,-9.572l-4.397,-10.358l-5.3,-8.083l-6.403,-6.139l-6.923,-1.944l-7.806,1.569l-5.204,5.115l-6.4,9.335l-4.076,10.47l0.366,10.549l5.708,10.377l12.161,4.471l11.195,0l12.613,-5.052l5.791,-10.738Z" style="fill:#9b9a87;"/><clipPath id="_clip1"><path d="M53.718,37.041l-1.325,-9.572l-4.397,-10.358l-5.3,-8.083l-6.403,-6.139l-6.923,-1.944l-7.806,1.569l-5.204,5.115l-6.4,9.335l-4.076,10.47l0.366,10.549l5.708,10.377l12.161,4.471l11.195,0l12.613,-5.052l5.791,-10.738Z"/></clipPath><g clip-path="url(#_clip1)"><path d="M30.927,-15.658l-1.211,8.83l-0.89,62.903l23.567,7.136l13.009,-14.962c3.849,-41.307 -8.935,-79.846 -34.475,-63.907Z" style="fill:#d3d277;stroke:#000;stroke-width:1px;"/><path d="M41.691,-1.473c9.706,6.793 14.58,16.605 10.876,21.898c-3.705,5.293 -14.592,4.076 -24.299,-2.717c-9.707,-6.793 -14.58,-16.606 -10.876,-21.899c3.704,-5.292 14.592,-4.075 24.299,2.718Z" style="fill:#95c759;fill-opacity:0.5;"/><path d="M19.16,15.429l2.764,-17.482l7.792,-3.891l2.799,1.399l6.179,21.919l2.966,11.853l0,14.524l-1.779,10.913l-19.687,0.433l-1.882,-11.606l-0.164,-14.779l1.012,-13.283Z" style="fill:#194b49;"/><clipPath id="_clip2"><path d="M19.16,15.429l2.764,-17.482l7.792,-3.891l2.799,1.399l6.179,21.919l2.966,11.853l0,14.524l-1.779,10.913l-19.687,0.433l-1.882,-11.606l-0.164,-14.779l1.012,-13.283Z"/></clipPath><g clip-path="url(#_clip2)"><path d="M41.691,-1.473c9.706,6.793 14.58,16.605 10.876,21.898c-3.705,5.293 -14.592,4.076 -24.299,-2.717c-9.707,-6.793 -14.58,-16.606 -10.876,-21.899c3.704,-5.292 14.592,-4.075 24.299,2.718Z" style="fill:#95c759;fill-opacity:0.5;"/></g></g><g><path d="M35.754,8.313c-0.942,0.027 -1.729,-0.716 -1.756,-1.658c-0.027,-0.943 0.716,-1.73 1.658,-1.757c0.942,-0.027 1.729,0.716 1.756,1.658c0.027,0.943 -0.715,1.73 -1.658,1.757Z" style="fill:#777ea9;"/><path d="M38.053,14.509c-0.942,0.027 -1.729,-0.716 -1.756,-1.658c-0.028,-0.943 0.715,-1.73 1.658,-1.757c0.942,-0.027 1.729,0.716 1.756,1.658c0.027,0.943 -0.716,1.73 -1.658,1.757Z" style="fill:#777ea9;"/><path d="M40.264,21.83c-0.943,0.027 -1.73,-0.716 -1.757,-1.658c-0.027,-0.943 0.716,-1.73 1.658,-1.757c0.943,-0.027 1.73,0.716 1.757,1.658c0.027,0.942 -0.716,1.729 -1.658,1.757Z" style="fill:#777ea9;"/><path d="M41.698,35.898c-0.943,0.027 -1.73,-0.716 -1.757,-1.658c-0.027,-0.942 0.716,-1.729 1.658,-1.756c0.942,-0.027 1.729,0.716 1.757,1.658c0.027,0.942 -0.716,1.729 -1.658,1.756Z" style="fill:#777ea9;"/><path d="M41.802,43.697c-0.942,0.027 -1.729,-0.716 -1.756,-1.658c-0.028,-0.942 0.715,-1.729 1.658,-1.756c0.942,-0.027 1.729,0.716 1.756,1.658c0.027,0.942 -0.716,1.729 -1.658,1.756Z" style="fill:#777ea9;"/><path d="M40.883,50.545c-0.942,0.027 -1.729,-0.716 -1.756,-1.658c-0.027,-0.943 0.716,-1.73 1.658,-1.757c0.942,-0.027 1.729,0.716 1.756,1.658c0.027,0.943 -0.716,1.73 -1.658,1.757Z" style="fill:#777ea9;"/><path d="M41.476,29.203c-0.942,0.027 -1.729,-0.716 -1.756,-1.658c-0.027,-0.943 0.715,-1.73 1.658,-1.757c0.942,-0.027 1.729,0.716 1.756,1.658c0.027,0.942 -0.716,1.729 -1.658,1.757Z" style="fill:#777ea9;"/></g><g><g><path d="M20.312,8.34c0.941,0.054 1.749,-0.667 1.802,-1.608c0.054,-0.941 -0.666,-1.748 -1.607,-1.802c-0.942,-0.054 -1.749,0.667 -1.803,1.608c-0.053,0.941 0.667,1.748 1.608,1.802Z" style="fill:#777ea9;"/><path d="M18.811,14.497c0.941,0.053 1.749,-0.667 1.803,-1.608c0.053,-0.941 -0.667,-1.749 -1.608,-1.803c-0.941,-0.053 -1.749,0.667 -1.802,1.608c-0.054,0.941 0.666,1.749 1.607,1.803Z" style="fill:#777ea9;"/><path d="M18.395,21.809c0.941,0.053 1.748,-0.667 1.802,-1.608c0.054,-0.941 -0.667,-1.749 -1.608,-1.803c-0.941,-0.053 -1.749,0.667 -1.802,1.608c-0.054,0.941 0.666,1.749 1.608,1.803Z" style="fill:#777ea9;"/><path d="M17.537,36.859c0.941,0.054 1.748,-0.667 1.802,-1.608c0.054,-0.941 -0.667,-1.749 -1.608,-1.802c-0.941,-0.054 -1.749,0.667 -1.802,1.608c-0.054,0.941 0.666,1.748 1.608,1.802Z" style="fill:#777ea9;"/><path d="M18.24,43.681c0.941,0.053 1.749,-0.667 1.803,-1.608c0.053,-0.941 -0.667,-1.749 -1.608,-1.803c-0.941,-0.053 -1.749,0.667 -1.803,1.608c-0.053,0.941 0.667,1.749 1.608,1.803Z" style="fill:#777ea9;"/><path d="M18.966,50.551c0.941,0.054 1.749,-0.667 1.802,-1.608c0.054,-0.941 -0.667,-1.748 -1.608,-1.802c-0.941,-0.054 -1.748,0.667 -1.802,1.608c-0.054,0.941 0.667,1.749 1.608,1.802Z" style="fill:#777ea9;"/><path d="M17.975,29.173c0.941,0.053 1.748,-0.667 1.802,-1.608c0.054,-0.941 -0.667,-1.749 -1.608,-1.802c-0.941,-0.054 -1.749,0.666 -1.802,1.607c-0.054,0.942 0.667,1.749 1.608,1.803Z" style="fill:#777ea9;"/></g><g><g opacity="0.3"><path d="M21.024,5.042c-0.879,-0.34 -1.869,0.099 -2.208,0.978c-0.339,0.88 0.099,1.869 0.979,2.208c0.879,0.34 1.869,-0.099 2.208,-0.978c0.339,-0.88 -0.1,-1.869 -0.979,-2.208Z" style="fill:#090705;"/><path d="M18.811,14.497c0.941,0.053 1.749,-0.667 1.803,-1.608c0.053,-0.941 -0.667,-1.749 -1.608,-1.803c-0.941,-0.053 -1.749,0.667 -1.802,1.608c-0.054,0.941 0.666,1.749 1.607,1.803Z" style="fill:#090705;"/><path d="M18.395,21.809c0.941,0.053 1.748,-0.667 1.802,-1.608c0.054,-0.941 -0.667,-1.749 -1.608,-1.803c-0.941,-0.053 -1.749,0.667 -1.802,1.608c-0.054,0.941 0.666,1.749 1.608,1.803Z" style="fill:#090705;"/><path d="M17.537,36.859c0.941,0.054 1.748,-0.667 1.802,-1.608c0.054,-0.941 -0.667,-1.749 -1.608,-1.802c-0.941,-0.054 -1.749,0.667 -1.802,1.608c-0.054,0.941 0.666,1.748 1.608,1.802Z" style="fill:#090705;"/><path d="M18.24,43.681c0.941,0.053 1.749,-0.667 1.803,-1.608c0.053,-0.941 -0.667,-1.749 -1.608,-1.803c-0.941,-0.053 -1.749,0.667 -1.803,1.608c-0.053,0.941 0.667,1.749 1.608,1.803Z" style="fill:#090705;"/><path d="M18.966,50.551c0.941,0.054 1.749,-0.667 1.802,-1.608c0.054,-0.941 -0.667,-1.748 -1.608,-1.802c-0.941,-0.054 -1.748,0.667 -1.802,1.608c-0.054,0.941 0.667,1.749 1.608,1.802Z" style="fill:#090705;"/><path d="M17.975,29.173c0.941,0.053 1.748,-0.667 1.802,-1.608c0.054,-0.941 -0.667,-1.749 -1.608,-1.802c-0.941,-0.054 -1.749,0.666 -1.802,1.607c-0.054,0.942 0.667,1.749 1.608,1.803Z" style="fill:#090705;"/></g></g></g><g><g><g><path d="M10.543,6.999l3.843,4.975l1.774,-2.397l-5.617,-2.578Z" style="fill:#777ea9;"/><path d="M6.605,12.968l4.499,4.455l1.443,-2.658l-5.942,-1.797Z" style="fill:#777ea9;"/><path d="M3.414,18.411l6.135,4.541l1.236,-3.026l-7.371,-1.515Z" style="fill:#777ea9;"/><path d="M0.06,26.754l7.604,2.507l0.392,-2.925l-7.996,0.418Z" style="fill:#777ea9;"/><path d="M0.052,33.916l7.542,1.463l0.28,-3.143l-7.822,1.68Z" style="fill:#777ea9;"/><path d="M1.316,42.441l8.383,-0.897l-0.77,-2.6l-7.613,3.497Z" style="fill:#777ea9;"/><path d="M4.335,49.254l8.601,-2.238l-0.999,-2.366l-7.602,4.604Z" style="fill:#777ea9;"/></g><g><g opacity="0.3"><path d="M10.543,6.999l3.843,4.975l1.774,-2.397l-5.617,-2.578Z" style="fill:#090705;"/><path d="M6.605,12.968l4.499,4.455l1.443,-2.658l-5.942,-1.797Z" style="fill:#090705;"/><path d="M3.414,18.411l6.135,4.541l1.236,-3.026l-7.371,-1.515Z" style="fill:#090705;"/><path d="M0.06,26.754l7.604,2.507l0.392,-2.925l-7.996,0.418Z" style="fill:#090705;"/><path d="M0.052,33.916l7.542,1.463l0.28,-3.143l-7.822,1.68Z" style="fill:#090705;"/><path d="M1.316,42.441l8.383,-0.897l-0.77,-2.6l-7.613,3.497Z" style="fill:#090705;"/><path d="M4.335,49.254l8.601,-2.238l-0.999,-2.366l-7.602,4.604Z" style="fill:#090705;"/></g></g></g><g><path d="M47.67,6.999l-3.843,4.975l-1.775,-2.397l5.618,-2.578Z" style="fill:#777ea9;"/><path d="M51.608,12.968l-4.5,4.455l-1.443,-2.658l5.943,-1.797Z" style="fill:#777ea9;"/><path d="M54.799,18.411l-6.136,4.541l-1.236,-3.026l7.372,-1.515Z" style="fill:#777ea9;"/><path d="M58.152,26.754l-7.604,2.507l-0.392,-2.925l7.996,0.418Z" style="fill:#777ea9;"/><path d="M58.16,33.916l-7.542,1.463l-0.279,-3.143l7.821,1.68Z" style="fill:#777ea9;"/><path d="M56.896,42.441l-8.383,-0.897l0.77,-2.6l7.613,3.497Z" style="fill:#777ea9;"/><path d="M53.878,49.254l-8.602,-2.238l0.999,-2.366l7.603,4.604Z" style="fill:#777ea9;"/></g></g></g></svg>