<?xml version="1.0" encoding="UTF-8" standalone="no"?><!DOCTYPE svg PUBLIC "-//W3C//DTD SVG 1.1//EN" "http://www.w3.org/Graphics/SVG/1.1/DTD/svg11.dtd"><svg width="100%" height="100%" viewBox="0 0 16 43" version="1.1" xmlns="http://www.w3.org/2000/svg" xmlns:xlink="http://www.w3.org/1999/xlink" xml:space="preserve" xmlns:serif="http://www.serif.com/" style="fill-rule:evenodd;clip-rule:evenodd;stroke-linejoin:round;stroke-miterlimit:1.41421;"><g id="flower06"><g><g><path d="M6.765,42.064l2.657,-1.441l-3.131,-12.384l2.313,-13.86l-1.839,1.762l-3.497,12.169l3.497,13.754Z" style="fill:#9b9a87;"/><path d="M5.725,14.658l-3.571,13.457l1.954,12.508l2.657,1.441l-2.657,-13.672l2.657,-12.251l-1.04,-1.483Z" style="fill:#194b49;"/></g><path d="M5.985,29.455l2.133,-0.991l1.304,-4.288l2.615,-1.418l-2.615,-1.825l5.882,0.055l-0.567,5.296l-0.768,3.171l-4.547,-0.132l-2.987,2.232l-0.45,-2.1Z" style="fill:#194b49;"/><clipPath id="_clip1"><path d="M5.985,29.455l2.133,-0.991l1.304,-4.288l2.615,-1.418l-2.615,-1.825l5.882,0.055l-0.567,5.296l-0.768,3.171l-4.547,-0.132l-2.987,2.232l-0.45,-2.1Z"/></clipPath><g clip-path="url(#_clip1)"><path d="M16.913,20.116l-5.436,2.946l-2.055,-0.081l2.677,-0.256l-3.182,1.724l0.865,3.591l3.873,0.845l7.472,1.634l-5.063,-7.761l-6.392,4.828l6.392,-4.828l0.849,-2.642" style="fill:#9b9a87;"/></g></g><g><path d="M6.144,1.178l8.528,9.915l-2.843,4.249l-2.842,-1.417l-2.843,-12.747" style="fill:#d87bba;"/><path d="M6.144,1.178l-5.684,11.331l2.842,4.249l2.842,1.416l5.685,-2.832l0,-2.833l-5.685,-11.331Z" style="fill:#d87bba;"/><path d="M11.829,12.509l0,2.833l-5.685,2.832l-2.842,-1.416l2.267,-12.423l-0.545,-3.715l1.12,0.558l1.888,3.773l-1.142,-2.283l2.097,-0.073l2.842,9.914" style="fill:#ae3c8a;"/></g></g></svg>