<?xml version="1.0" encoding="UTF-8" standalone="no"?><!DOCTYPE svg PUBLIC "-//W3C//DTD SVG 1.1//EN" "http://www.w3.org/Graphics/SVG/1.1/DTD/svg11.dtd"><svg width="100%" height="100%" viewBox="0 0 28 70" version="1.1" xmlns="http://www.w3.org/2000/svg" xmlns:xlink="http://www.w3.org/1999/xlink" xml:space="preserve" xmlns:serif="http://www.serif.com/" style="fill-rule:evenodd;clip-rule:evenodd;stroke-linejoin:round;stroke-miterlimit:1.41421;"><g id="flower01"><g><g><path d="M15.992,69.094l2.683,-2.623l-3.162,-22.562l2.335,-25.249l-1.856,3.211l-3.531,22.169l3.531,25.054Z" style="fill:#9b9a87;"/><path d="M14.941,19.17l-3.605,24.513l1.972,22.788l2.684,2.623l-2.684,-24.905l2.684,-22.318l-1.051,-2.701Z" style="fill:#194b49;"/></g><path d="M15.546,32.593l2.154,-0.923l1.318,-3.995l2.64,-1.321l-2.64,-1.7l5.939,0.051l-0.573,4.934l-0.776,2.954l-4.59,-0.123l-3.017,2.079l-0.455,-1.956Z" style="fill:#194b49;"/><clipPath id="_clip1"><path d="M15.546,32.593l2.154,-0.923l1.318,-3.995l2.64,-1.321l-2.64,-1.7l5.939,0.051l-0.573,4.934l-0.776,2.954l-4.59,-0.123l-3.017,2.079l-0.455,-1.956Z"/></clipPath><g clip-path="url(#_clip1)"><path d="M26.582,23.892l-5.49,2.745l-2.074,-0.075l2.703,-0.239l-3.213,1.606l0.873,3.346l3.911,0.787l7.545,1.522l-5.113,-7.231l-6.454,4.499l6.454,-4.499l0.858,-2.461" style="fill:#9b9a87;"/></g><path d="M12.888,61.891l-1.834,-2.545l-5.145,-0.488l-2.47,-3.06l-1.071,4.001l-2.014,-7.824l5.986,-0.783l3.734,0.1l1.458,6.074l3.491,3.318l-2.135,1.207Z" style="fill:#194b49;"/><clipPath id="_clip2"><path d="M12.888,61.891l-1.834,-2.545l-5.145,-0.488l-2.47,-3.06l-1.071,4.001l-2.014,-7.824l5.986,-0.783l3.734,0.1l1.458,6.074l3.491,3.318l-2.135,1.207Z"/></clipPath><g clip-path="url(#_clip2)"><path d="M-1.165,50.092l5.134,6.362l0.636,2.751l-1.224,-3.479l3.005,3.723l3.618,-2.189l-0.443,-5.386l-0.848,-10.393l-6.693,8.972l7.527,7.084l-7.527,-7.084l-3.185,-0.361" style="fill:#9b9a87;"/></g><path d="M13.954,30.534l-1.443,-1.847l1.14,-3.897l-2.046,-2.668l-0.743,-0.363l-6.548,-1.429l2.589,2.105l0.73,1.252l-0.743,2.962l4.082,2.105l1.641,3.275l1.341,-1.495Z" style="fill:#194b49;"/><clipPath id="_clip3"><path d="M13.954,30.534l-1.443,-1.847l1.14,-3.897l-2.046,-2.668l-0.743,-0.363l-6.548,-1.429l2.589,2.105l0.73,1.252l-0.743,2.962l4.082,2.105l1.641,3.275l1.341,-1.495Z"/></clipPath><g clip-path="url(#_clip3)"><path d="M8.477,17.593l4.245,3.295l1.097,2.689l-0.776,-2.439l3.033,3.541l-4.847,2.852l-3.806,-1.195l-3.261,-0.84l4.958,-2.485l2.228,4.451l-1.532,-3.061l-0.696,-1.39l-0.22,-1.905l2.748,0.611l3.519,3.497l-3.637,2l5.435,-3.031l-8.488,-6.59" style="fill:#9b9a87;"/></g><path d="M13.308,52.355l2.047,-2.305l-0.656,-5.254l2.404,-3.037l1.924,-2.11l3.445,-1.443l-0.303,5.626l0.721,3.767l-5.525,2.57l-2.428,4.109l-1.629,-1.923Z" style="fill:#194b49;"/><clipPath id="_clip4"><path d="M13.308,52.355l2.047,-2.305l-0.656,-5.254l2.404,-3.037l1.924,-2.11l3.445,-1.443l-0.303,5.626l0.721,3.767l-5.525,2.57l-2.428,4.109l-1.629,-1.923Z"/></clipPath><g clip-path="url(#_clip4)"><path d="M21.585,36.096l-4.998,6.314l-2.507,1.139l3.079,-1.862l-2.925,3.696l2.898,3.233l5.086,-1.426l9.814,-2.745l-10.098,-5.085l-5.168,8.847l5.168,-8.847l-0.349,-3.264" style="fill:#9b9a87;"/></g><path d="M12.963,43.745l-2.314,-1.599l-0.051,-4.662l-3.3,-2.321l-0.985,-0.173l-3.738,1.787l0.684,1.338l0.18,3.505l5.454,1.073l3.045,3.118l1.025,-2.066Z" style="fill:#194b49;"/><clipPath id="_clip5"><path d="M12.963,43.745l-2.314,-1.599l-0.051,-4.662l-3.3,-2.321l-0.985,-0.173l-3.738,1.787l0.684,1.338l0.18,3.505l5.454,1.073l3.045,3.118l1.025,-2.066Z"/></clipPath><g clip-path="url(#_clip5)"><path d="M2.096,31.114l6.06,2.34l2.21,2.637l-1.752,-2.46l4.747,2.985l-4.599,4.646l-4.816,-0.152l-4.062,0.073l5.468,-3.645l3.523,3.61l-2.844,-2.914l-0.679,-0.696l1.905,-2.171l-0.052,-0.666l5.293,2.786l-3.5,3.331l5.216,-5.024l-12.118,-4.68" style="fill:#9b9a87;"/></g></g><g><path d="M20.015,1.189l7.172,14.949l-4.881,4.265l-3.013,-2.671l0.722,-16.543" style="fill:#d87bba;"/><path d="M20.015,1.189l-10.695,11.998l2.079,6.139l3.013,2.671l7.894,-1.594l0.934,-3.468l-3.225,-15.746Z" style="fill:#d87bba;"/><path d="M23.24,16.935l-0.934,3.468l-7.894,1.594l-3.013,-2.671l6.871,-14.463l0.557,-4.728l1.188,1.054l1.067,5.241l-0.645,-3.172l2.591,0.602l0.212,13.075" style="fill:#ae3c8a;"/></g></g></svg>