<?xml version="1.0" encoding="UTF-8" standalone="no"?><!DOCTYPE svg PUBLIC "-//W3C//DTD SVG 1.1//EN" "http://www.w3.org/Graphics/SVG/1.1/DTD/svg11.dtd"><svg width="100%" height="100%" viewBox="0 0 57 31" version="1.1" xmlns="http://www.w3.org/2000/svg" xmlns:xlink="http://www.w3.org/1999/xlink" xml:space="preserve" xmlns:serif="http://www.serif.com/" style="fill-rule:evenodd;clip-rule:evenodd;stroke-linecap:round;stroke-linejoin:round;stroke-miterlimit:1.5;"><path id="grass04" d="M12.15,16.928l-2.262,-15.952l10.733,12.638l6.63,-8.921l-1.263,11.152l5.366,-13.134l2.105,8.772l5.863,-10.403l2.765,14.717l3,-12.233l2.367,9.55l9.048,-6.209l-5.498,13.35l-3.55,8.958c0,0 -6.164,-2.416 -7.732,-3.865c-1.567,-1.449 -2.207,-1.366 -4.303,-0.85c-2.097,0.516 -5.862,1.755 -9.431,2.374c-3.569,0.62 -9.358,3.029 -9.358,3.029l-5.487,-0.55c0,0 2.602,2.478 0,0c-2.602,-2.479 -4.426,-4.406 -4.426,-4.406l-5.947,-2.974l6.284,-0.55l5.096,-4.493Z" style="fill:#194b49;"/><clipPath id="_clip1"><path d="M12.15,16.928l-2.262,-15.952l10.733,12.638l6.63,-8.921l-1.263,11.152l5.366,-13.134l2.105,8.772l5.863,-10.403l2.765,14.717l3,-12.233l2.367,9.55l9.048,-6.209l-5.498,13.35l-3.55,8.958c0,0 -6.164,-2.416 -7.732,-3.865c-1.567,-1.449 -2.207,-1.366 -4.303,-0.85c-2.097,0.516 -5.862,1.755 -9.431,2.374c-3.569,0.62 -9.358,3.029 -9.358,3.029l-5.487,-0.55c0,0 2.602,2.478 0,0c-2.602,-2.479 -4.426,-4.406 -4.426,-4.406l-5.947,-2.974l6.284,-0.55l5.096,-4.493Z"/></clipPath><g clip-path="url(#_clip1)"><path d="M58.187,6.056l-7.514,8.667l-3.219,3.757c0,0 -0.118,-8.831 0,-8.831c0.118,0 -2.302,-8.419 -2.302,-8.419l-0.492,15.853l-2.573,1.364l0,-9.541l-2.882,-10.65l-2.484,17.465l-3.956,-4.585l2.459,-9.504l-3.87,-0.284l-2.47,13.214l-2.896,3.918l3.124,-12.295l-1.536,-3.01l-4,11.144l-2.955,3.632l3.322,-11.226l-14.055,-7.028l6.376,19.288l-8.315,-2.218l-15.764,5.025l9.049,11.144l11.167,0.217l6.978,-11.368c0,0 -0.646,0.191 3.427,0.471c4.073,0.28 11.217,0.242 11.217,0.242l0.95,2.223l8.109,6.678l13.05,-1.158l2.055,-24.185Z" style="fill:#9b9a87;"/><path d="M52.821,2.339c0,0 39.586,-0.281 0,-24.108" style="fill:none;stroke:#000;stroke-width:1px;"/></g></svg>