<?xml version="1.0" encoding="UTF-8" standalone="no"?><!DOCTYPE svg PUBLIC "-//W3C//DTD SVG 1.1//EN" "http://www.w3.org/Graphics/SVG/1.1/DTD/svg11.dtd"><svg width="100%" height="100%" viewBox="0 0 66 39" version="1.1" xmlns="http://www.w3.org/2000/svg" xmlns:xlink="http://www.w3.org/1999/xlink" xml:space="preserve" xmlns:serif="http://www.serif.com/" style="fill-rule:evenodd;clip-rule:evenodd;stroke-linejoin:round;stroke-miterlimit:1.41421;"><path id="grass07" d="M10.044,22.05l-9.536,-8.754l14.902,1.827l-1.314,-8.621l12.048,6.223l5.366,-11.991l8.196,11.892l4.559,-8.454l1.453,4.822l1.892,-6.661l2.357,7.7l1.08,6.422l1.929,-10.924l0.988,3.491l4.379,-1.626l0,3.815l3.698,-8.884l0.29,10.878l2.704,3.65c0,0 1.505,5.407 0.02,7.1c-1.485,1.692 -6.712,7.021 -6.712,7.021c0,0 4.093,-0.53 -1.402,1.001c-5.494,1.531 -4.375,0.137 -9.331,0.701c-4.956,0.563 -1.727,2.365 -7.805,1.464c-6.077,-0.901 -4.079,-3.699 -6.743,-0.901c-2.665,2.798 -1.199,2.398 -3.597,4.663c-2.398,2.265 -3.272,-0.947 -5.366,-4.204c-2.095,-3.257 -5.637,-7.363 -6.797,-5.443c-1.16,1.92 4.038,1.787 -1.892,2.053c-5.929,0.267 -9.714,6.771 -7.022,-1.144c2.692,-7.915 1.656,-7.116 1.656,-7.116Z" style="fill:#194b49;"/><clipPath id="_clip1"><path d="M10.044,22.05l-9.536,-8.754l14.902,1.827l-1.314,-8.621l12.048,6.223l5.366,-11.991l8.196,11.892l4.559,-8.454l1.453,4.822l1.892,-6.661l2.357,7.7l1.08,6.422l1.929,-10.924l0.988,3.491l4.379,-1.626l0,3.815l3.698,-8.884l0.29,10.878l2.704,3.65c0,0 1.505,5.407 0.02,7.1c-1.485,1.692 -6.712,7.021 -6.712,7.021c0,0 4.093,-0.53 -1.402,1.001c-5.494,1.531 -4.375,0.137 -9.331,0.701c-4.956,0.563 -1.727,2.365 -7.805,1.464c-6.077,-0.901 -4.079,-3.699 -6.743,-0.901c-2.665,2.798 -1.199,2.398 -3.597,4.663c-2.398,2.265 -3.272,-0.947 -5.366,-4.204c-2.095,-3.257 -5.637,-7.363 -6.797,-5.443c-1.16,1.92 4.038,1.787 -1.892,2.053c-5.929,0.267 -9.714,6.771 -7.022,-1.144c2.692,-7.915 1.656,-7.116 1.656,-7.116Z"/></clipPath><g clip-path="url(#_clip1)"><path d="M63.71,3.161l-5.367,11.242l2.243,5.329l-2.243,2.212l-2.447,-15.96l-2.92,-2.823l1.033,16.616l1.434,6.084l-4.604,-2.302c0,0 0.687,-5.425 -1.444,-3.507c-2.132,1.918 1.918,-13.536 1.918,-13.536l-4.648,-5.566l-2.357,11.912l-2.065,13.691l0,-9.272l-3.512,0.224l1.753,-13.464l-8.974,-6.246l0,10.733l-2.111,1.055l0.977,3.744l1.134,8.43l-8.867,-15.987l1.024,9.57l-6.507,-8.621l-2.643,-1.321l4.29,17.105l-15.021,-11.737l8.839,11.204l-2.581,2.658c0,0 -9.036,4.163 -6.691,5.975c2.344,1.812 -1.092,6.233 -1.092,6.233c0,0 5.202,-1.087 7.783,-1.475c2.581,-0.388 1.801,2.877 7.68,-1.527c5.879,-4.403 1.085,-4.718 7.585,-6.106c6.5,-1.388 7.566,-0.002 7.566,-0.002c0,0 0.426,5.862 2.771,1.918c2.345,-3.943 -0.894,-8.762 -0.894,-8.762c0,0 3.026,2.048 4.838,4.073c1.811,2.025 -1.514,3.517 2.653,3.623c4.168,0.107 1.663,0.427 5.367,0.64c3.703,0.213 -0.538,-0.153 5.366,0.776c5.904,0.929 3.205,0.113 4.608,-2.303c1.403,-2.417 -0.196,-2.097 1.936,-3.056c2.131,-0.959 1.558,-0.228 4.19,-0.007c2.631,0.22 5.224,-0.791 5.366,-2.684c0.143,-1.892 0,-8.393 0,-8.393l-5.366,-10.39Z" style="fill:#9b9a87;"/></g></svg>