<?xml version="1.0" encoding="UTF-8" standalone="no"?><!DOCTYPE svg PUBLIC "-//W3C//DTD SVG 1.1//EN" "http://www.w3.org/Graphics/SVG/1.1/DTD/svg11.dtd"><svg width="100%" height="100%" viewBox="0 0 49 32" version="1.1" xmlns="http://www.w3.org/2000/svg" xmlns:xlink="http://www.w3.org/1999/xlink" xml:space="preserve" xmlns:serif="http://www.serif.com/" style="fill-rule:evenodd;clip-rule:evenodd;stroke-linejoin:round;stroke-miterlimit:1.41421;"><path id="grass05" d="M14.315,6.955l-0.777,-6.569l6.088,5.826l1.977,2.252l-1.185,-6.695l3.375,-1.687l3.739,3.254l-0.051,5.427l3.02,1.908l3.208,-5.223c0,0 0.069,-2.31 0.838,-0.301c0.769,2.009 1.673,7.835 1.673,7.835l0.089,2.835l3.226,-5.045c0,0 0.975,0.242 0.789,1.276c-0.187,1.034 -0.38,8.282 -0.38,8.282l1.801,1.29l2.148,0.782l4.338,3.423c0,0 -0.849,2.702 -2.663,2.714c-1.814,0.012 -6.975,1.62 -6.975,1.62c0,0 -1.801,1.323 -4.046,0.963c-2.245,-0.361 -6.664,-1.767 -6.664,-1.767c0,0 -2.713,-0.904 -4.32,-2.411c-1.607,-1.507 -0.716,-3.79 -2.97,-2.799c-2.253,0.991 -5.491,4.56 -5.491,4.56c0,0 -0.758,1.008 -3.13,-0.778c-2.371,-1.786 -3.175,-2.69 -3.175,-2.69l-0.588,-1.178c0,0 0.958,1.013 -0.684,0.342c-1.641,-0.671 -5.239,3.648 -5.349,1.74c-0.109,-1.909 3.13,-4.77 3.017,-5.65c-0.113,-0.88 2.402,-0.171 2.402,-0.171l-2.15,-3.749l-4.595,-5.018l5.373,1.36l1.134,-3.479l3.67,1.077l1.743,5.676l2.51,4.337l0.448,-5.935l-2.511,-3.516l1.098,-4.118Z" style="fill:#194b49;"/><clipPath id="_clip1"><path d="M14.315,6.955l-0.777,-6.569l6.088,5.826l1.977,2.252l-1.185,-6.695l3.375,-1.687l3.739,3.254l-0.051,5.427l3.02,1.908l3.208,-5.223c0,0 0.069,-2.31 0.838,-0.301c0.769,2.009 1.673,7.835 1.673,7.835l0.089,2.835l3.226,-5.045c0,0 0.975,0.242 0.789,1.276c-0.187,1.034 -0.38,8.282 -0.38,8.282l1.801,1.29l2.148,0.782l4.338,3.423c0,0 -0.849,2.702 -2.663,2.714c-1.814,0.012 -6.975,1.62 -6.975,1.62c0,0 -1.801,1.323 -4.046,0.963c-2.245,-0.361 -6.664,-1.767 -6.664,-1.767c0,0 -2.713,-0.904 -4.32,-2.411c-1.607,-1.507 -0.716,-3.79 -2.97,-2.799c-2.253,0.991 -5.491,4.56 -5.491,4.56c0,0 -0.758,1.008 -3.13,-0.778c-2.371,-1.786 -3.175,-2.69 -3.175,-2.69l-0.588,-1.178c0,0 0.958,1.013 -0.684,0.342c-1.641,-0.671 -5.239,3.648 -5.349,1.74c-0.109,-1.909 3.13,-4.77 3.017,-5.65c-0.113,-0.88 2.402,-0.171 2.402,-0.171l-2.15,-3.749l-4.595,-5.018l5.373,1.36l1.134,-3.479l3.67,1.077l1.743,5.676l2.51,4.337l0.448,-5.935l-2.511,-3.516l1.098,-4.118Z"/></clipPath><g clip-path="url(#_clip1)"><path d="M40.173,9.657l-4.327,15.019c3.04,-0.208 5.308,0.493 6.794,2.111l5.792,-0.862l-1.746,5.339l-8.093,-0.402c0,0 -2.556,-6.392 -2.414,-4.602c0.141,1.789 0.613,5.405 -1.632,7.314c-2.245,1.908 -4.542,0.749 -4.046,-0.429c0.495,-1.178 0,-4.046 0,-4.046l0,-1.954l-1.86,-3.023l-2.187,4.53l0,2.47l-1.803,-4.948l0.375,-2.431l0.11,-4.101c0,0 1.911,-5.72 0.671,-4.382c-1.239,1.338 -8.107,7.438 -8.107,7.438l-0.428,4.923l-2.957,4.647l0,-7.935l-2.504,-3.114l-5.588,1.908l-4.96,6.63l-1.01,-1.72l1.923,-6.115l3.564,-10.354l4.956,8.901l1.58,-0.483l2.039,1.02l1.769,-0.884l4.142,-8.3l0.229,4.161l1.953,-3.07l2.142,-1.071l-2.142,4.622l6.108,-4.543l0.104,1.933l0.87,4.753l1.011,2.399l1.928,0.964l0.805,1.716l-0.093,2.686l1.406,-5.254l1.718,-7.041l1.261,-3.305l-2.979,-7.975l-2.268,15.052l-1.778,-10.392l-1.011,-4.42l-3.795,-4.665l-1.94,3.076l2.699,9.442l-7.371,-7.732l-2.049,-2.23l-2.719,-1.808l3.112,12.237l-0.551,4.322l-2.561,1.281l0,-2.411l-4.046,-6.796l-2.76,1.757l3.764,10.783l-0.577,0.176l-19.862,-7.954l17.919,29.988l44.627,-1.965l1.399,-12.489l-14.606,-18.392Z" style="fill:#9b9a87;"/></g></svg>