<?xml version="1.0" encoding="UTF-8" standalone="no"?><!DOCTYPE svg PUBLIC "-//W3C//DTD SVG 1.1//EN" "http://www.w3.org/Graphics/SVG/1.1/DTD/svg11.dtd"><svg width="100%" height="100%" viewBox="0 0 65 55" version="1.1" xmlns="http://www.w3.org/2000/svg" xmlns:xlink="http://www.w3.org/1999/xlink" xml:space="preserve" xmlns:serif="http://www.serif.com/" style="fill-rule:evenodd;clip-rule:evenodd;stroke-linejoin:round;stroke-miterlimit:1.41421;"><g id="hedge06"><g><path d="M21.545,0.409l42.932,21.466l-21.466,10.733l-42.932,-21.466l21.466,-10.733Z" style="fill:#8e964a;"/><path d="M22.724,3.918l1.943,0.261l0.985,0.802l2.093,0.315l0.835,0.747l0.24,0.779l-1.514,0.507l0.174,0.845l-1.448,0.441l-1.794,0.221l-1.922,-0.488l-1.985,0.207l-1.73,-0.475l-1.348,-0.643l0.326,-0.809l-1.401,-0.717l0.379,-0.734l0.961,-0.618l2.123,-0.012l1.119,-0.65l1.964,0.021Z" style="fill:#194b49;"/><path d="M16.524,8.632l-0.503,1.877l1.849,0.252l-1.105,0.925l2.45,1.204l-2.761,-0.043l0.505,1.31l-1.752,-0.61l-0.503,1.877l-1.204,-1.904l-1.536,0.559l0.022,-1.303l-2.762,-0.043l2.018,-1.134l-1.455,-0.965l1.766,-0.195l-1.203,-1.904l2.45,1.203l0.637,-1.155l1.07,1.182l2.017,-1.133Z" style="fill:#194b49;"/><path d="M25.626,10.867l2.046,0.462l0.54,-1.325l0.889,0.847l1.697,-1.71l-0.432,1.995l1.547,-0.298l-0.931,1.237l2.046,0.461l-2.313,0.772l0.417,1.141l-1.465,-0.083l-0.432,1.995l-0.998,-1.518l-1.29,1.003l0.026,-1.288l-2.313,0.772l1.696,-1.711l-1.213,-0.52l1.48,-0.713l-0.997,-1.519Z" style="fill:#194b49;"/><path d="M40.826,12.234l1.128,1.443l2.622,-1.178l-0.924,1.62l3.319,-0.286l-2.622,1.178l2.748,0.714l-3.32,0.287l1.128,1.443l-2.748,-0.715l-0.925,1.62l-1.127,-1.443l-2.623,1.178l0.925,-1.62l-3.32,0.286l2.623,-1.178l-2.748,-0.714l3.319,-0.287l-1.127,-1.443l2.748,0.715l0.924,-1.62Z" style="fill:#194b49;"/><path d="M33.85,17.948l0.779,1.619l1.824,0.561l0.06,1.016l2.544,1.165l-2.447,0.479l0.059,1.016l-1.787,0.067l-0.6,1.429l-2.291,-1.322l-1.787,0.067l-1.165,-0.975l-2.914,-0.281l1.031,-1.297l-1.164,-0.975l1.067,-0.669l-1.201,-1.603l2.929,0.521l1.067,-0.669l1.824,0.561l2.172,-0.71Z" style="fill:#194b49;"/><path d="M43.449,22.201l2.37,-0.515l1.057,-1.471l1.423,0.034l2.004,-2.02l0.298,2.074l1.422,0.033l-0.177,1.491l1.898,0.616l-2.186,1.797l-0.177,1.491l-1.533,0.888l-0.83,2.4l-1.649,-0.963l-1.533,0.888l-0.769,-0.942l-2.412,0.867l1.166,-2.392l-0.769,-0.942l1.057,-1.47l-0.66,-1.864Z" style="fill:#194b49;"/></g><g><path d="M64.477,43.341l-21.466,10.734l0,-21.467l21.466,-10.733l0,21.466" style="fill:#9b9a87;"/><path d="M57.89,27.146l1.244,1.996l0.81,-1.708l0.325,1.868l1.728,-1.579l-0.959,2.812l1.156,0.51l-1.047,1.327l1.243,1.996l-1.836,-0.258l-0.096,2.024l-0.972,-1.048l-0.96,2.813l-0.175,-2.972l-1.215,0.74l0.446,-1.974l-1.837,-0.258l1.728,-1.579l-0.655,-1.565l1.248,-0.173l-0.176,-2.972Z" style="fill:#194b49;"/><path d="M51.278,33.444l0.712,3.799l2.171,-2.122l-0.577,3.049l3.461,-1.372l-3.021,3.721l1.425,1.475l-2.307,1.397l0.712,3.8l-2.579,-1.5l-1.291,3.034l-0.848,-2.186l-3.021,3.721l1.427,-4.648l-2.223,0.4l1.783,-2.748l-2.579,-1.5l3.461,-1.373l-0.084,-2.787l1.951,0.488l1.427,-4.648Z" style="fill:#194b49;"/></g><g><path d="M0.079,11.142l42.932,21.466l0,21.467l-42.932,-21.467l0,-21.466" style="fill:#194b49;"/><path d="M4.716,16.601l2.157,2.302l1.167,-0.773l0.671,1.618l2.652,-0.09l-1.319,1.513l1.899,1.123l-1.579,0.334l2.158,2.301l-2.973,-1.366l0.007,1.467l-1.646,-1.412l-1.319,1.513l-0.519,-2.357l-1.894,-0.216l0.561,-1.207l-2.973,-1.367l2.653,-0.09l-1.178,-1.601l1.993,0.666l-0.518,-2.358Z" style="fill:#8e964a;"/><path d="M20.13,24.983l-1.805,3.965l1.42,0.394l-1.633,2.016l1.248,2.342l-2.363,0.108l-0.516,2.707l-1.075,-1.151l-1.805,3.965l0.344,-3.899l-1.739,1.28l0.968,-2.727l-2.362,0.107l2.575,-2.517l-0.558,-1.916l1.673,-0.534l0.344,-3.899l1.248,2.343l1.394,-2.463l0.066,2.396l2.576,-2.517Z" style="fill:#8e964a;"/><path d="M5.306,27.21l0.342,1.809l0.659,-0.154l-0.106,1.069l1.106,0.586l-0.895,0.532l0.513,1.086l-0.724,-0.192l0.342,1.809l-0.895,-1.48l-0.342,0.825l-0.341,-1.187l-0.895,0.532l0.342,-1.447l-0.724,-0.576l0.512,-0.542l-0.894,-1.48l1.106,0.586l-0.106,-1.181l0.659,0.852l0.341,-1.447Z" style="fill:#8e964a;"/><path d="M25.974,27.271l1.998,1.574l1.326,-0.045l1.079,1.151l2.245,0.377l-0.5,1.485l1.079,1.151l-0.66,0.756l1.239,1.879l-2.306,-0.655l-0.66,0.756l-1.486,-0.683l-1.479,0.784l-0.926,-1.89l-1.486,-0.683l-0.259,-1.179l-2.154,-1.395l1.734,-0.512l-0.259,-1.179l1.327,-0.045l0.148,-1.647Z" style="fill:#8e964a;"/><path d="M35.022,37.559l1.67,0.719l-0.597,-4.164l1.401,3.018l0.435,-3.719l0.597,4.164l1.3,-1.854l-0.435,3.72l1.67,0.719l-1.301,1.855l1.401,3.018l-1.67,-0.719l0.597,4.164l-1.401,-3.018l-0.435,3.72l-0.596,-4.165l-1.301,1.854l0.435,-3.72l-1.67,-0.719l1.301,-1.855l-1.401,-3.018Z" style="fill:#8e964a;"/><path d="M26.565,37.88l0.447,1.362l0.553,0.293l0.171,0.905l0.829,0.75l-0.553,0.713l0.171,0.905l-0.447,0.266l0.065,1.351l-0.789,-0.921l-0.447,0.266l-0.448,-0.74l-0.789,0.085l0.065,-1.283l-0.447,-0.74l0.171,-0.723l-0.553,-1.299l0.829,0.128l0.171,-0.723l0.553,0.293l0.448,-0.888Z" style="fill:#8e964a;"/></g></g></svg>