<?xml version="1.0" encoding="UTF-8" standalone="no"?><!DOCTYPE svg PUBLIC "-//W3C//DTD SVG 1.1//EN" "http://www.w3.org/Graphics/SVG/1.1/DTD/svg11.dtd"><svg width="100%" height="100%" viewBox="0 0 78 44" version="1.1" xmlns="http://www.w3.org/2000/svg" xmlns:xlink="http://www.w3.org/1999/xlink" xml:space="preserve" xmlns:serif="http://www.serif.com/" style="fill-rule:evenodd;clip-rule:evenodd;stroke-linejoin:round;stroke-miterlimit:1.41421;"><g id="rock-runes-mossy01"><g id="rock-mossy01"><g id="rock-runes-highlights01"><g id="rock-highlights01"><g><g><path d="M44.352,6.245l20.571,4.919l-10.733,10.733l-32.199,5.367l-10.733,-26.833l33.094,5.814Z" style="fill:#95d767;"/><path d="M64.923,11.164l6.372,8.553l-1.005,15.597l-16.1,-13.417l10.733,-10.733Z" style="fill:#95d767;"/><path d="M54.19,21.897l16.1,13.417l-59.032,8.049l10.733,-16.099l32.199,-5.367" style="fill:#4c805b;"/><clipPath id="_clip1"><path d="M54.19,21.897l16.1,13.417l-59.032,8.049l10.733,-16.099l32.199,-5.367"/></clipPath><g clip-path="url(#_clip1)"><path d="M70.29,35.314l-16.1,-11.22l-30.458,4.761l-12.474,14.508l9.076,-16.927l-9.076,-26.005l53.665,16.1l5.367,18.783" style="fill:#95d767;"/></g><path d="M11.258,0.431l-5.367,8.05l5.367,34.882l10.733,-16.099l-10.733,-26.833" style="fill:#194b49;"/><clipPath id="_clip2"><path d="M11.258,0.431l-5.367,8.05l5.367,34.882l10.733,-16.099l-10.733,-26.833"/></clipPath><g clip-path="url(#_clip2)"><path d="M70.29,35.314l-16.1,-11.22l-30.458,4.761l-12.474,14.508l9.076,-16.927l-9.076,-26.005l53.665,16.1l5.367,18.783" style="fill:#95d767;"/></g></g></g></g><path d="M70.29,29.619l-2.193,-9.637l-7.533,-0.593l-0.108,-3.357l-36.549,-7.351l-0.613,14.701l9.43,0l-6.822,-3.769l2.549,-6.641l29.044,5.918l0.919,3.165l6.509,-0.486l-2.765,6.749l-14.684,1.975l-12.59,3.089l-12.893,-5.61l-6.806,2.566l-1.685,-20.623l-6.132,0.395l2.139,5.217l-1.82,4.457l0.509,3.316l3.062,-4.822l0,-5.105l1.214,0.919l1.417,19.526l5.822,-2.456l9.198,6.82l14.548,-3.88l19.663,-0.899l1.803,-0.901l0,-1.671l5.367,-1.012" style="fill:#13190f;fill-opacity:0.5;"/><path d="M70.29,29.619l-2.193,-9.637l-7.533,-0.593l-0.108,-3.357l-36.549,-7.351l-0.613,14.701l9.43,0l-6.822,-3.769l2.549,-6.641l29.044,5.918l0.919,3.165l6.509,-0.486l-2.765,6.749l-14.684,1.975l-12.59,3.089l-12.893,-5.61l-6.806,2.566l-1.685,-20.623l-6.132,0.395l2.139,5.217l-1.82,4.457l0.509,3.316l3.062,-4.822l0,-5.105l1.214,0.919l1.417,19.526l5.822,-2.456l9.198,6.82l14.548,-3.88l19.663,-0.899l1.803,-0.901l0,-1.671l5.367,-1.012" style="fill:#13190f;fill-opacity:0.5;"/></g><path d="M69.529,17.346l4.3,6.356c0,0 5.273,-5.153 3.663,3.535c-1.611,8.688 -2.069,9.602 -2.787,11.175c-0.719,1.573 -1.545,2.548 -6.207,2.263c-4.662,-0.284 -12.647,0.393 -12.647,0.393c0,0 0.434,-1.975 -4.993,-0.514c-5.427,1.461 -2.856,1.596 -8.675,1.596c-5.82,0 -6.897,0.823 -6.897,0.823l-14.927,0.465l-5.295,0.439l-5.024,-0.231l-5.48,-5.421l-0.759,-0.975c0,0 -4.335,-4.844 -3.277,-7.145c1.059,-2.3 2.691,-5.971 2.691,-5.971l0.932,-8.524l-1.984,-4.374l3.728,-1.864l5.367,6.929l0,2.842c0,0 -0.475,2.707 0,5.008c0.475,2.3 1.141,3.809 2.838,5.423c1.697,1.614 2.528,3.644 2.528,3.644l1.172,3.572l2.208,3.091c0,0 2.312,1.943 6.02,1.024c3.708,-0.92 11.104,-3.126 13.496,-3.986c2.392,-0.859 -0.608,-1.13 3.937,-1.806c4.545,-0.677 6.992,-1.196 9.423,-0.936c2.43,0.259 4.292,0.259 6.677,0.259c2.384,0 2.723,0.407 2.723,0.407l0.974,-0.487l-0.685,-5.024l2.354,-1.177l3.149,3.792l1.21,-5.972l-1.76,-1.888l0.155,-2.676l1.57,-0.785l1.043,-0.521l-0.761,-2.759Z" style="fill:#194b49;"/><clipPath id="_clip3"><path d="M69.529,17.346l4.3,6.356c0,0 5.273,-5.153 3.663,3.535c-1.611,8.688 -2.069,9.602 -2.787,11.175c-0.719,1.573 -1.545,2.548 -6.207,2.263c-4.662,-0.284 -12.647,0.393 -12.647,0.393c0,0 0.434,-1.975 -4.993,-0.514c-5.427,1.461 -2.856,1.596 -8.675,1.596c-5.82,0 -6.897,0.823 -6.897,0.823l-14.927,0.465l-5.295,0.439l-5.024,-0.231l-5.48,-5.421l-0.759,-0.975c0,0 -4.335,-4.844 -3.277,-7.145c1.059,-2.3 2.691,-5.971 2.691,-5.971l0.932,-8.524l-1.984,-4.374l3.728,-1.864l5.367,6.929l0,2.842c0,0 -0.475,2.707 0,5.008c0.475,2.3 1.141,3.809 2.838,5.423c1.697,1.614 2.528,3.644 2.528,3.644l1.172,3.572l2.208,3.091c0,0 2.312,1.943 6.02,1.024c3.708,-0.92 11.104,-3.126 13.496,-3.986c2.392,-0.859 -0.608,-1.13 3.937,-1.806c4.545,-0.677 6.992,-1.196 9.423,-0.936c2.43,0.259 4.292,0.259 6.677,0.259c2.384,0 2.723,0.407 2.723,0.407l0.974,-0.487l-0.685,-5.024l2.354,-1.177l3.149,3.792l1.21,-5.972l-1.76,-1.888l0.155,-2.676l1.57,-0.785l1.043,-0.521l-0.761,-2.759Z"/></clipPath><g clip-path="url(#_clip3)"><path d="M70.29,11.889l-21.467,11.333l14.162,23.528l26.155,-6.487l-6.371,-19.285l-12.479,-9.089" style="fill:#95c759;fill-opacity:0.5;"/><path d="M75.656,20.632c0,0 -0.295,-0.392 -0.373,1.969c-0.079,2.362 -1.428,4.653 -1.428,4.653c0,0 -0.843,-2.073 -1.777,2.69c-0.934,4.763 -3.158,6.946 -3.158,6.946l-1.354,0.676l-8.009,-1.361l-2.636,1.317c0,0 -2.156,-0.508 -5.131,0.166c-2.976,0.673 -3.675,0.238 -8.333,1.2c-4.658,0.962 -5.367,1.097 -5.367,1.097l-3.153,0.01l-7.58,4.642l-12.298,3.083l-1.299,0.65l-0.539,-6.626c0,0 -2.096,-0.132 -2.942,-2.367c-0.847,-2.234 -0.874,-6.782 -0.874,-6.782c0,0 -0.785,-2.084 -1.597,-3.978c-0.812,-1.895 -3.022,-0.136 -1.917,-4.466c1.105,-4.331 2.323,-4.196 1.105,-6.496c-1.218,-2.301 -4.671,-6.5 -4.671,-6.5l-3.497,-5.315c0,0 -14.915,8.296 -14.403,16.145c0.511,7.85 5.371,17.212 8.49,23.831c3.119,6.62 -4.463,17.311 18.343,17.311c22.805,0 27.113,-0.677 32.199,-1.083c5.086,-0.406 31.067,-8.383 35.399,-10.823c4.333,-2.439 9.255,-11.472 9.255,-11.472c-0.786,-10.976 -2.955,-20.06 -12.455,-19.117" style="fill:#9b9a87;"/><clipPath id="_clip4"><path d="M75.656,20.632c0,0 -0.295,-0.392 -0.373,1.969c-0.079,2.362 -1.428,4.653 -1.428,4.653c0,0 -0.843,-2.073 -1.777,2.69c-0.934,4.763 -3.158,6.946 -3.158,6.946l-1.354,0.676l-8.009,-1.361l-2.636,1.317c0,0 -2.156,-0.508 -5.131,0.166c-2.976,0.673 -3.675,0.238 -8.333,1.2c-4.658,0.962 -5.367,1.097 -5.367,1.097l-3.153,0.01l-7.58,4.642l-12.298,3.083l-1.299,0.65l-0.539,-6.626c0,0 -2.096,-0.132 -2.942,-2.367c-0.847,-2.234 -0.874,-6.782 -0.874,-6.782c0,0 -0.785,-2.084 -1.597,-3.978c-0.812,-1.895 -3.022,-0.136 -1.917,-4.466c1.105,-4.331 2.323,-4.196 1.105,-6.496c-1.218,-2.301 -4.671,-6.5 -4.671,-6.5l-3.497,-5.315c0,0 -14.915,8.296 -14.403,16.145c0.511,7.85 5.371,17.212 8.49,23.831c3.119,6.62 -4.463,17.311 18.343,17.311c22.805,0 27.113,-0.677 32.199,-1.083c5.086,-0.406 31.067,-8.383 35.399,-10.823c4.333,-2.439 9.255,-11.472 9.255,-11.472c-0.786,-10.976 -2.955,-20.06 -12.455,-19.117"/></clipPath><g clip-path="url(#_clip4)"><path d="M70.29,11.889l-21.467,11.333l14.162,23.528l26.155,-6.487l-6.371,-19.285l-12.479,-9.089" style="fill:#95c759;fill-opacity:0.5;"/></g><path d="M23.566,24.823l-19.455,26.591l-12.361,-16.913l-0.015,-16.107l8.789,-14.142l32.2,15.275l-9.158,5.296Z" style="fill:#191919;fill-opacity:0.5;"/></g></g></g></svg>