<?xml version="1.0" encoding="UTF-8" standalone="no"?><!DOCTYPE svg PUBLIC "-//W3C//DTD SVG 1.1//EN" "http://www.w3.org/Graphics/SVG/1.1/DTD/svg11.dtd"><svg width="100%" height="100%" viewBox="0 0 87 46" version="1.1" xmlns="http://www.w3.org/2000/svg" xmlns:xlink="http://www.w3.org/1999/xlink" xml:space="preserve" xmlns:serif="http://www.serif.com/" style="fill-rule:evenodd;clip-rule:evenodd;stroke-linejoin:round;stroke-miterlimit:1.41421;"><g id="rock-mossy10"><g id="rock-highlights10"><g><g><path d="M75.679,10.179l-16.099,-8.05l-32.2,0l-16.1,8.05l21.467,16.099l21.466,0c0,0 22.082,-9.395 21.466,-9.395c-0.616,0 0,-6.704 0,-6.704" style="fill:#95d767;"/><clipPath id="_clip1"><path d="M75.679,10.179l-16.099,-8.05l-32.2,0l-16.1,8.05l21.467,16.099l21.466,0c0,0 22.082,-9.395 21.466,-9.395c-0.616,0 0,-6.704 0,-6.704"/></clipPath><g clip-path="url(#_clip1)"><path d="M11.28,10.179l19.721,16.972l1.746,15.227l2.529,-14.835l17.34,1.806l1.597,7.662l1.493,-9.986l17.475,-7.363l7.865,3.933l-5.367,-6.902l0,-5.735l-64.399,-0.779Z" style="fill:#95d767;"/></g><path d="M75.679,10.179l5.367,2.683l0,10.733l-7.313,-5.891l1.946,-7.525Z" style="fill:#4c805b;"/><clipPath id="_clip2"><path d="M75.679,10.179l5.367,2.683l0,10.733l-7.313,-5.891l1.946,-7.525Z"/></clipPath><g clip-path="url(#_clip2)"><path d="M11.28,10.179l19.721,16.972l1.746,15.227l2.529,-14.835l17.34,1.806l1.597,7.662l1.493,-9.986l17.475,-7.363l7.865,3.933l-5.367,-6.902l0,-5.735l-64.399,-0.779Z" style="fill:#95d767;"/></g><path d="M73.825,17.689l7.221,5.906l-26.833,13.416l0,-10.733l19.612,-8.589" style="fill:#3f673c;"/><clipPath id="_clip3"><path d="M73.825,17.689l7.221,5.906l-26.833,13.416l0,-10.733l19.612,-8.589"/></clipPath><g clip-path="url(#_clip3)"><path d="M11.28,10.179l19.721,16.972l1.746,15.227l2.529,-14.835l17.34,1.806l1.597,7.662l1.493,-9.986l17.475,-7.363l7.865,3.933l-5.367,-6.902l0,-5.735l-64.399,-0.779Z" style="fill:#95d767;"/></g><path d="M54.213,26.278l0,10.733l-21.466,5.367l0,-16.1l21.466,0" style="fill:#3f673c;"/><clipPath id="_clip4"><path d="M54.213,26.278l0,10.733l-21.466,5.367l0,-16.1l21.466,0"/></clipPath><g clip-path="url(#_clip4)"><path d="M11.28,10.179l19.721,16.972l1.746,15.227l2.529,-14.835l17.34,1.806l1.597,7.662l1.493,-9.986l17.475,-7.363l7.865,3.933l-5.367,-6.902l0,-5.735l-64.399,-0.779Z" style="fill:#95d767;"/></g><path d="M11.28,10.179l21.467,16.099l0,16.1l-26.833,-13.416l5.366,-18.783Z" style="fill:#194b49;"/><clipPath id="_clip5"><path d="M11.28,10.179l21.467,16.099l0,16.1l-26.833,-13.416l5.366,-18.783Z"/></clipPath><g clip-path="url(#_clip5)"><path d="M11.28,10.179l19.721,16.972l1.746,15.227l2.529,-14.835l17.34,1.806l1.597,7.662l1.493,-9.986l17.475,-7.363l7.865,3.933l-5.367,-6.902l0,-5.735l-64.399,-0.779Z" style="fill:#95d767;"/></g></g></g></g><path d="M11.28,10.179l5.367,3.574l8.373,-1.18l1.516,0.758l0.844,-1.145l1.959,-1.115c0,0 -1.312,-1.502 1.351,-1.03c2.664,0.472 1.528,-0.015 3.657,0.229c2.129,0.243 1.947,0.243 3.766,0.243c1.82,0 -0.745,-0.223 2.043,0c2.788,0.223 1.853,0.332 3.324,0.557c1.471,0.224 -0.009,0.06 1.623,0.811c1.632,0.751 2.048,-0.528 2.676,1.338c0.629,1.866 -1.059,2.089 1.067,1.866c2.126,-0.223 0.647,0.394 2.056,-0.304c1.409,-0.699 2.537,-2.598 3.311,-3.711c0.774,-1.114 2.403,-1.202 2.403,-1.202c0,0 -0.914,-1.158 1.516,-0.758c2.43,0.4 3.62,0.363 3.62,0.363l7.047,3.523l2.235,0.396l1.383,-0.691l3.262,-1.631l0,-0.884l-1.406,-1.627l-2.283,-0.305c0,0 -0.109,0.849 -0.892,-0.26c-0.783,-1.11 -1.773,-2.709 -1.773,-2.709l-0.761,0.229l-1.675,-1.599c0,0 -0.232,-0.913 -1.943,-0.989c-1.711,-0.077 -2.092,-0.077 -2.092,-0.077l-1.37,-0.076c0,0 -0.688,1.178 -1.904,0.247c-1.217,-0.932 -1.894,-0.947 -1.894,-0.947l-1.553,-0.777l-1.005,-0.502l-6.282,0.381c0,0 1.752,-1.066 -0.76,-0.153c-2.512,0.914 -2.514,1.371 -4.606,1.523c-2.093,0.152 -2.778,-0.076 -2.778,-0.076c0,0 0.532,0.531 -1.18,-0.153c-1.713,-0.685 -1.409,-0.685 -1.409,-0.685c0,0 -1.826,-0.38 -2.816,-0.837c-0.99,-0.457 -1.728,-0.046 -1.728,-0.046l-1.614,-0.016l-0.914,0.457l-1.834,-0.243c0,0 -1.142,-0.456 -1.827,0.838c-0.685,1.294 0,3.806 0,3.806c0,0 0.381,0 -1.066,0.304c-1.446,0.305 -2.915,0.502 -2.915,0.502l-1.385,-0.693c0,0 1.361,1.85 -0.595,0.297c-1.956,-1.552 -1.948,-1.568 -1.948,-1.568l-1.835,0.853l-0.989,1.371c0,0 0.473,0.347 -1.667,0.897c-2.14,0.549 -2.901,1.615 -2.901,1.615l-0.799,1.011Z" style="fill:#194b49;"/><path d="M59.58,5.756l-1.445,0c0,0 -0.965,-0.311 -2.29,-0.869c-1.326,-0.558 -3.42,-1.319 -3.42,-1.319l-4.472,0.951c0,0 -2.927,1 -5.174,0.833c-2.248,-0.167 -6.055,-0.167 -6.055,-0.167l-0.856,0l-1.178,-0.453c0,0 -3.485,-2.972 -3.675,-1.164c-0.19,1.808 0.782,2.61 0.782,2.61l-4.417,1.196l-3.597,0.381l-1.769,0.761l-5.367,1.332l-1.047,0.286c0,0 3.447,2.422 4.626,1.83c1.178,-0.593 2.209,-0.911 3.311,-1.656c1.103,-0.745 3.843,-1.126 3.843,-1.126l2.133,-1.862c0,0 1.445,0.435 3.234,0.435c1.789,0 0.742,-0.666 1.979,0c1.237,0.666 1.73,1.46 1.73,1.46l1.657,1.204c0,0 -2.417,4.187 0,4.472c2.418,0.286 0.801,2.187 2.846,0.285c2.046,-1.902 2.521,-4.106 2.521,-4.106c0,0 -0.697,-1.095 1.935,-0.968c2.633,0.127 3.431,0.127 3.431,0.127l2.497,-0.595l0.511,-1.594l0.146,-1.231c0,0 1.622,0.565 2.213,0.28c0.591,-0.286 3.577,0.403 3.577,0.403l2.828,0.375l2.941,0.839l1.387,0.857l1.434,0.79l1.366,0.542l1.522,0.381l1.045,-1.999c0,0 2.757,0.597 0,-0.891c-2.758,-1.488 -3.943,-1.971 -3.943,-1.971l-6.79,-0.659Z" style="fill:#9b9a87;"/><clipPath id="_clip6"><path d="M59.58,5.756l-1.445,0c0,0 -0.965,-0.311 -2.29,-0.869c-1.326,-0.558 -3.42,-1.319 -3.42,-1.319l-4.472,0.951c0,0 -2.927,1 -5.174,0.833c-2.248,-0.167 -6.055,-0.167 -6.055,-0.167l-0.856,0l-1.178,-0.453c0,0 -3.485,-2.972 -3.675,-1.164c-0.19,1.808 0.782,2.61 0.782,2.61l-4.417,1.196l-3.597,0.381l-1.769,0.761l-5.367,1.332l-1.047,0.286c0,0 3.447,2.422 4.626,1.83c1.178,-0.593 2.209,-0.911 3.311,-1.656c1.103,-0.745 3.843,-1.126 3.843,-1.126l2.133,-1.862c0,0 1.445,0.435 3.234,0.435c1.789,0 0.742,-0.666 1.979,0c1.237,0.666 1.73,1.46 1.73,1.46l1.657,1.204c0,0 -2.417,4.187 0,4.472c2.418,0.286 0.801,2.187 2.846,0.285c2.046,-1.902 2.521,-4.106 2.521,-4.106c0,0 -0.697,-1.095 1.935,-0.968c2.633,0.127 3.431,0.127 3.431,0.127l2.497,-0.595l0.511,-1.594l0.146,-1.231c0,0 1.622,0.565 2.213,0.28c0.591,-0.286 3.577,0.403 3.577,0.403l2.828,0.375l2.941,0.839l1.387,0.857l1.434,0.79l1.366,0.542l1.522,0.381l1.045,-1.999c0,0 2.757,0.597 0,-0.891c-2.758,-1.488 -3.943,-1.971 -3.943,-1.971l-6.79,-0.659Z"/></clipPath><g clip-path="url(#_clip6)"><path d="M64.946,-2.952l-14.358,3.431l-7.108,15.213l37.566,0.744l-16.1,-19.388Z" style="fill:#95c759;fill-opacity:0.5;"/></g><path d="M8.844,18.793l-4.11,0.916l-4.187,3.366l0,4.094c0,0 1.699,1.361 3.761,3.487c2.061,2.125 -1.745,1.078 2.442,2.506c4.187,1.427 7.584,1.37 8.55,2.731c0.966,1.36 1.251,2.217 2.488,3.263c1.237,1.047 2.266,0.952 4.226,2.379c1.959,1.428 0.913,1.142 2.911,2.094c1.998,0.951 -1.46,2.027 3.742,1.68c5.203,-0.348 5.555,-1.243 6.568,-0.796c1.014,0.448 -1.146,0.771 1.218,0.609c2.365,-0.161 2.134,0.804 3.153,0.084c1.02,-0.721 1.589,-0.679 3.874,-1.937c2.284,-1.258 1.292,-0.959 3.549,-1.774c2.256,-0.816 3.73,-1.865 3.73,-1.865c0,0 7.947,-1.235 9.659,-1.52c1.713,-0.286 1.988,1.311 5.467,-0.677c3.478,-1.988 7.514,-5.111 8.303,-5.643c0.789,-0.532 -1.138,-0.246 1.491,-0.817c2.629,-0.571 3.632,0.328 5.367,-1.12c1.734,-1.449 3.87,-2.105 4.325,-3.204c0.454,-1.1 1.041,-2.718 1.041,-2.718c0,0 -0.704,-0.424 -0.978,-1.639c-0.275,-1.215 -1.347,-4.693 -1.347,-4.693l-0.779,-2.715l-0.718,-3.323l-0.761,-0.285l-1.903,0l-1.808,-0.571l0.828,0.261l2.1,1.832l-0.667,1.288l0.667,2.613l-2.169,1.336l-0.342,-0.171l-0.082,2.552c0,0 -1.501,2.018 -2.774,1.387c-1.272,-0.631 -1.575,-0.788 -1.575,-0.788c0,0 1.811,-0.823 0.01,1.57c-1.801,2.393 -1.425,3.345 -3.801,4.867c-2.377,1.523 -0.173,0.666 -5.367,2.474c-5.194,1.808 -6.811,2.474 -6.811,2.474l-1.047,0.476l-0.666,-0.476c0,0 -0.421,-1.046 -2.209,-1.142c-1.788,-0.095 -2.665,-0.19 -5.367,-0.475c-2.701,-0.286 -3.557,-0.286 -3.557,-0.286c0,0 0.279,-1.154 -0.384,1.326c-0.663,2.48 -0.187,3.242 -0.187,3.242c0,0 -4.174,-1.116 -5.18,-0.558c-1.006,0.558 -3.652,1.7 -1.425,-1.25c2.227,-2.95 9.079,-3.711 1.942,-3.331c-7.137,0.381 -6.623,0.381 -7.308,1.618c-0.685,1.237 -2.664,2.324 -2.664,2.324l-1.56,0.78l-0.466,0.909c0,0 -0.41,-0.112 -0.677,-1.825c-0.266,-1.712 1.218,-1.522 0,-2.569c-1.218,-1.046 -2.956,-1.187 -2.087,-2.354c0.869,-1.167 2.963,-2.118 0.869,-2.499c-2.093,-0.38 -5.711,0.187 -5.663,1.616c0.049,1.429 0.049,2.191 0.049,2.191l-2.235,0.568l-1.666,-0.832c0,0 -4.473,1.976 -0.762,-1.64c3.711,-3.616 7.866,-5.582 4.79,-5.741c-3.077,-0.158 -3.172,-2.728 -4.885,0.698c-1.713,3.426 -1.969,5.27 -1.969,5.27l-0.989,-0.495l-1.552,0.459l-1.529,-0.47l-0.954,-2.006l-1.599,-0.8l1.646,-6.335Z" style="fill:#194b49;"/><clipPath id="_clip7"><path d="M8.844,18.793l-4.11,0.916l-4.187,3.366l0,4.094c0,0 1.699,1.361 3.761,3.487c2.061,2.125 -1.745,1.078 2.442,2.506c4.187,1.427 7.584,1.37 8.55,2.731c0.966,1.36 1.251,2.217 2.488,3.263c1.237,1.047 2.266,0.952 4.226,2.379c1.959,1.428 0.913,1.142 2.911,2.094c1.998,0.951 -1.46,2.027 3.742,1.68c5.203,-0.348 5.555,-1.243 6.568,-0.796c1.014,0.448 -1.146,0.771 1.218,0.609c2.365,-0.161 2.134,0.804 3.153,0.084c1.02,-0.721 1.589,-0.679 3.874,-1.937c2.284,-1.258 1.292,-0.959 3.549,-1.774c2.256,-0.816 3.73,-1.865 3.73,-1.865c0,0 7.947,-1.235 9.659,-1.52c1.713,-0.286 1.988,1.311 5.467,-0.677c3.478,-1.988 7.514,-5.111 8.303,-5.643c0.789,-0.532 -1.138,-0.246 1.491,-0.817c2.629,-0.571 3.632,0.328 5.367,-1.12c1.734,-1.449 3.87,-2.105 4.325,-3.204c0.454,-1.1 1.041,-2.718 1.041,-2.718c0,0 -0.704,-0.424 -0.978,-1.639c-0.275,-1.215 -1.347,-4.693 -1.347,-4.693l-0.779,-2.715l-0.718,-3.323l-0.761,-0.285l-1.903,0l-1.808,-0.571l0.828,0.261l2.1,1.832l-0.667,1.288l0.667,2.613l-2.169,1.336l-0.342,-0.171l-0.082,2.552c0,0 -1.501,2.018 -2.774,1.387c-1.272,-0.631 -1.575,-0.788 -1.575,-0.788c0,0 1.811,-0.823 0.01,1.57c-1.801,2.393 -1.425,3.345 -3.801,4.867c-2.377,1.523 -0.173,0.666 -5.367,2.474c-5.194,1.808 -6.811,2.474 -6.811,2.474l-1.047,0.476l-0.666,-0.476c0,0 -0.421,-1.046 -2.209,-1.142c-1.788,-0.095 -2.665,-0.19 -5.367,-0.475c-2.701,-0.286 -3.557,-0.286 -3.557,-0.286c0,0 0.279,-1.154 -0.384,1.326c-0.663,2.48 -0.187,3.242 -0.187,3.242c0,0 -4.174,-1.116 -5.18,-0.558c-1.006,0.558 -3.652,1.7 -1.425,-1.25c2.227,-2.95 9.079,-3.711 1.942,-3.331c-7.137,0.381 -6.623,0.381 -7.308,1.618c-0.685,1.237 -2.664,2.324 -2.664,2.324l-1.56,0.78l-0.466,0.909c0,0 -0.41,-0.112 -0.677,-1.825c-0.266,-1.712 1.218,-1.522 0,-2.569c-1.218,-1.046 -2.956,-1.187 -2.087,-2.354c0.869,-1.167 2.963,-2.118 0.869,-2.499c-2.093,-0.38 -5.711,0.187 -5.663,1.616c0.049,1.429 0.049,2.191 0.049,2.191l-2.235,0.568l-1.666,-0.832c0,0 -4.473,1.976 -0.762,-1.64c3.711,-3.616 7.866,-5.582 4.79,-5.741c-3.077,-0.158 -3.172,-2.728 -4.885,0.698c-1.713,3.426 -1.969,5.27 -1.969,5.27l-0.989,-0.495l-1.552,0.459l-1.529,-0.47l-0.954,-2.006l-1.599,-0.8l1.646,-6.335Z"/></clipPath><g clip-path="url(#_clip7)"><path d="M72.703,2.93l19.076,18.724l-7.25,12.713l-34.196,8.672l4.698,-20.827l17.672,-19.282Z" style="fill:#95c759;fill-opacity:0.5;"/><path d="M89.338,20.34l-5.23,0.311l-0.614,1.229l-1.579,2.171c0,0 -1.371,2.111 -2.418,2.872c-1.046,0.761 -3.068,0.761 -3.818,1.903c-0.749,1.142 -1.701,1.142 -2.938,1.142c-1.237,0 -1.391,0.403 -1.391,0.403c0,0 1.582,-0.213 -2.605,2.071c-4.187,2.284 -5.519,2.474 -5.519,2.474c0,0 -3.997,-0.095 -6.09,0c-2.094,0.095 -3.997,0.381 -5.139,0.761c-1.142,0.381 -1.163,0.381 -3.151,0.857c-1.987,0.475 -0.874,1.371 -6.379,1.875c-5.505,0.504 -6.516,0.623 -8.151,0.278c-1.636,-0.345 -6.936,-0.726 -6.936,-0.726l-3.327,-1.078l-0.495,0.247l-0.852,-4.94l-6.059,3.029l0,-2.206l-5.367,-0.477l0,-1.426l-5.366,-1.257l0,-4.262c0,0 -1.898,-0.528 -0.983,-1.596c0.915,-1.069 0.983,-11.06 0.983,-11.06l-7.68,11.228l10.752,21.411l25.047,2.419l21.961,-2.419l19.685,-3.616l9.197,-8.654l4.462,-12.964" style="fill:#9b9a87;"/><clipPath id="_clip8"><path d="M89.338,20.34l-5.23,0.311l-0.614,1.229l-1.579,2.171c0,0 -1.371,2.111 -2.418,2.872c-1.046,0.761 -3.068,0.761 -3.818,1.903c-0.749,1.142 -1.701,1.142 -2.938,1.142c-1.237,0 -1.391,0.403 -1.391,0.403c0,0 1.582,-0.213 -2.605,2.071c-4.187,2.284 -5.519,2.474 -5.519,2.474c0,0 -3.997,-0.095 -6.09,0c-2.094,0.095 -3.997,0.381 -5.139,0.761c-1.142,0.381 -1.163,0.381 -3.151,0.857c-1.987,0.475 -0.874,1.371 -6.379,1.875c-5.505,0.504 -6.516,0.623 -8.151,0.278c-1.636,-0.345 -6.936,-0.726 -6.936,-0.726l-3.327,-1.078l-0.495,0.247l-0.852,-4.94l-6.059,3.029l0,-2.206l-5.367,-0.477l0,-1.426l-5.366,-1.257l0,-4.262c0,0 -1.898,-0.528 -0.983,-1.596c0.915,-1.069 0.983,-11.06 0.983,-11.06l-7.68,11.228l10.752,21.411l25.047,2.419l21.961,-2.419l19.685,-3.616l9.197,-8.654l4.462,-12.964"/></clipPath><g clip-path="url(#_clip8)"><path d="M72.703,2.93l19.076,18.724l-7.25,12.713l-34.196,8.672l4.698,-20.827l17.672,-19.282Z" style="fill:#95c759;fill-opacity:0.5;"/></g><path d="M14.856,3.029l17.891,20.99l-8.036,22.075l-28.028,-15.49l0.533,-9.246l17.64,-18.329Z" style="fill:#191919;fill-opacity:0.5;"/></g></g></svg>