<?xml version="1.0" encoding="UTF-8" standalone="no"?><!DOCTYPE svg PUBLIC "-//W3C//DTD SVG 1.1//EN" "http://www.w3.org/Graphics/SVG/1.1/DTD/svg11.dtd"><svg width="100%" height="100%" viewBox="0 0 92 60" version="1.1" xmlns="http://www.w3.org/2000/svg" xmlns:xlink="http://www.w3.org/1999/xlink" xml:space="preserve" xmlns:serif="http://www.serif.com/" style="fill-rule:evenodd;clip-rule:evenodd;stroke-linejoin:round;stroke-miterlimit:1.41421;"><g id="rock-runes-highlights02"><g id="rock-highlights02"><g><g><path d="M49.049,0.086l32.199,5.367l-32.199,26.832l-21.466,-10.733l-10.734,-16.099l10.734,-5.367l21.466,0Z" style="fill:#4c805b;"/><clipPath id="_clip1"><path d="M49.049,0.086l32.199,5.367l-32.199,26.832l-21.466,-10.733l-10.734,-16.099l10.734,-5.367l21.466,0Z"/></clipPath><g clip-path="url(#_clip1)"><path d="M70.515,53.752l-21.466,-19.319l-18.708,-8.893l7.975,33.578l-11.503,-31.814l-20.697,26.448l18.097,-32.279l-7.364,-16.02l12.422,14.472l19.778,10.992l29.073,-25.914l3.126,0.45l-10.733,48.299Z" style="fill:#95d767;"/></g><path d="M81.248,5.453l10.733,26.832l-21.466,21.467l-21.466,-21.467l32.199,-26.832Z" style="fill:#95d767;"/><path d="M49.049,32.285l21.466,21.467l-32.199,5.366l-10.733,-37.566l21.466,10.733Z" style="fill:#3f673c;"/><clipPath id="_clip2"><path d="M49.049,32.285l21.466,21.467l-32.199,5.366l-10.733,-37.566l21.466,10.733Z"/></clipPath><g clip-path="url(#_clip2)"><path d="M70.515,53.752l-21.466,-19.319l-18.708,-8.893l7.975,33.578l-11.503,-31.814l-20.697,26.448l18.097,-32.279l-7.364,-16.02l12.422,14.472l19.778,10.992l29.073,-25.914l3.126,0.45l-10.733,48.299Z" style="fill:#95d767;"/></g><path d="M27.583,21.552l-21.467,32.2l32.2,5.366l-10.733,-37.566" style="fill:#194b49;"/><clipPath id="_clip3"><path d="M27.583,21.552l-21.467,32.2l32.2,5.366l-10.733,-37.566"/></clipPath><g clip-path="url(#_clip3)"><path d="M70.515,53.752l-21.466,-19.319l-18.708,-8.893l7.975,33.578l-11.503,-31.814l-20.697,26.448l18.097,-32.279l-7.364,-16.02l12.422,14.472l19.778,10.992l29.073,-25.914l3.126,0.45l-10.733,48.299Z" style="fill:#95d767;"/></g><path d="M16.849,5.453l-16.099,18.783l5.366,29.516l21.467,-32.2l-10.734,-16.099Z" style="fill:#194b49;"/><clipPath id="_clip4"><path d="M16.849,5.453l-16.099,18.783l5.366,29.516l21.467,-32.2l-10.734,-16.099Z"/></clipPath><g clip-path="url(#_clip4)"><path d="M70.515,53.752l-21.466,-19.319l-18.708,-8.893l7.975,33.578l-11.503,-31.814l-20.697,26.448l18.097,-32.279l-7.364,-16.02l12.422,14.472l19.778,10.992l29.073,-25.914l3.126,0.45l-10.733,48.299Z" style="fill:#95d767;"/></g></g></g></g><path d="M88.648,35.657l-2.033,-8.607l-13.873,-6.94l-14.556,9.173l12.329,16.271l5.367,-5.547l-2.525,-14.838l-5.863,5.278l4.373,0.834l1.265,7.351l-2.617,1.977l-7.232,-12.268l9.908,-5.779l11.358,5.679l-3.301,9.083l-9.41,11.394l-4.953,1.154l-13.784,-5.156l-9.419,-7.935l5.367,-4.824l5.366,-11.128l16.1,-10.338l-39.288,-5.614l7.089,14.675l5.366,-3.509l-4.133,-6.169l22.836,1.918l-13.336,6.325l-2.948,12.366l-7.785,6.841l13.085,11.909l17.589,3.428l19.658,-17.004" style="fill:#13190f;fill-opacity:0.65;"/><path d="M38.316,58.79l6.588,-8.661l-7.743,3.872l-6.371,-5.475l-1.634,-14.456l-1.573,13.068l-7.003,-5.227l8.298,-10.602l-10.019,7.02l3.357,-9.055l-7.598,0.467l4.411,-6.615l-0.436,-8.14l-8.191,-1.272l-4.286,12.876l2.41,1.205l3.762,-9.657l4.561,0.986l-5.366,10.781l1.854,3.808l6.753,-1.113l-4.259,9.581l2.976,-0.469l-1.958,6.345l-4.789,2.972l4.789,0.356l4.209,-6.591l6.525,6.264l4.2,4.466l6.533,3.266Z" style="fill:#13190f;fill-opacity:0.65;"/></g></svg>