<?xml version="1.0" encoding="UTF-8" standalone="no"?><!DOCTYPE svg PUBLIC "-//W3C//DTD SVG 1.1//EN" "http://www.w3.org/Graphics/SVG/1.1/DTD/svg11.dtd"><svg width="100%" height="100%" viewBox="0 0 67 63" version="1.1" xmlns="http://www.w3.org/2000/svg" xmlns:xlink="http://www.w3.org/1999/xlink" xml:space="preserve" xmlns:serif="http://www.serif.com/" style="fill-rule:evenodd;clip-rule:evenodd;stroke-linejoin:round;stroke-miterlimit:1.41421;"><g id="rock-runes-mossy12"><g id="rock-mossy11"><g id="rock-runes-highlights11"><g id="rock-highlights11"><g><g><path d="M40.988,9.809l21.466,28.124l-10.733,16.099l-14.221,-46.555l3.488,2.332Z" style="fill:#95d767;"/><clipPath id="_clip1"><path d="M40.988,9.809l21.466,28.124l-10.733,16.099l-14.221,-46.555l3.488,2.332Z"/></clipPath><g clip-path="url(#_clip1)"><path d="M51.721,54.032l-14.412,-41.093l-4.956,0.53l-2.099,45.93l-3.255,-46.672l-6.511,-5.033l-11.7,46.338l10.733,-48.299l19.476,3.069l12.724,45.23" style="fill:#95d767;"/></g><path d="M37.894,7.28l-7.64,3.82l0,48.299l21.467,-5.367l-13.827,-46.752Z" style="fill:#4c805b;"/><clipPath id="_clip2"><path d="M37.894,7.28l-7.64,3.82l0,48.299l21.467,-5.367l-13.827,-46.752Z"/></clipPath><g clip-path="url(#_clip2)"><path d="M51.721,54.032l-14.412,-41.093l-4.956,0.53l-2.099,45.93l-3.255,-46.672l-6.511,-5.033l-11.7,46.338l10.733,-48.299l19.476,3.069l12.724,45.23" style="fill:#95d767;"/></g><path d="M40.988,9.814l-10.734,-9.447l-10.733,5.366l10.733,5.367l10.734,-1.286Z" style="fill:#95d767;"/><clipPath id="_clip3"><path d="M40.988,9.814l-10.734,-9.447l-10.733,5.366l10.733,5.367l10.734,-1.286Z"/></clipPath><g clip-path="url(#_clip3)"><path d="M51.721,54.032l-14.412,-41.093l-4.956,0.53l-2.099,45.93l-3.255,-46.672l-6.511,-5.033l-11.7,46.338l10.733,-48.299l19.476,3.069l12.724,45.23" style="fill:#95d767;"/></g><path d="M19.521,5.733l10.733,5.367l0,48.299l-21.466,-5.367l10.733,-48.299Z" style="fill:#3f673c;"/><clipPath id="_clip4"><path d="M19.521,5.733l10.733,5.367l0,48.299l-21.466,-5.367l10.733,-48.299Z"/></clipPath><g clip-path="url(#_clip4)"><path d="M51.721,54.032l-14.412,-41.093l-4.956,0.53l-2.099,45.93l-3.255,-46.672l-6.511,-5.033l-11.7,46.338l10.733,-48.299l19.476,3.069l12.724,45.23" style="fill:#95d767;"/></g></g></g></g><path d="M57.087,45.654l-5.366,-13.416l3.719,16.047l-3.719,5.419l-6.12,-3.06l-3.201,-6.967l1.644,-11.813l-9.152,-9.332l0.729,-11.485l-1.839,-2.04l-7.64,-0.292l-2.122,5.174l-6.098,17.549l-2.45,18.924l6.985,7.24l4,1.091l-4.531,-6.191l-2.405,-4.165l1.559,-15.32l5.018,3.962l0.416,9.488l-1.626,1.548l3.672,-0.525l0.23,-12.485l-3.902,-5.451l-0.943,-8.727l2.871,-4.396l1.444,-6.657l4.837,0.914l-0.34,14.932l9.486,7.245l-8.258,13.607l7.003,-7.788l0,6.55l2.998,6.971l5.376,2.678l2.359,-0.317l5.366,-8.912Z" style="fill:#13190f;fill-opacity:0.65;"/></g><path d="M56.929,30.695l7.935,-1.4l1.832,12.774l-4.242,2.121l-1.283,6.008l-7.944,10.845l-9.14,-2.303l-11.612,2.66l-9.328,0.702l-8.992,-1.768l-10.733,-2.728l0,-5.366l-2.84,-6.786l8.206,-4.412l1.678,2.309l0.158,1.757l-0.675,5.029c0,0 6.534,-0.217 6.098,-4.21c-0.435,-3.993 3.258,-4.439 3.474,-2.655c0.217,1.784 -1.889,1.115 0,2.565c1.89,1.45 2.598,2.421 2.598,2.421l0.518,1.482l0.432,1.59l4.326,2.164c0,0 -3.159,0.631 0,0c3.16,-0.632 0.887,0.929 2.859,-0.855c1.973,-1.784 1.75,-0.669 2.642,-2.788c0.893,-2.118 1.435,-2.61 2.725,-2.978c1.29,-0.367 5.094,2.532 5.367,-0.59c0.272,-3.122 -0.83,-1.338 0,-3.345c0.829,-2.007 1.052,-2.342 1.052,-2.342l1.034,-0.729c0,0 -0.085,-1.5 0.277,-2.225c0.362,-0.726 0.5,-0.891 -0.182,-3.094c-0.683,-2.204 -0.794,-1.423 -0.906,-3.096c-0.111,-1.673 0.418,-0.165 0.153,-2.647c-0.264,-2.483 -1.812,-2.259 -1.428,-5.047c0.383,-2.788 0,-3.903 0,-3.903l2.725,5.464c0,0 -0.78,-1.004 1.45,2.453c2.23,3.457 2.733,4.128 3.764,7.082c1.031,2.954 0.877,5.965 2.794,6.857c1.917,0.892 2.614,1.172 2.614,1.172l0.565,-2.47l2.187,-0.598l0,-2.007l0.807,-1.264l0.848,0.423l2.255,-1.278l-4.068,-4.994Z" style="fill:#194b49;"/><clipPath id="_clip5"><path d="M56.929,30.695l7.935,-1.4l1.832,12.774l-4.242,2.121l-1.283,6.008l-7.944,10.845l-9.14,-2.303l-11.612,2.66l-9.328,0.702l-8.992,-1.768l-10.733,-2.728l0,-5.366l-2.84,-6.786l8.206,-4.412l1.678,2.309l0.158,1.757l-0.675,5.029c0,0 6.534,-0.217 6.098,-4.21c-0.435,-3.993 3.258,-4.439 3.474,-2.655c0.217,1.784 -1.889,1.115 0,2.565c1.89,1.45 2.598,2.421 2.598,2.421l0.518,1.482l0.432,1.59l4.326,2.164c0,0 -3.159,0.631 0,0c3.16,-0.632 0.887,0.929 2.859,-0.855c1.973,-1.784 1.75,-0.669 2.642,-2.788c0.893,-2.118 1.435,-2.61 2.725,-2.978c1.29,-0.367 5.094,2.532 5.367,-0.59c0.272,-3.122 -0.83,-1.338 0,-3.345c0.829,-2.007 1.052,-2.342 1.052,-2.342l1.034,-0.729c0,0 -0.085,-1.5 0.277,-2.225c0.362,-0.726 0.5,-0.891 -0.182,-3.094c-0.683,-2.204 -0.794,-1.423 -0.906,-3.096c-0.111,-1.673 0.418,-0.165 0.153,-2.647c-0.264,-2.483 -1.812,-2.259 -1.428,-5.047c0.383,-2.788 0,-3.903 0,-3.903l2.725,5.464c0,0 -0.78,-1.004 1.45,2.453c2.23,3.457 2.733,4.128 3.764,7.082c1.031,2.954 0.877,5.965 2.794,6.857c1.917,0.892 2.614,1.172 2.614,1.172l0.565,-2.47l2.187,-0.598l0,-2.007l0.807,-1.264l0.848,0.423l2.255,-1.278l-4.068,-4.994Z"/></clipPath><g clip-path="url(#_clip5)"><path d="M59.456,18.856l-18.468,-1.499l0,17.74l3.043,7.571l4.745,10.783l-2.422,0.74l-1.858,4.344l19.19,6.505l9.501,-31.583l-13.731,-14.601Z" style="fill:#95c759;fill-opacity:0.5;"/><path d="M69.138,30.115l-5.464,6.244l-1.22,3.679l-1.934,3.185l-1.567,4.583l-1.866,2.603l-4.23,-4.46c0,0 -3.218,-1.147 -4.341,-3.361c-1.123,-2.215 -3.201,-1.769 -2.162,-3.553c1.039,-1.784 1.374,-5.576 1.374,-5.576l-2.948,-3.472l-0.635,10.415c0,0 0.39,0.194 2.209,3.874c1.82,3.68 3.516,4.172 3.838,6.045c0.323,1.872 -1.42,3.545 -3.838,3.656c-2.418,0.112 -2.516,0.888 -5.366,0.946c-2.851,0.058 -7.482,1.626 -7.482,1.626c0,0 1.689,-0.676 -3.252,-0.23c-4.94,0.446 -4.482,0.916 -6.83,2.019c-2.348,1.103 -3.903,1.952 -3.903,1.952c0,0 -4.421,-1.204 -4.221,-3.256c0.201,-2.053 0.626,-3.908 0.626,-3.908c0,0 -0.48,-2.381 1.108,-2.326c1.589,0.055 -6.217,1.393 -6.217,1.393l-0.823,-2.033l-1.206,4.763l-2.687,-4.023l1.841,-1.766l0.846,-2.516l-0.953,-1.951l-1.813,-0.391l-7.967,-0.086l-1.846,8.784c0,0 2.577,3.704 4.188,6.145c1.611,2.441 5.387,5.341 13.758,7.571c8.371,2.23 39.696,-3.143 41.541,-3.021c1.845,0.121 10.483,-12.25 10.483,-12.25l7.008,-15.507l0,-9.701l-8.585,-2.413l-7.515,2.748l2.461,4.46l2.906,1.004l2.581,0.157l2.785,-3.949l1.318,1.897Z" style="fill:#9b9a87;"/><clipPath id="_clip6"><path d="M69.138,30.115l-5.464,6.244l-1.22,3.679l-1.934,3.185l-1.567,4.583l-1.866,2.603l-4.23,-4.46c0,0 -3.218,-1.147 -4.341,-3.361c-1.123,-2.215 -3.201,-1.769 -2.162,-3.553c1.039,-1.784 1.374,-5.576 1.374,-5.576l-2.948,-3.472l-0.635,10.415c0,0 0.39,0.194 2.209,3.874c1.82,3.68 3.516,4.172 3.838,6.045c0.323,1.872 -1.42,3.545 -3.838,3.656c-2.418,0.112 -2.516,0.888 -5.366,0.946c-2.851,0.058 -7.482,1.626 -7.482,1.626c0,0 1.689,-0.676 -3.252,-0.23c-4.94,0.446 -4.482,0.916 -6.83,2.019c-2.348,1.103 -3.903,1.952 -3.903,1.952c0,0 -4.421,-1.204 -4.221,-3.256c0.201,-2.053 0.626,-3.908 0.626,-3.908c0,0 -0.48,-2.381 1.108,-2.326c1.589,0.055 -6.217,1.393 -6.217,1.393l-0.823,-2.033l-1.206,4.763l-2.687,-4.023l1.841,-1.766l0.846,-2.516l-0.953,-1.951l-1.813,-0.391l-7.967,-0.086l-1.846,8.784c0,0 2.577,3.704 4.188,6.145c1.611,2.441 5.387,5.341 13.758,7.571c8.371,2.23 39.696,-3.143 41.541,-3.021c1.845,0.121 10.483,-12.25 10.483,-12.25l7.008,-15.507l0,-9.701l-8.585,-2.413l-7.515,2.748l2.461,4.46l2.906,1.004l2.581,0.157l2.785,-3.949l1.318,1.897Z"/></clipPath><g clip-path="url(#_clip6)"><path d="M59.456,18.856l-18.468,-1.499l0,17.74l3.043,7.571l4.745,10.783l-2.422,0.74l-1.858,4.344l19.19,6.505l9.501,-31.583l-13.731,-14.601Z" style="fill:#95c759;fill-opacity:0.5;"/></g><path d="M10.518,27.226l19.736,18.958l-16.099,16.789l-18.465,-1.501c-0.067,-9.756 2.243,-18.944 10.446,-26.689l4.382,-7.557Z" style="fill:#191919;fill-opacity:0.5;"/></g></g></g></svg>