<?xml version="1.0" encoding="UTF-8" standalone="no"?><!DOCTYPE svg PUBLIC "-//W3C//DTD SVG 1.1//EN" "http://www.w3.org/Graphics/SVG/1.1/DTD/svg11.dtd"><svg width="100%" height="100%" viewBox="0 0 87 46" version="1.1" xmlns="http://www.w3.org/2000/svg" xmlns:xlink="http://www.w3.org/1999/xlink" xml:space="preserve" xmlns:serif="http://www.serif.com/" style="fill-rule:evenodd;clip-rule:evenodd;stroke-linejoin:round;stroke-miterlimit:1.41421;"><g id="rock-runes-mossy10"><g id="rock-mossy10"><g id="rock-runes-highlights10"><g id="rock-highlights10"><g><g><path d="M75.82,9.815l-16.099,-8.05l-32.2,0l-16.099,8.05l21.466,16.1l21.466,0c0,0 22.083,-9.395 21.466,-9.395c-0.616,0 0,-6.705 0,-6.705" style="fill:#95d767;"/><clipPath id="_clip1"><path d="M75.82,9.815l-16.099,-8.05l-32.2,0l-16.099,8.05l21.466,16.1l21.466,0c0,0 22.083,-9.395 21.466,-9.395c-0.616,0 0,-6.705 0,-6.705"/></clipPath><g clip-path="url(#_clip1)"><path d="M11.422,9.815l19.72,16.973l1.746,15.227l2.53,-14.835l17.339,1.805l1.597,7.663l1.493,-9.987l17.475,-7.362l7.865,3.933l-5.367,-6.903l0,-5.735l-64.398,-0.779Z" style="fill:#95d767;"/></g><path d="M75.82,9.815l5.367,2.683l0,10.734l-7.312,-5.892l1.945,-7.525Z" style="fill:#4c805b;"/><clipPath id="_clip2"><path d="M75.82,9.815l5.367,2.683l0,10.734l-7.312,-5.892l1.945,-7.525Z"/></clipPath><g clip-path="url(#_clip2)"><path d="M11.422,9.815l19.72,16.973l1.746,15.227l2.53,-14.835l17.339,1.805l1.597,7.663l1.493,-9.987l17.475,-7.362l7.865,3.933l-5.367,-6.903l0,-5.735l-64.398,-0.779Z" style="fill:#95d767;"/></g><path d="M73.967,17.326l7.22,5.906l-26.833,13.416l0,-10.733l19.613,-8.589" style="fill:#3f673c;"/><clipPath id="_clip3"><path d="M73.967,17.326l7.22,5.906l-26.833,13.416l0,-10.733l19.613,-8.589"/></clipPath><g clip-path="url(#_clip3)"><path d="M11.422,9.815l19.72,16.973l1.746,15.227l2.53,-14.835l17.339,1.805l1.597,7.663l1.493,-9.987l17.475,-7.362l7.865,3.933l-5.367,-6.903l0,-5.735l-64.398,-0.779Z" style="fill:#95d767;"/></g><path d="M54.354,25.915l0,10.733l-21.466,5.367l0,-16.1l21.466,0" style="fill:#3f673c;"/><clipPath id="_clip4"><path d="M54.354,25.915l0,10.733l-21.466,5.367l0,-16.1l21.466,0"/></clipPath><g clip-path="url(#_clip4)"><path d="M11.422,9.815l19.72,16.973l1.746,15.227l2.53,-14.835l17.339,1.805l1.597,7.663l1.493,-9.987l17.475,-7.362l7.865,3.933l-5.367,-6.903l0,-5.735l-64.398,-0.779Z" style="fill:#95d767;"/></g><path d="M11.422,9.815l21.466,16.1l0,16.1l-26.833,-13.417l5.367,-18.783Z" style="fill:#194b49;"/><clipPath id="_clip5"><path d="M11.422,9.815l21.466,16.1l0,16.1l-26.833,-13.417l5.367,-18.783Z"/></clipPath><g clip-path="url(#_clip5)"><path d="M11.422,9.815l19.72,16.973l1.746,15.227l2.53,-14.835l17.339,1.805l1.597,7.663l1.493,-9.987l17.475,-7.362l7.865,3.933l-5.367,-6.903l0,-5.735l-64.398,-0.779Z" style="fill:#95d767;"/></g></g></g></g><path d="M70.454,28.27l-1.194,-8.75l1.194,-7.35l-23.247,-6.257l-23.458,2.122l10.794,13.013l19.811,0.339l10.733,-6.534l-17.873,-3.57l-9.897,2.136l6.304,4.307l10.733,-1.651l-6.342,-1.651l-3.348,-0.092l3.061,1.24l-3.158,0.503l-3.29,-2.394l6.46,-0.885l14.273,2.489l-7.656,4.092l-17.468,0.072l-9.365,-9.835l19.16,-1.657l20.826,5.687l-1.141,7.215l0.546,9.182l3.542,-1.771" style="fill:#13190f;fill-opacity:0.65;"/><path d="M11.422,9.487l16.099,18.783l5.367,2.683l14.662,-3.402l5.184,4.212l1.62,4.557l-5.366,1.505l-0.76,-5.455l-15.34,3.95l-5.367,-5.386l-3.939,-0.694l-3.135,-4.833l-10.39,-9.871l1.365,-6.049Z" style="fill:#13190f;fill-opacity:0.65;"/></g><path d="M11.422,9.815l5.366,3.574l8.373,-1.18l1.517,0.759l0.843,-1.145l1.959,-1.116c0,0 -1.312,-1.501 1.351,-1.029c2.664,0.472 1.528,-0.016 3.657,0.228c2.129,0.244 1.947,0.244 3.766,0.244c1.82,0 -0.745,-0.223 2.043,0c2.788,0.223 1.853,0.332 3.324,0.556c1.471,0.224 -0.008,0.061 1.623,0.812c1.632,0.751 2.048,-0.528 2.677,1.338c0.628,1.866 -1.059,2.089 1.067,1.866c2.126,-0.223 0.646,0.394 2.055,-0.305c1.409,-0.699 2.537,-2.597 3.311,-3.711c0.774,-1.114 2.403,-1.201 2.403,-1.201c0,0 -0.914,-1.158 1.516,-0.759c2.431,0.4 3.62,0.363 3.62,0.363l7.048,3.524l2.234,0.396l1.383,-0.692l3.262,-1.631l0,-0.883l-1.406,-1.628l-2.283,-0.304c0,0 -0.109,0.849 -0.892,-0.261c-0.783,-1.109 -1.773,-2.708 -1.773,-2.708l-0.761,0.228l-1.675,-1.598c0,0 -0.232,-0.914 -1.943,-0.99c-1.711,-0.076 -2.091,-0.076 -2.091,-0.076l-1.371,-0.076c0,0 -0.688,1.178 -1.904,0.246c-1.217,-0.931 -1.894,-0.947 -1.894,-0.947l-1.553,-0.776l-1.005,-0.503l-6.281,0.381c0,0 1.752,-1.066 -0.761,-0.152c-2.512,0.913 -2.513,1.37 -4.606,1.522c-2.093,0.153 -2.778,-0.076 -2.778,-0.076c0,0 0.532,0.531 -1.18,-0.153c-1.713,-0.684 -1.409,-0.684 -1.409,-0.684c0,0 -1.826,-0.381 -2.816,-0.837c-0.989,-0.457 -1.727,-0.047 -1.727,-0.047l-1.615,-0.015l-0.913,0.457l-1.835,-0.243c0,0 -1.141,-0.457 -1.827,0.837c-0.685,1.294 0,3.806 0,3.806c0,0 0.381,0 -1.065,0.305c-1.447,0.304 -2.916,0.501 -2.916,0.501l-1.385,-0.692c0,0 1.361,1.849 -0.595,0.297c-1.956,-1.552 -1.948,-1.569 -1.948,-1.569l-1.835,0.854l-0.989,1.37c0,0 0.473,0.348 -1.667,0.897c-2.14,0.55 -2.901,1.615 -2.901,1.615l-0.798,1.011Z" style="fill:#194b49;"/><path d="M59.721,5.393l-1.445,0c0,0 -0.964,-0.311 -2.29,-0.869c-1.326,-0.558 -3.419,-1.32 -3.419,-1.32l-4.473,0.952c0,0 -2.926,1 -5.174,0.833c-2.248,-0.167 -6.054,-0.167 -6.054,-0.167l-0.857,0l-1.178,-0.454c0,0 -3.484,-2.972 -3.675,-1.164c-0.19,1.808 0.782,2.611 0.782,2.611l-4.417,1.196l-3.597,0.38l-1.769,0.762l-5.367,1.332l-1.047,0.285c0,0 3.447,2.423 4.626,1.83c1.178,-0.593 2.209,-0.911 3.311,-1.656c1.103,-0.745 3.843,-1.125 3.843,-1.125l2.133,-1.863c0,0 1.445,0.435 3.234,0.435c1.789,0 0.742,-0.666 1.979,0c1.237,0.666 1.73,1.461 1.73,1.461l1.657,1.204c0,0 -2.417,4.187 0,4.472c2.418,0.285 0.801,2.187 2.847,0.285c2.045,-1.903 2.52,-4.107 2.52,-4.107c0,0 -0.697,-1.095 1.936,-0.968c2.632,0.127 3.431,0.127 3.431,0.127l2.496,-0.594l0.512,-1.594l0.145,-1.231c0,0 1.622,0.565 2.213,0.279c0.591,-0.285 3.578,0.403 3.578,0.403l2.827,0.376l2.941,0.839l1.387,0.856l1.434,0.79l1.366,0.542l1.522,0.381l1.045,-1.998c0,0 2.757,0.597 0,-0.891c-2.758,-1.488 -3.943,-1.972 -3.943,-1.972l-6.79,-0.658Z" style="fill:#9b9a87;"/><clipPath id="_clip6"><path d="M59.721,5.393l-1.445,0c0,0 -0.964,-0.311 -2.29,-0.869c-1.326,-0.558 -3.419,-1.32 -3.419,-1.32l-4.473,0.952c0,0 -2.926,1 -5.174,0.833c-2.248,-0.167 -6.054,-0.167 -6.054,-0.167l-0.857,0l-1.178,-0.454c0,0 -3.484,-2.972 -3.675,-1.164c-0.19,1.808 0.782,2.611 0.782,2.611l-4.417,1.196l-3.597,0.38l-1.769,0.762l-5.367,1.332l-1.047,0.285c0,0 3.447,2.423 4.626,1.83c1.178,-0.593 2.209,-0.911 3.311,-1.656c1.103,-0.745 3.843,-1.125 3.843,-1.125l2.133,-1.863c0,0 1.445,0.435 3.234,0.435c1.789,0 0.742,-0.666 1.979,0c1.237,0.666 1.73,1.461 1.73,1.461l1.657,1.204c0,0 -2.417,4.187 0,4.472c2.418,0.285 0.801,2.187 2.847,0.285c2.045,-1.903 2.52,-4.107 2.52,-4.107c0,0 -0.697,-1.095 1.936,-0.968c2.632,0.127 3.431,0.127 3.431,0.127l2.496,-0.594l0.512,-1.594l0.145,-1.231c0,0 1.622,0.565 2.213,0.279c0.591,-0.285 3.578,0.403 3.578,0.403l2.827,0.376l2.941,0.839l1.387,0.856l1.434,0.79l1.366,0.542l1.522,0.381l1.045,-1.998c0,0 2.757,0.597 0,-0.891c-2.758,-1.488 -3.943,-1.972 -3.943,-1.972l-6.79,-0.658Z"/></clipPath><g clip-path="url(#_clip6)"><path d="M65.087,-3.315l-14.357,3.431l-7.109,15.212l37.566,0.745l-16.1,-19.388Z" style="fill:#95c759;fill-opacity:0.5;"/></g><path d="M8.985,18.429l-4.11,0.917l-4.186,3.365l0,4.095c0,0 1.698,1.361 3.76,3.486c2.062,2.125 -1.745,1.079 2.442,2.506c4.187,1.427 7.584,1.371 8.55,2.731c0.966,1.361 1.251,2.217 2.488,3.264c1.238,1.047 2.266,0.952 4.226,2.379c1.96,1.427 0.913,1.142 2.911,2.093c1.999,0.952 -1.46,2.028 3.742,1.68c5.203,-0.347 5.555,-1.243 6.569,-0.795c1.013,0.448 -1.147,0.77 1.218,0.609c2.364,-0.161 2.133,0.804 3.153,0.083c1.019,-0.72 1.588,-0.679 3.873,-1.936c2.285,-1.258 1.292,-0.959 3.549,-1.775c2.256,-0.816 3.73,-1.865 3.73,-1.865c0,0 7.947,-1.234 9.66,-1.52c1.712,-0.285 1.987,1.311 5.466,-0.676c3.478,-1.988 7.514,-5.111 8.303,-5.643c0.79,-0.532 -1.137,-0.247 1.491,-0.818c2.629,-0.57 3.632,0.329 5.367,-1.12c1.735,-1.449 3.87,-2.104 4.325,-3.204c0.455,-1.099 1.042,-2.717 1.042,-2.717c0,0 -0.704,-0.424 -0.979,-1.639c-0.275,-1.216 -1.347,-4.693 -1.347,-4.693l-0.779,-2.716l-0.718,-3.322l-0.761,-0.286l-1.903,0l-1.808,-0.571l0.829,0.262l2.099,1.832l-0.666,1.288l0.666,2.613l-2.169,1.336l-0.342,-0.172l-0.082,2.552c0,0 -1.501,2.018 -2.774,1.387c-1.272,-0.631 -1.575,-0.787 -1.575,-0.787c0,0 1.811,-0.823 0.01,1.57c-1.801,2.393 -1.424,3.344 -3.801,4.867c-2.377,1.522 -0.173,0.666 -5.367,2.474c-5.193,1.808 -6.811,2.474 -6.811,2.474l-1.047,0.476l-0.666,-0.476c0,0 -0.421,-1.047 -2.209,-1.142c-1.787,-0.095 -2.665,-0.19 -5.366,-0.476c-2.702,-0.285 -3.558,-0.285 -3.558,-0.285c0,0 0.279,-1.154 -0.384,1.326c-0.663,2.48 -0.187,3.241 -0.187,3.241c0,0 -4.174,-1.116 -5.18,-0.558c-1.005,0.558 -3.652,1.7 -1.425,-1.25c2.228,-2.95 9.079,-3.711 1.942,-3.33c-7.137,0.38 -6.623,0.38 -7.308,1.617c-0.685,1.237 -2.663,2.324 -2.663,2.324l-1.561,0.78l-0.466,0.91c0,0 -0.41,-0.112 -0.677,-1.825c-0.266,-1.713 1.218,-1.522 0,-2.569c-1.218,-1.047 -2.955,-1.188 -2.087,-2.354c0.869,-1.167 2.963,-2.119 0.869,-2.499c-2.093,-0.381 -5.711,0.187 -5.662,1.616c0.048,1.429 0.048,2.19 0.048,2.19l-2.235,0.569l-1.666,-0.833c0,0 -4.473,1.977 -0.762,-1.639c3.711,-3.616 7.867,-5.583 4.79,-5.741c-3.077,-0.159 -3.172,-2.728 -4.885,0.698c-1.713,3.425 -1.969,5.269 -1.969,5.269l-0.989,-0.495l-1.551,0.459l-1.53,-0.469l-0.954,-2.007l-1.598,-0.799l1.645,-6.336Z" style="fill:#194b49;"/><clipPath id="_clip7"><path d="M8.985,18.429l-4.11,0.917l-4.186,3.365l0,4.095c0,0 1.698,1.361 3.76,3.486c2.062,2.125 -1.745,1.079 2.442,2.506c4.187,1.427 7.584,1.371 8.55,2.731c0.966,1.361 1.251,2.217 2.488,3.264c1.238,1.047 2.266,0.952 4.226,2.379c1.96,1.427 0.913,1.142 2.911,2.093c1.999,0.952 -1.46,2.028 3.742,1.68c5.203,-0.347 5.555,-1.243 6.569,-0.795c1.013,0.448 -1.147,0.77 1.218,0.609c2.364,-0.161 2.133,0.804 3.153,0.083c1.019,-0.72 1.588,-0.679 3.873,-1.936c2.285,-1.258 1.292,-0.959 3.549,-1.775c2.256,-0.816 3.73,-1.865 3.73,-1.865c0,0 7.947,-1.234 9.66,-1.52c1.712,-0.285 1.987,1.311 5.466,-0.676c3.478,-1.988 7.514,-5.111 8.303,-5.643c0.79,-0.532 -1.137,-0.247 1.491,-0.818c2.629,-0.57 3.632,0.329 5.367,-1.12c1.735,-1.449 3.87,-2.104 4.325,-3.204c0.455,-1.099 1.042,-2.717 1.042,-2.717c0,0 -0.704,-0.424 -0.979,-1.639c-0.275,-1.216 -1.347,-4.693 -1.347,-4.693l-0.779,-2.716l-0.718,-3.322l-0.761,-0.286l-1.903,0l-1.808,-0.571l0.829,0.262l2.099,1.832l-0.666,1.288l0.666,2.613l-2.169,1.336l-0.342,-0.172l-0.082,2.552c0,0 -1.501,2.018 -2.774,1.387c-1.272,-0.631 -1.575,-0.787 -1.575,-0.787c0,0 1.811,-0.823 0.01,1.57c-1.801,2.393 -1.424,3.344 -3.801,4.867c-2.377,1.522 -0.173,0.666 -5.367,2.474c-5.193,1.808 -6.811,2.474 -6.811,2.474l-1.047,0.476l-0.666,-0.476c0,0 -0.421,-1.047 -2.209,-1.142c-1.787,-0.095 -2.665,-0.19 -5.366,-0.476c-2.702,-0.285 -3.558,-0.285 -3.558,-0.285c0,0 0.279,-1.154 -0.384,1.326c-0.663,2.48 -0.187,3.241 -0.187,3.241c0,0 -4.174,-1.116 -5.18,-0.558c-1.005,0.558 -3.652,1.7 -1.425,-1.25c2.228,-2.95 9.079,-3.711 1.942,-3.33c-7.137,0.38 -6.623,0.38 -7.308,1.617c-0.685,1.237 -2.663,2.324 -2.663,2.324l-1.561,0.78l-0.466,0.91c0,0 -0.41,-0.112 -0.677,-1.825c-0.266,-1.713 1.218,-1.522 0,-2.569c-1.218,-1.047 -2.955,-1.188 -2.087,-2.354c0.869,-1.167 2.963,-2.119 0.869,-2.499c-2.093,-0.381 -5.711,0.187 -5.662,1.616c0.048,1.429 0.048,2.19 0.048,2.19l-2.235,0.569l-1.666,-0.833c0,0 -4.473,1.977 -0.762,-1.639c3.711,-3.616 7.867,-5.583 4.79,-5.741c-3.077,-0.159 -3.172,-2.728 -4.885,0.698c-1.713,3.425 -1.969,5.269 -1.969,5.269l-0.989,-0.495l-1.551,0.459l-1.53,-0.469l-0.954,-2.007l-1.598,-0.799l1.645,-6.336Z"/></clipPath><g clip-path="url(#_clip7)"><path d="M72.844,2.567l19.076,18.724l-7.25,12.712l-34.196,8.672l4.698,-20.827l17.672,-19.281Z" style="fill:#95c759;fill-opacity:0.5;"/><path d="M89.479,19.977l-5.229,0.31l-0.615,1.229l-1.578,2.172c0,0 -1.372,2.11 -2.418,2.871c-1.047,0.762 -3.069,0.762 -3.819,1.904c-0.749,1.141 -1.7,1.141 -2.938,1.141c-1.237,0 -1.391,0.404 -1.391,0.404c0,0 1.582,-0.213 -2.605,2.07c-4.187,2.284 -5.519,2.475 -5.519,2.475c0,0 -3.997,-0.096 -6.09,0c-2.094,0.095 -3.997,0.38 -5.139,0.761c-1.142,0.38 -1.163,0.38 -3.15,0.856c-1.988,0.476 -0.874,1.371 -6.379,1.875c-5.505,0.504 -6.517,0.624 -8.152,0.278c-1.635,-0.345 -6.936,-0.725 -6.936,-0.725l-3.327,-1.079l-0.495,0.248l-0.852,-4.941l-6.059,3.03l0,-2.207l-5.366,-0.477l0,-1.426l-5.367,-1.257l0,-4.262c0,0 -1.897,-0.527 -0.983,-1.596c0.915,-1.068 0.983,-11.06 0.983,-11.06l-7.68,11.229l10.752,21.41l25.047,2.419l21.961,-2.419l19.685,-3.616l9.198,-8.654l4.461,-12.963" style="fill:#9b9a87;"/><clipPath id="_clip8"><path d="M89.479,19.977l-5.229,0.31l-0.615,1.229l-1.578,2.172c0,0 -1.372,2.11 -2.418,2.871c-1.047,0.762 -3.069,0.762 -3.819,1.904c-0.749,1.141 -1.7,1.141 -2.938,1.141c-1.237,0 -1.391,0.404 -1.391,0.404c0,0 1.582,-0.213 -2.605,2.07c-4.187,2.284 -5.519,2.475 -5.519,2.475c0,0 -3.997,-0.096 -6.09,0c-2.094,0.095 -3.997,0.38 -5.139,0.761c-1.142,0.38 -1.163,0.38 -3.15,0.856c-1.988,0.476 -0.874,1.371 -6.379,1.875c-5.505,0.504 -6.517,0.624 -8.152,0.278c-1.635,-0.345 -6.936,-0.725 -6.936,-0.725l-3.327,-1.079l-0.495,0.248l-0.852,-4.941l-6.059,3.03l0,-2.207l-5.366,-0.477l0,-1.426l-5.367,-1.257l0,-4.262c0,0 -1.897,-0.527 -0.983,-1.596c0.915,-1.068 0.983,-11.06 0.983,-11.06l-7.68,11.229l10.752,21.41l25.047,2.419l21.961,-2.419l19.685,-3.616l9.198,-8.654l4.461,-12.963"/></clipPath><g clip-path="url(#_clip8)"><path d="M72.844,2.567l19.076,18.724l-7.25,12.712l-34.196,8.672l4.698,-20.827l17.672,-19.281Z" style="fill:#95c759;fill-opacity:0.5;"/></g><path d="M14.997,2.665l17.891,20.991l-8.036,22.074l-28.028,-15.49l0.533,-9.245l17.64,-18.33Z" style="fill:#191919;fill-opacity:0.5;"/></g></g></g></svg>