<?xml version="1.0" encoding="UTF-8" standalone="no"?><!DOCTYPE svg PUBLIC "-//W3C//DTD SVG 1.1//EN" "http://www.w3.org/Graphics/SVG/1.1/DTD/svg11.dtd"><svg width="100%" height="100%" viewBox="0 0 67 44" version="1.1" xmlns="http://www.w3.org/2000/svg" xmlns:xlink="http://www.w3.org/1999/xlink" xml:space="preserve" xmlns:serif="http://www.serif.com/" style="fill-rule:evenodd;clip-rule:evenodd;stroke-linejoin:round;stroke-miterlimit:1.41421;"><g id="rock-highlights01"><g><g><path d="M39.211,6.608l20.571,4.92l-10.733,10.733l-32.2,5.366l-10.733,-26.833l33.095,5.814Z" style="fill:#95d767;"/><path d="M59.782,11.528l6.372,8.552l-1.005,15.597l-16.1,-13.416l10.733,-10.733Z" style="fill:#95d767;"/><path d="M49.049,22.261l16.1,13.416l-59.033,8.05l10.733,-16.1l32.2,-5.366" style="fill:#4c805b;"/><clipPath id="_clip1"><path d="M49.049,22.261l16.1,13.416l-59.033,8.05l10.733,-16.1l32.2,-5.366"/></clipPath><g clip-path="url(#_clip1)"><path d="M65.149,35.677l-16.1,-11.22l-30.458,4.762l-12.475,14.508l9.077,-16.928l-9.077,-26.005l53.666,16.1l5.367,18.783" style="fill:#95d767;"/></g><path d="M6.116,0.794l-5.366,8.05l5.366,34.883l10.733,-16.1l-10.733,-26.833" style="fill:#194b49;"/><clipPath id="_clip2"><path d="M6.116,0.794l-5.366,8.05l5.366,34.883l10.733,-16.1l-10.733,-26.833"/></clipPath><g clip-path="url(#_clip2)"><path d="M65.149,35.677l-16.1,-11.22l-30.458,4.762l-12.475,14.508l9.077,-16.928l-9.077,-26.005l53.666,16.1l5.367,18.783" style="fill:#95d767;"/></g></g></g></g></svg>