<?xml version="1.0" encoding="UTF-8" standalone="no"?><!DOCTYPE svg PUBLIC "-//W3C//DTD SVG 1.1//EN" "http://www.w3.org/Graphics/SVG/1.1/DTD/svg11.dtd"><svg width="100%" height="100%" viewBox="0 0 68 57" version="1.1" xmlns="http://www.w3.org/2000/svg" xmlns:xlink="http://www.w3.org/1999/xlink" xml:space="preserve" xmlns:serif="http://www.serif.com/" style="fill-rule:evenodd;clip-rule:evenodd;stroke-linejoin:round;stroke-miterlimit:1.41421;"><g id="rock-runes09"><g><path d="M24.473,1.214l14.694,4.408l-5.878,14.695l-17.633,2.938l-5.877,-14.694l14.694,-7.347Z" style="fill:#4c805b;"/><path d="M39.167,5.622l11.755,11.756l0,11.755l-17.633,-8.816l5.878,-14.695" style="fill:#95d767;"/><path d="M33.289,20.317l17.633,8.816l-17.633,8.817l-23.51,0l5.877,-14.695l17.633,-2.938Z" style="fill:#3f673c;"/><path d="M9.779,8.561l5.877,14.694l-5.877,14.695l-8.817,-19.103l8.817,-10.286Z" style="fill:#194b49;"/></g><g><path d="M50.922,9.255l16.1,21.092l-8.05,12.075l-10.665,-34.917l2.615,1.75Z" style="fill:#95d767;"/><path d="M48.602,7.358l-5.729,2.864l0,36.225l16.099,-4.025l-10.37,-35.064Z" style="fill:#4c805b;"/><path d="M50.922,9.258l-8.049,-7.085l-8.05,4.024l8.05,4.025l8.049,-0.964Z" style="fill:#95d767;"/><path d="M34.823,6.197l8.05,4.025l0,36.225l-16.1,-4.025l8.05,-36.225Z" style="fill:#3f673c;"/></g><g><path d="M27.348,15.876l10.733,5.367l0,10.733l-5.367,2.683l-10.733,-10.733l5.367,-8.05Z" style="fill:#95d767;"/><path d="M38.081,31.976l10.733,16.1l-16.1,8.05l-10.733,-5.367l10.733,-16.1l5.367,-2.683Z" style="fill:#4c805b;"/><path d="M32.714,34.659l-10.733,16.1l-5.366,-8.05l5.366,-18.783l10.733,10.733Z" style="fill:#3f673c;"/><path d="M38.081,21.243l10.733,26.833l-10.733,-16.1l0,-10.733Z" style="fill:#95d767;"/></g><path d="M47.191,48.887l-9.11,-11.911l2.346,6.54l-7.713,1.51l-5.366,-2.683l-4.295,-13.952l3.011,15.928l6.65,2.441l7.994,-1.651l-0.359,2.368l-7.635,2.916l-7.296,-0.116l7.296,1.795l7.72,-3.186l2.212,-1.696l0.802,3.203l3.743,-1.506Z" style="fill:#090705;fill-opacity:0.5;"/><path d="M32.714,23.56l0,-2.643l-4.569,-2.01l-0.797,7.336l5.966,4.365l2.854,-3.408l-1.993,-0.612l-0.764,1.99l-3.84,-3.446l-0.018,-3.153l1.823,0.159l0.463,1.859l0.875,-0.437Z" style="fill:#090705;fill-opacity:0.5;"/><path d="M59.547,20.876l-5.366,3.2l-10.733,-3.517l-8.948,-12.206l-1.786,7.54l10.734,8.183l2.551,0.759l2.815,13.454l2.688,2.71l-0.809,-3.084l-1.879,-11.672l5.367,0.489l5.366,-5.856Z" style="fill:#090705;fill-opacity:0.5;"/><path d="M24.494,0.837l-1.015,9.026l-13.83,-1.603l1.599,2.967l11.442,-0.431l-9.763,4.594l-5.814,-3.446l-2.225,2.154l8.542,3.876l9.655,-4.595l4.263,-3.236l-1.284,-8.32l-1.57,-0.986Z" style="fill:#090705;fill-opacity:0.5;"/><path d="M6.693,31.204l8.057,-5.893l5.604,4.429l-1.031,3.224l-5.606,-4.15l-4.878,6.683l-2.146,-4.293" style="fill:#090705;fill-opacity:0.5;"/></g></svg>