<?xml version="1.0" encoding="UTF-8" standalone="no"?><!DOCTYPE svg PUBLIC "-//W3C//DTD SVG 1.1//EN" "http://www.w3.org/Graphics/SVG/1.1/DTD/svg11.dtd"><svg width="100%" height="100%" viewBox="0 0 67 63" version="1.1" xmlns="http://www.w3.org/2000/svg" xmlns:xlink="http://www.w3.org/1999/xlink" xml:space="preserve" xmlns:serif="http://www.serif.com/" style="fill-rule:evenodd;clip-rule:evenodd;stroke-linejoin:round;stroke-miterlimit:1.41421;"><g id="rock-mossy11"><g id="rock-highlights11"><g><g><path d="M40.846,10.173l21.467,28.123l-10.733,16.1l-14.221,-46.556l3.487,2.333Z" style="fill:#95d767;"/><clipPath id="_clip1"><path d="M40.846,10.173l21.467,28.123l-10.733,16.1l-14.221,-46.556l3.487,2.333Z"/></clipPath><g clip-path="url(#_clip1)"><path d="M51.58,54.396l-14.412,-41.094l-4.956,0.53l-2.099,45.93l-3.255,-46.671l-6.511,-5.033l-11.7,46.338l10.733,-48.299l19.476,3.068l12.724,45.231" style="fill:#95d767;"/></g><path d="M37.753,7.643l-7.64,3.82l0,48.299l21.467,-5.366l-13.827,-46.753Z" style="fill:#4c805b;"/><clipPath id="_clip2"><path d="M37.753,7.643l-7.64,3.82l0,48.299l21.467,-5.366l-13.827,-46.753Z"/></clipPath><g clip-path="url(#_clip2)"><path d="M51.58,54.396l-14.412,-41.094l-4.956,0.53l-2.099,45.93l-3.255,-46.671l-6.511,-5.033l-11.7,46.338l10.733,-48.299l19.476,3.068l12.724,45.231" style="fill:#95d767;"/></g><path d="M40.846,10.178l-10.733,-9.448l-10.733,5.367l10.733,5.366l10.733,-1.285Z" style="fill:#95d767;"/><clipPath id="_clip3"><path d="M40.846,10.178l-10.733,-9.448l-10.733,5.367l10.733,5.366l10.733,-1.285Z"/></clipPath><g clip-path="url(#_clip3)"><path d="M51.58,54.396l-14.412,-41.094l-4.956,0.53l-2.099,45.93l-3.255,-46.671l-6.511,-5.033l-11.7,46.338l10.733,-48.299l19.476,3.068l12.724,45.231" style="fill:#95d767;"/></g><path d="M19.38,6.097l10.733,5.366l0,48.299l-21.466,-5.366l10.733,-48.299Z" style="fill:#3f673c;"/><clipPath id="_clip4"><path d="M19.38,6.097l10.733,5.366l0,48.299l-21.466,-5.366l10.733,-48.299Z"/></clipPath><g clip-path="url(#_clip4)"><path d="M51.58,54.396l-14.412,-41.094l-4.956,0.53l-2.099,45.93l-3.255,-46.671l-6.511,-5.033l-11.7,46.338l10.733,-48.299l19.476,3.068l12.724,45.231" style="fill:#95d767;"/></g></g></g></g><path d="M56.788,31.058l7.934,-1.399l1.833,12.773l-4.242,2.122l-1.283,6.008l-7.944,10.844l-9.14,-2.303l-11.612,2.66l-9.328,0.703l-8.992,-1.769l-10.734,-2.727l0,-5.367l-2.839,-6.786l8.206,-4.412l1.678,2.31l0.158,1.756l-0.675,5.03c0,0 6.533,-0.218 6.098,-4.211c-0.435,-3.992 3.257,-4.438 3.474,-2.654c0.217,1.784 -1.889,1.115 0,2.564c1.89,1.45 2.598,2.421 2.598,2.421l0.518,1.482l0.432,1.591l4.326,2.163c0,0 -3.159,0.632 0,0c3.159,-0.631 0.886,0.93 2.859,-0.854c1.973,-1.784 1.75,-0.669 2.642,-2.788c0.892,-2.119 1.435,-2.611 2.725,-2.978c1.29,-0.367 5.094,2.532 5.366,-0.59c0.273,-3.123 -0.829,-1.339 0,-3.346c0.83,-2.007 1.053,-2.342 1.053,-2.342l1.034,-0.729c0,0 -0.085,-1.499 0.277,-2.225c0.362,-0.725 0.5,-0.89 -0.182,-3.094c-0.683,-2.203 -0.794,-1.423 -0.906,-3.096c-0.111,-1.672 0.417,-0.165 0.153,-2.647c-0.264,-2.482 -1.812,-2.259 -1.429,-5.047c0.384,-2.788 0,-3.903 0,-3.903l2.726,5.464c0,0 -0.781,-1.003 1.45,2.454c2.23,3.456 2.732,4.127 3.763,7.081c1.032,2.955 0.878,5.965 2.795,6.858c1.916,0.892 2.614,1.171 2.614,1.171l0.565,-2.469l2.187,-0.598l0,-2.007l0.807,-1.265l0.847,0.424l2.256,-1.278l-4.068,-4.995Z" style="fill:#194b49;"/><clipPath id="_clip5"><path d="M56.788,31.058l7.934,-1.399l1.833,12.773l-4.242,2.122l-1.283,6.008l-7.944,10.844l-9.14,-2.303l-11.612,2.66l-9.328,0.703l-8.992,-1.769l-10.734,-2.727l0,-5.367l-2.839,-6.786l8.206,-4.412l1.678,2.31l0.158,1.756l-0.675,5.03c0,0 6.533,-0.218 6.098,-4.211c-0.435,-3.992 3.257,-4.438 3.474,-2.654c0.217,1.784 -1.889,1.115 0,2.564c1.89,1.45 2.598,2.421 2.598,2.421l0.518,1.482l0.432,1.591l4.326,2.163c0,0 -3.159,0.632 0,0c3.159,-0.631 0.886,0.93 2.859,-0.854c1.973,-1.784 1.75,-0.669 2.642,-2.788c0.892,-2.119 1.435,-2.611 2.725,-2.978c1.29,-0.367 5.094,2.532 5.366,-0.59c0.273,-3.123 -0.829,-1.339 0,-3.346c0.83,-2.007 1.053,-2.342 1.053,-2.342l1.034,-0.729c0,0 -0.085,-1.499 0.277,-2.225c0.362,-0.725 0.5,-0.89 -0.182,-3.094c-0.683,-2.203 -0.794,-1.423 -0.906,-3.096c-0.111,-1.672 0.417,-0.165 0.153,-2.647c-0.264,-2.482 -1.812,-2.259 -1.429,-5.047c0.384,-2.788 0,-3.903 0,-3.903l2.726,5.464c0,0 -0.781,-1.003 1.45,2.454c2.23,3.456 2.732,4.127 3.763,7.081c1.032,2.955 0.878,5.965 2.795,6.858c1.916,0.892 2.614,1.171 2.614,1.171l0.565,-2.469l2.187,-0.598l0,-2.007l0.807,-1.265l0.847,0.424l2.256,-1.278l-4.068,-4.995Z"/></clipPath><g clip-path="url(#_clip5)"><path d="M59.315,19.22l-18.469,-1.499l0,17.74l3.044,7.571l4.745,10.782l-2.422,0.74l-1.858,4.345l19.189,6.505l9.502,-31.584l-13.731,-14.6Z" style="fill:#95c759;fill-opacity:0.5;"/><path d="M68.997,30.478l-5.465,6.244l-1.219,3.68l-1.934,3.185l-1.567,4.583l-1.866,2.602l-4.23,-4.46c0,0 -3.218,-1.146 -4.341,-3.361c-1.123,-2.215 -3.201,-1.769 -2.162,-3.553c1.039,-1.784 1.373,-5.575 1.373,-5.575l-2.947,-3.473l-0.636,10.415c0,0 0.391,0.194 2.21,3.874c1.819,3.68 3.515,4.173 3.838,6.045c0.323,1.873 -1.42,3.545 -3.838,3.657c-2.418,0.111 -2.517,0.888 -5.367,0.946c-2.85,0.057 -7.481,1.626 -7.481,1.626c0,0 1.689,-0.676 -3.252,-0.23c-4.941,0.446 -4.482,0.916 -6.83,2.019c-2.348,1.103 -3.903,1.951 -3.903,1.951c0,0 -4.421,-1.203 -4.221,-3.256c0.2,-2.053 0.626,-3.908 0.626,-3.908c0,0 -0.481,-2.38 1.108,-2.325c1.589,0.055 -6.217,1.393 -6.217,1.393l-0.823,-2.034l-1.206,4.764l-2.688,-4.023l1.842,-1.767l0.846,-2.516l-0.954,-1.951l-1.812,-0.391l-7.967,-0.085l-1.846,8.783c0,0 2.577,3.704 4.188,6.145c1.61,2.442 5.386,5.341 13.758,7.571c8.371,2.23 39.695,-3.142 41.54,-3.021c1.845,0.122 10.484,-12.249 10.484,-12.249l7.008,-15.507l0,-9.702l-8.586,-2.413l-7.514,2.748l2.461,4.46l2.906,1.004l2.58,0.157l2.786,-3.948l1.318,1.896Z" style="fill:#9b9a87;"/><clipPath id="_clip6"><path d="M68.997,30.478l-5.465,6.244l-1.219,3.68l-1.934,3.185l-1.567,4.583l-1.866,2.602l-4.23,-4.46c0,0 -3.218,-1.146 -4.341,-3.361c-1.123,-2.215 -3.201,-1.769 -2.162,-3.553c1.039,-1.784 1.373,-5.575 1.373,-5.575l-2.947,-3.473l-0.636,10.415c0,0 0.391,0.194 2.21,3.874c1.819,3.68 3.515,4.173 3.838,6.045c0.323,1.873 -1.42,3.545 -3.838,3.657c-2.418,0.111 -2.517,0.888 -5.367,0.946c-2.85,0.057 -7.481,1.626 -7.481,1.626c0,0 1.689,-0.676 -3.252,-0.23c-4.941,0.446 -4.482,0.916 -6.83,2.019c-2.348,1.103 -3.903,1.951 -3.903,1.951c0,0 -4.421,-1.203 -4.221,-3.256c0.2,-2.053 0.626,-3.908 0.626,-3.908c0,0 -0.481,-2.38 1.108,-2.325c1.589,0.055 -6.217,1.393 -6.217,1.393l-0.823,-2.034l-1.206,4.764l-2.688,-4.023l1.842,-1.767l0.846,-2.516l-0.954,-1.951l-1.812,-0.391l-7.967,-0.085l-1.846,8.783c0,0 2.577,3.704 4.188,6.145c1.61,2.442 5.386,5.341 13.758,7.571c8.371,2.23 39.695,-3.142 41.54,-3.021c1.845,0.122 10.484,-12.249 10.484,-12.249l7.008,-15.507l0,-9.702l-8.586,-2.413l-7.514,2.748l2.461,4.46l2.906,1.004l2.58,0.157l2.786,-3.948l1.318,1.896Z"/></clipPath><g clip-path="url(#_clip6)"><path d="M59.315,19.22l-18.469,-1.499l0,17.74l3.044,7.571l4.745,10.782l-2.422,0.74l-1.858,4.345l19.189,6.505l9.502,-31.584l-13.731,-14.6Z" style="fill:#95c759;fill-opacity:0.5;"/></g><path d="M10.377,27.589l19.736,18.958l-16.099,16.789l-18.465,-1.5c-0.067,-9.756 2.243,-18.945 10.445,-26.689l4.383,-7.558Z" style="fill:#191919;fill-opacity:0.5;"/></g></g></svg>