<?xml version="1.0" encoding="UTF-8" standalone="no"?><!DOCTYPE svg PUBLIC "-//W3C//DTD SVG 1.1//EN" "http://www.w3.org/Graphics/SVG/1.1/DTD/svg11.dtd"><svg width="100%" height="100%" viewBox="0 0 145 88" version="1.1" xmlns="http://www.w3.org/2000/svg" xmlns:xlink="http://www.w3.org/1999/xlink" xml:space="preserve" xmlns:serif="http://www.serif.com/" style="fill-rule:evenodd;clip-rule:evenodd;stroke-linejoin:round;stroke-miterlimit:1.41421;"><g id="rock-mossy07"><g id="rock-highlights07"><g><g><path d="M99.31,11.595l32.199,16.1l-21.466,32.199l-42.933,10.733l-42.932,-32.199l21.466,-32.2l42.932,-5.366l10.734,10.733Z" style="fill:#95d767;"/><clipPath id="_clip1"><path d="M99.31,11.595l32.199,16.1l-21.466,32.199l-42.933,10.733l-42.932,-32.199l21.466,-32.2l42.932,-5.366l10.734,10.733Z"/></clipPath><g clip-path="url(#_clip1)"><path d="M104.676,51.844l-21.466,-24.152l-7.97,4.068l7.97,25.451l-12.445,-25.977l-7.231,-3.182l-7.157,26.476l3.567,-28.617l-5.192,-13.503l4.705,-4.64l2.287,17.243l10.733,3.521l8.401,-4.687l2.332,-20.3l28.324,48.627l25.341,26.505l-26.832,-14.985l-39.976,8.414l-13.69,14.621l7.575,-14.521l-39.774,-33.778l10.733,6.304l35.823,15.84c0,0 25.32,-2.4 26.88,-2.64c1.56,-0.24 7.062,-6.088 7.062,-6.088Z" style="fill:#95d767;"/></g><path d="M131.509,27.695l10.733,16.099l-5.367,34.883l-26.832,-18.783l21.466,-32.199Z" style="fill:#95d767;"/><clipPath id="_clip2"><path d="M131.509,27.695l10.733,16.099l-5.367,34.883l-26.832,-18.783l21.466,-32.199Z"/></clipPath><g clip-path="url(#_clip2)"><path d="M104.676,51.844l-21.466,-24.152l-7.97,4.068l7.97,25.451l-12.445,-25.977l-7.231,-3.182l-7.157,26.476l3.567,-28.617l-5.192,-13.503l4.705,-4.64l2.287,17.243l10.733,3.521l8.401,-4.687l2.332,-20.3l28.324,48.627l25.341,26.505l-26.832,-14.985l-39.976,8.414l-13.69,14.621l7.575,-14.521l-39.774,-33.778l10.733,6.304l35.823,15.84c0,0 25.32,-2.4 26.88,-2.64c1.56,-0.24 7.062,-6.088 7.062,-6.088Z" style="fill:#95d767;"/></g><path d="M110.043,59.894l26.832,18.783l-80.498,8.05l10.733,-16.1l42.933,-10.733Z" style="fill:#4c805b;"/><clipPath id="_clip3"><path d="M110.043,59.894l26.832,18.783l-80.498,8.05l10.733,-16.1l42.933,-10.733Z"/></clipPath><g clip-path="url(#_clip3)"><path d="M104.676,51.844l-21.466,-24.152l-7.97,4.068l7.97,25.451l-12.445,-25.977l-7.231,-3.182l-7.157,26.476l3.567,-28.617l-5.192,-13.503l4.705,-4.64l2.287,17.243l10.733,3.521l8.401,-4.687l2.332,-20.3l28.324,48.627l25.341,26.505l-26.832,-14.985l-39.976,8.414l-13.69,14.621l7.575,-14.521l-39.774,-33.778l10.733,6.304l35.823,15.84c0,0 25.32,-2.4 26.88,-2.64c1.56,-0.24 7.062,-6.088 7.062,-6.088Z" style="fill:#95d767;"/></g><path d="M24.178,38.428l-21.467,42.932l53.666,5.367l10.733,-16.1l-42.932,-32.199Z" style="fill:#3f673c;"/><clipPath id="_clip4"><path d="M24.178,38.428l-21.467,42.932l53.666,5.367l10.733,-16.1l-42.932,-32.199Z"/></clipPath><g clip-path="url(#_clip4)"><path d="M104.676,51.844l-21.466,-24.152l-7.97,4.068l7.97,25.451l-12.445,-25.977l-7.231,-3.182l-7.157,26.476l3.567,-28.617l-5.192,-13.503l4.705,-4.64l2.287,17.243l10.733,3.521l8.401,-4.687l2.332,-20.3l28.324,48.627l25.341,26.505l-26.832,-14.985l-39.976,8.414l-13.69,14.621l7.575,-14.521l-39.774,-33.778l10.733,6.304l35.823,15.84c0,0 25.32,-2.4 26.88,-2.64c1.56,-0.24 7.062,-6.088 7.062,-6.088Z" style="fill:#95d767;"/></g><path d="M83.21,3.545l-26.833,8.05l5.367,13.416l10.733,5.367l10.733,-5.367l0,-21.466Z" style="fill:#4c805b;"/><clipPath id="_clip5"><path d="M83.21,3.545l-26.833,8.05l5.367,13.416l10.733,5.367l10.733,-5.367l0,-21.466Z"/></clipPath><g clip-path="url(#_clip5)"><path d="M104.676,51.844l-21.466,-24.152l-7.97,4.068l7.97,25.451l-12.445,-25.977l-7.231,-3.182l-7.157,26.476l3.567,-28.617l-5.192,-13.503l4.705,-4.64l2.287,17.243l10.733,3.521l8.401,-4.687l2.332,-20.3l28.324,48.627l25.341,26.505l-26.832,-14.985l-39.976,8.414l-13.69,14.621l7.575,-14.521l-39.774,-33.778l10.733,6.304l35.823,15.84c0,0 25.32,-2.4 26.88,-2.64c1.56,-0.24 7.062,-6.088 7.062,-6.088Z" style="fill:#95d767;"/></g><path d="M83.21,3.545l26.833,24.15l-5.367,24.149l-21.466,-26.833l0,-21.466Z" style="fill:#95d767;"/><clipPath id="_clip6"><path d="M83.21,3.545l26.833,24.15l-5.367,24.149l-21.466,-26.833l0,-21.466Z"/></clipPath><g clip-path="url(#_clip6)"><path d="M104.676,51.844l-21.466,-24.152l-7.97,4.068l7.97,25.451l-12.445,-25.977l-7.231,-3.182l-7.157,26.476l3.567,-28.617l-5.192,-13.503l4.705,-4.64l2.287,17.243l10.733,3.521l8.401,-4.687l2.332,-20.3l28.324,48.627l25.341,26.505l-26.832,-14.985l-39.976,8.414l-13.69,14.621l7.575,-14.521l-39.774,-33.778l10.733,6.304l35.823,15.84c0,0 25.32,-2.4 26.88,-2.64c1.56,-0.24 7.062,-6.088 7.062,-6.088Z" style="fill:#95d767;"/></g><path d="M83.21,25.011l21.466,26.833l-21.466,5.367l-10.733,-26.833l10.733,-5.367Z" style="fill:#4c805b;"/><clipPath id="_clip7"><path d="M83.21,25.011l21.466,26.833l-21.466,5.367l-10.733,-26.833l10.733,-5.367Z"/></clipPath><g clip-path="url(#_clip7)"><path d="M104.676,51.844l-21.466,-24.152l-7.97,4.068l7.97,25.451l-12.445,-25.977l-7.231,-3.182l-7.157,26.476l3.567,-28.617l-5.192,-13.503l4.705,-4.64l2.287,17.243l10.733,3.521l8.401,-4.687l2.332,-20.3l28.324,48.627l25.341,26.505l-26.832,-14.985l-39.976,8.414l-13.69,14.621l7.575,-14.521l-39.774,-33.778l10.733,6.304l35.823,15.84c0,0 25.32,-2.4 26.88,-2.64c1.56,-0.24 7.062,-6.088 7.062,-6.088Z" style="fill:#95d767;"/></g><path d="M72.477,30.378l10.733,26.833l-26.833,-2.683l5.367,-29.517l10.733,5.367Z" style="fill:#3f673c;"/><clipPath id="_clip8"><path d="M72.477,30.378l10.733,26.833l-26.833,-2.683l5.367,-29.517l10.733,5.367Z"/></clipPath><g clip-path="url(#_clip8)"><path d="M104.676,51.844l-21.466,-24.152l-7.97,4.068l7.97,25.451l-12.445,-25.977l-7.231,-3.182l-7.157,26.476l3.567,-28.617l-5.192,-13.503l4.705,-4.64l2.287,17.243l10.733,3.521l8.401,-4.687l2.332,-20.3l28.324,48.627l25.341,26.505l-26.832,-14.985l-39.976,8.414l-13.69,14.621l7.575,-14.521l-39.774,-33.778l10.733,6.304l35.823,15.84c0,0 25.32,-2.4 26.88,-2.64c1.56,-0.24 7.062,-6.088 7.062,-6.088Z" style="fill:#95d767;"/></g><path d="M56.377,11.595l-16.1,8.05l-5.366,24.149l21.466,10.734l5.367,-29.517l-5.367,-13.416Z" style="fill:#194b49;"/><clipPath id="_clip9"><path d="M56.377,11.595l-16.1,8.05l-5.366,24.149l21.466,10.734l5.367,-29.517l-5.367,-13.416Z"/></clipPath><g clip-path="url(#_clip9)"><path d="M104.676,51.844l-21.466,-24.152l-7.97,4.068l7.97,25.451l-12.445,-25.977l-7.231,-3.182l-7.157,26.476l3.567,-28.617l-5.192,-13.503l4.705,-4.64l2.287,17.243l10.733,3.521l8.401,-4.687l2.332,-20.3l28.324,48.627l25.341,26.505l-26.832,-14.985l-39.976,8.414l-13.69,14.621l7.575,-14.521l-39.774,-33.778l10.733,6.304l35.823,15.84c0,0 25.32,-2.4 26.88,-2.64c1.56,-0.24 7.062,-6.088 7.062,-6.088Z" style="fill:#95d767;"/></g></g></g></g><path d="M99.179,17.918l7.856,1.439l8.374,4.957l3.917,6.78l-3.917,12.251l-1.949,3.049l-3.417,6.348l-6.496,4.795c0,0 -3.439,1.271 -4.237,1.271c-0.799,0 2.317,-1.293 -5.367,-0.706c-7.684,0.587 -7.53,-0.197 -9.867,0.433c-2.337,0.63 -6.738,1.343 -8.284,1.225c-1.546,-0.119 -7.1,0.165 -10.33,0.201c-3.23,0.036 -9.085,-2.461 -9.085,-2.461l-5.367,-5.829l5.367,2.26l26.833,2.379l6.499,-2.974c0,0 -0.966,0.98 2.372,-1.532c3.337,-2.512 3.049,-1.816 5.096,-2.818c2.047,-1.002 5.889,-0.812 5.889,-0.812l1.61,-2.807c0,0 -1.705,-1.546 -1.853,-2.438c-0.149,-0.892 0.075,-1.816 0.075,-1.816c0,0 0.443,-0.359 -0.366,-3.405c-0.81,-3.046 -1.761,-4.592 -0.929,-6.139c0.833,-1.546 0.783,-1.445 0.783,-1.445l0.372,-3.263l-0.652,-2.244l-1.19,-0.594l-1.606,-2.683l7.744,5.751l2.989,0.077l-10.864,-9.25Z" style="fill:#9b9a87;"/><clipPath id="_clip10"><path d="M99.179,17.918l7.856,1.439l8.374,4.957l3.917,6.78l-3.917,12.251l-1.949,3.049l-3.417,6.348l-6.496,4.795c0,0 -3.439,1.271 -4.237,1.271c-0.799,0 2.317,-1.293 -5.367,-0.706c-7.684,0.587 -7.53,-0.197 -9.867,0.433c-2.337,0.63 -6.738,1.343 -8.284,1.225c-1.546,-0.119 -7.1,0.165 -10.33,0.201c-3.23,0.036 -9.085,-2.461 -9.085,-2.461l-5.367,-5.829l5.367,2.26l26.833,2.379l6.499,-2.974c0,0 -0.966,0.98 2.372,-1.532c3.337,-2.512 3.049,-1.816 5.096,-2.818c2.047,-1.002 5.889,-0.812 5.889,-0.812l1.61,-2.807c0,0 -1.705,-1.546 -1.853,-2.438c-0.149,-0.892 0.075,-1.816 0.075,-1.816c0,0 0.443,-0.359 -0.366,-3.405c-0.81,-3.046 -1.761,-4.592 -0.929,-6.139c0.833,-1.546 0.783,-1.445 0.783,-1.445l0.372,-3.263l-0.652,-2.244l-1.19,-0.594l-1.606,-2.683l7.744,5.751l2.989,0.077l-10.864,-9.25Z"/></clipPath><g clip-path="url(#_clip10)"><path d="M102.481,16.267l24.776,14.445l-13.402,28.167l-12.867,-11.875l-4.742,-25.316l6.235,-5.421" style="fill:#95c759;fill-opacity:0.5;"/></g><path d="M131.509,27.619l13.491,4.954l-1.957,6.345l-0.801,4.189c0,0 1.468,1.546 1.587,3.45c0.119,1.903 -2.46,6.662 -1.587,8.862c0.874,2.2 0.992,6.601 0.992,8.266c0,1.665 -0.557,6.508 -0.992,7.833c-0.435,1.326 0,6.678 0,6.678l0,4.055c0,0 2.072,-1.319 -5.367,0.822c-7.438,2.141 -3.109,3.235 -9.318,2.569c-6.209,-0.666 -5.744,-3.141 -15.135,-2.201c-9.391,0.94 -14.682,1.769 -17.33,2.068c-2.647,0.3 -13.836,0.403 -13.836,0.403l-11.234,0.25l-30.984,0.717l-28.19,1.121l-8.137,-3.024l-1.812,-1.818l-0.434,-5.15c0,0 1.266,-5.843 1.007,-7.109c-0.259,-1.267 -1.944,-2.259 -0.21,-4.023c1.735,-1.764 4.694,-4.469 4.694,-4.469l3.583,-1.696l3.906,-7.256c0,0 -2.399,0 0,-1.903c2.398,-1.903 1.714,-1.726 2.651,-2.826c0.937,-1.099 6.052,-6.452 6.052,-6.452l-17.494,35.582c0,0 1.249,-0.849 3.424,-2.515c2.175,-1.665 -0.202,-1.185 1.998,-2.138c2.199,-0.954 -0.101,1.629 3.369,-1.685c3.469,-3.313 2.505,-3.551 5.366,-4.741c2.861,-1.189 6.072,-3.211 9.76,0.238c3.687,3.45 6.34,6.423 6.34,6.423c0,0 -11.264,0.357 0,2.022c11.264,1.666 15.226,2.855 16.099,2.855c0.874,0 -1.209,0.949 4.293,-0.893c5.502,-1.843 6.885,-1.396 9.048,-1.917c2.163,-0.52 1.956,0.431 8.126,0.431c6.17,0 8.863,-0.799 8.863,-0.799c0,0 -2.446,0.342 3.854,-1.927c6.299,-2.27 5.133,-3.102 8.749,-3.102c3.616,0 2.947,-1.577 8.337,-0.075c5.39,1.502 3.494,0.209 6.761,1.986c3.268,1.776 3.453,2.504 4.907,2.913c1.453,0.409 3.148,0.113 3.148,0.113c0,0 4.164,2.022 7.42,-0.03c3.255,-2.052 -3.74,-4.669 -3.74,-4.669c0,0 -1.688,-0.476 -2.52,-1.784c-0.833,-1.309 -0.833,-2.023 -0.833,-2.023c0,0 -6.841,-2.85 -0.031,-2.079c6.811,0.771 9.785,1.485 9.785,1.485c0,0 -0.053,0.014 3.423,0.661c3.476,0.647 4.925,1.554 4.925,1.554c0,0 -2.108,-6.981 -2.552,-8.107c-0.444,-1.126 -2.942,-2.791 -2.942,-2.791l1.478,-9.04l4.308,-0.324l1.058,-1.817l-1.254,-3.452l-2.813,-3.96l0.792,-1.985l6.899,4.996l-8.99,-14.061Z" style="fill:#194b49;"/><clipPath id="_clip11"><path d="M131.509,27.619l13.491,4.954l-1.957,6.345l-0.801,4.189c0,0 1.468,1.546 1.587,3.45c0.119,1.903 -2.46,6.662 -1.587,8.862c0.874,2.2 0.992,6.601 0.992,8.266c0,1.665 -0.557,6.508 -0.992,7.833c-0.435,1.326 0,6.678 0,6.678l0,4.055c0,0 2.072,-1.319 -5.367,0.822c-7.438,2.141 -3.109,3.235 -9.318,2.569c-6.209,-0.666 -5.744,-3.141 -15.135,-2.201c-9.391,0.94 -14.682,1.769 -17.33,2.068c-2.647,0.3 -13.836,0.403 -13.836,0.403l-11.234,0.25l-30.984,0.717l-28.19,1.121l-8.137,-3.024l-1.812,-1.818l-0.434,-5.15c0,0 1.266,-5.843 1.007,-7.109c-0.259,-1.267 -1.944,-2.259 -0.21,-4.023c1.735,-1.764 4.694,-4.469 4.694,-4.469l3.583,-1.696l3.906,-7.256c0,0 -2.399,0 0,-1.903c2.398,-1.903 1.714,-1.726 2.651,-2.826c0.937,-1.099 6.052,-6.452 6.052,-6.452l-17.494,35.582c0,0 1.249,-0.849 3.424,-2.515c2.175,-1.665 -0.202,-1.185 1.998,-2.138c2.199,-0.954 -0.101,1.629 3.369,-1.685c3.469,-3.313 2.505,-3.551 5.366,-4.741c2.861,-1.189 6.072,-3.211 9.76,0.238c3.687,3.45 6.34,6.423 6.34,6.423c0,0 -11.264,0.357 0,2.022c11.264,1.666 15.226,2.855 16.099,2.855c0.874,0 -1.209,0.949 4.293,-0.893c5.502,-1.843 6.885,-1.396 9.048,-1.917c2.163,-0.52 1.956,0.431 8.126,0.431c6.17,0 8.863,-0.799 8.863,-0.799c0,0 -2.446,0.342 3.854,-1.927c6.299,-2.27 5.133,-3.102 8.749,-3.102c3.616,0 2.947,-1.577 8.337,-0.075c5.39,1.502 3.494,0.209 6.761,1.986c3.268,1.776 3.453,2.504 4.907,2.913c1.453,0.409 3.148,0.113 3.148,0.113c0,0 4.164,2.022 7.42,-0.03c3.255,-2.052 -3.74,-4.669 -3.74,-4.669c0,0 -1.688,-0.476 -2.52,-1.784c-0.833,-1.309 -0.833,-2.023 -0.833,-2.023c0,0 -6.841,-2.85 -0.031,-2.079c6.811,0.771 9.785,1.485 9.785,1.485c0,0 -0.053,0.014 3.423,0.661c3.476,0.647 4.925,1.554 4.925,1.554c0,0 -2.108,-6.981 -2.552,-8.107c-0.444,-1.126 -2.942,-2.791 -2.942,-2.791l1.478,-9.04l4.308,-0.324l1.058,-1.817l-1.254,-3.452l-2.813,-3.96l0.792,-1.985l6.899,4.996l-8.99,-14.061Z"/></clipPath><g clip-path="url(#_clip11)"><path d="M131.509,25.6l23.692,1.873l-0.012,60.527l-12.947,13.051l-46.294,-6.386l-31.463,-27.201l61.657,-14.729l5.367,-27.135Z" style="fill:#95c759;fill-opacity:0.5;"/><path d="M142.242,28.586l-2.6,4.066l2.6,6.667l-2.968,3.882l-2.399,9.534l3.577,8.945c0,0 -0.999,8.411 -1.357,11.412c-0.358,3.001 -10.025,-2.793 -10.025,-2.793l-2.928,-1.464c0,0 0.483,1.917 2.599,4.067c2.116,2.15 5.353,2.247 2.768,3.983c-2.585,1.735 -6.45,3.225 -6.45,3.225c0,0 1.28,1.37 -1.07,0.535c-2.35,-0.835 0.475,-1.132 -5.175,-1.132c-5.65,0 -12.083,-0.972 -12.083,-0.972l-2.055,-0.069c0,0 1.141,-5.326 -3.363,-2.589c-4.504,2.737 -5.412,2.706 -5.412,2.706c0,0 -1.878,1.816 -7.325,2.41c-5.446,0.595 -9.036,0.404 -9.036,0.404c0,0 -1.073,-1.635 -5.283,-0.945c-4.211,0.69 -4.284,2.897 -7.147,1.793c-2.863,-1.103 0.159,-1.549 -5.366,-0.36c-5.526,1.19 -5.263,0.822 -7.253,1.303c-1.99,0.482 -7.567,-0.414 -10.354,-0.189c-2.787,0.225 1.189,1.045 -6.3,0.709c-7.489,-0.336 -7.163,2.341 -8.293,-0.336c-1.129,-2.676 -1.58,-4.6 -1.58,-4.6l-6.363,-3.182l-1.038,-2.271l0.773,-0.386c0,0 6.336,-2.942 2.842,-2.793c-3.495,0.148 -10.733,8.177 -10.733,8.177l0,3.928l-3.021,-0.062l-0.551,-1.723l-5.545,-0.656l-1.617,-1.19c0,0 -0.724,-4.391 0,-7.102c0.725,-2.711 3.027,-6.88 3.027,-6.88l5.888,-10.129c0,0 -8.307,0.556 -11.668,4.899c-3.361,4.344 -7.98,12.11 -7.98,12.11c0,0 1.032,1.55 0,5.367c-1.031,3.817 -7.592,6.944 0,10.733c7.592,3.789 8.052,6.64 29.976,6.478c21.924,-0.161 24.945,1.474 39.79,4.151c14.844,2.676 16.701,4.16 29.897,3.938c13.196,-0.221 22.799,1.34 34.501,-1.151c11.703,-2.49 8.729,-0.855 17.65,-5.315c8.921,-4.461 18.592,-4.894 18.217,-17.985c-0.375,-13.09 -0.269,-12.227 -3.667,-24.999c-3.399,-12.772 -16.1,-24.149 -16.1,-24.149Z" style="fill:#9b9a87;"/><clipPath id="_clip12"><path d="M142.242,28.586l-2.6,4.066l2.6,6.667l-2.968,3.882l-2.399,9.534l3.577,8.945c0,0 -0.999,8.411 -1.357,11.412c-0.358,3.001 -10.025,-2.793 -10.025,-2.793l-2.928,-1.464c0,0 0.483,1.917 2.599,4.067c2.116,2.15 5.353,2.247 2.768,3.983c-2.585,1.735 -6.45,3.225 -6.45,3.225c0,0 1.28,1.37 -1.07,0.535c-2.35,-0.835 0.475,-1.132 -5.175,-1.132c-5.65,0 -12.083,-0.972 -12.083,-0.972l-2.055,-0.069c0,0 1.141,-5.326 -3.363,-2.589c-4.504,2.737 -5.412,2.706 -5.412,2.706c0,0 -1.878,1.816 -7.325,2.41c-5.446,0.595 -9.036,0.404 -9.036,0.404c0,0 -1.073,-1.635 -5.283,-0.945c-4.211,0.69 -4.284,2.897 -7.147,1.793c-2.863,-1.103 0.159,-1.549 -5.366,-0.36c-5.526,1.19 -5.263,0.822 -7.253,1.303c-1.99,0.482 -7.567,-0.414 -10.354,-0.189c-2.787,0.225 1.189,1.045 -6.3,0.709c-7.489,-0.336 -7.163,2.341 -8.293,-0.336c-1.129,-2.676 -1.58,-4.6 -1.58,-4.6l-6.363,-3.182l-1.038,-2.271l0.773,-0.386c0,0 6.336,-2.942 2.842,-2.793c-3.495,0.148 -10.733,8.177 -10.733,8.177l0,3.928l-3.021,-0.062l-0.551,-1.723l-5.545,-0.656l-1.617,-1.19c0,0 -0.724,-4.391 0,-7.102c0.725,-2.711 3.027,-6.88 3.027,-6.88l5.888,-10.129c0,0 -8.307,0.556 -11.668,4.899c-3.361,4.344 -7.98,12.11 -7.98,12.11c0,0 1.032,1.55 0,5.367c-1.031,3.817 -7.592,6.944 0,10.733c7.592,3.789 8.052,6.64 29.976,6.478c21.924,-0.161 24.945,1.474 39.79,4.151c14.844,2.676 16.701,4.16 29.897,3.938c13.196,-0.221 22.799,1.34 34.501,-1.151c11.703,-2.49 8.729,-0.855 17.65,-5.315c8.921,-4.461 18.592,-4.894 18.217,-17.985c-0.375,-13.09 -0.269,-12.227 -3.667,-24.999c-3.399,-12.772 -16.1,-24.149 -16.1,-24.149Z"/></clipPath><g clip-path="url(#_clip12)"><path d="M131.509,25.6l23.692,1.873l-0.012,60.527l-12.947,13.051l-46.294,-6.386l-31.463,-27.201l61.657,-14.729l5.367,-27.135Z" style="fill:#95c759;fill-opacity:0.5;"/></g><path d="M17.069,66.559l-19.724,23.742l-1.594,-26.036l27.128,-29.663l6.665,12.767l-12.475,19.19Z" style="fill:#191919;fill-opacity:0.5;"/></g></g></svg>