<?xml version="1.0" encoding="UTF-8" standalone="no"?><!DOCTYPE svg PUBLIC "-//W3C//DTD SVG 1.1//EN" "http://www.w3.org/Graphics/SVG/1.1/DTD/svg11.dtd"><svg width="100%" height="100%" viewBox="0 0 75 60" version="1.1" xmlns="http://www.w3.org/2000/svg" xmlns:xlink="http://www.w3.org/1999/xlink" xml:space="preserve" xmlns:serif="http://www.serif.com/" style="fill-rule:evenodd;clip-rule:evenodd;stroke-linejoin:round;stroke-miterlimit:1.41421;"><g id="rock-runes-mossy09"><g id="rock-mossy09"><g id="rock-runes-highlights09"><g id="rock-highlights09"><g><g><g><path d="M26.614,1.121l14.694,4.408l-5.877,14.694l-17.633,2.939l-5.878,-14.694l14.694,-7.347Z" style="fill:#4c805b;"/><clipPath id="_clip1"><path d="M26.614,1.121l14.694,4.408l-5.877,14.694l-17.633,2.939l-5.878,-14.694l14.694,-7.347Z"/></clipPath><g clip-path="url(#_clip1)"><path d="M59.39,42.918l-9.301,-32.068l-3.355,0.63l-0.506,24.603l-3.291,-7.745l0.051,-17.111l-5.13,-1.992l-3.002,13.129l16.099,25.618l-12.118,-13.721l-2.835,1.519l-11.879,14.886l8.487,-15.595l-8.487,-11.238l1.703,-2.076l-6.277,1.215l-7.695,14.934l4.151,-14.732l-4.168,-14.665l5.991,14.564l15.896,-3.088l0.408,-1.881l2.68,-11.889l12.149,1.62l2.734,0.456l10.631,25.362l-0.637,8.201l-2.299,1.064Z" style="fill:#95d767;"/></g><path d="M41.308,5.529l11.756,11.755l0,11.756l-17.633,-8.817l5.877,-14.694" style="fill:#95d767;"/><clipPath id="_clip2"><path d="M41.308,5.529l11.756,11.755l0,11.756l-17.633,-8.817l5.877,-14.694"/></clipPath><g clip-path="url(#_clip2)"><path d="M59.39,42.918l-9.301,-32.068l-3.355,0.63l-0.506,24.603l-3.291,-7.745l0.051,-17.111l-5.13,-1.992l-3.002,13.129l16.099,25.618l-12.118,-13.721l-2.835,1.519l-11.879,14.886l8.487,-15.595l-8.487,-11.238l1.703,-2.076l-6.277,1.215l-7.695,14.934l4.151,-14.732l-4.168,-14.665l5.991,14.564l15.896,-3.088l0.408,-1.881l2.68,-11.889l12.149,1.62l2.734,0.456l10.631,25.362l-0.637,8.201l-2.299,1.064Z" style="fill:#95d767;"/></g><path d="M35.431,20.223l17.633,8.817l-17.633,8.816l-23.511,0l5.878,-14.694l17.633,-2.939Z" style="fill:#3f673c;"/><clipPath id="_clip3"><path d="M35.431,20.223l17.633,8.817l-17.633,8.816l-23.511,0l5.878,-14.694l17.633,-2.939Z"/></clipPath><g clip-path="url(#_clip3)"><path d="M59.39,42.918l-9.301,-32.068l-3.355,0.63l-0.506,24.603l-3.291,-7.745l0.051,-17.111l-5.13,-1.992l-3.002,13.129l16.099,25.618l-12.118,-13.721l-2.835,1.519l-11.879,14.886l8.487,-15.595l-8.487,-11.238l1.703,-2.076l-6.277,1.215l-7.695,14.934l4.151,-14.732l-4.168,-14.665l5.991,14.564l15.896,-3.088l0.408,-1.881l2.68,-11.889l12.149,1.62l2.734,0.456l10.631,25.362l-0.637,8.201l-2.299,1.064Z" style="fill:#95d767;"/></g><path d="M11.92,8.468l5.878,14.694l-5.878,14.694l-8.816,-19.102l8.816,-10.286Z" style="fill:#194b49;"/><clipPath id="_clip4"><path d="M11.92,8.468l5.878,14.694l-5.878,14.694l-8.816,-19.102l8.816,-10.286Z"/></clipPath><g clip-path="url(#_clip4)"><path d="M59.39,42.918l-9.301,-32.068l-3.355,0.63l-0.506,24.603l-3.291,-7.745l0.051,-17.111l-5.13,-1.992l-3.002,13.129l16.099,25.618l-12.118,-13.721l-2.835,1.519l-11.879,14.886l8.487,-15.595l-8.487,-11.238l1.703,-2.076l-6.277,1.215l-7.695,14.934l4.151,-14.732l-4.168,-14.665l5.991,14.564l15.896,-3.088l0.408,-1.881l2.68,-11.889l12.149,1.62l2.734,0.456l10.631,25.362l-0.637,8.201l-2.299,1.064Z" style="fill:#95d767;"/></g></g><g><path d="M53.064,9.161l16.099,21.093l-8.049,12.074l-10.666,-34.916l2.616,1.749Z" style="fill:#95d767;"/><clipPath id="_clip5"><path d="M53.064,9.161l16.099,21.093l-8.049,12.074l-10.666,-34.916l2.616,1.749Z"/></clipPath><g clip-path="url(#_clip5)"><path d="M59.39,42.918l-9.301,-32.068l-3.355,0.63l-0.506,24.603l-3.291,-7.745l0.051,-17.111l-5.13,-1.992l-3.002,13.129l16.099,25.618l-12.118,-13.721l-2.835,1.519l-11.879,14.886l8.487,-15.595l-8.487,-11.238l1.703,-2.076l-6.277,1.215l-7.695,14.934l4.151,-14.732l-4.168,-14.665l5.991,14.564l15.896,-3.088l0.408,-1.881l2.68,-11.889l12.149,1.62l2.734,0.456l10.631,25.362l-0.637,8.201l-2.299,1.064Z" style="fill:#95d767;"/></g><path d="M50.743,7.264l-5.729,2.865l0,36.224l16.1,-4.025l-10.371,-35.064Z" style="fill:#4c805b;"/><clipPath id="_clip6"><path d="M50.743,7.264l-5.729,2.865l0,36.224l16.1,-4.025l-10.371,-35.064Z"/></clipPath><g clip-path="url(#_clip6)"><path d="M59.39,42.918l-9.301,-32.068l-3.355,0.63l-0.506,24.603l-3.291,-7.745l0.051,-17.111l-5.13,-1.992l-3.002,13.129l16.099,25.618l-12.118,-13.721l-2.835,1.519l-11.879,14.886l8.487,-15.595l-8.487,-11.238l1.703,-2.076l-6.277,1.215l-7.695,14.934l4.151,-14.732l-4.168,-14.665l5.991,14.564l15.896,-3.088l0.408,-1.881l2.68,-11.889l12.149,1.62l2.734,0.456l10.631,25.362l-0.637,8.201l-2.299,1.064Z" style="fill:#95d767;"/></g><path d="M53.064,9.165l-8.05,-7.086l-8.05,4.025l8.05,4.025l8.05,-0.964Z" style="fill:#95d767;"/><clipPath id="_clip7"><path d="M53.064,9.165l-8.05,-7.086l-8.05,4.025l8.05,4.025l8.05,-0.964Z"/></clipPath><g clip-path="url(#_clip7)"><path d="M59.39,42.918l-9.301,-32.068l-3.355,0.63l-0.506,24.603l-3.291,-7.745l0.051,-17.111l-5.13,-1.992l-3.002,13.129l16.099,25.618l-12.118,-13.721l-2.835,1.519l-11.879,14.886l8.487,-15.595l-8.487,-11.238l1.703,-2.076l-6.277,1.215l-7.695,14.934l4.151,-14.732l-4.168,-14.665l5.991,14.564l15.896,-3.088l0.408,-1.881l2.68,-11.889l12.149,1.62l2.734,0.456l10.631,25.362l-0.637,8.201l-2.299,1.064Z" style="fill:#95d767;"/></g><path d="M36.964,6.104l8.05,4.025l0,36.224l-16.1,-4.025l8.05,-36.224Z" style="fill:#3f673c;"/><clipPath id="_clip8"><path d="M36.964,6.104l8.05,4.025l0,36.224l-16.1,-4.025l8.05,-36.224Z"/></clipPath><g clip-path="url(#_clip8)"><path d="M59.39,42.918l-9.301,-32.068l-3.355,0.63l-0.506,24.603l-3.291,-7.745l0.051,-17.111l-5.13,-1.992l-3.002,13.129l16.099,25.618l-12.118,-13.721l-2.835,1.519l-11.879,14.886l8.487,-15.595l-8.487,-11.238l1.703,-2.076l-6.277,1.215l-7.695,14.934l4.151,-14.732l-4.168,-14.665l5.991,14.564l15.896,-3.088l0.408,-1.881l2.68,-11.889l12.149,1.62l2.734,0.456l10.631,25.362l-0.637,8.201l-2.299,1.064Z" style="fill:#95d767;"/></g></g><g><path d="M29.489,15.783l10.733,5.367l0,10.733l-5.366,2.683l-10.733,-10.733l5.366,-8.05Z" style="fill:#95d767;"/><clipPath id="_clip9"><path d="M29.489,15.783l10.733,5.367l0,10.733l-5.366,2.683l-10.733,-10.733l5.366,-8.05Z"/></clipPath><g clip-path="url(#_clip9)"><path d="M59.39,42.918l-9.301,-32.068l-3.355,0.63l-0.506,24.603l-3.291,-7.745l0.051,-17.111l-5.13,-1.992l-3.002,13.129l16.099,25.618l-12.118,-13.721l-2.835,1.519l-11.879,14.886l8.487,-15.595l-8.487,-11.238l1.703,-2.076l-6.277,1.215l-7.695,14.934l4.151,-14.732l-4.168,-14.665l5.991,14.564l15.896,-3.088l0.408,-1.881l2.68,-11.889l12.149,1.62l2.734,0.456l10.631,25.362l-0.637,8.201l-2.299,1.064Z" style="fill:#95d767;"/></g><path d="M40.222,31.883l10.733,16.099l-16.099,8.05l-10.733,-5.366l10.733,-16.1l5.366,-2.683Z" style="fill:#4c805b;"/><clipPath id="_clip10"><path d="M40.222,31.883l10.733,16.099l-16.099,8.05l-10.733,-5.366l10.733,-16.1l5.366,-2.683Z"/></clipPath><g clip-path="url(#_clip10)"><path d="M59.39,42.918l-9.301,-32.068l-3.355,0.63l-0.506,24.603l-3.291,-7.745l0.051,-17.111l-5.13,-1.992l-3.002,13.129l16.099,25.618l-12.118,-13.721l-2.835,1.519l-11.879,14.886l8.487,-15.595l-8.487,-11.238l1.703,-2.076l-6.277,1.215l-7.695,14.934l4.151,-14.732l-4.168,-14.665l5.991,14.564l15.896,-3.088l0.408,-1.881l2.68,-11.889l12.149,1.62l2.734,0.456l10.631,25.362l-0.637,8.201l-2.299,1.064Z" style="fill:#95d767;"/></g><path d="M34.856,34.566l-10.733,16.1l-5.367,-8.05l5.367,-18.783l10.733,10.733Z" style="fill:#3f673c;"/><clipPath id="_clip11"><path d="M34.856,34.566l-10.733,16.1l-5.367,-8.05l5.367,-18.783l10.733,10.733Z"/></clipPath><g clip-path="url(#_clip11)"><path d="M59.39,42.918l-9.301,-32.068l-3.355,0.63l-0.506,24.603l-3.291,-7.745l0.051,-17.111l-5.13,-1.992l-3.002,13.129l16.099,25.618l-12.118,-13.721l-2.835,1.519l-11.879,14.886l8.487,-15.595l-8.487,-11.238l1.703,-2.076l-6.277,1.215l-7.695,14.934l4.151,-14.732l-4.168,-14.665l5.991,14.564l15.896,-3.088l0.408,-1.881l2.68,-11.889l12.149,1.62l2.734,0.456l10.631,25.362l-0.637,8.201l-2.299,1.064Z" style="fill:#95d767;"/></g><path d="M40.222,21.15l10.733,26.832l-10.733,-16.099l0,-10.733Z" style="fill:#95d767;"/><clipPath id="_clip12"><path d="M40.222,21.15l10.733,26.832l-10.733,-16.099l0,-10.733Z"/></clipPath><g clip-path="url(#_clip12)"><path d="M59.39,42.918l-9.301,-32.068l-3.355,0.63l-0.506,24.603l-3.291,-7.745l0.051,-17.111l-5.13,-1.992l-3.002,13.129l16.099,25.618l-12.118,-13.721l-2.835,1.519l-11.879,14.886l8.487,-15.595l-8.487,-11.238l1.703,-2.076l-6.277,1.215l-7.695,14.934l4.151,-14.732l-4.168,-14.665l5.991,14.564l15.896,-3.088l0.408,-1.881l2.68,-11.889l12.149,1.62l2.734,0.456l10.631,25.362l-0.637,8.201l-2.299,1.064Z" style="fill:#95d767;"/></g></g></g></g></g><path d="M49.332,48.832l-9.11,-11.911l2.346,6.54l-7.712,1.51l-5.367,-2.684l-4.295,-13.952l3.011,15.929l6.651,2.44l7.993,-1.651l-0.359,2.369l-7.634,2.915l-7.297,-0.115l7.297,1.794l7.719,-3.185l2.212,-1.696l0.802,3.202l3.743,-1.505Z" style="fill:#13190f;fill-opacity:0.65;"/><path d="M34.856,23.505l0,-2.643l-4.569,-2.01l-0.798,7.336l5.966,4.365l2.854,-3.409l-1.993,-0.611l-0.763,1.99l-3.841,-3.447l-0.018,-3.152l1.823,0.159l0.463,1.859l0.876,-0.437Z" style="fill:#13190f;fill-opacity:0.65;"/><path d="M61.689,20.821l-5.367,3.2l-10.733,-3.518l-8.948,-12.206l-1.785,7.54l10.733,8.184l2.551,0.759l2.815,13.454l2.688,2.71l-0.809,-3.084l-1.879,-11.672l5.367,0.489l5.367,-5.856Z" style="fill:#13190f;fill-opacity:0.65;"/><path d="M26.635,0.782l-1.014,9.026l-13.831,-1.604l1.599,2.967l11.442,-0.43l-9.763,4.594l-5.814,-3.446l-2.225,2.154l8.542,3.876l9.656,-4.596l4.262,-3.235l-1.284,-8.32l-1.57,-0.986Z" style="fill:#13190f;fill-opacity:0.65;"/><path d="M8.834,31.149l8.058,-5.893l5.603,4.429l-1.031,3.223l-5.606,-4.15l-4.877,6.684l-2.147,-4.293" style="fill:#13190f;fill-opacity:0.65;"/></g><path d="M62.561,21.604l5.75,-1.619l1.875,3.173c0,0 -0.184,-0.083 0.958,1.535c1.142,1.617 3.28,3.715 3.28,3.715l-2.002,2.85l-0.873,1.952c0,0 -0.909,-1.055 -1.18,0.59c-0.272,1.645 -0.87,1.604 -0.999,2.814c-0.129,1.21 1.624,-0.421 -0.394,3.249c-2.019,3.671 -2.78,4.622 -6.111,5.954c-3.33,1.333 -3.97,1.66 -3.97,1.66c0,0 1.02,0.053 -0.502,1.005c-1.523,0.951 -2.794,1.876 -4.156,2.032c-1.363,0.156 -6.943,1.895 -6.943,1.895l-2.604,1.877l-2.055,1.16l-4.986,1.219c0,0 -0.448,1.142 -2.793,1.808c-2.346,0.666 -3.791,0.345 -3.791,0.345c0,0 -0.981,0.892 -1.576,-0.154c-0.595,-1.047 -0.432,-2.625 -2.892,-2.978c-2.461,-0.353 -5.954,-0.503 -5.954,-0.503c0,0 -0.466,0.415 -1.103,-1.335c-0.637,-1.75 -0.784,-3.749 -0.784,-3.749c0,0 -0.139,-1.998 -1.851,-3.235c-1.713,-1.237 -2.844,-1.427 -3.516,-2.379c-0.671,-0.951 -1.147,-1.617 -1.147,-1.617c0,0 -2.379,0.38 -2.76,-2.189c-0.38,-2.569 -0.584,-2.976 -0.584,-2.976l-0.875,-1.306l-0.815,-3.216l-2.293,-2.874l-0.577,-1.058l-0.66,-1.702c0,0 -0.205,0.22 -0.293,-2.459c-0.088,-2.679 -0.729,-2.869 -0.729,-2.869l-0.974,-2.375l-1.632,-1.79l0.678,-1.83l0.825,-1.681c0,0 1.744,-3.077 2.696,-3.838c0.951,-0.762 1.503,-0.533 1.503,-0.533l6.219,-2.257l-8.348,10.959l8.429,18.57l7.899,0.099l-1.195,4.944l5.367,8.088l10.733,5.519l16.099,-8.088l-1.126,-2.76l11.86,-3.14l7.647,-11.799l-6.775,-8.703Z" style="fill:#194b49;"/><clipPath id="_clip13"><path d="M62.561,21.604l5.75,-1.619l1.875,3.173c0,0 -0.184,-0.083 0.958,1.535c1.142,1.617 3.28,3.715 3.28,3.715l-2.002,2.85l-0.873,1.952c0,0 -0.909,-1.055 -1.18,0.59c-0.272,1.645 -0.87,1.604 -0.999,2.814c-0.129,1.21 1.624,-0.421 -0.394,3.249c-2.019,3.671 -2.78,4.622 -6.111,5.954c-3.33,1.333 -3.97,1.66 -3.97,1.66c0,0 1.02,0.053 -0.502,1.005c-1.523,0.951 -2.794,1.876 -4.156,2.032c-1.363,0.156 -6.943,1.895 -6.943,1.895l-2.604,1.877l-2.055,1.16l-4.986,1.219c0,0 -0.448,1.142 -2.793,1.808c-2.346,0.666 -3.791,0.345 -3.791,0.345c0,0 -0.981,0.892 -1.576,-0.154c-0.595,-1.047 -0.432,-2.625 -2.892,-2.978c-2.461,-0.353 -5.954,-0.503 -5.954,-0.503c0,0 -0.466,0.415 -1.103,-1.335c-0.637,-1.75 -0.784,-3.749 -0.784,-3.749c0,0 -0.139,-1.998 -1.851,-3.235c-1.713,-1.237 -2.844,-1.427 -3.516,-2.379c-0.671,-0.951 -1.147,-1.617 -1.147,-1.617c0,0 -2.379,0.38 -2.76,-2.189c-0.38,-2.569 -0.584,-2.976 -0.584,-2.976l-0.875,-1.306l-0.815,-3.216l-2.293,-2.874l-0.577,-1.058l-0.66,-1.702c0,0 -0.205,0.22 -0.293,-2.459c-0.088,-2.679 -0.729,-2.869 -0.729,-2.869l-0.974,-2.375l-1.632,-1.79l0.678,-1.83l0.825,-1.681c0,0 1.744,-3.077 2.696,-3.838c0.951,-0.762 1.503,-0.533 1.503,-0.533l6.219,-2.257l-8.348,10.959l8.429,18.57l7.899,0.099l-1.195,4.944l5.367,8.088l10.733,5.519l16.099,-8.088l-1.126,-2.76l11.86,-3.14l7.647,-11.799l-6.775,-8.703Z"/></clipPath><g clip-path="url(#_clip13)"><path d="M52.444,18.687l18.429,-4.434c10.152,8.258 9.815,21.993 -3.818,42.67l-53.666,8.771l24.443,-15.625l14.612,-31.382Z" style="fill:#95c759;fill-opacity:0.5;"/><path d="M70.858,18.412c-1.332,-0.095 -3.803,0.945 -3.803,0.945l0,3.432l2.332,0.769l0.996,1.61l0.768,1.604l0.154,1.193l1.117,2.818c0,0 -0.495,-1.091 -1.933,1.024c-1.439,2.116 -2.061,2.964 -2.061,2.964c0,0 -1.661,2.482 -2.137,3.91c-0.476,1.427 -1.047,4.757 -1.047,4.757c0,0 0.56,0.214 -1.956,0.868c-2.516,0.655 -2.304,-0.824 -3.409,0.106c-1.106,0.93 -2.094,1.046 -2.094,1.046l-2.816,1.409l-2.398,1.199l-1.616,0.807l-8.319,4.16l-3.768,1.884l-5.633,2.817c0,0 0.846,0.644 -3.746,-1.545c-4.591,-2.188 -6.172,-3.541 -6.904,-3.864c-0.732,-0.322 1.742,1.01 -1.494,-1.084c-3.235,-2.093 -5.11,-2.244 -5.267,-3.834c-0.157,-1.59 -0.157,-3.969 -0.157,-3.969c0,0 2.189,0.096 -0.57,-0.666c-2.76,-0.761 -3.215,-1.195 -3.215,-1.195c0,0 1.258,1.279 0,0c-1.258,-1.279 -4.082,-2.04 -3.859,-4.8c0.222,-2.759 0,-4.003 0,-4.003c0,0 1.681,-0.849 0,-1.896c-1.681,-1.047 -2.918,-1.903 -4.155,-3.616c-1.237,-1.713 -1.212,-2.538 -1.212,-2.538c0,0 0.406,-0.888 0,-2.125c-0.406,-1.237 0,-4.472 0,-4.472l0,-4.136c0,0 -0.678,0.069 1.218,-0.609c1.897,-0.679 6.357,-3.179 6.357,-3.179c0,0 2.269,-2.775 -0.239,-3.278c-2.508,-0.502 -7.336,-0.027 -7.336,-0.027c0,0 -3.165,5.615 -3.26,6.852c-0.095,1.237 -1.237,4.757 -0.857,6.756c0.381,1.998 1.764,8.469 4.117,13.036c2.354,4.568 4.193,17.604 5.367,18.936c1.174,1.333 24.96,10.748 24.96,10.748l27.535,-8.401l17.27,-19.368l6.23,-13.848c0,0 -11.827,-3.102 -13.16,-3.197Z" style="fill:#9b9a87;"/><clipPath id="_clip14"><path d="M70.858,18.412c-1.332,-0.095 -3.803,0.945 -3.803,0.945l0,3.432l2.332,0.769l0.996,1.61l0.768,1.604l0.154,1.193l1.117,2.818c0,0 -0.495,-1.091 -1.933,1.024c-1.439,2.116 -2.061,2.964 -2.061,2.964c0,0 -1.661,2.482 -2.137,3.91c-0.476,1.427 -1.047,4.757 -1.047,4.757c0,0 0.56,0.214 -1.956,0.868c-2.516,0.655 -2.304,-0.824 -3.409,0.106c-1.106,0.93 -2.094,1.046 -2.094,1.046l-2.816,1.409l-2.398,1.199l-1.616,0.807l-8.319,4.16l-3.768,1.884l-5.633,2.817c0,0 0.846,0.644 -3.746,-1.545c-4.591,-2.188 -6.172,-3.541 -6.904,-3.864c-0.732,-0.322 1.742,1.01 -1.494,-1.084c-3.235,-2.093 -5.11,-2.244 -5.267,-3.834c-0.157,-1.59 -0.157,-3.969 -0.157,-3.969c0,0 2.189,0.096 -0.57,-0.666c-2.76,-0.761 -3.215,-1.195 -3.215,-1.195c0,0 1.258,1.279 0,0c-1.258,-1.279 -4.082,-2.04 -3.859,-4.8c0.222,-2.759 0,-4.003 0,-4.003c0,0 1.681,-0.849 0,-1.896c-1.681,-1.047 -2.918,-1.903 -4.155,-3.616c-1.237,-1.713 -1.212,-2.538 -1.212,-2.538c0,0 0.406,-0.888 0,-2.125c-0.406,-1.237 0,-4.472 0,-4.472l0,-4.136c0,0 -0.678,0.069 1.218,-0.609c1.897,-0.679 6.357,-3.179 6.357,-3.179c0,0 2.269,-2.775 -0.239,-3.278c-2.508,-0.502 -7.336,-0.027 -7.336,-0.027c0,0 -3.165,5.615 -3.26,6.852c-0.095,1.237 -1.237,4.757 -0.857,6.756c0.381,1.998 1.764,8.469 4.117,13.036c2.354,4.568 4.193,17.604 5.367,18.936c1.174,1.333 24.96,10.748 24.96,10.748l27.535,-8.401l17.27,-19.368l6.23,-13.848c0,0 -11.827,-3.102 -13.16,-3.197Z"/></clipPath><g clip-path="url(#_clip14)"><path d="M52.444,18.687l18.429,-4.434c10.152,8.258 9.815,21.993 -3.818,42.67l-53.666,8.771l24.443,-15.625l14.612,-31.382Z" style="fill:#95c759;fill-opacity:0.5;"/></g><path d="M14.602,4.792l9.521,30.665l-16.1,8.951l-12.121,-28.428l18.7,-11.188Z" style="fill:#191919;fill-opacity:0.5;"/></g></g></g></svg>