<?xml version="1.0" encoding="UTF-8" standalone="no"?><!DOCTYPE svg PUBLIC "-//W3C//DTD SVG 1.1//EN" "http://www.w3.org/Graphics/SVG/1.1/DTD/svg11.dtd"><svg width="100%" height="100%" viewBox="0 0 110 67" version="1.1" xmlns="http://www.w3.org/2000/svg" xmlns:xlink="http://www.w3.org/1999/xlink" xml:space="preserve" xmlns:serif="http://www.serif.com/" style="fill-rule:evenodd;clip-rule:evenodd;stroke-linejoin:round;stroke-miterlimit:1.41421;"><g id="rock-runes-mossy02"><g id="rock-mossy02"><g id="rock-runes-highlights02"><g id="rock-highlights02"><g><g><path d="M60.19,0.399l32.199,5.366l-32.199,26.833l-21.466,-10.733l-10.733,-16.1l10.733,-5.366l21.466,0Z" style="fill:#4c805b;"/><clipPath id="_clip1"><path d="M60.19,0.399l32.199,5.366l-32.199,26.833l-21.466,-10.733l-10.733,-16.1l10.733,-5.366l21.466,0Z"/></clipPath><g clip-path="url(#_clip1)"><path d="M81.656,54.064l-21.466,-19.319l-18.708,-8.893l7.975,33.579l-11.503,-31.815l-20.696,26.448l18.096,-32.278l-7.363,-16.021l12.421,14.473l19.778,10.992l29.073,-25.914l3.126,0.449l-10.733,48.299Z" style="fill:#95d767;"/></g><path d="M92.389,5.765l10.734,26.833l-21.467,21.466l-21.466,-21.466l32.199,-26.833Z" style="fill:#95d767;"/><path d="M60.19,32.598l21.466,21.466l-32.199,5.367l-10.733,-37.566l21.466,10.733Z" style="fill:#3f673c;"/><clipPath id="_clip2"><path d="M60.19,32.598l21.466,21.466l-32.199,5.367l-10.733,-37.566l21.466,10.733Z"/></clipPath><g clip-path="url(#_clip2)"><path d="M81.656,54.064l-21.466,-19.319l-18.708,-8.893l7.975,33.579l-11.503,-31.815l-20.696,26.448l18.096,-32.278l-7.363,-16.021l12.421,14.473l19.778,10.992l29.073,-25.914l3.126,0.449l-10.733,48.299Z" style="fill:#95d767;"/></g><path d="M38.724,21.865l-21.466,32.199l32.199,5.367l-10.733,-37.566" style="fill:#194b49;"/><clipPath id="_clip3"><path d="M38.724,21.865l-21.466,32.199l32.199,5.367l-10.733,-37.566"/></clipPath><g clip-path="url(#_clip3)"><path d="M81.656,54.064l-21.466,-19.319l-18.708,-8.893l7.975,33.579l-11.503,-31.815l-20.696,26.448l18.096,-32.278l-7.363,-16.021l12.421,14.473l19.778,10.992l29.073,-25.914l3.126,0.449l-10.733,48.299Z" style="fill:#95d767;"/></g><path d="M27.991,5.765l-16.1,18.783l5.367,29.516l21.466,-32.199l-10.733,-16.1Z" style="fill:#194b49;"/><clipPath id="_clip4"><path d="M27.991,5.765l-16.1,18.783l5.367,29.516l21.466,-32.199l-10.733,-16.1Z"/></clipPath><g clip-path="url(#_clip4)"><path d="M81.656,54.064l-21.466,-19.319l-18.708,-8.893l7.975,33.579l-11.503,-31.815l-20.696,26.448l18.096,-32.278l-7.363,-16.021l12.421,14.473l19.778,10.992l29.073,-25.914l3.126,0.449l-10.733,48.299Z" style="fill:#95d767;"/></g></g></g></g><path d="M99.789,35.97l-2.033,-8.607l-13.873,-6.94l-14.556,9.173l12.329,16.271l5.367,-5.547l-2.525,-14.838l-5.862,5.277l4.372,0.835l1.266,7.351l-2.618,1.977l-7.232,-12.268l9.909,-5.779l11.357,5.679l-3.301,9.082l-9.41,11.395l-4.953,1.153l-13.783,-5.155l-9.42,-7.936l5.367,-4.823l5.367,-11.129l16.099,-10.337l-39.288,-5.615l7.089,14.676l5.366,-3.509l-4.133,-6.169l22.836,1.918l-13.336,6.325l-2.948,12.366l-7.785,6.84l13.086,11.91l17.588,3.427l19.658,-17.003" style="fill:#13190f;fill-opacity:0.65;"/><path d="M49.457,59.103l6.588,-8.661l-7.743,3.871l-6.371,-5.474l-1.634,-14.456l-1.573,13.068l-7.002,-5.228l8.298,-10.601l-10.019,7.019l3.356,-9.054l-7.598,0.467l4.411,-6.616l-0.436,-8.14l-8.19,-1.271l-4.286,12.876l2.409,1.205l3.762,-9.657l4.562,0.985l-5.367,10.781l1.854,3.809l6.753,-1.113l-4.259,9.581l2.976,-0.47l-1.957,6.346l-4.79,2.971l4.79,0.357l4.208,-6.591l6.525,6.264l4.2,4.465l6.533,3.267Z" style="fill:#13190f;fill-opacity:0.65;"/></g><path d="M95.518,13.587c0,0 5.377,10.608 7.605,12.881c2.227,2.274 4.391,6.28 5.366,8.229c0.975,1.948 1.948,4.114 0,5.196c-1.948,1.083 -7.361,2.49 -9.527,4.114c-2.165,1.624 -13.06,9.34 -14.379,12.412c-1.319,3.071 -8.293,10.216 -8.293,10.216c0,0 -1.167,-0.474 -3.322,-1.969c-2.155,-1.495 -2.815,-2.361 -7.411,-2.47c-4.596,-0.108 -18.084,-0.882 -18.084,-0.882l-7.793,-0.514c0,0 -14.703,-2.315 -15.875,-2.571c-1.171,-0.255 -8.946,-0.079 -11.067,-0.167c-2.122,-0.088 -10.072,0.331 -10.072,0.331c0,0 -4.687,-0.311 -1.508,-4.317c3.179,-4.006 3.205,1.897 3.896,-5.223c0.69,-7.119 2.251,-8.437 1.47,-9.997c-0.78,-1.561 -1.007,-5.871 -1.007,-5.871c0,0 0.011,-2.403 2.609,-2.836c2.599,-0.433 3.765,-4.71 3.765,-4.71l5.367,-1.353l2.453,-1.515c0,0 1.171,6.131 0.369,9.507c-0.802,3.376 -1.011,4.799 -1.232,5.982c-0.22,1.184 -2.499,6.067 0.156,7.036c2.656,0.969 3.606,0.054 6.216,0.511c2.611,0.458 9.163,0.786 9.163,0.786l2.975,-4.01c0,0 4.266,8.141 5.49,9.268c1.223,1.126 -2.311,0.043 1.242,1.667c3.554,1.624 5.367,3.357 5.367,3.357c0,0 1.651,-3.14 1.651,-5.197c0,-2.057 -4.006,-7.362 -4.006,-7.362c0,0 0.047,-2.613 -0.68,-3.743c-0.727,-1.129 -1.335,-3.702 -1.335,-3.702l0.371,-5.181l-1.368,-2.748l1.497,-0.65l1.84,3.357l0.053,3.029c0,0 2.029,2.542 3.099,3.816c1.071,1.275 -0.263,2.614 2.84,3.947c3.103,1.333 7.866,4.148 7.866,4.148c0,0 1.451,0.519 1.321,1.992c-0.13,1.473 -0.882,3.216 1.28,4.726c2.163,1.511 -0.338,2.269 1.671,1.511c2.008,-0.758 3.656,-4.174 3.656,-4.174l0.693,-0.347c0,0 -0.825,-1.542 -0.176,-3.058c0.65,-1.516 1.087,-0.761 1.193,-2.817c0.106,-2.055 -2.149,-4.292 -2.149,-4.292l-5.319,-4.809l-6.609,-1.507l-5.517,-4.555c0,0 -2.243,-2.846 0.934,-2.339c3.176,0.506 3.883,-0.799 5.153,0.016c1.271,0.815 6.044,-0.249 6.044,-0.249l2.097,2.904l0,1.415c0,0 1.466,1.725 2.657,2.483c1.191,0.758 4.187,0.939 4.187,0.939l3.889,3.283c0,0 -0.605,0.867 2.426,0.867c3.032,0 4.439,0.433 6.713,0c2.273,-0.433 8.469,-0.277 8.469,-0.277c0,0 -0.827,-6.436 -1.509,-7.627c-0.681,-1.191 -2.159,-3.431 -2.159,-3.431c0,0 1.325,-3.019 2.159,-4.287c0.835,-1.268 -2.35,-1.16 0,-2.892c2.351,-1.732 5.367,9.203 5.367,9.203l4.346,0.866l-6.584,-16.346Z" style="fill:#194b49;"/><clipPath id="_clip5"><path d="M95.518,13.587c0,0 5.377,10.608 7.605,12.881c2.227,2.274 4.391,6.28 5.366,8.229c0.975,1.948 1.948,4.114 0,5.196c-1.948,1.083 -7.361,2.49 -9.527,4.114c-2.165,1.624 -13.06,9.34 -14.379,12.412c-1.319,3.071 -8.293,10.216 -8.293,10.216c0,0 -1.167,-0.474 -3.322,-1.969c-2.155,-1.495 -2.815,-2.361 -7.411,-2.47c-4.596,-0.108 -18.084,-0.882 -18.084,-0.882l-7.793,-0.514c0,0 -14.703,-2.315 -15.875,-2.571c-1.171,-0.255 -8.946,-0.079 -11.067,-0.167c-2.122,-0.088 -10.072,0.331 -10.072,0.331c0,0 -4.687,-0.311 -1.508,-4.317c3.179,-4.006 3.205,1.897 3.896,-5.223c0.69,-7.119 2.251,-8.437 1.47,-9.997c-0.78,-1.561 -1.007,-5.871 -1.007,-5.871c0,0 0.011,-2.403 2.609,-2.836c2.599,-0.433 3.765,-4.71 3.765,-4.71l5.367,-1.353l2.453,-1.515c0,0 1.171,6.131 0.369,9.507c-0.802,3.376 -1.011,4.799 -1.232,5.982c-0.22,1.184 -2.499,6.067 0.156,7.036c2.656,0.969 3.606,0.054 6.216,0.511c2.611,0.458 9.163,0.786 9.163,0.786l2.975,-4.01c0,0 4.266,8.141 5.49,9.268c1.223,1.126 -2.311,0.043 1.242,1.667c3.554,1.624 5.367,3.357 5.367,3.357c0,0 1.651,-3.14 1.651,-5.197c0,-2.057 -4.006,-7.362 -4.006,-7.362c0,0 0.047,-2.613 -0.68,-3.743c-0.727,-1.129 -1.335,-3.702 -1.335,-3.702l0.371,-5.181l-1.368,-2.748l1.497,-0.65l1.84,3.357l0.053,3.029c0,0 2.029,2.542 3.099,3.816c1.071,1.275 -0.263,2.614 2.84,3.947c3.103,1.333 7.866,4.148 7.866,4.148c0,0 1.451,0.519 1.321,1.992c-0.13,1.473 -0.882,3.216 1.28,4.726c2.163,1.511 -0.338,2.269 1.671,1.511c2.008,-0.758 3.656,-4.174 3.656,-4.174l0.693,-0.347c0,0 -0.825,-1.542 -0.176,-3.058c0.65,-1.516 1.087,-0.761 1.193,-2.817c0.106,-2.055 -2.149,-4.292 -2.149,-4.292l-5.319,-4.809l-6.609,-1.507l-5.517,-4.555c0,0 -2.243,-2.846 0.934,-2.339c3.176,0.506 3.883,-0.799 5.153,0.016c1.271,0.815 6.044,-0.249 6.044,-0.249l2.097,2.904l0,1.415c0,0 1.466,1.725 2.657,2.483c1.191,0.758 4.187,0.939 4.187,0.939l3.889,3.283c0,0 -0.605,0.867 2.426,0.867c3.032,0 4.439,0.433 6.713,0c2.273,-0.433 8.469,-0.277 8.469,-0.277c0,0 -0.827,-6.436 -1.509,-7.627c-0.681,-1.191 -2.159,-3.431 -2.159,-3.431c0,0 1.325,-3.019 2.159,-4.287c0.835,-1.268 -2.35,-1.16 0,-2.892c2.351,-1.732 5.367,9.203 5.367,9.203l4.346,0.866l-6.584,-16.346Z"/></clipPath><g clip-path="url(#_clip5)"><path d="M92.389,6.656l25.873,29.996l-38.546,35.373l-17.992,-1.737l-14.469,-46.431l38.36,-7.292l6.774,-9.909Z" style="fill:#95c759;fill-opacity:0.5;"/><path d="M110.398,29.851c0,0 -2.65,-1.466 -2.821,0.499c-0.17,1.965 -1.367,4.683 -1.367,4.683l-4.325,2.154l-4.129,-3.573l-1.723,-3.67l-0.452,-3.417l-0.909,0.454c0,0 -1.416,0.398 -0.241,2.162c1.175,1.764 3.325,4.471 3.325,4.471l0,2.558l1.32,4.707l-2.468,1.234l-1.603,0.801l-7.014,-0.891c0,0 -7.036,1.838 -9.076,0.829c-2.039,-1.01 -4.244,-2.122 -4.244,-2.122l-1.133,-3.182l-5.568,-2.582l-7.78,-5.141l-1.72,0.866l9.359,6.617c0,0 5.799,5.292 6.99,6.158c1.191,0.866 1.471,4.872 1.471,4.872l0,5.63c0,0 -0.696,3.932 -1.788,4.564c-1.091,0.633 -7.248,-0.045 -7.248,-0.045l-6.077,-0.621c0,0 -0.65,-3.14 -1.949,-5.955c-1.299,-2.815 -4.405,-6.28 -4.405,-6.28c0,0 -5.719,-2.168 -4.609,-1.787c1.111,0.38 4.609,8.428 4.609,8.428l-0.767,5.751l0.767,1.358c0,0 -2.605,0.487 -4.189,0.352c-1.583,-0.135 -8.295,-0.027 -8.295,-0.027l-1.898,-3.892c0,0 3.979,-2.712 -1.717,-3.903c-5.696,-1.191 -10.775,-2.598 -5.367,-1.191c5.409,1.408 0,4.331 0,4.331l-10.733,-0.109l0,-2.67l-1.345,-4.694c0,0 -6.95,2.537 -6.587,0.728c0.363,-1.808 1.662,-7.005 1.662,-7.005l-0.324,-11.26l-4.139,10.177l0,4.764l-1.356,1.245l-1.233,-12.378l-3.835,-5.197l-9.676,10.204c0,0 -6.178,12.189 -5.366,15.437c0.812,3.248 -6.659,14.508 4.384,14.508c11.044,0 44.429,-1.291 49.281,-0.429c4.853,0.862 37.566,2.683 37.566,2.683l16.1,-15.03c0,0 15.078,-7.687 16.1,-9.96c1.022,-2.274 -3.458,-16.214 -3.458,-16.214Z" style="fill:#9b9a87;"/><clipPath id="_clip6"><path d="M110.398,29.851c0,0 -2.65,-1.466 -2.821,0.499c-0.17,1.965 -1.367,4.683 -1.367,4.683l-4.325,2.154l-4.129,-3.573l-1.723,-3.67l-0.452,-3.417l-0.909,0.454c0,0 -1.416,0.398 -0.241,2.162c1.175,1.764 3.325,4.471 3.325,4.471l0,2.558l1.32,4.707l-2.468,1.234l-1.603,0.801l-7.014,-0.891c0,0 -7.036,1.838 -9.076,0.829c-2.039,-1.01 -4.244,-2.122 -4.244,-2.122l-1.133,-3.182l-5.568,-2.582l-7.78,-5.141l-1.72,0.866l9.359,6.617c0,0 5.799,5.292 6.99,6.158c1.191,0.866 1.471,4.872 1.471,4.872l0,5.63c0,0 -0.696,3.932 -1.788,4.564c-1.091,0.633 -7.248,-0.045 -7.248,-0.045l-6.077,-0.621c0,0 -0.65,-3.14 -1.949,-5.955c-1.299,-2.815 -4.405,-6.28 -4.405,-6.28c0,0 -5.719,-2.168 -4.609,-1.787c1.111,0.38 4.609,8.428 4.609,8.428l-0.767,5.751l0.767,1.358c0,0 -2.605,0.487 -4.189,0.352c-1.583,-0.135 -8.295,-0.027 -8.295,-0.027l-1.898,-3.892c0,0 3.979,-2.712 -1.717,-3.903c-5.696,-1.191 -10.775,-2.598 -5.367,-1.191c5.409,1.408 0,4.331 0,4.331l-10.733,-0.109l0,-2.67l-1.345,-4.694c0,0 -6.95,2.537 -6.587,0.728c0.363,-1.808 1.662,-7.005 1.662,-7.005l-0.324,-11.26l-4.139,10.177l0,4.764l-1.356,1.245l-1.233,-12.378l-3.835,-5.197l-9.676,10.204c0,0 -6.178,12.189 -5.366,15.437c0.812,3.248 -6.659,14.508 4.384,14.508c11.044,0 44.429,-1.291 49.281,-0.429c4.853,0.862 37.566,2.683 37.566,2.683l16.1,-15.03c0,0 15.078,-7.687 16.1,-9.96c1.022,-2.274 -3.458,-16.214 -3.458,-16.214Z"/></clipPath><g clip-path="url(#_clip6)"><path d="M92.389,6.656l25.873,29.996l-38.546,35.373l-17.992,-1.737l-14.469,-46.431l38.36,-7.292l6.774,-9.909Z" style="fill:#95c759;fill-opacity:0.5;"/></g><path d="M33.357,32.456l-22.748,29.908l-18.78,-0.061l0.905,-34.528c0,0 10.951,-1.725 13.79,-2.833c2.84,-1.109 21.467,-2.186 21.467,-2.186l5.366,9.7Z" style="fill:#191919;fill-opacity:0.5;"/></g></g></g></svg>