<?xml version="1.0" encoding="UTF-8" standalone="no"?><!DOCTYPE svg PUBLIC "-//W3C//DTD SVG 1.1//EN" "http://www.w3.org/Graphics/SVG/1.1/DTD/svg11.dtd"><svg width="100%" height="100%" viewBox="0 0 96 89" version="1.1" xmlns="http://www.w3.org/2000/svg" xmlns:xlink="http://www.w3.org/1999/xlink" xml:space="preserve" xmlns:serif="http://www.serif.com/" style="fill-rule:evenodd;clip-rule:evenodd;stroke-linejoin:round;stroke-miterlimit:1.41421;"><g id="rock-runes-mossy11"><g id="rock-mossy12"><g id="rock-runes-highlights12"><g id="rock-highlights12"><g><g><path d="M65.219,22.15l16.1,8.049l-10.733,26.833l-21.467,-10.733l16.1,-24.149Z" style="fill:#4c805b;"/><clipPath id="_clip1"><path d="M65.219,22.15l16.1,8.049l-10.733,26.833l-21.467,-10.733l16.1,-24.149Z"/></clipPath><g clip-path="url(#_clip1)"><path d="M81.319,30.199l-11.513,23.91l-17.481,-8.543l12.894,-23.416l-10.733,-21.467l-7.118,39.374l-27.949,-31.668l-2.499,0.344l29.156,37.229l-29.156,26.024l0,1.146l32.199,-23.531l19.354,8.487l-8.62,25.777l11.851,-24.061l20.348,7.961l-19.212,-11.86l8.479,-25.706Z" style="fill:#95d767;"/></g><path d="M81.319,30.199l10.733,26.833l0,10.733l-21.466,-10.733l10.733,-26.833Z" style="fill:#95d767;"/><clipPath id="_clip2"><path d="M81.319,30.199l10.733,26.833l0,10.733l-21.466,-10.733l10.733,-26.833Z"/></clipPath><g clip-path="url(#_clip2)"><path d="M81.319,30.199l-11.513,23.91l-17.481,-8.543l12.894,-23.416l-10.733,-21.467l-7.118,39.374l-27.949,-31.668l-2.499,0.344l29.156,37.229l-29.156,26.024l0,1.146l32.199,-23.531l19.354,8.487l-8.62,25.777l11.851,-24.061l20.348,7.961l-19.212,-11.86l8.479,-25.706Z" style="fill:#95d767;"/></g><path d="M70.586,57.032l21.466,10.733l0,10.733l-32.199,5.367l10.733,-26.833" style="fill:#4c805b;"/><clipPath id="_clip3"><path d="M70.586,57.032l21.466,10.733l0,10.733l-32.199,5.367l10.733,-26.833"/></clipPath><g clip-path="url(#_clip3)"><path d="M81.319,30.199l-11.513,23.91l-17.481,-8.543l12.894,-23.416l-10.733,-21.467l-7.118,39.374l-27.949,-31.668l-2.499,0.344l29.156,37.229l-29.156,26.024l0,1.146l32.199,-23.531l19.354,8.487l-8.62,25.777l11.851,-24.061l20.348,7.961l-19.212,-11.86l8.479,-25.706Z" style="fill:#95d767;"/></g><path d="M70.586,57.032l-10.733,26.833l-32.2,0l-10.733,-10.733l32.199,-26.833l21.467,10.733Z" style="fill:#3f673c;"/><clipPath id="_clip4"><path d="M70.586,57.032l-10.733,26.833l-32.2,0l-10.733,-10.733l32.199,-26.833l21.467,10.733Z"/></clipPath><g clip-path="url(#_clip4)"><path d="M81.319,30.199l-11.513,23.91l-17.481,-8.543l12.894,-23.416l-10.733,-21.467l-7.118,39.374l-27.949,-31.668l-2.499,0.344l29.156,37.229l-29.156,26.024l0,1.146l32.199,-23.531l19.354,8.487l-8.62,25.777l11.851,-24.061l20.348,7.961l-19.212,-11.86l8.479,-25.706Z" style="fill:#95d767;"/></g><path d="M59.853,8.733l-5.367,-8.05l-5.367,45.616l16.1,-24.149l-5.366,-13.417Z" style="fill:#95d767;"/><clipPath id="_clip5"><path d="M59.853,8.733l-5.367,-8.05l-5.367,45.616l16.1,-24.149l-5.366,-13.417Z"/></clipPath><g clip-path="url(#_clip5)"><path d="M81.319,30.199l-11.513,23.91l-17.481,-8.543l12.894,-23.416l-10.733,-21.467l-7.118,39.374l-27.949,-31.668l-2.499,0.344l29.156,37.229l-29.156,26.024l0,1.146l32.199,-23.531l19.354,8.487l-8.62,25.777l11.851,-24.061l20.348,7.961l-19.212,-11.86l8.479,-25.706Z" style="fill:#95d767;"/></g><path d="M54.486,0.683l-26.833,2.684l-10.733,5.366l32.199,37.566l5.367,-45.616Z" style="fill:#4c805b;"/><clipPath id="_clip6"><path d="M54.486,0.683l-26.833,2.684l-10.733,5.366l32.199,37.566l5.367,-45.616Z"/></clipPath><g clip-path="url(#_clip6)"><path d="M81.319,30.199l-11.513,23.91l-17.481,-8.543l12.894,-23.416l-10.733,-21.467l-7.118,39.374l-27.949,-31.668l-2.499,0.344l29.156,37.229l-29.156,26.024l0,1.146l32.199,-23.531l19.354,8.487l-8.62,25.777l11.851,-24.061l20.348,7.961l-19.212,-11.86l8.479,-25.706Z" style="fill:#95d767;"/></g><path d="M16.92,8.733l-10.733,48.299l10.733,16.1l32.199,-26.833l-32.199,-37.566" style="fill:#194b49;"/><clipPath id="_clip7"><path d="M16.92,8.733l-10.733,48.299l10.733,16.1l32.199,-26.833l-32.199,-37.566"/></clipPath><g clip-path="url(#_clip7)"><path d="M81.319,30.199l-11.513,23.91l-17.481,-8.543l12.894,-23.416l-10.733,-21.467l-7.118,39.374l-27.949,-31.668l-2.499,0.344l29.156,37.229l-29.156,26.024l0,1.146l32.199,-23.531l19.354,8.487l-8.62,25.777l11.851,-24.061l20.348,7.961l-19.212,-11.86l8.479,-25.706Z" style="fill:#95d767;"/></g></g></g></g><path d="M92.052,56.704l-16.1,-8.05l-1.478,-0.739l-3.888,-18.044l-7.663,-3.831l-8.437,-18.489l-16.1,0.854l-10.733,10.733l16.1,13.416l5.366,-13.416l-9.895,-0.419l4.529,3.102l-0.96,4.887l-9.773,-7.717l5.366,-6.841l13.852,3.181l7.615,14.54l6.846,3.423l3.887,23.41l10.733,0l10.733,5.366l0,-5.366Z" style="fill:#13190f;fill-opacity:0.65;"/><path d="M11.554,32.554l21.466,10.733l5.366,12.381l16.1,3.719l10.733,10.733l11.115,-5.175l15.718,7.859l0,5.366l-10.733,-5.366l-18.002,3.634l-10.609,-11.493l-18.198,-6.303l-6.857,-12.671l-17.84,-3.554l1.741,-9.863Z" style="fill:#090705;fill-opacity:0.5;"/><path d="M16.92,72.804l10.733,-5.367l10.733,5.367l5.367,8.049l0,3.367l-3.639,0.181l-1.728,-4.847l-10.733,-7.538l-7.338,4.457l3.654,3.539l3.684,-1.842l5.367,2.683l0,3.277l-5.367,0.179l-10.733,-11.505Z" style="fill:#090705;fill-opacity:0.5;"/></g><path d="M90.212,69.576l1.84,-0.92l0,-10.733l3.084,1.542l0.641,16.421l-1.383,2.333l0.909,2.796l-5.715,2.509c0,0 2.301,1.254 -1.463,0.836c-3.763,-0.418 -8.712,-0.557 -8.712,-0.557l-3.461,-0.14l-5.366,1.093c0,0 -4.158,0.161 -5.367,0.998c-1.208,0.836 0.324,-0.556 -3.091,0.14c-3.414,0.696 6.809,-1.3 -5.481,0.465c-12.29,1.764 -12.894,1.08 -12.894,1.08c0,0 -3.113,1.102 -5.367,1.102c-2.253,0 -3.996,-0.417 -3.996,-0.417l-3.056,0.158l-6.05,-2.341c0,0 0.534,1.485 -1.696,-1.721c-2.231,-3.206 -2.287,-2.953 -4.42,-3.706c-2.132,-0.754 -1.11,4.081 -2.248,-1.125c-1.138,-5.205 -1.181,-5.956 -1.181,-5.956c0,0 -2.997,-2.23 -6.634,-3.318c-3.638,-1.088 -4.907,-2.453 -4.907,-2.453l-1.45,-0.725l0.011,-1.933l-0.777,-2.389c0,0 -2.184,0.165 -1.162,-2.009c1.023,-2.173 2.137,-1.613 1.928,-4.402c-0.208,-2.789 -0.208,-4.183 -0.208,-4.183l3.647,-7.806l3.747,-3.912l-2.193,10.231l2.748,-3.596l5.514,-0.207c0,0 2.242,-0.629 2.255,1.128c0.014,1.757 -0.914,1.4 0.799,4.755c1.713,3.354 3.23,4.496 3.23,4.496l5.366,-3.14c0,0 1.716,2.355 2.698,2.604c0.981,0.25 4.835,-0.251 4.835,-0.251l1.285,0.643l3.934,7.333c0,0 -3.266,3.212 -3.814,5.255c-0.549,2.043 -1.494,2.079 0.977,4.06c2.471,1.98 2.774,2.961 9.197,3.229c6.423,0.267 10.232,-1.392 10.232,-1.392l4.469,-0.622c0,0 -1.037,-0.068 0.606,0.304c1.643,0.372 2.034,1.017 2.034,1.017c0,0 0.101,-0.107 2.175,0.025c2.073,0.133 -0.068,0.133 3.322,0.133c3.39,0 0.771,-0.064 7.21,-0.032c6.439,0.032 6.548,-0.097 9.214,0.101c2.667,0.198 0.396,-3.468 1.933,-4.4c1.537,-0.933 2.252,-2.401 2.252,-2.401Z" style="fill:#194b49;"/><clipPath id="_clip8"><path d="M90.212,69.576l1.84,-0.92l0,-10.733l3.084,1.542l0.641,16.421l-1.383,2.333l0.909,2.796l-5.715,2.509c0,0 2.301,1.254 -1.463,0.836c-3.763,-0.418 -8.712,-0.557 -8.712,-0.557l-3.461,-0.14l-5.366,1.093c0,0 -4.158,0.161 -5.367,0.998c-1.208,0.836 0.324,-0.556 -3.091,0.14c-3.414,0.696 6.809,-1.3 -5.481,0.465c-12.29,1.764 -12.894,1.08 -12.894,1.08c0,0 -3.113,1.102 -5.367,1.102c-2.253,0 -3.996,-0.417 -3.996,-0.417l-3.056,0.158l-6.05,-2.341c0,0 0.534,1.485 -1.696,-1.721c-2.231,-3.206 -2.287,-2.953 -4.42,-3.706c-2.132,-0.754 -1.11,4.081 -2.248,-1.125c-1.138,-5.205 -1.181,-5.956 -1.181,-5.956c0,0 -2.997,-2.23 -6.634,-3.318c-3.638,-1.088 -4.907,-2.453 -4.907,-2.453l-1.45,-0.725l0.011,-1.933l-0.777,-2.389c0,0 -2.184,0.165 -1.162,-2.009c1.023,-2.173 2.137,-1.613 1.928,-4.402c-0.208,-2.789 -0.208,-4.183 -0.208,-4.183l3.647,-7.806l3.747,-3.912l-2.193,10.231l2.748,-3.596l5.514,-0.207c0,0 2.242,-0.629 2.255,1.128c0.014,1.757 -0.914,1.4 0.799,4.755c1.713,3.354 3.23,4.496 3.23,4.496l5.366,-3.14c0,0 1.716,2.355 2.698,2.604c0.981,0.25 4.835,-0.251 4.835,-0.251l1.285,0.643l3.934,7.333c0,0 -3.266,3.212 -3.814,5.255c-0.549,2.043 -1.494,2.079 0.977,4.06c2.471,1.98 2.774,2.961 9.197,3.229c6.423,0.267 10.232,-1.392 10.232,-1.392l4.469,-0.622c0,0 -1.037,-0.068 0.606,0.304c1.643,0.372 2.034,1.017 2.034,1.017c0,0 0.101,-0.107 2.175,0.025c2.073,0.133 -0.068,0.133 3.322,0.133c3.39,0 0.771,-0.064 7.21,-0.032c6.439,0.032 6.548,-0.097 9.214,0.101c2.667,0.198 0.396,-3.468 1.933,-4.4c1.537,-0.933 2.252,-2.401 2.252,-2.401Z"/></clipPath><g clip-path="url(#_clip8)"><path d="M99.855,61.824l-10.697,-9.133l-18.572,14.636l-5.367,4.013l-5.366,18.783l37.566,-4.852l2.436,-23.447" style="fill:#95c759;fill-opacity:0.5;"/><path d="M97.419,57.869l-3.33,4.402l0.279,10.594l-2.316,2.958l-2.951,3.456l-5.464,2.677l-7.685,1.115l-10.733,0.78c0,0 -8.212,-0.824 -9.673,-1.248c-1.46,-0.424 -2.319,-1.16 -2.319,-1.16c0,0 -0.817,-1.054 -6.335,-0.94c-5.518,0.115 -8.506,0.115 -8.506,0.115c0,0 -0.327,2.068 -2.74,0.142c-2.413,-1.927 -3.16,-3.108 -4.459,-4.97c-1.299,-1.863 -3.534,-2.755 -3.534,-2.755c0,0 -4.01,0.892 -2.003,-1.338c2.008,-2.231 4.091,-4.085 4.091,-4.085l0.258,-1.268l0.446,-2.676c0,0 -0.454,-0.868 -2.792,-0.378c-2.337,0.489 -5.366,3.946 -5.366,3.946l0,1.115c0,0 -1.543,4.684 -1.878,0.112c-0.334,-4.572 -0.403,-6.716 -0.403,-6.716c0,0 0.515,-1.09 -1.715,-2.094c-2.231,-1.003 -6.226,-1.216 -6.737,0.953c-0.512,2.17 0,5.367 0,5.367c0,0 -4.758,-2.194 -5.367,-5.428c-0.609,-3.233 0,-5.352 0,-5.352l0,-4.349l-7.167,-0.07l-3.566,12.516c0,0 15.384,13.982 16.1,14.651c0.715,0.669 12.424,12.49 12.424,12.49l39.252,0.111l32.538,-2.277l4.634,-10.067l-2.983,-20.329Z" style="fill:#9b9a87;"/><clipPath id="_clip9"><path d="M97.419,57.869l-3.33,4.402l0.279,10.594l-2.316,2.958l-2.951,3.456l-5.464,2.677l-7.685,1.115l-10.733,0.78c0,0 -8.212,-0.824 -9.673,-1.248c-1.46,-0.424 -2.319,-1.16 -2.319,-1.16c0,0 -0.817,-1.054 -6.335,-0.94c-5.518,0.115 -8.506,0.115 -8.506,0.115c0,0 -0.327,2.068 -2.74,0.142c-2.413,-1.927 -3.16,-3.108 -4.459,-4.97c-1.299,-1.863 -3.534,-2.755 -3.534,-2.755c0,0 -4.01,0.892 -2.003,-1.338c2.008,-2.231 4.091,-4.085 4.091,-4.085l0.258,-1.268l0.446,-2.676c0,0 -0.454,-0.868 -2.792,-0.378c-2.337,0.489 -5.366,3.946 -5.366,3.946l0,1.115c0,0 -1.543,4.684 -1.878,0.112c-0.334,-4.572 -0.403,-6.716 -0.403,-6.716c0,0 0.515,-1.09 -1.715,-2.094c-2.231,-1.003 -6.226,-1.216 -6.737,0.953c-0.512,2.17 0,5.367 0,5.367c0,0 -4.758,-2.194 -5.367,-5.428c-0.609,-3.233 0,-5.352 0,-5.352l0,-4.349l-7.167,-0.07l-3.566,12.516c0,0 15.384,13.982 16.1,14.651c0.715,0.669 12.424,12.49 12.424,12.49l39.252,0.111l32.538,-2.277l4.634,-10.067l-2.983,-20.329Z"/></clipPath><g clip-path="url(#_clip9)"><path d="M99.855,61.824l-10.697,-9.133l-18.572,14.636l-5.367,4.013l-5.366,18.783l37.566,-4.852l2.436,-23.447" style="fill:#95c759;fill-opacity:0.5;"/></g><path d="M31.817,76.195l13.663,-9.914l-18.511,-21.077l-5.049,-6.063l-25.505,-7.935l3.161,39.497l32.241,5.492" style="fill:#191919;fill-opacity:0.5;"/></g></g></g></svg>