<?xml version="1.0" encoding="UTF-8" standalone="no"?><!DOCTYPE svg PUBLIC "-//W3C//DTD SVG 1.1//EN" "http://www.w3.org/Graphics/SVG/1.1/DTD/svg11.dtd"><svg width="100%" height="100%" viewBox="0 0 92 144" version="1.1" xmlns="http://www.w3.org/2000/svg" xmlns:xlink="http://www.w3.org/1999/xlink" xml:space="preserve" xmlns:serif="http://www.serif.com/" style="fill-rule:evenodd;clip-rule:evenodd;stroke-linejoin:round;stroke-miterlimit:1.41421;"><g id="sign03"><g><path d="M53.268,6.722l0,134.164l-5.367,2.683l0,-134.164l5.367,-2.683Z" style="fill:#7e7d39;"/><path d="M42.535,6.722l0,134.164l5.366,2.683l0,-134.164l-5.366,-2.683" style="fill:#1c433d;"/><path d="M53.268,6.722l-5.367,-2.684l-5.366,2.684l5.366,2.683l5.367,-2.683" style="fill:#65883c;"/></g><g><path d="M86.119,37.595l-80.498,-34.883l0,10.733l-5.367,8.05l69.766,34.883l21.466,0l-5.367,-18.783Z" style="fill:#646742;"/><clipPath id="_clip1"><path d="M86.119,37.595l-80.498,-34.883l0,10.733l-5.367,8.05l69.766,34.883l21.466,0l-5.367,-18.783Z"/></clipPath><g clip-path="url(#_clip1)"><path d="M67.244,50.601c0,0 8.513,2.466 10.146,3.657c1.632,1.191 -0.772,3.074 -0.042,3.254c0.729,0.181 -0.22,2.593 -0.22,2.593c0,0 -0.403,1.265 -2.452,-0.154c-2.048,-1.419 -1.068,-2.252 -2.57,-4.143c-1.502,-1.891 -1.308,-3.653 -6.189,-5.862c-4.938,-2.234 -7.249,-0.805 -11.361,-4.852c-4.133,-4.066 -4.706,-5.481 -7.381,-6.963" style="fill:none;"/></g><path d="M6.813,8.675c0,0 7.536,0.594 8.731,4.365c1.194,3.771 6.56,6.802 10.856,7.308c4.295,0.506 4.734,2.923 15.103,8.548c10.368,5.626 20.011,8.48 22.168,8.208c2.157,-0.272 3.697,-0.079 11.975,3.867c8.278,3.947 9.952,5.005 11.666,5.775c1.714,0.77 2.974,-0.333 2.974,-0.333" style="fill:none;"/><path d="M89.723,51.893c0,0 -18.457,-4.119 -19.443,-4.119c-0.986,0 -6.419,-1.725 -9.801,-3.573c-3.382,-1.848 -15.502,-6.008 -17.05,-6.485c-1.548,-0.476 -9.68,-3.865 -12.39,-5.589c-2.711,-1.725 -8.128,-5.799 -11.118,-6.165c-2.989,-0.365 -7.178,-1.967 -9.642,-4.062c-2.465,-2.094 -4.682,-4.065 -5.298,-4.312c-0.616,-0.246 -1.439,-1.173 -1.439,-1.173" style="fill:none;"/><path d="M14.213,19.424c0,0 -0.989,-0.986 -2.716,-2.035c-1.727,-1.049 -3.941,-1.802 -4.684,-1.92c-0.742,-0.118 0,-2.602 0,-2.602c0,0 0.296,-1.294 2.456,-0.053c2.161,1.241 1.255,2.153 2.911,3.911c1.656,1.758 1.56,3.683 6.661,5.319c5.102,1.636 7.289,0.149 11.73,3.877c4.441,3.727 4.634,5.075 7.425,6.326" style="fill:none;"/><path d="M55.434,29.083c0,0 0.903,1.066 2.535,2.257c1.632,1.19 3.775,2.128 4.505,2.308c0.73,0.18 -0.22,2.593 -0.22,2.593c0,0 -0.403,1.265 -2.451,-0.154c-2.049,-1.419 -1.069,-2.252 -2.571,-4.143c-1.502,-1.891 -1.308,-3.653 -6.189,-5.862c-4.938,-2.235 -7.249,-0.806 -11.361,-4.852c-4.133,-4.067 -4.189,-5.448 -6.865,-6.93" style="fill:none;"/><path d="M10.988,0.029l80.498,34.883l-5.367,2.683l-80.498,-34.883l5.367,-2.683Z" style="fill:#758e55;"/><clipPath id="_clip2"><path d="M10.988,0.029l80.498,34.883l-5.367,2.683l-80.498,-34.883l5.367,-2.683Z"/></clipPath><g clip-path="url(#_clip2)"><path d="M113.856,40.73c0,0 -21.369,-4.902 -22.61,-4.911c-1.241,-0.01 -8.065,-2.135 -12.305,-4.386c-4.241,-2.251 -19.46,-7.364 -21.404,-7.952c-1.945,-0.587 -12.151,-4.734 -15.547,-6.831c-3.396,-2.096 -10.177,-7.038 -13.938,-7.507c-3.76,-0.469 -9.019,-2.433 -12.101,-4.97c-3.083,-2.538 -5.856,-4.925 -6.629,-5.227c-0.773,-0.302 -1.801,-1.423 -1.801,-1.423" style="fill:none;"/></g><path d="M91.486,56.378l0,-21.466l-5.367,2.683l5.367,18.783Z" style="fill:#1c433d;"/></g><g><g transform="matrix(0.918202,0.396112,-0.0758996,1.05634,-144.771,466.746)"><text x="128.17px" y="-467.35px" style="font-family:'OldEnglishTextMT', 'Old English Text MT', cursive;font-size:23.723px;fill:#65883c;">S<tspan x="155.157px 164.132px 178.461px 191.12px " y="-467.35px -467.35px -467.35px -467.35px ">tart</tspan></text></g><g transform="matrix(0.918202,0.396112,-0.0758996,1.05634,-144.603,466.249)"><text x="129.277px" y="-466.326px" style="font-family:'OldEnglishTextMT', 'Old English Text MT', cursive;font-size:23.723px;fill:#091109;">S<tspan x="156.264px 165.24px 179.568px 192.227px " y="-466.326px -466.326px -466.326px -466.326px ">tart</tspan></text></g><g transform="matrix(0.918202,0.396112,-0.0758996,1.05634,-144.401,465.624)"><text x="130.696px" y="-465.197px" style="font-family:'OldEnglishTextMT', 'Old English Text MT', cursive;font-size:23.723px;fill:#091109;fill-opacity:0.3;">S<tspan x="157.683px 166.659px 180.987px 193.646px " y="-465.197px -465.197px -465.197px -465.197px ">tart</tspan></text></g></g></g></svg>