<?xml version="1.0" encoding="UTF-8" standalone="no"?><!DOCTYPE svg PUBLIC "-//W3C//DTD SVG 1.1//EN" "http://www.w3.org/Graphics/SVG/1.1/DTD/svg11.dtd"><svg width="100%" height="100%" viewBox="0 0 92 62" version="1.1" xmlns="http://www.w3.org/2000/svg" xmlns:xlink="http://www.w3.org/1999/xlink" xml:space="preserve" xmlns:serif="http://www.serif.com/" style="fill-rule:evenodd;clip-rule:evenodd;stroke-linejoin:round;stroke-miterlimit:1.41421;"><g id="trunk03"><path d="M4.781,54.817l13.684,6.842l68.424,-38.773l-9.123,-9.124l-72.985,41.055" style="fill:#7e7d39;"/><clipPath id="_clip1"><path d="M4.781,54.817l13.684,6.842l68.424,-38.773l-9.123,-9.124l-72.985,41.055"/></clipPath><g clip-path="url(#_clip1)"><path d="M-3.082,45.063l11.051,0.445l15.058,2.945l11.778,7.691l26.597,-11.392l-40.626,-29.864l-23.858,30.175Z" style="fill:#13190f;fill-opacity:0.528571;"/></g><path d="M4.781,32.009l-4.562,11.404l71.542,-35.771l-19.541,0.647l-47.439,23.72Z" style="fill:#1c433d;"/><clipPath id="_clip2"><path d="M4.781,32.009l-4.562,11.404l71.542,-35.771l-19.541,0.647l-47.439,23.72Z"/></clipPath><g clip-path="url(#_clip2)"><path d="M-3.082,45.063l11.051,0.445l15.058,2.945l11.778,7.691l26.597,-11.392l-40.626,-29.864l-23.858,30.175Z" style="fill:#13190f;fill-opacity:0.528571;"/></g><path d="M0.219,43.413l4.562,11.404l59.3,-25.089l-18.246,-9.123l-45.616,22.808" style="fill:#65883c;"/><clipPath id="_clip3"><path d="M0.219,43.413l4.562,11.404l59.3,-25.089l-18.246,-9.123l-45.616,22.808"/></clipPath><g clip-path="url(#_clip3)"><path d="M-3.082,45.063l11.051,0.445l15.058,2.945l11.778,7.691l26.597,-11.392l-40.626,-29.864l-23.858,30.175Z" style="fill:#13190f;fill-opacity:0.528571;"/></g><path d="M68.643,0.078l-63.862,31.931l13.684,2.281l63.863,-31.931l-13.685,-2.281Z" style="fill:#7e7d39;"/><path d="M82.328,2.359l9.123,4.561l-63.862,31.931l-9.124,-4.561l63.863,-31.931" style="fill:#65883c;"/><path d="M91.451,6.92l0,9.123l-59.301,34.212l-4.561,-11.404l63.862,-31.931" style="fill:#7e7d39;"/><path d="M86.889,22.886l4.562,-6.843l-59.301,34.212l-13.685,11.404l68.424,-38.773Z" style="fill:#1c433d;"/><path d="M4.781,32.009l0,4.561l13.684,2.281l0,-4.561l-13.684,-2.281Z" style="fill:#7e7d39;"/><path d="M26.44,43.987l1.149,-5.136l-9.124,-4.561l0,4.561l7.975,5.136Z" style="fill:#65883c;"/><path d="M32.15,50.255l-4.561,-1.201l-1.267,-5.008l1.267,-5.195l4.561,11.404" style="fill:#7e7d39;"/><path d="M27.589,49.054l-9.124,8.043l0,4.562l13.685,-11.404l-4.561,-1.201Z" style="fill:#7e7d39;"/><path d="M18.465,57.097l-12.024,-6.012l-1.66,3.732l13.684,6.842l0,-4.562Z" style="fill:#7e7d39;"/><path d="M0.219,43.413l3.505,-0.221l2.833,7.951l-1.776,3.674l-4.562,-11.404Z" style="fill:#65883c;"/><path d="M3.724,43.192l2.564,-6.622l-1.507,-4.561l-4.562,11.404l3.505,-0.221Z" style="fill:#1c433d;"/></g></svg>