<?xml version="1.0" encoding="UTF-8" standalone="no"?><!DOCTYPE svg PUBLIC "-//W3C//DTD SVG 1.1//EN" "http://www.w3.org/Graphics/SVG/1.1/DTD/svg11.dtd"><svg width="100%" height="100%" viewBox="0 0 23 64" version="1.1" xmlns="http://www.w3.org/2000/svg" xmlns:xlink="http://www.w3.org/1999/xlink" xml:space="preserve" xmlns:serif="http://www.serif.com/" style="fill-rule:evenodd;clip-rule:evenodd;stroke-linecap:round;stroke-linejoin:round;stroke-miterlimit:1.5;"><g id="cactus14"><path d="M22.909,44.365l0,-22.391l-2.799,-9.796l-5.598,-5.597l-2.798,-1.4l-2.799,1.4l-5.598,5.597l-2.799,9.796l0,39.184l5.598,2.799l11.195,0l5.598,-2.799l0,-16.793Z" style="fill:#deb752;"/><clipPath id="_clip1"><path d="M22.909,44.365l0,-22.391l-2.799,-9.796l-5.598,-5.597l-2.798,-1.4l-2.799,1.4l-5.598,5.597l-2.799,9.796l0,39.184l5.598,2.799l11.195,0l5.598,-2.799l0,-16.793Z"/></clipPath><g clip-path="url(#_clip1)"><path d="M20.601,-2.876c9.707,6.793 14.58,16.605 10.876,21.898c-3.704,5.293 -14.592,4.075 -24.298,-2.717c-9.707,-6.793 -14.581,-16.606 -10.876,-21.899c3.704,-5.293 14.592,-4.075 24.298,2.718Z" style="fill:#daa459;fill-opacity:0.5;"/><path d="M24.244,3.05l-12.53,1.248l-0.891,62.903l17.683,-3.244l-4.262,-60.907Z" style="fill:#d3d277;stroke:#000;stroke-width:1px;"/><path d="M6.116,24.773l2.799,-18.192l2.799,-1.4l2.798,1.4l2.799,18.192l0,22.391l-2.799,18.192l-5.597,0l-2.799,-18.192l0,-22.391Z" style="fill:#983b11;"/><clipPath id="_clip2"><path d="M6.116,24.773l2.799,-18.192l2.799,-1.4l2.798,1.4l2.799,18.192l0,22.391l-2.799,18.192l-5.597,0l-2.799,-18.192l0,-22.391Z"/></clipPath><g clip-path="url(#_clip2)"><path d="M20.601,-2.876c9.707,6.793 14.58,16.605 10.876,21.898c-3.704,5.293 -14.592,4.075 -24.298,-2.717c-9.707,-6.793 -14.581,-16.606 -10.876,-21.899c3.704,-5.293 14.592,-4.075 24.298,2.718Z" style="fill:#daa459;fill-opacity:0.5;"/></g></g><g><circle cx="11.699" cy="3.568" r="3.548" style="fill:#e4ff98;"/></g><g><circle cx="14.952" cy="10.489" r="1.708" style="fill:#777ea9;"/><circle cx="16.22" cy="17.726" r="1.708" style="fill:#777ea9;"/><circle cx="17.311" cy="24.956" r="1.708" style="fill:#777ea9;"/><circle cx="17.311" cy="32.28" r="1.708" style="fill:#777ea9;"/><circle cx="17.311" cy="47.355" r="1.708" style="fill:#777ea9;"/><circle cx="16.22" cy="54.126" r="1.708" style="fill:#777ea9;"/><circle cx="15.105" cy="60.944" r="1.708" style="fill:#777ea9;"/><circle cx="17.311" cy="39.656" r="1.708" style="fill:#777ea9;"/></g><g><g><circle cx="8.445" cy="10.489" r="1.708" style="fill:#777ea9;"/><circle cx="7.177" cy="17.726" r="1.708" style="fill:#777ea9;"/><circle cx="6.086" cy="24.956" r="1.708" style="fill:#777ea9;"/><circle cx="6.086" cy="32.28" r="1.708" style="fill:#777ea9;"/><circle cx="6.086" cy="47.355" r="1.708" style="fill:#777ea9;"/><circle cx="7.177" cy="54.126" r="1.708" style="fill:#777ea9;"/><circle cx="8.292" cy="60.944" r="1.708" style="fill:#777ea9;"/><circle cx="6.086" cy="39.656" r="1.708" style="fill:#777ea9;"/></g></g><g><g opacity="0.3"><circle cx="8.445" cy="10.489" r="1.708" style="fill:#1d0705;"/><circle cx="7.177" cy="17.726" r="1.708" style="fill:#1d0705;"/><circle cx="6.086" cy="24.956" r="1.708" style="fill:#1d0705;"/><circle cx="6.086" cy="32.28" r="1.708" style="fill:#1d0705;"/><circle cx="6.086" cy="47.355" r="1.708" style="fill:#1d0705;"/><circle cx="7.177" cy="54.126" r="1.708" style="fill:#1d0705;"/><circle cx="8.292" cy="60.944" r="1.708" style="fill:#1d0705;"/><circle cx="6.086" cy="39.656" r="1.708" style="fill:#1d0705;"/></g></g></g></svg>