<?xml version="1.0" encoding="UTF-8" standalone="no"?><!DOCTYPE svg PUBLIC "-//W3C//DTD SVG 1.1//EN" "http://www.w3.org/Graphics/SVG/1.1/DTD/svg11.dtd"><svg width="100%" height="100%" viewBox="0 0 37 65" version="1.1" xmlns="http://www.w3.org/2000/svg" xmlns:xlink="http://www.w3.org/1999/xlink" xml:space="preserve" xmlns:serif="http://www.serif.com/" style="fill-rule:evenodd;clip-rule:evenodd;stroke-linecap:round;stroke-linejoin:round;stroke-miterlimit:1.5;"><g id="cactus13"><path d="M29.486,44.981l0,-22.391l-2.799,-9.796l-5.597,-5.597l-2.799,-1.4l-2.799,1.4l-5.598,5.597l-2.799,9.796l0,39.184l5.598,2.798l11.195,0l5.598,-2.798l0,-16.793Z" style="fill:#deb752;"/><clipPath id="_clip1"><path d="M29.486,44.981l0,-22.391l-2.799,-9.796l-5.597,-5.597l-2.799,-1.4l-2.799,1.4l-5.598,5.597l-2.799,9.796l0,39.184l5.598,2.798l11.195,0l5.598,-2.798l0,-16.793Z"/></clipPath><g clip-path="url(#_clip1)"><path d="M30.821,3.666l-12.53,1.247l-0.891,62.903l17.684,-3.244l-4.263,-60.906Z" style="fill:#d3d277;stroke:#000;stroke-width:1px;"/><path d="M33.559,4.662c9.707,6.793 14.58,16.605 10.876,21.898c-3.704,5.293 -14.592,4.076 -24.299,-2.717c-9.707,-6.793 -14.58,-16.606 -10.876,-21.899c3.704,-5.292 14.592,-4.075 24.299,2.718Z" style="fill:#daa459;fill-opacity:0.5;"/><path d="M12.693,25.389l2.799,-18.192l2.799,-1.4l2.799,1.4l2.798,18.192l0,22.391l-2.798,18.192l-5.598,0l-2.799,-18.192l0,-22.391Z" style="fill:#983b11;"/></g><g><circle cx="18.276" cy="4.184" r="3.548" style="fill:#e4ff98;"/></g><g><circle cx="21.529" cy="11.104" r="1.708" style="fill:#777ea9;"/><circle cx="22.797" cy="18.342" r="1.708" style="fill:#777ea9;"/><circle cx="23.888" cy="25.572" r="1.708" style="fill:#777ea9;"/><circle cx="23.888" cy="32.896" r="1.708" style="fill:#777ea9;"/><circle cx="23.888" cy="47.971" r="1.708" style="fill:#777ea9;"/><circle cx="22.797" cy="54.741" r="1.708" style="fill:#777ea9;"/><circle cx="21.682" cy="61.56" r="1.708" style="fill:#777ea9;"/><circle cx="23.888" cy="40.272" r="1.708" style="fill:#777ea9;"/></g><g><circle cx="15.022" cy="11.104" r="1.708" style="fill:#777ea9;"/><circle cx="13.754" cy="18.342" r="1.708" style="fill:#777ea9;"/><circle cx="12.663" cy="25.572" r="1.708" style="fill:#777ea9;"/><circle cx="12.663" cy="32.896" r="1.708" style="fill:#777ea9;"/><circle cx="12.663" cy="47.971" r="1.708" style="fill:#777ea9;"/><circle cx="13.754" cy="54.741" r="1.708" style="fill:#777ea9;"/><circle cx="14.869" cy="61.56" r="1.708" style="fill:#777ea9;"/><circle cx="12.663" cy="40.272" r="1.708" style="fill:#777ea9;"/></g><g><g opacity="0.25"><circle cx="15.022" cy="11.104" r="1.708" style="fill:#1d0705;"/><circle cx="13.754" cy="18.342" r="1.708" style="fill:#1d0705;"/><circle cx="12.663" cy="25.572" r="1.708" style="fill:#1d0705;"/><circle cx="12.663" cy="32.896" r="1.708" style="fill:#1d0705;"/><circle cx="12.663" cy="47.971" r="1.708" style="fill:#1d0705;"/><circle cx="13.754" cy="54.741" r="1.708" style="fill:#1d0705;"/><circle cx="14.869" cy="61.56" r="1.708" style="fill:#1d0705;"/><circle cx="12.663" cy="40.272" r="1.708" style="fill:#1d0705;"/></g></g><g><path d="M30.724,13.935l-3.91,3.57l-1.191,-2.734l5.101,-0.836Z" style="fill:#777ea9;"/><path d="M33.727,20.472l-4.868,4.049l-1.207,-2.772l6.075,-1.277Z" style="fill:#777ea9;"/><path d="M35.407,28.382l-6.853,3.362l-0.671,-3.2l7.524,-0.162Z" style="fill:#777ea9;"/><path d="M35.582,37.046l-7.604,2.507l-0.392,-2.925l7.996,0.418Z" style="fill:#777ea9;"/><path d="M35.942,46.374l-7.542,1.463l-0.28,-3.143l7.822,1.68Z" style="fill:#777ea9;"/><path d="M36.364,53.759l-8.262,1.678l-0.052,-2.71l8.314,1.032Z" style="fill:#777ea9;"/><path d="M36.363,60.949l-8.873,0.522l0.221,-2.558l8.652,2.036Z" style="fill:#777ea9;"/></g><g><path d="M5.658,14.655l3.911,3.57l1.19,-2.734l-5.101,-0.836Z" style="fill:#777ea9;"/><path d="M2.655,21.193l4.869,4.048l1.207,-2.772l-6.076,-1.276Z" style="fill:#777ea9;"/><path d="M0.975,29.102l6.853,3.362l0.671,-3.2l-7.524,-0.162Z" style="fill:#777ea9;"/><path d="M0.801,37.766l7.604,2.507l0.391,-2.924l-7.995,0.417Z" style="fill:#777ea9;"/><path d="M0.441,47.094l7.542,1.463l0.279,-3.143l-7.821,1.68Z" style="fill:#777ea9;"/><path d="M0.018,54.479l8.263,1.678l0.051,-2.71l-8.314,1.032Z" style="fill:#777ea9;"/><path d="M0.019,61.67l8.873,0.522l-0.221,-2.559l-8.652,2.037Z" style="fill:#777ea9;"/></g><g><g opacity="0.25"><path d="M5.658,14.655l3.911,3.57l1.19,-2.734l-5.101,-0.836Z" style="fill:#1d0705;"/><path d="M2.655,21.193l4.869,4.048l1.207,-2.772l-6.076,-1.276Z" style="fill:#1d0705;"/><path d="M0.975,29.102l6.853,3.362l0.671,-3.2l-7.524,-0.162Z" style="fill:#1d0705;"/><path d="M0.801,37.766l7.604,2.507l0.391,-2.924l-7.995,0.417Z" style="fill:#1d0705;"/><path d="M0.441,47.094l7.542,1.463l0.279,-3.143l-7.821,1.68Z" style="fill:#1d0705;"/><path d="M0.018,54.479l8.263,1.678l0.051,-2.71l-8.314,1.032Z" style="fill:#1d0705;"/><path d="M0.019,61.67l8.873,0.522l-0.221,-2.559l-8.652,2.037Z" style="fill:#1d0705;"/></g></g></g></svg>