<?xml version="1.0" encoding="UTF-8" standalone="no"?><!DOCTYPE svg PUBLIC "-//W3C//DTD SVG 1.1//EN" "http://www.w3.org/Graphics/SVG/1.1/DTD/svg11.dtd"><svg width="100%" height="100%" viewBox="0 0 31 63" version="1.1" xmlns="http://www.w3.org/2000/svg" xmlns:xlink="http://www.w3.org/1999/xlink" xml:space="preserve" xmlns:serif="http://www.serif.com/" style="fill-rule:evenodd;clip-rule:evenodd;stroke-linejoin:round;stroke-miterlimit:1.41421;"><g id="flower02"><g><g><path d="M16.119,62.58l2.683,-2.623l-3.162,-22.561l2.336,-25.25l-1.857,3.211l-3.531,22.169l3.531,25.054Z" style="fill:#deb752;"/><path d="M15.068,12.656l-3.605,24.513l1.972,22.788l2.684,2.623l-2.684,-24.905l2.684,-22.318l-1.051,-2.701Z" style="fill:#983b11;"/></g><path d="M15.674,26.079l2.154,-0.923l1.317,-3.995l2.641,-1.321l-2.641,-1.7l5.939,0.051l-0.573,4.934l-0.775,2.954l-4.591,-0.123l-3.017,2.079l-0.454,-1.956Z" style="fill:#983b11;"/><clipPath id="_clip1"><path d="M15.674,26.079l2.154,-0.923l1.317,-3.995l2.641,-1.321l-2.641,-1.7l5.939,0.051l-0.573,4.934l-0.775,2.954l-4.591,-0.123l-3.017,2.079l-0.454,-1.956Z"/></clipPath><g clip-path="url(#_clip1)"><path d="M26.709,17.379l-5.49,2.744l-2.074,-0.075l2.703,-0.239l-3.213,1.607l0.873,3.345l3.911,0.787l7.545,1.522l-5.113,-7.23l-6.454,4.498l6.454,-4.498l0.858,-2.461" style="fill:#deb752;"/></g><path d="M13.015,55.377l-1.834,-2.545l-5.144,-0.487l-2.47,-3.061l-1.072,4.001l-2.014,-7.824l5.986,-0.783l3.734,0.1l1.458,6.074l3.491,3.318l-2.135,1.207Z" style="fill:#983b11;"/><clipPath id="_clip2"><path d="M13.015,55.377l-1.834,-2.545l-5.144,-0.487l-2.47,-3.061l-1.072,4.001l-2.014,-7.824l5.986,-0.783l3.734,0.1l1.458,6.074l3.491,3.318l-2.135,1.207Z"/></clipPath><g clip-path="url(#_clip2)"><path d="M-1.038,43.578l5.134,6.362l0.636,2.751l-1.224,-3.479l3.005,3.724l3.618,-2.189l-0.442,-5.387l-0.849,-10.393l-6.693,8.973l7.527,7.083l-7.527,-7.083l-3.185,-0.362" style="fill:#deb752;"/></g><path d="M14.081,24.02l-1.442,-1.847l1.139,-3.897l-2.046,-2.668l-0.743,-0.363l-6.548,-1.429l2.589,2.105l0.731,1.252l-0.744,2.962l4.082,2.105l1.641,3.275l1.341,-1.495Z" style="fill:#983b11;"/><clipPath id="_clip3"><path d="M14.081,24.02l-1.442,-1.847l1.139,-3.897l-2.046,-2.668l-0.743,-0.363l-6.548,-1.429l2.589,2.105l0.731,1.252l-0.744,2.962l4.082,2.105l1.641,3.275l1.341,-1.495Z"/></clipPath><g clip-path="url(#_clip3)"><path d="M8.604,11.079l4.245,3.296l1.097,2.688l-0.776,-2.439l3.033,3.541l-4.846,2.853l-3.806,-1.196l-3.261,-0.84l4.957,-2.485l2.228,4.451l-1.532,-3.061l-0.696,-1.39l-0.22,-1.905l2.748,0.611l3.519,3.497l-3.637,2l5.435,-3.031l-8.488,-6.59" style="fill:#deb752;"/></g><path d="M13.435,45.841l2.047,-2.305l-0.656,-5.254l2.404,-3.037l1.924,-2.109l3.445,-1.444l-0.303,5.626l0.721,3.767l-5.524,2.57l-2.429,4.109l-1.629,-1.923Z" style="fill:#983b11;"/><clipPath id="_clip4"><path d="M13.435,45.841l2.047,-2.305l-0.656,-5.254l2.404,-3.037l1.924,-2.109l3.445,-1.444l-0.303,5.626l0.721,3.767l-5.524,2.57l-2.429,4.109l-1.629,-1.923Z"/></clipPath><g clip-path="url(#_clip4)"><path d="M21.713,29.582l-4.998,6.314l-2.508,1.14l3.08,-1.863l-2.926,3.696l2.898,3.233l5.086,-1.426l9.814,-2.744l-10.097,-5.086l-5.169,8.848l5.169,-8.848l-0.349,-3.264" style="fill:#deb752;"/></g><path d="M13.09,37.231l-2.314,-1.599l-0.051,-4.662l-3.299,-2.321l-0.986,-0.173l-3.738,1.787l0.685,1.338l0.179,3.505l5.455,1.073l3.044,3.118l1.025,-2.066Z" style="fill:#983b11;"/><clipPath id="_clip5"><path d="M13.09,37.231l-2.314,-1.599l-0.051,-4.662l-3.299,-2.321l-0.986,-0.173l-3.738,1.787l0.685,1.338l0.179,3.505l5.455,1.073l3.044,3.118l1.025,-2.066Z"/></clipPath><g clip-path="url(#_clip5)"><path d="M2.223,24.6l6.06,2.341l2.21,2.636l-1.752,-2.46l4.747,2.985l-4.598,4.646l-4.817,-0.152l-4.062,0.073l5.468,-3.645l3.523,3.61l-2.844,-2.914l-0.679,-0.696l1.905,-2.171l-0.051,-0.666l5.293,2.786l-3.501,3.331l5.216,-5.024l-12.118,-4.68" style="fill:#deb752;"/></g></g><g><path d="M14.919,15.278l-3.893,-6.756l1.371,-7.822l7.202,2.648l-4.68,11.93" style="fill:#943c8a;"/><path d="M14.919,15.278l-8.891,-7.213l0.961,-5.486l8.325,10.445" style="fill:#6b5995;"/><path d="M14.919,15.278l11.776,-9.244l-4.446,-3.607l-5.407,1.879l-1.923,10.972Z" style="fill:#6b5995;"/><path d="M14.919,15.278l6.369,-7.365l8.053,2.352l-1.778,2.738l-12.644,2.275" style="fill:#6b5995;"/><path d="M14.919,15.278l9.853,1.727l5.407,-1.879l-4.445,-3.607l-10.815,3.759" style="fill:#6b5995;"/><g><path d="M17.262,6.161c2.691,-0.331 5.242,1.451 5.693,3.976c0.451,2.525 -1.369,4.843 -4.06,5.174c-2.691,0.33 -5.242,-1.451 -5.693,-3.976c-0.451,-2.525 1.368,-4.843 4.06,-5.174Z" style="fill:#f1ce52;"/></g><path d="M15.07,16.72l-3.893,-3.158l2.265,-4.428l5.87,0.96l2.063,5.475l-6.305,1.151Z" style="fill:#943c8a;"/><path d="M6.028,8.065l1.134,3.695l7.757,3.518l-8.891,-7.213Z" style="fill:#943c8a;"/></g></g></svg>