<?xml version="1.0" encoding="UTF-8" standalone="no"?><!DOCTYPE svg PUBLIC "-//W3C//DTD SVG 1.1//EN" "http://www.w3.org/Graphics/SVG/1.1/DTD/svg11.dtd"><svg width="100%" height="100%" viewBox="0 0 47 36" version="1.1" xmlns="http://www.w3.org/2000/svg" xmlns:xlink="http://www.w3.org/1999/xlink" xml:space="preserve" xmlns:serif="http://www.serif.com/" style="fill-rule:evenodd;clip-rule:evenodd;stroke-linejoin:round;stroke-miterlimit:1.41421;"><g id="flower04"><g><g><g><path d="M25.822,33.536l2.999,0.063l8.357,-12.26l1.283,-9.678l-1.388,0.507l-2.631,8.034l-8.62,13.334Z" style="fill:#deb752;"/><path d="M36.787,10.456l-3.168,9.248l-9.546,11.395l1.749,2.437l9.292,-13.32l1.959,-8.048l-0.286,-1.712Z" style="fill:#983b11;"/></g><path d="M30.744,28.285l2.336,0.186l3.027,-2.921l2.951,0.062l-1.544,-2.735l5.232,2.812l-2.806,4.099l-2.063,2.253l-4.005,-2.248l-3.637,0.435l0.509,-1.943Z" style="fill:#983b11;"/><clipPath id="_clip1"><path d="M30.744,28.285l2.336,0.186l3.027,-2.921l2.951,0.062l-1.544,-2.735l5.232,2.812l-2.806,4.099l-2.063,2.253l-4.005,-2.248l-3.637,0.435l0.509,-1.943Z"/></clipPath><g clip-path="url(#_clip1)"><path d="M44.562,25.727l-6.137,-0.129l-1.8,-1.033l2.503,1.048l-3.591,-0.075l-0.787,3.367l3.095,2.518l5.966,4.862l-1.155,-8.78l-7.806,0.974l7.806,-0.974l1.906,-1.778" style="fill:#deb752;"/></g><path d="M32.374,21.823l-1.476,-1.82l1.069,-3.918l-2.094,-2.63l-0.75,-0.349l-6.573,-1.311l2.627,2.058l0.753,1.239l-0.69,2.975l4.12,2.03l1.7,3.245l1.314,-1.519Z" style="fill:#983b11;"/><clipPath id="_clip2"><path d="M32.374,21.823l-1.476,-1.82l1.069,-3.918l-2.094,-2.63l-0.75,-0.349l-6.573,-1.311l2.627,2.058l0.753,1.239l-0.69,2.975l4.12,2.03l1.7,3.245l1.314,-1.519Z"/></clipPath><g clip-path="url(#_clip2)"><path d="M26.663,8.983l4.304,3.218l1.145,2.668l-0.82,-2.424l3.098,3.485l-4.794,2.94l-3.828,-1.126l-3.275,-0.781l4.911,-2.574l2.309,4.41l-1.588,-3.033l-0.721,-1.377l-0.254,-1.9l2.758,0.56l3.582,3.433l-3.6,2.066l5.38,-3.13l-8.607,-6.435" style="fill:#deb752;"/></g></g><g><path d="M35.717,11.584l-0.425,-5.328l3.225,-4.07l3.756,4.115l-6.556,5.283" style="fill:#943c8a;"/><path d="M35.717,11.584l-3.447,-7.379l2.262,-2.854l2.114,9.06" style="fill:#6b5995;"/><path d="M35.717,11.584l10.233,-1.185l-1.723,-3.689l-3.986,-0.835l-4.524,5.709Z" style="fill:#6b5995;"/><path d="M35.717,11.584l6.247,-2.019l4.383,4.246l-1.95,0.961l-8.68,-3.188" style="fill:#6b5995;"/><path d="M35.717,11.584l5.709,4.525l3.985,0.834l-1.723,-3.689l-7.971,-1.67" style="fill:#6b5995;"/><g><path d="M39.947,7.106c1.801,0.768 2.877,2.717 2.401,4.35c-0.476,1.633 -2.326,2.335 -4.127,1.567c-1.802,-0.768 -2.878,-2.718 -2.401,-4.35c0.476,-1.633 2.326,-2.335 4.127,-1.567Z" style="fill:#f1ce52;"/></g><path d="M35.377,12.479l-1.509,-3.231l2.767,-1.773l3.422,2.656l-0.346,3.928l-4.334,-1.58Z" style="fill:#943c8a;"/><path d="M32.27,4.205l-0.398,2.559l3.845,4.82l-3.447,-7.379Z" style="fill:#943c8a;"/></g></g><g><g><g><path d="M24.535,33.308l2.683,-1.341l-3.162,-11.538l2.335,-12.913l-1.856,1.643l-3.531,11.337l3.531,12.812Z" style="fill:#deb752;"/><path d="M23.484,7.777l-3.605,12.536l1.972,11.654l2.684,1.341l-2.684,-12.736l2.684,-11.413l-1.051,-1.382Z" style="fill:#983b11;"/></g></g><g><path d="M23.989,9.656l-4.206,-3.299l-0.807,-5.131l5.571,0.028l-0.558,8.402" style="fill:#943c8a;"/><path d="M23.989,9.656l-7.762,-2.467l-0.566,-3.598l8.095,4.586" style="fill:#6b5995;"/><path d="M23.989,9.656l6.064,-8.328l-3.881,-1.233l-3.315,2.365l1.132,7.196Z" style="fill:#6b5995;"/><path d="M23.989,9.656l2.749,-5.963l6.093,-0.344l-0.615,2.085l-8.227,4.222" style="fill:#6b5995;"/><path d="M23.989,9.656l7.196,-1.132l3.315,-2.364l-3.881,-1.234l-6.63,4.73" style="fill:#6b5995;"/><path d="M24.416,10.512l-3.398,-1.08l0.572,-3.237l4.272,-0.716l2.653,2.917l-4.099,2.116Z" style="fill:#943c8a;"/><path d="M16.227,7.189l1.612,2.027l6.15,0.44l-7.762,-2.467Z" style="fill:#943c8a;"/></g></g><g><g><g><path d="M23.096,34.9l1.588,-2.545l-6.261,-13.452l-7.661,-6.052l-0.275,1.452l5.559,6.369l7.05,14.228Z" style="fill:#deb752;"/><path d="M8.87,13.673l6.328,7.452l4.909,14.031l2.989,-0.256l-6.694,-14.797l-5.915,-5.8l-1.617,-0.63Z" style="fill:#983b11;"/></g><path d="M23.021,31.043l1.355,-1.912l-0.962,-4.095l1.563,-2.505l-3.14,-0.071l5.092,-3.058l2.088,4.508l0.88,2.924l-3.98,2.292l-1.487,3.348l-1.409,-1.431Z" style="fill:#983b11;"/><clipPath id="_clip3"><path d="M23.021,31.043l1.355,-1.912l-0.962,-4.095l1.563,-2.505l-3.14,-0.071l5.092,-3.058l2.088,4.508l0.88,2.924l-3.98,2.292l-1.487,3.348l-1.409,-1.431Z"/></clipPath><g clip-path="url(#_clip3)"><path d="M27.891,17.861l-3.249,5.207l-1.809,1.019l2.181,-1.615l-1.902,3.048l2.491,2.397l3.746,-1.371l7.23,-2.641l-8.135,-3.497l-3.156,7.206l3.156,-7.206l-0.553,-2.547" style="fill:#deb752;"/></g><path d="M16.381,23.279l-2.319,0.337l-2.82,-2.922l-3.331,0.454l-0.683,0.466l-4.488,4.978l3.112,-1.205l1.449,-0.014l2.204,2.115l3.851,-2.502l3.659,0.198l-0.634,-1.905Z" style="fill:#983b11;"/><clipPath id="_clip4"><path d="M16.381,23.279l-2.319,0.337l-2.82,-2.922l-3.331,0.454l-0.683,0.466l-4.488,4.978l3.112,-1.205l1.449,-0.014l2.204,2.115l3.851,-2.502l3.659,0.198l-0.634,-1.905Z"/></clipPath><g clip-path="url(#_clip4)"><path d="M2.427,21.619l4.967,-2.052l2.878,0.38l-2.503,-0.536l4.579,-0.878l0.075,5.623l-2.925,2.713l-2.347,2.415l0.3,-5.537l4.97,0.272l-3.418,-0.187l-1.552,-0.085l-1.763,-0.753l1.892,-2.084l4.782,-1.323l-0.066,4.151l0.062,-6.223l-9.931,4.104" style="fill:#deb752;"/></g></g><g><path d="M9.883,14.957l-4.802,-2.348l-1.86,-4.849l5.454,-1.136l1.208,8.333" style="fill:#943c8a;"/><path d="M9.883,14.957l-8.106,-0.791l-1.305,-3.401l8.875,2.794" style="fill:#6b5995;"/><path d="M9.883,14.957l4.191,-9.411l-4.052,-0.395l-2.749,3.005l2.61,6.801Z" style="fill:#6b5995;"/><path d="M9.883,14.957l1.443,-6.406l5.887,-1.609l-0.166,2.168l-7.164,5.847" style="fill:#6b5995;"/><path d="M9.883,14.957l6.801,-2.61l2.748,-3.005l-4.053,-0.395l-5.496,6.01" style="fill:#6b5995;"/><g><path d="M8.183,9.036c1.578,-1.16 3.804,-1.093 4.966,0.148c1.163,1.242 0.826,3.191 -0.753,4.35c-1.578,1.159 -3.804,1.093 -4.966,-0.149c-1.163,-1.241 -0.825,-3.19 0.753,-4.349Z" style="fill:#f1ce52;"/></g><path d="M10.48,15.705l-3.549,-0.347l-0.117,-3.284l4.028,-1.593l3.205,2.298l-3.567,2.926Z" style="fill:#943c8a;"/><path d="M1.777,14.166l2,1.645l6.106,-0.854l-8.106,-0.791Z" style="fill:#943c8a;"/></g></g></g></svg>