<?xml version="1.0" encoding="UTF-8" standalone="no"?><!DOCTYPE svg PUBLIC "-//W3C//DTD SVG 1.1//EN" "http://www.w3.org/Graphics/SVG/1.1/DTD/svg11.dtd"><svg width="100%" height="100%" viewBox="0 0 57 39" version="1.1" xmlns="http://www.w3.org/2000/svg" xmlns:xlink="http://www.w3.org/1999/xlink" xml:space="preserve" xmlns:serif="http://www.serif.com/" style="fill-rule:evenodd;clip-rule:evenodd;stroke-linejoin:round;stroke-miterlimit:1.41421;"><path id="grass08" d="M32.753,2.681l4.083,14.058l3.456,-4.922l-0.592,10.437l3.786,-11.986l1.589,7.719l3.777,-9.154l0,5.496c0,0 1.648,3.813 2.794,2.403c4.748,-5.842 2.307,1.621 2.573,2.049c1.143,1.835 0,2.542 0,2.542l0.878,2.385c0,0 -2.062,-1.386 -0.878,1.362c1.184,2.748 3.425,5.385 1.868,5.378c-1.558,-0.007 -3.543,-2.188 -5.941,2.023c-0.363,0.638 -1.294,1.467 -1.294,1.467c0,0 -2.767,1.4 -4.103,1.574c-1.336,0.174 -0.902,1.291 -2.993,0.233c-2.09,-1.058 -3.185,-2.807 -3.637,-1.308c-0.451,1.499 -2.111,2.071 -2.111,2.071l-4.335,0.552l-0.656,-1.312c0,0 -3.011,-0.723 -5.799,0.732c-2.788,1.454 -4.411,4.202 -4.411,0.83c0,-3.372 -0.435,-3.253 -0.435,-3.253c0,0 0.004,-2.73 -1.592,-2.923c-1.595,-0.194 -4.902,-0.325 -4.902,-0.325l2.775,-2.367c0,0 -4.739,-3.297 -6.413,-3.772c-1.673,-0.474 -4.32,0.65 -4.32,0.65l2.362,2.692c0,0 -1.512,-1.544 -2.362,-1.181c-0.85,0.362 -4.098,-0.512 -4.098,-0.512l-1.269,-2.172c0,0 0.395,-0.576 1.644,-2.2c1.249,-1.623 1.998,-2.497 1.998,-2.497l0.125,-1.374l-1.868,-5.611l-0.548,-5.092l6.675,10.054l0.018,-8.034l3.717,6.185l0.874,-9.742l3.465,11.615c0,0 1.302,2.581 1.666,-0.52c0.364,-3.102 1.646,-9.911 1.646,-9.911l3.07,-4.846l-1.015,16.607l4.157,-2.079l1.209,-16.704l1.887,20.523l1.775,-4.694l1.705,2.954l0,-16.1Z" style="fill:#983b11;"/><clipPath id="_clip1"><path d="M32.753,2.681l4.083,14.058l3.456,-4.922l-0.592,10.437l3.786,-11.986l1.589,7.719l3.777,-9.154l0,5.496c0,0 1.648,3.813 2.794,2.403c4.748,-5.842 2.307,1.621 2.573,2.049c1.143,1.835 0,2.542 0,2.542l0.878,2.385c0,0 -2.062,-1.386 -0.878,1.362c1.184,2.748 3.425,5.385 1.868,5.378c-1.558,-0.007 -3.543,-2.188 -5.941,2.023c-0.363,0.638 -1.294,1.467 -1.294,1.467c0,0 -2.767,1.4 -4.103,1.574c-1.336,0.174 -0.902,1.291 -2.993,0.233c-2.09,-1.058 -3.185,-2.807 -3.637,-1.308c-0.451,1.499 -2.111,2.071 -2.111,2.071l-4.335,0.552l-0.656,-1.312c0,0 -3.011,-0.723 -5.799,0.732c-2.788,1.454 -4.411,4.202 -4.411,0.83c0,-3.372 -0.435,-3.253 -0.435,-3.253c0,0 0.004,-2.73 -1.592,-2.923c-1.595,-0.194 -4.902,-0.325 -4.902,-0.325l2.775,-2.367c0,0 -4.739,-3.297 -6.413,-3.772c-1.673,-0.474 -4.32,0.65 -4.32,0.65l2.362,2.692c0,0 -1.512,-1.544 -2.362,-1.181c-0.85,0.362 -4.098,-0.512 -4.098,-0.512l-1.269,-2.172c0,0 0.395,-0.576 1.644,-2.2c1.249,-1.623 1.998,-2.497 1.998,-2.497l0.125,-1.374l-1.868,-5.611l-0.548,-5.092l6.675,10.054l0.018,-8.034l3.717,6.185l0.874,-9.742l3.465,11.615c0,0 1.302,2.581 1.666,-0.52c0.364,-3.102 1.646,-9.911 1.646,-9.911l3.07,-4.846l-1.015,16.607l4.157,-2.079l1.209,-16.704l1.887,20.523l1.775,-4.694l1.705,2.954l0,-16.1Z"/></clipPath><g clip-path="url(#_clip1)"><path d="M56.662,12.193l-4.115,6.541l-3.695,0.127l1.776,-10.359l-1.776,-0.703l-3.549,15.44l-1.817,-3.866l2.41,-9.4l-3.58,-1.341l-1.024,17.456l-2.358,0.335l0.422,-15.073l-2.54,-2.848l-0.039,12.291l-8.211,-17.727l2.814,23.149l12.106,13.046l14.931,-7.648l-1.755,-19.42Z" style="fill:#deb752;"/><path d="M23.876,6.447l-2.494,4.668l-1.41,8.69l-4.473,0.135l1.154,-3.069l1.34,-9.145l-3.325,-2.558l-1.645,14.481l-1.736,-2.331l0.505,-9.523l-1.765,0.882l-0.603,10.432l-2.047,-1.535l-0.907,-11.934l-2.801,2.726l1.662,9.464l-2.794,1.943l-8.514,6.476c0,0 11.062,5.503 12.56,6.28c1.498,0.776 8.852,7.427 8.852,7.427l13.172,2.364l4.146,-5.69l-8.618,-2.807l-1.282,-1.981l1.669,-1.527l4.516,-0.89l-3.435,-4.561l5.478,3.814l0.98,3.796l0.692,-4.541l-3.378,-3.325l-1.989,-3.709l1.67,-13.109l0.463,-8.858l-2.694,0.785l-1.25,11.919l0.475,7.601l-1.596,0.761l-0.578,-13.551Z" style="fill:#deb752;"/></g></svg>