<?xml version="1.0" encoding="UTF-8" standalone="no"?><!DOCTYPE svg PUBLIC "-//W3C//DTD SVG 1.1//EN" "http://www.w3.org/Graphics/SVG/1.1/DTD/svg11.dtd"><svg width="100%" height="100%" viewBox="0 0 30 27" version="1.1" xmlns="http://www.w3.org/2000/svg" xmlns:xlink="http://www.w3.org/1999/xlink" xml:space="preserve" xmlns:serif="http://www.serif.com/" style="fill-rule:evenodd;clip-rule:evenodd;stroke-linejoin:round;stroke-miterlimit:1.41421;"><path id="grass06" d="M4.012,14.83l2.79,0.015l-3.869,-9.878l6.446,5.28l3.545,-5.651l1.821,3.946l3.979,-5.025l2.672,-2.649l2.771,8.1l3.181,-2.527l-0.41,7.323l2.238,2.878c0,0 -2.918,2.131 -3.697,3.197c-0.78,1.066 1.287,2.214 -1.878,2.706c-3.165,0.492 -4.382,1.328 -5.905,0.537c-1.523,-0.792 -2.951,-1.476 -2.951,-1.476l-4.46,2.23c0,0 -1.582,-2.418 -2.217,1.109c-0.634,3.527 -4.056,-1.056 -4.056,-1.056l-3.639,-4.103l3.639,-4.956Z" style="fill:#983b11;"/><clipPath id="_clip1"><path d="M4.012,14.83l2.79,0.015l-3.869,-9.878l6.446,5.28l3.545,-5.651l1.821,3.946l3.979,-5.025l2.672,-2.649l2.771,8.1l3.181,-2.527l-0.41,7.323l2.238,2.878c0,0 -2.918,2.131 -3.697,3.197c-0.78,1.066 1.287,2.214 -1.878,2.706c-3.165,0.492 -4.382,1.328 -5.905,0.537c-1.523,-0.792 -2.951,-1.476 -2.951,-1.476l-4.46,2.23c0,0 -1.582,-2.418 -2.217,1.109c-0.634,3.527 -4.056,-1.056 -4.056,-1.056l-3.639,-4.103l3.639,-4.956Z"/></clipPath><g clip-path="url(#_clip1)"><path d="M28.373,4.059l-2.894,8.533l-5.367,0.964l5.367,-8.049l-3.764,-5.492l-4.245,12.221l-3.748,1.741l1.023,-5.542l-2.196,-5.755l-1.233,11.845l-1.937,-4.704l-1.586,-2.424l-3.781,-3.545l4.274,11.831l-1.385,0.426l-1.057,1.047l-4.235,3.248l-4.214,4.511c0,0 6.663,-1.298 11.984,-3.421c3.945,-1.575 6.796,-4.131 7.522,-4.177c0.789,-0.049 0.756,4.897 3.211,6.217c2.849,1.532 8.172,-0.525 8.172,-0.525l2.561,-9.453l-2.472,-9.497" style="fill:#deb752;"/></g></svg>