<?xml version="1.0" encoding="UTF-8" standalone="no"?><!DOCTYPE svg PUBLIC "-//W3C//DTD SVG 1.1//EN" "http://www.w3.org/Graphics/SVG/1.1/DTD/svg11.dtd"><svg width="100%" height="100%" viewBox="0 0 65 65" version="1.1" xmlns="http://www.w3.org/2000/svg" xmlns:xlink="http://www.w3.org/1999/xlink" xml:space="preserve" xmlns:serif="http://www.serif.com/" style="fill-rule:evenodd;clip-rule:evenodd;stroke-linejoin:round;stroke-miterlimit:1.41421;"><g id="hedge03"><g><g><path d="M64.994,32.566l-42.933,21.466l0,-21.466l42.933,-21.466l0,21.466" style="fill:#deb752;"/><path d="M58.407,16.371l1.244,1.996l0.809,-1.708l0.326,1.867l1.728,-1.579l-0.959,2.813l1.155,0.51l-1.047,1.327l1.244,1.996l-1.837,-0.258l-0.095,2.023l-0.973,-1.047l-0.959,2.812l-0.176,-2.972l-1.215,0.741l0.446,-1.974l-1.836,-0.258l1.728,-1.579l-0.656,-1.566l1.249,-0.172l-0.176,-2.972Z" style="fill:#983b11;"/><path d="M26.055,32.494l1.591,2.679l0.971,-2.165l0.445,2.449l2.118,-1.934l-1.135,3.59l1.45,0.742l-1.275,1.653l1.591,2.68l-2.292,-0.46l-0.076,2.623l-1.233,-1.428l-1.134,3.591l-0.282,-3.875l-1.497,0.879l0.514,-2.535l-2.292,-0.46l2.117,-1.935l-0.849,-2.08l1.55,-0.139l-0.282,-3.875Z" style="fill:#983b11;"/><path d="M51.794,22.668l0.712,3.8l2.172,-2.123l-0.578,3.05l3.461,-1.373l-3.021,3.721l1.426,1.476l-2.308,1.397l0.712,3.799l-2.579,-1.5l-1.29,3.035l-0.849,-2.186l-3.021,3.72l1.427,-4.647l-2.223,0.399l1.783,-2.748l-2.579,-1.5l3.461,-1.372l-0.083,-2.788l1.95,0.488l1.427,-4.648Z" style="fill:#983b11;"/><path d="M38.183,43.457l-1.07,-1.278l-0.938,1.542l-0.172,-1.396l-1.836,1.661l1.176,-2.451l-1.102,-0.126l1.142,-1.298l-1.069,-1.278l1.795,-0.236l0.257,-1.62l0.878,0.593l1.175,-2.45l-0.065,2.304l1.261,-0.875l-0.6,1.665l1.795,-0.236l-1.836,1.66l0.522,1.079l-1.248,0.436l-0.065,2.304Z" style="fill:#983b11;"/><path d="M39.118,34.039l-0.651,-1.63l-0.027,-1.264l-1.215,0.723l-1.929,0.505l1.573,-2.027l1.153,-0.99l-0.488,-0.931l-0.19,-1.963l1.623,0.377l0.739,0.652l0.914,-1.298l1.811,-1.719l-0.569,2.26l-0.696,1.393l1.052,0.129l1.31,0.901l-1.975,1.02l-1.169,0.208l-0.264,1.378l-1.002,2.276Z" style="fill:#983b11;"/></g></g><g><path d="M64.994,54.032l-21.466,10.733l0,-21.466l21.466,-10.733l0,21.466" style="fill:#deb752;"/><path d="M22.061,32.566l21.467,10.733l0,21.466l-42.933,-21.466l0,-21.466" style="fill:#983b11;"/><g><path d="M43.528,0.367l21.466,10.733l-21.466,10.733l21.466,10.733l-21.466,10.733l-42.933,-21.466l42.933,-21.466Z" style="fill:#d0675b;"/><path d="M44.328,4.348l0.914,1.299l2.014,-0.236l-0.395,0.823l3.323,0.24l-2.758,0.562l1.484,0.724l-2.189,-0.013l0.914,1.299l-2.618,-0.951l-1.097,0.683l-0.957,-0.831l-2.758,0.563l1.14,-1.15l-2.162,-0.301l1.597,-0.501l-2.619,-0.951l3.323,0.24l-0.239,-0.869l1.944,0.521l1.139,-1.151Z" style="fill:#983b11;"/><path d="M38.507,8.589l0.12,1.528l1.226,0.602l-0.252,0.938l1.597,1.191l-2.004,0.328l-0.252,0.939l-1.381,-0.022l-0.875,1.289l-1.359,-1.324l-1.38,-0.022l-0.602,-0.952l-2.138,-0.394l1.165,-1.147l-0.602,-0.952l1.009,-0.566l-0.447,-1.533l2.079,0.616l1.009,-0.567l1.225,0.602l1.862,-0.554Z" style="fill:#983b11;"/><path d="M47.608,10.825l2.046,0.461l0.54,-1.324l0.89,0.847l1.696,-1.711l-0.431,1.996l1.547,-0.298l-0.931,1.236l2.046,0.462l-2.313,0.772l0.416,1.14l-1.464,-0.083l-0.432,1.996l-0.998,-1.519l-1.29,1.003l0.026,-1.288l-2.313,0.773l1.696,-1.711l-1.214,-0.521l1.481,-0.713l-0.998,-1.518Z" style="fill:#983b11;"/><path d="M25.073,13.803l1.266,0.942l1.661,0.12l0.457,0.649l2.471,0.414l-1.731,0.637l0.457,0.649l-1.379,0.281l0.105,1.005l-2.336,-0.549l-1.379,0.281l-1.31,-0.475l-2.405,0.208l0.287,-0.977l-1.309,-0.475l0.569,-0.575l-1.591,-0.877l2.513,-0.054l0.57,-0.575l1.662,0.12l1.422,-0.749Z" style="fill:#983b11;"/><path d="M19.87,20.699l1.299,1.45l-0.098,1.264l2.201,1.082l1.299,1.45l-1.459,0.596l-2.262,-0.3l-0.099,1.265l-1.459,0.596l-2.201,-1.081l-1.3,-1.45l-2.262,-0.3l-2.201,-1.081l0.099,-1.265l1.459,-0.596l-1.299,-1.45l0.099,-1.265l2.262,0.3l2.201,1.081l1.459,-0.596l2.262,0.3Z" style="fill:#983b11;"/><path d="M28.353,20.279l2.046,0.462l0.434,-1.981l0.995,1.503l1.697,-1.71l-0.432,1.995l2.296,-0.762l-1.679,1.701l2.046,0.461l-2.313,0.772l0.985,1.51l-2.034,-0.453l-0.432,1.996l-0.997,-1.518l-1.688,1.695l0.423,-1.98l-2.313,0.772l1.697,-1.711l-2.028,-0.462l2.295,-0.771l-0.998,-1.519Z" style="fill:#983b11;"/></g><path d="M13.214,32.797l-3.146,0.233l-0.131,1.393l-1.681,-0.495l-1.596,2.121l-0.348,-1.977l-2.067,0.771l0.732,-1.437l-3.146,0.232l2.931,-1.454l-1.147,-0.917l2.133,-0.394l-0.348,-1.976l2.16,1.078l1.358,-1.338l0.586,1.194l2.931,-1.454l-1.596,2.12l1.986,0.09l-1.771,1.132l2.16,1.078Z" style="fill:#d0675b;"/><path d="M14.203,36.693l2.177,3.773l1.286,-1.985l0.551,3.559l2.632,0.346l-1.286,1.986l2.972,2.546l-2.632,-0.347l2.178,3.773l-2.972,-2.546l0.551,3.559l-2.178,-3.773l-1.285,1.985l-0.551,-3.559l-2.632,-0.347l1.286,-1.985l-2.972,-2.546l2.632,0.347l-2.178,-3.774l2.972,2.547l-0.551,-3.559Z" style="fill:#d0675b;"/><path d="M7.524,38.802l0.618,1.956l1.618,-0.149l-0.618,1.3l2,1.06l-1.618,0.149l1.618,1.863l-2,-1.059l0.618,1.955l-1.618,-1.864l-0.618,1.301l-0.618,-1.956l-1.619,0.149l0.619,-1.3l-2.001,-1.06l1.619,-0.149l-1.619,-1.863l2.001,1.059l-0.619,-1.955l1.619,1.864l0.618,-1.301Z" style="fill:#d0675b;"/><path d="M44.328,25.815l0.914,1.298l2.014,-0.236l-0.395,0.823l3.323,0.24l-2.758,0.563l1.484,0.723l-2.189,-0.012l0.914,1.298l-2.618,-0.95l-1.097,0.682l-0.957,-0.83l-2.758,0.563l1.14,-1.151l-2.162,-0.301l1.597,-0.501l-2.619,-0.951l3.323,0.24l-0.239,-0.869l1.944,0.521l1.139,-1.15Z" style="fill:#983b11;"/><path d="M38.507,30.056l-0.503,1.877l1.849,0.252l-1.105,0.925l2.45,1.204l-2.761,-0.044l0.505,1.311l-1.752,-0.61l-0.504,1.877l-1.203,-1.904l-1.536,0.558l0.022,-1.302l-2.762,-0.043l2.018,-1.134l-1.455,-0.966l1.766,-0.194l-1.204,-1.905l2.451,1.204l0.637,-1.155l1.069,1.182l2.018,-1.133Z" style="fill:#983b11;"/><path d="M47.608,32.291l2.046,0.461l0.54,-1.324l0.89,0.847l1.696,-1.711l-0.431,1.996l1.547,-0.298l-0.931,1.237l2.046,0.461l-2.313,0.772l0.416,1.14l-1.464,-0.083l-0.432,1.996l-0.998,-1.518l-1.29,1.002l0.026,-1.287l-2.313,0.772l1.696,-1.711l-1.214,-0.52l1.481,-0.713l-0.998,-1.519Z" style="fill:#983b11;"/><path d="M58.407,37.837l1.244,1.996l0.809,-1.708l0.326,1.867l1.728,-1.579l-0.959,2.813l1.155,0.51l-1.047,1.327l1.244,1.996l-1.837,-0.258l-0.095,2.023l-0.973,-1.047l-0.959,2.813l-0.176,-2.972l-1.215,0.74l0.446,-1.974l-1.836,-0.258l1.728,-1.579l-0.656,-1.566l1.249,-0.172l-0.176,-2.972Z" style="fill:#983b11;"/><path d="M51.794,44.135l0.712,3.799l2.172,-2.122l-0.578,3.049l3.461,-1.373l-3.021,3.721l1.426,1.476l-2.308,1.397l0.712,3.799l-2.579,-1.5l-1.29,3.035l-0.849,-2.186l-3.021,3.721l1.427,-4.648l-2.223,0.4l1.783,-2.748l-2.579,-1.5l3.461,-1.373l-0.083,-2.787l1.95,0.487l1.427,-4.647Z" style="fill:#983b11;"/><path d="M26.699,38.025l2.157,2.302l1.166,-0.774l0.671,1.619l2.653,-0.09l-1.319,1.512l1.898,1.123l-1.578,0.334l2.158,2.302l-2.973,-1.367l0.007,1.468l-1.647,-1.412l-1.319,1.513l-0.518,-2.358l-1.894,-0.215l0.561,-1.207l-2.973,-1.367l2.652,-0.09l-1.177,-1.601l1.993,0.666l-0.518,-2.358Z" style="fill:#d0675b;"/><path d="M42.112,46.407l-1.804,3.965l1.419,0.394l-1.632,2.015l1.248,2.343l-2.363,0.108l-0.517,2.706l-1.075,-1.15l-1.804,3.965l0.344,-3.899l-1.739,1.279l0.968,-2.727l-2.363,0.108l2.576,-2.517l-0.558,-1.916l1.673,-0.534l0.344,-3.899l1.248,2.343l1.394,-2.463l0.066,2.396l2.575,-2.517Z" style="fill:#d0675b;"/><path d="M27.289,48.634l0.342,1.809l0.658,-0.154l-0.105,1.069l1.106,0.586l-0.895,0.532l0.512,1.085l-0.723,-0.191l0.341,1.809l-0.894,-1.48l-0.342,0.825l-0.342,-1.187l-0.894,0.532l0.341,-1.447l-0.723,-0.576l0.512,-0.542l-0.895,-1.48l1.106,0.586l-0.105,-1.181l0.658,0.852l0.342,-1.447Z" style="fill:#d0675b;"/></g></g></svg>