<?xml version="1.0" encoding="UTF-8" standalone="no"?><!DOCTYPE svg PUBLIC "-//W3C//DTD SVG 1.1//EN" "http://www.w3.org/Graphics/SVG/1.1/DTD/svg11.dtd"><svg width="100%" height="100%" viewBox="0 0 77 41" version="1.1" xmlns="http://www.w3.org/2000/svg" xmlns:xlink="http://www.w3.org/1999/xlink" xml:space="preserve" xmlns:serif="http://www.serif.com/" style="fill-rule:evenodd;clip-rule:evenodd;stroke-linejoin:round;stroke-miterlimit:1.41421;"><g id="rock-runes-highlights10"><g id="rock-highlights10"><g><g><path d="M70.679,8.502l-16.099,-8.049l-32.2,0l-16.1,8.049l21.467,16.1l21.466,0c0,0 22.082,-9.395 21.466,-9.395c-0.616,0 0,-6.705 0,-6.705" style="fill:#d08746;"/><clipPath id="_clip1"><path d="M70.679,8.502l-16.099,-8.049l-32.2,0l-16.1,8.049l21.467,16.1l21.466,0c0,0 22.082,-9.395 21.466,-9.395c-0.616,0 0,-6.705 0,-6.705"/></clipPath><g clip-path="url(#_clip1)"><path d="M6.28,8.502l19.721,16.973l1.746,15.227l2.529,-14.835l17.34,1.805l1.597,7.663l1.493,-9.986l17.475,-7.363l7.865,3.933l-5.367,-6.903l0,-5.734l-64.399,-0.78Z" style="fill:#d08746;"/></g><path d="M70.679,8.502l5.367,2.684l0,10.733l-7.313,-5.891l1.946,-7.526Z" style="fill:#d0675b;"/><clipPath id="_clip2"><path d="M70.679,8.502l5.367,2.684l0,10.733l-7.313,-5.891l1.946,-7.526Z"/></clipPath><g clip-path="url(#_clip2)"><path d="M6.28,8.502l19.721,16.973l1.746,15.227l2.529,-14.835l17.34,1.805l1.597,7.663l1.493,-9.986l17.475,-7.363l7.865,3.933l-5.367,-6.903l0,-5.734l-64.399,-0.78Z" style="fill:#d08746;"/></g><path d="M68.825,16.013l7.221,5.906l-26.833,13.416l0,-10.733l19.612,-8.589" style="fill:#983c3c;"/><clipPath id="_clip3"><path d="M68.825,16.013l7.221,5.906l-26.833,13.416l0,-10.733l19.612,-8.589"/></clipPath><g clip-path="url(#_clip3)"><path d="M6.28,8.502l19.721,16.973l1.746,15.227l2.529,-14.835l17.34,1.805l1.597,7.663l1.493,-9.986l17.475,-7.363l7.865,3.933l-5.367,-6.903l0,-5.734l-64.399,-0.78Z" style="fill:#d08746;"/></g><path d="M49.213,24.602l0,10.733l-21.466,5.367l0,-16.1l21.466,0" style="fill:#983c3c;"/><clipPath id="_clip4"><path d="M49.213,24.602l0,10.733l-21.466,5.367l0,-16.1l21.466,0"/></clipPath><g clip-path="url(#_clip4)"><path d="M6.28,8.502l19.721,16.973l1.746,15.227l2.529,-14.835l17.34,1.805l1.597,7.663l1.493,-9.986l17.475,-7.363l7.865,3.933l-5.367,-6.903l0,-5.734l-64.399,-0.78Z" style="fill:#d08746;"/></g><path d="M6.28,8.502l21.467,16.1l0,16.1l-26.833,-13.417l5.366,-18.783Z" style="fill:#7e3300;"/><clipPath id="_clip5"><path d="M6.28,8.502l21.467,16.1l0,16.1l-26.833,-13.417l5.366,-18.783Z"/></clipPath><g clip-path="url(#_clip5)"><path d="M6.28,8.502l19.721,16.973l1.746,15.227l2.529,-14.835l17.34,1.805l1.597,7.663l1.493,-9.986l17.475,-7.363l7.865,3.933l-5.367,-6.903l0,-5.734l-64.399,-0.78Z" style="fill:#d08746;"/></g></g></g></g><path d="M65.313,26.957l-1.194,-8.749l1.194,-7.351l-23.247,-6.257l-23.458,2.122l10.794,13.013l19.811,0.339l10.733,-6.533l-17.873,-3.571l-9.898,2.136l6.305,4.307l10.733,-1.651l-6.342,-1.651l-3.348,-0.092l3.061,1.24l-3.158,0.503l-3.29,-2.393l6.46,-0.886l14.273,2.489l-7.656,4.092l-17.468,0.072l-9.365,-9.835l19.16,-1.657l20.825,5.687l-1.141,7.215l0.546,9.182l3.543,-1.771" style="fill:#5b190f;fill-opacity:0.65;"/><path d="M6.28,8.174l16.1,18.783l5.367,2.683l14.662,-3.402l5.184,4.212l1.62,4.557l-5.367,1.505l-0.759,-5.455l-15.34,3.95l-5.367,-5.386l-3.939,-0.694l-3.135,-4.833l-10.391,-9.871l1.365,-6.049Z" style="fill:#5b190f;fill-opacity:0.65;"/></g></svg>