<?xml version="1.0" encoding="UTF-8" standalone="no"?><!DOCTYPE svg PUBLIC "-//W3C//DTD SVG 1.1//EN" "http://www.w3.org/Graphics/SVG/1.1/DTD/svg11.dtd"><svg width="100%" height="100%" viewBox="0 0 66 49" version="1.1" xmlns="http://www.w3.org/2000/svg" xmlns:xlink="http://www.w3.org/1999/xlink" xml:space="preserve" xmlns:serif="http://www.serif.com/" style="fill-rule:evenodd;clip-rule:evenodd;stroke-linejoin:round;stroke-miterlimit:1.41421;"><g id="rock-runes-highlights03"><g id="rock-highlights03"><g><g><g><path d="M65.149,18.837l0,10.733l-10.734,10.733l-37.566,-13.416l16.1,-13.417l32.2,5.367Z" style="fill:#d08746;"/><clipPath id="_clip1"><path d="M65.149,18.837l0,10.733l-10.734,10.733l-37.566,-13.416l16.1,-13.417l32.2,5.367Z"/></clipPath><g clip-path="url(#_clip1)"><path d="M63.426,39.442l-0.111,-6.191l-8.9,7.052l1.882,4.426l-1.882,0.941l-1.966,-4.384l-21.126,-7.163l-9.107,2.165l-2.708,11.948l-2.659,0.117l-2.509,-1.255l5.708,-11.755l-8.565,-11.14l16.1,2.684l5.366,-2.684l5.367,-24.149l-3.834,24.916l12.123,6.061l0.808,-14.06l-9.097,-15.782l11.499,12.96l1.014,17.214l7.29,-3.645l-0.176,-16.012l1.296,-0.647l2.186,18.209l3.724,0.302l-1.723,9.872Z" style="fill:#d08746;"/></g><path d="M49.049,0.054l10.733,10.733l-10.733,5.366l-10.733,-16.099l10.733,0Z" style="fill:#d08746;"/><path d="M59.782,10.787l0,16.1l-10.733,5.366l0,-16.1l10.733,-5.366Z" style="fill:#d0675b;"/><clipPath id="_clip2"><path d="M59.782,10.787l0,16.1l-10.733,5.366l0,-16.1l10.733,-5.366Z"/></clipPath><g clip-path="url(#_clip2)"><path d="M63.426,39.442l-0.111,-6.191l-8.9,7.052l1.882,4.426l-1.882,0.941l-1.966,-4.384l-21.126,-7.163l-9.107,2.165l-2.708,11.948l-2.659,0.117l-2.509,-1.255l5.708,-11.755l-8.565,-11.14l16.1,2.684l5.366,-2.684l5.367,-24.149l-3.834,24.916l12.123,6.061l0.808,-14.06l-9.097,-15.782l11.499,12.96l1.014,17.214l7.29,-3.645l-0.176,-16.012l1.296,-0.647l2.186,18.209l3.724,0.302l-1.723,9.872Z" style="fill:#d08746;"/></g><path d="M38.316,0.054l-5.367,24.149l16.1,8.05l0,-16.1l-10.733,-16.099Z" style="fill:#983c3c;"/><clipPath id="_clip3"><path d="M38.316,0.054l-5.367,24.149l16.1,8.05l0,-16.1l-10.733,-16.099Z"/></clipPath><g clip-path="url(#_clip3)"><path d="M63.426,39.442l-0.111,-6.191l-8.9,7.052l1.882,4.426l-1.882,0.941l-1.966,-4.384l-21.126,-7.163l-9.107,2.165l-2.708,11.948l-2.659,0.117l-2.509,-1.255l5.708,-11.755l-8.565,-11.14l16.1,2.684l5.366,-2.684l5.367,-24.149l-3.834,24.916l12.123,6.061l0.808,-14.06l-9.097,-15.782l11.499,12.96l1.014,17.214l7.29,-3.645l-0.176,-16.012l1.296,-0.647l2.186,18.209l3.724,0.302l-1.723,9.872Z" style="fill:#d08746;"/></g><path d="M65.149,29.57l-1.879,9.794l-8.855,6.306l0,-5.367l10.734,-10.733Z" style="fill:#d0675b;"/><clipPath id="_clip4"><path d="M65.149,29.57l-1.879,9.794l-8.855,6.306l0,-5.367l10.734,-10.733Z"/></clipPath><g clip-path="url(#_clip4)"><path d="M63.426,39.442l-0.111,-6.191l-8.9,7.052l1.882,4.426l-1.882,0.941l-1.966,-4.384l-21.126,-7.163l-9.107,2.165l-2.708,11.948l-2.659,0.117l-2.509,-1.255l5.708,-11.755l-8.565,-11.14l16.1,2.684l5.366,-2.684l5.367,-24.149l-3.834,24.916l12.123,6.061l0.808,-14.06l-9.097,-15.782l11.499,12.96l1.014,17.214l7.29,-3.645l-0.176,-16.012l1.296,-0.647l2.186,18.209l3.724,0.302l-1.723,9.872Z" style="fill:#d08746;"/></g><path d="M54.415,40.303l0,5.367l-42.932,0l5.366,-18.783l37.566,13.416Z" style="fill:#983c3c;"/><clipPath id="_clip5"><path d="M54.415,40.303l0,5.367l-42.932,0l5.366,-18.783l37.566,13.416Z"/></clipPath><g clip-path="url(#_clip5)"><path d="M63.426,39.442l-0.111,-6.191l-8.9,7.052l1.882,4.426l-1.882,0.941l-1.966,-4.384l-21.126,-7.163l-9.107,2.165l-2.708,11.948l-2.659,0.117l-2.509,-1.255l5.708,-11.755l-8.565,-11.14l16.1,2.684l5.366,-2.684l5.367,-24.149l-3.834,24.916l12.123,6.061l0.808,-14.06l-9.097,-15.782l11.499,12.96l1.014,17.214l7.29,-3.645l-0.176,-16.012l1.296,-0.647l2.186,18.209l3.724,0.302l-1.723,9.872Z" style="fill:#d08746;"/></g><path d="M11.483,24.203l16.1,2.684l3.705,4.764l-9.072,3.285l-10.733,-10.733Z" style="fill:#d08746;"/><path d="M31.297,31.666l-1,15.33l-13.448,1.357l5.367,-13.417l9.081,-3.27Z" style="fill:#d0675b;"/><clipPath id="_clip6"><path d="M31.297,31.666l-1,15.33l-13.448,1.357l5.367,-13.417l9.081,-3.27Z"/></clipPath><g clip-path="url(#_clip6)"><path d="M63.426,39.442l-0.111,-6.191l-8.9,7.052l1.882,4.426l-1.882,0.941l-1.966,-4.384l-21.126,-7.163l-9.107,2.165l-2.708,11.948l-2.659,0.117l-2.509,-1.255l5.708,-11.755l-8.565,-11.14l16.1,2.684l5.366,-2.684l5.367,-24.149l-3.834,24.916l12.123,6.061l0.808,-14.06l-9.097,-15.782l11.499,12.96l1.014,17.214l7.29,-3.645l-0.176,-16.012l1.296,-0.647l2.186,18.209l3.724,0.302l-1.723,9.872Z" style="fill:#d08746;"/></g><path d="M11.483,24.203l-10.733,16.1l16.099,8.05l5.367,-13.417l-10.733,-10.733Z" style="fill:#983c3c;"/><clipPath id="_clip7"><path d="M11.483,24.203l-10.733,16.1l16.099,8.05l5.367,-13.417l-10.733,-10.733Z"/></clipPath><g clip-path="url(#_clip7)"><path d="M63.426,39.442l-0.111,-6.191l-8.9,7.052l1.882,4.426l-1.882,0.941l-1.966,-4.384l-21.126,-7.163l-9.107,2.165l-2.708,11.948l-2.659,0.117l-2.509,-1.255l5.708,-11.755l-8.565,-11.14l16.1,2.684l5.366,-2.684l5.367,-24.149l-3.834,24.916l12.123,6.061l0.808,-14.06l-9.097,-15.782l11.499,12.96l1.014,17.214l7.29,-3.645l-0.176,-16.012l1.296,-0.647l2.186,18.209l3.724,0.302l-1.723,9.872Z" style="fill:#d08746;"/></g></g></g></g></g><path d="M64.273,34.171l-4.491,3.12l-2.607,4.063l-2.76,1.24l-16.099,-6.272l-7.271,2.701l-0.683,6.316l-3.627,-7.008l-3.724,-0.49l0.164,2.613l3.168,0.082l1.24,3.528l-9.129,0l-1.605,-9.359l-6.187,-4.607l-5.461,7.651l4.824,4.551l4.998,-2.107l-2.303,-3.332l-1.237,1.127l1.433,0.49l-0.846,1.79l-5.234,-2.617l4.022,-4.809l5.291,4.8l1.472,8.04l11.075,0l1.224,1.174l2.215,-1.108l0.814,-5.163l6.871,-0.931l14.595,4.949l4.467,-3.577l0.9,-2.597l4.05,-2.058l0.441,-2.2Z" style="fill:#5b190f;fill-opacity:0.65;"/><path d="M65.149,29.674l-2.318,-8.282l-1.029,8.037l-10.144,4.9l-6.812,-3.92l-5.107,2.227l-3.306,-5.136l-4.475,-0.767l0.431,-8.505l-4.806,-0.315l-2.24,2.646l5.837,-1.166l-0.203,8.862l4.314,0.831l4.655,5.88l5.734,-2.744l5.782,4.851l10.797,-6.387l2.89,-1.012" style="fill:#5b190f;fill-opacity:0.65;"/><path d="M59.782,26.558l-1.998,-5.901l-0.588,-4.95l-6.273,5.146l-1.874,3.234l-3.727,-6.399l-4.004,-10.556l2.364,1.813l6.996,3.577l0.539,-5.194l-6.258,-5.558l-0.064,2.274l2.255,0.932l3.185,3.136l-0.588,1.421l-8.135,-3.773l-1.549,0.206l1.304,7.438l2.315,7.106l-8.783,1.862l10.585,-0.441l3.017,4.353l3.304,-3.177l4.312,-3.283l2.647,7.693l1.018,-0.959Z" style="fill:#5b190f;fill-opacity:0.65;"/></g></svg>