<?xml version="1.0" encoding="UTF-8" standalone="no"?><!DOCTYPE svg PUBLIC "-//W3C//DTD SVG 1.1//EN" "http://www.w3.org/Graphics/SVG/1.1/DTD/svg11.dtd"><svg width="100%" height="100%" viewBox="0 0 86 84" version="1.1" xmlns="http://www.w3.org/2000/svg" xmlns:xlink="http://www.w3.org/1999/xlink" xml:space="preserve" xmlns:serif="http://www.serif.com/" style="fill-rule:evenodd;clip-rule:evenodd;stroke-linejoin:round;stroke-miterlimit:1.41421;"><g id="rock-highlights12"><g><g><path d="M59.078,21.513l16.1,8.05l-10.733,26.833l-21.467,-10.733l16.1,-24.15Z" style="fill:#d0675b;"/><clipPath id="_clip1"><path d="M59.078,21.513l16.1,8.05l-10.733,26.833l-21.467,-10.733l16.1,-24.15Z"/></clipPath><g clip-path="url(#_clip1)"><path d="M75.178,29.563l-11.513,23.91l-17.481,-8.543l12.894,-23.417l-10.733,-21.466l-7.119,39.373l-27.948,-31.667l-2.499,0.344l29.156,37.228l-29.156,26.024l0,1.146l32.199,-23.531l19.354,8.488l-8.621,25.776l11.852,-24.06l20.348,7.961l-19.212,-11.86l8.479,-25.706Z" style="fill:#d08746;"/></g><path d="M75.178,29.563l10.733,26.833l0,10.733l-21.466,-10.733l10.733,-26.833Z" style="fill:#d08746;"/><clipPath id="_clip2"><path d="M75.178,29.563l10.733,26.833l0,10.733l-21.466,-10.733l10.733,-26.833Z"/></clipPath><g clip-path="url(#_clip2)"><path d="M75.178,29.563l-11.513,23.91l-17.481,-8.543l12.894,-23.417l-10.733,-21.466l-7.119,39.373l-27.948,-31.667l-2.499,0.344l29.156,37.228l-29.156,26.024l0,1.146l32.199,-23.531l19.354,8.488l-8.621,25.776l11.852,-24.06l20.348,7.961l-19.212,-11.86l8.479,-25.706Z" style="fill:#d08746;"/></g><path d="M64.445,56.396l21.466,10.733l0,10.733l-32.2,5.366l10.734,-26.832" style="fill:#d0675b;"/><clipPath id="_clip3"><path d="M64.445,56.396l21.466,10.733l0,10.733l-32.2,5.366l10.734,-26.832"/></clipPath><g clip-path="url(#_clip3)"><path d="M75.178,29.563l-11.513,23.91l-17.481,-8.543l12.894,-23.417l-10.733,-21.466l-7.119,39.373l-27.948,-31.667l-2.499,0.344l29.156,37.228l-29.156,26.024l0,1.146l32.199,-23.531l19.354,8.488l-8.621,25.776l11.852,-24.06l20.348,7.961l-19.212,-11.86l8.479,-25.706Z" style="fill:#d08746;"/></g><path d="M64.445,56.396l-10.734,26.832l-32.199,0l-10.733,-10.733l32.199,-26.832l21.467,10.733Z" style="fill:#983c3c;"/><clipPath id="_clip4"><path d="M64.445,56.396l-10.734,26.832l-32.199,0l-10.733,-10.733l32.199,-26.832l21.467,10.733Z"/></clipPath><g clip-path="url(#_clip4)"><path d="M75.178,29.563l-11.513,23.91l-17.481,-8.543l12.894,-23.417l-10.733,-21.466l-7.119,39.373l-27.948,-31.667l-2.499,0.344l29.156,37.228l-29.156,26.024l0,1.146l32.199,-23.531l19.354,8.488l-8.621,25.776l11.852,-24.06l20.348,7.961l-19.212,-11.86l8.479,-25.706Z" style="fill:#d08746;"/></g><path d="M53.711,8.097l-5.366,-8.05l-5.367,45.616l16.1,-24.15l-5.367,-13.416Z" style="fill:#d08746;"/><clipPath id="_clip5"><path d="M53.711,8.097l-5.366,-8.05l-5.367,45.616l16.1,-24.15l-5.367,-13.416Z"/></clipPath><g clip-path="url(#_clip5)"><path d="M75.178,29.563l-11.513,23.91l-17.481,-8.543l12.894,-23.417l-10.733,-21.466l-7.119,39.373l-27.948,-31.667l-2.499,0.344l29.156,37.228l-29.156,26.024l0,1.146l32.199,-23.531l19.354,8.488l-8.621,25.776l11.852,-24.06l20.348,7.961l-19.212,-11.86l8.479,-25.706Z" style="fill:#d08746;"/></g><path d="M48.345,0.047l-26.833,2.683l-10.733,5.367l32.199,37.566l5.367,-45.616Z" style="fill:#d0675b;"/><clipPath id="_clip6"><path d="M48.345,0.047l-26.833,2.683l-10.733,5.367l32.199,37.566l5.367,-45.616Z"/></clipPath><g clip-path="url(#_clip6)"><path d="M75.178,29.563l-11.513,23.91l-17.481,-8.543l12.894,-23.417l-10.733,-21.466l-7.119,39.373l-27.948,-31.667l-2.499,0.344l29.156,37.228l-29.156,26.024l0,1.146l32.199,-23.531l19.354,8.488l-8.621,25.776l11.852,-24.06l20.348,7.961l-19.212,-11.86l8.479,-25.706Z" style="fill:#d08746;"/></g><path d="M10.779,8.097l-10.733,48.299l10.733,16.099l32.199,-26.832l-32.199,-37.566" style="fill:#7e3300;"/><clipPath id="_clip7"><path d="M10.779,8.097l-10.733,48.299l10.733,16.099l32.199,-26.832l-32.199,-37.566"/></clipPath><g clip-path="url(#_clip7)"><path d="M75.178,29.563l-11.513,23.91l-17.481,-8.543l12.894,-23.417l-10.733,-21.466l-7.119,39.373l-27.948,-31.667l-2.499,0.344l29.156,37.228l-29.156,26.024l0,1.146l32.199,-23.531l19.354,8.488l-8.621,25.776l11.852,-24.06l20.348,7.961l-19.212,-11.86l8.479,-25.706Z" style="fill:#d08746;"/></g></g></g></g></svg>