<?xml version="1.0" encoding="UTF-8" standalone="no"?><!DOCTYPE svg PUBLIC "-//W3C//DTD SVG 1.1//EN" "http://www.w3.org/Graphics/SVG/1.1/DTD/svg11.dtd"><svg width="100%" height="100%" viewBox="0 0 78 45" version="1.1" xmlns="http://www.w3.org/2000/svg" xmlns:xlink="http://www.w3.org/1999/xlink" xml:space="preserve" xmlns:serif="http://www.serif.com/" style="fill-rule:evenodd;clip-rule:evenodd;stroke-linejoin:round;stroke-miterlimit:1.41421;"><g id="rock-mossy01"><g id="rock-highlights01"><g><g><path d="M44.211,6.608l20.571,4.92l-10.733,10.733l-32.2,5.366l-10.733,-26.833l33.095,5.814Z" style="fill:#d08746;"/><path d="M64.782,11.528l6.372,8.552l-1.005,15.597l-16.1,-13.416l10.733,-10.733Z" style="fill:#d08746;"/><path d="M54.049,22.261l16.1,13.416l-59.033,8.05l10.733,-16.1l32.2,-5.366" style="fill:#d0675b;"/><clipPath id="_clip1"><path d="M54.049,22.261l16.1,13.416l-59.033,8.05l10.733,-16.1l32.2,-5.366"/></clipPath><g clip-path="url(#_clip1)"><path d="M70.149,35.677l-16.1,-11.22l-30.458,4.762l-12.475,14.508l9.077,-16.928l-9.077,-26.005l53.666,16.1l5.367,18.783" style="fill:#d08746;"/></g><path d="M11.116,0.794l-5.366,8.05l5.366,34.883l10.733,-16.1l-10.733,-26.833" style="fill:#7e3300;"/><clipPath id="_clip2"><path d="M11.116,0.794l-5.366,8.05l5.366,34.883l10.733,-16.1l-10.733,-26.833"/></clipPath><g clip-path="url(#_clip2)"><path d="M70.149,35.677l-16.1,-11.22l-30.458,4.762l-12.475,14.508l9.077,-16.928l-9.077,-26.005l53.666,16.1l5.367,18.783" style="fill:#d08746;"/></g></g></g></g><path d="M69.388,17.709l4.3,6.356c0,0 5.273,-5.152 3.662,3.536c-1.61,8.687 -2.068,9.602 -2.786,11.175c-0.719,1.572 -1.545,2.547 -6.207,2.263c-4.662,-0.285 -12.647,0.392 -12.647,0.392c0,0 0.434,-1.974 -4.993,-0.514c-5.428,1.461 -2.856,1.597 -8.676,1.597c-5.819,0 -6.896,0.823 -6.896,0.823l-14.927,0.465l-5.295,0.438l-5.024,-0.231l-5.48,-5.42l-0.759,-0.976c0,0 -4.335,-4.843 -3.277,-7.144c1.058,-2.301 2.691,-5.972 2.691,-5.972l0.932,-8.523l-1.985,-4.375l3.729,-1.864l5.366,6.93l0,2.842c0,0 -0.475,2.707 0,5.007c0.475,2.301 1.142,3.809 2.839,5.423c1.696,1.615 2.528,3.645 2.528,3.645l1.172,3.572l2.208,3.091c0,0 2.312,1.943 6.02,1.023c3.708,-0.92 11.104,-3.126 13.496,-3.985c2.392,-0.859 -0.608,-1.13 3.937,-1.807c4.545,-0.676 6.992,-1.196 9.422,-0.936c2.431,0.26 4.293,0.26 6.677,0.26c2.385,0 2.724,0.406 2.724,0.406l0.974,-0.487l-0.685,-5.024l2.354,-1.177l3.149,3.792l1.21,-5.971l-1.76,-1.888l0.155,-2.676l1.569,-0.785l1.044,-0.522l-0.761,-2.759Z" style="fill:#983b11;"/><clipPath id="_clip3"><path d="M69.388,17.709l4.3,6.356c0,0 5.273,-5.152 3.662,3.536c-1.61,8.687 -2.068,9.602 -2.786,11.175c-0.719,1.572 -1.545,2.547 -6.207,2.263c-4.662,-0.285 -12.647,0.392 -12.647,0.392c0,0 0.434,-1.974 -4.993,-0.514c-5.428,1.461 -2.856,1.597 -8.676,1.597c-5.819,0 -6.896,0.823 -6.896,0.823l-14.927,0.465l-5.295,0.438l-5.024,-0.231l-5.48,-5.42l-0.759,-0.976c0,0 -4.335,-4.843 -3.277,-7.144c1.058,-2.301 2.691,-5.972 2.691,-5.972l0.932,-8.523l-1.985,-4.375l3.729,-1.864l5.366,6.93l0,2.842c0,0 -0.475,2.707 0,5.007c0.475,2.301 1.142,3.809 2.839,5.423c1.696,1.615 2.528,3.645 2.528,3.645l1.172,3.572l2.208,3.091c0,0 2.312,1.943 6.02,1.023c3.708,-0.92 11.104,-3.126 13.496,-3.985c2.392,-0.859 -0.608,-1.13 3.937,-1.807c4.545,-0.676 6.992,-1.196 9.422,-0.936c2.431,0.26 4.293,0.26 6.677,0.26c2.385,0 2.724,0.406 2.724,0.406l0.974,-0.487l-0.685,-5.024l2.354,-1.177l3.149,3.792l1.21,-5.971l-1.76,-1.888l0.155,-2.676l1.569,-0.785l1.044,-0.522l-0.761,-2.759Z"/></clipPath><g clip-path="url(#_clip3)"><path d="M70.149,12.253l-21.467,11.333l14.162,23.528l26.155,-6.487l-6.371,-19.285l-12.479,-9.089" style="fill:#daa459;fill-opacity:0.5;"/><path d="M75.515,20.996c0,0 -0.295,-0.393 -0.374,1.969c-0.078,2.361 -1.427,4.653 -1.427,4.653c0,0 -0.843,-2.074 -1.777,2.689c-0.934,4.763 -3.158,6.946 -3.158,6.946l-1.354,0.677l-8.01,-1.362l-2.635,1.318c0,0 -2.156,-0.508 -5.132,0.165c-2.975,0.673 -3.675,0.239 -8.332,1.2c-4.658,0.962 -5.367,1.097 -5.367,1.097l-3.153,0.01l-7.58,4.642l-12.298,3.084l-1.299,0.649l-0.539,-6.625c0,0 -2.096,-0.133 -2.943,-2.367c-0.846,-2.235 -0.873,-6.782 -0.873,-6.782c0,0 -0.785,-2.084 -1.597,-3.979c-0.812,-1.894 -3.022,-0.135 -1.917,-4.466c1.105,-4.33 2.323,-4.195 1.105,-6.496c-1.218,-2.3 -4.671,-6.5 -4.671,-6.5l-3.497,-5.314c0,0 -14.915,8.296 -14.403,16.145c0.511,7.849 5.371,17.212 8.49,23.831c3.119,6.619 -4.463,17.31 18.342,17.31c22.805,0 27.113,-0.676 32.2,-1.082c5.086,-0.406 31.067,-8.384 35.399,-10.824c4.333,-2.439 9.255,-11.472 9.255,-11.472c-0.787,-10.975 -2.956,-20.06 -12.455,-19.116" style="fill:#deb752;"/><clipPath id="_clip4"><path d="M75.515,20.996c0,0 -0.295,-0.393 -0.374,1.969c-0.078,2.361 -1.427,4.653 -1.427,4.653c0,0 -0.843,-2.074 -1.777,2.689c-0.934,4.763 -3.158,6.946 -3.158,6.946l-1.354,0.677l-8.01,-1.362l-2.635,1.318c0,0 -2.156,-0.508 -5.132,0.165c-2.975,0.673 -3.675,0.239 -8.332,1.2c-4.658,0.962 -5.367,1.097 -5.367,1.097l-3.153,0.01l-7.58,4.642l-12.298,3.084l-1.299,0.649l-0.539,-6.625c0,0 -2.096,-0.133 -2.943,-2.367c-0.846,-2.235 -0.873,-6.782 -0.873,-6.782c0,0 -0.785,-2.084 -1.597,-3.979c-0.812,-1.894 -3.022,-0.135 -1.917,-4.466c1.105,-4.33 2.323,-4.195 1.105,-6.496c-1.218,-2.3 -4.671,-6.5 -4.671,-6.5l-3.497,-5.314c0,0 -14.915,8.296 -14.403,16.145c0.511,7.849 5.371,17.212 8.49,23.831c3.119,6.619 -4.463,17.31 18.342,17.31c22.805,0 27.113,-0.676 32.2,-1.082c5.086,-0.406 31.067,-8.384 35.399,-10.824c4.333,-2.439 9.255,-11.472 9.255,-11.472c-0.787,-10.975 -2.956,-20.06 -12.455,-19.116"/></clipPath><g clip-path="url(#_clip4)"><path d="M70.149,12.253l-21.467,11.333l14.162,23.528l26.155,-6.487l-6.371,-19.285l-12.479,-9.089" style="fill:#daa459;fill-opacity:0.5;"/></g><path d="M23.425,25.187l-19.455,26.591l-12.361,-16.914l-0.015,-16.107l8.789,-14.142l32.2,15.275l-9.158,5.297Z" style="fill:#191919;fill-opacity:0.5;"/></g></g></svg>