<?xml version="1.0" encoding="UTF-8" standalone="no"?><!DOCTYPE svg PUBLIC "-//W3C//DTD SVG 1.1//EN" "http://www.w3.org/Graphics/SVG/1.1/DTD/svg11.dtd"><svg width="100%" height="100%" viewBox="0 0 76 53" version="1.1" xmlns="http://www.w3.org/2000/svg" xmlns:xlink="http://www.w3.org/1999/xlink" xml:space="preserve" xmlns:serif="http://www.serif.com/" style="fill-rule:evenodd;clip-rule:evenodd;stroke-linejoin:round;stroke-miterlimit:1.41421;"><g id="rock04"><g><path d="M5.615,20.064l16.099,-8.049l32.2,0l16.1,8.049l-21.467,16.1l-21.466,0c0,0 -22.082,-9.395 -21.466,-9.395c0.616,0 0,-6.705 0,-6.705" style="fill:#d08746;"/><path d="M5.615,20.064l-5.367,2.684l0,10.733l7.312,-5.891l-1.945,-7.526Z" style="fill:#7e3300;"/><path d="M7.469,27.575l-7.221,5.906l26.833,13.416l0,-10.733l-19.612,-8.589" style="fill:#7e3300;"/><path d="M27.081,36.164l0,10.733l21.466,5.367l0,-16.1l-21.466,0" style="fill:#983c3c;"/><path d="M70.014,20.064l-21.467,16.1l0,16.1l26.833,-13.417l-5.366,-18.783Z" style="fill:#d0675b;"/></g><g><path d="M28.552,0.347l18.154,0l-9.077,18.154l-18.154,-9.077l9.077,-9.077Z" style="fill:#d0675b;"/><path d="M46.706,0.347l4.538,11.346l0,18.154l-13.615,-11.346l9.077,-18.154Z" style="fill:#d08746;"/><path d="M51.244,29.847l-27.23,0l13.615,-11.346l13.615,11.346Z" style="fill:#983c3c;"/><path d="M24.014,29.847l-13.616,-6.808l9.077,-13.615l18.154,9.077l-13.615,11.346Z" style="fill:#7e3300;"/></g></g></svg>