<?xml version="1.0" encoding="UTF-8" standalone="no"?><!DOCTYPE svg PUBLIC "-//W3C//DTD SVG 1.1//EN" "http://www.w3.org/Graphics/SVG/1.1/DTD/svg11.dtd"><svg width="100%" height="100%" viewBox="0 0 86 85" version="1.1" xmlns="http://www.w3.org/2000/svg" xmlns:xlink="http://www.w3.org/1999/xlink" xml:space="preserve" xmlns:serif="http://www.serif.com/" style="fill-rule:evenodd;clip-rule:evenodd;stroke-linejoin:round;stroke-miterlimit:1.41421;"><g id="rock-runes-highlights12"><g id="rock-highlights12"><g><g><path d="M59.078,21.837l16.1,8.05l-10.733,26.832l-21.467,-10.733l16.1,-24.149Z" style="fill:#d0675b;"/><clipPath id="_clip1"><path d="M59.078,21.837l16.1,8.05l-10.733,26.832l-21.467,-10.733l16.1,-24.149Z"/></clipPath><g clip-path="url(#_clip1)"><path d="M75.178,29.887l-11.513,23.909l-17.481,-8.542l12.894,-23.417l-10.733,-21.466l-7.119,39.373l-27.948,-31.667l-2.499,0.343l29.156,37.229l-29.156,26.024l0,1.146l32.199,-23.531l19.354,8.488l-8.621,25.776l11.852,-24.06l20.348,7.961l-19.212,-11.861l8.479,-25.705Z" style="fill:#d08746;"/></g><path d="M75.178,29.887l10.733,26.832l0,10.734l-21.466,-10.734l10.733,-26.832Z" style="fill:#d08746;"/><clipPath id="_clip2"><path d="M75.178,29.887l10.733,26.832l0,10.734l-21.466,-10.734l10.733,-26.832Z"/></clipPath><g clip-path="url(#_clip2)"><path d="M75.178,29.887l-11.513,23.909l-17.481,-8.542l12.894,-23.417l-10.733,-21.466l-7.119,39.373l-27.948,-31.667l-2.499,0.343l29.156,37.229l-29.156,26.024l0,1.146l32.199,-23.531l19.354,8.488l-8.621,25.776l11.852,-24.06l20.348,7.961l-19.212,-11.861l8.479,-25.705Z" style="fill:#d08746;"/></g><path d="M64.445,56.719l21.466,10.734l0,10.733l-32.2,5.366l10.734,-26.833" style="fill:#d0675b;"/><clipPath id="_clip3"><path d="M64.445,56.719l21.466,10.734l0,10.733l-32.2,5.366l10.734,-26.833"/></clipPath><g clip-path="url(#_clip3)"><path d="M75.178,29.887l-11.513,23.909l-17.481,-8.542l12.894,-23.417l-10.733,-21.466l-7.119,39.373l-27.948,-31.667l-2.499,0.343l29.156,37.229l-29.156,26.024l0,1.146l32.199,-23.531l19.354,8.488l-8.621,25.776l11.852,-24.06l20.348,7.961l-19.212,-11.861l8.479,-25.705Z" style="fill:#d08746;"/></g><path d="M64.445,56.719l-10.734,26.833l-32.199,0l-10.733,-10.733l32.199,-26.833l21.467,10.733Z" style="fill:#983c3c;"/><clipPath id="_clip4"><path d="M64.445,56.719l-10.734,26.833l-32.199,0l-10.733,-10.733l32.199,-26.833l21.467,10.733Z"/></clipPath><g clip-path="url(#_clip4)"><path d="M75.178,29.887l-11.513,23.909l-17.481,-8.542l12.894,-23.417l-10.733,-21.466l-7.119,39.373l-27.948,-31.667l-2.499,0.343l29.156,37.229l-29.156,26.024l0,1.146l32.199,-23.531l19.354,8.488l-8.621,25.776l11.852,-24.06l20.348,7.961l-19.212,-11.861l8.479,-25.705Z" style="fill:#d08746;"/></g><path d="M53.711,8.42l-5.366,-8.049l-5.367,45.615l16.1,-24.149l-5.367,-13.417Z" style="fill:#d08746;"/><clipPath id="_clip5"><path d="M53.711,8.42l-5.366,-8.049l-5.367,45.615l16.1,-24.149l-5.367,-13.417Z"/></clipPath><g clip-path="url(#_clip5)"><path d="M75.178,29.887l-11.513,23.909l-17.481,-8.542l12.894,-23.417l-10.733,-21.466l-7.119,39.373l-27.948,-31.667l-2.499,0.343l29.156,37.229l-29.156,26.024l0,1.146l32.199,-23.531l19.354,8.488l-8.621,25.776l11.852,-24.06l20.348,7.961l-19.212,-11.861l8.479,-25.705Z" style="fill:#d08746;"/></g><path d="M48.345,0.371l-26.833,2.683l-10.733,5.366l32.199,37.566l5.367,-45.615Z" style="fill:#d0675b;"/><clipPath id="_clip6"><path d="M48.345,0.371l-26.833,2.683l-10.733,5.366l32.199,37.566l5.367,-45.615Z"/></clipPath><g clip-path="url(#_clip6)"><path d="M75.178,29.887l-11.513,23.909l-17.481,-8.542l12.894,-23.417l-10.733,-21.466l-7.119,39.373l-27.948,-31.667l-2.499,0.343l29.156,37.229l-29.156,26.024l0,1.146l32.199,-23.531l19.354,8.488l-8.621,25.776l11.852,-24.06l20.348,7.961l-19.212,-11.861l8.479,-25.705Z" style="fill:#d08746;"/></g><path d="M10.779,8.42l-10.733,48.299l10.733,16.1l32.199,-26.833l-32.199,-37.566" style="fill:#7e3300;"/><clipPath id="_clip7"><path d="M10.779,8.42l-10.733,48.299l10.733,16.1l32.199,-26.833l-32.199,-37.566"/></clipPath><g clip-path="url(#_clip7)"><path d="M75.178,29.887l-11.513,23.909l-17.481,-8.542l12.894,-23.417l-10.733,-21.466l-7.119,39.373l-27.948,-31.667l-2.499,0.343l29.156,37.229l-29.156,26.024l0,1.146l32.199,-23.531l19.354,8.488l-8.621,25.776l11.852,-24.06l20.348,7.961l-19.212,-11.861l8.479,-25.705Z" style="fill:#d08746;"/></g></g></g></g><path d="M85.911,56.391l-16.1,-8.05l-1.478,-0.739l-3.888,-18.044l-7.663,-3.831l-8.437,-18.489l-16.1,0.854l-10.733,10.733l16.1,13.417l5.366,-13.417l-9.895,-0.419l4.529,3.102l-0.961,4.887l-9.772,-7.716l5.366,-6.842l13.852,3.181l7.614,14.54l6.847,3.423l3.887,23.41l10.733,0l10.733,5.367l0,-5.367Z" style="fill:#5b190f;fill-opacity:0.65;"/><path d="M5.412,32.242l21.467,10.733l5.366,12.381l16.1,3.718l10.733,10.734l11.115,-5.176l15.718,7.859l0,5.366l-10.733,-5.366l-18.003,3.634l-10.609,-11.493l-18.197,-6.303l-6.857,-12.671l-17.84,-3.553l1.74,-9.863Z" style="fill:#1d0705;fill-opacity:0.5;"/><path d="M10.779,72.491l10.733,-5.367l10.733,5.367l5.367,8.05l0,3.366l-3.639,0.181l-1.728,-4.847l-10.733,-7.537l-7.338,4.456l3.654,3.54l3.684,-1.843l5.367,2.684l0,3.276l-5.367,0.18l-10.733,-11.506Z" style="fill:#1d0705;fill-opacity:0.5;"/></g></svg>