<?xml version="1.0" encoding="UTF-8" standalone="no"?><!DOCTYPE svg PUBLIC "-//W3C//DTD SVG 1.1//EN" "http://www.w3.org/Graphics/SVG/1.1/DTD/svg11.dtd"><svg width="100%" height="100%" viewBox="0 0 55 49" version="1.1" xmlns="http://www.w3.org/2000/svg" xmlns:xlink="http://www.w3.org/1999/xlink" xml:space="preserve" xmlns:serif="http://www.serif.com/" style="fill-rule:evenodd;clip-rule:evenodd;stroke-linejoin:round;stroke-miterlimit:1.41421;"><g id="rock-runes-highlights06"><g id="rock-highlights06"><g><g><path d="M43.345,0.602l10.733,16.1l-21.466,21.466l10.733,-37.566Z" style="fill:#d08746;"/><clipPath id="_clip1"><path d="M43.345,0.602l10.733,16.1l-21.466,21.466l10.733,-37.566Z"/></clipPath><g clip-path="url(#_clip1)"><path d="M54.078,38.168l-0.968,-17.613l-19.58,18.072l1.013,9.709l-4.978,0.244l1.078,-9.428l-19.498,-11.717l-10.733,16.1l9.12,-16.907l-3.753,-17.976l7.266,17.833l19.567,9.932l18.811,-19.237l2.655,-0.478l0,21.466Z" style="fill:#d08746;"/></g><path d="M43.345,0.602l-37.566,8.05l5.366,18.783l21.467,10.733l10.733,-37.566" style="fill:#d0675b;"/><clipPath id="_clip2"><path d="M43.345,0.602l-37.566,8.05l5.366,18.783l21.467,10.733l10.733,-37.566"/></clipPath><g clip-path="url(#_clip2)"><path d="M54.078,38.168l-0.968,-17.613l-19.58,18.072l1.013,9.709l-4.978,0.244l1.078,-9.428l-19.498,-11.717l-10.733,16.1l9.12,-16.907l-3.753,-17.976l7.266,17.833l19.567,9.932l18.811,-19.237l2.655,-0.478l0,21.466Z" style="fill:#d08746;"/></g><path d="M54.078,16.702l0,21.466l-21.466,10.733l0,-10.733l21.466,-21.466Z" style="fill:#d0675b;"/><clipPath id="_clip3"><path d="M54.078,16.702l0,21.466l-21.466,10.733l0,-10.733l21.466,-21.466Z"/></clipPath><g clip-path="url(#_clip3)"><path d="M54.078,38.168l-0.968,-17.613l-19.58,18.072l1.013,9.709l-4.978,0.244l1.078,-9.428l-19.498,-11.717l-10.733,16.1l9.12,-16.907l-3.753,-17.976l7.266,17.833l19.567,9.932l18.811,-19.237l2.655,-0.478l0,21.466Z" style="fill:#d08746;"/></g><path d="M11.145,27.435l21.467,10.733l0,10.733l-32.2,-5.366l10.733,-16.1Z" style="fill:#983c3c;"/><clipPath id="_clip4"><path d="M11.145,27.435l21.467,10.733l0,10.733l-32.2,-5.366l10.733,-16.1Z"/></clipPath><g clip-path="url(#_clip4)"><path d="M54.078,38.168l-0.968,-17.613l-19.58,18.072l1.013,9.709l-4.978,0.244l1.078,-9.428l-19.498,-11.717l-10.733,16.1l9.12,-16.907l-3.753,-17.976l7.266,17.833l19.567,9.932l18.811,-19.237l2.655,-0.478l0,21.466Z" style="fill:#d08746;"/></g><path d="M5.779,8.652l-5.367,34.883l10.733,-16.1l-5.366,-18.783Z" style="fill:#7e3300;"/><clipPath id="_clip5"><path d="M5.779,8.652l-5.367,34.883l10.733,-16.1l-5.366,-18.783Z"/></clipPath><g clip-path="url(#_clip5)"><path d="M54.078,38.168l-0.968,-17.613l-19.58,18.072l1.013,9.709l-4.978,0.244l1.078,-9.428l-19.498,-11.717l-10.733,16.1l9.12,-16.907l-3.753,-17.976l7.266,17.833l19.567,9.932l18.811,-19.237l2.655,-0.478l0,21.466Z" style="fill:#d08746;"/></g></g></g></g><path d="M54.078,37.84l-5.367,-8.05l0,-7.653l-8.195,-9.716l-9.454,1.551l1.55,-6.46l-15.405,0.464l-0.695,11.081l13.652,11.066l2.448,-5.653l-3.084,1.095l-10.11,-7.961l2.461,-5.875l7.478,-0.718l-1.167,4.845l10.858,0.18l7.358,8.076l-1.037,7.349l-9.116,8.199l-3.641,1.769l-11.922,-8.361l-7.25,5.919l-4.093,-9.492l-3.568,0.295l-3.739,1.87l-0.679,3.309l5.732,-0.47l5.909,7.779l7.968,-4.892l11.642,9.248l2.936,-3.859l5.563,-2.692l6.64,-7.178l2.594,6.801l3.733,-1.866" style="fill:#5b190f;fill-opacity:0.65;"/></g></svg>