<?xml version="1.0" encoding="UTF-8" standalone="no"?><!DOCTYPE svg PUBLIC "-//W3C//DTD SVG 1.1//EN" "http://www.w3.org/Graphics/SVG/1.1/DTD/svg11.dtd"><svg width="100%" height="100%" viewBox="0 0 38 39" version="1.1" xmlns="http://www.w3.org/2000/svg" xmlns:xlink="http://www.w3.org/1999/xlink" xml:space="preserve" xmlns:serif="http://www.serif.com/" style="fill-rule:evenodd;clip-rule:evenodd;stroke-linejoin:round;stroke-miterlimit:1.41421;"><g id="rock-mossy08"><g id="rock-highlights08"><g><g><path d="M17.448,0.396l10.733,5.366l-10.733,10.733l-5.367,-8.05l0,-5.366l5.367,-2.683" style="fill:#d08746;"/><clipPath id="_clip1"><path d="M17.448,0.396l10.733,5.366l-10.733,10.733l-5.367,-8.05l0,-5.366l5.367,-2.683"/></clipPath><g clip-path="url(#_clip1)"><path d="M29.165,7.841l-10.286,9.37l-6.798,12.701l2.656,-13.465l-2.656,-7.088l-5.367,17.869l3.91,-18.881l0.513,-4.796l17.044,2.211l0.984,2.079Z" style="fill:#d08746;"/></g><path d="M28.181,5.762l5.366,13.417l-5.366,13.416l-16.1,-2.683l5.367,-13.417l10.733,-10.733Z" style="fill:#d0675b;"/><clipPath id="_clip2"><path d="M28.181,5.762l5.366,13.417l-5.366,13.416l-16.1,-2.683l5.367,-13.417l10.733,-10.733Z"/></clipPath><g clip-path="url(#_clip2)"><path d="M29.165,7.841l-10.286,9.37l-6.798,12.701l2.656,-13.465l-2.656,-7.088l-5.367,17.869l3.91,-18.881l0.513,-4.796l17.044,2.211l0.984,2.079Z" style="fill:#d08746;"/></g><path d="M12.081,29.912l-5.367,-2.684l5.367,-18.783l5.367,8.05l-5.367,13.417Z" style="fill:#983c3c;"/><clipPath id="_clip3"><path d="M12.081,29.912l-5.367,-2.684l5.367,-18.783l5.367,8.05l-5.367,13.417Z"/></clipPath><g clip-path="url(#_clip3)"><path d="M29.165,7.841l-10.286,9.37l-6.798,12.701l2.656,-13.465l-2.656,-7.088l-5.367,17.869l3.91,-18.881l0.513,-4.796l17.044,2.211l0.984,2.079Z" style="fill:#d08746;"/></g><path d="M12.081,3.079l-5.367,2.683l0,21.466l5.367,-18.783l0,-5.366" style="fill:#7e3300;"/><clipPath id="_clip4"><path d="M12.081,3.079l-5.367,2.683l0,21.466l5.367,-18.783l0,-5.366"/></clipPath><g clip-path="url(#_clip4)"><path d="M29.165,7.841l-10.286,9.37l-6.798,12.701l2.656,-13.465l-2.656,-7.088l-5.367,17.869l3.91,-18.881l0.513,-4.796l17.044,2.211l0.984,2.079Z" style="fill:#d08746;"/></g></g></g></g><path d="M32.055,15.449l3.2,-0.677l1.979,6.394l-3.687,5.253l-3.012,7.384l0.076,1.903c0,0 1.066,0.457 -0.989,0.99c-2.056,0.533 -8.077,1.887 -10.281,1.21c-2.204,-0.677 -4.201,-1.707 -10.739,-3.476c-6.538,-1.769 -4.178,-1.845 -5.244,-3.672c-1.065,-1.827 -3.501,-5.71 -3.045,-6.623c0.457,-0.914 -0.595,-2.132 1.035,-4.872c1.63,-2.741 2.315,-4.644 2.315,-4.644l0,-1.827l-2.315,-4.719l2.01,-1.599l5.862,-1.979l-2.506,2.158l0,13.219c0,0 0.451,0.99 0.831,-0.305c0.381,-1.294 0.283,-2.86 1.398,-3.295c1.114,-0.435 1.918,-0.959 1.918,-0.959c0,0 1.645,-0.161 1.22,1.133c-0.425,1.294 0.044,1.294 0,2.284c-0.044,0.99 1.094,0.083 1.438,2.059c0.345,1.976 0.752,3.552 0.752,3.552l3.177,0.251c0,0 -0.387,1.598 0.831,-0.076c1.218,-1.675 1.446,-1.827 1.446,-1.827c0,0 7.457,1.91 6.355,-0.986c-1.102,-2.897 -1.254,-3.886 -1.254,-3.886c0,0 -2.364,-1.439 0.112,-2.052c2.476,-0.613 5.521,-1.222 5.521,-1.222l0.295,4.13l2.141,0.057l-0.84,-3.281" style="fill:#983b11;"/><clipPath id="_clip5"><path d="M32.055,15.449l3.2,-0.677l1.979,6.394l-3.687,5.253l-3.012,7.384l0.076,1.903c0,0 1.066,0.457 -0.989,0.99c-2.056,0.533 -8.077,1.887 -10.281,1.21c-2.204,-0.677 -4.201,-1.707 -10.739,-3.476c-6.538,-1.769 -4.178,-1.845 -5.244,-3.672c-1.065,-1.827 -3.501,-5.71 -3.045,-6.623c0.457,-0.914 -0.595,-2.132 1.035,-4.872c1.63,-2.741 2.315,-4.644 2.315,-4.644l0,-1.827l-2.315,-4.719l2.01,-1.599l5.862,-1.979l-2.506,2.158l0,13.219c0,0 0.451,0.99 0.831,-0.305c0.381,-1.294 0.283,-2.86 1.398,-3.295c1.114,-0.435 1.918,-0.959 1.918,-0.959c0,0 1.645,-0.161 1.22,1.133c-0.425,1.294 0.044,1.294 0,2.284c-0.044,0.99 1.094,0.083 1.438,2.059c0.345,1.976 0.752,3.552 0.752,3.552l3.177,0.251c0,0 -0.387,1.598 0.831,-0.076c1.218,-1.675 1.446,-1.827 1.446,-1.827c0,0 7.457,1.91 6.355,-0.986c-1.102,-2.897 -1.254,-3.886 -1.254,-3.886c0,0 -2.364,-1.439 0.112,-2.052c2.476,-0.613 5.521,-1.222 5.521,-1.222l0.295,4.13l2.141,0.057l-0.84,-3.281"/></clipPath><g clip-path="url(#_clip5)"><path d="M41.774,13.45l-12.642,-2.899l-14.524,13.622l-5.678,14.562l29.984,5.484l2.86,-30.769Z" style="fill:#daa459;fill-opacity:0.5;"/><path d="M38.914,17.386l-3.434,1.717l-0.301,2.596c0,0 0.761,1.675 -0.838,0.761c-1.598,-0.913 -4.187,-2.436 -4.187,-2.436l-1.973,0.305l2.126,5.024l-2.126,1.979l-1.06,1.317l-2.295,2.413l-2.012,1.599c0,0 -2.099,0.914 -3.393,0.914c-1.294,0 -4.196,-1.2 -4.196,-1.2l-4.623,-0.833l-3.888,-3.423c0,0 0.222,-3.147 1.516,-3.908c1.295,-0.761 1.295,-1.294 1.295,-1.294l-3.633,-0.575l-1.37,-0.686l-0.412,-5.572l0.746,-4.993l-3.508,-2.562l-3.014,-1.827c0,0 -1.675,5.481 -1.675,7.004c0,1.522 2.665,13.17 2.665,14.54c0,1.37 4.948,10.429 4.948,10.429c0,0 20.612,4.451 21.687,4.433c1.074,-0.018 9.18,-0.776 9.18,-0.776c0,0 5.445,-9.823 4.76,-10.813c-0.686,-0.989 -0.985,-14.133 -0.985,-14.133Z" style="fill:#deb752;"/><clipPath id="_clip6"><path d="M38.914,17.386l-3.434,1.717l-0.301,2.596c0,0 0.761,1.675 -0.838,0.761c-1.598,-0.913 -4.187,-2.436 -4.187,-2.436l-1.973,0.305l2.126,5.024l-2.126,1.979l-1.06,1.317l-2.295,2.413l-2.012,1.599c0,0 -2.099,0.914 -3.393,0.914c-1.294,0 -4.196,-1.2 -4.196,-1.2l-4.623,-0.833l-3.888,-3.423c0,0 0.222,-3.147 1.516,-3.908c1.295,-0.761 1.295,-1.294 1.295,-1.294l-3.633,-0.575l-1.37,-0.686l-0.412,-5.572l0.746,-4.993l-3.508,-2.562l-3.014,-1.827c0,0 -1.675,5.481 -1.675,7.004c0,1.522 2.665,13.17 2.665,14.54c0,1.37 4.948,10.429 4.948,10.429c0,0 20.612,4.451 21.687,4.433c1.074,-0.018 9.18,-0.776 9.18,-0.776c0,0 5.445,-9.823 4.76,-10.813c-0.686,-0.989 -0.985,-14.133 -0.985,-14.133Z"/></clipPath><g clip-path="url(#_clip6)"><path d="M41.774,13.45l-12.642,-2.899l-14.524,13.622l-5.678,14.562l29.984,5.484l2.86,-30.769Z" style="fill:#daa459;fill-opacity:0.5;"/></g><path d="M12.081,9.336l-4.038,11.858l-8.261,-1.907l-0.51,-12.875l12.809,-3.45l0,6.374" style="fill:#191919;fill-opacity:0.5;"/></g></g></svg>