<?xml version="1.0" encoding="UTF-8" standalone="no"?><!DOCTYPE svg PUBLIC "-//W3C//DTD SVG 1.1//EN" "http://www.w3.org/Graphics/SVG/1.1/DTD/svg11.dtd"><svg width="100%" height="100%" viewBox="0 0 64 45" version="1.1" xmlns="http://www.w3.org/2000/svg" xmlns:xlink="http://www.w3.org/1999/xlink" xml:space="preserve" xmlns:serif="http://www.serif.com/" style="fill-rule:evenodd;clip-rule:evenodd;stroke-linejoin:round;stroke-miterlimit:1.41421;"><g id="rock-runes-mossy05"><g id="rock-mossy05"><g id="rock-runes-highlights05"><g id="rock-highlights05"><g><g><path d="M32.354,0.015l21.466,0l-10.733,21.466l-21.466,-10.733l10.733,-10.733Z" style="fill:#d0675b;"/><clipPath id="_clip1"><path d="M32.354,0.015l21.466,0l-10.733,21.466l-21.466,-10.733l10.733,-10.733Z"/></clipPath><g clip-path="url(#_clip1)"><path d="M59.187,34.897l-16.1,-10.566l-16.099,10.566l12.361,-13.098l-17.728,-11.051l21.466,7.676l10.733,-18.409l-5.366,21.363l10.733,13.519Z" style="fill:#d08746;"/></g><path d="M53.82,0.015l5.367,13.416l0,21.466l-16.1,-13.416l10.733,-21.466Z" style="fill:#d08746;"/><clipPath id="_clip2"><path d="M53.82,0.015l5.367,13.416l0,21.466l-16.1,-13.416l10.733,-21.466Z"/></clipPath><g clip-path="url(#_clip2)"><path d="M59.187,34.897l-16.1,-10.566l-16.099,10.566l12.361,-13.098l-17.728,-11.051l21.466,7.676l10.733,-18.409l-5.366,21.363l10.733,13.519Z" style="fill:#d08746;"/></g><path d="M59.187,34.897l-32.199,0l16.099,-13.416l16.1,13.416Z" style="fill:#983c3c;"/><clipPath id="_clip3"><path d="M59.187,34.897l-32.199,0l16.099,-13.416l16.1,13.416Z"/></clipPath><g clip-path="url(#_clip3)"><path d="M59.187,34.897l-16.1,-10.566l-16.099,10.566l12.361,-13.098l-17.728,-11.051l21.466,7.676l10.733,-18.409l-5.366,21.363l10.733,13.519Z" style="fill:#d08746;"/></g><path d="M26.988,34.897l-16.1,-8.05l10.733,-16.099l21.466,10.733l-16.099,13.416Z" style="fill:#7e3300;"/><clipPath id="_clip4"><path d="M26.988,34.897l-16.1,-8.05l10.733,-16.099l21.466,10.733l-16.099,13.416Z"/></clipPath><g clip-path="url(#_clip4)"><path d="M59.187,34.897l-16.1,-10.566l-16.099,10.566l12.361,-13.098l-17.728,-11.051l21.466,7.676l10.733,-18.409l-5.366,21.363l10.733,13.519Z" style="fill:#d08746;"/></g></g></g></g><path d="M59.187,34.569l-4.478,-19.228l-7.539,-2.88l-0.002,-8.397l-17.01,2.087l2.196,9.635l-16.1,13.416l5.367,2.684l16.1,-8.05l0,-5.367l-3.04,-3.847l-0.453,-5.14l9.854,-2.546l1.429,10.062l6.815,-0.465l2.477,14.861l-3.83,3.609l8.214,-0.434Z" style="fill:#5b190f;fill-opacity:0.65;"/></g><path d="M58.508,11.732l1.629,0.291l0.649,4.791l-0.076,9.003c0,0 0.807,3.583 1.294,4.476c0.488,0.893 0.888,3.643 0.888,3.643c0,0 2.198,0.417 -0.4,1.31c-2.599,0.893 -1.977,1.082 -4.602,1.191c-2.625,0.108 -0.189,-0.541 -6.198,0.108c-6.009,0.65 -10.079,-0.162 -13.971,0.731c-3.893,0.893 -2.35,1.543 -8.115,1.543c-5.766,0 -5.762,-0.074 -8.687,0.004c-2.925,0.077 -3.9,-0.248 -5.442,0.077c-1.543,0.325 -4.466,0.974 -5.522,1.137c-1.056,0.162 -0.213,-1.564 -1.609,-0.295c-1.395,1.269 -4.156,4.03 -4.156,4.03c0,0 0.081,0.487 -1.218,0.65c-1.299,0.162 -2.817,-2.274 -2.817,-2.274c0,0 -1.154,-3.719 3.024,-5.189c4.178,-1.469 3.877,-1.421 4.839,-2.419c0.963,-0.999 2.026,-0.445 1.291,-2.224c-0.734,-1.78 -0.897,-0.968 -0.897,-2.104c0,-1.137 1.056,0.812 0,-2.842c-1.055,-3.654 -1.624,-3.654 -1.461,-5.603c0.162,-1.949 -1.681,-2.892 1.068,-6.196c2.748,-3.305 2.294,-4.537 3.82,-4.408c1.526,0.129 4.937,0.21 6.236,0.21c1.299,0 2.277,0.9 2.277,0.9l-7.367,11.147c0,0 1.774,-0.11 3.269,-0.841c1.496,-0.731 2.658,-1.187 3.945,-0.918c1.286,0.268 2.261,0.918 2.342,2.055c0.081,1.136 0.081,2.354 0.081,2.354l0.922,0.707l3.444,1.648c0,0 2.161,1.522 2.957,0.518c0.797,-1.005 2.409,-1.898 2.409,-1.898l1.23,-0.812l2.273,-0.246l2.858,-1.429l0.91,-0.455l-1.25,4.647l-1.384,1.307l7.555,0.561l5.7,0.7l1.137,0.568l2.437,0.356l1.891,-0.082c0,0 -0.307,-1.669 -2.569,-4.083c-2.262,-2.413 -2.749,-2.981 -2.749,-2.981c0,0 -1.218,-0.081 1.137,-0.568c2.354,-0.488 2.29,-0.488 2.29,-0.488c0,0 -1.606,-2.679 0,-3.166c1.607,-0.488 3.509,-0.257 3.509,-0.257l-0.481,-2.098l2.339,-1.868l0,-3.573l-0.679,-1.346Z" style="fill:#983b11;"/><clipPath id="_clip5"><path d="M58.508,11.732l1.629,0.291l0.649,4.791l-0.076,9.003c0,0 0.807,3.583 1.294,4.476c0.488,0.893 0.888,3.643 0.888,3.643c0,0 2.198,0.417 -0.4,1.31c-2.599,0.893 -1.977,1.082 -4.602,1.191c-2.625,0.108 -0.189,-0.541 -6.198,0.108c-6.009,0.65 -10.079,-0.162 -13.971,0.731c-3.893,0.893 -2.35,1.543 -8.115,1.543c-5.766,0 -5.762,-0.074 -8.687,0.004c-2.925,0.077 -3.9,-0.248 -5.442,0.077c-1.543,0.325 -4.466,0.974 -5.522,1.137c-1.056,0.162 -0.213,-1.564 -1.609,-0.295c-1.395,1.269 -4.156,4.03 -4.156,4.03c0,0 0.081,0.487 -1.218,0.65c-1.299,0.162 -2.817,-2.274 -2.817,-2.274c0,0 -1.154,-3.719 3.024,-5.189c4.178,-1.469 3.877,-1.421 4.839,-2.419c0.963,-0.999 2.026,-0.445 1.291,-2.224c-0.734,-1.78 -0.897,-0.968 -0.897,-2.104c0,-1.137 1.056,0.812 0,-2.842c-1.055,-3.654 -1.624,-3.654 -1.461,-5.603c0.162,-1.949 -1.681,-2.892 1.068,-6.196c2.748,-3.305 2.294,-4.537 3.82,-4.408c1.526,0.129 4.937,0.21 6.236,0.21c1.299,0 2.277,0.9 2.277,0.9l-7.367,11.147c0,0 1.774,-0.11 3.269,-0.841c1.496,-0.731 2.658,-1.187 3.945,-0.918c1.286,0.268 2.261,0.918 2.342,2.055c0.081,1.136 0.081,2.354 0.081,2.354l0.922,0.707l3.444,1.648c0,0 2.161,1.522 2.957,0.518c0.797,-1.005 2.409,-1.898 2.409,-1.898l1.23,-0.812l2.273,-0.246l2.858,-1.429l0.91,-0.455l-1.25,4.647l-1.384,1.307l7.555,0.561l5.7,0.7l1.137,0.568l2.437,0.356l1.891,-0.082c0,0 -0.307,-1.669 -2.569,-4.083c-2.262,-2.413 -2.749,-2.981 -2.749,-2.981c0,0 -1.218,-0.081 1.137,-0.568c2.354,-0.488 2.29,-0.488 2.29,-0.488c0,0 -1.606,-2.679 0,-3.166c1.607,-0.488 3.509,-0.257 3.509,-0.257l-0.481,-2.098l2.339,-1.868l0,-3.573l-0.679,-1.346Z"/></clipPath><g clip-path="url(#_clip5)"><path d="M61.429,7.834l-18.342,14.538l-12.177,20.744l42.902,5.351l-12.383,-40.633Z" style="fill:#daa459;fill-opacity:0.5;"/><path d="M62.393,12.719l-2.628,6.68l-0.578,1.637c0,0 1.161,1.462 0,2.111c-1.161,0.65 -1.757,1.029 -1.757,1.029c0,0 -1.597,-0.704 -1.11,1.001c0.488,1.705 2.867,2.274 2.867,2.274l-0.656,2.643l0.038,0.636l-0.219,1.918l-3.297,1.073l-4.985,0.226c0,0 -9.176,-0.406 -10.394,-0.569c-1.218,-0.162 -7.32,-1.705 -7.32,-1.705l2.266,-2.802c0,0 -5.42,2.802 -6.72,3.289c-1.299,0.488 -0.912,0.488 -0.912,0.488l-2.641,0.237c0,0 -2.943,-2.186 -4.323,-2.592c-1.381,-0.406 -4.71,-1.462 -4.71,-1.462l2.543,-2.975l-3.67,0.233l-2.527,-1.074c0,0 -1.057,0.325 -0.772,-1.543c0.285,-1.868 -0.648,-3.006 1.97,-5.482c2.619,-2.476 3.396,-3.668 3.396,-3.668l-5.366,-8.05l-7.185,11.191c0,0 1.769,10.069 1.818,11.368c0.049,1.299 -1.591,1.705 0,2.436c1.592,0.731 5.367,-0.568 5.367,-0.568l2.153,2.598c0,0 1.355,0.375 0.068,0.919c-1.286,0.543 -4.21,1.355 -4.21,1.355l-3.378,3.329l6.139,-1.868c0,0 6.496,-1.136 8.607,-1.136c2.112,0 3.979,0 3.979,0c0,0 -0.636,-0.514 1.956,-0.501c2.592,0.013 1.861,0.013 4.053,-0.23c2.193,-0.244 0.138,-0.325 2.099,-0.325c1.961,0 3.042,-0.214 3.042,-0.214l2.325,0.295c0,0 0.045,-0.479 3.293,3.094c3.248,3.572 -0.284,3.24 4.913,5.27c5.197,2.03 0.927,2.436 7.893,2.598c6.966,0.163 10.539,-2.355 11.757,-3.979c1.218,-1.624 3.086,-1.461 3.573,-4.628c0.487,-3.167 -6.757,-24.557 -6.757,-24.557" style="fill:#deb752;"/><clipPath id="_clip6"><path d="M62.393,12.719l-2.628,6.68l-0.578,1.637c0,0 1.161,1.462 0,2.111c-1.161,0.65 -1.757,1.029 -1.757,1.029c0,0 -1.597,-0.704 -1.11,1.001c0.488,1.705 2.867,2.274 2.867,2.274l-0.656,2.643l0.038,0.636l-0.219,1.918l-3.297,1.073l-4.985,0.226c0,0 -9.176,-0.406 -10.394,-0.569c-1.218,-0.162 -7.32,-1.705 -7.32,-1.705l2.266,-2.802c0,0 -5.42,2.802 -6.72,3.289c-1.299,0.488 -0.912,0.488 -0.912,0.488l-2.641,0.237c0,0 -2.943,-2.186 -4.323,-2.592c-1.381,-0.406 -4.71,-1.462 -4.71,-1.462l2.543,-2.975l-3.67,0.233l-2.527,-1.074c0,0 -1.057,0.325 -0.772,-1.543c0.285,-1.868 -0.648,-3.006 1.97,-5.482c2.619,-2.476 3.396,-3.668 3.396,-3.668l-5.366,-8.05l-7.185,11.191c0,0 1.769,10.069 1.818,11.368c0.049,1.299 -1.591,1.705 0,2.436c1.592,0.731 5.367,-0.568 5.367,-0.568l2.153,2.598c0,0 1.355,0.375 0.068,0.919c-1.286,0.543 -4.21,1.355 -4.21,1.355l-3.378,3.329l6.139,-1.868c0,0 6.496,-1.136 8.607,-1.136c2.112,0 3.979,0 3.979,0c0,0 -0.636,-0.514 1.956,-0.501c2.592,0.013 1.861,0.013 4.053,-0.23c2.193,-0.244 0.138,-0.325 2.099,-0.325c1.961,0 3.042,-0.214 3.042,-0.214l2.325,0.295c0,0 0.045,-0.479 3.293,3.094c3.248,3.572 -0.284,3.24 4.913,5.27c5.197,2.03 0.927,2.436 7.893,2.598c6.966,0.163 10.539,-2.355 11.757,-3.979c1.218,-1.624 3.086,-1.461 3.573,-4.628c0.487,-3.167 -6.757,-24.557 -6.757,-24.557"/></clipPath><g clip-path="url(#_clip6)"><path d="M61.429,7.834l-18.342,14.538l-12.177,20.744l42.902,5.351l-12.383,-40.633Z" style="fill:#daa459;fill-opacity:0.5;"/></g><path d="M32.354,18.607l-25.412,7.158l-1.421,-19.969l24.881,1.452l1.952,11.359Z" style="fill:#191919;fill-opacity:0.5;"/></g></g></g></svg>