<?xml version="1.0" encoding="UTF-8" standalone="no"?><!DOCTYPE svg PUBLIC "-//W3C//DTD SVG 1.1//EN" "http://www.w3.org/Graphics/SVG/1.1/DTD/svg11.dtd"><svg width="100%" height="100%" viewBox="0 0 85 61" version="1.1" xmlns="http://www.w3.org/2000/svg" xmlns:xlink="http://www.w3.org/1999/xlink" xml:space="preserve" xmlns:serif="http://www.serif.com/" style="fill-rule:evenodd;clip-rule:evenodd;stroke-linejoin:round;stroke-miterlimit:1.41421;"><g id="rock-mossy04"><g id="rock-highlights04"><g><g><g><g><path d="M13.615,20.111l16.099,-8.05l32.2,0l16.1,8.05l-21.467,16.1l-21.466,0c0,0 -22.082,-9.395 -21.466,-9.395c0.616,0 0,-6.705 0,-6.705" style="fill:#d08746;"/><path d="M13.615,20.111l-5.367,2.683l0,10.734l7.312,-5.892l-1.945,-7.525Z" style="fill:#7e3300;"/><clipPath id="_clip1"><path d="M13.615,20.111l-5.367,2.683l0,10.734l7.312,-5.892l-1.945,-7.525Z"/></clipPath><g clip-path="url(#_clip1)"><path d="M83.38,38.894l-7.304,-16.801l-17.714,15.826l1.814,12.577l-4.216,2.108l-1.121,-14.308l1.708,-0.968l0,13.96l0,-13.615l-21.466,0.029l1.931,10.207l-4.725,-2.362l2.794,-9.336l-19.549,-6.325l-7.284,3.642l5.367,-6.478l0,-6.939l14.684,10.841l26.684,1.793l4.488,-3.363l-13.657,-7.922l-13.246,8.128l9.02,-10.448l-13.921,-9.492l17.368,4.707l7.463,-13.685l2.485,0.013l1.564,12.445l9.281,6.257l12.186,0.726l5.366,18.783Z" style="fill:#d08746;"/></g><path d="M15.469,27.622l-7.221,5.906l26.833,13.416l0,-10.733l-19.612,-8.589" style="fill:#7e3300;"/><clipPath id="_clip2"><path d="M15.469,27.622l-7.221,5.906l26.833,13.416l0,-10.733l-19.612,-8.589"/></clipPath><g clip-path="url(#_clip2)"><path d="M83.38,38.894l-7.304,-16.801l-17.714,15.826l1.814,12.577l-4.216,2.108l-1.121,-14.308l1.708,-0.968l0,13.96l0,-13.615l-21.466,0.029l1.931,10.207l-4.725,-2.362l2.794,-9.336l-19.549,-6.325l-7.284,3.642l5.367,-6.478l0,-6.939l14.684,10.841l26.684,1.793l4.488,-3.363l-13.657,-7.922l-13.246,8.128l9.02,-10.448l-13.921,-9.492l17.368,4.707l7.463,-13.685l2.485,0.013l1.564,12.445l9.281,6.257l12.186,0.726l5.366,18.783Z" style="fill:#d08746;"/></g><path d="M35.081,36.211l0,10.733l21.466,5.367l0,-16.1l-21.466,0" style="fill:#983c3c;"/><clipPath id="_clip3"><path d="M35.081,36.211l0,10.733l21.466,5.367l0,-16.1l-21.466,0"/></clipPath><g clip-path="url(#_clip3)"><path d="M83.38,38.894l-7.304,-16.801l-17.714,15.826l1.814,12.577l-4.216,2.108l-1.121,-14.308l1.708,-0.968l0,13.96l0,-13.615l-21.466,0.029l1.931,10.207l-4.725,-2.362l2.794,-9.336l-19.549,-6.325l-7.284,3.642l5.367,-6.478l0,-6.939l14.684,10.841l26.684,1.793l4.488,-3.363l-13.657,-7.922l-13.246,8.128l9.02,-10.448l-13.921,-9.492l17.368,4.707l7.463,-13.685l2.485,0.013l1.564,12.445l9.281,6.257l12.186,0.726l5.366,18.783Z" style="fill:#d08746;"/></g><path d="M78.014,20.111l-21.467,16.1l0,16.1l26.833,-13.417l-5.366,-18.783Z" style="fill:#d0675b;"/><clipPath id="_clip4"><path d="M78.014,20.111l-21.467,16.1l0,16.1l26.833,-13.417l-5.366,-18.783Z"/></clipPath><g clip-path="url(#_clip4)"><path d="M83.38,38.894l-7.304,-16.801l-17.714,15.826l1.814,12.577l-4.216,2.108l-1.121,-14.308l1.708,-0.968l0,13.96l0,-13.615l-21.466,0.029l1.931,10.207l-4.725,-2.362l2.794,-9.336l-19.549,-6.325l-7.284,3.642l5.367,-6.478l0,-6.939l14.684,10.841l26.684,1.793l4.488,-3.363l-13.657,-7.922l-13.246,8.128l9.02,-10.448l-13.921,-9.492l17.368,4.707l7.463,-13.685l2.485,0.013l1.564,12.445l9.281,6.257l12.186,0.726l5.366,18.783Z" style="fill:#d08746;"/></g></g></g><g><g><path d="M36.552,0.394l18.154,0l-9.077,18.153l-18.154,-9.076l9.077,-9.077Z" style="fill:#d0675b;"/><clipPath id="_clip5"><path d="M36.552,0.394l18.154,0l-9.077,18.153l-18.154,-9.076l9.077,-9.077Z"/></clipPath><g clip-path="url(#_clip5)"><path d="M83.38,38.894l-7.304,-16.801l-17.714,15.826l1.814,12.577l-4.216,2.108l-1.121,-14.308l1.708,-0.968l0,13.96l0,-13.615l-21.466,0.029l1.931,10.207l-4.725,-2.362l2.794,-9.336l-19.549,-6.325l-7.284,3.642l5.367,-6.478l0,-6.939l14.684,10.841l26.684,1.793l4.488,-3.363l-13.657,-7.922l-13.246,8.128l9.02,-10.448l-13.921,-9.492l17.368,4.707l7.463,-13.685l2.485,0.013l1.564,12.445l9.281,6.257l12.186,0.726l5.366,18.783Z" style="fill:#d08746;"/></g><path d="M54.706,0.394l4.538,11.346l0,18.153l-13.615,-11.346l9.077,-18.153Z" style="fill:#d08746;"/><path d="M59.244,29.893l-27.23,0l13.615,-11.346l13.615,11.346Z" style="fill:#983c3c;"/><clipPath id="_clip6"><path d="M59.244,29.893l-27.23,0l13.615,-11.346l13.615,11.346Z"/></clipPath><g clip-path="url(#_clip6)"><path d="M83.38,38.894l-7.304,-16.801l-17.714,15.826l1.814,12.577l-4.216,2.108l-1.121,-14.308l1.708,-0.968l0,13.96l0,-13.615l-21.466,0.029l1.931,10.207l-4.725,-2.362l2.794,-9.336l-19.549,-6.325l-7.284,3.642l5.367,-6.478l0,-6.939l14.684,10.841l26.684,1.793l4.488,-3.363l-13.657,-7.922l-13.246,8.128l9.02,-10.448l-13.921,-9.492l17.368,4.707l7.463,-13.685l2.485,0.013l1.564,12.445l9.281,6.257l12.186,0.726l5.366,18.783Z" style="fill:#d08746;"/></g><path d="M32.014,29.893l-13.616,-6.807l9.077,-13.615l18.154,9.076l-13.615,11.346Z" style="fill:#7e3300;"/><clipPath id="_clip7"><path d="M32.014,29.893l-13.616,-6.807l9.077,-13.615l18.154,9.076l-13.615,11.346Z"/></clipPath><g clip-path="url(#_clip7)"><path d="M83.38,38.894l-7.304,-16.801l-17.714,15.826l1.814,12.577l-4.216,2.108l-1.121,-14.308l1.708,-0.968l0,13.96l0,-13.615l-21.466,0.029l1.931,10.207l-4.725,-2.362l2.794,-9.336l-19.549,-6.325l-7.284,3.642l5.367,-6.478l0,-6.939l14.684,10.841l26.684,1.793l4.488,-3.363l-13.657,-7.922l-13.246,8.128l9.02,-10.448l-13.921,-9.492l17.368,4.707l7.463,-13.685l2.485,0.013l1.564,12.445l9.281,6.257l12.186,0.726l5.366,18.783Z" style="fill:#d08746;"/></g></g></g></g></g></g><path d="M81.133,40.018c0,0 -7.046,4.566 -7.561,5.596c-0.515,1.031 -2.389,4.172 -2.389,4.172l-0.851,1.89c0,0 0.037,0.865 -1.607,2.248c-1.644,1.382 -1.038,1.036 -3.117,1.988c-2.079,0.953 -0.892,1.299 -3.694,1.559c-2.802,0.26 -2.829,0.465 -4.505,0.666c-1.675,0.2 -0.982,0.287 -3.407,0.374c-2.425,0.086 -0.866,-0.174 -5.11,0.173c-4.244,0.346 -2.079,0.26 -5.977,0.346c-3.897,0.087 -4.634,3.12 -5.782,0.564c-1.147,-2.556 4.916,-0.39 -3.139,-4.548c-8.055,-4.157 -9.646,-4.244 -9.646,-4.244c0,0 -0.055,3.378 -1.354,3.898c-1.299,0.519 -1.559,1.212 -1.559,1.212l-0.133,1.133c0,0 -0.133,0.267 -1.386,-0.693c-1.252,-0.959 -2.205,-2.345 -2.205,-2.345c0,0 -2.166,1.126 -0.52,-0.78c1.646,-1.905 1.79,-2.709 1.79,-2.709c0,0 -0.491,-1.968 -1.617,-2.228c-1.126,-0.26 -2.889,-0.025 -2.889,-0.025c0,0 -0.279,-0.494 -0.86,0.718c-0.581,1.213 -0.928,1.386 -0.928,1.386l-2.595,-0.773c0,0 -2.732,0.513 -1.844,-0.959c0.888,-1.473 1.148,-2.079 1.148,-2.079l0.42,-2.19l-2.499,-1.621l-0.866,0.173l-3.569,-0.452l-0.935,-1.28c0,0 -0.868,-0.784 -0.824,-3.207c0.045,-2.423 -0.404,-3.692 0.254,-6.998c0.657,-3.307 -3.445,0.875 0.511,-4.118c3.957,-4.992 1.965,-2.22 4.303,-5.338c2.339,-3.118 -1.362,0.393 3.39,-3.874c4.752,-4.268 1.374,-4.701 5.964,-4.701c4.591,0 8.803,-2.683 8.803,-2.683l1.722,0.861l-2.631,4.051l-15.191,7.472l1.494,3.811l1.386,-0.347l0.953,1.992c0,0 0.173,-0.606 0.606,1.126c0.433,1.733 0.928,3.292 0.928,3.292c0,0 -0.495,0.866 1.064,0.519c1.559,-0.346 -1.94,-0.016 1.802,0.122c3.742,0.138 3.511,0.024 4.493,0.254c0.981,0.231 2.107,1.27 2.107,1.27c0,0 -0.174,0.521 0.086,1.819c0.26,1.299 1.181,2.079 1.181,2.079c0,0 -1.007,-0.087 1.418,0c2.425,0.086 2.96,-0.26 3.948,0.086c0.989,0.347 1.65,0.284 1.65,0.284l0.846,2.073c0,0 -0.273,1.324 0.712,2.515c0.986,1.191 1.938,1.711 3.064,2.057c1.126,0.347 0.053,0.02 2.235,0.66c2.183,0.639 1.49,0.813 2.962,0.813c1.473,0 -0.191,-1.004 2.633,-0.242c2.824,0.761 2.997,1.021 5.249,1.194c2.252,0.174 0.074,-0.173 2.116,0.174c2.041,0.346 3.945,0.342 3.945,0.342c0,0 -0.781,2.436 2.685,-0.079c3.466,-2.515 1.175,-4.499 3.274,-2.901c2.098,1.598 3.83,2.118 3.83,2.118c0,0 -1.355,-3.144 -0.331,-3.867c1.024,-0.724 1.944,-2.667 2.696,-1.349c0.753,1.318 1.36,3.484 1.186,2.271c-0.173,-1.212 -0.086,-2.772 -0.346,-4.85c-0.26,-2.079 -1.813,-3.389 0.046,-2.344c1.859,1.045 0.56,2.517 2.466,2.171c1.905,-0.347 1.819,-2.685 3.118,-1.906c1.299,0.78 0.617,1.115 0.617,1.115c0,0 1.646,0.891 1.299,-2.314c-0.346,-3.205 0.144,-3.774 0.144,-3.774c0,0 -0.413,-3.859 -1.973,-4.38c-1.56,-0.521 -5.411,-0.781 -1.19,-0.608c4.221,0.174 5.367,0.347 5.367,0.347c0,0 -0.414,0.496 0,3.539c0.413,3.044 0.759,3.477 0.759,3.477l0.466,1.277l2.393,0.022l1.748,1.212l0.846,1.639l-3.093,0.656Z" style="fill:#983b11;"/><clipPath id="_clip8"><path d="M81.133,40.018c0,0 -7.046,4.566 -7.561,5.596c-0.515,1.031 -2.389,4.172 -2.389,4.172l-0.851,1.89c0,0 0.037,0.865 -1.607,2.248c-1.644,1.382 -1.038,1.036 -3.117,1.988c-2.079,0.953 -0.892,1.299 -3.694,1.559c-2.802,0.26 -2.829,0.465 -4.505,0.666c-1.675,0.2 -0.982,0.287 -3.407,0.374c-2.425,0.086 -0.866,-0.174 -5.11,0.173c-4.244,0.346 -2.079,0.26 -5.977,0.346c-3.897,0.087 -4.634,3.12 -5.782,0.564c-1.147,-2.556 4.916,-0.39 -3.139,-4.548c-8.055,-4.157 -9.646,-4.244 -9.646,-4.244c0,0 -0.055,3.378 -1.354,3.898c-1.299,0.519 -1.559,1.212 -1.559,1.212l-0.133,1.133c0,0 -0.133,0.267 -1.386,-0.693c-1.252,-0.959 -2.205,-2.345 -2.205,-2.345c0,0 -2.166,1.126 -0.52,-0.78c1.646,-1.905 1.79,-2.709 1.79,-2.709c0,0 -0.491,-1.968 -1.617,-2.228c-1.126,-0.26 -2.889,-0.025 -2.889,-0.025c0,0 -0.279,-0.494 -0.86,0.718c-0.581,1.213 -0.928,1.386 -0.928,1.386l-2.595,-0.773c0,0 -2.732,0.513 -1.844,-0.959c0.888,-1.473 1.148,-2.079 1.148,-2.079l0.42,-2.19l-2.499,-1.621l-0.866,0.173l-3.569,-0.452l-0.935,-1.28c0,0 -0.868,-0.784 -0.824,-3.207c0.045,-2.423 -0.404,-3.692 0.254,-6.998c0.657,-3.307 -3.445,0.875 0.511,-4.118c3.957,-4.992 1.965,-2.22 4.303,-5.338c2.339,-3.118 -1.362,0.393 3.39,-3.874c4.752,-4.268 1.374,-4.701 5.964,-4.701c4.591,0 8.803,-2.683 8.803,-2.683l1.722,0.861l-2.631,4.051l-15.191,7.472l1.494,3.811l1.386,-0.347l0.953,1.992c0,0 0.173,-0.606 0.606,1.126c0.433,1.733 0.928,3.292 0.928,3.292c0,0 -0.495,0.866 1.064,0.519c1.559,-0.346 -1.94,-0.016 1.802,0.122c3.742,0.138 3.511,0.024 4.493,0.254c0.981,0.231 2.107,1.27 2.107,1.27c0,0 -0.174,0.521 0.086,1.819c0.26,1.299 1.181,2.079 1.181,2.079c0,0 -1.007,-0.087 1.418,0c2.425,0.086 2.96,-0.26 3.948,0.086c0.989,0.347 1.65,0.284 1.65,0.284l0.846,2.073c0,0 -0.273,1.324 0.712,2.515c0.986,1.191 1.938,1.711 3.064,2.057c1.126,0.347 0.053,0.02 2.235,0.66c2.183,0.639 1.49,0.813 2.962,0.813c1.473,0 -0.191,-1.004 2.633,-0.242c2.824,0.761 2.997,1.021 5.249,1.194c2.252,0.174 0.074,-0.173 2.116,0.174c2.041,0.346 3.945,0.342 3.945,0.342c0,0 -0.781,2.436 2.685,-0.079c3.466,-2.515 1.175,-4.499 3.274,-2.901c2.098,1.598 3.83,2.118 3.83,2.118c0,0 -1.355,-3.144 -0.331,-3.867c1.024,-0.724 1.944,-2.667 2.696,-1.349c0.753,1.318 1.36,3.484 1.186,2.271c-0.173,-1.212 -0.086,-2.772 -0.346,-4.85c-0.26,-2.079 -1.813,-3.389 0.046,-2.344c1.859,1.045 0.56,2.517 2.466,2.171c1.905,-0.347 1.819,-2.685 3.118,-1.906c1.299,0.78 0.617,1.115 0.617,1.115c0,0 1.646,0.891 1.299,-2.314c-0.346,-3.205 0.144,-3.774 0.144,-3.774c0,0 -0.413,-3.859 -1.973,-4.38c-1.56,-0.521 -5.411,-0.781 -1.19,-0.608c4.221,0.174 5.367,0.347 5.367,0.347c0,0 -0.414,0.496 0,3.539c0.413,3.044 0.759,3.477 0.759,3.477l0.466,1.277l2.393,0.022l1.748,1.212l0.846,1.639l-3.093,0.656Z"/></clipPath><g clip-path="url(#_clip8)"><path d="M80.661,19.678l-29.48,14.741l-3.537,30.43l50.184,-21.555l-17.167,-23.616Z" style="fill:#daa459;fill-opacity:0.5;"/><path d="M24.348,7.842l-2.849,6.369l-1.796,0.3l-1.732,0.693c0,0 -1.126,0 -1.993,0.779c-0.866,0.78 -1.645,1.386 -1.645,1.386l-1.559,0.866l-1.839,1.427l-2.687,1.605c0,0 -2.285,-1.362 -2.301,1.268c-0.016,2.629 0.036,5.384 0.036,5.384l0.45,0.226c0,0 3.397,-3.846 3.006,0.311c-0.39,4.157 -1.191,5.963 -1.191,5.963l2.136,1.068c0,0 -1.335,1.457 1.783,-0.102c3.119,-1.559 3.932,-2.407 3.932,-2.407c0,0 0.399,0.155 0.919,1.454c0.52,1.299 0.779,2.339 0.866,3.551c0.087,1.213 0.005,2.348 0.005,2.348c0,0 -1.275,1.55 1.092,1.636c2.368,0.087 0.635,-1.818 2.801,0.087c2.165,1.906 1.212,1.039 3.378,2.685c2.165,1.646 1.126,0.953 3.031,2.252c1.906,1.299 -0.186,3.229 3.155,4.343c3.341,1.114 -1.241,1.149 3.735,1.868c4.976,0.718 3.59,0.458 6.275,1.065c2.685,0.606 1.001,2.26 2.752,-0.213c1.752,-2.472 1.706,-3.685 1.706,-3.685c0,0 0.219,-0.52 1.865,1.039c1.646,1.559 3.502,4.477 3.502,4.477c0,0 -2.678,0.81 0.894,-0.448c3.573,-1.257 2.86,-0.911 4.472,-1.344c1.612,-0.433 -0.086,0.452 1.716,-0.034c1.802,-0.485 0.329,-0.485 2.062,-0.485c1.732,0 1.589,0 1.589,0l2.618,-1.746l1.856,-0.679l-1.023,-1.49l0.993,-0.999c0,0 0.17,-1.107 0.922,-0.825c0.753,0.282 1.166,0.583 1.166,0.583c0,0 -1.192,3.77 0.367,0.998c1.559,-2.771 1.732,-6.149 1.732,-6.149l0.173,-0.866l2.859,0.346l0.866,0.433l0.341,-1.694l1.737,-1.164l1.493,-0.433c0,0 -2.761,-5.137 -0.611,-2.482c2.15,2.655 1.727,3.628 3.151,3.791c1.424,0.163 2.826,-0.183 2.826,-0.183c0,0 0.18,1.946 -2.776,2.748c-2.957,0.803 -6.579,12.811 -6.579,12.811l-10.494,5.486l-47.466,-1.471l-16.608,-11.042l-1.942,-27.327l12.92,-11.953l13.913,-2.425Z" style="fill:#deb752;"/><clipPath id="_clip9"><path d="M24.348,7.842l-2.849,6.369l-1.796,0.3l-1.732,0.693c0,0 -1.126,0 -1.993,0.779c-0.866,0.78 -1.645,1.386 -1.645,1.386l-1.559,0.866l-1.839,1.427l-2.687,1.605c0,0 -2.285,-1.362 -2.301,1.268c-0.016,2.629 0.036,5.384 0.036,5.384l0.45,0.226c0,0 3.397,-3.846 3.006,0.311c-0.39,4.157 -1.191,5.963 -1.191,5.963l2.136,1.068c0,0 -1.335,1.457 1.783,-0.102c3.119,-1.559 3.932,-2.407 3.932,-2.407c0,0 0.399,0.155 0.919,1.454c0.52,1.299 0.779,2.339 0.866,3.551c0.087,1.213 0.005,2.348 0.005,2.348c0,0 -1.275,1.55 1.092,1.636c2.368,0.087 0.635,-1.818 2.801,0.087c2.165,1.906 1.212,1.039 3.378,2.685c2.165,1.646 1.126,0.953 3.031,2.252c1.906,1.299 -0.186,3.229 3.155,4.343c3.341,1.114 -1.241,1.149 3.735,1.868c4.976,0.718 3.59,0.458 6.275,1.065c2.685,0.606 1.001,2.26 2.752,-0.213c1.752,-2.472 1.706,-3.685 1.706,-3.685c0,0 0.219,-0.52 1.865,1.039c1.646,1.559 3.502,4.477 3.502,4.477c0,0 -2.678,0.81 0.894,-0.448c3.573,-1.257 2.86,-0.911 4.472,-1.344c1.612,-0.433 -0.086,0.452 1.716,-0.034c1.802,-0.485 0.329,-0.485 2.062,-0.485c1.732,0 1.589,0 1.589,0l2.618,-1.746l1.856,-0.679l-1.023,-1.49l0.993,-0.999c0,0 0.17,-1.107 0.922,-0.825c0.753,0.282 1.166,0.583 1.166,0.583c0,0 -1.192,3.77 0.367,0.998c1.559,-2.771 1.732,-6.149 1.732,-6.149l0.173,-0.866l2.859,0.346l0.866,0.433l0.341,-1.694l1.737,-1.164l1.493,-0.433c0,0 -2.761,-5.137 -0.611,-2.482c2.15,2.655 1.727,3.628 3.151,3.791c1.424,0.163 2.826,-0.183 2.826,-0.183c0,0 0.18,1.946 -2.776,2.748c-2.957,0.803 -6.579,12.811 -6.579,12.811l-10.494,5.486l-47.466,-1.471l-16.608,-11.042l-1.942,-27.327l12.92,-11.953l13.913,-2.425Z"/></clipPath><g clip-path="url(#_clip9)"><path d="M80.661,19.678l-29.48,14.741l-3.537,30.43l50.184,-21.555l-17.167,-23.616Z" style="fill:#daa459;fill-opacity:0.5;"/></g><path d="M32.952,30.671l-32.493,13.009l-6.2,-23.733l40.822,-13.903l-1.242,25.07" style="fill:#191919;fill-opacity:0.5;"/></g></g></svg>