<?xml version="1.0" encoding="UTF-8" standalone="no"?><!DOCTYPE svg PUBLIC "-//W3C//DTD SVG 1.1//EN" "http://www.w3.org/Graphics/SVG/1.1/DTD/svg11.dtd"><svg width="100%" height="100%" viewBox="0 0 92 68" version="1.1" xmlns="http://www.w3.org/2000/svg" xmlns:xlink="http://www.w3.org/1999/xlink" xml:space="preserve" xmlns:serif="http://www.serif.com/" style="fill-rule:evenodd;clip-rule:evenodd;stroke-linejoin:round;stroke-miterlimit:1.41421;"><g id="rock-highlights13"><g><g><path d="M42.943,0.413l26.833,8.05l-10.733,26.833l-32.2,5.367l-10.733,-26.833l26.833,-13.417Z" style="fill:#d0675b;"/><clipPath id="_clip1"><path d="M42.943,0.413l26.833,8.05l-10.733,26.833l-32.2,5.367l-10.733,-26.833l26.833,-13.417Z"/></clipPath><g clip-path="url(#_clip1)"><path d="M69.776,8.463l-8.787,25.86l30.253,15.978l-1.395,1.792l-30.804,-15.437l-30.653,6.23l-12.28,24.609l8.721,-26.785l-8.721,-26.88l12.083,24.804l29.959,-4.944l11.624,-25.227Z" style="fill:#d08746;"/></g><path d="M69.776,8.463l21.466,21.466l0,21.467l-32.199,-16.1l10.733,-26.833" style="fill:#d08746;"/><clipPath id="_clip2"><path d="M69.776,8.463l21.466,21.466l0,21.467l-32.199,-16.1l10.733,-26.833"/></clipPath><g clip-path="url(#_clip2)"><path d="M69.776,8.463l-8.787,25.86l30.253,15.978l-1.395,1.792l-30.804,-15.437l-30.653,6.23l-12.28,24.609l8.721,-26.785l-8.721,-26.88l12.083,24.804l29.959,-4.944l11.624,-25.227Z" style="fill:#d08746;"/></g><path d="M59.043,35.296l32.199,16.1l-32.199,16.099l-42.933,0l10.733,-26.832l32.2,-5.367Z" style="fill:#983c3c;"/><clipPath id="_clip3"><path d="M59.043,35.296l32.199,16.1l-32.199,16.099l-42.933,0l10.733,-26.832l32.2,-5.367Z"/></clipPath><g clip-path="url(#_clip3)"><path d="M69.776,8.463l-8.787,25.86l30.253,15.978l-1.395,1.792l-30.804,-15.437l-30.653,6.23l-12.28,24.609l8.721,-26.785l-8.721,-26.88l12.083,24.804l29.959,-4.944l11.624,-25.227Z" style="fill:#d08746;"/></g><path d="M16.11,13.83l10.733,26.833l-10.733,26.832l-16.1,-34.882l16.1,-18.783Z" style="fill:#7e3300;"/><clipPath id="_clip4"><path d="M16.11,13.83l10.733,26.833l-10.733,26.832l-16.1,-34.882l16.1,-18.783Z"/></clipPath><g clip-path="url(#_clip4)"><path d="M69.776,8.463l-8.787,25.86l30.253,15.978l-1.395,1.792l-30.804,-15.437l-30.653,6.23l-12.28,24.609l8.721,-26.785l-8.721,-26.88l12.083,24.804l29.959,-4.944l11.624,-25.227Z" style="fill:#d08746;"/></g></g></g></g></svg>