<?xml version="1.0" encoding="UTF-8" standalone="no"?><!DOCTYPE svg PUBLIC "-//W3C//DTD SVG 1.1//EN" "http://www.w3.org/Graphics/SVG/1.1/DTD/svg11.dtd"><svg width="100%" height="100%" viewBox="0 0 141 87" version="1.1" xmlns="http://www.w3.org/2000/svg" xmlns:xlink="http://www.w3.org/1999/xlink" xml:space="preserve" xmlns:serif="http://www.serif.com/" style="fill-rule:evenodd;clip-rule:evenodd;stroke-linejoin:round;stroke-miterlimit:1.41421;"><g id="rock-highlights07"><g><g><path d="M97.31,11.595l32.199,16.1l-21.466,32.199l-42.933,10.733l-42.932,-32.199l21.466,-32.2l42.932,-5.366l10.734,10.733Z" style="fill:#d08746;"/><clipPath id="_clip1"><path d="M97.31,11.595l32.199,16.1l-21.466,32.199l-42.933,10.733l-42.932,-32.199l21.466,-32.2l42.932,-5.366l10.734,10.733Z"/></clipPath><g clip-path="url(#_clip1)"><path d="M102.676,51.844l-21.466,-24.152l-7.97,4.068l7.97,25.451l-12.445,-25.977l-7.231,-3.182l-7.157,26.476l3.567,-28.617l-5.192,-13.503l4.705,-4.64l2.287,17.243l10.733,3.521l8.401,-4.687l2.332,-20.3l28.324,48.627l25.341,26.505l-26.832,-14.985l-39.976,8.414l-13.69,14.621l7.575,-14.521l-39.774,-33.778l10.733,6.304l35.823,15.84c0,0 25.32,-2.4 26.88,-2.64c1.56,-0.24 7.062,-6.088 7.062,-6.088Z" style="fill:#d08746;"/></g><path d="M129.509,27.695l10.733,16.099l-5.367,34.883l-26.832,-18.783l21.466,-32.199Z" style="fill:#d08746;"/><clipPath id="_clip2"><path d="M129.509,27.695l10.733,16.099l-5.367,34.883l-26.832,-18.783l21.466,-32.199Z"/></clipPath><g clip-path="url(#_clip2)"><path d="M102.676,51.844l-21.466,-24.152l-7.97,4.068l7.97,25.451l-12.445,-25.977l-7.231,-3.182l-7.157,26.476l3.567,-28.617l-5.192,-13.503l4.705,-4.64l2.287,17.243l10.733,3.521l8.401,-4.687l2.332,-20.3l28.324,48.627l25.341,26.505l-26.832,-14.985l-39.976,8.414l-13.69,14.621l7.575,-14.521l-39.774,-33.778l10.733,6.304l35.823,15.84c0,0 25.32,-2.4 26.88,-2.64c1.56,-0.24 7.062,-6.088 7.062,-6.088Z" style="fill:#d08746;"/></g><path d="M108.043,59.894l26.832,18.783l-80.498,8.05l10.733,-16.1l42.933,-10.733Z" style="fill:#d0675b;"/><clipPath id="_clip3"><path d="M108.043,59.894l26.832,18.783l-80.498,8.05l10.733,-16.1l42.933,-10.733Z"/></clipPath><g clip-path="url(#_clip3)"><path d="M102.676,51.844l-21.466,-24.152l-7.97,4.068l7.97,25.451l-12.445,-25.977l-7.231,-3.182l-7.157,26.476l3.567,-28.617l-5.192,-13.503l4.705,-4.64l2.287,17.243l10.733,3.521l8.401,-4.687l2.332,-20.3l28.324,48.627l25.341,26.505l-26.832,-14.985l-39.976,8.414l-13.69,14.621l7.575,-14.521l-39.774,-33.778l10.733,6.304l35.823,15.84c0,0 25.32,-2.4 26.88,-2.64c1.56,-0.24 7.062,-6.088 7.062,-6.088Z" style="fill:#d08746;"/></g><path d="M22.178,38.428l-21.467,42.932l53.666,5.367l10.733,-16.1l-42.932,-32.199Z" style="fill:#983c3c;"/><clipPath id="_clip4"><path d="M22.178,38.428l-21.467,42.932l53.666,5.367l10.733,-16.1l-42.932,-32.199Z"/></clipPath><g clip-path="url(#_clip4)"><path d="M102.676,51.844l-21.466,-24.152l-7.97,4.068l7.97,25.451l-12.445,-25.977l-7.231,-3.182l-7.157,26.476l3.567,-28.617l-5.192,-13.503l4.705,-4.64l2.287,17.243l10.733,3.521l8.401,-4.687l2.332,-20.3l28.324,48.627l25.341,26.505l-26.832,-14.985l-39.976,8.414l-13.69,14.621l7.575,-14.521l-39.774,-33.778l10.733,6.304l35.823,15.84c0,0 25.32,-2.4 26.88,-2.64c1.56,-0.24 7.062,-6.088 7.062,-6.088Z" style="fill:#d08746;"/></g><path d="M81.21,3.545l-26.833,8.05l5.367,13.416l10.733,5.367l10.733,-5.367l0,-21.466Z" style="fill:#d0675b;"/><clipPath id="_clip5"><path d="M81.21,3.545l-26.833,8.05l5.367,13.416l10.733,5.367l10.733,-5.367l0,-21.466Z"/></clipPath><g clip-path="url(#_clip5)"><path d="M102.676,51.844l-21.466,-24.152l-7.97,4.068l7.97,25.451l-12.445,-25.977l-7.231,-3.182l-7.157,26.476l3.567,-28.617l-5.192,-13.503l4.705,-4.64l2.287,17.243l10.733,3.521l8.401,-4.687l2.332,-20.3l28.324,48.627l25.341,26.505l-26.832,-14.985l-39.976,8.414l-13.69,14.621l7.575,-14.521l-39.774,-33.778l10.733,6.304l35.823,15.84c0,0 25.32,-2.4 26.88,-2.64c1.56,-0.24 7.062,-6.088 7.062,-6.088Z" style="fill:#d08746;"/></g><path d="M81.21,3.545l26.833,24.15l-5.367,24.149l-21.466,-26.833l0,-21.466Z" style="fill:#d08746;"/><clipPath id="_clip6"><path d="M81.21,3.545l26.833,24.15l-5.367,24.149l-21.466,-26.833l0,-21.466Z"/></clipPath><g clip-path="url(#_clip6)"><path d="M102.676,51.844l-21.466,-24.152l-7.97,4.068l7.97,25.451l-12.445,-25.977l-7.231,-3.182l-7.157,26.476l3.567,-28.617l-5.192,-13.503l4.705,-4.64l2.287,17.243l10.733,3.521l8.401,-4.687l2.332,-20.3l28.324,48.627l25.341,26.505l-26.832,-14.985l-39.976,8.414l-13.69,14.621l7.575,-14.521l-39.774,-33.778l10.733,6.304l35.823,15.84c0,0 25.32,-2.4 26.88,-2.64c1.56,-0.24 7.062,-6.088 7.062,-6.088Z" style="fill:#d08746;"/></g><path d="M81.21,25.011l21.466,26.833l-21.466,5.367l-10.733,-26.833l10.733,-5.367Z" style="fill:#d0675b;"/><clipPath id="_clip7"><path d="M81.21,25.011l21.466,26.833l-21.466,5.367l-10.733,-26.833l10.733,-5.367Z"/></clipPath><g clip-path="url(#_clip7)"><path d="M102.676,51.844l-21.466,-24.152l-7.97,4.068l7.97,25.451l-12.445,-25.977l-7.231,-3.182l-7.157,26.476l3.567,-28.617l-5.192,-13.503l4.705,-4.64l2.287,17.243l10.733,3.521l8.401,-4.687l2.332,-20.3l28.324,48.627l25.341,26.505l-26.832,-14.985l-39.976,8.414l-13.69,14.621l7.575,-14.521l-39.774,-33.778l10.733,6.304l35.823,15.84c0,0 25.32,-2.4 26.88,-2.64c1.56,-0.24 7.062,-6.088 7.062,-6.088Z" style="fill:#d08746;"/></g><path d="M70.477,30.378l10.733,26.833l-26.833,-2.683l5.367,-29.517l10.733,5.367Z" style="fill:#983c3c;"/><clipPath id="_clip8"><path d="M70.477,30.378l10.733,26.833l-26.833,-2.683l5.367,-29.517l10.733,5.367Z"/></clipPath><g clip-path="url(#_clip8)"><path d="M102.676,51.844l-21.466,-24.152l-7.97,4.068l7.97,25.451l-12.445,-25.977l-7.231,-3.182l-7.157,26.476l3.567,-28.617l-5.192,-13.503l4.705,-4.64l2.287,17.243l10.733,3.521l8.401,-4.687l2.332,-20.3l28.324,48.627l25.341,26.505l-26.832,-14.985l-39.976,8.414l-13.69,14.621l7.575,-14.521l-39.774,-33.778l10.733,6.304l35.823,15.84c0,0 25.32,-2.4 26.88,-2.64c1.56,-0.24 7.062,-6.088 7.062,-6.088Z" style="fill:#d08746;"/></g><path d="M54.377,11.595l-16.1,8.05l-5.366,24.149l21.466,10.734l5.367,-29.517l-5.367,-13.416Z" style="fill:#7e3300;"/><clipPath id="_clip9"><path d="M54.377,11.595l-16.1,8.05l-5.366,24.149l21.466,10.734l5.367,-29.517l-5.367,-13.416Z"/></clipPath><g clip-path="url(#_clip9)"><path d="M102.676,51.844l-21.466,-24.152l-7.97,4.068l7.97,25.451l-12.445,-25.977l-7.231,-3.182l-7.157,26.476l3.567,-28.617l-5.192,-13.503l4.705,-4.64l2.287,17.243l10.733,3.521l8.401,-4.687l2.332,-20.3l28.324,48.627l25.341,26.505l-26.832,-14.985l-39.976,8.414l-13.69,14.621l7.575,-14.521l-39.774,-33.778l10.733,6.304l35.823,15.84c0,0 25.32,-2.4 26.88,-2.64c1.56,-0.24 7.062,-6.088 7.062,-6.088Z" style="fill:#d08746;"/></g></g></g></g></svg>