<?xml version="1.0" encoding="UTF-8" standalone="no"?><!DOCTYPE svg PUBLIC "-//W3C//DTD SVG 1.1//EN" "http://www.w3.org/Graphics/SVG/1.1/DTD/svg11.dtd"><svg width="100%" height="100%" viewBox="0 0 92 143" version="1.1" xmlns="http://www.w3.org/2000/svg" xmlns:xlink="http://www.w3.org/1999/xlink" xml:space="preserve" xmlns:serif="http://www.serif.com/" style="fill-rule:evenodd;clip-rule:evenodd;stroke-linejoin:round;stroke-miterlimit:1.41421;"><g id="sign07"><g><path d="M51.817,5.677l0,134.164l-5.366,2.683l0,-134.164l5.366,-2.683Z" style="fill:#d35c3c;"/><path d="M41.084,5.677l0,134.164l5.367,2.683l0,-134.164l-5.367,-2.683" style="fill:#7e3300;"/><path d="M51.817,5.677l-5.366,-2.683l-5.367,2.683l5.367,2.683l5.366,-2.683" style="fill:#d97d39;"/></g><g><path d="M5.528,37.678l80.498,-34.882l0,10.733l5.367,8.05l-69.766,34.882l-21.466,0l5.367,-18.783Z" style="fill:#a76742;"/><clipPath id="_clip1"><path d="M5.528,37.678l80.498,-34.882l0,10.733l5.367,8.05l-69.766,34.882l-21.466,0l5.367,-18.783Z"/></clipPath><g clip-path="url(#_clip1)"><path d="M24.403,50.684c0,0 -8.514,2.466 -10.146,3.657c-1.632,1.191 0.772,3.074 0.042,3.255c-0.729,0.18 0.22,2.593 0.22,2.593c0,0 0.403,1.264 2.451,-0.154c2.049,-1.419 1.069,-2.252 2.571,-4.143c1.502,-1.891 1.308,-3.653 6.189,-5.862c4.938,-2.235 7.249,-0.806 11.361,-4.853c4.133,-4.066 4.706,-5.48 7.381,-6.963" style="fill:none;"/></g><path d="M84.834,8.758c0,0 -7.536,0.595 -8.731,4.366c-1.194,3.771 -6.56,6.802 -10.856,7.307c-4.295,0.506 -4.734,2.923 -15.103,8.549c-10.368,5.625 -20.011,8.479 -22.168,8.207c-2.157,-0.271 -3.697,-0.079 -11.975,3.867c-8.278,3.947 -9.952,5.006 -11.666,5.776c-1.714,0.77 -2.974,-0.334 -2.974,-0.334" style="fill:none;"/><path d="M1.924,51.976c0,0 18.457,-4.119 19.443,-4.119c0.986,0 6.419,-1.725 9.801,-3.573c3.382,-1.848 15.502,-6.008 17.05,-6.485c1.548,-0.476 9.68,-3.864 12.39,-5.589c2.711,-1.725 8.128,-5.799 11.118,-6.164c2.989,-0.366 7.178,-1.968 9.642,-4.062c2.464,-2.095 4.682,-4.066 5.298,-4.312c0.616,-0.247 1.439,-1.174 1.439,-1.174" style="fill:none;"/><path d="M77.434,19.508c0,0 0.989,-0.986 2.716,-2.035c1.727,-1.049 3.941,-1.802 4.684,-1.92c0.742,-0.119 0,-2.603 0,-2.603c0,0 -0.296,-1.294 -2.456,-0.053c-2.161,1.241 -1.255,2.154 -2.911,3.911c-1.656,1.758 -1.56,3.683 -6.661,5.319c-5.102,1.637 -7.289,0.149 -11.73,3.877c-4.441,3.727 -4.634,5.075 -7.425,6.326" style="fill:none;"/><path d="M36.213,29.166c0,0 -0.903,1.066 -2.535,2.257c-1.632,1.191 -3.775,2.128 -4.505,2.308c-0.73,0.181 0.22,2.593 0.22,2.593c0,0 0.403,1.265 2.451,-0.154c2.049,-1.419 1.069,-2.252 2.571,-4.143c1.502,-1.891 1.308,-3.653 6.189,-5.862c4.938,-2.235 7.248,-0.805 11.361,-4.852c4.133,-4.066 4.189,-5.448 6.865,-6.93" style="fill:none;"/><path d="M80.659,0.112l-80.498,34.883l5.367,2.683l80.498,-34.882l-5.367,-2.684Z" style="fill:#a14b55;"/><clipPath id="_clip2"><path d="M80.659,0.112l-80.498,34.883l5.367,2.683l80.498,-34.882l-5.367,-2.684Z"/></clipPath><g clip-path="url(#_clip2)"><path d="M-22.209,40.813c0,0 21.369,-4.901 22.61,-4.911c1.241,-0.01 8.065,-2.134 12.305,-4.386c4.241,-2.251 19.46,-7.364 21.404,-7.951c1.945,-0.588 12.151,-4.735 15.547,-6.831c3.396,-2.097 10.177,-7.039 13.938,-7.508c3.76,-0.469 9.019,-2.433 12.101,-4.97c3.083,-2.538 5.856,-4.925 6.629,-5.227c0.773,-0.302 1.801,-1.422 1.801,-1.422" style="fill:none;"/></g><path d="M0.161,56.461l0,-21.466l5.367,2.683l-5.367,18.783Z" style="fill:#983c3c;"/></g><g><g transform="matrix(0.90543,-0.424496,-0.102766,1.15263,-76.7851,-534.509)"><text x="163.455px" y="571.529px" style="font-family:'OldEnglishTextMT', 'Old English Text MT', cursive;font-size:21.788px;fill:#d97d39;">W<tspan x="198.75px 212.591px 228.395px " y="571.529px 571.529px 571.529px ">est</tspan></text></g><g transform="matrix(0.90543,-0.424496,-0.102766,1.15263,-76.6777,-533.997)"><text x="164.643px" y="571.482px" style="font-family:'OldEnglishTextMT', 'Old English Text MT', cursive;font-size:21.788px;fill:#631300;">W<tspan x="199.937px 213.778px 229.582px " y="571.482px 571.482px 571.482px ">est</tspan></text></g><g transform="matrix(0.90543,-0.424496,-0.102766,1.15263,-76.5576,-533.315)"><text x="166.167px" y="571.248px" style="font-family:'OldEnglishTextMT', 'Old English Text MT', cursive;font-size:21.788px;fill:#631300;fill-opacity:0.528571;">W<tspan x="201.461px 215.302px 231.106px " y="571.248px 571.248px 571.248px ">est</tspan></text></g></g></g></svg>