<?xml version="1.0" encoding="UTF-8" standalone="no"?><!DOCTYPE svg PUBLIC "-//W3C//DTD SVG 1.1//EN" "http://www.w3.org/Graphics/SVG/1.1/DTD/svg11.dtd"><svg width="100%" height="100%" viewBox="0 0 97 144" version="1.1" xmlns="http://www.w3.org/2000/svg" xmlns:xlink="http://www.w3.org/1999/xlink" xml:space="preserve" xmlns:serif="http://www.serif.com/" style="fill-rule:evenodd;clip-rule:evenodd;stroke-linejoin:round;stroke-miterlimit:1.41421;"><g id="sign10"><g><path d="M51.879,6.195l0,134.164l-5.367,2.683l0,-134.164l5.367,-2.683Z" style="fill:#d35c3c;"/><path d="M41.145,6.195l0,134.164l5.367,2.683l0,-134.164l-5.367,-2.683" style="fill:#7e3300;"/><path d="M51.879,6.195l-5.367,-2.683l-5.367,2.683l5.367,2.683l5.367,-2.683" style="fill:#d97d39;"/></g><path d="M5.589,38.196l80.498,-34.882l10.733,5.366l-5.366,13.417l-69.765,34.882l-10.734,-5.366l-5.366,-13.417Z" style="fill:#a76742;"/><clipPath id="_clip1"><path d="M5.589,38.196l80.498,-34.882l10.733,5.366l-5.366,13.417l-69.765,34.882l-10.734,-5.366l-5.366,-13.417Z"/></clipPath><g clip-path="url(#_clip1)"><path d="M24.464,51.202c0,0 -8.513,2.466 -10.146,3.657c-1.632,1.191 0.773,3.074 0.043,3.255c-0.73,0.18 0.219,2.592 0.219,2.592c0,0 0.404,1.265 2.452,-0.154c2.048,-1.418 1.068,-2.251 2.57,-4.142c1.502,-1.891 1.308,-3.653 6.189,-5.862c4.939,-2.235 7.249,-0.806 11.361,-4.853c4.133,-4.066 4.706,-5.48 7.382,-6.963" style="fill:none;"/></g><path d="M91.454,5.997c0,0 -7.536,0.594 -8.731,4.365c-1.194,3.771 -6.56,6.802 -10.856,7.308c-4.295,0.506 -4.734,2.922 -15.102,8.548c-10.369,5.626 -20.012,8.48 -22.169,8.208c-2.157,-0.272 -3.697,-0.079 -11.975,3.867c-8.278,3.946 -9.952,5.005 -11.666,5.775c-1.714,0.77 -2.974,-0.333 -2.974,-0.333" style="fill:none;"/><path d="M9.999,49.038c0,0 17.003,-3.943 17.988,-3.943c0.986,0 6.419,-1.724 9.801,-3.572c3.382,-1.849 15.502,-6.008 17.05,-6.485c1.548,-0.477 9.68,-3.865 12.39,-5.59c2.711,-1.725 8.128,-5.798 11.118,-6.164c2.989,-0.366 7.178,-1.967 9.643,-4.062c2.464,-2.094 4.681,-4.066 5.297,-4.312c0.616,-0.246 1.44,-1.173 1.44,-1.173" style="fill:none;"/><path d="M84.054,16.746c0,0 0.989,-0.986 2.716,-2.035c1.727,-1.049 3.941,-1.802 4.684,-1.92c0.742,-0.118 0,-2.602 0,-2.602c0,0 -0.295,-1.294 -2.456,-0.053c-2.161,1.241 -1.255,2.153 -2.911,3.911c-1.656,1.757 -1.56,3.682 -6.661,5.319c-5.102,1.636 -7.289,0.149 -11.73,3.876c-4.441,3.728 -4.633,5.075 -7.425,6.327" style="fill:none;"/><path d="M42.834,26.405c0,0 -0.903,1.065 -2.536,2.256c-1.632,1.191 -3.775,2.128 -4.505,2.309c-0.729,0.18 0.22,2.593 0.22,2.593c0,0 0.403,1.265 2.452,-0.154c2.048,-1.419 1.068,-2.252 2.57,-4.143c1.502,-1.891 1.308,-3.653 6.189,-5.862c4.938,-2.235 7.249,-0.806 11.361,-4.852c4.133,-4.067 4.189,-5.448 6.865,-6.931" style="fill:none;"/><path d="M80.721,0.63l-80.499,34.883l5.367,2.683l80.498,-34.882l-5.366,-2.684Z" style="fill:#a14b55;"/><clipPath id="_clip2"><path d="M80.721,0.63l-80.499,34.883l5.367,2.683l80.498,-34.882l-5.366,-2.684Z"/></clipPath><g clip-path="url(#_clip2)"><path d="M-22.148,41.331c0,0 21.369,-4.901 22.61,-4.911c1.241,-0.01 8.065,-2.134 12.306,-4.386c4.24,-2.251 19.459,-7.364 21.404,-7.951c1.944,-0.588 12.15,-4.735 15.546,-6.831c3.396,-2.097 10.177,-7.039 13.938,-7.508c3.761,-0.469 9.019,-2.433 12.102,-4.97c3.082,-2.538 5.855,-4.925 6.628,-5.227c0.774,-0.302 1.801,-1.422 1.801,-1.422" style="fill:none;"/></g><path d="M10.955,51.613l-5.366,-2.684l-5.367,-13.416l5.367,2.683l5.366,13.417" style="fill:#7e3300;"/><g><g transform="matrix(0.900972,-0.433876,-0.0660873,1.14174,-84.8061,-465.404)"><text x="155.202px" y="512.988px" style="font-family:'OldEnglishTextMT', 'Old English Text MT', cursive;font-size:24.54px;fill:#d97d39;">S<tspan x="181.231px 189.887px 203.707px 215.916px " y="512.988px 512.988px 512.988px 512.988px ">tart</tspan></text></g><g transform="matrix(0.900972,-0.433876,-0.0660873,1.14174,-84.6974,-464.959)"><text x="156.252px" y="513.059px" style="font-family:'OldEnglishTextMT', 'Old English Text MT', cursive;font-size:24.54px;fill:#631300;">S<tspan x="182.281px 190.937px 204.757px 216.966px " y="513.059px 513.059px 513.059px 513.059px ">tart</tspan></text></g><g transform="matrix(0.900972,-0.433876,-0.0660873,1.14174,-84.5711,-464.361)"><text x="157.596px" y="512.956px" style="font-family:'OldEnglishTextMT', 'Old English Text MT', cursive;font-size:24.54px;fill:#631300;fill-opacity:0.528571;">S<tspan x="183.625px 192.281px 206.101px 218.31px " y="512.956px 512.956px 512.956px 512.956px ">tart</tspan></text></g></g></g></svg>