<?xml version="1.0" encoding="UTF-8" standalone="no"?><!DOCTYPE svg PUBLIC "-//W3C//DTD SVG 1.1//EN" "http://www.w3.org/Graphics/SVG/1.1/DTD/svg11.dtd"><svg width="100%" height="100%" viewBox="0 0 93 62" version="1.1" xmlns="http://www.w3.org/2000/svg" xmlns:xlink="http://www.w3.org/1999/xlink" xml:space="preserve" xmlns:serif="http://www.serif.com/" style="fill-rule:evenodd;clip-rule:evenodd;stroke-linejoin:round;stroke-miterlimit:1.41421;"><g id="trunk02"><g><path d="M10.081,11.896l-1.24,4.338l6.982,1.043l-0.273,-6.102l-5.469,0.721" style="fill:#d35c3c;"/><path d="M11.777,13.409l-1.24,4.338l6.982,1.043l-0.273,-6.102l-5.469,0.721" style="fill:#5b190f;"/><path d="M8.841,16.234l4.504,-0.569l4.951,3.534l7.197,4.203l-5.622,2.811l-5.708,-5.866l-5.322,-4.113Z" style="fill:#7e3300;"/><path d="M29.171,21.078l-8.998,-4.295l-4.625,-5.548l-2.203,4.43l4.884,3.656l6.843,4.292l4.099,-2.535Z" style="fill:#d97d39;"/></g><g><path d="M5.414,54.946l13.685,6.842l68.424,-38.773l-9.124,-9.124l-72.985,41.055" style="fill:#d35c3c;"/><clipPath id="_clip1"><path d="M5.414,54.946l13.685,6.842l68.424,-38.773l-9.124,-9.124l-72.985,41.055"/></clipPath><g clip-path="url(#_clip1)"><path d="M-2.449,45.192l11.051,0.445l15.058,2.945l11.778,7.691l26.598,-11.392l-40.627,-29.864l-23.858,30.175Z" style="fill:#5b190f;fill-opacity:0.528571;"/></g><path d="M5.414,32.138l-4.561,11.404l71.541,-35.771l-19.541,0.647l-47.439,23.72Z" style="fill:#7e3300;"/><clipPath id="_clip2"><path d="M5.414,32.138l-4.561,11.404l71.541,-35.771l-19.541,0.647l-47.439,23.72Z"/></clipPath><g clip-path="url(#_clip2)"><path d="M-2.449,45.192l11.051,0.445l15.058,2.945l11.778,7.691l26.598,-11.392l-40.627,-29.864l-23.858,30.175Z" style="fill:#5b190f;fill-opacity:0.528571;"/></g><path d="M0.853,43.542l4.561,11.404l59.301,-25.089l-18.247,-9.123l-45.615,22.808" style="fill:#d97d39;"/><clipPath id="_clip3"><path d="M0.853,43.542l4.561,11.404l59.301,-25.089l-18.247,-9.123l-45.615,22.808"/></clipPath><g clip-path="url(#_clip3)"><path d="M-2.449,45.192l11.051,0.445l15.058,2.945l11.778,7.691l26.598,-11.392l-40.627,-29.864l-23.858,30.175Z" style="fill:#5b190f;fill-opacity:0.528571;"/></g><path d="M69.276,0.207l-63.862,31.931l13.685,2.281l63.862,-31.932l-13.685,-2.28Z" style="fill:#d35c3c;"/><path d="M82.961,2.487l9.123,4.562l-63.862,31.931l-9.123,-4.561l63.862,-31.932" style="fill:#d97d39;"/><path d="M92.084,7.049l0,9.123l-59.3,34.212l-4.562,-11.404l63.862,-31.931" style="fill:#d35c3c;"/><path d="M87.523,23.015l4.561,-6.843l-59.3,34.212l-13.685,11.404l68.424,-38.773Z" style="fill:#7e3300;"/><path d="M5.414,32.138l0,4.561l13.685,2.281l0,-4.561l-13.685,-2.281Z" style="fill:#d35c3c;"/><path d="M27.074,44.116l1.148,-5.136l-9.123,-4.561l0,4.561l7.975,5.136Z" style="fill:#d97d39;"/><path d="M32.784,50.384l-4.562,-1.201l-1.267,-5.008l1.267,-5.195l4.562,11.404" style="fill:#d35c3c;"/><path d="M28.222,49.183l-9.123,8.043l0,4.562l13.685,-11.404l-4.562,-1.201Z" style="fill:#d35c3c;"/><path d="M19.099,57.226l-12.025,-6.012l-1.66,3.732l13.685,6.842l0,-4.562Z" style="fill:#d35c3c;"/><path d="M0.853,43.542l3.505,-0.221l2.833,7.951l-1.777,3.674l-4.561,-11.404Z" style="fill:#d97d39;"/><path d="M4.358,43.321l2.564,-6.622l-1.508,-4.561l-4.561,11.404l3.505,-0.221Z" style="fill:#7e3300;"/></g><path d="M64.159,24.423l-1.058,2.89l3.002,1.223l4.466,-1.304l1.661,-3.62l-3.359,-0.918l-2.464,-1.207l-2.248,2.936Z" style="fill:#191919;fill-opacity:0.5;"/><path d="M66.82,21.361l2.241,1.525l3.004,0.382l-1.447,3.101l-3.75,2.382l-3.767,-1.621l1.407,-3.816l2.312,-1.953l0.769,-1.873l3.029,1.324l4.108,1.324l-1.373,4.541l-6.485,2.074l-3.767,-1.621l1.407,-3.816l3.081,-3.826" style="fill:#d35c3c;"/><path d="M71.765,23.373l3.113,-1.126" style="fill:none;"/></g></svg>