<?xml version="1.0" encoding="UTF-8" standalone="no"?><!DOCTYPE svg PUBLIC "-//W3C//DTD SVG 1.1//EN" "http://www.w3.org/Graphics/SVG/1.1/DTD/svg11.dtd"><svg width="100%" height="100%" viewBox="0 0 49 63" version="1.1" xmlns="http://www.w3.org/2000/svg" xmlns:xlink="http://www.w3.org/1999/xlink" xml:space="preserve" xmlns:serif="http://www.serif.com/" style="fill-rule:evenodd;clip-rule:evenodd;stroke-linecap:round;stroke-linejoin:round;stroke-miterlimit:1.5;"><g id="cactus04"><path d="M48.071,46.805l-1.325,-9.572l-4.397,-10.358l-5.3,-8.083l-6.403,-6.138l-6.924,-1.944l-7.805,1.569l-5.204,5.114l-6.4,9.336l-4.076,10.469l0.366,10.55l5.708,10.377l12.161,4.471l11.195,0l12.613,-5.052l5.791,-10.739Z" style="fill:#9bffe5;"/><clipPath id="_clip1"><path d="M48.071,46.805l-1.325,-9.572l-4.397,-10.358l-5.3,-8.083l-6.403,-6.138l-6.924,-1.944l-7.805,1.569l-5.204,5.114l-6.4,9.336l-4.076,10.469l0.366,10.55l5.708,10.377l12.161,4.471l11.195,0l12.613,-5.052l5.791,-10.739Z"/></clipPath><g clip-path="url(#_clip1)"><path d="M25.28,-5.894l-1.211,8.831l-0.89,62.903l23.567,7.136l13.009,-14.962c3.849,-41.307 -8.935,-79.846 -34.475,-63.908Z" style="fill:#b5ffe8;stroke:#000;stroke-width:1px;"/><path d="M32.493,5.382c9.707,6.793 14.581,16.605 10.876,21.898c-3.704,5.293 -14.592,4.075 -24.298,-2.718c-9.707,-6.793 -14.58,-16.605 -10.876,-21.898c3.704,-5.293 14.592,-4.075 24.298,2.718Z" style="fill:#bce0cc;fill-opacity:0.5;"/><path d="M13.513,25.194l2.764,-17.482l7.792,-3.892l2.799,1.4l6.179,21.919l2.966,11.852l0,14.524l-1.779,10.913l-19.687,0.434l-1.882,-11.606l-0.164,-14.78l1.012,-13.282Z" style="fill:#22aecf;"/><clipPath id="_clip2"><path d="M13.513,25.194l2.764,-17.482l7.792,-3.892l2.799,1.4l6.179,21.919l2.966,11.852l0,14.524l-1.779,10.913l-19.687,0.434l-1.882,-11.606l-0.164,-14.78l1.012,-13.282Z"/></clipPath><g clip-path="url(#_clip2)"><path d="M32.493,5.382c9.707,6.793 14.581,16.605 10.876,21.898c-3.704,5.293 -14.592,4.075 -24.298,-2.718c-9.707,-6.793 -14.58,-16.605 -10.876,-21.898c3.704,-5.293 14.592,-4.075 24.298,2.718Z" style="fill:#bce0cc;fill-opacity:0.5;"/></g></g><g><path d="M30.107,18.077c-0.942,0.027 -1.729,-0.716 -1.756,-1.658c-0.027,-0.942 0.716,-1.729 1.658,-1.756c0.942,-0.027 1.729,0.716 1.756,1.658c0.027,0.942 -0.716,1.729 -1.658,1.756Z" style="fill:#c0e9e9;"/><path d="M32.406,24.273c-0.942,0.027 -1.729,-0.716 -1.757,-1.658c-0.027,-0.942 0.716,-1.729 1.658,-1.756c0.943,-0.027 1.73,0.716 1.757,1.658c0.027,0.942 -0.716,1.729 -1.658,1.756Z" style="fill:#c0e9e9;"/><path d="M34.617,31.594c-0.943,0.027 -1.73,-0.716 -1.757,-1.658c-0.027,-0.942 0.716,-1.729 1.658,-1.756c0.943,-0.027 1.729,0.716 1.757,1.658c0.027,0.942 -0.716,1.729 -1.658,1.756Z" style="fill:#c0e9e9;"/><path d="M36.05,45.663c-0.942,0.027 -1.729,-0.716 -1.756,-1.658c-0.027,-0.943 0.716,-1.73 1.658,-1.757c0.942,-0.027 1.729,0.716 1.756,1.658c0.028,0.943 -0.715,1.73 -1.658,1.757Z" style="fill:#c0e9e9;"/><path d="M36.155,53.462c-0.942,0.027 -1.729,-0.716 -1.756,-1.658c-0.028,-0.943 0.715,-1.73 1.658,-1.757c0.942,-0.027 1.729,0.716 1.756,1.658c0.027,0.943 -0.716,1.73 -1.658,1.757Z" style="fill:#c0e9e9;"/><path d="M35.236,60.309c-0.942,0.027 -1.729,-0.716 -1.756,-1.658c-0.027,-0.942 0.716,-1.729 1.658,-1.756c0.942,-0.027 1.729,0.716 1.756,1.658c0.027,0.942 -0.716,1.729 -1.658,1.756Z" style="fill:#c0e9e9;"/><path d="M35.829,38.967c-0.942,0.027 -1.729,-0.716 -1.756,-1.658c-0.028,-0.942 0.715,-1.729 1.658,-1.756c0.942,-0.027 1.729,0.716 1.756,1.658c0.027,0.942 -0.716,1.729 -1.658,1.756Z" style="fill:#c0e9e9;"/></g><g><g><path d="M14.665,18.105c0.941,0.053 1.749,-0.667 1.802,-1.608c0.054,-0.941 -0.666,-1.749 -1.608,-1.803c-0.941,-0.053 -1.748,0.667 -1.802,1.608c-0.054,0.941 0.667,1.749 1.608,1.803Z" style="fill:#c0e9e9;"/><path d="M13.164,24.261c0.941,0.054 1.749,-0.667 1.803,-1.608c0.053,-0.941 -0.667,-1.748 -1.608,-1.802c-0.941,-0.054 -1.749,0.667 -1.803,1.608c-0.053,0.941 0.667,1.749 1.608,1.802Z" style="fill:#c0e9e9;"/><path d="M12.747,31.573c0.942,0.054 1.749,-0.667 1.803,-1.608c0.053,-0.941 -0.667,-1.748 -1.608,-1.802c-0.941,-0.054 -1.749,0.667 -1.802,1.608c-0.054,0.941 0.666,1.749 1.607,1.802Z" style="fill:#c0e9e9;"/><path d="M11.889,46.624c0.942,0.053 1.749,-0.667 1.803,-1.608c0.053,-0.941 -0.667,-1.749 -1.608,-1.803c-0.941,-0.053 -1.749,0.667 -1.802,1.608c-0.054,0.941 0.666,1.749 1.607,1.803Z" style="fill:#c0e9e9;"/><path d="M12.593,53.445c0.941,0.054 1.749,-0.667 1.803,-1.608c0.053,-0.941 -0.667,-1.749 -1.608,-1.802c-0.941,-0.054 -1.749,0.667 -1.803,1.608c-0.053,0.941 0.667,1.748 1.608,1.802Z" style="fill:#c0e9e9;"/><path d="M13.319,60.316c0.941,0.053 1.748,-0.667 1.802,-1.608c0.054,-0.941 -0.667,-1.749 -1.608,-1.802c-0.941,-0.054 -1.748,0.666 -1.802,1.607c-0.054,0.942 0.667,1.749 1.608,1.803Z" style="fill:#c0e9e9;"/><path d="M12.328,38.937c0.941,0.054 1.748,-0.666 1.802,-1.608c0.054,-0.941 -0.667,-1.748 -1.608,-1.802c-0.941,-0.054 -1.749,0.667 -1.802,1.608c-0.054,0.941 0.667,1.749 1.608,1.802Z" style="fill:#c0e9e9;"/></g><g><g opacity="0.3"><path d="M15.377,14.806c-0.88,-0.339 -1.869,0.099 -2.208,0.979c-0.339,0.879 0.099,1.869 0.979,2.208c0.879,0.339 1.868,-0.099 2.208,-0.979c0.339,-0.879 -0.1,-1.869 -0.979,-2.208Z" style="fill:#1d073c;"/><path d="M13.164,24.261c0.941,0.054 1.749,-0.667 1.803,-1.608c0.053,-0.941 -0.667,-1.748 -1.608,-1.802c-0.941,-0.054 -1.749,0.667 -1.803,1.608c-0.053,0.941 0.667,1.749 1.608,1.802Z" style="fill:#1d073c;"/><path d="M12.747,31.573c0.942,0.054 1.749,-0.667 1.803,-1.608c0.053,-0.941 -0.667,-1.748 -1.608,-1.802c-0.941,-0.054 -1.749,0.667 -1.802,1.608c-0.054,0.941 0.666,1.749 1.607,1.802Z" style="fill:#1d073c;"/><path d="M11.889,46.624c0.942,0.053 1.749,-0.667 1.803,-1.608c0.053,-0.941 -0.667,-1.749 -1.608,-1.803c-0.941,-0.053 -1.749,0.667 -1.802,1.608c-0.054,0.941 0.666,1.749 1.607,1.803Z" style="fill:#1d073c;"/><path d="M12.593,53.445c0.941,0.054 1.749,-0.667 1.803,-1.608c0.053,-0.941 -0.667,-1.749 -1.608,-1.802c-0.941,-0.054 -1.749,0.667 -1.803,1.608c-0.053,0.941 0.667,1.748 1.608,1.802Z" style="fill:#1d073c;"/><path d="M13.319,60.316c0.941,0.053 1.748,-0.667 1.802,-1.608c0.054,-0.941 -0.667,-1.749 -1.608,-1.802c-0.941,-0.054 -1.748,0.666 -1.802,1.607c-0.054,0.942 0.667,1.749 1.608,1.803Z" style="fill:#1d073c;"/><path d="M12.328,38.937c0.941,0.054 1.748,-0.666 1.802,-1.608c0.054,-0.941 -0.667,-1.748 -1.608,-1.802c-0.941,-0.054 -1.749,0.667 -1.802,1.608c-0.054,0.941 0.667,1.749 1.608,1.802Z" style="fill:#1d073c;"/></g></g></g><g><g><circle cx="22.05" cy="9.023" r="3.548" style="fill:#757ee4;"/></g></g><g><g><path d="M21.113,9.303l-3.593,-3.958l0.066,-5.193l5.488,0.962l-1.961,8.189" style="fill:#2262cf;"/><path d="M21.113,9.303l-7.238,-3.734l0.046,-3.642l7.211,5.88" style="fill:#22aecf;"/><path d="M21.113,9.303l7.376,-7.191l-3.619,-1.867l-3.665,1.774l-0.092,7.284Z" style="fill:#22aecf;"/><path d="M21.113,9.303l3.711,-5.417l6.064,0.684l-0.956,1.952l-8.819,2.781" style="fill:#22aecf;"/><path d="M21.113,9.303l7.284,0.093l3.665,-1.775l-3.619,-1.867l-7.33,3.549" style="fill:#22aecf;"/><path d="M21.113,9.303l-3.169,-1.635l1.107,-3.094l4.332,0.01l2.126,3.322l-4.396,1.397Z" style="fill:#2262cf;"/><path d="M13.875,5.569l1.249,2.268l5.989,1.466l-7.238,-3.734Z" style="fill:#2262cf;"/></g></g></g></svg>