<?xml version="1.0" encoding="UTF-8" standalone="no"?><!DOCTYPE svg PUBLIC "-//W3C//DTD SVG 1.1//EN" "http://www.w3.org/Graphics/SVG/1.1/DTD/svg11.dtd"><svg width="100%" height="100%" viewBox="0 0 49 58" version="1.1" xmlns="http://www.w3.org/2000/svg" xmlns:xlink="http://www.w3.org/1999/xlink" xml:space="preserve" xmlns:serif="http://www.serif.com/" style="fill-rule:evenodd;clip-rule:evenodd;stroke-linecap:round;stroke-linejoin:round;stroke-miterlimit:1.5;"><g id="cactus09"><path d="M48.284,41.74l-1.324,-9.571l-4.397,-10.359l-5.3,-8.083l-6.403,-6.138l-6.924,-1.944l-7.805,1.569l-5.204,5.114l-6.4,9.336l-4.076,10.469l0.366,10.55l5.708,10.377l12.16,4.471l11.196,0l12.613,-5.052l5.79,-10.739Z" style="fill:#9bffe5;"/><clipPath id="_clip1"><path d="M48.284,41.74l-1.324,-9.571l-4.397,-10.359l-5.3,-8.083l-6.403,-6.138l-6.924,-1.944l-7.805,1.569l-5.204,5.114l-6.4,9.336l-4.076,10.469l0.366,10.55l5.708,10.377l12.16,4.471l11.196,0l12.613,-5.052l5.79,-10.739Z"/></clipPath><g clip-path="url(#_clip1)"><path d="M25.494,-10.959l-1.211,8.831l-0.89,62.903l23.567,7.136l13.009,-14.962c3.849,-41.307 -8.935,-79.846 -34.475,-63.908Z" style="fill:#b5ffe8;stroke:#000;stroke-width:1px;"/><path d="M31.356,0.961c9.707,6.793 14.58,16.606 10.876,21.899c-3.704,5.292 -14.592,4.075 -24.298,-2.718c-9.707,-6.793 -14.58,-16.605 -10.876,-21.898c3.704,-5.293 14.592,-4.076 24.298,2.717Z" style="fill:#bce0cc;fill-opacity:0.5;"/><path d="M13.727,20.129l2.764,-17.482l7.792,-3.891l2.799,1.399l6.178,21.919l2.967,11.853l0,14.524l-1.779,10.913l-19.687,0.433l-1.882,-11.606l-0.164,-14.78l1.012,-13.282Z" style="fill:#22aecf;"/><clipPath id="_clip2"><path d="M13.727,20.129l2.764,-17.482l7.792,-3.891l2.799,1.399l6.178,21.919l2.967,11.853l0,14.524l-1.779,10.913l-19.687,0.433l-1.882,-11.606l-0.164,-14.78l1.012,-13.282Z"/></clipPath><g clip-path="url(#_clip2)"><path d="M31.356,0.961c9.707,6.793 14.58,16.606 10.876,21.899c-3.704,5.292 -14.592,4.075 -24.298,-2.718c-9.707,-6.793 -14.58,-16.605 -10.876,-21.898c3.704,-5.293 14.592,-4.076 24.298,2.717Z" style="fill:#bce0cc;fill-opacity:0.5;"/></g></g><g><path d="M30.321,13.012c-0.942,0.028 -1.729,-0.715 -1.756,-1.658c-0.027,-0.942 0.716,-1.729 1.658,-1.756c0.942,-0.027 1.729,0.716 1.756,1.658c0.027,0.942 -0.716,1.729 -1.658,1.756Z" style="fill:#c0e9e9;"/><path d="M32.62,19.208c-0.942,0.028 -1.729,-0.715 -1.757,-1.658c-0.027,-0.942 0.716,-1.729 1.658,-1.756c0.943,-0.027 1.73,0.716 1.757,1.658c0.027,0.942 -0.716,1.729 -1.658,1.756Z" style="fill:#c0e9e9;"/><path d="M34.831,26.529c-0.943,0.027 -1.73,-0.715 -1.757,-1.658c-0.027,-0.942 0.716,-1.729 1.658,-1.756c0.942,-0.027 1.729,0.716 1.757,1.658c0.027,0.942 -0.716,1.729 -1.658,1.756Z" style="fill:#c0e9e9;"/><path d="M36.264,40.598c-0.942,0.027 -1.729,-0.716 -1.756,-1.658c-0.027,-0.942 0.716,-1.729 1.658,-1.757c0.942,-0.027 1.729,0.716 1.756,1.658c0.028,0.943 -0.715,1.73 -1.658,1.757Z" style="fill:#c0e9e9;"/><path d="M36.369,48.397c-0.942,0.027 -1.729,-0.716 -1.757,-1.658c-0.027,-0.942 0.716,-1.729 1.658,-1.757c0.943,-0.027 1.73,0.716 1.757,1.658c0.027,0.943 -0.716,1.73 -1.658,1.757Z" style="fill:#c0e9e9;"/><path d="M35.45,55.244c-0.942,0.027 -1.729,-0.715 -1.756,-1.658c-0.027,-0.942 0.716,-1.729 1.658,-1.756c0.942,-0.027 1.729,0.716 1.756,1.658c0.027,0.942 -0.716,1.729 -1.658,1.756Z" style="fill:#c0e9e9;"/><path d="M36.043,33.902c-0.942,0.027 -1.729,-0.716 -1.756,-1.658c-0.028,-0.942 0.715,-1.729 1.658,-1.756c0.942,-0.027 1.729,0.716 1.756,1.658c0.027,0.942 -0.716,1.729 -1.658,1.756Z" style="fill:#c0e9e9;"/></g><g><g><path d="M14.879,13.04c0.941,0.053 1.749,-0.667 1.802,-1.608c0.054,-0.941 -0.666,-1.749 -1.608,-1.802c-0.941,-0.054 -1.748,0.666 -1.802,1.607c-0.054,0.942 0.667,1.749 1.608,1.803Z" style="fill:#c0e9e9;"/><path d="M13.378,19.196c0.941,0.054 1.749,-0.666 1.803,-1.608c0.053,-0.941 -0.667,-1.748 -1.608,-1.802c-0.941,-0.054 -1.749,0.667 -1.803,1.608c-0.053,0.941 0.667,1.749 1.608,1.802Z" style="fill:#c0e9e9;"/><path d="M12.961,26.508c0.942,0.054 1.749,-0.666 1.803,-1.607c0.053,-0.942 -0.667,-1.749 -1.608,-1.803c-0.941,-0.053 -1.749,0.667 -1.802,1.608c-0.054,0.941 0.666,1.749 1.607,1.802Z" style="fill:#c0e9e9;"/><path d="M12.103,41.559c0.941,0.053 1.749,-0.667 1.803,-1.608c0.053,-0.941 -0.667,-1.749 -1.608,-1.802c-0.941,-0.054 -1.749,0.666 -1.802,1.607c-0.054,0.941 0.666,1.749 1.607,1.803Z" style="fill:#c0e9e9;"/><path d="M12.807,48.38c0.941,0.054 1.749,-0.667 1.803,-1.608c0.053,-0.941 -0.667,-1.748 -1.608,-1.802c-0.941,-0.054 -1.749,0.667 -1.803,1.608c-0.053,0.941 0.667,1.749 1.608,1.802Z" style="fill:#c0e9e9;"/><path d="M13.533,55.251c0.941,0.054 1.748,-0.667 1.802,-1.608c0.054,-0.941 -0.667,-1.749 -1.608,-1.802c-0.941,-0.054 -1.748,0.667 -1.802,1.608c-0.054,0.941 0.667,1.748 1.608,1.802Z" style="fill:#c0e9e9;"/><path d="M12.542,33.872c0.941,0.054 1.748,-0.666 1.802,-1.607c0.054,-0.941 -0.667,-1.749 -1.608,-1.803c-0.941,-0.053 -1.749,0.667 -1.802,1.608c-0.054,0.941 0.667,1.749 1.608,1.802Z" style="fill:#c0e9e9;"/></g><g><g opacity="0.3"><path d="M15.591,9.741c-0.88,-0.339 -1.869,0.1 -2.208,0.979c-0.339,0.879 0.099,1.869 0.979,2.208c0.879,0.339 1.868,-0.099 2.208,-0.979c0.339,-0.879 -0.1,-1.869 -0.979,-2.208Z" style="fill:#1d073c;"/><path d="M13.378,19.196c0.941,0.054 1.749,-0.666 1.803,-1.608c0.053,-0.941 -0.667,-1.748 -1.608,-1.802c-0.941,-0.054 -1.749,0.667 -1.803,1.608c-0.053,0.941 0.667,1.749 1.608,1.802Z" style="fill:#1d073c;"/><path d="M12.961,26.508c0.942,0.054 1.749,-0.666 1.803,-1.607c0.053,-0.942 -0.667,-1.749 -1.608,-1.803c-0.941,-0.053 -1.749,0.667 -1.802,1.608c-0.054,0.941 0.666,1.749 1.607,1.802Z" style="fill:#1d073c;"/><path d="M12.103,41.559c0.941,0.053 1.749,-0.667 1.803,-1.608c0.053,-0.941 -0.667,-1.749 -1.608,-1.802c-0.941,-0.054 -1.749,0.666 -1.802,1.607c-0.054,0.941 0.666,1.749 1.607,1.803Z" style="fill:#1d073c;"/><path d="M12.807,48.38c0.941,0.054 1.749,-0.667 1.803,-1.608c0.053,-0.941 -0.667,-1.748 -1.608,-1.802c-0.941,-0.054 -1.749,0.667 -1.803,1.608c-0.053,0.941 0.667,1.749 1.608,1.802Z" style="fill:#1d073c;"/><path d="M13.533,55.251c0.941,0.054 1.748,-0.667 1.802,-1.608c0.054,-0.941 -0.667,-1.749 -1.608,-1.802c-0.941,-0.054 -1.748,0.667 -1.802,1.608c-0.054,0.941 0.667,1.748 1.608,1.802Z" style="fill:#1d073c;"/><path d="M12.542,33.872c0.941,0.054 1.748,-0.666 1.802,-1.607c0.054,-0.941 -0.667,-1.749 -1.608,-1.803c-0.941,-0.053 -1.749,0.667 -1.802,1.608c-0.054,0.941 0.667,1.749 1.608,1.802Z" style="fill:#1d073c;"/></g></g></g><g><circle cx="22.264" cy="3.958" r="3.548" style="fill:#757ee4;"/></g></g></svg>