<?xml version="1.0" encoding="UTF-8" standalone="no"?><!DOCTYPE svg PUBLIC "-//W3C//DTD SVG 1.1//EN" "http://www.w3.org/Graphics/SVG/1.1/DTD/svg11.dtd"><svg width="100%" height="100%" viewBox="0 0 59 65" version="1.1" xmlns="http://www.w3.org/2000/svg" xmlns:xlink="http://www.w3.org/1999/xlink" xml:space="preserve" xmlns:serif="http://www.serif.com/" style="fill-rule:evenodd;clip-rule:evenodd;stroke-linecap:round;stroke-linejoin:round;stroke-miterlimit:1.5;"><g id="cactus03"><path d="M54.354,48.394l-1.325,-9.572l-4.397,-10.358l-5.3,-8.083l-6.402,-6.139l-6.924,-1.944l-7.805,1.569l-5.205,5.115l-6.4,9.335l-4.076,10.47l0.367,10.549l5.707,10.377l12.161,4.471l11.195,0l12.613,-5.052l5.791,-10.738Z" style="fill:#9bffe5;"/><clipPath id="_clip1"><path d="M54.354,48.394l-1.325,-9.572l-4.397,-10.358l-5.3,-8.083l-6.402,-6.139l-6.924,-1.944l-7.805,1.569l-5.205,5.115l-6.4,9.335l-4.076,10.47l0.367,10.549l5.707,10.377l12.161,4.471l11.195,0l12.613,-5.052l5.791,-10.738Z"/></clipPath><g clip-path="url(#_clip1)"><path d="M31.563,-4.305l-1.211,8.83l-0.89,62.903l23.567,7.136l13.009,-14.962c3.849,-41.306 -8.934,-79.846 -34.475,-63.907Z" style="fill:#b5ffe8;stroke:#000;stroke-width:1px;"/><path d="M40.539,7.838c9.707,6.793 14.58,16.605 10.876,21.898c-3.704,5.293 -14.592,4.075 -24.299,-2.718c-9.706,-6.793 -14.58,-16.605 -10.876,-21.898c3.704,-5.293 14.592,-4.075 24.299,2.718Z" style="fill:#bce0cc;fill-opacity:0.5;"/><path d="M19.796,26.782l2.764,-17.482l7.792,-3.891l2.799,1.399l6.179,21.919l2.966,11.853l0,14.524l-1.779,10.913l-19.687,0.433l-1.881,-11.606l-0.165,-14.779l1.012,-13.283Z" style="fill:#22aecf;"/><clipPath id="_clip2"><path d="M19.796,26.782l2.764,-17.482l7.792,-3.891l2.799,1.399l6.179,21.919l2.966,11.853l0,14.524l-1.779,10.913l-19.687,0.433l-1.881,-11.606l-0.165,-14.779l1.012,-13.283Z"/></clipPath><g clip-path="url(#_clip2)"><path d="M40.539,7.838c9.707,6.793 14.58,16.605 10.876,21.898c-3.704,5.293 -14.592,4.075 -24.299,-2.718c-9.706,-6.793 -14.58,-16.605 -10.876,-21.898c3.704,-5.293 14.592,-4.075 24.299,2.718Z" style="fill:#bce0cc;fill-opacity:0.5;"/></g></g><g><path d="M36.391,19.666c-0.943,0.027 -1.73,-0.716 -1.757,-1.658c-0.027,-0.943 0.716,-1.729 1.658,-1.757c0.942,-0.027 1.729,0.716 1.757,1.658c0.027,0.943 -0.716,1.73 -1.658,1.757Z" style="fill:#c0e9e9;"/><path d="M38.689,25.862c-0.942,0.027 -1.729,-0.716 -1.756,-1.658c-0.027,-0.943 0.716,-1.73 1.658,-1.757c0.942,-0.027 1.729,0.716 1.756,1.658c0.027,0.943 -0.716,1.73 -1.658,1.757Z" style="fill:#c0e9e9;"/><path d="M40.9,33.183c-0.942,0.027 -1.729,-0.716 -1.756,-1.658c-0.028,-0.943 0.715,-1.73 1.658,-1.757c0.942,-0.027 1.729,0.716 1.756,1.658c0.027,0.943 -0.716,1.729 -1.658,1.757Z" style="fill:#c0e9e9;"/><path d="M42.334,47.251c-0.942,0.027 -1.729,-0.716 -1.757,-1.658c-0.027,-0.942 0.716,-1.729 1.658,-1.756c0.943,-0.027 1.73,0.716 1.757,1.658c0.027,0.942 -0.716,1.729 -1.658,1.756Z" style="fill:#c0e9e9;"/><path d="M42.438,55.05c-0.942,0.027 -1.729,-0.716 -1.756,-1.658c-0.027,-0.942 0.716,-1.729 1.658,-1.756c0.942,-0.027 1.729,0.716 1.756,1.658c0.027,0.942 -0.716,1.729 -1.658,1.756Z" style="fill:#c0e9e9;"/><path d="M41.519,61.898c-0.942,0.027 -1.729,-0.716 -1.756,-1.658c-0.027,-0.943 0.716,-1.73 1.658,-1.757c0.942,-0.027 1.729,0.716 1.756,1.658c0.028,0.943 -0.715,1.73 -1.658,1.757Z" style="fill:#c0e9e9;"/><path d="M42.112,40.556c-0.942,0.027 -1.729,-0.716 -1.756,-1.658c-0.027,-0.943 0.716,-1.73 1.658,-1.757c0.942,-0.027 1.729,0.716 1.756,1.658c0.027,0.942 -0.716,1.729 -1.658,1.757Z" style="fill:#c0e9e9;"/></g><g><g><path d="M20.948,19.693c0.941,0.054 1.749,-0.667 1.803,-1.608c0.053,-0.941 -0.667,-1.748 -1.608,-1.802c-0.941,-0.054 -1.749,0.667 -1.803,1.608c-0.053,0.941 0.667,1.748 1.608,1.802Z" style="fill:#c0e9e9;"/><path d="M19.448,25.85c0.941,0.053 1.748,-0.667 1.802,-1.608c0.054,-0.941 -0.667,-1.749 -1.608,-1.803c-0.941,-0.053 -1.749,0.667 -1.802,1.608c-0.054,0.941 0.667,1.749 1.608,1.803Z" style="fill:#c0e9e9;"/><path d="M19.031,33.162c0.941,0.053 1.748,-0.667 1.802,-1.608c0.054,-0.941 -0.667,-1.749 -1.608,-1.802c-0.941,-0.054 -1.748,0.666 -1.802,1.607c-0.054,0.941 0.667,1.749 1.608,1.803Z" style="fill:#c0e9e9;"/><path d="M18.173,48.212c0.941,0.054 1.748,-0.667 1.802,-1.608c0.054,-0.941 -0.667,-1.749 -1.608,-1.802c-0.941,-0.054 -1.748,0.667 -1.802,1.608c-0.054,0.941 0.667,1.748 1.608,1.802Z" style="fill:#c0e9e9;"/><path d="M18.877,55.034c0.941,0.053 1.748,-0.667 1.802,-1.608c0.054,-0.941 -0.667,-1.749 -1.608,-1.803c-0.941,-0.053 -1.749,0.667 -1.802,1.608c-0.054,0.941 0.667,1.749 1.608,1.803Z" style="fill:#c0e9e9;"/><path d="M19.602,61.904c0.941,0.054 1.749,-0.667 1.802,-1.608c0.054,-0.941 -0.666,-1.748 -1.607,-1.802c-0.942,-0.054 -1.749,0.667 -1.803,1.608c-0.053,0.941 0.667,1.749 1.608,1.802Z" style="fill:#c0e9e9;"/><path d="M18.611,40.526c0.941,0.053 1.749,-0.667 1.802,-1.608c0.054,-0.941 -0.667,-1.749 -1.608,-1.802c-0.941,-0.054 -1.748,0.666 -1.802,1.607c-0.054,0.942 0.667,1.749 1.608,1.803Z" style="fill:#c0e9e9;"/></g><g><g opacity="0.3"><path d="M21.66,16.395c-0.879,-0.34 -1.869,0.099 -2.208,0.978c-0.339,0.88 0.099,1.869 0.979,2.208c0.879,0.34 1.869,-0.099 2.208,-0.978c0.339,-0.88 -0.099,-1.869 -0.979,-2.208Z" style="fill:#1d073c;"/><path d="M19.448,25.85c0.941,0.053 1.748,-0.667 1.802,-1.608c0.054,-0.941 -0.667,-1.749 -1.608,-1.803c-0.941,-0.053 -1.749,0.667 -1.802,1.608c-0.054,0.941 0.667,1.749 1.608,1.803Z" style="fill:#1d073c;"/><path d="M19.031,33.162c0.941,0.053 1.748,-0.667 1.802,-1.608c0.054,-0.941 -0.667,-1.749 -1.608,-1.802c-0.941,-0.054 -1.748,0.666 -1.802,1.607c-0.054,0.941 0.667,1.749 1.608,1.803Z" style="fill:#1d073c;"/><path d="M18.173,48.212c0.941,0.054 1.748,-0.667 1.802,-1.608c0.054,-0.941 -0.667,-1.749 -1.608,-1.802c-0.941,-0.054 -1.748,0.667 -1.802,1.608c-0.054,0.941 0.667,1.748 1.608,1.802Z" style="fill:#1d073c;"/><path d="M18.877,55.034c0.941,0.053 1.748,-0.667 1.802,-1.608c0.054,-0.941 -0.667,-1.749 -1.608,-1.803c-0.941,-0.053 -1.749,0.667 -1.802,1.608c-0.054,0.941 0.667,1.749 1.608,1.803Z" style="fill:#1d073c;"/><path d="M19.602,61.904c0.941,0.054 1.749,-0.667 1.802,-1.608c0.054,-0.941 -0.666,-1.748 -1.607,-1.802c-0.942,-0.054 -1.749,0.667 -1.803,1.608c-0.053,0.941 0.667,1.749 1.608,1.802Z" style="fill:#1d073c;"/><path d="M18.611,40.526c0.941,0.053 1.749,-0.667 1.802,-1.608c0.054,-0.941 -0.667,-1.749 -1.608,-1.802c-0.941,-0.054 -1.748,0.666 -1.802,1.607c-0.054,0.942 0.667,1.749 1.608,1.803Z" style="fill:#1d073c;"/></g></g></g><g><circle cx="28.333" cy="10.611" r="3.548" style="fill:#757ee4;"/></g><g><path d="M26.728,9.961l-4.769,-2.414l-1.793,-4.874l5.47,-1.061l1.092,8.349" style="fill:#2262cf;"/><path d="M26.728,9.961l-8.094,-0.903l-1.258,-3.419l8.835,2.917" style="fill:#22aecf;"/><path d="M26.728,9.961l4.322,-9.351l-4.047,-0.452l-2.79,2.967l2.515,6.836Z" style="fill:#22aecf;"/><path d="M26.728,9.961l1.532,-6.385l5.908,-1.527l-0.195,2.165l-7.245,5.747" style="fill:#22aecf;"/><path d="M26.728,9.961l6.836,-2.514l2.79,-2.967l-4.047,-0.452l-5.579,5.933" style="fill:#22aecf;"/><path d="M26.728,9.961l-3.544,-0.395l-0.071,-3.286l4.05,-1.537l3.172,2.343l-3.607,2.875Z" style="fill:#2262cf;"/><path d="M18.634,9.058l1.977,1.672l6.117,-0.769l-8.094,-0.903Z" style="fill:#2262cf;"/></g><g><g><g><path d="M11.157,19.047l3.843,4.976l1.775,-2.397l-5.618,-2.579Z" style="fill:#c0e9e9;"/><path d="M7.219,25.017l4.5,4.455l1.442,-2.658l-5.942,-1.797Z" style="fill:#c0e9e9;"/><path d="M4.028,30.46l6.135,4.541l1.237,-3.027l-7.372,-1.514Z" style="fill:#c0e9e9;"/><path d="M0.675,38.803l7.604,2.507l0.392,-2.925l-7.996,0.418Z" style="fill:#c0e9e9;"/><path d="M0.667,45.964l7.541,1.463l0.28,-3.143l-7.821,1.68Z" style="fill:#c0e9e9;"/><path d="M1.93,54.489l8.384,-0.896l-0.77,-2.6l-7.614,3.496Z" style="fill:#c0e9e9;"/><path d="M4.949,61.303l8.602,-2.239l-0.999,-2.366l-7.603,4.605Z" style="fill:#c0e9e9;"/></g><g><g opacity="0.3"><path d="M11.157,19.047l3.843,4.976l1.775,-2.397l-5.618,-2.579Z" style="fill:#1d073c;"/><path d="M7.219,25.017l4.5,4.455l1.442,-2.658l-5.942,-1.797Z" style="fill:#1d073c;"/><path d="M4.028,30.46l6.135,4.541l1.237,-3.027l-7.372,-1.514Z" style="fill:#1d073c;"/><path d="M0.675,38.803l7.604,2.507l0.392,-2.925l-7.996,0.418Z" style="fill:#1d073c;"/><path d="M0.667,45.964l7.541,1.463l0.28,-3.143l-7.821,1.68Z" style="fill:#1d073c;"/><path d="M1.93,54.489l8.384,-0.896l-0.77,-2.6l-7.614,3.496Z" style="fill:#1d073c;"/><path d="M4.949,61.303l8.602,-2.239l-0.999,-2.366l-7.603,4.605Z" style="fill:#1d073c;"/></g></g></g><g><path d="M48.284,19.047l-3.843,4.976l-1.774,-2.397l5.617,-2.579Z" style="fill:#c0e9e9;"/><path d="M52.222,25.017l-4.5,4.455l-1.442,-2.658l5.942,-1.797Z" style="fill:#c0e9e9;"/><path d="M55.413,30.46l-6.135,4.541l-1.236,-3.027l7.371,-1.514Z" style="fill:#c0e9e9;"/><path d="M58.766,38.803l-7.604,2.507l-0.391,-2.925l7.995,0.418Z" style="fill:#c0e9e9;"/><path d="M58.775,45.964l-7.542,1.463l-0.28,-3.143l7.822,1.68Z" style="fill:#c0e9e9;"/><path d="M57.511,54.489l-8.383,-0.896l0.769,-2.6l7.614,3.496Z" style="fill:#c0e9e9;"/><path d="M54.492,61.303l-8.602,-2.239l0.999,-2.366l7.603,4.605Z" style="fill:#c0e9e9;"/></g></g></g></svg>