<?xml version="1.0" encoding="UTF-8" standalone="no"?><!DOCTYPE svg PUBLIC "-//W3C//DTD SVG 1.1//EN" "http://www.w3.org/Graphics/SVG/1.1/DTD/svg11.dtd"><svg width="100%" height="100%" viewBox="0 0 205 245" version="1.1" xmlns="http://www.w3.org/2000/svg" xmlns:xlink="http://www.w3.org/1999/xlink" xml:space="preserve" xmlns:serif="http://www.serif.com/" style="fill-rule:evenodd;clip-rule:evenodd;stroke-linejoin:round;stroke-miterlimit:1.41421;"><g id="cliff02"><path d="M70.357,0.606l48.299,40.25l-42.932,0l-26.833,-18.783l21.466,-21.467" style="fill:#aadadf;"/><path d="M118.656,40.856l85.865,171.73l-107.331,21.466l-21.466,-193.196l42.932,0Z" style="fill:#8efaf0;"/><path d="M48.891,22.073l26.833,18.783l21.466,193.196l-96.598,-16.1l48.299,-195.879Z" style="fill:#0098a3;"/><path d="M54.258,191.119l16.099,18.783l-32.199,-5.366l-5.367,-13.417l21.467,0Z" style="fill:#aadadf;"/><path d="M70.357,209.902l5.367,34.883l-53.666,-5.366l16.1,-34.883l32.199,5.366Z" style="fill:#8efaf0;"/><path d="M32.791,191.119l5.367,13.417l-16.1,34.883l-5.366,-18.783l16.099,-29.517" style="fill:#007e9b;"/></g></svg>