<?xml version="1.0" encoding="UTF-8" standalone="no"?><!DOCTYPE svg PUBLIC "-//W3C//DTD SVG 1.1//EN" "http://www.w3.org/Graphics/SVG/1.1/DTD/svg11.dtd"><svg width="100%" height="100%" viewBox="0 0 26 59" version="1.1" xmlns="http://www.w3.org/2000/svg" xmlns:xlink="http://www.w3.org/1999/xlink" xml:space="preserve" xmlns:serif="http://www.serif.com/" style="fill-rule:evenodd;clip-rule:evenodd;stroke-linejoin:round;stroke-miterlimit:1.41421;"><g id="flower03"><g><g><path d="M16.176,58.686l2.683,-2.624l-3.162,-22.561l2.336,-25.25l-1.857,3.211l-3.531,22.169l3.531,25.055Z" style="fill:#9bffe5;"/><path d="M15.126,8.761l-3.606,24.513l1.973,22.788l2.683,2.624l-2.683,-24.906l2.683,-22.318l-1.05,-2.701Z" style="fill:#22aecf;"/></g><path d="M15.731,22.185l2.154,-0.924l1.317,-3.995l2.641,-1.32l-2.641,-1.7l5.939,0.05l-0.572,4.935l-0.776,2.954l-4.591,-0.123l-3.016,2.079l-0.455,-1.956Z" style="fill:#22aecf;"/><clipPath id="_clip1"><path d="M15.731,22.185l2.154,-0.924l1.317,-3.995l2.641,-1.32l-2.641,-1.7l5.939,0.05l-0.572,4.935l-0.776,2.954l-4.591,-0.123l-3.016,2.079l-0.455,-1.956Z"/></clipPath><g clip-path="url(#_clip1)"><path d="M26.766,13.484l-5.489,2.745l-2.075,-0.076l2.703,-0.238l-3.213,1.606l0.873,3.345l3.911,0.787l7.545,1.523l-5.113,-7.231l-6.453,4.499l6.453,-4.499l0.858,-2.461" style="fill:#9bffe5;"/></g><path d="M13.072,51.482l-1.834,-2.544l-5.144,-0.488l-2.47,-3.061l-1.072,4.001l-2.013,-7.824l5.985,-0.783l3.735,0.1l1.458,6.074l3.49,3.318l-2.135,1.207Z" style="fill:#22aecf;"/><clipPath id="_clip2"><path d="M13.072,51.482l-1.834,-2.544l-5.144,-0.488l-2.47,-3.061l-1.072,4.001l-2.013,-7.824l5.985,-0.783l3.735,0.1l1.458,6.074l3.49,3.318l-2.135,1.207Z"/></clipPath><g clip-path="url(#_clip2)"><path d="M-0.981,39.683l5.134,6.363l0.636,2.75l-1.223,-3.479l3.005,3.724l3.618,-2.189l-0.443,-5.387l-0.848,-10.392l-6.694,8.972l7.527,7.084l-7.527,-7.084l-3.185,-0.362" style="fill:#9bffe5;"/></g><path d="M14.138,20.126l-1.442,-1.847l1.139,-3.898l-2.046,-2.667l-0.743,-0.363l-6.548,-1.43l2.589,2.105l0.731,1.252l-0.744,2.963l4.082,2.104l1.641,3.275l1.341,-1.494Z" style="fill:#22aecf;"/><clipPath id="_clip3"><path d="M14.138,20.126l-1.442,-1.847l1.139,-3.898l-2.046,-2.667l-0.743,-0.363l-6.548,-1.43l2.589,2.105l0.731,1.252l-0.744,2.963l4.082,2.104l1.641,3.275l1.341,-1.494Z"/></clipPath><g clip-path="url(#_clip3)"><path d="M8.661,7.184l4.245,3.296l1.097,2.688l-0.776,-2.439l3.034,3.541l-4.847,2.853l-3.806,-1.195l-3.261,-0.841l4.957,-2.484l2.228,4.45l-1.532,-3.06l-0.696,-1.39l-0.22,-1.905l2.748,0.61l3.52,3.497l-3.638,2.001l5.436,-3.032l-8.489,-6.59" style="fill:#9bffe5;"/></g><path d="M13.493,41.946l2.046,-2.305l-0.656,-5.253l2.404,-3.038l1.925,-2.109l3.444,-1.444l-0.302,5.626l0.721,3.768l-5.525,2.57l-2.429,4.109l-1.628,-1.924Z" style="fill:#22aecf;"/><clipPath id="_clip4"><path d="M13.493,41.946l2.046,-2.305l-0.656,-5.253l2.404,-3.038l1.925,-2.109l3.444,-1.444l-0.302,5.626l0.721,3.768l-5.525,2.57l-2.429,4.109l-1.628,-1.924Z"/></clipPath><g clip-path="url(#_clip4)"><path d="M21.77,25.688l-4.998,6.314l-2.508,1.139l3.08,-1.862l-2.925,3.695l2.898,3.234l5.086,-1.426l9.814,-2.745l-10.098,-5.086l-5.169,8.848l5.169,-8.848l-0.349,-3.263" style="fill:#9bffe5;"/></g><path d="M13.148,33.337l-2.315,-1.6l-0.051,-4.661l-3.299,-2.322l-0.986,-0.173l-3.737,1.787l0.684,1.338l0.18,3.506l5.454,1.072l3.045,3.119l1.025,-2.066Z" style="fill:#22aecf;"/><clipPath id="_clip5"><path d="M13.148,33.337l-2.315,-1.6l-0.051,-4.661l-3.299,-2.322l-0.986,-0.173l-3.737,1.787l0.684,1.338l0.18,3.506l5.454,1.072l3.045,3.119l1.025,-2.066Z"/></clipPath><g clip-path="url(#_clip5)"><path d="M2.28,20.706l6.061,2.34l2.21,2.636l-1.752,-2.459l4.746,2.984l-4.598,4.646l-4.817,-0.152l-4.062,0.073l5.469,-3.644l3.522,3.609l-2.844,-2.914l-0.678,-0.695l1.904,-2.172l-0.051,-0.666l5.293,2.786l-3.5,3.332l5.215,-5.025l-12.118,-4.679" style="fill:#9bffe5;"/></g></g><g><path d="M14.008,9.99l-2.48,-4.735l1.371,-5.01l5.068,2.313l-3.959,7.432" style="fill:#2262cf;"/><path d="M14.008,9.99l-6.064,-5.436l0.961,-3.513l5.499,7.505" style="fill:#22aecf;"/><path d="M14.008,9.99l8.949,-5.104l-3.032,-2.718l-3.994,0.795l-1.923,7.027Z" style="fill:#22aecf;"/><path d="M14.008,9.99l4.956,-4.309l5.697,2.187l-1.417,1.65l-9.236,0.472" style="fill:#22aecf;"/><path d="M14.008,9.99l7.027,1.922l3.993,-0.795l-3.032,-2.718l-7.988,1.591" style="fill:#22aecf;"/><path d="M14.047,10.946l-2.656,-2.38l1.851,-2.717l4.189,1.101l1.222,3.749l-4.606,0.247Z" style="fill:#2262cf;"/><path d="M7.944,4.554l0.638,2.509l5.426,2.927l-6.064,-5.436Z" style="fill:#2262cf;"/></g></g></svg>