<?xml version="1.0" encoding="UTF-8" standalone="no"?><!DOCTYPE svg PUBLIC "-//W3C//DTD SVG 1.1//EN" "http://www.w3.org/Graphics/SVG/1.1/DTD/svg11.dtd"><svg width="100%" height="100%" viewBox="0 0 25 35" version="1.1" xmlns="http://www.w3.org/2000/svg" xmlns:xlink="http://www.w3.org/1999/xlink" xml:space="preserve" xmlns:serif="http://www.serif.com/" style="fill-rule:evenodd;clip-rule:evenodd;stroke-linejoin:round;stroke-miterlimit:1.41421;"><g id="flower07"><g><g><path d="M13.399,34.604l2.683,-1.342l1.683,-14.742l-3.374,-9.161l-0.992,1.095l1.415,8.335l-1.415,15.815Z" style="fill:#9bffe5;"/><path d="M12.348,9.073l1.506,9.659l-3.139,14.53l2.684,1.342l2.016,-16.116l-2.016,-8.034l-1.051,-1.381Z" style="fill:#22aecf;"/></g><path d="M15.307,27.664l2.154,-0.923l1.317,-3.996l2.641,-1.32l-2.641,-1.7l5.94,0.05l-0.573,4.935l-0.776,2.954l-4.591,-0.123l-3.016,2.079l-0.455,-1.956Z" style="fill:#22aecf;"/><clipPath id="_clip1"><path d="M15.307,27.664l2.154,-0.923l1.317,-3.996l2.641,-1.32l-2.641,-1.7l5.94,0.05l-0.573,4.935l-0.776,2.954l-4.591,-0.123l-3.016,2.079l-0.455,-1.956Z"/></clipPath><g clip-path="url(#_clip1)"><path d="M26.342,18.963l-5.489,2.745l-2.075,-0.076l2.703,-0.238l-3.213,1.606l0.873,3.346l3.911,0.786l7.545,1.523l-5.113,-7.231l-6.453,4.499l6.453,-4.499l0.858,-2.461" style="fill:#9bffe5;"/></g><path d="M13.739,21.186l-2.154,-0.923l-0.879,-3.964l-3.079,-1.352l-0.825,0.04l-6.427,1.903l3.283,0.597l1.244,0.745l0.775,2.954l4.591,-0.123l3.016,2.08l0.455,-1.957Z" style="fill:#22aecf;"/><clipPath id="_clip2"><path d="M13.739,21.186l-2.154,-0.923l-0.879,-3.964l-3.079,-1.352l-0.825,0.04l-6.427,1.903l3.283,0.597l1.244,0.745l0.775,2.954l4.591,-0.123l3.016,2.08l0.455,-1.957Z"/></clipPath><g clip-path="url(#_clip2)"><path d="M2.704,12.486l5.308,0.842l2.256,1.827l-1.855,-1.763l4.364,1.641l-2.872,4.835l-3.911,0.787l-3.262,0.835l3.147,-4.566l4.096,2.826l-2.817,-1.943l-1.279,-0.883l-1.111,-1.563l2.701,-0.789l4.77,1.368l-2.223,3.505l3.302,-5.275l-10.614,-1.684" style="fill:#9bffe5;"/></g></g><g><path d="M11.513,10.401l-2.481,-4.735l1.371,-5.009l5.069,2.312l-3.959,7.432" style="fill:#2262cf;"/><path d="M11.513,10.401l-6.065,-5.436l0.961,-3.513l5.499,7.505" style="fill:#22aecf;"/><path d="M11.513,10.401l8.948,-5.103l-3.032,-2.718l-3.994,0.795l-1.922,7.026Z" style="fill:#22aecf;"/><path d="M11.513,10.401l4.955,-4.308l5.697,2.187l-1.417,1.649l-9.235,0.472" style="fill:#22aecf;"/><path d="M11.513,10.401l7.026,1.923l3.993,-0.796l-3.032,-2.717l-7.987,1.59" style="fill:#22aecf;"/><g><path d="M13.648,4.622c1.958,0 3.712,1.372 3.914,3.06c0.202,1.689 -1.223,3.06 -3.182,3.06c-1.958,0 -3.712,-1.371 -3.914,-3.06c-0.203,-1.688 1.223,-3.06 3.182,-3.06Z" style="fill:#f1ce52;"/></g><path d="M11.551,11.357l-2.656,-2.38l1.851,-2.716l4.189,1.101l1.222,3.749l-4.606,0.246Z" style="fill:#2262cf;"/><path d="M5.448,4.965l0.638,2.51l5.427,2.926l-6.065,-5.436Z" style="fill:#2262cf;"/></g></g></svg>