<?xml version="1.0" encoding="UTF-8" standalone="no"?><!DOCTYPE svg PUBLIC "-//W3C//DTD SVG 1.1//EN" "http://www.w3.org/Graphics/SVG/1.1/DTD/svg11.dtd"><svg width="100%" height="100%" viewBox="0 0 53 27" version="1.1" xmlns="http://www.w3.org/2000/svg" xmlns:xlink="http://www.w3.org/1999/xlink" xml:space="preserve" xmlns:serif="http://www.serif.com/" style="fill-rule:evenodd;clip-rule:evenodd;stroke-linejoin:round;stroke-miterlimit:1.41421;"><path id="grass02" d="M0.481,0.663l7.744,2.655l1.155,7.876l3.749,-6.122l-0.943,-4.895l5.05,2.842l-1.287,6.01l3.446,2.925l2.36,-5.828l-1.642,-0.419l5.367,-3.009l1.395,2.262l-0.418,8.093l4.39,-7.7l0,-1.77l3.93,2.744l-0.268,4.155l0.273,3.799l5.249,-8.109l-0.933,7.382l4.239,-0.363l1.12,-4.806l-2.877,-2.855l4.26,1.239l1.106,6.373l5.367,4.537c0,0 0.454,-1.214 -1.77,0.886c-2.225,2.099 -5.323,3.693 -7.004,4.578c-1.682,0.885 -1.056,1.075 -4.467,1.157c-3.41,0.082 -2.525,0.17 -7.216,0.082c-4.691,-0.089 -2.832,3.54 -7.346,-0.266c-4.514,-3.806 0.5,-7.611 -4.397,-3.806c-4.896,3.806 -5.958,4.514 -7.374,5.576c-1.416,1.062 -2.39,0.266 -2.39,0.266c0,0 -0.885,-0.62 -1.947,-1.416c-1.062,-0.797 -1.416,-0.354 -2.035,-1.328c-0.62,-0.973 -0.492,-2.115 -0.492,-2.115c0,0 -1.434,-0.852 2.095,-2.909c3.53,-2.056 3.176,-1.702 -0.187,-2.41c-3.363,-0.708 -4.54,-1.363 -4.54,-1.363l3.212,-1.646l-0.531,-6.373l-5.443,-5.929Z" style="fill:#22aecf;"/><clipPath id="_clip1"><path d="M0.481,0.663l7.744,2.655l1.155,7.876l3.749,-6.122l-0.943,-4.895l5.05,2.842l-1.287,6.01l3.446,2.925l2.36,-5.828l-1.642,-0.419l5.367,-3.009l1.395,2.262l-0.418,8.093l4.39,-7.7l0,-1.77l3.93,2.744l-0.268,4.155l0.273,3.799l5.249,-8.109l-0.933,7.382l4.239,-0.363l1.12,-4.806l-2.877,-2.855l4.26,1.239l1.106,6.373l5.367,4.537c0,0 0.454,-1.214 -1.77,0.886c-2.225,2.099 -5.323,3.693 -7.004,4.578c-1.682,0.885 -1.056,1.075 -4.467,1.157c-3.41,0.082 -2.525,0.17 -7.216,0.082c-4.691,-0.089 -2.832,3.54 -7.346,-0.266c-4.514,-3.806 0.5,-7.611 -4.397,-3.806c-4.896,3.806 -5.958,4.514 -7.374,5.576c-1.416,1.062 -2.39,0.266 -2.39,0.266c0,0 -0.885,-0.62 -1.947,-1.416c-1.062,-0.797 -1.416,-0.354 -2.035,-1.328c-0.62,-0.973 -0.492,-2.115 -0.492,-2.115c0,0 -1.434,-0.852 2.095,-2.909c3.53,-2.056 3.176,-1.702 -0.187,-2.41c-3.363,-0.708 -4.54,-1.363 -4.54,-1.363l3.212,-1.646l-0.531,-6.373l-5.443,-5.929Z"/></clipPath><g clip-path="url(#_clip1)"><path d="M46.946,4.263l-2.489,4.122l0.648,5.691l-0.589,4.294l-2.936,-6.057l-1.896,-6.314l-2.461,8.492l0.439,2.463l-3.399,1.756l0.963,-4.871l0.987,-7.76l-5.366,-0.34l0.398,1.865l-3.38,7.68l1.754,2.293l-1.416,0.567l-2.723,-0.793l0.798,-4.017l1.528,-5.952l-1.03,-2.471l-5.531,1.47l-1.821,5.587l1.981,3.74l-4.74,0.247l-0.631,-6.969l3.064,-6.899l-6.148,3.075l0.529,8.628l-4.099,-2.355l0,-7.452l-1.116,-0.736l-2.265,3.682l2.909,7.606l-1.493,1.4c0,0 -5.401,8.479 -5.052,8.969c0.35,0.49 -0.108,4.672 4.228,4.903c4.335,0.232 10.274,-1.45 11.581,-2.365c1.308,-0.915 2.27,-7.656 4.989,-7.089c2.719,0.566 5.685,0.396 7.686,0.453c2,0.057 5.366,0.113 5.366,0.113c0,0 -5.631,2.719 -0.477,1.586c5.155,-1.133 5.844,-1.756 5.844,-1.756l0,-1.019l5.366,0.633l8.275,-0.067l-0.062,-6.56l-8.213,-9.473" style="fill:#9bffe5;"/></g></svg>