<?xml version="1.0" encoding="UTF-8" standalone="no"?><!DOCTYPE svg PUBLIC "-//W3C//DTD SVG 1.1//EN" "http://www.w3.org/Graphics/SVG/1.1/DTD/svg11.dtd"><svg width="100%" height="100%" viewBox="0 0 31 25" version="1.1" xmlns="http://www.w3.org/2000/svg" xmlns:xlink="http://www.w3.org/1999/xlink" xml:space="preserve" xmlns:serif="http://www.serif.com/" style="fill-rule:evenodd;clip-rule:evenodd;stroke-linejoin:round;stroke-miterlimit:1.41421;"><path id="grass09" d="M12.329,18.074l2.066,6.538l2.815,-5.901l3.8,3.402l2.664,-4.383l7.017,-1.266l-4.21,-3.261l-0.4,-13.092l-5.931,12.032l-3.813,-11.087l-2.719,6.618l-5.758,-5.157l-0.521,6.596l0.591,4.647l-6.86,-1.445l6.797,4.828l-6.883,6.345l7.861,-1.467l1.164,1.725l2.32,-5.672" style="fill:#22aecf;"/><clipPath id="_clip1"><path d="M12.329,18.074l2.066,6.538l2.815,-5.901l3.8,3.402l2.664,-4.383l7.017,-1.266l-4.21,-3.261l-0.4,-13.092l-5.931,12.032l-3.813,-11.087l-2.719,6.618l-5.758,-5.157l-0.521,6.596l0.591,4.647l-6.86,-1.445l6.797,4.828l-6.883,6.345l7.861,-1.467l1.164,1.725l2.32,-5.672"/></clipPath><g clip-path="url(#_clip1)"><path d="M26.081,0.111l-2.7,12.399l1.35,2.21l-3.253,2.456l-1.521,-4.789l2.062,-7.098l-4.549,-5.153l-1.333,-0.518l1.105,15.655l-3.789,-7.762l-1.429,-5.437l-3.991,0l3.438,12.4l-5.543,-1.13l-4.051,-5.412l-3.386,1.693l2.728,3.069l-0.375,14.207l8.38,-2.553l2.984,3.509l2.794,-1.9l0.959,-2.23l8.458,-1.138l7.506,-6.292l-4.308,-12.75l-1.536,-3.436" style="fill:#9bffe5;"/></g></svg>