<?xml version="1.0" encoding="UTF-8" standalone="no"?><!DOCTYPE svg PUBLIC "-//W3C//DTD SVG 1.1//EN" "http://www.w3.org/Graphics/SVG/1.1/DTD/svg11.dtd"><svg width="100%" height="100%" viewBox="0 0 86 55" version="1.1" xmlns="http://www.w3.org/2000/svg" xmlns:xlink="http://www.w3.org/1999/xlink" xml:space="preserve" xmlns:serif="http://www.serif.com/" style="fill-rule:evenodd;clip-rule:evenodd;stroke-linejoin:round;stroke-miterlimit:1.41421;"><g id="hedge01"><g><g><path d="M85.911,43.858l-21.466,10.733l0,-21.467l21.466,-10.733l0,21.467" style="fill:#9bffe5;"/><path d="M79.324,27.662l1.244,1.996l0.81,-1.708l0.325,1.868l1.728,-1.579l-0.959,2.812l1.156,0.511l-1.047,1.326l1.244,1.996l-1.837,-0.257l-0.096,2.023l-0.972,-1.048l-0.96,2.813l-0.175,-2.972l-1.215,0.74l0.446,-1.974l-1.837,-0.258l1.728,-1.579l-0.655,-1.565l1.248,-0.173l-0.176,-2.972Z" style="fill:#22aecf;"/><path d="M72.712,33.96l0.712,3.799l2.171,-2.122l-0.577,3.049l3.461,-1.372l-3.021,3.721l1.425,1.475l-2.307,1.397l0.712,3.8l-2.579,-1.5l-1.291,3.034l-0.848,-2.186l-3.021,3.721l1.427,-4.648l-2.223,0.4l1.783,-2.748l-2.579,-1.5l3.461,-1.373l-0.084,-2.787l1.951,0.488l1.427,-4.648Z" style="fill:#22aecf;"/></g><g><path d="M21.513,11.658l42.932,21.466l0,21.467l-42.932,-21.467l0,-21.466" style="fill:#22aecf;"/><path d="M26.15,17.118l2.157,2.301l1.167,-0.773l0.671,1.618l2.652,-0.09l-1.319,1.513l1.899,1.123l-1.579,0.334l2.158,2.301l-2.973,-1.366l0.007,1.467l-1.646,-1.412l-1.319,1.513l-0.519,-2.357l-1.894,-0.216l0.561,-1.207l-2.973,-1.367l2.653,-0.09l-1.178,-1.601l1.993,0.666l-0.518,-2.357Z" style="fill:#98cfdf;"/><path d="M41.564,25.499l-1.805,3.965l1.42,0.394l-1.633,2.016l1.248,2.342l-2.363,0.108l-0.516,2.707l-1.075,-1.151l-1.805,3.965l0.344,-3.899l-1.739,1.28l0.968,-2.727l-2.362,0.107l2.575,-2.517l-0.558,-1.916l1.673,-0.534l0.345,-3.899l1.247,2.343l1.394,-2.463l0.066,2.397l2.576,-2.518Z" style="fill:#98cfdf;"/><path d="M26.74,27.726l0.342,1.809l0.659,-0.154l-0.106,1.069l1.106,0.586l-0.895,0.532l0.513,1.086l-0.724,-0.192l0.342,1.809l-0.895,-1.48l-0.342,0.825l-0.341,-1.187l-0.895,0.532l0.342,-1.447l-0.724,-0.576l0.512,-0.542l-0.894,-1.48l1.106,0.586l-0.106,-1.181l0.659,0.852l0.341,-1.447Z" style="fill:#98cfdf;"/><path d="M47.408,27.788l1.998,1.573l1.326,-0.045l1.079,1.151l2.245,0.377l-0.5,1.485l1.079,1.151l-0.66,0.756l1.239,1.88l-2.306,-0.656l-0.659,0.756l-1.487,-0.683l-1.479,0.784l-0.926,-1.89l-1.486,-0.683l-0.259,-1.179l-2.154,-1.395l1.734,-0.512l-0.259,-1.179l1.327,-0.045l0.148,-1.646Z" style="fill:#98cfdf;"/><path d="M56.457,38.075l1.669,0.72l-0.597,-4.165l1.401,3.019l0.435,-3.72l0.597,4.164l1.3,-1.854l-0.435,3.72l1.67,0.719l-1.301,1.855l1.401,3.018l-1.67,-0.719l0.597,4.164l-1.401,-3.018l-0.435,3.72l-0.596,-4.165l-1.301,1.854l0.435,-3.72l-1.67,-0.719l1.301,-1.854l-1.4,-3.019Z" style="fill:#98cfdf;"/><path d="M47.999,38.396l0.553,0.915l0.683,0.362l0.211,1.118l0.553,0.915l-0.211,0.894l0.211,1.118l-0.553,0.329l-0.211,0.894l-0.683,-0.362l-0.553,0.329l-0.553,-0.915l-0.684,-0.362l-0.211,-1.118l-0.553,-0.915l0.211,-0.894l-0.211,-1.118l0.553,-0.329l0.211,-0.894l0.684,0.362l0.553,-0.329Z" style="fill:#98cfdf;"/></g></g><g><g><path d="M21.513,11.658l21.466,-10.733l42.932,21.466l-21.466,10.733l-21.466,-10.733l-21.466,10.733l-21.467,-10.733l21.467,-10.733Z" style="fill:#98cfdf;"/><path d="M46.213,5.299l1.942,0.261l0.986,0.802l2.092,0.315l0.835,0.747l0.24,0.779l-1.514,0.507l0.174,0.846l-1.448,0.441l-1.794,0.22l-1.921,-0.488l-1.985,0.207l-1.73,-0.475l-1.349,-0.642l0.327,-0.81l-1.401,-0.717l0.379,-0.734l0.96,-0.618l2.123,-0.012l1.12,-0.65l1.964,0.021Z" style="fill:#22aecf;"/><path d="M37.958,9.148l-0.503,1.877l1.849,0.252l-1.105,0.925l2.45,1.204l-2.761,-0.043l0.505,1.31l-1.752,-0.61l-0.503,1.878l-1.204,-1.905l-1.536,0.559l0.022,-1.303l-2.761,-0.043l2.017,-1.134l-1.455,-0.965l1.766,-0.195l-1.203,-1.904l2.45,1.203l0.637,-1.155l1.07,1.182l2.017,-1.133Z" style="fill:#22aecf;"/><path d="M41.978,13.87l2.046,0.462l0.54,-1.325l0.889,0.847l1.697,-1.71l-0.432,1.995l1.547,-0.298l-0.93,1.237l2.046,0.461l-2.313,0.772l0.416,1.141l-1.465,-0.084l-0.432,1.996l-0.997,-1.518l-1.29,1.003l0.025,-1.288l-2.313,0.772l1.697,-1.711l-1.214,-0.52l1.48,-0.713l-0.997,-1.519Z" style="fill:#22aecf;"/><path d="M62.261,12.75l1.127,1.443l2.622,-1.178l-0.924,1.62l3.319,-0.286l-2.622,1.178l2.748,0.715l-3.32,0.286l1.128,1.443l-2.748,-0.715l-0.925,1.62l-1.127,-1.443l-2.622,1.178l0.924,-1.62l-3.319,0.286l2.622,-1.178l-2.748,-0.714l3.319,-0.287l-1.127,-1.443l2.748,0.715l0.925,-1.62Z" style="fill:#22aecf;"/><path d="M55.914,18.658l0.645,1.578l1.659,0.51l0.008,1l2.295,1.088l-2.281,0.531l0.009,1l-1.653,0.108l-0.62,1.423l-2.055,-1.249l-1.653,0.108l-1.031,-0.934l-2.678,-0.208l1.012,-1.303l-1.031,-0.934l1.017,-0.684l-1.036,-1.552l2.68,0.444l1.017,-0.685l1.658,0.51l2.038,-0.751Z" style="fill:#22aecf;"/><path d="M64.883,22.717l2.37,-0.515l1.057,-1.471l1.423,0.034l2.004,-2.019l0.298,2.073l1.422,0.033l-0.177,1.491l1.898,0.616l-2.185,1.797l-0.178,1.491l-1.533,0.888l-0.83,2.4l-1.649,-0.963l-1.533,0.888l-0.769,-0.942l-2.412,0.867l1.167,-2.392l-0.77,-0.942l1.057,-1.47l-0.66,-1.864Z" style="fill:#22aecf;"/></g><path d="M42.979,43.858l-21.466,10.733l0,-21.467l21.466,-10.733l0,21.467" style="fill:#9bffe5;"/><path d="M0.046,22.391l21.467,10.733l0,21.467l-21.467,-10.733l0,-21.467" style="fill:#22aecf;"/><path d="M37.434,28.078l0.75,0.236l0.669,-0.612l0.545,0.993l0.75,0.236l0.131,1.371l0.544,0.993l-0.333,1.225l0.131,1.37l-0.669,0.612l-0.332,1.225l-0.75,-0.236l-0.669,0.611l-0.545,-0.993l-0.749,-0.236l-0.131,-1.37l-0.545,-0.993l0.333,-1.225l-0.131,-1.371l0.669,-0.611l0.332,-1.225Z" style="fill:#22aecf;"/><path d="M29.779,33.96l0.267,5.249l1.463,-1.401l-0.366,2.039l4.403,-2.533l-4.1,4.149l0.938,1.014l-1.545,0.963l1.516,4.267l-2.801,-2.685l-0.883,2.028l-0.589,-1.444l-3.466,5.17l2.369,-5.808l-1.483,0.239l1.181,-1.855l-3.659,-1.072l4.265,-0.905l-0.033,-1.88l1.318,0.298l1.205,-5.833Z" style="fill:#22aecf;"/><path d="M4.684,27.851l2.157,2.301l1.166,-0.773l0.672,1.618l2.652,-0.09l-1.319,1.513l1.898,1.123l-1.578,0.334l2.158,2.302l-2.973,-1.367l0.007,1.468l-1.647,-1.412l-1.319,1.512l-0.518,-2.357l-1.894,-0.216l0.561,-1.207l-2.973,-1.367l2.653,-0.09l-1.178,-1.601l1.993,0.666l-0.518,-2.357Z" style="fill:#98cfdf;"/><path d="M20.097,36.233l-1.804,3.964l1.42,0.394l-1.633,2.016l1.248,2.342l-2.363,0.108l-0.517,2.707l-1.075,-1.151l-1.804,3.965l0.344,-3.898l-1.739,1.279l0.968,-2.727l-2.363,0.108l2.576,-2.518l-0.558,-1.915l1.673,-0.535l0.344,-3.898l1.248,2.342l1.394,-2.463l0.066,2.397l2.575,-2.517Z" style="fill:#98cfdf;"/><path d="M5.274,38.459l0.342,1.809l0.658,-0.154l-0.105,1.069l1.106,0.586l-0.895,0.532l0.513,1.086l-0.724,-0.192l0.341,1.809l-0.894,-1.48l-0.342,0.825l-0.342,-1.187l-0.894,0.532l0.341,-1.447l-0.723,-0.575l0.512,-0.543l-0.894,-1.48l1.105,0.586l-0.105,-1.181l0.658,0.852l0.342,-1.447Z" style="fill:#98cfdf;"/><path d="M25.092,14.25l0.914,1.299l2.014,-0.236l-0.395,0.823l3.323,0.24l-2.758,0.563l1.483,0.723l-2.188,-0.012l0.914,1.298l-2.618,-0.951l-1.097,0.683l-0.957,-0.831l-2.758,0.563l1.14,-1.15l-2.162,-0.301l1.597,-0.501l-2.619,-0.951l3.323,0.24l-0.239,-0.869l1.943,0.521l1.14,-1.151Z" style="fill:#22aecf;"/><path d="M16.492,19.881l-0.503,1.878l1.849,0.251l-1.105,0.925l2.45,1.204l-2.761,-0.043l0.505,1.311l-1.752,-0.611l-0.504,1.878l-1.203,-1.905l-1.536,0.559l0.022,-1.303l-2.762,-0.043l2.018,-1.134l-1.455,-0.965l1.766,-0.195l-1.203,-1.904l2.45,1.204l0.637,-1.156l1.07,1.183l2.017,-1.134Z" style="fill:#22aecf;"/><path d="M25.593,22.117l2.047,0.461l0.539,-1.325l0.89,0.848l1.696,-1.711l-0.431,1.996l1.547,-0.298l-0.931,1.236l2.046,0.461l-2.313,0.772l0.417,1.141l-1.465,-0.083l-0.432,1.995l-0.998,-1.518l-1.29,1.003l0.026,-1.288l-2.313,0.772l1.696,-1.711l-1.213,-0.52l1.48,-0.713l-0.998,-1.518Z" style="fill:#22aecf;"/></g></g></svg>