<?xml version="1.0" encoding="UTF-8" standalone="no"?><!DOCTYPE svg PUBLIC "-//W3C//DTD SVG 1.1//EN" "http://www.w3.org/Graphics/SVG/1.1/DTD/svg11.dtd"><svg width="100%" height="100%" viewBox="0 0 44 44" version="1.1" xmlns="http://www.w3.org/2000/svg" xmlns:xlink="http://www.w3.org/1999/xlink" xml:space="preserve" xmlns:serif="http://www.serif.com/" style="fill-rule:evenodd;clip-rule:evenodd;stroke-linejoin:round;stroke-miterlimit:1.41421;"><g id="hedge07"><path d="M21.744,0.21l21.466,10.733l-21.466,10.733l-21.466,-10.733l21.466,-10.733Z" style="fill:#98cfdf;"/><path d="M43.21,32.409l-21.466,10.733l0,-21.466l21.466,-10.733l0,21.466" style="fill:#9bffe5;"/><path d="M0.278,10.943l21.466,10.733l0,21.466l-21.466,-10.733l0,-21.466" style="fill:#22aecf;"/><path d="M36.623,16.214l1.244,1.996l0.81,-1.708l0.325,1.867l1.729,-1.579l-0.96,2.813l1.156,0.51l-1.047,1.327l1.244,1.996l-1.837,-0.258l-0.095,2.023l-0.973,-1.047l-0.959,2.812l-0.176,-2.972l-1.215,0.741l0.446,-1.974l-1.837,-0.258l1.728,-1.579l-0.655,-1.566l1.248,-0.172l-0.176,-2.972Z" style="fill:#22aecf;"/><path d="M30.011,22.511l0.712,3.8l2.171,-2.123l-0.577,3.05l3.461,-1.373l-3.021,3.721l1.425,1.476l-2.307,1.397l0.712,3.799l-2.579,-1.5l-1.291,3.035l-0.848,-2.186l-3.021,3.72l1.427,-4.647l-2.223,0.399l1.783,-2.748l-2.579,-1.5l3.461,-1.372l-0.084,-2.788l1.951,0.488l1.427,-4.648Z" style="fill:#22aecf;"/><path d="M4.915,16.402l2.158,2.302l1.166,-0.774l0.671,1.619l2.653,-0.091l-1.319,1.513l1.898,1.123l-1.578,0.334l2.157,2.302l-2.973,-1.367l0.008,1.468l-1.647,-1.412l-1.319,1.513l-0.518,-2.358l-1.894,-0.216l0.56,-1.206l-2.972,-1.367l2.652,-0.09l-1.178,-1.602l1.993,0.667l-0.518,-2.358Z" style="fill:#98cfdf;"/><path d="M20.329,24.784l-1.804,3.965l1.419,0.393l-1.632,2.016l1.247,2.343l-2.362,0.108l-0.517,2.706l-1.075,-1.151l-1.804,3.965l0.344,-3.898l-1.739,1.279l0.968,-2.727l-2.363,0.108l2.575,-2.517l-0.558,-1.916l1.674,-0.535l0.344,-3.898l1.247,2.343l1.394,-2.464l0.067,2.397l2.575,-2.517Z" style="fill:#98cfdf;"/><path d="M5.506,27.011l0.341,1.809l0.659,-0.154l-0.106,1.069l1.106,0.586l-0.894,0.532l0.512,1.085l-0.724,-0.191l0.342,1.809l-0.895,-1.48l-0.341,0.825l-0.342,-1.188l-0.895,0.532l0.342,-1.446l-0.724,-0.576l0.513,-0.542l-0.895,-1.481l1.106,0.586l-0.106,-1.18l0.659,0.852l0.342,-1.447Z" style="fill:#98cfdf;"/><path d="M22.545,4.191l0.914,1.299l2.014,-0.236l-0.396,0.823l3.323,0.24l-2.758,0.562l1.484,0.724l-2.188,-0.013l0.914,1.299l-2.619,-0.951l-1.096,0.683l-0.957,-0.831l-2.758,0.563l1.139,-1.15l-2.161,-0.301l1.596,-0.501l-2.618,-0.951l3.323,0.24l-0.24,-0.869l1.944,0.521l1.14,-1.151Z" style="fill:#22aecf;"/><path d="M16.724,8.432l-0.503,1.878l1.848,0.252l-1.105,0.925l2.451,1.204l-2.762,-0.044l0.506,1.311l-1.753,-0.61l-0.503,1.877l-1.203,-1.904l-1.537,0.558l0.022,-1.302l-2.761,-0.044l2.017,-1.133l-1.455,-0.966l1.767,-0.194l-1.204,-1.905l2.45,1.204l0.637,-1.155l1.07,1.182l2.018,-1.134Z" style="fill:#22aecf;"/><path d="M25.825,10.668l2.046,0.461l0.54,-1.324l0.89,0.847l1.696,-1.711l-0.432,1.996l1.547,-0.298l-0.93,1.236l2.046,0.462l-2.313,0.772l0.416,1.14l-1.465,-0.083l-0.432,1.996l-0.997,-1.519l-1.29,1.003l0.025,-1.288l-2.313,0.773l1.697,-1.711l-1.214,-0.521l1.481,-0.713l-0.998,-1.518Z" style="fill:#22aecf;"/></g></svg>