<?xml version="1.0" encoding="UTF-8" standalone="no"?><!DOCTYPE svg PUBLIC "-//W3C//DTD SVG 1.1//EN" "http://www.w3.org/Graphics/SVG/1.1/DTD/svg11.dtd"><svg width="100%" height="100%" viewBox="0 0 66 65" version="1.1" xmlns="http://www.w3.org/2000/svg" xmlns:xlink="http://www.w3.org/1999/xlink" xml:space="preserve" xmlns:serif="http://www.serif.com/" style="fill-rule:evenodd;clip-rule:evenodd;stroke-linejoin:round;stroke-miterlimit:1.41421;"><g id="hedge02"><g><path d="M43.847,32.758l-21.466,10.733l0,-21.466l21.466,-10.733l0,21.466" style="fill:#9bffe5;"/><path d="M0.914,11.292l21.467,10.733l0,21.466l-21.467,-10.733l0,-21.466" style="fill:#22aecf;"/><path d="M37.26,16.562l1.244,1.997l0.81,-1.708l0.325,1.867l1.728,-1.579l-0.959,2.813l1.156,0.51l-1.048,1.327l1.244,1.996l-1.837,-0.258l-0.095,2.023l-0.973,-1.047l-0.959,2.812l-0.176,-2.972l-1.215,0.741l0.447,-1.974l-1.837,-0.258l1.728,-1.579l-0.656,-1.566l1.249,-0.173l-0.176,-2.972Z" style="fill:#22aecf;"/><path d="M30.647,22.86l0.712,3.8l2.172,-2.123l-0.578,3.05l3.461,-1.373l-3.021,3.721l1.426,1.476l-2.308,1.397l0.712,3.799l-2.579,-1.5l-1.29,3.035l-0.849,-2.187l-3.02,3.721l1.427,-4.648l-2.223,0.4l1.783,-2.748l-2.579,-1.5l3.46,-1.372l-0.083,-2.788l1.95,0.488l1.427,-4.648Z" style="fill:#22aecf;"/><path d="M5.552,16.751l2.157,2.302l1.166,-0.774l0.672,1.619l2.652,-0.091l-1.319,1.513l1.899,1.123l-1.579,0.334l2.158,2.302l-2.973,-1.367l0.007,1.468l-1.646,-1.412l-1.32,1.513l-0.518,-2.358l-1.894,-0.216l0.561,-1.206l-2.973,-1.367l2.653,-0.09l-1.178,-1.602l1.993,0.667l-0.518,-2.358Z" style="fill:#98cfdf;"/><path d="M20.965,25.133l-1.804,3.965l1.42,0.393l-1.633,2.016l1.248,2.343l-2.363,0.108l-0.517,2.706l-1.075,-1.151l-1.804,3.965l0.344,-3.898l-1.739,1.279l0.968,-2.727l-2.362,0.108l2.575,-2.517l-0.558,-1.916l1.673,-0.535l0.344,-3.898l1.248,2.343l1.394,-2.464l0.066,2.397l2.575,-2.517Z" style="fill:#98cfdf;"/><path d="M6.142,27.36l0.342,1.809l0.658,-0.154l-0.105,1.068l1.106,0.586l-0.895,0.532l0.513,1.086l-0.724,-0.191l0.342,1.809l-0.895,-1.481l-0.342,0.826l-0.342,-1.188l-0.894,0.532l0.342,-1.446l-0.724,-0.576l0.512,-0.542l-0.894,-1.481l1.106,0.586l-0.106,-1.181l0.658,0.853l0.342,-1.447Z" style="fill:#98cfdf;"/></g><g><g><path d="M22.381,0.558l42.932,21.467l-42.932,21.466l-21.467,-10.733l21.467,-10.733l-21.467,-10.733l21.467,-10.734Z" style="fill:#98cfdf;"/><path d="M23.181,4.54l0.914,1.299l2.014,-0.236l-0.395,0.823l3.323,0.239l-2.758,0.563l1.484,0.724l-2.189,-0.013l0.915,1.299l-2.619,-0.951l-1.097,0.683l-0.957,-0.831l-2.758,0.563l1.14,-1.15l-2.162,-0.301l1.597,-0.502l-2.619,-0.95l3.323,0.239l-0.239,-0.868l1.944,0.521l1.139,-1.151Z" style="fill:#22aecf;"/><path d="M17.36,8.781l-0.503,1.878l1.849,0.251l-1.105,0.926l2.45,1.204l-2.761,-0.044l0.505,1.311l-1.752,-0.61l-0.503,1.877l-1.204,-1.904l-1.536,0.558l0.022,-1.302l-2.762,-0.044l2.018,-1.133l-1.455,-0.966l1.766,-0.195l-1.203,-1.904l2.45,1.204l0.637,-1.155l1.07,1.182l2.017,-1.134Z" style="fill:#22aecf;"/><path d="M26.462,11.017l2.046,0.461l0.54,-1.324l0.889,0.847l1.697,-1.711l-0.432,1.996l1.547,-0.298l-0.931,1.236l2.046,0.462l-2.313,0.772l0.417,1.14l-1.465,-0.083l-0.432,1.996l-0.998,-1.519l-1.29,1.003l0.026,-1.288l-2.313,0.772l1.696,-1.71l-1.213,-0.521l1.48,-0.713l-0.997,-1.518Z" style="fill:#22aecf;"/><path d="M44.648,15.273l0.914,1.299l2.013,-0.236l-0.395,0.823l3.323,0.24l-2.758,0.563l1.484,0.723l-2.188,-0.013l0.914,1.299l-2.619,-0.951l-1.096,0.683l-0.958,-0.831l-2.758,0.563l1.14,-1.15l-2.162,-0.301l1.597,-0.501l-2.619,-0.951l3.323,0.24l-0.239,-0.869l1.944,0.521l1.14,-1.151Z" style="fill:#22aecf;"/><path d="M38.827,19.515l0.12,1.527l1.225,0.602l-0.252,0.938l1.597,1.191l-2.004,0.328l-0.251,0.939l-1.381,-0.022l-0.875,1.289l-1.359,-1.324l-1.381,-0.022l-0.601,-0.952l-2.138,-0.394l1.164,-1.147l-0.602,-0.952l1.009,-0.566l-0.446,-1.533l2.078,0.616l1.009,-0.567l1.225,0.602l1.863,-0.553Z" style="fill:#22aecf;"/><path d="M47.928,21.75l2.046,0.461l0.54,-1.324l0.889,0.847l1.697,-1.711l-0.432,1.996l1.547,-0.298l-0.93,1.236l2.046,0.462l-2.313,0.772l0.416,1.14l-1.465,-0.083l-0.432,1.996l-0.997,-1.519l-1.29,1.003l0.025,-1.288l-2.313,0.773l1.696,-1.711l-1.213,-0.521l1.48,-0.713l-0.997,-1.518Z" style="fill:#22aecf;"/><path d="M25.392,24.728l1.266,0.943l1.662,0.119l0.457,0.649l2.471,0.414l-1.732,0.637l0.457,0.649l-1.379,0.281l0.105,1.005l-2.336,-0.549l-1.379,0.281l-1.309,-0.475l-2.406,0.208l0.287,-0.977l-1.309,-0.475l0.57,-0.575l-1.592,-0.877l2.514,-0.054l0.57,-0.575l1.661,0.12l1.422,-0.749Z" style="fill:#22aecf;"/><path d="M20.19,31.624l1.299,1.45l-0.099,1.264l2.201,1.082l1.299,1.45l-1.459,0.596l-2.262,-0.3l-0.099,1.265l-1.459,0.596l-2.201,-1.081l-1.299,-1.45l-2.262,-0.3l-2.201,-1.081l0.098,-1.265l1.46,-0.596l-1.3,-1.45l0.099,-1.265l2.262,0.3l2.201,1.081l1.46,-0.596l2.262,0.3Z" style="fill:#22aecf;"/><path d="M28.672,31.204l2.046,0.462l0.435,-1.981l0.995,1.503l1.696,-1.71l-0.432,1.995l2.297,-0.761l-1.68,1.7l2.046,0.461l-2.313,0.772l0.985,1.51l-2.033,-0.453l-0.432,1.996l-0.998,-1.518l-1.687,1.695l0.423,-1.98l-2.313,0.772l1.696,-1.711l-2.028,-0.462l2.295,-0.771l-0.998,-1.519Z" style="fill:#22aecf;"/></g><g><path d="M65.313,43.491l-42.932,21.466l0,-21.466l42.932,-21.466l0,21.466" style="fill:#9bffe5;"/><path d="M58.726,27.296l1.244,1.996l0.81,-1.708l0.325,1.867l1.728,-1.579l-0.959,2.813l1.156,0.51l-1.047,1.327l1.243,1.996l-1.836,-0.258l-0.096,2.023l-0.972,-1.047l-0.96,2.813l-0.175,-2.973l-1.215,0.741l0.446,-1.974l-1.837,-0.258l1.728,-1.579l-0.655,-1.566l1.248,-0.172l-0.176,-2.972Z" style="fill:#22aecf;"/><path d="M26.375,43.419l1.59,2.679l0.972,-2.165l0.445,2.449l2.117,-1.934l-1.134,3.59l1.45,0.742l-1.276,1.653l1.591,2.68l-2.292,-0.46l-0.075,2.623l-1.233,-1.428l-1.135,3.591l-0.282,-3.875l-1.496,0.879l0.513,-2.535l-2.292,-0.46l2.118,-1.935l-0.85,-2.08l1.551,-0.139l-0.282,-3.875Z" style="fill:#22aecf;"/><path d="M52.114,33.593l0.712,3.8l2.171,-2.123l-0.577,3.05l3.46,-1.373l-3.02,3.721l1.425,1.476l-2.307,1.397l0.712,3.799l-2.579,-1.5l-1.291,3.035l-0.848,-2.186l-3.021,3.72l1.427,-4.647l-2.223,0.399l1.783,-2.748l-2.579,-1.5l3.461,-1.372l-0.084,-2.788l1.951,0.488l1.427,-4.648Z" style="fill:#22aecf;"/><path d="M38.502,54.382l-1.069,-1.278l-0.939,1.542l-0.171,-1.396l-1.836,1.661l1.175,-2.451l-1.102,-0.126l1.142,-1.298l-1.069,-1.278l1.796,-0.236l0.257,-1.62l0.877,0.594l1.176,-2.451l-0.066,2.304l1.261,-0.875l-0.6,1.665l1.796,-0.236l-1.836,1.66l0.522,1.079l-1.249,0.436l-0.065,2.304Z" style="fill:#22aecf;"/><path d="M39.438,44.964l-0.652,-1.63l-0.026,-1.264l-1.215,0.723l-1.929,0.505l1.572,-2.027l1.153,-0.99l-0.487,-0.931l-0.191,-1.963l1.623,0.377l0.739,0.652l0.914,-1.298l1.811,-1.719l-0.569,2.26l-0.696,1.393l1.052,0.129l1.31,0.901l-1.975,1.02l-1.169,0.208l-0.264,1.378l-1.001,2.276Z" style="fill:#22aecf;"/></g><g><path d="M0.914,32.758l21.467,10.733l0,21.466l-21.467,-10.733l0,-21.466" style="fill:#22aecf;"/><path d="M5.552,38.217l2.157,2.302l1.166,-0.774l0.672,1.619l2.652,-0.09l-1.319,1.512l1.899,1.123l-1.579,0.334l2.158,2.302l-2.973,-1.367l0.007,1.468l-1.646,-1.412l-1.32,1.513l-0.518,-2.358l-1.894,-0.216l0.561,-1.206l-2.973,-1.367l2.653,-0.09l-1.178,-1.601l1.993,0.666l-0.518,-2.358Z" style="fill:#98cfdf;"/><path d="M20.965,46.599l-1.804,3.965l1.42,0.394l-1.633,2.015l1.248,2.343l-2.363,0.108l-0.517,2.706l-1.075,-1.15l-1.804,3.965l0.344,-3.899l-1.739,1.279l0.968,-2.727l-2.362,0.108l2.575,-2.517l-0.558,-1.916l1.673,-0.534l0.344,-3.899l1.248,2.343l1.394,-2.463l0.066,2.396l2.575,-2.517Z" style="fill:#98cfdf;"/><path d="M6.142,48.826l0.342,1.809l0.658,-0.154l-0.105,1.069l1.106,0.586l-0.895,0.532l0.513,1.085l-0.724,-0.191l0.342,1.809l-0.895,-1.48l-0.342,0.825l-0.342,-1.187l-0.894,0.532l0.342,-1.447l-0.724,-0.576l0.512,-0.542l-0.894,-1.48l1.106,0.586l-0.106,-1.181l0.658,0.852l0.342,-1.447Z" style="fill:#98cfdf;"/></g></g></g></svg>