<?xml version="1.0" encoding="UTF-8" standalone="no"?><!DOCTYPE svg PUBLIC "-//W3C//DTD SVG 1.1//EN" "http://www.w3.org/Graphics/SVG/1.1/DTD/svg11.dtd"><svg width="100%" height="100%" viewBox="0 0 32 33" version="1.1" xmlns="http://www.w3.org/2000/svg" xmlns:xlink="http://www.w3.org/1999/xlink" xml:space="preserve" xmlns:serif="http://www.serif.com/" style="fill-rule:evenodd;clip-rule:evenodd;stroke-linejoin:round;stroke-miterlimit:1.41421;"><g id="mushroom01"><path d="M30.199,21.877l-6.741,-0.941l-8.944,1.491l-9.749,-0.764l-2.177,-5.199l1.379,-3.327l13.528,-4.127l12.704,12.867Z" style="fill:#655e6d;"/><path d="M13.141,12.815l-2.981,16.398l5.963,2.982l0,-18.846l-2.982,-0.534Z" style="fill:#22aecf;"/><path d="M19.104,12.815l0.728,14.544l-3.709,4.836l0,-19.737l2.981,0.357Z" style="fill:#8efaf0;"/><path d="M19.104,0.89l8.945,4.472l2.981,4.472l-0.673,12.028l-5.29,-6.065l-5.963,-14.907Z" style="fill:#757ee4;"/><path d="M30.258,21.88l-7.276,-6.107l-6.859,-1.467l-4.476,1.388l-6.881,5.993l6.48,-14.408l7.858,-6.389l11.154,20.99Z" style="fill:#519dc7;"/><path d="M2.656,8.606l-2.109,6.896l4.187,6.169l5.426,-7.365l2.262,-6.961l6.682,-6.455l-11.925,2.981l-4.523,4.735Z" style="fill:#385be5;"/></g></svg>