<?xml version="1.0" encoding="UTF-8" standalone="no"?><!DOCTYPE svg PUBLIC "-//W3C//DTD SVG 1.1//EN" "http://www.w3.org/Graphics/SVG/1.1/DTD/svg11.dtd"><svg width="100%" height="100%" viewBox="0 0 92 68" version="1.1" xmlns="http://www.w3.org/2000/svg" xmlns:xlink="http://www.w3.org/1999/xlink" xml:space="preserve" xmlns:serif="http://www.serif.com/" style="fill-rule:evenodd;clip-rule:evenodd;stroke-linejoin:round;stroke-miterlimit:1.41421;"><g id="rock-runes13"><path d="M42.943,0.143l26.833,8.05l-10.733,26.833l-32.2,5.367l-10.733,-26.833l26.833,-13.417Z" style="fill:#8efaf0;"/><path d="M69.776,8.193l21.466,21.466l0,21.467l-32.199,-16.1l10.733,-26.833" style="fill:#aadadf;"/><path d="M59.043,35.026l32.199,16.1l-32.199,16.099l-42.933,0l10.733,-26.832l32.2,-5.367Z" style="fill:#0098a3;"/><path d="M16.11,13.56l10.733,26.833l-10.733,26.832l-16.1,-34.882l16.1,-18.783Z" style="fill:#007e9b;"/><path d="M80.509,56.126l-10.733,-10.733l10.733,-5.367l0,-16.1l-10.733,-5.366l-10.733,5.366l0,-5.366l-5.367,-2.684l2.416,4.159l0.932,7.337l12.752,-4.487l6.969,2.923l-1.603,11.535l-13.198,6.599l13.198,15.058l5.367,-2.874" style="fill:#402d1d;fill-opacity:0.5;"/><path d="M59.043,66.859l-7.665,-6.901l-29.901,-6.516l-5.367,-18.783l7.076,-3.538l9.024,6.222l16.1,-8.05l-4.58,-19.177l-13.164,4.938l-1.235,7.629l3.735,-3.477l8.045,-4.245l1.832,12.77l-10.733,2.781l-10.733,-3.902l-9.489,10.11l6.038,18.448l1.106,4.813l2.727,-0.981l27.383,2.958l-0.932,4.901l10.733,0Z" style="fill:#1d073c;fill-opacity:0.5;"/></g></svg>