<?xml version="1.0" encoding="UTF-8" standalone="no"?><!DOCTYPE svg PUBLIC "-//W3C//DTD SVG 1.1//EN" "http://www.w3.org/Graphics/SVG/1.1/DTD/svg11.dtd"><svg width="100%" height="100%" viewBox="0 0 76 53" version="1.1" xmlns="http://www.w3.org/2000/svg" xmlns:xlink="http://www.w3.org/1999/xlink" xml:space="preserve" xmlns:serif="http://www.serif.com/" style="fill-rule:evenodd;clip-rule:evenodd;stroke-linejoin:round;stroke-miterlimit:1.41421;"><g id="rock-runes-highlights04"><g id="rock-highlights04"><g><g><g><g><path d="M5.615,20.435l16.099,-8.05l32.2,0l16.1,8.05l-21.467,16.1l-21.466,0c0,0 -22.082,-9.395 -21.466,-9.395c0.616,0 0,-6.705 0,-6.705" style="fill:#aadadf;"/><path d="M5.615,20.435l-5.367,2.683l0,10.733l7.312,-5.891l-1.945,-7.525Z" style="fill:#007e9b;"/><clipPath id="_clip1"><path d="M5.615,20.435l-5.367,2.683l0,10.733l7.312,-5.891l-1.945,-7.525Z"/></clipPath><g clip-path="url(#_clip1)"><path d="M75.38,39.218l-7.304,-16.802l-17.714,15.827l1.814,12.577l-4.216,2.108l-1.121,-14.308l1.708,-0.969l0,13.961l0,-13.616l-21.466,0.03l1.931,10.207l-4.725,-2.362l2.794,-9.336l-19.549,-6.326l-7.284,3.642l5.367,-6.478l0,-6.938l14.684,10.841l26.684,1.793l4.488,-3.363l-13.657,-7.922l-13.246,8.127l9.02,-10.448l-13.921,-9.492l17.368,4.708l7.463,-13.685l2.485,0.013l1.564,12.445l9.281,6.257l12.186,0.726l5.366,18.783Z" style="fill:#aadadf;"/></g><path d="M7.469,27.946l-7.221,5.905l26.833,13.417l0,-10.733l-19.612,-8.589" style="fill:#007e9b;"/><clipPath id="_clip2"><path d="M7.469,27.946l-7.221,5.905l26.833,13.417l0,-10.733l-19.612,-8.589"/></clipPath><g clip-path="url(#_clip2)"><path d="M75.38,39.218l-7.304,-16.802l-17.714,15.827l1.814,12.577l-4.216,2.108l-1.121,-14.308l1.708,-0.969l0,13.961l0,-13.616l-21.466,0.03l1.931,10.207l-4.725,-2.362l2.794,-9.336l-19.549,-6.326l-7.284,3.642l5.367,-6.478l0,-6.938l14.684,10.841l26.684,1.793l4.488,-3.363l-13.657,-7.922l-13.246,8.127l9.02,-10.448l-13.921,-9.492l17.368,4.708l7.463,-13.685l2.485,0.013l1.564,12.445l9.281,6.257l12.186,0.726l5.366,18.783Z" style="fill:#aadadf;"/></g><path d="M27.081,36.535l0,10.733l21.466,5.366l0,-16.099l-21.466,0" style="fill:#0098a3;"/><clipPath id="_clip3"><path d="M27.081,36.535l0,10.733l21.466,5.366l0,-16.099l-21.466,0"/></clipPath><g clip-path="url(#_clip3)"><path d="M75.38,39.218l-7.304,-16.802l-17.714,15.827l1.814,12.577l-4.216,2.108l-1.121,-14.308l1.708,-0.969l0,13.961l0,-13.616l-21.466,0.03l1.931,10.207l-4.725,-2.362l2.794,-9.336l-19.549,-6.326l-7.284,3.642l5.367,-6.478l0,-6.938l14.684,10.841l26.684,1.793l4.488,-3.363l-13.657,-7.922l-13.246,8.127l9.02,-10.448l-13.921,-9.492l17.368,4.708l7.463,-13.685l2.485,0.013l1.564,12.445l9.281,6.257l12.186,0.726l5.366,18.783Z" style="fill:#aadadf;"/></g><path d="M70.014,20.435l-21.467,16.1l0,16.099l26.833,-13.416l-5.366,-18.783Z" style="fill:#8efaf0;"/><clipPath id="_clip4"><path d="M70.014,20.435l-21.467,16.1l0,16.099l26.833,-13.416l-5.366,-18.783Z"/></clipPath><g clip-path="url(#_clip4)"><path d="M75.38,39.218l-7.304,-16.802l-17.714,15.827l1.814,12.577l-4.216,2.108l-1.121,-14.308l1.708,-0.969l0,13.961l0,-13.616l-21.466,0.03l1.931,10.207l-4.725,-2.362l2.794,-9.336l-19.549,-6.326l-7.284,3.642l5.367,-6.478l0,-6.938l14.684,10.841l26.684,1.793l4.488,-3.363l-13.657,-7.922l-13.246,8.127l9.02,-10.448l-13.921,-9.492l17.368,4.708l7.463,-13.685l2.485,0.013l1.564,12.445l9.281,6.257l12.186,0.726l5.366,18.783Z" style="fill:#aadadf;"/></g></g></g><g><g><path d="M28.552,0.718l18.154,0l-9.077,18.153l-18.154,-9.077l9.077,-9.076Z" style="fill:#8efaf0;"/><clipPath id="_clip5"><path d="M28.552,0.718l18.154,0l-9.077,18.153l-18.154,-9.077l9.077,-9.076Z"/></clipPath><g clip-path="url(#_clip5)"><path d="M75.38,39.218l-7.304,-16.802l-17.714,15.827l1.814,12.577l-4.216,2.108l-1.121,-14.308l1.708,-0.969l0,13.961l0,-13.616l-21.466,0.03l1.931,10.207l-4.725,-2.362l2.794,-9.336l-19.549,-6.326l-7.284,3.642l5.367,-6.478l0,-6.938l14.684,10.841l26.684,1.793l4.488,-3.363l-13.657,-7.922l-13.246,8.127l9.02,-10.448l-13.921,-9.492l17.368,4.708l7.463,-13.685l2.485,0.013l1.564,12.445l9.281,6.257l12.186,0.726l5.366,18.783Z" style="fill:#aadadf;"/></g><path d="M46.706,0.718l4.538,11.346l0,18.153l-13.615,-11.346l9.077,-18.153Z" style="fill:#aadadf;"/><path d="M51.244,30.217l-27.23,0l13.615,-11.346l13.615,11.346Z" style="fill:#0098a3;"/><clipPath id="_clip6"><path d="M51.244,30.217l-27.23,0l13.615,-11.346l13.615,11.346Z"/></clipPath><g clip-path="url(#_clip6)"><path d="M75.38,39.218l-7.304,-16.802l-17.714,15.827l1.814,12.577l-4.216,2.108l-1.121,-14.308l1.708,-0.969l0,13.961l0,-13.616l-21.466,0.03l1.931,10.207l-4.725,-2.362l2.794,-9.336l-19.549,-6.326l-7.284,3.642l5.367,-6.478l0,-6.938l14.684,10.841l26.684,1.793l4.488,-3.363l-13.657,-7.922l-13.246,8.127l9.02,-10.448l-13.921,-9.492l17.368,4.708l7.463,-13.685l2.485,0.013l1.564,12.445l9.281,6.257l12.186,0.726l5.366,18.783Z" style="fill:#aadadf;"/></g><path d="M24.014,30.217l-13.616,-6.807l9.077,-13.616l18.154,9.077l-13.615,11.346Z" style="fill:#007e9b;"/><clipPath id="_clip7"><path d="M24.014,30.217l-13.616,-6.807l9.077,-13.616l18.154,9.077l-13.615,11.346Z"/></clipPath><g clip-path="url(#_clip7)"><path d="M75.38,39.218l-7.304,-16.802l-17.714,15.827l1.814,12.577l-4.216,2.108l-1.121,-14.308l1.708,-0.969l0,13.961l0,-13.616l-21.466,0.03l1.931,10.207l-4.725,-2.362l2.794,-9.336l-19.549,-6.326l-7.284,3.642l5.367,-6.478l0,-6.938l14.684,10.841l26.684,1.793l4.488,-3.363l-13.657,-7.922l-13.246,8.127l9.02,-10.448l-13.921,-9.492l17.368,4.708l7.463,-13.685l2.485,0.013l1.564,12.445l9.281,6.257l12.186,0.726l5.366,18.783Z" style="fill:#aadadf;"/></g></g></g></g></g></g><path d="M75.38,38.89l-6.161,-10.423l-7.968,5.097l4.788,-10.078l-12.125,-6.063l0,10.733l2.53,-1.264l0.265,-5.5l6.552,3.917l-5.356,10.21l-9.358,6.054l-10.733,-1.836l-4.862,4.771l-5.871,-5.058l-6.172,1.795l-15.294,-11.199l0,-9.332l-3.944,1.365l1.766,9.849l17.347,11.863l6.297,-0.536l7.538,3.804l3.195,-4.738l3.84,5.312l2.336,1.585l-0.809,-1.944l-2.316,-3.445l7.682,-0.359l20.057,-11.926l3.834,8.817l2.942,-1.471Z" style="fill:#12365f;fill-opacity:0.65;"/><path d="M50.902,29.662l-2.355,-18.279l-8.831,8.973l1.93,1.667l5.716,-6.69l0.466,11.986l-7.323,-0.501l-2.691,-3.448l0,-4.522l3.209,-13.237l-6.906,-1.12l-7.036,4.882l-3.66,2.512l-1.707,10.905l3.338,3.698l1.234,-0.617l-1.07,-2.644l-0.431,-1.077l0.646,-9.475l8.765,-5.111l3.618,0.947l-2.118,9.619l-4.235,2.728l1.803,1.524l3.015,-1.508l0.005,3.834l2.284,2.969l12.334,1.985Z" style="fill:#12365f;fill-opacity:0.65;"/></g></svg>