<?xml version="1.0" encoding="UTF-8" standalone="no"?><!DOCTYPE svg PUBLIC "-//W3C//DTD SVG 1.1//EN" "http://www.w3.org/Graphics/SVG/1.1/DTD/svg11.dtd"><svg width="100%" height="100%" viewBox="0 0 55 60" version="1.1" xmlns="http://www.w3.org/2000/svg" xmlns:xlink="http://www.w3.org/1999/xlink" xml:space="preserve" xmlns:serif="http://www.serif.com/" style="fill-rule:evenodd;clip-rule:evenodd;stroke-linejoin:round;stroke-miterlimit:1.41421;"><g id="rock-runes-highlights11"><g id="rock-highlights11"><g><g><path d="M32.846,9.497l21.467,28.123l-10.733,16.099l-14.221,-46.555l3.487,2.333Z" style="fill:#aadadf;"/><clipPath id="_clip1"><path d="M32.846,9.497l21.467,28.123l-10.733,16.099l-14.221,-46.555l3.487,2.333Z"/></clipPath><g clip-path="url(#_clip1)"><path d="M43.58,53.719l-14.412,-41.093l-4.956,0.53l-2.099,45.93l-3.255,-46.671l-6.511,-5.034l-11.7,46.338l10.733,-48.299l19.476,3.069l12.724,45.23" style="fill:#aadadf;"/></g><path d="M29.753,6.967l-7.64,3.82l0,48.299l21.467,-5.367l-13.827,-46.752Z" style="fill:#8efaf0;"/><clipPath id="_clip2"><path d="M29.753,6.967l-7.64,3.82l0,48.299l21.467,-5.367l-13.827,-46.752Z"/></clipPath><g clip-path="url(#_clip2)"><path d="M43.58,53.719l-14.412,-41.093l-4.956,0.53l-2.099,45.93l-3.255,-46.671l-6.511,-5.034l-11.7,46.338l10.733,-48.299l19.476,3.069l12.724,45.23" style="fill:#aadadf;"/></g><path d="M32.846,9.502l-10.733,-9.448l-10.733,5.366l10.733,5.367l10.733,-1.285Z" style="fill:#aadadf;"/><clipPath id="_clip3"><path d="M32.846,9.502l-10.733,-9.448l-10.733,5.366l10.733,5.367l10.733,-1.285Z"/></clipPath><g clip-path="url(#_clip3)"><path d="M43.58,53.719l-14.412,-41.093l-4.956,0.53l-2.099,45.93l-3.255,-46.671l-6.511,-5.034l-11.7,46.338l10.733,-48.299l19.476,3.069l12.724,45.23" style="fill:#aadadf;"/></g><path d="M11.38,5.42l10.733,5.367l0,48.299l-21.466,-5.367l10.733,-48.299Z" style="fill:#0098a3;"/><clipPath id="_clip4"><path d="M11.38,5.42l10.733,5.367l0,48.299l-21.466,-5.367l10.733,-48.299Z"/></clipPath><g clip-path="url(#_clip4)"><path d="M43.58,53.719l-14.412,-41.093l-4.956,0.53l-2.099,45.93l-3.255,-46.671l-6.511,-5.034l-11.7,46.338l10.733,-48.299l19.476,3.069l12.724,45.23" style="fill:#aadadf;"/></g></g></g></g><path d="M48.946,45.341l-5.366,-13.416l3.719,16.047l-3.719,5.419l-6.12,-3.06l-3.201,-6.967l1.644,-11.813l-9.152,-9.332l0.729,-11.485l-1.839,-2.039l-7.64,-0.292l-2.122,5.173l-6.098,17.549l-2.45,18.924l6.985,7.241l4,1.09l-4.531,-6.191l-2.405,-4.164l1.559,-15.321l5.018,3.962l0.415,9.488l-1.625,1.549l3.671,-0.526l0.231,-12.485l-3.902,-5.45l-0.943,-8.727l2.871,-4.397l1.444,-6.657l4.837,0.914l-0.34,14.932l9.485,7.245l-8.257,13.607l7.002,-7.788l0,6.55l2.998,6.971l5.377,2.678l2.359,-0.317l5.366,-8.912Z" style="fill:#12365f;fill-opacity:0.65;"/></g></svg>