<?xml version="1.0" encoding="UTF-8" standalone="no"?><!DOCTYPE svg PUBLIC "-//W3C//DTD SVG 1.1//EN" "http://www.w3.org/Graphics/SVG/1.1/DTD/svg11.dtd"><svg width="100%" height="100%" viewBox="0 0 73 54" version="1.1" xmlns="http://www.w3.org/2000/svg" xmlns:xlink="http://www.w3.org/1999/xlink" xml:space="preserve" xmlns:serif="http://www.serif.com/" style="fill-rule:evenodd;clip-rule:evenodd;stroke-linejoin:round;stroke-miterlimit:1.41421;"><g id="rock-runes-mossy03"><g id="rock-mossy03"><g id="rock-runes-highlights03"><g id="rock-highlights03"><g><g><g><path d="M68.29,19.15l0,10.733l-10.733,10.733l-37.566,-13.417l16.099,-13.416l32.2,5.367Z" style="fill:#aadadf;"/><clipPath id="_clip1"><path d="M68.29,19.15l0,10.733l-10.733,10.733l-37.566,-13.417l16.099,-13.416l32.2,5.367Z"/></clipPath><g clip-path="url(#_clip1)"><path d="M66.567,39.754l-0.111,-6.19l-8.899,7.052l1.881,4.426l-1.881,0.94l-1.967,-4.383l-21.126,-7.163l-9.107,2.165l-2.707,11.947l-2.659,0.118l-2.51,-1.255l5.709,-11.755l-8.566,-11.14l16.1,2.683l5.366,-2.683l5.367,-24.149l-3.833,24.916l12.122,6.061l0.808,-14.06l-9.097,-15.782l11.5,12.959l1.013,17.215l7.29,-3.645l-0.176,-16.012l1.296,-0.648l2.186,18.21l3.724,0.302l-1.723,9.871Z" style="fill:#aadadf;"/></g><path d="M52.19,0.367l10.733,10.733l-10.733,5.366l-10.733,-16.099l10.733,0Z" style="fill:#aadadf;"/><path d="M62.923,11.1l0,16.099l-10.733,5.367l0,-16.1l10.733,-5.366Z" style="fill:#8efaf0;"/><clipPath id="_clip2"><path d="M62.923,11.1l0,16.099l-10.733,5.367l0,-16.1l10.733,-5.366Z"/></clipPath><g clip-path="url(#_clip2)"><path d="M66.567,39.754l-0.111,-6.19l-8.899,7.052l1.881,4.426l-1.881,0.94l-1.967,-4.383l-21.126,-7.163l-9.107,2.165l-2.707,11.947l-2.659,0.118l-2.51,-1.255l5.709,-11.755l-8.566,-11.14l16.1,2.683l5.366,-2.683l5.367,-24.149l-3.833,24.916l12.122,6.061l0.808,-14.06l-9.097,-15.782l11.5,12.959l1.013,17.215l7.29,-3.645l-0.176,-16.012l1.296,-0.648l2.186,18.21l3.724,0.302l-1.723,9.871Z" style="fill:#aadadf;"/></g><path d="M41.457,0.367l-5.367,24.149l16.1,8.05l0,-16.1l-10.733,-16.099Z" style="fill:#0098a3;"/><clipPath id="_clip3"><path d="M41.457,0.367l-5.367,24.149l16.1,8.05l0,-16.1l-10.733,-16.099Z"/></clipPath><g clip-path="url(#_clip3)"><path d="M66.567,39.754l-0.111,-6.19l-8.899,7.052l1.881,4.426l-1.881,0.94l-1.967,-4.383l-21.126,-7.163l-9.107,2.165l-2.707,11.947l-2.659,0.118l-2.51,-1.255l5.709,-11.755l-8.566,-11.14l16.1,2.683l5.366,-2.683l5.367,-24.149l-3.833,24.916l12.122,6.061l0.808,-14.06l-9.097,-15.782l11.5,12.959l1.013,17.215l7.29,-3.645l-0.176,-16.012l1.296,-0.648l2.186,18.21l3.724,0.302l-1.723,9.871Z" style="fill:#aadadf;"/></g><path d="M68.29,29.883l-1.879,9.794l-8.854,6.305l0,-5.366l10.733,-10.733Z" style="fill:#8efaf0;"/><clipPath id="_clip4"><path d="M68.29,29.883l-1.879,9.794l-8.854,6.305l0,-5.366l10.733,-10.733Z"/></clipPath><g clip-path="url(#_clip4)"><path d="M66.567,39.754l-0.111,-6.19l-8.899,7.052l1.881,4.426l-1.881,0.94l-1.967,-4.383l-21.126,-7.163l-9.107,2.165l-2.707,11.947l-2.659,0.118l-2.51,-1.255l5.709,-11.755l-8.566,-11.14l16.1,2.683l5.366,-2.683l5.367,-24.149l-3.833,24.916l12.122,6.061l0.808,-14.06l-9.097,-15.782l11.5,12.959l1.013,17.215l7.29,-3.645l-0.176,-16.012l1.296,-0.648l2.186,18.21l3.724,0.302l-1.723,9.871Z" style="fill:#aadadf;"/></g><path d="M57.557,40.616l0,5.366l-42.933,0l5.367,-18.783l37.566,13.417Z" style="fill:#0098a3;"/><clipPath id="_clip5"><path d="M57.557,40.616l0,5.366l-42.933,0l5.367,-18.783l37.566,13.417Z"/></clipPath><g clip-path="url(#_clip5)"><path d="M66.567,39.754l-0.111,-6.19l-8.899,7.052l1.881,4.426l-1.881,0.94l-1.967,-4.383l-21.126,-7.163l-9.107,2.165l-2.707,11.947l-2.659,0.118l-2.51,-1.255l5.709,-11.755l-8.566,-11.14l16.1,2.683l5.366,-2.683l5.367,-24.149l-3.833,24.916l12.122,6.061l0.808,-14.06l-9.097,-15.782l11.5,12.959l1.013,17.215l7.29,-3.645l-0.176,-16.012l1.296,-0.648l2.186,18.21l3.724,0.302l-1.723,9.871Z" style="fill:#aadadf;"/></g><path d="M14.624,24.516l16.1,2.683l3.705,4.764l-9.072,3.286l-10.733,-10.733Z" style="fill:#aadadf;"/><path d="M34.438,31.979l-1,15.329l-13.447,1.358l5.366,-13.417l9.081,-3.27Z" style="fill:#8efaf0;"/><clipPath id="_clip6"><path d="M34.438,31.979l-1,15.329l-13.447,1.358l5.366,-13.417l9.081,-3.27Z"/></clipPath><g clip-path="url(#_clip6)"><path d="M66.567,39.754l-0.111,-6.19l-8.899,7.052l1.881,4.426l-1.881,0.94l-1.967,-4.383l-21.126,-7.163l-9.107,2.165l-2.707,11.947l-2.659,0.118l-2.51,-1.255l5.709,-11.755l-8.566,-11.14l16.1,2.683l5.366,-2.683l5.367,-24.149l-3.833,24.916l12.122,6.061l0.808,-14.06l-9.097,-15.782l11.5,12.959l1.013,17.215l7.29,-3.645l-0.176,-16.012l1.296,-0.648l2.186,18.21l3.724,0.302l-1.723,9.871Z" style="fill:#aadadf;"/></g><path d="M14.624,24.516l-10.733,16.1l16.1,8.05l5.366,-13.417l-10.733,-10.733Z" style="fill:#0098a3;"/><clipPath id="_clip7"><path d="M14.624,24.516l-10.733,16.1l16.1,8.05l5.366,-13.417l-10.733,-10.733Z"/></clipPath><g clip-path="url(#_clip7)"><path d="M66.567,39.754l-0.111,-6.19l-8.899,7.052l1.881,4.426l-1.881,0.94l-1.967,-4.383l-21.126,-7.163l-9.107,2.165l-2.707,11.947l-2.659,0.118l-2.51,-1.255l5.709,-11.755l-8.566,-11.14l16.1,2.683l5.366,-2.683l5.367,-24.149l-3.833,24.916l12.122,6.061l0.808,-14.06l-9.097,-15.782l11.5,12.959l1.013,17.215l7.29,-3.645l-0.176,-16.012l1.296,-0.648l2.186,18.21l3.724,0.302l-1.723,9.871Z" style="fill:#aadadf;"/></g></g></g></g></g><path d="M67.415,34.483l-4.492,3.121l-2.607,4.063l-2.759,1.24l-16.1,-6.273l-7.271,2.701l-0.683,6.316l-3.626,-7.007l-3.725,-0.49l0.164,2.613l3.169,0.082l1.239,3.528l-9.129,0l-1.604,-9.36l-6.188,-4.606l-5.461,7.651l4.824,4.551l4.999,-2.107l-2.304,-3.332l-1.237,1.127l1.433,0.49l-0.846,1.79l-5.233,-2.617l4.021,-4.809l5.291,4.799l1.472,8.04l11.075,0l1.224,1.175l2.215,-1.108l0.814,-5.163l6.871,-0.931l14.596,4.949l4.466,-3.577l0.9,-2.597l4.05,-2.059l0.442,-2.2Z" style="fill:#12365f;fill-opacity:0.65;"/><path d="M68.29,29.986l-2.318,-8.281l-1.029,8.036l-10.144,4.901l-6.811,-3.92l-5.108,2.227l-3.306,-5.137l-4.474,-0.766l0.43,-8.505l-4.806,-0.316l-2.24,2.647l5.837,-1.166l-0.203,8.862l4.314,0.83l4.655,5.881l5.734,-2.744l5.782,4.851l10.797,-6.387l2.89,-1.013" style="fill:#12365f;fill-opacity:0.65;"/><path d="M62.923,26.871l-1.998,-5.901l-0.588,-4.95l-6.273,5.146l-1.874,3.234l-3.726,-6.399l-4.005,-10.557l2.364,1.814l6.996,3.577l0.539,-5.195l-6.258,-5.557l-0.063,2.274l2.254,0.931l3.185,3.137l-0.588,1.421l-8.135,-3.774l-1.548,0.207l1.303,7.438l2.315,7.106l-8.783,1.862l10.585,-0.441l3.017,4.353l3.304,-3.177l4.313,-3.283l2.646,7.693l1.018,-0.959Z" style="fill:#12365f;fill-opacity:0.65;"/></g><path d="M68.29,25.407l3.236,6.985c0,0 1.674,6.42 1.328,7.529c-0.347,1.108 -6.306,7.137 -6.306,7.137l-2.278,3.172c0,0 -6.143,-0.816 -6.713,-0.539c-0.571,0.277 -5.188,0.397 -6.656,0.51c-1.467,0.113 -16.573,1.846 -16.573,1.846l-10.393,1.871c0,0 -2.772,-0.832 -4.504,-1.248c-1.733,-0.415 -3.811,0.693 -6.098,-2.217c-2.287,-2.91 -6.028,-5.959 -7.206,-6.652c-1.178,-0.693 -4.781,-2.425 -4.781,-2.425c0,0 -1.594,-5.405 0.138,-7.068c1.733,-1.663 4.358,-3.619 6.163,-5.412c1.806,-1.794 3.677,-5.536 4.716,-6.506c1.039,-0.97 0.456,-2.159 3,-1.98c2.543,0.179 11.986,0.626 11.986,0.626l-5.424,4.542l-7.301,-0.901l-7.319,10.948c0,0 2.563,0.346 4.157,0.069c1.594,-0.277 2.444,-0.069 3.162,-0.624c0.718,-0.554 0.926,-0.623 0.926,-0.623c0,0 -0.951,3.742 -0.926,4.573c0.026,0.832 0,1.386 0,1.386c0,0 0.718,0.346 1.481,1.039c0.762,0.693 2.007,1.806 2.007,1.806l0.97,0.485c0,0 -0.691,-0.628 2.15,-1.806c2.841,-1.178 2.915,-1.801 4.125,-1.455c1.211,0.347 1.973,-0.138 1.973,1.04c0,1.177 0,2.148 0,2.148c0,0 -0.624,0.207 0.485,0.415c1.108,0.208 1.66,0.224 2.909,0.112c1.248,-0.112 -0.991,1.022 1.792,-0.896c2.782,-1.918 1.812,-2.057 5,-3.304c3.187,-1.247 2.963,-2.264 3.941,-1.167c0.978,1.098 1.81,3.246 1.81,3.246l1.316,1.455c0,0 -1.524,-0.485 0,0c1.525,0.485 1.224,0.485 2.24,0.485c1.017,0 0.255,0.069 2.818,-0.208c2.564,-0.277 1.844,-0.401 3.936,-0.305c2.093,0.097 3.063,0.167 3.063,0.167l0.917,0.485c0,0 -1.264,0.97 1.162,0c2.425,-0.971 2.57,-0.775 2.57,-0.775c0,0 1.612,-0.473 1.634,-1.235c0.022,-0.762 -1.225,-0.623 0.577,-1.178c1.801,-0.554 2.979,-1.247 2.979,-1.247l1.811,-8.939l0,-5.367Z" style="fill:#22aecf;"/><clipPath id="_clip8"><path d="M68.29,25.407l3.236,6.985c0,0 1.674,6.42 1.328,7.529c-0.347,1.108 -6.306,7.137 -6.306,7.137l-2.278,3.172c0,0 -6.143,-0.816 -6.713,-0.539c-0.571,0.277 -5.188,0.397 -6.656,0.51c-1.467,0.113 -16.573,1.846 -16.573,1.846l-10.393,1.871c0,0 -2.772,-0.832 -4.504,-1.248c-1.733,-0.415 -3.811,0.693 -6.098,-2.217c-2.287,-2.91 -6.028,-5.959 -7.206,-6.652c-1.178,-0.693 -4.781,-2.425 -4.781,-2.425c0,0 -1.594,-5.405 0.138,-7.068c1.733,-1.663 4.358,-3.619 6.163,-5.412c1.806,-1.794 3.677,-5.536 4.716,-6.506c1.039,-0.97 0.456,-2.159 3,-1.98c2.543,0.179 11.986,0.626 11.986,0.626l-5.424,4.542l-7.301,-0.901l-7.319,10.948c0,0 2.563,0.346 4.157,0.069c1.594,-0.277 2.444,-0.069 3.162,-0.624c0.718,-0.554 0.926,-0.623 0.926,-0.623c0,0 -0.951,3.742 -0.926,4.573c0.026,0.832 0,1.386 0,1.386c0,0 0.718,0.346 1.481,1.039c0.762,0.693 2.007,1.806 2.007,1.806l0.97,0.485c0,0 -0.691,-0.628 2.15,-1.806c2.841,-1.178 2.915,-1.801 4.125,-1.455c1.211,0.347 1.973,-0.138 1.973,1.04c0,1.177 0,2.148 0,2.148c0,0 -0.624,0.207 0.485,0.415c1.108,0.208 1.66,0.224 2.909,0.112c1.248,-0.112 -0.991,1.022 1.792,-0.896c2.782,-1.918 1.812,-2.057 5,-3.304c3.187,-1.247 2.963,-2.264 3.941,-1.167c0.978,1.098 1.81,3.246 1.81,3.246l1.316,1.455c0,0 -1.524,-0.485 0,0c1.525,0.485 1.224,0.485 2.24,0.485c1.017,0 0.255,0.069 2.818,-0.208c2.564,-0.277 1.844,-0.401 3.936,-0.305c2.093,0.097 3.063,0.167 3.063,0.167l0.917,0.485c0,0 -1.264,0.97 1.162,0c2.425,-0.971 2.57,-0.775 2.57,-0.775c0,0 1.612,-0.473 1.634,-1.235c0.022,-0.762 -1.225,-0.623 0.577,-1.178c1.801,-0.554 2.979,-1.247 2.979,-1.247l1.811,-8.939l0,-5.367Z"/></clipPath><g clip-path="url(#_clip8)"><path d="M70.963,22.719l-20.692,15.145l5.808,13.637l-21.715,5.243l-0.041,-19.72l-10.769,0.018l-15.754,17.152l60.49,10.285l16.099,-20.289l-13.426,-21.471Z" style="fill:#bce0cc;fill-opacity:0.5;"/><path d="M73.656,33.457l-2.465,2.791l-1.94,3.604l-2.662,2.505c0,0 2.245,0.477 -1.254,3.039c-3.498,2.563 -5.3,3.741 -6.478,3.741c-1.178,0 -3.148,-1.178 -6.667,-1.525c-3.519,-0.346 -6.65,-0.097 -6.65,-0.097l-2.758,-0.457l-3.326,-1.178c0,0 -1.881,-1.386 -3.366,-0.762c-1.485,0.623 -1.277,3.949 -7.859,4.088c-6.583,0.138 -7.145,2.132 -7.245,-0.147c-0.1,-2.278 4.265,-3.664 -0.308,-3.179c-4.573,0.485 -6.874,0.583 -6.874,0.583c0,0 -3.45,-3.632 -3.312,-6.126c0.139,-2.495 -1.234,-3.188 -1.234,-3.188l-2.898,0.226c0,0 -4.589,2.873 -1.579,-0.79c3.009,-3.663 4.477,-4.563 4.477,-4.563c0,0 -4.309,-0.139 -0.845,-2.495c3.465,-2.356 3.558,-2.793 3.558,-2.793c0,0 3.094,-4.69 4.342,-4.69c1.247,0 5.404,2.494 6.721,0.693c1.316,-1.802 4.162,-6.306 2.323,-6.306c-1.838,0 -7.174,-2.91 -11.816,-0.069c-4.643,2.841 -17.323,15.105 -17.323,15.105c0,0 -0.899,10.46 1.248,12.194c2.147,1.734 -2.809,9.009 6.425,10.257c9.234,1.247 61.895,0.485 61.895,0.485l9.147,-12.057l-1.277,-8.889Z" style="fill:#9bffe5;"/><clipPath id="_clip9"><path d="M73.656,33.457l-2.465,2.791l-1.94,3.604l-2.662,2.505c0,0 2.245,0.477 -1.254,3.039c-3.498,2.563 -5.3,3.741 -6.478,3.741c-1.178,0 -3.148,-1.178 -6.667,-1.525c-3.519,-0.346 -6.65,-0.097 -6.65,-0.097l-2.758,-0.457l-3.326,-1.178c0,0 -1.881,-1.386 -3.366,-0.762c-1.485,0.623 -1.277,3.949 -7.859,4.088c-6.583,0.138 -7.145,2.132 -7.245,-0.147c-0.1,-2.278 4.265,-3.664 -0.308,-3.179c-4.573,0.485 -6.874,0.583 -6.874,0.583c0,0 -3.45,-3.632 -3.312,-6.126c0.139,-2.495 -1.234,-3.188 -1.234,-3.188l-2.898,0.226c0,0 -4.589,2.873 -1.579,-0.79c3.009,-3.663 4.477,-4.563 4.477,-4.563c0,0 -4.309,-0.139 -0.845,-2.495c3.465,-2.356 3.558,-2.793 3.558,-2.793c0,0 3.094,-4.69 4.342,-4.69c1.247,0 5.404,2.494 6.721,0.693c1.316,-1.802 4.162,-6.306 2.323,-6.306c-1.838,0 -7.174,-2.91 -11.816,-0.069c-4.643,2.841 -17.323,15.105 -17.323,15.105c0,0 -0.899,10.46 1.248,12.194c2.147,1.734 -2.809,9.009 6.425,10.257c9.234,1.247 61.895,0.485 61.895,0.485l9.147,-12.057l-1.277,-8.889Z"/></clipPath><g clip-path="url(#_clip9)"><path d="M70.963,22.719l-20.692,15.145l5.808,13.637l-21.715,5.243l-0.041,-19.72l-10.769,0.018l-15.754,17.152l60.49,10.285l16.099,-20.289l-13.426,-21.471Z" style="fill:#bce0cc;fill-opacity:0.5;"/></g><path d="M19.991,28.09l-21.467,14.831l-5.366,-24.513c0,0 19.328,-7.761 21.466,-7.022c2.138,0.739 16.1,8.623 16.1,8.623l-10.733,8.081Z" style="fill:#191919;fill-opacity:0.5;"/></g></g></g></svg>