<?xml version="1.0" encoding="UTF-8" standalone="no"?><!DOCTYPE svg PUBLIC "-//W3C//DTD SVG 1.1//EN" "http://www.w3.org/Graphics/SVG/1.1/DTD/svg11.dtd"><svg width="100%" height="100%" viewBox="0 0 66 50" version="1.1" xmlns="http://www.w3.org/2000/svg" xmlns:xlink="http://www.w3.org/1999/xlink" xml:space="preserve" xmlns:serif="http://www.serif.com/" style="fill-rule:evenodd;clip-rule:evenodd;stroke-linejoin:round;stroke-miterlimit:1.41421;"><g id="rock-highlights03"><g><g><g><path d="M65.149,19.513l0,10.733l-10.734,10.733l-37.566,-13.416l16.1,-13.417l32.2,5.367Z" style="fill:#aadadf;"/><clipPath id="_clip1"><path d="M65.149,19.513l0,10.733l-10.734,10.733l-37.566,-13.416l16.1,-13.417l32.2,5.367Z"/></clipPath><g clip-path="url(#_clip1)"><path d="M63.426,40.118l-0.111,-6.191l-8.9,7.052l1.882,4.426l-1.882,0.941l-1.966,-4.384l-21.126,-7.162l-9.107,2.164l-2.708,11.948l-2.659,0.117l-2.509,-1.255l5.708,-11.755l-8.565,-11.139l16.1,2.683l5.366,-2.683l5.367,-24.15l-3.834,24.916l12.123,6.062l0.808,-14.06l-9.097,-15.783l11.499,12.96l1.014,17.214l7.29,-3.645l-0.176,-16.011l1.296,-0.648l2.186,18.21l3.724,0.301l-1.723,9.872Z" style="fill:#aadadf;"/></g><path d="M49.049,0.73l10.733,10.733l-10.733,5.367l-10.733,-16.1l10.733,0Z" style="fill:#aadadf;"/><path d="M59.782,11.463l0,16.1l-10.733,5.366l0,-16.099l10.733,-5.367Z" style="fill:#8efaf0;"/><clipPath id="_clip2"><path d="M59.782,11.463l0,16.1l-10.733,5.366l0,-16.099l10.733,-5.367Z"/></clipPath><g clip-path="url(#_clip2)"><path d="M63.426,40.118l-0.111,-6.191l-8.9,7.052l1.882,4.426l-1.882,0.941l-1.966,-4.384l-21.126,-7.162l-9.107,2.164l-2.708,11.948l-2.659,0.117l-2.509,-1.255l5.708,-11.755l-8.565,-11.139l16.1,2.683l5.366,-2.683l5.367,-24.15l-3.834,24.916l12.123,6.062l0.808,-14.06l-9.097,-15.783l11.499,12.96l1.014,17.214l7.29,-3.645l-0.176,-16.011l1.296,-0.648l2.186,18.21l3.724,0.301l-1.723,9.872Z" style="fill:#aadadf;"/></g><path d="M38.316,0.73l-5.367,24.15l16.1,8.049l0,-16.099l-10.733,-16.1Z" style="fill:#0098a3;"/><clipPath id="_clip3"><path d="M38.316,0.73l-5.367,24.15l16.1,8.049l0,-16.099l-10.733,-16.1Z"/></clipPath><g clip-path="url(#_clip3)"><path d="M63.426,40.118l-0.111,-6.191l-8.9,7.052l1.882,4.426l-1.882,0.941l-1.966,-4.384l-21.126,-7.162l-9.107,2.164l-2.708,11.948l-2.659,0.117l-2.509,-1.255l5.708,-11.755l-8.565,-11.139l16.1,2.683l5.366,-2.683l5.367,-24.15l-3.834,24.916l12.123,6.062l0.808,-14.06l-9.097,-15.783l11.499,12.96l1.014,17.214l7.29,-3.645l-0.176,-16.011l1.296,-0.648l2.186,18.21l3.724,0.301l-1.723,9.872Z" style="fill:#aadadf;"/></g><path d="M65.149,30.246l-1.879,9.794l-8.855,6.306l0,-5.367l10.734,-10.733Z" style="fill:#8efaf0;"/><clipPath id="_clip4"><path d="M65.149,30.246l-1.879,9.794l-8.855,6.306l0,-5.367l10.734,-10.733Z"/></clipPath><g clip-path="url(#_clip4)"><path d="M63.426,40.118l-0.111,-6.191l-8.9,7.052l1.882,4.426l-1.882,0.941l-1.966,-4.384l-21.126,-7.162l-9.107,2.164l-2.708,11.948l-2.659,0.117l-2.509,-1.255l5.708,-11.755l-8.565,-11.139l16.1,2.683l5.366,-2.683l5.367,-24.15l-3.834,24.916l12.123,6.062l0.808,-14.06l-9.097,-15.783l11.499,12.96l1.014,17.214l7.29,-3.645l-0.176,-16.011l1.296,-0.648l2.186,18.21l3.724,0.301l-1.723,9.872Z" style="fill:#aadadf;"/></g><path d="M54.415,40.979l0,5.367l-42.932,0l5.366,-18.783l37.566,13.416Z" style="fill:#0098a3;"/><clipPath id="_clip5"><path d="M54.415,40.979l0,5.367l-42.932,0l5.366,-18.783l37.566,13.416Z"/></clipPath><g clip-path="url(#_clip5)"><path d="M63.426,40.118l-0.111,-6.191l-8.9,7.052l1.882,4.426l-1.882,0.941l-1.966,-4.384l-21.126,-7.162l-9.107,2.164l-2.708,11.948l-2.659,0.117l-2.509,-1.255l5.708,-11.755l-8.565,-11.139l16.1,2.683l5.366,-2.683l5.367,-24.15l-3.834,24.916l12.123,6.062l0.808,-14.06l-9.097,-15.783l11.499,12.96l1.014,17.214l7.29,-3.645l-0.176,-16.011l1.296,-0.648l2.186,18.21l3.724,0.301l-1.723,9.872Z" style="fill:#aadadf;"/></g><path d="M11.483,24.88l16.1,2.683l3.705,4.764l-9.072,3.286l-10.733,-10.733Z" style="fill:#aadadf;"/><path d="M31.297,32.342l-1,15.33l-13.448,1.357l5.367,-13.416l9.081,-3.271Z" style="fill:#8efaf0;"/><clipPath id="_clip6"><path d="M31.297,32.342l-1,15.33l-13.448,1.357l5.367,-13.416l9.081,-3.271Z"/></clipPath><g clip-path="url(#_clip6)"><path d="M63.426,40.118l-0.111,-6.191l-8.9,7.052l1.882,4.426l-1.882,0.941l-1.966,-4.384l-21.126,-7.162l-9.107,2.164l-2.708,11.948l-2.659,0.117l-2.509,-1.255l5.708,-11.755l-8.565,-11.139l16.1,2.683l5.366,-2.683l5.367,-24.15l-3.834,24.916l12.123,6.062l0.808,-14.06l-9.097,-15.783l11.499,12.96l1.014,17.214l7.29,-3.645l-0.176,-16.011l1.296,-0.648l2.186,18.21l3.724,0.301l-1.723,9.872Z" style="fill:#aadadf;"/></g><path d="M11.483,24.88l-10.733,16.099l16.099,8.05l5.367,-13.416l-10.733,-10.733Z" style="fill:#0098a3;"/><clipPath id="_clip7"><path d="M11.483,24.88l-10.733,16.099l16.099,8.05l5.367,-13.416l-10.733,-10.733Z"/></clipPath><g clip-path="url(#_clip7)"><path d="M63.426,40.118l-0.111,-6.191l-8.9,7.052l1.882,4.426l-1.882,0.941l-1.966,-4.384l-21.126,-7.162l-9.107,2.164l-2.708,11.948l-2.659,0.117l-2.509,-1.255l5.708,-11.755l-8.565,-11.139l16.1,2.683l5.366,-2.683l5.367,-24.15l-3.834,24.916l12.123,6.062l0.808,-14.06l-9.097,-15.783l11.499,12.96l1.014,17.214l7.29,-3.645l-0.176,-16.011l1.296,-0.648l2.186,18.21l3.724,0.301l-1.723,9.872Z" style="fill:#aadadf;"/></g></g></g></g></g></svg>