<?xml version="1.0" encoding="UTF-8" standalone="no"?><!DOCTYPE svg PUBLIC "-//W3C//DTD SVG 1.1//EN" "http://www.w3.org/Graphics/SVG/1.1/DTD/svg11.dtd"><svg width="100%" height="100%" viewBox="0 0 76 59" version="1.1" xmlns="http://www.w3.org/2000/svg" xmlns:xlink="http://www.w3.org/1999/xlink" xml:space="preserve" xmlns:serif="http://www.serif.com/" style="fill-rule:evenodd;clip-rule:evenodd;stroke-linejoin:round;stroke-miterlimit:1.41421;"><g id="rock-mossy09"><g id="rock-highlights09"><g><g><g><path d="M27.473,0.484l14.694,4.408l-5.878,14.695l-17.633,2.938l-5.877,-14.694l14.694,-7.347Z" style="fill:#8efaf0;"/><clipPath id="_clip1"><path d="M27.473,0.484l14.694,4.408l-5.878,14.695l-17.633,2.938l-5.877,-14.694l14.694,-7.347Z"/></clipPath><g clip-path="url(#_clip1)"><path d="M60.249,42.281l-9.301,-32.068l-3.355,0.63l-0.506,24.604l-3.291,-7.746l0.051,-17.111l-5.13,-1.992l-3.003,13.13l16.1,25.618l-12.119,-13.722l-2.835,1.519l-11.879,14.886l8.488,-15.595l-8.488,-11.238l1.704,-2.076l-6.277,1.215l-7.695,14.934l4.151,-14.731l-4.168,-14.665l5.99,14.563l15.896,-3.088l0.409,-1.88l2.679,-11.889l12.15,1.62l2.734,0.455l10.631,25.363l-0.638,8.201l-2.298,1.063Z" style="fill:#aadadf;"/></g><path d="M42.167,4.892l11.755,11.756l0,11.755l-17.633,-8.816l5.878,-14.695" style="fill:#aadadf;"/><clipPath id="_clip2"><path d="M42.167,4.892l11.755,11.756l0,11.755l-17.633,-8.816l5.878,-14.695"/></clipPath><g clip-path="url(#_clip2)"><path d="M60.249,42.281l-9.301,-32.068l-3.355,0.63l-0.506,24.604l-3.291,-7.746l0.051,-17.111l-5.13,-1.992l-3.003,13.13l16.1,25.618l-12.119,-13.722l-2.835,1.519l-11.879,14.886l8.488,-15.595l-8.488,-11.238l1.704,-2.076l-6.277,1.215l-7.695,14.934l4.151,-14.731l-4.168,-14.665l5.99,14.563l15.896,-3.088l0.409,-1.88l2.679,-11.889l12.15,1.62l2.734,0.455l10.631,25.363l-0.638,8.201l-2.298,1.063Z" style="fill:#aadadf;"/></g><path d="M36.289,19.587l17.633,8.816l-17.633,8.817l-23.51,0l5.877,-14.695l17.633,-2.938Z" style="fill:#0098a3;"/><clipPath id="_clip3"><path d="M36.289,19.587l17.633,8.816l-17.633,8.817l-23.51,0l5.877,-14.695l17.633,-2.938Z"/></clipPath><g clip-path="url(#_clip3)"><path d="M60.249,42.281l-9.301,-32.068l-3.355,0.63l-0.506,24.604l-3.291,-7.746l0.051,-17.111l-5.13,-1.992l-3.003,13.13l16.1,25.618l-12.119,-13.722l-2.835,1.519l-11.879,14.886l8.488,-15.595l-8.488,-11.238l1.704,-2.076l-6.277,1.215l-7.695,14.934l4.151,-14.731l-4.168,-14.665l5.99,14.563l15.896,-3.088l0.409,-1.88l2.679,-11.889l12.15,1.62l2.734,0.455l10.631,25.363l-0.638,8.201l-2.298,1.063Z" style="fill:#aadadf;"/></g><path d="M12.779,7.831l5.877,14.694l-5.877,14.695l-8.817,-19.103l8.817,-10.286Z" style="fill:#007e9b;"/><clipPath id="_clip4"><path d="M12.779,7.831l5.877,14.694l-5.877,14.695l-8.817,-19.103l8.817,-10.286Z"/></clipPath><g clip-path="url(#_clip4)"><path d="M60.249,42.281l-9.301,-32.068l-3.355,0.63l-0.506,24.604l-3.291,-7.746l0.051,-17.111l-5.13,-1.992l-3.003,13.13l16.1,25.618l-12.119,-13.722l-2.835,1.519l-11.879,14.886l8.488,-15.595l-8.488,-11.238l1.704,-2.076l-6.277,1.215l-7.695,14.934l4.151,-14.731l-4.168,-14.665l5.99,14.563l15.896,-3.088l0.409,-1.88l2.679,-11.889l12.15,1.62l2.734,0.455l10.631,25.363l-0.638,8.201l-2.298,1.063Z" style="fill:#aadadf;"/></g></g><g><path d="M53.922,8.525l16.1,21.092l-8.05,12.075l-10.665,-34.917l2.615,1.75Z" style="fill:#aadadf;"/><clipPath id="_clip5"><path d="M53.922,8.525l16.1,21.092l-8.05,12.075l-10.665,-34.917l2.615,1.75Z"/></clipPath><g clip-path="url(#_clip5)"><path d="M60.249,42.281l-9.301,-32.068l-3.355,0.63l-0.506,24.604l-3.291,-7.746l0.051,-17.111l-5.13,-1.992l-3.003,13.13l16.1,25.618l-12.119,-13.722l-2.835,1.519l-11.879,14.886l8.488,-15.595l-8.488,-11.238l1.704,-2.076l-6.277,1.215l-7.695,14.934l4.151,-14.731l-4.168,-14.665l5.99,14.563l15.896,-3.088l0.409,-1.88l2.679,-11.889l12.15,1.62l2.734,0.455l10.631,25.363l-0.638,8.201l-2.298,1.063Z" style="fill:#aadadf;"/></g><path d="M51.602,6.628l-5.729,2.864l0,36.225l16.099,-4.025l-10.37,-35.064Z" style="fill:#8efaf0;"/><clipPath id="_clip6"><path d="M51.602,6.628l-5.729,2.864l0,36.225l16.099,-4.025l-10.37,-35.064Z"/></clipPath><g clip-path="url(#_clip6)"><path d="M60.249,42.281l-9.301,-32.068l-3.355,0.63l-0.506,24.604l-3.291,-7.746l0.051,-17.111l-5.13,-1.992l-3.003,13.13l16.1,25.618l-12.119,-13.722l-2.835,1.519l-11.879,14.886l8.488,-15.595l-8.488,-11.238l1.704,-2.076l-6.277,1.215l-7.695,14.934l4.151,-14.731l-4.168,-14.665l5.99,14.563l15.896,-3.088l0.409,-1.88l2.679,-11.889l12.15,1.62l2.734,0.455l10.631,25.363l-0.638,8.201l-2.298,1.063Z" style="fill:#aadadf;"/></g><path d="M53.922,8.528l-8.049,-7.085l-8.05,4.024l8.05,4.025l8.049,-0.964Z" style="fill:#aadadf;"/><clipPath id="_clip7"><path d="M53.922,8.528l-8.049,-7.085l-8.05,4.024l8.05,4.025l8.049,-0.964Z"/></clipPath><g clip-path="url(#_clip7)"><path d="M60.249,42.281l-9.301,-32.068l-3.355,0.63l-0.506,24.604l-3.291,-7.746l0.051,-17.111l-5.13,-1.992l-3.003,13.13l16.1,25.618l-12.119,-13.722l-2.835,1.519l-11.879,14.886l8.488,-15.595l-8.488,-11.238l1.704,-2.076l-6.277,1.215l-7.695,14.934l4.151,-14.731l-4.168,-14.665l5.99,14.563l15.896,-3.088l0.409,-1.88l2.679,-11.889l12.15,1.62l2.734,0.455l10.631,25.363l-0.638,8.201l-2.298,1.063Z" style="fill:#aadadf;"/></g><path d="M37.823,5.467l8.05,4.025l0,36.225l-16.1,-4.025l8.05,-36.225Z" style="fill:#0098a3;"/><clipPath id="_clip8"><path d="M37.823,5.467l8.05,4.025l0,36.225l-16.1,-4.025l8.05,-36.225Z"/></clipPath><g clip-path="url(#_clip8)"><path d="M60.249,42.281l-9.301,-32.068l-3.355,0.63l-0.506,24.604l-3.291,-7.746l0.051,-17.111l-5.13,-1.992l-3.003,13.13l16.1,25.618l-12.119,-13.722l-2.835,1.519l-11.879,14.886l8.488,-15.595l-8.488,-11.238l1.704,-2.076l-6.277,1.215l-7.695,14.934l4.151,-14.731l-4.168,-14.665l5.99,14.563l15.896,-3.088l0.409,-1.88l2.679,-11.889l12.15,1.62l2.734,0.455l10.631,25.363l-0.638,8.201l-2.298,1.063Z" style="fill:#aadadf;"/></g></g><g><path d="M30.348,15.146l10.733,5.367l0,10.733l-5.367,2.683l-10.733,-10.733l5.367,-8.05Z" style="fill:#aadadf;"/><clipPath id="_clip9"><path d="M30.348,15.146l10.733,5.367l0,10.733l-5.367,2.683l-10.733,-10.733l5.367,-8.05Z"/></clipPath><g clip-path="url(#_clip9)"><path d="M60.249,42.281l-9.301,-32.068l-3.355,0.63l-0.506,24.604l-3.291,-7.746l0.051,-17.111l-5.13,-1.992l-3.003,13.13l16.1,25.618l-12.119,-13.722l-2.835,1.519l-11.879,14.886l8.488,-15.595l-8.488,-11.238l1.704,-2.076l-6.277,1.215l-7.695,14.934l4.151,-14.731l-4.168,-14.665l5.99,14.563l15.896,-3.088l0.409,-1.88l2.679,-11.889l12.15,1.62l2.734,0.455l10.631,25.363l-0.638,8.201l-2.298,1.063Z" style="fill:#aadadf;"/></g><path d="M41.081,31.246l10.733,16.1l-16.1,8.05l-10.733,-5.367l10.733,-16.1l5.367,-2.683Z" style="fill:#8efaf0;"/><clipPath id="_clip10"><path d="M41.081,31.246l10.733,16.1l-16.1,8.05l-10.733,-5.367l10.733,-16.1l5.367,-2.683Z"/></clipPath><g clip-path="url(#_clip10)"><path d="M60.249,42.281l-9.301,-32.068l-3.355,0.63l-0.506,24.604l-3.291,-7.746l0.051,-17.111l-5.13,-1.992l-3.003,13.13l16.1,25.618l-12.119,-13.722l-2.835,1.519l-11.879,14.886l8.488,-15.595l-8.488,-11.238l1.704,-2.076l-6.277,1.215l-7.695,14.934l4.151,-14.731l-4.168,-14.665l5.99,14.563l15.896,-3.088l0.409,-1.88l2.679,-11.889l12.15,1.62l2.734,0.455l10.631,25.363l-0.638,8.201l-2.298,1.063Z" style="fill:#aadadf;"/></g><path d="M35.714,33.929l-10.733,16.1l-5.366,-8.05l5.366,-18.783l10.733,10.733Z" style="fill:#0098a3;"/><clipPath id="_clip11"><path d="M35.714,33.929l-10.733,16.1l-5.366,-8.05l5.366,-18.783l10.733,10.733Z"/></clipPath><g clip-path="url(#_clip11)"><path d="M60.249,42.281l-9.301,-32.068l-3.355,0.63l-0.506,24.604l-3.291,-7.746l0.051,-17.111l-5.13,-1.992l-3.003,13.13l16.1,25.618l-12.119,-13.722l-2.835,1.519l-11.879,14.886l8.488,-15.595l-8.488,-11.238l1.704,-2.076l-6.277,1.215l-7.695,14.934l4.151,-14.731l-4.168,-14.665l5.99,14.563l15.896,-3.088l0.409,-1.88l2.679,-11.889l12.15,1.62l2.734,0.455l10.631,25.363l-0.638,8.201l-2.298,1.063Z" style="fill:#aadadf;"/></g><path d="M41.081,20.513l10.733,26.833l-10.733,-16.1l0,-10.733Z" style="fill:#aadadf;"/><clipPath id="_clip12"><path d="M41.081,20.513l10.733,26.833l-10.733,-16.1l0,-10.733Z"/></clipPath><g clip-path="url(#_clip12)"><path d="M60.249,42.281l-9.301,-32.068l-3.355,0.63l-0.506,24.604l-3.291,-7.746l0.051,-17.111l-5.13,-1.992l-3.003,13.13l16.1,25.618l-12.119,-13.722l-2.835,1.519l-11.879,14.886l8.488,-15.595l-8.488,-11.238l1.704,-2.076l-6.277,1.215l-7.695,14.934l4.151,-14.731l-4.168,-14.665l5.99,14.563l15.896,-3.088l0.409,-1.88l2.679,-11.889l12.15,1.62l2.734,0.455l10.631,25.363l-0.638,8.201l-2.298,1.063Z" style="fill:#aadadf;"/></g></g></g></g></g><path d="M63.42,20.968l5.75,-1.619l1.875,3.173c0,0 -0.184,-0.084 0.958,1.534c1.142,1.618 3.28,3.716 3.28,3.716l-2.003,2.85l-0.872,1.952c0,0 -0.909,-1.056 -1.18,0.59c-0.272,1.645 -0.87,1.604 -0.999,2.814c-0.129,1.21 1.624,-0.422 -0.395,3.249c-2.018,3.67 -2.779,4.622 -6.11,5.954c-3.33,1.332 -3.97,1.659 -3.97,1.659c0,0 1.02,0.054 -0.502,1.005c-1.523,0.952 -2.794,1.876 -4.157,2.032c-1.362,0.157 -6.942,1.896 -6.942,1.896l-2.604,1.877l-2.055,1.16l-4.987,1.219c0,0 -0.447,1.142 -2.793,1.808c-2.345,0.666 -3.79,0.345 -3.79,0.345c0,0 -0.981,0.892 -1.576,-0.155c-0.595,-1.047 -0.432,-2.624 -2.892,-2.977c-2.461,-0.353 -5.954,-0.503 -5.954,-0.503c0,0 -0.466,0.415 -1.103,-1.336c-0.637,-1.75 -0.784,-3.748 -0.784,-3.748c0,0 -0.139,-1.998 -1.852,-3.235c-1.712,-1.237 -2.843,-1.428 -3.515,-2.379c-0.672,-0.952 -1.147,-1.618 -1.147,-1.618c0,0 -2.379,0.381 -2.76,-2.189c-0.381,-2.569 -0.584,-2.976 -0.584,-2.976l-0.875,-1.306l-0.815,-3.216l-2.293,-2.874l-0.577,-1.057l-0.66,-1.702c0,0 -0.206,0.22 -0.293,-2.459c-0.088,-2.68 -0.729,-2.87 -0.729,-2.87l-0.974,-2.374l-1.632,-1.79l0.678,-1.831l0.824,-1.681c0,0 1.745,-3.077 2.696,-3.838c0.952,-0.761 1.504,-0.533 1.504,-0.533l6.219,-2.256l-8.348,10.958l8.428,18.57l7.9,0.099l-1.195,4.944l5.366,8.089l10.733,5.519l16.1,-8.089l-1.126,-2.759l11.859,-3.14l7.648,-11.8l-6.775,-8.702Z" style="fill:#22aecf;"/><clipPath id="_clip13"><path d="M63.42,20.968l5.75,-1.619l1.875,3.173c0,0 -0.184,-0.084 0.958,1.534c1.142,1.618 3.28,3.716 3.28,3.716l-2.003,2.85l-0.872,1.952c0,0 -0.909,-1.056 -1.18,0.59c-0.272,1.645 -0.87,1.604 -0.999,2.814c-0.129,1.21 1.624,-0.422 -0.395,3.249c-2.018,3.67 -2.779,4.622 -6.11,5.954c-3.33,1.332 -3.97,1.659 -3.97,1.659c0,0 1.02,0.054 -0.502,1.005c-1.523,0.952 -2.794,1.876 -4.157,2.032c-1.362,0.157 -6.942,1.896 -6.942,1.896l-2.604,1.877l-2.055,1.16l-4.987,1.219c0,0 -0.447,1.142 -2.793,1.808c-2.345,0.666 -3.79,0.345 -3.79,0.345c0,0 -0.981,0.892 -1.576,-0.155c-0.595,-1.047 -0.432,-2.624 -2.892,-2.977c-2.461,-0.353 -5.954,-0.503 -5.954,-0.503c0,0 -0.466,0.415 -1.103,-1.336c-0.637,-1.75 -0.784,-3.748 -0.784,-3.748c0,0 -0.139,-1.998 -1.852,-3.235c-1.712,-1.237 -2.843,-1.428 -3.515,-2.379c-0.672,-0.952 -1.147,-1.618 -1.147,-1.618c0,0 -2.379,0.381 -2.76,-2.189c-0.381,-2.569 -0.584,-2.976 -0.584,-2.976l-0.875,-1.306l-0.815,-3.216l-2.293,-2.874l-0.577,-1.057l-0.66,-1.702c0,0 -0.206,0.22 -0.293,-2.459c-0.088,-2.68 -0.729,-2.87 -0.729,-2.87l-0.974,-2.374l-1.632,-1.79l0.678,-1.831l0.824,-1.681c0,0 1.745,-3.077 2.696,-3.838c0.952,-0.761 1.504,-0.533 1.504,-0.533l6.219,-2.256l-8.348,10.958l8.428,18.57l7.9,0.099l-1.195,4.944l5.366,8.089l10.733,5.519l16.1,-8.089l-1.126,-2.759l11.859,-3.14l7.648,-11.8l-6.775,-8.702Z"/></clipPath><g clip-path="url(#_clip13)"><path d="M53.303,18.051l18.428,-4.435c10.153,8.259 9.816,21.994 -3.817,42.671l-53.666,8.771l24.443,-15.626l14.612,-31.381Z" style="fill:#bce0cc;fill-opacity:0.5;"/><path d="M71.717,17.776c-1.332,-0.095 -3.803,0.945 -3.803,0.945l0,3.432l2.332,0.768l0.995,1.611l0.769,1.603l0.154,1.194l1.116,2.817c0,0 -0.494,-1.091 -1.932,1.025c-1.439,2.115 -2.062,2.963 -2.062,2.963c0,0 -1.661,2.483 -2.136,3.91c-0.476,1.427 -1.047,4.758 -1.047,4.758c0,0 0.559,0.213 -1.957,0.868c-2.515,0.654 -2.303,-0.825 -3.409,0.105c-1.105,0.93 -2.093,1.047 -2.093,1.047l-2.817,1.408l-2.398,1.199l-1.615,0.808l-8.319,4.159l-3.768,1.884l-5.633,2.817c0,0 0.845,0.645 -3.746,-1.544c-4.592,-2.189 -6.172,-3.541 -6.904,-3.864c-0.733,-0.323 1.742,1.009 -1.494,-1.084c-3.235,-2.094 -5.111,-2.244 -5.267,-3.834c-0.157,-1.59 -0.157,-3.969 -0.157,-3.969c0,0 2.189,0.095 -0.571,-0.666c-2.759,-0.761 -3.214,-1.195 -3.214,-1.195c0,0 1.258,1.278 0,0c-1.258,-1.279 -4.082,-2.041 -3.859,-4.8c0.222,-2.76 0,-4.004 0,-4.004c0,0 1.68,-0.849 0,-1.896c-1.681,-1.046 -2.918,-1.903 -4.155,-3.616c-1.237,-1.713 -1.212,-2.538 -1.212,-2.538c0,0 0.406,-0.887 0,-2.124c-0.406,-1.237 0,-4.473 0,-4.473l0,-4.136c0,0 -0.679,0.07 1.218,-0.609c1.897,-0.679 6.357,-3.178 6.357,-3.178c0,0 2.269,-2.775 -0.239,-3.278c-2.508,-0.503 -7.336,-0.027 -7.336,-0.027c0,0 -3.165,5.614 -3.26,6.851c-0.096,1.237 -1.238,4.758 -0.857,6.756c0.381,1.998 1.763,8.469 4.117,13.037c2.354,4.567 4.193,17.604 5.367,18.936c1.174,1.332 24.96,10.747 24.96,10.747l27.535,-8.4l17.27,-19.369l6.23,-13.848c0,0 -11.828,-3.101 -13.16,-3.196Z" style="fill:#9bffe5;"/><clipPath id="_clip14"><path d="M71.717,17.776c-1.332,-0.095 -3.803,0.945 -3.803,0.945l0,3.432l2.332,0.768l0.995,1.611l0.769,1.603l0.154,1.194l1.116,2.817c0,0 -0.494,-1.091 -1.932,1.025c-1.439,2.115 -2.062,2.963 -2.062,2.963c0,0 -1.661,2.483 -2.136,3.91c-0.476,1.427 -1.047,4.758 -1.047,4.758c0,0 0.559,0.213 -1.957,0.868c-2.515,0.654 -2.303,-0.825 -3.409,0.105c-1.105,0.93 -2.093,1.047 -2.093,1.047l-2.817,1.408l-2.398,1.199l-1.615,0.808l-8.319,4.159l-3.768,1.884l-5.633,2.817c0,0 0.845,0.645 -3.746,-1.544c-4.592,-2.189 -6.172,-3.541 -6.904,-3.864c-0.733,-0.323 1.742,1.009 -1.494,-1.084c-3.235,-2.094 -5.111,-2.244 -5.267,-3.834c-0.157,-1.59 -0.157,-3.969 -0.157,-3.969c0,0 2.189,0.095 -0.571,-0.666c-2.759,-0.761 -3.214,-1.195 -3.214,-1.195c0,0 1.258,1.278 0,0c-1.258,-1.279 -4.082,-2.041 -3.859,-4.8c0.222,-2.76 0,-4.004 0,-4.004c0,0 1.68,-0.849 0,-1.896c-1.681,-1.046 -2.918,-1.903 -4.155,-3.616c-1.237,-1.713 -1.212,-2.538 -1.212,-2.538c0,0 0.406,-0.887 0,-2.124c-0.406,-1.237 0,-4.473 0,-4.473l0,-4.136c0,0 -0.679,0.07 1.218,-0.609c1.897,-0.679 6.357,-3.178 6.357,-3.178c0,0 2.269,-2.775 -0.239,-3.278c-2.508,-0.503 -7.336,-0.027 -7.336,-0.027c0,0 -3.165,5.614 -3.26,6.851c-0.096,1.237 -1.238,4.758 -0.857,6.756c0.381,1.998 1.763,8.469 4.117,13.037c2.354,4.567 4.193,17.604 5.367,18.936c1.174,1.332 24.96,10.747 24.96,10.747l27.535,-8.4l17.27,-19.369l6.23,-13.848c0,0 -11.828,-3.101 -13.16,-3.196Z"/></clipPath><g clip-path="url(#_clip14)"><path d="M53.303,18.051l18.428,-4.435c10.153,8.259 9.816,21.994 -3.817,42.671l-53.666,8.771l24.443,-15.626l14.612,-31.381Z" style="fill:#bce0cc;fill-opacity:0.5;"/></g><path d="M15.461,4.156l9.52,30.664l-16.099,8.952l-12.122,-28.429l18.701,-11.187Z" style="fill:#191919;fill-opacity:0.5;"/></g></g></svg>