<?xml version="1.0" encoding="UTF-8" standalone="no"?><!DOCTYPE svg PUBLIC "-//W3C//DTD SVG 1.1//EN" "http://www.w3.org/Graphics/SVG/1.1/DTD/svg11.dtd"><svg width="100%" height="100%" viewBox="0 0 73 55" version="1.1" xmlns="http://www.w3.org/2000/svg" xmlns:xlink="http://www.w3.org/1999/xlink" xml:space="preserve" xmlns:serif="http://www.serif.com/" style="fill-rule:evenodd;clip-rule:evenodd;stroke-linejoin:round;stroke-miterlimit:1.41421;"><g id="rock-mossy03"><g id="rock-highlights03"><g><g><g><path d="M68.149,19.513l0,10.733l-10.734,10.733l-37.566,-13.416l16.1,-13.417l32.2,5.367Z" style="fill:#aadadf;"/><clipPath id="_clip1"><path d="M68.149,19.513l0,10.733l-10.734,10.733l-37.566,-13.416l16.1,-13.417l32.2,5.367Z"/></clipPath><g clip-path="url(#_clip1)"><path d="M66.426,40.118l-0.111,-6.191l-8.9,7.052l1.882,4.426l-1.882,0.941l-1.966,-4.384l-21.126,-7.162l-9.107,2.164l-2.708,11.948l-2.659,0.117l-2.509,-1.255l5.708,-11.755l-8.565,-11.139l16.1,2.683l5.366,-2.683l5.367,-24.15l-3.834,24.916l12.123,6.062l0.808,-14.06l-9.097,-15.783l11.499,12.96l1.014,17.214l7.29,-3.645l-0.176,-16.011l1.296,-0.648l2.186,18.21l3.724,0.301l-1.723,9.872Z" style="fill:#aadadf;"/></g><path d="M52.049,0.73l10.733,10.733l-10.733,5.367l-10.733,-16.1l10.733,0Z" style="fill:#aadadf;"/><path d="M62.782,11.463l0,16.1l-10.733,5.366l0,-16.099l10.733,-5.367Z" style="fill:#8efaf0;"/><clipPath id="_clip2"><path d="M62.782,11.463l0,16.1l-10.733,5.366l0,-16.099l10.733,-5.367Z"/></clipPath><g clip-path="url(#_clip2)"><path d="M66.426,40.118l-0.111,-6.191l-8.9,7.052l1.882,4.426l-1.882,0.941l-1.966,-4.384l-21.126,-7.162l-9.107,2.164l-2.708,11.948l-2.659,0.117l-2.509,-1.255l5.708,-11.755l-8.565,-11.139l16.1,2.683l5.366,-2.683l5.367,-24.15l-3.834,24.916l12.123,6.062l0.808,-14.06l-9.097,-15.783l11.499,12.96l1.014,17.214l7.29,-3.645l-0.176,-16.011l1.296,-0.648l2.186,18.21l3.724,0.301l-1.723,9.872Z" style="fill:#aadadf;"/></g><path d="M41.316,0.73l-5.367,24.15l16.1,8.049l0,-16.099l-10.733,-16.1Z" style="fill:#0098a3;"/><clipPath id="_clip3"><path d="M41.316,0.73l-5.367,24.15l16.1,8.049l0,-16.099l-10.733,-16.1Z"/></clipPath><g clip-path="url(#_clip3)"><path d="M66.426,40.118l-0.111,-6.191l-8.9,7.052l1.882,4.426l-1.882,0.941l-1.966,-4.384l-21.126,-7.162l-9.107,2.164l-2.708,11.948l-2.659,0.117l-2.509,-1.255l5.708,-11.755l-8.565,-11.139l16.1,2.683l5.366,-2.683l5.367,-24.15l-3.834,24.916l12.123,6.062l0.808,-14.06l-9.097,-15.783l11.499,12.96l1.014,17.214l7.29,-3.645l-0.176,-16.011l1.296,-0.648l2.186,18.21l3.724,0.301l-1.723,9.872Z" style="fill:#aadadf;"/></g><path d="M68.149,30.246l-1.879,9.794l-8.855,6.306l0,-5.367l10.734,-10.733Z" style="fill:#8efaf0;"/><clipPath id="_clip4"><path d="M68.149,30.246l-1.879,9.794l-8.855,6.306l0,-5.367l10.734,-10.733Z"/></clipPath><g clip-path="url(#_clip4)"><path d="M66.426,40.118l-0.111,-6.191l-8.9,7.052l1.882,4.426l-1.882,0.941l-1.966,-4.384l-21.126,-7.162l-9.107,2.164l-2.708,11.948l-2.659,0.117l-2.509,-1.255l5.708,-11.755l-8.565,-11.139l16.1,2.683l5.366,-2.683l5.367,-24.15l-3.834,24.916l12.123,6.062l0.808,-14.06l-9.097,-15.783l11.499,12.96l1.014,17.214l7.29,-3.645l-0.176,-16.011l1.296,-0.648l2.186,18.21l3.724,0.301l-1.723,9.872Z" style="fill:#aadadf;"/></g><path d="M57.415,40.979l0,5.367l-42.932,0l5.366,-18.783l37.566,13.416Z" style="fill:#0098a3;"/><clipPath id="_clip5"><path d="M57.415,40.979l0,5.367l-42.932,0l5.366,-18.783l37.566,13.416Z"/></clipPath><g clip-path="url(#_clip5)"><path d="M66.426,40.118l-0.111,-6.191l-8.9,7.052l1.882,4.426l-1.882,0.941l-1.966,-4.384l-21.126,-7.162l-9.107,2.164l-2.708,11.948l-2.659,0.117l-2.509,-1.255l5.708,-11.755l-8.565,-11.139l16.1,2.683l5.366,-2.683l5.367,-24.15l-3.834,24.916l12.123,6.062l0.808,-14.06l-9.097,-15.783l11.499,12.96l1.014,17.214l7.29,-3.645l-0.176,-16.011l1.296,-0.648l2.186,18.21l3.724,0.301l-1.723,9.872Z" style="fill:#aadadf;"/></g><path d="M14.483,24.88l16.1,2.683l3.705,4.764l-9.072,3.286l-10.733,-10.733Z" style="fill:#aadadf;"/><path d="M34.297,32.342l-1,15.33l-13.448,1.357l5.367,-13.416l9.081,-3.271Z" style="fill:#8efaf0;"/><clipPath id="_clip6"><path d="M34.297,32.342l-1,15.33l-13.448,1.357l5.367,-13.416l9.081,-3.271Z"/></clipPath><g clip-path="url(#_clip6)"><path d="M66.426,40.118l-0.111,-6.191l-8.9,7.052l1.882,4.426l-1.882,0.941l-1.966,-4.384l-21.126,-7.162l-9.107,2.164l-2.708,11.948l-2.659,0.117l-2.509,-1.255l5.708,-11.755l-8.565,-11.139l16.1,2.683l5.366,-2.683l5.367,-24.15l-3.834,24.916l12.123,6.062l0.808,-14.06l-9.097,-15.783l11.499,12.96l1.014,17.214l7.29,-3.645l-0.176,-16.011l1.296,-0.648l2.186,18.21l3.724,0.301l-1.723,9.872Z" style="fill:#aadadf;"/></g><path d="M14.483,24.88l-10.733,16.099l16.099,8.05l5.367,-13.416l-10.733,-10.733Z" style="fill:#0098a3;"/><clipPath id="_clip7"><path d="M14.483,24.88l-10.733,16.099l16.099,8.05l5.367,-13.416l-10.733,-10.733Z"/></clipPath><g clip-path="url(#_clip7)"><path d="M66.426,40.118l-0.111,-6.191l-8.9,7.052l1.882,4.426l-1.882,0.941l-1.966,-4.384l-21.126,-7.162l-9.107,2.164l-2.708,11.948l-2.659,0.117l-2.509,-1.255l5.708,-11.755l-8.565,-11.139l16.1,2.683l5.366,-2.683l5.367,-24.15l-3.834,24.916l12.123,6.062l0.808,-14.06l-9.097,-15.783l11.499,12.96l1.014,17.214l7.29,-3.645l-0.176,-16.011l1.296,-0.648l2.186,18.21l3.724,0.301l-1.723,9.872Z" style="fill:#aadadf;"/></g></g></g></g></g><path d="M68.149,25.771l3.235,6.984c0,0 1.675,6.421 1.329,7.529c-0.347,1.109 -6.306,7.137 -6.306,7.137l-2.279,3.172c0,0 -6.142,-0.816 -6.713,-0.539c-0.57,0.277 -5.187,0.397 -6.655,0.51c-1.468,0.114 -16.573,1.846 -16.573,1.846l-10.394,1.871c0,0 -2.771,-0.831 -4.504,-1.247c-1.732,-0.416 -3.811,0.693 -6.097,-2.218c-2.287,-2.91 -6.029,-5.959 -7.206,-6.651c-1.178,-0.693 -4.782,-2.426 -4.782,-2.426c0,0 -1.593,-5.404 0.139,-7.067c1.732,-1.663 4.357,-3.619 6.163,-5.413c1.806,-1.794 3.676,-5.535 4.716,-6.505c1.039,-0.97 0.456,-2.16 2.999,-1.981c2.544,0.179 11.986,0.627 11.986,0.627l-5.423,4.541l-7.301,-0.901l-7.32,10.948c0,0 2.564,0.347 4.158,0.07c1.594,-0.278 2.444,-0.07 3.162,-0.624c0.718,-0.554 0.926,-0.624 0.926,-0.624c0,0 -0.951,3.742 -0.926,4.573c0.025,0.832 0,1.386 0,1.386c0,0 0.718,0.347 1.48,1.04c0.763,0.693 2.008,1.805 2.008,1.805l0.97,0.485c0,0 -0.691,-0.627 2.15,-1.805c2.841,-1.178 2.915,-1.802 4.125,-1.455c1.21,0.346 1.973,-0.139 1.973,1.039c0,1.178 0,2.148 0,2.148c0,0 -0.624,0.208 0.485,0.416c1.108,0.208 1.66,0.223 2.909,0.112c1.248,-0.112 -0.991,1.022 1.791,-0.896c2.783,-1.919 1.813,-2.057 5,-3.304c3.188,-1.248 2.963,-2.264 3.942,-1.167c0.978,1.097 1.809,3.245 1.809,3.245l1.317,1.455c0,0 -1.524,-0.485 0,0c1.524,0.485 1.224,0.485 2.24,0.485c1.017,0 0.254,0.07 2.818,-0.207c2.564,-0.278 1.844,-0.402 3.936,-0.305c2.093,0.097 3.063,0.166 3.063,0.166l0.916,0.485c0,0 -1.263,0.97 1.162,0c2.426,-0.97 2.57,-0.775 2.57,-0.775c0,0 1.613,-0.472 1.635,-1.234c0.022,-0.763 -1.225,-0.624 0.576,-1.178c1.802,-0.555 2.98,-1.248 2.98,-1.248l1.811,-8.939l0,-5.366Z" style="fill:#22aecf;"/><clipPath id="_clip8"><path d="M68.149,25.771l3.235,6.984c0,0 1.675,6.421 1.329,7.529c-0.347,1.109 -6.306,7.137 -6.306,7.137l-2.279,3.172c0,0 -6.142,-0.816 -6.713,-0.539c-0.57,0.277 -5.187,0.397 -6.655,0.51c-1.468,0.114 -16.573,1.846 -16.573,1.846l-10.394,1.871c0,0 -2.771,-0.831 -4.504,-1.247c-1.732,-0.416 -3.811,0.693 -6.097,-2.218c-2.287,-2.91 -6.029,-5.959 -7.206,-6.651c-1.178,-0.693 -4.782,-2.426 -4.782,-2.426c0,0 -1.593,-5.404 0.139,-7.067c1.732,-1.663 4.357,-3.619 6.163,-5.413c1.806,-1.794 3.676,-5.535 4.716,-6.505c1.039,-0.97 0.456,-2.16 2.999,-1.981c2.544,0.179 11.986,0.627 11.986,0.627l-5.423,4.541l-7.301,-0.901l-7.32,10.948c0,0 2.564,0.347 4.158,0.07c1.594,-0.278 2.444,-0.07 3.162,-0.624c0.718,-0.554 0.926,-0.624 0.926,-0.624c0,0 -0.951,3.742 -0.926,4.573c0.025,0.832 0,1.386 0,1.386c0,0 0.718,0.347 1.48,1.04c0.763,0.693 2.008,1.805 2.008,1.805l0.97,0.485c0,0 -0.691,-0.627 2.15,-1.805c2.841,-1.178 2.915,-1.802 4.125,-1.455c1.21,0.346 1.973,-0.139 1.973,1.039c0,1.178 0,2.148 0,2.148c0,0 -0.624,0.208 0.485,0.416c1.108,0.208 1.66,0.223 2.909,0.112c1.248,-0.112 -0.991,1.022 1.791,-0.896c2.783,-1.919 1.813,-2.057 5,-3.304c3.188,-1.248 2.963,-2.264 3.942,-1.167c0.978,1.097 1.809,3.245 1.809,3.245l1.317,1.455c0,0 -1.524,-0.485 0,0c1.524,0.485 1.224,0.485 2.24,0.485c1.017,0 0.254,0.07 2.818,-0.207c2.564,-0.278 1.844,-0.402 3.936,-0.305c2.093,0.097 3.063,0.166 3.063,0.166l0.916,0.485c0,0 -1.263,0.97 1.162,0c2.426,-0.97 2.57,-0.775 2.57,-0.775c0,0 1.613,-0.472 1.635,-1.234c0.022,-0.763 -1.225,-0.624 0.576,-1.178c1.802,-0.555 2.98,-1.248 2.98,-1.248l1.811,-8.939l0,-5.366Z"/></clipPath><g clip-path="url(#_clip8)"><path d="M70.822,23.083l-20.692,15.145l5.808,13.637l-21.715,5.242l-0.041,-19.72l-10.769,0.018l-15.755,17.153l60.491,10.284l16.099,-20.288l-13.426,-21.471Z" style="fill:#bce0cc;fill-opacity:0.5;"/><path d="M73.515,33.82l-2.465,2.792l-1.94,3.603l-2.662,2.506c0,0 2.245,0.476 -1.254,3.039c-3.499,2.562 -5.3,3.74 -6.478,3.74c-1.178,0 -3.148,-1.178 -6.667,-1.524c-3.519,-0.347 -6.651,-0.097 -6.651,-0.097l-2.758,-0.458l-3.326,-1.178c0,0 -1.88,-1.386 -3.365,-0.762c-1.485,0.624 -1.277,3.95 -7.86,4.088c-6.582,0.139 -7.145,2.132 -7.245,-0.146c-0.099,-2.279 4.266,-3.665 -0.307,-3.18c-4.574,0.485 -6.875,0.584 -6.875,0.584c0,0 -3.45,-3.633 -3.311,-6.127c0.138,-2.494 -1.235,-3.187 -1.235,-3.187l-2.897,0.225c0,0 -4.589,2.873 -1.58,-0.79c3.01,-3.662 4.477,-4.563 4.477,-4.563c0,0 -4.308,-0.138 -0.844,-2.494c3.465,-2.356 3.558,-2.794 3.558,-2.794c0,0 3.094,-4.69 4.341,-4.69c1.248,0 5.405,2.495 6.722,0.693c1.316,-1.801 4.162,-6.305 2.323,-6.305c-1.838,0 -7.174,-2.911 -11.816,-0.07c-4.643,2.841 -17.323,15.106 -17.323,15.106c0,0 -0.899,10.46 1.248,12.193c2.147,1.734 -2.809,9.01 6.425,10.257c9.234,1.247 61.895,0.485 61.895,0.485l9.146,-12.057l-1.276,-8.889Z" style="fill:#9bffe5;"/><clipPath id="_clip9"><path d="M73.515,33.82l-2.465,2.792l-1.94,3.603l-2.662,2.506c0,0 2.245,0.476 -1.254,3.039c-3.499,2.562 -5.3,3.74 -6.478,3.74c-1.178,0 -3.148,-1.178 -6.667,-1.524c-3.519,-0.347 -6.651,-0.097 -6.651,-0.097l-2.758,-0.458l-3.326,-1.178c0,0 -1.88,-1.386 -3.365,-0.762c-1.485,0.624 -1.277,3.95 -7.86,4.088c-6.582,0.139 -7.145,2.132 -7.245,-0.146c-0.099,-2.279 4.266,-3.665 -0.307,-3.18c-4.574,0.485 -6.875,0.584 -6.875,0.584c0,0 -3.45,-3.633 -3.311,-6.127c0.138,-2.494 -1.235,-3.187 -1.235,-3.187l-2.897,0.225c0,0 -4.589,2.873 -1.58,-0.79c3.01,-3.662 4.477,-4.563 4.477,-4.563c0,0 -4.308,-0.138 -0.844,-2.494c3.465,-2.356 3.558,-2.794 3.558,-2.794c0,0 3.094,-4.69 4.341,-4.69c1.248,0 5.405,2.495 6.722,0.693c1.316,-1.801 4.162,-6.305 2.323,-6.305c-1.838,0 -7.174,-2.911 -11.816,-0.07c-4.643,2.841 -17.323,15.106 -17.323,15.106c0,0 -0.899,10.46 1.248,12.193c2.147,1.734 -2.809,9.01 6.425,10.257c9.234,1.247 61.895,0.485 61.895,0.485l9.146,-12.057l-1.276,-8.889Z"/></clipPath><g clip-path="url(#_clip9)"><path d="M70.822,23.083l-20.692,15.145l5.808,13.637l-21.715,5.242l-0.041,-19.72l-10.769,0.018l-15.755,17.153l60.491,10.284l16.099,-20.288l-13.426,-21.471Z" style="fill:#bce0cc;fill-opacity:0.5;"/></g><path d="M19.849,28.454l-21.466,14.831l-5.366,-24.514c0,0 19.328,-7.76 21.466,-7.021c2.138,0.739 16.1,8.623 16.1,8.623l-10.734,8.081Z" style="fill:#191919;fill-opacity:0.5;"/></g></g></svg>