<?xml version="1.0" encoding="UTF-8" standalone="no"?><!DOCTYPE svg PUBLIC "-//W3C//DTD SVG 1.1//EN" "http://www.w3.org/Graphics/SVG/1.1/DTD/svg11.dtd"><svg width="100%" height="100%" viewBox="0 0 97 72" version="1.1" xmlns="http://www.w3.org/2000/svg" xmlns:xlink="http://www.w3.org/1999/xlink" xml:space="preserve" xmlns:serif="http://www.serif.com/" style="fill-rule:evenodd;clip-rule:evenodd;stroke-linejoin:round;stroke-miterlimit:1.41421;"><g id="rock-runes-mossy13"><g id="rock-mossy13"><g id="rock-runes-highlights13"><g id="rock-highlights13"><g><g><path d="M45.084,0.05l26.833,8.05l-10.733,26.833l-32.2,5.366l-10.733,-26.833l26.833,-13.416Z" style="fill:#8efaf0;"/><clipPath id="_clip1"><path d="M45.084,0.05l26.833,8.05l-10.733,26.833l-32.2,5.366l-10.733,-26.833l26.833,-13.416Z"/></clipPath><g clip-path="url(#_clip1)"><path d="M71.917,8.1l-8.786,25.859l30.252,15.979l-1.394,1.791l-30.805,-15.436l-30.652,6.229l-12.281,24.61l8.721,-26.785l-8.721,-26.881l12.083,24.804l29.959,-4.943l11.624,-25.227Z" style="fill:#aadadf;"/></g><path d="M71.917,8.1l21.466,21.466l0,21.466l-32.199,-16.099l10.733,-26.833" style="fill:#aadadf;"/><clipPath id="_clip2"><path d="M71.917,8.1l21.466,21.466l0,21.466l-32.199,-16.099l10.733,-26.833"/></clipPath><g clip-path="url(#_clip2)"><path d="M71.917,8.1l-8.786,25.859l30.252,15.979l-1.394,1.791l-30.805,-15.436l-30.652,6.229l-12.281,24.61l8.721,-26.785l-8.721,-26.881l12.083,24.804l29.959,-4.943l11.624,-25.227Z" style="fill:#aadadf;"/></g><path d="M61.184,34.933l32.199,16.099l-32.199,16.1l-42.933,0l10.733,-26.833l32.2,-5.366Z" style="fill:#0098a3;"/><clipPath id="_clip3"><path d="M61.184,34.933l32.199,16.099l-32.199,16.1l-42.933,0l10.733,-26.833l32.2,-5.366Z"/></clipPath><g clip-path="url(#_clip3)"><path d="M71.917,8.1l-8.786,25.859l30.252,15.979l-1.394,1.791l-30.805,-15.436l-30.652,6.229l-12.281,24.61l8.721,-26.785l-8.721,-26.881l12.083,24.804l29.959,-4.943l11.624,-25.227Z" style="fill:#aadadf;"/></g><path d="M18.251,13.466l10.733,26.833l-10.733,26.833l-16.099,-34.883l16.099,-18.783Z" style="fill:#007e9b;"/><clipPath id="_clip4"><path d="M18.251,13.466l10.733,26.833l-10.733,26.833l-16.099,-34.883l16.099,-18.783Z"/></clipPath><g clip-path="url(#_clip4)"><path d="M71.917,8.1l-8.786,25.859l30.252,15.979l-1.394,1.791l-30.805,-15.436l-30.652,6.229l-12.281,24.61l8.721,-26.785l-8.721,-26.881l12.083,24.804l29.959,-4.943l11.624,-25.227Z" style="fill:#aadadf;"/></g></g></g></g><path d="M82.65,56.07l-10.733,-10.733l10.733,-5.366l0,-16.1l-10.733,-5.366l-10.733,5.366l0,-5.366l-5.367,-2.684l2.416,4.159l0.932,7.337l12.752,-4.487l6.97,2.923l-1.603,11.534l-13.199,6.6l13.199,15.058l5.366,-2.875" style="fill:#12365f;fill-opacity:0.5;"/><path d="M61.184,66.804l-7.665,-6.901l-29.901,-6.516l-5.367,-18.783l7.077,-3.538l9.023,6.221l16.1,-8.049l-4.58,-19.177l-13.164,4.938l-1.235,7.628l3.735,-3.476l8.045,-4.246l1.832,12.77l-10.733,2.782l-10.733,-3.903l-9.489,10.111l6.038,18.447l1.106,4.814l2.727,-0.981l27.383,2.958l-0.932,4.901l10.733,0Z" style="fill:#1d073c;fill-opacity:0.5;"/></g><path d="M94.698,32.665l-1.315,-5.575l-2.414,2.16l-1.599,3.214l0.4,12.286l-0.094,3.66l-9.785,-0.474c0,0 2.395,2.558 1.143,4.795c-1.251,2.237 -7.321,5.457 -7.321,5.457l-14.162,3.652l-10.381,1.457l-4.086,-3.324l-4.306,2.153c0,0 -0.505,2.056 -3.122,1.561c-2.617,-0.495 -1.762,1.456 -3.305,-0.913c-1.542,-2.37 0.311,-2.593 -2.288,-3.945c-2.6,-1.352 -7.182,-0.681 -8.445,1.144c-1.264,1.825 -1.047,0.028 -3.246,1.623c-2.199,1.596 -0.642,-5.046 -0.642,-5.046l-3.223,-5.499l0.157,-3.701l-5.461,-5.903c0,0 0.244,1.743 -1.063,-1.568c-1.306,-3.311 -0.129,-8.175 -0.129,-8.175l-1.209,-1.889l-3.14,-0.286l-1.226,-0.613l-0.234,-2.168l-3.345,1.673l-0.408,3.868l1.703,8.322l1.866,4.195l3.5,1.751l1.229,4.752l1.421,4.656l3.82,3.457l-1.103,4.327l2.082,3.903l5.192,1.325l8.825,1.184l16.1,-0.836l13.955,-0.229l8.959,2.334l3.919,-6.147l7.26,-4.363c0,0 -1.304,2.467 1.394,0.697c2.697,-1.771 4.467,0.264 5.882,-2.426c1.415,-2.69 5.482,-6.543 5.482,-6.543l4.206,-2.104l-2.758,-3.987l0,-5.367l1.315,-8.525Z" style="fill:#22aecf;"/><clipPath id="_clip5"><path d="M94.698,32.665l-1.315,-5.575l-2.414,2.16l-1.599,3.214l0.4,12.286l-0.094,3.66l-9.785,-0.474c0,0 2.395,2.558 1.143,4.795c-1.251,2.237 -7.321,5.457 -7.321,5.457l-14.162,3.652l-10.381,1.457l-4.086,-3.324l-4.306,2.153c0,0 -0.505,2.056 -3.122,1.561c-2.617,-0.495 -1.762,1.456 -3.305,-0.913c-1.542,-2.37 0.311,-2.593 -2.288,-3.945c-2.6,-1.352 -7.182,-0.681 -8.445,1.144c-1.264,1.825 -1.047,0.028 -3.246,1.623c-2.199,1.596 -0.642,-5.046 -0.642,-5.046l-3.223,-5.499l0.157,-3.701l-5.461,-5.903c0,0 0.244,1.743 -1.063,-1.568c-1.306,-3.311 -0.129,-8.175 -0.129,-8.175l-1.209,-1.889l-3.14,-0.286l-1.226,-0.613l-0.234,-2.168l-3.345,1.673l-0.408,3.868l1.703,8.322l1.866,4.195l3.5,1.751l1.229,4.752l1.421,4.656l3.82,3.457l-1.103,4.327l2.082,3.903l5.192,1.325l8.825,1.184l16.1,-0.836l13.955,-0.229l8.959,2.334l3.919,-6.147l7.26,-4.363c0,0 -1.304,2.467 1.394,0.697c2.697,-1.771 4.467,0.264 5.882,-2.426c1.415,-2.69 5.482,-6.543 5.482,-6.543l4.206,-2.104l-2.758,-3.987l0,-5.367l1.315,-8.525Z"/></clipPath><g clip-path="url(#_clip5)"><path d="M103.1,35.429l-10.697,-10.829l-18.572,17.353l-5.367,4.758l26.374,15.218l5.826,1.299l2.436,-27.799" style="fill:#bce0cc;fill-opacity:0.5;"/><path d="M94.283,30.907l-0.9,0.909l-1.429,4.722l-1.225,14.058l-4.715,3.009l-7.751,4.795l-5.133,3.65l-7.28,3.64l-14.386,1.826l-7.279,-0.284l-10.824,-1.398l-7.198,0.778l-7.912,-1.521l-1.723,-3.296l0.366,-3.827l-4.857,-3.785l-0.681,-3.098l-0.134,-2.676l-3.704,-5.531l-1.179,-2.277l-1.228,-7.626l-2.959,-6.779l-6.943,-4.104l2.209,14.048l7.069,29.308l7.315,6.601l67.839,2.845l15.008,-16.971l5.649,-7.909l-6.015,-19.107Z" style="fill:#9bffe5;"/><clipPath id="_clip6"><path d="M94.283,30.907l-0.9,0.909l-1.429,4.722l-1.225,14.058l-4.715,3.009l-7.751,4.795l-5.133,3.65l-7.28,3.64l-14.386,1.826l-7.279,-0.284l-10.824,-1.398l-7.198,0.778l-7.912,-1.521l-1.723,-3.296l0.366,-3.827l-4.857,-3.785l-0.681,-3.098l-0.134,-2.676l-3.704,-5.531l-1.179,-2.277l-1.228,-7.626l-2.959,-6.779l-6.943,-4.104l2.209,14.048l7.069,29.308l7.315,6.601l67.839,2.845l15.008,-16.971l5.649,-7.909l-6.015,-19.107Z"/></clipPath><g clip-path="url(#_clip6)"><path d="M103.1,35.429l-10.697,-10.829l-18.572,17.353l-5.367,4.758l26.374,15.218l5.826,1.299l2.436,-27.799" style="fill:#bce0cc;fill-opacity:0.5;"/></g><path d="M1.777,66.288l16.256,4.548l5.018,-27.6l1.614,-7.723l-9.626,-24.916l-28.987,27.013l15.725,28.678" style="fill:#191919;fill-opacity:0.5;"/></g></g></g></svg>