<?xml version="1.0" encoding="UTF-8" standalone="no"?><!DOCTYPE svg PUBLIC "-//W3C//DTD SVG 1.1//EN" "http://www.w3.org/Graphics/SVG/1.1/DTD/svg11.dtd"><svg width="100%" height="100%" viewBox="0 0 85 61" version="1.1" xmlns="http://www.w3.org/2000/svg" xmlns:xlink="http://www.w3.org/1999/xlink" xml:space="preserve" xmlns:serif="http://www.serif.com/" style="fill-rule:evenodd;clip-rule:evenodd;stroke-linejoin:round;stroke-miterlimit:1.41421;"><g id="rock-runes-mossy04"><g id="rock-mossy04"><g id="rock-runes-highlights04"><g id="rock-highlights04"><g><g><g><g><path d="M13.756,19.748l16.1,-8.05l32.199,0l16.1,8.05l-21.466,16.099l-21.467,0c0,0 -22.082,-9.395 -21.466,-9.395c0.616,0 0,-6.704 0,-6.704" style="fill:#aadadf;"/><path d="M13.756,19.748l-5.367,2.683l0,10.733l7.313,-5.891l-1.946,-7.525Z" style="fill:#007e9b;"/><clipPath id="_clip1"><path d="M13.756,19.748l-5.367,2.683l0,10.733l7.313,-5.891l-1.946,-7.525Z"/></clipPath><g clip-path="url(#_clip1)"><path d="M83.521,38.531l-7.304,-16.802l-17.714,15.827l1.814,12.577l-4.216,2.108l-1.12,-14.309l1.708,-0.968l0,13.961l0,-13.616l-21.467,0.029l1.931,10.208l-4.725,-2.363l2.794,-9.336l-19.549,-6.325l-7.284,3.642l5.367,-6.478l0,-6.938l14.685,10.84l26.683,1.793l4.488,-3.362l-13.657,-7.923l-13.246,8.128l9.021,-10.448l-13.922,-9.492l17.368,4.708l7.463,-13.686l2.485,0.013l1.565,12.446l9.281,6.257l12.185,0.726l5.366,18.783Z" style="fill:#aadadf;"/></g><path d="M15.61,27.258l-7.221,5.906l26.833,13.416l0,-10.733l-19.612,-8.589" style="fill:#007e9b;"/><clipPath id="_clip2"><path d="M15.61,27.258l-7.221,5.906l26.833,13.416l0,-10.733l-19.612,-8.589"/></clipPath><g clip-path="url(#_clip2)"><path d="M83.521,38.531l-7.304,-16.802l-17.714,15.827l1.814,12.577l-4.216,2.108l-1.12,-14.309l1.708,-0.968l0,13.961l0,-13.616l-21.467,0.029l1.931,10.208l-4.725,-2.363l2.794,-9.336l-19.549,-6.325l-7.284,3.642l5.367,-6.478l0,-6.938l14.685,10.84l26.683,1.793l4.488,-3.362l-13.657,-7.923l-13.246,8.128l9.021,-10.448l-13.922,-9.492l17.368,4.708l7.463,-13.686l2.485,0.013l1.565,12.446l9.281,6.257l12.185,0.726l5.366,18.783Z" style="fill:#aadadf;"/></g><path d="M35.222,35.847l0,10.733l21.467,5.367l0,-16.1l-21.467,0" style="fill:#0098a3;"/><clipPath id="_clip3"><path d="M35.222,35.847l0,10.733l21.467,5.367l0,-16.1l-21.467,0"/></clipPath><g clip-path="url(#_clip3)"><path d="M83.521,38.531l-7.304,-16.802l-17.714,15.827l1.814,12.577l-4.216,2.108l-1.12,-14.309l1.708,-0.968l0,13.961l0,-13.616l-21.467,0.029l1.931,10.208l-4.725,-2.363l2.794,-9.336l-19.549,-6.325l-7.284,3.642l5.367,-6.478l0,-6.938l14.685,10.84l26.683,1.793l4.488,-3.362l-13.657,-7.923l-13.246,8.128l9.021,-10.448l-13.922,-9.492l17.368,4.708l7.463,-13.686l2.485,0.013l1.565,12.446l9.281,6.257l12.185,0.726l5.366,18.783Z" style="fill:#aadadf;"/></g><path d="M78.155,19.748l-21.466,16.099l0,16.1l26.832,-13.416l-5.366,-18.783Z" style="fill:#8efaf0;"/><clipPath id="_clip4"><path d="M78.155,19.748l-21.466,16.099l0,16.1l26.832,-13.416l-5.366,-18.783Z"/></clipPath><g clip-path="url(#_clip4)"><path d="M83.521,38.531l-7.304,-16.802l-17.714,15.827l1.814,12.577l-4.216,2.108l-1.12,-14.309l1.708,-0.968l0,13.961l0,-13.616l-21.467,0.029l1.931,10.208l-4.725,-2.363l2.794,-9.336l-19.549,-6.325l-7.284,3.642l5.367,-6.478l0,-6.938l14.685,10.84l26.683,1.793l4.488,-3.362l-13.657,-7.923l-13.246,8.128l9.021,-10.448l-13.922,-9.492l17.368,4.708l7.463,-13.686l2.485,0.013l1.565,12.446l9.281,6.257l12.185,0.726l5.366,18.783Z" style="fill:#aadadf;"/></g></g></g><g><g><path d="M36.693,0.03l18.154,0l-9.077,18.154l-18.154,-9.077l9.077,-9.077Z" style="fill:#8efaf0;"/><clipPath id="_clip5"><path d="M36.693,0.03l18.154,0l-9.077,18.154l-18.154,-9.077l9.077,-9.077Z"/></clipPath><g clip-path="url(#_clip5)"><path d="M83.521,38.531l-7.304,-16.802l-17.714,15.827l1.814,12.577l-4.216,2.108l-1.12,-14.309l1.708,-0.968l0,13.961l0,-13.616l-21.467,0.029l1.931,10.208l-4.725,-2.363l2.794,-9.336l-19.549,-6.325l-7.284,3.642l5.367,-6.478l0,-6.938l14.685,10.84l26.683,1.793l4.488,-3.362l-13.657,-7.923l-13.246,8.128l9.021,-10.448l-13.922,-9.492l17.368,4.708l7.463,-13.686l2.485,0.013l1.565,12.446l9.281,6.257l12.185,0.726l5.366,18.783Z" style="fill:#aadadf;"/></g><path d="M54.847,0.03l4.538,11.346l0,18.154l-13.615,-11.346l9.077,-18.154Z" style="fill:#aadadf;"/><path d="M59.385,29.53l-27.23,0l13.615,-11.346l13.615,11.346Z" style="fill:#0098a3;"/><clipPath id="_clip6"><path d="M59.385,29.53l-27.23,0l13.615,-11.346l13.615,11.346Z"/></clipPath><g clip-path="url(#_clip6)"><path d="M83.521,38.531l-7.304,-16.802l-17.714,15.827l1.814,12.577l-4.216,2.108l-1.12,-14.309l1.708,-0.968l0,13.961l0,-13.616l-21.467,0.029l1.931,10.208l-4.725,-2.363l2.794,-9.336l-19.549,-6.325l-7.284,3.642l5.367,-6.478l0,-6.938l14.685,10.84l26.683,1.793l4.488,-3.362l-13.657,-7.923l-13.246,8.128l9.021,-10.448l-13.922,-9.492l17.368,4.708l7.463,-13.686l2.485,0.013l1.565,12.446l9.281,6.257l12.185,0.726l5.366,18.783Z" style="fill:#aadadf;"/></g><path d="M32.155,29.53l-13.615,-6.808l9.076,-13.615l18.154,9.077l-13.615,11.346Z" style="fill:#007e9b;"/><clipPath id="_clip7"><path d="M32.155,29.53l-13.615,-6.808l9.076,-13.615l18.154,9.077l-13.615,11.346Z"/></clipPath><g clip-path="url(#_clip7)"><path d="M83.521,38.531l-7.304,-16.802l-17.714,15.827l1.814,12.577l-4.216,2.108l-1.12,-14.309l1.708,-0.968l0,13.961l0,-13.616l-21.467,0.029l1.931,10.208l-4.725,-2.363l2.794,-9.336l-19.549,-6.325l-7.284,3.642l5.367,-6.478l0,-6.938l14.685,10.84l26.683,1.793l4.488,-3.362l-13.657,-7.923l-13.246,8.128l9.021,-10.448l-13.922,-9.492l17.368,4.708l7.463,-13.686l2.485,0.013l1.565,12.446l9.281,6.257l12.185,0.726l5.366,18.783Z" style="fill:#aadadf;"/></g></g></g></g></g></g><path d="M83.521,38.202l-6.161,-10.422l-7.968,5.097l4.788,-10.078l-12.125,-6.063l0,10.733l2.53,-1.265l0.265,-5.499l6.552,3.916l-5.356,10.21l-9.357,6.055l-10.734,-1.836l-4.862,4.771l-5.871,-5.058l-6.172,1.794l-15.294,-11.198l0,-9.332l-3.944,1.364l1.767,9.85l17.346,11.863l6.297,-0.537l7.539,3.805l3.194,-4.738l3.84,5.312l2.336,1.585l-0.809,-1.944l-2.316,-3.445l7.683,-0.359l20.057,-11.926l3.833,8.816l2.942,-1.471Z" style="fill:#12365f;fill-opacity:0.65;"/><path d="M59.043,28.975l-2.354,-18.28l-8.832,8.973l1.93,1.667l5.716,-6.69l0.466,11.986l-7.323,-0.5l-2.691,-3.448l0,-4.522l3.209,-13.237l-6.906,-1.12l-7.036,4.882l-3.66,2.512l-1.706,10.905l3.337,3.698l1.235,-0.618l-1.071,-2.643l-0.431,-1.077l0.646,-9.476l8.765,-5.11l3.618,0.947l-2.118,9.619l-4.235,2.728l1.803,1.524l3.015,-1.508l0.005,3.834l2.284,2.969l12.334,1.985Z" style="fill:#12365f;fill-opacity:0.65;"/></g><path d="M81.274,39.654c0,0 -7.045,4.566 -7.561,5.597c-0.515,1.03 -2.389,4.172 -2.389,4.172l-0.851,1.889c0,0 0.037,0.866 -1.607,2.248c-1.644,1.383 -1.038,1.036 -3.117,1.989c-2.078,0.953 -0.892,1.299 -3.694,1.559c-2.802,0.26 -2.829,0.465 -4.504,0.666c-1.676,0.2 -0.983,0.287 -3.408,0.373c-2.425,0.087 -0.866,-0.173 -5.11,0.173c-4.244,0.347 -2.079,0.26 -5.976,0.347c-3.898,0.087 -4.635,3.12 -5.782,0.564c-1.148,-2.556 4.915,-0.391 -3.14,-4.548c-8.055,-4.158 -9.646,-4.244 -9.646,-4.244c0,0 -0.054,3.378 -1.354,3.897c-1.299,0.52 -1.559,1.213 -1.559,1.213l-0.133,1.133c0,0 -0.133,0.266 -1.386,-0.693c-1.252,-0.96 -2.205,-2.346 -2.205,-2.346c0,0 -2.165,1.126 -0.52,-0.779c1.646,-1.906 1.791,-2.709 1.791,-2.709c0,0 -0.492,-1.968 -1.617,-2.228c-1.126,-0.26 -2.889,-0.025 -2.889,-0.025c0,0 -0.28,-0.495 -0.861,0.718c-0.581,1.212 -0.928,1.386 -0.928,1.386l-2.595,-0.773c0,0 -2.731,0.513 -1.844,-0.96c0.888,-1.472 1.148,-2.078 1.148,-2.078l0.421,-2.191l-2.5,-1.62l-0.866,0.173l-3.569,-0.452l-0.935,-1.28c0,0 -0.868,-0.784 -0.824,-3.207c0.045,-2.423 -0.403,-3.692 0.254,-6.999c0.657,-3.306 -3.445,0.875 0.511,-4.117c3.957,-4.992 1.965,-2.221 4.303,-5.339c2.339,-3.118 -1.362,0.394 3.39,-3.874c4.752,-4.267 1.374,-4.701 5.965,-4.701c4.59,0 8.802,-2.682 8.802,-2.682l1.723,0.861l-2.632,4.051l-15.191,7.471l1.495,3.811l1.385,-0.346l0.953,1.992c0,0 0.173,-0.606 0.606,1.126c0.433,1.732 0.928,3.291 0.928,3.291c0,0 -0.495,0.866 1.064,0.52c1.56,-0.347 -1.94,-0.016 1.802,0.122c3.742,0.138 3.512,0.024 4.493,0.254c0.981,0.23 2.107,1.269 2.107,1.269c0,0 -0.174,0.521 0.086,1.82c0.26,1.299 1.181,2.078 1.181,2.078c0,0 -1.007,-0.087 1.418,0c2.425,0.087 2.96,-0.26 3.949,0.087c0.988,0.346 1.65,0.284 1.65,0.284l0.845,2.072c0,0 -0.273,1.324 0.712,2.515c0.986,1.192 1.938,1.711 3.064,2.058c1.126,0.346 0.054,0.02 2.236,0.659c2.182,0.64 1.489,0.813 2.961,0.813c1.473,0 -0.191,-1.003 2.633,-0.242c2.824,0.762 2.997,1.022 5.249,1.195c2.252,0.173 0.074,-0.173 2.116,0.173c2.042,0.347 3.945,0.342 3.945,0.342c0,0 -0.781,2.437 2.685,-0.079c3.467,-2.515 1.176,-4.498 3.274,-2.9c2.098,1.598 3.83,2.118 3.83,2.118c0,0 -1.355,-3.145 -0.331,-3.868c1.024,-0.723 1.944,-2.666 2.697,-1.348c0.753,1.318 1.359,3.483 1.186,2.271c-0.174,-1.213 -0.087,-2.772 -0.347,-4.851c-0.26,-2.078 -1.813,-3.389 0.046,-2.344c1.86,1.045 0.56,2.518 2.466,2.171c1.905,-0.346 1.819,-2.685 3.118,-1.905c1.299,0.779 0.617,1.115 0.617,1.115c0,0 1.646,0.89 1.3,-2.314c-0.347,-3.205 0.144,-3.775 0.144,-3.775c0,0 -0.414,-3.859 -1.974,-4.38c-1.559,-0.52 -5.411,-0.78 -1.19,-0.607c4.221,0.173 5.367,0.346 5.367,0.346c0,0 -0.414,0.496 0,3.54c0.413,3.043 0.76,3.476 0.76,3.476l0.465,1.278l2.393,0.021l1.748,1.213l0.847,1.638l-3.094,0.656Z" style="fill:#22aecf;"/><clipPath id="_clip8"><path d="M81.274,39.654c0,0 -7.045,4.566 -7.561,5.597c-0.515,1.03 -2.389,4.172 -2.389,4.172l-0.851,1.889c0,0 0.037,0.866 -1.607,2.248c-1.644,1.383 -1.038,1.036 -3.117,1.989c-2.078,0.953 -0.892,1.299 -3.694,1.559c-2.802,0.26 -2.829,0.465 -4.504,0.666c-1.676,0.2 -0.983,0.287 -3.408,0.373c-2.425,0.087 -0.866,-0.173 -5.11,0.173c-4.244,0.347 -2.079,0.26 -5.976,0.347c-3.898,0.087 -4.635,3.12 -5.782,0.564c-1.148,-2.556 4.915,-0.391 -3.14,-4.548c-8.055,-4.158 -9.646,-4.244 -9.646,-4.244c0,0 -0.054,3.378 -1.354,3.897c-1.299,0.52 -1.559,1.213 -1.559,1.213l-0.133,1.133c0,0 -0.133,0.266 -1.386,-0.693c-1.252,-0.96 -2.205,-2.346 -2.205,-2.346c0,0 -2.165,1.126 -0.52,-0.779c1.646,-1.906 1.791,-2.709 1.791,-2.709c0,0 -0.492,-1.968 -1.617,-2.228c-1.126,-0.26 -2.889,-0.025 -2.889,-0.025c0,0 -0.28,-0.495 -0.861,0.718c-0.581,1.212 -0.928,1.386 -0.928,1.386l-2.595,-0.773c0,0 -2.731,0.513 -1.844,-0.96c0.888,-1.472 1.148,-2.078 1.148,-2.078l0.421,-2.191l-2.5,-1.62l-0.866,0.173l-3.569,-0.452l-0.935,-1.28c0,0 -0.868,-0.784 -0.824,-3.207c0.045,-2.423 -0.403,-3.692 0.254,-6.999c0.657,-3.306 -3.445,0.875 0.511,-4.117c3.957,-4.992 1.965,-2.221 4.303,-5.339c2.339,-3.118 -1.362,0.394 3.39,-3.874c4.752,-4.267 1.374,-4.701 5.965,-4.701c4.59,0 8.802,-2.682 8.802,-2.682l1.723,0.861l-2.632,4.051l-15.191,7.471l1.495,3.811l1.385,-0.346l0.953,1.992c0,0 0.173,-0.606 0.606,1.126c0.433,1.732 0.928,3.291 0.928,3.291c0,0 -0.495,0.866 1.064,0.52c1.56,-0.347 -1.94,-0.016 1.802,0.122c3.742,0.138 3.512,0.024 4.493,0.254c0.981,0.23 2.107,1.269 2.107,1.269c0,0 -0.174,0.521 0.086,1.82c0.26,1.299 1.181,2.078 1.181,2.078c0,0 -1.007,-0.087 1.418,0c2.425,0.087 2.96,-0.26 3.949,0.087c0.988,0.346 1.65,0.284 1.65,0.284l0.845,2.072c0,0 -0.273,1.324 0.712,2.515c0.986,1.192 1.938,1.711 3.064,2.058c1.126,0.346 0.054,0.02 2.236,0.659c2.182,0.64 1.489,0.813 2.961,0.813c1.473,0 -0.191,-1.003 2.633,-0.242c2.824,0.762 2.997,1.022 5.249,1.195c2.252,0.173 0.074,-0.173 2.116,0.173c2.042,0.347 3.945,0.342 3.945,0.342c0,0 -0.781,2.437 2.685,-0.079c3.467,-2.515 1.176,-4.498 3.274,-2.9c2.098,1.598 3.83,2.118 3.83,2.118c0,0 -1.355,-3.145 -0.331,-3.868c1.024,-0.723 1.944,-2.666 2.697,-1.348c0.753,1.318 1.359,3.483 1.186,2.271c-0.174,-1.213 -0.087,-2.772 -0.347,-4.851c-0.26,-2.078 -1.813,-3.389 0.046,-2.344c1.86,1.045 0.56,2.518 2.466,2.171c1.905,-0.346 1.819,-2.685 3.118,-1.905c1.299,0.779 0.617,1.115 0.617,1.115c0,0 1.646,0.89 1.3,-2.314c-0.347,-3.205 0.144,-3.775 0.144,-3.775c0,0 -0.414,-3.859 -1.974,-4.38c-1.559,-0.52 -5.411,-0.78 -1.19,-0.607c4.221,0.173 5.367,0.346 5.367,0.346c0,0 -0.414,0.496 0,3.54c0.413,3.043 0.76,3.476 0.76,3.476l0.465,1.278l2.393,0.021l1.748,1.213l0.847,1.638l-3.094,0.656Z"/></clipPath><g clip-path="url(#_clip8)"><path d="M80.803,19.315l-29.481,14.74l-3.537,30.431l50.184,-21.555l-17.166,-23.616Z" style="fill:#bce0cc;fill-opacity:0.5;"/><path d="M24.489,7.478l-2.849,6.369l-1.796,0.301l-1.732,0.692c0,0 -1.126,0 -1.992,0.78c-0.866,0.779 -1.646,1.386 -1.646,1.386l-1.559,0.866l-1.839,1.427l-2.687,1.604c0,0 -2.285,-1.361 -2.301,1.268c-0.015,2.63 0.036,5.385 0.036,5.385l0.451,0.225c0,0 3.396,-3.845 3.006,0.312c-0.39,4.157 -1.192,5.962 -1.192,5.962l2.137,1.068c0,0 -1.335,1.457 1.783,-0.102c3.118,-1.559 3.932,-2.407 3.932,-2.407c0,0 0.398,0.155 0.918,1.455c0.52,1.299 0.78,2.338 0.866,3.551c0.087,1.212 0.005,2.348 0.005,2.348c0,0 -1.275,1.549 1.093,1.636c2.367,0.087 0.634,-1.819 2.8,0.087c2.165,1.905 1.212,1.039 3.378,2.685c2.165,1.645 1.126,0.952 3.031,2.252c1.906,1.299 -0.185,3.229 3.155,4.343c3.341,1.113 -1.241,1.148 3.735,1.867c4.976,0.719 3.59,0.459 6.276,1.065c2.685,0.606 1,2.261 2.752,-0.212c1.751,-2.473 1.705,-3.685 1.705,-3.685c0,0 0.22,-0.52 1.865,1.039c1.646,1.559 3.502,4.476 3.502,4.476c0,0 -2.677,0.81 0.895,-0.447c3.572,-1.257 2.859,-0.911 4.472,-1.344c1.612,-0.433 -0.087,0.452 1.715,-0.034c1.802,-0.486 0.33,-0.486 2.062,-0.486c1.732,0 1.589,0 1.589,0l2.619,-1.746l1.855,-0.679l-1.023,-1.49l0.993,-0.999c0,0 0.17,-1.107 0.923,-0.825c0.753,0.283 1.165,0.583 1.165,0.583c0,0 -1.192,3.77 0.367,0.999c1.559,-2.772 1.732,-6.15 1.732,-6.15l0.174,-0.866l2.858,0.347l0.866,0.433l0.341,-1.695l1.738,-1.164l1.492,-0.433c0,0 -2.761,-5.136 -0.611,-2.481c2.15,2.655 1.727,3.628 3.151,3.791c1.424,0.163 2.826,-0.184 2.826,-0.184c0,0 0.18,1.947 -2.776,2.749c-2.956,0.802 -6.579,12.81 -6.579,12.81l-10.494,5.486l-47.466,-1.47l-16.607,-11.042l-1.943,-27.328l12.92,-11.953l13.913,-2.425Z" style="fill:#9bffe5;"/><clipPath id="_clip9"><path d="M24.489,7.478l-2.849,6.369l-1.796,0.301l-1.732,0.692c0,0 -1.126,0 -1.992,0.78c-0.866,0.779 -1.646,1.386 -1.646,1.386l-1.559,0.866l-1.839,1.427l-2.687,1.604c0,0 -2.285,-1.361 -2.301,1.268c-0.015,2.63 0.036,5.385 0.036,5.385l0.451,0.225c0,0 3.396,-3.845 3.006,0.312c-0.39,4.157 -1.192,5.962 -1.192,5.962l2.137,1.068c0,0 -1.335,1.457 1.783,-0.102c3.118,-1.559 3.932,-2.407 3.932,-2.407c0,0 0.398,0.155 0.918,1.455c0.52,1.299 0.78,2.338 0.866,3.551c0.087,1.212 0.005,2.348 0.005,2.348c0,0 -1.275,1.549 1.093,1.636c2.367,0.087 0.634,-1.819 2.8,0.087c2.165,1.905 1.212,1.039 3.378,2.685c2.165,1.645 1.126,0.952 3.031,2.252c1.906,1.299 -0.185,3.229 3.155,4.343c3.341,1.113 -1.241,1.148 3.735,1.867c4.976,0.719 3.59,0.459 6.276,1.065c2.685,0.606 1,2.261 2.752,-0.212c1.751,-2.473 1.705,-3.685 1.705,-3.685c0,0 0.22,-0.52 1.865,1.039c1.646,1.559 3.502,4.476 3.502,4.476c0,0 -2.677,0.81 0.895,-0.447c3.572,-1.257 2.859,-0.911 4.472,-1.344c1.612,-0.433 -0.087,0.452 1.715,-0.034c1.802,-0.486 0.33,-0.486 2.062,-0.486c1.732,0 1.589,0 1.589,0l2.619,-1.746l1.855,-0.679l-1.023,-1.49l0.993,-0.999c0,0 0.17,-1.107 0.923,-0.825c0.753,0.283 1.165,0.583 1.165,0.583c0,0 -1.192,3.77 0.367,0.999c1.559,-2.772 1.732,-6.15 1.732,-6.15l0.174,-0.866l2.858,0.347l0.866,0.433l0.341,-1.695l1.738,-1.164l1.492,-0.433c0,0 -2.761,-5.136 -0.611,-2.481c2.15,2.655 1.727,3.628 3.151,3.791c1.424,0.163 2.826,-0.184 2.826,-0.184c0,0 0.18,1.947 -2.776,2.749c-2.956,0.802 -6.579,12.81 -6.579,12.81l-10.494,5.486l-47.466,-1.47l-16.607,-11.042l-1.943,-27.328l12.92,-11.953l13.913,-2.425Z"/></clipPath><g clip-path="url(#_clip9)"><path d="M80.803,19.315l-29.481,14.74l-3.537,30.431l50.184,-21.555l-17.166,-23.616Z" style="fill:#bce0cc;fill-opacity:0.5;"/></g><path d="M33.093,30.307l-32.493,13.009l-6.2,-23.733l40.822,-13.903l-1.242,25.071" style="fill:#191919;fill-opacity:0.5;"/></g></g></g></svg>