<?xml version="1.0" encoding="UTF-8" standalone="no"?><!DOCTYPE svg PUBLIC "-//W3C//DTD SVG 1.1//EN" "http://www.w3.org/Graphics/SVG/1.1/DTD/svg11.dtd"><svg width="100%" height="100%" viewBox="0 0 38 38" version="1.1" xmlns="http://www.w3.org/2000/svg" xmlns:xlink="http://www.w3.org/1999/xlink" xml:space="preserve" xmlns:serif="http://www.serif.com/" style="fill-rule:evenodd;clip-rule:evenodd;stroke-linejoin:round;stroke-miterlimit:1.41421;"><g id="rock-runes-mossy08"><g id="rock-mossy08"><g id="rock-runes-highlights08"><g id="rock-highlights08"><g><g><path d="M17.589,0.032l10.733,5.367l-10.733,10.733l-5.367,-8.05l0,-5.367l5.367,-2.683" style="fill:#aadadf;"/><clipPath id="_clip1"><path d="M17.589,0.032l10.733,5.367l-10.733,10.733l-5.367,-8.05l0,-5.367l5.367,-2.683"/></clipPath><g clip-path="url(#_clip1)"><path d="M29.306,7.477l-10.285,9.371l-6.799,12.7l2.656,-13.465l-2.656,-7.087l-5.366,17.869l3.909,-18.881l0.513,-4.796l17.044,2.211l0.984,2.078Z" style="fill:#aadadf;"/></g><path d="M28.322,5.399l5.367,13.416l-5.367,13.417l-16.1,-2.684l5.367,-13.416l10.733,-10.733Z" style="fill:#8efaf0;"/><clipPath id="_clip2"><path d="M28.322,5.399l5.367,13.416l-5.367,13.417l-16.1,-2.684l5.367,-13.416l10.733,-10.733Z"/></clipPath><g clip-path="url(#_clip2)"><path d="M29.306,7.477l-10.285,9.371l-6.799,12.7l2.656,-13.465l-2.656,-7.087l-5.366,17.869l3.909,-18.881l0.513,-4.796l17.044,2.211l0.984,2.078Z" style="fill:#aadadf;"/></g><path d="M12.222,29.548l-5.366,-2.683l5.366,-18.783l5.367,8.05l-5.367,13.416Z" style="fill:#0098a3;"/><clipPath id="_clip3"><path d="M12.222,29.548l-5.366,-2.683l5.366,-18.783l5.367,8.05l-5.367,13.416Z"/></clipPath><g clip-path="url(#_clip3)"><path d="M29.306,7.477l-10.285,9.371l-6.799,12.7l2.656,-13.465l-2.656,-7.087l-5.366,17.869l3.909,-18.881l0.513,-4.796l17.044,2.211l0.984,2.078Z" style="fill:#aadadf;"/></g><path d="M12.222,2.715l-5.366,2.684l0,21.466l5.366,-18.783l0,-5.367" style="fill:#007e9b;"/><clipPath id="_clip4"><path d="M12.222,2.715l-5.366,2.684l0,21.466l5.366,-18.783l0,-5.367"/></clipPath><g clip-path="url(#_clip4)"><path d="M29.306,7.477l-10.285,9.371l-6.799,12.7l2.656,-13.465l-2.656,-7.087l-5.366,17.869l3.909,-18.881l0.513,-4.796l17.044,2.211l0.984,2.078Z" style="fill:#aadadf;"/></g></g></g></g><path d="M20.824,3.453l-4.961,2.481l6.401,5.623l0.691,9.993l-7.383,0.629l-4.487,-9.627l-4.229,1.188l0,3.445l3.463,-1.895l3.445,10.854l11.994,-3.692l-0.566,-5.611l3.733,1.665l1.307,8.986l2.078,-4.328l-1.529,-6.131l-6.041,-3.02l-0.237,-4.753l-2.01,-0.344l-3.531,-3.159l3.993,0.747l-2.131,-3.051" style="fill:#12365f;fill-opacity:0.5;"/><path d="M20.824,3.453l-4.961,2.481l6.401,5.623l0.691,9.993l-7.383,0.629l-4.487,-9.627l-4.229,1.188l0,3.445l3.463,-1.895l3.445,10.854l11.994,-3.692l-0.566,-5.611l3.733,1.665l1.307,8.986l2.078,-4.328l-1.529,-6.131l-6.041,-3.02l-0.237,-4.753l-2.01,-0.344l-3.531,-3.159l3.993,0.747l-2.131,-3.051" style="fill:#12365f;fill-opacity:0.5;"/></g><path d="M32.197,15.086l3.199,-0.678l1.979,6.395l-3.686,5.252l-3.013,7.384l0.076,1.904c0,0 1.066,0.456 -0.989,0.989c-2.056,0.533 -8.077,1.888 -10.281,1.211c-2.204,-0.678 -4.201,-1.708 -10.739,-3.477c-6.538,-1.768 -4.178,-1.845 -5.243,-3.672c-1.066,-1.827 -3.502,-5.709 -3.045,-6.622c0.456,-0.914 -0.596,-2.132 1.034,-4.872c1.63,-2.741 2.315,-4.644 2.315,-4.644l0,-1.827l-2.315,-4.72l2.011,-1.599l5.861,-1.979l-2.505,2.159l0,13.219c0,0 0.45,0.989 0.83,-0.305c0.381,-1.294 0.283,-2.86 1.398,-3.295c1.115,-0.435 1.918,-0.959 1.918,-0.959c0,0 1.645,-0.161 1.22,1.133c-0.425,1.294 0.045,1.294 0,2.284c-0.044,0.989 1.094,0.082 1.439,2.058c0.344,1.976 0.751,3.553 0.751,3.553l3.177,0.25c0,0 -0.387,1.599 0.831,-0.076c1.218,-1.675 1.447,-1.827 1.447,-1.827c0,0 7.456,1.91 6.354,-0.986c-1.102,-2.896 -1.254,-3.886 -1.254,-3.886c0,0 -2.364,-1.439 0.112,-2.051c2.476,-0.613 5.521,-1.222 5.521,-1.222l0.295,4.13l2.141,0.057l-0.839,-3.281" style="fill:#22aecf;"/><clipPath id="_clip5"><path d="M32.197,15.086l3.199,-0.678l1.979,6.395l-3.686,5.252l-3.013,7.384l0.076,1.904c0,0 1.066,0.456 -0.989,0.989c-2.056,0.533 -8.077,1.888 -10.281,1.211c-2.204,-0.678 -4.201,-1.708 -10.739,-3.477c-6.538,-1.768 -4.178,-1.845 -5.243,-3.672c-1.066,-1.827 -3.502,-5.709 -3.045,-6.622c0.456,-0.914 -0.596,-2.132 1.034,-4.872c1.63,-2.741 2.315,-4.644 2.315,-4.644l0,-1.827l-2.315,-4.72l2.011,-1.599l5.861,-1.979l-2.505,2.159l0,13.219c0,0 0.45,0.989 0.83,-0.305c0.381,-1.294 0.283,-2.86 1.398,-3.295c1.115,-0.435 1.918,-0.959 1.918,-0.959c0,0 1.645,-0.161 1.22,1.133c-0.425,1.294 0.045,1.294 0,2.284c-0.044,0.989 1.094,0.082 1.439,2.058c0.344,1.976 0.751,3.553 0.751,3.553l3.177,0.25c0,0 -0.387,1.599 0.831,-0.076c1.218,-1.675 1.447,-1.827 1.447,-1.827c0,0 7.456,1.91 6.354,-0.986c-1.102,-2.896 -1.254,-3.886 -1.254,-3.886c0,0 -2.364,-1.439 0.112,-2.051c2.476,-0.613 5.521,-1.222 5.521,-1.222l0.295,4.13l2.141,0.057l-0.839,-3.281"/></clipPath><g clip-path="url(#_clip5)"><path d="M41.916,13.087l-12.643,-2.9l-14.524,13.622l-5.678,14.563l29.984,5.484l2.861,-30.769Z" style="fill:#bce0cc;fill-opacity:0.5;"/><path d="M39.055,17.023l-3.434,1.717l-0.301,2.596c0,0 0.761,1.674 -0.837,0.761c-1.599,-0.914 -4.187,-2.436 -4.187,-2.436l-1.974,0.304l2.126,5.025l-2.126,1.979l-1.06,1.317l-2.295,2.413l-2.012,1.599c0,0 -2.099,0.913 -3.393,0.913c-1.294,0 -4.196,-1.2 -4.196,-1.2l-4.623,-0.832l-3.887,-3.423c0,0 0.221,-3.147 1.516,-3.908c1.294,-0.762 1.294,-1.294 1.294,-1.294l-3.633,-0.576l-1.37,-0.685l-0.411,-5.572l0.745,-4.994l-3.508,-2.561l-3.014,-1.827c0,0 -1.674,5.481 -1.674,7.003c0,1.523 2.664,13.17 2.664,14.54c0,1.371 4.948,10.429 4.948,10.429c0,0 20.612,4.452 21.687,4.434c1.075,-0.018 9.18,-0.777 9.18,-0.777c0,0 5.445,-9.823 4.76,-10.812c-0.685,-0.99 -0.985,-14.133 -0.985,-14.133Z" style="fill:#9bffe5;"/><clipPath id="_clip6"><path d="M39.055,17.023l-3.434,1.717l-0.301,2.596c0,0 0.761,1.674 -0.837,0.761c-1.599,-0.914 -4.187,-2.436 -4.187,-2.436l-1.974,0.304l2.126,5.025l-2.126,1.979l-1.06,1.317l-2.295,2.413l-2.012,1.599c0,0 -2.099,0.913 -3.393,0.913c-1.294,0 -4.196,-1.2 -4.196,-1.2l-4.623,-0.832l-3.887,-3.423c0,0 0.221,-3.147 1.516,-3.908c1.294,-0.762 1.294,-1.294 1.294,-1.294l-3.633,-0.576l-1.37,-0.685l-0.411,-5.572l0.745,-4.994l-3.508,-2.561l-3.014,-1.827c0,0 -1.674,5.481 -1.674,7.003c0,1.523 2.664,13.17 2.664,14.54c0,1.371 4.948,10.429 4.948,10.429c0,0 20.612,4.452 21.687,4.434c1.075,-0.018 9.18,-0.777 9.18,-0.777c0,0 5.445,-9.823 4.76,-10.812c-0.685,-0.99 -0.985,-14.133 -0.985,-14.133Z"/></clipPath><g clip-path="url(#_clip6)"><path d="M41.916,13.087l-12.643,-2.9l-14.524,13.622l-5.678,14.563l29.984,5.484l2.861,-30.769Z" style="fill:#bce0cc;fill-opacity:0.5;"/></g><path d="M12.222,8.973l-4.038,11.857l-8.261,-1.907l-0.51,-12.875l12.809,-3.449l0,6.374" style="fill:#191919;fill-opacity:0.5;"/></g></g></g></svg>