<?xml version="1.0" encoding="UTF-8" standalone="no"?><!DOCTYPE svg PUBLIC "-//W3C//DTD SVG 1.1//EN" "http://www.w3.org/Graphics/SVG/1.1/DTD/svg11.dtd"><svg width="100%" height="100%" viewBox="0 0 97 143" version="1.1" xmlns="http://www.w3.org/2000/svg" xmlns:xlink="http://www.w3.org/1999/xlink" xml:space="preserve" xmlns:serif="http://www.serif.com/" style="fill-rule:evenodd;clip-rule:evenodd;stroke-linejoin:round;stroke-miterlimit:1.41421;"><g id="sign02"><g><path d="M51.846,5.91l0,134.165l-5.366,2.683l0,-134.164l5.366,-2.684Z" style="fill:#22aecf;"/><path d="M41.113,5.91l0,134.165l5.367,2.683l0,-134.164l-5.367,-2.684" style="fill:#007e9b;"/><path d="M51.846,5.91l-5.366,-2.683l-5.367,2.683l5.367,2.684l5.366,-2.684" style="fill:#72fffc;"/></g><g><path d="M91.422,37.912l-80.499,-34.883l-10.733,5.367l5.367,13.416l69.765,34.883l10.733,-5.367l5.367,-13.416Z" style="fill:#655e6d;"/><clipPath id="_clip1"><path d="M91.422,37.912l-80.499,-34.883l-10.733,5.367l5.367,13.416l69.765,34.883l10.733,-5.367l5.367,-13.416Z"/></clipPath><g clip-path="url(#_clip1)"><path d="M72.546,50.917c0,0 8.514,2.467 10.146,3.657c1.632,1.191 -0.772,3.075 -0.042,3.255c0.73,0.181 -0.22,2.593 -0.22,2.593c0,0 -0.403,1.265 -2.451,-0.154c-2.049,-1.419 -1.069,-2.252 -2.571,-4.143c-1.502,-1.891 -1.308,-3.653 -6.189,-5.862c-4.938,-2.235 -7.249,-0.806 -11.361,-4.852c-4.133,-4.067 -4.705,-5.481 -7.381,-6.963" style="fill:none;"/></g><path d="M5.557,5.712c0,0 7.535,0.595 8.73,4.366c1.195,3.771 6.56,6.802 10.856,7.307c4.296,0.506 4.734,2.923 15.103,8.549c10.369,5.625 20.011,8.479 22.168,8.207c2.158,-0.272 3.698,-0.079 11.976,3.867c8.278,3.947 9.951,5.006 11.665,5.776c1.714,0.77 2.975,-0.334 2.975,-0.334" style="fill:none;"/><path d="M87.011,48.754c0,0 -17.002,-3.943 -17.988,-3.943c-0.985,0 -6.419,-1.725 -9.801,-3.573c-3.382,-1.848 -15.501,-6.008 -17.05,-6.485c-1.548,-0.476 -9.679,-3.864 -12.39,-5.589c-2.71,-1.725 -8.128,-5.799 -11.117,-6.164c-2.99,-0.366 -7.179,-1.968 -9.643,-4.062c-2.464,-2.095 -4.682,-4.066 -5.298,-4.313c-0.616,-0.246 -1.439,-1.173 -1.439,-1.173" style="fill:none;"/><path d="M12.957,16.461c0,0 -0.99,-0.985 -2.717,-2.034c-1.727,-1.049 -3.941,-1.802 -4.683,-1.921c-0.743,-0.118 0,-2.602 0,-2.602c0,0 0.295,-1.294 2.455,-0.053c2.161,1.241 1.255,2.154 2.911,3.911c1.656,1.758 1.56,3.683 6.662,5.319c5.101,1.637 7.289,0.149 11.729,3.877c4.441,3.727 4.634,5.075 7.425,6.326" style="fill:none;"/><path d="M54.177,26.12c0,0 0.903,1.066 2.535,2.257c1.632,1.191 3.775,2.128 4.505,2.308c0.73,0.181 -0.22,2.593 -0.22,2.593c0,0 -0.403,1.265 -2.451,-0.154c-2.048,-1.419 -1.069,-2.252 -2.571,-4.143c-1.502,-1.891 -1.308,-3.653 -6.189,-5.862c-4.938,-2.235 -7.248,-0.805 -11.361,-4.852c-4.132,-4.067 -4.188,-5.448 -6.864,-6.93" style="fill:none;"/><path d="M16.29,0.346l80.498,34.882l-5.366,2.684l-80.499,-34.883l5.367,-2.683Z" style="fill:#674b75;"/><clipPath id="_clip2"><path d="M16.29,0.346l80.498,34.882l-5.366,2.684l-80.499,-34.883l5.367,-2.683Z"/></clipPath><g clip-path="url(#_clip2)"><path d="M119.158,41.047c0,0 -21.369,-4.902 -22.61,-4.912c-1.241,-0.01 -8.065,-2.134 -12.305,-4.385c-4.241,-2.252 -19.46,-7.365 -21.404,-7.952c-1.945,-0.587 -12.15,-4.734 -15.547,-6.831c-3.396,-2.097 -10.177,-7.038 -13.937,-7.507c-3.761,-0.469 -9.02,-2.433 -12.102,-4.971c-3.082,-2.537 -5.856,-4.925 -6.629,-5.227c-0.773,-0.301 -1.801,-1.422 -1.801,-1.422" style="fill:none;"/></g><path d="M86.055,51.328l5.367,-2.683l5.366,-13.417l-5.366,2.684l-5.367,13.416" style="fill:#007e9b;"/></g><g><g transform="matrix(0.925482,0.378792,-0.035734,1.06589,-120.996,522.203)"><text x="123.297px" y="-511.707px" style="font-family:'OldEnglishTextMT', 'Old English Text MT', cursive;font-size:24.126px;fill:#72fffc;">E<tspan x="149.767px 168.277px " y="-511.707px -511.707px ">nd</tspan></text></g><g transform="matrix(0.925482,0.378792,-0.035734,1.06589,-120.862,521.642)"><text x="124.59px" y="-510.626px" style="font-family:'OldEnglishTextMT', 'Old English Text MT', cursive;font-size:24.126px;fill:#0098a1;">E<tspan x="151.06px 169.57px " y="-510.626px -510.626px ">nd</tspan></text></g><g transform="matrix(0.925482,0.378792,-0.035734,1.06589,-120.696,520.939)"><text x="126.238px" y="-509.43px" style="font-family:'OldEnglishTextMT', 'Old English Text MT', cursive;font-size:24.126px;fill:#0098a1;fill-opacity:0.528571;">E<tspan x="152.709px 171.218px " y="-509.43px -509.43px ">nd</tspan></text></g></g></g></svg>