<?xml version="1.0" encoding="UTF-8" standalone="no"?><!DOCTYPE svg PUBLIC "-//W3C//DTD SVG 1.1//EN" "http://www.w3.org/Graphics/SVG/1.1/DTD/svg11.dtd"><svg width="100%" height="100%" viewBox="0 0 97 144" version="1.1" xmlns="http://www.w3.org/2000/svg" xmlns:xlink="http://www.w3.org/1999/xlink" xml:space="preserve" xmlns:serif="http://www.serif.com/" style="fill-rule:evenodd;clip-rule:evenodd;stroke-linejoin:round;stroke-miterlimit:1.41421;"><g id="sign08"><g><path d="M51.943,6.206l0,134.164l-5.367,2.684l0,-134.165l5.367,-2.683Z" style="fill:#22aecf;"/><path d="M41.21,6.206l0,134.164l5.366,2.684l0,-134.165l-5.366,-2.683" style="fill:#007e9b;"/><path d="M51.943,6.206l-5.367,-2.683l-5.366,2.683l5.366,2.683l5.367,-2.683" style="fill:#72fffc;"/></g><g><path d="M91.518,38.207l-80.498,-34.882l-10.733,5.366l5.366,13.417l69.766,34.882l10.733,-5.366l5.366,-13.417Z" style="fill:#655e6d;"/><clipPath id="_clip1"><path d="M91.518,38.207l-80.498,-34.882l-10.733,5.366l5.366,13.417l69.766,34.882l10.733,-5.366l5.366,-13.417Z"/></clipPath><g clip-path="url(#_clip1)"><path d="M72.643,51.213c0,0 8.513,2.466 10.146,3.657c1.632,1.191 -0.773,3.074 -0.043,3.255c0.73,0.18 -0.219,2.593 -0.219,2.593c0,0 -0.404,1.265 -2.452,-0.154c-2.048,-1.419 -1.068,-2.252 -2.57,-4.143c-1.502,-1.891 -1.308,-3.653 -6.189,-5.862c-4.939,-2.235 -7.249,-0.806 -11.361,-4.852c-4.133,-4.067 -4.706,-5.481 -7.382,-6.963" style="fill:none;"/></g><path d="M5.653,6.008c0,0 7.536,0.594 8.731,4.365c1.194,3.771 6.56,6.802 10.856,7.308c4.295,0.506 4.734,2.923 15.102,8.548c10.369,5.626 20.012,8.48 22.169,8.208c2.157,-0.272 3.697,-0.079 11.975,3.867c8.278,3.947 9.952,5.005 11.666,5.775c1.714,0.77 2.974,-0.333 2.974,-0.333" style="fill:none;"/><path d="M87.108,49.049c0,0 -17.002,-3.942 -17.988,-3.942c-0.986,0 -6.419,-1.725 -9.801,-3.573c-3.382,-1.848 -15.502,-6.008 -17.05,-6.485c-1.548,-0.476 -9.68,-3.865 -12.39,-5.59c-2.711,-1.724 -8.128,-5.798 -11.118,-6.164c-2.989,-0.365 -7.178,-1.967 -9.642,-4.062c-2.465,-2.094 -4.682,-4.065 -5.298,-4.312c-0.616,-0.246 -1.44,-1.173 -1.44,-1.173" style="fill:none;"/><path d="M13.053,16.757c0,0 -0.989,-0.986 -2.716,-2.035c-1.727,-1.049 -3.941,-1.802 -4.684,-1.92c-0.742,-0.118 0,-2.602 0,-2.602c0,0 0.295,-1.294 2.456,-0.053c2.161,1.241 1.255,2.153 2.911,3.911c1.656,1.758 1.56,3.683 6.661,5.319c5.102,1.636 7.289,0.149 11.73,3.877c4.441,3.727 4.634,5.075 7.425,6.326" style="fill:none;"/><path d="M54.273,26.416c0,0 0.903,1.066 2.536,2.257c1.632,1.19 3.775,2.127 4.505,2.308c0.729,0.18 -0.22,2.593 -0.22,2.593c0,0 -0.403,1.265 -2.451,-0.154c-2.049,-1.419 -1.069,-2.252 -2.571,-4.143c-1.502,-1.891 -1.308,-3.653 -6.189,-5.862c-4.938,-2.235 -7.249,-0.806 -11.361,-4.852c-4.133,-4.067 -4.189,-5.448 -6.865,-6.93" style="fill:none;"/><path d="M16.386,0.642l80.499,34.882l-5.367,2.683l-80.498,-34.882l5.366,-2.683Z" style="fill:#674b75;"/><clipPath id="_clip2"><path d="M16.386,0.642l80.499,34.882l-5.367,2.683l-80.498,-34.882l5.366,-2.683Z"/></clipPath><g clip-path="url(#_clip2)"><path d="M119.255,41.343c0,0 -21.369,-4.902 -22.61,-4.912c-1.241,-0.01 -8.065,-2.134 -12.306,-4.386c-4.24,-2.251 -19.459,-7.364 -21.404,-7.951c-1.944,-0.588 -12.15,-4.734 -15.546,-6.831c-3.396,-2.097 -10.177,-7.039 -13.938,-7.508c-3.761,-0.469 -9.019,-2.432 -12.102,-4.97c-3.082,-2.538 -5.855,-4.925 -6.628,-5.227c-0.774,-0.302 -1.801,-1.422 -1.801,-1.422" style="fill:none;"/></g><path d="M86.152,51.624l5.366,-2.683l5.367,-13.417l-5.367,2.683l-5.366,13.417" style="fill:#007e9b;"/></g><g><g transform="matrix(0.919335,0.393475,-0.0908889,1.04884,-134.893,405.242)"><text x="115.645px" y="-410.898px" style="font-family:'OldEnglishTextMT', 'Old English Text MT', cursive;font-size:19.088px;fill:#72fffc;">N<tspan x="144.335px 157.07px 168.321px 176.298px " y="-410.898px -410.898px -410.898px -410.898px ">orth</tspan></text></g><g transform="matrix(0.919335,0.393475,-0.0908889,1.04884,-134.736,404.813)"><text x="116.627px" y="-410.038px" style="font-family:'OldEnglishTextMT', 'Old English Text MT', cursive;font-size:19.088px;fill:#0098a1;">N<tspan x="145.317px 158.053px 169.304px 177.281px " y="-410.038px -410.038px -410.038px -410.038px ">orth</tspan></text></g><g transform="matrix(0.919335,0.393475,-0.0908889,1.04884,-134.547,404.271)"><text x="117.888px" y="-409.084px" style="font-family:'OldEnglishTextMT', 'Old English Text MT', cursive;font-size:19.088px;fill:#0098a1;fill-opacity:0.528571;">N<tspan x="146.577px 159.313px 170.564px 178.541px " y="-409.084px -409.084px -409.084px -409.084px ">orth</tspan></text></g></g></g></svg>