<?xml version="1.0" encoding="UTF-8" standalone="no"?><!DOCTYPE svg PUBLIC "-//W3C//DTD SVG 1.1//EN" "http://www.w3.org/Graphics/SVG/1.1/DTD/svg11.dtd"><svg width="100%" height="100%" viewBox="0 0 92 63" version="1.1" xmlns="http://www.w3.org/2000/svg" xmlns:xlink="http://www.w3.org/1999/xlink" xml:space="preserve" xmlns:serif="http://www.serif.com/" style="fill-rule:evenodd;clip-rule:evenodd;stroke-linejoin:round;stroke-miterlimit:1.41421;"><g id="trunk01"><path d="M86.924,55.45l-13.684,6.842l-68.424,-38.773l9.123,-9.123l72.985,41.054" style="fill:#22aecf;"/><clipPath id="_clip1"><path d="M86.924,55.45l-13.684,6.842l-68.424,-38.773l9.123,-9.123l72.985,41.054"/></clipPath><g clip-path="url(#_clip1)"><path d="M94.788,45.697l-11.052,0.445l-15.058,2.944l-11.778,7.691l-26.597,-11.391l40.627,-29.864l23.858,30.175Z" style="fill:#12365f;fill-opacity:0.528571;"/></g><path d="M86.924,32.642l4.562,11.404l-71.542,-35.771l19.541,0.648l47.439,23.719Z" style="fill:#007e9b;"/><clipPath id="_clip2"><path d="M86.924,32.642l4.562,11.404l-71.542,-35.771l19.541,0.648l47.439,23.719Z"/></clipPath><g clip-path="url(#_clip2)"><path d="M94.788,45.697l-11.052,0.445l-15.058,2.944l-11.778,7.691l-26.597,-11.391l40.627,-29.864l23.858,30.175Z" style="fill:#12365f;fill-opacity:0.528571;"/></g><path d="M91.486,44.046l-4.562,11.404l-59.3,-25.089l18.246,-9.123l45.616,22.808" style="fill:#72fffc;"/><clipPath id="_clip3"><path d="M91.486,44.046l-4.562,11.404l-59.3,-25.089l18.246,-9.123l45.616,22.808"/></clipPath><g clip-path="url(#_clip3)"><path d="M94.788,45.697l-11.052,0.445l-15.058,2.944l-11.778,7.691l-26.597,-11.391l40.627,-29.864l23.858,30.175Z" style="fill:#12365f;fill-opacity:0.528571;"/></g><path d="M23.062,0.711l63.862,31.931l-13.684,2.281l-63.862,-31.931l13.684,-2.281Z" style="fill:#72fffc;"/><path d="M9.378,2.992l-9.124,4.562l63.863,31.931l9.123,-4.562l-63.862,-31.931" style="fill:#72fffc;"/><path d="M0.254,7.554l0,9.123l59.301,34.212l4.562,-11.404l-63.863,-31.931" style="fill:#22aecf;"/><path d="M4.816,23.519l-4.562,-6.842l59.301,34.212l13.685,11.403l-68.424,-38.773Z" style="fill:#007e9b;"/><path d="M86.924,32.642l0,4.562l-13.684,2.281l0,-4.562l13.684,-2.281Z" style="fill:#72fffc;"/><path d="M65.265,44.62l-1.148,-5.135l9.123,-4.562l0,4.562l-7.975,5.135Z" style="fill:#72fffc;"/><path d="M59.555,50.889l4.562,-1.202l1.267,-5.007l-1.267,-5.195l-4.562,11.404" style="fill:#22aecf;"/><path d="M64.117,49.687l9.123,8.044l0,4.561l-13.685,-11.403l4.562,-1.202Z" style="fill:#22aecf;"/><path d="M73.24,57.731l12.024,-6.012l1.66,3.731l-13.684,6.842l0,-4.561Z" style="fill:#22aecf;"/><path d="M91.486,44.046l-3.505,-0.221l-2.833,7.952l1.776,3.673l4.562,-11.404Z" style="fill:#72fffc;"/><path d="M87.981,43.825l-2.564,-6.621l1.507,-4.562l4.562,11.404l-3.505,-0.221Z" style="fill:#007e9b;"/><g><path d="M62.996,7.663l-4.405,0.972l2.403,6.638l5.238,-3.142l-3.236,-4.468" style="fill:#22aecf;"/><path d="M62.472,9.874l-4.406,0.973l2.403,6.637l5.238,-3.141l-3.235,-4.469" style="fill:#12365f;"/><path d="M58.591,8.635l2.642,3.692l-0.754,6.035l0.045,7.356l-5.466,-2.634l2.446,-7.811l1.087,-6.638Z" style="fill:#007e9b;"/><path d="M64.653,24.619l-1.156,-5.754l2.681,-6.707l-4.945,0.169l-0.894,6.034l-0.06,7.479l4.374,-1.221Z" style="fill:#72fffc;"/></g></g></svg>